<svg viewBox="0 0 24 24" fill="#000000" xmlns="http://www.w3.org/2000/svg"><rect x="4.286" y="5.143" width="0.8571428571428571" height="0.8571428571428571" /><rect x="5.143" y="5.143" width="0.8571428571428571" height="0.8571428571428571" /><rect x="6.000" y="5.143" width="0.8571428571428571" height="0.8571428571428571" /><rect x="6.857" y="5.143" width="0.8571428571428571" height="0.8571428571428571" /><rect x="7.714" y="5.143" width="0.8571428571428571" height="0.8571428571428571" /><rect x="8.571" y="5.143" width="0.8571428571428571" height="0.8571428571428571" /><rect x="9.429" y="5.143" width="0.8571428571428571" height="0.8571428571428571" /><rect x="10.286" y="5.143" width="0.8571428571428571" height="0.8571428571428571" /><rect x="11.143" y="5.143" width="0.8571428571428571" height="0.8571428571428571" /><rect x="12.000" y="5.143" width="0.8571428571428571" height="0.8571428571428571" /><rect x="12.857" y="5.143" width="0.8571428571428571" height="0.8571428571428571" /><rect x="13.714" y="5.143" width="0.8571428571428571" height="0.8571428571428571" /><rect x="14.571" y="5.143" width="0.8571428571428571" height="0.8571428571428571" /><rect x="15.429" y="5.143" width="0.8571428571428571" height="0.8571428571428571" /><rect x="16.286" y="5.143" width="0.8571428571428571" height="0.8571428571428571" /><rect x="17.143" y="5.143" width="0.8571428571428571" height="0.8571428571428571" /><rect x="18.000" y="5.143" width="0.8571428571428571" height="0.8571428571428571" /><rect x="18.857" y="5.143" width="0.8571428571428571" height="0.8571428571428571" /><rect x="3.429" y="6.000" width="0.8571428571428571" height="0.8571428571428571" /><rect x="4.286" y="6.000" width="0.8571428571428571" height="0.8571428571428571" /><rect x="5.143" y="6.000" width="0.8571428571428571" height="0.8571428571428571" /><rect x="6.000" y="6.000" width="0.8571428571428571" height="0.8571428571428571" /><rect x="6.857" y="6.000" width="0.8571428571428571" height="0.8571428571428571" /><rect x="7.714" y="6.000" width="0.8571428571428571" height="0.8571428571428571" /><rect x="8.571" y="6.000" width="0.8571428571428571" height="0.8571428571428571" /><rect x="9.429" y="6.000" width="0.8571428571428571" height="0.8571428571428571" /><rect x="10.286" y="6.000" width="0.8571428571428571" height="0.8571428571428571" /><rect x="12.857" y="6.000" width="0.8571428571428571" height="0.8571428571428571" /><rect x="13.714" y="6.000" width="0.8571428571428571" height="0.8571428571428571" /><rect x="14.571" y="6.000" width="0.8571428571428571" height="0.8571428571428571" /><rect x="15.429" y="6.000" width="0.8571428571428571" height="0.8571428571428571" /><rect x="16.286" y="6.000" width="0.8571428571428571" height="0.8571428571428571" /><rect x="17.143" y="6.000" width="0.8571428571428571" height="0.8571428571428571" /><rect x="18.000" y="6.000" width="0.8571428571428571" height="0.8571428571428571" /><rect x="18.857" y="6.000" width="0.8571428571428571" height="0.8571428571428571" /><rect x="19.714" y="6.000" width="0.8571428571428571" height="0.8571428571428571" /><rect x="2.571" y="6.857" width="0.8571428571428571" height="0.8571428571428571" /><rect x="3.429" y="6.857" width="0.8571428571428571" height="0.8571428571428571" /><rect x="4.286" y="6.857" width="0.8571428571428571" height="0.8571428571428571" /><rect x="5.143" y="6.857" width="0.8571428571428571" height="0.8571428571428571" /><rect x="6.000" y="6.857" width="0.8571428571428571" height="0.8571428571428571" /><rect x="6.857" y="6.857" width="0.8571428571428571" height="0.8571428571428571" /><rect x="7.714" y="6.857" width="0.8571428571428571" height="0.8571428571428571" /><rect x="8.571" y="6.857" width="0.8571428571428571" height="0.8571428571428571" /><rect x="9.429" y="6.857" width="0.8571428571428571" height="0.8571428571428571" /><rect x="13.714" y="6.857" width="0.8571428571428571" height="0.8571428571428571" /><rect x="14.571" y="6.857" width="0.8571428571428571" height="0.8571428571428571" /><rect x="15.429" y="6.857" width="0.8571428571428571" height="0.8571428571428571" /><rect x="16.286" y="6.857" width="0.8571428571428571" height="0.8571428571428571" /><rect x="17.143" y="6.857" width="0.8571428571428571" height="0.8571428571428571" /><rect x="18.000" y="6.857" width="0.8571428571428571" height="0.8571428571428571" /><rect x="18.857" y="6.857" width="0.8571428571428571" height="0.8571428571428571" /><rect x="19.714" y="6.857" width="0.8571428571428571" height="0.8571428571428571" /><rect x="20.571" y="6.857" width="0.8571428571428571" height="0.8571428571428571" /><rect x="2.571" y="7.714" width="0.8571428571428571" height="0.8571428571428571" /><rect x="3.429" y="7.714" width="0.8571428571428571" height="0.8571428571428571" /><rect x="4.286" y="7.714" width="0.8571428571428571" height="0.8571428571428571" /><rect x="5.143" y="7.714" width="0.8571428571428571" height="0.8571428571428571" /><rect x="6.000" y="7.714" width="0.8571428571428571" height="0.8571428571428571" /><rect x="6.857" y="7.714" width="0.8571428571428571" height="0.8571428571428571" /><rect x="7.714" y="7.714" width="0.8571428571428571" height="0.8571428571428571" /><rect x="8.571" y="7.714" width="0.8571428571428571" height="0.8571428571428571" /><rect x="14.571" y="7.714" width="0.8571428571428571" height="0.8571428571428571" /><rect x="15.429" y="7.714" width="0.8571428571428571" height="0.8571428571428571" /><rect x="16.286" y="7.714" width="0.8571428571428571" height="0.8571428571428571" /><rect x="17.143" y="7.714" width="0.8571428571428571" height="0.8571428571428571" /><rect x="18.000" y="7.714" width="0.8571428571428571" height="0.8571428571428571" /><rect x="18.857" y="7.714" width="0.8571428571428571" height="0.8571428571428571" /><rect x="19.714" y="7.714" width="0.8571428571428571" height="0.8571428571428571" /><rect x="20.571" y="7.714" width="0.8571428571428571" height="0.8571428571428571" /><rect x="2.571" y="8.571" width="0.8571428571428571" height="0.8571428571428571" /><rect x="3.429" y="8.571" width="0.8571428571428571" height="0.8571428571428571" /><rect x="6.000" y="8.571" width="0.8571428571428571" height="0.8571428571428571" /><rect x="6.857" y="8.571" width="0.8571428571428571" height="0.8571428571428571" /><rect x="7.714" y="8.571" width="0.8571428571428571" height="0.8571428571428571" /><rect x="10.286" y="8.571" width="0.8571428571428571" height="0.8571428571428571" /><rect x="12.857" y="8.571" width="0.8571428571428571" height="0.8571428571428571" /><rect x="15.429" y="8.571" width="0.8571428571428571" height="0.8571428571428571" /><rect x="16.286" y="8.571" width="0.8571428571428571" height="0.8571428571428571" /><rect x="17.143" y="8.571" width="0.8571428571428571" height="0.8571428571428571" /><rect x="19.714" y="8.571" width="0.8571428571428571" height="0.8571428571428571" /><rect x="20.571" y="8.571" width="0.8571428571428571" height="0.8571428571428571" /><rect x="1.714" y="9.429" width="0.8571428571428571" height="0.8571428571428571" /><rect x="2.571" y="9.429" width="0.8571428571428571" height="0.8571428571428571" /><rect x="3.429" y="9.429" width="0.8571428571428571" height="0.8571428571428571" /><rect x="6.000" y="9.429" width="0.8571428571428571" height="0.8571428571428571" /><rect x="6.857" y="9.429" width="0.8571428571428571" height="0.8571428571428571" /><rect x="7.714" y="9.429" width="0.8571428571428571" height="0.8571428571428571" /><rect x="10.286" y="9.429" width="0.8571428571428571" height="0.8571428571428571" /><rect x="12.857" y="9.429" width="0.8571428571428571" height="0.8571428571428571" /><rect x="15.429" y="9.429" width="0.8571428571428571" height="0.8571428571428571" /><rect x="16.286" y="9.429" width="0.8571428571428571" height="0.8571428571428571" /><rect x="17.143" y="9.429" width="0.8571428571428571" height="0.8571428571428571" /><rect x="19.714" y="9.429" width="0.8571428571428571" height="0.8571428571428571" /><rect x="20.571" y="9.429" width="0.8571428571428571" height="0.8571428571428571" /><rect x="1.714" y="10.286" width="0.8571428571428571" height="0.8571428571428571" /><rect x="2.571" y="10.286" width="0.8571428571428571" height="0.8571428571428571" /><rect x="3.429" y="10.286" width="0.8571428571428571" height="0.8571428571428571" /><rect x="6.000" y="10.286" width="0.8571428571428571" height="0.8571428571428571" /><rect x="6.857" y="10.286" width="0.8571428571428571" height="0.8571428571428571" /><rect x="7.714" y="10.286" width="0.8571428571428571" height="0.8571428571428571" /><rect x="10.286" y="10.286" width="0.8571428571428571" height="0.8571428571428571" /><rect x="12.857" y="10.286" width="0.8571428571428571" height="0.8571428571428571" /><rect x="13.714" y="10.286" width="0.8571428571428571" height="0.8571428571428571" /><rect x="14.571" y="10.286" width="0.8571428571428571" height="0.8571428571428571" /><rect x="15.429" y="10.286" width="0.8571428571428571" height="0.8571428571428571" /><rect x="16.286" y="10.286" width="0.8571428571428571" height="0.8571428571428571" /><rect x="17.143" y="10.286" width="0.8571428571428571" height="0.8571428571428571" /><rect x="19.714" y="10.286" width="0.8571428571428571" height="0.8571428571428571" /><rect x="20.571" y="10.286" width="0.8571428571428571" height="0.8571428571428571" /><rect x="1.714" y="11.143" width="0.8571428571428571" height="0.8571428571428571" /><rect x="2.571" y="11.143" width="0.8571428571428571" height="0.8571428571428571" /><rect x="3.429" y="11.143" width="0.8571428571428571" height="0.8571428571428571" /><rect x="6.000" y="11.143" width="0.8571428571428571" height="0.8571428571428571" /><rect x="6.857" y="11.143" width="0.8571428571428571" height="0.8571428571428571" /><rect x="7.714" y="11.143" width="0.8571428571428571" height="0.8571428571428571" /><rect x="8.571" y="11.143" width="0.8571428571428571" height="0.8571428571428571" /><rect x="13.714" y="11.143" width="0.8571428571428571" height="0.8571428571428571" /><rect x="14.571" y="11.143" width="0.8571428571428571" height="0.8571428571428571" /><rect x="15.429" y="11.143" width="0.8571428571428571" height="0.8571428571428571" /><rect x="16.286" y="11.143" width="0.8571428571428571" height="0.8571428571428571" /><rect x="17.143" y="11.143" width="0.8571428571428571" height="0.8571428571428571" /><rect x="19.714" y="11.143" width="0.8571428571428571" height="0.8571428571428571" /><rect x="20.571" y="11.143" width="0.8571428571428571" height="0.8571428571428571" /><rect x="21.429" y="11.143" width="0.8571428571428571" height="0.8571428571428571" /><rect x="1.714" y="12.000" width="0.8571428571428571" height="0.8571428571428571" /><rect x="2.571" y="12.000" width="0.8571428571428571" height="0.8571428571428571" /><rect x="3.429" y="12.000" width="0.8571428571428571" height="0.8571428571428571" /><rect x="6.000" y="12.000" width="0.8571428571428571" height="0.8571428571428571" /><rect x="6.857" y="12.000" width="0.8571428571428571" height="0.8571428571428571" /><rect x="7.714" y="12.000" width="0.8571428571428571" height="0.8571428571428571" /><rect x="8.571" y="12.000" width="0.8571428571428571" height="0.8571428571428571" /><rect x="9.429" y="12.000" width="0.8571428571428571" height="0.8571428571428571" /><rect x="14.571" y="12.000" width="0.8571428571428571" height="0.8571428571428571" /><rect x="15.429" y="12.000" width="0.8571428571428571" height="0.8571428571428571" /><rect x="16.286" y="12.000" width="0.8571428571428571" height="0.8571428571428571" /><rect x="17.143" y="12.000" width="0.8571428571428571" height="0.8571428571428571" /><rect x="19.714" y="12.000" width="0.8571428571428571" height="0.8571428571428571" /><rect x="20.571" y="12.000" width="0.8571428571428571" height="0.8571428571428571" /><rect x="21.429" y="12.000" width="0.8571428571428571" height="0.8571428571428571" /><rect x="1.714" y="12.857" width="0.8571428571428571" height="0.8571428571428571" /><rect x="2.571" y="12.857" width="0.8571428571428571" height="0.8571428571428571" /><rect x="3.429" y="12.857" width="0.8571428571428571" height="0.8571428571428571" /><rect x="6.000" y="12.857" width="0.8571428571428571" height="0.8571428571428571" /><rect x="6.857" y="12.857" width="0.8571428571428571" height="0.8571428571428571" /><rect x="7.714" y="12.857" width="0.8571428571428571" height="0.8571428571428571" /><rect x="8.571" y="12.857" width="0.8571428571428571" height="0.8571428571428571" /><rect x="9.429" y="12.857" width="0.8571428571428571" height="0.8571428571428571" /><rect x="10.286" y="12.857" width="0.8571428571428571" height="0.8571428571428571" /><rect x="15.429" y="12.857" width="0.8571428571428571" height="0.8571428571428571" /><rect x="16.286" y="12.857" width="0.8571428571428571" height="0.8571428571428571" /><rect x="17.143" y="12.857" width="0.8571428571428571" height="0.8571428571428571" /><rect x="19.714" y="12.857" width="0.8571428571428571" height="0.8571428571428571" /><rect x="20.571" y="12.857" width="0.8571428571428571" height="0.8571428571428571" /><rect x="21.429" y="12.857" width="0.8571428571428571" height="0.8571428571428571" /><rect x="2.571" y="13.714" width="0.8571428571428571" height="0.8571428571428571" /><rect x="3.429" y="13.714" width="0.8571428571428571" height="0.8571428571428571" /><rect x="6.000" y="13.714" width="0.8571428571428571" height="0.8571428571428571" /><rect x="6.857" y="13.714" width="0.8571428571428571" height="0.8571428571428571" /><rect x="7.714" y="13.714" width="0.8571428571428571" height="0.8571428571428571" /><rect x="10.286" y="13.714" width="0.8571428571428571" height="0.8571428571428571" /><rect x="12.857" y="13.714" width="0.8571428571428571" height="0.8571428571428571" /><rect x="15.429" y="13.714" width="0.8571428571428571" height="0.8571428571428571" /><rect x="16.286" y="13.714" width="0.8571428571428571" height="0.8571428571428571" /><rect x="17.143" y="13.714" width="0.8571428571428571" height="0.8571428571428571" /><rect x="19.714" y="13.714" width="0.8571428571428571" height="0.8571428571428571" /><rect x="20.571" y="13.714" width="0.8571428571428571" height="0.8571428571428571" /><rect x="2.571" y="14.571" width="0.8571428571428571" height="0.8571428571428571" /><rect x="3.429" y="14.571" width="0.8571428571428571" height="0.8571428571428571" /><rect x="6.000" y="14.571" width="0.8571428571428571" height="0.8571428571428571" /><rect x="6.857" y="14.571" width="0.8571428571428571" height="0.8571428571428571" /><rect x="7.714" y="14.571" width="0.8571428571428571" height="0.8571428571428571" /><rect x="10.286" y="14.571" width="0.8571428571428571" height="0.8571428571428571" /><rect x="12.857" y="14.571" width="0.8571428571428571" height="0.8571428571428571" /><rect x="15.429" y="14.571" width="0.8571428571428571" height="0.8571428571428571" /><rect x="16.286" y="14.571" width="0.8571428571428571" height="0.8571428571428571" /><rect x="17.143" y="14.571" width="0.8571428571428571" height="0.8571428571428571" /><rect x="19.714" y="14.571" width="0.8571428571428571" height="0.8571428571428571" /><rect x="20.571" y="14.571" width="0.8571428571428571" height="0.8571428571428571" /><rect x="2.571" y="15.429" width="0.8571428571428571" height="0.8571428571428571" /><rect x="3.429" y="15.429" width="0.8571428571428571" height="0.8571428571428571" /><rect x="4.286" y="15.429" width="0.8571428571428571" height="0.8571428571428571" /><rect x="5.143" y="15.429" width="0.8571428571428571" height="0.8571428571428571" /><rect x="6.000" y="15.429" width="0.8571428571428571" height="0.8571428571428571" /><rect x="6.857" y="15.429" width="0.8571428571428571" height="0.8571428571428571" /><rect x="7.714" y="15.429" width="0.8571428571428571" height="0.8571428571428571" /><rect x="14.571" y="15.429" width="0.8571428571428571" height="0.8571428571428571" /><rect x="15.429" y="15.429" width="0.8571428571428571" height="0.8571428571428571" /><rect x="16.286" y="15.429" width="0.8571428571428571" height="0.8571428571428571" /><rect x="17.143" y="15.429" width="0.8571428571428571" height="0.8571428571428571" /><rect x="18.000" y="15.429" width="0.8571428571428571" height="0.8571428571428571" /><rect x="18.857" y="15.429" width="0.8571428571428571" height="0.8571428571428571" /><rect x="19.714" y="15.429" width="0.8571428571428571" height="0.8571428571428571" /><rect x="20.571" y="15.429" width="0.8571428571428571" height="0.8571428571428571" /><rect x="2.571" y="16.286" width="0.8571428571428571" height="0.8571428571428571" /><rect x="3.429" y="16.286" width="0.8571428571428571" height="0.8571428571428571" /><rect x="4.286" y="16.286" width="0.8571428571428571" height="0.8571428571428571" /><rect x="5.143" y="16.286" width="0.8571428571428571" height="0.8571428571428571" /><rect x="6.000" y="16.286" width="0.8571428571428571" height="0.8571428571428571" /><rect x="6.857" y="16.286" width="0.8571428571428571" height="0.8571428571428571" /><rect x="7.714" y="16.286" width="0.8571428571428571" height="0.8571428571428571" /><rect x="8.571" y="16.286" width="0.8571428571428571" height="0.8571428571428571" /><rect x="13.714" y="16.286" width="0.8571428571428571" height="0.8571428571428571" /><rect x="14.571" y="16.286" width="0.8571428571428571" height="0.8571428571428571" /><rect x="15.429" y="16.286" width="0.8571428571428571" height="0.8571428571428571" /><rect x="16.286" y="16.286" width="0.8571428571428571" height="0.8571428571428571" /><rect x="17.143" y="16.286" width="0.8571428571428571" height="0.8571428571428571" /><rect x="18.000" y="16.286" width="0.8571428571428571" height="0.8571428571428571" /><rect x="18.857" y="16.286" width="0.8571428571428571" height="0.8571428571428571" /><rect x="19.714" y="16.286" width="0.8571428571428571" height="0.8571428571428571" /><rect x="20.571" y="16.286" width="0.8571428571428571" height="0.8571428571428571" /><rect x="3.429" y="17.143" width="0.8571428571428571" height="0.8571428571428571" /><rect x="4.286" y="17.143" width="0.8571428571428571" height="0.8571428571428571" /><rect x="5.143" y="17.143" width="0.8571428571428571" height="0.8571428571428571" /><rect x="6.000" y="17.143" width="0.8571428571428571" height="0.8571428571428571" /><rect x="6.857" y="17.143" width="0.8571428571428571" height="0.8571428571428571" /><rect x="7.714" y="17.143" width="0.8571428571428571" height="0.8571428571428571" /><rect x="8.571" y="17.143" width="0.8571428571428571" height="0.8571428571428571" /><rect x="9.429" y="17.143" width="0.8571428571428571" height="0.8571428571428571" /><rect x="10.286" y="17.143" width="0.8571428571428571" height="0.8571428571428571" /><rect x="12.857" y="17.143" width="0.8571428571428571" height="0.8571428571428571" /><rect x="13.714" y="17.143" width="0.8571428571428571" height="0.8571428571428571" /><rect x="14.571" y="17.143" width="0.8571428571428571" height="0.8571428571428571" /><rect x="15.429" y="17.143" width="0.8571428571428571" height="0.8571428571428571" /><rect x="16.286" y="17.143" width="0.8571428571428571" height="0.8571428571428571" /><rect x="17.143" y="17.143" width="0.8571428571428571" height="0.8571428571428571" /><rect x="18.000" y="17.143" width="0.8571428571428571" height="0.8571428571428571" /><rect x="18.857" y="17.143" width="0.8571428571428571" height="0.8571428571428571" /><rect x="19.714" y="17.143" width="0.8571428571428571" height="0.8571428571428571" /><rect x="4.286" y="18.000" width="0.8571428571428571" height="0.8571428571428571" /><rect x="5.143" y="18.000" width="0.8571428571428571" height="0.8571428571428571" /><rect x="6.000" y="18.000" width="0.8571428571428571" height="0.8571428571428571" /><rect x="6.857" y="18.000" width="0.8571428571428571" height="0.8571428571428571" /><rect x="7.714" y="18.000" width="0.8571428571428571" height="0.8571428571428571" /><rect x="8.571" y="18.000" width="0.8571428571428571" height="0.8571428571428571" /><rect x="9.429" y="18.000" width="0.8571428571428571" height="0.8571428571428571" /><rect x="10.286" y="18.000" width="0.8571428571428571" height="0.8571428571428571" /><rect x="11.143" y="18.000" width="0.8571428571428571" height="0.8571428571428571" /><rect x="12.000" y="18.000" width="0.8571428571428571" height="0.8571428571428571" /><rect x="12.857" y="18.000" width="0.8571428571428571" height="0.8571428571428571" /><rect x="13.714" y="18.000" width="0.8571428571428571" height="0.8571428571428571" /><rect x="14.571" y="18.000" width="0.8571428571428571" height="0.8571428571428571" /><rect x="15.429" y="18.000" width="0.8571428571428571" height="0.8571428571428571" /><rect x="16.286" y="18.000" width="0.8571428571428571" height="0.8571428571428571" /><rect x="17.143" y="18.000" width="0.8571428571428571" height="0.8571428571428571" /><rect x="18.000" y="18.000" width="0.8571428571428571" height="0.8571428571428571" /><rect x="18.857" y="18.000" width="0.8571428571428571" height="0.8571428571428571" /></svg>