<svg width="24" height="24" viewBox="0 0 24 24" fill="none" xmlns="http://www.w3.org/2000/svg">
<g clip-path="url(#clip0_221_14635)">
<path fill-rule="evenodd" clip-rule="evenodd" d="M9.318 3.39001C9.4567 2.78244 9.79758 2.23997 10.2848 1.85143C10.7721 1.46288 11.3768 1.25128 12 1.25128C12.6232 1.25128 13.2279 1.46288 13.7152 1.85143C14.2024 2.23997 14.5433 2.78244 14.682 3.39001C14.898 3.48201 15.092 3.61901 15.25 3.79301C15.575 4.15401 15.733 4.68101 15.544 5.22701C15.3301 5.84206 14.9602 6.39102 14.4704 6.82014C13.9806 7.24927 13.3878 7.54384 12.75 7.67501V13.407C12.8732 13.2892 13.0024 13.1777 13.137 13.073L13.148 13.063L16.488 10.677C16.22 10.0903 16.1025 9.44594 16.1461 8.80234C16.1898 8.15875 16.3932 7.5362 16.738 6.99101C16.8764 6.76874 17.0731 6.58871 17.3067 6.47057C17.5404 6.35242 17.802 6.30069 18.063 6.32101C18.303 6.33801 18.536 6.40901 18.747 6.52601C19.3204 6.25015 19.9711 6.17898 20.5906 6.32435C21.2101 6.46973 21.7611 6.82287 22.152 7.32501C22.5442 7.82857 22.7547 8.44995 22.7493 9.08823C22.7438 9.72652 22.5228 10.3442 22.122 10.841C22.187 11.075 22.202 11.321 22.162 11.56C22.1213 11.8182 22.0111 12.0604 21.8432 12.2607C21.6753 12.461 21.4561 12.6118 21.209 12.697C20.556 12.9252 19.8531 12.9709 19.176 12.829C18.499 12.6872 17.8735 12.3632 17.367 11.892L14.045 14.267C13.6408 14.5847 13.3142 14.9902 13.0898 15.4528C12.8655 15.9154 12.7493 16.4229 12.75 16.937V21.25H15C15.1989 21.25 15.3897 21.329 15.5303 21.4697C15.671 21.6103 15.75 21.8011 15.75 22C15.75 22.1989 15.671 22.3897 15.5303 22.5303C15.3897 22.671 15.1989 22.75 15 22.75H9C8.80109 22.75 8.61032 22.671 8.46967 22.5303C8.32902 22.3897 8.25 22.1989 8.25 22C8.25 21.8011 8.32902 21.6103 8.46967 21.4697C8.61032 21.329 8.80109 21.25 9 21.25H11.25V16.937C11.2507 16.4229 11.1345 15.9154 10.9102 15.4528C10.6858 14.9902 10.3592 14.5847 9.955 14.267L6.633 11.892C6.12652 12.3632 5.50104 12.6872 4.82399 12.829C4.14694 12.9709 3.44402 12.9252 2.791 12.697C2.54411 12.6117 2.32509 12.4608 2.15739 12.2605C1.98969 12.0602 1.87963 11.8181 1.839 11.56C1.80004 11.3201 1.813 11.0745 1.877 10.84C1.47661 10.3432 1.25586 9.72562 1.2506 9.08756C1.24534 8.44949 1.45586 7.82838 1.848 7.32501C2.23874 6.8227 2.78972 6.46936 3.40925 6.3238C4.02877 6.17825 4.67945 6.24926 5.253 6.52501C5.46334 6.40797 5.69686 6.33866 5.937 6.32201C6.19793 6.30159 6.45946 6.35317 6.6931 6.47113C6.92673 6.5891 7.12351 6.76892 7.262 6.99101C7.958 8.08601 8.062 9.48101 7.512 10.677L10.852 13.064L10.863 13.073C10.999 13.1783 11.128 13.2897 11.25 13.407V7.67501C10.6122 7.54384 10.0194 7.24927 9.52958 6.82014C9.0398 6.39102 8.66987 5.84206 8.456 5.22701C8.37017 4.98382 8.35218 4.72184 8.40398 4.46921C8.45577 4.21657 8.57539 3.98281 8.75 3.79301C8.907 3.61901 9.102 3.48301 9.318 3.39001ZM11 3.25001H13C12.8838 3.0944 12.7329 2.96806 12.5593 2.88102C12.3857 2.79399 12.1942 2.74867 12 2.74867C11.8058 2.74867 11.6143 2.79399 11.4407 2.88102C11.2671 2.96806 11.1162 3.0944 11 3.25001ZM4.118 7.75201C3.91008 7.74074 3.70252 7.77996 3.51306 7.86634C3.3236 7.95271 3.15786 8.08366 3.03 8.24801C2.90096 8.41399 2.8131 8.60821 2.77364 8.81471C2.73418 9.02122 2.74424 9.23414 2.803 9.43601L4.118 7.75201ZM21.197 9.43601C21.312 9.04101 21.242 8.59601 20.97 8.24801C20.8421 8.08366 20.6764 7.95271 20.4869 7.86634C20.2975 7.77996 20.0899 7.74074 19.882 7.75201L21.197 9.43601ZM9.888 4.77901C10.0473 5.21092 10.3351 5.58362 10.7127 5.84687C11.0904 6.11012 11.5397 6.25126 12 6.25126C12.4603 6.25126 12.9096 6.11012 13.2872 5.84687C13.6649 5.58362 13.9527 5.21092 14.112 4.77901L14.091 4.76901C14.0626 4.75562 14.0314 4.74911 14 4.75001H10C9.9608 4.74998 9.92225 4.75996 9.888 4.77901ZM5.98 7.83801C5.95034 7.85569 5.92395 7.87835 5.902 7.90501L3.37 11.146C3.34882 11.1746 3.3329 11.2068 3.323 11.241C3.31856 11.2573 3.31621 11.2741 3.316 11.291C3.78211 11.4471 4.28596 11.4498 4.75369 11.2986C5.22142 11.1474 5.62841 10.8504 5.915 10.451C6.18914 10.0717 6.34483 9.61969 6.36245 9.152C6.38007 8.68432 6.25882 8.22188 6.014 7.82301L5.98 7.83801ZM17.986 7.82301C17.7338 8.23412 17.6131 8.71239 17.6399 9.19395C17.6667 9.6755 17.8397 10.1374 18.136 10.518C18.4281 10.8952 18.8302 11.1722 19.2868 11.3107C19.7433 11.4492 20.2316 11.4423 20.684 11.291C20.6838 11.2741 20.6814 11.2573 20.677 11.241C20.6671 11.2068 20.6512 11.1746 20.63 11.146L18.098 7.90501C18.0688 7.86803 18.0301 7.83969 17.986 7.82301Z" fill="black"/>
</g>
<defs>
<clipPath id="clip0_221_14635">
<rect width="24" height="24" fill="white"/>
</clipPath>
</defs>
</svg>
