<svg width="24" height="24" viewBox="0 0 24 24" fill="none" xmlns="http://www.w3.org/2000/svg">
<path fill-rule="evenodd" clip-rule="evenodd" d="M20.3357 12.3791C20.7577 12.3791 21.093 12.7167 21.093 13.1333C21.093 13.5271 21.093 13.9285 21.093 13.9285L22.0236 14.6718C22.2725 14.8698 22.3806 15.1944 22.3048 15.5016C22.056 16.5014 21.6665 17.46 21.1364 18.3461C20.9741 18.6188 20.6711 18.7724 20.3466 18.7389L19.1673 18.6112C18.7453 19.149 18.2583 19.6359 17.7173 20.0643L17.8472 21.2468C17.8905 21.5617 17.739 21.869 17.4685 22.0324C16.5813 22.5625 15.6184 22.9607 14.623 23.215C14.32 23.2929 13.9954 23.1847 13.7898 22.938L13.0433 22.0118C12.3617 22.0908 11.6801 22.0918 10.9984 22.0161L10.2519 22.9455C10.0572 23.1933 9.73258 23.3026 9.41881 23.2258C8.42341 22.9748 7.46046 22.5798 6.57326 22.054C6.30277 21.8917 6.15131 21.5856 6.18377 21.2696L6.3136 20.087C5.77262 19.6607 5.28563 19.1749 4.85285 18.6404L3.67355 18.7714C3.35978 18.8071 3.05687 18.6545 2.89457 18.3819C2.36441 17.4979 1.96411 16.5414 1.70444 15.5428C1.62871 15.2355 1.73691 14.9099 1.98576 14.7108L2.9054 13.9642C2.9054 13.9642 2.9054 13.5725 2.9054 13.1928C2.9054 12.7946 3.21921 12.4646 3.61953 12.4386C3.64117 12.4375 3.66274 12.4354 3.68438 12.4343C3.88995 12.4214 4.09555 12.4927 4.24702 12.6323C4.39849 12.773 4.48502 12.9688 4.48502 13.1744C4.48502 13.5087 4.51744 13.8419 4.58236 14.1719C4.62564 14.4608 4.51755 14.754 4.29034 14.9379L3.42472 15.6369C3.58701 16.1411 3.78183 16.6302 4.03068 17.0998L5.13417 16.9764C5.4263 16.9439 5.71849 17.0716 5.88079 17.3096C6.36767 17.9837 6.96274 18.5733 7.63355 19.0548C7.87158 19.2247 8.00135 19.5103 7.96889 19.8025L7.84989 20.9082C8.32595 21.1527 8.81282 21.354 9.32134 21.512L10.0138 20.6431C10.1977 20.4137 10.49 20.3013 10.7821 20.3489C11.5936 20.4841 12.4374 20.4819 13.2489 20.3445C13.541 20.2958 13.8332 20.4073 14.0171 20.6356L14.7204 21.5012C15.2181 21.341 15.7158 21.1376 16.181 20.892L16.062 19.7862C16.0296 19.4941 16.1485 19.2084 16.3866 19.0375C17.0682 18.5539 17.6524 17.9621 18.1393 17.2858C18.3016 17.0467 18.5938 16.9179 18.8859 16.9493L19.9896 17.0673C20.2276 16.5977 20.4331 16.1087 20.5954 15.6034L19.7191 14.9077C19.4919 14.7249 19.3836 14.4316 19.4269 14.1427C19.481 13.8062 19.5134 13.4676 19.5243 13.1289C19.5243 12.7156 19.8596 12.3824 20.2707 12.3824C20.2924 12.3791 20.3141 12.3791 20.3357 12.3791ZM8.07719 14.2282C8.07719 14.2282 8.629 16.9353 12.0047 16.9353C15.3912 16.9353 15.8781 14.2141 15.8781 14.2141C15.9754 13.7748 15.6834 13.3453 15.2506 13.2555C14.807 13.1657 14.385 13.4492 14.2876 13.8885C14.2876 13.8885 13.9306 15.3123 12.0047 15.3123C10.0572 15.3123 9.66764 13.8712 9.66764 13.8712C9.57026 13.4341 9.12663 13.1592 8.69385 13.2577C8.26107 13.3561 7.97982 13.7911 8.07719 14.2282ZM15.4994 10.5409V2.56147C15.4994 2.11354 15.1315 1.75 14.6879 1.75H9.32134C8.86692 1.75 8.50987 2.11354 8.50987 2.56147V10.5409H7.89321C7.43879 10.5409 7.08174 10.9044 7.08174 11.3524C7.08174 11.8003 7.43879 12.1638 7.89321 12.1638H15.9429C16.3865 12.1638 16.7544 11.8003 16.7544 11.3524C16.7544 10.9044 16.3865 10.5409 15.9429 10.5409H15.4994ZM13.8765 5.13112V3.37294H10.1328V10.5409H13.8765V9.36696H12.0047C11.5503 9.36696 11.1932 9.00342 11.1932 8.55549C11.1932 8.10756 11.5503 7.74402 12.0047 7.74402H13.8765V6.75406H12.0047C11.5503 6.75406 11.1932 6.39052 11.1932 5.94259C11.1932 5.49466 11.5503 5.13112 12.0047 5.13112H13.8765Z" fill="black"/>
</svg>
