<svg width="24" height="24" viewBox="0 0 24 24" fill="none" xmlns="http://www.w3.org/2000/svg">
<g clip-path="url(#clip0_221_14532)">
<path d="M12.75 11C12.75 10.8011 12.671 10.6103 12.5303 10.4697C12.3897 10.329 12.1989 10.25 12 10.25C11.8011 10.25 11.6103 10.329 11.4697 10.4697C11.329 10.6103 11.25 10.8011 11.25 11V13C11.25 13.1989 11.329 13.3897 11.4697 13.5303C11.6103 13.671 11.8011 13.75 12 13.75C12.1989 13.75 12.3897 13.671 12.5303 13.5303C12.671 13.3897 12.75 13.1989 12.75 13V11Z" fill="black"/>
<path fill-rule="evenodd" clip-rule="evenodd" d="M13.725 2.02697L16.159 2.43297C17.314 2.62497 18.251 2.78097 18.983 2.99897C19.746 3.22697 20.376 3.54497 20.861 4.11697C21.346 4.68897 21.557 5.36397 21.655 6.15397C21.75 6.91197 21.75 7.86197 21.75 9.03397V14.967C21.75 16.138 21.75 17.087 21.655 17.846C21.557 18.636 21.346 19.31 20.861 19.883C20.376 20.455 19.746 20.773 18.983 21C18.251 21.219 17.314 21.375 16.159 21.567L13.725 21.973C12.692 22.145 11.837 22.288 11.155 22.304C10.439 22.321 9.776 22.206 9.222 21.737C8.755 21.342 8.524 20.827 8.402 20.25H7.946C6.814 20.25 5.888 20.25 5.156 20.152C4.393 20.049 3.731 19.827 3.202 19.298C2.673 18.769 2.451 18.108 2.348 17.343C2.25 16.613 2.25 15.687 2.25 14.553V9.44697C2.25 8.31397 2.25 7.38897 2.348 6.65697C2.451 5.89397 2.673 5.23197 3.202 4.70297C3.731 4.17397 4.392 3.95197 5.157 3.84897C5.887 3.75097 6.813 3.75097 7.947 3.75097H8.403C8.523 3.17397 8.755 2.65897 9.223 2.26397C9.776 1.79397 10.439 1.67997 11.155 1.69697C11.837 1.71297 12.692 1.85597 13.725 2.02797M8.25 17.335C8.25 17.851 8.25 18.323 8.261 18.75H8C6.8 18.75 5.976 18.748 5.357 18.665C4.759 18.585 4.467 18.441 4.263 18.237C4.059 18.033 3.915 17.741 3.835 17.143C3.752 16.524 3.75 15.7 3.75 14.5V9.49997C3.75 8.29997 3.752 7.47597 3.835 6.85697C3.915 6.25897 4.059 5.96697 4.263 5.76297C4.467 5.55897 4.759 5.41497 5.357 5.33497C5.976 5.25197 6.8 5.24997 8 5.24997H8.261C8.25 5.67697 8.25 6.14897 8.25 6.66497V17.335ZM11.119 3.19497C10.576 3.18197 10.346 3.27697 10.192 3.40697C10.038 3.53697 9.907 3.74897 9.831 4.28697C9.751 4.84397 9.75 5.60297 9.75 6.72197V17.278C9.75 18.397 9.752 19.156 9.831 19.714C9.907 20.251 10.038 20.463 10.192 20.593C10.346 20.723 10.576 20.817 11.119 20.804C11.682 20.791 12.431 20.668 13.534 20.484L15.864 20.096C17.079 19.893 17.923 19.751 18.555 19.563C19.167 19.381 19.491 19.179 19.717 18.913C19.943 18.646 20.087 18.294 20.167 17.66C20.249 17.006 20.25 16.15 20.25 14.917V9.08297C20.25 7.84997 20.249 6.99397 20.167 6.33997C20.087 5.70597 19.942 5.35297 19.717 5.08697C19.491 4.82097 19.167 4.61897 18.555 4.43697C17.923 4.24897 17.079 4.10697 15.863 3.90397L13.534 3.51597C12.431 3.33197 11.682 3.20897 11.119 3.19597" fill="black"/>
</g>
<defs>
<clipPath id="clip0_221_14532">
<rect width="24" height="24" fill="white"/>
</clipPath>
</defs>
</svg>
