<svg width="24" height="24" viewBox="0 0 24 24" fill="none" xmlns="http://www.w3.org/2000/svg">
<g clip-path="url(#clip0_221_14553)">
<path fill-rule="evenodd" clip-rule="evenodd" d="M10.749 3.25H13.251C14.339 3.25 15.227 3.25 15.929 3.34C16.659 3.433 17.299 3.636 17.814 4.126C18.334 4.622 18.554 5.246 18.654 5.959C18.75 6.634 18.75 7.486 18.75 8.516V9.573C19.15 9.363 19.607 9.25 20.073 9.25C21.781 9.25 23.243 10.807 22.603 12.527L21.483 15.527L21.46 15.589C21.287 16.052 21.169 16.369 21.008 16.648C20.51 17.506 19.699 18.145 18.75 18.481V20C18.75 20.1989 18.671 20.3897 18.5303 20.5303C18.3897 20.671 18.1989 20.75 18 20.75C17.8011 20.75 17.6103 20.671 17.4697 20.5303C17.329 20.3897 17.25 20.1989 17.25 20V18.746C17.062 18.75 16.85 18.75 16.595 18.75H6.75V20C6.75 20.1989 6.67098 20.3897 6.53033 20.5303C6.38968 20.671 6.19891 20.75 6 20.75C5.80109 20.75 5.61032 20.671 5.46967 20.5303C5.32902 20.3897 5.25 20.1989 5.25 20V18.667C5.25 18.605 5.257 18.5453 5.271 18.488C4.131 18.09 3.185 17.257 2.744 16.134L2.704 16.026L1.398 12.526C0.756002 10.807 2.218 9.25 3.927 9.25C4.393 9.25 4.849 9.363 5.25 9.573V8.516C5.25 7.486 5.25 6.634 5.345 5.959C5.445 5.246 5.665 4.622 6.185 4.126C6.701 3.636 7.341 3.433 8.071 3.34C8.773 3.25 9.661 3.25 10.749 3.25ZM5.25 11.928V12H5.28L6.14 14.122L6.16 14.171C6.24 14.367 6.322 14.571 6.449 14.748C6.737 15.148 7.173 15.412 7.648 15.508C7.855 15.551 8.075 15.55 8.314 15.55H15.453C15.913 15.551 16.344 15.552 16.724 15.395C16.931 15.31 17.123 15.191 17.29 15.04C17.606 14.754 17.766 14.357 17.92 13.974L17.957 13.882L18.721 12H18.751V11.928L18.958 11.416C19.105 11.054 19.528 10.75 20.073 10.75C20.993 10.75 21.387 11.493 21.197 12.002L20.077 15.002C19.873 15.552 19.799 15.742 19.71 15.896C19.313 16.581 18.551 17.089 17.631 17.218C17.419 17.248 17.173 17.25 16.533 17.25H6.776C5.539 17.232 4.511 16.53 4.14 15.585L4.106 15.495L2.803 12.002C2.613 11.493 3.007 10.75 3.927 10.75C4.473 10.75 4.895 11.054 5.042 11.416L5.25 11.928ZM17.25 11.636V8.57C17.25 7.47 17.248 6.725 17.17 6.167C17.094 5.635 16.962 5.385 16.78 5.212C16.592 5.032 16.315 4.9 15.738 4.827C15.143 4.75 14.352 4.749 13.2 4.749H10.8C9.648 4.749 8.857 4.75 8.262 4.827C7.685 4.9 7.408 5.033 7.22 5.212C7.038 5.385 6.906 5.635 6.83 6.167C6.752 6.725 6.75 7.471 6.75 8.57V11.635L7.53 13.557C7.583 13.687 7.613 13.76 7.638 13.816L7.666 13.871C7.716 13.941 7.811 14.011 7.946 14.038C7.986 14.045 8.041 14.049 8.368 14.049H15.347C15.984 14.049 16.085 14.035 16.153 14.007C16.2006 13.9869 16.2448 13.9596 16.284 13.926C16.286 13.925 16.306 13.909 16.353 13.816C16.4308 13.6525 16.5021 13.486 16.567 13.317L17.25 11.636Z" fill="black"/>
</g>
<defs>
<clipPath id="clip0_221_14553">
<rect width="24" height="24" fill="white"/>
</clipPath>
</defs>
</svg>
