<svg width="24" height="24" viewBox="0 0 24 24" fill="none" xmlns="http://www.w3.org/2000/svg">
<path fill-rule="evenodd" clip-rule="evenodd" d="M3.93481 21.4069V21.8526C3.93481 22.2972 4.29995 22.658 4.74026 22.658C5.1913 22.658 5.5457 22.2972 5.5457 21.8526V21.4069H18.5294V21.8526C18.5294 22.2972 18.8946 22.658 19.3349 22.658C19.7752 22.658 20.1403 22.2972 20.1403 21.8526V21.4069H21.9446C22.3849 21.4069 22.75 21.0461 22.75 20.6015V5.92739C22.75 5.48171 22.3849 5.12195 21.9446 5.12195H20.2263C19.7753 5.12195 19.4209 5.48278 19.4209 5.92739C19.4209 6.37199 19.7753 6.73283 20.2263 6.73283H21.1391V19.7961H2.86089V6.71887H6.09341C6.53372 6.71887 6.89886 6.35803 6.89886 5.91343C6.89886 5.46882 6.53372 5.10798 6.09341 5.10798H2.05544C1.61513 5.10798 1.25 5.46882 1.25 5.91343V20.6015C1.25 21.0461 1.61513 21.4069 2.05544 21.4069H3.93481ZM9.27219 12.6383V17.8576C9.27219 18.3022 9.62658 18.6631 10.0776 18.6631C10.5179 18.6631 10.8831 18.3022 10.8831 17.8576V12.6383C10.8831 12.1937 10.5179 11.8329 10.0776 11.8329C9.62658 11.8329 9.27219 12.1937 9.27219 12.6383ZM17.1011 12.6383V17.8576C17.1011 18.3022 17.4663 18.6631 17.9066 18.6631C18.3576 18.6631 18.712 18.3022 18.712 17.8576V12.6383C18.712 12.1937 18.3576 11.8329 17.9066 11.8329C17.4663 11.8329 17.1011 12.1937 17.1011 12.6383ZM14.5344 12.6383V17.8576C14.5344 18.3022 14.8996 18.6631 15.3399 18.6631C15.7802 18.6631 16.1453 18.3022 16.1453 17.8576V12.6383C16.1453 12.1937 15.7802 11.8329 15.3399 11.8329C14.8996 11.8329 14.5344 12.1937 14.5344 12.6383ZM11.8389 12.6383V17.8576C11.8389 18.3022 12.204 18.6631 12.6443 18.6631C13.0846 18.6631 13.4498 18.3022 13.4498 17.8576V12.6383C13.4498 12.1937 13.0846 11.8329 12.6443 11.8329C12.204 11.8329 11.8389 12.1937 11.8389 12.6383ZM5.39533 12.3398C5.90008 12.3398 6.30815 12.749 6.30815 13.2516C6.30815 13.7552 5.90008 14.1633 5.39533 14.1633C4.90133 14.1633 4.48252 13.7552 4.48252 13.2516C4.48252 12.749 4.90133 12.3398 5.39533 12.3398ZM9.4333 1.55867C9.4333 1.55867 7.50018 4.0308 9.7769 6.46324C11.0119 7.78202 9.55142 9.01381 9.55142 9.01381C9.20776 9.30484 9.17559 9.81393 9.46555 10.1501C9.75551 10.4873 10.2709 10.5238 10.6038 10.2338C10.6038 10.2338 13.2995 7.87654 10.9476 5.36355C9.64812 3.96315 10.7112 2.54234 10.7112 2.54234C10.9797 2.19009 10.9154 1.68427 10.5717 1.41256C10.2173 1.14086 9.71252 1.20642 9.4333 1.55867ZM13.0954 1.55867C13.0954 1.55867 11.1623 4.0308 13.4283 6.46324C14.6633 7.78202 13.2028 9.01381 13.2028 9.01381C12.8699 9.30484 12.827 9.81393 13.1169 10.1501C13.4069 10.4873 13.9223 10.5238 14.2552 10.2338C14.2552 10.2338 16.9507 7.87654 14.6096 5.36355C13.2994 3.96315 14.3626 2.54234 14.3626 2.54234C14.6418 2.19009 14.5774 1.68427 14.223 1.41256C13.8686 1.14086 13.3639 1.20642 13.0954 1.55867ZM16.4676 1.55867C16.4676 1.55867 14.5237 4.0308 16.8004 6.46324C18.0354 7.78202 16.5749 9.01381 16.5749 9.01381C16.242 9.30484 16.199 9.81393 16.4889 10.1501C16.7789 10.4873 17.2944 10.5238 17.6274 10.2338C17.6274 10.2338 20.3229 7.87654 17.9817 5.36355C16.6715 3.96315 17.7347 2.54234 17.7347 2.54234C18.0139 2.19009 17.9495 1.68427 17.5951 1.41256C17.2407 1.14086 16.736 1.20642 16.4676 1.55867ZM5.39533 8.51768C5.90008 8.51768 6.30815 8.92577 6.30815 9.42944C6.30815 9.93204 5.90008 10.3412 5.39533 10.3412C4.90133 10.3412 4.48252 9.93204 4.48252 9.42944C4.48252 8.92577 4.90133 8.51768 5.39533 8.51768Z" fill="black"/>
</svg>
