<svg width="24" height="24" viewBox="0 0 24 24" fill="none" xmlns="http://www.w3.org/2000/svg">
<g clip-path="url(#clip0_221_14548)">
<path fill-rule="evenodd" clip-rule="evenodd" d="M10.944 3.25H13.056C14.894 3.25 16.35 3.25 17.489 3.403C18.661 3.561 19.61 3.893 20.359 4.641C21.107 5.39 21.439 6.339 21.597 7.511C21.748 8.637 21.75 10.071 21.75 11.879C22.094 12.162 22.367 12.529 22.54 12.948C22.661 13.238 22.708 13.538 22.73 13.855C22.75 14.159 22.75 14.53 22.75 14.975V15.025C22.75 15.47 22.75 15.841 22.73 16.145C22.7175 16.4558 22.6533 16.7623 22.54 17.052C22.4019 17.3857 22.1994 17.689 21.9441 17.9445C21.6888 18.2 21.3857 18.4027 21.052 18.541C20.762 18.661 20.462 18.708 20.145 18.729C20.0135 18.7379 19.8818 18.7436 19.75 18.746V20C19.75 20.1989 19.671 20.3897 19.5303 20.5303C19.3897 20.671 19.1989 20.75 19 20.75C18.8011 20.75 18.6103 20.671 18.4697 20.5303C18.329 20.3897 18.25 20.1989 18.25 20V18.75H5.75V20C5.75 20.1989 5.67098 20.3897 5.53033 20.5303C5.38968 20.671 5.19891 20.75 5 20.75C4.80109 20.75 4.61032 20.671 4.46967 20.5303C4.32902 20.3897 4.25 20.1989 4.25 20V18.745C4.11822 18.7429 3.98651 18.7376 3.855 18.729C3.54433 18.7171 3.2378 18.6536 2.948 18.541C2.61416 18.4028 2.31082 18.2002 2.05533 17.9447C1.79984 17.6892 1.5972 17.3858 1.459 17.052C1.339 16.762 1.292 16.462 1.271 16.145C1.25 15.841 1.25 15.47 1.25 15.025V14.975C1.25 14.53 1.25 14.159 1.27 13.855C1.292 13.537 1.34 13.238 1.46 12.948C1.63182 12.5321 1.90308 12.1647 2.25 11.878C2.25 10.072 2.252 8.637 2.403 7.511C2.561 6.339 2.893 5.39 3.641 4.641C4.39 3.893 5.339 3.561 6.511 3.403C7.651 3.25 9.106 3.25 10.944 3.25ZM3.75 11.279L3.855 11.271C4.106 11.254 4.404 11.251 4.75 11.251V10.448C4.75 9.55 4.75 8.8 4.83 8.206C4.914 7.578 5.1 7.011 5.555 6.556C6.011 6.1 6.578 5.914 7.205 5.83C7.8 5.75 8.55 5.75 9.448 5.75H14.552C15.451 5.75 16.2 5.75 16.794 5.83C17.422 5.914 17.989 6.1 18.444 6.555C18.9 7.011 19.086 7.578 19.17 8.205C19.25 8.8 19.25 9.55 19.25 10.448V11.25C19.5836 11.2477 19.9171 11.2574 20.25 11.279C20.247 9.744 20.23 8.604 20.11 7.711C19.975 6.705 19.721 6.125 19.298 5.701C18.875 5.279 18.295 5.025 17.289 4.89C16.262 4.752 14.907 4.75 13 4.75H11C9.093 4.75 7.739 4.752 6.71 4.89C5.705 5.025 5.125 5.279 4.702 5.702C4.279 6.125 4.025 6.705 3.89 7.71C3.77 8.603 3.753 9.743 3.75 11.278M17.75 11.249V10.499C17.75 9.535 17.748 8.887 17.683 8.404C17.621 7.943 17.514 7.745 17.383 7.615C17.252 7.485 17.056 7.378 16.595 7.315C16.112 7.251 15.464 7.249 14.5 7.249H12.75V11.249H17.75ZM11.25 11.249V7.249H9.5C8.536 7.249 7.888 7.251 7.405 7.316C6.944 7.378 6.746 7.485 6.616 7.616C6.486 7.747 6.379 7.943 6.316 8.404C6.252 8.887 6.25 9.535 6.25 10.499V11.249H11.25ZM3.957 12.766C3.716 12.783 3.599 12.812 3.522 12.844C3.3702 12.9068 3.23228 12.9989 3.11611 13.1151C2.99995 13.2313 2.90782 13.3692 2.845 13.521C2.813 13.598 2.784 13.715 2.767 13.956C2.75 14.203 2.75 14.523 2.75 14.999C2.75 15.475 2.75 15.795 2.767 16.042C2.784 16.283 2.813 16.4 2.845 16.477C2.972 16.784 3.215 17.027 3.522 17.154C3.599 17.186 3.716 17.215 3.957 17.232C4.204 17.249 4.524 17.249 5 17.249H19C19.476 17.249 19.796 17.249 20.043 17.232C20.284 17.215 20.401 17.186 20.478 17.154C20.785 17.027 21.028 16.784 21.155 16.477C21.187 16.4 21.216 16.283 21.233 16.042C21.25 15.795 21.25 15.475 21.25 14.999C21.25 14.523 21.25 14.203 21.233 13.956C21.216 13.715 21.187 13.598 21.155 13.521C21.0922 13.3692 21.0001 13.2313 20.8839 13.1151C20.7677 12.9989 20.6298 12.9068 20.478 12.844C20.401 12.812 20.284 12.783 20.043 12.766C19.6956 12.75 19.3477 12.7447 19 12.75H5C4.524 12.75 4.204 12.75 3.957 12.767" fill="black"/>
</g>
<defs>
<clipPath id="clip0_221_14548">
<rect width="24" height="24" fill="white"/>
</clipPath>
</defs>
</svg>
