<svg width="24" height="24" viewBox="0 0 24 24" fill="none" xmlns="http://www.w3.org/2000/svg">
<path fill-rule="evenodd" clip-rule="evenodd" d="M14.0639 19.8982H14.0853H21.9513C22.3229 19.8982 22.6361 19.6437 22.7245 19.2997L22.7319 19.2688L22.7383 19.2315L22.7436 19.1964L22.7468 19.1612L22.749 19.125L22.75 19.0995V4.79874V4.79341C22.7468 4.4196 22.488 4.10756 22.1408 4.02236L22.1121 4.01599L22.0822 4.01066L22.0525 4.00644L22.0173 4.00215L21.9821 4H21.9513H2.04874C1.66109 4 1.3373 4.27586 1.26489 4.64222L1.25956 4.67205L1.25533 4.70182L1.25215 4.73166L1.25 4.76787V4.79874V19.0995C1.25 19.5404 1.60784 19.8982 2.04874 19.8982C2.48965 19.8982 2.84748 19.5404 2.84748 19.0995V8.38353H13.2865V19.0995L13.2876 19.1357L13.2887 19.1665L13.2918 19.1964L13.294 19.2113C13.3206 19.3966 13.4101 19.5627 13.5411 19.6841L13.5623 19.7033L13.5879 19.7246L13.6145 19.7459L13.6465 19.7672L13.6795 19.7874L13.7125 19.8066L13.7476 19.8237L13.7828 19.8396L13.8201 19.8534L13.8574 19.8652L13.8904 19.8747L13.9244 19.8822L13.9585 19.8886L13.9937 19.8929L14.0288 19.8961L14.0639 19.8982ZM14.884 15.9204V18.3007H21.1525V15.9204H14.884ZM14.884 12.0652V14.3229H21.1525V12.0652H14.884ZM14.884 8.38353V10.4677H21.1525V8.38353H14.884ZM21.1525 5.59748H2.84748V6.78604H21.1525V5.59748Z" fill="black"/>
</svg>
