<svg width="24" height="24" viewBox="0 0 24 24" fill="none" xmlns="http://www.w3.org/2000/svg">
<g clip-path="url(#clip0_221_14608)">
<path fill-rule="evenodd" clip-rule="evenodd" d="M12 1.25C11.063 1.25 10.167 1.557 8.723 2.051L7.996 2.301C6.515 2.807 5.371 3.199 4.553 3.531C4.141 3.698 3.786 3.861 3.501 4.026C3.226 4.186 2.951 4.385 2.764 4.652C2.579 4.915 2.483 5.239 2.423 5.552C2.36 5.876 2.323 6.265 2.298 6.712C2.25 7.598 2.25 8.814 2.25 10.39V11.991C2.25 18.092 6.858 21.017 9.598 22.215L9.625 22.226C9.965 22.375 10.285 22.514 10.652 22.608C11.039 22.708 11.451 22.75 12 22.75C12.55 22.75 12.96 22.708 13.348 22.608C13.715 22.514 14.035 22.375 14.374 22.226L14.402 22.215C17.142 21.017 21.75 18.092 21.75 11.991V10.39C21.75 8.814 21.75 7.598 21.702 6.711C21.6855 6.32204 21.6437 5.93456 21.577 5.551C21.517 5.239 21.421 4.915 21.237 4.651C21.049 4.385 20.774 4.186 20.499 4.026C20.1594 3.8385 19.808 3.67315 19.447 3.531C18.629 3.199 17.485 2.807 16.004 2.301L15.277 2.051C13.833 1.557 12.937 1.25 12 1.25ZM9.08 3.514C10.695 2.962 11.342 2.75 12 2.75C12.658 2.75 13.305 2.962 14.92 3.514L15.492 3.71C17.005 4.228 18.108 4.606 18.882 4.92C19.269 5.078 19.549 5.21 19.746 5.324C19.842 5.38 19.9113 5.42633 19.954 5.463C19.992 5.493 20.007 5.511 20.009 5.513C20.0221 5.53653 20.0329 5.56132 20.041 5.587C20.061 5.64167 20.082 5.72433 20.104 5.835C20.1593 6.15166 20.1927 6.47175 20.204 6.793C20.25 7.634 20.25 8.808 20.25 10.417V11.991C20.25 17.167 16.38 19.714 13.801 20.84C13.43 21.002 13.215 21.094 12.976 21.155C12.748 21.214 12.47 21.25 12 21.25C11.53 21.25 11.252 21.214 11.024 21.155C10.784 21.095 10.57 21.002 10.199 20.84C7.619 19.714 3.75 17.166 3.75 11.991V10.417C3.75 8.808 3.75 7.634 3.796 6.793C3.8073 6.47175 3.84071 6.15166 3.896 5.835C3.91733 5.72433 3.93833 5.64167 3.959 5.587C3.977 5.537 3.989 5.517 3.991 5.513C4.00774 5.49466 4.02615 5.47792 4.046 5.463C4.08867 5.42633 4.158 5.37967 4.254 5.323C4.451 5.209 4.731 5.078 5.118 4.921C5.892 4.606 6.995 4.228 8.508 3.711L9.08 3.514Z" fill="black"/>
<path fill-rule="evenodd" clip-rule="evenodd" d="M12.237 6.04702C12.5411 5.86594 12.8933 5.78247 13.2463 5.80787C13.5993 5.83326 13.936 5.96629 14.211 6.18902C15.77 7.39702 17.501 9.48602 17.501 12.417C17.501 14.794 16.493 16.353 15.189 17.292C13.923 18.203 12.427 18.5 11.418 18.5C10.1798 18.4797 8.98444 18.0437 8.024 17.262C6.864 16.308 6.001 14.755 6.001 12.417C6.001 10.237 7.259 8.85102 8.292 8.16502C8.48017 8.03573 8.69656 7.95338 8.92308 7.92485C9.14959 7.89632 9.37964 7.92244 9.594 8.00102C10.057 8.18102 10.37 8.61102 10.398 9.14102C10.408 9.32102 10.45 9.48602 10.508 9.62102C10.5315 9.67403 10.5596 9.72488 10.592 9.77302C11.062 9.12002 11.295 8.22902 11.295 7.75002C11.295 7.01902 11.668 6.38202 12.237 6.04702ZM12.998 7.33902C12.901 7.39702 12.795 7.53402 12.795 7.75002C12.795 8.54902 12.457 9.77702 11.774 10.698C11.535 11.019 11.203 11.28 10.777 11.34C10.5878 11.364 10.3956 11.3479 10.213 11.2928C10.0303 11.2376 9.86136 11.1447 9.717 11.02C9.296 10.675 9.031 10.12 8.937 9.54602C8.233 10.076 7.501 11.01 7.501 12.416C7.501 14.346 8.193 15.459 8.978 16.104C9.66967 16.6646 10.5279 16.9798 11.418 17C12.186 17 13.356 16.763 14.313 16.075C15.231 15.414 16.001 14.305 16.001 12.417C16.001 10.126 14.651 8.42702 13.292 7.37402C13.2462 7.33497 13.1898 7.31058 13.13 7.30402C13.0838 7.30226 13.0372 7.31445 12.998 7.33902Z" fill="black"/>
</g>
<defs>
<clipPath id="clip0_221_14608">
<rect width="24" height="24" fill="white"/>
</clipPath>
</defs>
</svg>
