<svg width="24" height="24" viewBox="0 0 24 24" fill="none" xmlns="http://www.w3.org/2000/svg">
<path fill-rule="evenodd" clip-rule="evenodd" d="M7.94545 19.0455C7.93467 19.1058 7.92388 19.1683 7.92388 19.2329C7.92388 19.401 7.97776 19.5583 8.06395 19.6876C8.53805 21.4332 10.1328 22.7197 12.0291 22.7197H18.6447C20.9074 22.7197 22.75 20.8826 22.75 18.6209V12.0418C22.75 12.0203 22.75 11.9977 22.75 11.9761C22.75 11.9664 22.75 11.9567 22.75 11.947C22.75 11.9211 22.75 11.8953 22.7392 11.8705C22.653 9.68863 20.8536 7.94421 18.6447 7.94421H12.0291C9.76643 7.94421 7.92388 9.78021 7.92388 12.0418V18.6209C7.92388 18.7642 7.93467 18.9065 7.94545 19.0455ZM3.94804 5.94761H3.92647C3.79717 5.95084 3.67857 5.98319 3.57082 6.03922L3.56003 6.04244C3.52771 6.06291 3.48464 6.08662 3.45231 6.11248L1.56672 7.54982C1.21116 7.82027 1.14649 8.32779 1.41586 8.68228C1.68523 9.03785 2.1917 9.10569 2.54727 8.83525L3.13993 8.38706V19.956L2.54727 19.5077C2.1917 19.2373 1.68523 19.3051 1.41586 19.6607C1.14649 20.0152 1.21116 20.5227 1.56672 20.7931L3.45231 22.2294C3.48464 22.2564 3.52771 22.2801 3.56003 22.2995L3.57082 22.3037C3.67857 22.3598 3.79717 22.3921 3.92647 22.3953H3.95883C4.08813 22.3932 4.2066 22.3609 4.31435 22.3059V22.3037C4.35745 22.2811 4.40054 22.2542 4.44364 22.223L6.2753 20.7867C6.63087 20.5109 6.68475 20.0022 6.41538 19.6521C6.13524 19.3008 5.6289 19.2394 5.28411 19.5142L4.75615 19.9268V8.41613L5.28411 8.8288C5.6289 9.10356 6.13524 9.04215 6.41538 8.69089C6.68475 8.34071 6.63087 7.83217 6.2753 7.55633L4.44364 6.12004C4.40054 6.0888 4.35745 6.06185 4.31435 6.03922V6.03705C4.2066 5.9821 4.08813 5.94977 3.95883 5.94761H3.94804ZM13.8716 9.56043H12.0291C10.6823 9.56043 9.59397 10.6217 9.5401 11.9492H11.9213C12.3738 11.9492 12.7294 12.3112 12.7294 12.7573C12.7294 13.2034 12.3738 13.5654 11.9213 13.5654H9.5401V18.4248H12.5032C12.9449 18.4248 13.3113 18.7858 13.3113 19.2329V21.1035H17.104V15.9617C17.104 15.5156 17.4596 15.1536 17.9121 15.1536C18.3539 15.1536 18.7202 15.5156 18.7202 15.9617V17.0037H21.1338V12.7551H17.1902C16.7484 12.7551 16.3821 12.3931 16.3821 11.947V9.56043H15.4878V15.9617C15.4878 16.4078 15.1322 16.7698 14.6797 16.7698H11.3287C10.887 16.7698 10.5206 16.4078 10.5206 15.9617C10.5206 15.5156 10.887 15.1536 11.3287 15.1536H13.8716V9.56043ZM21.1338 18.6199C21.1338 19.9667 20.0563 21.0646 18.7202 21.1024V18.6199H21.1338ZM9.99268 20.0411H11.6951V21.0809C10.9839 20.9871 10.3806 20.597 9.99268 20.0411ZM17.9983 9.56043H18.6447C19.7007 9.56043 20.595 10.2144 20.9613 11.1389H17.9983V9.56043ZM19.7008 3.08154H8.19325L8.60269 2.55464C8.88284 2.20338 8.81818 1.69484 8.46262 1.42008C8.11782 1.14532 7.60058 1.20673 7.33121 1.55799L5.89821 3.39077C5.86589 3.43063 5.83361 3.47269 5.81206 3.51578V3.52006C5.75819 3.62781 5.72578 3.74743 5.72578 3.87565V3.90905C5.72578 4.0362 5.75819 4.15685 5.81206 4.26352V4.26997C5.83361 4.30768 5.8551 4.34433 5.88743 4.37881L7.32056 6.26551C7.58993 6.62 8.09626 6.68893 8.45183 6.41848C8.8074 6.14803 8.88285 5.64058 8.61348 5.28609L8.16089 4.69776H19.733L19.2806 5.28609C19.0112 5.64058 19.0758 6.14803 19.4314 6.41848C19.787 6.68893 20.2933 6.62 20.5627 6.26551L22.0066 4.37881C22.0282 4.34433 22.0496 4.30768 22.0712 4.26997V4.26352C22.1358 4.15685 22.1681 4.0362 22.1681 3.90905V3.87565C22.1681 3.74743 22.1358 3.62781 22.082 3.52006L22.0712 3.51578C22.0496 3.47269 22.0281 3.43063 21.9958 3.39077L20.5627 1.55799C20.2825 1.20673 19.7762 1.14532 19.4206 1.42008C19.0758 1.69484 19.0112 2.20338 19.2913 2.55464L19.7008 3.08154Z" fill="black"/>
</svg>
