<svg width="24" height="24" viewBox="0 0 24 24" fill="none" xmlns="http://www.w3.org/2000/svg">
<path fill-rule="evenodd" clip-rule="evenodd" d="M7.04248 22.7162H17.0224C20.1992 22.7162 22.7878 20.1363 22.7878 16.9573V7.04276C22.7878 3.86378 20.1992 1.28375 17.0224 1.28375H7.04248C3.86563 1.28375 1.28778 3.86378 1.28778 7.04276V16.9573C1.28778 20.1363 3.86563 22.7162 7.04248 22.7162ZM12.8614 10.8261H15.8351C16.1774 10.8261 16.4661 11.1106 16.4661 11.4603V20.4775C16.4661 20.8273 16.1774 21.1118 15.8351 21.1118H12.8614V10.8261ZM11.257 10.8261V21.1118H8.29402C7.94103 21.1118 7.66296 20.8273 7.66296 20.4775V11.4603C7.66296 11.1106 7.94103 10.8261 8.29402 10.8261H11.257ZM18.0064 20.9941C19.8248 20.5513 21.1833 18.9105 21.1833 16.9573V7.04276C21.1833 4.74944 19.3114 2.88822 17.0224 2.88822H7.04248C4.75344 2.88822 2.89225 4.74944 2.89225 7.04276V16.9573C2.89225 18.9329 4.27212 20.5887 6.1226 21.0091C6.07982 20.839 6.05849 20.6604 6.05849 20.4775V11.4603C6.05849 10.2249 7.06392 9.22162 8.29402 9.22162H15.8351C17.0652 9.22162 18.0706 10.2249 18.0706 11.4603V20.4775C18.0706 20.6551 18.0491 20.8283 18.0064 20.9941ZM17.1079 4.55471L15.5784 6.37424L13.7599 4.55047C13.4497 4.23813 12.9363 4.23813 12.6261 4.55047C12.3159 4.86388 12.3159 5.37193 12.6261 5.68534L15.0648 8.12736C15.2253 8.28674 15.4393 8.37123 15.6639 8.36161C15.8885 8.35198 16.1024 8.24819 16.2521 8.07598L18.338 5.58695C18.6268 5.24787 18.5841 4.74085 18.2418 4.45633C17.8995 4.1718 17.3967 4.21564 17.1079 4.55471ZM6.62531 8.07598L8.15496 6.25653L9.97331 8.08029C10.2942 8.3937 10.797 8.3937 11.1072 8.08029C11.4281 7.76688 11.4281 7.25883 11.1072 6.94542L8.66837 4.5034C8.50792 4.34509 8.29406 4.25953 8.06943 4.26915C7.84481 4.27878 7.63084 4.3825 7.49178 4.55471L5.39532 7.04485C5.10651 7.38286 5.15996 7.88991 5.49155 8.17443C5.83384 8.45896 6.3365 8.41506 6.62531 8.07598Z" fill="black"/>
</svg>
