<svg width="24" height="24" viewBox="0 0 24 24" fill="none" xmlns="http://www.w3.org/2000/svg">
<path d="M12.8772 11.1834C12.8772 10.6886 12.4707 10.282 11.9759 10.282C11.481 10.282 11.0745 10.6886 11.0745 11.1834V13.8875H8.37047C7.87563 13.8875 7.46912 14.294 7.46912 14.7888C7.46912 15.2837 7.87563 15.6902 8.37047 15.6902H11.0745V18.3942C11.0745 18.8891 11.481 19.2956 11.9759 19.2956C12.4707 19.2956 12.8772 18.8891 12.8772 18.3942V15.6902H15.5813C16.0761 15.6902 16.4826 15.2837 16.4826 14.7888C16.4826 14.294 16.0761 13.8875 15.5813 13.8875H12.8772V11.1834Z" fill="black"/>
<path fill-rule="evenodd" clip-rule="evenodd" d="M20.6692 21.1351V9.59049C20.6692 8.85732 20.3785 8.1554 19.8617 7.63755C19.3342 7.1197 18.6343 6.82792 17.9022 6.82792H13.8973V6.36715C13.8973 6.06247 13.725 5.78362 13.4558 5.64688L10.3875 4.09333V2.05746C10.3875 1.61174 10.0322 1.25 9.58001 1.25C9.1386 1.25 8.77255 1.61174 8.77255 2.05746V3.27615L6.22097 1.98097C5.55347 1.64507 4.75682 1.67736 4.12162 2.06817C3.48642 2.45791 3.09876 3.15125 3.09876 3.89627V21.1351H2.87271C2.4313 21.1351 2.06525 21.4968 2.06525 21.9425C2.06525 22.3883 2.4313 22.75 2.87271 22.75H20.9921C21.4443 22.75 21.7996 22.3883 21.7996 21.9425C21.7996 21.4968 21.4443 21.1351 20.9921 21.1351H20.6692ZM12.2931 7.53852C12.2931 7.50622 12.2823 7.47392 12.2823 7.44055V6.86347L5.48895 3.42262C5.32745 3.33864 5.12292 3.34721 4.97219 3.44411C4.8107 3.53992 4.71368 3.71216 4.71368 3.89627V21.1351H19.0543V9.59049C19.0543 9.28581 18.9358 8.99408 18.7205 8.77876C18.5051 8.56451 18.2145 8.44284 17.9022 8.44284C15.9105 8.44284 13.0898 8.44284 13.0898 8.44284C12.6484 8.44284 12.2823 8.0811 12.2823 7.63538C12.2823 7.60308 12.2931 7.57082 12.2931 7.53852Z" fill="black"/>
</svg>
