<svg width="24" height="24" viewBox="0 0 24 24" fill="none" xmlns="http://www.w3.org/2000/svg">
<path fill-rule="evenodd" clip-rule="evenodd" d="M19.8652 15.7438C19.1835 15.2261 17.0107 17.17 16.5846 19.3928C16.4568 20.0649 16.574 20.5846 16.7871 20.9915C17.1066 21.5826 17.6817 21.9448 18.2356 22.1386C18.7681 22.325 19.2581 22.3538 19.3326 22.358L19.4071 22.3591C19.4071 22.3591 20.1634 22.3303 20.8663 21.9937C21.6864 21.5986 22.4426 20.8413 22.1764 19.3928C21.761 17.2424 19.9824 15.8343 19.8652 15.7481V15.7438ZM19.3752 17.4565C19.8119 17.9113 20.4083 18.6909 20.6 19.6921C20.6427 19.9232 20.632 20.1032 20.5574 20.2406C20.4189 20.4717 20.1634 20.575 19.9397 20.6453C19.7054 20.7231 19.4604 20.7518 19.3752 20.7593C19.2793 20.7518 19.0344 20.7231 18.7681 20.6304C18.5551 20.558 18.3101 20.4536 18.1929 20.231C18.1184 20.0947 18.1078 19.9168 18.1504 19.6921C18.3421 18.6898 18.9385 17.9102 19.3752 17.4565ZM14.1668 11.7848H16.7124V13.5912C16.7124 14.0322 17.0746 14.39 17.5112 14.39H20.9835C21.4308 14.39 21.7823 14.0322 21.7823 13.5912V10.1797C21.7823 9.07946 21.3456 8.02394 20.5681 7.24536C19.7905 6.46784 18.7361 6.03009 17.6391 6.03009H14.1456C13.7302 5.51671 13.219 5.09064 12.6332 4.78603V2.45671H14.3479C14.7953 2.45671 15.1468 2.09884 15.1468 1.65789C15.1468 1.21694 14.7953 0.85907 14.3479 0.85907H6.63666C6.19997 0.85907 5.83784 1.21694 5.83784 1.65789C5.83784 2.09884 6.19997 2.45671 6.63666 2.45671H8.54322V4.69443C7.87221 5.00224 7.29697 5.46239 6.84963 6.03009H3.36687V1.65789C3.36687 1.21694 3.01539 0.85907 2.56805 0.85907C2.13136 0.85907 1.76923 1.21694 1.76923 1.65789V16.1815C1.76923 16.6225 2.13136 16.9803 2.56805 16.9803C3.01539 16.9803 3.36687 16.6225 3.36687 16.1815V11.7848H6.82843C7.68051 12.8744 9.01182 13.5752 10.4923 13.5752C11.9834 13.5752 13.3148 12.8744 14.1668 11.7848ZM14.9657 7.62773C15.0828 8.0378 15.1468 8.4713 15.1468 8.91971C15.1468 9.35959 15.0935 9.78457 14.9763 10.1872H16.7764C17.6285 10.1872 18.3101 10.8763 18.3101 11.7251V12.7924H20.1846V10.1797C20.1846 9.50336 19.9184 8.85369 19.4391 8.37546C18.9598 7.89723 18.3101 7.62773 17.6391 7.62773H14.9657ZM10.4923 5.86289C12.1858 5.86289 13.5491 7.2326 13.5491 8.91971C13.5491 10.6068 12.1858 11.9776 10.4923 11.9776C8.80945 11.9776 7.43548 10.6068 7.43548 8.91971C7.43548 7.2326 8.80945 5.86289 10.4923 5.86289ZM6.01895 7.62773H3.36687V10.1872H6.01895C5.90179 9.78457 5.83784 9.35959 5.83784 8.91971C5.83784 8.4713 5.90179 8.0378 6.01895 7.62773ZM11.0355 4.29716V2.45671H10.1409V4.27909C10.258 4.26951 10.3751 4.26524 10.4923 4.26524C10.684 4.26524 10.8544 4.27586 11.0355 4.29716Z" fill="black"/>
</svg>
