<svg width="24" height="24" viewBox="0 0 24 24" fill="none" xmlns="http://www.w3.org/2000/svg">
<path fill-rule="evenodd" clip-rule="evenodd" d="M1.54564 19.015C1.49295 19.2342 1.4718 19.4618 1.4718 19.6947C1.4718 21.52 2.95777 23.0028 4.78097 23.0028C5.29737 23.0028 5.78213 22.8847 6.21422 22.675H21.7378C22.1805 22.675 22.5282 22.322 22.5282 21.8846V5.5697C22.5282 5.1334 22.1805 4.7793 21.7378 4.7793H8.16398C8.1429 2.9677 6.66747 1.50281 4.85481 1.50281C3.03162 1.50281 1.55618 2.97294 1.54564 4.78875V4.79191C1.54564 5.45374 1.54564 5.24718 1.54564 4.81088V19.015ZM8.16398 6.3601V19.368C8.16398 19.6641 8.12184 19.9518 8.04807 20.2248C7.99538 20.5314 7.91106 20.8234 7.77405 21.0942H20.9474V6.3601H8.16398ZM6.49878 19.8918C6.27747 20.5894 5.62414 21.0942 4.85481 21.0942C3.89579 21.0942 3.12645 20.3207 3.12645 19.368V19.2067C3.33722 18.4901 4.00111 17.9674 4.78097 17.9674C5.73999 17.9674 6.50933 18.7409 6.50933 19.6947C6.50933 19.7611 6.50932 19.8275 6.49878 19.8918ZM11.1464 17.0905H10.7459C10.3138 17.0905 9.95551 17.4446 9.95551 17.881C9.95551 18.3173 10.3138 18.6714 10.7459 18.6714H18.6499C19.082 18.6714 19.4403 18.3173 19.4403 17.881C19.4403 17.4446 19.082 17.0905 18.6499 17.0905H17.9965V8.85777C17.9965 8.42147 17.6488 8.06737 17.2061 8.06737H11.9368C11.4942 8.06737 11.1464 8.42147 11.1464 8.85777V17.0905ZM16.4157 11.2985V9.64817H12.7272V17.0905H16.4157V15.4866H14.6979C14.2658 15.4866 13.9075 15.1325 13.9075 14.6962C13.9075 14.2599 14.2658 13.9058 14.6979 13.9058H16.4157V12.8793H14.6979C14.2658 12.8793 13.9075 12.5252 13.9075 12.0889C13.9075 11.6526 14.2658 11.2985 14.6979 11.2985H16.4157ZM6.58317 16.9167V4.81088C6.58317 3.85713 5.80329 3.08361 4.85481 3.08361C3.90633 3.08361 3.13699 3.84975 3.12645 4.79718C3.12645 4.79718 3.12645 5.24718 3.12645 4.81088V16.8313C3.61123 16.5478 4.18026 16.3866 4.78097 16.3866C5.44491 16.3866 6.06678 16.5816 6.58317 16.9167Z" fill="black"/>
</svg>
