<svg width="24" height="24" viewBox="0 0 24 24" fill="none" xmlns="http://www.w3.org/2000/svg">
<g clip-path="url(#clip0_221_14512)">
<path fill-rule="evenodd" clip-rule="evenodd" d="M7 1.25C7.19891 1.25 7.38968 1.32902 7.53033 1.46967C7.67098 1.61032 7.75 1.80109 7.75 2V3.75H8.045C8.478 3.75 8.875 3.75 9.197 3.793C9.553 3.841 9.928 3.953 10.237 4.263C10.546 4.573 10.659 4.947 10.707 5.303C10.75 5.626 10.75 6.023 10.75 6.455V7.882C10.8167 7.93467 10.8813 7.99233 10.944 8.055C11.4 8.511 11.586 9.078 11.67 9.705C11.728 10.139 11.744 10.655 11.748 11.25H12.25V7.71C12.25 6.452 12.25 5.423 12.366 4.638C12.486 3.824 12.753 3.098 13.434 2.626C14.114 2.154 14.889 2.159 15.693 2.332C16.468 2.5 17.432 2.861 18.61 3.302L18.706 3.339C19.301 3.562 19.806 3.751 20.201 3.952C20.621 4.166 20.986 4.424 21.261 4.82C21.535 5.216 21.649 5.647 21.701 6.116C21.75 6.557 21.75 7.096 21.75 7.732V21.25H22C22.1989 21.25 22.3897 21.329 22.5303 21.4697C22.671 21.6103 22.75 21.8011 22.75 22C22.75 22.1989 22.671 22.3897 22.5303 22.5303C22.3897 22.671 22.1989 22.75 22 22.75H2C1.80109 22.75 1.61032 22.671 1.46967 22.5303C1.32902 22.3897 1.25 22.1989 1.25 22C1.25 21.8011 1.32902 21.6103 1.46967 21.4697C1.61032 21.329 1.80109 21.25 2 21.25H2.25V11.948C2.25 11.049 2.25 10.3 2.33 9.706C2.414 9.078 2.6 8.511 3.055 8.056C3.11833 7.99267 3.18333 7.93467 3.25 7.882V6.455C3.25 6.022 3.25 5.625 3.293 5.303C3.341 4.947 3.453 4.572 3.763 4.263C4.073 3.954 4.447 3.841 4.803 3.793C5.126 3.75 5.523 3.75 5.955 3.75H6.25V2C6.25 1.80109 6.32902 1.61032 6.46967 1.46967C6.61032 1.32902 6.80109 1.25 7 1.25ZM4.75 7.324C5.338 7.25 6.072 7.25 6.948 7.25H7.052C7.928 7.25 8.662 7.25 9.25 7.324V6.5C9.25 6.007 9.248 5.713 9.22 5.503C9.21376 5.44242 9.19964 5.38292 9.178 5.326L9.177 5.323L9.174 5.322L9.164 5.317C9.11005 5.29789 9.05397 5.28546 8.997 5.28C8.787 5.252 8.493 5.25 8 5.25H6C5.507 5.25 5.213 5.252 5.003 5.28C4.94242 5.28624 4.88292 5.30036 4.826 5.322L4.823 5.323L4.822 5.326L4.817 5.336C4.79789 5.38995 4.78546 5.44603 4.78 5.503C4.752 5.713 4.75 6.007 4.75 6.5V7.324ZM3.75 21.25H6.25V15.948C6.25 15.049 6.25 14.3 6.33 13.706C6.414 13.078 6.6 12.511 7.055 12.056C7.511 11.6 8.078 11.414 8.705 11.33C9.139 11.272 9.653 11.256 10.248 11.252C10.244 10.682 10.23 10.252 10.184 9.905C10.121 9.444 10.014 9.246 9.884 9.116C9.754 8.986 9.556 8.879 9.094 8.816C8.613 8.753 7.965 8.75 7 8.75C6.035 8.75 5.388 8.752 4.905 8.817C4.444 8.879 4.246 8.986 4.116 9.117C3.986 9.248 3.879 9.444 3.816 9.905C3.752 10.388 3.75 11.036 3.75 12V21.25ZM7.75 21.25H16.25V16C16.25 15.036 16.248 14.388 16.183 13.905C16.121 13.444 16.014 13.246 15.883 13.116C15.752 12.986 15.556 12.879 15.095 12.816C14.612 12.752 13.964 12.75 13 12.75H11C10.036 12.75 9.388 12.752 8.905 12.816C8.444 12.879 8.246 12.986 8.116 13.116C7.986 13.246 7.879 13.444 7.816 13.906C7.752 14.388 7.75 15.036 7.75 16V21.25ZM17.75 21.25H20.25V7.772C20.25 7.085 20.249 6.631 20.21 6.282C20.173 5.952 20.11 5.792 20.027 5.674C19.946 5.556 19.817 5.439 19.522 5.289C19.209 5.131 18.785 4.97 18.142 4.729C16.891 4.26 16.032 3.939 15.377 3.799C14.737 3.661 14.468 3.734 14.288 3.859C14.108 3.983 13.945 4.21 13.85 4.857C13.752 5.519 13.75 6.437 13.75 7.772V11.252C14.345 11.256 14.861 11.272 15.294 11.33C15.922 11.414 16.489 11.6 16.944 12.056C17.4 12.511 17.586 13.078 17.67 13.706C17.75 14.3 17.75 15.05 17.75 15.948V21.25ZM9.25 15C9.25 14.8011 9.32902 14.6103 9.46967 14.4697C9.61032 14.329 9.80109 14.25 10 14.25H14C14.1989 14.25 14.3897 14.329 14.5303 14.4697C14.671 14.6103 14.75 14.8011 14.75 15C14.75 15.1989 14.671 15.3897 14.5303 15.5303C14.3897 15.671 14.1989 15.75 14 15.75H10C9.80109 15.75 9.61032 15.671 9.46967 15.5303C9.32902 15.3897 9.25 15.1989 9.25 15ZM9.25 18C9.25 17.8011 9.32902 17.6103 9.46967 17.4697C9.61032 17.329 9.80109 17.25 10 17.25H14C14.1989 17.25 14.3897 17.329 14.5303 17.4697C14.671 17.6103 14.75 17.8011 14.75 18C14.75 18.1989 14.671 18.3897 14.5303 18.5303C14.3897 18.671 14.1989 18.75 14 18.75H10C9.80109 18.75 9.61032 18.671 9.46967 18.5303C9.32902 18.3897 9.25 18.1989 9.25 18Z" fill="black"/>
</g>
<defs>
<clipPath id="clip0_221_14512">
<rect width="24" height="24" fill="white"/>
</clipPath>
</defs>
</svg>
