<svg width="24" height="24" viewBox="0 0 24 24" fill="none" xmlns="http://www.w3.org/2000/svg">
<g clip-path="url(#clip0_221_14630)">
<path fill-rule="evenodd" clip-rule="evenodd" d="M11.961 1.25H12.039C13.218 1.25 14.157 1.25 14.918 1.324C15.701 1.401 16.362 1.561 16.968 1.922C17.2947 2.118 17.594 2.34967 17.866 2.617C18.367 3.112 18.688 3.712 18.959 4.451C19.223 5.169 19.459 6.078 19.755 7.218L19.863 7.636C20.265 9.183 20.586 10.419 20.705 11.406C20.827 12.421 20.756 13.314 20.235 14.09C20.1408 14.2293 20.0379 14.3626 19.927 14.489C19.479 14.994 18.912 15.287 18.25 15.462V17C18.25 17.1989 18.171 17.3897 18.0303 17.5303C17.8897 17.671 17.6989 17.75 17.5 17.75C17.3011 17.75 17.1103 17.671 16.9697 17.5303C16.829 17.3897 16.75 17.1989 16.75 17V15.687C15.881 15.75 14.831 15.75 13.587 15.75H12.75V21.25H15C15.1989 21.25 15.3897 21.329 15.5303 21.4697C15.671 21.6103 15.75 21.8011 15.75 22C15.75 22.1989 15.671 22.3897 15.5303 22.5303C15.3897 22.671 15.1989 22.75 15 22.75H8.99999C8.80108 22.75 8.61032 22.671 8.46966 22.5303C8.32901 22.3897 8.24999 22.1989 8.24999 22C8.24999 21.8011 8.32901 21.6103 8.46966 21.4697C8.61032 21.329 8.80108 21.25 8.99999 21.25H11.25V15.75H10.414C8.81499 15.75 7.53799 15.75 6.55299 15.617C5.53999 15.48 4.69299 15.187 4.07299 14.489C3.96201 14.3623 3.85914 14.2287 3.76499 14.089C3.24399 13.314 3.17299 12.421 3.29499 11.406C3.41499 10.419 3.73499 9.183 4.13699 7.636L4.24499 7.219C4.54199 6.078 4.77799 5.169 5.04099 4.451C5.31099 3.711 5.63299 3.111 6.13499 2.617C6.40633 2.35033 6.70566 2.11867 7.03299 1.922C7.63799 1.562 8.29899 1.401 9.08299 1.324C9.84299 1.25 10.783 1.25 11.961 1.25ZM13.529 14.25C15.199 14.25 16.374 14.248 17.247 14.13C18.105 14.015 18.53 13.803 18.805 13.493C18.8717 13.4177 18.9333 13.338 18.99 13.254C19.22 12.91 19.32 12.445 19.216 11.586C19.11 10.711 18.816 9.573 18.396 7.957L18.313 7.633C18.005 6.446 17.786 5.608 17.551 4.967C17.321 4.34 17.097 3.966 16.813 3.686C16.6275 3.50365 16.421 3.34387 16.198 3.21C15.855 3.005 15.437 2.882 14.772 2.817C14.092 2.751 13.226 2.75 12 2.75C10.774 2.75 9.90799 2.75 9.22899 2.817C8.56399 2.882 8.14499 3.005 7.80199 3.21C7.5793 3.34394 7.3732 3.50371 7.18799 3.686C6.90299 3.966 6.67899 4.34 6.44899 4.967C6.21399 5.608 5.99599 6.447 5.68799 7.633L5.60299 7.957C5.18299 9.573 4.88999 10.711 4.78499 11.586C4.68099 12.446 4.77899 12.91 5.00999 13.254C5.06599 13.338 5.12766 13.418 5.19499 13.494C5.46999 13.804 5.89499 14.014 6.75299 14.131C7.62699 14.248 8.80199 14.25 10.471 14.25H13.529Z" fill="black"/>
</g>
<defs>
<clipPath id="clip0_221_14630">
<rect width="24" height="24" fill="white"/>
</clipPath>
</defs>
</svg>
