<svg width="24" height="24" viewBox="0 0 24 24" fill="none" xmlns="http://www.w3.org/2000/svg">
<path fill-rule="evenodd" clip-rule="evenodd" d="M22.75 3.85073C22.75 2.4131 21.5878 1.24554 20.1459 1.24554H3.85414C2.4122 1.24554 1.25 2.4131 1.25 3.85073V20.0628C1.25 21.5015 2.4122 22.6691 3.85414 22.6691H20.1459C21.5878 22.6691 22.75 21.5015 22.75 20.0628V3.85073ZM21.1359 3.85073V20.0628C21.1359 20.6105 20.6947 21.055 20.1459 21.055H3.85414C3.30534 21.055 2.86411 20.6105 2.86411 20.0628V3.85073C2.86411 3.30409 3.30534 2.85965 3.85414 2.85965H20.1459C20.6947 2.85965 21.1359 3.30409 21.1359 3.85073ZM4.61811 18.1291C5.12386 18.1291 5.53287 18.538 5.53287 19.0427C5.53287 19.5474 5.12386 19.9563 4.61811 19.9563C4.11235 19.9563 3.70347 19.5474 3.70347 19.0427C3.70347 18.538 4.11235 18.1291 4.61811 18.1291ZM19.242 18.1291C19.7478 18.1291 20.1566 18.538 20.1566 19.0427C20.1566 19.5474 19.7478 19.9563 19.242 19.9563C18.747 19.9563 18.3272 19.5474 18.3272 19.0427C18.3272 18.538 18.747 18.1291 19.242 18.1291ZM19.3711 3.83031H9.35284C8.62111 3.83031 7.92175 4.11866 7.41599 4.63303C6.89948 5.14631 6.60894 5.84366 6.60894 6.57001V19.1062C6.60894 19.5517 6.96405 19.9132 7.41599 19.9132H14.6687C16.1752 19.9132 17.4019 18.708 17.4341 17.2015L17.5417 11.6157C17.5955 11.5156 17.6171 11.4037 17.6279 11.2864L20.1243 4.93324C20.2212 4.68467 20.1889 4.40386 20.0383 4.18326C19.8876 3.96267 19.6401 3.83031 19.3711 3.83031ZM12.9577 5.44441H9.35284C9.05154 5.44441 8.76101 5.56279 8.55656 5.77477C8.34135 5.98568 8.22305 6.27193 8.22305 6.57001V18.2991H10.7087V11.2617C10.7087 11.1594 10.7303 11.0572 10.7626 10.9625L12.9577 5.44441ZM15.9168 12.0698L15.82 17.1693C15.8093 17.7966 15.2928 18.2991 14.6687 18.2991H12.3228V12.0698H15.9168ZM18.1873 5.44441H14.7009L12.6994 10.4557H16.2182L18.1873 5.44441ZM4.61811 3.83136C5.12386 3.83136 5.53287 4.24026 5.53287 4.74494C5.53287 5.24854 5.12386 5.65852 4.61811 5.65852C4.11235 5.65852 3.70347 5.24854 3.70347 4.74494C3.70347 4.24026 4.11235 3.83136 4.61811 3.83136Z" fill="black"/>
</svg>
