<svg width="24" height="24" viewBox="0 0 24 24" fill="none" xmlns="http://www.w3.org/2000/svg">
<path fill-rule="evenodd" clip-rule="evenodd" d="M5.16831 10.6061H4.79648C2.89467 10.6061 1.34348 12.1573 1.34348 14.0666V19.3948C1.34348 21.3041 2.89467 22.8553 4.79648 22.8553H10.6507C12.5631 22.8553 14.1143 21.3041 14.1143 19.3948V17.5281H19.7348C21.3497 17.5281 22.6565 16.2202 22.6565 14.6063V9.58833C22.6565 8.87754 22.3802 8.19648 21.8808 7.69394C21.3708 7.19139 20.6909 6.90876 19.9791 6.90876H16.5898V4.46511C16.5898 2.74924 15.198 1.35529 13.4768 1.35529H7.88828C6.16709 1.35529 4.77521 2.74924 4.77521 4.46511V9.09108C4.77521 9.64143 4.91332 10.1577 5.16831 10.6061ZM2.93717 18.4121H8.49382V21.2616H4.79648C3.76589 21.2616 2.93717 20.4244 2.93717 19.3948V18.4121ZM10.6507 12.1998H4.79648C4.04213 12.1998 3.38343 12.6556 3.09656 13.308H9.29067C9.72628 13.308 10.0875 13.665 10.0875 14.1048V21.2616H10.6507C11.6812 21.2616 12.5206 20.4244 12.5206 19.3948V14.0666C12.5206 13.037 11.6812 12.1998 10.6507 12.1998ZM2.93717 14.9017V16.8184H8.49382V14.9017H2.93717ZM16.5898 8.50245V9.09108C16.5898 10.7783 15.2405 12.1531 13.5724 12.1988C13.9124 12.7385 14.1143 13.3792 14.1143 14.0666V15.9344H19.7348C20.4785 15.9344 21.0628 15.3394 21.0628 14.6063V9.58833C21.0628 9.3004 20.9565 9.02414 20.744 8.82014C20.5422 8.61721 20.266 8.50245 19.9791 8.50245H16.5898ZM13.4768 10.6061H7.88828C7.04893 10.6061 6.3689 9.92723 6.3689 9.09108V4.46511C6.3689 3.62896 7.04893 2.94898 7.88828 2.94898H13.4768C14.3162 2.94898 14.9961 3.62896 14.9961 4.46511V9.09108C14.9961 9.92723 14.3162 10.6061 13.4768 10.6061Z" fill="black"/>
</svg>
