<svg width="24" height="24" viewBox="0 0 24 24" fill="none" xmlns="http://www.w3.org/2000/svg">
<g clip-path="url(#clip0_221_14614)">
<path d="M13 11C13 11.2652 12.8946 11.5196 12.7071 11.7071C12.5196 11.8946 12.2652 12 12 12C11.7348 12 11.4804 11.8946 11.2929 11.7071C11.1054 11.5196 11 11.2652 11 11C11 10.7348 11.1054 10.4804 11.2929 10.2929C11.4804 10.1054 11.7348 10 12 10C12.2652 10 12.5196 10.1054 12.7071 10.2929C12.8946 10.4804 13 10.7348 13 11ZM13 5C13 5.26522 12.8946 5.51957 12.7071 5.70711C12.5196 5.89464 12.2652 6 12 6C11.7348 6 11.4804 5.89464 11.2929 5.70711C11.1054 5.51957 11 5.26522 11 5C11 4.73478 11.1054 4.48043 11.2929 4.29289C11.4804 4.10536 11.7348 4 12 4C12.2652 4 12.5196 4.10536 12.7071 4.29289C12.8946 4.48043 13 4.73478 13 5ZM13 17C13 17.2652 12.8946 17.5196 12.7071 17.7071C12.5196 17.8946 12.2652 18 12 18C11.7348 18 11.4804 17.8946 11.2929 17.7071C11.1054 17.5196 11 17.2652 11 17C11 16.7348 11.1054 16.4804 11.2929 16.2929C11.4804 16.1054 11.7348 16 12 16C12.2652 16 12.5196 16.1054 12.7071 16.2929C12.8946 16.4804 13 16.7348 13 17Z" fill="black"/>
<path fill-rule="evenodd" clip-rule="evenodd" d="M9.944 1.25H14.056C15.894 1.25 17.35 1.25 18.489 1.403C19.661 1.561 20.61 1.893 21.359 2.641C22.107 3.39 22.439 4.339 22.597 5.511C22.687 6.184 22.724 6.967 22.739 7.874C22.7514 7.95007 22.7528 8.02754 22.743 8.104C22.749 8.66933 22.7513 9.28267 22.75 9.944V12.056C22.7513 12.7173 22.749 13.3307 22.743 13.896C22.7531 13.9724 22.7521 14.0499 22.74 14.126C22.724 15.033 22.687 15.816 22.597 16.489C22.439 17.661 22.107 18.61 21.359 19.359C20.895 19.823 20.354 20.127 19.73 20.329C19.7433 20.3837 19.75 20.4407 19.75 20.5V22C19.75 22.1989 19.671 22.3897 19.5303 22.5303C19.3897 22.671 19.1989 22.75 19 22.75C18.8011 22.75 18.6103 22.671 18.4697 22.5303C18.329 22.3897 18.25 22.1989 18.25 22V20.626C17.148 20.75 15.768 20.75 14.056 20.75H9.944C8.232 20.75 6.852 20.75 5.75 20.626V22C5.75 22.1989 5.67098 22.3897 5.53033 22.5303C5.38968 22.671 5.19891 22.75 5 22.75C4.80109 22.75 4.61032 22.671 4.46967 22.5303C4.32902 22.3897 4.25 22.1989 4.25 22V20.5C4.25 20.44 4.25666 20.3827 4.27 20.328C3.646 20.127 3.105 19.823 2.641 19.358C1.893 18.61 1.561 17.661 1.403 16.489C1.313 15.816 1.276 15.033 1.26 14.126C1.24792 14.0499 1.24691 13.9724 1.257 13.896C1.251 13.3307 1.24866 12.7173 1.25 12.056V9.944C1.24866 9.28267 1.251 8.66933 1.257 8.104C1.24691 8.02759 1.24792 7.95012 1.26 7.874C1.276 6.967 1.313 6.184 1.403 5.511C1.561 4.339 1.893 3.39 2.641 2.641C3.39 1.893 4.339 1.561 5.511 1.403C6.651 1.25 8.106 1.25 9.944 1.25ZM2.752 8.75C2.75066 9.138 2.75 9.55467 2.75 10V12C2.75 12.4453 2.75066 12.862 2.752 13.25H21.248C21.2493 12.862 21.25 12.4453 21.25 12V10C21.25 9.55467 21.2493 9.138 21.248 8.75H2.752ZM21.224 7.25H2.776C2.796 6.663 2.83 6.156 2.89 5.71C3.025 4.705 3.279 4.125 3.702 3.702C4.125 3.279 4.705 3.025 5.711 2.89C6.739 2.752 8.093 2.75 10 2.75H14C15.907 2.75 17.262 2.752 18.29 2.89C19.295 3.025 19.875 3.279 20.298 3.702C20.721 4.125 20.975 4.705 21.11 5.711C21.17 6.156 21.204 6.663 21.224 7.25ZM21.224 14.75H2.776C2.796 15.337 2.83 15.844 2.89 16.29C3.025 17.295 3.279 17.875 3.702 18.298C4.125 18.721 4.705 18.975 5.711 19.11C6.739 19.248 8.093 19.25 10 19.25H14C15.907 19.25 17.262 19.248 18.29 19.11C19.295 18.975 19.875 18.721 20.298 18.298C20.721 17.875 20.975 17.295 21.11 16.289C21.17 15.844 21.204 15.337 21.224 14.75Z" fill="black"/>
</g>
<defs>
<clipPath id="clip0_221_14614">
<rect width="24" height="24" fill="white"/>
</clipPath>
</defs>
</svg>
