<svg width="24" height="24" viewBox="0 0 24 24" fill="none" xmlns="http://www.w3.org/2000/svg">
<g clip-path="url(#clip0_221_14527)">
<path fill-rule="evenodd" clip-rule="evenodd" d="M22.5 10.4C22.6333 10.5333 22.7 10.7 22.7 10.9C22.7667 11.1 22.7333 11.3 22.6 11.5C22.4667 11.6333 22.3 11.7 22.1 11.7C21.9 11.7667 21.7 11.7333 21.5 11.6L20.7 11L20.8 21.3L22 21.2C22.2 21.2667 22.3667 21.3667 22.5 21.5C22.6333 21.6333 22.7333 21.8 22.8 22C22.7333 22.2 22.6333 22.3667 22.5 22.5C22.3667 22.6333 22.2 22.7 22 22.7H2C1.8 22.7 1.63333 22.6333 1.5 22.5C1.36666 22.3667 1.3 22.2 1.3 22C1.3 21.8 1.36666 21.6333 1.5 21.5C1.63333 21.3667 1.8 21.2667 2 21.2H3.3V11L2.5 11.6C2.3 11.7333 2.1 11.7667 1.9 11.7C1.7 11.7 1.53333 11.6333 1.4 11.5C1.26666 11.3 1.23333 11.1 1.3 10.9C1.3 10.7 1.36666 10.5333 1.5 10.4L9.7 3.90001C10.3 3.40001 11.1 3.10001 12 3.10001C12.9 3.10001 13.7 3.40001 14.3 3.90001L14.8 4.20001V3.50001C14.8 2.80001 15.3 2.20001 16 2.20001H18.5C19.2 2.20001 19.8 2.80001 19.8 3.50001V8.20001L22.5 10.4ZM16.2 3.80001V5.50001L18.2 7.10001V3.80001H16.2ZM19.2 9.80001L13.4 5.10001C13 4.80001 12.5 4.60001 12 4.60001C11.5 4.60001 11 4.80001 10.6 5.10001L4.7 9.80001V21.3H8.2V17C8.2 16.3 8.2 15.7 8.3 15.3C8.4 14.8 8.5 14.3 8.9 13.9C9.3 13.6 9.7 13.4 10.2 13.3C10.7 13.3 11.3 13.3 11.9 13.3H12C12.7 13.3 13.3 13.3 13.7 13.3C14.2 13.4 14.7 13.6 15.1 13.9C15.5 14.3 15.6 14.8 15.7 15.3C15.7 15.7 15.7 16.3 15.7 17V21.3H19.2V9.80001ZM14.2 21.3V17C14.2 16.3 14.2 15.8 14.2 15.5C14.1 15.1 14.1 15 14 15C14 14.9 13.9 14.9 13.5 14.8C13.2 14.8 12.7 14.8 12 14.8C11.3 14.8 10.8 14.8 10.4 14.8C10.1 14.9 10 14.9 10 15C9.9 15 9.8 15.1 9.8 15.5C9.7 15.8 9.7 16.3 9.7 17V21.3H14.2ZM9.2 9.50001C9.2 8.80001 9.5 8.10001 10 7.60001C10.6 7.10001 11.3 6.80001 12 6.80001C12.7 6.80001 13.4 7.10001 13.9 7.60001C14.4 8.10001 14.7 8.80001 14.7 9.50001C14.7 10.2 14.4 10.9 13.9 11.5C13.4 12 12.7 12.3 12 12.3C11.3 12.3 10.6 12 10 11.5C9.5 10.9 9.2 10.2 9.2 9.50001ZM12 8.30001C11.8 8.30001 11.6333 8.33335 11.5 8.40001C11.3667 8.46668 11.2333 8.53335 11.1 8.60001C10.9667 8.73335 10.8667 8.86668 10.8 9.00001C10.7333 9.20001 10.7 9.36668 10.7 9.50001C10.7 9.70001 10.7333 9.86668 10.8 10C10.8667 10.1333 10.9667 10.2667 11.1 10.4C11.2333 10.5333 11.3667 10.6333 11.5 10.7C11.6333 10.7667 11.8 10.8 12 10.8C12.3 10.8 12.6 10.6 12.9 10.4C13.1 10.2 13.2 9.80001 13.2 9.50001C13.2 9.20001 13.1 8.90001 12.9 8.60001C12.6 8.40001 12.3 8.30001 12 8.30001Z" fill="black"/>
</g>
<defs>
<clipPath id="clip0_221_14527">
<rect width="24" height="24" fill="white"/>
</clipPath>
</defs>
</svg>
