<svg width="24" height="24" viewBox="0 0 24 24" fill="none" xmlns="http://www.w3.org/2000/svg">
<path fill-rule="evenodd" clip-rule="evenodd" d="M5.52306 4.88346L6.00245 10.5201C5.65096 10.6959 5.35269 10.9792 5.17162 11.3403C4.84143 11.9687 4.88402 12.7271 5.28877 13.3108C6.21543 14.6603 7.47229 16.4806 8.22853 17.567C8.51612 17.9856 8.62265 18.5022 8.51614 19.0007L8.15403 20.8135C8.07947 21.2279 8.18589 21.6571 8.45217 21.9841C8.71845 22.3111 9.11257 22.4996 9.53862 22.4996H14.4702C14.8856 22.4996 15.2904 22.3111 15.5566 21.9841C15.8229 21.6571 15.9295 21.2279 15.8442 20.8135L15.482 19.0007C15.3861 18.5022 15.4927 17.9856 15.7803 17.567L18.72 13.3108C19.1248 12.7271 19.1674 11.9687 18.8372 11.3403C18.6455 10.9792 18.358 10.6959 18.0065 10.5201L18.4857 4.88235C18.8372 4.79821 19.1568 4.6193 19.4231 4.35941C19.7852 3.98981 19.9983 3.48917 19.9983 2.96832C19.9983 2.44641 19.7852 1.94579 19.4231 1.57619C19.0503 1.20765 18.5496 1 18.0277 1C15.3329 1 8.67589 1 5.97046 1C5.44855 1 4.94788 1.20765 4.57508 1.57619C4.21294 1.94579 4 2.44537 4 2.96728C4 3.48813 4.21294 3.98981 4.57508 4.35941C4.84136 4.62037 5.17157 4.80038 5.52306 4.88346ZM14.2359 20.902H9.77292L10.0819 19.3138C10.2736 18.3914 10.0712 17.4339 9.53862 16.6595L6.59885 12.4033C6.53495 12.3085 6.52429 12.1849 6.58819 12.0826C6.6308 11.9804 6.73731 11.9175 6.85448 11.9165H17.1543C17.2608 11.9165 17.3674 11.9804 17.4206 12.0826C17.4739 12.1849 17.4738 12.3085 17.3993 12.4033L14.4702 16.6595C13.927 17.4339 13.7352 18.3914 13.9163 19.3138L14.2359 20.902ZM11.9991 5.24667H16.8454L16.4193 10.3188H7.58948L7.15274 5.24667H11.9991ZM18.4006 2.96728C18.4006 3.06527 18.3579 3.16004 18.294 3.22927C18.2194 3.2985 18.1235 3.33797 18.0277 3.33797H5.97046C5.8746 3.33797 5.77875 3.2985 5.71484 3.22927C5.64028 3.16004 5.59769 3.06631 5.59769 2.96832C5.59769 2.87033 5.64028 2.77556 5.71484 2.70633C5.77875 2.63709 5.8746 2.59769 5.97046 2.59769H18.0277C18.1235 2.59769 18.2194 2.63709 18.294 2.70633C18.3579 2.77556 18.4006 2.86929 18.4006 2.96728Z" fill="black"/>
</svg>
