<svg width="24" height="24" viewBox="0 0 24 24" fill="none" xmlns="http://www.w3.org/2000/svg">
<g clip-path="url(#clip0_221_14563)">
<path fill-rule="evenodd" clip-rule="evenodd" d="M11.964 2.25H12.036C12.94 2.25 13.669 2.25 14.258 2.303C14.864 2.358 15.394 2.475 15.875 2.753C16.4451 3.08191 16.9187 3.55509 17.248 4.125C17.526 4.606 17.642 5.136 17.697 5.742C17.75 6.331 17.75 7.06 17.75 7.964V11.371C18.244 11.475 18.691 11.68 19.052 12.091C19.497 12.601 19.642 13.237 19.703 13.937L19.707 13.984C19.742 14.394 19.776 14.781 19.754 15.105C19.729 15.476 19.628 15.855 19.327 16.183C19.017 16.523 18.625 16.648 18.251 16.702C18.0983 16.7233 17.9317 16.7367 17.751 16.742V21C17.751 21.1989 17.672 21.3897 17.5313 21.5303C17.3907 21.671 17.1999 21.75 17.001 21.75C16.8021 21.75 16.6113 21.671 16.4707 21.5303C16.33 21.3897 16.251 21.1989 16.251 21V16.75H7.75099V21C7.75099 21.1989 7.67197 21.3897 7.53132 21.5303C7.39067 21.671 7.1999 21.75 7.00099 21.75C6.80208 21.75 6.61131 21.671 6.47066 21.5303C6.33001 21.3897 6.25099 21.1989 6.25099 21V16.742C6.08309 16.7371 5.91554 16.7238 5.74899 16.702C5.37499 16.648 4.98399 16.522 4.67299 16.183C4.37199 15.855 4.27099 15.476 4.24599 15.105C4.22399 14.781 4.25799 14.393 4.29299 13.985L4.29699 13.937C4.35699 13.237 4.50299 12.601 4.94799 12.092C5.30899 11.68 5.75599 11.475 6.24999 11.371V7.964C6.24999 7.06 6.24999 6.331 6.30299 5.742C6.35799 5.136 6.47499 4.606 6.75299 4.125C7.0819 3.55486 7.55508 3.08133 8.12499 2.752C8.60599 2.475 9.13599 2.358 9.74199 2.303C10.331 2.25 11.06 2.25 11.964 2.25ZM8.44399 11.25H7.74999V8C7.74999 7.052 7.74999 6.39 7.79699 5.878C7.84299 5.375 7.92699 5.09 8.05199 4.875C8.24925 4.53287 8.53309 4.24868 8.87499 4.051C9.08999 3.927 9.37499 3.843 9.87799 3.797C10.39 3.751 11.052 3.75 12 3.75C12.948 3.75 13.61 3.75 14.122 3.797C14.625 3.843 14.91 3.927 15.125 4.051C15.467 4.249 15.751 4.533 15.949 4.875C16.073 5.09 16.157 5.375 16.203 5.878C16.249 6.39 16.25 7.052 16.25 8V11.25H8.44399ZM8.49999 12.75C7.65099 12.75 7.09999 12.752 6.69399 12.815C6.31999 12.872 6.17699 12.965 6.07699 13.08C5.95099 13.224 5.84299 13.464 5.79199 14.065C5.75099 14.539 5.72999 14.81 5.74199 15.005C5.7441 15.0538 5.75216 15.1022 5.76599 15.149C5.76999 15.159 5.77199 15.162 5.77799 15.169L5.77899 15.17L5.78199 15.172L5.79199 15.177C5.81199 15.187 5.86199 15.203 5.96099 15.217C6.17899 15.248 6.48499 15.25 7.00099 15.25H17.001C17.515 15.25 17.821 15.248 18.039 15.217C18.1004 15.21 18.1606 15.1948 18.218 15.172L18.221 15.171L18.222 15.169L18.234 15.149C18.2475 15.1021 18.2552 15.0538 18.257 15.005C18.27 14.81 18.249 14.539 18.208 14.065C18.157 13.465 18.049 13.224 17.923 13.08C17.823 12.966 17.68 12.872 17.306 12.815C16.9 12.752 16.349 12.75 15.5 12.75H8.49999Z" fill="black"/>
</g>
<defs>
<clipPath id="clip0_221_14563">
<rect width="24" height="24" fill="white"/>
</clipPath>
</defs>
</svg>
