<svg width="24" height="24" viewBox="0 0 24 24" fill="none" xmlns="http://www.w3.org/2000/svg">
<g clip-path="url(#clip0_221_14507)">
<path fill-rule="evenodd" clip-rule="evenodd" d="M10.948 1.25H13.052C13.951 1.25 14.7 1.25 15.294 1.33C15.922 1.414 16.489 1.6 16.944 2.055C17.4 2.511 17.586 3.078 17.67 3.705C17.6933 3.875 17.71 4.05667 17.72 4.25C18.31 4.25 18.808 4.254 19.219 4.296C19.692 4.344 20.132 4.449 20.528 4.713C20.828 4.914 21.086 5.172 21.287 5.473C21.551 5.868 21.656 6.308 21.704 6.781C21.75 7.233 21.75 7.792 21.75 8.461V21.25H22C22.1989 21.25 22.3897 21.329 22.5303 21.4697C22.671 21.6103 22.75 21.8011 22.75 22C22.75 22.1989 22.671 22.3897 22.5303 22.5303C22.3897 22.671 22.1989 22.75 22 22.75H2C1.80109 22.75 1.61032 22.671 1.46967 22.5303C1.32902 22.3897 1.25 22.1989 1.25 22C1.25 21.8011 1.32902 21.6103 1.46967 21.4697C1.61032 21.329 1.80109 21.25 2 21.25H2.25V8.462C2.25 7.792 2.25 7.233 2.296 6.781C2.344 6.308 2.449 5.868 2.713 5.472C2.914 5.172 3.172 4.914 3.473 4.713C3.868 4.449 4.308 4.344 4.781 4.296C5.191 4.254 5.69 4.25 6.279 4.25C6.29033 4.05667 6.307 3.87533 6.329 3.706C6.414 3.078 6.6 2.511 7.055 2.056C7.511 1.6 8.078 1.414 8.705 1.33C9.3 1.25 10.05 1.25 10.948 1.25ZM6.25 5.75C5.667 5.75 5.256 5.755 4.933 5.788C4.578 5.824 4.414 5.888 4.306 5.961C4.17026 6.0532 4.0532 6.17026 3.961 6.306C3.888 6.414 3.824 6.578 3.788 6.933C3.751 7.3 3.75 7.783 3.75 8.5V21.25H6.25V14.75H5.5C5.30109 14.75 5.11032 14.671 4.96967 14.5303C4.82902 14.3897 4.75 14.1989 4.75 14C4.75 13.8011 4.82902 13.6103 4.96967 13.4697C5.11032 13.329 5.30109 13.25 5.5 13.25H6.25V11.75H5.5C5.30109 11.75 5.11032 11.671 4.96967 11.5303C4.82902 11.3897 4.75 11.1989 4.75 11C4.75 10.8011 4.82902 10.6103 4.96967 10.4697C5.11032 10.329 5.30109 10.25 5.5 10.25H6.25V8.75H5.5C5.30109 8.75 5.11032 8.67098 4.96967 8.53033C4.82902 8.38968 4.75 8.19891 4.75 8C4.75 7.80109 4.82902 7.61032 4.96967 7.46967C5.11032 7.32902 5.30109 7.25 5.5 7.25H6.25V5.75ZM7.75 21.25H11.25V19C11.25 18.8011 11.329 18.6103 11.4697 18.4697C11.6103 18.329 11.8011 18.25 12 18.25C12.1989 18.25 12.3897 18.329 12.5303 18.4697C12.671 18.6103 12.75 18.8011 12.75 19V21.25H16.25V6C16.25 5.036 16.248 4.388 16.183 3.905C16.121 3.444 16.014 3.246 15.883 3.116C15.752 2.986 15.556 2.879 15.095 2.816C14.612 2.752 13.964 2.75 13 2.75H11C10.036 2.75 9.388 2.752 8.905 2.817C8.444 2.879 8.246 2.986 8.116 3.117C7.986 3.248 7.879 3.444 7.816 3.905C7.753 4.388 7.75 5.036 7.75 6V21.25ZM17.75 8.75H18.5C18.6989 8.75 18.8897 8.67098 19.0303 8.53033C19.171 8.38968 19.25 8.19891 19.25 8C19.25 7.80109 19.171 7.61032 19.0303 7.46967C18.8897 7.32902 18.6989 7.25 18.5 7.25H17.75V5.75C18.333 5.75 18.744 5.755 19.067 5.788C19.422 5.824 19.586 5.888 19.695 5.961C19.831 6.051 19.948 6.169 20.039 6.306C20.112 6.414 20.176 6.578 20.212 6.933C20.249 7.3 20.25 7.783 20.25 8.5V21.25H17.75V14.75H18.5C18.6989 14.75 18.8897 14.671 19.0303 14.5303C19.171 14.3897 19.25 14.1989 19.25 14C19.25 13.8011 19.171 13.6103 19.0303 13.4697C18.8897 13.329 18.6989 13.25 18.5 13.25H17.75V11.75H18.5C18.6989 11.75 18.8897 11.671 19.0303 11.5303C19.171 11.3897 19.25 11.1989 19.25 11C19.25 10.8011 19.171 10.6103 19.0303 10.4697C18.8897 10.329 18.6989 10.25 18.5 10.25H17.75V8.75ZM12 5.75C11.6685 5.75 11.3505 5.8817 11.1161 6.11612C10.8817 6.35054 10.75 6.66848 10.75 7C10.75 7.33152 10.8817 7.64946 11.1161 7.88388C11.3505 8.1183 11.6685 8.25 12 8.25C12.3315 8.25 12.6495 8.1183 12.8839 7.88388C13.1183 7.64946 13.25 7.33152 13.25 7C13.25 6.66848 13.1183 6.35054 12.8839 6.11612C12.6495 5.8817 12.3315 5.75 12 5.75ZM9.25 7C9.25 6.27065 9.53973 5.57118 10.0555 5.05546C10.5712 4.53973 11.2707 4.25 12 4.25C12.7293 4.25 13.4288 4.53973 13.9445 5.05546C14.4603 5.57118 14.75 6.27065 14.75 7C14.75 7.72935 14.4603 8.42882 13.9445 8.94454C13.4288 9.46027 12.7293 9.75 12 9.75C11.2707 9.75 10.5712 9.46027 10.0555 8.94454C9.53973 8.42882 9.25 7.72935 9.25 7ZM9.25 12C9.25 11.8011 9.32902 11.6103 9.46967 11.4697C9.61032 11.329 9.80109 11.25 10 11.25H14C14.1989 11.25 14.3897 11.329 14.5303 11.4697C14.671 11.6103 14.75 11.8011 14.75 12C14.75 12.1989 14.671 12.3897 14.5303 12.5303C14.3897 12.671 14.1989 12.75 14 12.75H10C9.80109 12.75 9.61032 12.671 9.46967 12.5303C9.32902 12.3897 9.25 12.1989 9.25 12ZM9.25 15C9.25 14.8011 9.32902 14.6103 9.46967 14.4697C9.61032 14.329 9.80109 14.25 10 14.25H14C14.1989 14.25 14.3897 14.329 14.5303 14.4697C14.671 14.6103 14.75 14.8011 14.75 15C14.75 15.1989 14.671 15.3897 14.5303 15.5303C14.3897 15.671 14.1989 15.75 14 15.75H10C9.80109 15.75 9.61032 15.671 9.46967 15.5303C9.32902 15.3897 9.25 15.1989 9.25 15Z" fill="black"/>
</g>
<defs>
<clipPath id="clip0_221_14507">
<rect width="24" height="24" fill="white"/>
</clipPath>
</defs>
</svg>
