<svg width="24" height="24" viewBox="0 0 24 24" fill="none" xmlns="http://www.w3.org/2000/svg">
<path fill-rule="evenodd" clip-rule="evenodd" d="M8.62671 9.98706C7.49627 9.98706 6.58112 10.9011 6.58112 12.0283V17.0518C6.58112 17.3715 6.67801 17.6849 6.85027 17.9529L7.66851 19.2276C7.87307 19.5549 8.23913 19.753 8.62671 19.753C9.0143 19.753 9.38036 19.5549 9.58492 19.2276L10.4032 17.9529C10.5754 17.6849 10.6723 17.3715 10.6723 17.0518V12.0283C10.6723 10.9011 9.75716 9.98706 8.62671 9.98706ZM17.1428 11.0593C17.1428 10.6427 16.809 10.3057 16.3891 10.3057H12.3088C11.8997 10.3057 11.5551 10.6427 11.5551 11.0593V18.9994C11.5551 19.415 11.8997 19.753 12.3088 19.753H16.3891C16.809 19.753 17.1428 19.415 17.1428 18.9994V11.0593ZM13.0624 17.4749V18.2457H15.6355V11.813H13.0624V12.5472H14.3543C14.6019 12.5472 14.8065 12.7518 14.8065 13.0048C14.8065 13.2578 14.6019 13.4623 14.3543 13.4623H13.0624V14.5713H13.676C13.9236 14.5713 14.139 14.7769 14.139 15.0288C14.139 15.2818 13.9236 15.4864 13.676 15.4864H13.0624V16.5598H14.3543C14.6019 16.5598 14.8065 16.7654 14.8065 17.0173C14.8065 17.2703 14.6019 17.4749 14.3543 17.4749H13.0624ZM9.16502 13.3579V17.0518C9.16502 17.083 9.15423 17.1131 9.14347 17.139L8.62671 17.9346L8.12074 17.139C8.0992 17.1131 8.08841 17.083 8.08841 17.0518V13.3579H9.16502ZM9.16502 12.3889H8.08841V12.0283C8.08841 11.7333 8.33603 11.4943 8.62671 11.4943C8.92817 11.4943 9.16502 11.7333 9.16502 12.0283V12.3889Z" fill="black"/>
<path fill-rule="evenodd" clip-rule="evenodd" d="M20.7259 21.2086V9.66299C20.7259 8.93089 20.4353 8.2279 19.9185 7.71004C19.4017 7.19219 18.702 6.90146 17.9699 6.90146H13.9649V6.43964C13.9649 6.13604 13.7926 5.85719 13.5127 5.71938L10.4551 4.16583V2.13101C10.4551 1.68529 10.0891 1.32355 9.64764 1.32355C9.19547 1.32355 8.84018 1.68529 8.84018 2.13101V3.34864L6.27783 2.05459C5.61033 1.71761 4.82433 1.75093 4.18913 2.14067C3.54316 2.53148 3.16639 3.22378 3.16639 3.96988V21.2086H2.94021C2.48803 21.2086 2.13275 21.5704 2.13275 22.0161C2.13275 22.4618 2.48803 22.8235 2.94021 22.8235H21.0598C21.5012 22.8235 21.8672 22.4618 21.8672 22.0161C21.8672 21.5704 21.5012 21.2086 21.0598 21.2086H20.7259ZM12.35 7.61095C12.35 7.57973 12.35 7.54639 12.35 7.51409V6.93596L5.54567 3.49505C5.38418 3.41215 5.19041 3.41971 5.02892 3.5166C4.87819 3.6135 4.78132 3.7847 4.78132 3.96988V21.2086H19.111V9.66299C19.111 9.35938 18.9927 9.06763 18.7773 8.85231C18.562 8.63698 18.2713 8.51639 17.9699 8.51639C15.9674 8.51639 13.1574 8.51639 13.1574 8.51639C12.7052 8.51639 12.35 8.15465 12.35 7.70893C12.35 7.67555 12.35 7.64325 12.35 7.61095Z" fill="black"/>
</svg>
