<svg width="24" height="24" viewBox="0 0 24 24" fill="none" xmlns="http://www.w3.org/2000/svg">
<g clip-path="url(#clip0_221_14517)">
<path fill-rule="evenodd" clip-rule="evenodd" d="M14.948 1.25H17.052C17.951 1.25 18.7 1.25 19.294 1.33C19.922 1.414 20.489 1.6 20.944 2.055C21.4 2.511 21.586 3.078 21.67 3.705C21.75 4.3 21.75 5.05 21.75 5.948V21.25H22C22.1989 21.25 22.3897 21.329 22.5303 21.4697C22.671 21.6103 22.75 21.8011 22.75 22C22.75 22.1989 22.671 22.3897 22.5303 22.5303C22.3897 22.671 22.1989 22.75 22 22.75H2C1.80109 22.75 1.61032 22.671 1.46967 22.5303C1.32902 22.3897 1.25 22.1989 1.25 22C1.25 21.8011 1.32902 21.6103 1.46967 21.4697C1.61032 21.329 1.80109 21.25 2 21.25H2.25V8.948C2.25 8.05 2.25 7.3 2.33 6.706C2.414 6.078 2.6 5.511 3.055 5.056C3.511 4.6 4.078 4.414 4.705 4.33C5.3 4.25 6.05 4.25 6.948 4.25H10.278C10.329 3.376 10.491 2.62 11.055 2.055C11.511 1.6 12.078 1.415 12.705 1.33C13.3 1.25 14.05 1.25 14.948 1.25ZM11.007 5.75H7C6.036 5.75 5.388 5.752 4.905 5.817C4.444 5.879 4.246 5.986 4.116 6.117C3.986 6.248 3.879 6.444 3.816 6.905C3.753 7.388 3.75 8.036 3.75 9V21.25H8.25V19C8.25 18.8011 8.32902 18.6103 8.46967 18.4697C8.61032 18.329 8.80109 18.25 9 18.25C9.19891 18.25 9.38968 18.329 9.53033 18.4697C9.67098 18.6103 9.75 18.8011 9.75 19V21.25H14.25V9C14.25 8.036 14.248 7.388 14.184 6.905C14.121 6.444 14.014 6.246 13.884 6.116C13.754 5.986 13.556 5.879 13.094 5.816C12.613 5.752 11.967 5.75 11.007 5.75ZM15.75 21.25V8.948C15.75 8.05 15.75 7.3 15.67 6.706C15.586 6.078 15.4 5.511 14.944 5.056C14.489 4.6 13.922 4.414 13.294 4.33C12.869 4.273 12.364 4.256 11.784 4.252C11.834 3.552 11.944 3.289 12.116 3.116C12.246 2.986 12.444 2.879 12.906 2.816C13.388 2.752 14.036 2.75 15 2.75H17C17.964 2.75 18.612 2.752 19.095 2.817C19.556 2.879 19.754 2.986 19.884 3.117C20.014 3.248 20.121 3.444 20.184 3.905C20.248 4.388 20.25 5.036 20.25 6V21.25H15.75ZM5.25 8C5.25 7.80109 5.32902 7.61032 5.46967 7.46967C5.61032 7.32902 5.80109 7.25 6 7.25H12C12.1989 7.25 12.3897 7.32902 12.5303 7.46967C12.671 7.61032 12.75 7.80109 12.75 8C12.75 8.19891 12.671 8.38968 12.5303 8.53033C12.3897 8.67098 12.1989 8.75 12 8.75H6C5.80109 8.75 5.61032 8.67098 5.46967 8.53033C5.32902 8.38968 5.25 8.19891 5.25 8ZM5.25 11C5.25 10.8011 5.32902 10.6103 5.46967 10.4697C5.61032 10.329 5.80109 10.25 6 10.25H12C12.1989 10.25 12.3897 10.329 12.5303 10.4697C12.671 10.6103 12.75 10.8011 12.75 11C12.75 11.1989 12.671 11.3897 12.5303 11.5303C12.3897 11.671 12.1989 11.75 12 11.75H6C5.80109 11.75 5.61032 11.671 5.46967 11.5303C5.32902 11.3897 5.25 11.1989 5.25 11ZM5.25 14C5.25 13.8011 5.32902 13.6103 5.46967 13.4697C5.61032 13.329 5.80109 13.25 6 13.25H12C12.1989 13.25 12.3897 13.329 12.5303 13.4697C12.671 13.6103 12.75 13.8011 12.75 14C12.75 14.1989 12.671 14.3897 12.5303 14.5303C12.3897 14.671 12.1989 14.75 12 14.75H6C5.80109 14.75 5.61032 14.671 5.46967 14.5303C5.32902 14.3897 5.25 14.1989 5.25 14Z" fill="black"/>
</g>
<defs>
<clipPath id="clip0_221_14517">
<rect width="24" height="24" fill="white"/>
</clipPath>
</defs>
</svg>
