<svg width="24" height="24" viewBox="0 0 24 24" fill="none" xmlns="http://www.w3.org/2000/svg">
<g clip-path="url(#clip0_221_14583)">
<path fill-rule="evenodd" clip-rule="evenodd" d="M11.943 1.25H12.057C14.366 1.25 16.175 1.25 17.587 1.44C19.031 1.634 20.171 2.04 21.066 2.934C21.961 3.829 22.366 4.969 22.56 6.414C22.75 7.825 22.75 9.634 22.75 11.943V12.057C22.75 14.366 22.75 16.175 22.56 17.587C22.366 19.031 21.96 20.171 21.066 21.066C20.171 21.961 19.031 22.366 17.586 22.56C16.175 22.75 14.366 22.75 12.057 22.75H11.943C9.634 22.75 7.825 22.75 6.413 22.56C4.969 22.366 3.829 21.96 2.934 21.066C2.039 20.171 1.634 19.031 1.44 17.586C1.25 16.175 1.25 14.366 1.25 12.057V11.943C1.25 9.634 1.25 7.825 1.44 6.413C1.634 4.969 2.04 3.829 2.934 2.934C3.829 2.039 4.969 1.634 6.414 1.44C7.825 1.25 9.634 1.25 11.943 1.25ZM6.613 2.926C5.335 3.098 4.564 3.426 3.995 3.995C3.425 4.565 3.098 5.335 2.926 6.614C2.752 7.914 2.75 9.622 2.75 12C2.75 14.378 2.752 16.086 2.926 17.386C3.098 18.665 3.426 19.436 3.995 20.006C4.565 20.575 5.335 20.902 6.614 21.074C7.914 21.248 9.622 21.25 12 21.25C14.378 21.25 16.086 21.248 17.386 21.074C18.665 20.902 19.436 20.574 20.006 20.005C20.575 19.435 20.902 18.665 21.074 17.386C21.248 16.086 21.25 14.378 21.25 12C21.25 9.622 21.248 7.914 21.074 6.614C20.902 5.335 20.574 4.564 20.005 3.994C19.435 3.425 18.665 3.098 17.386 2.926C16.086 2.752 14.378 2.75 12 2.75C9.622 2.75 7.913 2.752 6.613 2.926ZM12.487 6.297C12.7911 6.11593 13.1433 6.03246 13.4963 6.05785C13.8493 6.08324 14.186 6.21627 14.461 6.439C16.02 7.647 17.751 9.736 17.751 12.667C17.751 15.044 16.743 16.603 15.439 17.542C14.173 18.453 12.677 18.75 11.668 18.75C10.4298 18.7297 9.23444 18.2937 8.274 17.512C7.114 16.558 6.251 15.005 6.251 12.667C6.251 10.487 7.509 9.101 8.542 8.415C8.73017 8.28571 8.94656 8.20336 9.17308 8.17483C9.39959 8.1463 9.62965 8.17242 9.844 8.251C10.307 8.431 10.62 8.861 10.648 9.391C10.658 9.571 10.7 9.736 10.758 9.871C10.7815 9.92401 10.8096 9.97486 10.842 10.023C11.312 9.37 11.545 8.479 11.545 8C11.545 7.269 11.918 6.632 12.487 6.297ZM13.248 7.589C13.151 7.647 13.045 7.784 13.045 8C13.045 8.799 12.707 10.027 12.024 10.948C11.785 11.269 11.453 11.53 11.027 11.59C10.8378 11.614 10.6456 11.5979 10.463 11.5428C10.2803 11.4876 10.1114 11.3947 9.967 11.27C9.546 10.925 9.281 10.37 9.187 9.796C8.483 10.326 7.751 11.26 7.751 12.666C7.751 14.596 8.443 15.709 9.228 16.354C9.91967 16.9146 10.7779 17.2298 11.668 17.25C12.436 17.25 13.606 17.013 14.563 16.325C15.481 15.664 16.251 14.555 16.251 12.667C16.251 10.376 14.901 8.677 13.542 7.624C13.4962 7.58495 13.4398 7.56056 13.38 7.554C13.3338 7.55224 13.2872 7.56443 13.248 7.589Z" fill="black"/>
</g>
<defs>
<clipPath id="clip0_221_14583">
<rect width="24" height="24" fill="white"/>
</clipPath>
</defs>
</svg>
