<svg width="24" height="24" viewBox="0 0 24 24" fill="none" xmlns="http://www.w3.org/2000/svg">
<path fill-rule="evenodd" clip-rule="evenodd" d="M6.02801 14.6568C5.97203 14.8089 5.97203 14.975 6.02801 15.1262C6.02801 15.1262 7.39965 18.9955 12.0183 18.9955C16.6369 18.9955 17.9804 15.1849 17.9804 15.1849C18.0364 15.0468 18.0364 14.8957 17.9991 14.7538C17.9991 14.7538 16.8795 10.7305 12.1116 10.7305C7.37163 10.7305 6.02801 14.6568 6.02801 14.6568ZM7.44628 14.8854C7.79151 14.1801 9.06047 12.1301 12.1116 12.1301C15.1533 12.1301 16.2824 14.2285 16.5716 14.9209C16.2357 15.5899 14.9947 17.5959 12.0183 17.5959C9.06049 17.5959 7.80084 15.5834 7.44628 14.8854ZM12.0089 12.5575C10.7307 12.5575 9.70421 13.5903 9.70421 14.863C9.70421 16.1348 10.7307 17.1686 12.0089 17.1686C13.2779 17.1686 14.3136 16.1348 14.3136 14.863C14.3136 13.5903 13.2779 12.5575 12.0089 12.5575ZM12.0089 13.9571C12.5035 13.9571 12.914 14.3629 12.914 14.863C12.914 15.3631 12.5035 15.769 12.0089 15.769C11.5051 15.769 11.1038 15.3631 11.1038 14.863C11.1038 14.3629 11.5051 13.9571 12.0089 13.9571Z" fill="black"/>
<path fill-rule="evenodd" clip-rule="evenodd" d="M20.7367 21.2087V9.66309C20.7367 8.93099 20.446 8.22794 19.9293 7.71009C19.4125 7.19223 18.702 6.90157 17.9699 6.90157H13.9649V6.44081C13.9649 6.13613 13.8034 5.85723 13.5235 5.71943L10.4551 4.167V2.13107C10.4551 1.68535 10.0999 1.32361 9.64768 1.32361C9.20627 1.32361 8.84022 1.68535 8.84022 2.13107V3.34876L6.28866 2.05465C5.62116 1.71767 4.82438 1.75106 4.18918 2.14079C3.55398 2.5316 3.16645 3.22384 3.16645 3.96993V21.2087H2.94027C2.49886 21.2087 2.13281 21.5704 2.13281 22.0161C2.13281 22.4619 2.49886 22.8236 2.94027 22.8236H21.0598C21.5119 22.8236 21.8672 22.4619 21.8672 22.0161C21.8672 21.5704 21.5119 21.2087 21.0598 21.2087H20.7367ZM12.3606 7.61106C12.3606 7.57984 12.35 7.54751 12.35 7.51413V6.93712L5.5565 3.49517C5.39501 3.41227 5.20124 3.4209 5.03975 3.51672C4.87826 3.61362 4.78137 3.78475 4.78137 3.96993V21.2087H19.1218V9.66309C19.1218 9.35948 19.0034 9.06773 18.7881 8.85241C18.5728 8.63709 18.2821 8.51649 17.9699 8.51649C15.9781 8.51649 13.1575 8.51649 13.1575 8.51649C12.716 8.51649 12.35 8.15475 12.35 7.70903C12.35 7.67566 12.3606 7.64336 12.3606 7.61106Z" fill="black"/>
</svg>
