<svg width="24" height="24" viewBox="0 0 24 24" fill="none" xmlns="http://www.w3.org/2000/svg">
<path fill-rule="evenodd" clip-rule="evenodd" d="M11.9171 3.00217C11.8525 3.00109 11.787 3 11.7213 3C11.6718 3 11.6234 3.00433 11.576 3.01294C9.4551 3.11732 8.12502 3.83938 7.27922 4.6572C6.43235 5.4761 6.05792 6.41767 5.89328 7.06117H5.50479C5.05929 7.06117 4.69773 7.4238 4.69773 7.86822C4.69773 8.31372 5.05929 8.67528 5.50479 8.67528H5.76303V13.6661H2.05706C1.61156 13.6661 1.25 14.0277 1.25 14.4732C1.25 14.9176 1.61156 15.2802 2.05706 15.2802H2.51543V20.3098H2.05706C1.61156 20.3098 1.25 20.6713 1.25 21.1168C1.25 21.5623 1.61156 21.9239 2.05706 21.9239H21.9429C22.3884 21.9239 22.75 21.5623 22.75 21.1168C22.75 20.6713 22.3884 20.3098 21.9429 20.3098H21.5835V15.2802H21.9429C22.3884 15.2802 22.75 14.9176 22.75 14.4732C22.75 14.0277 22.3884 13.6661 21.9429 13.6661H18.0701V8.67528H18.7201C19.1656 8.67528 19.5272 8.31372 19.5272 7.86822C19.5272 7.4238 19.1656 7.06117 18.7201 7.06117H17.941C17.7764 6.41767 17.4019 5.4761 16.554 4.6572C15.7092 3.83938 14.3792 3.11732 12.2572 3.01294C12.2098 3.00433 12.1625 3 12.113 3C12.0463 3 11.9817 3.00109 11.9171 3.00217ZM4.12954 15.2802V20.3098H19.9694V15.2802H4.12954ZM14.1048 18.5418V17.1902C14.1048 16.7447 13.7432 16.3832 13.2977 16.3832C12.8522 16.3832 12.4907 16.7447 12.4907 17.1902V18.5418C12.4907 18.9873 12.8522 19.3488 13.2977 19.3488C13.7432 19.3488 14.1048 18.9873 14.1048 18.5418ZM8.80835 18.4525V17.0999C8.80835 16.6554 8.44679 16.2928 8.00129 16.2928C7.5558 16.2928 7.19424 16.6554 7.19424 17.0999V18.4525C7.19424 18.898 7.5558 19.2596 8.00129 19.2596C8.44679 19.2596 8.80835 18.898 8.80835 18.4525ZM16.7853 18.4525V17.0999C16.7853 16.6554 16.4238 16.2928 15.9783 16.2928C15.5328 16.2928 15.1712 16.6554 15.1712 17.0999V18.4525C15.1712 18.898 15.5328 19.2596 15.9783 19.2596C16.4238 19.2596 16.7853 18.898 16.7853 18.4525ZM11.4889 18.3632V17.0105C11.4889 16.565 11.1273 16.2035 10.6818 16.2035C10.2363 16.2035 9.87477 16.565 9.87477 17.0105V18.3632C9.87477 18.8087 10.2363 19.1703 10.6818 19.1703C11.1273 19.1703 11.4889 18.8087 11.4889 18.3632ZM7.37715 8.67528V13.6661H16.456V8.67528H7.37715ZM11.434 11.9358V10.5842C11.434 10.1387 11.0724 9.77717 10.6269 9.77717C10.1814 9.77717 9.81987 10.1387 9.81987 10.5842V11.9358C9.81987 12.3813 10.1814 12.7428 10.6269 12.7428C11.0724 12.7428 11.434 12.3813 11.434 11.9358ZM14.1145 11.8464V10.4949C14.1145 10.0494 13.753 9.68785 13.3075 9.68785C12.862 9.68785 12.5004 10.0494 12.5004 10.4949V11.8464C12.5004 12.2919 12.862 12.6535 13.3075 12.6535C13.753 12.6535 14.1145 12.2919 14.1145 11.8464ZM11.9171 4.61628C10.1706 4.65179 9.07523 5.16511 8.4016 5.81721C7.97763 6.2272 7.72795 6.68239 7.58161 7.06117H16.2527C16.1063 6.68239 15.8567 6.2272 15.4316 5.81721C14.7591 5.16511 13.6636 4.65179 11.9171 4.61628Z" fill="black"/>
</svg>
