<svg width="24" height="24" viewBox="0 0 24 24" fill="none" xmlns="http://www.w3.org/2000/svg">
<path fill-rule="evenodd" clip-rule="evenodd" d="M22.75 6.97375C22.75 3.81434 20.1864 1.24976 17.022 1.24976H6.97797C3.82357 1.24976 1.25 3.81434 1.25 6.97375V17.0208C1.25 20.1802 3.82357 22.7458 6.97797 22.7458H17.022C20.1864 22.7458 22.75 20.1802 22.75 17.0208V6.97375ZM11.3041 21.3438H6.97797C4.59464 21.3438 2.65198 19.4061 2.65198 17.0208V16.3028H11.3041V21.3438ZM12.7061 21.3438H17.022C19.4154 21.3438 21.3481 19.4061 21.3481 17.0208V6.97375C21.3481 4.58842 19.4154 2.65174 17.022 2.65174H6.97797C4.59464 2.65174 2.65198 4.58842 2.65198 6.97375V11.2968H12.005C12.3855 11.2968 12.7061 11.6102 12.7061 11.9977V21.3438ZM11.3041 12.6987H2.65198V14.9008H11.3041V12.6987Z" fill="black"/>
</svg>
