<svg width="24" height="24" viewBox="0 0 24 24" fill="none" xmlns="http://www.w3.org/2000/svg">
<path fill-rule="evenodd" clip-rule="evenodd" d="M13.8085 4.46389L13.8509 4.46492L13.8933 4.46071C14.0418 4.43844 14.6464 4.30906 14.6464 3.65886C14.6464 3.59946 14.6464 3.2876 14.6464 2.95243C14.6464 2.00949 13.8827 1.24475 12.9387 1.24475H3.49864C2.25764 1.24475 1.25 2.25129 1.25 3.49229V20.2171C1.25 20.863 1.50461 21.4835 1.9607 21.9407C2.41679 22.3978 3.0426 22.6546 3.68962 22.6546C5.28063 22.6546 7.47619 22.6546 7.47619 22.6546C7.91106 22.6546 8.2717 22.2982 8.2717 21.8591C8.2717 21.421 7.91106 21.0636 7.47619 21.0636H3.68962C3.45627 21.0636 3.24419 20.9744 3.08508 20.8164C2.92598 20.6573 2.84102 20.442 2.84102 20.2171V3.49229C2.84102 3.12953 3.1274 2.83577 3.49864 2.83577H12.9387C13.0024 2.83577 13.0554 2.88773 13.0554 2.95243L13.066 3.75008V3.77765C13.0872 3.92615 13.1403 4.04282 13.2145 4.13404C13.3524 4.3239 13.5646 4.45116 13.8085 4.46389ZM16.0995 12.1156H19.0482C19.5892 12.1156 20.1195 11.894 20.5014 11.5005C20.8832 11.107 21.0848 10.5755 21.0636 10.0271V10.025C21.0317 8.91236 20.1195 8.02885 19.0058 8.02885H15.2829C14.8374 8.02885 14.4131 8.15503 14.0312 8.39262L9.6931 11.1451L7.85814 11.2989C6.79746 11.388 6.0019 12.3172 6.07614 13.3842V13.4828C6.15039 14.4831 6.99887 15.251 7.99591 15.2298C9.18387 15.2044 10.9765 15.1662 10.9765 15.1662C11.125 15.163 11.2629 15.1195 11.3902 15.0421C11.3902 15.0421 11.8993 14.7175 12.3448 14.4375C12.366 14.4226 12.3978 14.4269 12.419 14.4491L12.716 14.8023C12.8115 14.9127 12.8009 15.0781 12.7054 15.181L11.3795 16.4931C10.8174 17.0404 10.5098 17.7829 10.4886 18.5614C10.478 19.1787 10.4674 20.0071 10.4568 20.6774C10.4462 21.1993 10.6477 21.7021 11.0189 22.0744C11.3796 22.4456 11.878 22.6546 12.3978 22.6546H12.4827C13.0342 22.6546 13.5646 22.4339 13.9571 22.0415C14.3495 21.649 14.5722 21.1166 14.5722 20.5608V19.0122C14.5722 18.94 14.604 18.8722 14.6676 18.8297L15.7708 18.0459C15.792 18.0363 15.8131 18.0353 15.8237 18.0459L16.9269 18.8149C17.4996 19.2137 18.1784 19.429 18.8785 19.4332L20.1937 19.4428C21.3605 19.4502 22.3151 18.5147 22.3363 17.3448C22.3575 16.1844 21.4454 15.2213 20.2787 15.1831L18.9422 15.1386C18.7407 15.1312 18.5498 15.0389 18.4225 14.884L16.0995 12.1156ZM7.66716 13.3693L7.65655 13.2697C7.64594 13.0724 7.7945 12.9006 7.98542 12.8847L10.0218 12.7149C10.1491 12.7043 10.2764 12.6619 10.3824 12.594C10.3824 12.594 13.7448 10.4642 14.8903 9.73653C15.007 9.66016 15.145 9.61987 15.2829 9.61987H19.0058C19.2603 9.61987 19.4725 9.82246 19.4725 10.076V10.0781C19.4831 10.1958 19.4407 10.3093 19.3559 10.3931C19.271 10.478 19.1649 10.5246 19.0482 10.5246H15.6223C15.6223 10.5246 14.6465 10.6264 14.4555 11.7571C14.3813 12.2206 14.5085 12.6937 14.8161 13.0533L17.2027 15.9054C17.6269 16.4071 18.2421 16.7062 18.8891 16.7285L20.2256 16.7731C20.5226 16.7826 20.7559 17.0255 20.7453 17.3183C20.7453 17.6153 20.5013 17.8539 20.2043 17.8518L18.8891 17.8422C18.5179 17.8401 18.1466 17.7235 17.839 17.5082L16.736 16.7402C16.1633 16.3478 15.4208 16.3499 14.8586 16.7466C14.5192 16.9852 14.0736 17.3003 13.7448 17.5304C13.2675 17.8709 12.9812 18.4246 12.9812 19.0143V20.5629C12.9812 20.6954 12.9281 20.8228 12.8327 20.9172C12.7372 21.0116 12.61 21.0636 12.4827 21.0636H12.3978C12.3023 21.0636 12.2175 21.0264 12.1538 20.9585C12.0796 20.8907 12.0478 20.7984 12.0478 20.704C12.0584 20.0336 12.069 19.2042 12.0796 18.5868C12.0902 18.2251 12.2387 17.8794 12.4933 17.6248L13.8192 16.3128C14.5192 15.6233 14.5616 14.5139 13.9252 13.7682L13.6282 13.415C13.0978 12.7924 12.1856 12.6544 11.4962 13.0936L10.7219 13.5794L7.96419 13.6388C7.80508 13.642 7.67777 13.5231 7.66716 13.3693ZM9.95827 3.94313C8.38846 3.94313 7.11559 5.21484 7.11559 6.78147C7.11559 8.34809 8.38846 9.61987 9.95827 9.61987C11.5175 9.61987 12.7902 8.34809 12.7902 6.78147C12.7902 5.21484 11.5175 3.94313 9.95827 3.94313ZM9.95827 5.53415C10.6477 5.53415 11.1992 6.09309 11.1992 6.78147C11.1992 7.46985 10.6477 8.02885 9.95827 8.02885C9.26883 8.02885 8.70661 7.46985 8.70661 6.78147C8.70661 6.09309 9.26883 5.53415 9.95827 5.53415ZM16.5663 4.49043C16.5451 4.56362 16.5238 4.64102 16.5238 4.72057V4.75133C16.5238 4.83618 16.5451 4.91889 16.5663 4.99526V4.9985C16.6087 5.10563 16.6723 5.2074 16.7465 5.29332L18.7406 7.33725C19.0482 7.65121 19.5574 7.65758 19.865 7.35104C20.1832 7.0445 20.1938 6.54071 19.8862 6.22569L19.2074 5.53415H21.9545C22.4 5.53415 22.75 5.17776 22.75 4.73864C22.75 4.29952 22.4 3.94313 21.9545 3.94313H19.1649L19.8013 3.26848C20.0983 2.94816 20.0878 2.44434 19.7696 2.14417C19.4407 1.84293 18.9422 1.85783 18.6452 2.17815L16.7465 4.19341C16.6617 4.28038 16.5981 4.38224 16.5663 4.49043Z" fill="black"/>
</svg>
