<svg width="24" height="24" viewBox="0 0 24 24" fill="none" xmlns="http://www.w3.org/2000/svg">
<g clip-path="url(#clip0_221_14568)">
<path fill-rule="evenodd" clip-rule="evenodd" d="M9.944 1.25H14.056C15.894 1.25 17.35 1.25 18.489 1.403C19.661 1.561 20.61 1.893 21.359 2.641C22.107 3.39 22.439 4.339 22.597 5.511C22.687 6.184 22.724 6.967 22.739 7.874C22.7514 7.95007 22.7528 8.02754 22.743 8.104C22.749 8.66933 22.7513 9.28267 22.75 9.944V12.056C22.75 13.894 22.75 15.35 22.597 16.489C22.439 17.661 22.107 18.61 21.359 19.359C20.895 19.823 20.354 20.127 19.73 20.329C19.7433 20.3837 19.75 20.4407 19.75 20.5V22C19.75 22.1989 19.671 22.3897 19.5303 22.5303C19.3897 22.671 19.1989 22.75 19 22.75C18.8011 22.75 18.6103 22.671 18.4697 22.5303C18.329 22.3897 18.25 22.1989 18.25 22V20.626C17.148 20.75 15.768 20.75 14.056 20.75H9.944C8.232 20.75 6.852 20.75 5.75 20.626V22C5.75 22.1989 5.67098 22.3897 5.53033 22.5303C5.38968 22.671 5.19891 22.75 5 22.75C4.80109 22.75 4.61032 22.671 4.46967 22.5303C4.32902 22.3897 4.25 22.1989 4.25 22V20.5C4.25 20.44 4.25666 20.3827 4.27 20.328C3.646 20.127 3.105 19.823 2.641 19.358C1.893 18.61 1.561 17.661 1.403 16.489C1.25 15.349 1.25 13.894 1.25 12.056V9.944C1.24866 9.28267 1.251 8.66933 1.257 8.104C1.24691 8.02759 1.24792 7.95012 1.26 7.874C1.276 6.967 1.313 6.184 1.403 5.511C1.561 4.339 1.893 3.39 2.641 2.641C3.39 1.893 4.339 1.561 5.511 1.403C6.651 1.25 8.106 1.25 9.944 1.25ZM2.752 8.75C2.75066 9.138 2.75 9.55467 2.75 10V12C2.75 13.907 2.752 15.262 2.89 16.29C3.025 17.295 3.279 17.875 3.702 18.298C4.125 18.721 4.705 18.975 5.711 19.11C6.739 19.248 8.093 19.25 10 19.25H11.25V8.75H2.752ZM2.776 7.25C2.796 6.663 2.83 6.156 2.89 5.71C3.025 4.705 3.279 4.125 3.702 3.702C4.125 3.279 4.705 3.025 5.711 2.89C6.739 2.752 8.093 2.75 10 2.75H14C15.907 2.75 17.262 2.752 18.29 2.89C19.295 3.025 19.875 3.279 20.298 3.702C20.721 4.125 20.975 4.705 21.11 5.711C21.17 6.156 21.204 6.663 21.224 7.25H2.776ZM12.75 8.75V19.25H14C15.907 19.25 17.262 19.248 18.29 19.11C19.295 18.975 19.875 18.721 20.298 18.298C20.721 17.875 20.975 17.295 21.11 16.289C21.248 15.261 21.25 13.907 21.25 12V10C21.25 9.55467 21.2493 9.138 21.248 8.75H12.75ZM9 11.25C9.19891 11.25 9.38968 11.329 9.53033 11.4697C9.67098 11.6103 9.75 11.8011 9.75 12V15C9.75 15.1989 9.67098 15.3897 9.53033 15.5303C9.38968 15.671 9.19891 15.75 9 15.75C8.80109 15.75 8.61032 15.671 8.46967 15.5303C8.32902 15.3897 8.25 15.1989 8.25 15V12C8.25 11.8011 8.32902 11.6103 8.46967 11.4697C8.61032 11.329 8.80109 11.25 9 11.25ZM15 11.25C15.1989 11.25 15.3897 11.329 15.5303 11.4697C15.671 11.6103 15.75 11.8011 15.75 12V15C15.75 15.1989 15.671 15.3897 15.5303 15.5303C15.3897 15.671 15.1989 15.75 15 15.75C14.8011 15.75 14.6103 15.671 14.4697 15.5303C14.329 15.3897 14.25 15.1989 14.25 15V12C14.25 11.8011 14.329 11.6103 14.4697 11.4697C14.6103 11.329 14.8011 11.25 15 11.25Z" fill="black"/>
</g>
<defs>
<clipPath id="clip0_221_14568">
<rect width="24" height="24" fill="white"/>
</clipPath>
</defs>
</svg>
