<svg width="24" height="24" viewBox="0 0 24 24" fill="none" xmlns="http://www.w3.org/2000/svg">
<g clip-path="url(#clip0_221_14558)">
<path fill-rule="evenodd" clip-rule="evenodd" d="M8.905 4.25H15.095C15.933 4.25 16.467 4.25 16.927 4.341C17.8484 4.52429 18.6947 4.97668 19.359 5.64096C20.0233 6.30525 20.4757 7.15161 20.659 8.073C20.729 8.423 20.745 8.816 20.749 9.353C21.3253 9.51612 21.8325 9.86292 22.1937 10.3407C22.5549 10.8185 22.7502 11.4011 22.75 12V14.444C22.75 15.974 21.952 17.318 20.75 18.081V19C20.75 19.1989 20.671 19.3897 20.5303 19.5303C20.3897 19.671 20.1989 19.75 20 19.75C19.8011 19.75 19.6103 19.671 19.4697 19.5303C19.329 19.3897 19.25 19.1989 19.25 19V18.675C18.9887 18.725 18.72 18.75 18.444 18.75H5.556C5.28 18.75 5.01133 18.725 4.75 18.675V19C4.75 19.1989 4.67098 19.3897 4.53033 19.5303C4.38968 19.671 4.19891 19.75 4 19.75C3.80109 19.75 3.61032 19.671 3.46967 19.5303C3.32902 19.3897 3.25 19.1989 3.25 19V18.081C2.63694 17.6929 2.13206 17.156 1.78236 16.5202C1.43266 15.8845 1.24953 15.1706 1.25 14.445V12C1.25 10.74 2.096 9.68 3.251 9.353C3.255 8.816 3.271 8.423 3.341 8.073C3.52429 7.15161 3.97668 6.30525 4.64097 5.64096C5.30525 4.97668 6.15161 4.52429 7.073 4.341C7.533 4.25 8.067 4.25 8.905 4.25ZM4.752 9.354C5.32756 9.51763 5.83404 9.86451 6.19461 10.342C6.55519 10.8195 6.75018 11.4016 6.75 12V13.2C6.75 13.228 6.772 13.25 6.8 13.25H11.25V5.75H9C8.035 5.75 7.662 5.754 7.366 5.812C6.73541 5.93735 6.15616 6.24692 5.70154 6.70154C5.24692 7.15616 4.93735 7.73541 4.812 8.366C4.769 8.584 4.756 8.845 4.752 9.354ZM12.75 5.75V13.25H17.2C17.2133 13.25 17.226 13.2447 17.2354 13.2354C17.2447 13.226 17.25 13.2133 17.25 13.2V12C17.25 10.742 18.095 9.681 19.248 9.354C19.244 8.844 19.231 8.584 19.188 8.366C19.0627 7.73541 18.7531 7.15616 18.2985 6.70154C17.8438 6.24692 17.2646 5.93735 16.634 5.812C16.338 5.754 15.965 5.75 15 5.75H12.75ZM4 10.75C3.31 10.75 2.75 11.31 2.75 12V14.444C2.75 15.1882 3.04563 15.9019 3.57186 16.4281C4.09809 16.9544 4.8118 17.25 5.556 17.25H18.444C19.1882 17.25 19.9019 16.9544 20.4281 16.4281C20.9544 15.9019 21.25 15.1882 21.25 14.444V12C21.25 11.6685 21.1183 11.3505 20.8839 11.1161C20.6495 10.8817 20.3315 10.75 20 10.75C19.6685 10.75 19.3505 10.8817 19.1161 11.1161C18.8817 11.3505 18.75 11.6685 18.75 12V13.2C18.75 13.6111 18.5867 14.0053 18.296 14.296C18.0053 14.5867 17.6111 14.75 17.2 14.75H6.8C6.38892 14.75 5.99467 14.5867 5.70399 14.296C5.4133 14.0053 5.25 13.6111 5.25 13.2V12C5.25 11.31 4.69 10.75 4 10.75Z" fill="black"/>
</g>
<defs>
<clipPath id="clip0_221_14558">
<rect width="24" height="24" fill="white"/>
</clipPath>
</defs>
</svg>
