<svg width="24" height="24" viewBox="0 0 24 24" fill="none" xmlns="http://www.w3.org/2000/svg">
<path d="M19.7581 6.85453V2.50333C19.7581 2.17195 19.4209 1.89972 19.0104 1.89972C18.5999 1.89972 18.2627 2.17195 18.2627 2.50333V6.87538L16.5428 5.15502C16.2533 4.86625 15.7773 4.86625 15.4878 5.15502C15.199 5.44454 15.199 5.92059 15.4878 6.2101L18.4724 9.19478C18.7619 9.48355 19.238 9.48355 19.5275 9.19478L22.5122 6.2101C22.6637 6.06908 22.7495 5.8706 22.7495 5.66391C22.7495 5.25426 22.413 4.91774 22.0033 4.91774C21.7966 4.91774 21.5981 5.00355 21.4571 5.15502L19.7581 6.85453Z" fill="black"/>
<path d="M12.7605 4.21393C12.7605 3.81567 12.438 3.49316 12.0398 3.49316H9.9442C8.10591 3.49316 6.65088 3.49316 5.51085 3.64617C4.33857 3.80442 3.3898 4.13668 2.64053 4.88445C1.89276 5.63371 1.56051 6.58249 1.403 7.75476C1.25 8.89329 1.25 10.3498 1.25 12.1874V12.2999C1.25 14.1374 1.25 15.5924 1.403 16.7325C1.56051 17.9048 1.89276 18.8535 2.64053 19.6028C3.3898 20.3506 4.33857 20.6828 5.51085 20.8411C6.65013 20.9941 8.10591 20.9941 9.9442 20.9941H14.0558C15.8941 20.9941 17.3491 20.9941 18.4892 20.8411C19.6614 20.6828 20.6102 20.3506 21.3595 19.6028C22.1072 18.8535 22.4395 17.9048 22.597 16.7325C22.75 15.5939 22.75 14.1374 22.75 12.2999V12.1874C22.75 11.4989 22.75 10.8643 22.7402 10.2801C22.7312 9.87431 22.4005 9.55031 21.9947 9.55031H21.9842C21.7832 9.55031 21.5912 9.63131 21.451 9.77456C21.3107 9.91856 21.2342 10.1128 21.2387 10.3131C21.2492 10.8861 21.2492 11.5259 21.2492 12.2436C21.2492 14.1509 21.247 15.5047 21.109 16.533C20.974 17.5387 20.7205 18.1185 20.2974 18.5415C19.8744 18.9645 19.2939 19.2188 18.2889 19.3538C17.2614 19.4918 15.9061 19.494 13.9988 19.494H9.99895C8.09166 19.494 6.73788 19.4918 5.7096 19.3538C4.70383 19.2188 4.12407 18.9645 3.70106 18.5415C3.27805 18.1185 3.02379 17.5387 2.88879 16.5337C2.75078 15.5054 2.74853 14.1509 2.74853 12.2436C2.74853 10.3363 2.75078 8.98254 2.88879 7.95427C3.02379 6.94849 3.27805 6.36873 3.69956 5.94572C4.12407 5.52271 4.70383 5.26846 5.7096 5.13345C6.73863 4.99545 8.09166 4.9932 9.99895 4.9932H12.0398C12.438 4.9932 12.7605 4.67069 12.7605 4.27318V4.21393Z" fill="black"/>
<path d="M16.2256 10.0468C16.1184 9.74905 15.8356 9.5503 15.5184 9.5503H15.5146C15.3466 9.5503 15.1839 9.60655 15.0511 9.71005C14.5381 10.1121 13.2338 11.1336 13.2338 11.1336C12.7051 11.4748 12.3458 11.5888 12.0008 11.5888C11.6558 11.5888 11.2973 11.4733 10.7678 11.1336C10.2202 10.7818 9.57298 10.2433 8.63996 9.4663L6.47766 7.66776C6.1619 7.4045 5.68564 7.448 5.42163 7.76376H5.42388C5.31138 7.89801 5.24988 8.06826 5.24988 8.24377C5.24988 8.46652 5.34888 8.67803 5.51988 8.82053L7.76462 10.6905C8.62986 11.4102 9.33319 11.9952 9.95624 12.3959C10.617 12.8196 11.2598 13.0889 12.0008 13.0889C12.7418 13.0889 13.3853 12.8204 14.0453 12.3959L14.0635 12.3842C14.3082 12.2268 14.4461 12.1382 14.5787 12.0423C14.7499 11.9186 14.9123 11.7829 15.2843 11.472L15.4974 11.2941C15.4974 11.2941 15.7089 11.1193 15.9976 10.8801C16.2414 10.6783 16.3329 10.3446 16.2256 10.0468Z" fill="black"/>
</svg>
