<svg width="24" height="24" viewBox="0 0 24 24" fill="none" xmlns="http://www.w3.org/2000/svg">
<g clip-path="url(#clip0_221_13626)">
<path fill-rule="evenodd" clip-rule="evenodd" d="M9.944 3.49769H14.056C15.894 3.49769 17.35 3.49769 18.489 3.65069C19.661 3.80869 20.61 4.14069 21.359 4.88869C22.107 5.63769 22.439 6.58669 22.597 7.75869C22.75 8.89869 22.75 10.3537 22.75 12.1917V12.3037C22.75 14.1417 22.75 15.5977 22.597 16.7367C22.439 17.9087 22.107 18.8577 21.359 19.6067C20.61 20.3547 19.661 20.6867 18.489 20.8447C17.349 20.9977 15.894 20.9977 14.056 20.9977H9.944C8.106 20.9977 6.65 20.9977 5.511 20.8447C4.339 20.6867 3.39 20.3547 2.641 19.6067C1.893 18.8577 1.561 17.9087 1.403 16.7367C1.25 15.5967 1.25 14.1417 1.25 12.3037V12.1917C1.25 10.3537 1.25 8.89769 1.403 7.75869C1.561 6.58669 1.893 5.63769 2.641 4.88869C3.39 4.14069 4.339 3.80869 5.511 3.65069C6.651 3.49769 8.106 3.49769 9.944 3.49769ZM5.71 5.13769C4.704 5.27269 4.124 5.52669 3.7 5.94969C3.278 6.37269 3.024 6.95269 2.889 7.95869C2.751 8.98669 2.749 10.3407 2.749 12.2477C2.749 14.1547 2.751 15.5097 2.889 16.5377C3.024 17.5427 3.278 18.1227 3.701 18.5457C4.124 18.9687 4.704 19.2227 5.71 19.3577C6.738 19.4957 8.092 19.4977 9.999 19.4977H13.999C15.906 19.4977 17.261 19.4957 18.289 19.3577C19.294 19.2227 19.874 18.9687 20.297 18.5457C20.72 18.1227 20.974 17.5427 21.109 16.5367C21.247 15.5087 21.249 14.1547 21.249 12.2477C21.249 10.3407 21.247 8.98669 21.109 7.95769C20.974 6.95269 20.72 6.37269 20.297 5.94969C19.874 5.52669 19.294 5.27269 18.288 5.13769C17.261 4.99969 15.906 4.99769 13.999 4.99769H9.999C8.092 4.99769 6.739 4.99969 5.71 5.13769ZM5.422 7.76769C5.54934 7.61498 5.7321 7.51908 5.93013 7.50108C6.12815 7.48308 6.32521 7.54445 6.478 7.67169L8.64 9.47069C9.573 10.2477 10.22 10.7857 10.768 11.1377C11.297 11.4777 11.656 11.5927 12.001 11.5927C12.346 11.5927 12.705 11.4787 13.234 11.1377C13.781 10.7857 14.429 10.2477 15.362 9.47069L17.521 7.67069C17.5967 7.60766 17.6841 7.56015 17.7782 7.53089C17.8722 7.50163 17.9711 7.49117 18.0692 7.50014C18.1673 7.5091 18.2627 7.53729 18.3499 7.58311C18.4371 7.62894 18.5145 7.69149 18.5775 7.76719C18.6405 7.8429 18.688 7.93028 18.7173 8.02435C18.7466 8.11842 18.757 8.21732 18.7481 8.31543C18.7391 8.41353 18.7109 8.50891 18.6651 8.59612C18.6193 8.68333 18.5567 8.76066 18.481 8.82369L16.285 10.6537C15.398 11.3937 14.68 11.9917 14.045 12.3997C13.385 12.8247 12.742 13.0927 12.001 13.0927C11.26 13.0927 10.617 12.8237 9.956 12.3997C9.322 11.9917 8.604 11.3927 7.717 10.6547L5.52 8.82469C5.44424 8.76163 5.38165 8.68425 5.33582 8.59698C5.28998 8.50971 5.2618 8.41426 5.25289 8.31609C5.24397 8.21793 5.25449 8.11896 5.28385 8.02486C5.31322 7.93076 5.36084 7.84337 5.424 7.76769" fill="black"/>
</g>
<defs>
<clipPath id="clip0_221_13626">
<rect width="24" height="24" fill="white"/>
</clipPath>
</defs>
</svg>
