<svg width="24" height="24" viewBox="0 0 24 24" fill="none" xmlns="http://www.w3.org/2000/svg">
<path fill-rule="evenodd" clip-rule="evenodd" d="M12.8251 19.8052V22.1422C12.8251 22.5728 12.486 22.9216 12.0694 22.9216C11.6519 22.9216 11.3138 22.5728 11.3138 22.1422V19.8607C10.6979 19.8266 9.80811 19.7234 9.1469 19.4165C8.76718 19.2402 8.59716 18.7784 8.76813 18.3868C8.9391 17.9942 9.38683 17.8189 9.76655 17.9952C10.5798 18.3722 11.8512 18.3225 11.9617 18.3167C14.2958 18.1861 15.8902 17.399 16.968 16.3342C19.4862 13.8472 19.2189 9.94755 19.2189 9.94755C19.1906 9.51891 19.5051 9.14677 19.9217 9.11755C20.3383 9.08832 20.6981 9.4137 20.7265 9.84234C20.7265 9.84234 21.0202 14.4901 18.0136 17.4594C16.848 18.6099 15.1931 19.5246 12.8251 19.8052ZM17.3364 5.72548L20.7321 2.2243C21.0221 1.92523 21.4925 1.92523 21.7825 2.2243C22.0725 2.52337 22.0725 3.00949 21.7825 3.30856L3.2688 22.4024C2.97882 22.7014 2.50747 22.7014 2.21749 22.4024C1.9275 22.1033 1.9275 21.6181 2.21749 21.3191L6.02319 17.3941C5.53673 17.0522 3.68442 15.5549 3.4445 12.4453C3.44355 12.4385 3.44261 12.4327 3.44167 12.4258C3.44167 12.4258 3.24047 10.985 3.34437 9.82383C3.3831 9.39519 3.75148 9.07955 4.1671 9.11949C4.58177 9.15846 4.88781 9.53838 4.85003 9.96702C4.7669 10.8944 4.9152 12.0294 4.93409 12.1833C5.25147 14.7054 6.61638 15.8432 7.1718 16.2086L8.10693 15.2451C6.30562 14.0108 6.299 11.3903 6.299 11.3903V7.36598C6.299 6.60223 6.68817 5.39914 7.49389 4.32949C7.51656 4.28371 7.5449 4.24084 7.57702 4.19895C8.24106 3.35532 9.43312 2.21845 11.5093 2.05479C11.6689 2.04213 11.8323 2.03531 12.0005 2.03531H12.025C12.1922 2.03531 12.3556 2.04213 12.5153 2.05479C14.5914 2.21845 15.7835 3.35532 16.4475 4.19895C16.4806 4.24084 16.508 4.28371 16.5316 4.32949C16.8745 4.78541 17.1427 5.26567 17.3364 5.72548ZM17.7048 10.2271L17.718 11.0055C17.7171 10.987 17.8228 13.5101 15.9535 15.2626C15.1733 15.9933 14.0464 16.6021 12.4019 16.8057L12.3122 16.8116L12.3594 16.8096C12.3594 16.8096 11.8956 16.8398 11.566 16.7833C11.1541 16.7132 10.8755 16.3118 10.9435 15.8871C11.0115 15.4623 11.4007 15.175 11.8125 15.2451C11.992 15.2763 12.2045 15.2587 12.2451 15.2558C13.4891 15.096 14.3477 14.6616 14.9372 14.1092C16.2756 12.8545 16.2076 11.0523 16.2076 11.0523L16.1935 10.2554C16.1859 9.8248 16.5184 9.46923 16.9359 9.46241C17.3524 9.45462 17.6972 9.79753 17.7048 10.2271ZM12.0128 3.59399C11.7983 3.59399 11.5962 3.6086 11.4044 3.63393C10.6611 3.73524 10.0348 4.02457 9.52473 4.40645C9.19508 4.65973 8.94287 4.93738 8.75018 5.1819C8.71429 5.22768 8.67462 5.26762 8.63117 5.30269C8.08237 6.03332 7.81033 6.837 7.81033 7.36598V11.3474C7.81411 11.4244 7.87645 13.2919 9.19036 14.1267L16.1661 6.93345C16.065 6.44831 15.809 5.85407 15.3934 5.30269C15.3509 5.26762 15.3103 5.22768 15.2744 5.1819C15.0826 4.93738 14.8295 4.65973 14.5008 4.40645C13.9898 4.0236 13.3635 3.73524 12.6201 3.63393C12.4284 3.6086 12.2262 3.59399 12.0128 3.59399Z" fill="black"/>
</svg>
