<svg width="24" height="24" viewBox="0 0 24 24" fill="none" xmlns="http://www.w3.org/2000/svg">
<path fill-rule="evenodd" clip-rule="evenodd" d="M6.43002 16.4064C5.13002 16.3644 3.87102 16.2794 3.49201 16.1034C2.77401 15.7564 2.18 15.1984 1.79 14.5034C1.403 13.7854 1.358 13.0354 1.293 11.9654L1.285 11.8374C1.263 11.4854 1.251 11.1324 1.25 10.7794C1.25 10.4434 1.263 10.0834 1.285 9.72141L1.293 9.59341C1.358 8.52441 1.403 7.77441 1.79 7.0544C2.18 6.3604 2.77401 5.8014 3.49201 5.4544C4.23302 5.1114 8.33503 5.11139 9.53404 5.11239H9.69304C10.222 5.11239 10.402 5.11039 10.571 5.08139C10.752 5.05039 10.929 4.9974 11.097 4.9244C11.255 4.8554 11.407 4.7564 11.847 4.46539L12.11 4.29239C13.3231 3.49339 14.2961 2.85138 15.0981 2.46238C15.9121 2.06838 16.7141 1.84738 17.5191 2.12238C17.7871 2.21438 18.0451 2.34538 18.2771 2.50739C18.9731 2.99739 19.2671 3.76939 19.4271 4.65639C19.5841 5.52739 19.6371 6.6824 19.7041 8.12041L19.7071 8.17841C19.7581 9.27641 19.7931 10.2354 19.7931 10.7794C19.7931 11.3234 19.7581 12.2824 19.7071 13.3814L19.7041 13.4384C19.6371 14.8764 19.5841 16.0314 19.4271 16.9024C19.2671 17.7894 18.9731 18.5615 18.2771 19.0515C18.0441 19.2155 17.7891 19.3445 17.5191 19.4355C16.7131 19.7115 15.9121 19.4915 15.0981 19.0965C14.2961 18.7065 13.3241 18.0644 12.11 17.2654L11.847 17.0924C11.407 16.8014 11.254 16.7034 11.098 16.6344C10.929 16.5604 10.753 16.5074 10.571 16.4774C10.402 16.4474 10.222 16.4454 9.69404 16.4454H9.53404C9.20804 16.4454 8.66703 16.4454 8.03703 16.4384C8.10403 16.9814 8.24803 17.6744 8.55203 18.2905C8.89103 18.9775 9.45504 19.5705 10.439 19.5705C10.88 19.5705 11.239 19.9285 11.239 20.3705C11.239 20.8115 10.88 21.1705 10.439 21.1705C8.72603 21.1705 7.70703 20.1945 7.11703 18.9985C6.68403 18.1195 6.50402 17.1184 6.43002 16.4064ZM7.97803 14.9594C8.65504 14.9664 9.27403 14.9674 9.69304 14.9674H9.75203C10.2 14.9674 10.511 14.9674 10.817 15.0184C11.121 15.0704 11.413 15.1584 11.694 15.2814C11.978 15.4084 12.238 15.5784 12.613 15.8254L12.877 16.0004C14.1481 16.8374 15.0401 17.4244 15.7441 17.7664C16.4451 18.1074 16.7971 18.1205 17.0421 18.0375C17.1771 17.9905 17.3101 17.9235 17.4261 17.8415C17.6401 17.6915 17.8351 17.4004 17.9711 16.6404C18.1091 15.8774 18.1601 14.8204 18.2311 13.3134C18.2821 12.2094 18.3151 11.2834 18.3151 10.7794C18.3151 10.2754 18.2821 9.34941 18.2311 8.24741C18.1601 6.7384 18.1091 5.68139 17.9721 4.91839C17.8341 4.15839 17.6401 3.86739 17.4271 3.71839C17.3091 3.63439 17.1791 3.56838 17.0421 3.52038C16.7961 3.43838 16.4451 3.45139 15.7431 3.79239C15.0401 4.13439 14.1471 4.72139 12.877 5.55839L12.612 5.7334C12.237 5.9794 11.978 6.1514 11.694 6.2774C11.414 6.4004 11.119 6.4884 10.817 6.5404C10.512 6.5914 10.2 6.5914 9.75103 6.5914H9.69304C9.27403 6.5914 8.65504 6.5924 7.97803 6.5994V14.9594ZM6.37802 6.6264C5.27202 6.6544 4.30801 6.7054 4.11201 6.7964C3.68501 7.0094 3.33001 7.34341 3.09101 7.75741C2.87701 8.15641 2.83601 8.56541 2.76001 9.81041C2.74101 10.1524 2.72801 10.4804 2.72801 10.7794C2.72801 11.0784 2.74001 11.4064 2.76001 11.7484C2.83601 12.9934 2.87701 13.4034 3.09101 13.8014C3.29701 14.1854 3.71701 14.5804 4.11201 14.7624C4.30801 14.8534 5.27102 14.9044 6.37802 14.9324V6.6264Z" fill="black"/>
<path d="M22.1647 7.4655C22.0302 7.24673 21.7907 7.11296 21.5335 7.11296C21.1278 7.11296 20.7937 7.44702 20.7937 7.85277C20.7937 7.96363 20.8188 8.07301 20.8669 8.17279C20.8735 8.18683 20.8913 8.22526 20.909 8.26887C20.9437 8.3546 20.9947 8.50019 21.0479 8.70935C21.1566 9.12692 21.2719 9.80391 21.2719 10.7795C21.2719 11.7551 21.1551 12.432 21.0479 12.8496C20.9947 13.0588 20.9437 13.2044 20.909 13.2901L20.8669 13.3862C20.6769 13.7395 20.8085 14.1866 21.1595 14.381C21.5158 14.5805 21.9821 14.4209 22.1802 14.0639L22.2068 14.0114C22.2268 13.9693 22.2512 13.9124 22.2807 13.8392C22.3398 13.6944 22.4108 13.4882 22.481 13.2177C22.6185 12.6745 22.75 11.8733 22.75 10.7795C22.75 9.68566 22.6199 8.88451 22.481 8.34129C22.4278 8.12992 22.3613 7.92224 22.2807 7.71974C22.2578 7.66135 22.2334 7.6037 22.2068 7.54753L22.1647 7.4655Z" fill="black"/>
</svg>
