<svg width="24" height="24" viewBox="0 0 24 24" fill="none" xmlns="http://www.w3.org/2000/svg">
<path fill-rule="evenodd" clip-rule="evenodd" d="M10.4602 1.25H13.5398C15.1433 1.25 16.4004 1.25 17.4039 1.3445C18.4269 1.44275 19.2654 1.6445 20.0042 2.09675C20.7782 2.57076 21.4292 3.22176 21.9032 3.99577C22.3555 4.73377 22.5572 5.57303 22.6555 6.59603C22.75 7.59954 22.75 8.85654 22.75 10.4608V11.5281C22.75 12.6688 22.75 13.5636 22.7005 14.2866C22.6502 15.0216 22.5475 15.6336 22.312 16.1998C21.7292 17.6083 20.6087 18.7289 19.2002 19.3116C18.3954 19.6461 17.4789 19.7196 16.2233 19.7421C15.9128 19.7406 15.6031 19.7526 15.2941 19.7781C15.0961 19.7999 15.0188 19.8321 14.9738 19.8576C14.9273 19.8861 14.8621 19.9356 14.7503 20.0901C14.6288 20.2559 14.4923 20.4861 14.2741 20.8536L13.7318 21.7701C12.9593 23.0766 11.0422 23.0766 10.2682 21.7701L9.72595 20.8536C9.57744 20.5926 9.41919 20.3376 9.24969 20.0901C9.13793 19.9356 9.07268 19.8861 9.02618 19.8576C8.98118 19.8321 8.90393 19.7999 8.70592 19.7781C8.49367 19.7549 8.21616 19.7481 7.7759 19.7406C6.52112 19.7196 5.6046 19.6461 4.79983 19.3116C3.3913 18.7289 2.27077 17.6083 1.68801 16.1998C1.4525 15.6336 1.34975 15.0216 1.29875 14.2866C1.25 13.5636 1.25 12.6688 1.25 11.5266V10.4608C1.25 8.85654 1.25 7.60104 1.3445 6.59603C1.44275 5.57303 1.64451 4.73377 2.09677 3.99577C2.57078 3.22176 3.2218 2.57076 3.99581 2.09675C4.73383 1.6445 5.5731 1.44275 6.59612 1.3445C7.59965 1.25 8.85668 1.25 10.461 1.25M6.73863 2.83851C5.82511 2.92551 5.24384 3.09201 4.77958 3.37551C4.20732 3.72651 3.72656 4.20727 3.37555 4.77952C3.09204 5.24377 2.92554 5.82503 2.83854 6.74003C2.75078 7.66404 2.75003 8.84979 2.75003 10.5006V11.5011C2.75003 12.6756 2.75003 13.5201 2.79579 14.1861C2.84079 14.8446 2.92704 15.2751 3.07404 15.6268C3.5053 16.6678 4.33257 17.4958 5.3736 17.9271C5.88886 18.1408 6.54662 18.2211 7.8029 18.2428H7.83365C8.23191 18.2496 8.58067 18.2556 8.87093 18.2878C9.18218 18.3231 9.48669 18.3921 9.77995 18.5616C10.0702 18.7319 10.2802 18.9569 10.4617 19.2066C10.6312 19.4391 10.8037 19.7316 11.0002 20.0631L11.559 21.0066C11.6542 21.1589 11.8207 21.2511 12 21.2511C12.1793 21.2511 12.3458 21.1589 12.441 21.0066L12.9998 20.0631C13.1963 19.7316 13.3703 19.4391 13.5383 19.2066C13.7198 18.9569 13.9298 18.7311 14.2201 18.5616C14.5133 18.3921 14.8178 18.3216 15.1291 18.2878C15.4193 18.2556 15.7681 18.2496 16.1663 18.2428H16.1978C17.4534 18.2211 18.1111 18.1408 18.6264 17.9271C19.6674 17.4958 20.4947 16.6678 20.926 15.6268C21.073 15.2751 21.1592 14.8446 21.2042 14.1861C21.25 13.5201 21.25 12.6756 21.25 11.5011V10.5006C21.25 8.84979 21.25 7.66404 21.1615 6.73853C21.0745 5.82503 20.908 5.24377 20.6245 4.77952C20.2734 4.20802 19.7927 3.72726 19.2212 3.37701C18.7569 3.09276 18.1764 2.92701 17.2614 2.84001C16.3373 2.75151 15.1508 2.75076 13.5 2.75076H10.5C8.84918 2.75076 7.66265 2.75076 6.73788 2.84001" fill="black"/>
<path fill-rule="evenodd" clip-rule="evenodd" d="M12 6.96207C11.379 6.96207 10.875 7.46607 10.875 8.08707C10.875 8.49883 10.5367 8.83708 10.125 8.83708C9.7132 8.83708 9.37494 8.49883 9.37494 8.08707C9.37494 6.64707 10.56 5.46206 12 5.46206C13.44 5.46206 14.6251 6.64707 14.6251 8.08707C14.6251 9.01483 14.1338 9.87584 13.335 10.3476C13.1618 10.4451 13.005 10.5696 12.87 10.7166C12.768 10.8366 12.75 10.9161 12.75 10.9626V12.2121C12.75 12.6239 12.4118 12.9621 12 12.9621C11.5882 12.9621 11.25 12.6239 11.25 12.2121V10.9626C11.25 10.4563 11.472 10.0461 11.727 9.74533C11.979 9.44833 12.2933 9.22108 12.5723 9.05608C12.9158 8.85508 13.128 8.48533 13.128 8.08632C13.128 7.46982 12.621 6.96207 12.0045 6.96207C12.003 6.96207 12.0015 6.96207 12 6.96207ZM12 16.2126C12.5483 16.2126 12.9998 15.7611 12.9998 15.2121C12.9998 14.6639 12.5483 14.2124 12 14.2124C11.4517 14.2124 11.0002 14.6639 11.0002 15.2121C11.0002 15.7611 11.4517 16.2126 12 16.2126Z" fill="black"/>
</svg>
