<svg width="24" height="24" viewBox="0 0 24 24" fill="none" xmlns="http://www.w3.org/2000/svg">
<g clip-path="url(#clip0_221_13659)">
<path fill-rule="evenodd" clip-rule="evenodd" d="M12 7.75C6.513 7.75 3.902 10.201 3.018 11.267C2.843 11.479 2.75 11.774 2.75 12.141V14.064C2.75 14.828 3.532 15.441 4.369 15.196L6.369 14.61C6.907 14.452 7.25 13.983 7.25 13.478V12.862H8C7.25 12.862 7.25 12.861 7.25 12.86V12.824C7.25251 12.7671 7.25987 12.7106 7.272 12.655C7.29 12.562 7.322 12.448 7.38 12.322C7.497 12.065 7.706 11.782 8.057 11.524C8.743 11.021 9.931 10.646 12 10.646C14.069 10.646 15.257 11.021 15.943 11.524C16.294 11.781 16.503 12.064 16.62 12.322C16.6858 12.4661 16.7283 12.6196 16.746 12.777L16.749 12.825V12.845L16.75 12.853V12.86C16.75 12.86 16.75 12.862 16 12.862H16.75V13.25C16.75 13.816 17.181 14.328 17.81 14.42L19.81 14.713C20.595 14.829 21.25 14.241 21.25 13.543V11.418C21.25 10.978 21.113 10.632 20.87 10.415C19.866 9.517 17.234 7.75 12 7.75ZM15.25 12.934V13.25C15.25 14.597 16.264 15.71 17.592 15.905L19.592 16.198C21.226 16.438 22.75 15.213 22.75 13.543V11.418C22.75 10.685 22.52 9.876 21.87 9.297C20.594 8.157 17.609 6.25 12 6.25C5.99 6.25 2.979 8.964 1.863 10.31C1.406 10.862 1.25 11.53 1.25 12.141V14.064C1.25 15.897 3.06 17.143 4.79 16.635L6.79 16.049C7.94 15.713 8.75 14.678 8.75 13.479V12.934C8.79779 12.8531 8.8639 12.7846 8.943 12.734C9.257 12.504 10.069 12.146 12 12.146C13.93 12.146 14.743 12.504 15.057 12.734C15.187 12.829 15.235 12.904 15.25 12.934Z" fill="black"/>
</g>
<defs>
<clipPath id="clip0_221_13659">
<rect width="24" height="24" fill="white"/>
</clipPath>
</defs>
</svg>
