<svg width="24" height="24" viewBox="0 0 24 24" fill="none" xmlns="http://www.w3.org/2000/svg">
<path d="M11.4941 4.46047C11.9516 1.91984 14.1875 0 16.8673 0C18.4582 0 19.8918 0.675989 20.8899 1.75424C21.02 1.89413 21.0918 2.07787 21.0918 2.26842C21.0918 2.68354 20.75 3.02532 20.3349 3.02532C20.1247 3.02532 19.9236 2.9376 19.7799 2.78259C19.0306 1.97126 17.9735 1.51001 16.8688 1.51228C15.0707 1.50623 13.4858 2.73042 13.0374 4.47181L13.2764 4.24346C13.4155 4.11794 13.5962 4.04762 13.7837 4.04762C14.1988 4.04762 14.5399 4.38939 14.5399 4.80376C14.5399 5.00262 14.462 5.19317 14.3229 5.33457L12.6873 6.90356C12.5467 7.03815 12.3592 7.11376 12.1648 7.11376C11.9486 7.11376 11.7421 7.02076 11.5985 6.85895L10.2095 5.28996C10.0756 5.14931 10 4.96255 10 4.76822C10 4.3531 10.3418 4.01208 10.7561 4.01208C10.9822 4.01208 11.197 4.1134 11.3406 4.28807L11.4941 4.46047ZM21.5115 4.4824C21.7164 4.49072 21.9092 4.58221 22.0453 4.7357L23.4389 6.30318C23.5614 6.44156 23.6294 6.62076 23.6294 6.80526C23.6294 7.22038 23.2884 7.56216 22.8733 7.56216C22.657 7.56216 22.4514 7.46915 22.3077 7.30734L22.1512 7.13116C21.6937 9.67481 19.4465 11.5954 16.7576 11.5954C15.2385 11.5977 13.7852 10.9693 12.7448 9.86233C12.6026 9.72018 12.5217 9.52736 12.5217 9.32623C12.5217 8.91111 12.8635 8.57009 13.2779 8.57009C13.4956 8.57009 13.7036 8.66385 13.8472 8.82793C14.6019 9.63095 15.6567 10.0862 16.7584 10.0831C18.5595 10.0914 20.1497 8.86952 20.6049 7.12738L20.3727 7.35119C20.2321 7.48654 20.0438 7.56216 19.8487 7.56216C19.4336 7.56216 19.0918 7.22038 19.0918 6.80526C19.0918 6.59959 19.1758 6.40299 19.3247 6.26008L20.958 4.6926C21.1054 4.55045 21.305 4.47484 21.51 4.4824" fill="black"/>
<path fill-rule="evenodd" clip-rule="evenodd" d="M13.2315 12.9173C13.5772 12.7028 14.0302 12.8026 14.2537 13.1416C14.478 13.4806 14.3917 13.9366 14.0587 14.1698C14.0482 14.1751 14.0407 14.1811 14.034 14.1856C13.3545 14.5786 12.9697 14.7698 12.2287 14.7698C11.4877 14.7698 10.845 14.5006 10.1842 14.0768C9.54972 13.6688 8.83197 13.0696 7.94472 12.3316L5.74797 10.5016C5.57697 10.3591 5.47797 10.1476 5.47797 9.92484C5.47797 9.74934 5.53947 9.57909 5.65197 9.44484H5.64972C5.91372 9.12909 6.38997 9.08559 6.70572 9.34884L8.86797 11.1473C9.80097 11.9243 10.4482 12.4628 10.9957 12.8146C11.5252 13.1543 11.8837 13.2698 12.2287 13.2698C12.5737 13.2698 12.6937 13.2646 13.2225 12.9233C13.2225 12.9233 13.2255 12.9211 13.2315 12.9173Z" fill="black"/>
<path fill-rule="evenodd" clip-rule="evenodd" d="M7.49148 5.31014C7.88523 5.30339 8.21223 5.61314 8.22648 6.00764C8.22798 6.02414 8.22873 6.04139 8.22873 6.05864C8.23623 6.25364 8.16423 6.44264 8.03073 6.58364C7.89648 6.72464 7.71123 6.80564 7.51698 6.80864C6.79248 6.81764 6.03048 6.84164 5.62098 6.89639H5.62173C4.61598 7.03139 4.03623 7.28564 3.61173 7.70864C3.19023 8.13164 2.93598 8.71139 2.80098 9.71714C2.66298 10.7454 2.66073 12.0991 2.66073 14.0064C2.66073 15.9136 2.66298 17.2681 2.80098 18.2964C2.93598 19.3014 3.19023 19.8811 3.61323 20.3041C4.03623 20.7271 4.61598 20.9814 5.62173 21.1164C6.64998 21.2544 8.00373 21.2566 9.91098 21.2566H13.9107C15.818 21.2566 17.1732 21.2544 18.2007 21.1164C19.2057 20.9814 19.7862 20.7271 20.2092 20.3041C20.6322 19.8811 20.8857 19.3014 21.0207 18.2956C21.1587 17.2674 21.161 15.9136 21.161 14.0064C21.161 13.2886 21.161 12.6489 21.1505 12.0759C21.146 11.8756 21.2225 11.6814 21.3627 11.5374C21.503 11.3941 21.695 11.3131 21.896 11.3131C21.899 11.3131 21.9027 11.3131 21.9065 11.3131C22.3122 11.3131 22.643 11.6371 22.652 12.0429C22.6617 12.6271 22.6617 13.2616 22.6617 13.9501V14.0626C22.6617 15.9001 22.6617 17.3566 22.5087 18.4951C22.3512 19.6674 22.019 20.6161 21.2712 21.3654C20.522 22.1131 19.5732 22.4454 18.401 22.6036C17.261 22.7566 15.806 22.7566 13.9677 22.7566H9.85623C8.01798 22.7566 6.56223 22.7566 5.42298 22.6036C4.25073 22.4454 3.30198 22.1131 2.55273 21.3654C1.80498 20.6161 1.47273 19.6674 1.31523 18.4951C1.16223 17.3551 1.16223 15.9001 1.16223 14.0626V13.9501C1.16223 12.1126 1.16223 10.6561 1.31523 9.51764C1.47273 8.34539 1.80498 7.39664 2.55273 6.64739C3.30198 5.89964 4.25073 5.56739 5.42298 5.40914C5.89248 5.34614 6.74673 5.31914 7.49148 5.31014Z" fill="black"/>
</svg>
