<svg width="24" height="24" viewBox="0 0 24 24" fill="none" xmlns="http://www.w3.org/2000/svg">
<g clip-path="url(#clip0_221_13558)">
<path fill-rule="evenodd" clip-rule="evenodd" d="M8.989 5.308C9.81143 3.56964 11.2907 2.22919 13.1015 1.58153C14.9123 0.933874 16.9061 1.03206 18.6445 1.8545C20.3829 2.67694 21.7233 4.15625 22.371 5.96701C23.0186 7.77777 22.9204 9.77164 22.098 11.51C21.988 11.749 21.967 11.975 22.016 12.157L22.143 12.633C22.551 14.157 21.157 15.551 19.633 15.143L19.157 15.016C19.0027 14.9798 18.8416 14.985 18.69 15.031C18.5264 16.4126 18.0357 17.7352 17.2587 18.8892C16.4817 20.0432 15.4407 20.9952 14.2221 21.6664C13.0035 22.3376 11.6425 22.7085 10.2518 22.7485C8.8612 22.7884 7.48109 22.4962 6.22599 21.896C6.03142 21.7943 5.8069 21.7656 5.59299 21.815L4.36699 22.143C2.84299 22.551 1.44899 21.157 1.85699 19.633L2.18499 18.407C2.23438 18.1931 2.20565 17.9686 2.10399 17.774C1.50317 16.5174 1.21102 15.1355 1.25184 13.7432C1.29265 12.351 1.66525 10.9886 2.33865 9.7693C3.01205 8.55004 3.96679 7.50915 5.12349 6.7332C6.28019 5.95724 7.60543 5.46863 8.989 5.308ZM10.735 5.28C12.8353 5.45702 14.8011 6.38621 16.271 7.89676C17.741 9.4073 18.6163 11.3977 18.736 13.502C19.0071 13.4757 19.2806 13.4977 19.544 13.567L20.02 13.694C20.1133 13.7191 20.2116 13.7192 20.305 13.6942C20.3983 13.6693 20.4835 13.6201 20.5518 13.5518C20.6201 13.4835 20.6692 13.3983 20.6942 13.305C20.7192 13.2116 20.7191 13.1133 20.694 13.02L20.567 12.544C20.41 11.957 20.512 11.371 20.733 10.886C21.3354 9.57301 21.4216 8.08137 20.9743 6.70776C20.527 5.33415 19.5791 4.17922 18.319 3.4727C17.059 2.76619 15.5792 2.55984 14.1739 2.89472C12.7687 3.22959 11.541 4.08114 10.735 5.28ZM9.99999 6.75C8.77502 6.74974 7.56994 7.05987 6.49727 7.65144C5.4246 8.243 4.51931 9.09672 3.86592 10.1329C3.21252 11.1691 2.83232 12.3539 2.76081 13.5768C2.6893 14.7997 2.92882 16.0207 3.45699 17.126C3.71296 17.6431 3.77573 18.2347 3.63399 18.794L3.30599 20.02C3.28097 20.1132 3.28092 20.2114 3.30584 20.3046C3.33077 20.3979 3.37979 20.4829 3.44799 20.5512C3.51619 20.6195 3.60116 20.6687 3.69437 20.6937C3.78758 20.7188 3.88574 20.7189 3.97899 20.694L5.20599 20.366C5.76532 20.2243 6.35688 20.287 6.87399 20.543C7.85586 21.0116 8.93061 21.2532 10.0186 21.25C11.1065 21.2467 12.1798 20.9986 13.1588 20.5241C14.1379 20.0496 14.9975 19.3608 15.6742 18.5088C16.3508 17.6569 16.827 16.6635 17.0674 15.6025C17.3079 14.5414 17.3065 13.4399 17.0633 12.3794C16.8201 11.319 16.3414 10.3269 15.6626 9.47664C14.9838 8.6264 14.1223 7.93983 13.1421 7.46783C12.1619 6.99582 11.088 6.75049 9.99999 6.75Z" fill="black"/>
<path d="M7.5 14C7.5 14.2652 7.39464 14.5196 7.20711 14.7071C7.01957 14.8946 6.76522 15 6.5 15C6.23478 15 5.98043 14.8946 5.79289 14.7071C5.60536 14.5196 5.5 14.2652 5.5 14C5.5 13.7348 5.60536 13.4804 5.79289 13.2929C5.98043 13.1054 6.23478 13 6.5 13C6.76522 13 7.01957 13.1054 7.20711 13.2929C7.39464 13.4804 7.5 13.7348 7.5 14ZM11 14C11 14.2652 10.8946 14.5196 10.7071 14.7071C10.5196 14.8946 10.2652 15 10 15C9.73478 15 9.48043 14.8946 9.29289 14.7071C9.10536 14.5196 9 14.2652 9 14C9 13.7348 9.10536 13.4804 9.29289 13.2929C9.48043 13.1054 9.73478 13 10 13C10.2652 13 10.5196 13.1054 10.7071 13.2929C10.8946 13.4804 11 13.7348 11 14ZM14.5 14C14.5 14.2652 14.3946 14.5196 14.2071 14.7071C14.0196 14.8946 13.7652 15 13.5 15C13.2348 15 12.9804 14.8946 12.7929 14.7071C12.6054 14.5196 12.5 14.2652 12.5 14C12.5 13.7348 12.6054 13.4804 12.7929 13.2929C12.9804 13.1054 13.2348 13 13.5 13C13.7652 13 14.0196 13.1054 14.2071 13.2929C14.3946 13.4804 14.5 13.7348 14.5 14Z" fill="black"/>
</g>
<defs>
<clipPath id="clip0_221_13558">
<rect width="24" height="24" fill="white"/>
</clipPath>
</defs>
</svg>
