<svg width="24" height="24" viewBox="0 0 24 24" fill="none" xmlns="http://www.w3.org/2000/svg">
<g clip-path="url(#clip0_221_13536)">
<path d="M9 12C9 12.2652 8.89464 12.5196 8.70711 12.7071C8.51957 12.8946 8.26522 13 8 13C7.73478 13 7.48043 12.8946 7.29289 12.7071C7.10536 12.5196 7 12.2652 7 12C7 11.7348 7.10536 11.4804 7.29289 11.2929C7.48043 11.1054 7.73478 11 8 11C8.26522 11 8.51957 11.1054 8.70711 11.2929C8.89464 11.4804 9 11.7348 9 12ZM13 12C13 12.2652 12.8946 12.5196 12.7071 12.7071C12.5196 12.8946 12.2652 13 12 13C11.7348 13 11.4804 12.8946 11.2929 12.7071C11.1054 12.5196 11 12.2652 11 12C11 11.7348 11.1054 11.4804 11.2929 11.2929C11.4804 11.1054 11.7348 11 12 11C12.2652 11 12.5196 11.1054 12.7071 11.2929C12.8946 11.4804 13 11.7348 13 12ZM17 12C17 12.2652 16.8946 12.5196 16.7071 12.7071C16.5196 12.8946 16.2652 13 16 13C15.7348 13 15.4804 12.8946 15.2929 12.7071C15.1054 12.5196 15 12.2652 15 12C15 11.7348 15.1054 11.4804 15.2929 11.2929C15.4804 11.1054 15.7348 11 16 11C16.2652 11 16.5196 11.1054 16.7071 11.2929C16.8946 11.4804 17 11.7348 17 12Z" fill="black"/>
<path fill-rule="evenodd" clip-rule="evenodd" d="M22.75 12C22.75 6.063 17.937 1.25 12 1.25C6.063 1.25 1.25 6.063 1.25 12C1.25 13.718 1.654 15.345 2.372 16.787C2.479 17.002 2.502 17.222 2.452 17.407L1.857 19.633C1.449 21.157 2.843 22.551 4.367 22.143L6.593 21.547C6.80259 21.4987 7.02253 21.5271 7.213 21.627C8.69986 22.3679 10.3388 22.7523 12 22.75C17.937 22.75 22.75 17.937 22.75 12ZM12 2.75C14.4533 2.75 16.806 3.72455 18.5407 5.45926C20.2754 7.19397 21.25 9.54675 21.25 12C21.25 14.4533 20.2754 16.806 18.5407 18.5407C16.806 20.2754 14.4533 21.25 12 21.25C10.571 21.2525 9.16109 20.9221 7.882 20.285C7.36488 20.0202 6.76876 19.9537 6.206 20.098L3.979 20.694C3.88574 20.7189 3.78758 20.7188 3.69437 20.6937C3.60117 20.6687 3.51619 20.6195 3.448 20.5512C3.3798 20.4829 3.33077 20.3979 3.30585 20.3046C3.28092 20.2114 3.28098 20.1132 3.306 20.02L3.902 17.794C4.04632 17.2312 3.97981 16.6351 3.715 16.118C3.07789 14.8389 2.74749 13.429 2.75 12C2.75 9.54675 3.72455 7.19397 5.45926 5.45926C7.19397 3.72455 9.54675 2.75 12 2.75Z" fill="black"/>
</g>
<defs>
<clipPath id="clip0_221_13536">
<rect width="24" height="24" fill="white"/>
</clipPath>
</defs>
</svg>
