<svg width="24" height="24" viewBox="0 0 24 24" fill="none" xmlns="http://www.w3.org/2000/svg">
<path fill-rule="evenodd" clip-rule="evenodd" d="M12 2.75003C6.92539 2.75003 2.75004 6.92538 2.75004 12C2.75004 13.4813 3.09805 14.8793 3.71457 16.1183C3.96282 16.6164 4.05807 17.2104 3.90207 17.7954L3.30581 20.0199C3.29306 20.0664 3.28706 20.1144 3.28706 20.1624C3.28706 20.4647 3.53531 20.7129 3.83682 20.7129C3.88482 20.7129 3.93282 20.7062 3.97857 20.6942L6.20612 20.0979C6.76864 19.9539 7.3649 20.0207 7.88166 20.2854C9.16119 20.9222 10.5712 21.253 12 21.25C17.0746 21.25 21.25 17.0746 21.25 12C21.25 6.92538 17.0746 2.75003 12 2.75003ZM1.25001 12C1.25001 6.06286 6.06287 1.25 12 1.25C17.9371 1.25 22.75 6.06286 22.75 12C22.75 17.9371 17.9371 22.75 12 22.75C10.2817 22.75 8.65568 22.3465 7.21265 21.628C7.02214 21.5282 6.80239 21.4997 6.59313 21.5485L4.36708 22.1432C2.84305 22.5512 1.44876 21.157 1.85677 19.6329L2.45304 17.4069C2.50104 17.1976 2.47254 16.9779 2.37279 16.7874C1.63177 15.3001 1.24776 13.6613 1.25001 12Z" fill="black"/>
<path fill-rule="evenodd" clip-rule="evenodd" d="M12 8.12466C11.379 8.12466 10.875 8.62867 10.875 9.24969C10.875 9.66145 10.5367 9.99971 10.125 9.99971C9.7132 9.99971 9.37494 9.66145 9.37494 9.24969C9.37494 7.80966 10.56 6.62463 12 6.62463C13.44 6.62463 14.6251 7.80966 14.6251 9.24969C14.6251 10.1775 14.1338 11.0385 13.335 11.5102C13.1618 11.6077 13.005 11.7322 12.87 11.8792C12.768 11.9993 12.75 12.0788 12.75 12.1253V13.3748C12.75 13.7865 12.4118 14.1248 12 14.1248C11.5882 14.1248 11.25 13.7865 11.25 13.3748V12.1253C11.25 11.619 11.472 11.2087 11.727 10.908C11.979 10.611 12.2933 10.3837 12.5723 10.2187C12.9158 10.0177 13.128 9.64795 13.128 9.24894C13.128 8.63242 12.621 8.12466 12.0045 8.12466C12.003 8.12466 12.0015 8.12466 12 8.12466ZM12 17.3754C12.5483 17.3754 12.9998 16.9239 12.9998 16.3749C12.9998 15.8266 12.5483 15.3751 12 15.3751C11.4517 15.3751 11.0002 15.8266 11.0002 16.3749C11.0002 16.9239 11.4517 17.3754 12 17.3754Z" fill="black"/>
</svg>
