<svg width="24" height="24" viewBox="0 0 24 24" fill="none" xmlns="http://www.w3.org/2000/svg">
<g clip-path="url(#clip0_221_13639)">
<path fill-rule="evenodd" clip-rule="evenodd" d="M18.144 3.63C16.974 3.839 15.396 4.363 13.183 5.1L8.17 6.77C6.39 7.364 5.101 7.795 4.19 8.182C3.238 8.587 2.9 8.869 2.79 9.058C2.62388 9.34451 2.53639 9.66982 2.53639 10.001C2.53639 10.3322 2.62388 10.6575 2.79 10.944C2.9 11.133 3.238 11.415 4.19 11.82C5.101 12.207 6.39 12.638 8.17 13.231L8.254 13.259C8.634 13.385 8.947 13.489 9.221 13.633L14.544 8.368C14.6889 8.22478 14.8848 8.14501 15.0886 8.14623C15.2924 8.14745 15.4873 8.22956 15.6305 8.3745C15.7737 8.51944 15.8535 8.71534 15.8523 8.9191C15.8511 9.12285 15.7689 9.31778 15.624 9.461L10.324 14.702C10.49 14.994 10.602 15.33 10.74 15.745L10.768 15.829C11.361 17.609 11.792 18.898 12.178 19.809C12.584 20.761 12.866 21.099 13.055 21.209C13.3415 21.3751 13.6668 21.4626 13.998 21.4626C14.3292 21.4626 14.6545 21.3751 14.941 21.209C15.13 21.099 15.412 20.761 15.817 19.809C16.204 18.898 16.635 17.609 17.228 15.829L18.898 10.817C19.636 8.604 20.16 7.027 20.368 5.857C20.578 4.681 20.418 4.181 20.118 3.881C19.818 3.581 19.318 3.421 18.143 3.631M17.873 2.119C19.176 1.887 20.349 1.94 21.204 2.796C22.06 3.651 22.113 4.824 21.881 6.126C21.651 7.421 21.089 9.106 20.378 11.238L18.673 16.353C18.095 18.088 17.646 19.436 17.231 20.411C16.831 21.351 16.387 22.147 15.713 22.539C15.1922 22.842 14.6005 23.0016 13.998 23.0016C13.3955 23.0016 12.8038 22.842 12.283 22.539C11.609 22.147 11.165 21.351 10.765 20.411C10.35 19.436 9.901 18.088 9.322 16.353L9.31 16.315C9.107 15.708 9.046 15.543 8.958 15.412C8.85902 15.2665 8.73349 15.141 8.588 15.042C8.458 14.954 8.292 14.892 7.684 14.69L7.647 14.678C5.912 14.099 4.564 13.65 3.589 13.235C2.649 12.835 1.853 12.391 1.461 11.717C1.15798 11.1962 0.998352 10.6045 0.998352 10.002C0.998352 9.3995 1.15798 8.80776 1.461 8.287C1.853 7.613 2.649 7.169 3.589 6.769C4.564 6.354 5.912 5.905 7.648 5.327L12.762 3.622C14.895 2.911 16.579 2.349 17.874 2.119" fill="black"/>
</g>
<defs>
<clipPath id="clip0_221_13639">
<rect width="24" height="24" fill="white"/>
</clipPath>
</defs>
</svg>
