<svg width="24" height="24" viewBox="0 0 24 24" fill="none" xmlns="http://www.w3.org/2000/svg">
<path d="M21.9925 3.19324C22.3045 3.19324 22.5608 3.44952 22.5608 3.76148V6.79194C22.5608 7.10391 22.3045 7.36019 21.9925 7.36019C21.6806 7.36019 21.4243 7.10391 21.4243 6.79194V3.76148C21.4243 3.44952 21.6806 3.19324 21.9925 3.19324ZM21.9925 9.8224C22.4079 9.8224 22.75 9.48031 22.75 9.06493C22.75 8.64954 22.4079 8.30745 21.9925 8.30745C21.5771 8.30745 21.235 8.64954 21.235 9.06493C21.235 9.48031 21.5771 9.8224 21.9925 9.8224Z" fill="black"/>
<path fill-rule="evenodd" clip-rule="evenodd" d="M21.9886 11.4357C22.4028 11.4357 22.7389 11.7708 22.7389 12.185C22.7389 13.8198 22.7389 17.5595 22.7389 17.5595C22.7389 17.5595 22.7699 20.0876 21.0071 21.6073C20.2508 22.2596 19.1683 22.7449 17.6026 22.7449H6.58146C6.29233 22.7499 3.88822 22.7319 2.40753 20.921C1.74523 20.1097 1.25 18.9371 1.25 17.2233V9.82291C1.25 9.64082 1.31603 9.46574 1.43508 9.32968C1.43508 9.32968 4.84166 5.42788 8.00712 3.0868C9.4968 1.98529 10.9615 1.24995 12.04 1.24995C12.6523 1.24995 13.3856 1.48606 14.159 1.92326C14.3851 2.05032 14.5251 2.28943 14.5251 2.54855C14.5281 2.55755 14.5281 2.56656 14.5281 2.57556C14.5271 2.82367 14.3991 3.05578 14.187 3.18684C13.9759 3.3179 13.7118 3.33091 13.4887 3.22186C12.9634 2.92172 12.4692 2.75064 12.04 2.75064C11.1886 2.75064 10.0761 3.42295 8.89953 4.29335C6.27732 6.23325 3.48503 9.28566 2.75069 10.107V17.2233C2.75069 18.4919 3.07984 19.3713 3.57007 19.9716C4.68359 21.3342 6.54444 21.2452 6.54444 21.2452C6.55545 21.2442 6.56645 21.2442 6.57746 21.2442H17.6026C18.7131 21.2442 19.4904 20.934 20.0267 20.4708C21.2802 19.3903 21.2382 17.5855 21.2382 17.5855C21.2382 17.5855 21.2382 13.8248 21.2382 12.185C21.2382 11.9859 21.3173 11.7958 21.4573 11.6547C21.5984 11.5147 21.7885 11.4357 21.9876 11.4357H21.9886Z" fill="black"/>
<path fill-rule="evenodd" clip-rule="evenodd" d="M5.41255 9.47423C5.67667 9.15833 6.15314 9.11481 6.46904 9.37818L8.63229 11.1775C9.56572 11.9549 10.2133 12.4936 10.761 12.8455C11.2908 13.1854 11.6494 13.301 11.9946 13.301C12.3397 13.301 12.6992 13.1869 13.2282 12.8455C13.7759 12.4936 14.4242 11.9549 15.3576 11.1775L17.5171 9.37668C17.6522 9.26488 17.8225 9.20335 17.9974 9.20335C18.4093 9.20335 18.7485 9.54176 18.7485 9.9537C18.7485 10.1766 18.6487 10.3882 18.4776 10.5307L16.2806 12.3616C15.3937 13.1014 14.6748 13.7002 14.04 14.1084C13.3797 14.5331 12.7359 14.8017 11.9946 14.8017C11.2532 14.8017 10.6102 14.5323 9.94915 14.1084C9.31435 13.7002 8.59627 13.1007 7.70861 12.3623L5.51085 10.5315C5.33977 10.3889 5.24072 10.1773 5.24072 9.95445C5.24072 9.77887 5.30225 9.60854 5.4148 9.47423" fill="black"/>
</svg>
