<svg width="24" height="24" viewBox="0 0 24 24" fill="none" xmlns="http://www.w3.org/2000/svg">
<g clip-path="url(#clip0_221_13720)">
<path fill-rule="evenodd" clip-rule="evenodd" d="M12.63 2.924L1.63501 9.03C1.54644 9.07644 1.46805 9.14012 1.40445 9.2173C1.34086 9.29448 1.29334 9.3836 1.2647 9.47942C1.23605 9.57523 1.22686 9.67581 1.23766 9.77523C1.24846 9.87465 1.27904 9.97091 1.32759 10.0583C1.37614 10.1458 1.44168 10.2226 1.52037 10.2843C1.59905 10.3461 1.68929 10.3914 1.78576 10.4178C1.88224 10.4441 1.983 10.4509 2.08214 10.4377C2.18127 10.4245 2.27677 10.3916 2.36301 10.341L11.049 5.516C10.7782 6.42628 10.7282 7.38795 10.9029 8.32143C11.0777 9.2549 11.4723 10.1333 12.054 10.884L4.47001 18.47C4.39632 18.5387 4.33722 18.6215 4.29623 18.7135C4.25523 18.8055 4.23319 18.9048 4.23142 19.0055C4.22964 19.1062 4.24816 19.2062 4.28588 19.2996C4.32361 19.393 4.37975 19.4778 4.45097 19.549C4.52219 19.6203 4.60702 19.6764 4.70041 19.7141C4.7938 19.7518 4.89383 19.7704 4.99453 19.7686C5.09523 19.7668 5.19455 19.7448 5.28654 19.7038C5.37854 19.6628 5.46134 19.6037 5.53001 19.53L13.115 11.946C13.8658 12.5276 14.7442 12.922 15.6777 13.0966C16.6112 13.2711 17.5728 13.2209 18.483 12.95L13.658 21.636C13.6074 21.7222 13.5745 21.8177 13.5613 21.9169C13.5481 22.016 13.5549 22.1168 13.5812 22.2132C13.6076 22.3097 13.6529 22.4 13.7147 22.4786C13.7764 22.5573 13.8532 22.6229 13.9407 22.6714C14.0281 22.72 14.1244 22.7505 14.2238 22.7613C14.3232 22.7721 14.4238 22.763 14.5196 22.7343C14.6154 22.7057 14.7045 22.6581 14.7817 22.5946C14.8589 22.531 14.9226 22.4526 14.969 22.364L21.076 11.371C22.1614 10.2438 22.7611 8.73566 22.7463 7.1709C22.7315 5.60614 22.1034 4.10966 20.9969 3.00315C19.8904 1.89665 18.3939 1.26848 16.8291 1.25368C15.2643 1.23888 13.7562 1.83863 12.629 2.924M20.272 10.015C20.9564 9.15482 21.3002 8.07285 21.2379 6.97541C21.1757 5.87797 20.7117 4.84183 19.9344 4.06457C19.1572 3.28732 18.121 2.82332 17.0236 2.76106C15.9262 2.6988 14.8442 3.04264 13.984 3.727C14.069 3.899 14.184 4.117 14.34 4.376C14.771 5.094 15.503 6.123 16.69 7.31C17.876 8.496 18.905 9.228 19.624 9.66C19.8827 9.81333 20.0987 9.93167 20.272 10.015ZM19.064 11.07C18.9953 11.0307 18.9247 10.9893 18.852 10.946C18.149 10.524 17.222 9.871 16.169 8.891L14.186 10.874C14.893 11.3749 15.7302 11.66 16.596 11.6948C17.4618 11.7296 18.3191 11.5126 19.064 11.07ZM13.125 9.813C12.6241 9.10596 12.339 8.26884 12.3042 7.40304C12.2694 6.53725 12.4864 5.67995 12.929 4.935C12.9683 5.00433 13.01 5.075 13.054 5.147C13.475 5.85 14.128 6.777 15.108 7.83L13.125 9.813Z" fill="black"/>
</g>
<defs>
<clipPath id="clip0_221_13720">
<rect width="24" height="24" fill="white"/>
</clipPath>
</defs>
</svg>
