<svg width="24" height="24" viewBox="0 0 24 24" fill="none" xmlns="http://www.w3.org/2000/svg">
<g clip-path="url(#clip0_221_13697)">
<path fill-rule="evenodd" clip-rule="evenodd" d="M12 0C12.222 0 12.435 0.0882058 12.592 0.245213C12.749 0.40222 12.8372 0.615168 12.8372 0.837209V7.74698L14.7572 5.82698C14.8339 5.74472 14.9263 5.67875 15.029 5.63299C15.1317 5.58723 15.2425 5.56263 15.355 5.56064C15.4674 5.55866 15.579 5.57934 15.6833 5.62144C15.7875 5.66355 15.8822 5.72622 15.9617 5.80572C16.0412 5.88522 16.1039 5.97992 16.146 6.08417C16.1881 6.18842 16.2088 6.30008 16.2068 6.41249C16.2048 6.5249 16.1802 6.63576 16.1345 6.73846C16.0887 6.84116 16.0227 6.93359 15.9405 7.01023L12.5916 10.3591C12.4347 10.5159 12.2219 10.6039 12 10.6039C11.7781 10.6039 11.5654 10.5159 11.4084 10.3591L8.05954 7.01023C7.91165 6.85153 7.83114 6.64161 7.83497 6.42472C7.83879 6.20783 7.92666 6.00088 8.08005 5.84749C8.23344 5.6941 8.44038 5.60624 8.65728 5.60241C8.87417 5.59858 9.08408 5.67909 9.24279 5.82698L11.1628 7.74698V0.837209C11.1628 0.615168 11.251 0.40222 11.408 0.245213C11.565 0.0882058 11.778 0 12 0ZM16.7487 0.897488C16.7594 0.788051 16.7916 0.681806 16.8435 0.584821C16.8953 0.487835 16.9657 0.40201 17.0507 0.332246C17.1357 0.262483 17.2336 0.210148 17.3389 0.178232C17.4441 0.146315 17.5546 0.135442 17.664 0.146233C19.5505 0.331535 21.0061 0.765767 22.1202 1.87981C23.1193 2.87888 23.5714 4.15144 23.7879 5.76447C24 7.33954 24 9.35888 24 11.9364V13.1487C23.9955 15.2171 23.9699 16.8882 23.7879 18.2355C23.5714 19.8486 23.1181 21.1211 22.1202 22.1202C21.1211 23.1193 19.8486 23.5714 18.2355 23.7879C16.6605 24 14.6411 24 12.0636 24H11.9364C9.35888 24 7.33954 24 5.76335 23.7879C4.15144 23.5714 2.87888 23.1181 1.87981 22.1202C0.880744 21.1211 0.428651 19.8486 0.212093 18.2355C0.0301396 16.8882 0.00446512 15.2171 0 13.1498V11.9364C0 9.35888 6.65354e-08 7.33954 0.212093 5.76335C0.428651 4.15144 0.881861 2.87888 1.87981 1.87981C2.99386 0.765767 4.44949 0.331535 6.33712 0.146233C6.44849 0.131482 6.5617 0.139299 6.66999 0.169218C6.77828 0.199136 6.87944 0.250545 6.96745 0.320382C7.05546 0.390218 7.12851 0.477053 7.18225 0.575714C7.23599 0.674375 7.26933 0.782844 7.28027 0.894659C7.29121 1.00647 7.27953 1.11935 7.24594 1.22655C7.21234 1.33376 7.15751 1.43311 7.08471 1.51868C7.01191 1.60425 6.92263 1.6743 6.8222 1.72464C6.72176 1.77499 6.61222 1.8046 6.50009 1.81172C4.75981 1.98363 3.77302 2.35535 3.06419 3.06419C2.42791 3.70047 2.06288 4.56 1.87088 5.98772C1.67665 7.43888 1.67442 9.34549 1.67442 12V12.2791H4.51535C5.37712 12.2791 6.06028 12.2768 6.67423 12.5604C7.28819 12.8428 7.73247 13.3619 8.29284 14.0171L8.39107 14.131L9.06642 14.9191C9.77414 15.7451 9.97284 15.9483 10.2117 16.0577C10.4495 16.1682 10.7341 16.186 11.8214 16.186H12.1786C13.2659 16.186 13.5505 16.1682 13.7883 16.0588C14.0272 15.9483 14.2259 15.744 14.9336 14.9202L15.6089 14.131L15.7072 14.0171C16.2675 13.3619 16.7118 12.8428 17.3258 12.5604C17.9397 12.2768 18.6229 12.278 19.4858 12.2791H22.3256V12C22.3256 9.34549 22.3233 7.43888 22.1291 5.98772C21.9371 4.56 21.571 3.69935 20.9358 3.06307C20.2281 2.35535 19.2402 1.98363 17.4999 1.81284C17.3905 1.80208 17.2842 1.76987 17.1872 1.71804C17.0903 1.66621 17.0044 1.59579 16.9347 1.51079C16.8649 1.42578 16.8126 1.32787 16.7807 1.22264C16.7487 1.11741 16.7379 1.00692 16.7487 0.897488ZM22.3222 13.9535H19.6353C18.5481 13.9535 18.2634 13.9713 18.0257 14.0807C17.7868 14.1913 17.5881 14.3955 16.8804 15.2193L16.205 16.0086L16.1068 16.1224C15.5464 16.7777 15.1021 17.2967 14.4882 17.5792C13.8742 17.8616 13.1911 17.8616 12.3293 17.8605H11.6718C10.8089 17.8605 10.1258 17.8627 9.51181 17.5792C8.89786 17.2967 8.45358 16.7777 7.89321 16.1224L7.79498 16.0086L7.11963 15.2205C6.41191 14.3944 6.21321 14.1913 5.97433 14.0819C5.73656 13.9713 5.45191 13.9535 4.36465 13.9535H1.67777C1.68893 15.6313 1.728 16.9451 1.87088 18.0134C2.06288 19.44 2.42902 20.3007 3.06419 20.9358C3.70047 21.5721 4.56 21.9371 5.98772 22.1291C7.43888 22.3233 9.34549 22.3256 12 22.3256C14.6545 22.3256 16.5611 22.3233 18.0123 22.1291C19.44 21.9371 20.3007 21.571 20.9369 20.9358C21.5721 20.2995 21.9371 19.44 22.1291 18.0134C22.272 16.9451 22.3122 15.6313 22.3222 13.9535Z" fill="black"/>
</g>
<defs>
<clipPath id="clip0_221_13697">
<rect width="24" height="24" fill="white"/>
</clipPath>
</defs>
</svg>
