<svg width="24" height="24" viewBox="0 0 24 24" fill="none" xmlns="http://www.w3.org/2000/svg">
<g clip-path="url(#clip0_221_13588)">
<path fill-rule="evenodd" clip-rule="evenodd" d="M9.46399 15.25C10.2114 14.4533 10.6614 13.4233 10.7382 12.3336C10.8149 11.2438 10.5136 10.1609 9.88514 9.26736C9.25666 8.3738 8.33939 7.72418 7.28787 7.42796C6.23635 7.13173 5.11487 7.20702 4.11238 7.64112C3.10989 8.07523 2.28767 8.84161 1.78426 9.81116C1.28085 10.7807 1.12703 11.8941 1.3487 12.9639C1.57038 14.0336 2.154 14.9942 3.00124 15.6838C3.84848 16.3735 4.90754 16.75 5.99999 16.75H18C19.0924 16.75 20.1515 16.3735 20.9987 15.6838C21.846 14.9942 22.4296 14.0336 22.6513 12.9639C22.8729 11.8941 22.7191 10.7807 22.2157 9.81116C21.7123 8.84161 20.8901 8.07523 19.8876 7.64112C18.8851 7.20702 17.7636 7.13173 16.7121 7.42796C15.6606 7.72418 14.7433 8.3738 14.1148 9.26736C13.4864 10.1609 13.1851 11.2438 13.2618 12.3336C13.3385 13.4233 13.7885 14.4533 14.536 15.25H9.46399ZM5.99999 8.75C5.13803 8.75 4.31138 9.09241 3.70189 9.7019C3.0924 10.3114 2.74999 11.138 2.74999 12C2.74999 12.862 3.0924 13.6886 3.70189 14.2981C4.31138 14.9076 5.13803 15.25 5.99999 15.25C6.86194 15.25 7.68859 14.9076 8.29808 14.2981C8.90758 13.6886 9.24999 12.862 9.24999 12C9.24999 11.138 8.90758 10.3114 8.29808 9.7019C7.68859 9.09241 6.86194 8.75 5.99999 8.75ZM18 15.25C18.8619 15.25 19.6886 14.9076 20.2981 14.2981C20.9076 13.6886 21.25 12.862 21.25 12C21.25 11.138 20.9076 10.3114 20.2981 9.7019C19.6886 9.09241 18.8619 8.75 18 8.75C17.138 8.75 16.3114 9.09241 15.7019 9.7019C15.0924 10.3114 14.75 11.138 14.75 12C14.75 12.862 15.0924 13.6886 15.7019 14.2981C16.3114 14.9076 17.138 15.25 18 15.25Z" fill="black"/>
</g>
<defs>
<clipPath id="clip0_221_13588">
<rect width="24" height="24" fill="white"/>
</clipPath>
</defs>
</svg>
