<svg width="24" height="24" viewBox="0 0 24 24" fill="none" xmlns="http://www.w3.org/2000/svg">
<path d="M22.3051 6.4235C22.6365 6.4235 22.9087 6.08628 22.9087 5.67579C22.9087 5.2653 22.6365 4.92809 22.3051 4.92809H17.4763C17.145 4.92809 16.8727 5.2653 16.8727 5.67579C16.8727 6.08628 17.145 6.4235 17.4763 6.4235H22.3051Z" fill="black"/>
<path fill-rule="evenodd" clip-rule="evenodd" d="M12.1979 3.49092C12.5962 3.49092 12.9187 3.81342 12.9187 4.21167C12.9187 4.23117 12.9187 4.25142 12.9187 4.27092C12.9187 4.66842 12.5962 4.99092 12.1979 4.99092C11.3797 4.99092 10.1572 4.99092 10.1572 4.99092C8.24995 4.99092 6.8962 4.99317 5.8672 5.13117H5.86795C4.8622 5.26617 4.28245 5.52042 3.85795 5.94342C3.43645 6.36642 3.1822 6.94617 3.0472 7.95192C2.9092 8.98017 2.90695 10.3339 2.90695 12.2412C2.90695 14.1484 2.9092 15.5029 3.0472 16.5312C3.1822 17.5362 3.43645 18.1159 3.85945 18.5389C4.28245 18.9619 4.8622 19.2162 5.86795 19.3512C6.8962 19.4892 8.24995 19.4914 10.1572 19.4914H14.1569C16.0642 19.4914 17.4194 19.4892 18.4469 19.3512C19.4519 19.2162 20.0324 18.9619 20.4554 18.5389C20.8784 18.1159 21.1319 17.5362 21.2669 16.5304C21.4049 15.5022 21.4072 14.1484 21.4072 12.2412C21.4072 11.5234 21.4072 10.8837 21.3967 10.3107C21.3922 10.1104 21.4687 9.91617 21.6089 9.77217C21.7492 9.62892 21.9412 9.54792 22.1422 9.54792C22.1452 9.54792 22.1489 9.54792 22.1527 9.54792C22.5584 9.54792 22.8892 9.87192 22.8982 10.2777C22.9079 10.8619 22.9079 11.4964 22.9079 12.1849V12.2974C22.9079 14.1349 22.9079 15.5914 22.7549 16.7299C22.5974 17.9022 22.2652 18.8509 21.5174 19.6002C20.7682 20.3479 19.8194 20.6802 18.6472 20.8384C17.5072 20.9914 16.0522 20.9914 14.2139 20.9914H10.1024C8.2642 20.9914 6.80845 20.9914 5.6692 20.8384C4.49695 20.6802 3.5482 20.3479 2.79895 19.6002C2.0512 18.8509 1.71895 17.9022 1.56145 16.7299C1.40845 15.5899 1.40845 14.1349 1.40845 12.2974V12.1849C1.40845 10.3474 1.40845 8.89092 1.56145 7.75242C1.71895 6.58017 2.0512 5.63142 2.79895 4.88217C3.5482 4.13442 4.49695 3.80217 5.6692 3.64392C6.8092 3.49092 8.2642 3.49092 10.1024 3.49092H12.1979Z" fill="black"/>
<path fill-rule="evenodd" clip-rule="evenodd" d="M15.6765 9.54791C15.9937 9.54791 16.2765 9.74666 16.3837 10.0444C16.491 10.3422 16.3995 10.6759 16.1557 10.8777C15.867 11.1169 15.6555 11.2917 15.6555 11.2917C14.7682 12.0319 14.838 11.9854 14.2035 12.3934C13.5435 12.8179 12.9 13.0864 12.159 13.0864C11.418 13.0864 10.7752 12.8172 10.1145 12.3934C9.47995 11.9854 8.7622 11.3862 7.87495 10.6482L5.6782 8.81816C5.5072 8.67566 5.4082 8.46416 5.4082 8.24141C5.4082 8.06591 5.4697 7.89566 5.5822 7.76141H5.57995C5.84395 7.44566 6.3202 7.40216 6.63595 7.66541L8.7982 9.46391C9.7312 10.2409 10.3785 10.7794 10.926 11.1312C11.4555 11.4709 11.814 11.5864 12.159 11.5864C12.504 11.5864 12.8632 11.4724 13.392 11.1312C13.392 11.1312 14.6962 10.1097 15.2092 9.70766C15.342 9.60416 15.5047 9.54791 15.6727 9.54791C15.6742 9.54791 15.6765 9.54791 15.6765 9.54791Z" fill="black"/>
</svg>
