<svg width="24" height="24" viewBox="0 0 24 24" fill="none" xmlns="http://www.w3.org/2000/svg">
<g clip-path="url(#clip0_221_13669)">
<path fill-rule="evenodd" clip-rule="evenodd" d="M5.25 8C5.25 6.20979 5.96116 4.4929 7.22703 3.22703C8.4929 1.96116 10.2098 1.25 12 1.25C13.7902 1.25 15.5071 1.96116 16.773 3.22703C18.0388 4.4929 18.75 6.20979 18.75 8V13C18.75 14.7902 18.0388 16.5071 16.773 17.773C15.5071 19.0388 13.7902 19.75 12 19.75C10.2098 19.75 8.4929 19.0388 7.22703 17.773C5.96116 16.5071 5.25 14.7902 5.25 13V8ZM12 2.75C10.6076 2.75 9.27225 3.30312 8.28769 4.28769C7.30312 5.27225 6.75 6.60761 6.75 8V13C6.75 14.3924 7.30312 15.7277 8.28769 16.7123C9.27225 17.6969 10.6076 18.25 12 18.25C13.3924 18.25 14.7277 17.6969 15.7123 16.7123C16.6969 15.7277 17.25 14.3924 17.25 13V8C17.25 5.1 14.9 2.75 12 2.75ZM10.515 7.045C10.3728 7.17748 10.1848 7.2496 9.99048 7.24617C9.79618 7.24275 9.61079 7.16403 9.47338 7.02662C9.33597 6.88921 9.25725 6.70382 9.25383 6.50952C9.2504 6.31522 9.32252 6.12718 9.455 5.985L9.989 6.489C9.80967 6.32243 9.63199 6.15409 9.456 5.984V5.983L9.458 5.981L9.462 5.978L9.47 5.97L9.534 5.91C9.57 5.87867 9.61633 5.84333 9.673 5.804C9.786 5.726 9.941 5.637 10.146 5.554C10.556 5.389 11.154 5.25 12 5.25C12.846 5.25 13.444 5.389 13.854 5.555C14.059 5.638 14.214 5.725 14.327 5.804C14.3982 5.85483 14.466 5.91028 14.53 5.97L14.538 5.978L14.542 5.981L14.543 5.983C14.543 5.984 14.545 5.985 14.011 6.489L14.545 5.985C14.6849 6.12663 14.7628 6.31803 14.7616 6.5171C14.7604 6.71617 14.6801 6.9066 14.5385 7.0465C14.3969 7.1864 14.2055 7.26431 14.0064 7.26309C13.8073 7.26188 13.6169 7.18163 13.477 7.04C13.4185 7.00193 13.3561 6.97009 13.291 6.945C13.084 6.861 12.681 6.75 12 6.75C11.319 6.75 10.916 6.861 10.709 6.945C10.6409 6.97116 10.5758 7.00469 10.515 7.045ZM10.515 10.046C10.3735 10.1826 10.184 10.2581 9.98735 10.2563C9.7907 10.2545 9.60263 10.1755 9.46364 10.0364C9.32465 9.89725 9.24586 9.7091 9.24424 9.51245C9.24263 9.3158 9.31831 9.12639 9.455 8.985L10 9.5C9.81727 9.32948 9.63593 9.15748 9.456 8.984V8.983L9.458 8.981L9.462 8.978L9.47 8.97L9.534 8.91C9.57 8.87867 9.61633 8.84333 9.673 8.804C9.786 8.726 9.941 8.637 10.146 8.554C10.556 8.389 11.154 8.25 12 8.25C12.846 8.25 13.444 8.389 13.854 8.555C14.059 8.637 14.214 8.725 14.327 8.804C14.3982 8.85483 14.466 8.91029 14.53 8.97L14.538 8.978L14.542 8.981L14.543 8.983C14.543 8.984 14.545 8.985 14 9.5L14.545 8.985C14.6775 9.12717 14.7496 9.31522 14.7462 9.50952C14.7427 9.70382 14.664 9.88921 14.5266 10.0266C14.3892 10.164 14.2038 10.2427 14.0095 10.2462C13.8152 10.2496 13.6272 10.1775 13.485 10.045L13.477 10.04C13.4185 10.0019 13.3561 9.97009 13.291 9.945C13.084 9.861 12.681 9.75 12 9.75C11.319 9.75 10.916 9.861 10.709 9.945C10.6439 9.97009 10.5815 10.0019 10.523 10.04L10.515 10.046ZM3 10.25C3.19891 10.25 3.38968 10.329 3.53033 10.4697C3.67098 10.6103 3.75 10.8011 3.75 11V13C3.75 15.188 4.61919 17.2865 6.16637 18.8336C7.71354 20.3808 9.81196 21.25 12 21.25C14.188 21.25 16.2865 20.3808 17.8336 18.8336C19.3808 17.2865 20.25 15.188 20.25 13V11C20.25 10.8011 20.329 10.6103 20.4697 10.4697C20.6103 10.329 20.8011 10.25 21 10.25C21.1989 10.25 21.3897 10.329 21.5303 10.4697C21.671 10.6103 21.75 10.8011 21.75 11V13C21.75 18.385 17.385 22.75 12 22.75C6.615 22.75 2.25 18.385 2.25 13V11C2.25 10.8011 2.32902 10.6103 2.46967 10.4697C2.61032 10.329 2.80109 10.25 3 10.25Z" fill="black"/>
</g>
<defs>
<clipPath id="clip0_221_13669">
<rect width="24" height="24" fill="white"/>
</clipPath>
</defs>
</svg>
