<svg width="24" height="24" viewBox="0 0 24 24" fill="none" xmlns="http://www.w3.org/2000/svg">
<path fill-rule="evenodd" clip-rule="evenodd" d="M22.5275 2.15311C22.6695 2.29586 22.75 2.48872 22.75 2.69069C22.75 2.89191 22.6695 3.08553 22.5275 3.22752L18.4774 7.27684C18.1874 7.56766 17.7113 7.57297 17.4144 7.28823L15.3901 5.34444C15.2405 5.20093 15.1562 5.00351 15.1562 4.79698C15.1562 4.38013 15.4995 4.03693 15.9163 4.03693C16.1122 4.03693 16.3013 4.11286 16.4425 4.24877L17.9307 5.67777L21.4539 2.15463C21.7485 1.86002 22.2329 1.86002 22.5275 2.15463" fill="black"/>
<path fill-rule="evenodd" clip-rule="evenodd" d="M12.0395 3.49185C12.4378 3.49185 12.7603 3.81435 12.7603 4.2126C12.7603 4.2321 12.7603 4.25235 12.7603 4.27185C12.7603 4.66935 12.4378 4.99185 12.0395 4.99185C11.2213 4.99185 9.99877 4.99185 9.99877 4.99185C8.09151 4.99185 6.73776 4.9941 5.70876 5.1321H5.70951C4.70376 5.2671 4.12401 5.52135 3.6995 5.94435C3.278 6.36735 3.02375 6.9471 2.88875 7.95285C2.75075 8.98111 2.7485 10.3349 2.7485 12.2421C2.7485 14.1494 2.75075 15.5039 2.88875 16.5321C3.02375 17.5371 3.278 18.1169 3.701 18.5399C4.12401 18.9629 4.70376 19.2171 5.70951 19.3521C6.73776 19.4901 8.09151 19.4924 9.99877 19.4924H13.9985C15.9058 19.4924 17.261 19.4901 18.2885 19.3521C19.2935 19.2171 19.874 18.9629 20.297 18.5399C20.72 18.1169 20.9735 17.5371 21.1085 16.5314C21.2465 15.5031 21.2488 14.1494 21.2488 12.2421C21.2488 11.5244 21.2488 10.8846 21.2383 10.3116C21.2338 10.1114 21.3103 9.91711 21.4505 9.77311C21.5908 9.62986 21.7828 9.54886 21.9838 9.54886C21.9868 9.54886 21.9905 9.54886 21.9943 9.54886C22.4 9.54886 22.7308 9.87286 22.7398 10.2786C22.7495 10.8629 22.7495 11.4974 22.7495 12.1859V12.2984C22.7495 14.1359 22.7495 15.5924 22.5965 16.7309C22.439 17.9031 22.1068 18.8519 21.359 19.6011C20.6098 20.3489 19.661 20.6811 18.4888 20.8394C17.3488 20.9924 15.8938 20.9924 14.0555 20.9924H9.94402C8.10576 20.9924 6.65001 20.9924 5.51076 20.8394C4.33851 20.6811 3.38975 20.3489 2.6405 19.6011C1.89275 18.8519 1.5605 17.9031 1.403 16.7309C1.25 15.5909 1.25 14.1359 1.25 12.2984V12.1859C1.25 10.3484 1.25 8.89186 1.403 7.75335C1.5605 6.5811 1.89275 5.63235 2.6405 4.8831C3.38975 4.13535 4.33851 3.8031 5.51076 3.64485C6.65076 3.49185 8.10576 3.49185 9.94402 3.49185H12.0395Z" fill="black"/>
<path fill-rule="evenodd" clip-rule="evenodd" d="M15.518 9.54885C15.8353 9.54885 16.118 9.7476 16.2253 10.0454C16.3325 10.3431 16.241 10.6769 15.9973 10.8786C15.7085 11.1179 15.497 11.2926 15.497 11.2926C14.6098 12.0329 14.6795 11.9864 14.045 12.3944C13.385 12.8189 12.7415 13.0874 12.0005 13.0874C11.2595 13.0874 10.6168 12.8181 9.95601 12.3944C9.32151 11.9864 8.60376 11.3871 7.71651 10.6491L5.51976 8.8191C5.34876 8.6766 5.24976 8.4651 5.24976 8.24235C5.24976 8.06685 5.31126 7.8966 5.42376 7.76235H5.42151C5.68551 7.4466 6.16176 7.4031 6.47751 7.66635L8.63976 9.46485C9.57276 10.2419 10.22 10.7804 10.7675 11.1321C11.297 11.4719 11.6555 11.5874 12.0005 11.5874C12.3455 11.5874 12.7048 11.4734 13.2335 11.1321C13.2335 11.1321 14.5378 10.1106 15.0508 9.7086C15.1835 9.6051 15.3463 9.54885 15.5143 9.54885C15.5158 9.54885 15.518 9.54885 15.518 9.54885Z" fill="black"/>
</svg>
