<svg width="24" height="24" viewBox="0 0 24 24" fill="none" xmlns="http://www.w3.org/2000/svg">
<g clip-path="url(#clip0_221_13674)">
<path fill-rule="evenodd" clip-rule="evenodd" d="M17.141 2.374C16.217 2.25 15.041 2.25 13.573 2.25H10.252C8.785 2.25 7.608 2.25 6.684 2.374C5.727 2.502 4.929 2.775 4.296 3.406C3.636 4.064 3.365 4.901 3.243 5.91L3.237 5.96L3.24 6.155C3.02733 6.29367 2.82767 6.45567 2.641 6.641C1.893 7.39 1.561 8.339 1.403 9.511C1.25 10.651 1.25 12.106 1.25 13.944V14.489C1.251 16.114 1.263 17.446 1.403 18.489C1.561 19.661 1.893 20.61 2.641 21.359C3.39 22.107 4.339 22.439 5.511 22.597C6.651 22.75 8.106 22.75 9.944 22.75H14.056C15.894 22.75 17.35 22.75 18.489 22.597C19.661 22.439 20.61 22.107 21.359 21.359C22.107 20.61 22.439 19.661 22.597 18.489C22.75 17.349 22.75 15.894 22.75 14.056V13.944C22.75 12.106 22.75 10.65 22.597 9.511C22.439 8.339 22.107 7.39 21.359 6.641C21.1289 6.4102 20.8693 6.2108 20.587 6.048V5.955L20.582 5.91C20.46 4.901 20.19 4.064 19.529 3.406C18.896 2.776 18.099 2.502 17.141 2.374ZM2.751 14.84C2.754 16.315 2.773 17.42 2.89 18.29C3.025 19.295 3.279 19.875 3.702 20.298C4.125 20.721 4.705 20.975 5.711 21.11C6.739 21.248 8.093 21.25 10 21.25H14C15.907 21.25 17.262 21.248 18.29 21.11C19.053 21.008 19.571 20.837 19.962 20.575L17.275 18.156C16.8963 17.8151 16.413 17.6128 15.9044 17.5823C15.3957 17.5517 14.8918 17.6948 14.475 17.988L14.178 18.198C13.6483 18.5702 13.0042 18.7436 12.3592 18.6876C11.7142 18.6316 11.1097 18.3499 10.652 17.892L6.362 13.602C6.08386 13.3239 5.71041 13.162 5.31732 13.149C4.92423 13.136 4.5409 13.2729 4.245 13.532L2.751 14.84ZM18.278 17.041L20.866 19.371C20.972 19.075 21.052 18.721 21.11 18.289C21.248 17.262 21.25 15.907 21.25 14C21.25 12.093 21.248 10.739 21.11 9.71C20.975 8.705 20.721 8.125 20.298 7.702C19.875 7.279 19.295 7.025 18.289 6.89C17.262 6.752 15.907 6.75 14 6.75H10C8.093 6.75 6.739 6.752 5.71 6.89C4.705 7.025 4.125 7.279 3.702 7.702C3.279 8.125 3.025 8.705 2.89 9.71C2.781 10.517 2.757 11.526 2.752 12.845L3.258 12.402C3.84037 11.8925 4.59461 11.6234 5.36794 11.6493C6.14128 11.6751 6.87589 11.9938 7.423 12.541L11.713 16.831C11.9211 17.0388 12.1959 17.1665 12.4889 17.1918C12.7819 17.217 13.0744 17.1381 13.315 16.969L13.613 16.759C14.3076 16.2709 15.1472 16.0329 15.9946 16.0839C16.842 16.135 17.647 16.473 18.278 17.041ZM5.354 4.47C5.114 4.709 4.942 5.021 4.828 5.523C5.04667 5.475 5.27433 5.43533 5.511 5.404C6.651 5.251 8.106 5.251 9.944 5.251H14.056C15.894 5.251 17.35 5.251 18.489 5.404C18.6597 5.42667 18.8263 5.45367 18.989 5.485C18.874 5.005 18.704 4.703 18.471 4.47C18.163 4.163 17.734 3.968 16.942 3.862C16.129 3.752 15.053 3.751 13.518 3.751H10.307C8.772 3.751 7.696 3.753 6.883 3.861C6.091 3.968 5.662 4.163 5.354 4.47Z" fill="black"/>
<path fill-rule="evenodd" clip-rule="evenodd" d="M17.5 8.25C17.2045 8.25 16.9119 8.3082 16.639 8.42127C16.366 8.53434 16.1179 8.70008 15.909 8.90901C15.7001 9.11794 15.5343 9.36598 15.4213 9.63896C15.3082 9.91194 15.25 10.2045 15.25 10.5C15.25 10.7955 15.3082 11.0881 15.4213 11.361C15.5343 11.634 15.7001 11.8821 15.909 12.091C16.1179 12.2999 16.366 12.4657 16.639 12.5787C16.9119 12.6918 17.2045 12.75 17.5 12.75C18.0967 12.75 18.669 12.5129 19.091 12.091C19.5129 11.669 19.75 11.0967 19.75 10.5C19.75 9.90326 19.5129 9.33097 19.091 8.90901C18.669 8.48705 18.0967 8.25 17.5 8.25ZM17.5 9.75C17.3011 9.75 17.1103 9.82902 16.9697 9.96967C16.829 10.1103 16.75 10.3011 16.75 10.5C16.75 10.6989 16.829 10.8897 16.9697 11.0303C17.1103 11.171 17.3011 11.25 17.5 11.25C17.6989 11.25 17.8897 11.171 18.0303 11.0303C18.171 10.8897 18.25 10.6989 18.25 10.5C18.25 10.3011 18.171 10.1103 18.0303 9.96967C17.8897 9.82902 17.6989 9.75 17.5 9.75Z" fill="black"/>
</g>
<defs>
<clipPath id="clip0_221_13674">
<rect width="24" height="24" fill="white"/>
</clipPath>
</defs>
</svg>
