<svg width="24" height="24" viewBox="0 0 24 24" fill="none" xmlns="http://www.w3.org/2000/svg">
<path d="M21.9929 3.15625C22.3047 3.15625 22.5608 3.41241 22.5608 3.72424V6.75335C22.5608 7.06518 22.3047 7.32134 21.9929 7.32134C21.681 7.32134 21.4249 7.06518 21.4249 6.75335V3.72424C21.4249 3.41241 21.681 3.15625 21.9929 3.15625ZM21.9929 9.78246C22.4081 9.78246 22.75 9.44052 22.75 9.02532C22.75 8.61012 22.4081 8.26819 21.9929 8.26819C21.5776 8.26819 21.2357 8.61012 21.2357 9.02532C21.2357 9.44052 21.5776 9.78246 21.9929 9.78246Z" fill="black"/>
<path fill-rule="evenodd" clip-rule="evenodd" d="M12.0397 5.24512C12.4379 5.24512 12.7604 5.56763 12.7604 5.96589C12.7604 5.98539 12.7604 6.00564 12.7604 6.02514C12.7604 6.42264 12.4379 6.74515 12.0397 6.74515C11.2214 6.74515 9.99889 6.74515 9.99889 6.74515C8.09161 6.74515 6.73784 6.7474 5.70882 6.8854H5.70957C4.7038 7.0204 4.12405 7.27466 3.69954 7.69766C3.27803 8.12067 3.02378 8.70043 2.88878 9.7062C2.75077 10.7345 2.74852 12.0882 2.74852 13.9955C2.74852 15.9028 2.75077 17.2573 2.88878 18.2856C3.02378 19.2906 3.27803 19.8704 3.70104 20.2934C4.12405 20.7164 4.7038 20.9706 5.70957 21.1056C6.73784 21.2436 8.09161 21.2459 9.99889 21.2459H13.9987C15.906 21.2459 17.2613 21.2436 18.2888 21.1056C19.2938 20.9706 19.8743 20.7164 20.2973 20.2934C20.7203 19.8704 20.9738 19.2906 21.1088 18.2848C21.2468 17.2566 21.2491 15.9028 21.2491 13.9955C21.2491 13.2778 21.2491 12.638 21.2386 12.065C21.2341 11.8647 21.3106 11.6705 21.4508 11.5265C21.5911 11.3832 21.7831 11.3022 21.9841 11.3022C21.9871 11.3022 21.9908 11.3022 21.9946 11.3022C22.4003 11.3022 22.7311 11.6262 22.7401 12.032C22.7498 12.6162 22.7498 13.2508 22.7498 13.9393V14.0518C22.7498 15.8893 22.7498 17.3458 22.5968 18.4843C22.4393 19.6566 22.1071 20.6054 21.3593 21.3546C20.6101 22.1024 19.6613 22.4346 18.489 22.5929C17.349 22.7459 15.894 22.7459 14.0557 22.7459H9.94414C8.10586 22.7459 6.65009 22.7459 5.51082 22.5929C4.33855 22.4346 3.38978 22.1024 2.64052 21.3546C1.89276 20.6054 1.5605 19.6566 1.403 18.4843C1.25 17.3443 1.25 15.8893 1.25 14.0518V13.9393C1.25 12.1017 1.25 10.6452 1.403 9.50669C1.5605 8.33442 1.89276 7.38566 2.64052 6.6364C3.38978 5.88864 4.33855 5.55638 5.51082 5.39813C6.65084 5.24512 8.10586 5.24512 9.94414 5.24512H12.0397Z" fill="black"/>
<path fill-rule="evenodd" clip-rule="evenodd" d="M15.5182 11.3022C15.8355 11.3022 16.1182 11.501 16.2255 11.7987C16.3327 12.0965 16.2412 12.4302 15.9975 12.632C15.7087 12.8713 15.4972 13.046 15.4972 13.046C14.61 13.7863 14.6797 13.7398 14.0452 14.1478C13.3852 14.5723 12.7417 14.8408 12.0007 14.8408C11.2597 14.8408 10.6169 14.5715 9.95614 14.1478C9.32163 13.7398 8.60387 13.1405 7.71661 12.4025L5.51982 10.5725C5.34882 10.43 5.24982 10.2185 5.24982 9.99571C5.24982 9.82021 5.31132 9.64995 5.42382 9.5157H5.42157C5.68557 9.19995 6.16183 9.15645 6.47759 9.4197L8.63987 11.2182C9.57289 11.9952 10.2201 12.5337 10.7677 12.8855C11.2972 13.2253 11.6557 13.3408 12.0007 13.3408C12.3457 13.3408 12.7049 13.2268 13.2337 12.8855C13.2337 12.8855 14.538 11.864 15.051 11.462C15.1837 11.3585 15.3465 11.3022 15.5145 11.3022C15.516 11.3022 15.5182 11.3022 15.5182 11.3022Z" fill="black"/>
</svg>
