<svg width="24" height="24" viewBox="0 0 24 24" fill="none" xmlns="http://www.w3.org/2000/svg">
<path fill-rule="evenodd" clip-rule="evenodd" d="M12.4431 3.5185C12.8339 3.517 13.1556 3.826 13.1699 4.216C13.1706 4.23325 13.1706 4.2505 13.1714 4.26775C13.1789 4.4635 13.1061 4.654 12.9704 4.79575C12.8339 4.9375 12.6464 5.01775 12.4506 5.0185C10.9296 5.02075 6.50973 5.03874 5.62098 5.15799C4.61523 5.29299 4.03623 5.54724 3.61173 5.97024C3.19023 6.39324 2.93598 6.97299 2.80098 7.97874C2.66298 9.00699 2.66073 10.3607 2.66073 12.268C2.66073 14.1752 2.66298 15.5297 2.80098 16.558C2.93598 17.563 3.19023 18.1427 3.61323 18.5657C4.03623 18.9887 4.61598 19.243 5.62173 19.378C6.64998 19.516 8.00373 19.5182 9.91098 19.5182H13.9107C15.818 19.5182 17.1732 19.516 18.2007 19.378C19.2057 19.243 19.7862 18.9887 20.2092 18.5657C20.6322 18.1427 20.8857 17.563 21.0207 16.5572C21.1587 15.529 21.161 14.1752 21.161 12.268C21.161 11.5502 21.161 10.9105 21.1505 10.3375C21.146 10.1372 21.2225 9.94299 21.3627 9.79899C21.503 9.65574 21.695 9.57474 21.896 9.57474C21.899 9.57474 21.9027 9.57474 21.9065 9.57474C22.3122 9.57474 22.643 9.89874 22.652 10.3045C22.6617 10.8887 22.6617 11.5232 22.6617 12.2117V12.3242C22.6617 14.1617 22.6617 15.6182 22.5087 16.7567C22.3512 17.929 22.019 18.8777 21.2712 19.627C20.522 20.3747 19.5732 20.707 18.401 20.8652C17.261 21.0182 15.806 21.0182 13.9677 21.0182H9.85623C8.01798 21.0182 6.56223 21.0182 5.42298 20.8652C4.25073 20.707 3.30198 20.3747 2.55273 19.627C1.80498 18.8777 1.47273 17.929 1.31523 16.7567C1.16223 15.6167 1.16223 14.1617 1.16223 12.3242V12.2117C1.16223 10.3742 1.16223 8.91774 1.31523 7.77924C1.47273 6.60699 1.80498 5.65824 2.55273 4.90899C3.30198 4.16124 4.25073 3.82899 5.42298 3.67074C6.41373 3.53799 10.9311 3.52075 12.4431 3.5185Z" fill="black"/>
<path fill-rule="evenodd" clip-rule="evenodd" d="M12.9155 11.2607C13.2612 11.0462 13.7142 11.146 13.9377 11.485C14.162 11.824 14.0757 12.28 13.7427 12.5132C13.7322 12.5185 13.7247 12.5245 13.718 12.529C13.0385 12.922 12.6537 13.1133 11.9127 13.1133C11.1717 13.1133 10.529 12.844 9.86824 12.4202C9.23374 12.0122 8.51599 11.413 7.62874 10.675L5.43199 8.845C5.26099 8.7025 5.16199 8.491 5.16199 8.26825C5.16199 8.09275 5.22349 7.9225 5.33599 7.78825H5.33374C5.59774 7.4725 6.07399 7.429 6.38974 7.69225L8.55199 9.49075C9.48499 10.2677 10.1322 10.8062 10.6797 11.158C11.2092 11.4977 11.5677 11.6132 11.9127 11.6132C12.2577 11.6132 12.3777 11.608 12.9065 11.2667C12.9065 11.2667 12.9095 11.2645 12.9155 11.2607Z" fill="black"/>
<path fill-rule="evenodd" clip-rule="evenodd" d="M22.5631 5.39822C22.5631 7.67323 20.7188 9.51749 18.4438 9.51749C16.1688 9.51749 14.3245 7.67323 14.3245 5.39822C14.3245 3.12321 16.1688 1.27895 18.4438 1.27895C20.7188 1.27895 22.5631 3.12321 22.5631 5.39822ZM19.3453 7.75137C19.0654 7.85869 18.7615 7.91749 18.4438 7.91749C17.0524 7.91749 15.9245 6.78957 15.9245 5.39822C15.9245 4.31499 16.6082 3.39144 17.5676 3.03551V5.66432C17.5676 5.8627 17.6469 6.05358 17.7869 6.19357L19.3453 7.75137ZM20.5261 6.81659C20.8019 6.41259 20.9631 5.92423 20.9631 5.39822C20.9631 4.22114 20.1558 3.2326 19.0647 2.95604V5.35516L20.5261 6.81659Z" fill="black"/>
</svg>
