<svg width="24" height="24" viewBox="0 0 24 24" fill="none" xmlns="http://www.w3.org/2000/svg">
<path fill-rule="evenodd" clip-rule="evenodd" d="M7.79949 7.30542L7.67684 7.5487C7.48019 7.94302 7.41229 8.07783 7.32714 8.19339C7.23996 8.31199 7.13961 8.41842 7.02709 8.51269C6.9166 8.60291 6.78685 8.67893 6.40368 8.89991L6.28509 8.96884C5.6546 9.33173 3.95569 10.313 2.85384 11.0671C2.36221 11.4026 1.98716 11.7007 1.86045 11.8811C1.85944 11.8821 1.85944 11.8821 1.85843 11.8831C1.45398 12.4792 1.24212 13.1836 1.25022 13.9044C1.25022 13.9054 1.25022 13.9064 1.25022 13.9074C1.27252 14.6332 1.56649 15.2333 1.99121 16.0858L1.99324 16.0878L2.04393 16.1902L2.04088 16.1851C2.18279 16.4689 2.32977 16.7467 2.47574 17.0011C2.47675 17.0011 2.47676 17.0011 2.47676 17.0011C2.63185 17.2677 2.79505 17.5292 2.96534 17.7857L3.02616 17.8779C3.55225 18.6726 3.92427 19.2271 4.54159 19.6082C4.54261 19.6092 4.54361 19.6093 4.54463 19.6103C5.16397 19.9772 5.88064 20.1455 6.59933 20.0938C6.59933 20.0938 6.60034 20.0938 6.60135 20.0928C6.95613 20.0613 7.89984 19.6123 8.87397 19.0943C9.247 19.592 9.79742 20.2195 10.4695 20.6685C11.473 21.3386 12.7127 21.6386 14.0558 20.8632C14.4582 20.631 14.5971 20.1141 14.364 19.7116C14.1318 19.3082 13.6149 19.1693 13.2114 19.4025C12.5353 19.7927 11.9129 19.6032 11.4071 19.2656C10.9865 18.9848 10.6317 18.6088 10.3641 18.2743C10.7726 18.0431 11.1182 17.8434 11.3362 17.7178C11.3291 17.7208 11.323 17.7249 11.3159 17.7269L11.4558 17.6488C11.8369 17.4278 11.9677 17.3528 12.1015 17.3042C12.1025 17.3042 12.1025 17.3042 12.1035 17.3032C12.2414 17.2515 12.3823 17.218 12.5282 17.2028C12.6701 17.1876 12.8212 17.1957 13.2621 17.2221L13.5429 17.2383C13.5399 17.2383 13.5368 17.2383 13.5338 17.2383C14.7968 17.3123 15.8074 17.3721 16.5819 17.3174C17.405 17.2586 18.1338 17.0579 18.6447 16.473C18.817 16.2773 18.9599 16.0574 19.0694 15.8212C19.3958 15.1177 19.2853 14.3737 19.0076 13.6003C18.746 12.8755 18.2848 11.9814 17.7091 10.8684L17.6867 10.8238C17.2488 9.97642 16.8596 9.24151 16.6234 8.83301C16.3872 8.4245 15.9453 7.719 15.4303 6.91617L15.401 6.87158L15.403 6.87461C14.7269 5.81939 14.1835 4.97298 13.6868 4.38405C13.1557 3.75659 12.5668 3.28929 11.7943 3.21935C11.5359 3.19705 11.2723 3.21124 11.0179 3.26091C10.2566 3.41093 9.71836 3.94412 9.25512 4.62631C8.82025 5.26897 8.36512 6.17519 7.79949 7.30542ZM4.59936 11.8101L8.03265 17.7573C7.50351 18.0442 7.02404 18.2915 6.71791 18.4253C6.59526 18.478 6.50708 18.5135 6.45944 18.5175C6.11378 18.55 5.66776 18.4446 5.37279 18.2621C5.05247 18.0644 4.85784 17.7806 4.28411 16.9129C4.12294 16.6686 3.97394 16.4304 3.84622 16.2094C3.7185 15.9884 3.58774 15.7401 3.45596 15.4786C2.99272 14.5501 2.84371 14.2399 2.83256 13.8628C2.83256 13.4827 2.94506 13.1096 3.15489 12.7914C3.18226 12.7528 3.25728 12.694 3.36372 12.615C3.63234 12.4163 4.08645 12.1254 4.59936 11.8091V11.8101ZM13.5794 15.656C13.6615 15.66 13.6706 15.661 13.5733 15.655L13.3057 15.6398V15.6387C12.9084 15.6154 12.6326 15.6002 12.3579 15.6296C12.0812 15.66 11.8126 15.7239 11.5511 15.8202C11.5511 15.8202 11.5511 15.8202 11.55 15.8202C11.2916 15.9175 11.0523 16.0543 10.7077 16.253L10.6651 16.2784L10.6672 16.2875C10.6357 16.325 10.6043 16.3128 10.6641 16.2784L9.50853 16.9393L6.04586 10.9414L7.23692 10.246H7.23894C7.5846 10.0464 7.82281 9.90749 8.03568 9.73213C8.24956 9.55474 8.44013 9.352 8.60435 9.129C8.76653 8.90599 8.8902 8.65866 9.06962 8.30286L9.19227 8.05756C9.77715 6.88982 10.1887 6.06976 10.5648 5.51326C10.9054 5.0115 11.1253 4.85337 11.323 4.81282C11.4325 4.79154 11.544 4.78647 11.6545 4.79559C11.8562 4.81384 12.0903 4.94765 12.4786 5.40582C12.9083 5.91468 13.399 6.67898 14.0994 7.77069C14.6123 8.57149 15.036 9.24759 15.253 9.62366C15.4699 9.99973 15.8439 10.7052 16.2818 11.5506C16.8758 12.7022 17.2924 13.509 17.5185 14.1365C17.7222 14.7011 17.7202 14.9707 17.6341 15.1542C17.6341 15.1552 17.6341 15.1552 17.6341 15.1562C17.5884 15.2546 17.5256 15.3498 17.4546 15.4319C17.3218 15.584 17.0745 15.6955 16.4694 15.7381C15.7983 15.7867 14.884 15.733 13.5794 15.656ZM16.6954 3.53663C16.6954 3.53663 21.2184 6.13058 21.2295 11.4858C21.2305 11.9054 21.5721 12.245 21.9918 12.244C22.4114 12.243 22.751 11.9024 22.75 11.4827C22.7368 5.23653 17.4506 2.21684 17.4506 2.21684C17.0857 2.00904 16.6214 2.13473 16.4126 2.49965C16.2038 2.86355 16.3305 3.32883 16.6954 3.53663ZM18.2615 10.3271L18.2706 10.4082C18.2879 10.834 18.6467 11.1746 19.0734 11.1675C19.5093 11.1604 19.858 10.7681 19.8509 10.3332L19.8276 10.1041C19.8083 9.96527 19.7708 9.77369 19.7039 9.53142C19.5701 9.05703 19.3177 8.38801 18.8373 7.55478C18.3558 6.72155 17.9037 6.16809 17.559 5.81534C17.4232 5.67545 17.2793 5.54469 17.1262 5.42406L16.9072 5.26897C16.665 5.13821 16.372 5.14227 16.1338 5.27911C15.7578 5.49705 15.627 5.98462 15.8439 6.36068C15.9027 6.46408 15.9848 6.55227 16.0831 6.61917L16.148 6.66681L16.4278 6.92327C16.6842 7.18378 17.0542 7.6308 17.4668 8.34543C17.8793 9.06108 18.0811 9.60542 18.1794 9.95716L18.2615 10.3271Z" fill="black"/>
</svg>
