<svg width="24" height="24" viewBox="0 0 24 24" fill="none" xmlns="http://www.w3.org/2000/svg">
<path fill-rule="evenodd" clip-rule="evenodd" d="M9.94359 3.51367H14.0554C15.8937 3.51367 17.3495 3.51367 18.4888 3.66644C19.661 3.8242 20.6096 4.15671 21.3585 4.90459C22.1064 5.65347 22.4389 6.60204 22.5966 7.77429C22.6865 8.44728 22.7234 9.2301 22.7384 10.1377C22.7514 10.2136 22.7524 10.2905 22.7424 10.3674C22.7484 10.9326 22.7514 11.5456 22.7494 12.2076V12.3195C22.7494 14.1567 22.7494 15.6135 22.5966 16.7518C22.4389 17.9241 22.1064 18.8726 21.3585 19.6215C20.6096 20.3704 19.661 20.7019 18.4888 20.8597C17.3485 21.0134 15.8937 21.0134 14.0554 21.0134H9.94359C8.10634 21.0134 6.65052 21.0134 5.51123 20.8597C4.33898 20.7019 3.39041 20.3704 2.64153 19.6215C1.89365 18.8726 1.56115 17.9241 1.40339 16.7518C1.25062 15.6125 1.25062 14.1567 1.25062 12.3195V12.2076C1.24862 11.5456 1.25161 10.9326 1.25761 10.3674C1.24762 10.2905 1.24862 10.2136 1.2606 10.1377C1.27658 9.2301 1.31352 8.44728 1.40339 7.77429C1.56115 6.60204 1.89365 5.65347 2.64153 4.90459C3.39041 4.15671 4.33898 3.8242 5.51123 3.66644C6.65152 3.51367 8.10634 3.51367 9.94359 3.51367ZM2.75037 12.2636C2.75037 14.1697 2.75236 15.5247 2.89016 16.5531C3.02495 17.5576 3.27957 18.1377 3.70194 18.5611C4.1253 18.9845 4.70544 19.2381 5.71093 19.3729C6.73939 19.5107 8.09336 19.5127 10.0005 19.5127H13.9995C15.9066 19.5127 17.2616 19.5107 18.2901 19.3729C19.2946 19.2381 19.8747 18.9845 20.2981 18.5611C20.7204 18.1377 20.975 17.5576 21.1098 16.5521C21.2476 15.5237 21.2496 14.1697 21.2496 12.2636L21.2476 11.0134L21.2237 9.51368C21.2037 8.92656 21.1698 8.41932 21.1098 7.97398C20.975 6.96849 20.7204 6.38836 20.2981 5.96499C19.8747 5.54263 19.2946 5.28801 18.2901 5.15322C17.2616 5.01542 15.9066 5.01343 13.9995 5.01343H10.0005C8.09336 5.01343 6.73939 5.01542 5.71093 5.15322C4.70544 5.28801 4.1253 5.54263 3.70194 5.96499C3.27957 6.38836 3.02495 6.96849 2.89016 7.97299C2.83025 8.41932 2.77633 9.51368 2.77633 9.51368L2.75236 11.0134L2.75037 12.2636Z" fill="black"/>
<path fill-rule="evenodd" clip-rule="evenodd" d="M5.25018 16.7631C5.25018 16.3514 5.58842 16.0131 6.00016 16.0131H11.688C12.099 16.0131 12.4379 16.3514 12.4379 16.7631C12.4379 17.1748 12.099 17.5131 11.688 17.5131H6.00016C5.58842 17.5131 5.25018 17.1748 5.25018 16.7631Z" fill="black"/>
<path fill-rule="evenodd" clip-rule="evenodd" d="M15.9546 7.51337H16.0445C16.4779 7.51337 16.8753 7.51337 17.1968 7.5563C17.5532 7.60423 17.9277 7.71606 18.2372 8.0266C18.5458 8.33614 18.6586 8.71057 18.7065 9.06604C18.7495 9.38956 18.7495 9.78596 18.7495 10.2183V10.3082C18.7495 10.7415 18.7495 11.1379 18.7065 11.4605C18.6586 11.8159 18.5468 12.1914 18.2372 12.4999C17.9267 12.8094 17.5532 12.9223 17.1968 12.9702C16.8743 13.0131 16.4769 13.0131 16.0445 13.0131H15.9546C15.5223 13.0131 15.1249 13.0131 14.8034 12.9702C14.4469 12.9223 14.0715 12.8104 13.7629 12.4999C13.4544 12.1904 13.3406 11.8159 13.2926 11.4605C13.2497 11.1369 13.2497 10.7405 13.2497 10.3082V10.2183C13.2497 9.78496 13.2497 9.38856 13.2926 9.06604C13.3406 8.71057 13.4534 8.33514 13.7629 8.0266C14.0725 7.71706 14.4469 7.60423 14.8034 7.5563C15.1259 7.51337 15.5233 7.51337 15.9546 7.51337ZM14.8253 9.08502L14.8233 9.08602L14.8223 9.08901L14.8173 9.099C14.7974 9.15292 14.7854 9.20983 14.7804 9.26674C14.7514 9.47643 14.7494 9.76999 14.7494 10.2633C14.7494 10.7565 14.7514 11.0501 14.7804 11.2608C14.7864 11.3207 14.8004 11.3806 14.8223 11.4375L14.8233 11.4405L14.8263 11.4415L14.8363 11.4465C14.8583 11.4555 14.9062 11.4704 15.0031 11.4834C15.2128 11.5114 15.5073 11.5134 15.9996 11.5134C16.4928 11.5134 16.7864 11.5114 16.9971 11.4834C17.057 11.4774 17.1169 11.4625 17.1738 11.4415L17.1768 11.4405L17.1778 11.4375L17.1828 11.4275C17.2018 11.3736 17.2147 11.3177 17.2197 11.2608C17.2477 11.0501 17.2497 10.7565 17.2497 10.2633C17.2497 9.76999 17.2477 9.47643 17.2197 9.26674C17.2137 9.20584 17.1998 9.14592 17.1778 9.08901L17.1768 9.08602L17.1738 9.08502L17.1638 9.08002C17.1099 9.06105 17.054 9.04907 16.9971 9.04308C16.7864 9.01512 16.4928 9.01312 15.9996 9.01312C15.5073 9.01312 15.2128 9.01512 15.0031 9.04308C14.9422 9.05007 14.8823 9.06405 14.8253 9.08502Z" fill="black"/>
<path fill-rule="evenodd" clip-rule="evenodd" d="M5.25018 13.7632C5.25018 13.3515 5.58842 13.0132 6.00016 13.0132H9.00306C9.4148 13.0132 9.75304 13.3515 9.75304 13.7632C9.75304 14.1749 9.4148 14.5132 9.00306 14.5132H6.00016C5.58842 14.5132 5.25018 14.1749 5.25018 13.7632Z" fill="black"/>
</svg>
