<svg width="24" height="24" viewBox="0 0 24 24" fill="none" xmlns="http://www.w3.org/2000/svg">
<g clip-path="url(#clip0_221_13664)">
<path fill-rule="evenodd" clip-rule="evenodd" d="M12 1.25C9.94458 1.25 7.97333 2.06652 6.51993 3.51992C5.06652 4.97333 4.25 6.94457 4.25 9V9.704C4.24994 10.4009 4.04361 11.0822 3.657 11.662L2.51 13.385C1.176 15.385 2.194 18.103 4.513 18.735C5.26834 18.941 6.02967 19.1153 6.797 19.258L6.799 19.263C7.567 21.315 9.622 22.75 12 22.75C14.378 22.75 16.433 21.315 17.202 19.263L17.204 19.258C17.9721 19.1145 18.734 18.94 19.488 18.735C21.807 18.103 22.825 15.385 21.491 13.385L20.343 11.662C19.9564 11.0822 19.7501 10.4009 19.75 9.704V9C19.75 6.94457 18.9335 4.97333 17.4801 3.51992C16.0267 2.06652 14.0554 1.25 12 1.25ZM15.376 19.537C13.133 19.8046 10.866 19.8046 8.623 19.537C9.334 20.558 10.571 21.25 12 21.25C13.429 21.25 14.665 20.558 15.376 19.537ZM5.75 9C5.75 7.3424 6.40848 5.75269 7.58059 4.58058C8.75269 3.40848 10.3424 2.75 12 2.75C13.6576 2.75 15.2473 3.40848 16.4194 4.58058C17.5915 5.75269 18.25 7.3424 18.25 9V9.704C18.25 10.697 18.544 11.668 19.095 12.494L20.243 14.217C20.4209 14.4834 20.5329 14.7883 20.5697 15.1065C20.6065 15.4247 20.5671 15.7471 20.4548 16.0471C20.3425 16.3471 20.1604 16.6161 19.9236 16.8319C19.6868 17.0476 19.4021 17.204 19.093 17.288C14.4488 18.5546 9.5502 18.5546 4.906 17.288C4.59704 17.2039 4.31249 17.0476 4.07582 16.8319C3.83916 16.6162 3.65716 16.3473 3.54484 16.0475C3.43251 15.7476 3.39308 15.4254 3.4298 15.1073C3.46651 14.7892 3.57832 14.4844 3.756 14.218L4.906 12.494C5.45654 11.6677 5.75021 10.6969 5.75 9.704V9Z" fill="black"/>
</g>
<defs>
<clipPath id="clip0_221_13664">
<rect width="24" height="24" fill="white"/>
</clipPath>
</defs>
</svg>
