<svg width="24" height="24" viewBox="0 0 24 24" fill="none" xmlns="http://www.w3.org/2000/svg">
<g clip-path="url(#clip0_221_13593)">
<path fill-rule="evenodd" clip-rule="evenodd" d="M10.946 1.25H13.054C14.187 1.25 15.112 1.25 15.844 1.348C16.607 1.451 17.269 1.673 17.798 2.202C18.327 2.731 18.549 3.392 18.652 4.157C18.702 4.533 18.727 4.96 18.739 5.44C19.797 5.61 20.664 5.947 21.359 6.641C22.107 7.39 22.439 8.339 22.597 9.511C22.75 10.651 22.75 12.106 22.75 13.944V14.057C22.75 15.894 22.75 17.35 22.597 18.489C22.439 19.662 22.107 20.611 21.359 21.359C20.61 22.107 19.661 22.439 18.489 22.597C17.349 22.75 15.894 22.75 14.056 22.75H9.944C8.106 22.75 6.65 22.75 5.511 22.597C4.339 22.439 3.39 22.107 2.641 21.359C1.893 20.611 1.561 19.662 1.403 18.489C1.25 17.35 1.25 15.894 1.25 14.057V13.944C1.25 12.106 1.25 10.65 1.403 9.511C1.561 8.339 1.893 7.39 2.641 6.641C3.336 5.947 4.203 5.611 5.261 5.441C5.273 4.96 5.298 4.533 5.348 4.157C5.451 3.393 5.673 2.731 6.202 2.202C6.731 1.673 7.392 1.451 8.157 1.348C8.887 1.25 9.812 1.25 10.946 1.25ZM5.25 6.966C4.519 7.113 4.056 7.348 3.702 7.702C3.279 8.125 3.025 8.705 2.89 9.711C2.752 10.739 2.75 12.093 2.75 14.001C2.75 15.907 2.752 17.261 2.89 18.289C3.025 19.295 3.279 19.875 3.702 20.299C4.125 20.721 4.705 20.975 5.711 21.11C6.739 21.249 8.093 21.25 10 21.25H14C15.907 21.25 17.262 21.249 18.29 21.11C19.295 20.975 19.875 20.721 20.298 20.298C20.721 19.875 20.975 19.295 21.11 18.289C21.248 17.262 21.25 15.907 21.25 14C21.25 12.093 21.248 10.739 21.11 9.711C20.975 8.705 20.721 8.125 20.298 7.702C19.944 7.348 19.481 7.112 18.75 6.966V8.263C18.75 9.049 18.752 9.672 18.49 10.23C18.23 10.787 17.75 11.185 17.146 11.688L17.041 11.776L16.284 12.406C15.397 13.146 14.679 13.744 14.044 14.152C13.384 14.577 12.741 14.845 12 14.845C11.259 14.845 10.616 14.576 9.955 14.152C9.321 13.744 8.603 13.145 7.716 12.407L6.959 11.776C6.92367 11.7453 6.88867 11.716 6.854 11.688C6.25 11.185 5.771 10.788 5.51 10.23C5.249 9.672 5.25 9.05 5.25 8.263V6.966ZM8.357 2.835C7.759 2.915 7.467 3.059 7.263 3.263C7.059 3.467 6.915 3.759 6.835 4.357C6.752 4.976 6.75 5.8 6.75 7V8.127C6.75 9.117 6.767 9.377 6.868 9.593C6.969 9.81 7.158 9.989 7.919 10.623L8.639 11.223C9.572 12 10.219 12.538 10.767 12.89C11.296 13.23 11.655 13.345 12 13.345C12.345 13.345 12.704 13.231 13.233 12.89C13.78 12.538 14.428 12 15.361 11.223L16.081 10.623C16.842 9.989 17.031 9.81 17.132 9.593C17.233 9.377 17.25 9.118 17.25 8.127V7C17.25 5.8 17.248 4.976 17.165 4.357C17.085 3.759 16.941 3.467 16.737 3.263C16.533 3.059 16.241 2.915 15.643 2.835C15.024 2.752 14.2 2.75 13 2.75H11C9.8 2.75 8.976 2.752 8.357 2.835ZM9.25 6C9.25 5.80109 9.32902 5.61032 9.46967 5.46967C9.61032 5.32902 9.80109 5.25 10 5.25H14C14.1989 5.25 14.3897 5.32902 14.5303 5.46967C14.671 5.61032 14.75 5.80109 14.75 6C14.75 6.19891 14.671 6.38968 14.5303 6.53033C14.3897 6.67098 14.1989 6.75 14 6.75H10C9.80109 6.75 9.61032 6.67098 9.46967 6.53033C9.32902 6.38968 9.25 6.19891 9.25 6ZM10.25 9C10.25 8.80109 10.329 8.61032 10.4697 8.46967C10.6103 8.32902 10.8011 8.25 11 8.25H13C13.1989 8.25 13.3897 8.32902 13.5303 8.46967C13.671 8.61032 13.75 8.80109 13.75 9C13.75 9.19891 13.671 9.38968 13.5303 9.53033C13.3897 9.67098 13.1989 9.75 13 9.75H11C10.8011 9.75 10.6103 9.67098 10.4697 9.53033C10.329 9.38968 10.25 9.19891 10.25 9Z" fill="black"/>
</g>
<defs>
<clipPath id="clip0_221_13593">
<rect width="24" height="24" fill="white"/>
</clipPath>
</defs>
</svg>
