<svg width="24" height="24" viewBox="0 0 24 24" fill="none" xmlns="http://www.w3.org/2000/svg">
<path fill-rule="evenodd" clip-rule="evenodd" d="M11.8464 3.74859C12.2389 3.74859 12.5568 4.06647 12.5568 4.459C12.5568 4.47822 12.5568 4.49818 12.5568 4.5174C12.5568 4.9092 12.2389 5.22708 11.8464 5.22708C11.0399 5.22708 9.83491 5.22708 9.83491 5.22708C7.95502 5.22708 6.62069 5.22929 5.60646 5.36531H5.6072C4.61587 5.49838 4.04444 5.74898 3.62603 6.16591C3.21058 6.58284 2.95997 7.15428 2.82691 8.1456C2.69089 9.1591 2.68867 10.4934 2.68867 12.3733C2.68867 14.2532 2.69089 15.5883 2.82691 16.6018C2.95997 17.5924 3.21058 18.1638 3.62751 18.5807C4.04444 18.9977 4.61587 19.2483 5.6072 19.3813C6.62069 19.5173 7.95502 19.5196 9.83491 19.5196H13.7773C15.6572 19.5196 16.993 19.5173 18.0057 19.3813C18.9963 19.2483 19.5685 18.9977 19.9854 18.5807C20.4024 18.1638 20.6522 17.5924 20.7853 16.601C20.9213 15.5875 20.9235 14.2532 20.9235 12.3733C20.9235 11.6659 20.9235 11.0353 20.9132 10.4705C20.9087 10.2731 20.9841 10.0817 21.1224 9.93974C21.2606 9.79854 21.4499 9.7187 21.648 9.7187C21.6509 9.7187 21.6546 9.7187 21.6583 9.7187C22.0583 9.7187 22.3843 10.0381 22.3931 10.438C22.4027 11.0139 22.4027 11.6392 22.4027 12.3179V12.4288C22.4027 14.2399 22.4027 15.6755 22.2519 16.7977C22.0967 17.9531 21.7692 18.8882 21.0322 19.6267C20.2937 20.3638 19.3586 20.6913 18.2031 20.8472C17.0795 20.998 15.6453 20.998 13.8335 20.998H9.78095C7.96907 20.998 6.5342 20.998 5.4113 20.8472C4.25586 20.6913 3.32072 20.3638 2.58222 19.6267C1.8452 18.8882 1.51772 17.9531 1.36248 16.7977C1.21167 15.674 1.21167 14.2399 1.21167 12.4288V12.3179C1.21167 10.5067 1.21167 9.07113 1.36248 7.94896C1.51772 6.79353 1.8452 5.85839 2.58222 5.11989C3.32072 4.38286 4.25586 4.05538 5.4113 3.8994C6.53494 3.74859 7.96907 3.74859 9.78095 3.74859H11.8464Z" fill="black"/>
<path fill-rule="evenodd" clip-rule="evenodd" d="M15.275 9.71869C15.5877 9.71869 15.8664 9.91459 15.9721 10.2081C16.0778 10.5015 15.9876 10.8305 15.7474 11.0294C15.4628 11.2652 15.2543 11.4374 15.2543 11.4374C14.3798 12.1671 14.4485 12.1212 13.8231 12.5234C13.1726 12.9418 12.5383 13.2064 11.808 13.2064C11.0776 13.2064 10.4441 12.941 9.79279 12.5234C9.16739 12.1212 8.45994 11.5306 7.58542 10.8032L5.42018 8.99941C5.25163 8.85896 5.15405 8.65049 5.15405 8.43094C5.15405 8.25795 5.21467 8.09015 5.32556 7.95782H5.32334C5.58355 7.6466 6.05297 7.60372 6.36419 7.8632L8.49542 9.6359C9.41504 10.4018 10.053 10.9325 10.5926 11.2792C11.1146 11.6141 11.4679 11.7279 11.808 11.7279C12.148 11.7279 12.5021 11.6156 13.0233 11.2792C13.0233 11.2792 14.3088 10.2724 14.8145 9.87615C14.9453 9.77414 15.1057 9.71869 15.2713 9.71869C15.2728 9.71869 15.275 9.71869 15.275 9.71869Z" fill="black"/>
<path fill-rule="evenodd" clip-rule="evenodd" d="M18.8407 2.36732C19.2465 2.36732 19.581 2.70183 19.5815 3.10817L19.5815 5.16346L21.6368 5.16346C21.8423 5.15612 22.0416 5.23477 22.1873 5.38052C22.4747 5.66785 22.4752 6.1413 22.1873 6.42914C22.0421 6.57438 21.8418 6.65302 21.6363 6.64568L19.581 6.64568L19.581 8.70097C19.5883 8.9065 19.5102 9.10626 19.365 9.2515C19.0771 9.53934 18.6037 9.53882 18.3164 9.2515C18.1706 9.10574 18.092 8.9065 18.0993 8.70097L18.0993 6.64568L16.044 6.64568C15.8385 6.65302 15.6392 6.57438 15.4935 6.42862C15.2062 6.1413 15.2056 5.66785 15.4935 5.38C15.6387 5.23477 15.8385 5.15665 16.044 5.16399L18.0993 5.16399L18.0993 3.10869C18.0993 2.70183 18.4338 2.36732 18.8407 2.36732Z" fill="black"/>
</svg>
