<svg width="24" height="24" viewBox="0 0 24 24" fill="none" xmlns="http://www.w3.org/2000/svg">
<path fill-rule="evenodd" clip-rule="evenodd" d="M11.9527 3.48837C12.351 3.48837 12.6735 3.81087 12.6735 4.20912C12.6735 4.22862 12.6735 4.24887 12.6735 4.26837C12.6735 4.66587 12.351 4.98837 11.9527 4.98837C11.1345 4.98837 9.91196 4.98837 9.91196 4.98837C8.00471 4.98837 6.65096 4.99062 5.62196 5.12862H5.62271C4.61696 5.26362 4.03721 5.51787 3.61271 5.94087C3.19121 6.36387 2.93696 6.94362 2.80196 7.94937C2.66396 8.97762 2.66171 10.3314 2.66171 12.2386C2.66171 14.1459 2.66396 15.5004 2.80196 16.5286C2.93696 17.5336 3.19121 18.1134 3.61421 18.5364C4.03721 18.9594 4.61696 19.2136 5.62271 19.3486C6.65096 19.4866 8.00471 19.4889 9.91196 19.4889H13.9117C15.819 19.4889 17.1742 19.4866 18.2017 19.3486C19.2067 19.2136 19.7872 18.9594 20.2102 18.5364C20.6332 18.1134 20.8867 17.5336 21.0217 16.5279C21.1597 15.4996 21.162 14.1459 21.162 12.2386C21.162 11.5209 21.162 10.8811 21.1515 10.3081C21.147 10.1079 21.2235 9.91362 21.3637 9.76962C21.504 9.62637 21.696 9.54537 21.897 9.54537C21.9 9.54537 21.9037 9.54537 21.9075 9.54537C22.3132 9.54537 22.644 9.86937 22.653 10.2751C22.6627 10.8594 22.6627 11.4939 22.6627 12.1824V12.2949C22.6627 14.1324 22.6627 15.5889 22.5097 16.7274C22.3522 17.8996 22.02 18.8484 21.2722 19.5976C20.523 20.3454 19.5742 20.6776 18.402 20.8359C17.262 20.9889 15.807 20.9889 13.9687 20.9889H9.85721C8.01896 20.9889 6.56321 20.9889 5.42396 20.8359C4.25171 20.6776 3.30296 20.3454 2.55371 19.5976C1.80596 18.8484 1.47371 17.8996 1.31621 16.7274C1.16321 15.5874 1.16321 14.1324 1.16321 12.2949V12.1824C1.16321 10.3449 1.16321 8.88837 1.31621 7.74987C1.47371 6.57762 1.80596 5.62887 2.55371 4.87962C3.30296 4.13187 4.25171 3.79962 5.42396 3.64137C6.56396 3.48837 8.01896 3.48837 9.85721 3.48837H11.9527Z" fill="black"/>
<path fill-rule="evenodd" clip-rule="evenodd" d="M17.3479 2.38761C17.6391 2.09647 18.119 2.09647 18.4109 2.38761L19.8854 3.86207L21.3598 2.38761C21.502 2.23489 21.7014 2.14838 21.9105 2.14838C22.3228 2.14838 22.6628 2.48766 22.6628 2.90066C22.6628 3.10904 22.5755 3.30915 22.4228 3.45133L20.9483 4.92579L22.4228 6.40025C22.5755 6.54243 22.6628 6.74179 22.6628 6.95017C22.6628 7.36317 22.3228 7.70244 21.9105 7.70244C21.7014 7.70244 21.502 7.61593 21.3598 7.46322L19.8854 5.98876L18.4109 7.46322C18.2687 7.61593 18.0694 7.70244 17.8602 7.70244C17.448 7.70244 17.108 7.36317 17.108 6.95017C17.108 6.74179 17.1952 6.54243 17.3479 6.40025L18.8224 4.92579L17.3479 3.45133C17.0561 3.15944 17.0561 2.67949 17.3479 2.38761Z" fill="black"/>
<path fill-rule="evenodd" clip-rule="evenodd" d="M15.4312 9.54537C15.7485 9.54537 16.0312 9.74412 16.1385 10.0419C16.2457 10.3396 16.1542 10.6734 15.9105 10.8751C15.6217 11.1144 15.4102 11.2891 15.4102 11.2891C14.523 12.0294 14.5927 11.9829 13.9582 12.3909C13.2982 12.8154 12.6547 13.0839 11.9137 13.0839C11.1727 13.0839 10.53 12.8146 9.86921 12.3909C9.23471 11.9829 8.51696 11.3836 7.62971 10.6456L5.43296 8.81562C5.26196 8.67312 5.16296 8.46162 5.16296 8.23887C5.16296 8.06337 5.22446 7.89312 5.33696 7.75887H5.33471C5.59871 7.44312 6.07496 7.39962 6.39071 7.66287L8.55296 9.46137C9.48596 10.2384 10.1332 10.7769 10.6807 11.1286C11.2102 11.4684 11.5687 11.5839 11.9137 11.5839C12.2587 11.5839 12.618 11.4699 13.1467 11.1286C13.1467 11.1286 14.451 10.1071 14.964 9.70512C15.0967 9.60162 15.2595 9.54537 15.4275 9.54537C15.429 9.54537 15.4312 9.54537 15.4312 9.54537Z" fill="black"/>
</svg>
