<svg width="24" height="24" viewBox="0 0 24 24" fill="none" xmlns="http://www.w3.org/2000/svg">
<g clip-path="url(#clip0_221_13582)">
<path fill-rule="evenodd" clip-rule="evenodd" d="M13.337 1.25H15.663C16.858 1.25 17.809 1.25 18.571 1.322C19.352 1.397 20.013 1.552 20.601 1.913C21.2068 2.28439 21.716 2.79396 22.087 3.4C22.447 3.988 22.603 4.649 22.677 5.43C22.75 6.192 22.75 7.143 22.75 8.338V9.153C22.75 10.003 22.75 10.68 22.712 11.229C22.674 11.79 22.594 12.272 22.407 12.723C22.181 13.269 21.8496 13.7652 21.4318 14.1832C21.014 14.6012 20.518 14.9327 19.972 15.159C19.592 15.316 19.189 15.398 18.731 15.443C18.725 15.583 18.7183 15.7157 18.711 15.841C18.67 16.437 18.585 16.945 18.388 17.419C17.9059 18.5825 16.9815 19.5069 15.818 19.989C15.221 20.237 14.563 20.309 13.735 20.336C13.289 20.35 13.005 20.36 12.788 20.386C12.584 20.411 12.507 20.444 12.465 20.469C12.419 20.496 12.355 20.546 12.245 20.699C12.125 20.864 11.989 21.092 11.775 21.455L11.515 21.893C10.838 23.037 9.162 23.037 8.485 21.893L8.225 21.455C8.011 21.092 7.875 20.864 7.755 20.699C7.645 20.546 7.581 20.496 7.535 20.469C7.493 20.444 7.416 20.411 7.212 20.386C6.89712 20.3569 6.5812 20.3402 6.265 20.336C5.437 20.309 4.779 20.236 4.182 19.989C3.0185 19.5069 2.09409 18.5825 1.612 17.419C1.415 16.945 1.33 16.437 1.29 15.841C1.25 15.257 1.25 14.537 1.25 13.628V12.762C1.25 11.486 1.25 10.474 1.327 9.664C1.406 8.834 1.571 8.138 1.95 7.519C2.34151 6.87958 2.87883 6.34192 3.518 5.95C4.137 5.57 4.833 5.406 5.663 5.327C5.873 5.307 6.098 5.29167 6.338 5.281C6.418 4.561 6.578 3.947 6.913 3.399C7.28439 2.79321 7.79396 2.28398 8.4 1.913C8.988 1.553 9.649 1.397 10.43 1.323C11.192 1.25 12.143 1.25 13.337 1.25ZM7.852 5.251L8.76 5.25H11.238C12.514 5.25 13.526 5.25 14.336 5.327C15.166 5.406 15.862 5.571 16.481 5.95C17.1201 6.34164 17.6574 6.87894 18.049 7.518C18.429 8.137 18.593 8.833 18.672 9.663C18.749 10.473 18.749 11.485 18.749 12.761V13.93C18.9711 13.9065 19.189 13.8534 19.397 13.772C19.7611 13.6212 20.0919 13.4002 20.3706 13.1216C20.6492 12.8429 20.8702 12.5121 21.021 12.148C21.119 11.91 21.181 11.611 21.215 11.126C21.249 10.634 21.249 10.009 21.249 9.125V8.375C21.249 7.133 21.249 6.255 21.183 5.571C21.119 4.9 20.999 4.496 20.807 4.183C20.5597 3.77954 20.2205 3.4403 19.817 3.193C19.503 3 19.099 2.88 18.427 2.816C17.745 2.751 16.866 2.75 15.624 2.75H13.374C12.132 2.75 11.253 2.75 10.57 2.816C9.899 2.88 9.495 3 9.181 3.192C8.77754 3.4393 8.4383 3.77854 8.191 4.182C8.031 4.445 7.921 4.766 7.852 5.251ZM5.804 6.822C5.084 6.89 4.644 7.02 4.301 7.23C3.86368 7.49799 3.49599 7.86568 3.228 8.303C3.018 8.646 2.888 9.086 2.819 9.806C2.749 10.536 2.749 11.477 2.749 12.801V13.601C2.749 14.543 2.749 15.212 2.785 15.739C2.821 16.259 2.888 16.584 2.996 16.845C3.15944 17.2394 3.399 17.5978 3.70099 17.8996C4.00298 18.2014 4.36148 18.4408 4.756 18.604C5.089 18.742 5.52 18.811 6.312 18.836L6.343 18.837C6.749 18.85 7.101 18.862 7.393 18.897C7.703 18.935 8.008 19.007 8.297 19.177C8.582 19.347 8.788 19.57 8.967 19.817C9.134 20.047 9.305 20.336 9.5 20.664L9.775 21.129C9.79795 21.1676 9.83086 21.1992 9.87027 21.2207C9.90968 21.2422 9.95415 21.2526 9.999 21.251C10.0438 21.2526 10.0883 21.2422 10.1277 21.2207C10.1671 21.1992 10.2001 21.1676 10.223 21.129L10.498 20.664C10.692 20.336 10.864 20.046 11.03 19.817C11.2054 19.5585 11.4338 19.3404 11.7 19.177C11.99 19.007 12.295 18.935 12.606 18.897C12.9547 18.8629 13.3047 18.8429 13.655 18.837H13.685C14.478 18.811 14.908 18.742 15.243 18.604C15.6374 18.4406 15.9958 18.201 16.2976 17.899C16.5994 17.597 16.8388 17.2385 17.002 16.844C17.11 16.584 17.177 16.258 17.212 15.739C17.249 15.212 17.249 14.543 17.249 13.601V12.801C17.249 11.477 17.249 10.537 17.179 9.806C17.11 9.086 16.98 8.646 16.77 8.303C16.502 7.86568 16.1343 7.49799 15.697 7.23C15.354 7.02 14.914 6.89 14.194 6.821C13.464 6.751 12.523 6.751 11.199 6.751H8.8C7.476 6.751 6.536 6.751 5.805 6.821" fill="black"/>
<path d="M10.5303 9.96967C10.3897 9.82902 10.1989 9.75 10 9.75C9.80109 9.75 9.61032 9.82902 9.46967 9.96967C9.32902 10.1103 9.25 10.3011 9.25 10.5V15.5C9.25 15.6989 9.32902 15.8897 9.46967 16.0303C9.61032 16.171 9.80109 16.25 10 16.25C10.1989 16.25 10.3897 16.171 10.5303 16.0303C10.671 15.8897 10.75 15.6989 10.75 15.5V10.5C10.75 10.3011 10.671 10.1103 10.5303 9.96967Z" fill="black"/>
<path d="M7.53033 11.4697C7.38968 11.329 7.19891 11.25 7 11.25C6.80109 11.25 6.61032 11.329 6.46967 11.4697C6.32902 11.6103 6.25 11.8011 6.25 12V14C6.25 14.1989 6.32902 14.3897 6.46967 14.5303C6.61032 14.671 6.80109 14.75 7 14.75C7.19891 14.75 7.38968 14.671 7.53033 14.5303C7.67098 14.3897 7.75 14.1989 7.75 14V12C7.75 11.8011 7.67098 11.6103 7.53033 11.4697Z" fill="black"/>
<path d="M13.5303 11.4697C13.3897 11.329 13.1989 11.25 13 11.25C12.8011 11.25 12.6103 11.329 12.4697 11.4697C12.329 11.6103 12.25 11.8011 12.25 12V14C12.25 14.1989 12.329 14.3897 12.4697 14.5303C12.6103 14.671 12.8011 14.75 13 14.75C13.1989 14.75 13.3897 14.671 13.5303 14.5303C13.671 14.3897 13.75 14.1989 13.75 14V12C13.75 11.8011 13.671 11.6103 13.5303 11.4697Z" fill="black"/>
</g>
<defs>
<clipPath id="clip0_221_13582">
<rect width="24" height="24" fill="white"/>
</clipPath>
</defs>
</svg>
