<svg width="24" height="24" viewBox="0 0 24 24" fill="none" xmlns="http://www.w3.org/2000/svg">
<path fill-rule="evenodd" clip-rule="evenodd" d="M7.1886 0.913118H7.31512C7.6655 0.913118 7.89084 0.913118 8.1117 0.932584C9.06175 1.02167 9.96239 1.39526 10.6968 2.00392C10.8668 2.14541 11.0262 2.30563 11.2748 2.55268L11.8498 3.12915C12.6942 3.97214 13.0192 4.28808 13.3942 4.49621C13.6129 4.61749 13.8419 4.71257 14.0823 4.78219C14.494 4.89898 14.9462 4.90572 16.1403 4.90572H16.5648C17.8353 4.90572 18.8602 4.90572 19.6703 5.00754C20.5095 5.1131 21.223 5.3392 21.8099 5.86625C21.908 5.95459 22.0008 6.04743 22.0899 6.1455C22.6177 6.73245 22.8423 7.44593 22.9479 8.28592C23.0497 9.09597 23.0497 10.1201 23.0497 11.3914V13.6972C23.0497 15.5307 23.0497 16.9839 22.897 18.1211C22.7398 19.2912 22.4081 20.2383 21.6617 20.9862C20.9138 21.7326 19.9667 22.0643 18.7966 22.2215C17.6586 22.3742 16.2062 22.3742 14.3712 22.3742H10.2671C8.43212 22.3742 6.97898 22.3742 5.84176 22.2215C4.6716 22.0643 3.72455 21.7326 2.97664 20.9862C2.23022 20.2383 1.89857 19.2912 1.74135 18.1211C1.58862 16.9831 1.58862 15.5307 1.58862 13.6957V6.5131C1.58862 5.71727 1.58862 5.21192 1.67023 4.7762C2.03108 2.86113 3.53664 1.35483 5.45171 0.993974C5.88893 0.911621 6.39352 0.911621 7.1886 0.911621M7.27844 2.40894C6.36283 2.40894 6.00946 2.41194 5.72796 2.46509C4.41856 2.7129 3.3899 3.7423 3.14284 5.05171C3.08894 5.33321 3.08594 5.68657 3.08594 6.60144V13.6403C3.08594 15.5434 3.08744 16.8963 3.22519 17.9227C3.35995 18.9259 3.61375 19.5046 4.03599 19.9268C4.45824 20.3491 5.03695 20.6029 6.04165 20.7376C7.06732 20.8754 8.4194 20.8769 10.3225 20.8769H14.3158C16.2189 20.8769 17.5718 20.8754 18.5982 20.7376C19.6014 20.6029 20.1801 20.3491 20.6023 19.9268C21.0246 19.5046 21.2784 18.9259 21.4131 17.9212C21.5509 16.8963 21.5524 15.5434 21.5524 13.6403V11.4423C21.5524 10.1082 21.5516 9.17907 21.4626 8.47234C21.3757 7.78432 21.217 7.41448 20.9767 7.14646C20.9243 7.08732 20.8681 7.03117 20.809 6.97876C20.5417 6.73844 20.1704 6.57973 19.4831 6.49288C18.7779 6.40379 17.8473 6.40304 16.5139 6.40304H16.0303C14.9844 6.40304 14.3099 6.40304 13.672 6.22112C13.3224 6.12155 12.984 5.98155 12.6658 5.80486C12.0863 5.48144 11.6094 5.00529 10.869 4.26487L10.7919 4.18701L10.2431 3.63824C10.0829 3.47054 9.91522 3.30958 9.74078 3.15685C9.23843 2.7406 8.62228 2.4853 7.9732 2.42391C7.74186 2.40969 7.50978 2.40445 7.27844 2.41044" fill="black"/>
<path fill-rule="evenodd" clip-rule="evenodd" d="M14.595 14.402C14.315 15.404 13.383 16.141 12.276 16.141C11.439 16.143 10.658 15.71 10.218 14.999C10.101 14.81 9.89304 14.694 9.67104 14.694C9.31804 14.694 9.02704 14.985 9.02704 15.338C9.02704 15.457 9.06103 15.574 9.12303 15.675C9.79903 16.765 10.994 17.43 12.276 17.427C14.091 17.427 15.602 16.129 15.91 14.416C15.919 14.417 15.929 14.417 15.938 14.417C16.291 14.417 16.581 14.126 16.581 13.774C16.581 13.598 16.509 13.431 16.383 13.31L16.384 13.311L15.777 12.71C15.528 12.464 15.121 12.464 14.872 12.711L14.263 13.313C14.14 13.434 14.072 13.599 14.072 13.77C14.072 14.083 14.299 14.346 14.595 14.402ZM8.72203 12.645C8.71503 12.645 8.70904 12.645 8.70204 12.645C8.34904 12.645 8.05804 12.935 8.05804 13.288C8.05804 13.46 8.12704 13.624 8.24904 13.745L8.85603 14.348C9.10503 14.594 9.51304 14.594 9.76204 14.348L10.37 13.745C10.491 13.624 10.56 13.46 10.56 13.288C10.56 12.977 10.334 12.714 10.038 12.657C10.317 11.655 11.244 10.918 12.347 10.918C13.181 10.916 13.957 11.349 14.394 12.058C14.396 12.061 14.397 12.064 14.399 12.066C14.518 12.248 14.721 12.358 14.938 12.358C15.291 12.358 15.581 12.068 15.581 11.715C15.581 11.602 15.551 11.49 15.494 11.392C15.493 11.389 15.491 11.387 15.489 11.384C14.818 10.294 13.626 9.62998 12.346 9.63098C10.536 9.63198 9.02803 10.932 8.72203 12.645ZM14.716 14.336V14.314L14.715 14.339L14.716 14.336ZM14.719 14.314V14.321L14.721 14.313L14.719 14.314Z" fill="black"/>
</svg>
