<svg width="24" height="24" viewBox="0 0 24 24" fill="none" xmlns="http://www.w3.org/2000/svg">
<g clip-path="url(#clip0_221_14252)">
<path fill-rule="evenodd" clip-rule="evenodd" d="M16.394 2.02101L16.46 2.03901C17.56 2.33401 18.431 2.56701 19.116 2.81501C19.817 3.06801 20.389 3.35701 20.86 3.79801C21.5455 4.44054 22.0251 5.27192 22.238 6.18701C22.385 6.81501 22.35 7.45501 22.218 8.18801C22.091 8.90601 21.858 9.77701 21.563 10.876L21.027 12.875C20.733 13.974 20.499 14.845 20.252 15.531C19.998 16.231 19.709 16.803 19.268 17.274C18.6465 17.9377 17.8475 18.409 16.966 18.632C16.7077 19.2241 16.3314 19.7573 15.86 20.199C15.389 20.64 14.817 20.929 14.116 21.183C13.431 21.431 12.56 21.664 11.461 21.959L11.394 21.977C10.294 22.271 9.42401 22.504 8.70601 22.633C7.97301 22.764 7.33301 22.799 6.70401 22.653C5.78904 22.4393 4.958 21.9591 4.31601 21.273C3.87601 20.803 3.58601 20.231 3.33201 19.53C3.08501 18.845 2.85201 17.974 2.55701 16.874L2.02101 14.876C1.72701 13.776 1.49301 12.906 1.36501 12.188C1.23401 11.455 1.19901 10.815 1.34501 10.186C1.5587 9.27104 2.03895 8.44 2.72501 7.79801C3.19501 7.35801 3.76701 7.06801 4.46801 6.81401C5.15301 6.56701 6.02401 6.33401 7.12301 6.03901L7.15701 6.02901L7.90801 5.82901C8.30001 4.43001 8.64401 3.44101 9.31601 2.72401C9.95814 2.03832 10.7892 1.55843 11.704 1.34501C12.333 1.19901 12.972 1.23401 13.706 1.36501C14.423 1.49301 15.294 1.72701 16.394 2.02101ZM7.45501 7.50301C6.36201 7.79601 5.57901 8.00801 4.97701 8.22501C4.36701 8.44501 4.01001 8.64901 3.75001 8.89301C3.28066 9.33232 2.95214 9.90097 2.80601 10.527C2.72601 10.875 2.72701 11.287 2.84201 11.924C2.95701 12.571 3.17401 13.381 3.47901 14.521L3.99701 16.453C4.30201 17.593 4.52001 18.403 4.74301 19.02C4.96301 19.63 5.16701 19.988 5.41101 20.248C5.85032 20.7174 6.41897 21.0459 7.04501 21.192C7.39201 21.272 7.80501 21.27 8.44201 21.156C9.08901 21.041 9.89901 20.824 11.039 20.519C12.179 20.213 12.989 19.996 13.607 19.772C14.216 19.552 14.574 19.348 14.834 19.105C14.972 18.975 15.0973 18.8353 15.21 18.686C15.0245 18.6595 14.8398 18.6279 14.656 18.591C13.984 18.457 13.176 18.241 12.181 17.974L12.123 17.959C11.024 17.664 10.153 17.431 9.46801 17.183C8.76701 16.93 8.19501 16.641 7.72401 16.2C7.03815 15.5576 6.55824 14.7262 6.34501 13.811C6.19901 13.183 6.23401 12.543 6.36501 11.81C6.49301 11.092 6.72701 10.221 7.02101 9.12201L7.45501 7.50301ZM13.442 2.84201C12.804 2.72701 12.392 2.72501 12.045 2.80601C11.419 2.95214 10.8503 3.28066 10.411 3.75001C9.97501 4.21501 9.70601 4.93501 9.24001 6.64301L8.99701 7.54501L8.47901 9.47701C8.17401 10.617 7.95701 11.427 7.84201 12.074C7.72701 12.711 7.72501 13.124 7.80601 13.471C7.95214 14.0971 8.28066 14.6657 8.75001 15.105C9.01001 15.349 9.36801 15.552 9.97701 15.773C10.595 15.996 11.405 16.213 12.545 16.519C13.57 16.794 14.33 16.997 14.948 17.119C15.563 17.242 15.981 17.272 16.323 17.23C16.3977 17.22 16.4697 17.2073 16.539 17.192C17.1651 17.0459 17.7337 16.7174 18.173 16.248C18.417 15.988 18.621 15.63 18.841 15.021C19.064 14.403 19.281 13.593 19.587 12.453L20.105 10.521C20.41 9.38101 20.627 8.57101 20.742 7.92401C20.856 7.28701 20.859 6.87401 20.778 6.52701C20.6319 5.90097 20.3034 5.33232 19.834 4.89301C19.574 4.64901 19.216 4.44601 18.607 4.22501C17.988 4.00201 17.179 3.78501 16.039 3.47901C14.899 3.17401 14.089 2.95701 13.442 2.84201Z" fill="black"/>
<path fill-rule="evenodd" clip-rule="evenodd" d="M14.0474 6.00309L13.9364 6C13.6385 6 13.3663 6.0791 13.0725 6.22189C12.8434 6.33283 12.5764 6.4972 12.2456 6.70265L11.5779 7.11663C11.2645 7.31181 11.0139 7.46794 10.8208 7.61587C10.5753 7.80386 10.3914 7.99904 10.2548 8.24764C10.1192 8.49418 10.0534 8.75509 10.0247 9.06532V9.06635C10.001 9.31187 10 9.61286 10 9.98986V10.5117C10 11.1517 10.0021 11.6561 10.0534 12.0516C10.1181 12.5508 10.2691 12.9473 10.5773 13.2658C10.8896 13.5894 11.282 13.7486 11.7751 13.8164C12.1593 13.8698 12.6513 13.8718 13.2718 13.8718H14.6011C15.2215 13.8718 15.7136 13.8698 16.0978 13.8164C16.5909 13.7486 16.9823 13.5894 17.2956 13.2658C17.6027 12.9473 17.7547 12.5508 17.8195 12.0516C17.8708 11.6561 17.8729 11.1517 17.8729 10.5117V9.98986C17.8729 9.61286 17.8718 9.31187 17.8482 9.06635C17.8195 8.7551 17.7537 8.49418 17.6181 8.24764C17.4825 7.99904 17.2976 7.80386 17.0521 7.61587C16.859 7.46794 16.6083 7.31181 16.295 7.11663L15.6273 6.70265C15.2965 6.4972 15.0305 6.33283 14.8014 6.22189C14.5446 6.09657 14.3032 6.02055 14.0474 6.00309ZM14.3227 12.4635H14.5826C15.1712 12.4635 15.5883 12.4645 15.9047 12.4214C16.0896 12.3957 16.2046 12.3679 16.2827 12.2868C16.3659 12.2005 16.3957 12.0742 16.4224 11.8697C16.4645 11.539 16.4635 11.1034 16.4635 10.4932V10.0022C16.4635 9.64675 16.4645 9.39611 16.445 9.19785C16.4337 9.07458 16.4193 8.99342 16.3823 8.92459C16.3453 8.85885 16.2878 8.80543 16.1954 8.73455C16.0413 8.61642 15.8348 8.49007 15.541 8.30721L14.8949 7.90659C14.5846 7.71449 14.3679 7.57786 14.185 7.48952L14.184 7.4885C14.0792 7.43816 14.0083 7.40939 13.9364 7.40939C13.8645 7.40939 13.7937 7.43816 13.6889 7.4885C13.506 7.57787 13.2882 7.71346 12.978 7.90659L12.3319 8.30721C12.0381 8.49007 11.8316 8.61642 11.6785 8.73455C11.6775 8.73455 11.6775 8.73455 11.6775 8.73455C11.585 8.80543 11.5265 8.85885 11.4905 8.92459C11.4536 8.99342 11.4392 9.07458 11.4279 9.19785C11.4084 9.39611 11.4094 9.64778 11.4094 10.0022V10.4932C11.4094 11.1034 11.4073 11.539 11.4515 11.8697C11.4772 12.0731 11.507 12.1995 11.5902 12.2858C11.6693 12.3669 11.7843 12.3947 11.9682 12.4214C12.2846 12.4645 12.7017 12.4635 13.2903 12.4635H13.5502C13.3591 12.3361 13.2317 12.1193 13.2317 11.8749V10.9051C13.2317 10.5189 13.5502 10.2015 13.9364 10.2015C14.3227 10.2015 14.6411 10.5189 14.6411 10.9051V11.8749C14.6411 12.1193 14.5137 12.3361 14.3227 12.4635Z" fill="black"/>
</g>
<defs>
<clipPath id="clip0_221_14252">
<rect width="24" height="24" fill="white"/>
</clipPath>
</defs>
</svg>
