<svg width="24" height="24" viewBox="0 0 24 24" fill="none" xmlns="http://www.w3.org/2000/svg">
<g clip-path="url(#clip0_221_13956)">
<path fill-rule="evenodd" clip-rule="evenodd" d="M6.86 1.24999H6.987C7.338 1.24999 7.564 1.24999 7.785 1.26999C8.73662 1.35894 9.63928 1.7329 10.375 2.34299C10.545 2.48499 10.705 2.64499 10.954 2.89299L11.53 3.46999C12.376 4.31499 12.701 4.63099 13.077 4.83999C13.2957 4.96133 13.5253 5.05666 13.766 5.12599C14.179 5.24299 14.632 5.24999 15.828 5.24999H16.253C17.526 5.24999 18.553 5.24999 19.364 5.35199C20.205 5.45799 20.92 5.68399 21.508 6.21199C21.606 6.30066 21.6993 6.39399 21.788 6.49199C22.317 7.07999 22.542 7.79499 22.648 8.63599C22.75 9.44799 22.75 10.474 22.75 11.747V14.057C22.75 15.894 22.75 17.35 22.597 18.489C22.439 19.661 22.107 20.61 21.359 21.359C20.61 22.107 19.661 22.439 18.489 22.597C17.349 22.75 15.894 22.75 14.056 22.75H9.944C8.106 22.75 6.65 22.75 5.511 22.597C4.339 22.439 3.39 22.107 2.641 21.359C1.893 20.61 1.561 19.661 1.403 18.489C1.25 17.349 1.25 15.894 1.25 14.056V6.85999C1.25 6.06299 1.25 5.55699 1.332 5.11999C1.50884 4.18062 1.96499 3.31645 2.6408 2.64045C3.31662 1.96445 4.18067 1.50808 5.12 1.33099C5.558 1.24899 6.064 1.24899 6.86 1.24899M6.95 2.74899C6.033 2.74899 5.679 2.75199 5.397 2.80499C4.75483 2.92639 4.16417 3.23857 3.70213 3.70078C3.2401 4.163 2.92815 4.75377 2.807 5.39599C2.753 5.67799 2.75 6.03199 2.75 6.94899V14C2.75 15.907 2.752 17.262 2.89 18.29C3.025 19.295 3.279 19.875 3.702 20.298C4.125 20.721 4.705 20.975 5.711 21.11C6.739 21.248 8.093 21.25 10 21.25H14C15.907 21.25 17.262 21.248 18.29 21.11C19.295 20.975 19.875 20.721 20.298 20.298C20.721 19.875 20.975 19.295 21.11 18.289C21.248 17.262 21.25 15.907 21.25 14V11.798C21.25 10.462 21.249 9.53099 21.16 8.82299C21.073 8.13399 20.914 7.76299 20.673 7.49499C20.6204 7.43571 20.5643 7.37961 20.505 7.32699C20.237 7.08599 19.865 6.92699 19.177 6.83999C18.47 6.75099 17.538 6.74999 16.202 6.74999H15.718C14.67 6.74999 13.994 6.74999 13.355 6.56799C13.005 6.46799 12.666 6.32799 12.347 6.15099C11.767 5.82699 11.289 5.34999 10.547 4.60799L10.47 4.52999L9.92 3.97999C9.75941 3.8121 9.59159 3.65128 9.417 3.49799C8.9139 3.08082 8.29671 2.82502 7.646 2.76399C7.41431 2.74923 7.18209 2.74356 6.95 2.74899ZM12 11.25C12.1989 11.25 12.3897 11.329 12.5303 11.4697C12.671 11.6103 12.75 11.8011 12.75 12V13.25H14C14.1989 13.25 14.3897 13.329 14.5303 13.4697C14.671 13.6103 14.75 13.8011 14.75 14C14.75 14.1989 14.671 14.3897 14.5303 14.5303C14.3897 14.671 14.1989 14.75 14 14.75H12.75V16C12.75 16.1989 12.671 16.3897 12.5303 16.5303C12.3897 16.671 12.1989 16.75 12 16.75C11.8011 16.75 11.6103 16.671 11.4697 16.5303C11.329 16.3897 11.25 16.1989 11.25 16V14.75H10C9.80109 14.75 9.61032 14.671 9.46967 14.5303C9.32902 14.3897 9.25 14.1989 9.25 14C9.25 13.8011 9.32902 13.6103 9.46967 13.4697C9.61032 13.329 9.80109 13.25 10 13.25H11.25V12C11.25 11.8011 11.329 11.6103 11.4697 11.4697C11.6103 11.329 11.8011 11.25 12 11.25Z" fill="black"/>
</g>
<defs>
<clipPath id="clip0_221_13956">
<rect width="24" height="24" fill="white"/>
</clipPath>
</defs>
</svg>
