<svg width="24" height="24" viewBox="0 0 24 24" fill="none" xmlns="http://www.w3.org/2000/svg">
<path fill-rule="evenodd" clip-rule="evenodd" d="M12.2497 2.83403C11.7899 2.75602 11.1622 2.75002 10.0296 2.75002C8.11261 2.75002 6.74984 2.75152 5.71782 2.88953C4.70606 3.02453 4.1248 3.27953 3.70179 3.70179C3.27878 4.12405 3.02453 4.70456 2.88953 5.71107C2.75152 6.73859 2.75002 8.09311 2.75002 10.0011V14.001C2.75002 15.9067 2.75152 17.2613 2.88953 18.2888C3.02453 19.2953 3.27878 19.8751 3.70179 20.2988C4.1248 20.7211 4.70456 20.9753 5.71107 21.1103C6.73859 21.2491 8.09311 21.2498 9.99964 21.2498H14.0002C15.9067 21.2498 17.262 21.2483 18.2903 21.1103C19.2953 20.9753 19.875 20.7211 20.2981 20.2981C20.7211 19.875 20.9753 19.2953 21.1103 18.2888C21.2483 17.262 21.2498 15.9067 21.2498 14.0002V13.5629C21.2498 12.0269 21.2401 11.2987 21.0758 10.7497H17.946C16.8128 10.7497 15.888 10.7497 15.156 10.6522C14.3932 10.5486 13.731 10.3266 13.2022 9.79789C12.6727 9.26913 12.4507 8.60762 12.3479 7.84261C12.2497 7.11284 12.2497 6.18658 12.2497 5.05256V2.83403ZM13.7497 3.60954V5.00006C13.7497 6.20008 13.752 7.02359 13.8352 7.6431C13.9147 8.24086 14.0587 8.53412 14.2627 8.73662C14.4667 8.93987 14.7592 9.08463 15.357 9.16488C15.9757 9.24813 16.8 9.24963 18 9.24963H20.0198C19.6365 8.88437 19.2465 8.52587 18.8498 8.17411L14.8912 4.6108C14.5177 4.26955 14.1375 3.93579 13.7497 3.60954ZM10.1751 1.25C11.5597 1.25 12.4552 1.25 13.2779 1.565C14.1007 1.88076 14.763 2.47702 15.7882 3.39953L15.8947 3.49554L19.8533 7.05884L19.9778 7.1706C21.1621 8.23561 21.9278 8.92487 22.3388 9.84889C22.7498 10.7729 22.7513 11.8027 22.7498 13.3949V14.0557C22.7498 15.894 22.7498 17.3498 22.5968 18.489C22.4393 19.6613 22.1071 20.6101 21.3593 21.3593C20.6101 22.1071 19.6613 22.4393 18.489 22.5968C17.349 22.7498 15.894 22.7498 14.0557 22.7498H9.94414C8.10586 22.7498 6.65009 22.7498 5.51082 22.5968C4.33855 22.4393 3.38978 22.1071 2.64052 21.3593C1.89276 20.6101 1.56051 19.6613 1.403 18.489C1.25 17.349 1.25 15.894 1.25 14.0557V9.94489C1.25 8.10661 1.25 6.65084 1.403 5.51157C1.56051 4.34005 1.89276 3.39053 2.64052 2.64202C3.39053 1.89276 4.34155 1.562 5.51907 1.40375C6.66284 1.25075 8.12611 1.25075 9.97414 1.25075H10.1759" fill="black"/>
<path d="M10.7285 14.6672C10.7285 14.9318 10.9433 15.1465 11.2079 15.1465H11.6489L10.3623 16.4331C10.3326 16.4633 10.2918 16.4801 10.2492 16.4801C10.207 16.4801 10.1663 16.4633 10.1361 16.4331L9.12269 15.4198C8.68887 14.9859 7.97511 14.9859 7.54129 15.4198L6.07589 16.8852C5.97858 16.9758 5.92297 17.1028 5.92297 17.236C5.92297 17.4987 6.13964 17.7154 6.40233 17.7154C6.53559 17.7154 6.66262 17.6598 6.75322 17.5625L8.21862 16.0971C8.24882 16.0669 8.28957 16.0501 8.33175 16.0501C8.37441 16.0501 8.41516 16.0669 8.44488 16.0971L9.45872 17.1109C9.89254 17.5443 10.6063 17.5443 11.0401 17.1109L12.3267 15.8248V16.2653C12.3267 16.528 12.5429 16.7447 12.8061 16.7447C13.0688 16.7447 13.2854 16.528 13.2854 16.2653V14.6672C13.2854 14.4045 13.0688 14.1878 12.8061 14.1878H11.2079C10.9452 14.1878 10.7285 14.4045 10.7285 14.6672Z" fill="black"/>
<path fill-rule="evenodd" clip-rule="evenodd" d="M5.17276 11.3221V18.7002C5.17276 19.1152 5.50877 19.4502 5.92278 19.4502H12.9279C13.3419 19.4502 13.6779 19.1142 13.6779 18.7002C13.6779 18.2862 13.3419 17.9502 12.9279 17.9502H6.67279V11.3221C6.67279 10.9081 6.33678 10.5721 5.92278 10.5721C5.50877 10.5721 5.17276 10.9081 5.17276 11.3221Z" fill="black"/>
</svg>
