<svg width="24" height="24" viewBox="0 0 24 24" fill="none" xmlns="http://www.w3.org/2000/svg">
<path fill-rule="evenodd" clip-rule="evenodd" d="M12.6639 1.42862H12.5082C11.0652 1.42862 9.92276 1.42961 9.0292 1.54961C8.07415 1.67754 7.30554 1.95127 6.69661 2.55921C6.08967 3.16615 5.81595 3.93376 5.68703 4.88484L5.64835 5.99658L4.86983 6.02436C3.91478 6.15229 3.14518 6.42601 2.53724 7.03394C1.93029 7.64089 1.65559 8.4085 1.52766 9.35958C1.40766 10.2492 1.40765 11.3857 1.40765 12.8218V16.0102C1.40765 17.4463 1.40766 18.5818 1.52766 19.4724C1.65559 20.4235 1.93029 21.1911 2.53724 21.798C3.14518 22.405 3.91279 22.6797 4.86288 22.8076C5.75247 22.9276 6.89 22.9286 8.32505 22.9286H11.5145C12.9505 22.9286 14.0861 22.9276 14.9767 22.8076C15.9278 22.6797 16.6954 22.405 17.3023 21.798C17.9093 21.1911 18.184 20.4235 18.3119 19.4724L18.3516 18.3606L19.136 18.3329C20.0871 18.2049 20.8547 17.9302 21.4627 17.3233C22.0696 16.7153 22.3433 15.9487 22.4723 14.9976C22.5913 14.108 22.5923 12.9715 22.5923 11.5355V11.0227C22.5933 9.75628 22.5853 8.9371 22.2581 8.20123C21.9318 7.46635 21.3268 6.91295 20.3847 6.06601L17.1337 3.14037C16.3185 2.40548 15.7879 1.9354 15.1334 1.68448C14.4778 1.43357 13.7658 1.42862 12.6639 1.42862ZM16.9215 15.6284C16.9215 14.5752 16.9195 14.0237 16.8263 13.6191H14.5324C13.6438 13.6191 12.9188 13.6191 12.3456 13.5418C11.7138 13.4565 11.1674 13.2681 10.73 12.8297C10.2917 12.3923 10.1032 11.8469 10.018 11.2141C9.9406 10.6419 9.9406 9.91595 9.9406 9.02636V7.45544C9.60242 7.41577 9.14325 7.41378 8.39448 7.41378L5.78123 7.49808L5.0533 7.52287C4.33032 7.62105 3.90981 7.79759 3.60534 8.10106C3.2989 8.40751 3.12337 8.83098 3.02518 9.55991C2.91907 10.3523 2.91807 11.3946 2.91807 12.8654V15.9676C2.91807 17.4363 2.91907 18.4787 3.02518 19.2711C3.12337 20 3.2989 20.4235 3.60534 20.7309C3.91179 21.0364 4.33528 21.2129 5.06421 21.3101C5.85661 21.4172 6.89992 21.4172 8.3687 21.4172H11.4719C12.9406 21.4172 13.9839 21.4172 14.7763 21.3101C15.5043 21.2129 15.9278 21.0364 16.2342 20.7299C16.5397 20.4245 16.7152 20.003 16.8134 19.279L16.9215 15.9626V15.6284ZM21.0819 11.1537C21.0819 10.1004 21.0789 9.54901 20.9866 9.14438H18.6917C17.8041 9.14438 17.0782 9.14438 16.505 9.06702C15.8732 8.98173 15.3268 8.7933 14.8894 8.35495C14.4511 7.91759 14.2626 7.37213 14.1773 6.7394C14.101 6.16716 14.1 5.44121 14.1 4.55162V2.9807C13.7618 2.94103 13.3016 2.93904 12.5519 2.93904C11.0742 2.93904 10.0249 2.94003 9.22953 3.04615C8.49564 3.14334 8.07216 3.32085 7.76571 3.62631C7.46026 3.93078 7.28372 4.35327 7.18554 5.07724L7.15777 5.94502L8.34191 5.90436C8.24769 5.90733 8.23581 5.90435 8.34986 5.90336C8.36275 5.90336 8.42821 5.90336 8.46986 5.90336C8.48275 5.90336 8.49464 5.90435 8.50456 5.90732V5.90336C9.60638 5.90336 10.3185 5.90831 10.973 6.15922C10.973 6.15922 10.973 6.15922 10.974 6.15922C11.6286 6.41013 12.1581 6.88022 12.9743 7.6151L16.2243 10.5407C17.1674 11.3887 17.7714 11.9411 18.0987 12.677C18.426 13.4118 18.4329 14.231 18.4329 15.4975V16.0102L18.4031 16.8522L18.9446 16.8344L18.9526 16.8334C19.6706 16.7352 20.0901 16.5596 20.3936 16.2552C20.7 15.9487 20.8766 15.5252 20.9747 14.7963C21.0809 14.0049 21.0819 12.9616 21.0819 11.4918V11.1537ZM11.451 8.28355L12.0461 8.81314L15.1185 11.5771C15.3159 11.7527 15.5102 11.9302 15.7036 12.1097C15.7036 12.1087 14.574 12.1087 14.574 12.1087C13.6537 12.1087 13.022 12.1077 12.5469 12.0442C12.1393 11.9897 11.937 11.8994 11.7981 11.7616C11.6593 11.6227 11.57 11.4204 11.5155 11.0128C11.452 10.5378 11.451 9.90603 11.451 8.9857V8.28355ZM15.6104 3.80781L16.2064 4.33838L19.2779 7.10238C19.4752 7.27791 19.6706 7.45544 19.864 7.63494C19.863 7.63395 18.7344 7.63394 18.7344 7.63394C17.8141 7.63394 17.1813 7.63297 16.7073 7.56949H16.7063C16.2987 7.51495 16.0964 7.4247 15.9575 7.28684C15.8187 7.148 15.7294 6.94568 15.6749 6.53807C15.6114 6.06303 15.6104 5.4313 15.6104 4.51096V3.80781Z" fill="black"/>
<path fill-rule="evenodd" clip-rule="evenodd" d="M8.93754 12.1388C9.34586 12.1388 9.68244 12.4754 9.68296 12.8842L9.68296 14.9522L11.751 14.9522C11.9578 14.9448 12.1582 15.024 12.3049 15.1706C12.594 15.4597 12.5945 15.9361 12.3049 16.2257C12.1587 16.3719 11.9572 16.451 11.7504 16.4436L9.68244 16.4436L9.68244 18.5116C9.68982 18.7184 9.61122 18.9194 9.46509 19.0655C9.17546 19.3551 8.69909 19.3546 8.40999 19.0655C8.26333 18.9189 8.1842 18.7184 8.19159 18.5116L8.19159 16.4436L6.1236 16.4436C5.9168 16.451 5.71633 16.3719 5.56967 16.2252C5.28058 15.9361 5.28005 15.4597 5.56967 15.1701C5.71581 15.024 5.9168 14.9454 6.1236 14.9528L8.19159 14.9528L8.19159 12.8848C8.19159 12.4754 8.52816 12.1388 8.93754 12.1388Z" fill="black"/>
</svg>
