<svg width="24" height="24" viewBox="0 0 24 24" fill="none" xmlns="http://www.w3.org/2000/svg">
<g clip-path="url(#clip0_221_14246)">
<path fill-rule="evenodd" clip-rule="evenodd" d="M16.394 2.02101L16.46 2.03901C17.56 2.33401 18.431 2.56701 19.116 2.81501C19.817 3.06801 20.389 3.35701 20.86 3.79801C21.5455 4.44054 22.025 5.27192 22.238 6.18701C22.385 6.81501 22.35 7.45501 22.218 8.18801C22.091 8.90601 21.858 9.77701 21.563 10.876L21.027 12.875C20.733 13.974 20.499 14.845 20.252 15.531C19.998 16.231 19.709 16.803 19.268 17.274C18.6465 17.9377 17.8475 18.409 16.966 18.632C16.7077 19.2241 16.3314 19.7573 15.86 20.199C15.389 20.64 14.817 20.929 14.116 21.183C13.431 21.431 12.56 21.664 11.461 21.959L11.394 21.977C10.294 22.271 9.424 22.504 8.706 22.633C7.973 22.764 7.333 22.799 6.704 22.653C5.78903 22.4393 4.95799 21.9591 4.316 21.273C3.876 20.803 3.586 20.231 3.332 19.53C3.085 18.845 2.852 17.974 2.557 16.874L2.021 14.876C1.727 13.776 1.493 12.906 1.365 12.188C1.234 11.455 1.199 10.815 1.345 10.186C1.55869 9.27104 2.03894 8.44 2.725 7.79801C3.195 7.35801 3.767 7.06801 4.468 6.81401C5.153 6.56701 6.024 6.33401 7.123 6.03901L7.157 6.02901L7.908 5.82901C8.3 4.43001 8.644 3.44101 9.316 2.72401C9.95812 2.03832 10.7891 1.55843 11.704 1.34501C12.333 1.19901 12.972 1.23401 13.706 1.36501C14.423 1.49301 15.294 1.72701 16.394 2.02101ZM7.455 7.50301C6.362 7.79601 5.579 8.00801 4.977 8.22501C4.367 8.44501 4.01 8.64901 3.75 8.89301C3.28065 9.33232 2.95213 9.90097 2.806 10.527C2.726 10.875 2.727 11.287 2.842 11.924C2.957 12.571 3.174 13.381 3.479 14.521L3.997 16.453C4.302 17.593 4.52 18.403 4.743 19.02C4.963 19.63 5.167 19.988 5.411 20.248C5.85031 20.7174 6.41895 21.0459 7.045 21.192C7.392 21.272 7.805 21.27 8.442 21.156C9.089 21.041 9.899 20.824 11.039 20.519C12.179 20.213 12.989 19.996 13.607 19.772C14.216 19.552 14.574 19.348 14.834 19.105C14.972 18.975 15.0973 18.8353 15.21 18.686C15.0245 18.6595 14.8397 18.6279 14.656 18.591C13.984 18.457 13.176 18.241 12.181 17.974L12.123 17.959C11.024 17.664 10.153 17.431 9.468 17.183C8.767 16.93 8.195 16.641 7.724 16.2C7.03813 15.5576 6.55823 14.7262 6.345 13.811C6.199 13.183 6.234 12.543 6.365 11.81C6.493 11.092 6.727 10.221 7.021 9.12201L7.455 7.50301ZM13.442 2.84201C12.804 2.72701 12.392 2.72501 12.045 2.80601C11.419 2.95214 10.8503 3.28066 10.411 3.75001C9.975 4.21501 9.706 4.93501 9.24 6.64301L8.997 7.54501L8.479 9.47701C8.174 10.617 7.957 11.427 7.842 12.074C7.727 12.711 7.725 13.124 7.806 13.471C7.95213 14.0971 8.28065 14.6657 8.75 15.105C9.01 15.349 9.368 15.552 9.977 15.773C10.595 15.996 11.405 16.213 12.545 16.519C13.57 16.794 14.33 16.997 14.948 17.119C15.563 17.242 15.981 17.272 16.323 17.23C16.3977 17.22 16.4697 17.2073 16.539 17.192C17.165 17.0459 17.7337 16.7174 18.173 16.248C18.417 15.988 18.621 15.63 18.841 15.021C19.064 14.403 19.281 13.593 19.587 12.453L20.105 10.521C20.41 9.38101 20.627 8.57101 20.742 7.92401C20.856 7.28701 20.859 6.87401 20.778 6.52701C20.6319 5.90097 20.3033 5.33232 19.834 4.89301C19.574 4.64901 19.216 4.44601 18.607 4.22501C17.988 4.00201 17.179 3.78501 16.039 3.47901C14.899 3.17401 14.089 2.95701 13.442 2.84201Z" fill="black"/>
<path fill-rule="evenodd" clip-rule="evenodd" d="M13.991 8.55675L12.292 10.2558C12.151 10.4078 11.953 10.4937 11.746 10.4937C11.337 10.4937 11 10.1567 11 9.74773C11 9.54073 11.086 9.34274 11.237 9.20174L14.222 6.21675C14.511 5.92775 14.987 5.92775 15.276 6.21675L18.261 9.20174C18.55 9.49074 18.55 9.96675 18.261 10.2558C17.972 10.5448 17.496 10.5448 17.206 10.2558L15.486 8.53575V12.9077C15.486 13.2387 15.149 13.5117 14.739 13.5117C14.329 13.5117 13.991 13.2387 13.991 12.9077V8.55675Z" fill="black"/>
</g>
<defs>
<clipPath id="clip0_221_14246">
<rect width="24" height="24" fill="white"/>
</clipPath>
</defs>
</svg>
