<svg width="24" height="24" viewBox="0 0 24 24" fill="none" xmlns="http://www.w3.org/2000/svg">
<g clip-path="url(#clip0_221_14062)">
<path fill-rule="evenodd" clip-rule="evenodd" d="M11.0647 5.23571C11.0647 4.82397 11.4029 4.48572 11.8147 4.48572H21.8144C22.2261 4.48572 22.5644 4.82397 22.5644 5.23571C22.5644 5.64671 22.2261 5.98571 21.8144 5.98571H11.8147C11.4029 5.98571 11.0647 5.64671 11.0647 5.23571ZM11.0647 12.2354C11.0647 11.8237 11.4029 11.4854 11.8147 11.4854H21.8144C22.2261 11.4854 22.5644 11.8237 22.5644 12.2354C22.5644 12.6472 22.2261 12.9854 21.8144 12.9854H11.8147C11.4029 12.9854 11.0647 12.6472 11.0647 12.2354ZM11.0647 19.2351C11.0647 18.8241 11.4029 18.4851 11.8147 18.4851H21.8144C22.2261 18.4851 22.5644 18.8241 22.5644 19.2351C22.5644 19.6469 22.2261 19.9851 21.8144 19.9851H11.8147C11.4029 19.9851 11.0647 19.6469 11.0647 19.2351Z" fill="black"/>
<path fill-rule="evenodd" clip-rule="evenodd" d="M3.35589 17.7044C3.37889 17.8634 3.48189 18.0804 3.65789 18.2064C3.83089 18.3304 4.07689 18.3634 4.21889 18.3414C4.59489 18.2804 4.86089 17.9474 4.84889 17.5764C4.84489 17.5204 4.87689 17.4684 4.92789 17.4464V17.4454C5.05289 17.3914 5.22389 17.3674 5.45489 17.3684C5.65089 17.3694 5.78489 17.4144 5.88789 17.4774C6.07789 17.5934 6.07289 17.8924 6.04989 17.9064C6.04989 17.9064 5.96289 18.3184 5.33989 18.4094C4.95089 18.4664 4.67189 18.8144 4.69989 19.2064C4.72689 19.5704 5.00989 19.8584 5.36489 19.8974H5.36289C5.36289 19.8974 5.55889 19.9254 5.73989 19.9994C5.85889 20.0474 6.00489 20.1074 6.07089 20.2434C6.10789 20.3214 6.10089 20.4204 6.06989 20.5454C5.97389 20.9294 5.55389 20.9834 5.23589 20.8944C5.05389 20.8444 4.86989 20.7514 4.83789 20.5654C4.76889 20.1574 4.38189 19.8824 3.97389 19.9514C3.56589 20.0204 3.28989 20.4084 3.35989 20.8164C3.48889 21.5794 4.08689 22.1324 4.83389 22.3404C5.90689 22.6384 7.19989 22.2024 7.52489 20.9104C7.66089 20.3654 7.58689 19.9364 7.42289 19.5954C7.33789 19.4184 7.22489 19.2634 7.09489 19.1294C7.11489 19.1064 7.13489 19.0834 7.15289 19.0594C7.58289 18.5094 7.55489 17.9124 7.54589 17.7994C7.54589 17.7934 7.54489 17.7864 7.54489 17.7814C7.53389 17.5644 7.44789 16.7944 6.81289 16.2964C6.51289 16.0614 6.08689 15.8724 5.46389 15.8684C4.55889 15.8634 4.07189 16.1504 3.79189 16.4314C3.46289 16.7624 3.36989 17.1434 3.34889 17.3964C3.33589 17.5654 3.35289 17.6834 3.35589 17.7044Z" fill="black"/>
<path fill-rule="evenodd" clip-rule="evenodd" d="M3.55189 11.4264C3.56689 11.5974 3.66989 11.8444 3.85589 11.9824C4.01389 12.1004 4.24789 12.1244 4.37589 12.1114C4.75989 12.0724 5.04689 11.7484 5.04989 11.3714C5.04889 11.3324 5.05889 11.2944 5.07889 11.2614C5.14689 11.1924 5.30289 11.0734 5.65989 11.0734C5.83689 11.0734 5.96389 11.0784 6.03589 11.1504C6.08889 11.2044 6.07489 11.2864 6.07089 11.3584C6.06189 11.5084 6.01589 11.6544 5.96189 11.7454C5.47089 12.5684 3.97889 13.4054 3.97889 13.4054C3.68589 13.5764 3.54389 13.9224 3.63189 14.2494C3.72089 14.5764 4.01689 14.8044 4.35589 14.8044H6.79689C7.21089 14.8044 7.54689 14.4684 7.54689 14.0544C7.54689 13.6404 7.21089 13.3044 6.79689 13.3044H6.58889C6.85489 13.0484 7.09189 12.7794 7.24989 12.5144C7.43189 12.2084 7.59889 11.6884 7.56789 11.1874C7.54289 10.7804 7.39789 10.3914 7.09689 10.0904C6.80989 9.80339 6.36389 9.57339 5.65989 9.57339C4.77889 9.57339 4.29189 9.87139 4.00489 10.1724C3.69289 10.4994 3.58989 10.8744 3.55989 11.1234C3.53989 11.2894 3.55089 11.4044 3.55189 11.4264Z" fill="black"/>
<path fill-rule="evenodd" clip-rule="evenodd" d="M6.2093 7.04401V2.793C6.2093 2.379 5.8733 2.043 5.4593 2.043H4.0993C3.6853 2.043 3.3493 2.379 3.3493 2.793C3.3493 3.207 3.6853 3.543 4.0993 3.543H4.7093V7.04401H4.0993C3.6853 7.04401 3.3493 7.38001 3.3493 7.79401C3.3493 8.20801 3.6853 8.54401 4.0993 8.54401H6.7973C7.2113 8.54401 7.5473 8.20801 7.5473 7.79401C7.5473 7.38001 7.2113 7.04401 6.7973 7.04401H6.2093Z" fill="black"/>
</g>
<defs>
<clipPath id="clip0_221_14062">
<rect width="24" height="24" fill="white"/>
</clipPath>
</defs>
</svg>
