<svg width="24" height="24" viewBox="0 0 24 24" fill="none" xmlns="http://www.w3.org/2000/svg">
<path fill-rule="evenodd" clip-rule="evenodd" d="M12.2497 2.83403C11.7899 2.75602 11.1622 2.75002 10.0296 2.75002C8.11261 2.75002 6.74984 2.75152 5.71782 2.88953C4.70606 3.02453 4.1248 3.27953 3.70179 3.70179C3.27878 4.12405 3.02453 4.70456 2.88953 5.71107C2.75152 6.73859 2.75002 8.09311 2.75002 10.0011V14.001C2.75002 15.9067 2.75152 17.2613 2.88953 18.2888C3.02453 19.2953 3.27878 19.875 3.70179 20.2988C4.1248 20.7211 4.70456 20.9753 5.71107 21.1103C6.73859 21.2491 8.09311 21.2498 9.99964 21.2498H14.0002C15.9067 21.2498 17.262 21.2483 18.2903 21.1103C19.2953 20.9753 19.875 20.7211 20.2981 20.2981C20.7211 19.875 20.9753 19.2953 21.1103 18.2888C21.2483 17.262 21.2498 15.9067 21.2498 14.0002V13.5629C21.2498 12.0269 21.2401 11.2987 21.0758 10.7497H17.946C16.8128 10.7497 15.888 10.7497 15.156 10.6522C14.3932 10.5486 13.731 10.3266 13.2022 9.79789C12.6727 9.26913 12.4507 8.60762 12.3479 7.84261C12.2497 7.11284 12.2497 6.18658 12.2497 5.05256V2.83403ZM13.7497 3.60954V5.00006C13.7497 6.20008 13.752 7.02359 13.8352 7.6431C13.9147 8.24086 14.0587 8.53412 14.2627 8.73662C14.4667 8.93987 14.7592 9.08463 15.357 9.16488C15.9757 9.24813 16.8 9.24963 18 9.24963H20.0198C19.6365 8.88437 19.2465 8.52587 18.8498 8.17411L14.8912 4.6108C14.5177 4.26955 14.1375 3.93579 13.7497 3.60954ZM10.1751 1.25C11.5597 1.25 12.4552 1.25 13.2779 1.565C14.1007 1.88076 14.763 2.47702 15.7882 3.39953L15.8947 3.49554L19.8533 7.05884L19.9778 7.1706C21.1621 8.23561 21.9278 8.92487 22.3388 9.84889C22.7498 10.7729 22.7513 11.8027 22.7498 13.3949V14.0557C22.7498 15.894 22.7498 17.3498 22.5968 18.489C22.4393 19.6613 22.1071 20.6101 21.3593 21.3593C20.6101 22.1071 19.6613 22.4393 18.489 22.5968C17.349 22.7498 15.894 22.7498 14.0557 22.7498H9.94414C8.10586 22.7498 6.65009 22.7498 5.51082 22.5968C4.33855 22.4393 3.38978 22.1071 2.64052 21.3593C1.89276 20.6101 1.56051 19.6613 1.403 18.489C1.25 17.349 1.25 15.894 1.25 14.0557V9.94489C1.25 8.10661 1.25 6.65084 1.403 5.51157C1.56051 4.34005 1.89276 3.39053 2.64052 2.64202C3.39053 1.89276 4.34155 1.562 5.51907 1.40375C6.66284 1.25075 8.12611 1.25075 9.97414 1.25075H10.1759" fill="black"/>
<path fill-rule="evenodd" clip-rule="evenodd" d="M4.95563 14.6192V15.1172C4.95563 15.8592 4.95663 16.4462 5.01163 16.9112C5.01163 16.9112 5.01163 16.9112 5.01163 16.9122C5.07563 17.4472 5.21563 17.8843 5.51764 18.2523L5.51864 18.2533C5.62164 18.3773 5.73564 18.4913 5.86064 18.5943C6.22865 18.8973 6.66666 19.0383 7.20167 19.1013C7.60868 19.1493 8.10869 19.1563 8.7247 19.1573H9.31172C9.92673 19.1563 10.4277 19.1493 10.8347 19.1023C10.8347 19.1023 10.8347 19.1023 10.8347 19.1013C11.3698 19.0383 11.8068 18.8973 12.1748 18.5953C12.1748 18.5953 12.1748 18.5953 12.1758 18.5953C12.3008 18.4913 12.4148 18.3773 12.5178 18.2523C12.7968 17.9133 12.9378 17.5142 13.0078 17.0342C13.2048 17.1262 13.3818 17.2012 13.5388 17.2532H13.5398C13.9248 17.3792 14.3318 17.4103 14.7078 17.1782C15.0848 16.9452 15.2388 16.5672 15.2978 16.1652C15.3438 15.8572 15.3458 15.4512 15.3458 14.9632V14.7742C15.3458 14.2862 15.3438 13.8802 15.2978 13.5712C15.2388 13.1712 15.0848 12.7921 14.7078 12.5601C14.3318 12.3271 13.9248 12.3582 13.5398 12.4842H13.5388C13.3818 12.5362 13.2048 12.6112 13.0088 12.7032C12.9378 12.2231 12.7968 11.8251 12.5188 11.4851C12.5188 11.4851 12.5188 11.4851 12.5178 11.4851C12.4148 11.3591 12.3008 11.2451 12.1748 11.1421C11.8078 10.8401 11.3698 10.6991 10.8347 10.6361C10.3697 10.5811 9.78172 10.5801 9.0407 10.5801H8.9957C8.25569 10.5801 7.66768 10.5811 7.20267 10.6351C6.66766 10.6991 6.22964 10.8391 5.86164 11.1411C5.86064 11.1421 5.86064 11.1421 5.85964 11.1431C5.73563 11.2461 5.62164 11.3601 5.51864 11.4841C5.21564 11.8511 5.07563 12.2911 5.01163 12.8251C4.95663 13.2902 4.95563 13.8782 4.95563 14.6192ZM11.7508 15.0952V14.6422C11.7508 13.9062 11.7518 13.3832 11.7048 12.9821C11.6668 12.6641 11.6068 12.4711 11.4908 12.3291C11.4428 12.2711 11.3897 12.2181 11.3317 12.1701C11.1887 12.0531 10.9967 11.9941 10.6787 11.9561C10.2777 11.9091 9.75473 11.9091 9.01871 11.9091C8.2827 11.9091 7.75968 11.9091 7.35767 11.9561C7.03966 11.9941 6.84766 12.0531 6.70466 12.1701C6.64665 12.2181 6.59366 12.2711 6.54566 12.3291C6.42965 12.4711 6.36965 12.6641 6.33265 12.9821C6.28465 13.3832 6.28566 13.9062 6.28566 14.6422V15.0952C6.28566 15.8312 6.28465 16.3542 6.33265 16.7552C6.36965 17.0742 6.42966 17.2662 6.54666 17.4092C6.59366 17.4672 6.64665 17.5192 6.70466 17.5672C6.84766 17.6843 7.03967 17.7433 7.35868 17.7813C7.75968 17.8283 8.2827 17.8283 9.01871 17.8283C9.75473 17.8283 10.2777 17.8283 10.6787 17.7813C10.9967 17.7433 11.1897 17.6843 11.3317 17.5672C11.3897 17.5192 11.4428 17.4672 11.4908 17.4092C11.6068 17.2662 11.6668 17.0742 11.7048 16.7552C11.7518 16.3542 11.7508 15.8312 11.7508 15.0952ZM14.0158 14.9352V14.8022C14.0158 14.3212 14.0168 13.9962 13.9838 13.7672C13.9818 13.7582 13.9808 13.7492 13.9788 13.7402C13.9698 13.7422 13.9618 13.7452 13.9528 13.7482C13.7438 13.8162 13.4738 13.9502 13.0808 14.1472V15.5902C13.4738 15.7872 13.7438 15.9212 13.9528 15.9892C13.9618 15.9922 13.9698 15.9952 13.9788 15.9972L13.9828 15.9702C14.0168 15.7412 14.0158 15.4162 14.0158 14.9352Z" fill="black"/>
</svg>
