<svg width="24" height="24" viewBox="0 0 24 24" fill="none" xmlns="http://www.w3.org/2000/svg">
<g clip-path="url(#clip0_221_14077)">
<path fill-rule="evenodd" clip-rule="evenodd" d="M11.943 1.25H13.5C13.6989 1.25 13.8897 1.32902 14.0303 1.46967C14.171 1.61032 14.25 1.80109 14.25 2C14.25 2.19891 14.171 2.38968 14.0303 2.53033C13.8897 2.67098 13.6989 2.75 13.5 2.75H12C9.622 2.75 7.914 2.752 6.614 2.926C5.335 3.098 4.564 3.426 3.994 3.995C3.425 4.565 3.098 5.335 2.926 6.614C2.752 7.914 2.75 9.622 2.75 12C2.75 14.378 2.752 16.086 2.926 17.386C3.098 18.665 3.426 19.436 3.995 20.006C4.565 20.575 5.335 20.902 6.614 21.074C7.914 21.248 9.622 21.25 12 21.25C14.378 21.25 16.086 21.248 17.386 21.074C18.665 20.902 19.436 20.574 20.006 20.005C20.575 19.435 20.902 18.665 21.074 17.386C21.248 16.086 21.25 14.378 21.25 12V10.5C21.25 10.3011 21.329 10.1103 21.4697 9.96967C21.6103 9.82902 21.8011 9.75 22 9.75C22.1989 9.75 22.3897 9.82902 22.5303 9.96967C22.671 10.1103 22.75 10.3011 22.75 10.5V12.057C22.75 14.366 22.75 16.175 22.56 17.587C22.366 19.031 21.96 20.171 21.066 21.066C20.171 21.961 19.031 22.366 17.586 22.56C16.175 22.75 14.366 22.75 12.057 22.75H11.943C9.634 22.75 7.825 22.75 6.413 22.56C4.969 22.366 3.829 21.96 2.934 21.066C2.039 20.171 1.634 19.031 1.44 17.586C1.25 16.175 1.25 14.366 1.25 12.057V11.943C1.25 9.634 1.25 7.825 1.44 6.413C1.634 4.969 2.04 3.829 2.934 2.934C3.829 2.039 4.969 1.634 6.414 1.44C7.825 1.25 9.634 1.25 11.943 1.25ZM16.77 2.276C17.4299 1.63425 18.3159 1.27805 19.2364 1.28443C20.1569 1.29081 21.0379 1.65926 21.6889 2.3101C22.3399 2.96094 22.7085 3.84186 22.7151 4.76235C22.7216 5.68285 22.3656 6.56894 21.724 7.229L15.076 13.878C14.705 14.248 14.472 14.482 14.213 14.684C13.9073 14.9228 13.5763 15.1274 13.226 15.294C12.929 15.435 12.616 15.539 12.119 15.705L9.214 16.673C8.95118 16.7605 8.66917 16.7732 8.39958 16.7095C8.12998 16.6458 7.88344 16.5083 7.68756 16.3124C7.49168 16.1166 7.3542 15.87 7.29052 15.6004C7.22684 15.3308 7.23947 15.0488 7.327 14.786L8.295 11.881C8.461 11.383 8.565 11.071 8.706 10.774C8.874 10.4233 9.07733 10.0943 9.316 9.787C9.518 9.527 9.751 9.295 10.122 8.924L16.77 2.276ZM20.663 3.336C20.2874 2.96057 19.7781 2.74967 19.247 2.74967C18.7159 2.74967 18.2066 2.96057 17.831 3.336L17.455 3.713C17.4763 3.80967 17.509 3.92233 17.553 4.051C17.696 4.464 17.968 5.008 18.48 5.52C18.9786 6.01876 19.6031 6.37299 20.287 6.545L20.663 6.169C21.0384 5.79339 21.2493 5.28406 21.2493 4.753C21.2493 4.22194 21.0384 3.71161 20.663 3.336ZM19.105 7.728C18.4753 7.45651 17.9031 7.06758 17.419 6.582C16.9334 6.09786 16.5445 5.52566 16.273 4.896L11.218 9.95C10.801 10.367 10.638 10.532 10.498 10.71C10.328 10.9308 10.1815 11.1688 10.061 11.42C9.963 11.623 9.889 11.843 9.702 12.402L9.271 13.697L10.303 14.73L11.598 14.298C12.158 14.111 12.377 14.037 12.581 13.94C12.833 13.82 13.0697 13.6737 13.291 13.501C13.468 13.362 13.633 13.199 14.05 12.783L19.105 7.728Z" fill="black"/>
</g>
<defs>
<clipPath id="clip0_221_14077">
<rect width="24" height="24" fill="white"/>
</clipPath>
</defs>
</svg>
