<svg width="24" height="24" viewBox="0 0 24 24" fill="none" xmlns="http://www.w3.org/2000/svg">
<path fill-rule="evenodd" clip-rule="evenodd" d="M12.2497 2.83403C11.7899 2.75602 11.1622 2.75002 10.0296 2.75002C8.11261 2.75002 6.74984 2.75152 5.71782 2.88953C4.70606 3.02453 4.1248 3.27953 3.70179 3.70179C3.27878 4.12405 3.02453 4.70456 2.88953 5.71107C2.75152 6.73859 2.75002 8.09311 2.75002 10.0011V14.001C2.75002 15.9067 2.75152 17.2613 2.88953 18.2888C3.02453 19.2953 3.27878 19.8751 3.70179 20.2988C4.1248 20.7211 4.70456 20.9753 5.71107 21.1103C6.73859 21.2491 8.09311 21.2498 9.99964 21.2498H14.0002C15.9067 21.2498 17.262 21.2483 18.2903 21.1103C19.2953 20.9753 19.875 20.7211 20.2981 20.2981C20.7211 19.875 20.9753 19.2953 21.1103 18.2888C21.2483 17.262 21.2498 15.9067 21.2498 14.0002V13.5629C21.2498 12.0269 21.2401 11.2987 21.0758 10.7497H17.946C16.8128 10.7497 15.888 10.7497 15.156 10.6522C14.3932 10.5486 13.731 10.3266 13.2022 9.79789C12.6727 9.26913 12.4507 8.60762 12.3479 7.84261C12.2497 7.11284 12.2497 6.18658 12.2497 5.05256V2.83403ZM13.7497 3.60954V5.00006C13.7497 6.20008 13.752 7.02359 13.8352 7.6431C13.9147 8.24086 14.0587 8.53412 14.2627 8.73662C14.4667 8.93987 14.7592 9.08463 15.357 9.16488C15.9757 9.24813 16.8 9.24963 18 9.24963H20.0198C19.6365 8.88437 19.2465 8.52587 18.8498 8.17411L14.8912 4.6108C14.5177 4.26955 14.1375 3.93579 13.7497 3.60954ZM10.1751 1.25C11.5597 1.25 12.4552 1.25 13.2779 1.565C14.1007 1.88076 14.763 2.47702 15.7882 3.39953L15.8947 3.49554L19.8533 7.05884L19.9778 7.1706C21.1621 8.23561 21.9278 8.92487 22.3388 9.84889C22.7498 10.7729 22.7513 11.8027 22.7498 13.3949V14.0557C22.7498 15.894 22.7498 17.3498 22.5968 18.489C22.4393 19.6613 22.1071 20.6101 21.3593 21.3593C20.6101 22.1071 19.6613 22.4393 18.489 22.5968C17.349 22.7498 15.894 22.7498 14.0557 22.7498H9.94414C8.10586 22.7498 6.65009 22.7498 5.51082 22.5968C4.33855 22.4393 3.38978 22.1071 2.64052 21.3593C1.89276 20.6101 1.56051 19.6613 1.403 18.489C1.25 17.349 1.25 15.894 1.25 14.0557V9.94489C1.25 8.10661 1.25 6.65084 1.403 5.51157C1.56051 4.34005 1.89276 3.39053 2.64052 2.64202C3.39053 1.89276 4.34155 1.562 5.51907 1.40375C6.66284 1.25075 8.12611 1.25075 9.97414 1.25075H10.1759" fill="black"/>
<path d="M7.57028 15.7118L8.41896 13.9859H9.84879L8.39777 16.5605L9.88753 19.1774H8.44382L7.57028 17.4194L6.69674 19.1774H5.25668L6.74352 16.5605L5.29542 13.9859H6.72159L7.57028 15.7118Z" fill="black"/>
<path d="M11.5454 18.2147H13.7238V19.1774H10.294V13.9859H11.5454V18.2147Z" fill="black"/>
<path d="M16.9292 17.7973C16.9292 17.6146 16.8642 17.472 16.7348 17.3697C16.6054 17.2673 16.3781 17.1613 16.052 17.0524C15.7267 16.9428 15.4607 16.8375 15.2538 16.7352C14.5805 16.4048 14.2443 15.9508 14.2443 15.3733C14.2443 15.0853 14.3283 14.8316 14.4957 14.6116C14.6631 14.3923 14.9007 14.2205 15.207 14.0985C15.514 13.9764 15.8583 13.915 16.2414 13.915C16.6142 13.915 16.949 13.9815 17.245 14.1145C17.5403 14.2476 17.7706 14.4369 17.9343 14.6833C18.0988 14.9289 18.1807 15.2103 18.1807 15.5261H16.9329C16.9329 15.3148 16.8678 15.1511 16.7384 15.0341C16.609 14.9179 16.4336 14.8594 16.2128 14.8594C15.9892 14.8594 15.813 14.9091 15.6829 15.0078C15.5535 15.1065 15.4892 15.2315 15.4892 15.3836C15.4892 15.5166 15.5601 15.6372 15.7026 15.7454C15.8452 15.8536 16.0959 15.9654 16.4548 16.0809C16.8137 16.1957 17.1083 16.32 17.3393 16.453C17.9 16.7768 18.1807 17.222 18.1807 17.79C18.1807 18.2439 18.0096 18.6007 17.6675 18.8602C17.3247 19.1189 16.8554 19.2483 16.2589 19.2483C15.8386 19.2483 15.457 19.173 15.1164 19.0224C14.775 18.8711 14.5184 18.6643 14.3459 18.4018C14.1741 18.1394 14.0878 17.8368 14.0878 17.4947H15.343C15.343 17.7724 15.4146 17.9771 15.5586 18.1094C15.7019 18.241 15.9358 18.3075 16.2589 18.3075C16.4658 18.3075 16.6288 18.2629 16.7494 18.1738C16.8693 18.0846 16.9292 17.9588 16.9292 17.7973Z" fill="black"/>
</svg>
