<svg width="24" height="24" viewBox="0 0 24 24" fill="none" xmlns="http://www.w3.org/2000/svg">
<g clip-path="url(#clip0_221_13895)">
<path fill-rule="evenodd" clip-rule="evenodd" d="M9.96306 1.2778H14.0683C15.4348 1.2778 16.5352 1.2778 17.4012 1.39467C18.3002 1.51453 19.0576 1.77373 19.6591 2.37454C20.2599 2.97535 20.5176 3.73272 20.6398 4.63169C20.7559 5.49769 20.7559 6.59967 20.7559 7.9646V16.0658C20.7559 17.4307 20.7559 18.5327 20.6398 19.3987C20.5191 20.2976 20.2599 21.055 19.6591 21.6558C19.0576 22.2574 18.3002 22.5151 17.4012 22.6372C16.5352 22.7526 15.434 22.7526 14.0683 22.7526H9.96306C8.59738 22.7526 7.49615 22.7526 6.63015 22.6372C5.73118 22.5151 4.97381 22.2574 4.37225 21.6558C3.77144 21.055 3.51374 20.2976 3.39238 19.3987C3.35267 19.0855 3.32571 18.7717 3.31072 18.457C3.27102 18.3297 3.26503 18.1948 3.29499 18.0652C3.27851 17.3985 3.27177 16.7325 3.27551 16.0658V7.9646C3.27551 6.59967 3.27551 5.49769 3.39238 4.63169C3.51224 3.73272 3.77219 2.97535 4.37375 2.37454C4.97381 1.77298 5.73193 1.51528 6.6309 1.39467C7.49615 1.2778 8.59738 1.2778 9.96306 1.2778ZM4.80076 18.2577C4.81574 18.6106 4.83971 18.9215 4.87717 19.1987C4.97605 19.9321 5.1566 20.3194 5.43228 20.5965C5.70871 20.873 6.09751 21.0528 6.83092 21.1517C7.58455 21.2528 8.58465 21.2543 10.0177 21.2543H14.0136C15.4475 21.2543 16.4476 21.2528 17.202 21.1517C17.9346 21.0528 18.3227 20.8722 18.5999 20.5965C18.8755 20.3194 19.0553 19.9321 19.1542 19.1979C19.2374 18.5836 19.2546 17.8045 19.2561 16.7595H7.91866C6.94179 16.7595 6.60018 16.7655 6.33798 16.8366C5.62331 17.0277 5.04722 17.5595 4.80001 18.257M19.2561 15.2604V8.02003C19.2561 6.58619 19.2554 5.58534 19.1535 4.83171C19.0546 4.0983 18.874 3.711 18.5984 3.43382C18.3212 3.15739 17.9339 2.97759 17.2005 2.87871C16.4468 2.77757 15.4467 2.77608 14.0121 2.77608H10.017C9.10979 2.77608 8.37714 2.77608 7.76959 2.80304V15.2612L19.2561 15.2604ZM6.27131 15.3211C6.15969 15.3384 6.05181 15.3608 5.94843 15.3885C5.52817 15.5017 5.13038 15.6875 4.77304 15.9354V8.02003C4.77304 6.58619 4.77529 5.58534 4.87567 4.83171C4.97456 4.0983 5.15585 3.711 5.43153 3.43382C5.6278 3.23829 5.88101 3.09071 6.27131 2.98583V15.3211Z" fill="black"/>
<path fill-rule="evenodd" clip-rule="evenodd" d="M15.6145 6.02402C15.6145 5.26002 14.9935 4.63901 14.2295 4.63901H12.9595C12.1955 4.63901 11.5745 5.26002 11.5745 6.02402V7.29401C11.5745 8.05801 12.1955 8.67902 12.9595 8.67902H14.2295C14.9935 8.67902 15.6145 8.05801 15.6145 7.29401V6.02402ZM13.0745 6.13901V7.17902H14.1145V6.13901H13.0745Z" fill="black"/>
<path fill-rule="evenodd" clip-rule="evenodd" d="M13.0892 10.414C13.0892 9.65 12.4682 9.02899 11.7042 9.02899H10.4342C9.6702 9.02899 9.04919 9.65 9.04919 10.414V11.684C9.04919 12.448 9.6702 13.069 10.4342 13.069H11.7042C12.4682 13.069 13.0892 12.448 13.0892 11.684V10.414ZM10.5492 10.529V11.569H11.5892V10.529H10.5492Z" fill="black"/>
<path fill-rule="evenodd" clip-rule="evenodd" d="M18.1398 10.414C18.1398 9.65 17.5188 9.02899 16.7548 9.02899H15.4848C14.7208 9.02899 14.0998 9.65 14.0998 10.414V11.684C14.0998 12.448 14.7208 13.069 15.4848 13.069H16.7548C17.5188 13.069 18.1398 12.448 18.1398 11.684V10.414ZM15.5998 10.529V11.569H16.6398V10.529H15.5998Z" fill="black"/>
</g>
<defs>
<clipPath id="clip0_221_13895">
<rect width="24" height="24" fill="white"/>
</clipPath>
</defs>
</svg>
