<svg width="24" height="24" viewBox="0 0 24 24" fill="none" xmlns="http://www.w3.org/2000/svg">
<g clip-path="url(#clip0_221_13923)">
<path fill-rule="evenodd" clip-rule="evenodd" d="M16.475 4.37501L19.647 7.55101C20.655 8.55901 21.471 9.37601 21.997 10.086C22.538 10.816 22.888 11.586 22.698 12.463C22.508 13.342 21.872 13.897 21.078 14.338C20.305 14.767 19.224 15.173 17.891 15.674L15.914 16.417C15.119 16.715 14.903 16.808 14.742 16.947C14.662 17.0177 14.59 17.0967 14.526 17.184C14.402 17.357 14.329 17.581 14.104 18.4L14.091 18.445C13.863 19.276 13.674 19.962 13.467 20.477C13.257 21 12.974 21.495 12.465 21.786C12.1116 21.9874 11.7118 22.0932 11.305 22.093C10.718 22.093 10.227 21.801 9.786 21.451C9.352 21.105 8.85 20.601 8.241 19.991L6.653 18.403L2.531 22.53C2.39043 22.6708 2.19968 22.7501 2.0007 22.7502C1.80173 22.7504 1.61083 22.6716 1.47 22.531C1.32917 22.3904 1.24994 22.1997 1.24976 22.0007C1.24957 21.8017 1.32843 21.6108 1.469 21.47L5.593 17.342L4.058 15.805C3.453 15.2 2.954 14.7 2.61 14.268C2.261 13.83 1.972 13.342 1.968 12.76C1.96573 12.3452 2.07375 11.9373 2.281 11.578C2.571 11.073 3.063 10.792 3.583 10.583C4.095 10.378 4.776 10.19 5.601 9.96301L5.646 9.95001C6.466 9.72401 6.691 9.65001 6.863 9.52601C6.953 9.46134 7.03366 9.38734 7.105 9.30401C7.243 9.14101 7.335 8.92401 7.628 8.12401L8.344 6.16801C8.839 4.81901 9.239 3.72601 9.664 2.94601C10.101 2.14301 10.654 1.49801 11.536 1.30401C12.418 1.10901 13.191 1.46201 13.925 2.00601C14.637 2.53601 15.46 3.35901 16.475 4.37501ZM13.03 3.21001C12.428 2.76201 12.109 2.71201 11.859 2.76701C11.609 2.82201 11.34 3.00201 10.981 3.66201C10.616 4.33201 10.252 5.32001 9.731 6.74301L9.036 8.64001L8.996 8.74801C8.763 9.38801 8.582 9.88401 8.246 10.277C8.09666 10.453 7.928 10.6087 7.74 10.744C7.32 11.046 6.813 11.185 6.155 11.366L6.045 11.396C5.163 11.639 4.565 11.806 4.142 11.976C3.717 12.146 3.615 12.266 3.58 12.326C3.50578 12.4549 3.46713 12.6012 3.468 12.75C3.468 12.82 3.498 12.975 3.784 13.334C4.068 13.691 4.506 14.131 5.152 14.778L9.269 18.898C9.919 19.55 10.362 19.991 10.721 20.278C11.081 20.564 11.237 20.593 11.306 20.593C11.4519 20.5935 11.5954 20.5556 11.722 20.483C11.782 20.449 11.903 20.347 12.075 19.919C12.247 19.491 12.413 18.889 12.657 18.002L12.687 17.892C12.867 17.235 13.007 16.728 13.307 16.309C13.4383 16.1263 13.5893 15.961 13.76 15.813C14.15 15.476 14.642 15.291 15.279 15.053L15.386 15.013L17.303 14.293C18.711 13.763 19.686 13.395 20.349 13.027C21 12.666 21.178 12.397 21.232 12.147C21.286 11.896 21.235 11.577 20.792 10.979C20.34 10.369 19.605 9.63001 18.541 8.56601L15.459 5.48001C14.388 4.40801 13.643 3.66601 13.03 3.21001Z" fill="black"/>
</g>
<defs>
<clipPath id="clip0_221_13923">
<rect width="24" height="24" fill="white"/>
</clipPath>
</defs>
</svg>
