<svg width="24" height="24" viewBox="0 0 24 24" fill="none" xmlns="http://www.w3.org/2000/svg">
<g clip-path="url(#clip0_221_14082)">
<path fill-rule="evenodd" clip-rule="evenodd" d="M8.88599 3.36299C11.828 0.545994 16.586 0.545994 19.529 3.36299C22.49 6.19699 22.49 10.807 19.529 13.642L11.581 21.25C9.49099 23.25 6.11499 23.25 4.02499 21.25C3.52556 20.7797 3.12761 20.2123 2.8556 19.5825C2.58359 18.9527 2.44327 18.274 2.44327 17.588C2.44327 16.902 2.58359 16.2233 2.8556 15.5935C3.12761 14.9637 3.52556 14.3963 4.02499 13.926L11.859 6.42799C12.4629 5.85745 13.2622 5.53958 14.093 5.53958C14.9238 5.53958 15.7231 5.85745 16.327 6.42799C16.6247 6.70846 16.8619 7.04684 17.024 7.42233C17.1861 7.79782 17.2697 8.2025 17.2697 8.61149C17.2697 9.02049 17.1861 9.42517 17.024 9.80066C16.8619 10.1761 16.6247 10.5145 16.327 10.795L8.43699 18.349C8.36581 18.4172 8.28191 18.4706 8.19006 18.5063C8.09822 18.5421 8.00025 18.5594 7.90172 18.5572C7.8032 18.5551 7.70606 18.5336 7.61586 18.4939C7.52565 18.4542 7.44414 18.3972 7.37599 18.326C7.30783 18.2548 7.25436 18.1709 7.21863 18.0791C7.1829 17.9872 7.16561 17.8893 7.16775 17.7907C7.16988 17.6922 7.1914 17.5951 7.23108 17.5049C7.27075 17.4147 7.32781 17.3331 7.39899 17.265L15.289 9.71199C15.44 9.57134 15.5605 9.40109 15.6429 9.21184C15.7253 9.02258 15.7678 8.8184 15.7678 8.61199C15.7678 8.40559 15.7253 8.2014 15.6429 8.01215C15.5605 7.8229 15.44 7.65265 15.289 7.51199C14.9643 7.2088 14.5367 7.04016 14.0925 7.04016C13.6483 7.04016 13.2206 7.2088 12.896 7.51199L5.06199 15.01C4.70895 15.3402 4.4275 15.7394 4.23508 16.1829C4.04267 16.6263 3.94338 17.1046 3.94338 17.588C3.94338 18.0714 4.04267 18.5497 4.23508 18.9931C4.4275 19.4366 4.70895 19.8358 5.06199 20.166C6.57199 21.611 9.03399 21.611 10.544 20.166L18.492 12.558C20.836 10.314 20.836 6.68999 18.492 4.44599C16.129 2.18499 12.286 2.18499 9.92199 4.44599L3.51899 10.576C3.37537 10.7138 3.18291 10.7889 2.98393 10.7847C2.78495 10.7806 2.59577 10.6976 2.45799 10.554C2.32021 10.4104 2.24512 10.2179 2.24925 10.0189C2.25337 9.81996 2.33637 9.63077 2.47999 9.49299L8.88599 3.36299Z" fill="black"/>
</g>
<defs>
<clipPath id="clip0_221_14082">
<rect width="24" height="24" fill="white"/>
</clipPath>
</defs>
</svg>
