<svg width="24" height="24" viewBox="0 0 24 24" fill="none" xmlns="http://www.w3.org/2000/svg">
<g clip-path="url(#clip0_221_13951)">
<path fill-rule="evenodd" clip-rule="evenodd" d="M6.86 1.24999H6.987C7.338 1.24999 7.564 1.24999 7.785 1.26999C8.73662 1.35894 9.63928 1.7329 10.375 2.34299C10.545 2.48499 10.705 2.64499 10.954 2.89299L11.53 3.46999C12.376 4.31499 12.701 4.63099 13.077 4.83999C13.2957 4.96133 13.5253 5.05666 13.766 5.12599C14.179 5.24299 14.632 5.24999 15.828 5.24999H16.253C17.526 5.24999 18.553 5.24999 19.364 5.35199C20.205 5.45799 20.92 5.68399 21.508 6.21199C21.606 6.30066 21.6993 6.39399 21.788 6.49199C22.317 7.07999 22.542 7.79499 22.648 8.63599C22.728 9.27399 22.745 10.043 22.749 10.961V11.033L22.75 11.747V14.057C22.75 15.894 22.75 17.35 22.597 18.489C22.439 19.661 22.107 20.61 21.359 21.359C20.61 22.107 19.661 22.439 18.489 22.597C17.349 22.75 15.894 22.75 14.056 22.75H9.944C8.106 22.75 6.65 22.75 5.511 22.597C4.339 22.439 3.39 22.107 2.641 21.359C1.893 20.61 1.561 19.661 1.403 18.489C1.25 17.349 1.25 15.894 1.25 14.056V6.85999C1.25 6.06299 1.25 5.55699 1.332 5.11999C1.50884 4.18062 1.96499 3.31645 2.6408 2.64045C3.31662 1.96445 4.18067 1.50808 5.12 1.33099C5.558 1.24899 6.064 1.24899 6.86 1.24899M2.75 11.749V14C2.75 15.907 2.752 17.262 2.89 18.29C3.025 19.295 3.279 19.875 3.702 20.298C4.125 20.721 4.705 20.975 5.711 21.11C6.739 21.248 8.093 21.25 10 21.25H14C15.907 21.25 17.262 21.248 18.29 21.11C19.295 20.975 19.875 20.721 20.298 20.298C20.721 19.875 20.975 19.295 21.11 18.289C21.248 17.262 21.25 15.907 21.25 14V11.75L2.75 11.749ZM21.242 10.249H2.75V6.94899C2.75 6.03199 2.753 5.67799 2.806 5.39599C2.92739 4.75382 3.23957 4.16317 3.70179 3.70113C4.164 3.23909 4.75478 2.92714 5.397 2.80599C5.679 2.75199 6.033 2.74899 6.95 2.74899C7.35 2.74899 7.503 2.74899 7.646 2.76299C8.29671 2.82402 8.9139 3.07982 9.417 3.49699C9.59125 3.6503 9.75874 3.81112 9.919 3.97899L10.469 4.52899L10.548 4.60699C11.288 5.34899 11.766 5.82699 12.348 6.14999C12.6673 6.32733 13.003 6.46633 13.355 6.56699C13.995 6.74899 14.67 6.74899 15.718 6.74899H16.202C17.538 6.74899 18.469 6.74999 19.177 6.83899C19.866 6.92599 20.237 7.08499 20.505 7.32599C20.5637 7.37933 20.6197 7.43533 20.673 7.49399C20.914 7.76299 21.073 8.13399 21.16 8.82199C21.21 9.21699 21.232 9.68199 21.242 10.249Z" fill="black"/>
</g>
<defs>
<clipPath id="clip0_221_13951">
<rect width="24" height="24" fill="white"/>
</clipPath>
</defs>
</svg>
