<svg width="24" height="24" viewBox="0 0 24 24" fill="none" xmlns="http://www.w3.org/2000/svg">
<path fill-rule="evenodd" clip-rule="evenodd" d="M11.9378 16.3732C11.6578 17.3752 10.7257 18.1123 9.61872 18.1123C8.78171 18.1143 8.00069 17.6812 7.56068 16.9702C7.44368 16.7812 7.23568 16.6652 7.01367 16.6652C6.66067 16.6652 6.36966 16.9562 6.36966 17.3092C6.36966 17.4282 6.40366 17.5452 6.46566 17.6462C7.14167 18.7363 8.3367 19.4013 9.61872 19.3983C11.4338 19.3983 12.9448 18.1002 13.2528 16.3872C13.2618 16.3882 13.2718 16.3882 13.2808 16.3882C13.6338 16.3882 13.9238 16.0972 13.9238 15.7452C13.9238 15.5692 13.8518 15.4022 13.7258 15.2812L13.7268 15.2822L13.1198 14.6812C12.8708 14.4352 12.4638 14.4352 12.2148 14.6822L11.6058 15.2842C11.4828 15.4052 11.4148 15.5702 11.4148 15.7412C11.4148 16.0542 11.6418 16.3172 11.9378 16.3732ZM6.06465 14.6162C6.05765 14.6162 6.05166 14.6162 6.04466 14.6162C5.69165 14.6162 5.40065 14.9062 5.40065 15.2592C5.40065 15.4312 5.46965 15.5952 5.59165 15.7162L6.19866 16.3192C6.44766 16.5652 6.85567 16.5652 7.10468 16.3192L7.71269 15.7162C7.8337 15.5952 7.9027 15.4312 7.9027 15.2592C7.9027 14.9482 7.67669 14.6852 7.38069 14.6282C7.65969 13.6262 8.5867 12.8891 9.68972 12.8891C10.5237 12.8871 11.2998 13.3201 11.7368 14.0292C11.7388 14.0322 11.7398 14.0352 11.7418 14.0372C11.8608 14.2192 12.0638 14.3292 12.2808 14.3292C12.6338 14.3292 12.9238 14.0392 12.9238 13.6862C12.9238 13.5732 12.8938 13.4612 12.8368 13.3632C12.8358 13.3601 12.8338 13.3582 12.8318 13.3552C12.1608 12.2651 10.9688 11.6011 9.68873 11.6021C7.87869 11.6031 6.37066 12.9031 6.06465 14.6162ZM12.0588 16.3072V16.2852L12.0578 16.3102L12.0588 16.3072ZM12.0618 16.2852V16.2922L12.0638 16.2842L12.0618 16.2852Z" fill="black"/>
<path fill-rule="evenodd" clip-rule="evenodd" d="M12.2497 2.83403C11.7899 2.75602 11.1622 2.75002 10.0296 2.75002C8.11261 2.75002 6.74984 2.75152 5.71782 2.88953C4.70606 3.02453 4.1248 3.27953 3.70179 3.70179C3.27878 4.12405 3.02453 4.70456 2.88953 5.71107C2.75152 6.73859 2.75002 8.09311 2.75002 10.0011V14.001C2.75002 15.9067 2.75152 17.2613 2.88953 18.2888C3.02453 19.2953 3.27878 19.8751 3.70179 20.2988C4.1248 20.7211 4.70456 20.9753 5.71107 21.1103C6.73859 21.2491 8.09311 21.2498 9.99964 21.2498H14.0002C15.9067 21.2498 17.262 21.2483 18.2903 21.1103C19.2953 20.9753 19.875 20.7211 20.2981 20.2981C20.7211 19.875 20.9753 19.2953 21.1103 18.2888C21.2483 17.262 21.2498 15.9067 21.2498 14.0002V13.5629C21.2498 12.0269 21.2401 11.2987 21.0758 10.7497H17.946C16.8128 10.7497 15.888 10.7497 15.156 10.6522C14.3932 10.5486 13.731 10.3266 13.2022 9.79789C12.6727 9.26913 12.4507 8.60762 12.3479 7.84261C12.2497 7.11284 12.2497 6.18658 12.2497 5.05256V2.83403ZM13.7497 3.60954V5.00006C13.7497 6.20008 13.752 7.02359 13.8352 7.6431C13.9147 8.24086 14.0587 8.53412 14.2627 8.73662C14.4667 8.93987 14.7592 9.08463 15.357 9.16488C15.9757 9.24813 16.8 9.24963 18 9.24963H20.0198C19.6365 8.88437 19.2465 8.52587 18.8498 8.17411L14.8912 4.6108C14.5177 4.26955 14.1375 3.93579 13.7497 3.60954ZM10.1751 1.25C11.5597 1.25 12.4552 1.25 13.2779 1.565C14.1007 1.88076 14.763 2.47702 15.7882 3.39953L15.8947 3.49554L19.8533 7.05884L19.9778 7.1706C21.1621 8.23561 21.9278 8.92487 22.3388 9.84889C22.7498 10.7729 22.7513 11.8027 22.7498 13.3949V14.0557C22.7498 15.894 22.7498 17.3498 22.5968 18.489C22.4393 19.6613 22.1071 20.6101 21.3593 21.3593C20.6101 22.1071 19.6613 22.4393 18.489 22.5968C17.349 22.7498 15.894 22.7498 14.0557 22.7498H9.94414C8.10586 22.7498 6.65009 22.7498 5.51082 22.5968C4.33855 22.4393 3.38978 22.1071 2.64052 21.3593C1.89276 20.6101 1.56051 19.6613 1.403 18.489C1.25 17.349 1.25 15.894 1.25 14.0557V9.94489C1.25 8.10661 1.25 6.65084 1.403 5.51157C1.56051 4.34005 1.89276 3.39053 2.64052 2.64202C3.39053 1.89276 4.34155 1.562 5.51907 1.40375C6.66284 1.25075 8.12611 1.25075 9.97414 1.25075H10.1759" fill="black"/>
</svg>
