<svg width="24" height="24" viewBox="0 0 24 24" fill="none" xmlns="http://www.w3.org/2000/svg">
<g clip-path="url(#clip0_221_14037)">
<path fill-rule="evenodd" clip-rule="evenodd" d="M15.948 1.25H18.052C18.951 1.25 19.7 1.25 20.294 1.33C20.922 1.414 21.489 1.6 21.944 2.055C22.4 2.511 22.586 3.078 22.67 3.705C22.75 4.3 22.75 5.05 22.75 5.948V8.052C22.75 8.95 22.75 9.7 22.67 10.294C22.586 10.922 22.4 11.489 21.944 11.944C21.489 12.4 20.922 12.586 20.294 12.67C19.7 12.75 18.951 12.75 18.052 12.75H17.75V13.052C17.75 13.951 17.75 14.7 17.67 15.294C17.586 15.922 17.4 16.489 16.944 16.944C16.489 17.4 15.922 17.586 15.294 17.67C14.7 17.75 13.95 17.75 13.052 17.75H12.75V18.052C12.75 18.951 12.75 19.7 12.67 20.294C12.586 20.922 12.4 21.489 11.944 21.944C11.489 22.4 10.922 22.586 10.294 22.67C9.7 22.75 8.95 22.75 8.052 22.75H5.948C5.05 22.75 4.3 22.75 3.706 22.67C3.078 22.586 2.511 22.4 2.056 21.944C1.6 21.489 1.414 20.922 1.33 20.294C1.25 19.7 1.25 18.951 1.25 18.052V15.948C1.25 15.049 1.25 14.3 1.33 13.706C1.414 13.078 1.6 12.511 2.055 12.056C2.511 11.6 3.078 11.414 3.705 11.33C4.3 11.25 5.05 11.25 5.948 11.25H6.25V10.948C6.25 10.049 6.25 9.3 6.33 8.706C6.414 8.078 6.6 7.511 7.055 7.056C7.511 6.6 8.078 6.414 8.705 6.33C9.3 6.25 10.05 6.25 10.948 6.25H11.25V5.948C11.25 5.05 11.25 4.3 11.33 3.706C11.414 3.078 11.6 2.511 12.056 2.056C12.511 1.6 13.078 1.414 13.706 1.33C14.3 1.25 15.05 1.25 15.948 1.25ZM11.25 7.75H11C10.036 7.75 9.388 7.752 8.905 7.817C8.444 7.879 8.246 7.986 8.116 8.117C7.986 8.248 7.879 8.444 7.816 8.905C7.752 9.388 7.75 10.036 7.75 11V13C7.75 13.964 7.752 14.612 7.817 15.095C7.879 15.556 7.986 15.754 8.117 15.884C8.248 16.014 8.444 16.121 8.905 16.184C9.388 16.248 10.036 16.25 11 16.25H13C13.964 16.25 14.612 16.248 15.095 16.183C15.556 16.121 15.754 16.014 15.884 15.883C16.014 15.752 16.121 15.556 16.184 15.095C16.248 14.612 16.25 13.964 16.25 13V12.75H15.948C15.049 12.75 14.3 12.75 13.706 12.67C13.078 12.586 12.511 12.4 12.056 11.944C11.6 11.489 11.414 10.922 11.33 10.294C11.25 9.7 11.25 8.95 11.25 8.052V7.75ZM6.25 12.75H6C5.036 12.75 4.388 12.752 3.905 12.816C3.444 12.879 3.246 12.986 3.116 13.116C2.986 13.246 2.879 13.444 2.816 13.906C2.752 14.388 2.75 15.036 2.75 16V18C2.75 18.964 2.752 19.612 2.817 20.095C2.879 20.556 2.986 20.754 3.117 20.884C3.248 21.014 3.444 21.121 3.905 21.184C4.388 21.248 5.036 21.25 6 21.25H8C8.964 21.25 9.612 21.248 10.095 21.183C10.556 21.121 10.754 21.014 10.884 20.883C11.014 20.752 11.121 20.556 11.184 20.095C11.248 19.612 11.25 18.964 11.25 18V17.75H10.948C10.049 17.75 9.3 17.75 8.706 17.67C8.078 17.586 7.511 17.4 7.056 16.944C6.6 16.489 6.414 15.922 6.33 15.294C6.25 14.7 6.25 13.95 6.25 13.052V12.75ZM13.905 2.817C13.444 2.879 13.246 2.986 13.116 3.117C12.986 3.248 12.879 3.444 12.816 3.905C12.752 4.388 12.75 5.036 12.75 6V8C12.75 8.964 12.752 9.612 12.816 10.095C12.879 10.556 12.986 10.754 13.116 10.884C13.246 11.014 13.444 11.121 13.906 11.184C14.388 11.248 15.036 11.25 16 11.25H18C18.964 11.25 19.612 11.248 20.095 11.184C20.556 11.121 20.754 11.014 20.884 10.884C21.014 10.754 21.121 10.556 21.184 10.094C21.248 9.612 21.25 8.964 21.25 8V6C21.25 5.036 21.248 4.388 21.183 3.905C21.121 3.444 21.014 3.246 20.883 3.116C20.752 2.986 20.556 2.879 20.095 2.816C19.612 2.752 18.964 2.75 18 2.75H16C15.036 2.75 14.388 2.752 13.905 2.817Z" fill="black"/>
</g>
<defs>
<clipPath id="clip0_221_14037">
<rect width="24" height="24" fill="white"/>
</clipPath>
</defs>
</svg>
