<svg width="24" height="24" viewBox="0 0 24 24" fill="none" xmlns="http://www.w3.org/2000/svg">
<g clip-path="url(#clip0_221_13851)">
<path fill-rule="evenodd" clip-rule="evenodd" d="M3.23086 3.50567L3.2318 3.52062L3.22993 3.48137V17.0699C3.22151 18.3365 3.6216 18.9946 3.97587 19.3508C4.3021 19.6789 4.64141 19.7976 4.84332 19.8406C4.83678 19.8387 13.5973 22.4859 13.5973 22.4859C14.4723 22.7897 15.1098 22.7178 15.5725 22.5187C16.7335 22.0176 16.898 20.5678 16.898 20.5678C16.8998 20.5463 16.9008 20.5239 16.9008 20.5024V19.6293H18.3225C19.1582 19.6293 19.7125 19.3779 20.0902 19.0591C20.9053 18.3711 20.91 17.2831 20.8997 17.0354C20.9006 17.0485 20.9006 3.85153 20.9006 3.85153C20.9006 1.31085 18.4843 1.19308 18.4843 1.19308C18.4712 1.19214 18.4581 1.19214 18.445 1.19214H5.55934C4.8321 1.17811 4.34135 1.39685 4.00017 1.68008C3.23366 2.31478 3.22806 3.36826 3.23086 3.50567ZM6.91568 3.78514V19.0021L14.0161 21.1474C14.0264 21.1502 14.0367 21.1539 14.047 21.1577C14.4779 21.3091 14.7892 21.3297 15.0172 21.2306C15.4024 21.0651 15.4827 20.6164 15.4986 20.4725V18.9283C15.4986 19.3152 15.4986 19.3152 15.4986 18.9283V6.62588C15.4986 6.60812 15.4996 6.59037 15.5005 6.57168C15.5005 6.57168 15.5538 5.94352 15.1219 5.51634C14.9294 5.32752 14.6396 5.19104 14.2208 5.14524C14.2031 5.14337 14.1862 5.14057 14.1685 5.13776L6.91568 3.78514ZM4.6302 3.3589L5.51354 3.52341V18.5787C5.38548 18.5936 5.1761 18.5039 5.13777 18.4721C5.13777 18.4721 4.62459 18.2001 4.63207 17.0765V3.48137C4.63207 3.46828 4.63207 3.45519 4.63113 3.44117C4.63113 3.44117 4.62833 3.41031 4.6302 3.3589ZM8.17854 2.59427C10.9978 3.11961 14.3966 3.7543 14.391 3.75337C15.1948 3.84497 15.7351 4.15251 16.1062 4.51893C16.9064 5.30787 16.9083 6.43053 16.9008 6.63244V18.2272H18.3225C18.7254 18.2272 19.004 18.1412 19.1853 17.9879C19.5676 17.6654 19.5013 17.1232 19.5013 17.1232C19.4994 17.0999 19.4985 17.0765 19.4985 17.0541V3.85153C19.4985 2.74945 18.5422 2.6083 18.417 2.59427H8.17854Z" fill="black"/>
</g>
<defs>
<clipPath id="clip0_221_13851">
<rect width="24" height="24" fill="white"/>
</clipPath>
</defs>
</svg>
