<svg width="24" height="24" viewBox="0 0 24 24" fill="none" xmlns="http://www.w3.org/2000/svg">
<path fill-rule="evenodd" clip-rule="evenodd" d="M12.2497 2.83403C11.7899 2.75602 11.1622 2.75002 10.0296 2.75002C8.11261 2.75002 6.74984 2.75152 5.71782 2.88953C4.70606 3.02453 4.1248 3.27953 3.70179 3.70179C3.27878 4.12405 3.02453 4.70456 2.88953 5.71107C2.75152 6.73859 2.75002 8.09311 2.75002 10.0011V14.001C2.75002 15.9067 2.75152 17.2613 2.88953 18.2888C3.02453 19.2953 3.27878 19.8751 3.70179 20.2988C4.1248 20.7211 4.70456 20.9753 5.71107 21.1103C6.73859 21.2491 8.09311 21.2498 9.99964 21.2498H14.0002C15.9067 21.2498 17.262 21.2483 18.2903 21.1103C19.2953 20.9753 19.875 20.7211 20.2981 20.2981C20.7211 19.875 20.9753 19.2953 21.1103 18.2888C21.2483 17.262 21.2498 15.9067 21.2498 14.0002V13.5629C21.2498 12.0269 21.2401 11.2987 21.0758 10.7497H17.946C16.8128 10.7497 15.888 10.7497 15.156 10.6522C14.3932 10.5486 13.731 10.3266 13.2022 9.79789C12.6727 9.26913 12.4507 8.60762 12.3479 7.84261C12.2497 7.11284 12.2497 6.18658 12.2497 5.05256V2.83403ZM13.7497 3.60954V5.00006C13.7497 6.20008 13.752 7.02359 13.8352 7.6431C13.9147 8.24086 14.0587 8.53412 14.2627 8.73662C14.4667 8.93987 14.7592 9.08463 15.357 9.16488C15.9757 9.24813 16.8 9.24963 18 9.24963H20.0198C19.6365 8.88437 19.2465 8.52587 18.8498 8.17411L14.8912 4.6108C14.5177 4.26955 14.1375 3.93579 13.7497 3.60954ZM10.1751 1.25C11.5597 1.25 12.4552 1.25 13.2779 1.565C14.1007 1.88076 14.763 2.47702 15.7882 3.39953L15.8947 3.49554L19.8533 7.05884L19.9778 7.1706C21.1621 8.23561 21.9278 8.92487 22.3388 9.84889C22.7498 10.7729 22.7513 11.8027 22.7498 13.3949V14.0557C22.7498 15.894 22.7498 17.3498 22.5968 18.489C22.4393 19.6613 22.1071 20.6101 21.3593 21.3593C20.6101 22.1071 19.6613 22.4393 18.489 22.5968C17.349 22.7498 15.894 22.7498 14.0557 22.7498H9.94414C8.10586 22.7498 6.65009 22.7498 5.51082 22.5968C4.33855 22.4393 3.38978 22.1071 2.64052 21.3593C1.89276 20.6101 1.56051 19.6613 1.403 18.489C1.25 17.349 1.25 15.894 1.25 14.0557V9.94489C1.25 8.10661 1.25 6.65084 1.403 5.51157C1.56051 4.34005 1.89276 3.39053 2.64052 2.64202C3.39053 1.89276 4.34155 1.562 5.51907 1.40375C6.66284 1.25075 8.12611 1.25075 9.97414 1.25075H10.1759" fill="black"/>
<path d="M5.27478 19.1774V13.9859H6.94657C7.40563 13.9859 7.81791 14.0904 8.18414 14.298C8.54964 14.5063 8.83546 14.7995 9.0416 15.1789C9.24701 15.5575 9.35081 15.983 9.353 16.453V16.692C9.353 17.1679 9.25286 17.5933 9.05183 17.9705C8.85081 18.347 8.56865 18.6416 8.20315 18.8543C7.83838 19.067 7.43195 19.1745 6.98239 19.1774H5.27478ZM6.52624 14.9523V18.2147H6.96119C7.32011 18.2147 7.59569 18.0868 7.78794 17.8309C7.98093 17.5758 8.07669 17.1964 8.07669 16.692V16.4676C8.07669 15.9661 7.98093 15.5882 7.78794 15.3338C7.59569 15.0794 7.31499 14.9523 6.94657 14.9523H6.52624Z" fill="black"/>
<path d="M14.3911 16.6883C14.3911 17.1949 14.2975 17.643 14.1096 18.0327C13.9218 18.4223 13.655 18.7227 13.3092 18.9332C12.9634 19.143 12.5694 19.2483 12.1272 19.2483C11.6849 19.2483 11.2931 19.1467 10.9503 18.9435C10.6082 18.7403 10.3414 18.4501 10.1498 18.0721C9.95905 17.6942 9.85817 17.26 9.84866 16.771V16.4786C9.84866 15.9698 9.94223 15.521 10.1286 15.1321C10.315 14.7439 10.5826 14.4435 10.9313 14.2322C11.2792 14.0209 11.6754 13.9149 12.1199 13.9149C12.5599 13.9149 12.9517 14.0195 13.2968 14.2285C13.6411 14.4376 13.9093 14.7351 14.1001 15.1218C14.2917 15.5078 14.3889 15.9508 14.3911 16.45V16.6883ZM13.1184 16.4712C13.1184 15.9552 13.0321 15.5641 12.8596 15.2965C12.6871 15.029 12.4408 14.8952 12.1199 14.8952C11.4927 14.8952 11.1608 15.366 11.125 16.3068L11.1213 16.6883C11.1213 17.1971 11.2061 17.5882 11.375 17.8616C11.5438 18.135 11.7946 18.2717 12.1272 18.2717C12.443 18.2717 12.6871 18.1372 12.8582 17.8689C13.0292 17.5999 13.1162 17.2139 13.1184 16.7103V16.4712Z" fill="black"/>
<path d="M19.2361 17.4194C19.2193 17.7805 19.1221 18.0999 18.9437 18.377C18.7653 18.654 18.5153 18.8682 18.1937 19.0202C17.8713 19.1723 17.5036 19.2483 17.0899 19.2483C16.4079 19.2483 15.8706 19.0261 15.4788 18.5816C15.0862 18.1372 14.8903 17.51 14.8903 16.6993V16.4428C14.8903 15.934 14.9788 15.4888 15.1557 15.1072C15.3326 14.7256 15.5877 14.4311 15.9203 14.2235C16.2536 14.0151 16.6381 13.9113 17.076 13.9113C17.7054 13.9113 18.212 14.0772 18.5943 14.4084C18.9773 14.7403 19.1944 15.1971 19.2471 15.7797H17.9992C17.9897 15.4632 17.9101 15.2366 17.7602 15.0984C17.6104 14.9603 17.3823 14.8916 17.076 14.8916C16.7646 14.8916 16.5358 15.0085 16.3911 15.241C16.2463 15.4742 16.1703 15.8463 16.163 16.3572V16.7242C16.163 17.2783 16.2324 17.6738 16.3713 17.9113C16.5102 18.1489 16.75 18.268 17.0899 18.268C17.3772 18.268 17.5972 18.2001 17.7492 18.0648C17.9013 17.9296 17.9824 17.714 17.9919 17.4194H19.2361Z" fill="black"/>
</svg>
