<svg width="24" height="24" viewBox="0 0 24 24" fill="none" xmlns="http://www.w3.org/2000/svg">
<path fill-rule="evenodd" clip-rule="evenodd" d="M12.2497 2.83403C11.7899 2.75602 11.1622 2.75002 10.0296 2.75002C8.11261 2.75002 6.74984 2.75152 5.71782 2.88953C4.70606 3.02453 4.1248 3.27953 3.70179 3.70179C3.27878 4.12405 3.02453 4.70456 2.88953 5.71107C2.75152 6.73859 2.75002 8.09311 2.75002 10.0011V14.001C2.75002 15.9067 2.75152 17.2613 2.88953 18.2888C3.02453 19.2953 3.27878 19.8751 3.70179 20.2988C4.1248 20.7211 4.70456 20.9753 5.71107 21.1103C6.73859 21.2491 8.09311 21.2498 9.99964 21.2498H14.0002C15.9067 21.2498 17.262 21.2483 18.2903 21.1103C19.2953 20.9753 19.875 20.7211 20.2981 20.2981C20.7211 19.875 20.9753 19.2953 21.1103 18.2888C21.2483 17.262 21.2498 15.9067 21.2498 14.0002V13.5629C21.2498 12.0269 21.2401 11.2987 21.0758 10.7497H17.946C16.8128 10.7497 15.888 10.7497 15.156 10.6522C14.3932 10.5486 13.731 10.3266 13.2022 9.79789C12.6727 9.26913 12.4507 8.60762 12.3479 7.84261C12.2497 7.11284 12.2497 6.18658 12.2497 5.05256V2.83403ZM13.7497 3.60954V5.00006C13.7497 6.20008 13.752 7.02359 13.8352 7.6431C13.9147 8.24086 14.0587 8.53412 14.2627 8.73662C14.4667 8.93987 14.7592 9.08463 15.357 9.16488C15.9757 9.24813 16.8 9.24963 18 9.24963H20.0198C19.6365 8.88437 19.2465 8.52587 18.8498 8.17411L14.8912 4.6108C14.5177 4.26955 14.1375 3.93579 13.7497 3.60954ZM10.1751 1.25C11.5597 1.25 12.4552 1.25 13.2779 1.565C14.1007 1.88076 14.763 2.47702 15.7882 3.39953L15.8947 3.49554L19.8533 7.05884L19.9778 7.1706C21.1621 8.23561 21.9278 8.92487 22.3388 9.84889C22.7498 10.7729 22.7513 11.8027 22.7498 13.3949V14.0557C22.7498 15.894 22.7498 17.3498 22.5968 18.489C22.4393 19.6613 22.1071 20.6101 21.3593 21.3593C20.6101 22.1071 19.6613 22.4393 18.489 22.5968C17.349 22.7498 15.894 22.7498 14.0557 22.7498H9.94414C8.10586 22.7498 6.65009 22.7498 5.51082 22.5968C4.33855 22.4393 3.38978 22.1071 2.64052 21.3593C1.89276 20.6101 1.56051 19.6613 1.403 18.489C1.25 17.349 1.25 15.894 1.25 14.0557V9.94489C1.25 8.10661 1.25 6.65084 1.403 5.51157C1.56051 4.34005 1.89276 3.39053 2.64052 2.64202C3.39053 1.89276 4.34155 1.562 5.51907 1.40375C6.66284 1.25075 8.12611 1.25075 9.97414 1.25075H10.1759" fill="black"/>
<path fill-rule="evenodd" clip-rule="evenodd" d="M7.4244 12.0471L7.39026 12.0462C7.05344 12.0462 6.77107 12.3018 6.72955 12.6285C5.9018 12.8684 5.25677 13.5467 5.25677 14.4243C5.25677 15.5261 6.2783 16.3141 7.39026 16.3141C7.86181 16.3141 8.19124 16.5817 8.19124 16.8706C8.19124 17.1594 7.86181 17.4261 7.39026 17.4261C6.91964 17.4261 6.5902 17.1594 6.5902 16.8706C6.5902 16.5042 6.28938 16.2034 5.92303 16.2034C5.5576 16.2034 5.25677 16.5042 5.25677 16.8706C5.25677 17.7481 5.9018 18.4264 6.72955 18.6663C6.77107 18.993 7.05344 19.2495 7.39026 19.2495C7.728 19.2495 8.01038 18.993 8.0519 18.6663C8.87964 18.4264 9.52467 17.7481 9.52467 16.8706C9.52467 15.7688 8.50315 14.9807 7.39026 14.9807C6.91964 14.9807 6.5902 14.7131 6.5902 14.4243C6.5902 14.1363 6.91964 13.8687 7.39026 13.8687C7.86181 13.8687 8.19124 14.1363 8.19124 14.4243C8.19124 14.7906 8.49207 15.0914 8.85842 15.0914C9.22384 15.0914 9.52467 14.7906 9.52467 14.4243C9.52467 13.5467 8.87964 12.8684 8.0519 12.6285C8.01222 12.3129 7.74738 12.0628 7.4244 12.0471Z" fill="black"/>
</svg>
