<svg width="24" height="24" viewBox="0 0 24 24" fill="none" xmlns="http://www.w3.org/2000/svg">
<g clip-path="url(#clip0_221_14156)">
<path fill-rule="evenodd" clip-rule="evenodd" d="M2.83 10.777L3.258 10.403C3.84037 9.89353 4.59461 9.62445 5.36794 9.65026C6.14128 9.67607 6.87589 9.99484 7.423 10.542L11.713 14.832C11.9211 15.0398 12.1959 15.1675 12.4889 15.1928C12.7819 15.218 13.0744 15.1391 13.315 14.97L13.613 14.76C14.3076 14.2719 15.1472 14.0339 15.9946 14.0849C16.842 14.136 17.647 14.473 18.278 15.041L20.021 16.611C20.7006 15.4264 21.1095 14.1061 21.2184 12.7447C21.3272 11.3834 21.1332 10.0148 20.6503 8.73734C20.1675 7.45985 19.4078 6.30513 18.4257 5.3561C17.4436 4.40707 16.2636 3.68726 14.9704 3.24838C13.6771 2.8095 12.3027 2.66243 10.9459 2.81773C9.58907 2.97303 8.28346 3.42684 7.12282 4.14659C5.96219 4.86634 4.97533 5.83415 4.2331 6.98054C3.49088 8.12693 3.01171 9.42345 2.83 10.777ZM19.162 17.855L17.275 16.156C16.8963 15.8151 16.413 15.6128 15.9044 15.5823C15.3957 15.5517 14.8918 15.6948 14.475 15.988L14.178 16.198C13.6483 16.5702 13.0042 16.7436 12.3592 16.6876C11.7142 16.6316 11.1097 16.3499 10.652 15.892L6.362 11.602C6.08386 11.3239 5.71041 11.162 5.31732 11.149C4.92423 11.136 4.5409 11.2729 4.245 11.532L2.785 12.81C2.98755 15.1142 4.04608 17.259 5.75186 18.8213C7.45765 20.3836 9.68688 21.2501 12 21.25C13.371 21.2515 14.7251 20.9476 15.964 20.3604C17.2028 19.7731 18.2953 18.9173 19.162 17.855ZM1.25 12C1.25 6.063 6.063 1.25 12 1.25C17.937 1.25 22.75 6.063 22.75 12C22.75 17.937 17.937 22.75 12 22.75C6.063 22.75 1.25 17.937 1.25 12ZM15 7.75C14.6685 7.75 14.3505 7.8817 14.1161 8.11612C13.8817 8.35054 13.75 8.66848 13.75 9C13.75 9.33152 13.8817 9.64946 14.1161 9.88388C14.3505 10.1183 14.6685 10.25 15 10.25C15.3315 10.25 15.6495 10.1183 15.8839 9.88388C16.1183 9.64946 16.25 9.33152 16.25 9C16.25 8.66848 16.1183 8.35054 15.8839 8.11612C15.6495 7.8817 15.3315 7.75 15 7.75ZM12.25 9C12.25 8.27065 12.5397 7.57118 13.0555 7.05546C13.5712 6.53973 14.2707 6.25 15 6.25C15.7293 6.25 16.4288 6.53973 16.9445 7.05546C17.4603 7.57118 17.75 8.27065 17.75 9C17.75 9.72935 17.4603 10.4288 16.9445 10.9445C16.4288 11.4603 15.7293 11.75 15 11.75C14.2707 11.75 13.5712 11.4603 13.0555 10.9445C12.5397 10.4288 12.25 9.72935 12.25 9Z" fill="black"/>
</g>
<defs>
<clipPath id="clip0_221_14156">
<rect width="24" height="24" fill="white"/>
</clipPath>
</defs>
</svg>
