<svg width="24" height="24" viewBox="0 0 24 24" fill="none" xmlns="http://www.w3.org/2000/svg">
<g clip-path="url(#clip0_221_14110)">
<path fill-rule="evenodd" clip-rule="evenodd" d="M12 4.75C10.94 4.75 10.09 5.078 8.066 5.888L5.257 7.01C4.247 7.414 3.547 7.696 3.093 7.934L2.973 8L3.093 8.065C3.547 8.303 4.247 8.585 5.257 8.989L8.066 10.112C10.091 10.922 10.94 11.25 12 11.25C13.06 11.25 13.91 10.922 15.934 10.112L18.743 8.989C19.753 8.585 20.453 8.303 20.907 8.065L21.027 8L20.907 7.935C20.453 7.697 19.753 7.415 18.743 7.011L15.934 5.888C13.91 5.078 13.06 4.75 12 4.75ZM7.624 4.449C9.501 3.698 10.621 3.25 12 3.25C13.379 3.25 14.499 3.698 16.376 4.449L16.491 4.495L19.345 5.637C20.3 6.019 21.073 6.327 21.604 6.606C21.872 6.746 22.132 6.906 22.333 7.099C22.539 7.297 22.75 7.597 22.75 8C22.75 8.403 22.54 8.703 22.333 8.901C22.133 9.094 21.873 9.253 21.603 9.394C21.073 9.672 20.3 9.981 19.345 10.364L16.491 11.504L16.376 11.551C14.499 12.302 13.379 12.75 12 12.75C10.621 12.75 9.501 12.302 7.624 11.551L7.509 11.505L4.655 10.363C3.7 9.981 2.927 9.673 2.396 9.394C2.13146 9.26402 1.88614 9.09812 1.667 8.901C1.461 8.703 1.25 8.403 1.25 8C1.25 7.597 1.46 7.297 1.667 7.099C1.867 6.906 2.127 6.747 2.397 6.606C2.927 6.328 3.7 6.019 4.655 5.636L7.509 4.496L7.624 4.449ZM2.5 11.44L2.504 11.443L2.528 11.464C2.552 11.484 2.59133 11.5153 2.646 11.558C2.755 11.642 2.924 11.766 3.154 11.915C3.614 12.214 4.315 12.611 5.258 12.989L8.067 14.112C10.092 14.922 10.941 15.25 12.001 15.25C13.061 15.25 13.911 14.922 15.935 14.112L18.744 12.989C19.479 12.7011 20.1837 12.3413 20.848 11.915C21.0724 11.7687 21.2894 11.6111 21.498 11.443L21.501 11.441L21.502 11.44C21.6505 11.3088 21.8448 11.2416 22.0426 11.2532C22.2405 11.2648 22.4257 11.3542 22.5578 11.5019C22.6899 11.6496 22.7582 11.8436 22.7477 12.0414C22.7373 12.2393 22.6489 12.425 22.502 12.558L22 12L22.5 12.558V12.56L22.498 12.561L22.493 12.565L22.479 12.577L22.434 12.616C22.1873 12.8154 21.9303 13.0017 21.664 13.174C20.9169 13.6516 20.1252 14.0554 19.3 14.38L16.491 15.504L16.376 15.55C14.499 16.301 13.379 16.749 12 16.749C10.621 16.749 9.501 16.301 7.624 15.55L7.509 15.504L4.7 14.38C3.87514 14.0551 3.08376 13.6508 2.337 13.173C2.07034 13.0007 1.81298 12.8145 1.566 12.615L1.521 12.576L1.507 12.564L1.502 12.56L1.501 12.558H1.5L2 12L1.5 12.559C1.35161 12.4265 1.26193 12.2405 1.25068 12.0419C1.23942 11.8433 1.30753 11.6484 1.44 11.5C1.57248 11.3516 1.75847 11.2619 1.95708 11.2507C2.15568 11.2394 2.35161 11.3075 2.5 11.44ZM21.499 15.441L21.501 15.44C21.6495 15.3088 21.8438 15.2416 22.0416 15.2532C22.2395 15.2648 22.4247 15.3542 22.5568 15.5019C22.6889 15.6496 22.7572 15.8436 22.7467 16.0415C22.7363 16.2393 22.6479 16.425 22.501 16.558L22.5 16.56L22.498 16.561L22.493 16.565L22.479 16.577C22.4683 16.587 22.4533 16.5997 22.434 16.615C22.1873 16.8144 21.9303 17.0007 21.664 17.173C20.917 17.6512 20.1252 18.0558 19.3 18.381L16.491 19.505L16.376 19.551C14.499 20.302 13.379 20.75 12 20.75C10.621 20.75 9.501 20.302 7.624 19.551L7.509 19.505L4.7 18.38C3.87514 18.0551 3.08376 17.6508 2.337 17.173C2.07034 17.0007 1.81298 16.8145 1.566 16.615L1.521 16.576L1.507 16.564L1.502 16.56L1.501 16.558H1.5C1.35308 16.425 1.26474 16.2403 1.25429 16.0424C1.24385 15.8446 1.31213 15.6506 1.44424 15.5029C1.57635 15.3552 1.76154 15.2658 1.95935 15.2542C2.15717 15.2426 2.35154 15.3098 2.5 15.441L2.503 15.443L2.527 15.464C2.551 15.484 2.59034 15.5153 2.645 15.558C2.754 15.642 2.923 15.766 3.153 15.915C3.613 16.214 4.314 16.611 5.257 16.989L8.066 18.112C10.091 18.922 10.94 19.25 12 19.25C13.06 19.25 13.91 18.922 15.934 18.112L18.743 16.989C19.478 16.7011 20.1827 16.3413 20.847 15.915C21.0714 15.7687 21.2884 15.6111 21.497 15.443L21.499 15.441Z" fill="black"/>
</g>
<defs>
<clipPath id="clip0_221_14110">
<rect width="24" height="24" fill="white"/>
</clipPath>
</defs>
</svg>
