<svg width="24" height="24" viewBox="0 0 24 24" fill="none" xmlns="http://www.w3.org/2000/svg">
<g clip-path="url(#clip0_221_14145)">
<path fill-rule="evenodd" clip-rule="evenodd" d="M9.45099 3.25H9.54899C11.151 3.25 12.421 3.25 13.425 3.369C14.455 3.491 15.305 3.746 16.013 4.329C16.2537 4.52633 16.4733 4.74567 16.672 4.987C17.254 5.696 17.509 6.544 17.632 7.575C17.6587 7.807 17.68 8.05333 17.696 8.314C18.482 7.922 19.148 7.6 19.703 7.418C20.355 7.205 21.046 7.119 21.683 7.513C22.32 7.907 22.553 8.563 22.653 9.241C22.75 9.896 22.75 10.757 22.75 11.792V12.208C22.75 13.243 22.75 14.104 22.653 14.758C22.553 15.437 22.32 16.093 21.683 16.487C21.046 16.881 20.355 16.795 19.703 16.582C19.148 16.4 18.482 16.078 17.696 15.686C17.6807 15.9467 17.659 16.193 17.631 16.425C17.509 17.455 17.254 18.305 16.671 19.013C16.4737 19.2537 16.2543 19.4733 16.013 19.672C15.304 20.254 14.456 20.509 13.425 20.632C12.42 20.75 11.151 20.75 9.54899 20.75H9.44999C7.84799 20.75 6.57799 20.75 5.57399 20.631C4.54399 20.509 3.69399 20.254 2.98599 19.671C2.74633 19.4726 2.52571 19.2524 2.32699 19.013C1.74499 18.304 1.48999 17.456 1.36699 16.425C1.24899 15.42 1.24899 14.151 1.24899 12.549V11.45C1.24899 9.848 1.24899 8.578 1.36799 7.574C1.48999 6.544 1.74499 5.694 2.32799 4.986C2.52635 4.74634 2.74664 4.52572 2.98599 4.327C3.69499 3.745 4.54299 3.49 5.57399 3.367C6.57999 3.25 7.84999 3.25 9.45099 3.25ZM16.25 12.5V11.5C16.25 9.838 16.249 8.657 16.142 7.751C16.037 6.862 15.838 6.336 15.512 5.938C15.3768 5.77385 15.2261 5.62315 15.062 5.488C14.664 5.162 14.138 4.963 13.249 4.858C12.343 4.751 11.162 4.75 9.49999 4.75C7.83799 4.75 6.65699 4.751 5.75099 4.858C4.86199 4.963 4.33599 5.162 3.93799 5.488C3.77385 5.62315 3.62315 5.77385 3.48799 5.938C3.16199 6.336 2.96299 6.862 2.85799 7.751C2.75099 8.657 2.74999 9.838 2.74999 11.5V12.5C2.74999 14.162 2.75099 15.343 2.85799 16.249C2.96299 17.138 3.16199 17.664 3.48799 18.062C3.62333 18.2267 3.77333 18.3767 3.93799 18.512C4.33599 18.838 4.86199 19.037 5.75099 19.142C6.65699 19.249 7.83799 19.25 9.49999 19.25C11.162 19.25 12.343 19.249 13.249 19.142C14.138 19.037 14.664 18.838 15.062 18.512C15.2267 18.3767 15.3767 18.2267 15.512 18.062C15.838 17.664 16.037 17.138 16.142 16.249C16.249 15.343 16.25 14.162 16.25 12.5ZM17.75 14.037L17.994 14.158C18.989 14.656 19.66 14.989 20.17 15.156C20.669 15.319 20.82 15.256 20.894 15.211C20.968 15.166 21.092 15.058 21.169 14.538C21.248 14.008 21.25 13.258 21.25 12.146V11.854C21.25 10.741 21.248 9.992 21.17 9.462C21.092 8.942 20.968 8.835 20.894 8.789C20.82 8.743 20.669 8.681 20.17 8.844C19.66 9.011 18.99 9.344 17.994 9.842L17.75 9.964V14.037Z" fill="black"/>
</g>
<defs>
<clipPath id="clip0_221_14145">
<rect width="24" height="24" fill="white"/>
</clipPath>
</defs>
</svg>
