<svg width="24" height="24" viewBox="0 0 24 24" fill="none" xmlns="http://www.w3.org/2000/svg">
<g clip-path="url(#clip0_221_13946)">
<path fill-rule="evenodd" clip-rule="evenodd" d="M6.237 4.71201C6.42324 4.64722 6.57648 4.51168 6.66353 4.33475C6.75058 4.15781 6.76445 3.95371 6.70213 3.76663C6.63982 3.57954 6.50633 3.42453 6.33056 3.33514C6.15479 3.24575 5.95089 3.22917 5.763 3.28901L5.208 3.47401C4.638 3.66401 4.153 3.82501 3.769 4.00101C3.36 4.18801 3.002 4.41701 2.718 4.77701C2.433 5.13701 2.292 5.53701 2.203 5.97701C2.12 6.39201 2.074 6.90001 2.02 7.49901L1.322 15.169C1.27534 15.4409 1.25126 15.7162 1.25 15.992C1.255 18.611 3.38 20.75 6 20.75C7.12749 20.7502 8.21829 20.3493 9.07733 19.6191C9.93638 18.8888 10.5077 17.8768 10.689 16.764L10.908 16.686C11.6142 16.4341 12.3858 16.4341 13.092 16.686L13.312 16.764C13.4933 17.8766 14.0645 18.8885 14.9233 19.6188C15.7821 20.349 16.8727 20.75 18 20.75C20.62 20.75 22.744 18.61 22.75 15.992C22.75 15.7113 22.7257 15.437 22.677 15.169L21.98 7.50001C21.926 6.90001 21.88 6.39301 21.797 5.97901C21.708 5.53801 21.567 5.13701 21.282 4.77801C20.997 4.41901 20.64 4.18801 20.231 4.00201C19.847 3.82601 19.363 3.66501 18.792 3.47501L18.237 3.29001C18.0491 3.23017 17.8452 3.24675 17.6694 3.33614C17.4937 3.42553 17.3602 3.58054 17.2979 3.76763C17.2355 3.95471 17.2494 4.15881 17.3365 4.33575C17.4235 4.51268 17.5768 4.64822 17.763 4.71301L18.281 4.88501C18.898 5.09101 19.305 5.22801 19.607 5.36601C19.893 5.49601 20.021 5.60101 20.107 5.70901C20.192 5.81601 20.264 5.96501 20.326 6.27301C20.391 6.59901 20.431 7.02601 20.49 7.67401L20.905 12.243C20.2575 11.7423 19.4916 11.4175 18.6815 11.2999C17.8715 11.1824 17.0449 11.2762 16.2817 11.5722C15.5186 11.8681 14.8449 12.3563 14.326 12.9893C13.8071 13.6223 13.4606 14.3787 13.32 15.185C12.4577 14.9355 11.5423 14.9355 10.68 15.185C10.5394 14.3787 10.1929 13.6223 9.67398 12.9893C9.15507 12.3563 8.48138 11.8681 7.71826 11.5722C6.95514 11.2762 6.12849 11.1824 5.31846 11.2999C4.50843 11.4175 3.74252 11.7423 3.095 12.243L3.143 11.711L3.51 7.67401C3.569 7.02601 3.609 6.59901 3.674 6.27401C3.736 5.96501 3.808 5.81601 3.894 5.70901C3.979 5.60101 4.107 5.49701 4.393 5.36601C4.695 5.22801 5.102 5.09101 5.719 4.88601L6.237 4.71201ZM21.19 15.376L21.25 16.032C21.2414 16.8654 20.913 17.6636 20.3326 18.2617C19.7523 18.8598 18.9643 19.2121 18.1316 19.2458C17.2989 19.2795 16.485 18.9921 15.8582 18.4428C15.2314 17.8935 14.8396 17.1245 14.7637 16.2945C14.6878 15.4646 14.9336 14.6372 15.4503 13.9833C15.9671 13.3295 16.7153 12.8991 17.5403 12.7812C18.3653 12.6633 19.2041 12.8668 19.8834 13.3497C20.5626 13.8326 21.0304 14.558 21.19 15.376ZM2.81 15.376L2.75 16.032C2.75859 16.8654 3.087 17.6636 3.66736 18.2617C4.24772 18.8598 5.03567 19.2121 5.8684 19.2458C6.70112 19.2795 7.51498 18.9921 8.14177 18.4428C8.76857 17.8935 9.16041 17.1245 9.23632 16.2945C9.31223 15.4646 9.06641 14.6372 8.54965 13.9833C8.03289 13.3295 7.2847 12.8991 6.45968 12.7812C5.63466 12.6633 4.79586 12.8668 4.11663 13.3497C3.43739 13.8326 2.96963 14.558 2.81 15.376Z" fill="black"/>
</g>
<defs>
<clipPath id="clip0_221_13946">
<rect width="24" height="24" fill="white"/>
</clipPath>
</defs>
</svg>
