<svg width="24" height="24" viewBox="0 0 24 24" fill="none" xmlns="http://www.w3.org/2000/svg">
<g clip-path="url(#clip0_221_13987)">
<path fill-rule="evenodd" clip-rule="evenodd" d="M9 6.25C8.63886 6.25 8.28127 6.32113 7.94762 6.45933C7.61397 6.59753 7.31082 6.8001 7.05546 7.05546C6.80009 7.31082 6.59753 7.61398 6.45933 7.94762C6.32113 8.28127 6.25 8.63886 6.25 9C6.25 9.36114 6.32113 9.71873 6.45933 10.0524C6.59753 10.386 6.80009 10.6892 7.05546 10.9445C7.31082 11.1999 7.61397 11.4025 7.94762 11.5407C8.28127 11.6789 8.63886 11.75 9 11.75C9.72934 11.75 10.4288 11.4603 10.9445 10.9445C11.4603 10.4288 11.75 9.72935 11.75 9C11.75 8.27065 11.4603 7.57118 10.9445 7.05546C10.4288 6.53973 9.72934 6.25 9 6.25ZM7.75 9C7.75 8.66848 7.8817 8.35054 8.11612 8.11612C8.35054 7.8817 8.66848 7.75 9 7.75C9.33152 7.75 9.64946 7.8817 9.88388 8.11612C10.1183 8.35054 10.25 8.66848 10.25 9C10.25 9.33152 10.1183 9.64946 9.88388 9.88388C9.64946 10.1183 9.33152 10.25 9 10.25C8.66848 10.25 8.35054 10.1183 8.11612 9.88388C7.8817 9.64946 7.75 9.33152 7.75 9ZM9 12.25C7.804 12.25 6.685 12.49 5.836 12.915C5.033 13.317 4.25 14.011 4.25 15V15.063C4.248 15.573 4.246 16.433 5.06 17.022C5.438 17.295 5.937 17.47 6.555 17.581C7.178 17.693 7.977 17.75 9 17.75C10.023 17.75 10.822 17.693 11.445 17.581C12.063 17.47 12.562 17.295 12.94 17.021C13.754 16.432 13.752 15.573 13.75 15.062V15C13.75 14.01 12.967 13.317 12.164 12.915C11.315 12.491 10.196 12.25 9 12.25ZM5.75 15C5.75 14.885 5.863 14.579 6.507 14.257C7.107 13.957 7.987 13.75 9 13.75C10.013 13.75 10.894 13.957 11.493 14.257C12.137 14.579 12.25 14.885 12.25 15C12.25 15.604 12.211 15.697 12.06 15.807C11.938 15.895 11.687 16.013 11.18 16.105C10.678 16.195 9.977 16.25 9 16.25C8.023 16.25 7.322 16.195 6.82 16.105C6.313 16.013 6.062 15.895 5.94 15.807C5.788 15.697 5.75 15.604 5.75 15Z" fill="black"/>
<path d="M19 12.75C19.1989 12.75 19.3897 12.671 19.5303 12.5303C19.671 12.3897 19.75 12.1989 19.75 12C19.75 11.8011 19.671 11.6103 19.5303 11.4697C19.3897 11.329 19.1989 11.25 19 11.25H15C14.8011 11.25 14.6103 11.329 14.4697 11.4697C14.329 11.6103 14.25 11.8011 14.25 12C14.25 12.1989 14.329 12.3897 14.4697 12.5303C14.6103 12.671 14.8011 12.75 15 12.75H19ZM19.75 9C19.75 9.19891 19.671 9.38968 19.5303 9.53033C19.3897 9.67098 19.1989 9.75 19 9.75H14C13.8011 9.75 13.6103 9.67098 13.4697 9.53033C13.329 9.38968 13.25 9.19891 13.25 9C13.25 8.80109 13.329 8.61032 13.4697 8.46967C13.6103 8.32902 13.8011 8.25 14 8.25H19C19.1989 8.25 19.3897 8.32902 19.5303 8.46967C19.671 8.61032 19.75 8.80109 19.75 9ZM19 15.75C19.1989 15.75 19.3897 15.671 19.5303 15.5303C19.671 15.3897 19.75 15.1989 19.75 15C19.75 14.8011 19.671 14.6103 19.5303 14.4697C19.3897 14.329 19.1989 14.25 19 14.25H16C15.8011 14.25 15.6103 14.329 15.4697 14.4697C15.329 14.6103 15.25 14.8011 15.25 15C15.25 15.1989 15.329 15.3897 15.4697 15.5303C15.6103 15.671 15.8011 15.75 16 15.75H19Z" fill="black"/>
<path fill-rule="evenodd" clip-rule="evenodd" d="M9.944 3.25H14.056C15.894 3.25 17.35 3.25 18.489 3.403C19.661 3.561 20.61 3.893 21.359 4.641C22.107 5.39 22.439 6.339 22.597 7.511C22.75 8.651 22.75 10.106 22.75 11.944V12.056C22.75 13.894 22.75 15.35 22.597 16.489C22.439 17.661 22.107 18.61 21.359 19.359C20.61 20.107 19.661 20.439 18.489 20.597C17.349 20.75 15.894 20.75 14.056 20.75H9.945C8.107 20.75 6.651 20.75 5.512 20.597C4.34 20.439 3.391 20.107 2.642 19.359C1.894 18.61 1.562 17.661 1.404 16.489C1.251 15.349 1.251 13.894 1.251 12.056V11.944C1.251 10.106 1.251 8.65 1.404 7.511C1.562 6.339 1.894 5.39 2.642 4.641C3.391 3.893 4.34 3.561 5.512 3.403C6.652 3.25 8.106 3.25 9.944 3.25ZM5.71 4.89C4.704 5.025 4.124 5.279 3.7 5.702C3.278 6.125 3.024 6.705 2.889 7.711C2.751 8.739 2.749 10.093 2.749 12C2.749 13.907 2.751 15.262 2.889 16.29C3.024 17.295 3.278 17.875 3.701 18.298C4.124 18.721 4.704 18.975 5.71 19.11C6.738 19.248 8.092 19.25 9.999 19.25H13.999C15.906 19.25 17.261 19.248 18.289 19.11C19.294 18.975 19.874 18.721 20.297 18.298C20.72 17.875 20.974 17.295 21.109 16.289C21.247 15.261 21.249 13.907 21.249 12C21.249 10.093 21.247 8.739 21.109 7.71C20.974 6.705 20.72 6.125 20.297 5.702C19.874 5.279 19.294 5.025 18.288 4.89C17.261 4.752 15.906 4.75 13.999 4.75H9.999C8.092 4.75 6.739 4.752 5.71 4.89Z" fill="black"/>
</g>
<defs>
<clipPath id="clip0_221_13987">
<rect width="24" height="24" fill="white"/>
</clipPath>
</defs>
</svg>
