<svg width="24" height="24" viewBox="0 0 24 24" fill="none" xmlns="http://www.w3.org/2000/svg">
<g clip-path="url(#clip0_221_14229)">
<path fill-rule="evenodd" clip-rule="evenodd" d="M6.86 1.24999H6.987C7.338 1.24999 7.564 1.24999 7.785 1.26999C8.68619 1.35427 9.54455 1.69428 10.259 2.24999H16.558C16.967 2.24999 17.245 2.24999 17.489 2.28199C18.3411 2.39447 19.1288 2.79627 19.7201 3.42013C20.3113 4.04399 20.6704 4.85204 20.737 5.70899C21.018 5.83608 21.2777 6.00574 21.507 6.21199C21.607 6.30066 21.7007 6.39399 21.788 6.49199C22.317 7.07999 22.542 7.79499 22.648 8.63599C22.75 9.44799 22.75 10.474 22.75 11.747V14.057C22.75 15.894 22.75 17.35 22.597 18.489C22.439 19.661 22.107 20.61 21.359 21.359C20.61 22.107 19.661 22.439 18.489 22.597C17.349 22.75 15.894 22.75 14.056 22.75H9.944C8.106 22.75 6.65 22.75 5.511 22.597C4.339 22.439 3.39 22.107 2.641 21.359C1.893 20.61 1.561 19.661 1.403 18.489C1.25 17.349 1.25 15.894 1.25 14.056V6.85999C1.25 6.06299 1.25 5.55699 1.332 5.11999C1.50884 4.18062 1.96499 3.31645 2.6408 2.64045C3.31662 1.96445 4.18067 1.50808 5.12 1.33099C5.558 1.24899 6.064 1.24899 6.86 1.24899M19.147 5.32699C19.0189 4.9175 18.7764 4.55317 18.4481 4.27695C18.1198 4.00073 17.7194 3.82413 17.294 3.76799C17.16 3.75099 16.988 3.74899 16.5 3.74899H11.811C12.454 4.38899 12.746 4.65499 13.077 4.83899C13.2957 4.96033 13.5253 5.05566 13.766 5.12499C14.179 5.24199 14.632 5.24899 15.828 5.24899H16.253C17.415 5.24899 18.372 5.24899 19.147 5.32699ZM6.95 2.74999C6.033 2.74999 5.679 2.75299 5.397 2.80599C4.75483 2.92739 4.16417 3.23957 3.70213 3.70178C3.2401 4.164 2.92815 4.75477 2.807 5.39699C2.753 5.67899 2.75 6.03299 2.75 6.94999V14C2.75 15.907 2.752 17.262 2.89 18.29C3.025 19.295 3.279 19.875 3.702 20.298C4.125 20.721 4.705 20.975 5.711 21.11C6.739 21.248 8.093 21.25 10 21.25H14C15.907 21.25 17.262 21.248 18.29 21.11C19.295 20.975 19.875 20.721 20.298 20.298C20.721 19.875 20.975 19.295 21.11 18.289C21.248 17.262 21.25 15.907 21.25 14V11.798C21.25 10.462 21.249 9.53099 21.16 8.82299C21.073 8.13399 20.914 7.76299 20.673 7.49499C20.6204 7.43571 20.5643 7.37961 20.505 7.32699C20.237 7.08599 19.865 6.92699 19.177 6.83999C18.47 6.75099 17.538 6.74999 16.202 6.74999H15.718C14.67 6.74999 13.994 6.74999 13.355 6.56799C13.005 6.46799 12.666 6.32799 12.347 6.15099C11.767 5.82699 11.289 5.34999 10.547 4.60799L10.47 4.52999L9.92 3.97999C9.75941 3.8121 9.59159 3.65128 9.417 3.49799C8.9139 3.08082 8.29671 2.82502 7.646 2.76399C7.41431 2.74923 7.18209 2.74456 6.95 2.74999ZM12.25 9.99999C12.25 9.80108 12.329 9.61032 12.4697 9.46966C12.6103 9.32901 12.8011 9.24999 13 9.24999H18C18.1989 9.24999 18.3897 9.32901 18.5303 9.46966C18.671 9.61032 18.75 9.80108 18.75 9.99999C18.75 10.1989 18.671 10.3897 18.5303 10.5303C18.3897 10.671 18.1989 10.75 18 10.75H13C12.8011 10.75 12.6103 10.671 12.4697 10.5303C12.329 10.3897 12.25 10.1989 12.25 9.99999Z" fill="black"/>
</g>
<defs>
<clipPath id="clip0_221_14229">
<rect width="24" height="24" fill="white"/>
</clipPath>
</defs>
</svg>
