<svg width="24" height="24" viewBox="0 0 24 24" fill="none" xmlns="http://www.w3.org/2000/svg">
<path fill-rule="evenodd" clip-rule="evenodd" d="M10.175 1.25C11.56 1.25 12.455 1.25 13.278 1.565C14.1009 1.881 14.7629 2.47701 15.7879 3.40001L19.8529 7.05901L19.9779 7.17101C21.1619 8.23601 21.9279 8.925 22.3389 9.849C22.7499 10.773 22.7509 11.803 22.7499 13.395V14.056C22.7499 15.894 22.7499 17.35 22.5969 18.489C22.4389 19.661 22.1069 20.61 21.3589 21.359C20.6099 22.107 19.6609 22.439 18.4889 22.597C17.3489 22.75 15.8939 22.75 14.0559 22.75H9.94397C8.10597 22.75 6.64998 22.75 5.51098 22.597C4.33899 22.439 3.38999 22.107 2.64099 21.359C1.893 20.61 1.561 19.661 1.403 18.489C1.25 17.349 1.25 15.894 1.25 14.056V9.94501C1.25 8.10701 1.25 6.65101 1.403 5.51201C1.561 4.34001 1.893 3.391 2.64099 2.642C3.39099 1.893 4.34199 1.56201 5.51898 1.40401C6.66298 1.25101 8.12597 1.25101 9.97396 1.25101H10.176L10.175 1.25ZM5.02399 3.017C4.41999 3.165 4.01699 3.387 3.70199 3.702C3.27899 4.124 3.02499 4.705 2.88999 5.711C2.75199 6.739 2.74999 8.09301 2.74999 10.001V14.001C2.74999 15.907 2.75199 17.261 2.88999 18.289C3.02499 19.295 3.27899 19.875 3.70199 20.299C4.12499 20.721 4.70498 20.975 5.71098 21.11C6.73898 21.249 8.09297 21.25 9.99996 21.25H13.9999C15.9069 21.25 17.2619 21.248 18.2899 21.11C19.2949 20.975 19.8749 20.721 20.2979 20.298C20.7209 19.875 20.9749 19.295 21.1099 18.289C21.2479 17.262 21.2499 15.907 21.2499 14V13.563C21.2499 12.027 21.2399 11.299 21.0759 10.75H17.9459C16.8129 10.75 15.8879 10.75 15.1559 10.652C14.3929 10.549 13.7309 10.327 13.202 9.798C12.673 9.269 12.451 8.608 12.348 7.843C12.25 7.113 12.25 6.18701 12.25 5.05301V2.834C11.79 2.756 11.162 2.75 10.03 2.75C9.67696 2.75 9.34397 2.75001 9.02697 2.75101L9.02597 4.354L9.81097 4.353C10.017 4.353 10.238 4.35301 10.426 4.37801C10.645 4.40801 10.926 4.48301 11.162 4.71901C11.398 4.95501 11.473 5.23501 11.503 5.45401C11.528 5.64301 11.528 5.86501 11.528 6.07001V6.638C11.528 6.844 11.528 7.066 11.503 7.254C11.473 7.473 11.398 7.754 11.162 7.989C10.962 8.182 10.702 8.30201 10.426 8.33101C10.238 8.35601 10.016 8.356 9.81097 8.356H9.02497L9.02597 9.35701L9.81097 9.356C10.017 9.356 10.238 9.356 10.426 9.382C10.645 9.412 10.926 9.48701 11.162 9.72301C11.398 9.95901 11.473 10.239 11.503 10.458C11.528 10.647 11.528 10.869 11.528 11.074V11.642C11.528 11.848 11.528 12.07 11.503 12.258C11.473 12.477 11.398 12.758 11.162 12.993C10.962 13.186 10.702 13.306 10.426 13.335C10.222 13.356 10.016 13.364 9.81097 13.36H9.24197C9.03597 13.36 8.81497 13.36 8.62697 13.335C8.40697 13.305 8.12597 13.23 7.89097 12.993C7.69797 12.793 7.57797 12.534 7.54997 12.258C7.52897 12.054 7.51997 11.848 7.52497 11.643V10.857L6.73998 10.858C6.53398 10.858 6.31298 10.858 6.12498 10.833C5.90498 10.803 5.62398 10.728 5.38898 10.491C5.19598 10.291 5.07598 10.032 5.04799 9.756C5.02299 9.568 5.02298 9.345 5.02298 9.14V8.57201C5.02298 8.36601 5.02299 8.14501 5.04799 7.95601C5.07799 7.73701 5.15298 7.45601 5.38898 7.22101C5.62498 6.98501 5.90498 6.91001 6.12498 6.88C6.31298 6.854 6.53498 6.854 6.73998 6.854L7.52598 6.855L7.52497 5.854L6.73998 5.855C6.53398 5.855 6.31298 5.855 6.12498 5.83C5.90498 5.8 5.62398 5.72501 5.38898 5.48801C5.19598 5.28801 5.07598 5.02901 5.04799 4.75301C5.02299 4.56501 5.02298 4.34201 5.02298 4.13701L5.02399 3.017ZM5.02298 15.987C5.02298 15.089 5.75098 14.36 6.64898 14.36H9.90197C10.8 14.36 11.528 15.089 11.528 15.987V16.112C11.528 17.896 10.06 19.364 8.27497 19.364C6.49098 19.364 5.02298 17.896 5.02298 16.112V15.987ZM6.64898 15.862C6.57998 15.862 6.52398 15.918 6.52398 15.987V16.112C6.52398 17.073 7.31497 17.863 8.27497 17.863C9.23597 17.863 10.027 17.073 10.027 16.112V15.987C10.027 15.918 9.96997 15.862 9.90197 15.862H6.64898ZM9.02797 10.859L9.02697 11.857H10.026V10.859H9.02797ZM6.52598 8.35701L6.52498 9.355H7.52397V8.35701H6.52598ZM13.75 3.61V5C13.75 6.2 13.7519 7.02401 13.8349 7.64301C13.9149 8.24101 14.0589 8.534 14.2629 8.737C14.4669 8.94 14.7589 9.08501 15.3569 9.16501C15.9759 9.24801 16.7999 9.25 17.9999 9.25H20.0199C19.6359 8.884 19.2459 8.526 18.8499 8.174L14.8909 4.61101C14.5169 4.26901 14.1369 3.935 13.75 3.61ZM9.02797 5.855L9.02697 6.853H10.026L10.027 5.855H9.02797ZM7.52497 2.76801C7.16497 2.77801 6.83298 2.791 6.52598 2.812L6.52498 3.60201L6.52598 4.35001L7.52397 4.35201L7.52497 2.76801Z" fill="black"/>
</svg>
