<svg width="24" height="24" viewBox="0 0 24 24" fill="none" xmlns="http://www.w3.org/2000/svg">
<path fill-rule="evenodd" clip-rule="evenodd" d="M6.49177 5.72939C6.31074 5.67939 6.12364 5.65337 5.9325 5.65337C5.13556 5.65337 4.1222 5.65337 3.32527 5.65337C2.7751 5.65337 2.24718 5.86939 1.85781 6.2544C1.46845 6.63941 1.25 7.16142 1.25 7.70543C1.25 10.5495 1.25 17.2857 1.25 20.1288C1.25 20.6738 1.46845 21.1958 1.85781 21.5808C2.24718 21.9658 2.7751 22.1819 3.32527 22.1819C4.1222 22.1819 5.13556 22.1819 5.9325 22.1819C6.41491 22.1819 6.88012 22.0159 7.25027 21.7158C7.60829 22.0069 8.06744 22.1819 8.56704 22.1819C9.36397 22.1819 10.3773 22.1819 11.1753 22.1819C12.3211 22.1819 13.2505 21.2628 13.2505 20.1298V12.7936L16.2846 20.8708C16.4757 21.3808 16.8651 21.7948 17.3647 22.0219C17.8653 22.2489 18.4367 22.2698 18.9525 22.0798C19.6999 21.8058 20.6495 21.4568 21.3969 21.1828C21.9137 20.9928 22.3324 20.6088 22.5609 20.1138C22.7905 19.6188 22.8117 19.0538 22.6206 18.5438L18.2456 6.89743C18.0544 6.38741 17.665 5.9734 17.1654 5.74639C16.6648 5.51939 16.0934 5.49837 15.5776 5.68838L13.2505 6.54241V3.27232C13.2505 2.13829 12.3211 1.22026 11.1753 1.22026C10.3773 1.22026 9.36397 1.22026 8.56704 1.22026C7.42119 1.22026 6.49177 2.13829 6.49177 3.27232V5.72939ZM16.8236 7.41941L21.1987 19.0658C21.2502 19.2038 21.2442 19.3558 21.1825 19.4888C21.1208 19.6218 21.0075 19.7248 20.869 19.7758L18.4246 20.6738C18.286 20.7248 18.1323 20.7198 17.9968 20.6578C17.8623 20.5968 17.7581 20.4858 17.7065 20.3488L13.3325 8.70247C13.2809 8.56447 13.2859 8.41246 13.3476 8.27945C13.4093 8.14645 13.5226 8.04343 13.6611 7.99243L16.1056 7.09442C16.2451 7.04342 16.3978 7.04841 16.5334 7.10941C16.6679 7.17141 16.772 7.28241 16.8236 7.41941ZM11.7335 3.27232V20.1288C11.7335 20.4348 11.4837 20.6818 11.1753 20.6818H8.56704C8.25858 20.6818 8.00878 20.4348 8.00878 20.1298V3.27232C8.00878 2.96731 8.25858 2.7203 8.56704 2.7203H11.1753C11.4837 2.7203 11.7335 2.96731 11.7335 3.27232ZM6.49177 7.70543V20.1288C6.49177 20.2758 6.43311 20.4158 6.32793 20.5198C6.22275 20.6238 6.08116 20.6818 5.9325 20.6818H3.32527C3.1766 20.6818 3.03501 20.6238 2.92983 20.5198C2.82567 20.4158 2.76701 20.2758 2.76701 20.1288V7.70543C2.76701 7.55943 2.82567 7.41844 2.92983 7.31544C3.03501 7.21143 3.1766 7.15342 3.32527 7.15342H5.9325C6.08116 7.15342 6.22275 7.21143 6.32793 7.31544C6.43311 7.41844 6.49177 7.55943 6.49177 7.70543Z" fill="black"/>
</svg>
