<svg width="24" height="24" viewBox="0 0 24 24" fill="none" xmlns="http://www.w3.org/2000/svg">
<g clip-path="url(#clip0_221_14214)">
<path fill-rule="evenodd" clip-rule="evenodd" d="M11.9613 1.26862H12.0753C14.3839 1.26862 16.1923 1.26862 17.6034 1.45831C19.0475 1.6525 20.1872 2.05813 21.0816 2.95186C21.9761 3.84635 22.381 4.98601 22.5752 6.43083C22.7649 7.84116 22.7649 9.64962 22.7649 11.9582V12.0722C22.7649 14.3807 22.7649 16.1892 22.5752 17.6003C22.381 19.0443 21.9754 20.184 21.0816 21.0785C20.1872 21.973 19.0475 22.3778 17.6027 22.572C16.1923 22.7617 14.3839 22.7617 12.0753 22.7617H11.9613C9.65279 22.7617 7.84432 22.7617 6.43324 22.572C4.98917 22.3778 3.84951 21.9722 2.95503 21.0785C2.06054 20.184 1.65566 19.0443 1.46147 17.5995C1.27178 16.1892 1.27178 14.3807 1.27178 12.0722V11.9582C1.27178 9.64962 1.27178 7.84116 1.46147 6.43008C1.65566 4.98601 2.06129 3.84635 2.95503 2.95186C3.84951 2.05738 4.98917 1.6525 6.43399 1.45831C7.84432 1.26862 9.65279 1.26862 11.9613 1.26862ZM6.63268 2.94362C5.35506 3.11607 4.58429 3.44372 4.01596 4.0128C3.44613 4.58263 3.11923 5.3519 2.94678 6.63102C2.77283 7.93038 2.77133 9.63763 2.77133 12.0152C2.77133 14.3927 2.77283 16.1 2.94678 17.3993C3.11923 18.6784 3.44688 19.4492 4.01596 20.019C4.58579 20.5874 5.35506 20.9143 6.63418 21.0867C7.93355 21.2607 9.64079 21.2622 12.0183 21.2622C14.3959 21.2622 16.1031 21.2607 17.4025 21.0867C18.6816 20.9143 19.4524 20.5866 20.0222 20.0175C20.5905 19.4477 20.9174 18.6784 21.0899 17.3993C21.2638 16.1 21.2653 14.3927 21.2653 12.0152C21.2653 9.63763 21.2638 7.93038 21.0899 6.63102C20.9174 5.3519 20.5898 4.58113 20.0207 4.0113C19.4509 3.44297 18.6816 3.11607 17.4025 2.94362C16.1031 2.76967 14.3959 2.76817 12.0183 2.76817C9.64079 2.76817 7.93355 2.76967 6.63418 2.94362" fill="black"/>
<path fill-rule="evenodd" clip-rule="evenodd" d="M9.5053 14.926C9.1983 14.597 8.67429 14.579 8.34529 14.887L6.01429 17.063L5.7253 16.706C5.5693 16.514 5.3343 16.402 5.0873 16.402C4.6363 16.402 4.2663 16.772 4.2663 17.222C4.2663 17.41 4.3303 17.593 4.4493 17.739L5.29229 18.78C5.44729 18.973 5.68229 19.085 5.93029 19.085C6.13829 19.085 6.3383 19.006 6.4903 18.864L9.4663 16.086C9.7953 15.779 9.8133 15.255 9.5053 14.926ZM11.1973 16.827L11.1963 16.869C11.1963 17.319 11.5663 17.689 12.0163 17.689H18.9503C19.4003 17.689 19.7703 17.319 19.7703 16.869C19.7703 16.419 19.4003 16.049 18.9503 16.049H12.0163C11.5803 16.049 11.2193 16.396 11.1973 16.827ZM9.5053 10.066C9.1983 9.73699 8.67429 9.71901 8.34529 10.026L6.01429 12.203L5.7253 11.845C5.5693 11.653 5.3343 11.541 5.0873 11.541C4.6363 11.541 4.2663 11.912 4.2663 12.362C4.2663 12.55 4.3303 12.732 4.4493 12.878L5.29229 13.92C5.44729 14.112 5.68229 14.224 5.93029 14.224C6.13829 14.224 6.3383 14.145 6.4903 14.003L9.4663 11.226C9.7953 10.918 9.8133 10.395 9.5053 10.066ZM11.1973 11.973L11.1963 12.015C11.1963 12.465 11.5663 12.835 12.0163 12.835H18.9503C19.4003 12.835 19.7703 12.465 19.7703 12.015C19.7703 11.565 19.4003 11.195 18.9503 11.195H12.0163C11.5803 11.195 11.2193 11.542 11.1973 11.973ZM9.5053 5.205C9.1983 4.876 8.67429 4.85899 8.34529 5.16599L6.01429 7.34199L5.7253 6.98499C5.5693 6.79299 5.3343 6.68101 5.0873 6.68101C4.6363 6.68101 4.2663 7.05099 4.2663 7.50099C4.2663 7.68899 4.3303 7.87201 4.4493 8.01801L5.29229 9.06001C5.44729 9.25201 5.68229 9.36399 5.93029 9.36399C6.13829 9.36399 6.3383 9.28502 6.4903 9.14301L9.4663 6.365C9.7953 6.058 9.8133 5.534 9.5053 5.205ZM11.1973 7.119L11.1963 7.16099C11.1963 7.61099 11.5663 7.981 12.0163 7.981H18.9503C19.4003 7.981 19.7703 7.61099 19.7703 7.16099C19.7703 6.71099 19.4003 6.34101 18.9503 6.34101H12.0163C11.5803 6.34101 11.2193 6.688 11.1973 7.119Z" fill="black"/>
</g>
<defs>
<clipPath id="clip0_221_14214">
<rect width="24" height="24" fill="white"/>
</clipPath>
</defs>
</svg>
