<svg width="24" height="24" viewBox="0 0 24 24" fill="none" xmlns="http://www.w3.org/2000/svg">
<g clip-path="url(#clip0_221_14130)">
<path fill-rule="evenodd" clip-rule="evenodd" d="M11.943 1.25H12.057C14.366 1.25 16.175 1.25 17.587 1.44C19.031 1.634 20.171 2.04 21.066 2.934C21.961 3.829 22.366 4.969 22.56 6.414C22.75 7.825 22.75 9.634 22.75 11.943V13.03C22.746 14.882 22.723 16.38 22.56 17.586C22.366 19.031 21.96 20.171 21.066 21.066C20.171 21.961 19.031 22.366 17.586 22.56C16.175 22.75 14.366 22.75 12.057 22.75H11.943C9.634 22.75 7.825 22.75 6.413 22.56C4.969 22.366 3.829 21.96 2.934 21.066C2.039 20.171 1.634 19.031 1.44 17.586C1.277 16.379 1.254 14.882 1.25 13.03V11.943C1.25 9.634 1.25 7.825 1.44 6.413C1.634 4.969 2.04 3.829 2.934 2.934C3.829 2.039 4.969 1.634 6.414 1.44C7.825 1.25 9.634 1.25 11.943 1.25ZM2.753 13.75C2.763 15.253 2.798 16.43 2.926 17.386C3.098 18.665 3.426 19.436 3.995 20.006C4.565 20.575 5.335 20.902 6.614 21.074C7.914 21.248 9.622 21.25 12 21.25C14.378 21.25 16.086 21.248 17.386 21.074C18.665 20.902 19.436 20.574 20.006 20.005C20.575 19.435 20.902 18.665 21.074 17.386C21.202 16.43 21.237 15.253 21.246 13.75H18.84C17.866 13.75 17.611 13.766 17.398 13.864C17.184 13.963 17.006 14.146 16.372 14.884L15.767 15.591L15.679 15.693C15.177 16.28 14.779 16.745 14.229 16.998C13.679 17.251 13.067 17.251 12.295 17.25H11.706C10.933 17.25 10.321 17.252 9.771 16.998C9.221 16.745 8.823 16.28 8.321 15.693L8.233 15.591L7.628 14.885C6.994 14.145 6.816 13.963 6.602 13.865C6.389 13.766 6.134 13.75 5.16 13.75H2.753ZM21.25 12.25H18.706C17.933 12.25 17.321 12.248 16.771 12.502C16.221 12.755 15.823 13.22 15.321 13.807L15.233 13.909L14.628 14.615C13.994 15.355 13.816 15.537 13.602 15.635C13.389 15.734 13.134 15.75 12.16 15.75H11.84C10.866 15.75 10.611 15.734 10.398 15.636C10.184 15.537 10.006 15.354 9.372 14.616L8.767 13.909L8.679 13.807C8.177 13.22 7.779 12.755 7.229 12.502C6.679 12.248 6.067 12.249 5.295 12.25H2.75V12C2.75 9.622 2.752 7.914 2.926 6.614C3.098 5.335 3.426 4.564 3.995 3.994C4.565 3.425 5.335 3.098 6.614 2.926C7.914 2.752 9.622 2.75 12 2.75C14.378 2.75 16.086 2.752 17.386 2.926C18.665 3.098 19.436 3.426 20.006 3.995C20.575 4.565 20.902 5.335 21.074 6.614C21.248 7.914 21.25 9.622 21.25 12V12.25Z" fill="black"/>
</g>
<defs>
<clipPath id="clip0_221_14130">
<rect width="24" height="24" fill="white"/>
</clipPath>
</defs>
</svg>
