<svg width="24" height="24" viewBox="0 0 24 24" fill="none" xmlns="http://www.w3.org/2000/svg">
<g clip-path="url(#clip0_221_14053)">
<path fill-rule="evenodd" clip-rule="evenodd" d="M11.0488 5.23571C11.0488 4.82397 11.387 4.48572 11.7988 4.48572H21.7985C22.2102 4.48572 22.5485 4.82397 22.5485 5.23571C22.5485 5.64671 22.2102 5.98571 21.7985 5.98571H11.7988C11.387 5.98571 11.0488 5.64671 11.0488 5.23571ZM11.0488 12.2354C11.0488 11.8237 11.387 11.4854 11.7988 11.4854H21.7985C22.2102 11.4854 22.5485 11.8237 22.5485 12.2354C22.5485 12.6472 22.2102 12.9854 21.7985 12.9854H11.7988C11.387 12.9854 11.0488 12.6472 11.0488 12.2354ZM11.0488 19.2351C11.0488 18.8241 11.387 18.4851 11.7988 18.4851H21.7985C22.2102 18.4851 22.5485 18.8241 22.5485 19.2351C22.5485 19.6469 22.2102 19.9851 21.7985 19.9851H11.7988C11.387 19.9851 11.0488 19.6469 11.0488 19.2351Z" fill="black"/>
<path fill-rule="evenodd" clip-rule="evenodd" d="M5.45403 2.30701C3.87303 2.30701 2.59003 3.58999 2.59003 5.17099C2.59003 6.75199 3.87303 8.035 5.45403 8.035C7.03503 8.035 8.31803 6.75199 8.31803 5.17099C8.31803 3.58999 7.03503 2.30701 5.45403 2.30701ZM5.45403 3.80701C6.20703 3.80701 6.81803 4.41799 6.81803 5.17099C6.81803 5.92399 6.20703 6.535 5.45403 6.535C4.70103 6.535 4.09003 5.92399 4.09003 5.17099C4.09003 4.41799 4.70103 3.80701 5.45403 3.80701Z" fill="black"/>
<path fill-rule="evenodd" clip-rule="evenodd" d="M5.45403 9.37201C3.87303 9.37201 2.59003 10.655 2.59003 12.236C2.59003 13.817 3.87303 15.1 5.45403 15.1C7.03503 15.1 8.31803 13.817 8.31803 12.236C8.31803 10.655 7.03503 9.37201 5.45403 9.37201ZM5.45403 10.872C6.20703 10.872 6.81803 11.483 6.81803 12.236C6.81803 12.989 6.20703 13.6 5.45403 13.6C4.70103 13.6 4.09003 12.989 4.09003 12.236C4.09003 11.483 4.70103 10.872 5.45403 10.872Z" fill="black"/>
<path fill-rule="evenodd" clip-rule="evenodd" d="M5.45403 16.391C3.87303 16.391 2.59003 17.674 2.59003 19.255C2.59003 20.836 3.87303 22.119 5.45403 22.119C7.03503 22.119 8.31803 20.836 8.31803 19.255C8.31803 17.674 7.03503 16.391 5.45403 16.391ZM5.45403 17.891C6.20703 17.891 6.81803 18.502 6.81803 19.255C6.81803 20.008 6.20703 20.619 5.45403 20.619C4.70103 20.619 4.09003 20.008 4.09003 19.255C4.09003 18.502 4.70103 17.891 5.45403 17.891Z" fill="black"/>
</g>
<defs>
<clipPath id="clip0_221_14053">
<rect width="24" height="24" fill="white"/>
</clipPath>
</defs>
</svg>
