<svg width="24" height="24" viewBox="0 0 24 24" fill="none" xmlns="http://www.w3.org/2000/svg">
<g clip-path="url(#clip0_221_13904)">
<path fill-rule="evenodd" clip-rule="evenodd" d="M9.96306 1.2778H14.0683C15.4348 1.2778 16.5352 1.2778 17.4012 1.39467C18.3002 1.51453 19.0576 1.77373 19.6591 2.37454C20.2599 2.97535 20.5176 3.73272 20.6398 4.63169C20.7559 5.49769 20.7559 6.59967 20.7559 7.9646V16.0658C20.7559 17.4307 20.7559 18.5327 20.6398 19.3987C20.5191 20.2976 20.2599 21.055 19.6591 21.6558C19.0576 22.2574 18.3002 22.5151 17.4012 22.6372C16.5352 22.7526 15.434 22.7526 14.0683 22.7526H9.96306C8.59738 22.7526 7.49615 22.7526 6.63015 22.6372C5.73118 22.5151 4.97381 22.2574 4.37225 21.6558C3.77144 21.055 3.51374 20.2976 3.39238 19.3987C3.35267 19.0855 3.32571 18.7717 3.31072 18.457C3.27102 18.3297 3.26503 18.1948 3.29499 18.0652C3.27851 17.3985 3.27177 16.7325 3.27551 16.0658V7.9646C3.27551 6.59967 3.27551 5.49769 3.39238 4.63169C3.51224 3.73272 3.77219 2.97535 4.37375 2.37454C4.97381 1.77298 5.73193 1.51528 6.6309 1.39467C7.49615 1.2778 8.59738 1.2778 9.96306 1.2778ZM4.80076 18.2577C4.81574 18.6106 4.83971 18.9215 4.87717 19.1987C4.97605 19.9321 5.1566 20.3194 5.43228 20.5965C5.70871 20.873 6.09751 21.0528 6.83092 21.1517C7.58455 21.2528 8.58465 21.2543 10.0177 21.2543H14.0136C15.4475 21.2543 16.4476 21.2528 17.202 21.1517C17.9346 21.0528 18.3227 20.8722 18.5999 20.5965C18.8755 20.3194 19.0553 19.9321 19.1542 19.1979C19.2374 18.5836 19.2546 17.8045 19.2561 16.7595H7.91866C6.94179 16.7595 6.60018 16.7655 6.33798 16.8366C5.62331 17.0277 5.04722 17.5595 4.80001 18.257M19.2561 15.2604V8.02003C19.2561 6.58619 19.2554 5.58534 19.1535 4.83171C19.0546 4.0983 18.874 3.711 18.5984 3.43382C18.3212 3.15739 17.9339 2.97759 17.2005 2.87871C16.4468 2.77757 15.4467 2.77608 14.0121 2.77608H10.017C9.10979 2.77608 8.37714 2.77608 7.76959 2.80304V15.2612L19.2561 15.2604ZM6.27131 15.3211C6.15969 15.3384 6.05181 15.3608 5.94843 15.3885C5.52817 15.5017 5.13038 15.6875 4.77304 15.9354V8.02003C4.77304 6.58619 4.77529 5.58534 4.87567 4.83171C4.97456 4.0983 5.15585 3.711 5.43153 3.43382C5.6278 3.23829 5.88101 3.09071 6.27131 2.98583V15.3211Z" fill="black"/>
<path fill-rule="evenodd" clip-rule="evenodd" d="M13.5943 5.155C13.7203 5.155 13.7413 5.155 13.6033 5.155C13.7663 5.155 13.9023 5.15599 14.0133 5.16299C14.1523 5.17299 14.2843 5.19502 14.4113 5.24802C14.7093 5.37102 14.9463 5.60801 15.0693 5.90601C15.1323 6.05701 15.1523 6.21502 15.1593 6.38702C15.1593 6.38902 15.1593 6.39101 15.1593 6.39301C15.1593 6.41001 15.1673 6.42602 15.1833 6.43802C15.1983 6.44302 15.2153 6.44102 15.2293 6.43402C15.2303 6.43302 15.2323 6.432 15.2333 6.431C15.3863 6.35 15.5333 6.289 15.6943 6.267C15.6953 6.267 15.6953 6.267 15.6953 6.267C16.0153 6.225 16.3383 6.312 16.5943 6.509C16.5963 6.51 16.5973 6.51102 16.5983 6.51202C16.7053 6.59702 16.7973 6.7 16.8693 6.814L17.0803 7.164C17.1023 7.203 17.1323 7.25202 17.0863 7.17502C17.1553 7.29202 17.2223 7.411 17.2833 7.53C17.3473 7.652 17.3903 7.783 17.4113 7.918C17.4113 7.92 17.4113 7.92201 17.4113 7.92401C17.4533 8.24301 17.3673 8.567 17.1703 8.823C17.0713 8.952 16.9443 9.04901 16.7993 9.14001L16.7983 9.14102C16.7823 9.15102 16.7673 9.16501 16.7663 9.18301C16.7683 9.20001 16.7783 9.215 16.7933 9.224C16.7953 9.225 16.7973 9.226 16.7993 9.228C16.9443 9.319 17.0713 9.41601 17.1703 9.54501C17.3673 9.80101 17.4533 10.125 17.4113 10.444C17.3943 10.581 17.3473 10.705 17.2863 10.831C17.2373 10.932 17.1693 11.05 17.0873 11.191L17.0793 11.206L16.8663 11.558C16.7893 11.673 16.7043 11.776 16.5943 11.86C16.3383 12.056 16.0153 12.143 15.6953 12.101C15.5343 12.079 15.3873 12.018 15.2343 11.937C15.2323 11.936 15.2303 11.935 15.2283 11.934C15.2143 11.926 15.1963 11.925 15.1783 11.933C15.1663 11.943 15.1593 11.958 15.1593 11.974C15.1593 11.977 15.1593 11.979 15.1593 11.981C15.1523 12.154 15.1323 12.312 15.0703 12.461C15.0703 12.462 15.0703 12.462 15.0703 12.462C14.9463 12.759 14.7093 12.996 14.4113 13.12C14.2843 13.173 14.1533 13.195 14.0143 13.205L13.6033 13.213L13.1753 13.205C13.0363 13.195 12.9043 13.173 12.7773 13.12C12.4793 12.997 12.2423 12.76 12.1193 12.462C12.0563 12.312 12.0363 12.153 12.0303 11.981C12.0303 11.978 12.0293 11.976 12.0293 11.973C12.0293 11.957 12.0223 11.942 12.0053 11.93C11.9903 11.925 11.9743 11.927 11.9603 11.934C11.9583 11.935 11.9563 11.936 11.9553 11.937C11.8023 12.018 11.6553 12.079 11.4943 12.101H11.4933C11.1743 12.143 10.8503 12.056 10.5943 11.86C10.4853 11.776 10.4003 11.674 10.3223 11.558L10.1103 11.206L10.1143 11.214C10.1603 11.287 10.1433 11.263 10.1013 11.191L9.90232 10.831C9.84132 10.706 9.79532 10.581 9.77732 10.444C9.73532 10.125 9.82132 9.80101 10.0183 9.54501C10.1183 9.41601 10.2443 9.319 10.3893 9.228C10.3913 9.226 10.3933 9.225 10.3953 9.224C10.4103 9.216 10.4193 9.201 10.4213 9.181C10.4183 9.166 10.4093 9.15201 10.3953 9.14401C10.3933 9.14301 10.3913 9.14201 10.3893 9.14001C10.2443 9.04901 10.1173 8.952 10.0183 8.823C9.82232 8.567 9.73532 8.24401 9.77732 7.92401C9.79532 7.78701 9.84132 7.66302 9.90232 7.53702L10.1093 7.164L10.1103 7.16202C10.1913 7.02202 10.2593 6.90501 10.3213 6.81201C10.3933 6.69801 10.4843 6.59602 10.5903 6.51202C10.5913 6.51002 10.5933 6.509 10.5943 6.508C10.8503 6.312 11.1743 6.225 11.4933 6.267C11.4943 6.267 11.4943 6.267 11.4943 6.267C11.6553 6.289 11.8023 6.35 11.9543 6.431C11.9563 6.432 11.9583 6.43302 11.9603 6.43402C11.9743 6.44202 11.9923 6.443 12.0103 6.435C12.0223 6.425 12.0293 6.41001 12.0293 6.39401C12.0293 6.39101 12.0293 6.38902 12.0293 6.38702C12.0363 6.21402 12.0563 6.05701 12.1183 5.90701C12.2423 5.60901 12.4793 5.37202 12.7773 5.24802C12.7793 5.24802 12.7803 5.247 12.7823 5.246C12.9083 5.197 13.0413 5.16899 13.1773 5.16299L13.5853 5.15601L13.5943 5.155ZM13.1703 6.19702C13.1243 6.21602 13.0873 6.25302 13.0683 6.30002H13.0673C13.0593 6.32002 13.0593 6.35202 13.0563 6.42502C13.0423 6.78702 12.8543 7.135 12.5223 7.327C12.1903 7.519 11.7943 7.50802 11.4743 7.33902C11.4103 7.30502 11.3823 7.28901 11.3613 7.28601C11.3603 7.28601 11.3603 7.28601 11.3593 7.28601C11.3103 7.27901 11.2593 7.293 11.2203 7.323C11.2083 7.332 11.1973 7.349 11.1753 7.383C11.1283 7.452 11.0753 7.54501 10.9953 7.68301L10.8253 7.98901C10.8083 8.02401 10.7973 8.04202 10.7963 8.05502C10.7963 8.05602 10.7963 8.05701 10.7953 8.05801C10.7893 8.10801 10.8023 8.158 10.8333 8.198C10.8463 8.215 10.8743 8.231 10.9363 8.271C11.2433 8.464 11.4503 8.80102 11.4503 9.18402C11.4503 9.56702 11.2433 9.90402 10.9363 10.097C10.8743 10.137 10.8463 10.153 10.8333 10.171C10.8023 10.21 10.7893 10.261 10.7953 10.31C10.7963 10.311 10.7963 10.312 10.7963 10.313C10.7973 10.326 10.8073 10.343 10.8253 10.379L10.9953 10.685L11.1763 10.987C11.1983 11.02 11.2093 11.036 11.2203 11.045C11.2593 11.075 11.3103 11.089 11.3593 11.082C11.3603 11.082 11.3603 11.082 11.3613 11.082C11.3823 11.079 11.4103 11.063 11.4743 11.029C11.4743 11.029 11.4743 11.029 11.4753 11.029C11.7953 10.86 12.1903 10.85 12.5223 11.041C12.8543 11.233 13.0423 11.58 13.0563 11.942V11.943C13.0593 12.016 13.0593 12.048 13.0673 12.068H13.0683C13.0873 12.115 13.1243 12.152 13.1703 12.171C13.1843 12.177 13.2043 12.177 13.2453 12.18C13.3273 12.186 13.4353 12.185 13.5943 12.185C13.7543 12.185 13.8613 12.186 13.9433 12.18C13.9843 12.177 14.0053 12.177 14.0183 12.171C14.0643 12.152 14.1013 12.115 14.1213 12.068C14.1293 12.048 14.1293 12.016 14.1323 11.943V11.942C14.1463 11.58 14.3353 11.232 14.6663 11.041C14.9983 10.85 15.3943 10.86 15.7143 11.029C15.7793 11.063 15.8063 11.079 15.8273 11.082C15.8283 11.082 15.8283 11.082 15.8293 11.082C15.8793 11.089 15.9293 11.075 15.9693 11.045C15.9803 11.036 15.9913 11.019 16.0143 10.985C16.0603 10.916 16.1143 10.823 16.1933 10.685L16.3633 10.379C16.3813 10.344 16.3913 10.327 16.3923 10.313C16.3923 10.312 16.3933 10.311 16.3933 10.311C16.3993 10.261 16.3863 10.21 16.3563 10.171C16.3423 10.153 16.3153 10.137 16.2523 10.097C15.9453 9.90402 15.7383 9.56702 15.7383 9.18402C15.7383 8.80102 15.9453 8.464 16.2523 8.271C16.3153 8.231 16.3423 8.215 16.3563 8.198C16.3863 8.158 16.3993 8.10801 16.3933 8.05801C16.3933 8.05701 16.3923 8.05602 16.3923 8.05502C16.3913 8.04202 16.3813 8.02501 16.3643 7.98901L16.1933 7.68301C16.1143 7.54501 16.0603 7.453 16.0143 7.384C15.9913 7.35 15.9803 7.332 15.9693 7.323C15.9293 7.293 15.8793 7.27901 15.8293 7.28601C15.8283 7.28601 15.8283 7.28601 15.8273 7.28601C15.8063 7.28901 15.7783 7.30502 15.7143 7.33902C15.3933 7.50802 14.9983 7.518 14.6663 7.327C14.3353 7.135 14.1463 6.78799 14.1323 6.42599C14.1293 6.35299 14.1293 6.32002 14.1213 6.30002C14.1013 6.25302 14.0653 6.21602 14.0183 6.19702C14.0053 6.19102 13.9843 6.19102 13.9443 6.18802C13.8613 6.18202 13.7543 6.18301 13.5943 6.18301C13.4353 6.18301 13.3273 6.18202 13.2453 6.18802C13.2043 6.19102 13.1843 6.19102 13.1703 6.19702ZM13.6723 7.668L13.5943 7.66602C12.7613 7.66602 12.0763 8.35102 12.0763 9.18402C12.0763 10.017 12.7613 10.702 13.5943 10.702C14.4273 10.702 15.1123 10.017 15.1123 9.18402C15.1123 8.37702 14.4693 7.709 13.6723 7.668ZM13.0043 9.21402C13.0203 9.52502 13.2803 9.77502 13.5943 9.77502C13.9183 9.77502 14.1853 9.50802 14.1853 9.18402C14.1853 8.86002 13.9183 8.59302 13.5943 8.59302C13.2703 8.59302 13.0033 8.86002 13.0033 9.18402L13.0043 9.21402Z" fill="black"/>
</g>
<defs>
<clipPath id="clip0_221_13904">
<rect width="24" height="24" fill="white"/>
</clipPath>
</defs>
</svg>
