<svg width="24" height="24" viewBox="0 0 24 24" fill="none" xmlns="http://www.w3.org/2000/svg">
<g clip-path="url(#clip0_221_14140)">
<path fill-rule="evenodd" clip-rule="evenodd" d="M11.948 1.25H12.052C12.951 1.25 13.7 1.25 14.294 1.33C14.922 1.414 15.489 1.6 15.944 2.055C16.4 2.511 16.586 3.078 16.67 3.705C16.73 4.145 16.745 4.669 16.749 5.275C17.397 5.296 17.975 5.335 18.489 5.403C19.661 5.561 20.61 5.893 21.359 6.641C22.107 7.39 22.439 8.339 22.597 9.511C22.6463 9.88567 22.682 10.2957 22.704 10.741C22.7584 10.8885 22.7651 11.0495 22.723 11.201C22.75 12.002 22.75 12.913 22.75 13.944V14.056C22.75 15.087 22.75 15.998 22.723 16.8C22.7647 16.9516 22.7577 17.1126 22.703 17.26C22.6845 17.6709 22.6492 18.081 22.597 18.489C22.439 19.661 22.107 20.61 21.359 21.359C20.61 22.107 19.661 22.439 18.489 22.597C17.349 22.75 15.894 22.75 14.056 22.75H9.944C8.106 22.75 6.65 22.75 5.511 22.597C4.339 22.439 3.39 22.107 2.641 21.359C1.893 20.61 1.561 19.661 1.403 18.489C1.35367 18.1143 1.318 17.7043 1.296 17.259C1.2416 17.1115 1.23495 16.9505 1.277 16.799C1.25 15.998 1.25 15.087 1.25 14.056V13.944C1.25 12.913 1.25 12.002 1.277 11.2C1.23527 11.0484 1.24227 10.8874 1.297 10.74C1.31834 10.2953 1.35367 9.88567 1.403 9.511C1.561 8.339 1.893 7.39 2.641 6.641C3.39 5.893 4.339 5.561 5.511 5.403C6.08859 5.33223 6.66928 5.28952 7.251 5.275C7.255 4.669 7.271 4.145 7.33 3.705C7.414 3.078 7.6 2.511 8.055 2.055C8.511 1.6 9.078 1.415 9.705 1.33C10.3 1.25 11.05 1.25 11.948 1.25ZM8.752 5.252C9.13 5.25 9.52734 5.24933 9.944 5.25H14.056C14.4727 5.25 14.87 5.25067 15.248 5.252C15.244 4.682 15.23 4.252 15.184 3.905C15.121 3.444 15.014 3.246 14.884 3.116C14.754 2.986 14.556 2.879 14.094 2.816C13.612 2.752 12.964 2.75 12 2.75C11.036 2.75 10.388 2.752 9.905 2.817C9.444 2.879 9.246 2.986 9.116 3.117C8.986 3.248 8.879 3.444 8.816 3.905C8.77 4.251 8.756 4.681 8.752 5.252ZM2.763 11.75C2.75 12.403 2.75 13.146 2.75 14C2.75 14.854 2.75 15.597 2.763 16.25H21.237C21.25 15.597 21.25 14.854 21.25 14C21.25 13.146 21.25 12.403 21.237 11.75H2.763ZM21.168 10.25H2.832C2.848 10.0607 2.86734 9.88067 2.89 9.71C3.025 8.705 3.279 8.125 3.702 7.702C4.125 7.279 4.705 7.025 5.711 6.89C6.739 6.752 8.093 6.75 10 6.75H14C15.907 6.75 17.262 6.752 18.29 6.89C19.295 7.025 19.875 7.279 20.298 7.702C20.721 8.125 20.975 8.705 21.11 9.711C21.1327 9.881 21.152 10.0607 21.168 10.25ZM21.168 17.75H2.832C2.848 17.9393 2.86734 18.1193 2.89 18.29C3.025 19.295 3.279 19.875 3.702 20.298C4.125 20.721 4.705 20.975 5.711 21.11C6.739 21.248 8.093 21.25 10 21.25H14C15.907 21.25 17.262 21.248 18.29 21.11C19.295 20.975 19.875 20.721 20.298 20.298C20.721 19.875 20.975 19.295 21.11 18.289C21.1327 18.119 21.152 17.9393 21.168 17.75Z" fill="black"/>
</g>
<defs>
<clipPath id="clip0_221_14140">
<rect width="24" height="24" fill="white"/>
</clipPath>
</defs>
</svg>
