<svg width="24" height="24" viewBox="0 0 24 24" fill="none" xmlns="http://www.w3.org/2000/svg">
<g clip-path="url(#clip0_221_14178)">
<path fill-rule="evenodd" clip-rule="evenodd" d="M9.94503 1.25H14.055C15.423 1.25 16.525 1.25 17.392 1.367C18.292 1.487 19.05 1.747 19.652 2.348C20.254 2.95 20.512 3.708 20.634 4.608C20.75 5.475 20.75 6.578 20.75 7.945V16.055C20.75 17.422 20.75 18.525 20.634 19.392C20.513 20.292 20.254 21.05 19.652 21.652C19.05 22.254 18.292 22.512 17.392 22.634C16.525 22.75 15.422 22.75 14.055 22.75H9.94503C8.57803 22.75 7.47503 22.75 6.60803 22.634C5.70803 22.512 4.95003 22.254 4.34803 21.652C3.74603 21.05 3.48803 20.292 3.36703 19.392C3.3273 19.0789 3.29995 18.7643 3.28503 18.449C3.24501 18.3221 3.23948 18.1868 3.26903 18.057C3.25257 17.3898 3.24624 16.7224 3.25003 16.055V7.945C3.25003 6.578 3.25003 5.475 3.36703 4.608C3.48703 3.708 3.74703 2.95 4.34903 2.348C4.95003 1.746 5.70903 1.488 6.60903 1.367C7.47503 1.25 8.57803 1.25 9.94503 1.25ZM4.77703 18.25C4.79203 18.603 4.81603 18.914 4.85303 19.192C4.95203 19.926 5.13303 20.314 5.40903 20.591C5.68603 20.868 6.07503 21.048 6.80903 21.147C7.56403 21.248 8.56503 21.25 10 21.25H14C15.436 21.25 16.437 21.248 17.192 21.147C17.926 21.048 18.314 20.867 18.592 20.591C18.868 20.314 19.048 19.926 19.147 19.191C19.23 18.576 19.247 17.796 19.249 16.75H13.75V19.558C13.75 19.669 13.75 19.828 13.73 19.964C13.7119 20.1039 13.6625 20.238 13.5854 20.3562C13.5084 20.4745 13.4057 20.5739 13.285 20.647C13.167 20.7136 13.0362 20.7544 12.9012 20.7668C12.7663 20.7793 12.6302 20.7629 12.502 20.719C12.372 20.679 12.23 20.61 12.124 20.56L12.1 20.548L11 20.026L9.90003 20.548L9.87603 20.56C9.77003 20.61 9.62803 20.678 9.49803 20.719C9.36983 20.7629 9.23377 20.7793 9.09882 20.7668C8.96386 20.7544 8.83306 20.7136 8.71503 20.647C8.59453 20.5737 8.49205 20.4743 8.41519 20.3561C8.33834 20.2379 8.28906 20.1039 8.27103 19.964C8.25519 19.8293 8.24851 19.6936 8.25103 19.558V16.75H7.89803C6.92003 16.75 6.57803 16.756 6.31603 16.827C5.9632 16.9213 5.63863 17.1 5.37032 17.3477C5.10201 17.5955 4.89805 17.9048 4.77603 18.249M9.74903 16.749V18.959L10.499 18.602L10.507 18.598C10.6586 18.5168 10.8271 18.4723 10.999 18.468C11.235 18.468 11.442 18.573 11.491 18.598L11.5 18.602L12.25 18.958V16.75L9.74903 16.749ZM7.89703 15.249H7.78103C6.96303 15.249 6.40503 15.249 5.92603 15.377C5.50516 15.4908 5.10702 15.6762 4.74903 15.925V8C4.74903 6.565 4.75103 5.563 4.85203 4.808C4.95103 4.074 5.13203 3.686 5.40803 3.409C5.68503 3.132 6.07403 2.952 6.80803 2.853C7.56303 2.752 8.56403 2.75 9.99903 2.75H13.999C15.435 2.75 16.436 2.752 17.191 2.853C17.925 2.952 18.313 3.133 18.591 3.409C18.867 3.686 19.047 4.074 19.146 4.809C19.248 5.563 19.249 6.565 19.249 8V15.25L7.89703 15.249ZM7.25003 7C7.25003 6.80109 7.32904 6.61032 7.4697 6.46967C7.61035 6.32902 7.80111 6.25 8.00003 6.25H16C16.1989 6.25 16.3897 6.32902 16.5304 6.46967C16.671 6.61032 16.75 6.80109 16.75 7C16.75 7.19891 16.671 7.38968 16.5304 7.53033C16.3897 7.67098 16.1989 7.75 16 7.75H8.00003C7.80111 7.75 7.61035 7.67098 7.4697 7.53033C7.32904 7.38968 7.25003 7.19891 7.25003 7ZM7.25003 10.5C7.25003 10.3011 7.32904 10.1103 7.4697 9.96967C7.61035 9.82902 7.80111 9.75 8.00003 9.75H13C13.1989 9.75 13.3897 9.82902 13.5304 9.96967C13.671 10.1103 13.75 10.3011 13.75 10.5C13.75 10.6989 13.671 10.8897 13.5304 11.0303C13.3897 11.171 13.1989 11.25 13 11.25H8.00003C7.80111 11.25 7.61035 11.171 7.4697 11.0303C7.32904 10.8897 7.25003 10.6989 7.25003 10.5Z" fill="black"/>
</g>
<defs>
<clipPath id="clip0_221_14178">
<rect width="24" height="24" fill="white"/>
</clipPath>
</defs>
</svg>
