<svg width="24" height="24" viewBox="0 0 24 24" fill="none" xmlns="http://www.w3.org/2000/svg">
<g clip-path="url(#clip0_221_13971)">
<path fill-rule="evenodd" clip-rule="evenodd" d="M6.86 1.24999H6.987C7.338 1.24999 7.564 1.24999 7.785 1.26999C8.73662 1.35894 9.63928 1.7329 10.375 2.34299C10.545 2.48499 10.705 2.64499 10.954 2.89299L11.53 3.46999C12.376 4.31499 12.701 4.63099 13.077 4.83999C13.2957 4.96133 13.5253 5.05666 13.766 5.12599C14.179 5.24299 14.632 5.24999 15.828 5.24999H16.253C17.526 5.24999 18.553 5.24999 19.364 5.35199C20.205 5.45799 20.92 5.68399 21.508 6.21199C21.606 6.30066 21.6993 6.39399 21.788 6.49199C22.317 7.07999 22.542 7.79499 22.648 8.63599C22.75 9.44799 22.75 10.474 22.75 11.747V14.057C22.75 15.894 22.75 17.35 22.597 18.489C22.439 19.661 22.107 20.61 21.359 21.359C20.61 22.107 19.661 22.439 18.489 22.597C17.349 22.75 15.894 22.75 14.056 22.75H9.944C8.106 22.75 6.65 22.75 5.511 22.597C4.339 22.439 3.39 22.107 2.641 21.359C1.893 20.61 1.561 19.661 1.403 18.489C1.25 17.349 1.25 15.894 1.25 14.056V6.85999C1.25 6.06299 1.25 5.55699 1.332 5.11999C1.50884 4.18062 1.96499 3.31645 2.6408 2.64045C3.31662 1.96445 4.18067 1.50808 5.12 1.33099C5.558 1.24899 6.064 1.24899 6.86 1.24899M6.95 2.74899C6.033 2.74899 5.679 2.75199 5.397 2.80499C4.75483 2.92639 4.16417 3.23857 3.70213 3.70078C3.2401 4.163 2.92815 4.75377 2.807 5.39599C2.753 5.67799 2.75 6.03199 2.75 6.94899V14C2.75 15.907 2.752 17.262 2.89 18.29C3.025 19.295 3.279 19.875 3.702 20.298C4.125 20.721 4.705 20.975 5.711 21.11C6.739 21.248 8.093 21.25 10 21.25H14C15.907 21.25 17.262 21.248 18.29 21.11C19.295 20.975 19.875 20.721 20.298 20.298C20.721 19.875 20.975 19.295 21.11 18.289C21.248 17.262 21.25 15.907 21.25 14V11.798C21.25 10.462 21.249 9.53099 21.16 8.82299C21.073 8.13399 20.914 7.76299 20.673 7.49499C20.6204 7.43571 20.5643 7.37961 20.505 7.32699C20.237 7.08599 19.865 6.92699 19.177 6.83999C18.47 6.75099 17.538 6.74999 16.202 6.74999H15.718C14.67 6.74999 13.994 6.74999 13.355 6.56799C13.005 6.46799 12.666 6.32799 12.347 6.15099C11.767 5.82699 11.289 5.34999 10.547 4.60799L10.47 4.52999L9.92 3.97999C9.75941 3.8121 9.59159 3.65128 9.417 3.49799C8.9139 3.08082 8.29671 2.82502 7.646 2.76399C7.41431 2.74923 7.18209 2.74356 6.95 2.74899ZM9.97 11.47C10.1106 11.3295 10.3012 11.2507 10.5 11.2507C10.6988 11.2507 10.8894 11.3295 11.03 11.47L12 12.44L12.97 11.47C13.0387 11.3963 13.1215 11.3372 13.2135 11.2962C13.3055 11.2552 13.4048 11.2332 13.5055 11.2314C13.6062 11.2296 13.7062 11.2481 13.7996 11.2859C13.893 11.3236 13.9778 11.3797 14.049 11.451C14.1203 11.5222 14.1764 11.607 14.2141 11.7004C14.2518 11.7938 14.2704 11.8938 14.2686 11.9945C14.2668 12.0952 14.2448 12.1945 14.2038 12.2865C14.1628 12.3785 14.1037 12.4613 14.03 12.53L13.06 13.5L14.03 14.47C14.1037 14.5387 14.1628 14.6215 14.2038 14.7135C14.2448 14.8055 14.2668 14.9048 14.2686 15.0055C14.2704 15.1062 14.2518 15.2062 14.2141 15.2996C14.1764 15.393 14.1203 15.4778 14.049 15.549C13.9778 15.6202 13.893 15.6764 13.7996 15.7141C13.7062 15.7518 13.6062 15.7704 13.5055 15.7686C13.4048 15.7668 13.3055 15.7448 13.2135 15.7038C13.1215 15.6628 13.0387 15.6037 12.97 15.53L12 14.56L11.03 15.53C10.9613 15.6037 10.8785 15.6628 10.7865 15.7038C10.6945 15.7448 10.5952 15.7668 10.4945 15.7686C10.3938 15.7704 10.2938 15.7518 10.2004 15.7141C10.107 15.6764 10.0222 15.6202 9.95096 15.549C9.87974 15.4778 9.8236 15.393 9.78588 15.2996C9.74816 15.2062 9.72963 15.1062 9.73141 15.0055C9.73318 14.9048 9.75523 14.8055 9.79622 14.7135C9.83721 14.6215 9.89631 14.5387 9.97 14.47L10.94 13.5L9.97 12.53C9.82955 12.3894 9.75066 12.1987 9.75066 12C9.75066 11.8012 9.82955 11.6106 9.97 11.47Z" fill="black"/>
</g>
<defs>
<clipPath id="clip0_221_13971">
<rect width="24" height="24" fill="white"/>
</clipPath>
</defs>
</svg>
