<svg width="24" height="24" viewBox="0 0 24 24" fill="none" xmlns="http://www.w3.org/2000/svg">
<g clip-path="url(#clip0_221_14135)">
<path fill-rule="evenodd" clip-rule="evenodd" d="M11.9 1.30001L12.1 1.20001C14.4 1.20001 16.2 1.20001 17.6 1.40001C19 1.60001 20.2 2.00001 21.1 2.90001C22 3.80001 22.4 5.00001 22.6 6.40001C22.7 7.80001 22.7 9.60001 22.7 11.9V12.1C22.7 14.4 22.7 16.2 22.6 17.6C22.4 19 22 20.2 21.1 21.1C20.2 22 19 22.4 17.6 22.6C16.2 22.7 14.4 22.7 12.1 22.7H11.9C9.60001 22.7 7.80001 22.7 6.40001 22.6C5.00001 22.4 3.80001 22 2.90001 21.1C2.00001 20.2 1.60001 19 1.40001 17.6C1.20001 16.2 1.20001 14.4 1.20001 12.1V11.9C1.20001 9.60001 1.20001 7.80001 1.40001 6.40001C1.60001 5.00001 2.00001 3.80001 2.90001 2.90001C3.80001 2.00001 5.00001 1.60001 6.40001 1.40001C7.80001 1.20001 9.60001 1.20001 11.9 1.20001V1.30001ZM6.60001 3.00001C5.30001 3.20001 4.60001 3.50001 4.00001 4.10001C3.40001 4.70001 3.10001 5.40001 2.90001 6.70001C2.80001 8.00001 2.70001 9.70001 2.70001 12.1C2.70001 14.5 2.80001 16.2 2.90001 17.5C3.10001 18.8 3.40001 19.5 4.00001 20.1C4.60001 20.7 5.30001 21 6.60001 21.2C7.90001 21.3 9.60001 21.3 12 21.3C14.4 21.3 16.1 21.3 17.4 21.2C18.7 21 19.4 20.7 20 20.1C20.6 19.5 20.9 18.8 21.1 17.5C21.2 16.2 21.2 14.5 21.2 12.1C21.2 9.70001 21.2 8.00001 21.1 6.70001C20.9 5.40001 20.6 4.70001 20 4.10001C19.4 3.50001 18.7 3.20001 17.4 3.00001C16.1 2.90001 14.4 2.90001 12 2.90001C9.60001 2.90001 7.90001 2.90001 6.60001 3.00001ZM19.8 14.3H20C20.2 14.3667 20.3667 14.4667 20.5 14.6C20.6333 14.7333 20.7333 14.9 20.8 15.1C20.7333 15.3 20.6333 15.4667 20.5 15.6C20.3667 15.7333 20.2 15.8 20 15.8H17.7C16.8 15.8 16.5 15.9 16.4 15.9C16.2 16 16 16.2 15.4 16.8L15.1 17V17.1C14.6 17.5 14.3 17.9 13.8 18.1C13.7333 18.1 13.6667 18.1333 13.6 18.2C13.1 18.4 12.7 18.3 12.1 18.3H11.8C11.2 18.4 10.7 18.4 10.2 18.2C10.1333 18.1333 10.0333 18.1 9.90001 18.1C9.50001 17.8 9.10001 17.5 8.70001 17L8.60001 16.9C8.00001 16.2 7.80001 16.1 7.70001 16L7.60001 15.9C7.40001 15.9 7.20001 15.8 6.30001 15.8H4.00001C3.80001 15.8 3.63335 15.7333 3.50001 15.6C3.36668 15.4667 3.30001 15.3 3.30001 15.1C3.30001 14.9 3.36668 14.7333 3.50001 14.6C3.63335 14.4667 3.80001 14.3667 4.00001 14.3H4.30001V7.60001C4.30001 7.00001 4.50001 6.40001 4.90001 6.00001C5.30001 5.60001 5.90001 5.30001 6.50001 5.30001H17.5C18.1 5.30001 18.7 5.60001 19.1 6.00001C19.5 6.40001 19.8 7.00001 19.8 7.60001V14.3ZM6.50001 6.80001C6.30001 6.80001 6.13335 6.86668 6.00001 7.00001C5.86668 7.13335 5.80001 7.30001 5.80001 7.50001V8.40001C6.00001 8.33335 6.23335 8.30001 6.50001 8.30001H17.5C17.7667 8.30001 18.0333 8.33335 18.3 8.40001V7.50001C18.2333 7.30001 18.1333 7.13335 18 7.00001C17.8667 6.86668 17.7 6.80001 17.5 6.80001H6.50001ZM18.3 10.5C18.2333 10.3 18.1333 10.1333 18 10C17.8667 9.86668 17.7 9.80001 17.5 9.80001H6.50001C6.30001 9.80001 6.13335 9.86668 6.00001 10C5.86668 10.1333 5.80001 10.3 5.80001 10.5V11.4C6.00001 11.3333 6.23335 11.3 6.50001 11.3H17.5C17.7667 11.3 18.0333 11.3333 18.3 11.4V10.5ZM18.3 13.5C18.2333 13.3 18.1333 13.1333 18 13C17.8667 12.8667 17.7 12.8 17.5 12.8H6.50001C6.30001 12.8 6.13335 12.8667 6.00001 13C5.86668 13.1333 5.80001 13.3 5.80001 13.5V14.3H6.40001C7.10001 14.3 7.70001 14.3 8.20001 14.5C8.20001 14.5 8.23335 14.5 8.30001 14.5C8.80001 14.8 9.20001 15.2 9.60001 15.7L9.70001 15.8C10.3 16.4 10.4 16.6 10.6 16.6C10.6667 16.6667 10.7 16.7 10.7 16.7C10.9 16.8 11.1 16.8 11.9 16.8C12.7 16.8 12.9 16.8 13.1 16.7C13.1667 16.7 13.2 16.7 13.2 16.7C13.4 16.6 13.5 16.4 14.1 15.9L14.3 15.7L14.4 15.6C14.9 15.1 15.3 14.7 15.8 14.5C16.3 14.3 16.8 14.3 17.5 14.3H17.7H18.3V13.5Z" fill="black"/>
</g>
<defs>
<clipPath id="clip0_221_14135">
<rect width="24" height="24" fill="white"/>
</clipPath>
</defs>
</svg>
