<svg width="24" height="24" viewBox="0 0 24 24" fill="none" xmlns="http://www.w3.org/2000/svg">
<path fill-rule="evenodd" clip-rule="evenodd" d="M12.2497 2.83403C11.7899 2.75602 11.1622 2.75002 10.0296 2.75002C8.11261 2.75002 6.74984 2.75152 5.71782 2.88953C4.70606 3.02453 4.1248 3.27953 3.70179 3.70179C3.27878 4.12405 3.02453 4.70456 2.88953 5.71107C2.75152 6.73859 2.75002 8.09311 2.75002 10.0011V14.001C2.75002 15.9067 2.75152 17.2613 2.88953 18.2888C3.02453 19.2953 3.27878 19.8751 3.70179 20.2988C4.1248 20.7211 4.70456 20.9753 5.71107 21.1103C6.73859 21.2491 8.09311 21.2498 9.99964 21.2498H14.0002C15.9067 21.2498 17.262 21.2483 18.2903 21.1103C19.2953 20.9753 19.875 20.7211 20.2981 20.2981C20.7211 19.875 20.9753 19.2953 21.1103 18.2888C21.2483 17.262 21.2498 15.9067 21.2498 14.0002V13.5629C21.2498 12.0269 21.2401 11.2987 21.0758 10.7497H17.946C16.8128 10.7497 15.888 10.7497 15.156 10.6522C14.3932 10.5486 13.731 10.3266 13.2022 9.79789C12.6727 9.26913 12.4507 8.60762 12.3479 7.84261C12.2497 7.11284 12.2497 6.18658 12.2497 5.05256V2.83403ZM13.7497 3.60954V5.00006C13.7497 6.20008 13.752 7.02359 13.8352 7.6431C13.9147 8.24086 14.0587 8.53412 14.2627 8.73662C14.4667 8.93987 14.7592 9.08463 15.357 9.16488C15.9757 9.24813 16.8 9.24963 18 9.24963H20.0198C19.6365 8.88437 19.2465 8.52587 18.8498 8.17411L14.8912 4.6108C14.5177 4.26955 14.1375 3.93579 13.7497 3.60954ZM10.1751 1.25C11.5597 1.25 12.4552 1.25 13.2779 1.565C14.1007 1.88076 14.763 2.47702 15.7882 3.39953L15.8947 3.49554L19.8533 7.05884L19.9778 7.1706C21.1621 8.23561 21.9278 8.92487 22.3388 9.84889C22.7498 10.7729 22.7513 11.8027 22.7498 13.3949V14.0557C22.7498 15.894 22.7498 17.3498 22.5968 18.489C22.4393 19.6613 22.1071 20.6101 21.3593 21.3593C20.6101 22.1071 19.6613 22.4393 18.489 22.5968C17.349 22.7498 15.894 22.7498 14.0557 22.7498H9.94414C8.10586 22.7498 6.65009 22.7498 5.51082 22.5968C4.33855 22.4393 3.38978 22.1071 2.64052 21.3593C1.89276 20.6101 1.56051 19.6613 1.403 18.489C1.25 17.349 1.25 15.894 1.25 14.0557V9.94489C1.25 8.10661 1.25 6.65084 1.403 5.51157C1.56051 4.34005 1.89276 3.39053 2.64052 2.64202C3.39053 1.89276 4.34155 1.562 5.51907 1.40375C6.66284 1.25075 8.12611 1.25075 9.97414 1.25075H10.1759" fill="black"/>
<path d="M7.0869 16.2989H5.93073V15.4333H7.0869C7.24446 15.4333 7.37222 15.4067 7.47016 15.3535C7.56811 15.3003 7.63944 15.2268 7.68415 15.1331C7.73099 15.0373 7.75441 14.9298 7.75441 14.8105C7.75441 14.6828 7.73099 14.5646 7.68415 14.456C7.63944 14.3474 7.56811 14.2601 7.47016 14.1941C7.37222 14.126 7.24446 14.0919 7.0869 14.0919H6.35232V17.8766H5.23129V13.2264H7.0869C7.45952 13.2264 7.77996 13.2945 8.04825 13.4308C8.31866 13.5671 8.52626 13.7544 8.67104 13.9929C8.81583 14.2293 8.88822 14.4997 8.88822 14.8042C8.88822 15.1044 8.81583 15.3663 8.67104 15.5898C8.52626 15.8134 8.31866 15.988 8.04825 16.1136C7.77996 16.2371 7.45952 16.2989 7.0869 16.2989ZM11.0025 17.8766H9.97093L9.97732 17.0143H11.0025C11.2155 17.0143 11.3954 16.9632 11.5423 16.861C11.6913 16.7588 11.8042 16.6065 11.8808 16.4043C11.9596 16.1999 11.999 15.9486 11.999 15.6505V15.4493C11.999 15.2257 11.9767 15.0298 11.9319 14.8616C11.8894 14.6913 11.8255 14.5497 11.7403 14.4369C11.6551 14.3219 11.5487 14.2356 11.4209 14.1782C11.2953 14.1207 11.1505 14.0919 10.9866 14.0919H9.95177V13.2264H10.9866C11.3017 13.2264 11.5902 13.2807 11.8521 13.3893C12.1161 13.4957 12.344 13.649 12.5356 13.8492C12.7293 14.0472 12.8784 14.2825 12.9827 14.555C13.0892 14.8254 13.1424 15.1257 13.1424 15.4557V15.6505C13.1424 15.9784 13.0892 16.2786 12.9827 16.5512C12.8784 16.8237 12.7304 17.059 12.5388 17.257C12.3471 17.455 12.1204 17.6083 11.8585 17.7169C11.5987 17.8234 11.3134 17.8766 11.0025 17.8766ZM10.6129 13.2264V17.8766H9.49186V13.2264H10.6129ZM14.8479 13.2264V17.8766H13.7269V13.2264H14.8479ZM16.6556 15.1619V16.0242H14.5285V15.1619H16.6556ZM16.8377 13.2264V14.0919H14.5285V13.2264H16.8377Z" fill="black"/>
</svg>
