<svg width="24" height="24" viewBox="0 0 24 24" fill="none" xmlns="http://www.w3.org/2000/svg">
<g clip-path="url(#clip0_221_14201)">
<path fill-rule="evenodd" clip-rule="evenodd" d="M7.0541 3.08154C7.17654 1.94197 8.14859 1.06833 9.29492 1.06833H14.3024C15.4487 1.06833 16.4208 1.94197 16.5432 3.08154C17.3087 3.09732 17.9683 3.13638 18.5332 3.2408C19.2926 3.38052 19.9387 3.64494 20.4645 4.17228C21.0677 4.77399 21.3261 5.53421 21.4478 6.43565C21.5643 7.30328 21.5643 8.40754 21.5643 9.77698V15.897C21.5643 17.2657 21.5643 18.3707 21.4478 19.2391C21.3261 20.1405 21.0677 20.9 20.4645 21.5024C19.8613 22.1057 19.1026 22.3641 18.2011 22.4865C17.3328 22.6022 16.2277 22.6022 14.8583 22.6022H8.73903C7.3696 22.6022 6.26459 22.6022 5.3962 22.4865C4.49476 22.3641 3.73605 22.1057 3.13284 21.5024C2.52962 20.9 2.27121 20.1405 2.15027 19.2391C2.03308 18.3707 2.03308 17.2657 2.03308 15.897V9.77698C2.03308 8.40754 2.03308 7.30328 2.15027 6.43489C2.27046 5.53346 2.53113 4.77399 3.13284 4.17078C3.65868 3.64494 4.30471 3.37977 5.06417 3.2408C5.62907 3.13638 6.29013 3.09732 7.0541 3.08154ZM7.05635 4.58394C6.3367 4.59972 5.78232 4.63577 5.33535 4.71765C4.7682 4.82207 4.43917 4.99034 4.19578 5.23373C3.91784 5.51092 3.73755 5.90004 3.63839 6.63622C3.53773 7.39117 3.53548 8.39477 3.53548 9.83182V15.8414C3.53548 17.2792 3.53773 18.2813 3.63839 19.0385C3.73755 19.7739 3.91934 20.1623 4.19578 20.4402C4.47298 20.7174 4.86135 20.8977 5.59752 20.9969C6.35323 21.0983 7.35683 21.0998 8.79387 21.0998H14.8035C16.2405 21.0998 17.2434 21.0983 18.0006 20.9969C18.736 20.8977 19.1244 20.7167 19.4016 20.4402C19.6795 20.1623 19.8598 19.7739 19.9589 19.0378C20.0596 18.2813 20.0619 17.2792 20.0619 15.8414V9.83182C20.0619 8.39477 20.0596 7.39117 19.9589 6.63471C19.8598 5.90004 19.678 5.51092 19.4016 5.23373C19.1574 4.99034 18.8291 4.82282 18.262 4.71765C17.815 4.63577 17.2606 4.59972 16.541 4.58469C16.4095 5.71525 15.4405 6.57687 14.3024 6.57687H9.29492C8.1561 6.57687 7.18781 5.71449 7.05635 4.58394ZM9.29492 2.57073C8.88251 2.57073 8.54372 2.90952 8.54372 3.32193V4.32327C8.54372 4.73794 8.88026 5.07447 9.29492 5.07447H14.3024C14.7148 5.07447 15.0536 4.73568 15.0536 4.32327V3.32193C15.0536 2.90952 14.7148 2.57073 14.3024 2.57073H9.29492Z" fill="black"/>
<path fill-rule="evenodd" clip-rule="evenodd" d="M6.97991 12.8802L6.979 12.9396L6.97839 12.9992C6.97839 15.5471 9.04468 17.6134 11.5922 17.6137C12.5515 17.6155 13.4835 17.3169 14.2597 16.7659L15.2811 17.7873C15.4274 17.939 15.6297 18.0253 15.8408 18.0253C16.2676 18.0253 16.6189 17.674 16.6189 17.2472C16.6189 17.0361 16.5326 16.8338 16.3809 16.6872L15.3595 15.6658C15.8935 14.9129 16.2073 13.9924 16.2073 12.9992C16.2073 10.4514 14.141 8.3848 11.5928 8.3848C9.08466 8.3848 7.04321 10.3872 6.97991 12.8802ZM11.4366 9.94465C9.83006 10.0273 8.53431 11.374 8.53431 12.9992C8.53431 14.6772 9.91517 16.0581 11.5928 16.0581C13.2708 16.0581 14.6517 14.6772 14.6517 12.9992C14.6517 11.3216 13.2708 9.94072 11.5928 9.94072L11.5144 9.94162L11.4366 9.94465Z" fill="black"/>
</g>
<defs>
<clipPath id="clip0_221_14201">
<rect width="24" height="24" fill="white"/>
</clipPath>
</defs>
</svg>
