<svg width="24" height="24" viewBox="0 0 24 24" fill="none" xmlns="http://www.w3.org/2000/svg">
<path fill-rule="evenodd" clip-rule="evenodd" d="M12.2497 2.83403C11.7899 2.75602 11.1622 2.75002 10.0296 2.75002C8.11261 2.75002 6.74984 2.75152 5.71782 2.88953C4.70606 3.02453 4.1248 3.27953 3.70179 3.70179C3.27878 4.12405 3.02453 4.70456 2.88953 5.71107C2.75152 6.73859 2.75002 8.09311 2.75002 10.0011V14.001C2.75002 15.9067 2.75152 17.2613 2.88953 18.2888C3.02453 19.2953 3.27878 19.8751 3.70179 20.2988C4.1248 20.7211 4.70456 20.9753 5.71107 21.1103C6.73859 21.2491 8.09311 21.2498 9.99964 21.2498H14.0002C15.9067 21.2498 17.262 21.2483 18.2903 21.1103C19.2953 20.9753 19.875 20.7211 20.2981 20.2981C20.7211 19.875 20.9753 19.2953 21.1103 18.2888C21.2483 17.262 21.2498 15.9067 21.2498 14.0002V13.5629C21.2498 12.0269 21.2401 11.2987 21.0758 10.7497H17.946C16.8128 10.7497 15.888 10.7497 15.156 10.6522C14.3932 10.5486 13.731 10.3266 13.2022 9.79789C12.6727 9.26913 12.4507 8.60762 12.3479 7.84261C12.2497 7.11284 12.2497 6.18658 12.2497 5.05256V2.83403ZM13.7497 3.60954V5.00006C13.7497 6.20008 13.752 7.02359 13.8352 7.6431C13.9147 8.24086 14.0587 8.53412 14.2627 8.73662C14.4667 8.93987 14.7592 9.08463 15.357 9.16488C15.9757 9.24813 16.8 9.24963 18 9.24963H20.0198C19.6365 8.88437 19.2465 8.52587 18.8498 8.17411L14.8912 4.6108C14.5177 4.26955 14.1375 3.93579 13.7497 3.60954ZM10.1751 1.25C11.5597 1.25 12.4552 1.25 13.2779 1.565C14.1007 1.88076 14.763 2.47702 15.7882 3.39953L15.8947 3.49554L19.8533 7.05884L19.9778 7.1706C21.1621 8.23561 21.9278 8.92487 22.3388 9.84889C22.7498 10.7729 22.7513 11.8027 22.7498 13.3949V14.0557C22.7498 15.894 22.7498 17.3498 22.5968 18.489C22.4393 19.6613 22.1071 20.6101 21.3593 21.3593C20.6101 22.1071 19.6613 22.4393 18.489 22.5968C17.349 22.7498 15.894 22.7498 14.0557 22.7498H9.94414C8.10586 22.7498 6.65009 22.7498 5.51082 22.5968C4.33855 22.4393 3.38978 22.1071 2.64052 21.3593C1.89276 20.6101 1.56051 19.6613 1.403 18.489C1.25 17.349 1.25 15.894 1.25 14.0557V9.94489C1.25 8.10661 1.25 6.65084 1.403 5.51157C1.56051 4.34005 1.89276 3.39053 2.64052 2.64202C3.39053 1.89276 4.34155 1.562 5.51907 1.40375C6.66284 1.25075 8.12611 1.25075 9.97414 1.25075H10.1759" fill="black"/>
<path fill-rule="evenodd" clip-rule="evenodd" d="M8.77194 11.3656L8.66099 11.3625C8.36309 11.3625 8.09086 11.4416 7.79707 11.5844C7.56799 11.6954 7.30091 11.8597 6.97014 12.0652L6.30241 12.4792C5.9891 12.6743 5.73845 12.8305 5.54533 12.9784C5.29981 13.1664 5.11594 13.3616 4.97932 13.6102C4.84372 13.8567 4.77798 14.1176 4.74921 14.4279V14.4289C4.72559 14.6744 4.72456 14.9754 4.72456 15.3524V15.8742C4.72456 16.5142 4.72661 17.0186 4.77798 17.4141C4.84269 17.9133 4.99369 18.3099 5.30187 18.6283C5.61415 18.9519 6.00657 19.1111 6.49965 19.1789C6.88384 19.2323 7.3759 19.2344 7.99636 19.2344H9.32563C9.94609 19.2344 10.4381 19.2323 10.8223 19.1789C11.3154 19.1111 11.7068 18.9519 12.0201 18.6283C12.3273 18.3099 12.4793 17.9133 12.544 17.4141C12.5954 17.0186 12.5974 16.5142 12.5974 15.8742V15.3524C12.5974 14.9754 12.5964 14.6744 12.5728 14.4289C12.544 14.1176 12.4783 13.8567 12.3427 13.6102C12.2071 13.3616 12.0222 13.1664 11.7767 12.9784C11.5835 12.8305 11.3329 12.6743 11.0196 12.4792L10.3519 12.0652C10.0211 11.8597 9.75502 11.6954 9.52594 11.5844C9.26912 11.4591 9.02773 11.3831 8.77194 11.3656ZM9.04723 17.826H9.30714C9.89575 17.826 10.3128 17.8271 10.6292 17.7839C10.8141 17.7582 10.9292 17.7305 11.0072 17.6493C11.0904 17.563 11.1202 17.4367 11.1469 17.2323C11.1891 16.9015 11.188 16.4659 11.188 15.8558V15.3647C11.188 15.0093 11.1891 14.7586 11.1696 14.5604C11.1583 14.4371 11.1439 14.356 11.1069 14.2871C11.0699 14.2214 11.0124 14.168 10.9199 14.0971C10.7658 13.979 10.5594 13.8526 10.2656 13.6697L9.61942 13.2691C9.30919 13.077 9.09245 12.9404 8.90959 12.852L8.90856 12.851C8.80378 12.8007 8.7329 12.7719 8.66099 12.7719C8.58909 12.7719 8.51821 12.8007 8.41343 12.851C8.23058 12.9404 8.0128 13.076 7.70257 13.2691L7.05643 13.6697C6.76263 13.8526 6.55615 13.979 6.40309 14.0971C6.40206 14.0971 6.40206 14.0971 6.40206 14.0971C6.3096 14.168 6.25106 14.2214 6.21511 14.2871C6.17812 14.356 6.16374 14.4371 6.15244 14.5604C6.13292 14.7586 6.13394 15.0103 6.13394 15.3647V15.8558C6.13394 16.4659 6.13189 16.9015 6.17606 17.2323C6.20174 17.4357 6.23154 17.562 6.31475 17.6483C6.39385 17.7295 6.5089 17.7572 6.69278 17.7839C7.00917 17.8271 7.42624 17.826 8.01485 17.826H8.27474C8.08367 17.6986 7.95629 17.4819 7.95629 17.2374V16.2677C7.95629 15.8814 8.27475 15.564 8.66099 15.564C9.04724 15.564 9.3657 15.8814 9.3657 16.2677V17.2374C9.3657 17.4819 9.2383 17.6986 9.04723 17.826Z" fill="black"/>
</svg>
