<svg width="24" height="24" viewBox="0 0 24 24" fill="none" xmlns="http://www.w3.org/2000/svg">
<g clip-path="url(#clip0_221_13857)">
<path fill-rule="evenodd" clip-rule="evenodd" d="M9.94503 1.25H14.055C15.423 1.25 16.525 1.25 17.392 1.367C18.292 1.487 19.05 1.747 19.652 2.348C20.254 2.95 20.512 3.708 20.634 4.608C20.75 5.475 20.75 6.578 20.75 7.945V16.055C20.75 17.422 20.75 18.525 20.634 19.392C20.513 20.292 20.254 21.05 19.652 21.652C19.05 22.254 18.292 22.512 17.392 22.634C16.525 22.75 15.422 22.75 14.055 22.75H9.94503C8.57803 22.75 7.47503 22.75 6.60803 22.634C5.70803 22.512 4.95003 22.254 4.34803 21.652C3.74603 21.05 3.48803 20.292 3.36703 19.392C3.3273 19.0789 3.29995 18.7643 3.28503 18.449C3.24501 18.3221 3.23948 18.1868 3.26903 18.057C3.25257 17.3898 3.24624 16.7224 3.25003 16.055V7.945C3.25003 6.578 3.25003 5.475 3.36703 4.608C3.48703 3.708 3.74703 2.95 4.34903 2.348C4.95003 1.746 5.70903 1.488 6.60903 1.367C7.47503 1.25 8.57803 1.25 9.94503 1.25ZM4.77703 18.25C4.79203 18.603 4.81603 18.914 4.85303 19.192C4.95203 19.926 5.13303 20.314 5.40903 20.591C5.68603 20.868 6.07503 21.048 6.80903 21.147C7.56403 21.248 8.56503 21.25 10 21.25H14C15.436 21.25 16.437 21.248 17.192 21.147C17.926 21.048 18.314 20.867 18.592 20.591C18.868 20.314 19.048 19.926 19.147 19.191C19.23 18.576 19.247 17.796 19.249 16.75H7.89803C6.92003 16.75 6.57803 16.756 6.31603 16.827C5.9632 16.9213 5.63863 17.1 5.37032 17.3477C5.10201 17.5955 4.89805 17.9048 4.77603 18.249M19.249 15.249V8C19.249 6.565 19.248 5.563 19.146 4.808C19.047 4.074 18.866 3.686 18.59 3.409C18.313 3.132 17.925 2.952 17.191 2.853C16.436 2.752 15.435 2.75 13.999 2.75H9.99903C9.09103 2.75 8.35703 2.75 7.74903 2.777V15.25L19.249 15.249ZM6.24903 15.31C6.13703 15.3273 6.02936 15.3497 5.92603 15.377C5.50516 15.4908 5.10702 15.6762 4.74903 15.925V8C4.74903 6.565 4.75103 5.563 4.85203 4.808C4.95103 4.074 5.13203 3.686 5.40803 3.409C5.60503 3.213 5.85803 3.065 6.24903 2.96V15.31Z" fill="black"/>
</g>
<defs>
<clipPath id="clip0_221_13857">
<rect width="24" height="24" fill="white"/>
</clipPath>
</defs>
</svg>
