<svg width="24" height="24" viewBox="0 0 24 24" fill="none" xmlns="http://www.w3.org/2000/svg">
<g clip-path="url(#clip0_221_13994)">
<path fill-rule="evenodd" clip-rule="evenodd" d="M10.945 1.25H13.055C14.422 1.25 15.525 1.25 16.392 1.367C17.292 1.487 18.05 1.747 18.652 2.348C18.95 2.647 19.164 2.984 19.319 3.358C20.251 3.474 21.034 3.73 21.652 4.348C22.254 4.95 22.512 5.708 22.634 6.608C22.75 7.475 22.75 8.578 22.75 9.945V14.055C22.75 15.422 22.75 16.525 22.634 17.392C22.512 18.292 22.254 19.05 21.652 19.652C21.034 20.27 20.252 20.526 19.319 20.643C19.164 21.016 18.95 21.353 18.652 21.652C18.05 22.254 17.292 22.512 16.392 22.634C15.525 22.75 14.422 22.75 13.055 22.75H10.945C9.578 22.75 8.475 22.75 7.608 22.634C6.708 22.512 5.95 22.254 5.348 21.652C5.06157 21.3627 4.83493 21.0199 4.681 20.643C3.749 20.526 2.966 20.27 2.348 19.652C1.746 19.05 1.488 18.292 1.367 17.392C1.25 16.525 1.25 15.422 1.25 14.055V9.945C1.25 8.578 1.25 7.475 1.367 6.608C1.487 5.708 1.747 4.95 2.348 4.348C2.966 3.73 3.748 3.474 4.681 3.358C4.83481 2.98078 5.06146 2.63757 5.348 2.348C5.95 1.746 6.708 1.488 7.608 1.367C8.475 1.25 9.578 1.25 10.945 1.25ZM4.328 4.94C3.891 5.046 3.618 5.2 3.409 5.41C3.132 5.686 2.952 6.074 2.853 6.808C2.752 7.564 2.75 8.565 2.75 10V14C2.75 15.435 2.752 16.437 2.853 17.192C2.952 17.926 3.133 18.314 3.409 18.591C3.618 18.8 3.891 18.954 4.329 19.06C4.25 18.248 4.25 17.254 4.25 16.055V7.945C4.25 6.747 4.25 5.752 4.328 4.94ZM19.672 19.06C20.109 18.954 20.382 18.8 20.591 18.591C20.868 18.314 21.048 17.926 21.147 17.191C21.248 16.437 21.25 15.436 21.25 14.001V10.001C21.25 8.565 21.248 7.564 21.147 6.808C21.048 6.074 20.867 5.686 20.591 5.409C20.382 5.2 20.109 5.046 19.671 4.94C19.75 5.752 19.75 6.747 19.75 7.945V16.055C19.75 17.253 19.75 18.248 19.672 19.06ZM7.808 2.853C7.074 2.952 6.686 3.133 6.409 3.409C6.132 3.686 5.952 4.074 5.853 4.809C5.752 5.562 5.75 6.564 5.75 8V16C5.75 17.435 5.752 18.436 5.853 19.192C5.952 19.926 6.133 20.314 6.409 20.591C6.686 20.868 7.074 21.048 7.809 21.147C8.563 21.248 9.565 21.25 11 21.25H13C14.435 21.25 15.437 21.248 16.192 21.147C16.926 21.048 17.314 20.867 17.591 20.591C17.868 20.314 18.048 19.926 18.147 19.191C18.248 18.436 18.25 17.435 18.25 16V8C18.25 6.565 18.248 5.563 18.147 4.808C18.048 4.074 17.867 3.686 17.591 3.409C17.314 3.132 16.926 2.952 16.191 2.853C15.437 2.752 14.435 2.75 13 2.75H11C9.565 2.75 8.563 2.752 7.808 2.853ZM8.25 9C8.25 8.80109 8.32902 8.61032 8.46967 8.46967C8.61032 8.32902 8.80109 8.25 9 8.25H15C15.1989 8.25 15.3897 8.32902 15.5303 8.46967C15.671 8.61032 15.75 8.80109 15.75 9C15.75 9.19891 15.671 9.38968 15.5303 9.53033C15.3897 9.67098 15.1989 9.75 15 9.75H9C8.80109 9.75 8.61032 9.67098 8.46967 9.53033C8.32902 9.38968 8.25 9.19891 8.25 9ZM8.25 13C8.25 12.8011 8.32902 12.6103 8.46967 12.4697C8.61032 12.329 8.80109 12.25 9 12.25H15C15.1989 12.25 15.3897 12.329 15.5303 12.4697C15.671 12.6103 15.75 12.8011 15.75 13C15.75 13.1989 15.671 13.3897 15.5303 13.5303C15.3897 13.671 15.1989 13.75 15 13.75H9C8.80109 13.75 8.61032 13.671 8.46967 13.5303C8.32902 13.3897 8.25 13.1989 8.25 13ZM8.25 17C8.25 16.8011 8.32902 16.6103 8.46967 16.4697C8.61032 16.329 8.80109 16.25 9 16.25H12C12.1989 16.25 12.3897 16.329 12.5303 16.4697C12.671 16.6103 12.75 16.8011 12.75 17C12.75 17.1989 12.671 17.3897 12.5303 17.5303C12.3897 17.671 12.1989 17.75 12 17.75H9C8.80109 17.75 8.61032 17.671 8.46967 17.5303C8.32902 17.3897 8.25 17.1989 8.25 17Z" fill="black"/>
</g>
<defs>
<clipPath id="clip0_221_13994">
<rect width="24" height="24" fill="white"/>
</clipPath>
</defs>
</svg>
