<svg width="24" height="24" viewBox="0 0 24 24" fill="none" xmlns="http://www.w3.org/2000/svg">
<path fill-rule="evenodd" clip-rule="evenodd" d="M12.2497 2.83403C11.7899 2.75602 11.1622 2.75002 10.0296 2.75002C8.11261 2.75002 6.74984 2.75152 5.71782 2.88953C4.70606 3.02453 4.1248 3.27953 3.70179 3.70179C3.27878 4.12405 3.02453 4.70456 2.88953 5.71107C2.75152 6.73859 2.75002 8.09311 2.75002 10.0011V14.001C2.75002 15.9067 2.75152 17.2613 2.88953 18.2888C3.02453 19.2953 3.27878 19.8751 3.70179 20.2988C4.1248 20.7211 4.70456 20.9753 5.71107 21.1103C6.73859 21.2491 8.09311 21.2498 9.99964 21.2498H14.0002C15.9067 21.2498 17.262 21.2483 18.2903 21.1103C19.2953 20.9753 19.875 20.7211 20.2981 20.2981C20.7211 19.875 20.9753 19.2953 21.1103 18.2888C21.2483 17.262 21.2498 15.9067 21.2498 14.0002V13.5629C21.2498 12.0269 21.2401 11.2987 21.0758 10.7497H17.946C16.8128 10.7497 15.888 10.7497 15.156 10.6522C14.3932 10.5486 13.731 10.3266 13.2022 9.79789C12.6727 9.26913 12.4507 8.60762 12.3479 7.84261C12.2497 7.11284 12.2497 6.18658 12.2497 5.05256V2.83403ZM13.7497 3.60954V5.00006C13.7497 6.20008 13.752 7.02359 13.8352 7.6431C13.9147 8.24086 14.0587 8.53412 14.2627 8.73662C14.4667 8.93987 14.7592 9.08463 15.357 9.16488C15.9757 9.24813 16.8 9.24963 18 9.24963H20.0198C19.6365 8.88437 19.2465 8.52587 18.8498 8.17411L14.8912 4.6108C14.5177 4.26955 14.1375 3.93579 13.7497 3.60954ZM10.1751 1.25C11.5597 1.25 12.4552 1.25 13.2779 1.565C14.1007 1.88076 14.763 2.47702 15.7882 3.39953L15.8947 3.49554L19.8533 7.05884L19.9778 7.1706C21.1621 8.23561 21.9278 8.92487 22.3388 9.84889C22.7498 10.7729 22.7513 11.8027 22.7498 13.3949V14.0557C22.7498 15.894 22.7498 17.3498 22.5968 18.489C22.4393 19.6613 22.1071 20.6101 21.3593 21.3593C20.6101 22.1071 19.6613 22.4393 18.489 22.5968C17.349 22.7498 15.894 22.7498 14.0557 22.7498H9.94414C8.10586 22.7498 6.65009 22.7498 5.51082 22.5968C4.33855 22.4393 3.38978 22.1071 2.64052 21.3593C1.89276 20.6101 1.56051 19.6613 1.403 18.489C1.25 17.349 1.25 15.894 1.25 14.0557V9.94489C1.25 8.10661 1.25 6.65084 1.403 5.51157C1.56051 4.34005 1.89276 3.39053 2.64052 2.64202C3.39053 1.89276 4.34155 1.562 5.51907 1.40375C6.66284 1.25075 8.12611 1.25075 9.97414 1.25075H10.1759" fill="black"/>
<path fill-rule="evenodd" clip-rule="evenodd" d="M6.72766 12.2577C5.86164 12.3918 5.19862 13.1398 5.19862 14.0428V16.2548C5.19862 16.8238 5.35563 17.3139 5.64964 17.6269C5.89564 17.8879 6.23465 18.0609 6.70866 18.0609H7.03066V18.6639C7.03066 19.0779 7.36567 19.4139 7.78068 19.4139H11.4178C11.8318 19.4139 12.1678 19.0779 12.1678 18.6639V18.0609H12.2358C13.2328 18.0609 14.0418 17.2518 14.0418 16.2548V14.0428C14.0418 13.2088 13.4758 12.5058 12.7068 12.2988C12.7058 11.9777 12.6228 11.3687 12.0768 10.8547C11.6638 10.4667 10.9388 10.0947 9.62073 10.0947C8.2707 10.0947 7.57668 10.4897 7.20668 10.8877C6.76467 11.3617 6.70766 11.9097 6.72766 12.2577ZM8.53069 15.6488H10.6677V17.9139H8.53069V15.6488ZM11.6498 14.1848C11.9538 14.2618 12.1788 14.5368 12.1788 14.8638V16.6608H12.2358C12.4598 16.6608 12.6418 16.4788 12.6418 16.2548V14.0428C12.6418 13.8188 12.4598 13.6368 12.2358 13.6368H7.00468C6.78067 13.6368 6.59866 13.8188 6.59866 14.0428V16.2548C6.59866 16.3708 6.60666 16.4808 6.63367 16.5778C6.64467 16.6198 6.65866 16.6608 6.70866 16.6608H7.03066V14.8988C7.03066 14.7898 7.05367 14.6878 7.09467 14.5948C7.15267 14.4548 7.25467 14.3378 7.38467 14.2618C7.49867 14.1898 7.63467 14.1488 7.78068 14.1488H11.4178C11.4988 14.1488 11.5768 14.1608 11.6498 14.1848ZM11.2988 12.2367C11.2848 12.1437 11.2428 11.9927 11.1168 11.8747C10.8688 11.6407 10.4117 11.4947 9.62073 11.4947C8.85971 11.4947 8.4397 11.6177 8.2307 11.8417C8.07369 12.0107 8.12568 12.2187 8.12568 12.2187C8.12668 12.2247 8.12869 12.2307 8.13069 12.2367H11.2988Z" fill="black"/>
</svg>
