<svg width="24" height="24" viewBox="0 0 24 24" fill="none" xmlns="http://www.w3.org/2000/svg">
<g clip-path="url(#clip0_221_14071)">
<path fill-rule="evenodd" clip-rule="evenodd" d="M7.263 3.259C7.32245 2.70719 7.58374 2.19683 7.99666 1.82599C8.40959 1.45515 8.945 1.25001 9.5 1.25H14.5C15.055 1.25001 15.5904 1.45515 16.0033 1.82599C16.4163 2.19683 16.6776 2.70719 16.737 3.259C17.5 3.274 18.16 3.314 18.724 3.417C19.482 3.557 20.127 3.822 20.652 4.347C21.254 4.949 21.512 5.707 21.634 6.607C21.75 7.473 21.75 8.576 21.75 9.943V16.053C21.75 17.421 21.75 18.523 21.634 19.39C21.512 20.29 21.254 21.048 20.652 21.65C20.05 22.252 19.292 22.51 18.392 22.632C17.525 22.748 16.422 22.748 15.055 22.748H8.945C7.578 22.748 6.475 22.748 5.608 22.632C4.708 22.511 3.95 22.252 3.348 21.65C2.746 21.048 2.488 20.29 2.367 19.39C2.25 18.523 2.25 17.42 2.25 16.053V9.943C2.25 8.576 2.25 7.473 2.367 6.607C2.487 5.707 2.747 4.949 3.348 4.347C3.873 3.822 4.518 3.557 5.276 3.417C5.84 3.314 6.5 3.274 7.263 3.259ZM7.265 4.759C6.547 4.774 5.993 4.811 5.547 4.893C4.981 4.997 4.652 5.163 4.409 5.407C4.132 5.684 3.952 6.073 3.853 6.807C3.752 7.562 3.75 8.563 3.75 9.998V15.998C3.75 17.434 3.752 18.435 3.853 19.19C3.952 19.924 4.133 20.312 4.409 20.59C4.686 20.866 5.074 21.047 5.809 21.145C6.563 21.247 7.565 21.248 9 21.248H15C16.435 21.248 17.436 21.247 18.192 21.145C18.926 21.047 19.314 20.866 19.591 20.589C19.868 20.313 20.048 19.924 20.147 19.19C20.248 18.435 20.25 17.434 20.25 15.998V9.998C20.25 8.563 20.248 7.562 20.147 6.806C20.048 6.073 19.867 5.684 19.591 5.407C19.347 5.164 19.019 4.997 18.453 4.893C18.007 4.811 17.453 4.774 16.735 4.759C16.6715 5.30721 16.4087 5.81296 15.9966 6.18005C15.5845 6.54715 15.0519 6.74999 14.5 6.75H9.5C8.94827 6.75002 8.41577 6.54732 8.00371 6.18043C7.59165 5.81354 7.32875 5.30803 7.265 4.76M9.5 2.75C9.30109 2.75 9.11032 2.82902 8.96967 2.96967C8.82902 3.11032 8.75 3.30109 8.75 3.5V4.5C8.75 4.914 9.086 5.25 9.5 5.25H14.5C14.6989 5.25 14.8897 5.17098 15.0303 5.03033C15.171 4.88968 15.25 4.69891 15.25 4.5V3.5C15.25 3.30109 15.171 3.11032 15.0303 2.96967C14.8897 2.82902 14.6989 2.75 14.5 2.75H9.5Z" fill="black"/>
<path fill-rule="evenodd" clip-rule="evenodd" d="M11.7502 8C11.3891 8 11.0315 8.07113 10.6978 8.20933C10.3642 8.34753 10.061 8.5501 9.80565 8.80546C9.55029 9.06082 9.34773 9.36398 9.20953 9.69762C9.07133 10.0313 9.0002 10.3889 9.0002 10.75C9.0002 11.1111 9.07133 11.4687 9.20953 11.8024C9.34773 12.136 9.55029 12.4392 9.80565 12.6945C10.061 12.9499 10.3642 13.1525 10.6978 13.2907C11.0315 13.4289 11.3891 13.5 11.7502 13.5C12.4795 13.5 13.179 13.2103 13.6947 12.6945C14.2105 12.1788 14.5002 11.4793 14.5002 10.75C14.5002 10.0207 14.2105 9.32118 13.6947 8.80546C13.179 8.28973 12.4795 8 11.7502 8ZM10.5002 10.75C10.5002 10.4185 10.6319 10.1005 10.8663 9.86612C11.1007 9.6317 11.4187 9.5 11.7502 9.5C12.0817 9.5 12.3997 9.6317 12.6341 9.86612C12.8685 10.1005 13.0002 10.4185 13.0002 10.75C13.0002 11.0815 12.8685 11.3995 12.6341 11.6339C12.3997 11.8683 12.0817 12 11.7502 12C11.4187 12 11.1007 11.8683 10.8663 11.6339C10.6319 11.3995 10.5002 11.0815 10.5002 10.75ZM11.7502 14C10.5542 14 9.4352 14.24 8.5862 14.665C7.7832 15.067 7.0002 15.761 7.0002 16.75V16.813C6.9982 17.323 6.9962 18.183 7.8102 18.772C8.1882 19.045 8.6872 19.22 9.3052 19.331C9.9282 19.443 10.7272 19.5 11.7502 19.5C12.7732 19.5 13.5722 19.443 14.1952 19.331C14.8132 19.22 15.3122 19.045 15.6902 18.771C16.5042 18.182 16.5022 17.323 16.5002 16.812V16.75C16.5002 15.76 15.7172 15.067 14.9142 14.665C14.0652 14.241 12.9462 14 11.7502 14ZM8.5002 16.75C8.5002 16.635 8.6132 16.329 9.2572 16.007C9.8572 15.707 10.7372 15.5 11.7502 15.5C12.7632 15.5 13.6442 15.707 14.2432 16.007C14.8872 16.329 15.0002 16.635 15.0002 16.75C15.0002 17.354 14.9612 17.447 14.8102 17.557C14.6882 17.645 14.4372 17.763 13.9302 17.855C13.4282 17.945 12.7272 18 11.7502 18C10.7732 18 10.0722 17.945 9.5702 17.855C9.0632 17.763 8.8122 17.645 8.6902 17.557C8.5382 17.447 8.5002 17.354 8.5002 16.75Z" fill="black"/>
</g>
<defs>
<clipPath id="clip0_221_14071">
<rect width="24" height="24" fill="white"/>
</clipPath>
</defs>
</svg>
