<svg width="24" height="24" viewBox="0 0 24 24" fill="none" xmlns="http://www.w3.org/2000/svg">
<g clip-path="url(#clip0_221_14239)">
<path fill-rule="evenodd" clip-rule="evenodd" d="M11.667 4.873C11.66 4.897 10.998 7.356 10.998 7.356C10.774 8.192 10.597 8.85401 10.5 9.40001C10.395 9.98601 10.37 10.497 10.487 10.998V10.999C10.658 11.731 11.042 12.397 11.591 12.912C11.967 13.264 12.423 13.498 12.983 13.7C13.503 13.888 16.414 14.668 16.924 14.77L17.377 14.846C17.377 14.846 19.331 15.217 20.607 13.711C20.96 13.334 21.193 12.879 21.396 12.32C21.584 11.798 21.762 11.136 21.986 10.3C21.986 10.301 22.39 8.79402 22.39 8.79402C22.614 7.95902 22.791 7.29601 22.887 6.75001C22.993 6.16501 23.018 5.65302 22.9 5.15202C22.73 4.41902 22.345 3.75302 21.797 3.23902C21.42 2.88602 20.965 2.653 20.405 2.451C19.884 2.262 18.336 1.847 18.336 1.847C17.499 1.623 16.837 1.446 16.292 1.348C15.706 1.244 15.195 1.219 14.693 1.335C14.693 1.335 14.693 1.33501 14.693 1.33601C13.96 1.50601 13.295 1.89101 12.78 2.44001C12.253 3.00201 11.975 3.775 11.667 4.873ZM16.014 2.904C16.497 2.99 17.101 3.15202 17.952 3.38002C18.803 3.60802 19.407 3.77002 19.869 3.93602C20.288 4.08802 20.537 4.22401 20.716 4.39201C21.037 4.69301 21.262 5.08202 21.362 5.51002C21.418 5.74902 21.411 6.033 21.332 6.472C21.246 6.955 21.084 7.56001 20.857 8.41001L20.466 9.86601C20.238 10.717 20.076 11.322 19.91 11.783C19.758 12.202 19.622 12.451 19.454 12.63C19.154 12.951 18.765 13.175 18.337 13.276C18.292 13.286 18.245 13.294 18.196 13.3C17.956 13.33 17.663 13.306 17.232 13.219C16.77 13.128 16.202 12.976 15.436 12.771C14.585 12.542 13.98 12.381 13.519 12.214C13.1 12.062 12.851 11.926 12.672 11.758C12.351 11.458 12.126 11.068 12.026 10.64C11.97 10.401 11.976 10.117 12.055 9.679C12.141 9.196 12.304 8.591 12.531 7.74L13.104 5.606C13.439 4.378 13.62 3.85501 13.934 3.52101C14.234 3.19901 14.624 2.97501 15.052 2.87501C15.291 2.81901 15.574 2.825 16.014 2.904ZM13.446 10.075C13.347 10.487 13.597 10.912 14.009 11.022L16.193 11.608C16.259 11.626 16.328 11.635 16.397 11.635C16.83 11.635 17.187 11.278 17.187 10.845C17.187 10.488 16.946 10.174 16.601 10.081L14.419 9.49702C14.352 9.47902 14.283 9.46901 14.213 9.46901C13.857 9.46901 13.542 9.711 13.45 10.055C13.448 10.062 13.447 10.068 13.446 10.075ZM14.035 7.87202C13.923 8.29002 14.175 8.726 14.594 8.839L18.239 9.81501C18.299 9.83001 18.36 9.83702 18.422 9.83702C18.855 9.83702 19.212 9.48001 19.212 9.04701C19.212 8.69901 18.982 8.39002 18.649 8.29002L15.003 7.313C14.937 7.295 14.868 7.28602 14.798 7.28602C14.442 7.28602 14.128 7.52702 14.035 7.87202Z" fill="black"/>
<path fill-rule="evenodd" clip-rule="evenodd" d="M6.91939 14.4639C8.78602 14.103 10.7832 14.1841 12.4007 15.1481C12.6273 15.2832 12.8411 15.452 13.0265 15.6606C13.4023 16.0837 13.5966 16.6074 13.6057 17.1341C13.7962 17.0095 13.9883 16.8737 14.1826 16.7267L15.9915 15.3612C16.9188 14.6807 18.189 14.6807 19.1163 15.3612C19.9513 15.9914 20.2859 17.1251 19.6865 18.0854C19.2611 18.7666 18.6211 19.7097 17.9691 20.3136C17.3089 20.9243 16.3711 21.4383 15.6621 21.7804C14.8001 22.1968 13.8697 22.4264 12.9642 22.5727C11.1133 22.8728 9.18891 22.827 7.36054 22.4496C6.41747 22.256 5.45714 22.1578 4.49457 22.1563H2.2333C1.82216 22.1563 1.48305 21.8179 1.48305 21.406C1.48305 20.9949 1.82216 20.6558 2.2333 20.6558H4.49457C5.55693 20.6558 6.62979 20.7668 7.66364 20.9799C9.32995 21.322 11.045 21.3595 12.7249 21.0909C13.5531 20.9574 14.3274 20.7578 15.0101 20.4292C15.6929 20.0991 16.4611 19.6647 16.9488 19.2138C17.4417 18.7561 17.9931 17.9653 18.414 17.2909C18.5408 17.0868 18.5228 16.7934 18.2122 16.5586C17.8416 16.2788 17.2646 16.2788 16.8955 16.5586L15.0882 17.9241C14.3657 18.4695 13.4774 19.0525 12.376 19.2288C12.2604 19.2468 12.1449 19.2625 12.0286 19.2768C11.9716 19.2865 11.9116 19.2933 11.8501 19.2963C11.2071 19.3586 10.5596 19.3586 9.9174 19.2963C9.52727 19.2685 9.22117 18.9392 9.22117 18.5483C9.22117 18.1364 9.55953 17.798 9.97142 17.798C10.0007 17.798 10.0292 17.7995 10.0584 17.8033C10.6129 17.8566 11.1718 17.8558 11.727 17.8003L11.757 17.7973C11.9746 17.6615 12.1074 17.4229 12.1074 17.1663C12.1074 16.978 12.0361 16.7964 11.9071 16.6584C11.8268 16.5714 11.7338 16.4963 11.6317 16.4363C10.4501 15.7311 8.87155 15.614 7.20448 15.9367C5.57493 16.2638 4.03091 16.9225 2.6677 17.8723C2.54091 17.9623 2.38935 18.0104 2.2333 18.0104C1.82216 18.0104 1.48305 17.6712 1.48305 17.2601C1.48305 17.017 1.60084 16.7882 1.79965 16.6479C3.33693 15.575 5.08052 14.8315 6.91939 14.4639Z" fill="black"/>
</g>
<defs>
<clipPath id="clip0_221_14239">
<rect width="24" height="24" fill="white"/>
</clipPath>
</defs>
</svg>
