<svg width="24" height="24" viewBox="0 0 24 24" fill="none" xmlns="http://www.w3.org/2000/svg">
<path fill-rule="evenodd" clip-rule="evenodd" d="M12.2497 2.83403C11.7899 2.75602 11.1622 2.75002 10.0296 2.75002C8.11261 2.75002 6.74984 2.75152 5.71782 2.88953C4.70606 3.02453 4.1248 3.27953 3.70179 3.70179C3.27878 4.12405 3.02453 4.70456 2.88953 5.71107C2.75152 6.73859 2.75002 8.09311 2.75002 10.0011V14.001C2.75002 15.9067 2.75152 17.2613 2.88953 18.2888C3.02453 19.2953 3.27878 19.8751 3.70179 20.2988C4.1248 20.7211 4.70456 20.9753 5.71107 21.1103C6.73859 21.2491 8.09311 21.2498 9.99964 21.2498H14.0002C15.9067 21.2498 17.262 21.2483 18.2903 21.1103C19.2953 20.9753 19.875 20.7211 20.2981 20.2981C20.7211 19.875 20.9753 19.2953 21.1103 18.2888C21.2483 17.262 21.2498 15.9067 21.2498 14.0002V13.5629C21.2498 12.0269 21.2401 11.2987 21.0758 10.7497H17.946C16.8128 10.7497 15.888 10.7497 15.156 10.6522C14.3932 10.5486 13.731 10.3266 13.2022 9.79789C12.6727 9.26913 12.4507 8.60762 12.3479 7.84261C12.2497 7.11284 12.2497 6.18658 12.2497 5.05256V2.83403ZM13.7497 3.60954V5.00006C13.7497 6.20008 13.752 7.02359 13.8352 7.6431C13.9147 8.24086 14.0587 8.53412 14.2627 8.73662C14.4667 8.93987 14.7592 9.08463 15.357 9.16488C15.9757 9.24813 16.8 9.24963 18 9.24963H20.0198C19.6365 8.88437 19.2465 8.52587 18.8498 8.17411L14.8912 4.6108C14.5177 4.26955 14.1375 3.93579 13.7497 3.60954ZM10.1751 1.25C11.5597 1.25 12.4552 1.25 13.2779 1.565C14.1007 1.88076 14.763 2.47702 15.7882 3.39953L15.8947 3.49554L19.8533 7.05884L19.9778 7.1706C21.1621 8.23561 21.9278 8.92487 22.3388 9.84889C22.7498 10.7729 22.7513 11.8027 22.7498 13.3949V14.0557C22.7498 15.894 22.7498 17.3498 22.5968 18.489C22.4393 19.6613 22.1071 20.6101 21.3593 21.3593C20.6101 22.1071 19.6613 22.4393 18.489 22.5968C17.349 22.7498 15.894 22.7498 14.0557 22.7498H9.94414C8.10586 22.7498 6.65009 22.7498 5.51082 22.5968C4.33855 22.4393 3.38978 22.1071 2.64052 21.3593C1.89276 20.6101 1.56051 19.6613 1.403 18.489C1.25 17.349 1.25 15.894 1.25 14.0557V9.94489C1.25 8.10661 1.25 6.65084 1.403 5.51157C1.56051 4.34005 1.89276 3.39053 2.64052 2.64202C3.39053 1.89276 4.34155 1.562 5.51907 1.40375C6.66284 1.25075 8.12611 1.25075 9.97414 1.25075H10.1759" fill="black"/>
<path fill-rule="evenodd" clip-rule="evenodd" d="M9.23798 10.091L9.14797 10.0928C8.13285 10.1285 6.85285 10.7763 6.85285 12.3362C6.85285 13.3436 7.33479 13.9457 7.68709 14.251V14.7838C6.64742 14.7919 6.05997 15.1688 5.71154 15.5736C5.134 16.2451 5.20119 17.0862 5.20119 17.0862C5.20463 17.1327 5.21281 17.1788 5.22616 17.2236L5.7305 18.9661C5.81362 19.2534 6.07676 19.4511 6.37609 19.4511H12.0336C12.3329 19.4511 12.596 19.2534 12.6791 18.9661L13.1839 17.2236C13.1968 17.1788 13.205 17.1327 13.2085 17.0862C13.2085 17.0862 13.2756 16.2451 12.6981 15.5736C12.3501 15.1688 11.7627 14.7919 10.723 14.7838V14.251C11.0748 13.9461 11.5572 13.344 11.5572 12.3362C11.5572 10.803 10.3207 10.1509 9.31464 10.0953C9.28923 10.0923 9.26382 10.091 9.23798 10.091ZM9.19535 11.4361L9.23798 11.4365C9.23023 11.4365 9.22204 11.4365 9.21429 11.4361C9.63938 11.4511 10.2126 11.6828 10.2126 12.3362C10.2126 13.03 9.74231 13.3108 9.74231 13.3108C9.51878 13.4262 9.37839 13.6567 9.37839 13.9078V15.4552C9.37839 15.8264 9.67943 16.1275 10.0507 16.1275H10.6864C11.1993 16.1275 11.509 16.2524 11.6791 16.4501C11.8324 16.6288 11.8621 16.8394 11.8673 16.935C11.8673 16.9367 11.5284 18.1069 11.5284 18.1069H6.88128L6.54277 16.9368C6.54794 16.839 6.57765 16.6284 6.73097 16.4501C6.90109 16.2524 7.21075 16.1275 7.7237 16.1275H8.35896C8.73021 16.1275 9.03126 15.8264 9.03126 15.4552V13.9078C9.03126 13.6567 8.89085 13.4262 8.66776 13.3108C8.66776 13.3108 8.19702 13.03 8.19702 12.3362C8.19702 11.6828 8.77026 11.4511 9.19535 11.4361Z" fill="black"/>
</svg>
