<svg width="24" height="24" viewBox="0 0 24 24" fill="none" xmlns="http://www.w3.org/2000/svg">
<g clip-path="url(#clip0_221_13795)">
<path d="M19.728 12.818C19.7042 12.7224 19.6617 12.6324 19.603 12.5532C19.5444 12.474 19.4707 12.4071 19.3862 12.3564C19.3017 12.3057 19.208 12.2721 19.1105 12.2576C19.013 12.2432 18.9136 12.248 18.818 12.272L14.818 13.272C14.6249 13.3203 14.4589 13.4433 14.3565 13.6139C14.2541 13.7846 14.2237 13.9889 14.272 14.182C14.3203 14.3751 14.4433 14.5411 14.6139 14.6435C14.7846 14.7459 14.9889 14.7763 15.182 14.728L19.182 13.728C19.2776 13.7041 19.3676 13.6617 19.4468 13.603C19.526 13.5444 19.5929 13.4707 19.6436 13.3862C19.6943 13.3017 19.7279 13.208 19.7424 13.1105C19.7568 13.013 19.752 12.9136 19.728 12.818ZM19.75 5.5C19.75 5.30109 19.671 5.11032 19.5303 4.96967C19.3897 4.82902 19.1989 4.75 19 4.75C18.8011 4.75 18.6103 4.82902 18.4697 4.96967C18.329 5.11032 18.25 5.30109 18.25 5.5V8.939L17.5 8.583L17.492 8.578C17.3404 8.49681 17.1719 8.45228 17 8.448C16.8281 8.45228 16.6596 8.49681 16.508 8.578L16.499 8.583L15.75 8.939V6.95C15.75 6.75109 15.671 6.56032 15.5303 6.41967C15.3897 6.27902 15.1989 6.2 15 6.2C14.8011 6.2 14.6103 6.27902 14.4697 6.41967C14.329 6.56032 14.25 6.75109 14.25 6.95V9.537C14.25 9.648 14.25 9.807 14.27 9.943C14.2882 10.0829 14.3376 10.217 14.4146 10.3352C14.4917 10.4535 14.5943 10.5529 14.715 10.626C14.833 10.6926 14.9638 10.7334 15.0988 10.7458C15.2338 10.7583 15.3698 10.7419 15.498 10.698C15.628 10.658 15.77 10.59 15.876 10.539L17 10.005L18.124 10.539C18.23 10.589 18.372 10.658 18.502 10.699C18.6303 10.7428 18.7664 10.7589 18.9013 10.7464C19.0363 10.7338 19.167 10.6928 19.285 10.626C19.4055 10.5528 19.508 10.4533 19.5848 10.3351C19.6617 10.2169 19.711 10.0829 19.729 9.943C19.75 9.807 19.75 9.648 19.75 9.537V5.5ZM4.272 8.818C4.29586 8.72237 4.33832 8.63238 4.39698 8.55317C4.45563 8.47397 4.52932 8.4071 4.61384 8.35639C4.69835 8.30568 4.79203 8.27213 4.88952 8.25765C4.98701 8.24317 5.0864 8.24804 5.182 8.272L9.182 9.272C9.27761 9.2959 9.36756 9.3384 9.44674 9.39706C9.52592 9.45573 9.59277 9.52942 9.64347 9.61392C9.69417 9.69842 9.72773 9.79208 9.74224 9.88955C9.75674 9.98702 9.7519 10.0864 9.728 10.182C9.7041 10.2776 9.66161 10.3676 9.60294 10.4467C9.54427 10.5259 9.47059 10.5928 9.38608 10.6435C9.30158 10.6942 9.20792 10.7277 9.11045 10.7422C9.01298 10.7567 8.91361 10.7519 8.818 10.728L4.818 9.728C4.72237 9.70415 4.63238 9.66168 4.55318 9.60303C4.47397 9.54437 4.4071 9.47068 4.35639 9.38617C4.30568 9.30165 4.27213 9.20797 4.25765 9.11048C4.24317 9.01299 4.24805 8.9136 4.272 8.818ZM5.182 12.272C4.98893 12.2237 4.78458 12.2541 4.61392 12.3565C4.44327 12.4589 4.32027 12.6249 4.272 12.818C4.22373 13.0111 4.25414 13.2154 4.35654 13.3861C4.45893 13.5567 4.62493 13.6797 4.818 13.728L8.818 14.728C9.01108 14.7763 9.21543 14.7459 9.38608 14.6435C9.55674 14.5411 9.67973 14.3751 9.728 14.182C9.77627 13.9889 9.74587 13.7846 9.64347 13.6139C9.54108 13.4433 9.37508 13.3203 9.182 13.272L5.182 12.272Z" fill="black"/>
<path fill-rule="evenodd" clip-rule="evenodd" d="M22.75 4.93299C22.75 3.46999 21.585 2.21499 20.056 2.26799C18.917 2.30799 17.43 2.42599 16.285 2.76899C15.29 3.06699 14.171 3.64899 13.298 4.15399C12.8945 4.38702 12.4388 4.5145 11.9729 4.52464C11.5071 4.53478 11.0462 4.42725 10.633 4.21199C9.637 3.68599 8.328 3.06199 7.191 2.76199C6.231 2.50899 5.015 2.38699 4.028 2.32599C2.47 2.23099 1.25 3.49999 1.25 4.99799V16.144C1.25 17.68 2.494 18.879 3.968 18.971C4.927 19.031 6.006 19.147 6.808 19.359C7.801 19.62 9.028 20.203 10.02 20.731C10.6297 21.0549 11.3096 21.2243 12 21.2243C12.6904 21.2243 13.3703 21.0549 13.98 20.731C14.971 20.203 16.199 19.621 17.191 19.359C17.994 19.147 19.073 19.031 20.032 18.971C21.506 18.879 22.75 17.68 22.75 16.144V4.93299ZM20.108 3.76699C20.723 3.74599 21.25 4.25199 21.25 4.93299V16.143C21.25 16.829 20.682 17.428 19.938 17.474C18.958 17.536 17.759 17.657 16.808 17.908C15.638 18.218 14.283 18.87 13.275 19.408C13.1063 19.498 12.9313 19.5683 12.75 19.619V5.94199C13.202 5.85199 13.642 5.68799 14.05 5.45199C14.9 4.95999 15.895 4.45199 16.715 4.20599C17.665 3.92199 18.989 3.80599 20.108 3.76699ZM11.25 5.97499C10.7895 5.90378 10.3441 5.75643 9.932 5.53899C8.955 5.02199 7.771 4.46699 6.809 4.21299C5.996 3.99799 4.902 3.88299 3.936 3.82299C3.302 3.78499 2.75 4.30099 2.75 4.99799V16.144C2.75 16.829 3.318 17.428 4.062 17.474C5.042 17.536 6.241 17.657 7.192 17.908C8.362 18.218 9.717 18.87 10.725 19.408C10.8937 19.498 11.0687 19.5683 11.25 19.619V5.97499Z" fill="black"/>
</g>
<defs>
<clipPath id="clip0_221_13795">
<rect width="24" height="24" fill="white"/>
</clipPath>
</defs>
</svg>
