<svg width="24" height="24" viewBox="0 0 24 24" fill="none" xmlns="http://www.w3.org/2000/svg">
<g clip-path="url(#clip0_221_14031)">
<path fill-rule="evenodd" clip-rule="evenodd" d="M7.263 3.259C7.32245 2.70719 7.58374 2.19683 7.99666 1.82599C8.40959 1.45515 8.945 1.25001 9.5 1.25H14.5C15.055 1.25001 15.5904 1.45515 16.0033 1.82599C16.4163 2.19683 16.6776 2.70719 16.737 3.259C17.5 3.274 18.16 3.314 18.724 3.417C19.482 3.557 20.127 3.822 20.652 4.347C21.254 4.949 21.512 5.707 21.634 6.607C21.75 7.473 21.75 8.576 21.75 9.943V16.053C21.75 17.421 21.75 18.523 21.634 19.39C21.512 20.29 21.254 21.048 20.652 21.65C20.05 22.252 19.292 22.51 18.392 22.632C17.525 22.748 16.422 22.748 15.055 22.748H8.945C7.578 22.748 6.475 22.748 5.608 22.632C4.708 22.511 3.95 22.252 3.348 21.65C2.746 21.048 2.488 20.29 2.367 19.39C2.25 18.523 2.25 17.42 2.25 16.053V9.943C2.25 8.576 2.25 7.473 2.367 6.607C2.487 5.707 2.747 4.949 3.348 4.347C3.873 3.822 4.518 3.557 5.276 3.417C5.84 3.314 6.5 3.274 7.263 3.259ZM7.265 4.759C6.547 4.774 5.993 4.811 5.547 4.893C4.981 4.997 4.652 5.163 4.409 5.407C4.132 5.684 3.952 6.073 3.853 6.807C3.752 7.562 3.75 8.563 3.75 9.998V15.998C3.75 17.434 3.752 18.435 3.853 19.19C3.952 19.924 4.133 20.312 4.409 20.59C4.686 20.866 5.074 21.047 5.809 21.145C6.563 21.247 7.565 21.248 9 21.248H15C16.435 21.248 17.436 21.247 18.192 21.145C18.926 21.047 19.314 20.866 19.591 20.589C19.868 20.313 20.048 19.924 20.147 19.19C20.248 18.435 20.25 17.434 20.25 15.998V9.998C20.25 8.563 20.248 7.562 20.147 6.806C20.048 6.073 19.867 5.684 19.591 5.407C19.347 5.164 19.019 4.997 18.453 4.893C18.007 4.811 17.453 4.774 16.735 4.759C16.6715 5.30721 16.4087 5.81296 15.9966 6.18005C15.5845 6.54715 15.0519 6.74999 14.5 6.75H9.5C8.94827 6.75002 8.41577 6.54732 8.00371 6.18043C7.59165 5.81354 7.32875 5.30803 7.265 4.76M9.5 2.75C9.30109 2.75 9.11032 2.82902 8.96967 2.96967C8.82902 3.11032 8.75 3.30109 8.75 3.5V4.5C8.75 4.914 9.086 5.25 9.5 5.25H14.5C14.6989 5.25 14.8897 5.17098 15.0303 5.03033C15.171 4.88968 15.25 4.69891 15.25 4.5V3.5C15.25 3.30109 15.171 3.11032 15.0303 2.96967C14.8897 2.82902 14.6989 2.75 14.5 2.75H9.5Z" fill="black"/>
<path fill-rule="evenodd" clip-rule="evenodd" d="M12 9.67459C11.2903 9.67459 10.7143 10.2372 10.7143 10.9304C10.7143 11.1524 10.624 11.3654 10.4632 11.5224C10.3025 11.6794 10.0845 11.7676 9.85714 11.7676C9.62981 11.7676 9.4118 11.6794 9.25105 11.5224C9.09031 11.3654 9 11.1524 9 10.9304C8.99996 10.4173 9.13789 9.91311 9.39998 9.46839C9.66206 9.02367 10.0391 8.65398 10.4934 8.39629C10.9477 8.1386 11.4634 8.00195 11.9887 8.00002C12.5141 7.99809 13.0307 8.13094 13.487 8.38528C13.9433 8.63962 14.3232 9.00654 14.5887 9.44931C14.8542 9.89209 14.996 10.3952 14.9999 10.9083C15.0038 11.4214 14.8697 11.9266 14.611 12.3732C14.3523 12.8198 13.9781 13.1922 13.5257 13.4531C13.3276 13.5624 13.1482 13.7014 12.9943 13.865C12.8777 13.999 12.8571 14.0883 12.8571 14.1396V15.535C12.8571 15.757 12.7668 15.9699 12.6061 16.1269C12.4453 16.2839 12.2273 16.3722 12 16.3722C11.7727 16.3722 11.5547 16.2839 11.3939 16.1269C11.2332 15.9699 11.1429 15.757 11.1429 15.535V14.1396C11.1429 13.5748 11.3966 13.1171 11.688 12.7811C11.976 12.4496 12.3349 12.1962 12.6537 12.012C12.8975 11.8726 13.0875 11.6586 13.1942 11.4031C13.3009 11.1476 13.3184 10.8648 13.2439 10.5986C13.1695 10.3324 13.0072 10.0977 12.7824 9.9306C12.5575 9.76355 12.2825 9.67357 12 9.67459ZM12 20C12.3031 20 12.5938 19.8824 12.8081 19.6731C13.0224 19.4637 13.1429 19.1798 13.1429 18.8837C13.1429 18.5877 13.0224 18.3038 12.8081 18.0944C12.5938 17.8851 12.3031 17.7675 12 17.7675C11.6969 17.7675 11.4062 17.8851 11.1919 18.0944C10.9776 18.3038 10.8571 18.5877 10.8571 18.8837C10.8571 19.1798 10.9776 19.4637 11.1919 19.6731C11.4062 19.8824 11.6969 20 12 20Z" fill="black"/>
</g>
<defs>
<clipPath id="clip0_221_14031">
<rect width="24" height="24" fill="white"/>
</clipPath>
</defs>
</svg>
