<svg width="24" height="24" viewBox="0 0 24 24" fill="none" xmlns="http://www.w3.org/2000/svg">
<g clip-path="url(#clip0_221_14188)">
<path fill-rule="evenodd" clip-rule="evenodd" d="M8.05826 2.48959C8.33913 2.79074 8.32261 3.26987 8.02222 3.55149L3.7303 7.55652C3.59137 7.68645 3.40813 7.75854 3.21738 7.75854C2.99133 7.75854 2.77654 7.65641 2.63386 7.48067L1.418 5.97869C1.30986 5.84502 1.25128 5.67754 1.25128 5.50557C1.25128 5.09402 1.58998 4.75458 2.00227 4.75458C2.22832 4.75458 2.4431 4.85746 2.58579 5.03319L3.29473 5.9096L6.99636 2.45354C7.29751 2.17267 7.77664 2.18919 8.05826 2.48959ZM11.2642 5.00541C11.2642 4.59311 11.6029 4.25442 12.0152 4.25442H22.0282C22.4405 4.25442 22.7792 4.59311 22.7792 5.00541C22.7792 5.41695 22.4405 5.7564 22.0282 5.7564H12.0152C11.6029 5.7564 11.2642 5.41695 11.2642 5.00541ZM8.05826 9.49934C8.33913 9.80049 8.32261 10.2789 8.02222 10.5605L3.7303 14.5655C3.59137 14.6954 3.40813 14.7683 3.21738 14.7683C2.99133 14.7683 2.77654 14.6654 2.63386 14.4897L1.418 12.9877C1.30986 12.854 1.25128 12.6873 1.25128 12.5153C1.25128 12.103 1.58998 11.7643 2.00227 11.7643C2.22832 11.7643 2.4431 11.8665 2.58579 12.0422L3.29473 12.9186L6.99636 9.46329C7.29751 9.18167 7.77664 9.19819 8.05826 9.49934ZM11.2642 12.0144C11.2642 11.6021 11.6029 11.2634 12.0152 11.2634H13.2754C13.6877 11.2634 14.0264 11.6021 14.0264 12.0144C14.0264 12.4267 13.6877 12.7654 13.2754 12.7654H12.0152C11.6029 12.7654 11.2642 12.4267 11.2642 12.0144ZM8.05826 16.5083C8.33913 16.8095 8.32261 17.2886 8.02222 17.5695L3.7303 21.5753C3.59137 21.7052 3.40813 21.7773 3.21738 21.7773C2.99133 21.7773 2.77654 21.6752 2.63386 21.4987L1.418 19.9967C1.30986 19.863 1.25128 19.6963 1.25128 19.5243C1.25128 19.112 1.58998 18.7733 2.00227 18.7733C2.22832 18.7733 2.4431 18.8755 2.58579 19.0519L3.29473 19.9276L6.99636 16.4723C7.29751 16.1914 7.77664 16.2072 8.05826 16.5083Z" fill="black"/>
<path fill-rule="evenodd" clip-rule="evenodd" d="M18.0274 10.2728C16.5186 10.2728 15.2762 11.5153 15.2762 13.0241C15.2762 14.5329 16.5186 15.7754 18.0274 15.7754C19.5363 15.7754 20.7787 14.5329 20.7787 13.0241C20.7787 11.5153 19.5363 10.2728 18.0274 10.2728ZM16.7767 13.0241C16.7767 12.3383 17.3417 11.7734 18.0274 11.7734C18.7132 11.7734 19.2782 12.3383 19.2782 13.0241C19.2782 13.7099 18.7132 14.2748 18.0274 14.2748C17.3417 14.2748 16.7767 13.7099 16.7767 13.0241ZM18.0274 16.2751C16.8307 16.2751 15.7113 16.5151 14.862 16.9405C14.0592 17.3427 13.2759 18.0367 13.2759 19.0263V19.0893C13.2737 19.5995 13.2714 20.4601 14.0862 21.0491C14.4644 21.3222 14.9633 21.497 15.5815 21.608C16.205 21.7206 17.0041 21.7776 18.0274 21.7776C19.0508 21.7776 19.8499 21.7206 20.4733 21.608C21.0916 21.497 21.5905 21.3222 21.9687 21.0483C22.7835 20.4586 22.7812 19.5995 22.779 19.0886V19.0263C22.779 18.036 21.9957 17.3427 21.1929 16.9405C20.3436 16.5166 19.2241 16.2751 18.0274 16.2751ZM14.7765 19.0263C14.7765 18.9115 14.889 18.6054 15.5335 18.2828C16.1337 17.9827 17.0138 17.7756 18.0274 17.7756C19.0411 17.7756 19.9219 17.9827 20.5214 18.2828C21.1659 18.6054 21.2784 18.9115 21.2784 19.0263C21.2784 19.6303 21.2394 19.7233 21.0886 19.8336C20.9663 19.9214 20.7157 20.0399 20.2085 20.1315C19.7058 20.2215 19.0051 20.277 18.0274 20.277C17.0498 20.277 16.3491 20.2215 15.8464 20.1315C15.3392 20.0399 15.0886 19.9214 14.9663 19.8336C14.814 19.7233 14.7765 19.6303 14.7765 19.0263Z" fill="black"/>
</g>
<defs>
<clipPath id="clip0_221_14188">
<rect width="24" height="24" fill="white"/>
</clipPath>
</defs>
</svg>
