<svg width="24" height="24" viewBox="0 0 24 24" fill="none" xmlns="http://www.w3.org/2000/svg">
<g clip-path="url(#clip0_221_13934)">
<path d="M18 10C18 10.2652 17.8946 10.5196 17.7071 10.7071C17.5196 10.8946 17.2652 11 17 11C16.7348 11 16.4804 10.8946 16.2929 10.7071C16.1054 10.5196 16 10.2652 16 10C16 9.73478 16.1054 9.48043 16.2929 9.29289C16.4804 9.10536 16.7348 9 17 9C17.2652 9 17.5196 9.10536 17.7071 9.29289C17.8946 9.48043 18 9.73478 18 10Z" fill="black"/>
<path fill-rule="evenodd" clip-rule="evenodd" d="M11.945 1.25H12.055C13.422 1.25 14.525 1.25 15.392 1.367C16.292 1.487 17.05 1.747 17.652 2.348C18.392 3.088 18.62 4.075 18.702 5.299C18.946 5.31567 19.176 5.33833 19.392 5.367C20.292 5.487 21.05 5.747 21.652 6.348C22.254 6.95 22.512 7.708 22.634 8.608C22.75 9.475 22.75 10.578 22.75 11.945V12.055C22.75 13.422 22.75 14.525 22.634 15.392C22.512 16.292 22.254 17.05 21.652 17.652C20.912 18.392 19.925 18.62 18.701 18.702C18.685 18.946 18.6627 19.176 18.634 19.392C18.512 20.292 18.254 21.05 17.652 21.652C17.05 22.254 16.292 22.512 15.392 22.634C14.525 22.75 13.422 22.75 12.055 22.75H11.945C10.578 22.75 9.475 22.75 8.608 22.634C7.708 22.512 6.95 22.254 6.348 21.652C5.746 21.05 5.488 20.292 5.367 19.392C5.33767 19.176 5.315 18.946 5.299 18.702C4.075 18.62 3.089 18.392 2.349 17.652C1.746 17.05 1.488 16.292 1.367 15.392C1.25 14.525 1.25 13.422 1.25 12.055V11.945C1.25 10.578 1.25 9.475 1.367 8.608C1.487 7.708 1.747 6.95 2.348 6.348C2.95 5.746 3.708 5.488 4.608 5.367C4.83714 5.33636 5.06728 5.31368 5.298 5.299C5.38 4.075 5.608 3.089 6.348 2.349C6.95 1.746 7.708 1.488 8.608 1.367C9.475 1.25 10.578 1.25 11.945 1.25ZM6.807 5.253C7.16367 5.25033 7.543 5.24933 7.945 5.25H16.055C16.4563 5.25 16.8357 5.251 17.193 5.253C17.111 4.233 16.926 3.745 16.591 3.409C16.314 3.132 15.926 2.952 15.191 2.853C14.436 2.752 13.435 2.75 12 2.75C10.565 2.75 9.563 2.752 8.808 2.853C8.074 2.952 7.686 3.133 7.409 3.409C7.074 3.745 6.889 4.232 6.807 5.253ZM5.253 17.193C5.25033 16.8363 5.24933 16.457 5.25 16.055V14.75H5C4.80109 14.75 4.61032 14.671 4.46967 14.5303C4.32902 14.3897 4.25 14.1989 4.25 14C4.25 13.8011 4.32902 13.6103 4.46967 13.4697C4.61032 13.329 4.80109 13.25 5 13.25H19C19.1989 13.25 19.3897 13.329 19.5303 13.4697C19.671 13.6103 19.75 13.8011 19.75 14C19.75 14.1989 19.671 14.3897 19.5303 14.5303C19.3897 14.671 19.1989 14.75 19 14.75H18.75V16.055C18.75 16.4563 18.749 16.8357 18.747 17.193C19.767 17.111 20.256 16.926 20.591 16.591C20.868 16.314 21.048 15.926 21.147 15.191C21.248 14.436 21.25 13.435 21.25 12C21.25 10.565 21.248 9.563 21.147 8.808C21.048 8.074 20.867 7.686 20.591 7.409C20.314 7.132 19.926 6.952 19.191 6.853C18.436 6.752 17.435 6.75 16 6.75H8C6.565 6.75 5.563 6.752 4.808 6.853C4.074 6.952 3.686 7.133 3.409 7.409C3.132 7.686 2.952 8.074 2.853 8.809C2.752 9.563 2.75 10.565 2.75 12C2.75 13.435 2.752 14.437 2.853 15.192C2.952 15.926 3.133 16.314 3.409 16.591C3.745 16.926 4.232 17.111 5.253 17.193ZM17.25 14.75H6.75V16C6.75 17.435 6.752 18.436 6.853 19.192C6.952 19.926 7.133 20.314 7.409 20.591C7.686 20.868 8.074 21.048 8.809 21.147C9.563 21.248 10.565 21.25 12 21.25C13.435 21.25 14.437 21.248 15.192 21.147C15.926 21.048 16.314 20.867 16.591 20.591C16.868 20.314 17.048 19.926 17.147 19.191C17.248 18.436 17.25 17.435 17.25 16V14.75ZM5.25 10C5.25 9.80109 5.32902 9.61032 5.46967 9.46967C5.61032 9.32902 5.80109 9.25 6 9.25H9C9.19891 9.25 9.38968 9.32902 9.53033 9.46967C9.67098 9.61032 9.75 9.80109 9.75 10C9.75 10.1989 9.67098 10.3897 9.53033 10.5303C9.38968 10.671 9.19891 10.75 9 10.75H6C5.80109 10.75 5.61032 10.671 5.46967 10.5303C5.32902 10.3897 5.25 10.1989 5.25 10ZM8.25 16.805C8.25 16.6061 8.32902 16.4153 8.46967 16.2747C8.61032 16.134 8.80109 16.055 9 16.055H15C15.1989 16.055 15.3897 16.134 15.5303 16.2747C15.671 16.4153 15.75 16.6061 15.75 16.805C15.75 17.0039 15.671 17.1947 15.5303 17.3353C15.3897 17.476 15.1989 17.555 15 17.555H9C8.80109 17.555 8.61032 17.476 8.46967 17.3353C8.32902 17.1947 8.25 17.0039 8.25 16.805ZM8.25 19.305C8.25 19.1061 8.32902 18.9153 8.46967 18.7747C8.61032 18.634 8.80109 18.555 9 18.555H13C13.1989 18.555 13.3897 18.634 13.5303 18.7747C13.671 18.9153 13.75 19.1061 13.75 19.305C13.75 19.5039 13.671 19.6947 13.5303 19.8353C13.3897 19.976 13.1989 20.055 13 20.055H9C8.80109 20.055 8.61032 19.976 8.46967 19.8353C8.32902 19.6947 8.25 19.5039 8.25 19.305Z" fill="black"/>
</g>
<defs>
<clipPath id="clip0_221_13934">
<rect width="24" height="24" fill="white"/>
</clipPath>
</defs>
</svg>
