<svg width="24" height="24" viewBox="0 0 24 24" fill="none" xmlns="http://www.w3.org/2000/svg">
<path fill-rule="evenodd" clip-rule="evenodd" d="M12.2497 2.83403C11.7899 2.75602 11.1622 2.75002 10.0296 2.75002C8.11261 2.75002 6.74984 2.75152 5.71782 2.88953C4.70606 3.02453 4.1248 3.27953 3.70179 3.70179C3.27878 4.12405 3.02453 4.70456 2.88953 5.71107C2.75152 6.73859 2.75002 8.09311 2.75002 10.0011V14.001C2.75002 15.9067 2.75152 17.2613 2.88953 18.2888C3.02453 19.2953 3.27878 19.8751 3.70179 20.2988C4.1248 20.7211 4.70456 20.9753 5.71107 21.1103C6.73859 21.2491 8.09311 21.2498 9.99964 21.2498H14.0002C15.9067 21.2498 17.262 21.2483 18.2903 21.1103C19.2953 20.9753 19.875 20.7211 20.2981 20.2981C20.7211 19.875 20.9753 19.2953 21.1103 18.2888C21.2483 17.262 21.2498 15.9067 21.2498 14.0002V13.5629C21.2498 12.0269 21.2401 11.2987 21.0758 10.7497H17.946C16.8128 10.7497 15.888 10.7497 15.156 10.6522C14.3932 10.5486 13.731 10.3266 13.2022 9.79789C12.6727 9.26913 12.4507 8.60762 12.3479 7.84261C12.2497 7.11284 12.2497 6.18658 12.2497 5.05256V2.83403ZM13.7497 3.60954V5.00006C13.7497 6.20008 13.752 7.02359 13.8352 7.6431C13.9147 8.24086 14.0587 8.53412 14.2627 8.73662C14.4667 8.93987 14.7592 9.08463 15.357 9.16488C15.9757 9.24813 16.8 9.24963 18 9.24963H20.0198C19.6365 8.88437 19.2465 8.52587 18.8498 8.17411L14.8912 4.6108C14.5177 4.26955 14.1375 3.93579 13.7497 3.60954ZM10.1751 1.25C11.5597 1.25 12.4552 1.25 13.2779 1.565C14.1007 1.88076 14.763 2.47702 15.7882 3.39953L15.8947 3.49554L19.8533 7.05884L19.9778 7.1706C21.1621 8.23561 21.9278 8.92487 22.3388 9.84889C22.7498 10.7729 22.7513 11.8027 22.7498 13.3949V14.0557C22.7498 15.894 22.7498 17.3498 22.5968 18.489C22.4393 19.6613 22.1071 20.6101 21.3593 21.3593C20.6101 22.1071 19.6613 22.4393 18.489 22.5968C17.349 22.7498 15.894 22.7498 14.0557 22.7498H9.94414C8.10586 22.7498 6.65009 22.7498 5.51082 22.5968C4.33855 22.4393 3.38978 22.1071 2.64052 21.3593C1.89276 20.6101 1.56051 19.6613 1.403 18.489C1.25 17.349 1.25 15.894 1.25 14.0557V9.94489C1.25 8.10661 1.25 6.65084 1.403 5.51157C1.56051 4.34005 1.89276 3.39053 2.64052 2.64202C3.39053 1.89276 4.34155 1.562 5.51907 1.40375C6.66284 1.25075 8.12611 1.25075 9.97414 1.25075H10.1759" fill="black"/>
<path fill-rule="evenodd" clip-rule="evenodd" d="M9.50817 10.0911H9.46317C8.62216 10.0911 7.96015 10.0931 7.44214 10.1631C6.81713 10.2481 6.32511 10.4411 5.9331 10.8371C5.5431 11.2311 5.3541 11.7261 5.2701 12.3541C5.2011 12.8761 5.1991 13.5451 5.1991 14.3942V16.4002C5.1991 17.0132 5.20009 17.4992 5.23909 17.8642C5.28909 18.3312 5.42209 18.7412 5.7281 19.0233C5.9811 19.2573 6.30211 19.4043 6.64412 19.4433C6.64512 19.4433 6.64512 19.4433 6.64512 19.4433C7.06013 19.4913 7.45813 19.3203 7.84014 19.0493C8.13915 18.8382 8.50215 18.5192 8.95816 18.1152L8.97316 18.1022C9.16316 17.9342 9.29118 17.8202 9.39918 17.7402C9.42518 17.7212 9.45817 17.7012 9.47117 17.6942C9.48217 17.6932 9.49118 17.6932 9.50018 17.6942L9.57219 17.7402C9.68019 17.8192 9.80819 17.9342 9.99819 18.1022L10.0132 18.1152C10.4692 18.5182 10.8322 18.8382 11.1302 19.0493C11.5132 19.3203 11.9102 19.4913 12.3262 19.4433C12.6682 19.4043 12.9892 19.2563 13.2432 19.0233C13.5483 18.7412 13.6823 18.3312 13.7323 17.8642C13.7713 17.4992 13.7723 17.0132 13.7723 16.4002V14.3942C13.7723 13.5451 13.7703 12.8761 13.7013 12.3541C13.6173 11.7261 13.4283 11.2311 13.0382 10.8371C12.6462 10.4411 12.1542 10.2481 11.5292 10.1631C11.0112 10.0931 10.3492 10.0911 9.50817 10.0911ZM6.99213 11.8851C6.85213 12.0261 6.79012 12.2261 6.74712 12.5501C6.68712 13.0001 6.68912 13.5901 6.68912 14.4162V16.3812C6.68912 16.9762 6.68811 17.3982 6.72112 17.7062C6.73212 17.8092 6.75513 17.9052 6.76613 17.9472L6.77312 17.9502L6.77812 17.9522C6.81812 17.9322 6.90313 17.8872 6.97913 17.8332C7.22914 17.6562 7.54214 17.3772 7.98515 16.9862L7.99514 16.9762C8.20015 16.7962 8.37015 16.6472 8.51916 16.5382C8.72016 16.3912 8.92517 16.2832 9.16417 16.2352C9.37518 16.1922 9.59417 16.1922 9.80518 16.2352C10.0442 16.2832 10.2492 16.3902 10.4512 16.5372C10.4512 16.5372 10.4512 16.5372 10.4522 16.5382C10.6012 16.6472 10.7712 16.7962 10.9752 16.9762L11.9912 17.8332C12.0672 17.8872 12.1532 17.9332 12.1932 17.9532C12.1962 17.9512 12.2002 17.9492 12.2042 17.9482C12.2152 17.9062 12.2382 17.8092 12.2502 17.7052C12.2822 17.3992 12.2812 16.9762 12.2812 16.3812V14.4162C12.2812 13.5901 12.2832 13.0001 12.2232 12.5501C12.1802 12.2261 12.1182 12.0261 11.9782 11.8851C11.8402 11.7451 11.6452 11.6831 11.3282 11.6401C10.8852 11.5801 10.3012 11.5821 9.48518 11.5821C8.66916 11.5821 8.08515 11.5801 7.64214 11.6401C7.32513 11.6831 7.13013 11.7451 6.99213 11.8851Z" fill="black"/>
</svg>
