<svg width="24" height="24" viewBox="0 0 24 24" fill="none" xmlns="http://www.w3.org/2000/svg">
<g clip-path="url(#clip0_221_14042)">
<path fill-rule="evenodd" clip-rule="evenodd" d="M14.254 1.36501C13.158 1.05901 12.132 1.38901 11.403 2.06001C10.684 2.72001 10.25 3.70601 10.25 4.76001V11.455C10.25 12.0637 10.4918 12.6474 10.9222 13.0778C11.3526 13.5082 11.9363 13.75 12.545 13.75H19.239C20.294 13.75 21.281 13.316 21.94 12.597C22.61 11.868 22.941 10.842 22.635 9.74601C22.0743 7.74759 21.009 5.92701 19.5414 4.45926C18.0738 2.99151 16.2533 1.92595 14.255 1.36501M11.75 4.76001C11.75 4.10801 12.02 3.52801 12.418 3.16301C12.804 2.80801 13.304 2.65501 13.851 2.80801C17.401 3.79901 20.2 6.59801 21.191 10.148C21.344 10.696 21.191 11.196 20.836 11.582C20.471 11.979 19.891 12.249 19.239 12.249H12.545C12.3342 12.249 12.1319 12.1652 11.9829 12.0162C11.8338 11.8671 11.75 11.6649 11.75 11.454V4.76001Z" fill="black"/>
<path d="M8.672 4.716C8.8619 4.65633 9.02031 4.52366 9.11239 4.34719C9.20447 4.17072 9.22267 3.9649 9.163 3.775C9.10333 3.58511 8.97066 3.4267 8.79419 3.33462C8.61772 3.24253 8.4119 3.22433 8.222 3.284C4.183 4.554 1.25 8.328 1.25 12.79C1.25 18.291 5.71 22.751 11.21 22.751C13.3302 22.7517 15.3954 22.0759 17.1049 20.8217C18.8144 19.5676 20.0791 17.8006 20.715 15.778C20.7485 15.6831 20.7625 15.5824 20.7562 15.482C20.7499 15.3815 20.7235 15.2834 20.6785 15.1934C20.6335 15.1033 20.5709 15.0233 20.4943 14.958C20.4177 14.8927 20.3288 14.8435 20.2328 14.8133C20.1368 14.7831 20.0357 14.7725 19.9355 14.7822C19.8354 14.7918 19.7382 14.8216 19.6497 14.8696C19.5613 14.9176 19.4834 14.983 19.4208 15.0617C19.3581 15.1405 19.3119 15.231 19.285 15.328C18.7442 17.0457 17.6697 18.5462 16.2177 19.6114C14.7657 20.6766 13.0118 21.2509 11.211 21.251C10.0999 21.2511 8.99972 21.0324 7.97319 20.6073C6.94666 20.1822 6.01392 19.5591 5.22823 18.7735C4.44254 17.9879 3.81929 17.0552 3.39407 16.0287C2.96886 15.0023 2.75 13.9021 2.75 12.791C2.75 10.9903 3.32422 9.23652 4.38921 7.78452C5.4542 6.33252 6.95448 5.25696 8.672 4.716Z" fill="black"/>
</g>
<defs>
<clipPath id="clip0_221_14042">
<rect width="24" height="24" fill="white"/>
</clipPath>
</defs>
</svg>
