<svg width="24" height="24" viewBox="0 0 24 24" fill="none" xmlns="http://www.w3.org/2000/svg">
<path fill-rule="evenodd" clip-rule="evenodd" d="M21.166 12.2498C21.244 11.79 21.25 11.1622 21.25 10.0297C21.25 8.11266 21.2485 6.74988 21.1105 5.71785C20.9755 4.70608 20.7205 4.12482 20.2982 3.70181C19.8759 3.2788 19.2954 3.02454 18.2889 2.88954C17.2614 2.75153 15.9068 2.75003 13.9988 2.75003L9.99895 2.75003C8.09316 2.75003 6.73863 2.75153 5.7111 2.88954C4.70458 3.02454 4.12482 3.2788 3.70106 3.70181C3.2788 4.12482 3.02454 4.70458 2.88954 5.7111C2.75079 6.73863 2.75004 8.09316 2.75004 9.9997V14.0003C2.75004 15.9068 2.75154 17.2621 2.88954 18.2904C3.02454 19.2954 3.2788 19.8752 3.70181 20.2982C4.12482 20.7212 4.70458 20.9755 5.7111 21.1105C6.73788 21.2485 8.09316 21.25 9.9997 21.25H10.437C11.973 21.25 12.7013 21.2402 13.2503 21.076V17.9461C13.2503 16.8129 13.2503 15.8881 13.3478 15.1561C13.4513 14.3933 13.6733 13.731 14.2021 13.2023C14.7308 12.6728 15.3923 12.4508 16.1573 12.348C16.8871 12.2498 17.8134 12.2498 18.9474 12.2498H21.166ZM20.3904 13.7498H18.9999C17.7999 13.7498 16.9764 13.752 16.3569 13.8353C15.7591 13.9148 15.4658 14.0588 15.2633 14.2628C15.0601 14.4668 14.9153 14.7593 14.8351 15.3571C14.7518 15.9758 14.7503 16.8001 14.7503 18.0001V20.0199C15.1156 19.6367 15.4741 19.2467 15.8258 18.8499L19.3892 14.8913C19.7304 14.5178 20.0642 14.1375 20.3904 13.7498ZM22.75 10.1752C22.75 11.5597 22.75 12.4553 22.435 13.278C22.1192 14.1008 21.523 14.7631 20.6005 15.7883L20.5044 15.8948L16.9411 19.8534L16.8294 19.9779C15.7643 21.1622 15.0751 21.928 14.1511 22.339C13.227 22.75 12.1973 22.7515 10.605 22.75H9.9442C8.10591 22.75 6.65013 22.75 5.51085 22.597C4.33857 22.4395 3.3898 22.1072 2.64053 21.3595C1.89277 20.6102 1.56051 19.6614 1.40301 18.4892C1.25 17.3491 1.25 15.8941 1.25 14.0558V9.9442C1.25 8.10591 1.25 6.65013 1.40301 5.51085C1.56051 4.33857 1.89277 3.3898 2.64053 2.64053C3.3898 1.89276 4.33857 1.56051 5.51085 1.403C6.65088 1.25 8.10591 1.25 9.9442 1.25L14.055 1.25C15.8933 1.25 17.3491 1.25 18.4884 1.403C19.6599 1.56051 20.6095 1.89276 21.358 2.64053C22.1072 3.39055 22.438 4.34157 22.5962 5.5191C22.7493 6.66288 22.7493 8.12616 22.7493 9.9742V10.176" fill="black"/>
<path fill-rule="evenodd" clip-rule="evenodd" d="M5.5772 9.69614H11.2923C11.7063 9.69614 12.0423 9.36013 12.0423 8.94612C12.0423 8.53211 11.7063 8.19611 11.2923 8.19611H5.5772C5.16319 8.19611 4.82718 8.53211 4.82718 8.94612C4.82718 9.36013 5.16319 9.69614 5.5772 9.69614Z" fill="black"/>
<path fill-rule="evenodd" clip-rule="evenodd" d="M5.5772 12.5478H11.2923C11.7063 12.5478 12.0423 12.2118 12.0423 11.7978C12.0423 11.3838 11.7063 11.0478 11.2923 11.0478H5.5772C5.16319 11.0478 4.82718 11.3838 4.82718 11.7978C4.82718 12.2118 5.16319 12.5478 5.5772 12.5478Z" fill="black"/>
<path fill-rule="evenodd" clip-rule="evenodd" d="M5.5772 6.68045H8.43476C8.84877 6.68045 9.18478 6.34445 9.18478 5.93044C9.18478 5.51643 8.84877 5.18042 8.43476 5.18042H5.5772C5.16319 5.18042 4.82718 5.51643 4.82718 5.93044C4.82718 6.34445 5.16319 6.68045 5.5772 6.68045Z" fill="black"/>
</svg>
