<svg width="24" height="24" viewBox="0 0 24 24" fill="none" xmlns="http://www.w3.org/2000/svg">
<path d="M4.27177 9.55153C4.35502 9.21852 4.65653 8.98302 4.99928 8.98302C5.06079 8.98302 5.12229 8.99052 5.18154 9.00552L9.18213 10.006C9.51514 10.0893 9.75065 10.3908 9.75065 10.7336C9.75065 11.1453 9.41164 11.4843 8.99988 11.4843C8.93838 11.4843 8.87762 11.4768 8.81762 11.4618L4.81778 10.4621C4.48477 10.3788 4.24927 10.0773 4.24927 9.73378C4.24927 9.67228 4.25677 9.61153 4.27177 9.55153ZM5.18154 13.0061C5.12229 12.9911 5.06079 12.9836 5.00003 12.9836C4.58828 12.9836 4.24927 13.3219 4.24927 13.7336C4.24927 14.0771 4.48477 14.3786 4.81778 14.4619L8.81762 15.4617C8.87762 15.4767 8.93838 15.4842 8.99988 15.4842C9.41164 15.4842 9.75065 15.1459 9.75065 14.7342C9.75065 14.3906 9.51514 14.0891 9.18213 14.0059L5.18154 13.0061Z" fill="black"/>
<path d="M19.7267 9.55153C19.6435 9.21852 19.3419 8.98302 18.9992 8.98302C18.9377 8.98302 18.8762 8.99052 18.8169 9.00552L14.8163 10.006C14.4833 10.0893 14.2478 10.3908 14.2478 10.7336C14.2478 11.1453 14.5868 11.4843 14.9986 11.4843C15.0601 11.4843 15.1208 11.4768 15.1809 11.4618L19.1807 10.4621C19.5137 10.3788 19.7492 10.0773 19.7492 9.73378C19.7492 9.67228 19.7417 9.61153 19.7267 9.55153ZM18.8169 13.0061C18.8762 12.9911 18.9377 12.9836 18.9984 12.9836C19.4102 12.9836 19.7492 13.3219 19.7492 13.7336C19.7492 14.0771 19.5137 14.3786 19.1807 14.4619L15.1809 15.4617C15.1208 15.4767 15.0601 15.4842 14.9986 15.4842C14.5868 15.4842 14.2478 15.1459 14.2478 14.7342C14.2478 14.3906 14.4833 14.0891 14.8163 14.0059L18.8169 13.0061Z" fill="black"/>
<path fill-rule="evenodd" clip-rule="evenodd" d="M22.75 5.66645C22.75 4.20391 21.5852 2.94838 20.0559 3.00163C18.9174 3.04139 17.4301 3.15989 16.2848 3.50265C15.2903 3.8004 14.1713 4.38242 13.2983 4.88793C12.4785 5.36044 11.472 5.38294 10.6327 4.94568C9.63669 4.41992 8.32791 3.7959 7.19089 3.4959C6.23087 3.24239 5.01509 3.12089 4.02806 3.05939C2.46953 2.96488 1.25 4.23391 1.25 5.7317V16.8777C1.25 18.4137 2.49353 19.613 3.96806 19.7053C4.92659 19.7653 6.00586 19.8808 6.80763 20.093C7.80065 20.354 9.02768 20.9368 10.02 21.4648C11.2567 22.1226 12.7433 22.1226 13.98 21.4648C14.9708 20.9368 16.1993 20.3548 17.1909 20.093C17.9941 19.8808 19.0734 19.7653 20.0319 19.7053C21.5065 19.613 22.75 18.4137 22.75 16.8777V5.66645ZM20.1084 4.50092C20.7235 4.47992 21.25 4.98543 21.25 5.66645V16.877C21.25 17.5632 20.6822 18.1617 19.9382 18.2082C18.9579 18.2697 17.7594 18.3912 16.8084 18.6417C15.6383 18.9523 14.2831 19.604 13.275 20.1418C13.1063 20.2318 12.9315 20.3023 12.75 20.3533V6.67597C13.2023 6.58597 13.6418 6.42171 14.0498 6.18546C14.9003 5.69345 15.8948 5.18568 16.7154 4.93968C17.6649 4.65542 18.9894 4.53992 20.1084 4.50092ZM11.25 6.70897C10.7895 6.63772 10.344 6.48997 9.9322 6.27246C8.95493 5.7557 7.77065 5.20069 6.80913 4.94643C5.99611 4.73192 4.90183 4.61642 3.93581 4.55642C3.30205 4.51892 2.75003 5.03493 2.75003 5.7317V16.8777C2.75003 17.5632 3.3178 18.1617 4.06182 18.2082C5.04209 18.2697 6.24062 18.3912 7.19164 18.6417C8.36166 18.9523 9.71695 19.604 10.725 20.1418C10.8937 20.2318 11.0685 20.3023 11.25 20.3533V6.70897Z" fill="black"/>
</svg>
