<svg width="24" height="24" viewBox="0 0 24 24" fill="none" xmlns="http://www.w3.org/2000/svg">
<g clip-path="url(#clip0_221_13966)">
<path fill-rule="evenodd" clip-rule="evenodd" d="M6.86 1.24999H6.987C7.338 1.24999 7.564 1.24999 7.785 1.26999C8.73662 1.35894 9.63928 1.7329 10.375 2.34299C10.545 2.48499 10.705 2.64499 10.954 2.89299L11.53 3.46999C12.376 4.31499 12.701 4.63099 13.077 4.83999C13.2957 4.96133 13.5253 5.05666 13.766 5.12599C14.179 5.24299 14.632 5.24999 15.828 5.24999H16.253C17.526 5.24999 18.553 5.24999 19.364 5.35199C20.205 5.45799 20.92 5.68399 21.508 6.21199C21.606 6.30066 21.6993 6.39399 21.788 6.49199C22.317 7.07999 22.542 7.79499 22.648 8.63599C22.75 9.44799 22.75 10.474 22.75 11.747V14.057C22.75 15.894 22.75 17.35 22.597 18.489C22.439 19.661 22.107 20.61 21.359 21.359C20.61 22.107 19.661 22.439 18.489 22.597C17.349 22.75 15.894 22.75 14.056 22.75H9.944C8.106 22.75 6.65 22.75 5.511 22.597C4.339 22.439 3.39 22.107 2.641 21.359C1.893 20.61 1.561 19.661 1.403 18.489C1.25 17.349 1.25 15.894 1.25 14.056V6.85999C1.25 6.06299 1.25 5.55699 1.332 5.11999C1.50884 4.18062 1.96499 3.31645 2.6408 2.64045C3.31662 1.96445 4.18067 1.50808 5.12 1.33099C5.558 1.24899 6.064 1.24899 6.86 1.24899M6.95 2.74899C6.033 2.74899 5.679 2.75199 5.397 2.80499C4.75483 2.92639 4.16417 3.23857 3.70213 3.70078C3.2401 4.163 2.92815 4.75377 2.807 5.39599C2.753 5.67799 2.75 6.03199 2.75 6.94899V14C2.75 15.907 2.752 17.262 2.89 18.29C3.025 19.295 3.279 19.875 3.702 20.298C4.125 20.721 4.705 20.975 5.711 21.11C6.739 21.248 8.093 21.25 10 21.25H14C15.907 21.25 17.262 21.248 18.29 21.11C19.295 20.975 19.875 20.721 20.298 20.298C20.721 19.875 20.975 19.295 21.11 18.289C21.248 17.262 21.25 15.907 21.25 14V11.798C21.25 10.462 21.249 9.53099 21.16 8.82299C21.073 8.13399 20.914 7.76299 20.673 7.49499C20.6204 7.43571 20.5643 7.37961 20.505 7.32699C20.237 7.08599 19.865 6.92699 19.177 6.83999C18.47 6.75099 17.538 6.74999 16.202 6.74999H15.718C14.67 6.74999 13.994 6.74999 13.355 6.56799C13.005 6.46799 12.666 6.32799 12.347 6.15099C11.767 5.82699 11.289 5.34999 10.547 4.60799L10.47 4.52999L9.92 3.97999C9.75941 3.8121 9.59159 3.65128 9.417 3.49799C8.9139 3.08082 8.29671 2.82502 7.646 2.76399C7.41431 2.74923 7.18209 2.74356 6.95 2.74899ZM14.498 11.44C14.6465 11.572 14.7366 11.7576 14.7484 11.956C14.7602 12.1543 14.6928 12.3493 14.561 12.498L11.894 15.498C11.8236 15.5771 11.7373 15.6405 11.6407 15.6839C11.5441 15.7272 11.4394 15.7497 11.3335 15.7497C11.2276 15.7497 11.1229 15.7272 11.0263 15.6839C10.9297 15.6405 10.8434 15.5771 10.773 15.498L9.439 13.998C9.3736 13.9243 9.32335 13.8385 9.29113 13.7454C9.2589 13.6523 9.24532 13.5538 9.25117 13.4554C9.25702 13.3571 9.28219 13.2609 9.32522 13.1723C9.36826 13.0837 9.42833 13.0044 9.502 12.939C9.57567 12.8736 9.6615 12.8233 9.75459 12.7911C9.84768 12.7589 9.94621 12.7453 10.0445 12.7512C10.1429 12.757 10.2391 12.7822 10.3277 12.8252C10.4163 12.8683 10.4956 12.9283 10.561 13.002L11.333 13.872L13.44 11.502C13.5722 11.3536 13.7578 11.2637 13.9562 11.2521C14.1545 11.2405 14.3494 11.3081 14.498 11.44Z" fill="black"/>
</g>
<defs>
<clipPath id="clip0_221_13966">
<rect width="24" height="24" fill="white"/>
</clipPath>
</defs>
</svg>
