<svg width="24" height="24" viewBox="0 0 24 24" fill="none" xmlns="http://www.w3.org/2000/svg">
<g clip-path="url(#clip0_221_14004)">
<path fill-rule="evenodd" clip-rule="evenodd" d="M7.3216 0.913118H7.44812C7.79849 0.913118 8.02384 0.913118 8.24469 0.932584C9.19474 1.02167 10.0954 1.39526 10.8298 2.00392C10.9998 2.14541 11.1592 2.30563 11.4078 2.55268L11.9828 3.12915C12.8272 3.97214 13.1522 4.28808 13.5272 4.49621C13.7458 4.61749 13.9749 4.71257 14.2153 4.78219C14.627 4.89898 15.0792 4.90572 16.2733 4.90572H16.6978C17.9683 4.90572 18.9932 4.90572 19.8033 5.00754C20.6425 5.1131 21.356 5.3392 21.9429 5.86625C22.041 5.95459 22.1338 6.04743 22.2229 6.1455C22.7507 6.73245 22.9753 7.44593 23.0809 8.28592C23.1827 9.09597 23.1827 10.1201 23.1827 11.3914V13.6972C23.1827 15.5307 23.1827 16.9839 23.03 18.1211C22.8728 19.2912 22.5411 20.2383 21.7947 20.9862C21.0468 21.7326 20.0997 22.0643 18.9296 22.2215C17.7916 22.3742 16.3392 22.3742 14.5042 22.3742H10.4001C8.56512 22.3742 7.11197 22.3742 5.97476 22.2215C4.8046 22.0643 3.85755 21.7326 3.10963 20.9862C2.36322 20.2383 2.03156 19.2912 1.87435 18.1211C1.72162 16.9831 1.72162 15.5307 1.72162 13.6957V6.5131C1.72162 5.71727 1.72162 5.21192 1.80322 4.7762C2.16408 2.86113 3.66963 1.35483 5.5847 0.993974C6.02192 0.911621 6.52652 0.911621 7.3216 0.911621M7.41144 2.40894C6.49582 2.40894 6.14246 2.41194 5.86096 2.46509C4.55155 2.7129 3.52289 3.7423 3.27584 5.05171C3.22193 5.33321 3.21894 5.68657 3.21894 6.60144V13.6403C3.21894 15.5434 3.22044 16.8963 3.35819 17.9227C3.49295 18.9259 3.74674 19.5046 4.16899 19.9268C4.59123 20.3491 5.16995 20.6029 6.17465 20.7376C7.20031 20.8754 8.55239 20.8769 10.4555 20.8769H14.4488C16.3519 20.8769 17.7048 20.8754 18.7312 20.7376C19.7344 20.6029 20.3131 20.3491 20.7353 19.9268C21.1576 19.5046 21.4114 18.9259 21.5461 17.9212C21.6839 16.8963 21.6854 15.5434 21.6854 13.6403V11.4423C21.6854 10.1082 21.6846 9.17907 21.5955 8.47234C21.5087 7.78432 21.35 7.41448 21.1097 7.14646C21.0573 7.08732 21.0011 7.03117 20.942 6.97876C20.6747 6.73844 20.3034 6.57973 19.6161 6.49288C18.9109 6.40379 17.9803 6.40304 16.6469 6.40304H16.1633C15.1174 6.40304 14.4428 6.40304 13.805 6.22112C13.4554 6.12155 13.117 5.98155 12.7988 5.80486C12.2193 5.48144 11.7424 5.00529 11.002 4.26487L10.9249 4.18701L10.3761 3.63824C10.2159 3.47054 10.0482 3.30958 9.87378 3.15685C9.37143 2.7406 8.75528 2.4853 8.10619 2.42391C7.87486 2.40969 7.64277 2.40445 7.41144 2.41044" fill="black"/>
<path fill-rule="evenodd" clip-rule="evenodd" d="M12.5638 9.59708L12.4528 9.59399C12.1549 9.59399 11.8827 9.6731 11.5889 9.81588C11.3598 9.92682 11.0928 10.0912 10.762 10.2966L10.0943 10.7106C9.78098 10.9058 9.53033 11.0619 9.33721 11.2098C9.0917 11.3978 8.90783 11.593 8.77121 11.8416C8.63561 12.0881 8.56987 12.349 8.5411 12.6593V12.6603C8.51748 12.9058 8.51645 13.2068 8.51645 13.5838V14.1056C8.51645 14.7456 8.51851 15.25 8.56987 15.6455C8.63458 16.1447 8.78558 16.5412 9.09375 16.8597C9.40604 17.1832 9.79844 17.3425 10.2915 17.4103C10.6757 17.4637 11.1678 17.4657 11.7882 17.4657H13.1175C13.7379 17.4657 14.23 17.4637 14.6142 17.4103C15.1072 17.3425 15.4986 17.1832 15.8119 16.8597C16.1191 16.5412 16.2711 16.1447 16.3358 15.6455C16.3872 15.25 16.3892 14.7456 16.3892 14.1056V13.5838C16.3892 13.2068 16.3882 12.9058 16.3646 12.6603C16.3358 12.3491 16.2701 12.0881 16.1345 11.8416C15.9989 11.593 15.814 11.3978 15.5685 11.2098C15.3753 11.0619 15.1247 10.9058 14.8114 10.7106L14.1437 10.2966C13.8129 10.0912 13.5468 9.92682 13.3178 9.81588C13.061 9.69056 12.8196 9.61455 12.5638 9.59708ZM12.8391 16.0574H13.099C13.6876 16.0574 14.1046 16.0584 14.421 16.0153C14.6059 15.9896 14.721 15.9618 14.799 15.8807C14.8823 15.7944 14.912 15.6681 14.9388 15.4636C14.9809 15.1329 14.9798 14.6973 14.9798 14.0872V13.5961C14.9798 13.2407 14.9809 12.9901 14.9614 12.7918C14.9501 12.6685 14.9357 12.5874 14.8987 12.5185C14.8617 12.4528 14.8042 12.3994 14.7117 12.3285C14.5577 12.2104 14.3512 12.084 14.0574 11.9012L13.4112 11.5006C13.101 11.3085 12.8843 11.1718 12.7014 11.0835L12.7004 11.0825C12.5956 11.0321 12.5247 11.0034 12.4528 11.0034C12.3809 11.0034 12.3101 11.0321 12.2053 11.0825C12.0224 11.1718 11.8046 11.3074 11.4944 11.5006L10.8483 11.9012C10.5545 12.084 10.348 12.2104 10.195 12.3285C10.1939 12.3285 10.1939 12.3285 10.1939 12.3285C10.1015 12.3994 10.0429 12.4528 10.007 12.5185C9.97 12.5874 9.95561 12.6685 9.94431 12.7918C9.92479 12.9901 9.92582 13.2417 9.92582 13.5961V14.0872C9.92582 14.6973 9.92376 15.1329 9.96793 15.4636C9.99361 15.667 10.0234 15.7934 10.1066 15.8797C10.1857 15.9608 10.3008 15.9886 10.4846 16.0153C10.801 16.0584 11.2181 16.0574 11.8067 16.0574H12.0666C11.8755 15.93 11.7481 15.7133 11.7481 15.4688V14.4991C11.7481 14.1128 12.0666 13.7954 12.4528 13.7954C12.8391 13.7954 13.1575 14.1128 13.1575 14.4991V15.4688C13.1575 15.7133 13.0301 15.93 12.8391 16.0574Z" fill="black"/>
</g>
<defs>
<clipPath id="clip0_221_14004">
<rect width="24" height="24" fill="white"/>
</clipPath>
</defs>
</svg>
