<svg width="24" height="24" viewBox="0 0 24 24" fill="none" xmlns="http://www.w3.org/2000/svg">
<path fill-rule="evenodd" clip-rule="evenodd" d="M5.81862 16.2792L5.81762 16.2812L5.31361 17.7932C5.27561 17.9062 5.25661 18.0242 5.25661 18.1432C5.25661 18.7502 5.75562 19.2493 6.36163 19.2493C6.48164 19.2493 6.59964 19.2303 6.71264 19.1923L8.22767 18.6873C8.48768 18.6003 8.66468 18.5412 8.83368 18.4602C9.03769 18.3632 9.22869 18.2452 9.40669 18.1062C9.40769 18.1052 9.40869 18.1042 9.40969 18.1032C9.5757 17.9672 9.7337 17.8202 9.8817 17.6642L13.3358 14.2082C13.7588 13.8032 13.9978 13.2421 13.9978 12.6561C13.9978 11.4771 13.0278 10.5071 11.8487 10.5071C11.2627 10.5071 10.7017 10.7461 10.2967 11.1691L6.86264 14.6042L6.84164 14.6252L6.84264 14.6292L6.84064 14.6262C6.64664 14.8202 6.51464 14.9522 6.39963 15.1002C6.26163 15.2772 6.14263 15.4692 6.04563 15.6732C5.96562 15.8412 5.90563 16.0182 5.81862 16.2792ZM6.97065 17.5872L6.91765 17.5342L7.17465 16.7652C7.26865 16.4832 7.30165 16.3832 7.34465 16.2912C7.39765 16.1822 7.46066 16.0802 7.53466 15.9852C7.59666 15.9052 7.67166 15.8302 7.88167 15.6202L10.1877 13.3141C10.3147 13.5161 10.4637 13.7031 10.6327 13.8722C10.8017 14.0412 10.9887 14.1902 11.1907 14.3162L8.88469 16.6232C8.67468 16.8332 8.59968 16.9072 8.52067 16.9692C8.42467 17.0432 8.32167 17.1072 8.21267 17.1602C8.12167 17.2032 8.02167 17.2362 7.73966 17.3302L6.97065 17.5872ZM12.3178 12.1871C12.1848 12.0541 12.0048 11.9791 11.8167 11.9791C11.6287 11.9791 11.4487 12.0541 11.3157 12.1871L11.2587 12.2431C11.3237 12.4171 11.4407 12.6411 11.6517 12.8531C11.8237 13.0271 12.0338 13.1611 12.2628 13.2451L12.3178 13.1891C12.4508 13.0561 12.5258 12.8761 12.5258 12.6881C12.5258 12.5001 12.4508 12.3201 12.3178 12.1871Z" fill="black"/>
<path fill-rule="evenodd" clip-rule="evenodd" d="M12.2497 2.83403C11.7899 2.75602 11.1622 2.75002 10.0296 2.75002C8.11261 2.75002 6.74984 2.75152 5.71782 2.88953C4.70606 3.02453 4.1248 3.27953 3.70179 3.70179C3.27878 4.12405 3.02453 4.70456 2.88953 5.71107C2.75152 6.73859 2.75002 8.09311 2.75002 10.0011V14.001C2.75002 15.9067 2.75152 17.2613 2.88953 18.2888C3.02453 19.2953 3.27878 19.8751 3.70179 20.2988C4.1248 20.7211 4.70456 20.9753 5.71107 21.1103C6.73859 21.2491 8.09311 21.2498 9.99964 21.2498H14.0002C15.9067 21.2498 17.262 21.2483 18.2903 21.1103C19.2953 20.9753 19.875 20.7211 20.2981 20.2981C20.7211 19.875 20.9753 19.2953 21.1103 18.2888C21.2483 17.262 21.2498 15.9067 21.2498 14.0002V13.5629C21.2498 12.0269 21.2401 11.2987 21.0758 10.7497H17.946C16.8128 10.7497 15.888 10.7497 15.156 10.6522C14.3932 10.5486 13.731 10.3266 13.2022 9.79789C12.6727 9.26913 12.4507 8.60762 12.3479 7.84261C12.2497 7.11284 12.2497 6.18658 12.2497 5.05256V2.83403ZM13.7497 3.60954V5.00006C13.7497 6.20008 13.752 7.02359 13.8352 7.6431C13.9147 8.24086 14.0587 8.53412 14.2627 8.73662C14.4667 8.93987 14.7592 9.08463 15.357 9.16488C15.9757 9.24813 16.8 9.24963 18 9.24963H20.0198C19.6365 8.88437 19.2465 8.52587 18.8498 8.17411L14.8912 4.6108C14.5177 4.26955 14.1375 3.93579 13.7497 3.60954ZM10.1751 1.25C11.5597 1.25 12.4552 1.25 13.2779 1.565C14.1007 1.88076 14.763 2.47702 15.7882 3.39953L15.8947 3.49554L19.8533 7.05884L19.9778 7.1706C21.1621 8.23561 21.9278 8.92487 22.3388 9.84889C22.7498 10.7729 22.7513 11.8027 22.7498 13.3949V14.0557C22.7498 15.894 22.7498 17.3498 22.5968 18.489C22.4393 19.6613 22.1071 20.6101 21.3593 21.3593C20.6101 22.1071 19.6613 22.4393 18.489 22.5968C17.349 22.7498 15.894 22.7498 14.0557 22.7498H9.94414C8.10586 22.7498 6.65009 22.7498 5.51082 22.5968C4.33855 22.4393 3.38978 22.1071 2.64052 21.3593C1.89276 20.6101 1.56051 19.6613 1.403 18.489C1.25 17.349 1.25 15.894 1.25 14.0557V9.94489C1.25 8.10661 1.25 6.65084 1.403 5.51157C1.56051 4.34005 1.89276 3.39053 2.64052 2.64202C3.39053 1.89276 4.34155 1.562 5.51907 1.40375C6.66284 1.25075 8.12611 1.25075 9.97414 1.25075H10.1759" fill="black"/>
</svg>
