<svg width="24" height="24" viewBox="0 0 24 24" fill="none" xmlns="http://www.w3.org/2000/svg">
<g clip-path="url(#clip0_221_13911)">
<path fill-rule="evenodd" clip-rule="evenodd" d="M9.96306 1.2778H14.0683C15.4348 1.2778 16.5352 1.2778 17.4012 1.39467C18.3002 1.51453 19.0576 1.77373 19.6591 2.37454C20.2599 2.97535 20.5176 3.73272 20.6398 4.63169C20.7559 5.49769 20.7559 6.59967 20.7559 7.9646V16.0658C20.7559 17.4307 20.7559 18.5327 20.6398 19.3987C20.5191 20.2976 20.2599 21.055 19.6591 21.6558C19.0576 22.2574 18.3002 22.5151 17.4012 22.6372C16.5352 22.7526 15.434 22.7526 14.0683 22.7526H9.96306C8.59738 22.7526 7.49615 22.7526 6.63015 22.6372C5.73118 22.5151 4.97381 22.2574 4.37225 21.6558C3.77144 21.055 3.51374 20.2976 3.39238 19.3987C3.35267 19.0855 3.32571 18.7717 3.31072 18.457C3.27102 18.3297 3.26503 18.1948 3.29499 18.0652C3.27851 17.3985 3.27177 16.7325 3.27551 16.0658V7.9646C3.27551 6.59967 3.27551 5.49769 3.39238 4.63169C3.51224 3.73272 3.77219 2.97535 4.37375 2.37454C4.97381 1.77298 5.73193 1.51528 6.6309 1.39467C7.49615 1.2778 8.59738 1.2778 9.96306 1.2778ZM4.80076 18.2577C4.81574 18.6106 4.83971 18.9215 4.87717 19.1987C4.97605 19.9321 5.1566 20.3194 5.43228 20.5965C5.70871 20.873 6.09751 21.0528 6.83092 21.1517C7.58455 21.2528 8.58465 21.2543 10.0177 21.2543H14.0136C15.4475 21.2543 16.4476 21.2528 17.202 21.1517C17.9346 21.0528 18.3227 20.8722 18.5999 20.5965C18.8755 20.3194 19.0553 19.9321 19.1542 19.1979C19.2374 18.5836 19.2546 17.8045 19.2561 16.7595H7.91866C6.94179 16.7595 6.60018 16.7655 6.33798 16.8366C5.62331 17.0277 5.04722 17.5595 4.80001 18.257M19.2561 15.2604V8.02003C19.2561 6.58619 19.2554 5.58534 19.1535 4.83171C19.0546 4.0983 18.874 3.711 18.5984 3.43382C18.3212 3.15739 17.9339 2.97759 17.2005 2.87871C16.4468 2.77757 15.4467 2.77608 14.0121 2.77608H10.017C9.10979 2.77608 8.37714 2.77608 7.76959 2.80304V15.2612L19.2561 15.2604ZM6.27131 15.3211C6.15969 15.3384 6.05181 15.3608 5.94843 15.3885C5.52817 15.5017 5.13038 15.6875 4.77304 15.9354V8.02003C4.77304 6.58619 4.77529 5.58534 4.87567 4.83171C4.97456 4.0983 5.15585 3.711 5.43153 3.43382C5.6278 3.23829 5.88101 3.09071 6.27131 2.98583V15.3211Z" fill="black"/>
<path fill-rule="evenodd" clip-rule="evenodd" d="M13.6282 5.58401L13.594 5.5831C13.2572 5.5831 12.9748 5.8387 12.9333 6.16536C12.1056 6.40528 11.4606 7.08352 11.4606 7.96107C11.4606 9.06286 12.4821 9.85091 13.594 9.85091C14.0656 9.85091 14.395 10.1185 14.395 10.4073C14.395 10.6962 14.0656 10.9629 13.594 10.9629C13.1234 10.9629 12.794 10.6962 12.794 10.4073C12.794 10.041 12.4932 9.74017 12.1268 9.74017C11.7614 9.74017 11.4606 10.041 11.4606 10.4073C11.4606 11.2849 12.1056 11.9631 12.9333 12.203C12.9748 12.5297 13.2572 12.7862 13.594 12.7862C13.9317 12.7862 14.2141 12.5297 14.2556 12.203C15.0834 11.9631 15.7284 11.2849 15.7284 10.4073C15.7284 9.30555 14.7069 8.5175 13.594 8.5175C13.1234 8.5175 12.794 8.2499 12.794 7.96107C12.794 7.67317 13.1234 7.40556 13.594 7.40556C14.0656 7.40556 14.395 7.67317 14.395 7.96107C14.395 8.32741 14.6958 8.62824 15.0621 8.62824C15.4276 8.62824 15.7284 8.32741 15.7284 7.96107C15.7284 7.08352 15.0834 6.40528 14.2556 6.16536C14.216 5.84978 13.9511 5.5997 13.6282 5.58401Z" fill="black"/>
</g>
<defs>
<clipPath id="clip0_221_13911">
<rect width="24" height="24" fill="white"/>
</clipPath>
</defs>
</svg>
