<svg width="24" height="24" viewBox="0 0 24 24" fill="none" xmlns="http://www.w3.org/2000/svg">
<g clip-path="url(#clip0_221_13918)">
<path fill-rule="evenodd" clip-rule="evenodd" d="M18.372 3.03C17.9438 2.8648 17.4777 2.82322 17.027 2.91L16.75 2.963V4.618C17.474 4.47988 18.2222 4.54708 18.91 4.812C19.338 4.977 19.802 5.018 20.25 4.932V3.275C19.6415 3.35402 19.023 3.28048 18.45 3.061L18.372 3.03ZM16.75 6.145L17.027 6.091C17.4777 6.00422 17.9438 6.0458 18.372 6.211C19.1196 6.49885 19.9371 6.55256 20.716 6.365L20.783 6.349C21.35 6.213 21.75 5.705 21.75 5.121V2.901C21.75 2.131 21.03 1.565 20.282 1.745C19.853 1.848 19.402 1.819 18.99 1.66L18.91 1.63C18.2203 1.36428 17.4698 1.29741 16.744 1.437L16.258 1.53C15.9742 1.58406 15.7181 1.73554 15.5341 1.95829C15.35 2.18104 15.2496 2.46106 15.25 2.75V6.25H7C6.95445 6.2509 6.90901 6.25491 6.864 6.262C6.14557 6.21207 5.42456 6.31048 4.74579 6.55111C4.06702 6.79174 3.44502 7.16945 2.91846 7.66074C2.39191 8.15203 1.97206 8.7464 1.68502 9.40688C1.39799 10.0674 1.24991 10.7798 1.25 11.5V16.767C1.25 17.5581 1.56428 18.3169 2.1237 18.8763C2.4007 19.1533 2.72954 19.373 3.09146 19.5229C3.45337 19.6728 3.84127 19.75 4.233 19.75H9.75V22C9.75 22.1989 9.82902 22.3897 9.96967 22.5303C10.1103 22.671 10.3011 22.75 10.5 22.75C10.6989 22.75 10.8897 22.671 11.0303 22.5303C11.171 22.3897 11.25 22.1989 11.25 22V19.75H13.75V22C13.75 22.1989 13.829 22.3897 13.9697 22.5303C14.1103 22.671 14.3011 22.75 14.5 22.75C14.6989 22.75 14.8897 22.671 15.0303 22.5303C15.171 22.3897 15.25 22.1989 15.25 22V19.75H19.793C20.1813 19.75 20.5658 19.6735 20.9246 19.5249C21.2834 19.3763 21.6093 19.1585 21.8839 18.8839C22.1585 18.6093 22.3763 18.2834 22.5249 17.9246C22.6735 17.5658 22.75 17.1813 22.75 16.793V11.5C22.75 8.6 20.4 6.25 17.5 6.25H16.75V6.145ZM15.25 7.749V11C15.25 11.1989 15.329 11.3897 15.4697 11.5303C15.6103 11.671 15.8011 11.75 16 11.75C16.1989 11.75 16.3897 11.671 16.5303 11.5303C16.671 11.3897 16.75 11.1989 16.75 11V7.75H17.5C18.4946 7.75 19.4484 8.14509 20.1517 8.84835C20.8549 9.55161 21.25 10.5054 21.25 11.5V16.793C21.25 17.597 20.598 18.25 19.793 18.25H11.75V11.5C11.75 10.03 11.147 8.702 10.174 7.75L15.25 7.749ZM10.25 18.249V11.5C10.25 10.5054 9.85491 9.55161 9.15165 8.84835C8.44839 8.14509 7.49456 7.75 6.5 7.75C5.50544 7.75 4.55161 8.14509 3.84835 8.84835C3.14509 9.55161 2.75 10.5054 2.75 11.5V16.767C2.75 17.586 3.414 18.25 4.233 18.25L10.25 18.249ZM4.25 15.999C4.25 15.8001 4.32902 15.6093 4.46967 15.4687C4.61032 15.328 4.80109 15.249 5 15.249H8C8.19891 15.249 8.38968 15.328 8.53033 15.4687C8.67098 15.6093 8.75 15.8001 8.75 15.999C8.75 16.1979 8.67098 16.3887 8.53033 16.5293C8.38968 16.67 8.19891 16.749 8 16.749H5C4.80109 16.749 4.61032 16.67 4.46967 16.5293C4.32902 16.3887 4.25 16.1979 4.25 15.999Z" fill="black"/>
</g>
<defs>
<clipPath id="clip0_221_13918">
<rect width="24" height="24" fill="white"/>
</clipPath>
</defs>
</svg>
