<svg width="24" height="24" viewBox="0 0 24 24" fill="none" xmlns="http://www.w3.org/2000/svg">
<g clip-path="url(#clip0_221_13785)">
<path fill-rule="evenodd" clip-rule="evenodd" d="M8.945 1.25H15.055C16.422 1.25 17.525 1.25 18.392 1.367C19.292 1.487 20.05 1.747 20.652 2.348C21.254 2.95 21.512 3.708 21.634 4.608C21.75 5.475 21.75 6.578 21.75 7.945V16.055C21.75 17.422 21.75 18.525 21.634 19.392C21.512 20.292 21.254 21.05 20.652 21.652C20.05 22.254 19.292 22.512 18.392 22.634C17.525 22.75 16.422 22.75 15.055 22.75H8.945L8.046 22.749C8.01269 22.7507 7.97931 22.7507 7.946 22.749C7.028 22.742 6.253 22.72 5.608 22.634C4.708 22.512 3.95 22.254 3.348 21.652C2.746 21.05 2.488 20.292 2.367 19.392C2.27 18.677 2.254 17.802 2.251 16.75H2C1.80109 16.75 1.61032 16.671 1.46967 16.5303C1.32902 16.3897 1.25 16.1989 1.25 16C1.25 15.8011 1.32902 15.6103 1.46967 15.4697C1.61032 15.329 1.80109 15.25 2 15.25H2.25V12.75H2C1.80109 12.75 1.61032 12.671 1.46967 12.5303C1.32902 12.3897 1.25 12.1989 1.25 12C1.25 11.8011 1.32902 11.6103 1.46967 11.4697C1.61032 11.329 1.80109 11.25 2 11.25H2.25V8.75H2C1.80109 8.75 1.61032 8.67098 1.46967 8.53033C1.32902 8.38968 1.25 8.19891 1.25 8C1.25 7.80109 1.32902 7.61032 1.46967 7.46967C1.61032 7.32902 1.80109 7.25 2 7.25H2.25C2.254 6.198 2.27 5.323 2.367 4.608C2.487 3.708 2.747 2.95 3.348 2.348C3.95 1.746 4.708 1.488 5.608 1.367C6.475 1.25 7.578 1.25 8.945 1.25ZM3.75 8.75H4C4.19891 8.75 4.38968 8.67098 4.53033 8.53033C4.67098 8.38968 4.75 8.19891 4.75 8C4.75 7.80109 4.67098 7.61032 4.53033 7.46967C4.38968 7.32902 4.19891 7.25 4 7.25H3.75C3.754 6.204 3.77 5.424 3.853 4.808C3.952 4.074 4.133 3.686 4.409 3.409C4.686 3.132 5.074 2.952 5.809 2.853C6.209 2.799 6.681 2.773 7.25 2.761V21.24C6.768 21.2361 6.28659 21.2054 5.808 21.148C5.074 21.049 4.686 20.868 4.409 20.592C4.132 20.315 3.952 19.927 3.853 19.192C3.77 18.577 3.754 17.797 3.751 16.751H4C4.19891 16.751 4.38968 16.672 4.53033 16.5313C4.67098 16.3907 4.75 16.1999 4.75 16.001C4.75 15.8021 4.67098 15.6113 4.53033 15.4707C4.38968 15.33 4.19891 15.251 4 15.251H3.75V12.751H4C4.19891 12.751 4.38968 12.672 4.53033 12.5313C4.67098 12.3907 4.75 12.1999 4.75 12.001C4.75 11.8021 4.67098 11.6113 4.53033 11.4707C4.38968 11.33 4.19891 11.251 4 11.251H3.75V8.75ZM8.75 21.25H15C16.435 21.25 17.436 21.248 18.192 21.147C18.926 21.048 19.314 20.867 19.591 20.591C19.868 20.314 20.048 19.926 20.147 19.191C20.248 18.436 20.25 17.435 20.25 16V8C20.25 6.565 20.248 5.563 20.147 4.808C20.048 4.074 19.867 3.686 19.591 3.409C19.314 3.132 18.926 2.952 18.191 2.853C17.436 2.752 16.435 2.75 15 2.75H8.75V21.25ZM10.75 6.5C10.75 6.30109 10.829 6.11032 10.9697 5.96967C11.1103 5.82902 11.3011 5.75 11.5 5.75H16.5C16.6989 5.75 16.8897 5.82902 17.0303 5.96967C17.171 6.11032 17.25 6.30109 17.25 6.5C17.25 6.69891 17.171 6.88968 17.0303 7.03033C16.8897 7.17098 16.6989 7.25 16.5 7.25H11.5C11.3011 7.25 11.1103 7.17098 10.9697 7.03033C10.829 6.88968 10.75 6.69891 10.75 6.5ZM10.75 10C10.75 9.80109 10.829 9.61032 10.9697 9.46967C11.1103 9.32902 11.3011 9.25 11.5 9.25H16.5C16.6989 9.25 16.8897 9.32902 17.0303 9.46967C17.171 9.61032 17.25 9.80109 17.25 10C17.25 10.1989 17.171 10.3897 17.0303 10.5303C16.8897 10.671 16.6989 10.75 16.5 10.75H11.5C11.3011 10.75 11.1103 10.671 10.9697 10.5303C10.829 10.3897 10.75 10.1989 10.75 10Z" fill="black"/>
</g>
<defs>
<clipPath id="clip0_221_13785">
<rect width="24" height="24" fill="white"/>
</clipPath>
</defs>
</svg>
