<svg width="24" height="24" viewBox="0 0 24 24" fill="none" xmlns="http://www.w3.org/2000/svg">
<g clip-path="url(#clip0_221_14048)">
<path fill-rule="evenodd" clip-rule="evenodd" d="M1.25 2C1.25 1.80109 1.32902 1.61032 1.46967 1.46967C1.61032 1.32902 1.80109 1.25 2 1.25H22C22.1989 1.25 22.3897 1.32902 22.5303 1.46967C22.671 1.61032 22.75 1.80109 22.75 2C22.75 2.19891 22.671 2.38968 22.5303 2.53033C22.3897 2.67098 22.1989 2.75 22 2.75H20.75V10.558C20.75 12.041 20.75 13.234 20.617 14.172C20.479 15.147 20.183 15.956 19.512 16.592C18.846 17.224 18.009 17.496 17 17.625C16.019 17.75 14.767 17.75 13.196 17.75H12.75V20.537L14.335 21.329C14.4239 21.3725 14.5033 21.4332 14.5686 21.5076C14.634 21.5819 14.6839 21.6685 14.7157 21.7622C14.7474 21.856 14.7602 21.9551 14.7535 22.0539C14.7467 22.1526 14.7205 22.2491 14.6762 22.3376C14.632 22.4262 14.5707 22.5051 14.4959 22.5699C14.421 22.6346 14.3341 22.6839 14.24 22.7149C14.146 22.7459 14.0468 22.758 13.9481 22.7504C13.8494 22.7429 13.7532 22.7159 13.665 22.671L12 21.839L10.335 22.671C10.2468 22.7159 10.1506 22.7429 10.0519 22.7504C9.95317 22.758 9.85396 22.7459 9.75996 22.7149C9.66595 22.6839 9.57901 22.6346 9.50415 22.5699C9.42928 22.5051 9.36798 22.4262 9.32376 22.3376C9.27955 22.2491 9.2533 22.1526 9.24654 22.0539C9.23977 21.9551 9.25262 21.856 9.28434 21.7622C9.31606 21.6685 9.36603 21.5819 9.43136 21.5076C9.4967 21.4332 9.5761 21.3725 9.665 21.329L11.25 20.536V17.75H10.804C9.233 17.75 7.981 17.75 7 17.625C5.99 17.496 5.154 17.224 4.488 16.592C3.817 15.956 3.521 15.147 3.383 14.172C3.25 13.234 3.25 12.041 3.25 10.558V2.75H2C1.80109 2.75 1.61032 2.67098 1.46967 2.53033C1.32902 2.38968 1.25 2.19891 1.25 2ZM4.75 2.75V10.5C4.75 12.054 4.752 13.14 4.868 13.96C4.981 14.755 5.188 15.188 5.52 15.504C5.858 15.824 6.332 16.028 7.19 16.137C8.065 16.249 9.22 16.25 10.857 16.25H13.143C14.779 16.25 15.935 16.249 16.81 16.137C17.668 16.027 18.142 15.824 18.48 15.504C18.812 15.188 19.02 14.755 19.132 13.961C19.248 13.141 19.25 12.054 19.25 10.5V2.75H4.75ZM15.53 7.97C15.6705 8.11063 15.7493 8.30125 15.7493 8.5C15.7493 8.69875 15.6705 8.88937 15.53 9.03L14.237 10.323L14.213 10.348C14.071 10.4958 13.9201 10.6347 13.761 10.764C13.5457 10.9396 13.2778 11.0379 13 11.043C12.7222 11.0379 12.4543 10.9396 12.239 10.764C12.0799 10.6347 11.929 10.4958 11.787 10.348L11.763 10.323L11.177 9.737L11 9.562L10.823 9.737L9.53 11.03C9.46134 11.1037 9.37854 11.1628 9.28654 11.2038C9.19454 11.2448 9.09522 11.2668 8.99452 11.2686C8.89382 11.2704 8.79379 11.2518 8.7004 11.2141C8.60701 11.1764 8.52218 11.1203 8.45096 11.049C8.37974 10.9778 8.3236 10.893 8.28588 10.7996C8.24816 10.7062 8.22963 10.6062 8.23141 10.5055C8.23318 10.4048 8.25523 10.3055 8.29622 10.2135C8.33721 10.1215 8.39631 10.0387 8.47 9.97L9.763 8.677L9.787 8.652C9.932 8.507 10.089 8.35 10.239 8.236C10.4543 8.06038 10.7222 7.96213 11 7.957C11.334 7.957 11.585 8.102 11.761 8.236C11.911 8.35 12.068 8.507 12.213 8.652L12.237 8.677L12.823 9.263L13 9.438L13.177 9.263L14.47 7.97C14.6106 7.82955 14.8012 7.75066 15 7.75066C15.1988 7.75066 15.3894 7.82955 15.53 7.97Z" fill="black"/>
</g>
<defs>
<clipPath id="clip0_221_14048">
<rect width="24" height="24" fill="white"/>
</clipPath>
</defs>
</svg>
