<svg width="24" height="24" viewBox="0 0 24 24" fill="none" xmlns="http://www.w3.org/2000/svg">
<g clip-path="url(#clip0_221_14125)">
<path fill-rule="evenodd" clip-rule="evenodd" d="M3.955 2.25H20.045C20.478 2.25 20.875 2.25 21.197 2.293C21.553 2.341 21.928 2.453 22.237 2.763C22.546 3.073 22.659 3.447 22.707 3.803C22.75 4.126 22.75 4.523 22.75 4.955V5.045C22.75 5.478 22.75 5.875 22.707 6.197C22.659 6.553 22.547 6.928 22.237 7.237C21.944 7.531 21.59 7.647 21.25 7.699V13.056C21.25 14.894 21.25 16.35 21.097 17.489C20.939 18.661 20.607 19.61 19.859 20.359C19.11 21.107 18.161 21.439 16.989 21.597C15.849 21.75 14.394 21.75 12.556 21.75H11.444C9.606 21.75 8.15 21.75 7.011 21.597C5.839 21.439 4.89 21.107 4.141 20.359C3.393 19.61 3.061 18.661 2.903 17.489C2.75 16.349 2.75 14.894 2.75 13.056V7.7C2.41 7.648 2.056 7.532 1.763 7.238C1.453 6.929 1.341 6.554 1.293 6.198C1.25 5.875 1.25 5.478 1.25 5.046V4.956C1.25 4.523 1.25 4.126 1.293 3.804C1.341 3.448 1.453 3.073 1.763 2.764C2.073 2.455 2.447 2.342 2.803 2.294C3.126 2.251 3.523 2.25 3.955 2.25ZM4.25 7.751V13C4.25 14.907 4.252 16.262 4.39 17.29C4.525 18.295 4.779 18.875 5.202 19.298C5.625 19.721 6.205 19.975 7.211 20.11C8.239 20.248 9.593 20.25 11.5 20.25H12.5C14.407 20.25 15.762 20.248 16.79 20.11C17.795 19.975 18.375 19.721 18.798 19.298C19.221 18.875 19.475 18.295 19.61 17.289C19.748 16.262 19.75 14.907 19.75 13V7.75H12.75V14.046L14.443 12.165C14.5781 12.0255 14.762 11.9439 14.9561 11.9373C15.1502 11.9306 15.3392 11.9995 15.4835 12.1295C15.6278 12.2594 15.7161 12.4402 15.7298 12.6339C15.7435 12.8276 15.6816 13.0191 15.557 13.168L12.557 16.502C12.4867 16.58 12.4008 16.6423 12.3048 16.685C12.2089 16.7277 12.105 16.7498 12 16.7498C11.895 16.7498 11.7911 16.7277 11.6952 16.685C11.5992 16.6423 11.5133 16.58 11.443 16.502L8.443 13.168C8.31843 13.0191 8.25648 12.8276 8.27018 12.6339C8.28388 12.4402 8.37217 12.2594 8.51647 12.1295C8.66078 11.9995 8.84985 11.9306 9.04391 11.9373C9.23797 11.9439 9.4219 12.0255 9.557 12.165L11.25 14.045V7.75L4.25 7.751ZM20 6.25C20.493 6.25 20.787 6.248 20.997 6.22C21.0576 6.21376 21.1171 6.19964 21.174 6.178L21.177 6.177L21.178 6.174L21.183 6.164C21.2021 6.11006 21.2145 6.05397 21.22 5.997C21.248 5.787 21.25 5.493 21.25 5C21.25 4.507 21.248 4.213 21.22 4.003C21.2138 3.94242 21.1996 3.88292 21.178 3.826L21.177 3.823L21.174 3.822L21.164 3.817C21.1101 3.79789 21.054 3.78546 20.997 3.78C20.787 3.752 20.493 3.75 20 3.75H4C3.507 3.75 3.213 3.752 3.003 3.78C2.94242 3.78624 2.88292 3.80036 2.826 3.822L2.823 3.823L2.822 3.826L2.817 3.836C2.79789 3.88994 2.78546 3.94603 2.78 4.003C2.752 4.213 2.75 4.507 2.75 5C2.75 5.493 2.752 5.787 2.78 5.997C2.78624 6.05758 2.80036 6.11708 2.822 6.174L2.823 6.177L2.826 6.178L2.836 6.183C2.858 6.192 2.906 6.207 3.003 6.22C3.213 6.248 3.507 6.25 4 6.25H20Z" fill="black"/>
</g>
<defs>
<clipPath id="clip0_221_14125">
<rect width="24" height="24" fill="white"/>
</clipPath>
</defs>
</svg>
