<svg width="24" height="24" viewBox="0 0 24 24" fill="none" xmlns="http://www.w3.org/2000/svg">
<g clip-path="url(#clip0_221_14017)">
<path d="M12.554 16.506C12.4837 16.5829 12.3982 16.6442 12.3029 16.6862C12.2076 16.7282 12.1046 16.7499 12.0005 16.7499C11.8964 16.7499 11.7934 16.7282 11.6981 16.6862C11.6028 16.6442 11.5173 16.5829 11.447 16.506L7.44699 12.131C7.31593 11.9837 7.24814 11.7907 7.25829 11.5938C7.26844 11.3969 7.35573 11.2119 7.50125 11.0789C7.64677 10.9459 7.83882 10.8755 8.03585 10.883C8.23287 10.8905 8.41901 10.9753 8.55399 11.119L11.25 14.069V3C11.25 2.80109 11.329 2.61032 11.4697 2.46967C11.6103 2.32902 11.8011 2.25 12 2.25C12.1989 2.25 12.3897 2.32902 12.5303 2.46967C12.671 2.61032 12.75 2.80109 12.75 3V14.068L15.447 11.118C15.5813 10.9712 15.7685 10.8838 15.9673 10.875C16.166 10.8662 16.3602 10.9367 16.507 11.071C16.6538 11.2053 16.7412 11.3925 16.75 11.5913C16.7588 11.7901 16.6883 11.9842 16.554 12.131L12.554 16.506Z" fill="black"/>
<path d="M3.75 15C3.75 14.8011 3.67098 14.6103 3.53033 14.4697C3.38968 14.329 3.19891 14.25 3 14.25C2.80109 14.25 2.61032 14.329 2.46967 14.4697C2.32902 14.6103 2.25 14.8011 2.25 15V15.055C2.25 16.422 2.25 17.525 2.367 18.392C2.487 19.292 2.747 20.05 3.348 20.652C3.95 21.254 4.708 21.512 5.608 21.634C6.475 21.75 7.578 21.75 8.945 21.75H15.055C16.422 21.75 17.525 21.75 18.392 21.634C19.292 21.512 20.05 21.254 20.652 20.652C21.254 20.05 21.512 19.292 21.634 18.392C21.75 17.525 21.75 16.422 21.75 15.055V15C21.75 14.8011 21.671 14.6103 21.5303 14.4697C21.3897 14.329 21.1989 14.25 21 14.25C20.8011 14.25 20.6103 14.329 20.4697 14.4697C20.329 14.6103 20.25 14.8011 20.25 15C20.25 16.435 20.248 17.436 20.147 18.192C20.048 18.926 19.867 19.314 19.591 19.591C19.314 19.868 18.926 20.048 18.191 20.147C17.436 20.248 16.435 20.25 15 20.25H9C7.565 20.25 6.563 20.248 5.808 20.147C5.074 20.048 4.686 19.867 4.409 19.591C4.132 19.314 3.952 18.926 3.853 18.191C3.752 17.436 3.75 16.435 3.75 15Z" fill="black"/>
</g>
<defs>
<clipPath id="clip0_221_14017">
<rect width="24" height="24" fill="white"/>
</clipPath>
</defs>
</svg>
