<svg width="24" height="24" viewBox="0 0 24 24" fill="none" xmlns="http://www.w3.org/2000/svg">
<g clip-path="url(#clip0_221_14104)">
<path fill-rule="evenodd" clip-rule="evenodd" d="M7.263 3.259C7.32245 2.70719 7.58374 2.19683 7.99666 1.82599C8.40959 1.45515 8.945 1.25001 9.5 1.25H14.5C15.055 1.25001 15.5904 1.45515 16.0033 1.82599C16.4163 2.19683 16.6776 2.70719 16.737 3.259C17.5 3.274 18.16 3.314 18.724 3.417C19.482 3.557 20.127 3.822 20.652 4.347C21.254 4.949 21.512 5.707 21.634 6.607C21.75 7.473 21.75 8.576 21.75 9.943V16.053C21.75 17.421 21.75 18.523 21.634 19.39C21.512 20.29 21.254 21.048 20.652 21.65C20.05 22.252 19.292 22.51 18.392 22.632C17.525 22.748 16.422 22.748 15.055 22.748H8.945C7.578 22.748 6.475 22.748 5.608 22.632C4.708 22.511 3.95 22.252 3.348 21.65C2.746 21.048 2.488 20.29 2.367 19.39C2.25 18.523 2.25 17.42 2.25 16.053V9.943C2.25 8.576 2.25 7.473 2.367 6.607C2.487 5.707 2.747 4.949 3.348 4.347C3.873 3.822 4.518 3.557 5.276 3.417C5.84 3.314 6.5 3.274 7.263 3.259ZM7.265 4.759C6.547 4.774 5.993 4.811 5.547 4.893C4.981 4.997 4.652 5.163 4.409 5.407C4.132 5.684 3.952 6.073 3.853 6.807C3.752 7.562 3.75 8.563 3.75 9.998V15.998C3.75 17.434 3.752 18.435 3.853 19.19C3.952 19.924 4.133 20.312 4.409 20.59C4.686 20.866 5.074 21.047 5.809 21.145C6.563 21.247 7.565 21.248 9 21.248H15C16.435 21.248 17.436 21.247 18.192 21.145C18.926 21.047 19.314 20.866 19.591 20.589C19.868 20.313 20.048 19.924 20.147 19.19C20.248 18.435 20.25 17.434 20.25 15.998V9.998C20.25 8.563 20.248 7.562 20.147 6.806C20.048 6.073 19.867 5.684 19.591 5.407C19.347 5.164 19.019 4.997 18.453 4.893C18.007 4.811 17.453 4.774 16.735 4.759C16.6715 5.30721 16.4087 5.81296 15.9966 6.18005C15.5845 6.54715 15.0519 6.74999 14.5 6.75H9.5C8.94827 6.75002 8.41577 6.54732 8.00371 6.18043C7.59165 5.81354 7.32875 5.30803 7.265 4.76M9.5 2.75C9.30109 2.75 9.11032 2.82902 8.96967 2.96967C8.82902 3.11032 8.75 3.30109 8.75 3.5V4.5C8.75 4.914 9.086 5.25 9.5 5.25H14.5C14.6989 5.25 14.8897 5.17098 15.0303 5.03033C15.171 4.88968 15.25 4.69891 15.25 4.5V3.5C15.25 3.30109 15.171 3.11032 15.0303 2.96967C14.8897 2.82902 14.6989 2.75 14.5 2.75H9.5Z" fill="black"/>
<path fill-rule="evenodd" clip-rule="evenodd" d="M11.8274 9C11.9534 9 11.9744 9 11.8364 9C11.9994 9 12.1354 9.001 12.2464 9.008C12.3854 9.018 12.5174 9.04002 12.6444 9.09302C12.9424 9.21602 13.1794 9.45301 13.3024 9.75101C13.3654 9.90201 13.3854 10.06 13.3924 10.232C13.3924 10.234 13.3924 10.236 13.3924 10.238C13.3924 10.255 13.4004 10.271 13.4164 10.283C13.4314 10.288 13.4484 10.286 13.4624 10.279C13.4634 10.278 13.4654 10.277 13.4664 10.276C13.6194 10.195 13.7664 10.134 13.9274 10.112C13.9284 10.112 13.9284 10.112 13.9284 10.112C14.2484 10.07 14.5714 10.157 14.8274 10.354C14.8294 10.355 14.8304 10.356 14.8314 10.357C14.9384 10.442 15.0304 10.545 15.1024 10.659L15.3134 11.009C15.3354 11.048 15.3654 11.097 15.3194 11.02C15.3884 11.137 15.4554 11.256 15.5164 11.375C15.5804 11.497 15.6234 11.628 15.6444 11.763C15.6444 11.765 15.6444 11.767 15.6444 11.769C15.6864 12.088 15.6004 12.412 15.4034 12.668C15.3044 12.797 15.1774 12.894 15.0324 12.985L15.0314 12.986C15.0154 12.996 15.0004 13.01 14.9994 13.028C15.0014 13.045 15.0114 13.06 15.0264 13.069C15.0284 13.07 15.0304 13.071 15.0324 13.073C15.1774 13.164 15.3044 13.261 15.4034 13.39C15.6004 13.646 15.6864 13.97 15.6444 14.289C15.6274 14.426 15.5804 14.55 15.5194 14.676C15.4704 14.777 15.4024 14.895 15.3204 15.036L15.3124 15.051L15.0994 15.403C15.0224 15.518 14.9374 15.621 14.8274 15.705C14.5714 15.901 14.2484 15.988 13.9284 15.946C13.7674 15.924 13.6204 15.863 13.4674 15.782C13.4654 15.781 13.4634 15.78 13.4614 15.779C13.4474 15.771 13.4294 15.77 13.4114 15.778C13.3994 15.788 13.3924 15.803 13.3924 15.819C13.3924 15.822 13.3924 15.824 13.3924 15.826C13.3854 15.999 13.3654 16.157 13.3034 16.306C13.3034 16.307 13.3034 16.307 13.3034 16.307C13.1794 16.604 12.9424 16.841 12.6444 16.965C12.5174 17.018 12.3864 17.04 12.2474 17.05L11.8364 17.058L11.4084 17.05C11.2694 17.04 11.1374 17.018 11.0104 16.965C10.7124 16.842 10.4754 16.605 10.3524 16.307C10.2894 16.157 10.2694 15.998 10.2634 15.826C10.2634 15.823 10.2624 15.821 10.2624 15.818C10.2624 15.802 10.2554 15.787 10.2384 15.775C10.2234 15.77 10.2074 15.772 10.1934 15.779C10.1914 15.78 10.1894 15.781 10.1884 15.782C10.0354 15.863 9.88841 15.924 9.72741 15.946H9.7264C9.4074 15.988 9.08341 15.901 8.82741 15.705C8.71841 15.621 8.63341 15.519 8.55541 15.403L8.34341 15.051L8.3474 15.059C8.3934 15.132 8.3764 15.108 8.3344 15.036L8.13541 14.676C8.07441 14.551 8.02841 14.426 8.01041 14.289C7.96841 13.97 8.05441 13.646 8.25141 13.39C8.35141 13.261 8.47741 13.164 8.62241 13.073C8.62441 13.071 8.62641 13.07 8.62841 13.069C8.64341 13.061 8.65241 13.046 8.65441 13.026C8.65141 13.011 8.64241 12.997 8.62841 12.989C8.62641 12.988 8.62441 12.987 8.62241 12.985C8.47741 12.894 8.35041 12.797 8.25141 12.668C8.05541 12.412 7.96841 12.089 8.01041 11.769C8.02841 11.632 8.07441 11.508 8.13541 11.382L8.34241 11.009L8.34341 11.007C8.42441 10.867 8.4924 10.75 8.5544 10.657C8.6264 10.543 8.7174 10.441 8.8234 10.357C8.8244 10.355 8.82641 10.354 8.82741 10.353C9.08341 10.157 9.4074 10.07 9.7264 10.112C9.7274 10.112 9.72741 10.112 9.72741 10.112C9.88841 10.134 10.0354 10.195 10.1874 10.276C10.1894 10.277 10.1914 10.278 10.1934 10.279C10.2074 10.287 10.2254 10.288 10.2434 10.28C10.2554 10.27 10.2624 10.255 10.2624 10.239C10.2624 10.236 10.2624 10.234 10.2624 10.232C10.2694 10.059 10.2894 9.90201 10.3514 9.75201C10.4754 9.45401 10.7124 9.21702 11.0104 9.09302C11.0124 9.09302 11.0134 9.092 11.0154 9.091C11.1414 9.042 11.2744 9.014 11.4104 9.008L11.8184 9.00101L11.8274 9ZM11.4034 10.042C11.3574 10.061 11.3204 10.098 11.3014 10.145H11.3004C11.2924 10.165 11.2924 10.197 11.2894 10.27C11.2754 10.632 11.0874 10.98 10.7554 11.172C10.4234 11.364 10.0274 11.353 9.7074 11.184C9.6434 11.15 9.61541 11.134 9.59441 11.131C9.59341 11.131 9.59341 11.131 9.59241 11.131C9.54341 11.124 9.49241 11.138 9.45341 11.168C9.44141 11.177 9.43041 11.194 9.40841 11.228C9.36141 11.297 9.3084 11.39 9.2284 11.528L9.0584 11.834C9.0414 11.869 9.03041 11.887 9.02941 11.9C9.02941 11.901 9.0294 11.902 9.0284 11.903C9.0224 11.953 9.03541 12.003 9.06641 12.043C9.07941 12.06 9.10741 12.076 9.16941 12.116C9.47641 12.309 9.6834 12.646 9.6834 13.029C9.6834 13.412 9.47641 13.749 9.16941 13.942C9.10741 13.982 9.07941 13.998 9.06641 14.016C9.03541 14.055 9.0224 14.106 9.0284 14.155C9.0294 14.156 9.02941 14.157 9.02941 14.158C9.03041 14.171 9.0404 14.188 9.0584 14.224L9.2284 14.53L9.40941 14.832C9.43141 14.865 9.44241 14.881 9.45341 14.89C9.49241 14.92 9.54341 14.934 9.59241 14.927C9.59341 14.927 9.59341 14.927 9.59441 14.927C9.61541 14.924 9.6434 14.908 9.7074 14.874C9.7074 14.874 9.70741 14.874 9.70841 14.874C10.0284 14.705 10.4234 14.695 10.7554 14.886C11.0874 15.078 11.2754 15.425 11.2894 15.787V15.788C11.2924 15.861 11.2924 15.893 11.3004 15.913H11.3014C11.3204 15.96 11.3574 15.997 11.4034 16.016C11.4174 16.022 11.4374 16.022 11.4784 16.025C11.5604 16.031 11.6684 16.03 11.8274 16.03C11.9874 16.03 12.0944 16.031 12.1764 16.025C12.2174 16.022 12.2384 16.022 12.2514 16.016C12.2974 15.997 12.3344 15.96 12.3544 15.913C12.3624 15.893 12.3624 15.861 12.3654 15.788V15.787C12.3794 15.425 12.5684 15.077 12.8994 14.886C13.2314 14.695 13.6274 14.705 13.9474 14.874C14.0124 14.908 14.0394 14.924 14.0604 14.927C14.0614 14.927 14.0614 14.927 14.0624 14.927C14.1124 14.934 14.1624 14.92 14.2024 14.89C14.2134 14.881 14.2244 14.864 14.2474 14.83C14.2934 14.761 14.3474 14.668 14.4264 14.53L14.5964 14.224C14.6144 14.189 14.6244 14.172 14.6254 14.158C14.6254 14.157 14.6264 14.156 14.6264 14.156C14.6324 14.106 14.6194 14.055 14.5894 14.016C14.5754 13.998 14.5484 13.982 14.4854 13.942C14.1784 13.749 13.9714 13.412 13.9714 13.029C13.9714 12.646 14.1784 12.309 14.4854 12.116C14.5484 12.076 14.5754 12.06 14.5894 12.043C14.6194 12.003 14.6324 11.953 14.6264 11.903C14.6264 11.902 14.6254 11.901 14.6254 11.9C14.6244 11.887 14.6144 11.87 14.5974 11.834L14.4264 11.528C14.3474 11.39 14.2934 11.298 14.2474 11.229C14.2244 11.195 14.2134 11.177 14.2024 11.168C14.1624 11.138 14.1124 11.124 14.0624 11.131C14.0614 11.131 14.0614 11.131 14.0604 11.131C14.0394 11.134 14.0114 11.15 13.9474 11.184C13.6264 11.353 13.2314 11.363 12.8994 11.172C12.5684 10.98 12.3794 10.633 12.3654 10.271C12.3624 10.198 12.3624 10.165 12.3544 10.145C12.3344 10.098 12.2984 10.061 12.2514 10.042C12.2384 10.036 12.2174 10.036 12.1774 10.033C12.0944 10.027 11.9874 10.028 11.8274 10.028C11.6684 10.028 11.5604 10.027 11.4784 10.033C11.4374 10.036 11.4174 10.036 11.4034 10.042ZM11.9054 11.513L11.8274 11.511C10.9944 11.511 10.3094 12.196 10.3094 13.029C10.3094 13.862 10.9944 14.547 11.8274 14.547C12.6604 14.547 13.3454 13.862 13.3454 13.029C13.3454 12.222 12.7024 11.554 11.9054 11.513ZM11.2374 13.059C11.2534 13.37 11.5134 13.62 11.8274 13.62C12.1514 13.62 12.4184 13.353 12.4184 13.029C12.4184 12.705 12.1514 12.438 11.8274 12.438C11.5034 12.438 11.2364 12.705 11.2364 13.029L11.2374 13.059Z" fill="black"/>
</g>
<defs>
<clipPath id="clip0_221_14104">
<rect width="24" height="24" fill="white"/>
</clipPath>
</defs>
</svg>
