<svg width="24" height="24" viewBox="0 0 24 24" fill="none" xmlns="http://www.w3.org/2000/svg">
<g clip-path="url(#clip0_221_14120)">
<path fill-rule="evenodd" clip-rule="evenodd" d="M3.955 2.25H20.045C20.478 2.25 20.875 2.25 21.197 2.293C21.553 2.341 21.928 2.453 22.237 2.763C22.546 3.073 22.659 3.447 22.707 3.803C22.75 4.126 22.75 4.523 22.75 4.955V5.045C22.75 5.478 22.75 5.875 22.707 6.197C22.659 6.553 22.547 6.928 22.237 7.237C21.944 7.531 21.59 7.647 21.25 7.699V13.056C21.25 14.894 21.25 16.35 21.097 17.489C20.939 18.661 20.607 19.61 19.859 20.359C19.11 21.107 18.161 21.439 16.989 21.597C15.849 21.75 14.394 21.75 12.556 21.75H11.444C9.606 21.75 8.15 21.75 7.011 21.597C5.839 21.439 4.89 21.107 4.141 20.359C3.393 19.61 3.061 18.661 2.903 17.489C2.75 16.349 2.75 14.894 2.75 13.056V7.7C2.41 7.648 2.056 7.532 1.763 7.238C1.453 6.929 1.341 6.554 1.293 6.198C1.25 5.875 1.25 5.478 1.25 5.046V4.956C1.25 4.523 1.25 4.126 1.293 3.804C1.341 3.448 1.453 3.073 1.763 2.764C2.073 2.455 2.447 2.342 2.803 2.294C3.126 2.251 3.523 2.25 3.955 2.25ZM4.25 7.751V13C4.25 14.907 4.252 16.262 4.39 17.29C4.525 18.295 4.779 18.875 5.202 19.298C5.625 19.721 6.205 19.975 7.211 20.11C8.193 20.242 9.474 20.25 11.25 20.25V13.954L9.557 15.835C9.4219 15.9745 9.23797 16.0561 9.04391 16.0627C8.84985 16.0694 8.66078 16.0005 8.51647 15.8705C8.37217 15.7406 8.28388 15.5598 8.27018 15.3661C8.25648 15.1724 8.31843 14.9809 8.443 14.832L11.443 11.498C11.5133 11.42 11.5992 11.3577 11.6952 11.315C11.7911 11.2723 11.895 11.2502 12 11.2502C12.105 11.2502 12.2089 11.2723 12.3048 11.315C12.4008 11.3577 12.4867 11.42 12.557 11.498L15.557 14.832C15.6816 14.9809 15.7435 15.1724 15.7298 15.3661C15.7161 15.5598 15.6278 15.7406 15.4835 15.8705C15.3392 16.0005 15.1502 16.0694 14.9561 16.0627C14.762 16.0561 14.5781 15.9745 14.443 15.835L12.75 13.955V20.25C14.526 20.25 15.807 20.242 16.79 20.11C17.795 19.975 18.375 19.721 18.798 19.298C19.221 18.875 19.475 18.295 19.61 17.289C19.748 16.262 19.75 14.907 19.75 13V7.75L4.25 7.751ZM2.823 3.823L2.826 3.822L2.836 3.817C2.88994 3.79789 2.94603 3.78546 3.003 3.78C3.213 3.752 3.507 3.75 4 3.75H20C20.493 3.75 20.787 3.752 20.997 3.78C21.0576 3.78624 21.1171 3.80036 21.174 3.822L21.177 3.823L21.178 3.826L21.183 3.836C21.192 3.858 21.207 3.906 21.22 4.003C21.248 4.213 21.25 4.507 21.25 5C21.25 5.493 21.248 5.787 21.22 5.997C21.2138 6.05758 21.1996 6.11708 21.178 6.174L21.177 6.177L21.174 6.178L21.164 6.183C21.1101 6.20211 21.054 6.21454 20.997 6.22C20.787 6.248 20.493 6.25 20 6.25H4C3.507 6.25 3.213 6.248 3.003 6.22C2.94242 6.21376 2.88292 6.19964 2.826 6.178L2.823 6.177L2.822 6.174L2.817 6.164C2.79789 6.11006 2.78546 6.05397 2.78 5.997C2.752 5.787 2.75 5.493 2.75 5C2.75 4.507 2.752 4.213 2.78 4.003C2.78624 3.94242 2.80036 3.88292 2.822 3.826L2.823 3.823Z" fill="black"/>
</g>
<defs>
<clipPath id="clip0_221_14120">
<rect width="24" height="24" fill="white"/>
</clipPath>
</defs>
</svg>
