<svg width="24" height="24" viewBox="0 0 24 24" fill="none" xmlns="http://www.w3.org/2000/svg">
<g clip-path="url(#clip0_221_14371)">
<path fill-rule="evenodd" clip-rule="evenodd" d="M12 2.75C9.54675 2.75 7.19397 3.72455 5.45926 5.45926C3.72455 7.19397 2.75 9.54675 2.75 12C2.75 14.4533 3.72455 16.806 5.45926 18.5407C7.19397 20.2754 9.54675 21.25 12 21.25C14.4533 21.25 16.806 20.2754 18.5407 18.5407C20.2754 16.806 21.25 14.4533 21.25 12C21.25 9.54675 20.2754 7.19397 18.5407 5.45926C16.806 3.72455 14.4533 2.75 12 2.75ZM1.25 12C1.25 6.063 6.063 1.25 12 1.25C17.937 1.25 22.75 6.063 22.75 12C22.75 17.937 17.937 22.75 12 22.75C6.063 22.75 1.25 17.937 1.25 12ZM11.942 6.25H12.058C12.951 6.25 13.706 6.25 14.308 6.342C14.955 6.441 15.528 6.66 15.978 7.171C16.415 7.668 16.59 8.279 16.672 8.965C16.75 9.629 16.75 10.47 16.75 11.501V14.086C16.75 14.826 16.75 15.436 16.706 15.9C16.663 16.346 16.569 16.858 16.214 17.227C15.9469 17.5076 15.592 17.6886 15.208 17.74C14.658 17.81 14.203 17.509 13.877 17.25C13.533 16.976 13.125 16.57 12.64 16.087L12.608 16.055C12.4513 15.8925 12.2878 15.7367 12.118 15.588C12.0871 15.5628 12.0547 15.5394 12.021 15.518C12.0072 15.515 11.9928 15.515 11.979 15.518C11.9453 15.5394 11.9129 15.5628 11.882 15.588C11.7122 15.7367 11.5487 15.8925 11.392 16.055L11.36 16.087C10.875 16.569 10.467 16.976 10.123 17.249C9.797 17.509 9.341 17.81 8.792 17.739C8.40814 17.6879 8.05323 17.5073 7.786 17.227C7.431 16.858 7.336 16.347 7.294 15.9C7.25 15.435 7.25 14.826 7.25 14.086V11.5C7.25 10.469 7.25 9.628 7.328 8.964C7.41 8.278 7.585 7.667 8.023 7.17C8.473 6.659 9.045 6.44 9.693 6.34C10.293 6.249 11.049 6.249 11.943 6.249M9.92 7.823C9.477 7.891 9.286 8.006 9.15 8.16C9.002 8.33 8.884 8.588 8.819 9.14C8.752 9.705 8.751 10.457 8.751 11.548V14.045C8.751 14.835 8.751 15.372 8.788 15.758C8.82 16.088 8.87 16.182 8.874 16.191C8.89401 16.2128 8.9186 16.2299 8.946 16.241C8.982 16.223 9.059 16.179 9.189 16.075C9.459 15.86 9.809 15.513 10.335 14.99L10.357 14.969C10.565 14.762 10.757 14.571 10.93 14.429C11.1334 14.2495 11.3769 14.1212 11.64 14.055C11.8775 14 12.1245 14 12.362 14.055C12.656 14.122 12.885 14.275 13.072 14.428C13.246 14.571 13.437 14.762 13.645 14.968L13.667 14.99C14.193 15.513 14.542 15.86 14.813 16.075C14.943 16.179 15.02 16.223 15.056 16.241C15.0834 16.2299 15.108 16.2128 15.128 16.191C15.132 16.181 15.182 16.087 15.214 15.758C15.25 15.372 15.251 14.835 15.251 14.045V11.548C15.251 10.457 15.25 9.705 15.183 9.14C15.118 8.588 15 8.33 14.852 8.16C14.716 8.006 14.525 7.891 14.082 7.824C13.607 7.751 12.968 7.749 12.001 7.749C11.034 7.749 10.395 7.75 9.92 7.823Z" fill="black"/>
</g>
<defs>
<clipPath id="clip0_221_14371">
<rect width="24" height="24" fill="white"/>
</clipPath>
</defs>
</svg>
