<svg width="24" height="24" viewBox="0 0 24 24" fill="none" xmlns="http://www.w3.org/2000/svg">
<g clip-path="url(#clip0_221_14432)">
<path d="M9 8.25C8.80109 8.25 8.61032 8.32902 8.46967 8.46967C8.32902 8.61032 8.25 8.80109 8.25 9C8.25 9.19891 8.32902 9.38968 8.46967 9.53033C8.61032 9.67098 8.80109 9.75 9 9.75H11.25V15C11.25 15.1989 11.329 15.3897 11.4697 15.5303C11.6103 15.671 11.8011 15.75 12 15.75C12.1989 15.75 12.3897 15.671 12.5303 15.5303C12.671 15.3897 12.75 15.1989 12.75 15V9.75H15C15.1989 9.75 15.3897 9.67098 15.5303 9.53033C15.671 9.38968 15.75 9.19891 15.75 9C15.75 8.80109 15.671 8.61032 15.5303 8.46967C15.3897 8.32902 15.1989 8.25 15 8.25H9Z" fill="black"/>
<path fill-rule="evenodd" clip-rule="evenodd" d="M3.25 6.646C2.78846 6.51542 2.36908 6.26644 2.03346 5.92375C1.69785 5.58106 1.45767 5.15658 1.33675 4.69241C1.21583 4.22824 1.21837 3.74053 1.34413 3.27765C1.46988 2.81477 1.71448 2.39281 2.05365 2.05364C2.39282 1.71447 2.81477 1.46988 3.27765 1.34412C3.74053 1.21837 4.22825 1.21583 4.69241 1.33675C5.15658 1.45767 5.58106 1.69785 5.92375 2.03346C6.26644 2.36907 6.51542 2.78845 6.646 3.25H17.354C17.4846 2.78845 17.7336 2.36907 18.0763 2.03346C18.4189 1.69785 18.8434 1.45767 19.3076 1.33675C19.7718 1.21583 20.2595 1.21837 20.7224 1.34412C21.1852 1.46988 21.6072 1.71447 21.9464 2.05364C22.2855 2.39281 22.5301 2.81477 22.6559 3.27765C22.7816 3.74053 22.7842 4.22824 22.6633 4.69241C22.5423 5.15658 22.3022 5.58106 21.9665 5.92375C21.6309 6.26644 21.2115 6.51542 20.75 6.646V17.354C21.2115 17.4846 21.6309 17.7336 21.9665 18.0762C22.3022 18.4189 22.5423 18.8434 22.6633 19.3076C22.7842 19.7718 22.7816 20.2595 22.6559 20.7223C22.5301 21.1852 22.2855 21.6072 21.9464 21.9464C21.6072 22.2855 21.1852 22.5301 20.7224 22.6559C20.2595 22.7816 19.7718 22.7842 19.3076 22.6633C18.8434 22.5423 18.4189 22.3022 18.0763 21.9665C17.7336 21.6309 17.4846 21.2115 17.354 20.75H6.646C6.51542 21.2115 6.26644 21.6309 5.92375 21.9665C5.58106 22.3022 5.15658 22.5423 4.69241 22.6633C4.22825 22.7842 3.74053 22.7816 3.27765 22.6559C2.81477 22.5301 2.39282 22.2855 2.05365 21.9464C1.71448 21.6072 1.46988 21.1852 1.34413 20.7223C1.21837 20.2595 1.21583 19.7718 1.33675 19.3076C1.45767 18.8434 1.69785 18.4189 2.03346 18.0762C2.36908 17.7336 2.78846 17.4846 3.25 17.354V6.646ZM4 2.75C3.66848 2.75 3.35054 2.88169 3.11612 3.11611C2.8817 3.35053 2.75 3.66848 2.75 4C2.75 4.33152 2.8817 4.64946 3.11612 4.88388C3.35054 5.1183 3.66848 5.25 4 5.25C4.33152 5.25 4.64946 5.1183 4.88388 4.88388C5.1183 4.64946 5.25 4.33152 5.25 4C5.25 3.66848 5.1183 3.35053 4.88388 3.11611C4.64946 2.88169 4.33152 2.75 4 2.75ZM4.75 17.354V6.646C5.20113 6.51717 5.61197 6.27546 5.94371 5.94371C6.27546 5.61196 6.51717 5.20112 6.646 4.75H17.354C17.613 5.666 18.334 6.387 19.25 6.646V17.354C18.7989 17.4828 18.388 17.7245 18.0563 18.0563C17.7245 18.388 17.4828 18.7989 17.354 19.25H6.646C6.51717 18.7989 6.27546 18.388 5.94371 18.0563C5.61197 17.7245 5.20113 17.4828 4.75 17.354ZM4 18.75C3.66848 18.75 3.35054 18.8817 3.11612 19.1161C2.8817 19.3505 2.75 19.6685 2.75 20C2.75 20.3315 2.8817 20.6495 3.11612 20.8839C3.35054 21.1183 3.66848 21.25 4 21.25C4.33152 21.25 4.64946 21.1183 4.88388 20.8839C5.1183 20.6495 5.25 20.3315 5.25 20C5.25 19.6685 5.1183 19.3505 4.88388 19.1161C4.64946 18.8817 4.33152 18.75 4 18.75ZM21.25 4C21.25 4.33152 21.1183 4.64946 20.8839 4.88388C20.6495 5.1183 20.3315 5.25 20 5.25C19.6685 5.25 19.3505 5.1183 19.1161 4.88388C18.8817 4.64946 18.75 4.33152 18.75 4C18.75 3.66848 18.8817 3.35053 19.1161 3.11611C19.3505 2.88169 19.6685 2.75 20 2.75C20.3315 2.75 20.6495 2.88169 20.8839 3.11611C21.1183 3.35053 21.25 3.66848 21.25 4ZM18.75 20C18.75 19.6685 18.8817 19.3505 19.1161 19.1161C19.3505 18.8817 19.6685 18.75 20 18.75C20.3315 18.75 20.6495 18.8817 20.8839 19.1161C21.1183 19.3505 21.25 19.6685 21.25 20C21.25 20.3315 21.1183 20.6495 20.8839 20.8839C20.6495 21.1183 20.3315 21.25 20 21.25C19.6685 21.25 19.3505 21.1183 19.1161 20.8839C18.8817 20.6495 18.75 20.3315 18.75 20Z" fill="black"/>
</g>
<defs>
<clipPath id="clip0_221_14432">
<rect width="24" height="24" fill="white"/>
</clipPath>
</defs>
</svg>
