<svg width="24" height="24" viewBox="0 0 24 24" fill="none" xmlns="http://www.w3.org/2000/svg">
<path fill-rule="evenodd" clip-rule="evenodd" d="M13.9733 16.4546H2.00182C1.58575 16.4546 1.25 16.7914 1.25 17.2065C1.25 17.6215 1.58575 17.9584 2.00182 17.9584H13.9733C14.3894 17.9584 14.725 17.6215 14.725 17.2065C14.725 16.7914 14.3894 16.4546 13.9733 16.4546Z" fill="black"/>
<path fill-rule="evenodd" clip-rule="evenodd" d="M18.0319 21.2136H2.00551C1.58894 21.2136 1.25188 21.5505 1.25188 21.9655C1.25188 22.3806 1.58894 22.7174 2.00551 22.7174H18.0319C18.4484 22.7174 18.7855 22.3806 18.7855 21.9655C18.7855 21.5505 18.4484 21.2136 18.0319 21.2136Z" fill="black"/>
<path fill-rule="evenodd" clip-rule="evenodd" d="M21.9969 11.2534H2.00642C1.5919 11.2534 1.25311 11.5903 1.25311 12.0053C1.25311 12.4204 1.5919 12.7572 2.00642 12.7572H21.9969C22.4114 12.7572 22.75 12.4204 22.75 12.0053C22.75 11.5903 22.4114 11.2534 21.9969 11.2534Z" fill="black"/>
<path fill-rule="evenodd" clip-rule="evenodd" d="M13.9733 6.23276L2.00182 6.23276C1.58575 6.23276 1.25 6.56961 1.25 6.98466C1.25 7.39971 1.58575 7.73656 2.00182 7.73656L13.9733 7.73656C14.3894 7.73656 14.725 7.39971 14.725 6.98466C14.725 6.56961 14.3894 6.23276 13.9733 6.23276Z" fill="black"/>
<path fill-rule="evenodd" clip-rule="evenodd" d="M18.0319 1.24817L2.00551 1.24817C1.58894 1.24817 1.25188 1.58502 1.25188 2.00007C1.25188 2.41512 1.58894 2.75197 2.00551 2.75197L18.0319 2.75197C18.4484 2.75197 18.7855 2.41512 18.7855 2.00007C18.7855 1.58502 18.4484 1.24817 18.0319 1.24817Z" fill="black"/>
</svg>
