<svg width="24" height="24" viewBox="0 0 24 24" fill="none" xmlns="http://www.w3.org/2000/svg">
<g clip-path="url(#clip0_221_14455)">
<path fill-rule="evenodd" clip-rule="evenodd" d="M7.609 1.25C6.71822 1.25027 5.864 1.60424 5.23412 2.23412C4.60424 2.864 4.25027 3.71822 4.25 4.609V19.94C4.25027 20.6849 4.5463 21.3992 5.07303 21.926C5.59976 22.4527 6.31409 22.7487 7.059 22.749H14C15.3851 22.7502 16.7242 22.2513 17.7709 21.3441C18.8176 20.4369 19.5016 19.1823 19.6973 17.811C19.8929 16.4398 19.5869 15.044 18.8356 13.8803C18.0843 12.7166 16.9382 11.8632 15.608 11.477C16.5343 10.7305 17.2063 9.71495 17.5312 8.57049C17.8561 7.42602 17.8181 6.20894 17.4223 5.08701C17.0265 3.96508 16.2924 2.99354 15.3212 2.30632C14.3501 1.6191 13.1897 1.25004 12 1.25H7.609ZM12 11.25C13.1272 11.25 14.2082 10.8022 15.0052 10.0052C15.8022 9.20817 16.25 8.12717 16.25 7C16.25 5.87283 15.8022 4.79183 15.0052 3.9948C14.2082 3.19777 13.1272 2.75 12 2.75H7.609C7.11604 2.75027 6.64335 2.94621 6.29478 3.29478C5.94621 3.64335 5.75027 4.11604 5.75 4.609V11.25H12ZM5.75 12.75V19.941C5.75 20.664 6.336 21.25 7.059 21.25H14C15.1272 21.25 16.2082 20.8022 17.0052 20.0052C17.8022 19.2082 18.25 18.1272 18.25 17C18.25 15.8728 17.8022 14.7918 17.0052 13.9948C16.2082 13.1978 15.1272 12.75 14 12.75H5.75Z" fill="black"/>
</g>
<defs>
<clipPath id="clip0_221_14455">
<rect width="24" height="24" fill="white"/>
</clipPath>
</defs>
</svg>
