<svg width="24" height="24" viewBox="0 0 24 24" fill="none" xmlns="http://www.w3.org/2000/svg">
<path fill-rule="evenodd" clip-rule="evenodd" d="M2.00185 11.182H10.4181C10.8319 11.182 11.1699 11.5183 11.1699 11.9326C11.1699 12.3469 10.8319 12.6832 10.4181 12.6832H2.00185C1.58803 12.6832 1.25 12.3469 1.25 11.9326C1.25 11.5183 1.58803 11.182 2.00185 11.182Z" fill="black"/>
<path fill-rule="evenodd" clip-rule="evenodd" d="M2.00185 2.52591L10.4181 2.52591C10.8319 2.52591 11.1699 2.86219 11.1699 3.27653C11.1699 3.69087 10.8319 4.02714 10.4181 4.02714H2.00185C1.58803 4.02714 1.25 3.69087 1.25 3.27653C1.25 2.86219 1.58803 2.52591 2.00185 2.52591Z" fill="black"/>
<path fill-rule="evenodd" clip-rule="evenodd" d="M2.00185 19.8381H10.4181C10.8319 19.8381 11.1699 20.1744 11.1699 20.5888C11.1699 21.0031 10.8319 21.3394 10.4181 21.3394H2.00185C1.58803 21.3394 1.25 21.0031 1.25 20.5888C1.25 20.1744 1.58803 19.8381 2.00185 19.8381Z" fill="black"/>
<path fill-rule="evenodd" clip-rule="evenodd" d="M4.61821 6.85342H10.4227C10.8381 6.85342 11.1732 7.1897 11.1732 7.60404C11.1732 8.01838 10.8381 8.35466 10.4227 8.35466H4.61821C4.20285 8.35466 3.86768 8.01838 3.86768 7.60404C3.86768 7.1897 4.20285 6.85342 4.61821 6.85342Z" fill="black"/>
<path fill-rule="evenodd" clip-rule="evenodd" d="M4.61821 15.5106H10.4227C10.8381 15.5106 11.1732 15.8468 11.1732 16.2612C11.1732 16.6755 10.8381 17.0118 10.4227 17.0118H4.61821C4.20285 17.0118 3.86768 16.6755 3.86768 16.2612C3.86768 15.8468 4.20285 15.5106 4.61821 15.5106Z" fill="black"/>
<path fill-rule="evenodd" clip-rule="evenodd" d="M12.4036 21.9561L12.4036 1.99973C12.4036 1.58591 12.7399 1.2477 13.1542 1.2477C13.5686 1.2477 13.9049 1.58591 13.9049 1.99973L13.9049 21.9561C13.9049 22.3699 13.5686 22.7079 13.1542 22.7079C12.7399 22.7079 12.4036 22.3699 12.4036 21.9561Z" fill="black"/>
<path fill-rule="evenodd" clip-rule="evenodd" d="M17.7845 12.7114H22.1482C22.4785 12.7114 22.75 12.3741 22.75 11.9649C22.75 11.5556 22.4785 11.2183 22.1482 11.2183H17.8045L19.5012 9.52254C19.6519 9.38181 19.7378 9.18419 19.7378 8.97759C19.7378 8.56937 19.4014 8.23301 18.9932 8.23301C18.7866 8.23301 18.589 8.31885 18.4482 8.46956L15.4699 11.4489C15.1815 11.7373 15.1815 12.2124 15.4699 12.5008L18.4482 15.4801C18.7367 15.7686 19.2118 15.7686 19.5012 15.4801C19.7897 15.1917 19.7897 14.7166 19.5012 14.4281L17.7845 12.7114Z" fill="black"/>
</svg>
