<svg width="24" height="24" viewBox="0 0 24 24" fill="none" xmlns="http://www.w3.org/2000/svg">
<g clip-path="url(#clip0_221_14349)">
<path fill-rule="evenodd" clip-rule="evenodd" d="M7.587 3.108C7.189 3.411 6.719 3.878 6.022 4.576L4.576 6.022C3.879 6.719 3.411 7.189 3.108 7.587C2.818 7.967 2.75 8.191 2.75 8.384C2.75 8.577 2.818 8.802 3.108 9.182C3.411 9.579 3.878 10.05 4.576 10.746C4.71269 10.8874 4.78838 11.0768 4.78676 11.2735C4.78514 11.4701 4.70636 11.6583 4.56737 11.7974C4.42837 11.9365 4.2403 12.0155 4.04365 12.0173C3.84701 12.0191 3.65752 11.9436 3.516 11.807L3.478 11.77C2.828 11.12 2.287 10.579 1.915 10.092C1.523 9.578 1.25 9.038 1.25 8.384C1.25 7.73 1.523 7.19 1.915 6.677C2.287 6.19 2.828 5.649 3.478 4.998L3.515 4.961L4.961 3.515L4.998 3.478C5.648 2.828 6.19 2.287 6.677 1.915C7.19 1.523 7.731 1.25 8.384 1.25C9.038 1.25 9.578 1.523 10.092 1.915C10.579 2.287 11.12 2.828 11.77 3.478L11.807 3.515C11.9475 3.65563 12.0263 3.84625 12.0263 4.045C12.0263 4.24375 11.9475 4.43438 11.807 4.575L9.397 6.986C9.32785 7.05767 9.24512 7.11484 9.15364 7.15419C9.06215 7.19354 8.96375 7.21428 8.86416 7.21519C8.76458 7.2161 8.66581 7.19717 8.57362 7.1595C8.48143 7.12184 8.39767 7.06619 8.32721 6.9958C8.25676 6.92542 8.20103 6.8417 8.16328 6.74955C8.12552 6.65739 8.1065 6.55864 8.10732 6.45906C8.10814 6.35948 8.12878 6.26105 8.16804 6.16953C8.20731 6.07801 8.2644 5.99522 8.336 5.926L10.215 4.046C9.795 3.632 9.469 3.326 9.182 3.108C8.802 2.818 8.578 2.75 8.384 2.75C8.191 2.75 7.967 2.818 7.587 3.108ZM19.955 11.973C20.154 11.973 20.345 12.053 20.485 12.193L20.522 12.23C21.172 12.88 21.713 13.421 22.085 13.908C22.477 14.422 22.75 14.962 22.75 15.616C22.75 16.27 22.477 16.81 22.085 17.323C21.713 17.81 21.172 18.351 20.522 19.002L19.002 20.522C18.352 21.172 17.81 21.713 17.323 22.085C16.81 22.477 16.269 22.75 15.616 22.75C14.962 22.75 14.422 22.477 13.908 22.085C13.421 21.713 12.88 21.172 12.23 20.522L12.193 20.485C12.0605 20.3428 11.9884 20.1548 11.9918 19.9605C11.9953 19.7662 12.074 19.5808 12.2114 19.4434C12.3488 19.306 12.5342 19.2273 12.7285 19.2238C12.9228 19.2204 13.1108 19.2925 13.253 19.425C13.95 20.121 14.421 20.589 14.818 20.892C15.198 21.182 15.422 21.25 15.616 21.25C15.81 21.25 16.033 21.182 16.413 20.892C16.811 20.589 17.281 20.122 17.978 19.424L19.424 17.978C20.121 17.281 20.589 16.811 20.892 16.413C21.182 16.033 21.25 15.809 21.25 15.616C21.25 15.423 21.182 15.198 20.892 14.818C20.673 14.531 20.369 14.206 19.953 13.785L18.075 15.664C17.9336 15.8007 17.7442 15.8764 17.5476 15.8748C17.3509 15.8731 17.1628 15.7944 17.0236 15.6554C16.8845 15.5164 16.8055 15.3283 16.8037 15.1317C16.8019 14.935 16.8774 14.7455 17.014 14.604L19.424 12.193C19.5645 12.0523 19.7562 11.9732 19.955 11.973ZM14.757 2.621C15.6351 1.74287 16.8261 1.24954 18.068 1.24954C19.3099 1.24954 20.5009 1.74287 21.379 2.621C22.2571 3.49914 22.7505 4.69014 22.7505 5.932C22.7505 7.17387 22.2571 8.36487 21.379 9.243L11.893 18.729C11.351 19.271 11.033 19.589 10.677 19.866C10.2583 20.194 9.80834 20.4723 9.327 20.701C8.921 20.894 8.493 21.037 7.767 21.279L4.435 22.389L3.633 22.657C3.31403 22.7635 2.9717 22.779 2.6444 22.7018C2.31711 22.6246 2.01778 22.4578 1.78 22.22C1.54222 21.9822 1.37538 21.6829 1.29819 21.3556C1.221 21.0283 1.23652 20.686 1.343 20.367L2.721 16.234C2.963 15.507 3.106 15.079 3.299 14.672C3.52834 14.192 3.80667 13.742 4.134 13.322C4.41 12.968 4.729 12.649 5.271 12.107L14.757 2.621ZM20.317 3.682C20.0217 3.38629 19.6709 3.1517 19.2849 2.99164C18.8988 2.83159 18.4849 2.7492 18.067 2.7492C17.6491 2.7492 17.2352 2.83159 16.8492 2.99164C16.4631 3.1517 16.1123 3.38629 15.817 3.682L15.155 4.344C15.19 4.519 15.247 4.757 15.344 5.034C15.6366 5.87105 16.1152 6.6308 16.744 7.256C17.3689 7.88464 18.1283 8.36332 18.965 8.656C19.243 8.753 19.481 8.81 19.656 8.845L20.318 8.183C20.6137 7.88766 20.8483 7.53693 21.0084 7.15085C21.1684 6.76478 21.2508 6.35094 21.2508 5.933C21.2508 5.51507 21.1684 5.10123 21.0084 4.71516C20.8483 4.32908 20.6137 3.97835 20.318 3.683M18.44 10.063C17.4027 9.69467 16.4613 9.09836 15.685 8.318C14.9045 7.54142 14.3082 6.59963 13.94 5.562L6.37 13.132C5.78 13.721 5.53 13.972 5.317 14.246C5.057 14.5793 4.836 14.937 4.654 15.319C4.505 15.632 4.392 15.968 4.128 16.759L3.18 19.6L4.4 20.82L7.242 19.873C8.033 19.609 8.369 19.496 8.682 19.347C9.06334 19.1643 9.421 18.9433 9.755 18.684C10.028 18.47 10.28 18.221 10.87 17.631L18.44 10.063Z" fill="black"/>
</g>
<defs>
<clipPath id="clip0_221_14349">
<rect width="24" height="24" fill="white"/>
</clipPath>
</defs>
</svg>
