<svg width="24" height="24" viewBox="0 0 24 24" fill="none" xmlns="http://www.w3.org/2000/svg">
<path fill-rule="evenodd" clip-rule="evenodd" d="M11.943 1.25H12.057C14.3663 1.25 16.1753 1.25 17.5869 1.43975C19.0314 1.63401 20.1714 2.03977 21.0662 2.93379C21.961 3.82856 22.366 4.96859 22.5602 6.41387C22.75 7.82465 22.75 9.63369 22.75 11.943V12.057C22.75 14.3663 22.75 16.1753 22.5602 17.5869C22.366 19.0314 21.9602 20.1714 21.0662 21.0662C20.1714 21.961 19.0314 22.366 17.5861 22.5602C16.1753 22.75 14.3663 22.75 12.057 22.75H11.943C9.63369 22.75 7.82465 22.75 6.41312 22.5602C4.96859 22.366 3.82856 21.9602 2.93379 21.0662C2.03902 20.1714 1.63401 19.0314 1.43975 17.5861C1.25 16.1753 1.25 14.3663 1.25 12.057V11.943C1.25 9.63369 1.25 7.82465 1.43975 6.41312C1.63401 4.96859 2.03977 3.82856 2.93379 2.93379C3.82856 2.03902 4.96859 1.63401 6.41387 1.43975C7.82465 1.25 9.63369 1.25 11.943 1.25ZM6.61262 2.92554C5.3346 3.09804 4.56358 3.4258 3.99506 3.99506C3.42505 4.56508 3.09804 5.3346 2.92554 6.61412C2.75153 7.91391 2.75003 9.62169 2.75003 12C2.75003 14.3783 2.75153 16.0861 2.92554 17.3859C3.09804 18.6654 3.4258 19.4364 3.99506 20.0064C4.56508 20.5749 5.3346 20.902 6.61412 21.0745C7.91391 21.2485 9.62169 21.25 12 21.25C14.3783 21.25 16.0861 21.2485 17.3859 21.0745C18.6654 20.902 19.4364 20.5742 20.0064 20.0049C20.5749 19.4349 20.902 18.6654 21.0745 17.3859C21.2485 16.0861 21.25 14.3783 21.25 12C21.25 9.62169 21.2485 7.91391 21.0745 6.61412C20.902 5.3346 20.5742 4.56358 20.0049 3.99356C19.4349 3.42505 18.6654 3.09804 17.3859 2.92554C16.0861 2.75153 14.3783 2.75003 12 2.75003C9.62169 2.75003 7.91391 2.75153 6.61412 2.92554" fill="black"/>
<path fill-rule="evenodd" clip-rule="evenodd" d="M15.1955 7.66672V7.91672H15.1945L15.1955 7.66672C14.8875 7.66672 14.6075 7.84772 14.4815 8.12773L11.2854 15.2299C11.2404 15.3309 11.2164 15.4399 11.2164 15.5509C11.2164 15.9799 11.5694 16.3339 11.9994 16.3339C12.3064 16.3339 12.5864 16.1529 12.7134 15.8719L13.6674 13.7519H16.7235L17.6775 15.8719C17.8035 16.1529 18.0835 16.3339 18.3916 16.3339C18.8206 16.3339 19.1746 15.9799 19.1746 15.5509C19.1746 15.4399 19.1506 15.3309 19.1046 15.2299L15.9095 8.12773C15.7835 7.84772 15.5035 7.66672 15.1955 7.66672ZM4.82724 15.5109L4.82623 15.5509C4.82623 15.9799 5.17924 16.3339 5.60825 16.3339H9.15933C9.58834 16.3339 9.94235 15.9799 9.94235 15.5509C9.94235 15.1219 9.58834 14.7679 9.15933 14.7679H5.60825C5.19224 14.7679 4.84824 15.0999 4.82724 15.5109ZM4.82724 11.9598L4.82623 11.9998C4.82623 12.4298 5.17924 12.7828 5.60825 12.7828H10.5794C11.0094 12.7828 11.3624 12.4298 11.3624 11.9998C11.3624 11.5708 11.0094 11.2178 10.5794 11.2178H5.60825C5.19224 11.2178 4.84824 11.5488 4.82724 11.9598ZM14.3715 12.1858L15.1955 10.3568L16.0185 12.1858H14.3715ZM4.82724 8.40972L4.82623 8.44973C4.82623 8.87874 5.17924 9.23173 5.60825 9.23173H12.7104C13.1394 9.23173 13.4924 8.87874 13.4924 8.44973C13.4924 8.01972 13.1394 7.66672 12.7104 7.66672H5.60825C5.19224 7.66672 4.84824 7.99871 4.82724 8.40972Z" fill="black"/>
</svg>
