<svg width="24" height="24" viewBox="0 0 24 24" fill="none" xmlns="http://www.w3.org/2000/svg">
<g clip-path="url(#clip0_221_14386)">
<path fill-rule="evenodd" clip-rule="evenodd" d="M16.47 3.47001C16.6106 3.32956 16.8012 3.25067 17 3.25067C17.1988 3.25067 17.3894 3.32956 17.53 3.47001L20.53 6.47001C20.6705 6.61064 20.7493 6.80126 20.7493 7.00001C20.7493 7.19876 20.6705 7.38939 20.53 7.53001L17.53 10.53C17.4613 10.6037 17.3785 10.6628 17.2865 10.7038C17.1945 10.7448 17.0952 10.7668 16.9945 10.7686C16.8938 10.7704 16.7938 10.7519 16.7004 10.7141C16.607 10.6764 16.5222 10.6203 16.451 10.5491C16.3797 10.4778 16.3236 10.393 16.2859 10.2996C16.2482 10.2062 16.2296 10.1062 16.2314 10.0055C16.2332 9.90479 16.2552 9.80547 16.2962 9.71347C16.3372 9.62147 16.3963 9.53867 16.47 9.47001L18.19 7.75001H9C7.87283 7.75001 6.79183 8.19778 5.9948 8.99481C5.19777 9.79184 4.75 10.8728 4.75 12C4.75 13.1272 5.19777 14.2082 5.9948 15.0052C6.79183 15.8022 7.87283 16.25 9 16.25H16C16.1989 16.25 16.3897 16.329 16.5303 16.4697C16.671 16.6103 16.75 16.8011 16.75 17C16.75 17.1989 16.671 17.3897 16.5303 17.5303C16.3897 17.671 16.1989 17.75 16 17.75H9C7.47501 17.75 6.01247 17.1442 4.93414 16.0659C3.8558 14.9875 3.25 13.525 3.25 12C3.25 10.475 3.8558 9.01248 4.93414 7.93415C6.01247 6.85581 7.47501 6.25001 9 6.25001H18.19L16.47 4.53001C16.3295 4.38939 16.2507 4.19876 16.2507 4.00001C16.2507 3.80126 16.3295 3.61064 16.47 3.47001Z" fill="black"/>
</g>
<defs>
<clipPath id="clip0_221_14386">
<rect width="24" height="24" fill="white"/>
</clipPath>
</defs>
</svg>
