<svg width="24" height="24" viewBox="0 0 24 24" fill="none" xmlns="http://www.w3.org/2000/svg">
<g clip-path="url(#clip0_221_14339)">
<path fill-rule="evenodd" clip-rule="evenodd" d="M14.757 2.621C15.6351 1.74287 16.8261 1.24954 18.068 1.24954C19.3099 1.24954 20.5009 1.74287 21.379 2.621C22.2571 3.49914 22.7505 4.69014 22.7505 5.932C22.7505 7.17387 22.2571 8.36487 21.379 9.243L11.893 18.729C11.351 19.271 11.033 19.589 10.677 19.866C10.2583 20.194 9.80834 20.4723 9.327 20.701C8.921 20.894 8.493 21.037 7.767 21.279L4.435 22.389L3.633 22.657C3.31403 22.7635 2.9717 22.779 2.6444 22.7018C2.31711 22.6246 2.01778 22.4578 1.78 22.22C1.54222 21.9822 1.37538 21.6829 1.29819 21.3556C1.221 21.0283 1.23652 20.686 1.343 20.367L2.721 16.234C2.963 15.507 3.106 15.079 3.299 14.672C3.52834 14.192 3.80667 13.742 4.134 13.322C4.41 12.968 4.729 12.649 5.271 12.107L14.757 2.621ZM4.4 20.821L7.241 19.873C8.032 19.609 8.368 19.496 8.681 19.347C9.06234 19.1643 9.42 18.9433 9.754 18.684C10.027 18.47 10.279 18.221 10.869 17.631L18.439 10.061C17.4011 9.69323 16.459 9.09726 15.682 8.317C14.9025 7.53983 14.3072 6.59771 13.94 5.56L6.37 13.13C5.78 13.719 5.53 13.97 5.317 14.244C5.057 14.5773 4.836 14.935 4.654 15.317C4.505 15.63 4.392 15.966 4.128 16.757L3.18 19.6L4.4 20.821ZM15.155 4.343C15.19 4.518 15.247 4.756 15.344 5.033C15.6366 5.87005 16.1152 6.6298 16.744 7.255C17.3689 7.88364 18.1283 8.36232 18.965 8.655C19.243 8.752 19.481 8.809 19.656 8.844L20.318 8.182C20.9113 7.58455 21.2436 6.7763 21.2421 5.93431C21.2407 5.09232 20.9055 4.28524 20.3101 3.68986C19.7148 3.09449 18.9077 2.75936 18.0657 2.75788C17.2237 2.75641 16.4155 3.08871 15.818 3.682L15.155 4.343Z" fill="black"/>
</g>
<defs>
<clipPath id="clip0_221_14339">
<rect width="24" height="24" fill="white"/>
</clipPath>
</defs>
</svg>
