<svg width="24" height="24" viewBox="0 0 24 24" fill="none" xmlns="http://www.w3.org/2000/svg">
<g clip-path="url(#clip0_221_14465)">
<path d="M4.75 3C4.75 2.80109 4.67098 2.61032 4.53033 2.46967C4.38968 2.32902 4.19891 2.25 4 2.25C3.80109 2.25 3.61032 2.32902 3.46967 2.46967C3.32902 2.61032 3.25 2.80109 3.25 3V9C3.25 11.3206 4.17187 13.5462 5.81282 15.1872C7.45376 16.8281 9.67936 17.75 12 17.75C14.3206 17.75 16.5462 16.8281 18.1872 15.1872C19.8281 13.5462 20.75 11.3206 20.75 9V3C20.75 2.80109 20.671 2.61032 20.5303 2.46967C20.3897 2.32902 20.1989 2.25 20 2.25C19.8011 2.25 19.6103 2.32902 19.4697 2.46967C19.329 2.61032 19.25 2.80109 19.25 3V9C19.25 9.95208 19.0625 10.8948 18.6981 11.7745C18.3338 12.6541 17.7997 13.4533 17.1265 14.1265C16.4533 14.7997 15.6541 15.3338 14.7745 15.6981C13.8948 16.0625 12.9521 16.25 12 16.25C11.0479 16.25 10.1052 16.0625 9.22554 15.6981C8.34593 15.3338 7.5467 14.7997 6.87348 14.1265C6.20025 13.4533 5.66622 12.6541 5.30187 11.7745C4.93753 10.8948 4.75 9.95208 4.75 9V3ZM4 20.25C3.80109 20.25 3.61032 20.329 3.46967 20.4697C3.32902 20.6103 3.25 20.8011 3.25 21C3.25 21.1989 3.32902 21.3897 3.46967 21.5303C3.61032 21.671 3.80109 21.75 4 21.75H20C20.1989 21.75 20.3897 21.671 20.5303 21.5303C20.671 21.3897 20.75 21.1989 20.75 21C20.75 20.8011 20.671 20.6103 20.5303 20.4697C20.3897 20.329 20.1989 20.25 20 20.25H4Z" fill="black"/>
</g>
<defs>
<clipPath id="clip0_221_14465">
<rect width="24" height="24" fill="white"/>
</clipPath>
</defs>
</svg>
