<svg width="24" height="24" viewBox="0 0 24 24" fill="none" xmlns="http://www.w3.org/2000/svg">
<path fill-rule="evenodd" clip-rule="evenodd" d="M15.333 9.41602H16.666C17.881 9.41602 18.791 9.41302 19.492 9.50702C20.021 9.57802 20.403 9.69302 20.688 9.97802C20.973 10.263 21.088 10.645 21.159 11.174C21.253 11.875 21.25 12.785 21.25 14V16.666C21.25 17.881 21.253 18.791 21.159 19.492C21.088 20.021 20.973 20.403 20.688 20.688C20.403 20.973 20.021 21.088 19.492 21.159C18.791 21.253 17.881 21.25 16.666 21.25H14C12.785 21.25 11.875 21.253 11.174 21.159C10.645 21.088 10.263 20.973 9.978 20.688C9.693 20.403 9.578 20.021 9.507 19.492C9.413 18.791 9.416 17.881 9.416 16.666V15.333H7.91599V16.666C7.91599 17.967 7.91999 18.941 8.02099 19.692C8.14499 20.616 8.41999 21.252 8.917 21.749C9.41399 22.246 10.05 22.521 10.974 22.645C11.725 22.746 12.699 22.75 14 22.75H16.666C17.967 22.75 18.941 22.746 19.692 22.645C20.616 22.521 21.252 22.246 21.749 21.749C22.246 21.252 22.521 20.616 22.645 19.692C22.746 18.941 22.75 17.967 22.75 16.666V14C22.75 12.699 22.746 11.725 22.645 10.974C22.521 10.05 22.246 9.41402 21.749 8.91702C21.252 8.42002 20.616 8.14502 19.692 8.02102C18.941 7.92002 17.967 7.91602 16.666 7.91602H15.333V9.41602Z" fill="black"/>
<path fill-rule="evenodd" clip-rule="evenodd" d="M16.083 7.333C16.083 6.033 16.08 5.058 15.979 4.307C15.854 3.384 15.579 2.748 15.082 2.251C14.585 1.754 13.949 1.478 13.026 1.354C12.275 1.253 11.3 1.25 10 1.25H7.333C6.033 1.25 5.058 1.253 4.307 1.354C3.384 1.478 2.748 1.754 2.251 2.251C1.754 2.748 1.478 3.384 1.354 4.307C1.253 5.058 1.25 6.033 1.25 7.333V10C1.25 11.3 1.253 12.275 1.354 13.026C1.478 13.949 1.754 14.585 2.251 15.082C2.748 15.579 3.384 15.854 4.307 15.979C5.058 16.08 6.033 16.083 7.333 16.083H10C11.3 16.083 12.275 16.08 13.026 15.979C13.949 15.854 14.585 15.579 15.082 15.082C15.579 14.585 15.854 13.949 15.979 13.026C16.08 12.275 16.083 11.3 16.083 10V7.333ZM14.583 7.333V10C14.583 11.214 14.586 12.125 14.492 12.826C14.421 13.355 14.306 13.737 14.021 14.021C13.737 14.306 13.355 14.421 12.826 14.492C12.125 14.586 11.214 14.583 10 14.583H7.333C6.119 14.583 5.208 14.586 4.507 14.492C3.978 14.421 3.596 14.306 3.311 14.021C3.027 13.737 2.912 13.355 2.841 12.826C2.746 12.125 2.75 11.214 2.75 10V7.333C2.75 6.119 2.746 5.208 2.841 4.507C2.912 3.978 3.027 3.596 3.311 3.311C3.596 3.027 3.978 2.912 4.507 2.841C5.208 2.746 6.119 2.75 7.333 2.75H10C11.214 2.75 12.125 2.746 12.826 2.841C13.355 2.912 13.737 3.027 14.021 3.311C14.306 3.596 14.421 3.978 14.492 4.507C14.586 5.208 14.583 6.119 14.583 7.333Z" fill="black"/>
</svg>
