<svg width="24" height="24" viewBox="0 0 24 24" fill="none" xmlns="http://www.w3.org/2000/svg">
<path fill-rule="evenodd" clip-rule="evenodd" d="M11.943 1.25H12.057C14.3663 1.25 16.1753 1.25 17.5869 1.43975C19.0314 1.63401 20.1714 2.03977 21.0662 2.93379C21.961 3.82856 22.366 4.96859 22.5602 6.41387C22.75 7.82465 22.75 9.63369 22.75 11.943V12.057C22.75 14.3663 22.75 16.1753 22.5602 17.5869C22.366 19.0314 21.9602 20.1714 21.0662 21.0662C20.1714 21.961 19.0314 22.366 17.5861 22.5602C16.1753 22.75 14.3663 22.75 12.057 22.75H11.943C9.63369 22.75 7.82465 22.75 6.41312 22.5602C4.96859 22.366 3.82856 21.9602 2.93379 21.0662C2.03902 20.1714 1.63401 19.0314 1.43975 17.5861C1.25 16.1753 1.25 14.3663 1.25 12.057V11.943C1.25 9.63369 1.25 7.82465 1.43975 6.41312C1.63401 4.96859 2.03977 3.82856 2.93379 2.93379C3.82856 2.03902 4.96859 1.63401 6.41387 1.43975C7.82465 1.25 9.63369 1.25 11.943 1.25ZM6.61262 2.92554C5.3346 3.09804 4.56358 3.4258 3.99506 3.99506C3.42505 4.56508 3.09804 5.3346 2.92554 6.61412C2.75153 7.91391 2.75003 9.62169 2.75003 12C2.75003 14.3783 2.75153 16.0861 2.92554 17.3859C3.09804 18.6654 3.4258 19.4364 3.99506 20.0064C4.56508 20.5749 5.3346 20.902 6.61412 21.0745C7.91391 21.2485 9.62169 21.25 12 21.25C14.3783 21.25 16.0861 21.2485 17.3859 21.0745C18.6654 20.902 19.4364 20.5742 20.0064 20.0049C20.5749 19.4349 20.902 18.6654 21.0745 17.3859C21.2485 16.0861 21.25 14.3783 21.25 12C21.25 9.62169 21.2485 7.91391 21.0745 6.61412C20.902 5.3346 20.5742 4.56358 20.0049 3.99356C19.4349 3.42505 18.6654 3.09804 17.3859 2.92554C16.0861 2.75153 14.3783 2.75003 12 2.75003C9.62169 2.75003 7.91391 2.75153 6.61412 2.92554" fill="black"/>
<path fill-rule="evenodd" clip-rule="evenodd" d="M4.82724 8.40972L4.82623 8.44973C4.82623 8.87874 5.17924 9.23173 5.60825 9.23173H18.3005C18.7306 9.23173 19.0836 8.87874 19.0836 8.44973C19.0836 8.01972 18.7306 7.66672 18.3005 7.66672H5.60825C5.19224 7.66672 4.84824 7.99871 4.82724 8.40972Z" fill="black"/>
<path fill-rule="evenodd" clip-rule="evenodd" d="M4.82724 11.9608L4.82623 12.0008C4.82623 12.4298 5.17924 12.7828 5.60825 12.7828H18.3005C18.7306 12.7828 19.0836 12.4298 19.0836 12.0008C19.0836 11.5708 18.7306 11.2178 18.3005 11.2178H5.60825C5.19224 11.2178 4.84824 11.5498 4.82724 11.9608Z" fill="black"/>
<path fill-rule="evenodd" clip-rule="evenodd" d="M4.82724 15.5109L4.82623 15.5509C4.82623 15.9799 5.17924 16.3329 5.60825 16.3329H15.9525C16.3815 16.3329 16.7345 15.9799 16.7345 15.5509C16.7345 15.1209 16.3815 14.7679 15.9525 14.7679H5.60825C5.19224 14.7679 4.84824 15.0999 4.82724 15.5109Z" fill="black"/>
</svg>
