<svg width="24" height="24" viewBox="0 0 24 24" fill="none" xmlns="http://www.w3.org/2000/svg">
<g clip-path="url(#clip0_221_14391)">
<path fill-rule="evenodd" clip-rule="evenodd" d="M1.25 7C1.25 6.80109 1.32902 6.61032 1.46967 6.46967C1.61032 6.32902 1.80109 6.25 2 6.25H10C10.1989 6.25 10.3897 6.32902 10.5303 6.46967C10.671 6.61032 10.75 6.80109 10.75 7C10.75 7.19891 10.671 7.38968 10.5303 7.53033C10.3897 7.67098 10.1989 7.75 10 7.75H2C1.80109 7.75 1.61032 7.67098 1.46967 7.53033C1.32902 7.38968 1.25 7.19891 1.25 7ZM17 7.75C16.4419 7.75 15.8892 7.85993 15.3736 8.07351C14.858 8.28709 14.3894 8.60015 13.9948 8.9948C13.6001 9.38944 13.2871 9.85796 13.0735 10.3736C12.8599 10.8892 12.75 11.4419 12.75 12C12.75 12.5581 12.8599 13.1108 13.0735 13.6264C13.2871 14.142 13.6001 14.6106 13.9948 15.0052C14.3894 15.3999 14.858 15.7129 15.3736 15.9265C15.8892 16.1401 16.4419 16.25 17 16.25C18.1272 16.25 19.2082 15.8022 20.0052 15.0052C20.8022 14.2082 21.25 13.1272 21.25 12C21.25 10.8728 20.8022 9.79183 20.0052 8.9948C19.2082 8.19777 18.1272 7.75 17 7.75ZM11.25 12C11.25 11.2449 11.3987 10.4972 11.6877 9.79957C11.9767 9.10195 12.4002 8.46807 12.9341 7.93414C13.4681 7.4002 14.1019 6.97666 14.7996 6.68769C15.4972 6.39873 16.2449 6.25 17 6.25C17.7551 6.25 18.5028 6.39873 19.2004 6.68769C19.8981 6.97666 20.5319 7.4002 21.0659 7.93414C21.5998 8.46807 22.0233 9.10195 22.3123 9.79957C22.6013 10.4972 22.75 11.2449 22.75 12C22.75 13.525 22.1442 14.9875 21.0659 16.0659C19.9875 17.1442 18.525 17.75 17 17.75C15.475 17.75 14.0125 17.1442 12.9341 16.0659C11.8558 14.9875 11.25 13.525 11.25 12ZM1.25 12C1.25 11.8011 1.32902 11.6103 1.46967 11.4697C1.61032 11.329 1.80109 11.25 2 11.25H8C8.19891 11.25 8.38968 11.329 8.53033 11.4697C8.67098 11.6103 8.75 11.8011 8.75 12C8.75 12.1989 8.67098 12.3897 8.53033 12.5303C8.38968 12.671 8.19891 12.75 8 12.75H2C1.80109 12.75 1.61032 12.671 1.46967 12.5303C1.32902 12.3897 1.25 12.1989 1.25 12ZM1.25 17C1.25 16.8011 1.32902 16.6103 1.46967 16.4697C1.61032 16.329 1.80109 16.25 2 16.25H10C10.1989 16.25 10.3897 16.329 10.5303 16.4697C10.671 16.6103 10.75 16.8011 10.75 17C10.75 17.1989 10.671 17.3897 10.5303 17.5303C10.3897 17.671 10.1989 17.75 10 17.75H2C1.80109 17.75 1.61032 17.671 1.46967 17.5303C1.32902 17.3897 1.25 17.1989 1.25 17Z" fill="black"/>
<path fill-rule="evenodd" clip-rule="evenodd" d="M15.2102 10.2102C15.4668 9.95438 15.8886 9.95438 16.1451 10.2102L17 11.0658L17.8549 10.2102C17.9798 10.076 18.1557 10 18.3388 10C18.7018 10 19 10.2982 19 10.6612C19 10.8443 18.924 11.0202 18.7898 11.1451L17.9342 12L18.7898 12.8549C18.9035 12.9772 18.9669 13.1385 18.9669 13.3058C18.9669 13.6688 18.6688 13.9669 18.3058 13.9669C18.1385 13.9669 17.9772 13.9035 17.8549 13.7898L17 12.9342L16.1451 13.7898C16.0202 13.924 15.8443 14 15.6612 14C15.2982 14 15 13.7018 15 13.3388C15 13.1557 15.076 12.9798 15.2102 12.8549L16.0658 12L15.2102 11.1451C14.9544 10.8886 14.9544 10.4668 15.2102 10.2102Z" fill="black"/>
</g>
<defs>
<clipPath id="clip0_221_14391">
<rect width="24" height="24" fill="white"/>
</clipPath>
</defs>
</svg>
