<svg width="24" height="24" viewBox="0 0 24 24" fill="none" xmlns="http://www.w3.org/2000/svg">
<g clip-path="url(#clip0_221_14344)">
<path fill-rule="evenodd" clip-rule="evenodd" d="M14.1 2.39099C14.8332 1.67249 15.8203 1.27238 16.8468 1.27761C17.8733 1.28284 18.8563 1.69299 19.5821 2.41892C20.3079 3.14485 20.7178 4.1279 20.7229 5.15441C20.7279 6.18093 20.3276 7.16796 19.609 7.90099L12.015 15.495C11.587 15.923 11.325 16.185 11.035 16.412C10.6916 16.6795 10.3201 16.9089 9.92701 17.096C9.59301 17.255 9.24201 17.372 8.66801 17.563L5.996 18.454L5.35401 18.668C5.07236 18.7621 4.77006 18.7758 4.48104 18.7077C4.19201 18.6396 3.92768 18.4923 3.71771 18.2823C3.50773 18.0723 3.36042 17.808 3.29229 17.519C3.22416 17.2299 3.23791 16.9276 3.33201 16.646L4.437 13.332C4.628 12.758 4.745 12.407 4.904 12.073C5.09151 11.6802 5.3212 11.309 5.58901 10.966C5.81601 10.675 6.07701 10.413 6.50501 9.98598L14.1 2.39099ZM5.96001 16.885L5.11601 16.039L5.844 13.854C6.056 13.218 6.144 12.959 6.258 12.719C6.39934 12.4237 6.57034 12.147 6.771 11.889C6.935 11.679 7.12701 11.485 7.60101 11.01L13.492 5.11998C13.7981 5.88473 14.2571 6.57891 14.841 7.15999C15.4222 7.74348 16.1163 8.20218 16.881 8.50799L10.99 14.398C10.515 14.873 10.322 15.065 10.112 15.228C9.85334 15.4293 9.57667 15.6007 9.282 15.742C9.04201 15.856 8.78201 15.944 8.14601 16.156L5.96001 16.885ZM18.076 7.31199C17.9219 7.278 17.77 7.23492 17.621 7.18299C16.9725 6.95759 16.3841 6.5868 15.901 6.09899C15.4143 5.61497 15.0437 5.02689 14.817 4.37899C14.7647 4.23002 14.7213 4.07808 14.687 3.92399L15.16 3.45198C15.6118 3.01481 16.2172 2.7727 16.8459 2.77785C17.4745 2.78301 18.0759 3.03502 18.5204 3.47954C18.965 3.92407 19.217 4.52549 19.2221 5.15412C19.2273 5.78275 18.9852 6.38823 18.548 6.83999L18.076 7.31199ZM3.25001 22C3.25001 21.8011 3.32902 21.6103 3.46967 21.4697C3.61033 21.329 3.80109 21.25 4.00001 21.25H20V22.75H4.00001C3.80109 22.75 3.61033 22.671 3.46967 22.5303C3.32902 22.3897 3.25001 22.1989 3.25001 22Z" fill="black"/>
</g>
<defs>
<clipPath id="clip0_221_14344">
<rect width="24" height="24" fill="white"/>
</clipPath>
</defs>
</svg>
