<svg width="24" height="24" viewBox="0 0 24 24" fill="none" xmlns="http://www.w3.org/2000/svg">
<path fill-rule="evenodd" clip-rule="evenodd" d="M10.0267 16.3276H21.9982C22.4143 16.3276 22.75 16.6644 22.75 17.0795C22.75 17.4945 22.4143 17.8314 21.9982 17.8314H10.0267C9.61059 17.8314 9.27496 17.4945 9.27496 17.0795C9.27496 16.6644 9.61059 16.3276 10.0267 16.3276Z" fill="black"/>
<path fill-rule="evenodd" clip-rule="evenodd" d="M5.96814 21.0865H21.9945C22.4111 21.0865 22.7481 21.4234 22.7481 21.8384C22.7481 22.2535 22.4111 22.5903 21.9945 22.5903H5.96814C5.55156 22.5903 5.21451 22.2535 5.21451 21.8384C5.21451 21.4234 5.55156 21.0865 5.96814 21.0865Z" fill="black"/>
<path fill-rule="evenodd" clip-rule="evenodd" d="M2.00314 11.1263H21.9936C22.4081 11.1263 22.7469 11.4632 22.7469 11.8782C22.7469 12.2933 22.4081 12.6301 21.9936 12.6301H2.00314C1.58861 12.6301 1.25 12.2933 1.25 11.8782C1.25 11.4632 1.58861 11.1263 2.00314 11.1263Z" fill="black"/>
<path fill-rule="evenodd" clip-rule="evenodd" d="M10.0267 6.10571L21.9982 6.10571C22.4143 6.10571 22.75 6.44256 22.75 6.85761C22.75 7.27266 22.4143 7.60951 21.9982 7.60951L10.0267 7.60951C9.61059 7.60951 9.27496 7.27266 9.27496 6.85761C9.27496 6.44256 9.61059 6.10571 10.0267 6.10571Z" fill="black"/>
<path fill-rule="evenodd" clip-rule="evenodd" d="M5.96814 1.12115L21.9945 1.12115C22.4111 1.12115 22.7481 1.45801 22.7481 1.87305C22.7481 2.2881 22.4111 2.62495 21.9945 2.62495L5.96814 2.62495C5.55156 2.62495 5.21451 2.2881 5.21451 1.87305C5.21451 1.45801 5.55156 1.12115 5.96814 1.12115Z" fill="black"/>
</svg>
