<svg width="24" height="24" viewBox="0 0 24 24" fill="none" xmlns="http://www.w3.org/2000/svg">
<g clip-path="url(#clip0_221_14381)">
<path fill-rule="evenodd" clip-rule="evenodd" d="M7.53001 3.47001C7.67046 3.61064 7.74935 3.80126 7.74935 4.00001C7.74935 4.19876 7.67046 4.38939 7.53001 4.53001L5.81001 6.25001H15C16.525 6.25001 17.9875 6.85581 19.0659 7.93415C20.1442 9.01248 20.75 10.475 20.75 12C20.75 13.525 20.1442 14.9875 19.0659 16.0659C17.9875 17.1442 16.525 17.75 15 17.75H8.00001C7.8011 17.75 7.61033 17.671 7.46968 17.5303C7.32903 17.3897 7.25001 17.1989 7.25001 17C7.25001 16.8011 7.32903 16.6103 7.46968 16.4697C7.61033 16.329 7.8011 16.25 8.00001 16.25H15C16.1272 16.25 17.2082 15.8022 18.0052 15.0052C18.8022 14.2082 19.25 13.1272 19.25 12C19.25 10.8728 18.8022 9.79184 18.0052 8.99481C17.2082 8.19778 16.1272 7.75001 15 7.75001H5.81001L7.53001 9.47001C7.6037 9.53867 7.6628 9.62147 7.70379 9.71347C7.74478 9.80547 7.76683 9.90479 7.7686 10.0055C7.77038 10.1062 7.75186 10.2062 7.71413 10.2996C7.67641 10.393 7.62027 10.4778 7.54905 10.5491C7.47783 10.6203 7.393 10.6764 7.29961 10.7141C7.20622 10.7519 7.10619 10.7704 7.00549 10.7686C6.90479 10.7668 6.80547 10.7448 6.71347 10.7038C6.62147 10.6628 6.53867 10.6037 6.47001 10.53L3.47001 7.53001C3.32956 7.38939 3.25067 7.19876 3.25067 7.00001C3.25067 6.80126 3.32956 6.61064 3.47001 6.47001L6.47001 3.47001C6.61064 3.32956 6.80126 3.25067 7.00001 3.25067C7.19876 3.25067 7.38939 3.32956 7.53001 3.47001Z" fill="black"/>
</g>
<defs>
<clipPath id="clip0_221_14381">
<rect width="24" height="24" fill="white"/>
</clipPath>
</defs>
</svg>
