<svg width="24" height="24" viewBox="0 0 24 24" fill="none" xmlns="http://www.w3.org/2000/svg">
<path fill-rule="evenodd" clip-rule="evenodd" d="M11.216 6.28198C11.4064 6.33932 11.5662 6.46991 11.6604 6.64505C11.7545 6.8202 11.7752 7.02555 11.718 7.21598L11.108 9.24998H14.542L15.282 6.78398C15.3429 6.59787 15.4741 6.44294 15.6477 6.3523C15.8213 6.26166 16.0234 6.24249 16.2109 6.29891C16.3984 6.35532 16.5564 6.48283 16.6512 6.65419C16.7459 6.82555 16.7699 7.02717 16.718 7.21598L16.108 9.24998H18C18.1989 9.24998 18.3897 9.329 18.5303 9.46965C18.671 9.6103 18.75 9.80107 18.75 9.99998C18.75 10.1989 18.671 10.3897 18.5303 10.5303C18.3897 10.671 18.1989 10.75 18 10.75H15.658L14.908 13.25H17C17.1989 13.25 17.3897 13.329 17.5303 13.4696C17.671 13.6103 17.75 13.8011 17.75 14C17.75 14.1989 17.671 14.3897 17.5303 14.5303C17.3897 14.671 17.1989 14.75 17 14.75H14.458L13.718 17.215C13.6555 17.3988 13.5242 17.5513 13.3517 17.6403C13.1791 17.7293 12.9787 17.7479 12.7927 17.6922C12.6067 17.6365 12.4496 17.5108 12.3543 17.3416C12.2591 17.1724 12.2331 16.9729 12.282 16.785L12.892 14.75H9.458L8.718 17.215C8.69263 17.3125 8.64786 17.404 8.58636 17.4838C8.52486 17.5637 8.44789 17.6303 8.36005 17.6798C8.27222 17.7292 8.17532 17.7605 8.07514 17.7716C7.97496 17.7828 7.87356 17.7736 7.777 17.7447C7.68043 17.7158 7.59069 17.6677 7.51313 17.6033C7.43557 17.539 7.37178 17.4596 7.32557 17.37C7.27937 17.2804 7.2517 17.1825 7.24421 17.0819C7.23672 16.9814 7.24958 16.8804 7.282 16.785L7.892 14.75H6C5.80109 14.75 5.61032 14.671 5.46967 14.5303C5.32902 14.3897 5.25 14.1989 5.25 14C5.25 13.8011 5.32902 13.6103 5.46967 13.4696C5.61032 13.329 5.80109 13.25 6 13.25H8.342L9.092 10.75H7C6.80109 10.75 6.61032 10.671 6.46967 10.5303C6.32902 10.3897 6.25 10.1989 6.25 9.99998C6.25 9.80107 6.32902 9.6103 6.46967 9.46965C6.61032 9.329 6.80109 9.24998 7 9.24998H9.542L10.282 6.78398C10.3393 6.59359 10.4699 6.43375 10.6451 6.33962C10.8202 6.24548 11.0256 6.22475 11.216 6.28198ZM10.658 10.75H14.092L13.342 13.25H9.908L10.658 10.75Z" fill="black"/>
</svg>
