<svg width="24" height="24" viewBox="0 0 24 24" fill="none" xmlns="http://www.w3.org/2000/svg">
<path fill-rule="evenodd" clip-rule="evenodd" d="M4.94933 14.0557H12.0297L14.2548 18.8352C14.3755 19.0946 14.6349 19.2622 14.9213 19.2672C15.2087 19.2712 15.4731 19.1116 15.6018 18.8551L16.7572 16.5592H20.1537L21.3321 18.923C21.5157 19.2922 21.9657 19.4428 22.3349 19.2592C22.7051 19.0747 22.8558 18.6257 22.6712 18.2555L19.137 11.1601C19.0103 10.9067 18.7518 10.7461 18.4685 10.7461C18.1851 10.7451 17.9257 10.9047 17.7989 11.1582L14.9592 16.8017L9.15404 4.33425C9.03131 4.06983 8.7659 3.90118 8.47454 3.90118C8.18319 3.90218 7.91876 4.07081 7.79603 4.33522L1.31935 18.3393C1.14573 18.7135 1.30937 19.1595 1.68454 19.3321C2.05971 19.5057 2.50474 19.3421 2.67735 18.9669L4.94933 14.0557ZM17.5096 15.0625H19.4084L18.4635 13.1657L17.5096 15.0625ZM5.6418 12.5591H11.3322L8.47753 6.42761L5.6418 12.5591Z" fill="black"/>
</svg>
