<svg width="24" height="24" viewBox="0 0 24 24" fill="none" xmlns="http://www.w3.org/2000/svg">
<g clip-path="url(#clip0_221_14359)">
<path fill-rule="evenodd" clip-rule="evenodd" d="M16.763 3.289C16.9123 3.23921 17.0734 3.23762 17.2236 3.28446C17.3738 3.3313 17.5055 3.4242 17.6 3.55L20.6 7.55C20.6591 7.6288 20.7021 7.71846 20.7265 7.81387C20.751 7.90928 20.7564 8.00857 20.7425 8.10607C20.7285 8.20357 20.6955 8.29737 20.6454 8.38212C20.5952 8.46687 20.5288 8.54091 20.45 8.6C20.3712 8.6591 20.2815 8.70209 20.1861 8.72654C20.0907 8.75098 19.9914 8.75639 19.8939 8.74246C19.7964 8.72854 19.7026 8.69554 19.6179 8.64536C19.5331 8.59518 19.4591 8.5288 19.4 8.45L17.75 6.25V20C17.75 20.1989 17.671 20.3897 17.5303 20.5303C17.3897 20.671 17.1989 20.75 17 20.75C16.8011 20.75 16.6103 20.671 16.4697 20.5303C16.329 20.3897 16.25 20.1989 16.25 20V4C16.2501 3.84266 16.2997 3.68933 16.3918 3.56174C16.4839 3.43414 16.6137 3.33872 16.763 3.289ZM13 8.75H4V7.25H13V8.75ZM13 13.75H6V12.25H13V13.75ZM13 18.75H8V17.25H13V18.75Z" fill="black"/>
</g>
<defs>
<clipPath id="clip0_221_14359">
<rect width="24" height="24" fill="white"/>
</clipPath>
</defs>
</svg>
