<svg width="24" height="24" viewBox="0 0 24 24" fill="none" xmlns="http://www.w3.org/2000/svg">
<path fill-rule="evenodd" clip-rule="evenodd" d="M10.2858 12.1092H2.00007C1.58603 12.1092 1.25 12.4452 1.25 12.8592C1.25 13.2733 1.58603 13.6093 2.00007 13.6093H12.7951C13.4051 14.0613 15.3593 15.7295 14.7823 18.2177C14.5202 19.3468 13.7282 20.0359 12.8901 20.4719C11.515 21.187 9.98882 21.246 9.98882 21.246C9.98382 21.247 9.97782 21.247 9.97182 21.247C9.97182 21.247 7.6736 21.411 6.33548 19.9429C5.77143 19.3238 5.4044 18.4057 5.4354 17.0696C5.4454 16.6546 5.11737 16.3096 4.70433 16.2996C4.29029 16.2896 3.94626 16.6186 3.93625 17.0336C3.89225 18.8678 4.45431 20.1089 5.22838 20.958C7.01455 22.9172 10.0648 22.7492 10.0648 22.7492C10.0468 22.7492 11.906 22.6781 13.5811 21.8071C14.7763 21.185 15.8694 20.1709 16.2434 18.5588C16.7424 16.4066 15.8424 14.7054 14.9293 13.6093H21.9999C22.414 13.6093 22.75 13.2733 22.75 12.8592C22.75 12.4452 22.414 12.1092 21.9999 12.1092H13.2291C6.80253 8.60184 6.35848 6.0566 6.35848 6.0566C6.35448 6.0306 6.34948 6.00358 6.34348 5.97758C6.34348 5.97758 6.06946 4.83548 6.76953 3.92139C7.28557 3.24733 8.30366 2.75429 10.1828 2.75429C12.069 2.75429 13.0881 3.21434 13.6032 3.8504C14.2752 4.67948 14.0072 5.71556 14.0072 5.71556C13.9042 6.1176 14.1452 6.52766 14.5462 6.63166C14.9473 6.73567 15.3563 6.49364 15.4603 6.09161C15.4603 6.09161 15.9164 4.31944 14.7673 2.90131C14.0682 2.03923 12.7421 1.25015 10.1828 1.25015C7.6166 1.25015 6.28447 2.08524 5.5804 3.00532C4.56131 4.33444 4.81333 5.9616 4.87334 6.27363C4.90734 6.51065 5.36339 8.91587 10.2858 12.1092Z" fill="black"/>
</svg>
