<svg width="24" height="24" viewBox="0 0 24 24" fill="none" xmlns="http://www.w3.org/2000/svg">
<g clip-path="url(#clip0_221_14497)">
<path d="M7.948 2.25H16.052C16.951 2.25 17.7 2.25 18.294 2.33C18.922 2.414 19.489 2.6 19.944 3.055C20.4 3.511 20.586 4.078 20.67 4.705C20.75 5.3 20.75 6.05 20.75 6.948V7.95C20.75 8.14891 20.671 8.33968 20.5303 8.48033C20.3897 8.62098 20.1989 8.7 20 8.7C19.8011 8.7 19.6103 8.62098 19.4697 8.48033C19.329 8.33968 19.25 8.14891 19.25 7.95V7C19.25 6.036 19.248 5.388 19.183 4.905C19.121 4.444 19.014 4.246 18.883 4.116C18.752 3.986 18.556 3.879 18.095 3.816C17.612 3.752 16.964 3.75 16 3.75H12.75V9C12.75 9.19891 12.671 9.38968 12.5303 9.53033C12.3897 9.67098 12.1989 9.75 12 9.75C11.8011 9.75 11.6103 9.67098 11.4697 9.53033C11.329 9.38968 11.25 9.19891 11.25 9V3.75H8C7.036 3.75 6.388 3.752 5.905 3.817C5.444 3.879 5.246 3.986 5.116 4.117C4.986 4.248 4.879 4.444 4.816 4.905C4.753 5.388 4.75 6.036 4.75 7V7.95C4.75 8.14891 4.67098 8.33968 4.53033 8.48033C4.38968 8.62098 4.19891 8.7 4 8.7C3.80109 8.7 3.61032 8.62098 3.46967 8.48033C3.32902 8.33968 3.25 8.14891 3.25 7.95V6.948C3.25 6.05 3.25 5.3 3.33 4.706C3.414 4.078 3.6 3.511 4.055 3.056C4.511 2.6 5.078 2.414 5.705 2.33C6.3 2.25 7.05 2.25 7.948 2.25ZM12 14.25C12.1989 14.25 12.3897 14.329 12.5303 14.4697C12.671 14.6103 12.75 14.8011 12.75 15V20.25H17C17.1989 20.25 17.3897 20.329 17.5303 20.4697C17.671 20.6103 17.75 20.8011 17.75 21C17.75 21.1989 17.671 21.3897 17.5303 21.5303C17.3897 21.671 17.1989 21.75 17 21.75H7C6.80109 21.75 6.61032 21.671 6.46967 21.5303C6.32902 21.3897 6.25 21.1989 6.25 21C6.25 20.8011 6.32902 20.6103 6.46967 20.4697C6.61032 20.329 6.80109 20.25 7 20.25H11.25V15C11.25 14.8011 11.329 14.6103 11.4697 14.4697C11.6103 14.329 11.8011 14.25 12 14.25ZM4 11.25C3.80109 11.25 3.61032 11.329 3.46967 11.4697C3.32902 11.6103 3.25 11.8011 3.25 12C3.25 12.1989 3.32902 12.3897 3.46967 12.5303C3.61032 12.671 3.80109 12.75 4 12.75H20C20.1989 12.75 20.3897 12.671 20.5303 12.5303C20.671 12.3897 20.75 12.1989 20.75 12C20.75 11.8011 20.671 11.6103 20.5303 11.4697C20.3897 11.329 20.1989 11.25 20 11.25H4Z" fill="black"/>
</g>
<defs>
<clipPath id="clip0_221_14497">
<rect width="24" height="24" fill="white"/>
</clipPath>
</defs>
</svg>
