<svg width="24" height="24" viewBox="0 0 24 24" fill="none" xmlns="http://www.w3.org/2000/svg">
<g clip-path="url(#clip0_221_14376)">
<path fill-rule="evenodd" clip-rule="evenodd" d="M8.46799 1.25H15.532C15.972 1.25 16.352 1.25 16.662 1.278C16.992 1.308 17.318 1.374 17.625 1.551C17.967 1.749 18.251 2.033 18.449 2.375C18.626 2.682 18.692 3.008 18.722 3.337C18.7327 3.46367 18.74 3.60133 18.744 3.75H19.069C19.493 3.75 19.848 3.75 20.139 3.769C20.442 3.789 20.729 3.831 21.007 3.941C21.3584 4.07928 21.6775 4.28844 21.9445 4.55545C22.2116 4.82247 22.4207 5.14161 22.559 5.493C22.669 5.772 22.711 6.058 22.731 6.361C22.75 6.652 22.75 7.007 22.75 7.431V7.575C22.75 8.234 22.751 8.746 22.593 9.193C22.3636 9.84277 21.8985 10.3827 21.29 10.706C20.871 10.929 20.364 11.004 19.714 11.101L19.594 11.119L15.518 11.731C14.686 11.855 14.132 11.94 13.721 12.056C13.331 12.166 13.162 12.28 13.053 12.406C12.923 12.556 12.836 12.766 12.79 13.26C12.9367 13.266 13.0723 13.277 13.197 13.293C13.553 13.341 13.928 13.453 14.237 13.763C14.546 14.073 14.659 14.447 14.707 14.803C14.75 15.126 14.75 15.523 14.75 15.955V20.045C14.75 20.478 14.75 20.875 14.707 21.197C14.659 21.553 14.547 21.928 14.237 22.237C13.927 22.546 13.553 22.659 13.197 22.707C12.874 22.75 12.477 22.75 12.045 22.75H11.955C11.522 22.75 11.125 22.75 10.803 22.707C10.447 22.659 10.072 22.547 9.76299 22.237C9.45399 21.927 9.34099 21.553 9.29299 21.197C9.24999 20.874 9.24999 20.477 9.24999 20.045V15.955C9.24999 15.522 9.24999 15.125 9.29299 14.803C9.34099 14.447 9.45299 14.072 9.76299 13.763C10.073 13.454 10.447 13.341 10.803 13.293C10.9497 13.2743 11.1097 13.2623 11.283 13.257C11.336 12.553 11.48 11.934 11.916 11.427C12.291 10.992 12.772 10.764 13.315 10.612C13.827 10.467 14.475 10.37 15.249 10.254L19.372 9.636C20.2 9.512 20.425 9.467 20.587 9.381C20.8634 9.23418 21.0746 8.98903 21.179 8.694C21.239 8.522 21.25 8.292 21.25 7.455C21.25 7 21.25 6.695 21.234 6.459C21.2319 6.31726 21.2083 6.17665 21.164 6.042C21.101 5.88231 21.0058 5.7373 20.8844 5.61601C20.7629 5.49471 20.6178 5.39974 20.458 5.337C20.384 5.307 20.271 5.281 20.041 5.266C19.7092 5.25094 19.3771 5.2456 19.045 5.25H18.745C18.7403 5.398 18.7327 5.53567 18.722 5.663C18.692 5.992 18.626 6.318 18.449 6.625C18.2514 6.96726 17.9672 7.25146 17.625 7.449C17.318 7.626 16.992 7.692 16.663 7.722C16.351 7.75 15.972 7.75 15.533 7.75H8.46699C8.02699 7.75 7.64699 7.75 7.33699 7.722C7.00699 7.692 6.68099 7.626 6.37399 7.449C6.03172 7.25146 5.74753 6.96726 5.54999 6.625C5.37299 6.318 5.30699 5.992 5.27699 5.663C5.26441 5.51196 5.25674 5.36054 5.25399 5.209C5.10644 5.1581 4.97845 5.06244 4.88786 4.93535C4.79726 4.80826 4.74857 4.65608 4.74857 4.5C4.74857 4.34392 4.79726 4.19174 4.88786 4.06465C4.97845 3.93756 5.10644 3.8419 5.25399 3.791C5.25732 3.62633 5.26499 3.475 5.27699 3.337C5.30699 3.008 5.37299 2.682 5.54999 2.375C5.74753 2.03274 6.03172 1.74854 6.37399 1.551C6.68099 1.374 7.00699 1.308 7.33599 1.278C7.64799 1.25 8.02699 1.25 8.46599 1.25M12.003 14.75H12C11.507 14.75 11.213 14.752 11.003 14.78C10.9424 14.7862 10.8829 14.8004 10.826 14.822L10.823 14.823L10.822 14.826L10.817 14.836C10.7979 14.8899 10.7854 14.946 10.78 15.003C10.752 15.213 10.75 15.507 10.75 16V20C10.75 20.493 10.752 20.787 10.78 20.997C10.7862 21.0576 10.8003 21.1171 10.822 21.174L10.823 21.177L10.826 21.178L10.836 21.183C10.858 21.192 10.906 21.207 11.003 21.22C11.213 21.248 11.507 21.25 12 21.25C12.493 21.25 12.787 21.248 12.997 21.22C13.054 21.2145 13.11 21.2021 13.164 21.183L13.172 21.179H13.174L13.177 21.177L13.178 21.174L13.183 21.164C13.2021 21.1101 13.2145 21.054 13.22 20.997C13.248 20.787 13.25 20.493 13.25 20V16C13.25 15.507 13.248 15.213 13.22 15.003C13.2137 14.9424 13.1996 14.8829 13.178 14.826L13.177 14.823L13.174 14.822L13.169 14.819L13.164 14.817C13.11 14.7979 13.054 14.7855 12.997 14.78C12.787 14.752 12.495 14.75 12.005 14.75M7.47299 2.772C7.24799 2.792 7.16599 2.827 7.12499 2.85C7.01073 2.91589 6.91588 3.01075 6.84999 3.125C6.82699 3.165 6.79199 3.248 6.77199 3.473C6.75099 3.708 6.74999 4.019 6.74999 4.5C6.74999 4.981 6.74999 5.292 6.77199 5.527C6.79199 5.752 6.82699 5.834 6.84999 5.875C6.91588 5.98925 7.01073 6.08411 7.12499 6.15C7.16499 6.173 7.24799 6.208 7.47299 6.228C7.70799 6.249 8.01899 6.25 8.49999 6.25H15.5C15.981 6.25 16.292 6.25 16.527 6.228C16.752 6.208 16.834 6.173 16.875 6.15C16.9889 6.08397 17.0834 5.98912 17.149 5.875C17.173 5.835 17.207 5.752 17.228 5.527C17.249 5.292 17.25 4.981 17.25 4.5C17.25 4.019 17.25 3.708 17.228 3.473C17.208 3.248 17.173 3.166 17.149 3.125C17.0834 3.01088 16.9889 2.91603 16.875 2.85C16.835 2.827 16.752 2.792 16.527 2.772C16.1851 2.75114 15.8425 2.7438 15.5 2.75H8.49999C8.01899 2.75 7.70799 2.75 7.47299 2.772Z" fill="black"/>
</g>
<defs>
<clipPath id="clip0_221_14376">
<rect width="24" height="24" fill="white"/>
</clipPath>
</defs>
</svg>
