<svg width="24" height="24" viewBox="0 0 24 24" fill="none" xmlns="http://www.w3.org/2000/svg">
<g clip-path="url(#clip0_221_14413)">
<path d="M7.948 2.25C7.05 2.25 6.3 2.25 5.706 2.33C5.078 2.414 4.511 2.6 4.056 3.055C3.6 3.511 3.414 4.078 3.33 4.705C3.25 5.3 3.25 6.05 3.25 6.948V7.95C3.25 8.14891 3.32902 8.33968 3.46967 8.48033C3.61032 8.62098 3.80109 8.7 4 8.7C4.19891 8.7 4.38968 8.62098 4.53033 8.48033C4.67098 8.33968 4.75 8.14891 4.75 7.95V7C4.75 6.036 4.752 5.388 4.817 4.905C4.879 4.444 4.986 4.246 5.117 4.116C5.248 3.986 5.444 3.879 5.905 3.816C6.388 3.753 7.036 3.75 8 3.75H11.25V20.25H7C6.80109 20.25 6.61032 20.329 6.46967 20.4697C6.32902 20.6103 6.25 20.8011 6.25 21C6.25 21.1989 6.32902 21.3897 6.46967 21.5303C6.61032 21.671 6.80109 21.75 7 21.75H17C17.1989 21.75 17.3897 21.671 17.5303 21.5303C17.671 21.3897 17.75 21.1989 17.75 21C17.75 20.8011 17.671 20.6103 17.5303 20.4697C17.3897 20.329 17.1989 20.25 17 20.25H12.75V3.75H16C16.964 3.75 17.612 3.752 18.095 3.817C18.556 3.879 18.754 3.986 18.884 4.117C19.014 4.248 19.121 4.444 19.184 4.905C19.248 5.388 19.25 6.036 19.25 7V7.95C19.25 8.14891 19.329 8.33968 19.4697 8.48033C19.6103 8.62098 19.8011 8.7 20 8.7C20.1989 8.7 20.3897 8.62098 20.5303 8.48033C20.671 8.33968 20.75 8.14891 20.75 7.95V6.948C20.75 6.05 20.75 5.3 20.67 4.706C20.586 4.078 20.4 3.511 19.944 3.056C19.489 2.6 18.922 2.414 18.294 2.33C17.7 2.25 16.951 2.25 16.052 2.25H7.948Z" fill="black"/>
</g>
<defs>
<clipPath id="clip0_221_14413">
<rect width="24" height="24" fill="white"/>
</clipPath>
</defs>
</svg>
