<svg width="24" height="24" viewBox="0 0 24 24" fill="none" xmlns="http://www.w3.org/2000/svg">
<g clip-path="url(#clip0_221_14364)">
<path fill-rule="evenodd" clip-rule="evenodd" d="M10.31 2.25H13.69C13.907 2.25 14.096 2.25 14.274 2.278C14.6207 2.33354 14.9496 2.46946 15.2344 2.67488C15.5192 2.8803 15.7519 3.14952 15.914 3.461C15.998 3.621 16.057 3.8 16.126 4.005L16.237 4.34L16.267 4.425C16.3575 4.67615 16.526 4.89174 16.7479 5.04019C16.9697 5.18865 17.2333 5.26217 17.5 5.25H20.5C20.6989 5.25 20.8897 5.32902 21.0303 5.46967C21.171 5.61032 21.25 5.80109 21.25 6C21.25 6.19891 21.171 6.38968 21.0303 6.53033C20.8897 6.67098 20.6989 6.75 20.5 6.75H3.5C3.30109 6.75 3.11032 6.67098 2.96967 6.53033C2.82902 6.38968 2.75 6.19891 2.75 6C2.75 5.80109 2.82902 5.61032 2.96967 5.46967C3.11032 5.32902 3.30109 5.25 3.5 5.25H6.59C6.8571 5.24359 7.11513 5.15177 7.32623 4.988C7.53733 4.82423 7.6904 4.59713 7.763 4.34L7.875 4.005C7.943 3.8 8.002 3.621 8.085 3.461C8.24719 3.1494 8.48009 2.8801 8.76505 2.67468C9.05001 2.46925 9.37911 2.3334 9.726 2.278C9.904 2.25 10.093 2.25 10.309 2.25M9.007 5.25C9.07626 5.11205 9.13476 4.96896 9.182 4.822L9.282 4.522C9.373 4.249 9.394 4.194 9.415 4.154C9.46898 4.05001 9.54658 3.96011 9.64157 3.89152C9.73657 3.82292 9.84631 3.77754 9.962 3.759C10.0923 3.74746 10.2233 3.74445 10.354 3.75H13.644C13.932 3.75 13.992 3.752 14.036 3.76C14.1516 3.77843 14.2613 3.82366 14.3563 3.89208C14.4512 3.9605 14.5289 4.05019 14.583 4.154C14.604 4.194 14.625 4.249 14.716 4.523L14.816 4.823L14.855 4.935C14.8943 5.04433 14.9397 5.14933 14.991 5.25H9.007Z" fill="black"/>
<path d="M5.91499 8.44999C5.90173 8.25147 5.81015 8.06636 5.6604 7.93536C5.51066 7.80437 5.315 7.73823 5.11649 7.75149C4.91798 7.76475 4.73286 7.85632 4.60187 8.00607C4.47087 8.15582 4.40473 8.35147 4.41799 8.54999L4.88199 15.502C4.96699 16.784 5.03599 17.82 5.19799 18.634C5.36699 19.479 5.65299 20.185 6.24499 20.738C6.83699 21.291 7.55999 21.531 8.41499 21.642C9.23699 21.75 10.275 21.75 11.561 21.75H12.44C13.725 21.75 14.764 21.75 15.586 21.642C16.44 21.531 17.164 21.292 17.756 20.738C18.347 20.185 18.633 19.478 18.802 18.634C18.964 17.821 19.032 16.784 19.118 15.502L19.582 8.54999C19.5953 8.35147 19.5291 8.15582 19.3981 8.00607C19.2671 7.85632 19.082 7.76475 18.8835 7.75149C18.685 7.73823 18.4893 7.80437 18.3396 7.93536C18.1898 8.06636 18.0983 8.25147 18.085 8.44999L17.625 15.35C17.535 16.697 17.471 17.635 17.331 18.34C17.194 19.025 17.004 19.387 16.731 19.643C16.457 19.899 16.083 20.065 15.391 20.155C14.678 20.248 13.738 20.25 12.387 20.25H11.613C10.263 20.25 9.32299 20.248 8.60899 20.155C7.91699 20.065 7.54299 19.899 7.26899 19.643C6.99599 19.387 6.80599 19.025 6.66899 18.341C6.52899 17.635 6.46499 16.697 6.37499 15.349L5.91499 8.44999Z" fill="black"/>
<path d="M9.42498 10.254C9.62282 10.2342 9.82044 10.2937 9.97439 10.4195C10.1283 10.5454 10.226 10.7272 10.246 10.925L10.746 15.925C10.7606 16.1201 10.6985 16.3132 10.5728 16.4631C10.4471 16.613 10.2678 16.7078 10.0731 16.7274C9.87846 16.7469 9.68387 16.6897 9.53084 16.5678C9.37782 16.4459 9.27847 16.2691 9.25398 16.075L8.75398 11.075C8.73416 10.8771 8.7937 10.6795 8.91953 10.5256C9.04535 10.3716 9.22716 10.2739 9.42498 10.254ZM14.575 10.254C14.7726 10.2739 14.9543 10.3715 15.0801 10.5252C15.2059 10.679 15.2655 10.8763 15.246 11.074L14.746 16.074C14.7212 16.2677 14.6218 16.4441 14.469 16.5657C14.3161 16.6873 14.1219 16.7445 13.9275 16.725C13.7332 16.7056 13.5541 16.6112 13.4283 16.4618C13.3025 16.3124 13.24 16.1198 13.254 15.925L13.754 10.925C13.7739 10.7274 13.8715 10.5457 14.0252 10.4199C14.179 10.2941 14.3773 10.2344 14.575 10.254Z" fill="black"/>
</g>
<defs>
<clipPath id="clip0_221_14364">
<rect width="24" height="24" fill="white"/>
</clipPath>
</defs>
</svg>
