<svg width="24" height="24" viewBox="0 0 24 24" fill="none" xmlns="http://www.w3.org/2000/svg">
<path fill-rule="evenodd" clip-rule="evenodd" d="M6.87929 9.91511V3.18767C6.87929 2.97402 7.05205 2.80127 7.26467 2.80127H16.8994C17.112 2.80127 17.2848 2.97402 17.2848 3.18767C17.2848 5.38449 17.2848 10.002 17.2848 10.002C17.2848 10.416 17.6211 10.7513 18.0351 10.7513C18.4481 10.7513 18.7844 10.416 18.7844 10.002C18.7844 10.002 18.7844 5.38449 18.7844 3.18767C18.7844 2.146 17.94 1.30264 16.8994 1.30264H7.26467C6.22402 1.30264 5.37963 2.146 5.37963 3.18767V9.91511C5.37963 10.3291 5.71596 10.6655 6.12997 10.6655C6.54296 10.6655 6.87929 10.3291 6.87929 9.91511Z" fill="black"/>
<path fill-rule="evenodd" clip-rule="evenodd" d="M18.4287 16.1294L18.4676 16.1304H19.36C19.9263 16.1304 20.4691 15.9055 20.8699 15.5048C21.2706 15.1041 21.4965 14.5603 21.4965 13.9939V11.3892C21.4965 10.2085 20.5397 9.25272 19.36 9.25272C16.1215 9.25272 8.09579 9.25272 4.85831 9.25272C4.29096 9.25272 3.74815 9.47761 3.34743 9.87833C2.9467 10.2791 2.72181 10.8219 2.72181 11.3892C2.72181 12.208 2.72181 13.2405 2.72181 14.0593C2.72181 15.239 3.67761 16.1958 4.85831 16.1958H5.81616C5.81616 16.1958 6.7873 14.6962 5.80287 14.6962H4.85831C4.50564 14.6962 4.22042 14.411 4.22042 14.0593V11.3892C4.22042 11.2195 4.2879 11.058 4.40751 10.9384C4.52711 10.8188 4.68862 10.7513 4.85831 10.7513C8.09579 10.7513 16.1215 10.7513 19.36 10.7513C19.7116 10.7513 19.9969 11.0376 19.9969 11.3892V13.9939C19.9969 14.1626 19.9294 14.3251 19.8098 14.4447C19.6902 14.5633 19.5287 14.6308 19.36 14.6308H18.4798C18.1026 14.6308 18.0127 14.8506 18.0444 15.1215C17.8471 14.8966 17.7183 15.1235 17.7183 15.3801C17.7183 15.7818 18.0331 16.109 18.4287 16.1294Z" fill="black"/>
<path fill-rule="evenodd" clip-rule="evenodd" d="M2.05835 13.4736H3.2186C3.63159 13.4736 3.96791 13.1373 3.96791 12.7243C3.96791 12.3103 3.63159 11.9739 3.2186 11.9739H2.05835C1.64536 11.9739 1.30904 12.3103 1.30904 12.7243C1.30904 13.1373 1.64536 13.4736 2.05835 13.4736Z" fill="black"/>
<path fill-rule="evenodd" clip-rule="evenodd" d="M9.53759 8.11285H14.7536C15.1673 8.11285 15.5028 7.77652 15.5028 7.36353C15.5028 6.94952 15.1673 6.61319 14.7536 6.61319H9.53759C9.12398 6.61319 8.78845 6.94952 8.78845 7.36353C8.78845 7.77652 9.12398 8.11285 9.53759 8.11285Z" fill="black"/>
<path fill-rule="evenodd" clip-rule="evenodd" d="M9.53944 5.44991H12.8139C13.2265 5.44991 13.5611 5.11359 13.5611 4.7006C13.5611 4.28659 13.2265 3.95026 12.8139 3.95026H9.53944C9.12688 3.95026 8.78931 4.28659 8.78931 4.7006C8.78931 5.11359 9.12688 5.44991 9.53944 5.44991Z" fill="black"/>
<path fill-rule="evenodd" clip-rule="evenodd" d="M20.8995 13.4736H22.0597C22.4727 13.4736 22.809 13.1373 22.809 12.7243C22.809 12.3103 22.4727 11.9739 22.0597 11.9739H20.8995C20.4865 11.9739 20.1502 12.3103 20.1502 12.7243C20.1502 13.1373 20.4865 13.4736 20.8995 13.4736Z" fill="black"/>
<path fill-rule="evenodd" clip-rule="evenodd" d="M6.52865 13.3345C6.21993 13.3345 5.94188 13.5247 5.83046 13.8129L2.77187 21.6761C2.68294 21.9061 2.71258 22.1668 2.85263 22.3712C2.99165 22.5747 3.22371 22.6973 3.4711 22.6973H20.8995C21.1489 22.6973 21.382 22.5736 21.522 22.3661C21.6611 22.1596 21.6887 21.8969 21.5946 21.6659L18.4103 13.8037C18.2958 13.5206 18.0208 13.3345 17.7152 13.3345H6.52865ZM7.04182 14.8342H17.2102L19.7873 21.1977H4.56695L7.04182 14.8342Z" fill="black"/>
<path fill-rule="evenodd" clip-rule="evenodd" d="M9.37359 14.0409C9.37359 14.0409 9.30204 15.4056 10.3018 16.2275C10.7127 16.5649 11.3067 16.8286 12.1858 16.8286C13.0844 16.8286 13.664 16.5516 14.0494 16.2061C14.9909 15.3637 14.7885 13.9663 14.7885 13.9663C14.7231 13.5584 14.3387 13.2794 13.9298 13.3448C13.5209 13.4092 13.2428 13.7946 13.3082 14.2024C13.3082 14.2024 13.4176 14.7596 13.0496 15.0898C12.8738 15.2472 12.5957 15.329 12.1858 15.329C11.7554 15.329 11.4549 15.2339 11.2535 15.0683C10.8262 14.7177 10.8702 14.1288 10.8702 14.1288C10.8947 13.7159 10.5788 13.3611 10.1658 13.3366C9.75285 13.3121 9.39812 13.6279 9.37359 14.0409Z" fill="black"/>
</svg>
