<svg width="24" height="24" viewBox="0 0 24 24" fill="none" xmlns="http://www.w3.org/2000/svg">
<g clip-path="url(#clip0_221_14460)">
<path fill-rule="evenodd" clip-rule="evenodd" d="M14.983 1.25H9C8.80109 1.25 8.61032 1.32902 8.46967 1.46967C8.32902 1.61032 8.25 1.80109 8.25 2C8.25 2.19891 8.32902 2.38968 8.46967 2.53033C8.61032 2.67098 8.80109 2.75 9 2.75H13.992L8.442 21.25H3C2.80109 21.25 2.61032 21.329 2.46967 21.4697C2.32902 21.6103 2.25 21.8011 2.25 22C2.25 22.1989 2.32902 22.3897 2.46967 22.5303C2.61032 22.671 2.80109 22.75 3 22.75H15C15.1989 22.75 15.3897 22.671 15.5303 22.5303C15.671 22.3897 15.75 22.1989 15.75 22C15.75 21.8011 15.671 21.6103 15.5303 21.4697C15.3897 21.329 15.1989 21.25 15 21.25H10.008L15.558 2.75H21C21.1989 2.75 21.3897 2.67098 21.5303 2.53033C21.671 2.38968 21.75 2.19891 21.75 2C21.75 1.80109 21.671 1.61032 21.5303 1.46967C21.3897 1.32902 21.1989 1.25 21 1.25H14.983Z" fill="black"/>
</g>
<defs>
<clipPath id="clip0_221_14460">
<rect width="24" height="24" fill="white"/>
</clipPath>
</defs>
</svg>
