<svg width="24" height="24" viewBox="0 0 24 24" fill="none" xmlns="http://www.w3.org/2000/svg">
<g clip-path="url(#clip0_221_14403)">
<path fill-rule="evenodd" clip-rule="evenodd" d="M1.25 6C1.25 4.74022 1.75044 3.53204 2.64124 2.64124C3.53204 1.75044 4.74022 1.25 6 1.25C7.25978 1.25 8.46796 1.75044 9.35876 2.64124C10.2496 3.53204 10.75 4.74022 10.75 6V6.432L12.783 4.399C13.2237 3.95639 13.7474 3.60505 14.3241 3.36508C14.9007 3.12512 15.5191 3.00124 16.1437 3.00055C16.7683 2.99985 17.3869 3.12236 17.9641 3.36104C18.5413 3.59973 19.0658 3.94991 19.5075 4.39154C19.9492 4.83317 20.2994 5.35758 20.5382 5.93474C20.777 6.51191 20.8996 7.1305 20.899 7.75511C20.8984 8.37971 20.7746 8.99807 20.5347 9.57478C20.2948 10.1515 19.9435 10.6752 19.501 11.116L17.367 13.25H18C18.6238 13.25 19.2415 13.3729 19.8177 13.6116C20.394 13.8503 20.9177 14.2002 21.3588 14.6412C21.7998 15.0823 22.1497 15.606 22.3884 16.1823C22.6271 16.7585 22.75 17.3762 22.75 18C22.75 18.6238 22.6271 19.2415 22.3884 19.8177C22.1497 20.394 21.7998 20.9177 21.3588 21.3588C20.9177 21.7998 20.394 22.1497 19.8177 22.3884C19.2415 22.6271 18.6238 22.75 18 22.75H6C4.74022 22.75 3.53204 22.2496 2.64124 21.3588C1.75044 20.468 1.25 19.2598 1.25 18V6ZM9.464 21.25H18C18.862 21.25 19.6886 20.9076 20.2981 20.2981C20.9076 19.6886 21.25 18.862 21.25 18C21.25 17.138 20.9076 16.3114 20.2981 15.7019C19.6886 15.0924 18.862 14.75 18 14.75H15.867L9.889 20.728C9.75922 20.9114 9.61723 21.0857 9.464 21.25ZM10.75 17.746L18.44 10.056C18.7418 9.75422 18.9813 9.39595 19.1447 9.00163C19.3081 8.60731 19.3922 8.18468 19.3922 7.75785C19.3923 7.33103 19.3082 6.90837 19.1449 6.51402C18.9816 6.11967 18.7423 5.76134 18.4405 5.4595C18.1387 5.15766 17.7804 4.91821 17.3861 4.75483C16.9918 4.59145 16.5692 4.50733 16.1424 4.50728C15.7155 4.50724 15.2929 4.59126 14.8985 4.75456C14.5042 4.91785 14.1458 5.15722 13.844 5.459L10.75 8.553V17.746ZM6 2.75C5.13805 2.75 4.3114 3.09241 3.7019 3.7019C3.09241 4.3114 2.75 5.13805 2.75 6V18C2.75 18.862 3.09241 19.6886 3.7019 20.2981C4.3114 20.9076 5.13805 21.25 6 21.25C6.86195 21.25 7.6886 20.9076 8.2981 20.2981C8.90759 19.6886 9.25 18.862 9.25 18V6C9.25 5.13805 8.90759 4.3114 8.2981 3.7019C7.6886 3.09241 6.86195 2.75 6 2.75ZM6 17.75C5.9337 17.75 5.87011 17.7763 5.82322 17.8232C5.77634 17.8701 5.75 17.9337 5.75 18C5.75 18.0663 5.77634 18.1299 5.82322 18.1768C5.87011 18.2237 5.9337 18.25 6 18.25C6.0663 18.25 6.12989 18.2237 6.17678 18.1768C6.22366 18.1299 6.25 18.0663 6.25 18C6.25 17.9337 6.22366 17.8701 6.17678 17.8232C6.12989 17.7763 6.0663 17.75 6 17.75ZM4.25 18C4.25 17.7702 4.29526 17.5426 4.38321 17.3303C4.47116 17.118 4.60006 16.9251 4.76256 16.7626C4.92507 16.6001 5.11798 16.4712 5.3303 16.3832C5.54262 16.2953 5.77019 16.25 6 16.25C6.22981 16.25 6.45738 16.2953 6.6697 16.3832C6.88202 16.4712 7.07493 16.6001 7.23744 16.7626C7.39994 16.9251 7.52884 17.118 7.61679 17.3303C7.70474 17.5426 7.75 17.7702 7.75 18C7.75 18.4641 7.56563 18.9092 7.23744 19.2374C6.90925 19.5656 6.46413 19.75 6 19.75C5.53587 19.75 5.09075 19.5656 4.76256 19.2374C4.43437 18.9092 4.25 18.4641 4.25 18Z" fill="black"/>
</g>
<defs>
<clipPath id="clip0_221_14403">
<rect width="24" height="24" fill="white"/>
</clipPath>
</defs>
</svg>
