<svg width="24" height="24" viewBox="0 0 24 24" fill="none" xmlns="http://www.w3.org/2000/svg">
<path fill-rule="evenodd" clip-rule="evenodd" d="M18.116 16.6466H6.14279C5.72666 16.6466 5.39087 16.9835 5.39087 17.3986C5.39087 17.8137 5.72666 18.1506 6.14279 18.1506H18.116C18.5322 18.1506 18.8679 17.8137 18.8679 17.3986C18.8679 16.9835 18.5322 16.6466 18.116 16.6466Z" fill="black"/>
<path fill-rule="evenodd" clip-rule="evenodd" d="M20.1496 21.4063H4.12098C3.70435 21.4063 3.36724 21.7432 3.36724 22.1583C3.36724 22.5734 3.70435 22.9103 4.12098 22.9103H20.1496C20.5663 22.9103 20.9034 22.5734 20.9034 22.1583C20.9034 21.7432 20.5663 21.4063 20.1496 21.4063Z" fill="black"/>
<path fill-rule="evenodd" clip-rule="evenodd" d="M22.13 11.4447H2.13666C1.72208 11.4447 1.38324 11.7816 1.38324 12.1967C1.38324 12.6118 1.72208 12.9487 2.13666 12.9487H22.13C22.5446 12.9487 22.8832 12.6118 22.8832 12.1967C22.8832 11.7816 22.5446 11.4447 22.13 11.4447Z" fill="black"/>
<path fill-rule="evenodd" clip-rule="evenodd" d="M18.116 6.42328L6.14279 6.42328C5.72666 6.42328 5.39087 6.76018 5.39087 7.17529C5.39087 7.5904 5.72666 7.9273 6.14279 7.9273L18.116 7.9273C18.5322 7.9273 18.8679 7.5904 18.8679 7.17529C18.8679 6.76018 18.5322 6.42328 18.116 6.42328Z" fill="black"/>
<path fill-rule="evenodd" clip-rule="evenodd" d="M20.1496 1.43799L4.12098 1.43799C3.70435 1.43799 3.36724 1.77489 3.36724 2.19C3.36724 2.60511 3.70435 2.94201 4.12098 2.94201L20.1496 2.94201C20.5663 2.94201 20.9034 2.60511 20.9034 2.19C20.9034 1.77489 20.5663 1.43799 20.1496 1.43799Z" fill="black"/>
</svg>
