<svg width="24" height="24" viewBox="0 0 24 24" fill="none" xmlns="http://www.w3.org/2000/svg">
<g clip-path="url(#clip0_221_14408)">
<path fill-rule="evenodd" clip-rule="evenodd" d="M10.723 3.2C10.776 3.00825 10.7507 2.80328 10.6527 2.63019C10.5546 2.45709 10.3918 2.33005 10.2 2.277C10.0082 2.22396 9.80328 2.24926 9.63018 2.34734C9.45709 2.44542 9.33004 2.60825 9.277 2.8L7.763 8.25H4C3.80109 8.25 3.61032 8.32902 3.46967 8.46967C3.32902 8.61032 3.25 8.80109 3.25 9C3.25 9.19891 3.32902 9.38968 3.46967 9.53033C3.61032 9.67098 3.80109 9.75 4 9.75H7.347L5.819 15.25H2C1.80109 15.25 1.61032 15.329 1.46967 15.4697C1.32902 15.6103 1.25 15.8011 1.25 16C1.25 16.1989 1.32902 16.3897 1.46967 16.5303C1.61032 16.671 1.80109 16.75 2 16.75H5.402L4.277 20.8C4.22396 20.9918 4.24926 21.1967 4.34734 21.3698C4.44542 21.5429 4.60825 21.67 4.8 21.723C4.99175 21.776 5.19672 21.7507 5.36982 21.6527C5.54291 21.5546 5.66996 21.3918 5.723 21.2L6.959 16.75H14.402L13.277 20.8C13.224 20.9918 13.2493 21.1967 13.3473 21.3698C13.4454 21.5429 13.6082 21.67 13.8 21.723C13.9918 21.776 14.1967 21.7507 14.3698 21.6527C14.5429 21.5546 14.67 21.3918 14.723 21.2L15.959 16.75H20C20.1989 16.75 20.3897 16.671 20.5303 16.5303C20.671 16.3897 20.75 16.1989 20.75 16C20.75 15.8011 20.671 15.6103 20.5303 15.4697C20.3897 15.329 20.1989 15.25 20 15.25H16.376L17.903 9.75H22C22.1989 9.75 22.3897 9.67098 22.5303 9.53033C22.671 9.38968 22.75 9.19891 22.75 9C22.75 8.80109 22.671 8.61032 22.5303 8.46967C22.3897 8.32902 22.1989 8.25 22 8.25H18.32L19.723 3.2C19.7493 3.10506 19.7566 3.00587 19.7445 2.9081C19.7324 2.81033 19.7012 2.71589 19.6527 2.63019C19.6041 2.54448 19.5391 2.46917 19.4615 2.40857C19.3838 2.34797 19.2949 2.30327 19.2 2.277C19.1051 2.25074 19.0059 2.24343 18.9081 2.2555C18.8103 2.26757 18.7159 2.29878 18.6302 2.34734C18.5445 2.39591 18.4692 2.46088 18.4086 2.53855C18.348 2.61621 18.3033 2.70506 18.277 2.8L16.763 8.25H9.32L10.723 3.2ZM14.819 15.25L16.347 9.75H8.903L7.376 15.25H14.819Z" fill="black"/>
</g>
<defs>
<clipPath id="clip0_221_14408">
<rect width="24" height="24" fill="white"/>
</clipPath>
</defs>
</svg>
