<svg width="24" height="24" viewBox="0 0 24 24" fill="none" xmlns="http://www.w3.org/2000/svg">
<path fill-rule="evenodd" clip-rule="evenodd" d="M13.7757 12.438V9.31801C13.7757 8.87383 14.1362 8.51333 14.5804 8.51333C15.0235 8.51333 15.3851 8.87383 15.3851 9.31801V12.9101C15.5245 13.0045 15.6554 13.1129 15.7767 13.2341C16.2863 13.7438 16.5728 14.4358 16.5728 15.1568C16.5728 15.8778 16.2863 16.5698 15.7767 17.0794C15.6554 17.2007 15.5245 17.309 15.3851 17.4045V20.1834C15.3851 20.4505 15.4912 20.708 15.6801 20.8979C15.87 21.0868 16.1264 21.1929 16.3946 21.1929H16.9858C17.3893 21.1929 17.798 21.5084 17.798 21.9976C17.798 22.4279 17.46 22.7798 17.0352 22.8013L16.3946 22.8023C15.7005 22.8023 15.0342 22.5266 14.5428 22.0352C14.0514 21.5438 13.7757 20.8775 13.7757 20.1834V17.8766H12.78C12.7961 17.9388 12.8047 18.0053 12.8047 18.0729V21.9976C12.8047 22.4418 12.4442 22.8023 12 22.8023C11.5558 22.8023 11.1953 22.4418 11.1953 21.9976V18.0729C11.1953 18.0053 11.2039 17.9388 11.22 17.8766H10.1353V20.1834C10.1353 20.8775 9.85955 21.5438 9.36816 22.0352C8.87677 22.5266 8.2105 22.8023 7.51526 22.8023L6.87579 22.8013C6.44985 22.7798 6.11191 22.4279 6.11191 21.9976C6.11191 21.5084 6.52172 21.1929 6.92406 21.1929H7.51526C7.78348 21.1929 8.041 21.0868 8.22983 20.8979C8.41973 20.708 8.52595 20.4505 8.52595 20.1834V17.3659C8.40686 17.28 8.29422 17.1846 8.19015 17.0794C7.67944 16.5698 7.39293 15.8788 7.39293 15.1578C7.39293 14.4368 7.67944 13.7438 8.19015 13.2341C8.29422 13.129 8.40686 13.0335 8.52595 12.9488V9.31801C8.52595 8.87383 8.88645 8.51333 9.33064 8.51333C9.77482 8.51333 10.1353 8.87383 10.1353 9.31801V12.438H11.1953V9.31801C11.1953 8.87383 11.5558 8.51333 12 8.51333C12.4442 8.51333 12.8047 8.87383 12.8047 9.31801V12.438H13.7757ZM14.9634 15.1568C14.9634 15.4508 14.8464 15.734 14.6383 15.9422C14.4301 16.1503 14.148 16.2672 13.854 16.2672C12.7082 16.2672 11.2575 16.2672 10.1117 16.2672C9.8177 16.2672 9.53557 16.1503 9.32743 15.9422C9.11928 15.734 9.00229 15.4518 9.00229 15.1578C9.00229 14.8639 9.11928 14.5806 9.32743 14.3725C9.53557 14.1643 9.8177 14.0474 10.1117 14.0474C11.2575 14.0474 12.7082 14.0474 13.854 14.0474C14.148 14.0474 14.4301 14.1643 14.6383 14.3725C14.8464 14.5806 14.9634 14.8628 14.9634 15.1568ZM9.26305 1.30231H14.737C15.164 1.30231 15.5739 1.47185 15.8753 1.77334C16.1768 2.0759 16.3464 2.48465 16.3464 2.91167H18.5383C19.7142 2.91167 20.667 3.86549 20.667 5.04033V5.56283H20.8816C21.8879 5.56283 22.7033 6.37931 22.7033 7.38463V8.38563C22.7033 9.02616 22.4491 9.63987 21.9963 10.0926C21.5435 10.5454 20.9298 10.7997 20.2893 10.7997C19.0994 10.7997 17.6843 10.7997 17.6843 10.7997C17.2401 10.7997 16.8796 10.4392 16.8796 9.995C16.8796 9.55081 17.2401 9.19031 17.6843 9.19031H20.2893C20.5028 9.19031 20.7077 9.10559 20.859 8.95431C21.0092 8.8041 21.094 8.59914 21.094 8.38563V7.38463C21.094 7.26768 20.9996 7.17219 20.8816 7.17219H19.8623C19.4181 7.17219 19.0576 6.81277 19.0576 6.36751V5.04033C19.0576 4.75386 18.8258 4.52103 18.5383 4.52103H15.6704C15.1554 4.52103 14.737 4.10367 14.737 3.58761V2.91167H9.26305V3.58761C9.26305 4.10367 8.84456 4.52103 8.32956 4.52103H5.46171C5.17417 4.52103 4.94241 4.75386 4.94241 5.04033V6.36751C4.94241 6.81277 4.58192 7.17219 4.13773 7.17219H3.11846C3.00044 7.17219 2.90602 7.26768 2.90602 7.38463V8.38563C2.90602 8.59914 2.99078 8.8041 3.14098 8.95431C3.29226 9.10559 3.4972 9.19031 3.7107 9.19031H6.31577C6.75995 9.19031 7.12045 9.55081 7.12045 9.995C7.12045 10.4392 6.75995 10.7997 6.31577 10.7997C6.31577 10.7997 4.90056 10.7997 3.7107 10.7997C3.07018 10.7997 2.45647 10.5454 2.0037 10.0926C1.55094 9.63987 1.29666 9.02616 1.29666 8.38563V7.38463C1.29666 6.37931 2.11207 5.56283 3.11846 5.56283H3.33305V5.04033C3.33305 3.86549 4.2858 2.91167 5.46171 2.91167H7.65369C7.65369 2.48465 7.82317 2.0759 8.12466 1.77334C8.42615 1.47185 8.83604 1.30231 9.26305 1.30231Z" fill="black"/>
</svg>
