<svg width="24" height="24" viewBox="0 0 24 24" fill="none" xmlns="http://www.w3.org/2000/svg">
<path fill-rule="evenodd" clip-rule="evenodd" d="M11.166 18.0522V21.6041C11.166 22.0511 11.5288 22.4138 11.9757 22.4138C12.4227 22.4138 12.7854 22.0511 12.7854 21.6041V18.1591C15.7338 19.1826 17.8185 16.8193 18.3734 16.0928C18.8106 15.879 19.8481 15.3155 20.7172 14.4054C21.529 13.5568 22.1865 12.4211 22.1865 11.0165C22.1865 8.37479 20.3091 6.76836 19.4616 6.17782C19.2241 3.5177 16.9062 2.82784 16.0555 2.66374C14.7794 1.45999 13.526 0.998984 12.4043 0.924492C10.2321 0.779827 8.50917 2.14339 7.87544 2.73069C6.75051 2.79007 6.02173 3.14955 5.54131 3.58895C4.80935 4.25937 4.63232 5.17701 4.61828 5.85284C4.14974 5.96727 3.57323 6.21129 3.05826 6.72302C2.40619 7.37078 1.81348 8.47951 1.81348 10.4314C1.81348 14.3201 4.62153 15.8164 5.62987 16.2288C6.64037 18.1192 8.31482 18.4787 9.77119 18.3405C10.2808 18.2919 10.7612 18.1775 11.166 18.0522ZM12.7854 16.394C15.4131 17.7391 17.1621 15.0078 17.1621 15.0078C17.2506 14.8717 17.3769 14.766 17.5259 14.7023C17.5259 14.7023 18.6487 14.2262 19.5469 13.2858C20.0932 12.7147 20.5671 11.9623 20.5671 11.0165C20.5671 8.554 18.2902 7.34703 18.2902 7.34703C18.0268 7.20668 17.8627 6.93137 17.8627 6.63341C17.8627 4.41484 15.6085 4.23022 15.6085 4.23022C15.4174 4.21402 15.2393 4.13092 15.1044 3.99597C14.1155 3.00706 13.1622 2.59787 12.2963 2.54065C10.2872 2.4057 8.81897 4.07043 8.81897 4.07043C8.66459 4.24208 8.44541 4.34032 8.21545 4.34032C7.44462 4.34032 6.94265 4.50228 6.63389 4.78405C5.98721 5.37567 6.26574 6.37214 6.26574 6.37214C6.32836 6.62476 6.26576 6.89252 6.09627 7.09116C5.92677 7.28981 5.67199 7.39452 5.41289 7.37292C5.41289 7.37292 4.74136 7.33295 4.1994 7.87167C3.75353 8.3143 3.43287 9.09812 3.43287 10.4314C3.43287 13.9001 6.43739 14.8026 6.43739 14.8026C6.66303 14.8685 6.84978 15.0294 6.94695 15.2431C7.56015 16.5829 8.66889 16.8183 9.61786 16.7276C10.2386 16.6693 10.8011 16.4847 11.166 16.3389V12.3455C10.2268 12.19 9.51533 11.661 8.98957 11.0208C8.07515 9.90993 7.7718 8.45574 7.7718 8.45574C7.68111 8.01851 7.96177 7.58881 8.40009 7.49812C8.83732 7.40743 9.26594 7.68924 9.35771 8.12648C9.35771 8.12648 9.51425 8.86704 9.95365 9.58713C10.2246 10.0298 10.6089 10.4821 11.166 10.6743V8.34992C11.166 7.90297 11.5288 7.54023 11.9757 7.54023C12.4227 7.54023 12.7854 7.90297 12.7854 8.34992V13.3895C13.3425 13.2891 13.7722 13.0829 14.1004 12.813C15.1843 11.9234 15.168 10.4357 15.168 10.4357C15.1648 9.98875 15.5265 9.62388 15.9724 9.62172C16.4193 9.61848 16.7842 9.97906 16.7874 10.426C16.7874 10.426 16.7918 12.6985 15.1281 14.0653C14.5635 14.5284 13.8078 14.8998 12.7854 15.0283V16.394Z" fill="black"/>
</svg>
