<svg width="24" height="24" viewBox="0 0 24 24" fill="none" xmlns="http://www.w3.org/2000/svg">
<path fill-rule="evenodd" clip-rule="evenodd" d="M11.2849 15.0341V18.0816C11.0923 17.9021 10.8778 17.729 10.6383 17.5668C9.31156 16.6721 7.15873 16.0855 3.64969 16.8158C3.4331 16.8615 3.2437 16.9922 3.12615 17.1794C3.00751 17.3677 2.97051 17.594 3.02384 17.8095C3.02384 17.8095 3.54409 19.9972 5.71982 21.3882C7.07707 22.2557 9.10042 22.8391 12.0946 22.2742C15.0954 22.8423 17.122 22.2589 18.4815 21.3904C20.6583 19.9994 21.1785 17.8117 21.1785 17.8117C21.2308 17.5973 21.1948 17.3698 21.0762 17.1815C20.9576 16.9943 20.7693 16.8637 20.5516 16.818C17.0426 16.0877 14.8908 16.6743 13.564 17.569C13.3246 17.7312 13.1091 17.9042 12.9175 18.0838V15.0809C13.1265 15.2311 13.3594 15.3508 13.6075 15.4357C14.29 15.6686 15.0377 15.6175 15.6821 15.2931C15.7267 15.2714 15.768 15.2452 15.8083 15.2147C15.9824 15.083 16.1707 14.9764 16.3514 14.8589C16.3525 14.8578 16.3547 14.8567 16.3558 14.8556C16.9501 14.466 17.3615 13.8543 17.4986 13.1577C17.626 12.5112 17.5073 11.8429 17.1688 11.2823C17.1623 11.2606 17.1546 11.2399 17.1459 11.2192C17.8382 11.2541 18.5196 11.0178 19.0431 10.5607C19.5873 10.0861 19.9159 9.41248 19.9573 8.69305C19.9606 8.64298 19.9584 8.59289 19.953 8.54391C19.9258 8.32623 19.9269 8.11071 19.916 7.89521C19.916 7.89412 19.916 7.89194 19.916 7.88976C19.8757 7.1812 19.5513 6.5184 19.0158 6.05147C18.5206 5.61828 17.8828 5.38754 17.2298 5.39952C17.2069 5.39407 17.1841 5.39076 17.1612 5.38749C17.5378 4.8041 17.6738 4.09771 17.5399 3.41528C17.4006 2.70672 16.9816 2.08524 16.3787 1.68906C16.3373 1.66185 16.2938 1.63795 16.2481 1.61944C16.0456 1.53455 15.8606 1.42464 15.6679 1.32668C15.6668 1.32559 15.6646 1.32445 15.6635 1.32336C15.029 1.00445 14.2922 0.954398 13.6206 1.18405C12.9741 1.405 12.4386 1.86757 12.1262 2.47382C11.8106 1.84907 11.2631 1.37125 10.5992 1.14486C9.91677 0.91085 9.16902 0.962011 8.52469 1.28636C8.48006 1.30921 8.43758 1.33536 8.3984 1.36475C8.22425 1.49753 8.036 1.60422 7.85532 1.72068C7.85315 1.72177 7.85205 1.72285 7.84988 1.72394C7.25669 2.11359 6.84526 2.72634 6.70812 3.42292C6.57534 4.09338 6.7092 4.78779 7.07708 5.36138C6.37941 5.3222 5.69157 5.55836 5.1626 6.01985C4.61948 6.4944 4.28966 7.16704 4.24831 7.88757C4.24613 7.93654 4.24722 7.98666 4.25375 8.03564C4.28096 8.25332 4.27881 8.46877 4.28969 8.68428C4.29078 8.68645 4.29076 8.68864 4.29076 8.68972C4.33103 9.39937 4.6554 10.0622 5.1909 10.5291C5.70572 10.9787 6.37288 11.2105 7.05423 11.1778C6.67111 11.7634 6.53177 12.4774 6.66674 13.1653C6.80605 13.8727 7.22405 14.4953 7.82702 14.8904C7.86838 14.9176 7.91298 14.9416 7.95869 14.9612C8.16005 15.0461 8.34619 15.1549 8.53884 15.2539C8.53992 15.2539 8.54207 15.255 8.54315 15.2561C9.1777 15.575 9.91348 15.6262 10.5861 15.3966C10.8375 15.3106 11.0727 15.1876 11.2849 15.0341ZM13.0742 20.7787C13.2571 20.2334 13.6489 19.4813 14.4772 18.923C15.4372 18.2754 16.9315 17.9097 19.2455 18.2438C18.9538 18.7793 18.4444 19.4759 17.602 20.0147C16.6007 20.6546 15.1498 21.0519 13.0742 20.7787ZM11.1271 20.7766C9.05256 21.0487 7.60058 20.6525 6.59924 20.0125C5.75681 19.4737 5.24858 18.7771 4.9558 18.2416C7.26976 17.9075 8.76519 18.2732 9.72517 18.9208C10.5534 19.4792 10.9442 20.2313 11.1271 20.7766ZM16.9391 7.01253C17.024 7.03321 17.1111 7.04079 17.1993 7.03426C17.4703 7.01358 17.7381 7.10175 17.9416 7.28025C18.1462 7.45875 18.2703 7.71128 18.2855 7.9823C18.2975 8.2076 18.2997 8.43395 18.3236 8.66142C18.2921 8.91938 18.1669 9.15888 17.9699 9.33085C17.7566 9.51697 17.4779 9.60838 17.196 9.58661L16.9664 9.57027C16.4287 9.52782 15.903 9.79556 15.6135 10.2625C15.6048 10.2745 15.5971 10.2875 15.5895 10.3017C15.312 10.7817 15.3283 11.376 15.6277 11.8396C15.6516 11.9234 15.6897 12.0029 15.7387 12.0758C15.8921 12.2989 15.9498 12.5754 15.8965 12.842C15.8443 13.1076 15.6875 13.3416 15.4611 13.4907C15.2717 13.6126 15.0769 13.728 14.8919 13.8619C14.6524 13.9642 14.3825 13.975 14.1354 13.8912C13.8677 13.7998 13.6489 13.6039 13.527 13.3492L13.429 13.1457C13.1972 12.6624 12.7085 12.3403 12.1643 12.3163C12.1469 12.3153 12.1284 12.3141 12.111 12.3141C11.5559 12.3163 11.0476 12.6254 10.7919 13.1163C10.732 13.1794 10.6808 13.2513 10.6427 13.3307C10.5252 13.5756 10.3151 13.7639 10.0583 13.851C9.80139 13.9391 9.52057 13.9196 9.27895 13.7988C9.07759 13.6954 8.88061 13.5843 8.67163 13.4907C8.46375 13.3351 8.31893 13.1065 8.26886 12.8497C8.21444 12.5732 8.27321 12.2859 8.43321 12.0519L8.80111 11.5164C8.99375 11.2388 8.9927 10.8655 8.79679 10.5857C8.68142 10.4192 8.57693 10.2418 8.48768 10.0579C8.32225 9.71938 7.96524 9.51367 7.58648 9.54197C7.58648 9.54197 7.58537 9.54197 7.58428 9.54197C7.50157 9.5485 7.33609 9.56268 7.138 9.54636C7.09446 9.542 7.05093 9.54196 7.0074 9.54523C6.73638 9.56699 6.46865 9.47773 6.26403 9.29923C6.0605 9.12073 5.93644 8.86824 5.92011 8.59831C5.90923 8.37192 5.90597 8.1466 5.88311 7.91912C5.91468 7.66008 6.03986 7.42173 6.23686 7.24976C6.45019 7.06364 6.72878 6.97117 7.00959 6.99294L7.65065 7.04296C7.75623 7.05167 7.86293 7.0408 7.96633 7.00815C8.18401 6.94067 8.35815 6.79808 8.48549 6.6087C8.65311 6.35836 9.16901 5.59319 8.80004 5.06204C8.7761 5.02722 8.65091 4.83677 8.51485 4.58208C8.5007 4.55596 8.48441 4.52985 8.46809 4.50482C8.31462 4.28061 8.25694 4.00417 8.30918 3.7386C8.36143 3.47194 8.51925 3.23901 8.74564 3.0899C8.93502 2.96691 9.1287 2.85149 9.31482 2.71762C9.55427 2.61531 9.8242 2.60442 10.0713 2.68932C10.339 2.78075 10.5578 2.97558 10.6797 3.23027L10.929 3.75056C11.0922 4.09341 11.4492 4.30125 11.828 4.27404C12.0304 4.26098 12.2361 4.26207 12.4397 4.27948C12.7771 4.30778 13.0971 4.12493 13.2451 3.82018C13.2451 3.81909 13.2462 3.81801 13.2462 3.81692C13.2549 3.79951 13.3561 3.58726 13.5183 3.33257C13.5346 3.30536 13.5499 3.2771 13.564 3.2488C13.6805 3.00391 13.8916 2.81667 14.1485 2.72851C14.4054 2.64144 14.6862 2.65996 14.9278 2.78186C15.1292 2.88417 15.3262 2.99517 15.534 3.08877C15.743 3.2455 15.8867 3.47297 15.9378 3.72983C15.9922 4.00738 15.9324 4.29475 15.7724 4.52767L15.6494 4.70943C15.3054 5.20465 15.3163 5.83705 15.5873 6.27568C15.8649 6.75567 16.3873 7.03866 16.9391 7.01253ZM12.9283 13.0902C12.9283 13.0902 12.9295 13.0945 12.9295 13.1283L12.9283 13.0902ZM10.8376 13.0728C10.8474 13.063 10.8593 13.0532 10.8713 13.0434C10.8833 13.0347 10.8963 13.0249 10.9104 13.0151C10.8854 13.0325 10.8604 13.0521 10.8376 13.0728ZM13.49 5.88818C12.1643 5.12194 10.4664 5.57691 9.70125 6.90259C8.93501 8.22936 9.38995 9.92728 10.7167 10.6924C12.0424 11.4576 13.7403 11.0026 14.5055 9.67696C15.2706 8.35128 14.8157 6.65334 13.49 5.88818ZM12.6737 7.30204C13.219 7.61659 13.4062 8.31536 13.0916 8.86065C12.7771 9.40594 12.0783 9.59312 11.533 9.27857C10.9866 8.96293 10.7995 8.26528 11.1151 7.7189C11.4297 7.1736 12.1284 6.9864 12.6737 7.30204Z" fill="black"/>
</svg>
