<svg width="24" height="24" viewBox="0 0 24 24" fill="none" xmlns="http://www.w3.org/2000/svg">
<g clip-path="url(#clip0_221_14645)">
<path fill-rule="evenodd" clip-rule="evenodd" d="M10.22 1.64603C10.7772 1.38532 11.3848 1.25018 12 1.25018C12.6152 1.25018 13.2228 1.38532 13.78 1.64603C15.956 2.66303 17.694 4.56603 18.884 6.75803C20.076 8.95203 20.75 11.492 20.75 13.857C20.75 18.756 16.845 22.75 12 22.75C7.155 22.75 3.25 18.756 3.25 13.857C3.25 11.492 3.924 8.95203 5.116 6.75803C6.306 4.56703 8.044 2.66303 10.22 1.64603ZM11.25 2.85603C11.115 2.89636 10.983 2.94615 10.855 3.00503C9.046 3.85003 7.516 5.48103 6.434 7.47403C5.353 9.46403 4.75 11.76 4.75 13.857C4.75 17.693 7.608 20.828 11.25 21.211V2.85603ZM12.75 2.85603V7.19003L15.378 4.56203C14.7232 3.92542 13.969 3.39986 13.145 3.00603C13.017 2.94715 12.885 2.89736 12.75 2.85703M16.386 5.67503L12.75 9.31103V12.689L17.704 7.73503L17.566 7.47403C17.2243 6.84172 16.8296 6.23956 16.386 5.67403M18.358 9.20303L12.75 14.81V17.688L18.97 11.468L19.017 11.517C18.8639 10.7278 18.6431 9.95331 18.357 9.20203M19.237 13.322L12.749 19.81V21.21C16.391 20.827 19.249 17.692 19.249 13.856C19.249 13.6794 19.2457 13.5014 19.237 13.322Z" fill="black"/>
</g>
<defs>
<clipPath id="clip0_221_14645">
<rect width="24" height="24" fill="white"/>
</clipPath>
</defs>
</svg>
