<svg width="24" height="24" viewBox="0 0 24 24" fill="none" xmlns="http://www.w3.org/2000/svg">
<path fill-rule="evenodd" clip-rule="evenodd" d="M11.3855 19.9485V21.6724C11.3855 22.1293 11.7564 22.5001 12.2133 22.5001C12.6702 22.5001 13.041 22.1293 13.041 21.6724V19.9485H17.5637C18.2601 19.9485 18.8981 19.56 19.2181 18.942C19.5382 18.3239 19.4874 17.579 19.0846 17.0095L16.8221 13.8078C17.2415 13.7151 17.6057 13.4403 17.8088 13.0496C18.0615 12.5629 18.0228 11.9747 17.7072 11.5255L15.5584 8.46504C15.9491 8.36241 16.2857 8.09752 16.4766 7.7267C16.725 7.2444 16.683 6.66279 16.3663 6.22022C16.3663 6.22022 12.945 1.43145 12.9373 1.41931C12.8512 1.26811 12.7165 1.14234 12.5476 1.0695C12.3059 0.963549 12.0377 0.982302 11.8181 1.1015L11.7916 1.11692C11.668 1.18866 11.5632 1.29242 11.4893 1.42375L8.06023 6.22022C7.74348 6.66279 7.7015 7.2444 7.94982 7.7267C8.14075 8.09752 8.4774 8.36241 8.86809 8.46504L6.71926 11.5255C6.40362 11.9747 6.36501 12.5629 6.61775 13.0496C6.82082 13.4403 7.185 13.7151 7.60439 13.8078L5.34192 17.0095C4.94019 17.579 4.88829 18.3239 5.20834 18.942C5.5284 19.56 6.16744 19.9485 6.86274 19.9485H11.3855ZM14.8212 6.90556C14.4305 7.00599 14.095 7.26865 13.904 7.63616C13.6557 8.11404 13.6933 8.6913 14.0034 9.13165L16.1753 12.2241C15.7548 12.3179 15.3918 12.5927 15.1887 12.9845C14.9359 13.4734 14.9756 14.0638 15.2935 14.513L17.7326 17.9652C17.7778 18.0281 17.7833 18.112 17.748 18.1805C17.7116 18.25 17.641 18.293 17.5637 18.293H6.86274C6.78549 18.293 6.71486 18.25 6.67844 18.1805C6.64312 18.112 6.64862 18.0281 6.69387 17.9652L9.13296 14.513C9.45081 14.0638 9.49161 13.4734 9.23777 12.9845C9.0347 12.5927 8.67166 12.3179 8.25227 12.2241L10.4231 9.13165C10.7333 8.6913 10.7719 8.11404 10.5236 7.63616C10.3315 7.26865 9.99599 7.00599 9.6053 6.90556L12.2133 3.25693L14.8212 6.90556ZM12.6194 1.11584L12.572 1.09153C12.5885 1.09925 12.6039 1.10701 12.6194 1.11584Z" fill="black"/>
</svg>
