<svg width="24" height="24" viewBox="0 0 24 24" fill="none" xmlns="http://www.w3.org/2000/svg">
<path fill-rule="evenodd" clip-rule="evenodd" d="M13.0286 9.41812L13.0173 9.42379C12.6774 9.55182 12.3715 9.74666 12.1109 9.99704C11.9863 10.1251 11.8617 10.2667 11.7597 10.4174L7.35256 17.035L6.8201 16.4277C6.48022 16.0402 5.98164 15.834 5.46048 15.8714C4.95066 15.9088 4.48617 16.1852 4.20293 16.618L1.55187 20.7442C1.27996 21.1623 1.25725 21.6947 1.49517 22.132C1.73309 22.5694 2.19766 22.8413 2.69616 22.8413H20.7893C21.4804 22.8413 22.1148 22.4617 22.4434 21.8545C22.7719 21.2472 22.738 20.5086 22.3641 19.9319L16.1102 10.4321C15.7817 9.92797 15.2945 9.56089 14.7281 9.38189V7.91128H19.8942C20.4154 7.91128 20.9027 7.62692 21.1406 7.17034C21.3898 6.71377 21.3785 6.1575 21.0952 5.72131L20.4607 4.73676L21.1858 3.46787C21.435 3.02828 21.435 2.48785 21.1858 2.0494C20.9252 1.61095 20.4608 1.34131 19.9509 1.34131H13.8783C13.4138 1.34131 13.0286 1.72198 13.0286 2.19102V9.41812ZM9.53907 16.8185L6.71804 21.049C6.70671 21.0671 6.69537 21.0909 6.7067 21.1101C6.71803 21.1294 6.74074 21.1419 6.7634 21.1419H20.7893C20.8573 21.1419 20.9139 21.1056 20.9479 21.0478C20.9819 20.9901 20.9819 20.9209 20.9366 20.8654L18.3534 16.9239L17.5604 17.6637C16.8127 18.3707 15.6684 18.4353 14.8413 17.8144L14.3768 17.4598C14.2295 17.3533 14.037 17.3488 13.8897 17.4485L13.1986 17.9254C12.4055 18.4703 11.3405 18.4058 10.6155 17.7668L9.53907 16.8185ZM6.3669 18.4998L5.59643 17.6071L3.3192 21.1419H5.00728C4.99595 20.7805 5.0866 20.4168 5.30186 20.1052L6.3669 18.4998ZM17.4018 15.4816L14.694 11.3657C14.5241 11.1119 14.2408 10.9578 13.9349 10.9566C13.629 10.9555 13.3459 11.1074 13.1759 11.3612L10.4908 15.3922L11.7371 16.4923C11.873 16.6169 12.0882 16.6293 12.2355 16.5228L12.9379 16.0458C13.6857 15.5337 14.6714 15.5564 15.3965 16.1036L15.8723 16.4582C16.031 16.5783 16.2575 16.5659 16.3935 16.4288L17.4018 15.4816ZM14.7281 6.21186H19.3845L18.9426 5.51511C18.648 5.06873 18.6366 4.50001 18.8972 4.0389L19.475 3.04073H14.7281V6.21186Z" fill="black"/>
</svg>
