<svg width="24" height="24" viewBox="0 0 24 24" fill="none" xmlns="http://www.w3.org/2000/svg">
<g clip-path="url(#clip0_221_14625)">
<path fill-rule="evenodd" clip-rule="evenodd" d="M5.578 5.343C4.22754 6.64551 3.30509 8.32791 2.9331 10.1669C2.5611 12.0059 2.75714 13.9145 3.49519 15.6395C4.23325 17.3645 5.47842 18.8243 7.06546 19.8251C8.65249 20.8259 10.5064 21.3204 12.381 21.243C12.175 20.331 12.147 19.105 12.774 17.924C13.426 16.695 14.776 16.162 15.769 15.918C16.3911 15.7675 17.0272 15.6824 17.667 15.664H17.71C19.383 15.646 20.136 15.102 20.536 14.584C20.878 14.14 21.006 13.697 21.138 13.248L21.188 13.076C21.3509 11.7029 21.2029 10.3108 20.7549 9.00268C20.3069 7.69457 19.5704 6.50396 18.6 5.519L18.573 5.619C18.41 6.213 18.148 6.821 17.862 7.255C17.606 7.643 17.11 8.035 16.698 8.331C16.4075 8.53351 16.1064 8.72044 15.796 8.891C15.568 9.023 15.363 9.141 15.166 9.271C14.734 9.557 14.4 9.864 14.175 10.327C14.1017 10.48 14.0892 10.6551 14.14 10.817C14.215 11.089 14.266 11.395 14.266 11.706C14.268 12.355 13.938 12.882 13.513 13.224C13.0816 13.5692 12.5444 13.755 11.992 13.75C9.537 13.723 8.027 11.73 7.828 9.514C7.748 8.633 7.362 7.741 6.874 6.962C6.50739 6.37279 6.07236 5.83001 5.578 5.343ZM6.745 4.386C7.27442 4.92681 7.74381 5.52328 8.145 6.165C8.703 7.055 9.214 8.177 9.322 9.379C9.472 11.059 10.535 12.233 12.008 12.249C12.2122 12.2501 12.4108 12.1817 12.571 12.055C12.717 11.938 12.767 11.815 12.766 11.709C12.766 11.553 12.74 11.381 12.694 11.214C12.5457 10.7015 12.5924 10.1522 12.825 9.672C13.21 8.878 13.781 8.387 14.339 8.019C14.578 7.861 14.826 7.719 15.049 7.589L15.139 7.539C15.394 7.391 15.619 7.259 15.822 7.112C16.253 6.802 16.526 6.555 16.609 6.428C16.792 6.152 16.997 5.694 17.127 5.221C17.23 4.847 17.258 4.559 17.249 4.381C15.7064 3.31515 13.875 2.74608 12 2.75C10.1223 2.74662 8.28857 3.31686 6.745 4.386ZM22.68 13.24C22.7267 12.8333 22.7503 12.42 22.751 12C22.751 6.063 17.938 1.25 12.001 1.25C6.064 1.25 1.25 6.063 1.25 12C1.25 17.937 6.063 22.75 12 22.75C17.46 22.75 21.97 18.679 22.659 13.406C22.6736 13.3536 22.6896 13.3016 22.707 13.25L22.68 13.24ZM19.906 16.807C19.31 17.025 18.592 17.155 17.727 17.164H17.696L17.606 17.167C17.1081 17.1884 16.6134 17.258 16.129 17.375C15.227 17.596 14.436 17.995 14.1 18.627C13.644 19.486 13.71 20.42 13.88 21.059C15.1221 20.8009 16.298 20.2902 17.3346 19.5588C18.3712 18.8274 19.2464 17.8907 19.906 16.807Z" fill="black"/>
</g>
<defs>
<clipPath id="clip0_221_14625">
<rect width="24" height="24" fill="white"/>
</clipPath>
</defs>
</svg>
