<svg width="24" height="24" viewBox="0 0 24 24" fill="none" xmlns="http://www.w3.org/2000/svg">
<g clip-path="url(#clip0_221_15391)">
<path fill-rule="evenodd" clip-rule="evenodd" d="M12 2.75C9.54676 2.75 7.19399 3.72455 5.45928 5.45926C3.72457 7.19397 2.75002 9.54675 2.75002 12C2.75002 14.4533 3.72457 16.806 5.45928 18.5407C7.19399 20.2754 9.54676 21.25 12 21.25C14.4533 21.25 16.806 20.2754 18.5408 18.5407C20.2755 16.806 21.25 14.4533 21.25 12C21.25 9.54675 20.2755 7.19397 18.5408 5.45926C16.806 3.72455 14.4533 2.75 12 2.75ZM1.25002 12C1.25002 6.063 6.06302 1.25 12 1.25C17.937 1.25 22.75 6.063 22.75 12C22.75 17.937 17.937 22.75 12 22.75C6.06302 22.75 1.25002 17.937 1.25002 12ZM13.849 9.181C13.244 9.341 12.429 9.666 11.254 10.136C10.713 10.353 10.612 10.404 10.538 10.469C10.5136 10.4908 10.4902 10.5139 10.468 10.538C10.404 10.612 10.353 10.713 10.136 11.254C9.66601 12.429 9.34202 13.244 9.18102 13.849C9.01402 14.479 9.09601 14.639 9.12201 14.679C9.17646 14.7563 9.24417 14.8233 9.32201 14.877C9.36001 14.904 9.52102 14.985 10.151 14.818C10.756 14.658 11.571 14.334 12.745 13.864C13.287 13.647 13.388 13.596 13.462 13.531C13.4865 13.5088 13.5099 13.4855 13.532 13.461L14.095 13.956L13.531 13.462C13.596 13.388 13.647 13.287 13.864 12.745C14.334 11.571 14.658 10.755 14.818 10.151C14.986 9.521 14.904 9.36 14.878 9.321C14.8237 9.24334 14.7559 9.17596 14.678 9.122C14.64 9.096 14.478 9.014 13.848 9.182M13.464 7.732C14.154 7.549 14.9 7.461 15.521 7.882C15.755 8.042 15.958 8.244 16.117 8.479C16.539 9.1 16.45 9.846 16.267 10.536C16.081 11.24 15.721 12.141 15.276 13.253L15.256 13.303L15.222 13.387C15.059 13.797 14.914 14.159 14.658 14.452C14.5939 14.5263 14.5244 14.5959 14.45 14.66C14.157 14.916 13.795 15.06 13.385 15.224L13.302 15.257L13.023 14.561L13.302 15.258L13.252 15.278C12.139 15.723 11.238 16.083 10.534 16.269C9.84402 16.452 9.09802 16.541 8.47702 16.119C8.24333 15.9587 8.04127 15.7567 7.88102 15.523C7.45902 14.902 7.54702 14.155 7.73102 13.466C7.91702 12.761 8.27702 11.861 8.72202 10.749L8.74201 10.699L8.77602 10.614C8.93902 10.204 9.08302 9.843 9.34002 9.55C9.40468 9.47667 9.47402 9.40733 9.54802 9.342C9.84102 9.085 10.203 8.941 10.612 8.778L10.696 8.744L10.746 8.724C11.859 8.279 12.759 7.919 13.464 7.732Z" fill="black"/>
</g>
<defs>
<clipPath id="clip0_221_15391">
<rect width="24" height="24" fill="white"/>
</clipPath>
</defs>
</svg>
