<svg width="24" height="24" viewBox="0 0 24 24" fill="none" xmlns="http://www.w3.org/2000/svg">
<g clip-path="url(#clip0_221_15401)">
<path fill-rule="evenodd" clip-rule="evenodd" d="M17 2.74997C16.7045 2.74997 16.412 2.80817 16.139 2.92124C15.866 3.03431 15.618 3.20005 15.409 3.40898C15.2001 3.61791 15.0344 3.86595 14.9213 4.13893C14.8082 4.41191 14.75 4.70449 14.75 4.99997C14.75 5.29544 14.8082 5.58802 14.9213 5.86101C15.0344 6.13399 15.2001 6.38203 15.409 6.59096C15.618 6.79989 15.866 6.96563 16.139 7.0787C16.412 7.19177 16.7045 7.24997 17 7.24997C17.5968 7.24997 18.169 7.01292 18.591 6.59096C19.013 6.169 19.25 5.59671 19.25 4.99997C19.25 4.40323 19.013 3.83094 18.591 3.40898C18.169 2.98702 17.5968 2.74997 17 2.74997ZM13.25 4.99997C13.2502 4.29045 13.4516 3.59552 13.8309 2.99591C14.2102 2.3963 14.7519 1.9166 15.393 1.61254C16.034 1.30847 16.7482 1.19252 17.4525 1.27814C18.1569 1.36376 18.8225 1.64744 19.372 2.09624C19.9216 2.54504 20.3325 3.14053 20.5571 3.81356C20.7818 4.48659 20.8108 5.20953 20.641 5.89843C20.4711 6.58732 20.1093 7.21389 19.5976 7.70537C19.0859 8.19685 18.4452 8.53306 17.75 8.67497V9.26097C18.2989 9.26623 18.847 9.30162 19.392 9.36697C20.292 9.48697 21.05 9.74697 21.652 10.348C22.254 10.95 22.512 11.708 22.634 12.608C22.75 13.475 22.75 14.578 22.75 15.945V16.055C22.75 17.422 22.75 18.525 22.634 19.392C22.512 20.292 22.254 21.05 21.652 21.652C21.05 22.254 20.292 22.512 19.392 22.634C18.525 22.75 17.422 22.75 16.055 22.75H7.94502C6.57802 22.75 5.47502 22.75 4.60802 22.634C3.70801 22.512 2.95002 22.254 2.34802 21.652C1.74602 21.05 1.48802 20.292 1.36702 19.392C1.25002 18.525 1.25002 17.422 1.25002 16.055V15.945C1.25002 14.578 1.25002 13.475 1.36702 12.608C1.48702 11.708 1.74702 10.95 2.34802 10.348C2.95002 9.74597 3.70801 9.48797 4.60802 9.36697C5.47502 9.24997 6.57802 9.24997 7.94502 9.24997H16.25V8.67497C15.403 8.50207 14.6417 8.04183 14.095 7.37215C13.5484 6.70246 13.2498 5.86446 13.25 4.99997ZM16.25 10.75H8.00002C6.56502 10.75 5.56302 10.752 4.80802 10.853C4.66135 10.873 4.52702 10.8963 4.40502 10.923L12.353 15.338L12.377 15.351L20.921 20.098C21.021 19.869 21.095 19.578 21.147 19.192C21.248 18.436 21.25 17.435 21.25 16C21.25 14.565 21.248 13.563 21.147 12.808C21.048 12.074 20.867 11.686 20.591 11.409C20.314 11.132 19.926 10.952 19.191 10.853C18.791 10.799 18.319 10.773 17.75 10.761V13C17.75 13.1989 17.671 13.3896 17.5303 13.5303C17.3897 13.671 17.1989 13.75 17 13.75C16.8011 13.75 16.6103 13.671 16.4697 13.5303C16.329 13.3896 16.25 13.1989 16.25 13V10.75ZM19.595 21.077L12.011 16.864L4.74502 21.138L4.80802 21.147C5.56302 21.248 6.56502 21.25 8.00002 21.25H16C17.435 21.25 18.436 21.248 19.192 21.147C19.3393 21.127 19.4737 21.1036 19.595 21.077ZM3.19002 20.312L10.49 16.019L3.08002 11.902C2.98002 12.131 2.90502 12.422 2.85302 12.808C2.75202 13.563 2.75002 14.565 2.75002 16C2.75002 17.435 2.75202 18.436 2.85302 19.192C2.92302 19.71 3.03302 20.056 3.19002 20.312Z" fill="black"/>
</g>
<defs>
<clipPath id="clip0_221_15401">
<rect width="24" height="24" fill="white"/>
</clipPath>
</defs>
</svg>
