<svg width="24" height="24" viewBox="0 0 24 24" fill="none" xmlns="http://www.w3.org/2000/svg">
<g clip-path="url(#clip0_221_15411)">
<path fill-rule="evenodd" clip-rule="evenodd" d="M4.25002 8.515C4.25002 4.453 7.77102 1.25 12 1.25C16.229 1.25 19.75 4.453 19.75 8.515C19.75 12.325 17.387 16.8 13.575 18.429C13.077 18.6411 12.5413 18.7504 12 18.7504C11.4587 18.7504 10.923 18.6411 10.425 18.429C6.61302 16.8 4.25002 12.326 4.25002 8.515ZM12 2.75C8.49701 2.75 5.75002 5.38 5.75002 8.515C5.75002 11.843 7.85502 15.7 11.015 17.05C11.3267 17.1817 11.6616 17.2496 12 17.2496C12.3384 17.2496 12.6733 17.1817 12.985 17.05C16.145 15.7 18.25 11.843 18.25 8.515C18.25 5.381 15.503 2.75 12 2.75ZM12 7.75C11.6685 7.75 11.3506 7.8817 11.1161 8.11612C10.8817 8.35054 10.75 8.66848 10.75 9C10.75 9.33152 10.8817 9.64946 11.1161 9.88388C11.3506 10.1183 11.6685 10.25 12 10.25C12.3315 10.25 12.6495 10.1183 12.8839 9.88388C13.1183 9.64946 13.25 9.33152 13.25 9C13.25 8.66848 13.1183 8.35054 12.8839 8.11612C12.6495 7.8817 12.3315 7.75 12 7.75ZM9.25002 9C9.25002 8.27065 9.53975 7.57118 10.0555 7.05546C10.5712 6.53973 11.2707 6.25 12 6.25C12.7294 6.25 13.4288 6.53973 13.9446 7.05546C14.4603 7.57118 14.75 8.27065 14.75 9C14.75 9.72935 14.4603 10.4288 13.9446 10.9445C13.4288 11.4603 12.7294 11.75 12 11.75C11.2707 11.75 10.5712 11.4603 10.0555 10.9445C9.53975 10.4288 9.25002 9.72935 9.25002 9ZM3.59502 14.997C3.72848 15.1444 3.79798 15.3387 3.78823 15.5373C3.77848 15.7358 3.69028 15.9224 3.54302 16.056C2.97502 16.57 2.75002 17.062 2.75002 17.5C2.75002 18.264 3.47402 19.205 5.23702 19.998C6.92902 20.76 9.32001 21.25 12 21.25C14.68 21.25 17.071 20.76 18.763 19.998C20.526 19.205 21.25 18.264 21.25 17.5C21.25 17.062 21.025 16.57 20.457 16.056C20.3096 15.9225 20.2212 15.7358 20.2113 15.5371C20.2015 15.3384 20.271 15.144 20.4045 14.9965C20.5381 14.849 20.7247 14.7607 20.9234 14.7508C21.1221 14.741 21.3166 14.8105 21.464 14.944C22.227 15.635 22.75 16.501 22.75 17.5C22.75 19.222 21.235 20.53 19.379 21.366C17.452 22.233 14.842 22.75 12 22.75C9.15802 22.75 6.54802 22.233 4.62102 21.366C2.76502 20.53 1.25002 19.222 1.25002 17.5C1.25002 16.501 1.77302 15.635 2.53602 14.944C2.60907 14.8778 2.69445 14.8267 2.78728 14.7935C2.8801 14.7604 2.97855 14.7459 3.077 14.7508C3.17545 14.7557 3.27196 14.78 3.36102 14.8222C3.45007 14.8645 3.52893 14.9239 3.59502 14.997Z" fill="black"/>
</g>
<defs>
<clipPath id="clip0_221_15411">
<rect width="24" height="24" fill="white"/>
</clipPath>
</defs>
</svg>
