<svg width="24" height="24" viewBox="0 0 24 24" fill="none" xmlns="http://www.w3.org/2000/svg">
<g clip-path="url(#clip0_221_14655)">
<path fill-rule="evenodd" clip-rule="evenodd" d="M12.75 2C12.75 1.80109 12.671 1.61032 12.5303 1.46967C12.3897 1.32902 12.1989 1.25 12 1.25C11.8011 1.25 11.6103 1.32902 11.4697 1.46967C11.329 1.61032 11.25 1.80109 11.25 2V2.75H6.606C6.044 2.75 5.601 2.75 5.184 2.885C5.00153 2.94628 4.82539 3.02497 4.658 3.12C4.278 3.34 3.982 3.67 3.607 4.088L3.517 4.188C3.113 4.638 2.773 5.016 2.527 5.352C2.267 5.704 2.064 6.067 1.984 6.5C1.92399 6.83063 1.92399 7.16937 1.984 7.5C2.064 7.933 2.266 8.296 2.526 8.648C2.773 8.984 3.113 9.362 3.518 9.813L3.607 9.913C3.982 10.331 4.278 10.661 4.657 10.88C4.825 10.9767 5.00067 11.055 5.184 11.115C5.601 11.251 6.044 11.251 6.606 11.25H11.25V11.75H6.462C5.792 11.75 5.233 11.75 4.781 11.796C4.308 11.844 3.868 11.949 3.472 12.214C3.172 12.414 2.914 12.672 2.713 12.972C2.449 13.368 2.344 13.807 2.296 14.281C2.25 14.733 2.25 15.292 2.25 15.961V16.038C2.25 16.708 2.25 17.267 2.296 17.719C2.344 18.192 2.449 18.632 2.713 19.028C2.914 19.328 3.172 19.586 3.473 19.787C3.868 20.051 4.308 20.156 4.781 20.204C5.233 20.25 5.792 20.25 6.461 20.25H11.25V21.25H10C9.80109 21.25 9.61032 21.329 9.46967 21.4697C9.32902 21.6103 9.25 21.8011 9.25 22C9.25 22.1989 9.32902 22.3897 9.46967 22.5303C9.61032 22.671 9.80109 22.75 10 22.75H14C14.1989 22.75 14.3897 22.671 14.5303 22.5303C14.671 22.3897 14.75 22.1989 14.75 22C14.75 21.8011 14.671 21.6103 14.5303 21.4697C14.3897 21.329 14.1989 21.25 14 21.25H12.75V20.25H17.394C17.956 20.25 18.399 20.25 18.816 20.115C19 20.055 19.1753 19.9767 19.342 19.88C19.722 19.66 20.018 19.33 20.393 18.912L20.483 18.812C20.887 18.362 21.227 17.984 21.473 17.648C21.733 17.296 21.936 16.933 22.016 16.5C22.077 16.17 22.077 15.83 22.016 15.5C21.936 15.067 21.734 14.704 21.474 14.352C21.227 14.016 20.887 13.638 20.482 13.187L20.393 13.087C20.018 12.669 19.722 12.339 19.343 12.12C19.1753 12.0249 18.9988 11.9462 18.816 11.885C18.399 11.749 17.956 11.749 17.394 11.75H12.75V11.25H17.538C18.208 11.25 18.767 11.25 19.219 11.204C19.692 11.156 20.132 11.051 20.528 10.786C20.828 10.586 21.086 10.328 21.287 10.028C21.551 9.632 21.656 9.192 21.704 8.719C21.75 8.267 21.75 7.708 21.75 7.039V6.962C21.75 6.292 21.75 5.733 21.704 5.281C21.656 4.808 21.551 4.368 21.286 3.972C21.0846 3.67251 20.8272 3.41479 20.528 3.213C20.132 2.949 19.692 2.844 19.219 2.796C18.767 2.75 18.208 2.75 17.539 2.75H12.75V2ZM5.648 4.311C5.81 4.259 5.998 4.25 6.704 4.25H17.5C18.218 4.25 18.7 4.25 19.067 4.288C19.422 4.324 19.586 4.388 19.695 4.461C19.831 4.551 19.948 4.669 20.039 4.806C20.112 4.914 20.176 5.078 20.212 5.433C20.249 5.8 20.25 6.283 20.25 7C20.25 7.718 20.25 8.2 20.212 8.567C20.176 8.922 20.112 9.086 20.039 9.194C19.9471 9.32965 19.8304 9.44671 19.695 9.539C19.586 9.612 19.422 9.676 19.067 9.712C18.7 9.749 18.217 9.75 17.5 9.75H6.704C5.998 9.75 5.81 9.741 5.648 9.689C5.56494 9.66147 5.48486 9.62562 5.409 9.582C5.261 9.497 5.129 9.362 4.658 8.837C4.223 8.353 3.933 8.029 3.734 7.759C3.543 7.499 3.481 7.349 3.459 7.227C3.43237 7.07684 3.43237 6.92316 3.459 6.773C3.481 6.652 3.543 6.501 3.734 6.241C3.933 5.971 4.223 5.647 4.658 5.163C5.13 4.637 5.261 4.503 5.409 4.418C5.48486 4.37438 5.56494 4.33853 5.648 4.311ZM18.352 13.311C18.19 13.259 18.002 13.25 17.296 13.25H6.5C5.782 13.25 5.3 13.25 4.933 13.288C4.578 13.324 4.414 13.388 4.306 13.461C4.17026 13.5532 4.0532 13.6703 3.961 13.806C3.888 13.914 3.824 14.078 3.788 14.433C3.751 14.8 3.75 15.283 3.75 16C3.75 16.718 3.75 17.2 3.788 17.567C3.824 17.922 3.888 18.086 3.961 18.195C4.051 18.331 4.169 18.448 4.306 18.539C4.414 18.612 4.578 18.676 4.933 18.712C5.3 18.749 5.783 18.75 6.5 18.75H17.296C18.002 18.75 18.19 18.741 18.352 18.689C18.4353 18.6623 18.515 18.6267 18.591 18.582C18.739 18.497 18.871 18.362 19.342 17.837C19.777 17.353 20.067 17.029 20.266 16.759C20.457 16.499 20.519 16.349 20.541 16.227C20.569 16.077 20.569 15.923 20.541 15.773C20.519 15.652 20.457 15.501 20.266 15.241C20.067 14.971 19.777 14.647 19.342 14.163C18.87 13.637 18.739 13.503 18.591 13.418C18.5148 13.3743 18.4354 13.3385 18.352 13.311Z" fill="black"/>
</g>
<defs>
<clipPath id="clip0_221_14655">
<rect width="24" height="24" fill="white"/>
</clipPath>
</defs>
</svg>
