<svg width="24" height="24" viewBox="0 0 24 24" fill="none" xmlns="http://www.w3.org/2000/svg">
<g clip-path="url(#clip0_221_15447)">
<path fill-rule="evenodd" clip-rule="evenodd" d="M17.861 3.16297L18.021 3.21697L19.223 3.61697C19.686 3.77197 20.093 3.90697 20.414 4.05697C20.762 4.21897 21.081 4.42697 21.325 4.76597C21.569 5.10497 21.666 5.47297 21.71 5.85397C21.75 6.20697 21.75 6.63497 21.75 7.12397V15.336C21.75 16.034 21.75 16.623 21.696 17.089C21.64 17.573 21.514 18.051 21.161 18.437C20.952 18.6658 20.6981 18.8489 20.415 18.975C19.937 19.187 19.444 19.155 18.967 19.056C18.507 18.96 17.949 18.774 17.287 18.553L17.244 18.539C16.124 18.165 15.739 18.049 15.367 18.062C15.2184 18.0673 15.0707 18.0871 14.926 18.121C14.563 18.206 14.223 18.42 13.24 19.075L11.858 19.997L11.718 20.09C10.656 20.799 9.918 21.291 9.054 21.407C8.191 21.523 7.349 21.242 6.139 20.837L5.979 20.784L4.777 20.384C4.314 20.229 3.907 20.094 3.586 19.944C3.238 19.782 2.919 19.574 2.675 19.234C2.431 18.896 2.334 18.528 2.29 18.146C2.25 17.793 2.25 17.366 2.25 16.877V8.66497C2.25 7.96597 2.25 7.37697 2.304 6.91197C2.36 6.42797 2.486 5.94997 2.839 5.56397C3.04797 5.33518 3.30194 5.15202 3.585 5.02597C4.063 4.81297 4.557 4.84497 5.033 4.94497C5.493 5.03997 6.051 5.22697 6.713 5.44797L6.756 5.46197C7.876 5.83497 8.261 5.95197 8.634 5.93897C8.78223 5.93354 8.92958 5.91378 9.074 5.87997C9.437 5.79397 9.777 5.57997 10.76 4.92597L12.142 4.00397L12.282 3.90997C13.344 3.20197 14.082 2.70997 14.945 2.59397C15.809 2.47797 16.651 2.75797 17.861 3.16297ZM15.75 4.10697V16.58C16.286 16.638 16.85 16.826 17.593 17.074L17.718 17.116C18.435 17.355 18.91 17.512 19.273 17.588C19.629 17.662 19.75 17.628 19.805 17.604C19.8994 17.5621 19.9842 17.5011 20.054 17.425C20.094 17.381 20.164 17.276 20.206 16.915C20.249 16.547 20.25 16.046 20.25 15.291V7.16297C20.25 6.62297 20.249 6.28297 20.22 6.02497C20.192 5.78597 20.148 5.69697 20.108 5.64297C20.069 5.58897 19.999 5.51797 19.782 5.41697C19.546 5.30697 19.222 5.19897 18.712 5.02797L17.547 4.63997C16.66 4.34397 16.134 4.17697 15.75 4.10697ZM14.25 16.76V4.43397C13.939 4.61397 13.54 4.87497 12.974 5.25197L11.592 6.17397L11.482 6.24697C10.794 6.70697 10.281 7.04897 9.75 7.24097V19.567C10.061 19.387 10.46 19.125 11.026 18.748L12.408 17.827L12.518 17.754C13.206 17.294 13.719 16.952 14.25 16.76ZM8.25 19.895V7.41997C7.714 7.36197 7.15 7.17397 6.407 6.92597L6.282 6.88397C5.565 6.64497 5.09 6.48797 4.726 6.41197C4.371 6.33797 4.25 6.37097 4.196 6.39497C4.10111 6.43703 4.01598 6.49832 3.946 6.57497C3.906 6.61797 3.836 6.72297 3.794 7.08397C3.751 7.45197 3.75 7.95397 3.75 8.70897V16.837C3.75 17.377 3.751 17.717 3.78 17.975C3.808 18.214 3.852 18.302 3.892 18.357C3.931 18.411 4.001 18.482 4.218 18.583C4.454 18.693 4.778 18.801 5.288 18.972L6.453 19.36C7.34 19.655 7.865 19.823 8.25 19.894" fill="black"/>
<path fill-rule="evenodd" clip-rule="evenodd" d="M21.7374 1.94867C22.0303 2.24157 22.0303 2.71644 21.7374 3.00933L2.78839 21.9584C2.49549 22.2513 2.02062 22.2513 1.72773 21.9584C1.43483 21.6655 1.43483 21.1906 1.72773 20.8977L20.6768 1.94867C20.9697 1.65578 21.4445 1.65578 21.7374 1.94867Z" fill="black"/>
</g>
<defs>
<clipPath id="clip0_221_15447">
<rect width="24" height="24" fill="white"/>
</clipPath>
</defs>
</svg>
