<svg width="24" height="24" viewBox="0 0 24 24" fill="none" xmlns="http://www.w3.org/2000/svg">
<g clip-path="url(#clip0_221_15416)">
<path fill-rule="evenodd" clip-rule="evenodd" d="M3.25 10.143C3.25 5.244 7.155 1.25 12 1.25C16.845 1.25 20.75 5.244 20.75 10.143C20.75 12.508 20.076 15.048 18.884 17.242C17.694 19.433 15.956 21.337 13.781 22.354C13.2235 22.615 12.6155 22.7503 12 22.7503C11.3845 22.7503 10.7765 22.615 10.219 22.354C8.044 21.337 6.306 19.434 5.116 17.242C3.924 15.048 3.25 12.508 3.25 10.143ZM12 2.75C8.008 2.75 4.75 6.047 4.75 10.143C4.75 12.24 5.353 14.535 6.434 16.526C7.516 18.519 9.046 20.15 10.854 20.995C11.2125 21.163 11.6036 21.25 11.9995 21.25C12.3954 21.25 12.7865 21.163 13.145 20.995C14.954 20.15 16.484 18.519 17.566 16.526C18.647 14.536 19.25 12.24 19.25 10.143C19.25 6.047 15.992 2.75 12 2.75ZM12 7.75C11.7045 7.75 11.4119 7.8082 11.139 7.92127C10.866 8.03434 10.6179 8.20008 10.409 8.40901C10.2001 8.61794 10.0343 8.86598 9.92127 9.13896C9.8082 9.41194 9.75 9.70453 9.75 10C9.75 10.2955 9.8082 10.5881 9.92127 10.861C10.0343 11.134 10.2001 11.3821 10.409 11.591C10.6179 11.7999 10.866 11.9657 11.139 12.0787C11.4119 12.1918 11.7045 12.25 12 12.25C12.5967 12.25 13.169 12.0129 13.591 11.591C14.0129 11.169 14.25 10.5967 14.25 10C14.25 9.40326 14.0129 8.83097 13.591 8.40901C13.169 7.98705 12.5967 7.75 12 7.75ZM8.25 10C8.25 9.00544 8.64509 8.05161 9.34835 7.34835C10.0516 6.64509 11.0054 6.25 12 6.25C12.9946 6.25 13.9484 6.64509 14.6517 7.34835C15.3549 8.05161 15.75 9.00544 15.75 10C15.75 10.9946 15.3549 11.9484 14.6517 12.6517C13.9484 13.3549 12.9946 13.75 12 13.75C11.0054 13.75 10.0516 13.3549 9.34835 12.6517C8.64509 11.9484 8.25 10.9946 8.25 10Z" fill="black"/>
</g>
<defs>
<clipPath id="clip0_221_15416">
<rect width="24" height="24" fill="white"/>
</clipPath>
</defs>
</svg>
