<svg width="24" height="24" viewBox="0 0 24 24" fill="none" xmlns="http://www.w3.org/2000/svg">
<g clip-path="url(#clip0_221_15406)">
<path fill-rule="evenodd" clip-rule="evenodd" d="M3.25 10.143C3.25 5.244 7.155 1.25 12 1.25C16.845 1.25 20.75 5.244 20.75 10.143C20.75 12.508 20.076 15.048 18.884 17.242C17.694 19.433 15.956 21.337 13.781 22.354C13.2235 22.615 12.6155 22.7503 12 22.7503C11.3845 22.7503 10.7765 22.615 10.219 22.354C8.044 21.337 6.306 19.434 5.116 17.242C3.924 15.048 3.25 12.508 3.25 10.143ZM12 2.75C8.008 2.75 4.75 6.047 4.75 10.143C4.75 12.24 5.353 14.535 6.434 16.526C7.516 18.519 9.046 20.15 10.854 20.995C11.2125 21.163 11.6036 21.25 11.9995 21.25C12.3954 21.25 12.7865 21.163 13.145 20.995C14.954 20.15 16.484 18.519 17.566 16.526C18.647 14.536 19.25 12.24 19.25 10.143C19.25 6.047 15.992 2.75 12 2.75Z" fill="black"/>
<path fill-rule="evenodd" clip-rule="evenodd" d="M14.7361 8.43972C15.0436 8.71273 15.0721 9.19048 14.7991 9.49799L12.1321 12.498C11.9903 12.6578 11.7856 12.75 11.5718 12.75C11.3581 12.75 11.1533 12.6578 11.0116 12.498L9.67729 10.998C9.55579 10.8608 9.48829 10.6838 9.48829 10.5C9.48829 10.0882 9.82655 9.74999 10.2383 9.74999C10.4528 9.74999 10.6568 9.8415 10.7993 10.002L11.5711 10.872L13.6771 8.50197C13.8196 8.34147 14.0236 8.24997 14.2381 8.24997C14.4226 8.24997 14.6004 8.31747 14.7376 8.43972" fill="black"/>
</g>
<defs>
<clipPath id="clip0_221_15406">
<rect width="24" height="24" fill="white"/>
</clipPath>
</defs>
</svg>
