<svg width="24" height="24" viewBox="0 0 24 24" fill="none" xmlns="http://www.w3.org/2000/svg">
<path fill-rule="evenodd" clip-rule="evenodd" d="M12.0298 21.2163C11.7279 21.2068 11.6238 21.1311 11.5074 21.0365C11.5055 21.027 11.5027 21.027 11.4998 21.027C11.3039 20.8567 9.81528 19.5696 8.64651 17.7241C7.82411 16.4276 7.16827 14.8567 7.16827 13.2195C7.16827 8.71472 11.8065 8.78092 12.0307 8.79038H12.0033C12.4197 8.78092 16.8431 8.81882 16.8431 13.2195C16.8431 14.8567 16.1872 16.4276 15.3639 17.7241C14.1781 19.598 12.662 20.8945 12.503 21.0365C12.503 21.0365 12.2882 21.2163 12.0298 21.2163ZM12.0052 19.4277C11.4837 18.9261 10.6424 18.027 9.93263 16.9103C9.25692 15.8409 8.69004 14.5633 8.69004 13.2195C8.69004 10.21 11.8358 10.3046 11.9796 10.3141C11.9967 10.3141 12.0137 10.3141 12.0307 10.3141C12.1755 10.3046 15.3203 10.21 15.3203 13.2195C15.3203 14.5633 14.7535 15.8409 14.0787 16.9103C13.368 18.027 12.5276 18.9261 12.0052 19.4277Z" fill="black"/>
<path d="M12.0119 14.7511C12.6016 14.7511 13.0797 14.273 13.0797 13.6833C13.0797 13.0935 12.6016 12.6155 12.0119 12.6155C11.4221 12.6155 10.9441 13.0935 10.9441 13.6833C10.9441 14.273 11.4221 14.7511 12.0119 14.7511Z" fill="black"/>
<path d="M5.82833 7.81016C6.41807 7.81016 6.89615 7.3321 6.89615 6.74236C6.89615 6.15262 6.41807 5.67456 5.82833 5.67456C5.23859 5.67456 4.76051 6.15262 4.76051 6.74236C4.76051 7.3321 5.23859 7.81016 5.82833 7.81016Z" fill="black"/>
<path fill-rule="evenodd" clip-rule="evenodd" d="M10.7692 6.83884C10.7692 6.83884 10.7834 4.47574 9.07899 3.05618C8.35407 2.45145 7.32063 2 5.82914 2C4.3282 2 3.30138 2.46656 2.58876 3.08928C1.04901 4.43597 0.9998 6.60978 1.00075 6.92208C0.994121 7.09621 0.957213 9.9543 4.68876 13.683C4.98498 13.9859 5.46763 13.9859 5.76479 13.683C6.06195 13.3896 6.06195 12.907 5.76479 12.6041C2.50737 9.34861 2.52251 6.95899 2.52251 6.95899C2.52346 6.94101 2.52346 6.92302 2.52251 6.90504C2.52251 6.90504 2.4487 5.2347 3.59097 4.23533C4.08119 3.80757 4.7976 3.52272 5.82914 3.52272C6.86826 3.52272 7.59886 3.8038 8.10423 4.22494C9.27205 5.19876 9.24745 6.82463 9.24745 6.82463C9.24271 7.24766 9.58057 7.58837 10.0008 7.59784C10.4209 7.59784 10.7654 7.25714 10.7692 6.83884Z" fill="black"/>
<path d="M18.1715 7.81016C17.5818 7.81016 17.1037 7.3321 17.1037 6.74236C17.1037 6.15262 17.5818 5.67456 18.1715 5.67456C18.7613 5.67456 19.2393 6.15262 19.2393 6.74236C19.2393 7.3321 18.7613 7.81016 18.1715 7.81016Z" fill="black"/>
<path fill-rule="evenodd" clip-rule="evenodd" d="M14.7524 6.82463C14.7524 6.82463 14.7278 5.19876 15.8956 4.22494C16.401 3.8038 17.1316 3.52272 18.1707 3.52272C19.2023 3.52272 19.9187 3.80757 20.4089 4.23533C21.5512 5.2347 21.4773 6.90504 21.4773 6.90504C21.4764 6.92302 21.4764 6.94101 21.4773 6.95899C21.4773 6.95899 21.4925 9.34861 18.2351 12.6041C17.9379 12.907 17.9379 13.3896 18.2351 13.683C18.5322 13.9859 19.0149 13.9859 19.3111 13.683C23.0767 9.91645 23.0048 7.04893 22.9991 6.91076C23.001 6.63252 22.9584 4.44259 21.4111 3.08928C20.6985 2.46656 19.6717 2 18.1707 2C16.6792 2 15.6458 2.45145 14.9209 3.05618C13.2164 4.47574 13.2306 6.83884 13.2306 6.83884C13.2344 7.25714 13.5789 7.59784 13.9991 7.59784C14.4193 7.58837 14.7571 7.24766 14.7524 6.82463Z" fill="black"/>
</svg>
