<svg width="24" height="24" viewBox="0 0 24 24" fill="none" xmlns="http://www.w3.org/2000/svg">
<g clip-path="url(#clip0_221_15431)">
<path fill-rule="evenodd" clip-rule="evenodd" d="M5.25 7.7C5.25 4.102 8.309 1.25 12 1.25C15.608 1.25 18.612 3.975 18.745 7.458L19.223 7.618C19.686 7.771 20.093 7.907 20.414 8.057C20.762 8.219 21.081 8.427 21.325 8.766C21.569 9.105 21.666 9.473 21.71 9.854C21.75 10.207 21.75 10.634 21.75 11.123V16.871C21.75 17.481 21.75 18.001 21.703 18.418C21.653 18.856 21.542 19.288 21.24 19.655C21.0661 19.8654 20.8562 20.0432 20.62 20.18C20.208 20.417 19.765 20.456 19.324 20.433C18.904 20.411 18.391 20.326 17.79 20.225L17.749 20.218C16.456 20.003 15.935 19.922 15.427 19.964C15.2417 19.9793 15.0577 20.007 14.875 20.047C14.377 20.156 13.899 20.389 12.716 20.98L12.594 21.041C11.211 21.733 10.36 22.159 9.44 22.292C9.16333 22.332 8.885 22.352 8.605 22.352C7.677 22.35 6.78 22.051 5.325 21.566L5.198 21.523L4.814 21.395L4.777 21.383C4.314 21.229 3.907 21.093 3.586 20.943C3.238 20.781 2.919 20.573 2.675 20.234C2.431 19.895 2.334 19.527 2.29 19.146C2.25 18.793 2.25 18.366 2.25 17.877V12.857C2.25 12.071 2.25 11.409 2.317 10.89C2.387 10.348 2.547 9.818 2.983 9.42C3.11109 9.30316 3.25199 9.20118 3.403 9.116C3.92 8.829 4.473 8.846 5.008 8.95C5.11733 8.97133 5.23133 8.99733 5.35 9.028C5.28333 8.58133 5.25 8.13867 5.25 7.7ZM5.749 10.71C5.41233 10.5937 5.06906 10.4976 4.721 10.422C4.326 10.345 4.196 10.392 4.135 10.426C4.08551 10.4556 4.03867 10.4894 3.995 10.527C3.942 10.575 3.857 10.683 3.805 11.083C3.752 11.493 3.75 12.057 3.75 12.908V17.838C3.75 18.377 3.751 18.718 3.78 18.976C3.808 19.214 3.852 19.303 3.892 19.357C3.931 19.412 4.001 19.482 4.218 19.583C4.454 19.693 4.778 19.802 5.288 19.973L5.672 20.1C7.296 20.641 7.951 20.85 8.608 20.852C8.81467 20.852 9.02033 20.8373 9.225 20.808C9.875 20.714 10.501 20.411 12.045 19.638L12.138 19.592C13.198 19.062 13.852 18.735 14.555 18.582C14.8017 18.528 15.0507 18.4903 15.302 18.469C16.019 18.409 16.734 18.529 17.895 18.722L17.995 18.739C18.65 18.848 19.078 18.919 19.402 18.935C19.714 18.951 19.821 18.91 19.873 18.88C19.9515 18.8339 20.0215 18.7747 20.08 18.705C20.119 18.658 20.177 18.559 20.212 18.249C20.249 17.926 20.25 17.492 20.25 16.829V11.162C20.25 10.623 20.249 10.282 20.22 10.024C20.192 9.786 20.148 9.697 20.108 9.643C20.069 9.588 19.999 9.518 19.782 9.417C19.546 9.307 19.222 9.198 18.712 9.027L18.652 9.008C18.4501 10.3436 17.9971 11.6289 17.317 12.796C16.405 14.364 15.07 15.73 13.397 16.459C12.9563 16.6509 12.4807 16.7499 12 16.7499C11.5193 16.7499 11.0437 16.6509 10.603 16.459C8.93 15.729 7.595 14.364 6.683 12.796C6.30001 12.1347 5.98699 11.4352 5.749 10.709M12 2.75C9.064 2.75 6.75 5.002 6.75 7.7C6.75 9.118 7.187 10.68 7.98 12.041C8.771 13.403 9.888 14.511 11.203 15.085C11.708 15.305 12.292 15.305 12.797 15.085C14.113 14.511 15.229 13.403 16.021 12.041C16.813 10.681 17.25 9.118 17.25 7.701C17.25 5.002 14.936 2.75 12 2.75ZM12 6.75C11.8358 6.75 11.6733 6.78233 11.5216 6.84515C11.37 6.90797 11.2322 7.00004 11.1161 7.11612C11 7.23219 10.908 7.36999 10.8452 7.52165C10.7823 7.6733 10.75 7.83585 10.75 8C10.75 8.16415 10.7823 8.3267 10.8452 8.47835C10.908 8.63001 11 8.76781 11.1161 8.88388C11.2322 8.99996 11.37 9.09203 11.5216 9.15485C11.6733 9.21767 11.8358 9.25 12 9.25C12.3315 9.25 12.6495 9.1183 12.8839 8.88388C13.1183 8.64946 13.25 8.33152 13.25 8C13.25 7.66848 13.1183 7.35054 12.8839 7.11612C12.6495 6.8817 12.3315 6.75 12 6.75ZM9.25 8C9.25 7.27065 9.53973 6.57118 10.0555 6.05546C10.5712 5.53973 11.2707 5.25 12 5.25C12.7293 5.25 13.4288 5.53973 13.9445 6.05546C14.4603 6.57118 14.75 7.27065 14.75 8C14.75 8.72935 14.4603 9.42882 13.9445 9.94454C13.4288 10.4603 12.7293 10.75 12 10.75C11.2707 10.75 10.5712 10.4603 10.0555 9.94454C9.53973 9.42882 9.25 8.72935 9.25 8Z" fill="black"/>
</g>
<defs>
<clipPath id="clip0_221_15431">
<rect width="24" height="24" fill="white"/>
</clipPath>
</defs>
</svg>
