<svg width="24" height="24" viewBox="0 0 24 24" fill="none" xmlns="http://www.w3.org/2000/svg">
<g clip-path="url(#clip0_221_16692)">
<path fill-rule="evenodd" clip-rule="evenodd" d="M21.047 22.013C21.701 21.328 21.987 20.245 21.52 19.197L14.157 2.68696C13.9792 2.26128 13.6796 1.89769 13.2957 1.64195C12.9117 1.38621 12.4608 1.24976 11.9995 1.24976C11.5382 1.24976 11.0872 1.38621 10.7033 1.64195C10.3194 1.89769 10.0197 2.26128 9.84197 2.68696L2.47997 19.197C2.26884 19.66 2.20106 20.1755 2.28535 20.6774C2.36965 21.1792 2.60215 21.6443 2.95297 22.013C3.61197 22.703 4.68797 23.022 5.71997 22.471L11.624 19.319C11.7394 19.2565 11.8687 19.2237 12 19.2237C12.1313 19.2237 12.2605 19.2565 12.376 19.319L18.28 22.471C19.312 23.021 20.388 22.703 21.047 22.013ZM18.987 21.147L13.083 17.995C12.7501 17.8164 12.3782 17.7229 12.0005 17.7229C11.6227 17.7229 11.2508 17.8164 10.918 17.995L5.01497 21.147C4.65897 21.337 4.29997 21.25 4.03897 20.976C3.89368 20.8226 3.79802 20.629 3.76448 20.4205C3.73094 20.2119 3.76108 19.9981 3.85097 19.807L11.213 3.29696C11.539 2.56696 12.463 2.56696 12.788 3.29696L20.151 19.807C20.351 20.255 20.231 20.696 19.963 20.976C19.701 21.25 19.343 21.337 18.987 21.147Z" fill="black"/>
</g>
<defs>
<clipPath id="clip0_221_16692">
<rect width="24" height="24" fill="white"/>
</clipPath>
</defs>
</svg>
