<svg width="24" height="24" viewBox="0 0 24 24" fill="none" xmlns="http://www.w3.org/2000/svg">
<g clip-path="url(#clip0_221_15426)">
<path fill-rule="evenodd" clip-rule="evenodd" d="M3.25 10.143C3.25 5.244 7.155 1.25 12 1.25C16.845 1.25 20.75 5.244 20.75 10.143C20.75 12.508 20.076 15.048 18.884 17.242C17.694 19.433 15.956 21.337 13.781 22.354C13.2235 22.615 12.6155 22.7503 12 22.7503C11.3845 22.7503 10.7765 22.615 10.219 22.354C8.044 21.337 6.306 19.434 5.116 17.242C3.924 15.048 3.25 12.508 3.25 10.143ZM12 2.75C8.008 2.75 4.75 6.047 4.75 10.143C4.75 12.24 5.353 14.535 6.434 16.526C7.516 18.519 9.046 20.15 10.854 20.995C11.2125 21.163 11.6036 21.25 11.9995 21.25C12.3954 21.25 12.7865 21.163 13.145 20.995C14.954 20.15 16.484 18.519 17.566 16.526C18.647 14.536 19.25 12.24 19.25 10.143C19.25 6.047 15.992 2.75 12 2.75ZM8.25 10C8.25 9.80109 8.32902 9.61032 8.46967 9.46967C8.61032 9.32902 8.80109 9.25 9 9.25H15C15.1989 9.25 15.3897 9.32902 15.5303 9.46967C15.671 9.61032 15.75 9.80109 15.75 10C15.75 10.1989 15.671 10.3897 15.5303 10.5303C15.3897 10.671 15.1989 10.75 15 10.75H9C8.80109 10.75 8.61032 10.671 8.46967 10.5303C8.32902 10.3897 8.25 10.1989 8.25 10Z" fill="black"/>
</g>
<defs>
<clipPath id="clip0_221_15426">
<rect width="24" height="24" fill="white"/>
</clipPath>
</defs>
</svg>
