<svg width="24" height="24" viewBox="0 0 24 24" fill="none" xmlns="http://www.w3.org/2000/svg">
<g clip-path="url(#clip0_221_14725)">
<path d="M13.42 0L13.1615 0.0039058C9.58915 0.112978 8 2.49425 8 5.61V7.01H5.75C5.33579 7.01 5 7.34579 5 7.76V11.76L5.00685 11.8618C5.05651 12.2278 5.3703 12.51 5.75 12.51H8V23.26C8 23.6742 8.33579 24.01 8.75 24.01H13.75L13.8518 24.0032C14.2178 23.9535 14.5 23.6397 14.5 23.26V12.51H17.6C17.9846 12.51 18.3069 12.2191 18.3461 11.8365L18.7561 7.83647L18.7597 7.73562C18.7475 7.33748 18.4203 7.01 18.01 7.01H14.5V5.85C14.4892 5.70447 14.5123 5.63426 14.56 5.58182C14.6077 5.52938 14.6754 5.49964 14.7462 5.5H17.75C18.1642 5.5 18.5 5.16421 18.5 4.75V0.75C18.5 0.335786 18.1642 0 17.75 0H13.42ZM17 1.5V4H14.75C14.2577 3.99752 13.7838 4.20572 13.4501 4.57281C13.1164 4.9399 12.9541 5.43139 13.0038 5.92501L13 7.76L13.0068 7.86177C13.0565 8.22785 13.3703 8.51 13.75 8.51H17.178L16.922 11.01H13.75L13.6482 11.0168C13.2822 11.0665 13 11.3803 13 11.76V22.51H9.5V11.76L9.49315 11.6582C9.44349 11.2922 9.1297 11.01 8.75 11.01H6.5V8.51H8.75C9.16421 8.51 9.5 8.17421 9.5 7.76V5.61C9.5 3.15505 10.6392 1.5 13.42 1.5H17Z" fill="black"/>
</g>
<defs>
<clipPath id="clip0_221_14725">
<rect width="24" height="24" fill="white"/>
</clipPath>
</defs>
</svg>
