<svg width="24" height="24" viewBox="0 0 24 24" fill="none" xmlns="http://www.w3.org/2000/svg">
<g clip-path="url(#clip0_221_14729)">
<path d="M11.9756 0.596924C12.08 0.596924 12.1838 0.617491 12.2803 0.657471C12.3768 0.69745 12.4642 0.756451 12.5381 0.830322L23.0166 11.3079C23.166 11.4572 23.25 11.6601 23.25 11.8713C23.25 12.0824 23.1658 12.2845 23.0166 12.4338L12.5869 22.8635C12.5131 22.9374 12.4246 22.9964 12.3281 23.0364C12.2318 23.0762 12.1286 23.0969 12.0244 23.0969C11.92 23.0969 11.8162 23.0764 11.7197 23.0364C11.6473 23.0064 11.5799 22.9658 11.5195 22.9163L11.4619 22.8635L0.983398 12.385C0.909509 12.3112 0.85054 12.2227 0.810547 12.1262C0.770693 12.0299 0.750044 11.9267 0.75 11.8225C0.75 11.7181 0.770581 11.6143 0.810547 11.5178C0.850537 11.4213 0.909517 11.3339 0.983398 11.26V11.259L7.63672 4.60474L9.51367 6.48169C9.45017 6.80875 9.44952 7.1467 9.51465 7.47681C9.61399 7.97991 9.86136 8.44204 10.2236 8.80493V8.80591C10.3411 8.92409 10.47 9.0295 10.6074 9.12231V14.8225C10.4706 14.9149 10.3427 15.0204 10.2256 15.1379C9.98478 15.3783 9.79343 15.6645 9.66309 15.9788C9.53288 16.2929 9.46582 16.6299 9.46582 16.97C9.46585 17.3101 9.53281 17.647 9.66309 17.9612C9.79322 18.275 9.98435 18.5599 10.2246 18.8V18.801C11.1718 19.7494 12.6724 19.8075 13.6895 18.9788L13.8857 18.801C14.3711 18.3154 14.6445 17.6566 14.6445 16.97C14.6445 16.2832 14.3712 15.6246 13.8857 15.1389L13.8848 15.1379L13.7295 14.9944C13.6939 14.9643 13.6563 14.9366 13.6191 14.9084V10.6028L14.5078 11.4924C14.4464 11.8176 14.4472 12.153 14.5127 12.4807C14.6129 12.9816 14.8588 13.4416 15.2197 13.803C15.4601 14.0437 15.7453 14.2352 16.0596 14.3655C16.3738 14.4958 16.7106 14.5627 17.0508 14.5627C17.3909 14.5627 17.7278 14.4957 18.042 14.3655C18.3562 14.2352 18.6415 14.0437 18.8818 13.803L18.8809 13.802C19.1212 13.5619 19.3132 13.2779 19.4434 12.9641C19.5737 12.6499 19.6406 12.313 19.6406 11.9729C19.6406 11.6328 19.5737 11.2958 19.4434 10.9817C19.313 10.6676 19.1216 10.3821 18.8809 10.1418C18.5379 9.79884 18.1055 9.55911 17.6328 9.45044C17.3216 9.37894 17.0008 9.36646 16.6875 9.41138L14.6152 7.33813C14.6597 7.0253 14.6485 6.70547 14.5771 6.39478C14.4686 5.92196 14.2294 5.48912 13.8867 5.14575L13.8857 5.14478C13.5444 4.80346 13.1137 4.56467 12.6436 4.45532C12.3343 4.38345 12.0159 4.37012 11.7041 4.41333L9.7666 2.47583L11.4131 0.830322C11.4869 0.756449 11.5754 0.69745 11.6719 0.657471C11.7682 0.617606 11.8714 0.596967 11.9756 0.596924Z" stroke="black" stroke-width="1.5"/>
</g>
<defs>
<clipPath id="clip0_221_14729">
<rect width="24" height="24" fill="white"/>
</clipPath>
</defs>
</svg>
