<svg width="24" height="24" viewBox="0 0 24 24" fill="none" xmlns="http://www.w3.org/2000/svg">
<path d="M16.5395 2L16.3234 2.00484C13.5277 2.12406 11.2974 4.42482 11.2911 7.24834L11.2911 7.61L11.1046 7.63017C8.41174 7.86041 5.82939 6.38803 3.10706 3.25782C2.69554 2.78464 1.91956 2.99542 1.80399 3.61178L1.74803 3.93203C1.45684 5.73177 1.60686 7.27656 2.20781 8.54123L2.30115 8.726L0.863834 8.50851C0.373686 8.43402 -0.0525824 8.84712 0.00648844 9.33936L0.0391323 9.5692C0.301443 11.1663 1.26829 12.5119 2.60363 13.2895L2.64115 13.31L1.99484 13.5452C1.57355 13.6983 1.37985 14.1845 1.58033 14.5854L1.68103 14.7791C2.39741 16.1043 3.36147 16.7834 4.97625 17.1576L5.11655 17.1893C3.74611 17.7545 2.26606 18.0339 0.767996 18.0002C-0.0512282 17.9818 -0.302238 19.1026 0.446592 19.4354C6.56879 22.1558 12.0079 21.9417 16.0746 19.2545L16.3669 19.0552C19.7377 16.6847 21.7511 12.723 21.7511 8.75V8.302L23.5409 7.00755L23.6229 6.93921C24.001 6.57715 23.8986 5.9258 23.3966 5.71064L22.0021 5.113L22.7829 3.41249L22.8192 3.31819C22.996 2.75203 22.4542 2.1925 21.8648 2.38821L19.7041 3.105L19.6564 3.06726C18.8404 2.44565 17.8574 2.07706 16.8303 2.01063L16.5395 2ZM16.3437 3.50562L16.5361 3.499C17.4607 3.5099 18.3512 3.86607 19.0298 4.49861L19.1207 4.57108C19.3118 4.70049 19.5543 4.73588 19.7775 4.66179L20.7011 4.354L20.3193 5.18751L20.2827 5.28454C20.1743 5.64414 20.3506 6.03715 20.7057 6.18936L21.5891 6.568L20.5614 7.31245C20.3665 7.45349 20.2511 7.67945 20.2511 7.92V8.75C20.2511 12.3392 18.3682 15.9411 15.2477 18.003L14.999 18.1626C12.0752 19.9844 8.34774 20.4083 4.0712 19.174L3.96215 19.141L4.30377 19.0525C5.58655 18.6951 6.81033 18.129 7.92375 17.3696C8.50886 16.9705 8.26571 16.0575 7.55961 16.0023L7.2722 15.9785C5.20962 15.7986 4.13061 15.4832 3.42662 14.6838L3.38515 14.635L5.25745 13.9548C6.02287 13.6765 5.8583 12.5492 5.04525 12.5013L4.84993 12.4848C3.49241 12.3349 2.34535 11.4722 1.80318 10.2679L1.75815 10.161L3.92846 10.4915C4.66677 10.6037 5.09758 9.68558 4.53942 9.18944L4.38348 9.0438C3.52496 8.20092 3.09349 7.05834 3.10293 5.58023L3.10515 5.458L3.28035 5.63167C6.15449 8.44391 9.05782 9.63099 12.1926 8.98454C12.5411 8.91268 12.7911 8.60583 12.7911 8.25V7.25C12.7956 5.2483 14.3663 3.61318 16.3437 3.50562Z" fill="black"/>
</svg>
