<svg width="24" height="24" viewBox="0 0 24 24" fill="none" xmlns="http://www.w3.org/2000/svg">
<g clip-path="url(#clip0_221_14719)">
<path d="M5.66 8.32C6.0397 8.32 6.35349 8.60215 6.40315 8.96823L6.41 9.07V23C6.41 23.3797 6.12785 23.6935 5.76177 23.7432L5.66 23.75H0.8C0.420304 23.75 0.106509 23.4678 0.0568466 23.1018L0.05 23V9.07C0.05 8.6903 0.332154 8.37651 0.698229 8.32685L0.8 8.32H5.66ZM17.89 8.31C21.56 8.31 23.9106 11.0617 24.0069 15.5793L24.01 15.87V23C24.01 23.3797 23.7278 23.6935 23.3618 23.7432L23.26 23.75H17.89C17.5103 23.75 17.1965 23.4678 17.1468 23.1018L17.14 23L17.14 15.7465C17.1417 15.3767 16.9961 15.0215 16.7352 14.7594C16.5069 14.5301 16.207 14.3886 15.8878 14.3568L15.84 14.354L15.75 14.36C15.0726 14.36 14.5084 14.8445 14.3851 15.4859L14.3664 15.6161L14.36 15.75V23C14.36 23.3797 14.0778 23.6935 13.7118 23.7432L13.61 23.75H8.5C8.1203 23.75 7.80651 23.4678 7.75685 23.1018L7.75 23V9.07C7.75 8.6903 8.03215 8.37651 8.39823 8.32685L8.5 8.32H13.61C13.9897 8.32 14.3035 8.60215 14.3532 8.96823L14.36 9.07V9.239L14.4667 9.18073C15.312 8.7337 16.2376 8.45077 17.1941 8.35042L17.5542 8.32138L17.89 8.31ZM4.91 9.82H1.55V22.25H4.91V9.82ZM17.896 9.809L17.6215 9.82C16.3266 9.89689 15.0884 10.3911 14.0946 11.2324C13.6343 11.6221 12.9422 11.3348 12.8667 10.7636L12.86 10.66V9.82H9.25V22.249H12.86V15.75C12.86 14.2701 13.9724 13.05 15.4066 12.8802L15.5802 12.8649L15.614 12.863L15.6482 12.8568L15.75 12.85C16.5188 12.85 17.256 13.1563 17.7983 13.7012C18.2914 14.1966 18.5865 14.852 18.6334 15.5421L18.64 15.75V22.249H22.51V15.87C22.51 12.1456 20.9104 10.026 18.3044 9.82564L18.0966 9.81382L17.896 9.809ZM3.25 1L3.434 1.00656C4.95364 1.10302 6.18449 2.23551 6.43383 3.70101L6.45983 3.88588L6.473 4.049L6.49315 4.14823L6.5 4.25C6.5 6.04493 5.04493 7.5 3.25 7.5C1.45507 7.5 0 6.04493 0 4.25C0 2.51697 1.35645 1.10075 3.06558 1.00514L3.25 1ZM3.244 2.49998L3.10133 2.50578C2.20711 2.57881 1.5 3.33183 1.5 4.25C1.5 5.2165 2.2835 6 3.25 6C4.11985 6 4.84147 5.36536 4.9771 4.53386L4.994 4.391L4.98684 4.35175L4.98 4.24998C4.98003 3.3395 4.28446 2.5904 3.39411 2.50753L3.244 2.49998Z" fill="black"/>
</g>
<defs>
<clipPath id="clip0_221_14719">
<rect width="24" height="24" fill="white"/>
</clipPath>
</defs>
</svg>
