<svg width="24" height="24" viewBox="0 0 24 24" fill="none" xmlns="http://www.w3.org/2000/svg">
<g clip-path="url(#clip0_221_14713)">
<path d="M10.9741 12.6521L24 12.6733L23.997 24L10.9923 22.1702L10.9741 12.6521ZM12.477 14.154L12.49 20.865L22.497 22.274L22.499 14.171L12.477 14.154ZM0.00706326 12.5212L9.80337 12.5846L9.81098 22.0243L0.00761293 20.6806L0.00706326 12.5212ZM1.507 14.031V19.372L8.309 20.304L8.304 14.074L1.507 14.031ZM9.80804 2.06636L9.81233 11.4979L0.00895962 11.5535L0 3.398L9.80804 2.06636ZM23.997 0V11.3779L10.9923 11.4808V1.89216L23.997 0ZM8.309 3.783L1.5 4.708L1.506 10.044L8.311 10.006L8.309 3.783ZM22.496 1.734L12.492 3.189V9.968L22.496 9.889V1.734Z" fill="black"/>
</g>
<defs>
<clipPath id="clip0_221_14713">
<rect width="24" height="24" fill="white"/>
</clipPath>
</defs>
</svg>
