<svg width="24" height="24" viewBox="0 0 24 24" fill="none" xmlns="http://www.w3.org/2000/svg">
<g clip-path="url(#clip0_221_14723)">
<path d="M17.25 0C20.9779 0 24 3.02208 24 6.75V17.25C24 20.9779 20.9779 24 17.25 24H6.75C3.02208 24 0 20.9779 0 17.25V6.75C0 3.02208 3.02208 0 6.75 0H17.25ZM17.25 1.5H6.75C3.85051 1.5 1.5 3.85051 1.5 6.75V17.25C1.5 20.1495 3.85051 22.5 6.75 22.5H17.25C20.1495 22.5 22.5 20.1495 22.5 17.25V6.75C22.5 3.85051 20.1495 1.5 17.25 1.5ZM12 6.25C15.1756 6.25 17.75 8.82436 17.75 12C17.75 15.1756 15.1756 17.75 12 17.75C8.82436 17.75 6.25 15.1756 6.25 12C6.25 8.82436 8.82436 6.25 12 6.25ZM12 7.75C9.65279 7.75 7.75 9.65279 7.75 12C7.75 14.3472 9.65279 16.25 12 16.25C14.3472 16.25 16.25 14.3472 16.25 12C16.25 9.65279 14.3472 7.75 12 7.75ZM18.85 3.9C19.5363 3.9 20.0934 4.4531 20.0999 5.13788C20.1 5.14189 20.1 5.14594 20.1 5.15C20.1 5.84036 19.5404 6.4 18.85 6.4C18.1596 6.4 17.6 5.84036 17.6 5.15L17.601 5.138L17.6065 5.02219C17.6705 4.39187 18.2028 3.9 18.85 3.9Z" fill="black"/>
</g>
<defs>
<clipPath id="clip0_221_14723">
<rect width="24" height="24" fill="white"/>
</clipPath>
</defs>
</svg>
