<svg width="24" height="24" viewBox="0 0 24 24" fill="none" xmlns="http://www.w3.org/2000/svg">
<path d="M16.5 5.79328L16.6882 5.80464L16.9148 5.82701C17.8917 5.94295 19.6751 6.40326 20.882 8.16984L20.7293 8.26673L20.5833 8.36789L20.4013 8.50458C20.3684 8.53034 20.3344 8.55759 20.2994 8.58634L20.0784 8.77691C19.3108 9.47245 18.2752 10.7729 18.2928 12.7285C18.3155 15.1783 19.7597 16.5237 20.7047 17.1434L20.921 17.2784L21.1965 17.4312L21.5084 17.5762L21.4153 17.8642L21.2651 18.2768L21.1026 18.6788L20.9693 18.9832L20.8154 19.312L20.6402 19.6611L20.4431 20.0264C20.2695 20.3364 20.0725 20.6591 19.8503 20.9837L19.4494 21.5613L19.1665 21.9489C18.4023 22.9636 17.5507 23.8049 16.3923 23.9156L16.1827 23.9275C15.4809 23.9405 14.9873 23.76 14.5006 23.5529L14.0803 23.3727C13.6524 23.1938 13.1871 23.0303 12.5576 22.9873L12.2285 22.9763C11.3691 22.9763 10.7865 23.1787 10.2537 23.3999L9.85994 23.5664C9.46836 23.7308 9.07282 23.8799 8.57746 23.9363L8.30326 23.9571C7.12133 24.0019 6.1508 23.0918 5.31464 22.0204L5.04079 21.6584L4.64729 21.1073L4.52042 20.9247C2.46296 17.9502 0.890644 12.5194 3.00187 8.85348C4.00873 7.1058 5.77637 5.97346 7.71608 5.85952L7.95939 5.85061C8.68156 5.83683 9.38481 6.06265 10.0257 6.30743L10.8118 6.61524C11.2257 6.77276 11.5982 6.89172 11.9136 6.89172C12.1779 6.89172 12.5071 6.79106 12.885 6.65017L13.8773 6.26571C14.501 6.03247 15.1949 5.81511 15.9146 5.77943L16.2062 5.7753C16.3038 5.77747 16.4018 5.78333 16.5 5.79328ZM14.2389 7.73289L13.5712 7.99417L13.1931 8.13371C12.711 8.30156 12.3232 8.39172 11.9136 8.39172C11.5035 8.39172 11.1095 8.30637 10.6467 8.15024L10.4043 8.06441L9.98087 7.90119L9.64306 7.76775C8.86832 7.46463 8.4041 7.3424 7.98119 7.35045C6.49492 7.37205 5.09636 8.22276 4.30172 9.60207C2.76034 12.2785 3.58201 16.9312 5.75367 20.0708L6.05734 20.5012L6.33998 20.8842L6.603 21.2216C7.32171 22.1141 7.82097 22.4743 8.24436 22.4583C8.4969 22.4484 8.69784 22.4065 8.99278 22.2973L9.50468 22.0877C10.5143 21.6586 11.1934 21.4763 12.2285 21.4763C13.1301 21.4763 13.7552 21.6219 14.5788 21.9565L15.0428 22.1534C15.5511 22.3715 15.7903 22.4345 16.155 22.4278C16.7551 22.4167 17.3185 21.9593 18.2031 20.7251L18.3536 20.5121L18.6124 20.1367C18.9696 19.6147 19.277 19.0647 19.536 18.5103L19.655 18.242L19.4082 18.0595C19.3162 17.988 19.2249 17.9134 19.1346 17.8358L18.8667 17.5935C17.5941 16.3828 16.8116 14.7592 16.7928 12.742C16.7771 10.9838 17.4107 9.49178 18.4585 8.28964L18.5617 8.17378L18.691 8.036L18.6552 8.00982C18.0438 7.58281 17.3457 7.36533 16.6471 7.30532L16.3488 7.28564C15.7957 7.2296 15.1837 7.3692 14.2389 7.73289ZM16.524 0C16.6776 1.40278 16.1145 2.81262 15.2778 3.82537C14.5341 4.72616 13.3664 5.44814 12.172 5.52442L11.9479 5.53104C11.8731 5.53064 11.7983 5.52762 11.7237 5.52184C11.5405 4.14682 12.2194 2.71217 12.9946 1.81583C13.8088 0.863177 15.1485 0.138203 16.3087 0.015798L16.524 0Z" fill="black"/>
</svg>
