<svg width="24" height="24" viewBox="0 0 24 24" fill="none" xmlns="http://www.w3.org/2000/svg">
<g clip-path="url(#clip0_221_14768)">
<path d="M7.693 5.68401C8.0526 4.81556 8.66167 4.07326 9.44319 3.551C10.2247 3.02874 11.1435 2.74998 12.0835 2.74998C13.0235 2.74998 13.9423 3.02874 14.7238 3.551C15.5053 4.07326 16.1144 4.81556 16.474 5.68401C16.5501 5.86781 16.6961 6.01384 16.8799 6.08998C17.0637 6.16612 17.2702 6.16613 17.454 6.09001C17.6378 6.0139 17.7838 5.86789 17.86 5.6841C17.9361 5.50031 17.9361 5.29381 17.86 5.11001C17.3869 3.96736 16.5856 2.99068 15.5574 2.30352C14.5291 1.61635 13.3202 1.24957 12.0835 1.24957C10.8468 1.24957 9.63786 1.61635 8.60963 2.30352C7.58141 2.99068 6.78007 3.96736 6.307 5.11001C6.23088 5.29381 6.2309 5.50031 6.30704 5.6841C6.38318 5.86789 6.5292 6.0139 6.713 6.09001C6.89679 6.16613 7.1033 6.16612 7.28709 6.08998C7.47087 6.01384 7.61688 5.86781 7.693 5.68401ZM7 15C7 15.2652 6.89464 15.5196 6.70711 15.7071C6.51957 15.8947 6.26522 16 6 16C5.73478 16 5.48043 15.8947 5.29289 15.7071C5.10536 15.5196 5 15.2652 5 15C5 14.7348 5.10536 14.4804 5.29289 14.2929C5.48043 14.1054 5.73478 14 6 14C6.26522 14 6.51957 14.1054 6.70711 14.2929C6.89464 14.4804 7 14.7348 7 15ZM10 15C10 15.2652 9.89464 15.5196 9.70711 15.7071C9.51957 15.8947 9.26522 16 9 16C8.73478 16 8.48043 15.8947 8.29289 15.7071C8.10536 15.5196 8 15.2652 8 15C8 14.7348 8.10536 14.4804 8.29289 14.2929C8.48043 14.1054 8.73478 14 9 14C9.26522 14 9.51957 14.1054 9.70711 14.2929C9.89464 14.4804 10 14.7348 10 15ZM13.25 15C13.25 14.8011 13.329 14.6103 13.4697 14.4697C13.6103 14.329 13.8011 14.25 14 14.25H18C18.1989 14.25 18.3897 14.329 18.5303 14.4697C18.671 14.6103 18.75 14.8011 18.75 15C18.75 15.1989 18.671 15.3897 18.5303 15.5303C18.3897 15.671 18.1989 15.75 18 15.75H14C13.8011 15.75 13.6103 15.671 13.4697 15.5303C13.329 15.3897 13.25 15.1989 13.25 15Z" fill="black"/>
<path fill-rule="evenodd" clip-rule="evenodd" d="M2.628 3.34902C2.80067 3.25042 3.00543 3.22442 3.19726 3.27673C3.38909 3.32905 3.5523 3.45541 3.651 3.62802L7.435 10.25H16.565L20.349 3.62802C20.4502 3.46033 20.6129 3.33886 20.8024 3.28957C20.992 3.24028 21.1933 3.26708 21.3633 3.36425C21.5333 3.46141 21.6586 3.62123 21.7124 3.80954C21.7661 3.99786 21.7441 4.19973 21.651 4.37202L18.292 10.25C19.085 10.25 19.754 10.257 20.294 10.33C20.922 10.414 21.489 10.6 21.944 11.056C22.4 11.511 22.586 12.078 22.67 12.706C22.75 13.3 22.75 14.05 22.75 14.948V15.052C22.75 15.951 22.75 16.7 22.67 17.294C22.586 17.922 22.4 18.489 21.944 18.944C21.489 19.4 20.922 19.586 20.294 19.67C19.7 19.75 18.951 19.75 18.052 19.75H5.948C5.05 19.75 4.3 19.75 3.706 19.67C3.078 19.586 2.511 19.4 2.056 18.944C1.6 18.489 1.414 17.922 1.33 17.294C1.25 16.7 1.25 15.95 1.25 15.052V14.948C1.25 14.049 1.25 13.3 1.33 12.706C1.414 12.078 1.6 11.511 2.055 11.056C2.511 10.6 3.078 10.414 3.705 10.33C4.246 10.257 4.915 10.25 5.708 10.25L2.348 4.37202C2.24948 4.19923 2.22363 3.99438 2.27614 3.80253C2.32865 3.61069 2.45522 3.44755 2.628 3.34902ZM16.985 11.75H18C18.964 11.75 19.612 11.752 20.095 11.816C20.556 11.879 20.754 11.986 20.884 12.116C21.014 12.246 21.121 12.444 21.184 12.906C21.248 13.388 21.25 14.036 21.25 15C21.25 15.964 21.248 16.612 21.183 17.095C21.121 17.556 21.014 17.754 20.883 17.884C20.752 18.014 20.556 18.121 20.095 18.184C19.612 18.248 18.964 18.25 18 18.25H6C5.036 18.25 4.388 18.248 3.905 18.183C3.444 18.121 3.246 18.014 3.116 17.883C2.986 17.752 2.879 17.556 2.816 17.095C2.752 16.612 2.75 15.964 2.75 15C2.75 14.036 2.752 13.388 2.817 12.905C2.879 12.444 2.986 12.246 3.117 12.116C3.248 11.986 3.444 11.879 3.905 11.816C4.388 11.752 5.036 11.75 6 11.75H16.985Z" fill="black"/>
<path d="M12.084 5.24998C11.5974 5.24986 11.1239 5.40747 10.7345 5.69918C10.3451 5.9909 10.0607 6.401 9.92401 6.86798C9.86832 7.05894 9.73904 7.21995 9.56464 7.31559C9.39023 7.41124 9.18497 7.43368 8.99401 7.37798C8.80306 7.32229 8.64205 7.19302 8.5464 7.01861C8.45076 6.8442 8.42832 6.63894 8.48401 6.44798C8.71181 5.66961 9.18574 4.98604 9.83478 4.49972C10.4838 4.01341 11.273 3.75055 12.084 3.75055C12.895 3.75055 13.6842 4.01341 14.3332 4.49972C14.9823 4.98604 15.4562 5.66961 15.684 6.44798C15.7397 6.63894 15.7173 6.8442 15.6216 7.01861C15.526 7.19302 15.365 7.32229 15.174 7.37798C14.9831 7.43368 14.7778 7.41124 14.6034 7.31559C14.429 7.21995 14.2997 7.05894 14.244 6.86798C14.1073 6.401 13.823 5.9909 13.4335 5.69918C13.0441 5.40747 12.5706 5.24986 12.084 5.24998Z" fill="black"/>
<path d="M12.084 8C12.3492 8 12.6036 7.89464 12.7911 7.70711C12.9786 7.51957 13.084 7.26522 13.084 7C13.084 6.73478 12.9786 6.48043 12.7911 6.29289C12.6036 6.10536 12.3492 6 12.084 6C11.8188 6 11.5644 6.10536 11.3769 6.29289C11.1893 6.48043 11.084 6.73478 11.084 7C11.084 7.26522 11.1893 7.51957 11.3769 7.70711C11.5644 7.89464 11.8188 8 12.084 8Z" fill="black"/>
</g>
<defs>
<clipPath id="clip0_221_14768">
<rect width="24" height="24" fill="white"/>
</clipPath>
</defs>
</svg>
