<svg width="24" height="24" viewBox="0 0 24 24" fill="none" xmlns="http://www.w3.org/2000/svg">
<path fill-rule="evenodd" clip-rule="evenodd" d="M20.1645 2.79972L13.4858 9.54511C12.199 8.49718 10.558 7.86822 8.77066 7.86822C4.6476 7.86822 1.30075 11.215 1.30075 15.3371C1.30075 19.4602 4.6476 22.8069 8.77066 22.8069C12.8927 22.8069 16.2405 19.4602 16.2405 15.3371C16.2405 13.5398 15.6036 11.8887 14.5427 10.599L21.2065 3.86756V8.03538C21.2065 8.44739 21.5409 8.78177 21.9529 8.78177C22.3649 8.78177 22.6993 8.44739 22.6993 8.03538V2.05334C22.6993 1.94088 22.6744 1.83338 22.6296 1.73784L22.6177 1.71197L22.6097 1.69706C22.5789 1.64033 22.54 1.58759 22.4942 1.53883L22.4783 1.52288L22.4674 1.51195L22.4545 1.50001C22.4097 1.45921 22.3609 1.42538 22.3101 1.39751L22.2913 1.38755L22.2723 1.37859L22.2674 1.37561C22.1718 1.33183 22.0653 1.30695 21.9529 1.30695H15.8812C15.4692 1.30695 15.1348 1.64133 15.1348 2.05334C15.1348 2.46534 15.4692 2.79972 15.8812 2.79972H20.1645ZM12.9803 11.0966C11.8995 10.0238 10.4117 9.361 8.77066 9.361C5.47162 9.361 2.79353 12.0391 2.79353 15.3371C2.79353 18.6361 5.47162 21.3142 8.77066 21.3142C12.0697 21.3142 14.7477 18.6361 14.7477 15.3371C14.7477 13.6891 14.079 12.1963 12.9982 11.1145C12.9952 11.1115 12.9932 11.1095 12.9902 11.1065C12.9873 11.1035 12.9833 11.0996 12.9803 11.0966Z" fill="black"/>
</svg>
