<svg width="24" height="24" viewBox="0 0 24 24" fill="none" xmlns="http://www.w3.org/2000/svg">
<g clip-path="url(#clip0_221_14736)">
<path fill-rule="evenodd" clip-rule="evenodd" d="M12 2.75C9.54675 2.75 7.19397 3.72455 5.45926 5.45926C3.72455 7.19397 2.75 9.54675 2.75 12C2.75 14.4533 3.72455 16.806 5.45926 18.5407C7.19397 20.2754 9.54675 21.25 12 21.25C14.4533 21.25 16.806 20.2754 18.5407 18.5407C20.2754 16.806 21.25 14.4533 21.25 12C21.25 9.54675 20.2754 7.19397 18.5407 5.45926C16.806 3.72455 14.4533 2.75 12 2.75ZM1.25 12C1.25 6.063 6.063 1.25 12 1.25C17.937 1.25 22.75 6.063 22.75 12C22.75 17.937 17.937 22.75 12 22.75C6.063 22.75 1.25 17.937 1.25 12ZM8.553 16.398C9.54841 15.6541 10.7574 15.2515 12 15.25C13.285 15.25 14.474 15.677 15.447 16.398C15.5285 16.4557 15.5977 16.5292 15.6505 16.614C15.7033 16.6989 15.7385 16.7934 15.7543 16.8921C15.77 16.9908 15.7658 17.0916 15.742 17.1886C15.7183 17.2857 15.6753 17.377 15.6158 17.4572C15.5562 17.5374 15.4812 17.6049 15.3952 17.6558C15.3092 17.7066 15.2138 17.7397 15.1148 17.7532C15.0158 17.7667 14.9151 17.7603 14.8187 17.7343C14.7222 17.7084 14.6319 17.6634 14.553 17.602C13.8161 17.0502 12.9206 16.7514 12 16.75C11.0794 16.7514 10.1839 17.0502 9.447 17.602C9.36814 17.6634 9.27782 17.7084 9.18134 17.7343C9.08486 17.7603 8.98416 17.7667 8.88516 17.7532C8.78615 17.7397 8.69084 17.7066 8.60483 17.6558C8.51881 17.6049 8.44381 17.5374 8.38424 17.4572C8.32468 17.377 8.28174 17.2857 8.25796 17.1886C8.23417 17.0916 8.23002 16.9908 8.24574 16.8921C8.26146 16.7934 8.29674 16.6989 8.3495 16.614C8.40227 16.5292 8.47145 16.4557 8.553 16.398Z" fill="black"/>
<path d="M16 10.5C16 11.328 15.552 12 15 12C14.448 12 14 11.328 14 10.5C14 9.672 14.448 9 15 9C15.552 9 16 9.672 16 10.5ZM10 10.5C10 11.328 9.552 12 9 12C8.448 12 8 11.328 8 10.5C8 9.672 8.448 9 9 9C9.552 9 10 9.672 10 10.5Z" fill="black"/>
</g>
<defs>
<clipPath id="clip0_221_14736">
<rect width="24" height="24" fill="white"/>
</clipPath>
</defs>
</svg>
