<svg width="24" height="24" viewBox="0 0 24 24" fill="none" xmlns="http://www.w3.org/2000/svg">
<g clip-path="url(#clip0_221_14801)">
<path fill-rule="evenodd" clip-rule="evenodd" d="M12 2.25C11.4505 2.25 10.9137 2.41458 10.4587 2.72253C10.0036 3.03048 9.65129 3.46768 9.44705 3.97775C9.24281 4.48782 9.19604 5.04737 9.31277 5.58427C9.42951 6.12117 9.70439 6.61079 10.102 6.99L9.90199 7.346L8.10499 10.569C7.99041 10.7856 7.86595 10.9968 7.73199 11.202C7.71325 11.2286 7.69323 11.2543 7.67199 11.279C7.64438 11.261 7.61768 11.2416 7.59199 11.221C7.40664 11.0603 7.22879 10.8911 7.05899 10.714L6.97899 10.635C6.69548 10.3464 6.40472 10.0649 6.10699 9.791C6.26408 9.37227 6.29283 8.91623 6.18956 8.48109C6.08629 8.04595 5.85568 7.65146 5.52719 7.34798C5.19869 7.0445 4.7872 6.8458 4.34526 6.77724C3.90332 6.70869 3.45098 6.77339 3.04598 6.96309C2.64098 7.1528 2.3017 7.45889 2.07146 7.84229C1.84121 8.2257 1.73045 8.66902 1.75331 9.11566C1.77617 9.5623 1.93161 9.992 2.1998 10.3499C2.46798 10.7078 2.83674 10.9776 3.25899 11.125L3.26899 11.298C3.29299 11.623 3.33499 12.012 3.38199 12.456L3.56699 14.173L3.65399 15.003C3.76599 16.086 3.87399 17.121 4.03399 17.994C4.13399 18.546 4.26199 19.066 4.43799 19.517C4.61299 19.965 4.85499 20.392 5.21199 20.712C5.84199 21.276 6.60199 21.522 7.50799 21.638C8.38299 21.75 9.48599 21.75 10.86 21.75H13.14C14.514 21.75 15.617 21.75 16.492 21.638C17.399 21.522 18.158 21.276 18.788 20.712C19.145 20.392 19.387 19.965 19.562 19.517C19.738 19.066 19.866 18.546 19.967 17.994C20.127 17.121 20.234 16.086 20.346 15.004L20.433 14.174L20.618 12.457C20.665 12.012 20.708 11.623 20.73 11.298L20.741 11.125C21.1632 10.9776 21.532 10.7078 21.8002 10.3499C22.0684 9.992 22.2238 9.5623 22.2467 9.11566C22.2695 8.66902 22.1588 8.2257 21.9285 7.84229C21.6983 7.45889 21.359 7.1528 20.954 6.96309C20.549 6.77339 20.0967 6.70869 19.6547 6.77724C19.2128 6.8458 18.8013 7.0445 18.4728 7.34798C18.1443 7.65146 17.9137 8.04595 17.8104 8.48109C17.7071 8.91623 17.7359 9.37227 17.893 9.791C17.629 10.028 17.339 10.317 17.02 10.635L16.941 10.714C16.683 10.972 16.529 11.124 16.408 11.221C16.3823 11.2416 16.3556 11.261 16.328 11.279C16.3067 11.2543 16.2867 11.2286 16.268 11.202C16.134 10.9968 16.0096 10.7856 15.895 10.569L14.098 7.346L13.898 6.99C14.2956 6.61079 14.5705 6.12117 14.6872 5.58427C14.8039 5.04737 14.7572 4.48782 14.5529 3.97775C14.3487 3.46768 13.9963 3.03048 13.5413 2.72253C13.0863 2.41458 12.5494 2.25 12 2.25ZM10.75 5C10.75 4.66848 10.8817 4.35054 11.1161 4.11612C11.3505 3.8817 11.6685 3.75 12 3.75C12.3315 3.75 12.6495 3.8817 12.8839 4.11612C13.1183 4.35054 13.25 4.66848 13.25 5C13.25 5.33152 13.1183 5.64946 12.8839 5.88388C12.6495 6.1183 12.3315 6.25 12 6.25C11.6685 6.25 11.3505 6.1183 11.1161 5.88388C10.8817 5.64946 10.75 5.33152 10.75 5ZM11.205 8.09C11.285 7.94533 11.3597 7.812 11.429 7.69C11.8056 7.76845 12.1944 7.76845 12.571 7.69C12.6403 7.812 12.715 7.94533 12.795 8.09L14.602 11.33C14.757 11.608 14.9 11.865 15.04 12.064C15.189 12.275 15.391 12.509 15.702 12.646C15.97 12.764 16.266 12.805 16.556 12.765C16.892 12.718 17.151 12.549 17.352 12.387C17.54 12.234 17.749 12.026 17.976 11.801L18 11.777C18.375 11.403 18.65 11.132 18.86 10.94C18.98 11.0107 19.1063 11.07 19.239 11.118L19.234 11.192C19.214 11.486 19.174 11.849 19.124 12.308L18.942 14.013L18.85 14.883C18.78 15.553 18.716 16.178 18.641 16.75H5.35899C5.28086 16.1283 5.21086 15.5056 5.14899 14.882L5.05899 14.012L4.87499 12.308C4.83002 11.912 4.79201 11.5153 4.76099 11.118C4.89432 11.0693 5.02099 11.01 5.14099 10.94C5.35099 11.132 5.62499 11.403 6.00099 11.777L6.02399 11.801C6.25099 12.026 6.45999 12.234 6.64799 12.387C6.84899 12.549 7.10799 12.718 7.44399 12.765C7.73399 12.805 8.02999 12.764 8.29799 12.645C8.60799 12.509 8.81199 12.275 8.95999 12.064C9.11756 11.8261 9.26372 11.5808 9.39799 11.329L11.205 8.09ZM5.61799 18.25C5.68265 18.526 5.75499 18.766 5.83499 18.97C5.96499 19.3 6.09599 19.49 6.21199 19.594C6.52899 19.877 6.95099 20.054 7.69899 20.15C8.46699 20.249 9.47399 20.25 10.912 20.25H13.088C14.526 20.25 15.533 20.249 16.301 20.15C17.049 20.055 17.471 19.877 17.788 19.594C17.904 19.49 18.036 19.3 18.165 18.971C18.245 18.7663 18.3173 18.526 18.382 18.25H5.61799ZM3.24999 9C3.25 8.85205 3.29377 8.70741 3.37579 8.58427C3.45781 8.46114 3.57441 8.36501 3.71093 8.30799C3.84746 8.25097 3.99779 8.2356 4.14303 8.26382C4.28826 8.29204 4.42191 8.36258 4.52715 8.46657C4.63238 8.57056 4.70452 8.70335 4.73446 8.84824C4.76441 8.99313 4.75084 9.14364 4.69545 9.28083C4.64006 9.41802 4.54533 9.53577 4.42318 9.61925C4.30104 9.70273 4.15693 9.74822 4.00899 9.75H3.99999C3.80108 9.75 3.61031 9.67098 3.46966 9.53033C3.32901 9.38968 3.24999 9.19891 3.24999 9ZM19.25 9C19.25 8.85166 19.294 8.70666 19.3764 8.58332C19.4588 8.45999 19.5759 8.36386 19.713 8.30709C19.85 8.25033 20.0008 8.23547 20.1463 8.26441C20.2918 8.29335 20.4254 8.36478 20.5303 8.46967C20.6352 8.57456 20.7066 8.7082 20.7356 8.85368C20.7645 8.99917 20.7497 9.14997 20.6929 9.28701C20.6361 9.42406 20.54 9.54119 20.4167 9.6236C20.2933 9.70601 20.1483 9.75 20 9.75H19.991C19.7934 9.74841 19.6045 9.6686 19.4656 9.52804C19.3267 9.38747 19.2492 9.1976 19.25 9Z" fill="black"/>
</g>
<defs>
<clipPath id="clip0_221_14801">
<rect width="24" height="24" fill="white"/>
</clipPath>
</defs>
</svg>
