<svg width="24" height="24" viewBox="0 0 24 24" fill="none" xmlns="http://www.w3.org/2000/svg">
<path fill-rule="evenodd" clip-rule="evenodd" d="M13.0265 11.2409C13.0265 11.227 13.0255 11.2121 13.0255 11.1983C13.0235 11.1685 13.0205 11.0137 13.0622 10.8301C13.1088 10.6248 13.2289 10.3529 13.603 10.3529C13.9284 10.3529 14.0891 10.5454 14.1715 10.7349C14.2776 10.9819 14.2895 11.228 14.2905 11.2766V14.9942C14.2905 15.4059 14.6239 15.7383 15.0346 15.7383C16.3155 15.7383 17.1042 16.0627 17.5775 16.4933C18.1261 16.9933 18.2035 17.5995 18.2124 17.6968C18.2134 17.7067 18.2134 21.7556 18.2134 21.7556C18.2134 22.1664 18.5468 22.4997 18.9575 22.4997C19.3683 22.4997 19.7016 22.1664 19.7016 21.7556V17.669C19.7016 17.669 19.6858 16.4 18.5795 15.393C18.012 14.8771 17.1409 14.4088 15.7787 14.2838V11.2399C15.7757 11.1447 15.7529 10.6446 15.5366 10.1446C15.2598 9.50267 14.7052 8.86472 13.603 8.86472C11.4391 8.86472 11.5403 11.2885 11.5403 11.2885L11.5383 11.2409V15.8236C11.4084 15.7859 11.2724 15.7551 11.1345 15.7333C10.4628 15.6291 9.74452 15.7412 9.18496 16.3008C8.61547 16.8703 8.42499 17.4497 8.47658 18.0014C8.54206 18.7167 9.08674 19.4687 10.1047 20.1325C11.3359 20.9361 12.6048 22.214 12.6048 22.214C12.8945 22.5057 13.3658 22.5066 13.6575 22.2169C13.9482 21.9272 13.9492 21.456 13.6595 21.1643C13.6595 21.1643 12.2666 19.7663 10.9182 18.8863C10.6017 18.68 10.3437 18.4726 10.1632 18.2583C10.053 18.1263 9.97072 18.0004 9.95783 17.8644C9.94195 17.6898 10.057 17.5331 10.2366 17.3535C10.4261 17.165 10.6791 17.1689 10.9053 17.2037C11.4232 17.285 11.8766 17.5807 11.8766 17.5807C12.1048 17.7295 12.3975 17.7414 12.6376 17.6114C12.8767 17.4805 13.0265 17.2294 13.0265 16.9566V11.2409ZM10.3437 1.22026C10.0501 0.926582 9.56692 0.926582 9.27325 1.22026L4.22026 6.27325C3.92658 6.56692 3.92658 7.05007 4.22026 7.34375L9.27325 12.3967C9.41612 12.5505 9.6175 12.6378 9.82685 12.6378C10.2426 12.6378 10.5849 12.2955 10.5849 11.8798C10.5849 11.6695 10.4975 11.4691 10.3437 11.3252L6.58452 7.56602H14.861C15.5813 7.56602 16.6796 7.78825 17.5765 8.43414C18.4337 9.05125 19.156 10.087 19.156 11.861C19.156 12.2767 19.4982 12.6189 19.9139 12.6189C20.3296 12.6189 20.672 12.2767 20.672 11.861C20.672 9.59294 19.7096 8.10175 18.4615 7.20386C17.253 6.33376 15.8244 6.05001 14.861 6.05001H6.58452L10.3437 2.29178C10.6374 1.99712 10.6374 1.51393 10.3437 1.22026Z" fill="black"/>
</svg>
