<svg width="24" height="24" viewBox="0 0 24 24" fill="none" xmlns="http://www.w3.org/2000/svg">
<g clip-path="url(#clip0_221_14763)">
<path fill-rule="evenodd" clip-rule="evenodd" d="M10.2177 13.8307C11.6815 15.378 11.346 16.9876 10.6221 18.2127C10.3026 18.7536 9.9048 19.2111 9.58062 19.5379L10.7547 20.6735C10.9185 20.8266 11.0682 20.9048 11.2088 20.9181C11.4932 20.9453 11.6947 20.7345 11.6947 20.7345L14.3889 18.0403C14.5745 17.8547 14.8463 17.7884 15.0962 17.866C15.3462 17.9448 15.5318 18.1543 15.5789 18.4122C15.791 19.5856 16.263 20.2618 16.3525 20.3831C18.1212 22.1399 20.0053 20.0437 20.0053 20.0437C20.0172 20.0305 20.0304 20.0172 20.0437 20.0053C20.0437 20.0053 22.1373 18.1225 20.3891 16.3585C20.2718 16.269 19.5942 15.793 18.4122 15.5788C18.1543 15.5318 17.9448 15.3462 17.8659 15.0962C17.7877 14.847 17.8547 14.5745 18.0397 14.3896L20.7345 11.6947C20.7345 11.6947 20.9453 11.4932 20.9181 11.2088C20.9048 11.0696 20.828 10.9211 20.6782 10.7593C20.6735 10.7547 19.5379 9.58062 19.5379 9.58062C19.2084 9.90877 18.7463 10.3125 18.2007 10.6354C16.9664 11.3659 15.3528 11.7014 13.8234 10.2104L13.8088 10.1905L13.7896 10.1766C12.2987 8.6472 12.6341 7.03365 13.3646 5.79926C13.6875 5.25367 14.0912 4.79159 14.4194 4.46211C14.4194 4.46211 13.2454 3.32652 13.2407 3.32188C13.079 3.17206 12.9304 3.09518 12.7906 3.08126C12.5068 3.05474 12.3046 3.26487 12.3046 3.26487L9.61044 5.96034C9.42548 6.1453 9.15305 6.21229 8.90312 6.1334C8.65386 6.05518 8.46824 5.84565 8.42117 5.58777C8.20705 4.40576 7.73042 3.72758 7.64159 3.61091C5.87752 1.86275 3.99477 3.95633 3.99477 3.95633C3.98284 3.96959 3.96959 3.98284 3.95633 3.99477C3.95633 3.99477 1.86013 5.87881 3.61624 7.64685C3.73822 7.73701 4.41375 8.20833 5.58781 8.42114C5.84569 8.4682 6.05517 8.65386 6.1334 8.90312C6.21162 9.15371 6.14532 9.42547 5.95969 9.61109L3.26487 12.3046C3.26487 12.3046 3.05474 12.5068 3.08125 12.7906C3.09517 12.9318 3.1734 13.0815 3.32653 13.2453L4.46211 14.4194C4.78893 14.0952 5.24637 13.6974 5.78733 13.3779C7.01243 12.654 8.62206 12.3185 10.1693 13.7823L10.1893 13.8101L10.2177 13.8307ZM9.17624 14.7807C8.23222 13.9069 7.2491 14.1476 6.50197 14.5884C5.63154 15.1022 5.03424 15.8759 5.03424 15.8759C4.91027 16.0383 4.72132 16.137 4.51714 16.149C4.31295 16.1609 4.11406 16.0827 3.97219 15.9355L2.30231 14.2099C1.87804 13.7564 1.71891 13.3136 1.68179 12.9251C1.58964 11.9751 2.28505 11.2969 2.27775 11.3042L4.10944 9.47125C3.17537 9.12454 2.69476 8.7102 2.69476 8.7102C2.68017 8.69827 2.66623 8.68564 2.65231 8.67172C-0.021298 6.03921 2.74845 3.21117 2.98511 2.97848C3.26288 2.69806 6.06378 0.00319336 8.67176 2.65227C8.68568 2.6662 8.69826 2.68018 8.7102 2.69476C8.7102 2.69476 9.12452 3.17535 9.4719 4.11009C9.4719 4.11009 11.3042 2.27775 11.2969 2.28504C11.2969 2.28504 11.9752 1.5896 12.9251 1.68175C13.3136 1.71887 13.7565 1.878 14.2099 2.30228L15.9355 3.97219C16.0827 4.11406 16.1609 4.31296 16.149 4.51714C16.1377 4.72066 16.0383 4.90891 15.8772 5.0342C15.8772 5.0342 15.0936 5.64016 14.5745 6.51589C14.1277 7.27031 13.8857 8.26004 14.7966 9.19477L14.8013 9.19813L14.8052 9.20339C15.74 10.1143 16.7297 9.87231 17.4841 9.42549C18.3598 8.90641 18.9658 8.12281 18.9658 8.12281C19.0911 7.96172 19.2793 7.86229 19.4829 7.85102C19.687 7.83909 19.8859 7.91733 20.0278 8.0645L21.6977 9.7901C22.1213 10.2429 22.2811 10.6864 22.3183 11.0749C22.4104 12.0248 21.715 12.7031 21.715 12.7031C21.7223 12.6958 19.8899 14.5281 19.8899 14.5281C20.8246 14.8755 21.3053 15.2898 21.3053 15.2898C21.3199 15.3018 21.3338 15.3143 21.3477 15.3282C23.9968 17.9362 21.3019 20.7371 21.0215 21.0149C20.7888 21.2516 17.9608 24.0213 15.3283 21.3477C15.3144 21.3338 15.3018 21.3199 15.2898 21.3053C15.2898 21.3053 14.8755 20.8246 14.5287 19.8906L12.6958 21.7222C12.7031 21.715 12.0249 22.4104 11.0749 22.3182C10.6864 22.2811 10.2429 22.1213 9.79013 21.6977L8.0645 20.0278C7.91733 19.8859 7.83909 19.687 7.85102 19.4829C7.86295 19.2787 7.96174 19.0897 8.12349 18.9651C8.12349 18.9651 8.89779 18.3685 9.41157 17.498C9.85573 16.7449 10.0971 15.7519 9.19813 14.8013L9.17624 14.7807Z" fill="black"/>
</g>
<defs>
<clipPath id="clip0_221_14763">
<rect width="24" height="24" fill="white"/>
</clipPath>
</defs>
</svg>
