<svg width="24" height="24" viewBox="0 0 24 24" fill="none" xmlns="http://www.w3.org/2000/svg">
<path fill-rule="evenodd" clip-rule="evenodd" d="M12.0052 1.24982C6.06916 1.24982 1.25 6.06582 1.25 11.9977C1.25 17.9306 6.06916 22.7467 12.0052 22.7467C17.9308 22.7467 22.75 17.9306 22.75 11.9977C22.75 6.06582 17.9308 1.24982 12.0052 1.24982ZM12.0052 2.80104C17.0725 2.80104 21.1988 6.9221 21.1988 11.9977C21.1988 17.0743 17.0725 21.1955 12.0052 21.1955C6.9275 21.1955 2.80122 17.0743 2.80122 11.9977C2.80122 6.9221 6.9275 2.80104 12.0052 2.80104ZM12.0155 20.2544C9.95757 20.244 8.45801 19.6928 7.44454 18.9855C5.914 17.9162 5.33493 16.4694 5.04537 15.8231C4.59035 14.7972 4.85923 14.2025 5.17982 13.853C5.66587 13.3194 6.57589 13.3225 6.57589 13.3225L6.54484 13.3214H17.4552L17.4241 13.3225C17.4241 13.3225 18.3341 13.3194 18.8305 13.853C19.1408 14.2025 19.4097 14.7972 18.965 15.8231C18.6754 16.4725 18.086 17.9286 16.5451 18.9979C15.5523 19.6835 14.1666 20.2203 12.1914 20.2533L12.0155 20.2544ZM12.181 18.7021L12.0155 18.7042H12.0052V18.7031C10.3609 18.6918 9.14053 18.2792 8.3339 17.7135C7.12394 16.8696 6.68966 15.7062 6.46215 15.1953C6.42079 15.093 6.3898 14.976 6.36911 14.9037L6.54484 14.8727H17.4552L17.6309 14.9037C17.6102 14.976 17.5896 15.093 17.5378 15.1953C17.3103 15.7083 16.876 16.8789 15.6558 17.7238C14.8698 18.2719 13.7529 18.6732 12.181 18.7021ZM6.4518 10.6627C6.4518 10.6627 6.7931 9.72464 8.03408 9.72464C9.17164 9.72464 9.34747 10.6451 9.34747 10.6451C9.40952 11.0691 9.80247 11.3648 10.2265 11.3048C10.6505 11.2449 10.94 10.8519 10.878 10.4289C10.878 10.4289 10.6091 8.17342 8.03408 8.17342C5.56246 8.17342 4.97291 10.1952 4.97291 10.1952C4.84881 10.6037 5.07632 11.0401 5.47963 11.1683C5.88295 11.2976 6.3277 11.0712 6.4518 10.6627ZM18.965 10.1952C18.965 10.1952 18.3756 8.17342 15.9039 8.17342C13.3289 8.17342 13.06 10.4289 13.06 10.4289C12.998 10.8519 13.2875 11.2449 13.7115 11.3048C14.1355 11.3648 14.5285 11.0691 14.5905 10.6451C14.5905 10.6451 14.7664 9.72464 15.9039 9.72464C17.1449 9.72464 17.4862 10.6627 17.4862 10.6627C17.6103 11.0712 18.0549 11.2976 18.4583 11.1683C18.8719 11.0401 19.0994 10.6037 18.965 10.1952Z" fill="black"/>
</svg>
