<svg width="24" height="24" viewBox="0 0 24 24" fill="none" xmlns="http://www.w3.org/2000/svg">
<path fill-rule="evenodd" clip-rule="evenodd" d="M7.36465 8.5528C3.56529 8.92878 2.37797 11.904 2.03168 13.2525H1.99206C1.5864 13.2525 1.25 13.585 1.25 13.9946V21.7902C1.25 22.1998 1.5864 22.5322 1.99206 22.5322H22.0079C22.4136 22.5322 22.75 22.1998 22.75 21.7902V13.9946C22.75 13.585 22.4136 13.2525 22.0079 13.2525H21.7211C21.3847 12.3274 20.4843 10.6464 18.2482 10.3377V9.34432H19.1683C19.574 9.34432 19.9104 9.01188 19.9104 8.60226C19.9104 8.19363 19.574 7.8602 19.1683 7.8602H15.9725C15.557 7.8602 15.2305 8.19363 15.2305 8.60226C15.2305 9.01188 15.557 9.34432 15.9725 9.34432H16.7641V10.3367C15.3987 10.5257 14.5676 11.2262 14.063 11.9574C13.3012 10.5267 11.7873 8.77641 8.85868 8.53994C9.29402 8.46177 9.83821 8.2718 10.3527 7.83942C11.2531 7.07262 12.1534 5.44306 11.8071 1.90787C11.7774 1.52794 11.4509 1.23804 11.075 1.23804H5.09884C4.71297 1.23804 4.39636 1.52794 4.35678 1.90787C4.01049 5.44207 4.90092 7.07063 5.80129 7.83743C6.33558 8.29652 6.90951 8.48255 7.36465 8.5528ZM21.2659 14.7367H2.73412V21.0481H21.2659V14.7367ZM20.0984 13.2525C19.7323 12.5837 18.9705 11.7723 17.5062 11.7723C16.0418 11.7723 15.3492 12.5916 15.0326 13.2525H20.0984ZM13.034 13.2525C12.5492 12.0415 11.2629 9.99737 8.18582 9.99737C5.09884 9.99737 3.97087 12.0603 3.5751 13.2525H13.034ZM10.2142 5.24516C10.0262 5.95754 9.72928 6.41666 9.39288 6.70755C8.8487 7.1696 8.23528 7.10922 8.17591 7.10032C8.10666 7.09042 8.03744 7.09042 7.96818 7.10032C7.90881 7.10922 7.30531 7.1686 6.77102 6.70951C6.42473 6.41862 6.12782 5.95853 5.94973 5.24516H10.2142ZM10.4021 3.76104H5.7717C5.76181 3.44442 5.76182 3.09913 5.7816 2.72216H8.0869H10.3823C10.4021 3.09913 10.412 3.44442 10.4021 3.76104Z" fill="black"/>
</svg>
