<svg width="24" height="24" viewBox="0 0 24 24" fill="none" xmlns="http://www.w3.org/2000/svg">
<path fill-rule="evenodd" clip-rule="evenodd" d="M11.1826 11.168C11.1826 11.1541 11.1726 11.1393 11.1726 11.1254C11.1726 11.0956 11.1726 10.9407 11.2123 10.757C11.262 10.5516 11.3811 10.2796 11.7583 10.2796C12.076 10.2796 12.2447 10.4721 12.3241 10.6617C12.4333 10.9079 12.4432 11.1551 12.4432 11.2038V14.9233C12.4432 15.3343 12.7807 15.6678 13.1877 15.6678C14.4683 15.6678 15.2625 15.9924 15.729 16.4232C16.2849 16.9235 16.3544 17.5291 16.3644 17.6273C16.3644 17.6363 16.3644 21.6884 16.3644 21.6884C16.3644 22.0993 16.7019 22.4329 17.1089 22.4329C17.5258 22.4329 17.8534 22.0993 17.8534 21.6884V17.5995C17.8534 17.5995 17.8434 16.3299 16.7316 15.3223C16.1658 14.8061 15.2922 14.3376 13.9322 14.2116V11.167C13.9322 11.0717 13.9025 10.5714 13.694 10.0711C13.4161 9.42887 12.8602 8.79061 11.7583 8.79061C9.59433 8.79061 9.69358 11.2157 9.69358 11.2157V11.167V15.7522C9.5546 15.7155 9.42552 15.6847 9.28655 15.6628C8.61153 15.5586 7.89684 15.6708 7.33102 16.2307C6.7652 16.7995 6.57657 17.3802 6.6262 17.9321C6.69569 18.6468 7.23174 19.4003 8.25419 20.0644C9.48511 20.8684 10.7557 22.1469 10.7557 22.1469C11.0436 22.4378 11.5201 22.4398 11.808 22.15C12.0958 21.8601 12.0958 21.3876 11.808 21.0967C11.808 21.0967 10.4182 19.698 9.06819 18.8175C8.75054 18.611 8.49243 18.4036 8.31375 18.1882C8.20456 18.0572 8.12512 17.9311 8.10527 17.7951C8.09534 17.6204 8.20457 17.4635 8.38325 17.2839C8.57185 17.0943 8.82994 17.0992 9.05825 17.134C9.57444 17.2154 10.0311 17.5112 10.0311 17.5112C10.2594 17.6601 10.5473 17.672 10.7855 17.541C11.0237 17.411 11.1826 17.1598 11.1826 16.8868V11.168ZM11.7782 2.42162C7.85711 2.47126 4.69048 5.66665 4.69048 9.59564C4.69048 10.5853 4.89898 11.5621 5.28612 12.4645C5.44495 12.8129 5.3159 13.2239 4.9784 13.4085C4.9784 13.4144 4.96846 13.4174 4.96846 13.4204C4.77985 13.5207 4.57142 13.5395 4.37288 13.473C4.17435 13.4075 4.01552 13.2616 3.9361 13.072C3.47948 11.9781 3.20148 10.7541 3.20148 9.59564C3.20148 4.85167 7.02331 0.99317 11.7583 0.932617H11.9767C16.7117 0.99317 20.5335 4.85167 20.5335 9.59564C20.5335 10.7541 20.2556 11.9781 19.799 13.072C19.7195 13.2616 19.5606 13.4075 19.3621 13.473C19.1636 13.5395 18.9551 13.5207 18.7665 13.4204C18.7665 13.4174 18.7566 13.4144 18.7566 13.4085C18.4191 13.2239 18.2901 12.8129 18.4489 12.4645C18.8361 11.5621 19.0445 10.5853 19.0445 9.59564C19.0445 5.66665 15.8779 2.47126 11.9568 2.42162H11.7782ZM11.798 4.14092H11.808H11.937C14.8555 4.17765 17.218 6.56205 17.218 9.4944C17.218 10.2081 17.0591 10.9635 16.7713 11.6376C16.7713 11.6396 16.7713 11.6405 16.7713 11.6425C16.6918 11.8242 16.543 11.9631 16.3544 12.0267C16.1658 12.0902 15.9573 12.0714 15.7885 11.9761C15.7687 11.9661 15.7489 11.9562 15.739 11.9453C15.4412 11.7587 15.332 11.3834 15.4709 11.0668C15.6893 10.5724 15.7985 10.0364 15.7985 9.4944C15.7985 7.33931 14.0713 5.58723 11.9271 5.55943H11.8179C9.66381 5.58822 7.93653 7.3403 7.93653 9.4944C7.93653 10.0364 8.04574 10.5724 8.26413 11.0638C8.4031 11.3854 8.28396 11.7627 7.99609 11.9443C7.98616 11.9562 7.96633 11.9661 7.95641 11.9761C7.77772 12.0714 7.56925 12.0902 7.38064 12.0267C7.20196 11.9631 7.04315 11.8242 6.96374 11.6425C6.96374 11.6405 6.96374 11.6396 6.96374 11.6376C6.68579 10.9635 6.51702 10.2081 6.51702 9.4944C6.51702 6.56205 8.87958 4.17864 11.798 4.14092Z" fill="black"/>
</svg>
