<svg width="24" height="24" viewBox="0 0 24 24" fill="none" xmlns="http://www.w3.org/2000/svg">
<path fill-rule="evenodd" clip-rule="evenodd" d="M8.07865 13.8047C9.99925 13.434 12.0431 13.5182 13.7069 14.5072C13.9329 14.6459 14.1588 14.8195 14.3437 15.0331C14.734 15.4665 14.929 16.0057 14.9393 16.5459C15.1345 16.4186 15.3398 16.2799 15.535 16.1279L17.394 14.726C18.3389 14.0276 19.6432 14.0276 20.5984 14.726C21.4611 15.3731 21.8 16.5367 21.1838 17.5216C20.7524 18.2221 20.0951 19.1906 19.4173 19.811C18.7394 20.4375 17.7843 20.9643 17.0551 21.3166C16.1718 21.7439 15.2166 21.9791 14.282 22.13C12.3819 22.4382 10.41 22.3899 8.5305 22.0037C7.56506 21.8045 6.5791 21.7038 5.59313 21.7028H3.27197C2.84061 21.7028 2.50168 21.3557 2.50168 20.9325C2.50168 20.5104 2.84061 20.1622 3.27197 20.1622H5.59313C6.68181 20.1622 7.7808 20.2752 8.83866 20.495C10.5538 20.8462 12.3101 20.8853 14.0355 20.609C14.888 20.4714 15.6891 20.267 16.3875 19.9291C17.0859 19.5901 17.8767 19.1444 18.3697 18.6802C18.8832 18.2118 19.4482 17.3994 19.8795 16.7072C20.013 16.4977 19.9924 16.1957 19.674 15.9544C19.2632 15.6688 18.7292 15.6688 18.3184 15.9544L16.4696 17.3573C15.7199 17.9171 14.8161 18.5158 13.6761 18.6956L13.142 18.7664C12.4744 18.8311 11.8171 18.8311 11.1598 18.7664C10.7593 18.7377 10.4408 18.3998 10.4408 17.9982C10.4408 17.5761 10.79 17.2279 11.2111 17.2279C11.2419 17.2279 11.2727 17.23 11.3035 17.233C11.9403 17.2936 12.5257 17.2803 13.0187 17.23L13.0496 17.2269C13.2653 17.0882 13.409 16.8428 13.409 16.5798C13.409 16.3857 13.3269 16.1998 13.1934 16.0581C13.1112 15.9687 13.0188 15.8917 12.916 15.8301C11.7041 15.106 10.0813 14.9858 8.36613 15.3165C6.7023 15.6524 5.11046 16.3292 3.71366 17.3039C3.58014 17.3963 3.42603 17.4467 3.27197 17.4467C2.84061 17.4467 2.50168 17.0985 2.50168 16.6753C2.50168 16.4258 2.61471 16.1916 2.82013 16.0468C4.40179 14.9458 6.18887 14.1827 8.07865 13.8047ZM7.48288 8.84814C7.34936 9.02069 7.14403 9.1275 6.92835 9.13982C6.7024 9.15215 6.48664 9.06691 6.33258 8.90566L5.46989 8.0193C5.18231 7.70399 5.0693 7.39281 5.04876 7.12269C4.98714 6.5157 5.37743 6.06279 5.44933 5.98268L5.9937 5.44037C5.83964 5.34999 5.74718 5.27708 5.71637 5.25551L5.66497 5.20414C4.02168 3.58858 5.68554 1.85288 5.82933 1.71422C6.00393 1.5427 7.71914 -0.0759482 9.32135 1.54886L9.37263 1.60637C9.39317 1.63307 9.46512 1.7245 9.55755 1.87856L10.0711 1.36192C10.0711 1.36192 10.0814 1.35268 10.0916 1.34036C10.1738 1.26128 10.6257 0.874073 11.2419 0.932615C11.509 0.958292 11.8171 1.06306 12.1355 1.35885L13.0187 2.2154C13.1831 2.37151 13.2652 2.58825 13.2549 2.81215C13.2447 3.03502 13.1318 3.24145 12.9572 3.37805L12.7004 3.46431L12.9469 3.38216C12.9469 3.38216 12.5977 3.67589 12.3922 4.01893C12.2485 4.26337 12.1561 4.58588 12.4436 4.88886L12.4538 4.895C12.7516 5.18258 13.0701 5.08606 13.3166 4.94227C13.6555 4.73891 13.9534 4.38458 13.9534 4.38458V4.37944C14.0972 4.20278 14.3025 4.09391 14.5182 4.08158C14.7441 4.06926 14.9599 4.15449 15.1242 4.31471L15.9767 5.20107C16.2745 5.51638 16.3773 5.82859 16.4081 6.09871C16.4594 6.70467 16.0691 7.1576 15.9972 7.2408L15.4528 7.78003C15.6069 7.87143 15.6994 7.94333 15.7302 7.96592L15.7507 7.98952L15.7713 8.00698L15.802 8.03679L15.8226 8.05732C17.3837 9.64515 15.7918 11.3367 15.6275 11.5021C15.4837 11.6469 13.748 13.3117 12.1355 11.6725L12.0841 11.615C12.0635 11.5873 11.9814 11.4959 11.8993 11.3418L11.3549 11.8841C11.2727 11.9591 10.8208 12.3473 10.2149 12.2888C9.94785 12.2631 9.62946 12.1583 9.31107 11.8626L8.42782 11.005C8.27376 10.8499 8.18134 10.6322 8.19161 10.4083C8.21215 10.1854 8.31478 9.97895 8.49965 9.84235V9.83825C8.49965 9.83825 8.84888 9.54964 9.04402 9.20969C9.19808 8.96422 9.29048 8.64069 9.0029 8.33154C8.69479 8.04602 8.36615 8.14153 8.12993 8.28635C7.78073 8.48662 7.54451 8.77934 7.49316 8.83582C7.46235 8.87588 7.43157 8.90567 7.40076 8.92929C7.43157 8.90772 7.46234 8.88307 7.48288 8.85432V8.84814ZM11.396 6.01245C12.3409 6.91832 13.3372 6.72008 14.0972 6.26715C14.2718 6.16855 14.4258 6.05661 14.5593 5.94569L14.8264 6.23019L13.522 7.54072C13.3166 7.74305 13.2447 8.04089 13.3269 8.31408C13.4193 8.58831 13.6452 8.79065 13.9225 8.842C14.3744 8.92211 14.6518 9.0854 14.734 9.146C15.3091 9.7571 14.5593 10.3928 14.5593 10.3928L14.5079 10.4432C14.5079 10.4432 13.8712 11.1919 13.2652 10.625C13.1933 10.5305 13.0393 10.2542 12.9572 9.81154C12.9058 9.53013 12.7004 9.30007 12.4334 9.21379C12.1561 9.12855 11.8582 9.20247 11.6528 9.4048L10.3484 10.7153L10.0608 10.4401C10.1635 10.3066 10.2765 10.1556 10.3792 9.9923C10.8312 9.22919 11.0263 8.22677 10.1122 7.26339V7.26546L10.0711 7.2223C9.10565 6.31028 8.10937 6.50955 7.33908 6.96043C7.17475 7.05697 7.03103 7.16684 6.89751 7.27571L6.62019 6.99124L7.93485 5.68072C8.12999 5.47838 8.21208 5.17951 8.11965 4.90632C8.03748 4.63312 7.80131 4.42975 7.524 4.3784C7.08237 4.29932 6.80502 4.13806 6.71259 4.07644C6.1477 3.46431 6.89751 2.82754 6.89751 2.82754L6.93851 2.77723C6.93851 2.77723 7.57537 2.0285 8.18133 2.5944C8.25323 2.68684 8.41748 2.96414 8.48937 3.40886C8.54073 3.6913 8.74616 3.92136 9.02346 4.00661C9.2905 4.09185 9.58834 4.01893 9.79376 3.8166L11.1084 2.50608L11.3857 2.7803C11.283 2.91485 11.17 3.06786 11.0673 3.23425C10.6154 4.00454 10.41 5.01106 11.3446 5.96622C11.3446 5.96622 11.3755 5.99807 11.396 6.01245ZM15.761 7.99774L15.7405 7.97514L15.7816 8.01726C15.7918 8.02445 15.802 8.0296 15.802 8.03679C15.9047 8.13128 15.8842 8.11586 15.8226 8.05732L15.802 8.03679L15.7713 8.00698L15.761 7.99774ZM11.396 6.01245L11.3652 5.99089C11.4063 6.02273 11.4063 6.02272 11.396 6.01245Z" fill="black"/>
</svg>
