<svg width="24" height="24" viewBox="0 0 24 24" fill="none" xmlns="http://www.w3.org/2000/svg">
<path fill-rule="evenodd" clip-rule="evenodd" d="M11.1697 11.2354C11.1697 11.2215 11.1697 11.2066 11.1687 11.1927C11.1677 11.163 11.1638 11.0081 11.2055 10.8244C11.2521 10.6189 11.3722 10.347 11.7474 10.347C12.072 10.347 12.2329 10.5395 12.3152 10.7291C12.4215 10.9753 12.4333 11.2225 12.4353 11.2711V14.9907C12.4353 15.4017 12.7679 15.7352 13.1798 15.7352C14.4614 15.7352 15.2506 16.0598 15.7231 16.4906C16.273 16.9909 16.3504 17.5964 16.3594 17.6947C16.3594 17.7037 16.3594 21.7557 16.3594 21.7557C16.3594 22.1667 16.6939 22.5002 17.1039 22.5002C17.5148 22.5002 17.8484 22.1667 17.8484 21.7557V17.6669C17.8484 17.6669 17.8335 16.3973 16.7257 15.3897C16.1589 14.8735 15.2863 14.405 13.9234 14.279V11.2344C13.9214 11.1391 13.8986 10.6388 13.6822 10.1385C13.4042 9.49626 12.8493 8.85799 11.7474 8.85799C9.58241 8.85799 9.68271 11.2831 9.68271 11.2831L9.68071 11.2344V15.8196C9.55067 15.7829 9.41568 15.7521 9.27671 15.7302C8.60467 15.626 7.88595 15.7382 7.32609 16.298C6.75729 16.8668 6.56671 17.4475 6.61733 17.9995C6.68384 18.7142 7.22881 19.4676 8.24629 20.1317C9.4782 20.9358 10.7478 22.2143 10.7478 22.2143C11.0377 22.5052 11.5092 22.5072 11.801 22.2174C12.0919 21.9275 12.0939 21.4549 11.804 21.1641C11.804 21.1641 10.4093 19.7654 9.06029 18.8849C8.74363 18.6784 8.48555 18.471 8.30488 18.2556C8.1947 18.1245 8.11225 17.9985 8.10034 17.8625C8.08346 17.6878 8.19862 17.5309 8.37928 17.3512C8.56789 17.1616 8.82103 17.1666 9.04836 17.2014C9.56653 17.2827 10.0192 17.5786 10.0192 17.5786C10.2485 17.7275 10.5403 17.7394 10.7806 17.6084C11.0208 17.4783 11.1697 17.2272 11.1697 16.9542V11.2354ZM11.5707 2.489C7.65367 2.53864 4.489 5.73403 4.489 9.66302C4.489 10.6527 4.69355 11.6295 5.08664 12.5319C5.24448 12.8803 5.10745 13.2912 4.77292 13.4759C4.76994 13.4818 4.76601 13.4848 4.76104 13.4878C4.57939 13.5881 4.36393 13.6069 4.16837 13.5404C3.97183 13.4749 3.81201 13.329 3.72863 13.1394C3.27101 12.0454 3 10.8215 3 9.66302C3 4.91905 6.8208 1.06055 11.5509 1H11.7752C16.5053 1.06055 20.3271 4.91905 20.3271 9.66302C20.3271 10.8215 20.0551 12.0454 19.5975 13.1394C19.5141 13.329 19.3543 13.4749 19.1587 13.5404C18.9621 13.6069 18.7468 13.5881 18.5651 13.4878C18.5611 13.4848 18.5562 13.4818 18.5532 13.4759C18.2187 13.2912 18.0817 12.8803 18.2395 12.5319C18.6336 11.6295 18.8381 10.6527 18.8381 9.66302C18.8381 5.73403 15.6724 2.53864 11.7554 2.489H11.5707Z" fill="black"/>
</svg>
