<svg width="24" height="24" viewBox="0 0 24 24" fill="none" xmlns="http://www.w3.org/2000/svg">
<g clip-path="url(#clip0_221_14818)">
<path fill-rule="evenodd" clip-rule="evenodd" d="M12 2.75C9.54675 2.75 7.19397 3.72455 5.45926 5.45926C3.72455 7.19397 2.75 9.54675 2.75 12C2.75 14.4533 3.72455 16.806 5.45926 18.5407C7.19397 20.2754 9.54675 21.25 12 21.25C14.4533 21.25 16.806 20.2754 18.5407 18.5407C20.2754 16.806 21.25 14.4533 21.25 12C21.25 9.54675 20.2754 7.19397 18.5407 5.45926C16.806 3.72455 14.4533 2.75 12 2.75ZM1.25 12C1.25 6.063 6.063 1.25 12 1.25C17.937 1.25 22.75 6.063 22.75 12C22.75 17.937 17.937 22.75 12 22.75C6.063 22.75 1.25 17.937 1.25 12Z" fill="black"/>
<path fill-rule="evenodd" clip-rule="evenodd" d="M7.4 8.55C7.4591 8.47121 7.53313 8.40482 7.61788 8.35464C7.70263 8.30446 7.79643 8.27147 7.89393 8.25754C7.99144 8.24361 8.09073 8.24902 8.18614 8.27347C8.28155 8.29791 8.37121 8.3409 8.45 8.4L10.45 9.9C10.5431 9.96986 10.6187 10.0604 10.6708 10.1646C10.7229 10.2687 10.75 10.3836 10.75 10.5C10.75 10.6164 10.7229 10.7313 10.6708 10.8354C10.6187 10.9396 10.5431 11.0301 10.45 11.1L8.45 12.6C8.37121 12.6591 8.28155 12.7021 8.18614 12.7265C8.09073 12.751 7.99144 12.7564 7.89393 12.7425C7.79643 12.7285 7.70263 12.6955 7.61788 12.6454C7.53313 12.5952 7.4591 12.5288 7.4 12.45C7.34091 12.3712 7.29791 12.2815 7.27346 12.1861C7.24902 12.0907 7.24361 11.9914 7.25754 11.8939C7.27147 11.7964 7.30446 11.7026 7.35464 11.6179C7.40483 11.5331 7.47121 11.4591 7.55 11.4L8.75 10.5L7.55 9.6C7.47121 9.54091 7.40483 9.46687 7.35464 9.38212C7.30446 9.29737 7.27147 9.20357 7.25754 9.10607C7.24361 9.00856 7.24902 8.90927 7.27346 8.81386C7.29791 8.71845 7.34091 8.62879 7.4 8.55ZM16.6 8.55C16.5409 8.47121 16.4669 8.40482 16.3821 8.35464C16.2974 8.30446 16.2036 8.27147 16.1061 8.25754C16.0086 8.24361 15.9093 8.24902 15.8139 8.27347C15.7185 8.29791 15.6288 8.3409 15.55 8.4L13.55 9.9C13.4569 9.96986 13.3813 10.0604 13.3292 10.1646C13.2771 10.2687 13.25 10.3836 13.25 10.5C13.25 10.6164 13.2771 10.7313 13.3292 10.8354C13.3813 10.9396 13.4569 11.0301 13.55 11.1L15.55 12.6C15.6288 12.6591 15.7185 12.7021 15.8139 12.7265C15.9093 12.751 16.0086 12.7564 16.1061 12.7425C16.2036 12.7285 16.2974 12.6955 16.3821 12.6454C16.4669 12.5952 16.5409 12.5288 16.6 12.45C16.6591 12.3712 16.7021 12.2815 16.7265 12.1861C16.751 12.0907 16.7564 11.9914 16.7425 11.8939C16.7285 11.7964 16.6955 11.7026 16.6454 11.6179C16.5952 11.5331 16.5288 11.4591 16.45 11.4L15.25 10.5L16.45 9.6C16.6091 9.48065 16.7143 9.30298 16.7425 9.10607C16.7706 8.90915 16.7193 8.70913 16.6 8.55ZM15.53 16.53C15.3894 16.6705 15.1988 16.7493 15 16.7493C14.8012 16.7493 14.6106 16.6705 14.47 16.53L14 16.06L13.53 16.53C13.3894 16.6705 13.1988 16.7493 13 16.7493C12.8012 16.7493 12.6106 16.6705 12.47 16.53L12 16.06L11.53 16.53C11.3894 16.6705 11.1988 16.7493 11 16.7493C10.8012 16.7493 10.6106 16.6705 10.47 16.53L10 16.06L9.53 16.53C9.38782 16.6625 9.19978 16.7346 9.00548 16.7312C8.81118 16.7277 8.62579 16.649 8.48838 16.5116C8.35097 16.3742 8.27225 16.1888 8.26882 15.9945C8.2654 15.8002 8.33752 15.6122 8.47 15.47L9.47 14.47C9.61063 14.3295 9.80125 14.2507 10 14.2507C10.1988 14.2507 10.3894 14.3295 10.53 14.47L11 14.94L11.47 14.47C11.6106 14.3295 11.8012 14.2507 12 14.2507C12.1988 14.2507 12.3894 14.3295 12.53 14.47L13 14.94L13.47 14.47C13.6106 14.3295 13.8012 14.2507 14 14.2507C14.1988 14.2507 14.3894 14.3295 14.53 14.47L15.53 15.47C15.6705 15.6106 15.7493 15.8012 15.7493 16C15.7493 16.1988 15.6705 16.3894 15.53 16.53Z" fill="black"/>
</g>
<defs>
<clipPath id="clip0_221_14818">
<rect width="24" height="24" fill="white"/>
</clipPath>
</defs>
</svg>
