<svg width="24" height="24" viewBox="0 0 24 24" fill="none" xmlns="http://www.w3.org/2000/svg">
<path fill-rule="evenodd" clip-rule="evenodd" d="M11.6721 15.723V18.1676H9.75098C9.34206 18.1676 9.01018 18.4995 9.01018 18.9084C9.01018 19.3174 9.34206 19.6492 9.75098 19.6492H11.6721V21.6919C11.6721 22.1008 12.004 22.4327 12.4129 22.4327C12.8218 22.4327 13.1537 22.1008 13.1537 21.6919V19.6492H15.1815C15.5904 19.6492 15.9223 19.3174 15.9223 18.9084C15.9223 18.4995 15.5904 18.1676 15.1815 18.1676H13.1537V15.723C16.8982 15.3516 19.8268 12.1879 19.8268 8.34665C19.8268 4.25449 16.5051 0.932739 12.4129 0.932739C8.32174 0.932739 5 4.25449 5 8.34665C5 12.1879 7.92764 15.3516 11.6721 15.723ZM12.4129 2.41433C15.6872 2.41433 18.3452 5.07233 18.3452 8.34665C18.3452 11.62 15.6872 14.278 12.4129 14.278C9.13958 14.278 6.48159 11.62 6.48159 8.34665C6.48159 5.07233 9.13958 2.41433 12.4129 2.41433Z" fill="black"/>
</svg>
