<svg width="24" height="24" viewBox="0 0 24 24" fill="none" xmlns="http://www.w3.org/2000/svg">
<path fill-rule="evenodd" clip-rule="evenodd" d="M10.4222 11.2409C10.4222 11.227 10.4221 11.2121 10.4211 11.1983C10.4201 11.1685 10.4162 11.0137 10.4579 10.8301C10.5045 10.6248 10.6245 10.3529 10.9986 10.3529C11.324 10.3529 11.4847 10.5454 11.5671 10.7349C11.6732 10.9819 11.6851 11.228 11.6861 11.2766V14.9942C11.6861 15.4059 12.0195 15.7383 12.4302 15.7383C13.7121 15.7383 14.5008 16.0627 14.9731 16.4933C15.5227 16.9933 15.5991 17.5995 15.609 17.6968C15.609 17.7067 15.609 21.7556 15.609 21.7556C15.609 22.1664 15.9424 22.4997 16.3531 22.4997C16.7639 22.4997 17.0972 22.1664 17.0972 21.7556V17.669C17.0972 17.669 17.0824 16.4 15.9751 15.393C15.4086 14.8771 14.5365 14.4088 13.1743 14.2838V11.2399C13.1714 11.1447 13.1486 10.6446 12.9333 10.1446C12.6555 9.50267 12.1008 8.86472 10.9986 8.86472C8.83571 8.86472 8.93594 11.2885 8.93594 11.2885L8.93394 11.2409V15.8236C8.80397 15.7859 8.66899 15.7551 8.5301 15.7333C7.85842 15.6291 7.14014 15.7412 6.58057 16.3008C6.01207 16.8703 5.82159 17.4497 5.87219 18.0014C5.93867 18.7167 6.48334 19.4687 7.50029 20.1325C8.73154 20.9361 10.0005 22.214 10.0005 22.214C10.2902 22.5057 10.7614 22.5066 11.0531 22.2169C11.3438 21.9272 11.3448 21.456 11.0561 21.1643C11.0561 21.1643 9.66217 19.7663 8.31385 18.8863C7.99736 18.68 7.73942 18.4726 7.55885 18.2583C7.44872 18.1263 7.36632 18.0004 7.35441 17.8644C7.33754 17.6898 7.45264 17.5331 7.63321 17.3535C7.82171 17.165 8.07472 17.1689 8.30192 17.2037C8.81982 17.285 9.27226 17.5807 9.27226 17.5807C9.50145 17.7295 9.79311 17.7414 10.0332 17.6114C10.2733 17.4805 10.4222 17.2294 10.4222 16.9566V11.2409ZM14.3282 1.22026C14.6219 0.926582 15.105 0.926582 15.3987 1.22026L20.4517 6.27325C20.7454 6.56692 20.7454 7.05007 20.4517 7.34375L15.3987 12.3967C15.2559 12.5505 15.0544 12.6378 14.8441 12.6378C14.4284 12.6378 14.0871 12.2955 14.0871 11.8798C14.0871 11.6695 14.1744 11.4691 14.3282 11.3252L18.0874 7.56602H9.81096C9.09067 7.56602 7.99138 7.78825 7.09548 8.43414C6.23827 9.05125 5.51601 10.087 5.51601 11.861C5.51601 12.2767 5.17374 12.6189 4.75803 12.6189C4.34233 12.6189 4 12.2767 4 11.861C4 9.59294 4.9624 8.10175 6.21052 7.20386C7.41895 6.33376 8.8476 6.05001 9.81096 6.05001H18.0874L14.3282 2.29178C14.0345 1.99712 14.0345 1.51393 14.3282 1.22026Z" fill="black"/>
</svg>
