<svg width="24" height="24" viewBox="0 0 24 24" fill="none" xmlns="http://www.w3.org/2000/svg">
<g clip-path="url(#clip0_221_14742)">
<path fill-rule="evenodd" clip-rule="evenodd" d="M12 2.75C9.54675 2.75 7.19397 3.72455 5.45926 5.45926C3.72455 7.19397 2.75 9.54675 2.75 12C2.75 14.4533 3.72455 16.806 5.45926 18.5407C7.19397 20.2754 9.54675 21.25 12 21.25C14.4533 21.25 16.806 20.2754 18.5407 18.5407C20.2754 16.806 21.25 14.4533 21.25 12C21.25 9.54675 20.2754 7.19397 18.5407 5.45926C16.806 3.72455 14.4533 2.75 12 2.75ZM1.25 12C1.25 6.063 6.063 1.25 12 1.25C17.937 1.25 22.75 6.063 22.75 12C22.75 17.937 17.937 22.75 12 22.75C6.063 22.75 1.25 17.937 1.25 12ZM8.397 15.553C8.45572 15.4738 8.52948 15.407 8.61405 15.3564C8.69862 15.3057 8.79235 15.2722 8.88987 15.2578C8.98739 15.2434 9.08679 15.2484 9.18239 15.2725C9.27798 15.2965 9.3679 15.3392 9.447 15.398C10.175 15.938 11.054 16.25 12 16.25C12.946 16.25 13.825 15.937 14.553 15.398C14.6319 15.3366 14.7222 15.2916 14.8187 15.2657C14.9151 15.2397 15.0158 15.2333 15.1148 15.2468C15.2138 15.2603 15.3092 15.2934 15.3952 15.3442C15.4812 15.3951 15.5562 15.4626 15.6158 15.5428C15.6753 15.623 15.7183 15.7143 15.742 15.8114C15.7658 15.9084 15.77 16.0092 15.7543 16.1079C15.7385 16.2066 15.7033 16.3011 15.6505 16.386C15.5977 16.4708 15.5285 16.5443 15.447 16.602C14.4516 17.3459 13.2426 17.7485 12 17.75C10.7574 17.7485 9.54841 17.3459 8.553 16.602C8.39323 16.4836 8.28704 16.3065 8.25778 16.1098C8.22853 15.9131 8.2786 15.7128 8.397 15.553Z" fill="black"/>
<path d="M16 10.5C16 11.328 15.552 12 15 12C14.448 12 14 11.328 14 10.5C14 9.672 14.448 9 15 9C15.552 9 16 9.672 16 10.5ZM10 10.5C10 11.328 9.552 12 9 12C8.448 12 8 11.328 8 10.5C8 9.672 8.448 9 9 9C9.552 9 10 9.672 10 10.5Z" fill="black"/>
</g>
<defs>
<clipPath id="clip0_221_14742">
<rect width="24" height="24" fill="white"/>
</clipPath>
</defs>
</svg>
