<svg width="24" height="24" viewBox="0 0 24 24" fill="none" xmlns="http://www.w3.org/2000/svg">
<g clip-path="url(#clip0_221_14748)">
<path fill-rule="evenodd" clip-rule="evenodd" d="M18.004 1.49998C18.1366 1.35202 18.3224 1.26271 18.5208 1.25165C18.7192 1.24059 18.9138 1.30868 19.062 1.44098C20.2234 2.47772 21.1524 3.74837 21.788 5.16951C22.4236 6.59066 22.7514 8.13017 22.75 9.68698C22.75 15.438 18.361 20.165 12.75 20.7V21.25H14C14.1989 21.25 14.3897 21.329 14.5303 21.4696C14.671 21.6103 14.75 21.8011 14.75 22C14.75 22.1989 14.671 22.3897 14.5303 22.5303C14.3897 22.671 14.1989 22.75 14 22.75H10C9.80109 22.75 9.61033 22.671 9.46968 22.5303C9.32902 22.3897 9.25001 22.1989 9.25001 22C9.25001 21.8011 9.32902 21.6103 9.46968 21.4696C9.61033 21.329 9.80109 21.25 10 21.25H11.25V20.741C9.76806 20.6838 8.31282 20.3287 6.97115 19.6968C5.62947 19.0649 4.42887 18.1691 3.44101 17.063C3.37467 16.9897 3.32348 16.904 3.29039 16.8108C3.25729 16.7177 3.24293 16.6189 3.24814 16.5202C3.25336 16.4215 3.27803 16.3247 3.32076 16.2356C3.36348 16.1464 3.42341 16.0666 3.49709 16.0007C3.57078 15.9348 3.65676 15.8841 3.75011 15.8516C3.84345 15.819 3.94231 15.8052 4.041 15.811C4.13969 15.8168 4.23626 15.842 4.32516 15.8853C4.41406 15.9285 4.49353 15.9889 4.55901 16.063C5.45515 17.0669 6.55354 17.8698 7.78203 18.4191C9.01052 18.9684 10.3413 19.2515 11.687 19.25C14.2233 19.25 16.6557 18.2424 18.4491 16.449C20.2425 14.6556 21.25 12.2232 21.25 9.68698C21.2514 8.34121 20.9681 7.01036 20.4187 5.78187C19.8692 4.55337 19.0661 3.45502 18.062 2.55898C17.9885 2.4933 17.9286 2.41376 17.8858 2.32492C17.843 2.23607 17.8182 2.13967 17.8127 2.04121C17.8072 1.94275 17.8212 1.84418 17.8539 1.75114C17.8865 1.6581 17.9372 1.57241 18.003 1.49898M7.22101 5.96997C6.4373 6.89914 5.94155 8.03666 5.79446 9.24327C5.64736 10.4499 5.85531 11.6732 6.39284 12.7634C6.93036 13.8536 7.77414 14.7635 8.82084 15.3815C9.86755 15.9995 11.0718 16.2989 12.286 16.243C12.1755 15.5317 12.295 14.8037 12.627 14.165C13.115 13.246 14.108 12.868 14.785 12.702C15.2177 12.5972 15.66 12.5379 16.105 12.525H16.137C16.887 12.517 17.307 12.342 17.555 12.164C17.804 11.984 17.95 11.749 18.057 11.484L18.087 11.417C18.3224 10.4016 18.3006 9.34347 18.0234 8.33865C17.7463 7.33384 17.2227 6.41413 16.5 5.66298C16.3896 5.99505 16.2416 6.31345 16.059 6.61198C15.848 6.94397 15.449 7.26597 15.142 7.49498C14.9203 7.65743 14.6892 7.80669 14.45 7.94198C14.278 8.04397 14.13 8.13298 13.987 8.23098C13.68 8.44098 13.456 8.65798 13.303 8.98298C13.2638 9.07161 13.2581 9.17146 13.287 9.26398C13.345 9.48497 13.386 9.73497 13.387 9.99197C13.389 11.113 12.349 11.759 11.491 11.749C9.50601 11.726 8.33501 10.06 8.18301 8.30097C8.11101 7.46497 7.68001 6.62098 7.22101 5.96997ZM8.32701 4.93998C8.91701 5.73698 9.56701 6.89997 9.67701 8.17097C9.78701 9.44197 10.546 10.238 11.507 10.249C11.6138 10.2483 11.7171 10.2112 11.8 10.144C11.873 10.082 11.886 10.029 11.886 9.99598C11.8852 9.87825 11.8684 9.76118 11.836 9.64797C11.7178 9.21536 11.7564 8.75486 11.945 8.34797C12.25 7.69497 12.704 7.29198 13.139 6.99298C13.324 6.86698 13.516 6.75297 13.683 6.65298L13.749 6.61298C13.9198 6.51454 14.0857 6.40774 14.246 6.29298C14.57 6.05098 14.749 5.87598 14.793 5.80698C15.002 5.44635 15.1469 5.05216 15.221 4.64198C14.2492 4.0554 13.1351 3.74686 12 3.74997C10.628 3.74997 9.36001 4.19197 8.32801 4.94197M16.818 13.982C16.61 14.0086 16.3883 14.0236 16.153 14.027H16.135L16.079 14.029C16.0277 14.031 15.9543 14.0356 15.859 14.043C15.669 14.06 15.413 14.094 15.144 14.16C14.559 14.304 14.124 14.547 13.954 14.87C13.753 15.248 13.726 15.657 13.767 15.998C14.9624 15.6448 16.0241 14.9428 16.818 13.982ZM4.25001 9.99998C4.25001 7.94455 5.06652 5.9733 6.51993 4.5199C7.97334 3.06649 9.94458 2.24998 12 2.24998C14.0554 2.24998 16.0267 3.06649 17.4801 4.5199C18.9335 5.9733 19.75 7.94455 19.75 9.99998C19.75 12.0554 18.9335 14.0266 17.4801 15.4801C16.0267 16.9335 14.0554 17.75 12 17.75C9.94458 17.75 7.97334 16.9335 6.51993 15.4801C5.06652 14.0266 4.25001 12.0554 4.25001 9.99998Z" fill="black"/>
</g>
<defs>
<clipPath id="clip0_221_14748">
<rect width="24" height="24" fill="white"/>
</clipPath>
</defs>
</svg>
