<svg width="24" height="24" viewBox="0 0 24 24" fill="none" xmlns="http://www.w3.org/2000/svg">
<path fill-rule="evenodd" clip-rule="evenodd" d="M10.536 22.4976H14.834C14.8954 22.4976 14.9569 22.4902 15.0173 22.4764C15.0173 22.4764 16.6187 22.0962 17.9341 21.0339C18.8768 20.2723 19.668 19.1761 19.7368 17.6657C19.8787 14.5815 19.7728 11.6106 19.7675 11.4623V11.4559C19.7654 11.3627 19.7442 10.8671 19.5387 10.3576C19.274 9.69882 18.7328 9.03366 17.6757 8.94893C17.3929 8.92563 17.1483 8.93407 16.9375 8.96373C16.8686 8.71271 16.7161 8.32616 16.3888 7.99146C16.0478 7.643 15.5171 7.32633 14.6656 7.32633C14.2017 7.32633 13.8437 7.40892 13.5651 7.5286C13.492 7.43328 13.4073 7.34114 13.3109 7.25535C12.971 6.95667 12.4816 6.71837 11.7519 6.71414C11.7032 6.71202 11.5231 6.70778 11.2954 6.73744V3.02828C11.2954 3.04735 11.2954 3.06746 11.2933 3.08653C11.2954 3.05475 11.2965 3.02299 11.2954 2.98804C11.2912 2.86624 11.2467 2.2265 10.787 1.70434C10.4671 1.34 9.94712 1 9.0532 1C8.18152 1 7.65513 1.31565 7.32361 1.65563C6.89254 2.09836 6.78238 2.62792 6.7559 2.82281C6.74742 2.88424 6.7453 2.92873 6.7453 2.92873C6.7453 2.92873 6.7442 3.41486 6.7442 2.97637V11.2155C6.47941 11.2611 6.17653 11.3342 5.87362 11.4549C4.93521 11.8267 4 12.6009 4 14.1992C4 16.7454 4.83353 19.1994 8.2101 21.7763C8.21857 21.7827 8.22703 21.789 8.2355 21.7943C8.2355 21.7943 9.31159 22.5431 10.536 22.4976ZM9.70877 8.39925C9.70771 8.38548 9.7067 8.37167 9.7067 8.35684V3.02511C9.7067 3.02511 9.70558 2.82385 9.53823 2.70205C9.43126 2.62367 9.27244 2.58873 9.0532 2.58873C8.81913 2.58873 8.64755 2.62898 8.52893 2.70842C8.38065 2.80798 8.34139 2.9605 8.33292 3.01981V10.3332C8.3361 10.365 8.33822 10.3978 8.33822 10.4307V13.9905C8.33822 14.4279 7.98235 14.7849 7.54386 14.7849C7.10537 14.7849 6.7495 14.4279 6.7495 13.9905V12.836C6.65523 12.8614 6.55781 12.8922 6.4593 12.9313C6.02505 13.104 5.58872 13.4599 5.58872 14.1992C5.58872 16.3281 6.3428 18.3478 9.17073 20.5095C9.28935 20.589 9.85391 20.9375 10.4852 20.9099C10.4968 20.9089 10.5084 20.9088 10.5201 20.9088C10.5201 20.9088 14.7313 20.9088 14.7324 20.9088C15.0289 20.8262 16.0626 20.5032 16.9353 19.7978C17.5571 19.2957 18.1047 18.5883 18.1502 17.5927C18.2922 14.4968 18.1799 11.5163 18.1799 11.5163C18.181 11.5513 18.1851 11.5862 18.1904 11.6201C18.1841 11.5799 18.1799 11.5386 18.1788 11.4941C18.1777 11.4475 18.1672 11.2028 18.0655 10.9518C17.9903 10.7643 17.8494 10.5567 17.5486 10.5324C17.2976 10.5122 17.0805 10.5652 17 10.5896V11.1403C17 11.5788 16.6441 11.9347 16.2056 11.9347C15.7671 11.9347 15.4113 11.5788 15.4113 11.1403V10.4784C15.4102 10.4625 15.4102 10.4476 15.4102 10.4318C15.4102 10.4318 15.4102 9.39378 15.4091 9.39272C15.3848 9.30481 15.2428 8.91505 14.6656 8.91505C14.2218 8.91505 14.0587 9.1258 14.0587 9.1258V9.09722V9.10989C14.0587 9.13955 14.0577 9.15547 14.0577 9.15547C14.0577 9.15971 14.0566 9.165 14.0566 9.16924V11.1403C14.0566 11.5788 13.7007 11.9347 13.2623 11.9347C12.8238 11.9347 12.4679 11.5788 12.4679 11.1403V8.87374C12.452 8.74559 12.4022 8.5729 12.2614 8.44793C12.148 8.34836 11.9733 8.30176 11.7286 8.30176C11.7286 8.30176 11.5994 8.29223 11.4448 8.32083C11.4056 8.32931 11.3356 8.35472 11.2975 8.37061V11.1403C11.2975 11.5788 10.9406 11.9347 10.5031 11.9347C10.0646 11.9347 9.70877 11.5788 9.70877 11.1403V8.39925ZM18.1926 11.6339L18.1979 11.6572L18.1915 11.6265L18.1926 11.6339ZM19.7675 11.4909V11.4845C19.7675 11.4866 19.7675 11.4888 19.7675 11.4909L19.7622 11.582C19.7654 11.5523 19.7675 11.5216 19.7675 11.4909Z" fill="black"/>
</svg>
