<svg width="24" height="24" viewBox="0 0 24 24" fill="none" xmlns="http://www.w3.org/2000/svg">
<path fill-rule="evenodd" clip-rule="evenodd" d="M11.2739 2.01144V22.0246C11.2739 22.4349 11.6069 22.768 12.0173 22.768C12.4277 22.768 12.7607 22.4349 12.7607 22.0246V2.01144C12.7607 1.60106 12.4277 1.26801 12.0173 1.26801C11.6069 1.26801 11.2739 1.60106 11.2739 2.01144Z" fill="black"/>
<path fill-rule="evenodd" clip-rule="evenodd" d="M2.27828 8.1145L12.0172 4.35573L21.7224 8.10264C22.105 8.25034 22.5363 8.05904 22.6839 7.67642C22.8316 7.2938 22.6403 6.86258 22.2577 6.71488L12.2848 2.86493C12.1133 2.79852 11.922 2.79852 11.7496 2.86493L1.74303 6.7268C1.35942 6.87549 1.16905 7.30566 1.31674 7.68828C1.46444 8.07089 1.89566 8.2622 2.27828 8.1145Z" fill="black"/>
<path fill-rule="evenodd" clip-rule="evenodd" d="M21.7217 15.969L11.9827 19.7278L2.27753 15.9809C1.89491 15.8332 1.46369 16.0245 1.31599 16.4071C1.1683 16.7897 1.3596 17.2209 1.74222 17.3686L11.7151 21.2186C11.8866 21.285 12.0779 21.285 12.2504 21.2186L22.2569 17.3567C22.6405 17.208 22.8309 16.7778 22.6832 16.3952C22.5355 16.0126 22.1043 15.8213 21.7217 15.969Z" fill="black"/>
<path fill-rule="evenodd" clip-rule="evenodd" d="M2.1386 10.895L12.0004 9.17221L21.8623 10.9009C22.2657 10.9713 22.6513 10.7007 22.7227 10.2973C22.7931 9.89285 22.5224 9.50727 22.119 9.4369L12.1283 7.68535C12.0441 7.67048 11.9568 7.67048 11.8726 7.68535L1.88286 9.42994C1.47844 9.50032 1.20778 9.88589 1.27816 10.2903C1.34854 10.6947 1.73417 10.9654 2.1386 10.895Z" fill="black"/>
<path fill-rule="evenodd" clip-rule="evenodd" d="M21.8614 13.2314L11.9996 14.9542L2.1377 13.2255C1.73426 13.1551 1.34869 13.4257 1.27732 13.8291C1.20694 14.2336 1.47756 14.6191 1.88099 14.6895L11.8717 16.4411C11.9559 16.4559 12.0432 16.4559 12.1274 16.4411L22.1171 14.6965C22.5216 14.6261 22.7922 14.2405 22.7218 13.8361C22.6515 13.4317 22.2658 13.161 21.8614 13.2314Z" fill="black"/>
<path fill-rule="evenodd" clip-rule="evenodd" d="M19.3553 6.88039V17.3598C19.3553 17.7702 19.6884 18.1032 20.0988 18.1032C20.5092 18.1032 20.8422 17.7702 20.8422 17.3598V6.88039C20.8422 6.47002 20.5092 6.13696 20.0988 6.13696C19.6884 6.13696 19.3553 6.47002 19.3553 6.88039Z" fill="black"/>
<path fill-rule="evenodd" clip-rule="evenodd" d="M3.28326 6.88039V17.3598C3.28326 17.7702 3.61632 18.1032 4.02669 18.1032C4.43707 18.1032 4.77012 17.7702 4.77012 17.3598V6.88039C4.77012 6.47002 4.43707 6.13696 4.02669 6.13696C3.61632 6.13696 3.28326 6.47002 3.28326 6.88039Z" fill="black"/>
<path fill-rule="evenodd" clip-rule="evenodd" d="M7.24841 5.49199V18.5965C7.24841 19.0068 7.58147 19.3402 7.99184 19.3402C8.40222 19.3402 8.73527 19.0068 8.73527 18.5965V5.49199C8.73527 5.0817 8.40222 4.74829 7.99184 4.74829C7.58147 4.74829 7.24841 5.0817 7.24841 5.49199Z" fill="black"/>
<path fill-rule="evenodd" clip-rule="evenodd" d="M15.3015 5.49199V18.5965C15.3015 19.0068 15.6345 19.3402 16.0449 19.3402C16.4553 19.3402 16.7883 19.0068 16.7883 18.5965V5.49199C16.7883 5.0817 16.4553 4.74829 16.0449 4.74829C15.6345 4.74829 15.3015 5.0817 15.3015 5.49199Z" fill="black"/>
</svg>
