<svg width="24" height="24" viewBox="0 0 24 24" fill="none" xmlns="http://www.w3.org/2000/svg">
<g clip-path="url(#clip0_221_14993)">
<path fill-rule="evenodd" clip-rule="evenodd" d="M12.756 11.759L12.755 11.775C12.7477 11.9539 12.7463 12.133 12.751 12.312H12.753C12.78 12.327 12.817 12.346 12.89 12.382L13.878 12.874C14.048 12.958 14.149 13.008 14.225 13.041L14.245 13.049V13.033C14.2523 12.8544 14.2537 12.6757 14.249 12.497L14.247 12.496L14.11 12.426L13.122 11.935C13.0075 11.8765 12.8919 11.8205 12.775 11.767L12.756 11.759ZM12.75 13.988L13.225 14.224C13.375 14.299 13.512 14.367 13.628 14.417C13.746 14.469 13.9 14.527 14.077 14.548C14.4121 14.5872 14.7505 14.5122 15.0378 14.3353C15.325 14.1584 15.5442 13.8898 15.66 13.573C15.72 13.406 15.737 13.241 15.743 13.113C15.75 12.986 15.75 12.833 15.75 12.667V12.618C15.75 12.5 15.75 12.353 15.723 12.21C15.6529 11.8489 15.4525 11.5261 15.16 11.303C15.0497 11.2225 14.9314 11.1534 14.807 11.097L14.777 11.083L13.775 10.584C13.625 10.51 13.488 10.441 13.372 10.391C13.2295 10.3259 13.0782 10.2821 12.923 10.261C12.5879 10.2218 12.2495 10.2968 11.9622 10.4737C11.675 10.6506 11.4558 10.9192 11.34 11.236C11.28 11.403 11.263 11.568 11.257 11.696C11.252 11.8076 11.2497 11.9193 11.25 12.031V14.393C10.9111 14.2741 10.5488 14.238 10.1931 14.2875C9.83741 14.337 9.49871 14.4708 9.20521 14.6777C8.91171 14.8847 8.67189 15.1587 8.50574 15.4771C8.33959 15.7954 8.25191 16.1489 8.25 16.508C8.25052 16.8029 8.30914 17.0949 8.4225 17.3672C8.53585 17.6395 8.70173 17.8868 8.91067 18.095C9.1196 18.3032 9.36749 18.4682 9.64019 18.5806C9.91289 18.6929 10.2051 18.7505 10.5 18.75C11.739 18.75 12.75 17.75 12.75 16.508V13.988ZM11.25 16.508C11.2495 16.41 11.2297 16.3131 11.1917 16.2228C11.1537 16.1325 11.0983 16.0506 11.0287 15.9817C10.959 15.9128 10.8765 15.8583 10.7858 15.8212C10.6951 15.7842 10.598 15.7655 10.5 15.766C10.402 15.7655 10.3049 15.7842 10.2142 15.8212C10.1235 15.8583 10.041 15.9128 9.97132 15.9817C9.90168 16.0506 9.84629 16.1325 9.80831 16.2228C9.77034 16.3131 9.75052 16.41 9.75 16.508C9.75 16.914 10.082 17.25 10.5 17.25C10.918 17.25 11.25 16.914 11.25 16.508Z" fill="black"/>
<path fill-rule="evenodd" clip-rule="evenodd" d="M8.7 1.25H15.3C15.52 1.25 15.689 1.25 15.836 1.266C16.4884 1.33589 17.0944 1.63677 17.5444 2.11431C17.9944 2.59185 18.2589 3.21456 18.29 3.87C18.8766 4.04719 19.3917 4.40627 19.761 4.89537C20.1302 5.38447 20.3343 5.97827 20.344 6.591C20.945 6.771 21.464 7.056 21.888 7.514C22.54 8.219 22.742 9.086 22.75 10.1C22.757 11.075 22.584 12.307 22.368 13.836L21.928 16.95C21.76 18.146 21.623 19.118 21.41 19.879C21.187 20.676 20.858 21.331 20.25 21.835C19.646 22.335 18.93 22.55 18.084 22.652C17.265 22.75 16.235 22.75 14.954 22.75H9.046C7.764 22.75 6.734 22.75 5.916 22.652C5.069 22.55 4.353 22.335 3.749 21.835C3.141 21.331 2.812 20.675 2.589 19.879C2.376 19.118 2.239 18.146 2.07 16.949L1.631 13.836C1.416 12.306 1.241 11.075 1.249 10.1C1.257 9.086 1.459 8.219 2.111 7.514C2.535 7.056 3.053 6.772 3.654 6.591C3.66393 5.97832 3.86835 5.38465 4.23774 4.89573C4.60712 4.40682 5.12234 4.04796 5.709 3.871C5.73987 3.21539 6.00421 2.59243 6.45426 2.11469C6.90431 1.63694 7.51039 1.33592 8.163 1.266C8.31 1.25 8.479 1.25 8.698 1.25M5.188 6.328C6.114 6.25 7.248 6.25 8.615 6.25H15.383C16.749 6.25 17.883 6.25 18.81 6.328C18.7413 6.0215 18.57 5.74762 18.3246 5.55162C18.0791 5.35561 17.7741 5.24921 17.46 5.25H6.539C5.87 5.25 5.327 5.72 5.19 6.328M15.677 2.758C16.227 2.816 16.662 3.226 16.769 3.75H7.232C7.28505 3.49001 7.41947 3.25364 7.61579 3.07512C7.81211 2.8966 8.06015 2.78518 8.324 2.757C8.38 2.751 8.46 2.75 8.741 2.75H15.259C15.539 2.75 15.619 2.751 15.676 2.757M3.213 8.532C3.516 8.205 3.971 7.988 4.856 7.87C5.757 7.75 6.964 7.749 8.672 7.749H15.328C17.036 7.749 18.243 7.751 19.144 7.87C20.029 7.988 20.484 8.205 20.787 8.532C21.083 8.852 21.244 9.287 21.25 10.111C21.256 10.961 21.1 12.081 20.874 13.687L20.451 16.687C20.273 17.948 20.149 18.82 19.966 19.474C19.789 20.104 19.582 20.439 19.293 20.678C19 20.922 18.606 21.078 17.905 21.162C17.186 21.248 16.247 21.249 14.905 21.249H9.095C7.753 21.249 6.814 21.248 6.095 21.162C5.395 21.077 5 20.922 4.707 20.679C4.418 20.439 4.211 20.103 4.034 19.474C3.851 18.82 3.727 17.948 3.549 16.687L3.126 13.687C2.9 12.082 2.744 10.961 2.75 10.111C2.756 9.287 2.917 8.851 3.213 8.532Z" fill="black"/>
</g>
<defs>
<clipPath id="clip0_221_14993">
<rect width="24" height="24" fill="white"/>
</clipPath>
</defs>
</svg>
