<svg width="24" height="24" viewBox="0 0 24 24" fill="none" xmlns="http://www.w3.org/2000/svg">
<g clip-path="url(#clip0_221_14942)">
<path fill-rule="evenodd" clip-rule="evenodd" d="M1.756 14.472C1.017 15.615 1.134 16.91 1.804 17.889C2.464 18.856 3.645 19.5 5.033 19.5L18.967 19.5C20.355 19.5 21.535 18.856 22.197 17.89C22.866 16.91 22.983 15.615 22.245 14.472L15.277 3.683C14.535 2.533 13.234 2 12 2C10.766 2 9.46499 2.533 8.72299 3.683L1.756 14.472ZM5.033 18C4.112 18 3.408 17.577 3.042 17.042C2.684 16.52 2.632 15.88 3.016 15.286L9.983 4.497C10.393 3.86 11.163 3.5 12 3.5C12.836 3.5 13.606 3.86 14.017 4.497L20.985 15.286C21.368 15.88 21.315 16.52 20.958 17.042C20.593 17.577 19.888 18 18.968 18L5.033 18Z" fill="black"/>
<path d="M5 21C4.80109 21 4.61032 21.079 4.46967 21.2197C4.32902 21.3603 4.25 21.5511 4.25 21.75C4.25 21.9489 4.32902 22.1397 4.46967 22.2803C4.61032 22.421 4.80109 22.5 5 22.5L19 22.5C19.1989 22.5 19.3897 22.421 19.5303 22.2803C19.671 22.1397 19.75 21.9489 19.75 21.75C19.75 21.5511 19.671 21.3603 19.5303 21.2197C19.3897 21.079 19.1989 21 19 21L5 21Z" fill="black"/>
</g>
<defs>
<clipPath id="clip0_221_14942">
<rect width="24" height="24" fill="white"/>
</clipPath>
</defs>
</svg>
