<svg width="24" height="24" viewBox="0 0 24 24" fill="none" xmlns="http://www.w3.org/2000/svg">
<path fill-rule="evenodd" clip-rule="evenodd" d="M17.1382 2.89368C17.1382 5.60557 19.3366 7.80399 22.0485 7.80399C22.4336 7.80399 22.75 8.12035 22.75 8.50546C22.75 8.88986 22.4336 9.20693 22.0485 9.20693C20.1426 9.20833 18.3356 8.34482 17.1382 6.86191V17.8582C17.1382 20.2951 15.1327 22.3006 12.6958 22.3006C10.2589 22.3006 8.25336 20.2951 8.25336 17.8582C8.25336 15.4213 10.2589 13.4158 12.6958 13.4158C13.8245 13.4158 14.9124 13.8458 15.7353 14.6181V2.89368H17.1382ZM15.7353 17.8582C15.7353 16.1908 14.3632 14.8187 12.6958 14.8187C11.0284 14.8187 9.6563 16.1908 9.6563 17.8582C9.6563 19.5256 11.0284 20.8977 12.6958 20.8977C14.3632 20.8977 15.7353 19.5256 15.7353 17.8582Z" fill="black"/>
<path fill-rule="evenodd" clip-rule="evenodd" d="M10.8284 10.2656H2.03869C1.60651 10.2656 1.25347 10.6168 1.25347 11.0496C1.25347 11.4823 1.60651 11.8335 2.03869 11.8335H10.8284C11.2606 11.8335 11.6136 11.4823 11.6136 11.0496C11.6136 10.6168 11.2606 10.2656 10.8284 10.2656Z" fill="black"/>
<path fill-rule="evenodd" clip-rule="evenodd" d="M10.8284 1.22534L2.03869 1.22534C1.60651 1.22534 1.25347 1.57654 1.25347 2.00927C1.25347 2.442 1.60651 2.7932 2.03869 2.7932H10.8284C11.2606 2.7932 11.6136 2.442 11.6136 2.00927C11.6136 1.57654 11.2606 1.22534 10.8284 1.22534Z" fill="black"/>
<path fill-rule="evenodd" clip-rule="evenodd" d="M6.12316 19.306H2.0388C1.60662 19.306 1.25358 19.6572 1.25358 20.09C1.25358 20.5227 1.60662 20.8739 2.0388 20.8739H6.12316C6.55535 20.8739 6.90857 20.5227 6.90857 20.09C6.90857 19.6572 6.55535 19.306 6.12316 19.306Z" fill="black"/>
<path fill-rule="evenodd" clip-rule="evenodd" d="M12.3718 5.745L2.03373 5.745C1.59994 5.745 1.25 6.0962 1.25 6.52893C1.25 6.96166 1.59994 7.31286 2.03373 7.31286L12.3718 7.31286C12.8056 7.31286 13.1556 6.96166 13.1556 6.52893C13.1556 6.24044 13.0025 5.98853 12.7692 5.85161C12.6526 5.78367 12.5177 5.745 12.3718 5.745Z" fill="black"/>
<path fill-rule="evenodd" clip-rule="evenodd" d="M6.20403 14.7864H2.03374C1.59995 14.7864 1.25001 15.1376 1.25001 15.5703C1.25001 16.003 1.59995 16.3542 2.03374 16.3542H6.20403C6.63783 16.3542 6.98776 16.003 6.98776 15.5703C6.98776 15.1376 6.63783 14.7864 6.20403 14.7864Z" fill="black"/>
</svg>
