<svg width="24" height="24" viewBox="0 0 24 24" fill="none" xmlns="http://www.w3.org/2000/svg">
<g clip-path="url(#clip0_221_14909)">
<path d="M12 8.75C11.8011 8.75 11.6103 8.67098 11.4697 8.53033C11.329 8.38968 11.25 8.19891 11.25 8V5C11.25 4.80109 11.329 4.61032 11.4697 4.46967C11.6103 4.32902 11.8011 4.25 12 4.25C12.1989 4.25 12.3897 4.32902 12.5303 4.46967C12.671 4.61032 12.75 4.80109 12.75 5V8C12.75 8.19891 12.671 8.38968 12.5303 8.53033C12.3897 8.67098 12.1989 8.75 12 8.75Z" fill="black"/>
<path fill-rule="evenodd" clip-rule="evenodd" d="M4 7.25C4.72935 7.25 5.42882 7.53973 5.94454 8.05546C6.46027 8.57118 6.75 9.27065 6.75 10C6.75 10.7293 6.46027 11.4288 5.94454 11.9445C5.42882 12.4603 4.72935 12.75 4 12.75C3.27065 12.75 2.57118 12.4603 2.05546 11.9445C1.53973 11.4288 1.25 10.7293 1.25 10C1.25 9.27065 1.53973 8.57118 2.05546 8.05546C2.57118 7.53973 3.27065 7.25 4 7.25ZM5.25 10C5.25 9.66848 5.1183 9.35054 4.88388 9.11612C4.64946 8.8817 4.33152 8.75 4 8.75C3.66848 8.75 3.35054 8.8817 3.11612 9.11612C2.8817 9.35054 2.75 9.66848 2.75 10C2.75 10.3315 2.8817 10.6495 3.11612 10.8839C3.35054 11.1183 3.66848 11.25 4 11.25C4.33152 11.25 4.64946 11.1183 4.88388 10.8839C5.1183 10.6495 5.25 10.3315 5.25 10ZM14.75 12C14.75 12.7293 14.4603 13.4288 13.9445 13.9445C13.4288 14.4603 12.7293 14.75 12 14.75C11.2707 14.75 10.5712 14.4603 10.0555 13.9445C9.53973 13.4288 9.25 12.7293 9.25 12C9.25 11.2707 9.53973 10.5712 10.0555 10.0555C10.5712 9.53973 11.2707 9.25 12 9.25C12.7293 9.25 13.4288 9.53973 13.9445 10.0555C14.4603 10.5712 14.75 11.2707 14.75 12ZM12 13.25C12.3315 13.25 12.6495 13.1183 12.8839 12.8839C13.1183 12.6495 13.25 12.3315 13.25 12C13.25 11.6685 13.1183 11.3505 12.8839 11.1161C12.6495 10.8817 12.3315 10.75 12 10.75C11.6685 10.75 11.3505 10.8817 11.1161 11.1161C10.8817 11.3505 10.75 11.6685 10.75 12C10.75 12.3315 10.8817 12.6495 11.1161 12.8839C11.3505 13.1183 11.6685 13.25 12 13.25ZM22.75 14C22.75 14.7293 22.4603 15.4288 21.9445 15.9445C21.4288 16.4603 20.7293 16.75 20 16.75C19.2707 16.75 18.5712 16.4603 18.0555 15.9445C17.5397 15.4288 17.25 14.7293 17.25 14C17.25 13.2707 17.5397 12.5712 18.0555 12.0555C18.5712 11.5397 19.2707 11.25 20 11.25C20.7293 11.25 21.4288 11.5397 21.9445 12.0555C22.4603 12.5712 22.75 13.2707 22.75 14ZM20 15.25C20.3315 15.25 20.6495 15.1183 20.8839 14.8839C21.1183 14.6495 21.25 14.3315 21.25 14C21.25 13.6685 21.1183 13.3505 20.8839 13.1161C20.6495 12.8817 20.3315 12.75 20 12.75C19.6685 12.75 19.3505 12.8817 19.1161 13.1161C18.8817 13.3505 18.75 13.6685 18.75 14C18.75 14.3315 18.8817 14.6495 19.1161 14.8839C19.3505 15.1183 19.6685 15.25 20 15.25Z" fill="black"/>
<path d="M19.25 10C19.25 10.1989 19.329 10.3897 19.4697 10.5303C19.6103 10.671 19.8011 10.75 20 10.75C20.1989 10.75 20.3897 10.671 20.5303 10.5303C20.671 10.3897 20.75 10.1989 20.75 10V5C20.75 4.80109 20.671 4.61032 20.5303 4.46967C20.3897 4.32902 20.1989 4.25 20 4.25C19.8011 4.25 19.6103 4.32902 19.4697 4.46967C19.329 4.61032 19.25 4.80109 19.25 5V10ZM4 13.25C3.80109 13.25 3.61032 13.329 3.46967 13.4697C3.32902 13.6103 3.25 13.8011 3.25 14V19C3.25 19.1989 3.32902 19.3897 3.46967 19.5303C3.61032 19.671 3.80109 19.75 4 19.75C4.19891 19.75 4.38968 19.671 4.53033 19.5303C4.67098 19.3897 4.75 19.1989 4.75 19V14C4.75 13.8011 4.67098 13.6103 4.53033 13.4697C4.38968 13.329 4.19891 13.25 4 13.25ZM11.25 19C11.25 19.1989 11.329 19.3897 11.4697 19.5303C11.6103 19.671 11.8011 19.75 12 19.75C12.1989 19.75 12.3897 19.671 12.5303 19.5303C12.671 19.3897 12.75 19.1989 12.75 19V16C12.75 15.8011 12.671 15.6103 12.5303 15.4697C12.3897 15.329 12.1989 15.25 12 15.25C11.8011 15.25 11.6103 15.329 11.4697 15.4697C11.329 15.6103 11.25 15.8011 11.25 16V19ZM20 19.75C19.8011 19.75 19.6103 19.671 19.4697 19.5303C19.329 19.3897 19.25 19.1989 19.25 19V18C19.25 17.8011 19.329 17.6103 19.4697 17.4697C19.6103 17.329 19.8011 17.25 20 17.25C20.1989 17.25 20.3897 17.329 20.5303 17.4697C20.671 17.6103 20.75 17.8011 20.75 18V19C20.75 19.1989 20.671 19.3897 20.5303 19.5303C20.3897 19.671 20.1989 19.75 20 19.75ZM3.25 5C3.25 4.80109 3.32902 4.61032 3.46967 4.46967C3.61032 4.32902 3.80109 4.25 4 4.25C4.19891 4.25 4.38968 4.32902 4.53033 4.46967C4.67098 4.61032 4.75 4.80109 4.75 5V6C4.75 6.19891 4.67098 6.38968 4.53033 6.53033C4.38968 6.67098 4.19891 6.75 4 6.75C3.80109 6.75 3.61032 6.67098 3.46967 6.53033C3.32902 6.38968 3.25 6.19891 3.25 6V5Z" fill="black"/>
</g>
<defs>
<clipPath id="clip0_221_14909">
<rect width="24" height="24" fill="white"/>
</clipPath>
</defs>
</svg>
