<svg width="24" height="24" viewBox="0 0 24 24" fill="none" xmlns="http://www.w3.org/2000/svg">
<g clip-path="url(#clip0_221_14983)">
<path fill-rule="evenodd" clip-rule="evenodd" d="M13.75 2C13.75 4.9 16.1 7.25 19 7.25C19.1989 7.25 19.3897 7.32902 19.5303 7.46967C19.671 7.61032 19.75 7.80109 19.75 8C19.75 8.19891 19.671 8.38968 19.5303 8.53033C19.3897 8.67098 19.1989 8.75 19 8.75C17.9932 8.75076 16.9991 8.52596 16.0906 8.09213C15.1821 7.6583 14.3823 7.02645 13.75 6.243V18C13.75 19.0924 13.3735 20.1515 12.6838 20.9987C11.9942 21.846 11.0336 22.4296 9.96385 22.6513C8.89414 22.873 7.7807 22.7191 6.81116 22.2157C5.84162 21.7123 5.07523 20.8901 4.64112 19.8876C4.20702 18.8851 4.13174 17.7636 4.42796 16.7121C4.72418 15.6606 5.3738 14.7433 6.26736 14.1149C7.16092 13.4864 8.24381 13.1851 9.33355 13.2618C10.4233 13.3385 11.4533 13.7885 12.25 14.536V2H13.75ZM12.25 18C12.25 17.138 11.9076 16.3114 11.2981 15.7019C10.6886 15.0924 9.86196 14.75 9 14.75C8.13805 14.75 7.3114 15.0924 6.7019 15.7019C6.09241 16.3114 5.75 17.138 5.75 18C5.75 18.862 6.09241 19.6886 6.7019 20.2981C7.3114 20.9076 8.13805 21.25 9 21.25C9.86196 21.25 10.6886 20.9076 11.2981 20.2981C11.9076 19.6886 12.25 18.862 12.25 18Z" fill="black"/>
</g>
<defs>
<clipPath id="clip0_221_14983">
<rect width="24" height="24" fill="white"/>
</clipPath>
</defs>
</svg>
