<svg width="24" height="24" viewBox="0 0 24 24" fill="none" xmlns="http://www.w3.org/2000/svg">
<g clip-path="url(#clip0_221_14963)">
<path fill-rule="evenodd" clip-rule="evenodd" d="M2.52112 3.73254C3.31802 3.15097 4.39201 3.04519 5.3285 3.69037L5.33724 3.69639L10.25 7.29011V7.12299C10.25 6.08742 10.7226 5.19015 11.4541 4.68067C12.2 4.16118 13.1984 4.06831 14.073 4.6433L21.4897 9.52006C21.4895 9.51998 21.4898 9.52015 21.4897 9.52006C22.3603 10.092 22.7497 11.0822 22.7497 12C22.7497 12.9179 22.3606 13.908 21.4897 14.4799L14.0731 19.3567C13.1985 19.9316 12.2 19.8388 11.4541 19.3193C10.7226 18.8098 10.25 17.9126 10.25 16.877V16.7099L5.33713 20.3037L5.32828 20.3098C4.3917 20.9545 3.31787 20.8495 2.52077 20.2678C1.74403 19.701 1.25 18.7106 1.25 17.574V6.42599C1.25 5.28957 1.74449 4.29932 2.52112 3.73254ZM10.25 14.8514V9.1486L4.46977 4.92033C4.10668 4.67423 3.73216 4.7057 3.40538 4.94419C3.05601 5.19916 2.75 5.71641 2.75 6.42599V17.574C2.75 18.2844 3.05597 18.8015 3.40498 19.0561C3.73129 19.2943 4.10592 19.326 4.46989 19.0796L10.25 14.8514ZM12.3114 5.91156C12.0109 6.12083 11.75 6.54255 11.75 7.12299V16.877C11.75 17.4574 12.0109 17.8791 12.3114 18.0884C12.5975 18.2877 12.9295 18.3133 13.2489 18.1033C13.2489 18.1033 13.249 18.1033 13.2489 18.1033L20.6659 13.2263C21.024 12.9912 21.2497 12.5315 21.2497 12C21.2497 11.4684 21.0244 11.009 20.6663 10.7739L13.249 5.89668C13.249 5.89667 13.249 5.89669 13.249 5.89668C12.9296 5.6867 12.5975 5.7123 12.3114 5.91156Z" fill="black"/>
</g>
<defs>
<clipPath id="clip0_221_14963">
<rect width="24" height="24" fill="white"/>
</clipPath>
</defs>
</svg>
