<svg width="24" height="24" viewBox="0 0 24 24" fill="none" xmlns="http://www.w3.org/2000/svg">
<g clip-path="url(#clip0_221_14968)">
<path fill-rule="evenodd" clip-rule="evenodd" d="M19.47 4.46995C19.6106 4.3295 19.8012 4.25061 20 4.25061C20.1988 4.25061 20.3894 4.3295 20.53 4.46995L22.53 6.46995C22.6705 6.61058 22.7493 6.8012 22.7493 6.99995C22.7493 7.1987 22.6705 7.38933 22.53 7.52995L20.53 9.52995C20.4613 9.60364 20.3785 9.66274 20.2865 9.70373C20.1945 9.74472 20.0952 9.76677 19.9945 9.76854C19.8938 9.77032 19.7938 9.75179 19.7004 9.71407C19.607 9.67635 19.5222 9.62021 19.451 9.54899C19.3797 9.47777 19.3236 9.39294 19.2859 9.29955C19.2482 9.20616 19.2296 9.10613 19.2314 9.00543C19.2332 8.90473 19.2552 8.80541 19.2962 8.71341C19.3372 8.62141 19.3963 8.53861 19.47 8.46995L20.19 7.74995H18.397C17.553 7.74995 16.973 7.74995 16.517 7.79495C16.077 7.83795 15.811 7.91695 15.59 8.04195C15.37 8.16695 15.164 8.35495 14.901 8.70995C14.629 9.07795 14.329 9.57495 13.895 10.299L11.372 14.504C10.962 15.189 10.625 15.749 10.304 16.183C9.969 16.636 9.616 16.999 9.149 17.263C8.682 17.527 8.189 17.643 7.629 17.698C7.091 17.75 6.438 17.75 5.639 17.75H2C1.80109 17.75 1.61032 17.6709 1.46967 17.5303C1.32902 17.3896 1.25 17.1989 1.25 17C1.25 16.801 1.32902 16.6103 1.46967 16.4696C1.61032 16.329 1.80109 16.25 2 16.25H5.603C6.447 16.25 7.027 16.25 7.483 16.205C7.923 16.162 8.189 16.083 8.41 15.958C8.63 15.833 8.836 15.6449 9.099 15.29C9.371 14.922 9.67 14.425 10.105 13.701L12.628 9.49595C13.038 8.81095 13.375 8.25095 13.696 7.81695C14.031 7.36395 14.384 7.00095 14.851 6.73695C15.318 6.47295 15.811 6.35695 16.371 6.30195C16.909 6.24995 17.562 6.24995 18.361 6.24995H20.189L19.469 5.52995C19.3286 5.38933 19.2497 5.1987 19.2497 4.99995C19.2497 4.8012 19.3295 4.61058 19.47 4.46995ZM7.73 7.78995C7.534 7.75195 7.312 7.74895 6.667 7.74895H2C1.80109 7.74895 1.61032 7.66993 1.46967 7.52928C1.32902 7.38863 1.25 7.19786 1.25 6.99895C1.25 6.80004 1.32902 6.60927 1.46967 6.46862C1.61032 6.32797 1.80109 6.24895 2 6.24895H6.74C7.286 6.24895 7.662 6.24895 8.018 6.31895C8.81726 6.47442 9.54421 6.8858 10.089 7.49095C10.332 7.76095 10.525 8.08295 10.806 8.55095L10.843 8.61295C10.8949 8.69742 10.9294 8.79133 10.9448 8.88925C10.9601 8.98717 10.9559 9.08716 10.9324 9.18344C10.9088 9.27972 10.8664 9.37038 10.8076 9.45018C10.7488 9.52997 10.6748 9.59733 10.5898 9.64834C10.5049 9.69935 10.4106 9.73302 10.3125 9.74739C10.2145 9.76175 10.1145 9.75654 10.0185 9.73205C9.92244 9.70756 9.83221 9.66427 9.753 9.60469C9.67379 9.54512 9.60717 9.47043 9.557 9.38495C9.225 8.83095 9.107 8.64295 8.974 8.49495C8.64728 8.13112 8.20993 7.88364 7.73 7.78995ZM13.414 14.356C13.4985 14.3051 13.5922 14.2714 13.6897 14.2568C13.7872 14.2422 13.8866 14.247 13.9823 14.2709C14.078 14.2947 14.168 14.3372 14.2472 14.3959C14.3264 14.4546 14.3933 14.5284 14.444 14.613C14.775 15.167 14.892 15.355 15.026 15.503C15.353 15.867 15.789 16.114 16.269 16.208C16.465 16.246 16.687 16.249 17.332 16.249H20.189L19.469 15.529C19.3974 15.4597 19.3403 15.3769 19.301 15.2854C19.2618 15.1939 19.2411 15.0955 19.2403 14.9959C19.2395 14.8963 19.2585 14.7976 19.2963 14.7054C19.334 14.6133 19.3898 14.5295 19.4602 14.4592C19.5307 14.3888 19.6144 14.3331 19.7066 14.2955C19.7988 14.2578 19.8976 14.2389 19.9972 14.2398C20.0967 14.2407 20.1951 14.2614 20.2866 14.3008C20.3781 14.3401 20.4608 14.3973 20.53 14.469L22.53 16.469C22.6705 16.6096 22.7493 16.8002 22.7493 16.999C22.7493 17.1977 22.6705 17.3883 22.53 17.5289L20.53 19.5289C20.4613 19.6026 20.3785 19.6617 20.2865 19.7027C20.1945 19.7437 20.0952 19.7658 19.9945 19.7675C19.8938 19.7693 19.7938 19.7508 19.7004 19.7131C19.607 19.6754 19.5222 19.6192 19.451 19.548C19.3797 19.4768 19.3236 19.3919 19.2859 19.2985C19.2482 19.2052 19.2296 19.1051 19.2314 19.0044C19.2332 18.9037 19.2552 18.8044 19.2962 18.7124C19.3372 18.6204 19.3963 18.5376 19.47 18.469L20.19 17.749H17.259C16.714 17.749 16.339 17.749 15.982 17.679C15.1827 17.5235 14.4558 17.1121 13.911 16.507C13.668 16.2369 13.475 15.915 13.194 15.4469L13.157 15.385C13.1062 15.3005 13.0725 15.2068 13.0579 15.1093C13.0433 15.0118 13.048 14.9123 13.0719 14.8167C13.0958 14.721 13.1383 14.631 13.197 14.5517C13.2557 14.4725 13.3294 14.4056 13.414 14.3549" fill="black"/>
</g>
<defs>
<clipPath id="clip0_221_14968">
<rect width="24" height="24" fill="white"/>
</clipPath>
</defs>
</svg>
