<svg width="24" height="24" viewBox="0 0 24 24" fill="none" xmlns="http://www.w3.org/2000/svg">
<path fill-rule="evenodd" clip-rule="evenodd" d="M9.64842 10.2593H2.03808C1.60616 10.2593 1.25334 10.6103 1.25334 11.0427C1.25334 11.4752 1.60616 11.8262 2.03808 11.8262H9.64842C10.0803 11.8262 10.4332 11.4752 10.4332 11.0427C10.4332 10.6103 10.0803 10.2593 9.64842 10.2593Z" fill="black"/>
<path fill-rule="evenodd" clip-rule="evenodd" d="M14.3689 1.22449L2.0379 1.22449C1.60598 1.22449 1.25316 1.57547 1.25316 2.00794C1.25316 2.44041 1.60598 2.79139 2.0379 2.79139L14.3689 2.79139C14.8009 2.79139 15.1537 2.44041 15.1537 2.00794C15.1537 1.57547 14.8009 1.22449 14.3689 1.22449Z" fill="black"/>
<path fill-rule="evenodd" clip-rule="evenodd" d="M5.14672 19.2941H2.03801C1.60609 19.2941 1.25327 19.6451 1.25327 20.0775C1.25327 20.51 1.60609 20.861 2.03801 20.861H5.14672C5.57864 20.861 5.93146 20.51 5.93146 20.0775C5.93146 19.6451 5.57864 19.2941 5.14672 19.2941Z" fill="black"/>
<path fill-rule="evenodd" clip-rule="evenodd" d="M9.64015 5.74133H2.03331C1.59978 5.74133 1.25005 6.09232 1.25005 6.52479C1.25005 6.95725 1.59978 7.30824 2.03331 7.30824H9.64015C10.0737 7.30824 10.4234 6.95725 10.4234 6.52479C10.4234 6.23648 10.2704 5.98472 10.0373 5.84788C9.9207 5.77998 9.78587 5.74133 9.64015 5.74133Z" fill="black"/>
<path fill-rule="evenodd" clip-rule="evenodd" d="M6.201 14.7772H2.03325C1.59972 14.7772 1.24999 15.1282 1.24999 15.5607C1.24999 15.9931 1.59972 16.3441 2.03325 16.3441H6.201C6.63453 16.3441 6.98425 15.9931 6.98425 15.5607C6.98425 15.1282 6.63453 14.7772 6.201 14.7772Z" fill="black"/>
<path fill-rule="evenodd" clip-rule="evenodd" d="M19.7554 4.56221C19.1221 4.72335 18.2931 5.06826 17.0909 5.57148L15.2059 6.36095C14.6313 6.60125 14.2525 6.76028 13.9733 6.91506C13.7097 7.05995 13.5966 7.1695 13.5231 7.27905C13.4496 7.38789 13.3937 7.5349 13.3619 7.83457C13.3266 8.15121 13.3259 8.56255 13.3259 9.18592V11.1126L21.3358 7.90808C21.3344 6.86417 21.3216 6.11146 21.2389 5.54957C21.1449 4.9163 20.9845 4.70074 20.8113 4.58482C20.6368 4.46891 20.3746 4.4046 19.7554 4.56221ZM22.7493 17.0127V8.3378C22.7493 7.1073 22.7493 6.10439 22.6362 5.34249C22.5203 4.55443 22.2595 3.85119 21.5944 3.40734C20.9272 2.9649 20.1781 2.996 19.4063 3.19248C18.6599 3.38189 17.734 3.76921 16.5997 4.24416L14.6264 5.07109C14.0942 5.29301 13.6432 5.48172 13.2898 5.6775C12.9131 5.88529 12.5901 6.12983 12.347 6.49594C12.1039 6.86134 12.0021 7.25431 11.9555 7.68191C11.9123 8.08336 11.9123 8.57174 11.9123 9.14847V16.6431C11.4197 16.3286 10.8479 16.1618 10.2641 16.1618C8.58344 16.1618 7.20099 17.5442 7.20099 19.2242C7.20099 20.9042 8.58344 22.2867 10.2641 22.2867C11.9442 22.2867 13.3266 20.9042 13.3266 19.2242C13.3266 19.0666 13.3146 18.909 13.2898 18.7528H13.3259V12.6343L21.3358 9.43047V14.7574C20.8439 14.4429 20.2714 14.2761 19.6876 14.2761C18.0069 14.2761 16.6244 15.6586 16.6244 17.3386C16.6244 19.0186 18.0069 20.401 19.6876 20.401C21.3676 20.401 22.75 19.0186 22.75 17.3386C22.75 17.2297 22.7444 17.1209 22.7324 17.0127H22.7493ZM19.6869 15.6904C18.7822 15.6904 18.038 16.4346 18.038 17.3393C18.038 18.2439 18.7822 18.9889 19.6869 18.9889C20.5915 18.9889 21.3358 18.2439 21.3358 17.3393C21.3358 16.4346 20.5915 15.6904 19.6869 15.6904ZM10.2634 17.5753C9.35877 17.5753 8.61383 18.3196 8.61383 19.2242C8.61383 20.1289 9.35877 20.8731 10.2634 20.8731C11.1681 20.8731 11.9123 20.1289 11.9123 19.2242C11.9123 18.3196 11.1681 17.5753 10.2634 17.5753Z" fill="black"/>
</svg>
