<svg width="24" height="24" viewBox="0 0 24 24" fill="none" xmlns="http://www.w3.org/2000/svg">
<g clip-path="url(#clip0_221_14872)">
<path fill-rule="evenodd" clip-rule="evenodd" d="M6.25 8C6.25 6.47501 6.8558 5.01247 7.93414 3.93414C9.01247 2.8558 10.475 2.25 12 2.25C13.525 2.25 14.9875 2.8558 16.0659 3.93414C17.1442 5.01247 17.75 6.47501 17.75 8V11C17.75 12.525 17.1442 13.9875 16.0659 15.0659C14.9875 16.1442 13.525 16.75 12 16.75C10.475 16.75 9.01247 16.1442 7.93414 15.0659C6.8558 13.9875 6.25 12.525 6.25 11V8ZM12 3.75C10.8728 3.75 9.79183 4.19777 8.9948 4.9948C8.19777 5.79183 7.75 6.87283 7.75 8V11C7.74902 12.0627 8.14618 13.0872 8.8632 13.8715C9.58021 14.6558 10.565 15.1431 11.6235 15.2372C12.6821 15.3313 13.7374 15.0255 14.5816 14.38C15.4257 13.7345 15.9974 12.7962 16.184 11.75H13C12.8011 11.75 12.6103 11.671 12.4697 11.5303C12.329 11.3897 12.25 11.1989 12.25 11C12.25 10.8011 12.329 10.6103 12.4697 10.4697C12.6103 10.329 12.8011 10.25 13 10.25H16.25V8.75H13C12.8011 8.75 12.6103 8.67098 12.4697 8.53033C12.329 8.38968 12.25 8.19891 12.25 8C12.25 7.80109 12.329 7.61032 12.4697 7.46967C12.6103 7.32902 12.8011 7.25 13 7.25H16.184C16.008 6.26844 15.4925 5.38001 14.7276 4.74017C13.9627 4.10034 12.9972 3.74984 12 3.75ZM4 9.25C4.19891 9.25 4.38968 9.32902 4.53033 9.46967C4.67098 9.61032 4.75 9.80109 4.75 10V11C4.75 11.9521 4.93753 12.8948 5.30187 13.7745C5.66622 14.6541 6.20025 15.4533 6.87348 16.1265C7.5467 16.7997 8.34593 17.3338 9.22554 17.6981C10.1052 18.0625 11.0479 18.25 12 18.25C12.9521 18.25 13.8948 18.0625 14.7745 17.6981C15.6541 17.3338 16.4533 16.7997 17.1265 16.1265C17.7997 15.4533 18.3338 14.6541 18.6981 13.7745C19.0625 12.8948 19.25 11.9521 19.25 11V10C19.25 9.80109 19.329 9.61032 19.4697 9.46967C19.6103 9.32902 19.8011 9.25 20 9.25C20.1989 9.25 20.3897 9.32902 20.5303 9.46967C20.671 9.61032 20.75 9.80109 20.75 10V11C20.7501 13.1908 19.9282 15.302 18.447 16.9162C16.9657 18.5304 14.9328 19.5302 12.75 19.718V22C12.75 22.1989 12.671 22.3897 12.5303 22.5303C12.3897 22.671 12.1989 22.75 12 22.75C11.8011 22.75 11.6103 22.671 11.4697 22.5303C11.329 22.3897 11.25 22.1989 11.25 22V19.718C9.06722 19.5302 7.0343 18.5304 5.55303 16.9162C4.07177 15.302 3.24995 13.1908 3.25 11V10C3.25 9.80109 3.32902 9.61032 3.46967 9.46967C3.61032 9.32902 3.80109 9.25 4 9.25Z" fill="black"/>
</g>
<defs>
<clipPath id="clip0_221_14872">
<rect width="24" height="24" fill="white"/>
</clipPath>
</defs>
</svg>
