<svg width="24" height="24" viewBox="0 0 24 24" fill="none" xmlns="http://www.w3.org/2000/svg">
<g clip-path="url(#clip0_221_14867)">
<path fill-rule="evenodd" clip-rule="evenodd" d="M2.25 12C2.25 6.615 6.615 2.25 12 2.25C17.385 2.25 21.75 6.615 21.75 12V14.793C21.8631 14.753 21.9842 14.7407 22.103 14.7572C22.2219 14.7737 22.335 14.8184 22.433 14.8877C22.5309 14.957 22.6109 15.0487 22.666 15.1553C22.7212 15.2618 22.75 15.38 22.75 15.5V17.5C22.75 17.6207 22.7208 17.7396 22.665 17.8466C22.6092 17.9536 22.5284 18.0456 22.4294 18.1147C22.3305 18.1838 22.2163 18.228 22.0967 18.2435C21.977 18.2591 21.8553 18.2455 21.742 18.204C21.7367 18.404 21.7267 18.589 21.712 18.759C21.672 19.194 21.584 19.595 21.369 19.971C21.226 20.221 21.046 20.448 20.834 20.643C20.514 20.938 20.142 21.106 19.731 21.231C19.343 21.348 18.86 21.444 18.288 21.556L18.214 21.571C17.824 21.648 17.47 21.718 17.174 21.741C16.857 21.766 16.499 21.749 16.157 21.556C15.9549 21.4412 15.777 21.2884 15.633 21.106C15.396 20.802 15.317 20.456 15.283 20.136C15.25 19.836 15.25 19.464 15.25 19.048V13.812C15.25 13.458 15.25 13.14 15.275 12.879C15.302 12.6 15.365 12.299 15.548 12.02C15.699 11.79 15.902 11.598 16.141 11.46C16.436 11.29 16.744 11.252 17.021 11.25C17.278 11.248 17.586 11.279 17.922 11.312L17.992 11.319C18.578 11.376 19.071 11.425 19.47 11.504C19.744 11.558 20.003 11.632 20.246 11.749C20.1793 9.60648 19.2812 7.57406 17.7421 6.08212C16.203 4.59018 14.1436 3.75587 12 3.75587C9.85644 3.75587 7.79705 4.59018 6.25791 6.08212C4.71877 7.57406 3.82074 9.60648 3.754 11.749C3.997 11.632 4.256 11.559 4.53 11.504C4.93 11.425 5.422 11.377 6.008 11.319L6.078 11.312C6.414 11.279 6.722 11.248 6.978 11.25C7.256 11.252 7.564 11.29 7.858 11.46C8.098 11.598 8.301 11.79 8.452 12.02C8.635 12.3 8.697 12.6 8.725 12.879C8.75 13.139 8.75 13.458 8.75 13.812V19.048C8.75 19.464 8.75 19.835 8.718 20.136C8.683 20.456 8.604 20.802 8.367 21.106C8.22302 21.2884 8.04508 21.4412 7.843 21.556C7.501 21.749 7.143 21.766 6.825 21.741C6.47559 21.7027 6.12844 21.6459 5.785 21.571L5.712 21.556C5.14 21.444 4.657 21.348 4.269 21.231C3.858 21.106 3.486 20.938 3.166 20.643C2.95417 20.4478 2.77371 20.2212 2.631 19.971C2.416 19.595 2.329 19.194 2.288 18.759C2.27229 18.5744 2.26228 18.3893 2.258 18.204C2.14468 18.2455 2.02302 18.2591 1.90334 18.2435C1.78366 18.228 1.6695 18.1838 1.57056 18.1147C1.47162 18.0456 1.39081 17.9536 1.335 17.8466C1.2792 17.7396 1.25004 17.6207 1.25 17.5V15.5C1.25002 15.38 1.27882 15.2618 1.33398 15.1553C1.38915 15.0487 1.46907 14.957 1.56703 14.8877C1.665 14.8184 1.77815 14.7737 1.89699 14.7572C2.01583 14.7407 2.13689 14.753 2.25 14.793V12ZM3.75 17.193C3.75 17.845 3.75 18.283 3.782 18.62C3.812 18.946 3.866 19.11 3.932 19.226C4.00133 19.3447 4.08467 19.4493 4.182 19.54C4.274 19.625 4.41 19.706 4.704 19.795C5.012 19.889 5.421 19.97 6.037 20.092C6.479 20.179 6.747 20.23 6.943 20.246C6.99983 20.2527 7.05725 20.2523 7.114 20.245C7.14043 20.2281 7.16405 20.2072 7.184 20.183C7.20839 20.1165 7.22255 20.0467 7.226 19.976C7.249 19.765 7.25 19.476 7.25 19.01V13.845C7.25 13.447 7.25 13.204 7.232 13.025C7.22878 12.9631 7.21734 12.9019 7.198 12.843C7.17577 12.8112 7.14758 12.784 7.115 12.763C7.06659 12.7535 7.01732 12.7491 6.968 12.75C6.70828 12.7581 6.44904 12.7775 6.191 12.808C5.56 12.87 5.141 12.912 4.821 12.976C4.516 13.036 4.374 13.104 4.279 13.176C4.139 13.281 4.019 13.416 3.929 13.576C3.865 13.69 3.811 13.854 3.782 14.185C3.751 14.526 3.75 14.97 3.75 15.628V17.193ZM20.25 15.628C20.25 14.97 20.25 14.526 20.218 14.185C20.188 13.855 20.135 13.69 20.071 13.575C19.9831 13.419 19.864 13.2828 19.721 13.175C19.626 13.104 19.484 13.036 19.179 12.975C18.859 12.912 18.44 12.87 17.809 12.808C17.551 12.7775 17.2917 12.7581 17.032 12.75C16.9827 12.7488 16.9334 12.7528 16.885 12.762C16.8523 12.7833 16.8241 12.8109 16.802 12.843C16.7827 12.9016 16.7713 12.9624 16.768 13.024C16.751 13.204 16.75 13.447 16.75 13.844V19.01C16.75 19.476 16.751 19.765 16.774 19.975C16.7773 20.0461 16.7915 20.1162 16.816 20.183C16.8373 20.2097 16.8607 20.2303 16.886 20.245C16.902 20.248 16.95 20.255 17.056 20.245C17.254 20.23 17.521 20.179 17.963 20.092C18.579 19.97 18.988 19.889 19.296 19.795C19.59 19.706 19.726 19.625 19.818 19.54C19.9153 19.4493 19.9987 19.3447 20.068 19.226C20.134 19.109 20.188 18.946 20.218 18.62C20.249 18.282 20.25 17.845 20.25 17.193V15.628Z" fill="black"/>
</g>
<defs>
<clipPath id="clip0_221_14867">
<rect width="24" height="24" fill="white"/>
</clipPath>
</defs>
</svg>
