<svg width="24" height="24" viewBox="0 0 24 24" fill="none" xmlns="http://www.w3.org/2000/svg">
<g clip-path="url(#clip0_221_14921)">
<path fill-rule="evenodd" clip-rule="evenodd" d="M5.948 1.25H6.052C6.95 1.25 7.7 1.25 8.294 1.33C8.922 1.414 9.489 1.6 9.944 2.055C10.4 2.511 10.586 3.078 10.67 3.705C10.75 4.3 10.75 5.05 10.75 5.948V18.052C10.75 18.951 10.75 19.7 10.67 20.294C10.586 20.922 10.4 21.489 9.945 21.944C9.489 22.4 8.922 22.586 8.295 22.67C7.7 22.75 6.95 22.75 6.052 22.75H5.948C5.05 22.75 4.3 22.75 3.706 22.67C3.078 22.586 2.511 22.4 2.056 21.944C1.6 21.489 1.414 20.922 1.33 20.294C1.25 19.7 1.25 18.951 1.25 18.052V5.948C1.25 5.05 1.25 4.3 1.33 3.706C1.414 3.078 1.6 2.511 2.055 2.056C2.511 1.6 3.078 1.414 3.705 1.33C4.3 1.25 5.05 1.25 5.948 1.25ZM3.905 2.817C3.444 2.879 3.246 2.986 3.116 3.117C2.986 3.248 2.879 3.444 2.816 3.905C2.753 4.388 2.75 5.036 2.75 6V18C2.75 18.964 2.752 19.612 2.817 20.095C2.879 20.556 2.986 20.754 3.117 20.884C3.248 21.014 3.444 21.121 3.905 21.184C4.388 21.248 5.036 21.25 6 21.25C6.964 21.25 7.612 21.248 8.095 21.183C8.556 21.121 8.754 21.014 8.884 20.883C9.014 20.752 9.121 20.556 9.184 20.095C9.248 19.612 9.25 18.964 9.25 18V6C9.25 5.036 9.248 4.388 9.183 3.905C9.121 3.444 9.014 3.246 8.883 3.116C8.752 2.986 8.556 2.879 8.095 2.816C7.612 2.753 6.964 2.75 6 2.75C5.036 2.75 4.388 2.752 3.905 2.817ZM17.948 1.25H18.052C18.951 1.25 19.7 1.25 20.294 1.33C20.922 1.414 21.489 1.6 21.944 2.055C22.4 2.511 22.586 3.078 22.67 3.705C22.75 4.3 22.75 5.05 22.75 5.948V18.052C22.75 18.951 22.75 19.7 22.67 20.294C22.586 20.922 22.4 21.489 21.944 21.944C21.489 22.4 20.922 22.586 20.294 22.67C19.7 22.75 18.951 22.75 18.052 22.75H17.948C17.049 22.75 16.3 22.75 15.706 22.67C15.078 22.586 14.511 22.4 14.056 21.944C13.6 21.489 13.414 20.922 13.33 20.294C13.25 19.7 13.25 18.951 13.25 18.052V5.948C13.25 5.05 13.25 4.3 13.33 3.706C13.414 3.078 13.6 2.511 14.056 2.056C14.511 1.6 15.078 1.414 15.706 1.33C16.3 1.25 17.049 1.25 17.948 1.25ZM15.905 2.817C15.444 2.879 15.246 2.986 15.116 3.117C14.986 3.248 14.879 3.444 14.816 3.905C14.752 4.388 14.75 5.036 14.75 6V18C14.75 18.964 14.752 19.612 14.816 20.095C14.879 20.556 14.986 20.754 15.116 20.884C15.246 21.014 15.444 21.121 15.906 21.184C16.388 21.248 17.036 21.25 18 21.25C18.964 21.25 19.612 21.248 20.095 21.183C20.556 21.121 20.754 21.014 20.884 20.883C21.014 20.752 21.121 20.556 21.184 20.095C21.248 19.612 21.25 18.964 21.25 18V6C21.25 5.036 21.248 4.388 21.183 3.905C21.121 3.444 21.014 3.246 20.883 3.116C20.752 2.986 20.556 2.879 20.095 2.816C19.612 2.752 18.964 2.75 18 2.75C17.036 2.75 16.388 2.752 15.905 2.817Z" fill="black"/>
</g>
<defs>
<clipPath id="clip0_221_14921">
<rect width="24" height="24" fill="white"/>
</clipPath>
</defs>
</svg>
