<svg width="24" height="24" viewBox="0 0 24 24" fill="none" xmlns="http://www.w3.org/2000/svg">
<g clip-path="url(#clip0_221_14857)">
<path fill-rule="evenodd" clip-rule="evenodd" d="M15.679 1.68C15.7211 1.76921 15.7451 1.86585 15.7498 1.96438C15.7545 2.0629 15.7397 2.16138 15.7062 2.25418C15.6728 2.34697 15.6214 2.43226 15.5549 2.50516C15.4885 2.57806 15.4083 2.63713 15.319 2.679L9.855 5.25H14.056C15.894 5.25 17.35 5.25 18.489 5.403C19.661 5.561 20.61 5.893 21.359 6.641C22.107 7.39 22.439 8.339 22.597 9.511C22.75 10.651 22.75 12.106 22.75 13.944V14.057C22.75 15.894 22.75 17.35 22.597 18.489C22.439 19.662 22.107 20.611 21.359 21.359C20.61 22.107 19.661 22.439 18.489 22.597C17.349 22.75 15.894 22.75 14.056 22.75H9.944C8.106 22.75 6.65 22.75 5.511 22.597C4.339 22.439 3.39 22.107 2.641 21.359C1.893 20.611 1.561 19.662 1.403 18.489C1.25 17.35 1.25 15.894 1.25 14.057V13.944C1.25 12.106 1.25 10.65 1.403 9.511C1.561 8.339 1.893 7.39 2.641 6.641C3.39 5.893 4.339 5.561 5.511 5.403C5.715 5.37633 5.92933 5.35367 6.154 5.335L6.181 5.322L14.681 1.322C14.861 1.23727 15.0672 1.2275 15.2543 1.29482C15.4415 1.36215 15.5943 1.50106 15.679 1.681M5.71 6.89C4.704 7.025 4.124 7.279 3.7 7.702C3.278 8.125 3.024 8.705 2.889 9.711C2.751 10.739 2.749 12.093 2.749 14.001C2.749 15.907 2.751 17.261 2.889 18.289C3.024 19.295 3.278 19.875 3.701 20.299C4.124 20.721 4.704 20.975 5.71 21.11C6.738 21.249 8.092 21.25 9.999 21.25H13.999C15.906 21.25 17.261 21.249 18.289 21.11C19.294 20.975 19.874 20.721 20.297 20.298C20.72 19.875 20.974 19.295 21.109 18.289C21.247 17.262 21.249 15.907 21.249 14C21.249 12.093 21.247 10.739 21.109 9.711C20.974 8.705 20.72 8.125 20.297 7.702C19.874 7.279 19.294 7.025 18.288 6.89C17.261 6.752 15.906 6.75 13.999 6.75H9.999C8.092 6.75 6.739 6.752 5.71 6.89ZM4.25 11C4.25 10.2707 4.53973 9.57118 5.05546 9.05545C5.57118 8.53973 6.27065 8.25 7 8.25H17C17.7293 8.25 18.4288 8.53973 18.9445 9.05545C19.4603 9.57118 19.75 10.2707 19.75 11C19.75 11.7293 19.4603 12.4288 18.9445 12.9445C18.4288 13.4603 17.7293 13.75 17 13.75H7C6.27065 13.75 5.57118 13.4603 5.05546 12.9445C4.53973 12.4288 4.25 11.7293 4.25 11ZM15.75 12.25V11.5C15.75 11.3011 15.671 11.1103 15.5303 10.9697C15.3897 10.829 15.1989 10.75 15 10.75C14.8011 10.75 14.6103 10.829 14.4697 10.9697C14.329 11.1103 14.25 11.3011 14.25 11.5V12.25H7C6.66848 12.25 6.35054 12.1183 6.11612 11.8839C5.8817 11.6495 5.75 11.3315 5.75 11C5.75 10.6685 5.8817 10.3505 6.11612 10.1161C6.35054 9.88169 6.66848 9.75 7 9.75H17C17.3315 9.75 17.6495 9.88169 17.8839 10.1161C18.1183 10.3505 18.25 10.6685 18.25 11C18.25 11.3315 18.1183 11.6495 17.8839 11.8839C17.6495 12.1183 17.3315 12.25 17 12.25H15.75ZM7.5 16.25C7.30109 16.25 7.11032 16.329 6.96967 16.4697C6.82902 16.6103 6.75 16.8011 6.75 17C6.75 17.1989 6.82902 17.3897 6.96967 17.5303C7.11032 17.671 7.30109 17.75 7.5 17.75C7.69891 17.75 7.88968 17.671 8.03033 17.5303C8.17098 17.3897 8.25 17.1989 8.25 17C8.25 16.8011 8.17098 16.6103 8.03033 16.4697C7.88968 16.329 7.69891 16.25 7.5 16.25ZM5.25 17C5.25 16.4033 5.48705 15.831 5.90901 15.409C6.33097 14.9871 6.90326 14.75 7.5 14.75C8.09674 14.75 8.66903 14.9871 9.09099 15.409C9.51295 15.831 9.75 16.4033 9.75 17C9.75 17.5967 9.51295 18.169 9.09099 18.591C8.66903 19.0129 8.09674 19.25 7.5 19.25C6.90326 19.25 6.33097 19.0129 5.90901 18.591C5.48705 18.169 5.25 17.5967 5.25 17ZM12.25 17C12.25 16.8011 12.329 16.6103 12.4697 16.4697C12.6103 16.329 12.8011 16.25 13 16.25H18C18.1989 16.25 18.3897 16.329 18.5303 16.4697C18.671 16.6103 18.75 16.8011 18.75 17C18.75 17.1989 18.671 17.3897 18.5303 17.5303C18.3897 17.671 18.1989 17.75 18 17.75H13C12.8011 17.75 12.6103 17.671 12.4697 17.5303C12.329 17.3897 12.25 17.1989 12.25 17Z" fill="black"/>
</g>
<defs>
<clipPath id="clip0_221_14857">
<rect width="24" height="24" fill="white"/>
</clipPath>
</defs>
</svg>
