<svg width="24" height="24" viewBox="0 0 24 24" fill="none" xmlns="http://www.w3.org/2000/svg">
<path fill-rule="evenodd" clip-rule="evenodd" d="M11.9995 1.25C6.06628 1.25 1.25 6.06725 1.25 12.0005C1.25 17.9337 6.06628 22.75 11.9995 22.75C17.9327 22.75 22.75 17.9337 22.75 12.0005C22.75 6.06725 17.9327 1.25 11.9995 1.25ZM3.3562 8.79031C2.98387 9.79049 2.78122 10.8715 2.78122 12.0005C2.78122 17.0883 6.91174 21.2188 11.9995 21.2188C13.913 21.2188 15.6908 20.6348 17.1651 19.6357L13.9579 15.6499C13.375 15.9633 12.7082 16.142 11.9995 16.142C9.71366 16.142 7.85801 14.2863 7.85801 12.0005C7.85801 11.6342 7.90592 11.2788 7.99576 10.9404L3.3562 8.79031ZM16.0631 12.806C15.9234 13.5147 15.602 14.1586 15.1498 14.6876L18.357 18.6744C19.7894 17.3089 20.7836 15.4882 21.106 13.4449L16.0631 12.806ZM11.9995 9.39023C13.4399 9.39023 14.6098 10.5601 14.6098 12.0005C14.6098 13.4409 13.4399 14.6108 11.9995 14.6108C10.5591 14.6108 9.38923 13.4409 9.38923 12.0005C9.38923 10.5601 10.5591 9.39023 11.9995 9.39023ZM21.2178 11.9157C21.1719 6.86581 17.0593 2.78122 11.9995 2.78122C11.181 2.78122 10.3874 2.88901 9.6318 3.08864L11.4804 7.89094C11.6501 7.86998 11.8238 7.85901 11.9995 7.85901C14.0338 7.85901 15.7277 9.32933 16.0761 11.2638L21.2178 11.9157ZM8.18941 3.60474C6.4306 4.40529 4.96726 5.74184 4.008 7.40482L8.65557 9.55893C9.01592 9.06583 9.48205 8.65656 10.0211 8.3621L8.18941 3.60474Z" fill="black"/>
</svg>
