<svg width="24" height="24" viewBox="0 0 24 24" fill="none" xmlns="http://www.w3.org/2000/svg">
<g clip-path="url(#clip0_221_14904)">
<path fill-rule="evenodd" clip-rule="evenodd" d="M12.14 4.91002C11.426 5.25702 10.52 5.85202 9.231 6.70202L9.012 6.84602L8.962 6.87902C8.582 7.12902 8.319 7.30302 8.031 7.43102C7.74637 7.55609 7.44747 7.64576 7.141 7.69802C6.831 7.75002 6.515 7.75002 6.059 7.75002H6C4.556 7.75002 4.07 7.76602 3.655 7.95802C3.22152 8.17439 2.86124 8.51345 2.619 8.93302C2.401 9.33802 2.36 9.75302 2.283 11.017C2.263 11.364 2.25 11.697 2.25 12C2.25 12.303 2.262 12.636 2.283 12.983C2.36 14.247 2.401 14.663 2.619 15.067C2.828 15.456 3.254 15.857 3.655 16.042C4.069 16.234 4.556 16.25 6 16.25H6.06C6.515 16.25 6.83 16.25 7.141 16.302C7.449 16.3547 7.74567 16.4437 8.031 16.569C8.319 16.697 8.583 16.87 8.963 17.121L9.013 17.154L9.231 17.298C10.521 18.148 11.426 18.743 12.141 19.09C12.852 19.436 13.209 19.45 13.458 19.365C13.595 19.318 13.73 19.25 13.848 19.166C14.065 19.014 14.263 18.719 14.401 17.948C14.541 17.173 14.592 16.101 14.664 14.571C14.716 13.451 14.75 12.511 14.75 12C14.75 11.489 14.716 10.549 14.664 9.43002C14.592 7.89902 14.541 6.82702 14.402 6.05202C14.262 5.28102 14.065 4.98602 13.849 4.83402C13.7285 4.7497 13.5969 4.6824 13.458 4.63402C13.208 4.55002 12.852 4.56402 12.14 4.91002ZM11.485 3.56002C12.311 3.16002 13.125 2.93602 13.942 3.21502C14.214 3.30802 14.476 3.44102 14.711 3.60602C15.417 4.10302 15.716 4.88602 15.878 5.78602C16.037 6.67002 16.091 7.84202 16.159 9.30202L16.162 9.36002C16.214 10.475 16.25 11.448 16.25 12C16.25 12.552 16.214 13.525 16.162 14.64L16.159 14.698C16.091 16.158 16.037 17.33 15.878 18.214C15.716 19.114 15.417 19.897 14.711 20.394C14.4748 20.5604 14.2158 20.6917 13.942 20.784C13.124 21.064 12.311 20.841 11.485 20.44C10.671 20.044 9.685 19.393 8.453 18.582L8.186 18.406C7.739 18.111 7.584 18.012 7.426 17.942C7.25467 17.866 7.07633 17.8127 6.891 17.782C6.72 17.752 6.537 17.75 6.001 17.75H5.839C4.622 17.75 3.777 17.751 3.025 17.403C2.297 17.0507 1.69433 16.484 1.298 15.779C0.906 15.05 0.86 14.289 0.794 13.204L0.786 13.074C0.763314 12.7165 0.751309 12.3583 0.75 12C0.75 11.659 0.764 11.294 0.786 10.926L0.794 10.796C0.86 9.71202 0.906 8.95002 1.298 8.22002C1.69433 7.51504 2.297 6.9483 3.025 6.59602C3.777 6.24802 4.622 6.24802 5.839 6.24902H6C6.537 6.24902 6.72 6.24702 6.891 6.21802C7.07483 6.18654 7.25415 6.13281 7.425 6.05802C7.585 5.98802 7.739 5.88802 8.186 5.59302L8.453 5.41702C9.684 4.60602 10.671 3.95502 11.485 3.56002ZM19.52 5.42402C19.6728 5.29677 19.8699 5.2354 20.0679 5.25341C20.2659 5.27141 20.4487 5.36731 20.576 5.52002L20.577 5.52102L20.579 5.52302L20.582 5.52702L20.589 5.53602C20.619 5.57299 20.6477 5.61101 20.675 5.65002C20.7465 5.75114 20.8142 5.85488 20.878 5.96102C21.039 6.23102 21.246 6.62602 21.45 7.15602C21.858 8.21702 22.25 9.80902 22.25 12C22.25 14.191 21.858 15.783 21.45 16.845C21.294 17.2587 21.1026 17.6582 20.878 18.039C20.7951 18.1762 20.7057 18.3094 20.61 18.438L20.597 18.455L20.589 18.465L20.582 18.474L20.579 18.477L20.577 18.479L20 18L20.576 18.48C20.4475 18.6273 20.2667 18.7185 20.0719 18.7344C19.8771 18.7503 19.6839 18.6896 19.5332 18.5651C19.3826 18.4407 19.2864 18.2623 19.2653 18.0681C19.2442 17.8738 19.2997 17.679 19.42 17.525M19.42 17.525L19.423 17.52L19.454 17.479C19.5026 17.4103 19.5483 17.3396 19.591 17.267C19.711 17.069 19.879 16.751 20.05 16.306C20.392 15.417 20.75 14.009 20.75 12C20.75 9.99102 20.392 8.58302 20.05 7.69402C19.9258 7.36072 19.7722 7.03912 19.591 6.73302C19.5384 6.64448 19.4814 6.5587 19.42 6.47602L19.423 6.48002L19.422 6.47802L19.42 6.47602C19.2945 6.32296 19.2345 6.12648 19.2533 5.92942C19.272 5.73235 19.3679 5.55068 19.52 5.42402M17.636 8.34402C17.7221 8.29619 17.8169 8.2658 17.9147 8.25459C18.0126 8.24338 18.1118 8.25157 18.2065 8.27868C18.3012 8.3058 18.3897 8.35132 18.4668 8.41263C18.5439 8.47394 18.6082 8.54985 18.656 8.63602V8.63702L18.657 8.63902L18.659 8.64202L18.663 8.64902L18.673 8.66702L18.699 8.72102C18.719 8.76369 18.744 8.82169 18.774 8.89502C18.834 9.04202 18.906 9.25102 18.977 9.52602C19.117 10.077 19.25 10.89 19.25 12C19.25 13.11 19.118 13.923 18.977 14.474C18.9234 14.6886 18.8555 14.8994 18.774 15.105C18.7432 15.1824 18.7092 15.2585 18.672 15.333L18.662 15.352L18.659 15.359L18.657 15.362C18.657 15.362 18.656 15.365 18.027 15.016L18.656 15.364C18.6088 15.4505 18.545 15.5268 18.4683 15.5887C18.3916 15.6505 18.3035 15.6966 18.2089 15.7244C18.1144 15.7521 18.0153 15.761 17.9174 15.7505C17.8194 15.7399 17.7245 15.7102 17.638 15.663C17.5515 15.6158 17.4752 15.552 17.4134 15.4753C17.3515 15.3986 17.3054 15.3105 17.2777 15.2159C17.2499 15.1214 17.241 15.0223 17.2516 14.9244C17.2621 14.8264 17.2918 14.7315 17.339 14.645L17.344 14.635L17.382 14.548C17.417 14.461 17.469 14.314 17.523 14.101C17.633 13.677 17.75 12.991 17.75 12.001C17.75 11.011 17.632 10.323 17.523 9.89902C17.476 9.71704 17.4161 9.53859 17.344 9.36502L17.339 9.35502C17.246 9.1814 17.2249 8.97814 17.2805 8.78916C17.3361 8.60017 17.4638 8.44064 17.636 8.34502" fill="black"/>
</g>
<defs>
<clipPath id="clip0_221_14904">
<rect width="24" height="24" fill="white"/>
</clipPath>
</defs>
</svg>
