<svg width="24" height="24" viewBox="0 0 24 24" fill="none" xmlns="http://www.w3.org/2000/svg">
<g clip-path="url(#clip0_221_14893)">
<path fill-rule="evenodd" clip-rule="evenodd" d="M15.64 4.91002C14.926 5.25702 14.02 5.85202 12.731 6.70202L12.512 6.84602L12.462 6.87902C12.082 7.12902 11.819 7.30302 11.531 7.43102C11.2464 7.55609 10.9475 7.64576 10.641 7.69802C10.331 7.75002 10.015 7.75002 9.559 7.75002H9.5C8.056 7.75002 7.57 7.76602 7.155 7.95802C6.72152 8.17439 6.36124 8.51345 6.119 8.93302C5.901 9.33802 5.86 9.75302 5.783 11.017C5.763 11.364 5.75 11.697 5.75 12C5.75 12.303 5.762 12.636 5.783 12.983C5.86 14.247 5.901 14.663 6.119 15.067C6.328 15.456 6.754 15.857 7.155 16.042C7.569 16.234 8.056 16.25 9.5 16.25H9.56C10.015 16.25 10.33 16.25 10.641 16.302C10.949 16.3547 11.2457 16.4437 11.531 16.569C11.819 16.697 12.083 16.87 12.463 17.121L12.513 17.154L12.731 17.298C14.021 18.148 14.926 18.743 15.641 19.09C16.352 19.436 16.709 19.45 16.958 19.365C17.095 19.318 17.23 19.25 17.348 19.166C17.565 19.014 17.763 18.719 17.901 17.948C18.041 17.173 18.092 16.101 18.163 14.571C18.216 13.451 18.25 12.511 18.25 12C18.25 11.489 18.216 10.549 18.163 9.43002C18.093 7.89902 18.041 6.82702 17.901 6.05202C17.763 5.28102 17.565 4.98602 17.349 4.83402C17.2285 4.7497 17.0969 4.6824 16.958 4.63402C16.708 4.55002 16.353 4.56402 15.64 4.91002ZM14.985 3.56002C15.811 3.16002 16.625 2.93602 17.442 3.21502C17.714 3.30802 17.976 3.44102 18.211 3.60602C18.917 4.10302 19.216 4.88602 19.378 5.78602C19.537 6.67002 19.591 7.84202 19.659 9.30202L19.662 9.36002C19.714 10.475 19.75 11.448 19.75 12C19.75 12.552 19.714 13.525 19.662 14.64L19.659 14.698C19.591 16.158 19.537 17.33 19.378 18.214C19.216 19.114 18.917 19.897 18.211 20.394C17.9748 20.5604 17.7158 20.6917 17.442 20.784C16.624 21.064 15.811 20.841 14.985 20.44C14.171 20.044 13.185 19.393 11.953 18.582L11.687 18.406C11.239 18.111 11.085 18.012 10.925 17.942C10.7543 17.866 10.5763 17.8127 10.391 17.782C10.22 17.752 10.037 17.75 9.501 17.75H9.339C8.122 17.75 7.277 17.751 6.525 17.403C5.79701 17.0507 5.19433 16.484 4.798 15.779C4.406 15.05 4.36 14.289 4.294 13.204L4.286 13.074C4.26331 12.7165 4.25131 12.3583 4.25 12C4.25 11.659 4.264 11.294 4.286 10.926L4.294 10.796C4.36 9.71202 4.406 8.95002 4.798 8.22102C5.19433 7.51604 5.79701 6.9493 6.525 6.59702C7.277 6.24902 8.122 6.24902 9.339 6.25002H9.5C10.037 6.25002 10.22 6.24802 10.391 6.21902C10.5748 6.18754 10.7541 6.13381 10.925 6.05902C11.085 5.98902 11.239 5.88902 11.686 5.59402L11.953 5.41802C13.184 4.60702 14.171 3.95602 14.985 3.56102" fill="black"/>
</g>
<defs>
<clipPath id="clip0_221_14893">
<rect width="24" height="24" fill="white"/>
</clipPath>
</defs>
</svg>
