<svg width="24" height="24" viewBox="0 0 24 24" fill="none" xmlns="http://www.w3.org/2000/svg">
<g clip-path="url(#clip0_221_14936)">
<path fill-rule="evenodd" clip-rule="evenodd" d="M6.278 1.756C5.135 1.017 3.84 1.134 2.861 1.804C1.894 2.464 1.25 3.645 1.25 5.033V18.967C1.25 20.355 1.894 21.535 2.86 22.197C3.84 22.866 5.135 22.983 6.278 22.245L17.067 15.277C18.217 14.535 18.75 13.234 18.75 12C18.75 10.766 18.217 9.465 17.067 8.723L6.278 1.756ZM2.75 5.033C2.75 4.112 3.173 3.408 3.708 3.042C4.23 2.684 4.87 2.632 5.464 3.016L16.253 9.983C16.89 10.393 17.25 11.163 17.25 12C17.25 12.836 16.89 13.606 16.253 14.017L5.464 20.985C4.87 21.368 4.23 21.315 3.708 20.958C3.173 20.593 2.75 19.888 2.75 18.968V5.033Z" fill="black"/>
<path d="M22.75 5C22.75 4.80109 22.671 4.61032 22.5303 4.46967C22.3897 4.32902 22.1989 4.25 22 4.25C21.8011 4.25 21.6103 4.32902 21.4697 4.46967C21.329 4.61032 21.25 4.80109 21.25 5V19C21.25 19.1989 21.329 19.3897 21.4697 19.5303C21.6103 19.671 21.8011 19.75 22 19.75C22.1989 19.75 22.3897 19.671 22.5303 19.5303C22.671 19.3897 22.75 19.1989 22.75 19V5Z" fill="black"/>
</g>
<defs>
<clipPath id="clip0_221_14936">
<rect width="24" height="24" fill="white"/>
</clipPath>
</defs>
</svg>
