<svg width="24" height="24" viewBox="0 0 24 24" fill="none" xmlns="http://www.w3.org/2000/svg">
<g clip-path="url(#clip0_221_14958)">
<path fill-rule="evenodd" clip-rule="evenodd" d="M21.4789 20.2675C20.682 20.849 19.608 20.9548 18.6715 20.3096L18.6628 20.3036L13.75 16.7099L13.75 16.877C13.75 17.9126 13.2774 18.8099 12.5459 19.3193C11.8 19.8388 10.8016 19.9317 9.92698 19.3567L2.51034 14.4799C2.51048 14.48 2.51021 14.4798 2.51034 14.4799C1.63969 13.908 1.25025 12.9178 1.25025 12C1.25025 11.0821 1.63941 10.092 2.51034 9.52008L9.92694 4.64335C10.8015 4.06835 11.8 4.1612 12.5459 4.68069C13.2774 5.19017 13.75 6.08744 13.75 7.12301L13.75 7.29013L18.6629 3.69633L18.6717 3.69024C19.6083 3.04549 20.6821 3.15049 21.4792 3.73217C22.256 4.29898 22.75 5.28938 22.75 6.42601L22.75 17.574C22.75 18.7104 22.2555 19.7007 21.4789 20.2675ZM13.75 9.14862L13.75 14.8514L19.5302 19.0797C19.8933 19.3258 20.2678 19.2943 20.5946 19.0558C20.944 18.8008 21.25 18.2836 21.25 17.574L21.25 6.42601C21.25 5.71565 20.944 5.19854 20.595 4.94385C20.2687 4.70573 19.8941 4.67398 19.5301 4.92043L13.75 9.14862ZM11.6886 18.0884C11.9891 17.8792 12.25 17.4574 12.25 16.877L12.25 7.12301C12.25 6.54257 11.9891 6.12085 11.6886 5.91158C11.4025 5.71232 11.0705 5.68669 10.7511 5.89667C10.7511 5.89666 10.751 5.89668 10.7511 5.89667L3.33406 10.7737C2.97599 11.0088 2.75025 11.4685 2.75025 12C2.75025 12.5316 2.97559 12.991 3.33366 13.2261L10.751 18.1033C10.751 18.1033 10.751 18.1033 10.751 18.1033C11.0704 18.3133 11.4025 18.2877 11.6886 18.0884Z" fill="black"/>
</g>
<defs>
<clipPath id="clip0_221_14958">
<rect width="24" height="24" fill="white"/>
</clipPath>
</defs>
</svg>
