<svg width="24" height="24" viewBox="0 0 24 24" fill="none" xmlns="http://www.w3.org/2000/svg">
<g clip-path="url(#clip0_221_14887)">
<path fill-rule="evenodd" clip-rule="evenodd" d="M12.14 4.91002C11.426 5.25702 10.52 5.85202 9.231 6.70202L9.012 6.84602L8.962 6.87902C8.582 7.12902 8.319 7.30302 8.031 7.43102C7.74637 7.55609 7.44747 7.64576 7.141 7.69802C6.831 7.75002 6.515 7.75002 6.059 7.75002H6C4.556 7.75002 4.07 7.76602 3.655 7.95802C3.22152 8.17439 2.86124 8.51345 2.619 8.93302C2.401 9.33802 2.36 9.75302 2.283 11.017C2.263 11.364 2.25 11.697 2.25 12C2.25 12.303 2.262 12.636 2.283 12.983C2.36 14.247 2.401 14.663 2.619 15.067C2.828 15.456 3.254 15.857 3.655 16.042C4.069 16.234 4.556 16.25 6 16.25H6.06C6.515 16.25 6.83 16.25 7.141 16.302C7.449 16.3547 7.74567 16.4437 8.031 16.569C8.319 16.697 8.583 16.87 8.963 17.121L9.013 17.154L9.231 17.298C10.521 18.148 11.426 18.743 12.141 19.09C12.852 19.436 13.209 19.45 13.458 19.365C13.595 19.318 13.73 19.25 13.848 19.166C14.065 19.014 14.263 18.719 14.401 17.948C14.541 17.173 14.592 16.101 14.664 14.571C14.716 13.451 14.75 12.511 14.75 12C14.75 11.489 14.716 10.549 14.664 9.43002C14.592 7.89902 14.541 6.82702 14.402 6.05202C14.262 5.28102 14.065 4.98602 13.849 4.83402C13.7285 4.7497 13.5969 4.6824 13.458 4.63402C13.208 4.55002 12.852 4.56402 12.14 4.91002ZM11.485 3.56002C12.311 3.16002 13.125 2.93602 13.942 3.21502C14.214 3.30802 14.476 3.44102 14.711 3.60602C15.417 4.10302 15.716 4.88602 15.878 5.78602C16.037 6.67002 16.091 7.84202 16.159 9.30202L16.162 9.36002C16.214 10.475 16.25 11.448 16.25 12C16.25 12.552 16.214 13.525 16.162 14.64L16.159 14.698C16.091 16.158 16.037 17.33 15.878 18.214C15.716 19.114 15.417 19.897 14.711 20.394C14.4748 20.5604 14.2158 20.6917 13.942 20.784C13.124 21.064 12.311 20.841 11.485 20.44C10.671 20.044 9.685 19.393 8.453 18.582L8.186 18.406C7.739 18.111 7.584 18.012 7.426 17.942C7.25467 17.866 7.07633 17.8127 6.891 17.782C6.72 17.752 6.537 17.75 6.001 17.75H5.839C4.622 17.75 3.777 17.751 3.025 17.403C2.297 17.0507 1.69433 16.484 1.298 15.779C0.906 15.05 0.86 14.289 0.794 13.204L0.786 13.074C0.763314 12.7165 0.751309 12.3583 0.75 12C0.75 11.659 0.764 11.294 0.786 10.926L0.794 10.796C0.86 9.71202 0.906 8.95002 1.298 8.22002C1.69433 7.51504 2.297 6.9483 3.025 6.59602C3.777 6.24802 4.622 6.24802 5.839 6.24902H6C6.537 6.24902 6.72 6.24702 6.891 6.21802C7.07483 6.18654 7.25415 6.13281 7.425 6.05802C7.585 5.98802 7.739 5.88802 8.186 5.59302L8.453 5.41702C9.684 4.60602 10.671 3.95502 11.485 3.56002Z" fill="black"/>
<path fill-rule="evenodd" clip-rule="evenodd" d="M18.0744 9.97434C18.3654 9.68409 18.8439 9.68409 19.1349 9.97434L20.1047 10.9449L21.0745 9.97434C21.2162 9.82209 21.4157 9.73584 21.6235 9.73584C22.0352 9.73584 22.3735 10.0741 22.3735 10.4859C22.3735 10.6936 22.2872 10.8931 22.135 11.0349L21.1645 12.0046L22.135 12.9744C22.264 13.1131 22.336 13.2961 22.336 13.4859C22.336 13.8977 21.9977 14.2359 21.586 14.2359C21.3962 14.2359 21.2132 14.1639 21.0745 14.0349L20.1047 13.0644L19.1349 14.0349C18.9932 14.1872 18.7937 14.2734 18.5859 14.2734C18.1742 14.2734 17.8359 13.9352 17.8359 13.5234C17.8359 13.3156 17.9222 13.1161 18.0744 12.9744L19.0449 12.0046L18.0744 11.0349C17.7842 10.7439 17.7842 10.2653 18.0744 9.97434Z" fill="black"/>
</g>
<defs>
<clipPath id="clip0_221_14887">
<rect width="24" height="24" fill="white"/>
</clipPath>
</defs>
</svg>
