<svg width="24" height="24" viewBox="0 0 24 24" fill="none" xmlns="http://www.w3.org/2000/svg">
<g clip-path="url(#clip0_221_14877)">
<path fill-rule="evenodd" clip-rule="evenodd" d="M11.944 1.25H12.056C13.894 1.25 15.35 1.25 16.489 1.403C17.661 1.561 18.61 1.893 19.359 2.641C20.107 3.39 20.439 4.339 20.597 5.511C20.75 6.651 20.75 8.106 20.75 9.944V14.056C20.75 15.894 20.75 17.35 20.597 18.489C20.439 19.661 20.107 20.61 19.359 21.359C18.61 22.107 17.661 22.439 16.489 22.597C15.349 22.75 13.894 22.75 12.056 22.75H11.944C10.106 22.75 8.65 22.75 7.511 22.597C6.339 22.439 5.39 22.107 4.641 21.359C3.893 20.61 3.561 19.661 3.403 18.489C3.25 17.349 3.25 15.894 3.25 14.056V9.944C3.25 8.106 3.25 6.65 3.403 5.511C3.561 4.339 3.893 3.39 4.641 2.641C5.39 1.893 6.339 1.561 7.511 1.403C8.651 1.25 10.106 1.25 11.944 1.25ZM7.71 2.89C6.704 3.025 6.124 3.279 5.7 3.702C5.278 4.125 5.024 4.705 4.889 5.711C4.751 6.739 4.749 8.093 4.749 10V14C4.749 15.907 4.751 17.262 4.889 18.29C5.024 19.295 5.278 19.875 5.701 20.298C6.124 20.721 6.704 20.975 7.71 21.11C8.738 21.248 10.092 21.25 11.999 21.25C13.906 21.25 15.261 21.248 16.289 21.11C17.294 20.975 17.874 20.721 18.297 20.298C18.72 19.875 18.974 19.295 19.109 18.289C19.247 17.262 19.249 15.907 19.249 14V10C19.249 8.093 19.247 6.739 19.109 5.71C18.974 4.705 18.72 4.125 18.297 3.702C17.874 3.279 17.294 3.025 16.288 2.89C15.26 2.752 13.906 2.75 11.999 2.75C10.092 2.75 8.739 2.752 7.71 2.89ZM12 6.25C11.6685 6.25 11.3505 6.3817 11.1161 6.61612C10.8817 6.85054 10.75 7.16848 10.75 7.5C10.75 7.83152 10.8817 8.14946 11.1161 8.38388C11.3505 8.6183 11.6685 8.75 12 8.75C12.3315 8.75 12.6495 8.6183 12.8839 8.38388C13.1183 8.14946 13.25 7.83152 13.25 7.5C13.25 7.16848 13.1183 6.85054 12.8839 6.61612C12.6495 6.3817 12.3315 6.25 12 6.25ZM9.25 7.5C9.25 6.77065 9.53973 6.07118 10.0555 5.55546C10.5712 5.03973 11.2707 4.75 12 4.75C12.7293 4.75 13.4288 5.03973 13.9445 5.55546C14.4603 6.07118 14.75 6.77065 14.75 7.5C14.75 8.22935 14.4603 8.92882 13.9445 9.44454C13.4288 9.96027 12.7293 10.25 12 10.25C11.2707 10.25 10.5712 9.96027 10.0555 9.44454C9.53973 8.92882 9.25 8.22935 9.25 7.5ZM12 13.25C11.4033 13.25 10.831 13.4871 10.409 13.909C9.98705 14.331 9.75 14.9033 9.75 15.5C9.75 16.0967 9.98705 16.669 10.409 17.091C10.831 17.5129 11.4033 17.75 12 17.75C12.5967 17.75 13.169 17.5129 13.591 17.091C14.0129 16.669 14.25 16.0967 14.25 15.5C14.25 14.9033 14.0129 14.331 13.591 13.909C13.169 13.4871 12.5967 13.25 12 13.25ZM8.25 15.5C8.25 14.5054 8.64509 13.5516 9.34835 12.8483C10.0516 12.1451 11.0054 11.75 12 11.75C12.9946 11.75 13.9484 12.1451 14.6517 12.8483C15.3549 13.5516 15.75 14.5054 15.75 15.5C15.75 16.4946 15.3549 17.4484 14.6517 18.1517C13.9484 18.8549 12.9946 19.25 12 19.25C11.0054 19.25 10.0516 18.8549 9.34835 18.1517C8.64509 17.4484 8.25 16.4946 8.25 15.5Z" fill="black"/>
</g>
<defs>
<clipPath id="clip0_221_14877">
<rect width="24" height="24" fill="white"/>
</clipPath>
</defs>
</svg>
