<svg width="24" height="24" viewBox="0 0 24 24" fill="none" xmlns="http://www.w3.org/2000/svg">
<g clip-path="url(#clip0_221_14988)">
<path fill-rule="evenodd" clip-rule="evenodd" d="M18.673 3.66697C18.036 3.77997 17.197 4.05697 15.973 4.46597L11.973 5.79897C11.296 6.02497 10.849 6.17497 10.519 6.32897C10.207 6.47297 10.072 6.58997 9.986 6.70997C9.9 6.82997 9.831 6.99497 9.792 7.33697C9.752 7.69697 9.75 8.16997 9.75 8.88297V10.959L20.25 7.45897C20.25 6.21697 20.246 5.35897 20.154 4.73397C20.063 4.11097 19.906 3.88697 19.731 3.75997C19.556 3.63397 19.293 3.55597 18.673 3.66697ZM21.74 5.99997C21.728 5.43497 21.7 4.93997 21.638 4.51697C21.522 3.72397 21.263 3.01597 20.608 2.54297C19.953 2.07097 19.199 2.04997 18.41 2.18997C17.652 2.32497 16.708 2.63997 15.556 3.02397L11.458 4.38897C10.832 4.59897 10.303 4.77497 9.887 4.96897C9.444 5.17397 9.06 5.42897 8.769 5.83297C8.478 6.23697 8.357 6.68197 8.302 7.16697C8.27347 7.44376 8.25779 7.72173 8.255 7.99997H8.25V15.999C7.5742 15.4921 6.74705 15.2283 5.90257 15.2502C5.0581 15.2722 4.24577 15.5786 3.5972 16.1199C2.94863 16.6612 2.50183 17.4056 2.32917 18.2325C2.15651 19.0594 2.26811 19.9204 2.6459 20.676C3.02369 21.4316 3.64553 22.0375 4.41067 22.3955C5.1758 22.7535 6.03941 22.8427 6.86158 22.6487C7.68374 22.4546 8.41629 21.9886 8.94053 21.3262C9.46478 20.6637 9.75 19.8437 9.75 18.999V12.54L20.25 9.03997V14C19.5742 13.4931 18.747 13.2293 17.9026 13.2512C17.0581 13.2732 16.2458 13.5796 15.5972 14.1209C14.9486 14.6622 14.5018 15.4066 14.3292 16.2335C14.1565 17.0604 14.2681 17.9214 14.6459 18.677C15.0237 19.4326 15.6455 20.0385 16.4107 20.3965C17.1758 20.7545 18.0394 20.8437 18.8616 20.6497C19.6837 20.4556 20.4163 19.9896 20.9405 19.3272C21.4648 18.6647 21.75 17.8447 21.75 17V5.99997H21.74ZM20.25 17C20.25 16.4032 20.013 15.8309 19.591 15.409C19.169 14.987 18.5967 14.75 18 14.75C17.4033 14.75 16.831 14.987 16.409 15.409C15.9871 15.8309 15.75 16.4032 15.75 17C15.75 17.5967 15.9871 18.169 16.409 18.591C16.831 19.0129 17.4033 19.25 18 19.25C18.5967 19.25 19.169 19.0129 19.591 18.591C20.013 18.169 20.25 17.5967 20.25 17ZM8.25 19C8.25 18.4032 8.01295 17.8309 7.59099 17.409C7.16904 16.987 6.59674 16.75 6 16.75C5.40327 16.75 4.83097 16.987 4.40901 17.409C3.98706 17.8309 3.75 18.4032 3.75 19C3.75 19.5967 3.98706 20.169 4.40901 20.591C4.83097 21.0129 5.40327 21.25 6 21.25C6.59674 21.25 7.16904 21.0129 7.59099 20.591C8.01295 20.169 8.25 19.5967 8.25 19Z" fill="black"/>
</g>
<defs>
<clipPath id="clip0_221_14988">
<rect width="24" height="24" fill="white"/>
</clipPath>
</defs>
</svg>
