<svg width="24" height="24" viewBox="0 0 24 24" fill="none" xmlns="http://www.w3.org/2000/svg">
<g clip-path="url(#clip0_221_15031)">
<path fill-rule="evenodd" clip-rule="evenodd" d="M7.25 16C7.25 15.2707 7.53973 14.5712 8.05546 14.0555C8.57118 13.5397 9.27065 13.25 10 13.25C10.7293 13.25 11.4288 13.5397 11.9445 14.0555C12.4603 14.5712 12.75 15.2707 12.75 16C12.75 16.7293 12.4603 17.4288 11.9445 17.9445C11.4288 18.4603 10.7293 18.75 10 18.75C9.27065 18.75 8.57118 18.4603 8.05546 17.9445C7.53973 17.4288 7.25 16.7293 7.25 16ZM10 14.75C9.66848 14.75 9.35054 14.8817 9.11612 15.1161C8.8817 15.3505 8.75 15.6685 8.75 16C8.75 16.3315 8.8817 16.6495 9.11612 16.8839C9.35054 17.1183 9.66848 17.25 10 17.25C10.3315 17.25 10.6495 17.1183 10.8839 16.8839C11.1183 16.6495 11.25 16.3315 11.25 16C11.25 15.6685 11.1183 15.3505 10.8839 15.1161C10.6495 14.8817 10.3315 14.75 10 14.75ZM16.75 8C16.75 8.72935 16.4603 9.42882 15.9445 9.94454C15.4288 10.4603 14.7293 10.75 14 10.75C13.2707 10.75 12.5712 10.4603 12.0555 9.94454C11.5397 9.42882 11.25 8.72935 11.25 8C11.25 7.27065 11.5397 6.57118 12.0555 6.05546C12.5712 5.53973 13.2707 5.25 14 5.25C14.7293 5.25 15.4288 5.53973 15.9445 6.05546C16.4603 6.57118 16.75 7.27065 16.75 8ZM14 9.25C14.3315 9.25 14.6495 9.1183 14.8839 8.88388C15.1183 8.64946 15.25 8.33152 15.25 8C15.25 7.66848 15.1183 7.35054 14.8839 7.11612C14.6495 6.8817 14.3315 6.75 14 6.75C13.6685 6.75 13.3505 6.8817 13.1161 7.11612C12.8817 7.35054 12.75 7.66848 12.75 8C12.75 8.33152 12.8817 8.64946 13.1161 8.88388C13.3505 9.1183 13.6685 9.25 14 9.25Z" fill="black"/>
<path d="M13.25 16C13.25 15.8011 13.329 15.6103 13.4697 15.4697C13.6103 15.329 13.8011 15.25 14 15.25H19C19.1989 15.25 19.3897 15.329 19.5303 15.4697C19.671 15.6103 19.75 15.8011 19.75 16C19.75 16.1989 19.671 16.3897 19.5303 16.5303C19.3897 16.671 19.1989 16.75 19 16.75H14C13.8011 16.75 13.6103 16.671 13.4697 16.5303C13.329 16.3897 13.25 16.1989 13.25 16ZM10 7.25C10.1989 7.25 10.3897 7.32902 10.5303 7.46967C10.671 7.61032 10.75 7.80109 10.75 8C10.75 8.19891 10.671 8.38968 10.5303 8.53033C10.3897 8.67098 10.1989 8.75 10 8.75H5C4.80109 8.75 4.61032 8.67098 4.46967 8.53033C4.32902 8.38968 4.25 8.19891 4.25 8C4.25 7.80109 4.32902 7.61032 4.46967 7.46967C4.61032 7.32902 4.80109 7.25 5 7.25H10ZM4.25 16C4.25 15.8011 4.32902 15.6103 4.46967 15.4697C4.61032 15.329 4.80109 15.25 5 15.25H6C6.19891 15.25 6.38968 15.329 6.53033 15.4697C6.67098 15.6103 6.75 15.8011 6.75 16C6.75 16.1989 6.67098 16.3897 6.53033 16.5303C6.38968 16.671 6.19891 16.75 6 16.75H5C4.80109 16.75 4.61032 16.671 4.46967 16.5303C4.32902 16.3897 4.25 16.1989 4.25 16ZM19 7.25C19.1989 7.25 19.3897 7.32902 19.5303 7.46967C19.671 7.61032 19.75 7.80109 19.75 8C19.75 8.19891 19.671 8.38968 19.5303 8.53033C19.3897 8.67098 19.1989 8.75 19 8.75H18C17.8011 8.75 17.6103 8.67098 17.4697 8.53033C17.329 8.38968 17.25 8.19891 17.25 8C17.25 7.80109 17.329 7.61032 17.4697 7.46967C17.6103 7.32902 17.8011 7.25 18 7.25H19Z" fill="black"/>
<path fill-rule="evenodd" clip-rule="evenodd" d="M11.943 1.25H12.057C14.366 1.25 16.175 1.25 17.587 1.44C19.031 1.634 20.171 2.04 21.066 2.934C21.961 3.829 22.366 4.969 22.56 6.414C22.75 7.825 22.75 9.634 22.75 11.943V12.057C22.75 14.366 22.75 16.175 22.56 17.587C22.366 19.031 21.96 20.171 21.066 21.066C20.171 21.961 19.031 22.366 17.586 22.56C16.175 22.75 14.366 22.75 12.057 22.75H11.943C9.634 22.75 7.825 22.75 6.413 22.56C4.969 22.366 3.829 21.96 2.934 21.066C2.039 20.171 1.634 19.031 1.44 17.586C1.25 16.175 1.25 14.366 1.25 12.057V11.943C1.25 9.634 1.25 7.825 1.44 6.413C1.634 4.969 2.04 3.829 2.934 2.934C3.829 2.039 4.969 1.634 6.414 1.44C7.825 1.25 9.634 1.25 11.943 1.25ZM6.613 2.926C5.335 3.098 4.564 3.426 3.995 3.995C3.425 4.565 3.098 5.335 2.926 6.614C2.752 7.914 2.75 9.622 2.75 12C2.75 14.378 2.752 16.086 2.926 17.386C3.098 18.665 3.426 19.436 3.995 20.006C4.565 20.575 5.335 20.902 6.614 21.074C7.914 21.248 9.622 21.25 12 21.25C14.378 21.25 16.086 21.248 17.386 21.074C18.665 20.902 19.436 20.574 20.006 20.005C20.575 19.435 20.902 18.665 21.074 17.386C21.248 16.086 21.25 14.378 21.25 12C21.25 9.622 21.248 7.914 21.074 6.614C20.902 5.335 20.574 4.564 20.005 3.994C19.435 3.425 18.665 3.098 17.386 2.926C16.086 2.752 14.378 2.75 12 2.75C9.622 2.75 7.913 2.752 6.613 2.926Z" fill="black"/>
</g>
<defs>
<clipPath id="clip0_221_15031">
<rect width="24" height="24" fill="white"/>
</clipPath>
</defs>
</svg>
