<svg width="24" height="24" viewBox="0 0 24 24" fill="none" xmlns="http://www.w3.org/2000/svg">
<path fill-rule="evenodd" clip-rule="evenodd" d="M20.8898 3.16879C20.9922 3.27311 21.0092 3.29049 20.8971 3.17623C21.0295 3.31119 21.1392 3.4246 21.2236 3.52218C21.3283 3.64539 21.4174 3.77257 21.4767 3.92078C21.617 4.26745 21.6134 4.65626 21.4666 5.00025C21.3928 5.17511 21.2782 5.32008 21.1415 5.46564C21.1398 5.46727 21.1382 5.46888 21.1366 5.4705C21.1225 5.48432 21.1157 5.50396 21.1188 5.52695C21.1268 5.54344 21.1423 5.55589 21.1595 5.56179C21.1611 5.56181 21.1636 5.56263 21.1652 5.56265C21.3566 5.6235 21.5266 5.69563 21.6756 5.81105C21.6764 5.81188 21.6764 5.81188 21.6764 5.81188C21.9713 6.04269 22.1617 6.38081 22.2066 6.75284C22.2074 6.75531 22.2074 6.75697 22.2074 6.75861C22.224 6.91627 22.2135 7.07611 22.1776 7.22836L22.0593 7.68747C22.0449 7.73737 22.0287 7.80204 22.055 7.70138C22.0142 7.85359 21.9702 8.00575 21.9212 8.15295C21.8722 8.30508 21.7987 8.44712 21.704 8.57421C21.7023 8.57584 21.7007 8.57747 21.699 8.5791C21.469 8.8731 21.1309 9.06517 20.7589 9.1101C20.5716 9.13297 20.3881 9.10666 20.1949 9.06056L20.1933 9.06055C20.172 9.05543 20.1482 9.05439 20.1325 9.06818C20.1201 9.08366 20.1158 9.10411 20.1205 9.12384C20.1213 9.12631 20.1221 9.12877 20.1221 9.13205C20.1646 9.32605 20.1875 9.51003 20.1611 9.69683C20.1093 10.068 19.9109 10.4024 19.6127 10.6269C19.4854 10.7241 19.3445 10.786 19.1907 10.8379C19.0672 10.8794 18.9143 10.919 18.7309 10.9657L18.712 10.9713L18.2475 11.0809C18.0897 11.1106 17.9354 11.124 17.7764 11.1012C17.4061 11.0485 17.0716 10.8518 16.8463 10.5527C16.7337 10.4015 16.6648 10.2303 16.6075 10.0378C16.6067 10.0353 16.6059 10.0328 16.6051 10.0303C16.6004 10.0123 16.5866 9.99655 16.5653 9.98814C16.5473 9.98634 16.5292 9.99271 16.5159 10.0057C16.5135 10.0081 16.5118 10.0098 16.5101 10.0114C16.3612 10.1462 16.2142 10.258 16.0404 10.3278C16.0396 10.3286 16.0396 10.3286 16.0396 10.3286C15.6929 10.4673 15.3041 10.4636 14.9593 10.3177C14.8122 10.2556 14.6875 10.165 14.5663 10.0581L14.2257 9.72431L13.8845 9.36347C13.7798 9.24026 13.6908 9.11308 13.6315 8.96487C13.4912 8.61819 13.4948 8.22939 13.6416 7.8854C13.7145 7.71135 13.8299 7.56559 13.9674 7.42085C13.9699 7.41841 13.9708 7.41597 13.9733 7.41353C13.9865 7.40053 13.9932 7.38255 13.9894 7.35872C13.9813 7.34224 13.9667 7.33062 13.9495 7.32471C13.947 7.32387 13.9446 7.32302 13.9429 7.323C13.7515 7.26215 13.5816 7.19002 13.4325 7.0746L13.4317 7.07377C13.1377 6.84379 12.9465 6.50486 12.9007 6.13364C12.8817 5.97514 12.8971 5.82187 12.9297 5.66303L13.0489 5.20147L13.0455 5.21128C13.0224 5.30869 13.0285 5.2751 13.054 5.18182L13.1903 4.72454C13.2442 4.57246 13.3104 4.43278 13.4092 4.30655C13.6391 4.01255 13.9773 3.82047 14.3493 3.77554C14.5374 3.75351 14.7201 3.77899 14.9132 3.82509C14.9165 3.82512 14.919 3.82596 14.9214 3.82681C14.9402 3.83273 14.96 3.82799 14.9781 3.81339C14.9881 3.79872 14.9924 3.7799 14.9876 3.76181C14.9868 3.75934 14.986 3.75688 14.9861 3.7536C14.9436 3.5596 14.9207 3.37561 14.9471 3.18882C14.9997 2.81852 15.1964 2.48403 15.4955 2.25877C15.6236 2.16234 15.7636 2.09966 15.9175 2.04778L16.3945 1.91604L16.397 1.91525C16.5787 1.86854 16.7308 1.82976 16.8582 1.80552C17.0111 1.77249 17.1695 1.76495 17.3252 1.78445C17.3276 1.78365 17.3301 1.78448 17.3318 1.7845C17.7021 1.83717 18.0374 2.03471 18.2618 2.33295C18.2626 2.33378 18.2626 2.33378 18.2626 2.33378C18.3753 2.48496 18.4442 2.65624 18.5007 2.8479C18.5015 2.85037 18.5022 2.85286 18.503 2.85532C18.5078 2.87342 18.5216 2.88911 18.5429 2.89752C18.5609 2.89932 18.579 2.89294 18.5922 2.87994C18.5947 2.8775 18.5964 2.87589 18.598 2.87426C18.7469 2.73947 18.8932 2.62843 19.0677 2.55787C19.4152 2.41837 19.804 2.42201 20.1489 2.56797C20.1505 2.56963 20.1521 2.56962 20.1546 2.57046C20.2976 2.63496 20.4288 2.72232 20.5443 2.83004L20.8816 3.16216L20.8898 3.16879ZM19.6825 3.66451C19.6294 3.64187 19.5687 3.64131 19.5144 3.66377L19.5135 3.66293C19.4905 3.67256 19.464 3.69857 19.4011 3.7554C19.09 4.03798 18.6492 4.16511 18.2204 4.04626C17.7917 3.92741 17.479 3.59063 17.3588 3.18836C17.335 3.10775 17.3255 3.07157 17.3109 3.05174C17.3101 3.05091 17.3101 3.05091 17.3093 3.05009C17.2753 3.00383 17.2222 2.97297 17.1657 2.96506C17.1485 2.96243 17.1255 2.96714 17.0795 2.97656C16.9841 2.99371 16.8641 3.02542 16.6848 3.07132L16.2933 3.17924C16.2505 3.19361 16.2267 3.19914 16.2151 3.20888C16.2143 3.20969 16.2134 3.21049 16.2118 3.21047C16.1655 3.24614 16.1347 3.29752 16.1268 3.35569C16.1233 3.38027 16.1328 3.41645 16.1501 3.50029C16.2397 3.91129 16.1289 4.35654 15.8118 4.66777C15.4947 4.979 15.0475 5.08148 14.6383 4.98414C14.5548 4.96531 14.5188 4.95514 14.4933 4.95901C14.4358 4.96503 14.383 4.99569 14.3473 5.04047C14.3473 5.04211 14.3465 5.04295 14.3457 5.04376C14.3357 5.05515 14.3298 5.07722 14.3146 5.12138L14.1994 5.51078L14.0965 5.90606C14.087 5.95109 14.0827 5.9732 14.0842 5.98963C14.091 6.04629 14.1209 6.09989 14.1665 6.13477C14.1673 6.1356 14.1673 6.1356 14.1681 6.13642C14.1877 6.15137 14.2237 6.16156 14.3038 6.18692C14.3038 6.18692 14.3038 6.18693 14.3046 6.18775C14.7046 6.31536 15.0339 6.63425 15.1455 7.06433C15.2563 7.49522 15.1218 7.93285 14.8335 8.23861L14.8327 8.23942C14.7746 8.30123 14.7482 8.32723 14.7381 8.35011L14.7389 8.35094C14.7154 8.40487 14.7149 8.46556 14.7365 8.51908C14.7429 8.53555 14.7592 8.5521 14.79 8.58849C14.8517 8.66125 14.9403 8.74985 15.0695 8.88148C15.1995 9.01395 15.2856 9.10337 15.3572 9.16639C15.393 9.19789 15.4101 9.21528 15.4256 9.22116C15.4787 9.24381 15.5394 9.24437 15.5946 9.22274C15.6177 9.21311 15.6442 9.18711 15.707 9.13027L15.7079 9.12945C16.0189 8.84688 16.4606 8.72056 16.8878 8.83939C17.3157 8.95905 17.6292 9.29504 17.7493 9.69731C17.774 9.77875 17.7827 9.81408 17.7973 9.83391C17.7981 9.83473 17.7981 9.83475 17.7989 9.83557C17.8337 9.88266 17.8859 9.91269 17.9433 9.92143C17.9597 9.92322 17.9827 9.91851 18.0295 9.90993C18.124 9.89194 18.2449 9.86106 18.4234 9.81432L18.8149 9.70641C18.8585 9.69287 18.8806 9.68735 18.8931 9.6768C18.8939 9.67598 18.8955 9.67599 18.8955 9.67599C18.9418 9.64033 18.9735 9.58814 18.9814 9.53161C18.9849 9.50539 18.9762 9.47002 18.9581 9.38536C18.8684 8.97435 18.9792 8.52913 19.2963 8.2179C19.6134 7.90667 20.0607 7.80417 20.4699 7.90151C20.5542 7.92116 20.5894 7.93052 20.6149 7.92829C20.6724 7.92063 20.7243 7.89078 20.7608 7.84518C20.7617 7.84436 20.7617 7.84273 20.7625 7.84191C20.7724 7.83052 20.7784 7.80842 20.7944 7.76509L20.9088 7.37486C20.9588 7.19732 20.9911 7.07784 21.0109 6.98368C21.0203 6.93701 21.0263 6.91328 21.0248 6.89686C21.0172 6.83936 20.9881 6.7866 20.9417 6.75089C20.9409 6.75006 20.9409 6.75005 20.94 6.74922C20.9205 6.73428 20.8845 6.72411 20.8043 6.69875C20.4036 6.57032 20.0743 6.2514 19.9627 5.82132C19.8527 5.39125 19.9864 4.9528 20.2747 4.64704C20.3327 4.58524 20.36 4.55844 20.37 4.53556C20.3927 4.48081 20.3941 4.42095 20.3716 4.36659C20.366 4.35095 20.349 4.33356 20.3189 4.29801C20.2565 4.22441 20.1687 4.13664 20.0387 4.00418C19.9095 3.87254 19.8225 3.7823 19.7509 3.71929C19.7151 3.68778 19.6989 3.67123 19.6825 3.66451ZM18.8726 5.27547L18.8109 5.20929C18.134 4.51963 17.0102 4.50915 16.3205 5.18606C15.6309 5.86296 15.6204 6.98672 16.2973 7.67637C16.9742 8.36603 18.098 8.37653 18.7876 7.69962C19.4558 7.04384 19.4863 5.96864 18.8726 5.27547ZM17.0498 5.97874C16.8053 6.24471 16.8096 6.66313 17.0648 6.9231C17.3281 7.19135 17.7661 7.19542 18.0343 6.93213C18.3026 6.66885 18.3067 6.23083 18.0434 5.96258C17.7801 5.69434 17.3421 5.69025 17.0738 5.95354L17.0498 5.97874Z" fill="black"/>
<path fill-rule="evenodd" clip-rule="evenodd" d="M12.8591 10.1484C13.119 9.32792 12.7055 8.44581 11.9101 8.11928C11.869 8.10192 11.8269 8.08917 11.783 8.08082C11.7973 8.08317 11.8118 8.08481 11.8248 8.09006C11.0306 7.77748 10.1291 8.12167 9.7457 8.88239C9.69746 8.97092 9.65139 9.06453 9.60678 9.15452C9.56392 9.24016 9.47783 9.2949 9.38223 9.29778L8.9666 9.29763C8.86766 9.30254 8.77521 9.24938 8.72945 9.16184L8.58943 8.90401C8.19301 8.1409 7.27748 7.80907 6.48311 8.14065C6.4424 8.15801 6.40372 8.17872 6.36678 8.20349C6.37841 8.19552 6.38961 8.18653 6.40284 8.18089C5.62008 8.52134 5.22642 9.40189 5.49317 10.2107C5.52148 10.3081 5.55514 10.4068 5.58679 10.5021C5.61729 10.592 5.59533 10.6927 5.52969 10.7616L5.23556 11.0549C5.16962 11.1287 5.06628 11.1571 4.97147 11.1266L4.69093 11.0442C3.87116 10.7846 2.98833 11.1978 2.66181 11.9932C2.64517 12.0345 2.63246 12.0766 2.62337 12.1202C2.62645 12.1063 2.62808 12.0917 2.63333 12.0787L2.63303 12.0794C2.32045 12.8737 2.66418 13.7741 3.4249 14.1575C3.51416 14.2061 3.60777 14.2522 3.69776 14.2968C3.78267 14.3393 3.83816 14.4257 3.84032 14.521L3.84017 14.9366C3.84508 15.0356 3.7919 15.128 3.70436 15.1738L3.44726 15.3141C2.68416 15.7105 2.35233 16.6261 2.6839 17.4204C2.70054 17.4609 2.72198 17.4998 2.74603 17.5365C2.73806 17.5248 2.72907 17.5136 2.72415 17.5007C3.0646 18.2835 3.94442 18.6768 4.75394 18.4104C4.85059 18.3818 4.95002 18.3484 5.04466 18.3165C5.13551 18.2855 5.23528 18.3079 5.3049 18.3738L5.59814 18.668C5.67196 18.7339 5.69966 18.837 5.66986 18.9321L5.58671 19.2123C5.32783 20.0323 5.74031 20.9149 6.53643 21.2417C6.57707 21.2581 6.61991 21.2711 6.66275 21.2799C6.64881 21.2768 6.63501 21.2755 6.62194 21.2702C7.4162 21.5828 8.31664 21.2391 8.70006 20.4783C8.74859 20.3891 8.79539 20.2957 8.84001 20.2058C8.88185 20.1206 8.96897 20.0654 9.06427 20.0632L9.47918 20.0631C9.57812 20.0581 9.67158 20.1109 9.71704 20.1992L9.85665 20.456C10.2531 21.2191 11.1693 21.5512 11.963 21.2193C12.0034 21.2027 12.0431 21.1815 12.0797 21.1575C12.0674 21.1652 12.0562 21.1742 12.044 21.1794C12.8267 20.8389 13.2201 19.9591 12.9536 19.1496C12.925 19.0529 12.8916 18.9535 12.859 18.8586C12.8288 18.768 12.8512 18.6683 12.9171 18.5987L13.2105 18.3051C13.2772 18.2316 13.3802 18.2039 13.4746 18.2334L13.7555 18.3168C14.5756 18.5757 15.4574 18.1629 15.7843 17.3668C15.8016 17.3257 15.8143 17.2836 15.8224 17.2405C15.8201 17.2547 15.8187 17.2685 15.8135 17.2816C16.126 16.4874 15.7816 15.5866 15.0209 15.2032C14.9323 15.1549 14.839 15.1081 14.749 15.0635C14.6631 15.0214 14.6086 14.9346 14.6057 14.839L14.6056 14.424C14.6007 14.3251 14.6542 14.2319 14.7417 14.1862L14.9992 14.0469C15.7623 13.6505 16.0945 12.7342 15.7626 11.9406C15.7452 11.8999 15.7248 11.8605 15.7 11.8235C15.7077 11.8359 15.7167 11.8471 15.7226 11.8596C15.3829 11.0771 14.5016 10.6831 13.6929 10.9499C13.5955 10.9782 13.4968 11.0119 13.4011 11.0443C13.3113 11.0748 13.2108 11.0521 13.1419 10.9864L12.8484 10.693C12.7748 10.6264 12.7464 10.523 12.7766 10.4289L12.8591 10.1484ZM11.5284 9.72724L11.4364 10.0377C11.2548 10.6384 11.4387 11.3008 11.9124 11.7291L12.114 11.9324C12.5576 12.4042 13.2348 12.5736 13.8484 12.3666L14.1275 12.2765C14.2525 12.234 14.3891 12.2948 14.4422 12.4165C14.4555 12.4463 14.4696 12.4764 14.4846 12.5061C14.5187 12.6226 14.4656 12.7505 14.3548 12.808L14.0711 12.9621C13.5175 13.2589 13.1791 13.8573 13.2118 14.4953L13.2106 14.7815C13.1907 15.4286 13.5495 16.0274 14.1297 16.3146L14.3902 16.4488C14.5091 16.5076 14.5629 16.6464 14.5143 16.7694C14.502 16.7999 14.491 16.8316 14.4806 16.8637C14.4226 16.9703 14.2952 17.0228 14.1763 16.9851L13.8659 16.8932C13.2649 16.7123 12.6024 16.8962 12.1742 17.3699L11.9708 17.5715C11.4994 18.0143 11.3297 18.6923 11.5369 19.3051L11.6268 19.585C11.6693 19.71 11.6084 19.8466 11.487 19.899C11.4572 19.9123 11.4272 19.9263 11.3975 19.9413C11.2809 19.9754 11.1527 19.9231 11.0952 19.8123L10.9412 19.5286C10.6443 18.975 10.046 18.6366 9.40828 18.6686L9.12209 18.6674C8.47492 18.6475 7.87589 19.007 7.58897 19.5864L7.45441 19.8477C7.39595 19.9658 7.25712 20.0196 7.13386 19.9718C7.10338 19.9595 7.07186 19.9477 7.03977 19.9373C6.93324 19.8793 6.88074 19.7519 6.91843 19.633L7.00935 19.323C7.19128 18.7216 7.00736 18.0591 6.53335 17.6316L6.33207 17.4276C5.88893 16.9568 5.21093 16.7871 4.59838 16.9936L4.31856 17.0835C4.19355 17.126 4.05696 17.0652 4.00429 16.9445C3.99127 16.914 3.97723 16.8839 3.96217 16.8542C3.92809 16.7377 3.98018 16.6102 4.09098 16.5527L4.37497 16.3979C4.92856 16.1011 5.26696 15.5027 5.23496 14.865L5.23619 14.5788C5.25578 13.9324 4.89653 13.3327 4.3171 13.0457L4.05557 12.9119C3.93742 12.8534 3.8839 12.7139 3.93176 12.5906C3.94402 12.5601 3.95556 12.5293 3.96593 12.4973C4.02394 12.3907 4.15157 12.3375 4.27049 12.3752L4.58021 12.4668C5.18162 12.6488 5.84412 12.4648 6.27163 11.9908L6.47566 11.7895C6.9467 11.3457 7.11612 10.6684 6.90989 10.0551L6.81974 9.77602C6.77725 9.65101 6.83807 9.51441 6.95904 9.46102C6.98957 9.448 7.01964 9.43399 7.04931 9.41893C7.16588 9.38485 7.29307 9.43763 7.35055 9.54843L7.50534 9.83243C7.80218 10.386 8.40055 10.7244 9.03852 10.6917L9.32471 10.6929C9.97115 10.7125 10.5706 10.354 10.8578 9.77386L10.9914 9.51304C11.0501 9.39416 11.1897 9.34062 11.3126 9.38922C11.3431 9.40148 11.3742 9.41232 11.4063 9.42269C11.5128 9.4807 11.566 9.60833 11.5284 9.72724ZM9.96027 12.8473C8.94841 12.4405 7.79709 12.9322 7.39057 13.9433C6.98376 14.9551 7.47467 16.1061 8.48653 16.5129C9.49766 16.9195 10.6494 16.4289 11.0562 15.417C11.4627 14.4059 10.9714 13.2539 9.96027 12.8473ZM9.43936 14.143C9.73551 14.2621 9.8796 14.6 9.76053 14.8961C9.64118 15.193 9.30331 15.3371 9.00715 15.218C8.71027 15.0986 8.56617 14.7608 8.68552 14.4639C8.80459 14.1678 9.14248 14.0236 9.43936 14.143Z" fill="black"/>
</svg>
