<svg width="24" height="24" viewBox="0 0 24 24" fill="none" xmlns="http://www.w3.org/2000/svg">
<g clip-path="url(#clip0_221_15014)">
<path fill-rule="evenodd" clip-rule="evenodd" d="M3.48063 20.4281L3.47828 20.4269C3.47828 20.4269 3.55993 20.5086 3.57295 20.5216C3.58774 20.5364 3.60253 20.55 3.61791 20.563C5.65993 22.4891 7.66586 20.5246 7.66586 20.5246L15.4984 12.7299C16.5588 13.0151 18.9576 13.3228 20.8842 11.092C23.3919 8.18906 21.7683 4.88253 21.7683 4.88253C21.6541 4.64762 21.4345 4.48252 21.1771 4.43696C20.9203 4.39199 20.6576 4.47247 20.47 4.65412L18.073 6.97306L17.115 6.88488L17.0274 5.92749L19.3464 3.53045C19.528 3.34287 19.6085 3.08015 19.5629 2.82275C19.518 2.56595 19.3523 2.34583 19.118 2.23222C19.118 2.23222 15.8108 0.607969 12.9079 3.11567C10.6771 5.0423 10.9854 7.44171 11.27 8.50266C11.2706 8.50206 3.48123 16.3281 3.48123 16.3281C3.48005 16.3305 3.47768 16.3329 3.4759 16.3346C3.4759 16.3346 1.50074 18.3571 3.46347 20.411L3.48063 20.4281ZM16.2931 8.44524L16.2919 8.44526L16.3623 8.45177L16.3635 8.45178L18.2961 8.62927C18.5322 8.65117 18.7659 8.56892 18.9369 8.40384L20.6227 6.77248C20.7363 7.64586 20.6428 8.88017 19.6517 10.0275C17.9067 12.047 15.6037 11.0553 15.6037 11.0553C15.2972 10.9204 14.9398 10.9879 14.7026 11.224L6.5274 19.3589C6.49012 19.395 5.59069 20.2246 4.68654 19.3311L4.67471 19.3193L4.64749 19.2921L4.641 19.2843C3.80372 18.4092 4.57354 17.5459 4.63804 17.4755C4.641 17.4725 12.7765 9.29792 12.7765 9.29792C13.0126 9.06064 13.0795 8.70266 12.9446 8.39615C12.9446 8.39615 11.9528 6.09318 13.973 4.34879C15.1203 3.35766 16.3546 3.26418 17.228 3.37779C17.2274 3.3772 15.5967 5.06358 15.5967 5.06358C15.431 5.234 15.3493 5.46832 15.3712 5.70441L15.5552 7.70858C15.5913 8.10325 15.9055 8.41033 16.2931 8.44524ZM16.3605 8.44527C16.3321 8.33166 16.273 8.39439 16.3605 8.44527C16.3321 8.33166 16.2724 8.39379 16.3605 8.44527Z" fill="black"/>
</g>
<defs>
<clipPath id="clip0_221_15014">
<rect width="24" height="24" fill="white"/>
</clipPath>
</defs>
</svg>
