<svg width="24" height="24" viewBox="0 0 24 24" fill="none" xmlns="http://www.w3.org/2000/svg">
<g clip-path="url(#clip0_221_15038)">
<path fill-rule="evenodd" clip-rule="evenodd" d="M9 1.25C9.19891 1.25 9.38968 1.32902 9.53033 1.46967C9.67098 1.61032 9.75 1.80109 9.75 2V3.263C10.25 3.25431 10.75 3.24997 11.25 3.25V2C11.25 1.80109 11.329 1.61032 11.4697 1.46967C11.6103 1.32902 11.8011 1.25 12 1.25C12.1989 1.25 12.3897 1.32902 12.5303 1.46967C12.671 1.61032 12.75 1.80109 12.75 2V3.25C13.2847 3.25 13.7847 3.25433 14.25 3.263V2C14.25 1.80109 14.329 1.61032 14.4697 1.46967C14.6103 1.32902 14.8011 1.25 15 1.25C15.1989 1.25 15.3897 1.32902 15.5303 1.46967C15.671 1.61032 15.75 1.80109 15.75 2V3.327C16.01 3.347 16.2563 3.37233 16.489 3.403C17.661 3.561 18.61 3.893 19.359 4.641C20.107 5.39 20.439 6.339 20.597 7.511C20.6277 7.74433 20.653 7.99067 20.673 8.25H22C22.1989 8.25 22.3897 8.32902 22.5303 8.46967C22.671 8.61032 22.75 8.80109 22.75 9C22.75 9.19891 22.671 9.38968 22.5303 9.53033C22.3897 9.67098 22.1989 9.75 22 9.75H20.737C20.7457 10.2153 20.75 10.7153 20.75 11.25H22C22.1989 11.25 22.3897 11.329 22.5303 11.4697C22.671 11.6103 22.75 11.8011 22.75 12C22.75 12.1989 22.671 12.3897 22.5303 12.5303C22.3897 12.671 22.1989 12.75 22 12.75H20.75C20.75 13.2847 20.7457 13.7847 20.737 14.25H22C22.1989 14.25 22.3897 14.329 22.5303 14.4697C22.671 14.6103 22.75 14.8011 22.75 15C22.75 15.1989 22.671 15.3897 22.5303 15.5303C22.3897 15.671 22.1989 15.75 22 15.75H20.673C20.653 16.01 20.6277 16.2563 20.597 16.489C20.439 17.661 20.107 18.61 19.359 19.359C18.61 20.107 17.661 20.439 16.489 20.597C16.2557 20.6277 16.0093 20.653 15.75 20.673V22C15.75 22.1989 15.671 22.3897 15.5303 22.5303C15.3897 22.671 15.1989 22.75 15 22.75C14.8011 22.75 14.6103 22.671 14.4697 22.5303C14.329 22.3897 14.25 22.1989 14.25 22V20.737C13.7847 20.7457 13.2847 20.75 12.75 20.75V22C12.75 22.1989 12.671 22.3897 12.5303 22.5303C12.3897 22.671 12.1989 22.75 12 22.75C11.8011 22.75 11.6103 22.671 11.4697 22.5303C11.329 22.3897 11.25 22.1989 11.25 22V20.75C10.7153 20.75 10.2153 20.7457 9.75 20.737V22C9.75 22.1989 9.67098 22.3897 9.53033 22.5303C9.38968 22.671 9.19891 22.75 9 22.75C8.80109 22.75 8.61032 22.671 8.46967 22.5303C8.32902 22.3897 8.25 22.1989 8.25 22V20.673C7.99 20.653 7.74367 20.6277 7.511 20.597C6.339 20.439 5.39 20.107 4.641 19.359C3.893 18.61 3.561 17.661 3.403 16.489C3.37233 16.2557 3.347 16.0093 3.327 15.75H2C1.80109 15.75 1.61032 15.671 1.46967 15.5303C1.32902 15.3897 1.25 15.1989 1.25 15C1.25 14.8011 1.32902 14.6103 1.46967 14.4697C1.61032 14.329 1.80109 14.25 2 14.25H3.263C3.25431 13.75 3.24997 13.25 3.25 12.75H2C1.80109 12.75 1.61032 12.671 1.46967 12.5303C1.32902 12.3897 1.25 12.1989 1.25 12C1.25 11.8011 1.32902 11.6103 1.46967 11.4697C1.61032 11.329 1.80109 11.25 2 11.25H3.25C3.25 10.7153 3.25433 10.2153 3.263 9.75H2C1.80109 9.75 1.61032 9.67098 1.46967 9.53033C1.32902 9.38968 1.25 9.19891 1.25 9C1.25 8.80109 1.32902 8.61032 1.46967 8.46967C1.61032 8.32902 1.80109 8.25 2 8.25H3.327C3.347 7.99 3.37233 7.74367 3.403 7.511C3.561 6.339 3.893 5.39 4.641 4.641C5.39 3.893 6.339 3.561 7.511 3.403C7.74433 3.37233 7.99067 3.347 8.25 3.327V2C8.25 1.80109 8.32902 1.61032 8.46967 1.46967C8.61032 1.32902 8.80109 1.25 9 1.25ZM7.71 4.89C6.705 5.025 6.125 5.279 5.702 5.702C5.279 6.125 5.025 6.705 4.89 7.71C4.752 8.738 4.75 10.092 4.75 11.999C4.75 13.906 4.752 15.261 4.89 16.289C5.025 17.294 5.279 17.874 5.702 18.297C6.125 18.72 6.705 18.974 7.711 19.109C8.739 19.247 10.093 19.249 12 19.249C13.907 19.249 15.262 19.247 16.29 19.109C17.295 18.974 17.875 18.72 18.298 18.297C18.721 17.874 18.975 17.294 19.11 16.288C19.248 15.26 19.25 13.906 19.25 11.999C19.25 10.092 19.248 8.738 19.11 7.709C18.975 6.704 18.721 6.124 18.298 5.701C17.875 5.278 17.295 5.024 16.289 4.889C15.261 4.751 13.907 4.749 12 4.749C10.093 4.749 8.739 4.752 7.71 4.89ZM9.95 6.249H14.05C14.714 6.249 15.287 6.249 15.746 6.311C16.238 6.377 16.709 6.526 17.091 6.908C17.473 7.29 17.622 7.762 17.688 8.253C17.75 8.712 17.75 9.285 17.75 9.95V14.048C17.75 14.713 17.75 15.286 17.688 15.745C17.622 16.237 17.473 16.708 17.091 17.09C16.709 17.472 16.237 17.621 15.746 17.687C15.287 17.749 14.714 17.749 14.049 17.749H9.951C9.286 17.749 8.713 17.749 8.254 17.687C7.763 17.621 7.291 17.472 6.909 17.09C6.527 16.708 6.378 16.236 6.312 15.745C6.25 15.286 6.25 14.713 6.25 14.048V9.951C6.25 9.286 6.25 8.713 6.312 8.254C6.378 7.763 6.527 7.291 6.909 6.909C7.291 6.527 7.763 6.378 8.254 6.312C8.713 6.25 9.286 6.25 9.951 6.25M8.455 7.798C8.13 7.842 8.028 7.913 7.971 7.97C7.914 8.027 7.843 8.129 7.799 8.454C7.753 8.801 7.751 9.272 7.751 10V14C7.751 14.728 7.753 15.2 7.799 15.546C7.843 15.871 7.914 15.973 7.971 16.03C8.028 16.087 8.13 16.158 8.455 16.202C8.802 16.248 9.273 16.25 10.001 16.25H14.001C14.729 16.25 15.201 16.248 15.547 16.202C15.872 16.158 15.974 16.087 16.031 16.03C16.088 15.973 16.159 15.871 16.203 15.546C16.249 15.199 16.251 14.728 16.251 14V10C16.251 9.272 16.249 8.8 16.203 8.454C16.159 8.129 16.088 8.027 16.031 7.97C15.974 7.913 15.872 7.842 15.547 7.798C15.2 7.752 14.729 7.75 14.001 7.75H10.001C9.273 7.75 8.801 7.752 8.455 7.798Z" fill="black"/>
</g>
<defs>
<clipPath id="clip0_221_15038">
<rect width="24" height="24" fill="white"/>
</clipPath>
</defs>
</svg>
