<svg width="24" height="24" viewBox="0 0 24 24" fill="none" xmlns="http://www.w3.org/2000/svg">
<g clip-path="url(#clip0_221_15048)">
<path fill-rule="evenodd" clip-rule="evenodd" d="M12.25 1.99996C12.2503 1.90146 12.2699 1.80399 12.3079 1.7131C12.3458 1.6222 12.4013 1.53967 12.4711 1.47021C12.5409 1.40075 12.6237 1.34573 12.7148 1.30828C12.8059 1.27083 12.9035 1.25169 13.002 1.25196C14.549 1.25596 15.802 1.28196 16.809 1.45196C17.837 1.62696 18.681 1.96396 19.359 2.64196C20.107 3.39096 20.439 4.33996 20.597 5.51196C20.75 6.65196 20.75 8.10696 20.75 9.94496V14.057C20.75 15.895 20.75 17.351 20.597 18.49C20.439 19.662 20.107 20.611 19.359 21.36C18.61 22.108 17.661 22.44 16.489 22.598C15.349 22.751 13.894 22.751 12.056 22.751H11.944C10.106 22.751 8.65 22.751 7.511 22.598C6.339 22.44 5.39 22.108 4.641 21.36C3.893 20.611 3.561 19.662 3.403 18.49C3.25 17.35 3.25 15.895 3.25 14.057V11.002C3.25 10.803 3.32902 10.6123 3.46967 10.4716C3.61032 10.331 3.80109 10.252 4 10.252C4.19891 10.252 4.38968 10.331 4.53033 10.4716C4.67098 10.6123 4.75 10.803 4.75 11.002V14C4.75 15.907 4.752 17.262 4.89 18.29C5.025 19.295 5.279 19.875 5.702 20.298C6.125 20.721 6.705 20.975 7.711 21.11C8.739 21.248 10.093 21.25 12 21.25C13.907 21.25 15.262 21.248 16.29 21.11C17.295 20.975 17.875 20.721 18.298 20.298C18.721 19.875 18.975 19.295 19.11 18.289C19.248 17.262 19.25 15.907 19.25 14V9.99996C19.25 8.09296 19.248 6.73896 19.11 5.70996C18.975 4.70496 18.721 4.12496 18.298 3.70196C17.913 3.31696 17.4 3.07296 16.558 2.92996C15.694 2.78396 14.565 2.75596 12.998 2.74996C12.7994 2.74943 12.6092 2.67018 12.469 2.52958C12.3287 2.38899 12.25 2.19852 12.25 1.99996ZM8.25 19C8.25 18.801 8.32902 18.6103 8.46967 18.4696C8.61032 18.329 8.80109 18.25 9 18.25H15C15.1989 18.25 15.3897 18.329 15.5303 18.4696C15.671 18.6103 15.75 18.801 15.75 19C15.75 19.1989 15.671 19.3896 15.5303 19.5303C15.3897 19.6709 15.1989 19.75 15 19.75H9C8.80109 19.75 8.61032 19.6709 8.46967 19.5303C8.32902 19.3896 8.25 19.1989 8.25 19Z" fill="black"/>
<path d="M2.19308 6.68444C2.55268 5.81599 3.16175 5.07369 3.94326 4.55143C4.72478 4.02917 5.64362 3.75041 6.58358 3.75041C7.52354 3.75041 8.44238 4.02917 9.22389 4.55143C10.0054 5.07369 10.6145 5.81599 10.9741 6.68444C11.0118 6.77545 11.067 6.85814 11.1367 6.92779C11.2063 6.99745 11.289 7.05271 11.38 7.09041C11.471 7.12811 11.5685 7.14751 11.667 7.14752C11.7655 7.14753 11.8631 7.12813 11.9541 7.09044C12.0451 7.05275 12.1278 6.99751 12.1974 6.92786C12.2671 6.85821 12.3223 6.77553 12.36 6.68453C12.3977 6.59353 12.4172 6.49599 12.4172 6.39749C12.4172 6.29899 12.3978 6.20145 12.3601 6.11044C11.887 4.96779 11.0857 3.99111 10.0574 3.30395C9.02922 2.61678 7.82029 2.25 6.58358 2.25C5.34687 2.25 4.13794 2.61678 3.10971 3.30395C2.08149 3.99111 1.28015 4.96779 0.807078 6.11044C0.730961 6.29424 0.730975 6.50074 0.807114 6.68453C0.883254 6.86831 1.02928 7.01432 1.21308 7.09044C1.39687 7.16656 1.60338 7.16655 1.78716 7.09041C1.97095 7.01427 2.11696 6.86824 2.19308 6.68444Z" fill="black"/>
<path d="M6.58407 6.25041C6.09749 6.25028 5.62399 6.4079 5.23455 6.69961C4.84512 6.99133 4.56075 7.40142 4.42407 7.86841C4.39649 7.96296 4.35056 8.05116 4.2889 8.12796C4.22724 8.20476 4.15105 8.26866 4.0647 8.31602C3.97834 8.36338 3.8835 8.39326 3.78559 8.40397C3.68768 8.41467 3.58862 8.40599 3.49407 8.37841C3.39952 8.35083 3.31133 8.3049 3.23452 8.24324C3.15772 8.18158 3.09382 8.10539 3.04646 8.01903C2.9991 7.93268 2.96922 7.83784 2.95851 7.73993C2.94781 7.64202 2.95649 7.54296 2.98407 7.44841C3.21187 6.67004 3.6858 5.98646 4.33484 5.50015C4.98388 5.01383 5.77305 4.75098 6.58407 4.75098C7.39509 4.75098 8.18427 5.01383 8.8333 5.50015C9.48234 5.98646 9.95628 6.67004 10.1841 7.44841C10.2398 7.63937 10.2173 7.84463 10.1217 8.01903C10.026 8.19344 9.86503 8.32271 9.67407 8.37841C9.57952 8.40599 9.48046 8.41467 9.38255 8.40397C9.28465 8.39326 9.1898 8.36338 9.10345 8.31602C8.92904 8.22038 8.79977 8.05937 8.74407 7.86841C8.6074 7.40142 8.32302 6.99133 7.93359 6.69961C7.54415 6.4079 7.07065 6.25028 6.58407 6.25041Z" fill="black"/>
<path d="M6.58408 9.00037C6.84929 9.00037 7.10365 8.89501 7.29118 8.70747C7.47872 8.51994 7.58408 8.26558 7.58408 8.00037C7.58408 7.73515 7.47872 7.4808 7.29118 7.29326C7.10365 7.10572 6.84929 7.00037 6.58408 7.00037C6.31886 7.00037 6.06451 7.10572 5.87697 7.29326C5.68943 7.4808 5.58408 7.73515 5.58408 8.00037C5.58408 8.26558 5.68943 8.51994 5.87697 8.70747C6.06451 8.89501 6.31886 9.00037 6.58408 9.00037Z" fill="black"/>
</g>
<defs>
<clipPath id="clip0_221_15048">
<rect width="24" height="24" fill="white"/>
</clipPath>
</defs>
</svg>
