<svg width="24" height="24" viewBox="0 0 24 24" fill="none" xmlns="http://www.w3.org/2000/svg">
<g clip-path="url(#clip0_221_15053)">
<path d="M16.114 2.068C14.6455 1.45984 13.0604 1.1849 11.4728 1.26298C9.88526 1.34105 8.33478 1.7702 6.93302 2.51952C5.53126 3.26884 4.31311 4.31967 3.36628 5.59636C2.41945 6.87305 1.76752 8.34381 1.45742 9.90273C1.14733 11.4617 1.18678 13.07 1.57296 14.6118C1.95913 16.1536 2.68241 17.5907 3.6907 18.8194C4.699 20.0481 5.96722 21.0379 7.40404 21.7176C8.84086 22.3973 10.4105 22.7499 12 22.75C12.1989 22.75 12.3897 22.671 12.5303 22.5303C12.671 22.3897 12.75 22.1989 12.75 22C12.75 21.8011 12.671 21.6103 12.5303 21.4697C12.3897 21.329 12.1989 21.25 12 21.25C10.1705 21.25 8.38212 20.7075 6.86096 19.6911C5.33981 18.6747 4.15421 17.23 3.4541 15.5398C2.75399 13.8496 2.57081 11.9897 2.92773 10.1954C3.28464 8.40109 4.16562 6.7529 5.45925 5.45926C6.75289 4.16563 8.40108 3.28465 10.1954 2.92774C11.9897 2.57082 13.8496 2.754 15.5398 3.45411C17.23 4.15423 18.6747 5.33982 19.6911 6.86098C20.7075 8.38213 21.25 10.1705 21.25 12C21.25 12.1989 21.329 12.3897 21.4697 12.5303C21.6103 12.671 21.8011 12.75 22 12.75C22.1989 12.75 22.3897 12.671 22.5303 12.5303C22.671 12.3897 22.75 12.1989 22.75 12C22.7501 9.87382 22.1196 7.79536 20.9384 6.02748C19.7572 4.25959 18.0783 2.88169 16.114 2.068Z" fill="black"/>
<path fill-rule="evenodd" clip-rule="evenodd" d="M12.3585 6.78886C12.7285 6.56586 13.3725 6.24386 13.9905 6.62986C14.6225 7.02586 14.5895 7.75786 14.5345 8.17986C14.4735 8.65986 14.3035 9.29386 14.1035 10.0399L14.0485 10.2459C14.0085 10.3909 13.9785 10.5059 13.9545 10.6059L13.9265 10.7329C14.0375 10.7729 14.2005 10.8199 14.4625 10.8899L14.5125 10.9039C15.0055 11.0359 15.4505 11.1549 15.7785 11.2939C16.1045 11.4319 16.5485 11.6839 16.6925 12.2149L16.6945 12.2229L16.6965 12.2309L16.6985 12.2389L16.7005 12.2469L16.7025 12.2549L16.7035 12.2629L16.7055 12.2719L16.7075 12.2799C16.8175 12.8259 16.5245 13.2489 16.2825 13.5139C16.0325 13.7879 15.6635 14.0859 15.2565 14.4099L13.1965 16.0499C12.5835 16.5389 12.0635 16.9519 11.6445 17.2049C11.2745 17.4279 10.6305 17.7499 10.0125 17.3639C9.38051 16.9679 9.41351 16.2359 9.46851 15.8139C9.52952 15.3339 9.69951 14.6999 9.89951 13.9539L9.95451 13.7479C9.9971 13.5902 10.0371 13.4318 10.0745 13.2729C9.90071 13.2038 9.72227 13.147 9.54051 13.1029C9.02151 12.9649 8.55751 12.8379 8.21351 12.6869C7.88551 12.5429 7.44851 12.2849 7.30651 11.7599L7.30451 11.7519L7.30252 11.7439L7.30051 11.7359L7.29851 11.7279L7.29651 11.7199L7.29452 11.7119L7.29251 11.7039L7.29151 11.6959C7.17951 11.1419 7.48251 10.7219 7.72551 10.4629C7.96451 10.2069 8.31851 9.92486 8.70451 9.61786L10.8065 7.94386C11.4195 7.45486 11.9395 7.04086 12.3585 6.78886ZM11.6965 9.15286C12.2935 8.67686 12.7105 8.34686 13.0235 8.14186C12.9615 8.49986 12.8295 8.99686 12.6395 9.70786L12.5895 9.89486C12.5192 10.1362 12.4641 10.3816 12.4245 10.6299C12.3915 10.8899 12.3985 11.2069 12.5825 11.5199L12.5865 11.5259L12.5905 11.5329C12.7765 11.8329 13.0475 11.9919 13.2855 12.0929C13.5105 12.1869 13.7905 12.2629 14.0755 12.3389C14.5295 12.4609 14.8385 12.5449 15.0565 12.6229C14.8985 12.7729 14.6635 12.9639 14.3215 13.2369L12.3065 14.8409C11.7095 15.3169 11.2925 15.6469 10.9795 15.8519C11.0415 15.4939 11.1735 14.9959 11.3635 14.2859L11.4135 14.0989C11.4815 13.8459 11.5505 13.5879 11.5785 13.3639C11.6115 13.1039 11.6045 12.7869 11.4205 12.4749L11.4175 12.4769C11.2405 12.2039 10.9865 12.0419 10.7535 11.9329C10.4871 11.8164 10.2111 11.7234 9.92851 11.6549C9.59716 11.5712 9.26924 11.4744 8.94552 11.3649C9.10552 11.2169 9.33952 11.0289 9.68152 10.7569L11.6965 9.15286Z" fill="black"/>
<path fill-rule="evenodd" clip-rule="evenodd" d="M19.0002 13.5C19.16 13.5 19.3157 13.551 19.4445 13.6456C19.5733 13.7402 19.6685 13.8735 19.7162 14.026L22.2162 22.026C22.2756 22.2159 22.2571 22.4216 22.1649 22.5979C22.0726 22.7742 21.9141 22.9066 21.7242 22.966C21.5343 23.0254 21.3286 23.0069 21.1523 22.9147C20.976 22.8224 20.8436 22.6639 20.7842 22.474L20.0742 20.2H17.9272L17.2172 22.474C17.1578 22.664 17.0253 22.8227 16.8489 22.915C16.6726 23.0074 16.4667 23.0259 16.2767 22.9665C16.0867 22.9071 15.928 22.7746 15.8357 22.5982C15.7433 22.4219 15.7248 22.216 15.7842 22.026L18.2842 14.026C18.3319 13.8735 18.4271 13.7402 18.5559 13.6456C18.6847 13.551 18.8404 13.5 19.0002 13.5ZM18.3952 18.7H19.6052L19.0002 16.765L18.3952 18.7Z" fill="black"/>
</g>
<defs>
<clipPath id="clip0_221_15053">
<rect width="24" height="24" fill="white"/>
</clipPath>
</defs>
</svg>
