<svg width="24" height="24" viewBox="0 0 24 24" fill="none" xmlns="http://www.w3.org/2000/svg">
<g clip-path="url(#clip0_221_15043)">
<path fill-rule="evenodd" clip-rule="evenodd" d="M20.5003 3.50031C18.4168 1.41681 16.2458 3.09259 16.2458 3.09259C16.2233 3.10885 16.202 3.12763 16.1813 3.14702L13.3475 5.8133L5.85078 3.95301C5.17858 3.78606 4.46824 4.00368 4.00426 4.51893L3.08694 5.5388C2.70426 5.964 2.53669 6.53925 2.63048 7.10327C2.72491 7.66667 3.07132 8.15692 3.57094 8.43393L7.68979 10.7194C7.76983 10.7644 7.82608 10.842 7.84234 10.932C7.8586 11.0221 7.83362 11.1146 7.77359 11.1846L4.96534 14.4718C4.90844 14.5375 4.8278 14.5769 4.74213 14.5788L3.85107 14.6031C3.42336 14.6144 3.01254 14.7726 2.68676 15.0496L1.73003 15.8638C1.26856 16.2564 1.02535 16.8486 1.07662 17.4526C1.12852 18.0573 1.46867 18.5988 1.9908 18.9071L3.94047 20.0602L5.09291 22.0092C5.40118 22.5313 5.94271 22.8715 6.54737 22.9234C7.15141 22.9747 7.74354 22.7314 8.13623 22.27L8.95039 21.3133C9.2274 20.9875 9.38562 20.5766 9.39687 20.1489L9.42187 19.2585C9.42312 19.1722 9.4625 19.0916 9.52816 19.0346L12.8154 16.2264C12.8854 16.1664 12.9779 16.1414 13.068 16.1577C13.158 16.1739 13.2356 16.2302 13.2806 16.3102L15.5661 20.4291C15.8431 20.9287 16.3333 21.2751 16.8967 21.3695C17.4607 21.4633 18.036 21.2958 18.4612 20.9131L19.4811 19.9957C19.9963 19.5318 20.2139 18.8214 20.047 18.1492L18.1867 10.6525L20.853 7.81864C20.8724 7.79801 20.8911 7.77673 20.9074 7.75422C20.9074 7.75422 22.5838 5.58382 20.5003 3.50031ZM19.3891 4.6115C20.3671 5.58947 19.7887 6.60056 19.673 6.77877C19.6705 6.78252 16.7485 9.88713 16.7485 9.88713C16.5653 10.0816 16.4934 10.3561 16.5578 10.6156L18.5219 18.5275C18.5487 18.637 18.5137 18.752 18.4306 18.8277L17.4101 19.7456C17.3407 19.8075 17.2475 19.8344 17.1562 19.8194C17.0643 19.8038 16.9849 19.7481 16.9399 19.6668L14.6544 15.548C14.3811 15.0558 13.9009 14.7119 13.3469 14.6119C12.7929 14.5118 12.2232 14.6663 11.7955 15.0315L8.50766 17.8403C8.10371 18.1855 7.86548 18.6851 7.85047 19.2154L7.82673 20.1058C7.82423 20.1758 7.79921 20.2421 7.75357 20.2953L6.94006 21.2513C6.87565 21.327 6.77998 21.3664 6.68118 21.3576C6.58301 21.3495 6.49548 21.2945 6.44545 21.2094L5.19044 19.0866C5.12291 18.9728 5.02787 18.8777 4.91407 18.8102L2.79118 17.5552C2.70614 17.5051 2.6505 17.417 2.64237 17.3188C2.63362 17.22 2.673 17.1243 2.74866 17.0599L3.70474 16.2464C3.75789 16.2008 3.82418 16.1758 3.89421 16.1733L4.78461 16.1495C5.31549 16.1351 5.81449 15.8963 6.15965 15.4923L8.9685 12.2045C9.33368 11.7768 9.48816 11.2071 9.38811 10.6531C9.28807 10.0991 8.94414 9.61886 8.45203 9.3456L4.33317 7.06013C4.25188 7.01511 4.19622 6.93573 4.18059 6.84381C4.16558 6.75251 4.19248 6.65932 4.25438 6.58991L5.17294 5.57006C5.24798 5.48627 5.36302 5.45125 5.47245 5.47814L13.3844 7.44218C13.6439 7.50659 13.9184 7.4347 14.1129 7.25149L17.2175 4.32947C17.3982 4.21254 18.4099 3.63228 19.3891 4.6115Z" fill="black"/>
</g>
<defs>
<clipPath id="clip0_221_15043">
<rect width="24" height="24" fill="white"/>
</clipPath>
</defs>
</svg>
