<svg width="24" height="24" viewBox="0 0 24 24" fill="none" xmlns="http://www.w3.org/2000/svg">
<path fill-rule="evenodd" clip-rule="evenodd" d="M17.9794 1.27844H6.0921C5.13239 1.27844 4.25993 1.83827 3.86005 2.71073L1.52724 7.80114C1.51686 7.82295 1.50751 7.84476 1.50024 7.86761C1.38287 8.15012 1.32056 8.45653 1.32056 8.76812C1.32056 11.6119 1.32056 17.5841 1.32056 20.429C1.32056 21.0522 1.56776 21.6494 2.00918 22.0898C2.44957 22.5312 3.04679 22.7784 3.66998 22.7784C7.38625 22.7784 16.6853 22.7784 20.4015 22.7784C21.0247 22.7784 21.623 22.5312 22.0634 22.0898C22.5038 21.6494 22.7509 21.0522 22.7509 20.429V8.76812C22.7509 8.45653 22.6897 8.15012 22.5723 7.86761C22.564 7.84476 22.5546 7.82295 22.5453 7.80114C22.5453 7.80114 20.9988 4.42762 20.2125 2.71073C19.8126 1.83827 18.9402 1.27844 17.9794 1.27844ZM21.193 8.76812V20.429C21.193 20.6388 21.1099 20.8403 20.9614 20.9888C20.8128 21.1374 20.6113 21.2205 20.4015 21.2205H3.66998C3.46017 21.2205 3.25867 21.1374 3.11014 20.9888C2.96162 20.8403 2.87853 20.6388 2.87853 20.429V8.76812C2.87853 8.55832 2.96162 8.35682 3.11014 8.20829C3.25867 8.05976 3.46017 7.97668 3.66998 7.97668H20.4015C20.6113 7.97668 20.8128 8.05976 20.9614 8.20829C21.1099 8.35682 21.193 8.55832 21.193 8.76812ZM12.8153 2.83641V6.41871H20.198L18.7958 3.35989C18.6493 3.04102 18.3305 2.83641 17.9794 2.83641H12.8153ZM11.2573 2.83641H6.0921C5.74104 2.83641 5.42217 3.04102 5.27572 3.35989L3.87459 6.41871H11.2573V2.83641Z" fill="black"/>
<path fill-rule="evenodd" clip-rule="evenodd" d="M9.33729 15.2085C9.33783 14.7975 9.67618 14.4591 10.0872 14.4586L11.4592 14.4591L11.4586 13.0871C11.4512 12.8792 11.5313 12.6772 11.6782 12.5303C11.9694 12.2391 12.4477 12.2391 12.7389 12.5303C12.8858 12.6772 12.9659 12.8792 12.9584 13.0871L12.9579 14.4591L14.3299 14.4586C14.5192 14.4655 14.6996 14.544 14.8337 14.6782C15.1249 14.9693 15.1249 15.4477 14.8337 15.7388C14.6995 15.873 14.5192 15.9515 14.3299 15.9584L12.9579 15.9579L12.9584 17.3299C12.9659 17.5377 12.8858 17.7398 12.7389 17.8867C12.4477 18.1779 11.9694 18.1779 11.6782 17.8867C11.5313 17.7398 11.4512 17.5377 11.4586 17.3299L11.4592 15.9579L10.0872 15.9584C9.67618 15.9579 9.33783 15.6195 9.33729 15.2085Z" fill="black"/>
</svg>
