<svg width="24" height="24" viewBox="0 0 24 24" fill="none" xmlns="http://www.w3.org/2000/svg">
<path fill-rule="evenodd" clip-rule="evenodd" d="M7.03444 1.19788H7.09019C12.3597 1.21783 12.8003 4.00319 12.8003 4.00319C12.8134 4.06195 12.8199 4.12292 12.8199 4.1828V10.0651C13.6771 9.5772 14.9824 9.18802 16.9645 9.18802H17.0202C22.2897 9.20798 22.7303 11.9933 22.7303 11.9933C22.7434 12.0521 22.75 12.112 22.75 12.1729V18.8336C22.75 19.0066 22.6964 19.1763 22.5969 19.3171C21.8699 20.3483 20.8051 20.9681 19.7763 21.324C18.3977 21.802 17.1077 21.8031 16.9623 21.8019L16.9481 20.1387H16.9546C16.9634 20.1387 16.9809 20.1387 16.9809 20.1387C16.9809 20.1387 18.073 20.1564 19.2461 19.7495C19.9064 19.5211 20.6017 19.1585 21.1101 18.5487V18.0098C20.194 18.4999 18.8197 18.9756 16.9426 18.9756C15.083 18.9756 13.7273 18.4965 12.8199 17.9987V18.5498C13.3097 19.1363 13.9722 19.4945 14.6107 19.724C15.7531 20.1365 16.8398 20.1398 16.9481 20.1387L16.9623 21.8019C16.6726 21.8019 13.032 21.7277 11.3331 19.3171C11.3287 19.3115 11.3255 19.306 11.3211 19.3016C10.8488 19.6131 10.3437 19.8471 9.84628 20.019C8.46769 20.4969 7.17655 20.498 7.03224 20.4969L7.01802 18.8336H7.02459C7.03334 18.8336 7.04972 18.8336 7.04972 18.8336C7.04972 18.8336 8.14297 18.8514 9.31604 18.4455C9.97636 18.2171 10.6706 17.8534 11.1801 17.2447V16.6082C10.2661 17.0717 8.89295 17.5241 7.01255 17.5241C5.15073 17.5241 3.7951 17.0684 2.88988 16.596V17.2447C3.37966 17.8313 4.04218 18.1894 4.68064 18.42C5.82309 18.8314 6.90979 18.8347 7.01802 18.8336L7.03224 20.4969C6.74252 20.498 3.10198 20.4226 1.40197 18.0131C1.30248 17.8712 1.25 17.7026 1.25 17.5286V4.1828C1.25 4.12292 1.25546 4.06195 1.26858 4.00319C1.26858 4.00319 1.71356 1.19788 7.03444 1.19788ZM21.1101 14.7177C20.0978 15.2788 18.6175 15.6491 16.9645 15.6491C15.3115 15.6491 13.8323 15.2788 12.8199 14.7177V15.9961C13.2889 16.3986 14.6129 17.3123 16.9426 17.3123C19.2702 17.3123 20.6203 16.4286 21.1101 16.0316V14.7177ZM2.88988 13.3893V14.6279C3.3731 15.0138 4.69703 15.8609 7.01255 15.8609C9.32479 15.8609 10.6761 15.0426 11.1801 14.6623V13.4049C10.2737 13.8018 8.9006 14.1954 7.01255 14.1954C5.14308 14.1954 3.78745 13.7985 2.88988 13.3893ZM17.0006 10.8512C18.4448 10.8568 19.7293 11.175 20.5241 11.6995C20.628 11.7671 20.7231 11.8348 20.8073 11.9046C20.9461 12.0421 21.0325 12.1685 21.0839 12.2639C21.1003 12.3127 21.1101 12.3648 21.1101 12.418C21.1101 12.7063 20.8521 12.9214 20.5241 13.1376C19.7228 13.6654 18.4229 13.9859 16.9645 13.9859C15.5061 13.9859 14.2062 13.6654 13.4048 13.1376C13.078 12.9225 12.8199 12.7063 12.8199 12.4191V12.4169C12.8199 12.3637 12.8287 12.3127 12.8451 12.2639C12.8964 12.1685 12.9828 12.0432 13.1217 11.9057C13.2048 11.8359 13.301 11.7671 13.4048 11.6995C14.2062 11.1706 15.5061 10.8512 16.9645 10.8512H17.0006ZM2.88988 10.0939V11.501C3.41027 11.8447 4.73748 12.5322 7.01255 12.5322C9.28543 12.5322 10.6378 11.8714 11.1801 11.5343V10.1094C10.277 10.4809 8.90388 10.8512 7.01255 10.8512C5.13871 10.8512 3.78417 10.4753 2.88988 10.0939ZM11.1801 6.72864C10.1677 7.28859 8.68744 7.65896 7.03444 7.65896C5.38143 7.65896 3.90115 7.28859 2.88988 6.72864V8.23333C3.42558 8.55933 4.75388 9.18802 7.01255 9.18802C9.26903 9.18802 10.6225 8.58483 11.1801 8.2666V6.72864ZM7.0705 2.8611C8.51469 2.86665 9.79926 3.18597 10.5941 3.70933C10.6968 3.77697 10.793 3.84461 10.8761 3.91558C11.0161 4.05307 11.1024 4.17837 11.1538 4.27373C11.1702 4.32362 11.1801 4.37464 11.1801 4.42898C11.1801 4.71616 10.9209 4.93236 10.5941 5.14747C9.7927 5.67637 8.49284 5.99573 7.03444 5.99573C5.57603 5.99573 4.27614 5.67637 3.47478 5.14747C3.1479 4.93236 2.88988 4.71616 2.88988 4.42898V4.42786C2.88988 4.37464 2.89864 4.32251 2.91504 4.27373C2.96642 4.17948 3.05278 4.05308 3.19162 3.9167C3.27471 3.84573 3.37092 3.77808 3.47478 3.70933C4.27614 3.18154 5.57603 2.8611 7.03444 2.8611H7.0705Z" fill="black"/>
</svg>
