<svg width="24" height="24" viewBox="0 0 24 24" fill="none" xmlns="http://www.w3.org/2000/svg">
<g clip-path="url(#clip0_221_15102)">
<path fill-rule="evenodd" clip-rule="evenodd" d="M9.944 3.25H14.056C15.894 3.25 17.35 3.25 18.489 3.403C19.661 3.561 20.61 3.893 21.359 4.641C22.107 5.39 22.439 6.339 22.597 7.511C22.687 8.184 22.724 8.967 22.739 9.874C22.7514 9.95007 22.7528 10.0275 22.743 10.104C22.749 10.6693 22.7513 11.2827 22.75 11.944V12.056C22.75 13.894 22.75 15.35 22.597 16.489C22.439 17.661 22.107 18.61 21.359 19.359C20.61 20.107 19.661 20.439 18.489 20.597C17.349 20.75 15.894 20.75 14.056 20.75H9.944C8.106 20.75 6.65 20.75 5.511 20.597C4.339 20.439 3.39 20.107 2.641 19.359C1.893 18.61 1.561 17.661 1.403 16.489C1.25 15.349 1.25 13.894 1.25 12.056V11.944C1.24866 11.2827 1.251 10.6693 1.257 10.104C1.24691 10.0276 1.24792 9.95012 1.26 9.874C1.276 8.967 1.313 8.184 1.403 7.511C1.561 6.339 1.893 5.39 2.641 4.641C3.39 3.893 4.339 3.561 5.511 3.403C6.651 3.25 8.106 3.25 9.944 3.25ZM2.752 10.75C2.75066 11.138 2.75 11.5547 2.75 12C2.75 13.907 2.752 15.262 2.89 16.29C3.025 17.295 3.279 17.875 3.702 18.298C4.125 18.721 4.705 18.975 5.711 19.11C6.739 19.248 8.093 19.25 10 19.25H14C15.907 19.25 17.262 19.248 18.29 19.11C19.295 18.975 19.875 18.721 20.298 18.298C20.721 17.875 20.975 17.295 21.11 16.289C21.248 15.261 21.25 13.907 21.25 12C21.25 11.5547 21.2493 11.138 21.248 10.75H2.752ZM21.224 9.25H2.776C2.796 8.663 2.83 8.156 2.89 7.71C3.025 6.705 3.279 6.125 3.702 5.702C4.125 5.279 4.705 5.025 5.711 4.89C6.739 4.752 8.093 4.75 10 4.75H14C15.907 4.75 17.262 4.752 18.29 4.89C19.295 5.025 19.875 5.279 20.298 5.702C20.721 6.125 20.975 6.705 21.11 7.711C21.17 8.156 21.204 8.663 21.224 9.25ZM5.25 16C5.25 15.8011 5.32902 15.6103 5.46967 15.4697C5.61032 15.329 5.80109 15.25 6 15.25H10C10.1989 15.25 10.3897 15.329 10.5303 15.4697C10.671 15.6103 10.75 15.8011 10.75 16C10.75 16.1989 10.671 16.3897 10.5303 16.5303C10.3897 16.671 10.1989 16.75 10 16.75H6C5.80109 16.75 5.61032 16.671 5.46967 16.5303C5.32902 16.3897 5.25 16.1989 5.25 16ZM11.75 16C11.75 15.8011 11.829 15.6103 11.9697 15.4697C12.1103 15.329 12.3011 15.25 12.5 15.25H14C14.1989 15.25 14.3897 15.329 14.5303 15.4697C14.671 15.6103 14.75 15.8011 14.75 16C14.75 16.1989 14.671 16.3897 14.5303 16.5303C14.3897 16.671 14.1989 16.75 14 16.75H12.5C12.3011 16.75 12.1103 16.671 11.9697 16.5303C11.829 16.3897 11.75 16.1989 11.75 16Z" fill="black"/>
</g>
<defs>
<clipPath id="clip0_221_15102">
<rect width="24" height="24" fill="white"/>
</clipPath>
</defs>
</svg>
