<svg width="24" height="24" viewBox="0 0 24 24" fill="none" xmlns="http://www.w3.org/2000/svg">
<g clip-path="url(#clip0_221_15140)">
<path fill-rule="evenodd" clip-rule="evenodd" d="M11.943 1.25H12.057C14.366 1.25 16.175 1.25 17.587 1.44C19.031 1.634 20.171 2.04 21.066 2.934C21.961 3.829 22.366 4.969 22.56 6.414C22.75 7.825 22.75 9.634 22.75 11.943V12.057C22.75 14.366 22.75 16.175 22.56 17.587C22.366 19.031 21.96 20.171 21.066 21.066C20.171 21.961 19.031 22.366 17.586 22.56C16.175 22.75 14.366 22.75 12.057 22.75H11.943C9.634 22.75 7.825 22.75 6.413 22.56C4.969 22.366 3.829 21.96 2.934 21.066C2.039 20.171 1.634 19.031 1.44 17.586C1.25 16.175 1.25 14.366 1.25 12.057V11.943C1.25 9.634 1.25 7.825 1.44 6.413C1.634 4.969 2.04 3.829 2.934 2.934C3.829 2.039 4.969 1.634 6.414 1.44C7.825 1.25 9.634 1.25 11.943 1.25ZM6.613 2.926C5.335 3.098 4.564 3.426 3.995 3.995C3.425 4.565 3.098 5.335 2.926 6.614C2.752 7.914 2.75 9.622 2.75 12C2.75 14.378 2.752 16.086 2.926 17.386C3.098 18.665 3.426 19.436 3.995 20.006C4.565 20.575 5.335 20.902 6.614 21.074C7.914 21.248 9.622 21.25 12 21.25C14.378 21.25 16.086 21.248 17.386 21.074C18.665 20.902 19.436 20.574 20.006 20.005C20.575 19.435 20.902 18.665 21.074 17.386C21.248 16.086 21.25 14.378 21.25 12C21.25 9.622 21.248 7.914 21.074 6.614C20.902 5.335 20.574 4.564 20.005 3.994C19.435 3.425 18.665 3.098 17.386 2.926C16.086 2.752 14.378 2.75 12 2.75C9.622 2.75 7.913 2.752 6.613 2.926ZM6 6.25C6.19891 6.25 6.38968 6.32902 6.53033 6.46967C6.67098 6.61032 6.75 6.80109 6.75 7V17C6.75 17.1989 6.67098 17.3897 6.53033 17.5303C6.38968 17.671 6.19891 17.75 6 17.75C5.80109 17.75 5.61032 17.671 5.46967 17.5303C5.32902 17.3897 5.25 17.1989 5.25 17V7C5.25 6.80109 5.32902 6.61032 5.46967 6.46967C5.61032 6.32902 5.80109 6.25 6 6.25ZM9.47 7.47C9.61063 7.32955 9.80125 7.25066 10 7.25066C10.1988 7.25066 10.3894 7.32955 10.53 7.47L11.932 8.871C12.545 8.46464 13.2645 8.24859 14 8.25C14.764 8.25 15.475 8.479 16.068 8.871L17.47 7.47C17.5387 7.39631 17.6215 7.33721 17.7135 7.29622C17.8055 7.25523 17.9048 7.23319 18.0055 7.23141C18.1062 7.22963 18.2062 7.24816 18.2996 7.28588C18.393 7.3236 18.4778 7.37974 18.549 7.45096C18.6203 7.52218 18.6764 7.60701 18.7141 7.7004C18.7518 7.79379 18.7704 7.89382 18.7686 7.99452C18.7668 8.09523 18.7448 8.19454 18.7038 8.28654C18.6628 8.37854 18.6037 8.46134 18.53 8.53L17.13 9.932C17.522 10.525 17.751 11.236 17.751 12C17.751 12.764 17.522 13.475 17.13 14.068L18.531 15.47C18.6047 15.5387 18.6638 15.6215 18.7048 15.7135C18.7458 15.8055 18.7678 15.9048 18.7696 16.0055C18.7714 16.1062 18.7528 16.2062 18.7151 16.2996C18.6774 16.393 18.6213 16.4778 18.55 16.549C18.4788 16.6203 18.394 16.6764 18.3006 16.7141C18.2072 16.7518 18.1072 16.7704 18.0065 16.7686C17.9058 16.7668 17.8065 16.7448 17.7145 16.7038C17.6225 16.6628 17.5397 16.6037 17.471 16.53L16.069 15.129C15.4557 15.5355 14.7358 15.7516 14 15.75C13.2645 15.7514 12.545 15.5354 11.932 15.129L10.53 16.53C10.4613 16.6037 10.3785 16.6628 10.2865 16.7038C10.1945 16.7448 10.0952 16.7668 9.99452 16.7686C9.89382 16.7704 9.79379 16.7518 9.7004 16.7141C9.60701 16.6764 9.52218 16.6203 9.45096 16.549C9.37974 16.4778 9.3236 16.393 9.28588 16.2996C9.24816 16.2062 9.22963 16.1062 9.23141 16.0055C9.23318 15.9048 9.25523 15.8055 9.29622 15.7135C9.33721 15.6215 9.39631 15.5387 9.47 15.47L10.871 14.068C10.4646 13.455 10.2486 12.7355 10.25 12C10.25 11.236 10.479 10.525 10.871 9.932L9.47 8.53C9.32955 8.38937 9.25066 8.19875 9.25066 8C9.25066 7.80125 9.32955 7.61063 9.47 7.47ZM14 9.75C13.4033 9.75 12.831 9.98705 12.409 10.409C11.9871 10.831 11.75 11.4033 11.75 12C11.75 12.5967 11.9871 13.169 12.409 13.591C12.831 14.0129 13.4033 14.25 14 14.25C14.5967 14.25 15.169 14.0129 15.591 13.591C16.0129 13.169 16.25 12.5967 16.25 12C16.25 11.4033 16.0129 10.831 15.591 10.409C15.169 9.98705 14.5967 9.75 14 9.75Z" fill="black"/>
</g>
<defs>
<clipPath id="clip0_221_15140">
<rect width="24" height="24" fill="white"/>
</clipPath>
</defs>
</svg>
