<svg width="24" height="24" viewBox="0 0 24 24" fill="none" xmlns="http://www.w3.org/2000/svg">
<path fill-rule="evenodd" clip-rule="evenodd" d="M9.25172 7.0661L6.82077 17.4782C6.63476 18.2769 6.88939 19.1135 7.48917 19.6734C8.17251 20.311 9.25866 21.3236 10.0723 22.0825C10.9735 22.924 12.3789 22.9001 13.2512 22.0298C14.041 21.242 15.0914 20.1936 15.7409 19.5451C16.2929 18.9941 16.5266 18.2003 16.3615 17.4384L14.1086 7.04622C14.7233 6.42555 15.1023 5.57212 15.1023 4.63117C15.1023 2.73634 13.5646 1.19861 11.6697 1.19861C9.7759 1.19861 8.23714 2.73634 8.23714 4.63117C8.23714 5.58207 8.62508 6.44344 9.25172 7.0661ZM12.7639 7.8847C12.4207 8.00108 12.0527 8.06374 11.6697 8.06374C11.2928 8.06374 10.9307 8.00308 10.5915 7.89068L8.27396 17.8174C8.20832 18.0959 8.29784 18.3873 8.50672 18.5823L11.0898 20.9914C11.4042 21.2848 11.8935 21.2768 12.1979 20.9734C12.9867 20.1857 14.038 19.1373 14.6875 18.4888C14.8795 18.2968 14.9611 18.0203 14.9034 17.7547L12.7639 7.8847ZM11.6697 2.6906C12.741 2.6906 13.6103 3.55992 13.6103 4.63117C13.6103 5.70242 12.741 6.57174 11.6697 6.57174C10.5985 6.57174 9.72913 5.70242 9.72913 4.63117C9.72913 3.55992 10.5985 2.6906 11.6697 2.6906Z" fill="black"/>
</svg>
