<svg width="24" height="24" viewBox="0 0 24 24" fill="none" xmlns="http://www.w3.org/2000/svg">
<g clip-path="url(#clip0_221_15082)">
<path fill-rule="evenodd" clip-rule="evenodd" d="M7.73997 19.1024C7.53137 19.1024 7.33131 19.1853 7.18381 19.3328C7.0363 19.4803 6.95344 19.6803 6.95344 19.8889C6.95344 20.0975 7.0363 20.2976 7.18381 20.4451C7.33131 20.5926 7.53137 20.6755 7.73997 20.6755C7.94857 20.6755 8.14863 20.5926 8.29613 20.4451C8.44363 20.2976 8.5265 20.0975 8.5265 19.8889C8.5265 19.6803 8.44363 19.4803 8.29613 19.3328C8.14863 19.1853 7.94857 19.1024 7.73997 19.1024ZM6.07149 18.2204C6.51399 17.7779 7.11417 17.5293 7.73997 17.5293C8.36577 17.5293 8.96594 17.7779 9.40845 18.2204C9.85096 18.663 10.0996 19.2631 10.0996 19.8889C10.0996 20.5147 9.85096 21.1149 9.40845 21.5574C8.96594 21.9999 8.36577 22.2485 7.73997 22.2485C7.11417 22.2485 6.51399 21.9999 6.07149 21.5574C5.62898 21.1149 5.38038 20.5147 5.38038 19.8889C5.38038 19.2631 5.62898 18.663 6.07149 18.2204ZM17.1783 19.1024C16.9697 19.1024 16.7697 19.1853 16.6222 19.3328C16.4747 19.4803 16.3918 19.6803 16.3918 19.8889C16.3918 20.0975 16.4747 20.2976 16.6222 20.4451C16.7697 20.5926 16.9697 20.6755 17.1783 20.6755C17.3869 20.6755 17.587 20.5926 17.7345 20.4451C17.882 20.2976 17.9649 20.0975 17.9649 19.8889C17.9649 19.6803 17.882 19.4803 17.7345 19.3328C17.587 19.1853 17.3869 19.1024 17.1783 19.1024ZM15.5099 18.2204C15.9524 17.7779 16.5525 17.5293 17.1783 17.5293C17.8041 17.5293 18.4043 17.7779 18.8468 18.2204C19.2893 18.663 19.5379 19.2631 19.5379 19.8889C19.5379 20.5147 19.2893 21.1149 18.8468 21.5574C18.4043 21.9999 17.8041 22.2485 17.1783 22.2485C16.5525 22.2485 15.9524 21.9999 15.5099 21.5574C15.0673 21.1149 14.8187 20.5147 14.8187 19.8889C14.8187 19.2631 15.0673 18.663 15.5099 18.2204Z" fill="black"/>
<path d="M2.2332 1.8428C2.03628 1.77354 1.81991 1.78535 1.6317 1.87562C1.44349 1.96589 1.29884 2.12724 1.22959 2.32416C1.16033 2.52107 1.17214 2.73744 1.26241 2.92565C1.35268 3.11387 1.51402 3.25851 1.71094 3.32777L2.2332 1.8428ZM21.5388 9.80354L22.3086 9.96189L22.3096 9.9577L21.5388 9.80354ZM5.86068 9.67454V6.81996H4.28762V9.67454H5.86068ZM2.50691 1.93928L2.2332 1.8428L1.71094 3.32777L1.98466 3.4232L2.50691 1.93928ZM11.3454 16.4807H16.9057V14.9076H11.3454V16.4807ZM5.86068 6.81996C5.86068 6.07853 5.86173 5.45979 5.80824 4.95746C5.75056 4.43625 5.62996 3.96119 5.33423 3.52912L4.03488 4.41633C4.12926 4.55476 4.20267 4.74562 4.24357 5.1263C4.28657 5.52481 4.28762 6.04392 4.28762 6.81996H5.86068ZM1.98466 3.4232C2.68519 3.66965 3.14557 3.83324 3.48431 4.00104C3.80206 4.15625 3.94259 4.28209 4.03488 4.41738L5.33423 3.52912C5.03639 3.09286 4.63893 2.8139 4.17645 2.58633C3.736 2.3703 3.17179 2.17314 2.50691 1.93928L1.98466 3.4232ZM4.28762 9.67454C4.28762 11.1983 4.3023 12.2963 4.44492 13.1353C4.59908 14.0309 4.90635 14.6727 5.4779 15.2767L6.61994 14.1945C6.28435 13.84 6.10293 13.4939 5.99596 12.87C5.8806 12.1883 5.86068 11.2361 5.86068 9.67454H4.28762ZM11.3454 14.9076C9.8594 14.9076 8.82852 14.9055 8.05143 14.7954C7.3016 14.6895 6.90624 14.4965 6.61994 14.1945L5.4779 15.2767C6.10083 15.9343 6.89051 16.2206 7.83015 16.3527C8.74252 16.4828 9.90764 16.4807 11.3454 16.4807V14.9076ZM5.07415 6.64378H17.795V5.07072H5.0752L5.07415 6.64378ZM20.768 9.64413L20.2437 12.1872L21.7853 12.504L22.3086 9.96189L20.768 9.64413ZM17.7971 6.64378C18.6948 6.64378 19.4855 6.64483 20.1095 6.71404C20.4178 6.7504 20.6527 6.79724 20.8142 6.85457C20.983 6.91435 21.0103 6.95944 20.9967 6.94161L22.2436 5.98309C21.9971 5.66219 21.6511 5.48076 21.3354 5.37065C20.9941 5.25829 20.6413 5.18443 20.2835 5.15042C19.5547 5.06967 18.6654 5.07072 17.7971 5.07072V6.64378ZM22.3096 9.9577C22.4879 9.06839 22.6389 8.32171 22.6756 7.72395C22.7144 7.10941 22.6442 6.50325 22.2436 5.98309L20.9967 6.94161C21.0617 7.02656 21.133 7.17862 21.1057 7.62747C21.0774 8.09309 20.9547 8.71498 20.768 9.64938L22.3096 9.9577ZM16.9057 16.4807C17.7048 16.4807 18.3759 16.4817 18.9171 16.4156C19.4781 16.3475 19.991 16.1965 20.4377 15.8326L19.4435 14.6129C19.3124 14.7199 19.1268 14.8059 18.7252 14.8541C18.3025 14.9065 17.7446 14.9076 16.9057 14.9076V16.4807ZM20.2458 12.1872C20.0759 13.0084 19.9626 13.5537 19.8263 13.9575C19.6973 14.3413 19.5746 14.5059 19.4435 14.6129L20.4377 15.8326C20.8855 15.4676 21.1361 14.9967 21.3165 14.4598C21.4906 13.9438 21.6248 13.2873 21.7863 12.505L20.2458 12.1872Z" fill="black"/>
</g>
<defs>
<clipPath id="clip0_221_15082">
<rect width="24" height="24" fill="white"/>
</clipPath>
</defs>
</svg>
