<svg width="24" height="24" viewBox="0 0 24 24" fill="none" xmlns="http://www.w3.org/2000/svg">
<g clip-path="url(#clip0_221_15151)">
<path fill-rule="evenodd" clip-rule="evenodd" d="M18.21 5.83C17.429 5.75 16.42 5.75 15 5.75H9C7.58 5.75 6.571 5.75 5.79 5.83C5.02 5.909 4.555 6.057 4.194 6.298C3.84026 6.53598 3.53598 6.84026 3.298 7.194C3.057 7.555 2.908 8.021 2.83 8.79C2.75 9.571 2.75 10.58 2.75 12C2.75 13.42 2.75 14.429 2.83 15.21C2.909 15.98 3.057 16.445 3.298 16.806C3.535 17.16 3.84 17.466 4.194 17.702C4.555 17.943 5.021 18.092 5.79 18.17C6.571 18.25 7.58 18.25 9 18.25H15C16.42 18.25 17.429 18.25 18.21 18.17C18.98 18.091 19.445 17.943 19.806 17.702C20.16 17.465 20.466 17.16 20.702 16.806C20.943 16.445 21.092 15.979 21.17 15.21C21.25 14.429 21.25 13.42 21.25 12C21.25 10.58 21.25 9.571 21.17 8.79C21.091 8.02 20.943 7.555 20.702 7.194C20.464 6.84026 20.1597 6.53598 19.806 6.298C19.445 6.057 18.979 5.908 18.21 5.83ZM18.362 4.338C19.25 4.428 19.991 4.618 20.639 5.051C21.158 5.397 21.603 5.842 21.949 6.361C22.383 7.009 22.572 7.751 22.662 8.638C22.75 9.504 22.75 10.589 22.75 11.958V12.042C22.75 13.411 22.75 14.496 22.662 15.362C22.572 16.25 22.382 16.991 21.95 17.639C21.6023 18.1567 21.157 18.6016 20.639 18.949C19.991 19.383 19.249 19.572 18.362 19.662C17.496 19.75 16.411 19.75 15.042 19.75H8.958C7.589 19.75 6.504 19.75 5.638 19.662C4.75 19.572 4.009 19.382 3.361 18.95C2.84331 18.6023 2.39835 18.157 2.051 17.639C1.617 16.991 1.428 16.249 1.338 15.362C1.25 14.496 1.25 13.411 1.25 12.042V11.958C1.25 10.589 1.25 9.504 1.338 8.638C1.428 7.75 1.618 7.009 2.051 6.361C2.39846 5.84341 2.84341 5.39846 3.361 5.051C4.009 4.617 4.751 4.428 5.638 4.338C6.504 4.25 7.589 4.25 8.958 4.25H15.042C16.411 4.25 17.496 4.25 18.362 4.338ZM5.5 8.25C5.69891 8.25 5.88968 8.32902 6.03033 8.46967C6.17098 8.61032 6.25 8.80109 6.25 9V15C6.25 15.1989 6.17098 15.3897 6.03033 15.5303C5.88968 15.671 5.69891 15.75 5.5 15.75C5.30109 15.75 5.11032 15.671 4.96967 15.5303C4.82902 15.3897 4.75 15.1989 4.75 15V9C4.75 8.80109 4.82902 8.61032 4.96967 8.46967C5.11032 8.32902 5.30109 8.25 5.5 8.25ZM12 9.75C11.4033 9.75 10.831 9.98705 10.409 10.409C9.98705 10.831 9.75 11.4033 9.75 12C9.75 12.5967 9.98705 13.169 10.409 13.591C10.831 14.0129 11.4033 14.25 12 14.25C12.5967 14.25 13.169 14.0129 13.591 13.591C14.0129 13.169 14.25 12.5967 14.25 12C14.25 11.4033 14.0129 10.831 13.591 10.409C13.169 9.98705 12.5967 9.75 12 9.75ZM8.25 12C8.25 11.0054 8.64509 10.0516 9.34835 9.34835C10.0516 8.64509 11.0054 8.25 12 8.25C12.9946 8.25 13.9484 8.64509 14.6517 9.34835C15.3549 10.0516 15.75 11.0054 15.75 12C15.75 12.9946 15.3549 13.9484 14.6517 14.6517C13.9484 15.3549 12.9946 15.75 12 15.75C11.0054 15.75 10.0516 15.3549 9.34835 14.6517C8.64509 13.9484 8.25 12.9946 8.25 12ZM18.5 8.25C18.6989 8.25 18.8897 8.32902 19.0303 8.46967C19.171 8.61032 19.25 8.80109 19.25 9V15C19.25 15.1989 19.171 15.3897 19.0303 15.5303C18.8897 15.671 18.6989 15.75 18.5 15.75C18.3011 15.75 18.1103 15.671 17.9697 15.5303C17.829 15.3897 17.75 15.1989 17.75 15V9C17.75 8.80109 17.829 8.61032 17.9697 8.46967C18.1103 8.32902 18.3011 8.25 18.5 8.25Z" fill="black"/>
</g>
<defs>
<clipPath id="clip0_221_15151">
<rect width="24" height="24" fill="white"/>
</clipPath>
</defs>
</svg>
