<svg width="24" height="24" viewBox="0 0 24 24" fill="none" xmlns="http://www.w3.org/2000/svg">
<g clip-path="url(#clip0_221_15287)">
<path fill-rule="evenodd" clip-rule="evenodd" d="M7.09902 1.25H16.9C17.917 1.25 18.617 1.25 19.206 1.454C19.7564 1.64868 20.2545 1.96753 20.6617 2.38583C21.0689 2.80413 21.3742 3.31062 21.554 3.866C21.75 4.463 21.749 5.173 21.749 6.226V20.374C21.749 21.84 20.022 22.712 18.885 21.671C18.8485 21.6361 18.8 21.6166 18.7495 21.6166C18.699 21.6166 18.6505 21.6361 18.614 21.671L18.13 22.113C17.202 22.963 15.796 22.963 14.868 22.113C14.7001 21.9562 14.4788 21.8689 14.249 21.8689C14.0192 21.8689 13.798 21.9562 13.63 22.113C12.702 22.963 11.296 22.963 10.368 22.113C10.2001 21.9562 9.97882 21.8689 9.74902 21.8689C9.51922 21.8689 9.29799 21.9562 9.13002 22.113C8.20202 22.963 6.79602 22.963 5.86802 22.113L5.38502 21.671C5.3485 21.6358 5.29975 21.6161 5.24902 21.6161C5.1983 21.6161 5.14955 21.6358 5.11302 21.671C3.97602 22.711 2.24902 21.84 2.24902 20.374V6.227C2.24902 5.173 2.24902 4.463 2.44402 3.866C2.62383 3.31062 2.92918 2.80413 3.33638 2.38583C3.74358 1.96753 4.24168 1.64868 4.79202 1.454C5.38202 1.249 6.08202 1.25 7.09902 1.25ZM7.24402 2.75C6.02302 2.75 5.60202 2.76 5.28402 2.871C4.95191 2.99007 4.65164 3.18395 4.40645 3.43764C4.16126 3.69133 3.97772 3.99803 3.87002 4.334C3.75902 4.672 3.75002 5.118 3.75002 6.37V20.374C3.75002 20.494 3.80902 20.566 3.88402 20.601C3.91824 20.6173 3.95639 20.6235 3.99402 20.619C4.03449 20.6121 4.07185 20.5929 4.10102 20.564C4.41394 20.2759 4.82371 20.116 5.24902 20.116C5.67434 20.116 6.08411 20.2759 6.39702 20.564L6.88002 21.006C7.04799 21.1628 7.26922 21.2501 7.49902 21.2501C7.72882 21.2501 7.95006 21.1628 8.11802 21.006C8.56247 20.5965 9.14469 20.3692 9.74902 20.3692C10.3534 20.3692 10.9356 20.5965 11.38 21.006C11.548 21.1628 11.7692 21.2501 11.999 21.2501C12.2288 21.2501 12.4501 21.1628 12.618 21.006C13.0625 20.5965 13.6447 20.3692 14.249 20.3692C14.8534 20.3692 15.4356 20.5965 15.88 21.006C16.048 21.1628 16.2692 21.2501 16.499 21.2501C16.7288 21.2501 16.9501 21.1628 17.118 21.006L17.601 20.564C17.9139 20.2759 18.3237 20.116 18.749 20.116C19.1743 20.116 19.5841 20.2759 19.897 20.564C19.94 20.604 19.977 20.616 20.005 20.619C20.0423 20.6234 20.0801 20.6171 20.114 20.601C20.189 20.566 20.249 20.493 20.249 20.374V6.37C20.249 5.118 20.239 4.672 20.129 4.333C20.021 3.997 19.8371 3.69037 19.5915 3.43685C19.346 3.18332 19.0454 2.98971 18.713 2.871C18.396 2.761 17.975 2.751 16.754 2.751L7.24402 2.75ZM6.25002 7.5C6.25002 7.30109 6.32904 7.11032 6.46969 6.96967C6.61035 6.82902 6.80111 6.75 7.00002 6.75H7.50002C7.69894 6.75 7.8897 6.82902 8.03035 6.96967C8.17101 7.11032 8.25002 7.30109 8.25002 7.5C8.25002 7.69891 8.17101 7.88968 8.03035 8.03033C7.8897 8.17098 7.69894 8.25 7.50002 8.25H7.00002C6.80111 8.25 6.61035 8.17098 6.46969 8.03033C6.32904 7.88968 6.25002 7.69891 6.25002 7.5ZM9.75002 7.5C9.75002 7.30109 9.82904 7.11032 9.96969 6.96967C10.1103 6.82902 10.3011 6.75 10.5 6.75H17C17.1989 6.75 17.3897 6.82902 17.5304 6.96967C17.671 7.11032 17.75 7.30109 17.75 7.5C17.75 7.69891 17.671 7.88968 17.5304 8.03033C17.3897 8.17098 17.1989 8.25 17 8.25H10.5C10.3011 8.25 10.1103 8.17098 9.96969 8.03033C9.82904 7.88968 9.75002 7.69891 9.75002 7.5ZM6.25002 11C6.25002 10.8011 6.32904 10.6103 6.46969 10.4697C6.61035 10.329 6.80111 10.25 7.00002 10.25H7.50002C7.69894 10.25 7.8897 10.329 8.03035 10.4697C8.17101 10.6103 8.25002 10.8011 8.25002 11C8.25002 11.1989 8.17101 11.3897 8.03035 11.5303C7.8897 11.671 7.69894 11.75 7.50002 11.75H7.00002C6.80111 11.75 6.61035 11.671 6.46969 11.5303C6.32904 11.3897 6.25002 11.1989 6.25002 11ZM9.75002 11C9.75002 10.8011 9.82904 10.6103 9.96969 10.4697C10.1103 10.329 10.3011 10.25 10.5 10.25H17C17.1989 10.25 17.3897 10.329 17.5304 10.4697C17.671 10.6103 17.75 10.8011 17.75 11C17.75 11.1989 17.671 11.3897 17.5304 11.5303C17.3897 11.671 17.1989 11.75 17 11.75H10.5C10.3011 11.75 10.1103 11.671 9.96969 11.5303C9.82904 11.3897 9.75002 11.1989 9.75002 11ZM6.25002 14.5C6.25002 14.3011 6.32904 14.1103 6.46969 13.9697C6.61035 13.829 6.80111 13.75 7.00002 13.75H7.50002C7.69894 13.75 7.8897 13.829 8.03035 13.9697C8.17101 14.1103 8.25002 14.3011 8.25002 14.5C8.25002 14.6989 8.17101 14.8897 8.03035 15.0303C7.8897 15.171 7.69894 15.25 7.50002 15.25H7.00002C6.80111 15.25 6.61035 15.171 6.46969 15.0303C6.32904 14.8897 6.25002 14.6989 6.25002 14.5ZM9.75002 14.5C9.75002 14.3011 9.82904 14.1103 9.96969 13.9697C10.1103 13.829 10.3011 13.75 10.5 13.75H17C17.1989 13.75 17.3897 13.829 17.5304 13.9697C17.671 14.1103 17.75 14.3011 17.75 14.5C17.75 14.6989 17.671 14.8897 17.5304 15.0303C17.3897 15.171 17.1989 15.25 17 15.25H10.5C10.3011 15.25 10.1103 15.171 9.96969 15.0303C9.82904 14.8897 9.75002 14.6989 9.75002 14.5Z" fill="black"/>
</g>
<defs>
<clipPath id="clip0_221_15287">
<rect width="24" height="24" fill="white"/>
</clipPath>
</defs>
</svg>
