<svg width="24" height="24" viewBox="0 0 24 24" fill="none" xmlns="http://www.w3.org/2000/svg">
<g clip-path="url(#clip0_221_15254)">
<path fill-rule="evenodd" clip-rule="evenodd" d="M12 2.75C9.54675 2.75 7.19397 3.72455 5.45926 5.45926C3.72455 7.19397 2.75 9.54675 2.75 12C2.75 14.4533 3.72455 16.806 5.45926 18.5407C7.19397 20.2754 9.54675 21.25 12 21.25C14.4533 21.25 16.806 20.2754 18.5407 18.5407C20.2754 16.806 21.25 14.4533 21.25 12C21.25 9.54675 20.2754 7.19397 18.5407 5.45926C16.806 3.72455 14.4533 2.75 12 2.75ZM1.25 12C1.25 6.063 6.063 1.25 12 1.25C17.937 1.25 22.75 6.063 22.75 12C22.75 17.937 17.937 22.75 12 22.75C6.063 22.75 1.25 17.937 1.25 12Z" fill="black"/>
<path fill-rule="evenodd" clip-rule="evenodd" d="M9.429 9.23398V9.25998C9.429 9.25998 9.429 9.25098 9.429 9.23398L9.42799 9.21899V11.577H8.75C8.336 11.577 8 11.913 8 12.327C8 12.74 8.336 13.077 8.75 13.077H9.42799V15.823H8.75C8.336 15.823 8 16.159 8 16.573C8 16.987 8.336 17.323 8.75 17.323H14.439C14.853 17.323 15.189 16.987 15.189 16.573C15.189 16.159 14.853 15.823 14.439 15.823H10.928V13.077H13.023C13.437 13.077 13.773 12.74 13.773 12.327C13.773 11.913 13.437 11.577 13.023 11.577H10.928V9.21899C10.928 9.20599 10.928 9.19198 10.927 9.17798C10.927 9.17798 10.802 7.5 12.322 7.5C13.536 7.5 13.697 8.87198 13.697 8.87198C13.756 9.28198 14.137 9.56599 14.546 9.50699C14.956 9.44799 15.241 9.06699 15.181 8.65799C15.181 8.65799 14.761 6 12.322 6C9.44299 6 9.423 8.93098 9.429 9.23398Z" fill="black"/>
</g>
<defs>
<clipPath id="clip0_221_15254">
<rect width="24" height="24" fill="white"/>
</clipPath>
</defs>
</svg>
