<svg width="24" height="24" viewBox="0 0 24 24" fill="none" xmlns="http://www.w3.org/2000/svg">
<g clip-path="url(#clip0_221_15134)">
<path d="M7.53003 9.46997C7.38785 9.33749 7.19981 9.26537 7.00551 9.26879C6.81121 9.27222 6.62582 9.35093 6.48841 9.48835C6.35099 9.62576 6.27228 9.81115 6.26885 10.0054C6.26543 10.1997 6.33755 10.3878 6.47003 10.53L8.76303 12.823C9.09118 13.1509 9.53612 13.3351 10 13.3351C10.4639 13.3351 10.9089 13.1509 11.237 12.823L12.823 11.237C12.8463 11.2137 12.8738 11.1952 12.9042 11.1826C12.9346 11.17 12.9671 11.1635 13 11.1635C13.0329 11.1635 13.0655 11.17 13.0958 11.1826C13.1262 11.1952 13.1538 11.2137 13.177 11.237L15.189 13.25H14.5C14.3011 13.25 14.1104 13.329 13.9697 13.4696C13.829 13.6103 13.75 13.8011 13.75 14C13.75 14.1989 13.829 14.3896 13.9697 14.5303C14.1104 14.671 14.3011 14.75 14.5 14.75H17C17.1989 14.75 17.3897 14.671 17.5304 14.5303C17.671 14.3896 17.75 14.1989 17.75 14V11.5C17.75 11.3011 17.671 11.1103 17.5304 10.9696C17.3897 10.829 17.1989 10.75 17 10.75C16.8011 10.75 16.6104 10.829 16.4697 10.9696C16.329 11.1103 16.25 11.3011 16.25 11.5V12.19L14.237 10.177C13.9089 9.84905 13.4639 9.66484 13 9.66484C12.5361 9.66484 12.0912 9.84905 11.763 10.177L10.177 11.763C10.1538 11.7863 10.1262 11.8047 10.0958 11.8173C10.0655 11.8299 10.0329 11.8364 10 11.8364C9.96715 11.8364 9.93459 11.8299 9.90421 11.8173C9.87384 11.8047 9.84625 11.7863 9.82303 11.763L7.53003 9.46997Z" fill="black"/>
<path fill-rule="evenodd" clip-rule="evenodd" d="M11.943 1.25C9.634 1.25 7.825 1.25 6.413 1.44C4.969 1.634 3.829 2.04 2.934 2.934C2.039 3.829 1.634 4.969 1.44 6.414C1.25 7.825 1.25 9.634 1.25 11.943V12.057C1.25 14.366 1.25 16.175 1.44 17.587C1.634 19.031 2.04 20.171 2.934 21.066C3.829 21.961 4.969 22.366 6.414 22.56C7.825 22.75 9.634 22.75 11.943 22.75H12.057C14.366 22.75 16.175 22.75 17.587 22.56C19.031 22.366 20.171 21.96 21.066 21.066C21.961 20.171 22.366 19.031 22.56 17.586C22.75 16.175 22.75 14.366 22.75 12.057V11.943C22.75 9.634 22.75 7.825 22.56 6.413C22.366 4.969 21.96 3.829 21.066 2.934C20.171 2.039 19.031 1.634 17.586 1.44C16.175 1.25 14.366 1.25 12.057 1.25H11.943ZM3.995 3.995C4.565 3.425 5.335 3.098 6.614 2.926C7.914 2.752 9.622 2.75 12 2.75C14.378 2.75 16.086 2.752 17.386 2.926C18.665 3.098 19.436 3.426 20.006 3.995C20.575 4.565 20.902 5.335 21.074 6.614C21.248 7.914 21.25 9.622 21.25 12C21.25 14.378 21.248 16.086 21.074 17.386C20.902 18.665 20.574 19.436 20.005 20.006C19.435 20.575 18.665 20.902 17.386 21.074C16.086 21.248 14.378 21.25 12 21.25C9.622 21.25 7.914 21.248 6.614 21.074C5.335 20.902 4.564 20.574 3.994 20.005C3.425 19.435 3.098 18.665 2.926 17.386C2.752 16.086 2.75 14.378 2.75 12C2.75 9.622 2.752 7.914 2.926 6.614C3.098 5.335 3.426 4.565 3.995 3.995Z" fill="black"/>
</g>
<defs>
<clipPath id="clip0_221_15134">
<rect width="24" height="24" fill="white"/>
</clipPath>
</defs>
</svg>
