<svg width="24" height="24" viewBox="0 0 24 24" fill="none" xmlns="http://www.w3.org/2000/svg">
<path fill-rule="evenodd" clip-rule="evenodd" d="M18.1907 9.00805C18.1907 7.58686 17.036 6.43286 15.6153 6.43286H8.42316C7.00145 6.43286 5.84778 7.58686 5.84778 9.00805V18.7069C5.84778 20.1281 7.00145 21.2811 8.42316 21.2811H15.6153C17.036 21.2811 18.1907 20.1281 18.1907 18.7069V9.00805ZM16.5825 9.00805V18.7069C16.5825 19.2403 16.1493 19.6727 15.6153 19.6727H8.42316C7.88922 19.6727 7.45605 19.2403 7.45605 18.7069V9.00805C7.45605 8.47368 7.88922 8.04119 8.42316 8.04119H15.6153C16.1493 8.04119 16.5825 8.47368 16.5825 9.00805Z" fill="black"/>
<path fill-rule="evenodd" clip-rule="evenodd" d="M9.93279 7.23716V1.82995C9.93279 1.38608 9.57254 1.026 9.12866 1.026C8.68478 1.026 8.32452 1.38608 8.32452 1.82995V7.23716C8.32452 7.68104 8.68478 8.04215 9.12866 8.04215C9.57254 8.04215 9.93279 7.68104 9.93279 7.23716Z" fill="black"/>
<path fill-rule="evenodd" clip-rule="evenodd" d="M15.4578 7.23716V1.82995C15.4578 1.38608 15.0975 1.026 14.6536 1.026C14.2097 1.026 13.8495 1.38608 13.8495 1.82995V7.23716C13.8495 7.68104 14.2097 8.04215 14.6536 8.04215C15.0975 8.04215 15.4578 7.68104 15.4578 7.23716Z" fill="black"/>
<path fill-rule="evenodd" clip-rule="evenodd" d="M9.77137 12.0665H14.2672C14.7111 12.0665 15.0716 11.7063 15.0716 11.2624C15.0716 10.8185 14.7111 10.4583 14.2672 10.4583H9.77137C9.32746 10.4583 8.967 10.8185 8.967 11.2624C8.967 11.7063 9.32746 12.0665 9.77137 12.0665Z" fill="black"/>
<path fill-rule="evenodd" clip-rule="evenodd" d="M9.77137 17.5915H14.2672C14.7111 17.5915 15.0716 17.2313 15.0716 16.7874C15.0716 16.3435 14.7111 15.9833 14.2672 15.9833H9.77137C9.32746 15.9833 8.967 16.3435 8.967 16.7874C8.967 17.2313 9.32746 17.5915 9.77137 17.5915Z" fill="black"/>
<path fill-rule="evenodd" clip-rule="evenodd" d="M8.03893 2.63354L15.8883 2.63354C16.3329 2.63354 16.6934 2.27329 16.6934 1.8294C16.6934 1.38552 16.3329 1.02527 15.8883 1.02527L8.03893 1.02527C7.59434 1.02527 7.23385 1.38552 7.23385 1.8294C7.23385 2.27329 7.59434 2.63354 8.03893 2.63354Z" fill="black"/>
<path fill-rule="evenodd" clip-rule="evenodd" d="M9.93279 21.721V20.4777C9.93279 20.0338 9.57254 19.6736 9.12866 19.6736C8.68478 19.6736 8.32452 20.0338 8.32452 20.4777V21.721C8.32452 22.165 8.68478 22.5252 9.12866 22.5252C9.57254 22.5252 9.93279 22.165 9.93279 21.721Z" fill="black"/>
<path fill-rule="evenodd" clip-rule="evenodd" d="M15.4578 21.721V20.4777C15.4578 20.0338 15.0975 19.6736 14.6536 19.6736C14.2097 19.6736 13.8495 20.0338 13.8495 20.4777V21.721C13.8495 22.165 14.2097 22.5252 14.6536 22.5252C15.0975 22.5252 15.4578 22.165 15.4578 21.721Z" fill="black"/>
</svg>
