<svg width="24" height="24" viewBox="0 0 24 24" fill="none" xmlns="http://www.w3.org/2000/svg">
<path fill-rule="evenodd" clip-rule="evenodd" d="M15.8227 2.11548H8.17727C7.65794 2.11548 7.15927 2.32189 6.79204 2.68911C6.42373 3.05742 6.2173 3.55503 6.2173 4.07544C6.2173 5.75837 6.2173 8.88088 6.2173 10.5638C6.2173 10.6757 6.22707 10.7854 6.24554 10.8941H3.20998C2.69065 10.8941 2.19196 11.1005 1.82365 11.4677C1.45643 11.835 1.25 12.3337 1.25 12.8541C1.25 14.537 1.25 17.6595 1.25 19.3424C1.25 19.8617 1.45643 20.3604 1.82365 20.7276C2.19196 21.0959 2.69065 21.3024 3.20998 21.3024C5.12215 21.3024 8.94323 21.3024 10.8554 21.3024C11.2693 21.3024 11.6692 21.1709 12.0005 20.933C12.3319 21.1709 12.7317 21.3024 13.1457 21.3024C15.0567 21.3024 18.8789 21.3024 20.7911 21.3024C21.3104 21.3024 21.8091 21.0959 22.1763 20.7276C22.5436 20.3604 22.75 19.8617 22.75 19.3424C22.75 17.6595 22.75 14.537 22.75 12.8541C22.75 12.3337 22.5436 11.835 22.1763 11.4677C21.8091 11.1005 21.3104 10.8941 20.7911 10.8941H17.7544C17.7729 10.7854 17.7827 10.6757 17.7827 10.5638C17.7827 8.88088 17.7827 5.75837 17.7827 4.07544C17.7827 3.55503 17.5763 3.05742 17.209 2.68911C16.8407 2.32189 16.3431 2.11548 15.8227 2.11548ZM4.66474 12.5238H3.20998C3.12198 12.5238 3.03831 12.5586 2.97638 12.6205C2.91445 12.6824 2.87969 12.7661 2.87969 12.8541C2.87969 14.537 2.87969 17.6595 2.87969 19.3424C2.87969 19.4304 2.91445 19.5141 2.97638 19.576C3.03831 19.6379 3.12198 19.6727 3.20998 19.6727H10.8554C10.9434 19.6727 11.0271 19.6379 11.089 19.576C11.1509 19.5141 11.1857 19.4304 11.1857 19.3424C11.1857 17.6595 11.1857 14.537 11.1857 12.8541C11.1857 12.7661 11.1509 12.6824 11.089 12.6205C11.0271 12.5586 10.9434 12.5238 10.8554 12.5238H9.40064V14.9531C9.40064 16.0352 8.52386 16.9131 7.44066 16.9131H6.62364C5.54152 16.9131 4.66474 16.0352 4.66474 14.9531V12.5238ZM14.5994 12.5238H13.1457C13.0577 12.5238 12.974 12.5586 12.9121 12.6205C12.8501 12.6824 12.8154 12.7661 12.8154 12.8541C12.8154 14.537 12.8154 17.6595 12.8154 19.3424C12.8154 19.4304 12.8501 19.5141 12.9121 19.576C12.974 19.6379 13.0577 19.6727 13.1457 19.6727H20.7911C20.878 19.6727 20.9617 19.6379 21.0236 19.576C21.0855 19.5141 21.1203 19.4304 21.1203 19.3424C21.1203 17.6595 21.1203 14.537 21.1203 12.8541C21.1203 12.7661 21.0855 12.6824 21.0236 12.6205C20.9617 12.5586 20.878 12.5238 20.7911 12.5238H19.3363V14.9531C19.3363 16.0352 18.4585 16.9131 17.3764 16.9131H16.5593C15.4772 16.9131 14.5994 16.0352 14.5994 14.9531V12.5238ZM7.77094 12.5238V14.9531C7.77094 15.1356 7.62318 15.2834 7.44066 15.2834H6.62364C6.4422 15.2834 6.29443 15.1356 6.29443 14.9531V12.5238H7.77094ZM17.7066 12.5238V14.9531C17.7066 15.1356 17.5589 15.2834 17.3764 15.2834H16.5593C16.3768 15.2834 16.2291 15.1356 16.2291 14.9531V12.5238H17.7066ZM9.63205 3.74517H8.17727C8.09036 3.74517 8.00562 3.77993 7.94369 3.84186C7.88176 3.90378 7.84699 3.98744 7.84699 4.07544C7.84699 5.75837 7.84699 8.88088 7.84699 10.5638C7.84699 10.6518 7.88176 10.7355 7.94369 10.7974C8.00562 10.8593 8.09036 10.8941 8.17727 10.8941H15.8227C15.9107 10.8941 15.9944 10.8593 16.0563 10.7974C16.1182 10.7355 16.153 10.6518 16.153 10.5638C16.153 8.88088 16.153 5.75837 16.153 4.07544C16.153 3.98744 16.1182 3.90378 16.0563 3.84186C15.9944 3.77993 15.9107 3.74517 15.8227 3.74517H14.3679V6.17449C14.3679 7.25661 13.4912 8.13445 12.409 8.13445H11.592C10.5099 8.13445 9.63205 7.25661 9.63205 6.17449V3.74517ZM12.7382 3.74517V6.17449C12.7382 6.35702 12.5905 6.50476 12.409 6.50476H11.592C11.4095 6.50476 11.2617 6.35702 11.2617 6.17449V3.74517H12.7382Z" fill="black"/>
</svg>
