<svg width="24" height="24" viewBox="0 0 24 24" fill="none" xmlns="http://www.w3.org/2000/svg">
<g clip-path="url(#clip0_221_15097)">
<path fill-rule="evenodd" clip-rule="evenodd" d="M16.2 5.39995C17.2 5.49995 18 5.79995 18.7 6.29995C19.4 6.89995 19.8 7.69995 20.1 8.69995C20.4 9.59995 20.7 10.8 21 12.3V12.4C21.4 14.6 21.7 16.3 21.8 17.6C21.8 19 21.6 20.1 20.8 21C20.1 22 19 22.4 17.6 22.6C16.3 22.7 14.6 22.7 12.4 22.7H11.6C9.40001 22.7 7.70001 22.7 6.40001 22.6C5.00001 22.4 3.90001 22 3.20001 21C2.40001 20.1 2.20001 19 2.30001 17.6C2.30001 16.3 2.60001 14.6 3.00001 12.4V12.3C3.30001 10.8 3.60001 9.59995 3.90001 8.69995C4.20001 7.69995 4.60001 6.89995 5.30001 6.29995C6.00001 5.79995 6.80001 5.49995 7.80001 5.39995C7.93334 5.33328 8.06667 5.29995 8.20001 5.29995V4.99995C8.20001 3.99995 8.60001 3.09995 9.30001 2.29995C10.1 1.59995 11 1.19995 12 1.19995C13 1.19995 13.9 1.59995 14.7 2.29995C15.4 3.09995 15.8 3.99995 15.8 4.99995V5.29995C15.9333 5.29995 16.0667 5.33328 16.2 5.39995ZM12 2.69995C11.4 2.69995 10.8 2.99995 10.4 3.39995C10 3.79995 9.70001 4.39995 9.70001 4.99995V5.29995C10.3 5.23328 10.9333 5.19995 11.6 5.19995H12.4C13.0667 5.19995 13.7 5.23328 14.3 5.29995V4.99995C14.3 4.73328 14.2333 4.43328 14.1 4.09995C13.9667 3.83328 13.8 3.59995 13.6 3.39995C13.4 3.19995 13.1667 3.03328 12.9 2.89995C12.5667 2.83328 12.2667 2.76662 12 2.69995ZM8.00001 6.89995C7.20001 6.99995 6.60001 7.19995 6.20001 7.49995C5.80001 7.79995 5.50001 8.29995 5.30001 9.09995C5.00001 9.99995 4.80001 11.1 4.50001 12.7C4.10001 14.9 3.80001 16.5 3.70001 17.7C3.70001 18.9 3.90001 19.6 4.30001 20.1C4.70001 20.6 5.40001 20.9 6.60001 21.1C7.80001 21.2 9.40001 21.2 11.6 21.2H12.4C14.6 21.2 16.2 21.2 17.4 21.1C18.6 20.9 19.3 20.6 19.7 20.1C20.1 19.6 20.3 18.9 20.3 17.7C20.2 16.5 19.9 14.9 19.5 12.7C19.2 11.1 19 9.99995 18.7 9.09995C18.5 8.29995 18.2 7.79995 17.8 7.49995C17.4 7.19995 16.8 6.99995 16 6.89995C15.1 6.79995 14 6.69995 12.4 6.69995H11.6C10 6.69995 8.90001 6.79995 8.00001 6.89995Z" fill="black"/>
</g>
<defs>
<clipPath id="clip0_221_15097">
<rect width="24" height="24" fill="white"/>
</clipPath>
</defs>
</svg>
