<svg width="24" height="24" viewBox="0 0 24 24" fill="none" xmlns="http://www.w3.org/2000/svg">
<g clip-path="url(#clip0_221_15092)">
<path fill-rule="evenodd" clip-rule="evenodd" d="M7.73998 19.2312C7.53138 19.2312 7.33132 19.314 7.18382 19.4616C7.03631 19.6091 6.95345 19.8091 6.95345 20.0177C6.95345 20.2263 7.03631 20.4264 7.18382 20.5739C7.33132 20.7214 7.53138 20.8042 7.73998 20.8042C7.94858 20.8042 8.14863 20.7214 8.29614 20.5739C8.44364 20.4264 8.52651 20.2263 8.52651 20.0177C8.52651 19.8091 8.44364 19.6091 8.29614 19.4616C8.14863 19.314 7.94858 19.2312 7.73998 19.2312ZM6.07149 18.3492C6.514 17.9067 7.11417 17.6581 7.73998 17.6581C8.36578 17.6581 8.96595 17.9067 9.40846 18.3492C9.85097 18.7917 10.0996 19.3919 10.0996 20.0177C10.0996 20.6435 9.85097 21.2437 9.40846 21.6862C8.96595 22.1287 8.36578 22.3773 7.73998 22.3773C7.11417 22.3773 6.514 22.1287 6.07149 21.6862C5.62898 21.2437 5.38039 20.6435 5.38039 20.0177C5.38039 19.3919 5.62898 18.7917 6.07149 18.3492ZM17.1783 19.2312C16.9697 19.2312 16.7697 19.314 16.6222 19.4616C16.4747 19.6091 16.3918 19.8091 16.3918 20.0177C16.3918 20.2263 16.4747 20.4264 16.6222 20.5739C16.7697 20.7214 16.9697 20.8042 17.1783 20.8042C17.3869 20.8042 17.587 20.7214 17.7345 20.5739C17.882 20.4264 17.9649 20.2263 17.9649 20.0177C17.9649 19.8091 17.882 19.6091 17.7345 19.4616C17.587 19.314 17.3869 19.2312 17.1783 19.2312ZM15.5099 18.3492C15.9524 17.9067 16.5525 17.6581 17.1783 17.6581C17.8041 17.6581 18.4043 17.9067 18.8468 18.3492C19.2893 18.7917 19.5379 19.3919 19.5379 20.0177C19.5379 20.6435 19.2893 21.2437 18.8468 21.6862C18.4043 22.1287 17.8041 22.3773 17.1783 22.3773C16.5525 22.3773 15.9524 22.1287 15.5099 21.6862C15.0673 21.2437 14.8187 20.6435 14.8187 20.0177C14.8187 19.3919 15.0673 18.7917 15.5099 18.3492Z" fill="black"/>
<path d="M2.23321 1.97158C2.03629 1.90233 1.81992 1.91413 1.63171 2.00441C1.44349 2.09468 1.29885 2.25602 1.22959 2.45294C1.16034 2.64986 1.17214 2.86622 1.26242 3.05444C1.35269 3.24265 1.51403 3.3873 1.71095 3.45655L2.23321 1.97158ZM21.5389 9.93232L22.3086 10.0907L22.3097 10.0865L21.5389 9.93232ZM5.86068 9.80333V6.94875H4.28762V9.80333H5.86068ZM2.50692 2.06806L2.23321 1.97158L1.71095 3.45655L1.98466 3.55198L2.50692 2.06806ZM11.3454 16.6094H16.9057V15.0364H11.3454V16.6094ZM5.86068 6.94875C5.86068 6.20731 5.86173 5.58857 5.80825 5.08624C5.75057 4.56504 5.62997 4.08997 5.33423 3.6579L4.03489 4.54511C4.12927 4.68354 4.20268 4.8744 4.24358 5.25508C4.28657 5.65359 4.28762 6.1727 4.28762 6.94875H5.86068ZM1.98466 3.55198C2.6852 3.79843 3.14558 3.96203 3.48431 4.12982C3.80207 4.28503 3.9426 4.41088 4.03489 4.54616L5.33423 3.6579C5.0364 3.22164 4.63894 2.94269 4.17646 2.71512C3.736 2.49908 3.1718 2.30193 2.50692 2.06806L1.98466 3.55198ZM4.28762 9.80333C4.28762 11.3271 4.30231 12.4251 4.44493 13.2641C4.59909 14.1597 4.90636 14.8015 5.47791 15.4055L6.61995 14.3233C6.28436 13.9688 6.10294 13.6227 5.99597 12.9987C5.88061 12.3171 5.86068 11.3649 5.86068 9.80333H4.28762ZM11.3454 15.0364C9.8594 15.0364 8.82853 15.0343 8.05143 14.9242C7.30161 14.8182 6.90625 14.6253 6.61995 14.3233L5.47791 15.4055C6.10084 16.0631 6.89051 16.3494 7.83016 16.4815C8.74253 16.6115 9.90764 16.6094 11.3454 16.6094V15.0364ZM5.07415 6.77256H17.795V5.1995H5.0752L5.07415 6.77256ZM20.7681 9.77292L20.2437 12.316L21.7853 12.6327L22.3086 10.0907L20.7681 9.77292ZM17.7971 6.77256C18.6948 6.77256 19.4855 6.77361 20.1095 6.84283C20.4178 6.87918 20.6527 6.92603 20.8142 6.98335C20.983 7.04313 21.0103 7.08822 20.9967 7.0704L22.2436 6.11188C21.9971 5.79097 21.6511 5.60955 21.3354 5.49943C20.9941 5.38708 20.6413 5.31321 20.2836 5.27921C19.5547 5.19846 18.6654 5.1995 17.7971 5.1995V6.77256ZM22.3097 10.0865C22.4879 9.19718 22.6389 8.4505 22.6757 7.85273C22.7145 7.23819 22.6442 6.63204 22.2436 6.11188L20.9967 7.0704C21.0617 7.15534 21.133 7.3074 21.1057 7.75625C21.0774 8.22188 20.9547 8.84376 20.7681 9.77816L22.3097 10.0865ZM16.9057 16.6094C17.7048 16.6094 18.376 16.6105 18.9171 16.5444C19.4781 16.4763 19.991 16.3252 20.4377 15.9613L19.4435 14.7417C19.3124 14.8487 19.1268 14.9347 18.7252 14.9829C18.3025 15.0353 17.7446 15.0364 16.9057 15.0364V16.6094ZM20.2458 12.316C20.0759 13.1372 19.9626 13.6825 19.8263 14.0862C19.6973 14.4701 19.5746 14.6347 19.4435 14.7417L20.4377 15.9613C20.8855 15.5964 21.1362 15.1255 21.3165 14.5886C21.4906 14.0726 21.6248 13.4161 21.7863 12.6338L20.2458 12.316Z" fill="black"/>
<path fill-rule="evenodd" clip-rule="evenodd" d="M13.5079 8.09253C13.9422 8.09253 14.2944 8.44467 14.2944 8.87906V10.3172H15.7325C16.1669 10.3172 16.519 10.6693 16.519 11.1037C16.519 11.5381 16.1669 11.8902 15.7325 11.8902L14.2944 11.8902V13.3283C14.2944 13.7627 13.9422 14.1149 13.5079 14.1149C13.0735 14.1149 12.7213 13.7627 12.7213 13.3283V11.8902L11.2832 11.8902C10.8488 11.8902 10.4967 11.5381 10.4967 11.1037C10.4967 10.6693 10.8488 10.3172 11.2832 10.3172H12.7213V8.87906C12.7213 8.44467 13.0735 8.09253 13.5079 8.09253Z" fill="black"/>
</g>
<defs>
<clipPath id="clip0_221_15092">
<rect width="24" height="24" fill="white"/>
</clipPath>
</defs>
</svg>
