<svg width="24" height="24" viewBox="0 0 24 24" fill="none" xmlns="http://www.w3.org/2000/svg">
<g clip-path="url(#clip0_221_15265)">
<path fill-rule="evenodd" clip-rule="evenodd" d="M12 2.75C9.54675 2.75 7.19397 3.72455 5.45926 5.45926C3.72455 7.19397 2.75 9.54675 2.75 12C2.75 14.4533 3.72455 16.806 5.45926 18.5407C7.19397 20.2754 9.54675 21.25 12 21.25C14.4533 21.25 16.806 20.2754 18.5407 18.5407C20.2754 16.806 21.25 14.4533 21.25 12C21.25 9.54675 20.2754 7.19397 18.5407 5.45926C16.806 3.72455 14.4533 2.75 12 2.75ZM1.25 12C1.25 6.063 6.063 1.25 12 1.25C17.937 1.25 22.75 6.063 22.75 12C22.75 17.937 17.937 22.75 12 22.75C6.063 22.75 1.25 17.937 1.25 12ZM12 5.25C12.1989 5.25 12.3897 5.32902 12.5303 5.46967C12.671 5.61032 12.75 5.80109 12.75 6V6.317C14.38 6.609 15.75 7.834 15.75 9.5C15.75 9.69891 15.671 9.88968 15.5303 10.0303C15.3897 10.171 15.1989 10.25 15 10.25C14.8011 10.25 14.6103 10.171 14.4697 10.0303C14.329 9.88968 14.25 9.69891 14.25 9.5C14.25 8.822 13.686 8.103 12.75 7.847V11.317C14.38 11.609 15.75 12.834 15.75 14.5C15.75 16.166 14.38 17.391 12.75 17.683V18C12.75 18.1989 12.671 18.3897 12.5303 18.5303C12.3897 18.671 12.1989 18.75 12 18.75C11.8011 18.75 11.6103 18.671 11.4697 18.5303C11.329 18.3897 11.25 18.1989 11.25 18V17.683C9.62 17.391 8.25 16.166 8.25 14.5C8.25 14.3011 8.32902 14.1103 8.46967 13.9697C8.61032 13.829 8.80109 13.75 9 13.75C9.19891 13.75 9.38968 13.829 9.53033 13.9697C9.67098 14.1103 9.75 14.3011 9.75 14.5C9.75 15.178 10.314 15.897 11.25 16.152V12.683C9.62 12.391 8.25 11.166 8.25 9.5C8.25 7.834 9.62 6.609 11.25 6.317V6C11.25 5.80109 11.329 5.61032 11.4697 5.46967C11.6103 5.32902 11.8011 5.25 12 5.25ZM11.25 7.847C10.314 8.103 9.75 8.822 9.75 9.5C9.75 10.178 10.314 10.897 11.25 11.152V7.847ZM12.75 12.847V16.153C13.686 15.897 14.25 15.179 14.25 14.5C14.25 13.822 13.686 13.102 12.75 12.847Z" fill="black"/>
</g>
<defs>
<clipPath id="clip0_221_15265">
<rect width="24" height="24" fill="white"/>
</clipPath>
</defs>
</svg>
