<svg width="24" height="24" viewBox="0 0 24 24" fill="none" xmlns="http://www.w3.org/2000/svg">
<g clip-path="url(#clip0_221_15221)">
<path fill-rule="evenodd" clip-rule="evenodd" d="M11.238 2.79897C10.624 2.87997 9.86601 3.05397 8.78801 3.30297L7.55901 3.58697C6.64901 3.79697 6.02101 3.94297 5.54201 4.10697C5.07901 4.26597 4.81701 4.42197 4.62001 4.61997C4.42201 4.81697 4.26601 5.07897 4.10701 5.54197C3.94301 6.02097 3.79701 6.64797 3.58701 7.55897L3.30301 8.78697C3.05401 9.86597 2.88001 10.624 2.79901 11.238C2.71901 11.836 2.73801 12.241 2.84401 12.609C2.94901 12.977 3.14801 13.33 3.53201 13.795C3.92701 14.273 4.47601 14.824 5.25901 15.607L7.08901 17.437C8.44801 18.796 9.41501 19.761 10.247 20.395C11.061 21.017 11.657 21.25 12.262 21.25C12.867 21.25 13.463 21.017 14.278 20.395C15.109 19.761 16.077 18.795 17.436 17.436C18.796 16.076 19.761 15.109 20.396 14.278C21.016 13.463 21.25 12.868 21.25 12.262C21.25 11.657 21.017 11.062 20.395 10.247C19.761 9.41497 18.795 8.44697 17.436 7.08797L15.606 5.25797C14.824 4.47597 14.273 3.92697 13.796 3.53197C13.33 3.14797 12.977 2.94897 12.609 2.84397C12.241 2.73797 11.836 2.71997 11.239 2.79897M11.043 1.31197C11.76 1.21697 12.389 1.21997 13.023 1.40197C13.658 1.58397 14.193 1.91497 14.751 2.37497C15.291 2.82097 15.891 3.42097 16.642 4.17197L18.538 6.06797C19.848 7.37797 20.886 8.41597 21.588 9.33797C22.312 10.285 22.751 11.197 22.751 12.262C22.751 13.328 22.312 14.24 21.589 15.187C20.886 16.109 19.849 17.147 18.538 18.457L18.458 18.537C17.148 19.847 16.11 20.885 15.188 21.587C14.241 22.311 13.328 22.75 12.263 22.75C11.198 22.75 10.286 22.311 9.33801 21.588C8.41701 20.885 7.37901 19.848 6.06801 18.537L4.17301 16.64C3.42301 15.89 2.82201 15.289 2.37601 14.75C1.91601 14.191 1.58501 13.656 1.40301 13.022C1.22101 12.387 1.21801 11.758 1.31301 11.041C1.40401 10.347 1.59601 9.51897 1.83401 8.48497L2.13401 7.18197C2.33401 6.31897 2.49601 5.61497 2.68901 5.05397C2.89101 4.46697 3.14401 3.97397 3.56001 3.55797C3.97601 3.14197 4.47001 2.88797 5.05601 2.68797C5.61701 2.49397 6.32101 2.33197 7.18401 2.13297L8.48701 1.83297C9.52101 1.59297 10.349 1.40297 11.043 1.31097M9.49001 7.99497C9.25556 7.76052 8.93758 7.62881 8.60601 7.62881C8.27445 7.62881 7.95646 7.76052 7.72201 7.99497C7.48756 8.22943 7.35585 8.54741 7.35585 8.87897C7.35585 9.21054 7.48756 9.52852 7.72201 9.76297C7.8381 9.87906 7.97592 9.97115 8.12759 10.034C8.27927 10.0968 8.44184 10.1291 8.60601 10.1291C8.77019 10.1291 8.93275 10.0968 9.08443 10.034C9.23611 9.97115 9.37392 9.87906 9.49001 9.76297C9.6061 9.64688 9.69819 9.50907 9.76101 9.35739C9.82384 9.20571 9.85618 9.04315 9.85618 8.87897C9.85618 8.7148 9.82384 8.55223 9.76101 8.40056C9.69819 8.24888 9.6061 8.11106 9.49001 7.99497ZM6.66101 6.93497C7.17672 6.41913 7.87624 6.12928 8.60566 6.12918C9.33508 6.12909 10.0347 6.41876 10.5505 6.93447C11.0664 7.45019 11.3562 8.1497 11.3563 8.87912C11.3564 9.60854 11.0667 10.3081 10.551 10.824C10.0352 11.3398 9.33553 11.6296 8.60601 11.6296C7.87649 11.6296 7.17686 11.3398 6.66101 10.824C6.14517 10.3081 5.85537 9.60849 5.85537 8.87897C5.85537 8.14946 6.14516 7.45082 6.66101 6.93497Z" fill="black"/>
<path fill-rule="evenodd" clip-rule="evenodd" d="M16.537 14.771C16.257 15.773 15.325 16.51 14.218 16.51C13.381 16.512 12.6 16.079 12.16 15.368C12.043 15.179 11.835 15.063 11.613 15.063C11.26 15.063 10.969 15.354 10.969 15.707C10.969 15.826 11.003 15.943 11.065 16.044C11.741 17.134 12.936 17.799 14.218 17.796C16.033 17.796 17.544 16.498 17.852 14.785C17.861 14.786 17.871 14.786 17.88 14.786C18.233 14.786 18.523 14.495 18.523 14.143C18.523 13.967 18.451 13.8 18.325 13.679L18.326 13.68L17.719 13.079C17.47 12.833 17.063 12.833 16.814 13.08L16.205 13.682C16.082 13.803 16.014 13.968 16.014 14.139C16.014 14.452 16.241 14.715 16.537 14.771ZM10.664 13.014C10.657 13.014 10.651 13.014 10.644 13.014C10.291 13.014 10 13.304 10 13.657C10 13.829 10.069 13.993 10.191 14.114L10.798 14.717C11.047 14.963 11.455 14.963 11.704 14.717L12.312 14.114C12.433 13.993 12.502 13.829 12.502 13.657C12.502 13.346 12.276 13.083 11.98 13.026C12.259 12.024 13.186 11.287 14.289 11.287C15.123 11.285 15.899 11.718 16.336 12.427C16.338 12.43 16.339 12.433 16.341 12.435C16.46 12.617 16.663 12.727 16.88 12.727C17.233 12.727 17.523 12.437 17.523 12.084C17.523 11.971 17.493 11.859 17.436 11.761C17.435 11.758 17.433 11.756 17.431 11.753C16.76 10.663 15.568 9.999 14.288 10C12.478 10.001 10.97 11.301 10.664 13.014ZM16.658 14.705V14.683L16.657 14.708L16.658 14.705ZM16.661 14.683V14.69L16.663 14.682L16.661 14.683Z" fill="black"/>
</g>
<defs>
<clipPath id="clip0_221_15221">
<rect width="24" height="24" fill="white"/>
</clipPath>
</defs>
</svg>
