<svg width="24" height="24" viewBox="0 0 24 24" fill="none" xmlns="http://www.w3.org/2000/svg">
<g clip-path="url(#clip0_221_15232)">
<path fill-rule="evenodd" clip-rule="evenodd" d="M12 2.75C9.54675 2.75 7.19397 3.72455 5.45926 5.45926C3.72455 7.19397 2.75 9.54675 2.75 12C2.75 14.4533 3.72455 16.806 5.45926 18.5407C7.19397 20.2754 9.54675 21.25 12 21.25C14.4533 21.25 16.806 20.2754 18.5407 18.5407C20.2754 16.806 21.25 14.4533 21.25 12C21.25 9.54675 20.2754 7.19397 18.5407 5.45926C16.806 3.72455 14.4533 2.75 12 2.75ZM1.25 12C1.25 6.063 6.063 1.25 12 1.25C17.937 1.25 22.75 6.063 22.75 12C22.75 17.937 17.937 22.75 12 22.75C6.063 22.75 1.25 17.937 1.25 12Z" fill="black"/>
<path fill-rule="evenodd" clip-rule="evenodd" d="M14.2659 12.5284C13.3094 12.5284 12.5326 13.306 12.5326 14.2646C12.5326 15.2223 13.3094 16 14.2659 16C15.2224 16 16 15.2223 16 14.2646C16 13.306 15.2224 12.5284 14.2659 12.5284ZM9.66131 15.2664L15.2997 9.64177C15.564 9.37894 15.564 8.9505 15.3015 8.68677C15.039 8.42304 14.612 8.42216 14.3486 8.68498L8.7093 14.3105C8.44589 14.5734 8.44498 15.0009 8.70748 15.2646C8.96999 15.5293 9.39701 15.5293 9.66131 15.2664ZM14.2659 13.8785C14.4789 13.8785 14.6515 14.0513 14.6515 14.2646C14.6515 14.477 14.4789 14.6499 14.2659 14.6499C14.0537 14.6499 13.8811 14.477 13.8811 14.2646C13.8811 14.0513 14.0537 13.8785 14.2659 13.8785ZM9.73412 8C8.7767 8 8 8.77769 8 9.73538C8 10.694 8.7767 11.4716 9.73412 11.4716C10.6906 11.4716 11.4674 10.694 11.4674 9.73538C11.4674 8.77769 10.6906 8 9.73412 8ZM9.73412 9.35013C9.94628 9.35013 10.1189 9.52296 10.1189 9.73538C10.1189 9.9487 9.94628 10.1215 9.73412 10.1215C9.52106 10.1215 9.34847 9.9487 9.34847 9.73538C9.34847 9.52296 9.52106 9.35013 9.73412 9.35013Z" fill="black"/>
</g>
<defs>
<clipPath id="clip0_221_15232">
<rect width="24" height="24" fill="white"/>
</clipPath>
</defs>
</svg>
