<svg width="24" height="24" viewBox="0 0 24 24" fill="none" xmlns="http://www.w3.org/2000/svg">
<g clip-path="url(#clip0_221_15314)">
<path fill-rule="evenodd" clip-rule="evenodd" d="M6.11397 18.088C6.55697 17.645 7.15797 17.397 7.78397 17.397C8.41097 17.397 9.01197 17.645 9.45497 18.088C9.89797 18.531 10.147 19.132 10.147 19.759C10.147 20.385 9.89797 20.986 9.45497 21.429C9.01197 21.872 8.41097 22.121 7.78397 22.121C7.15797 22.121 6.55697 21.872 6.11397 21.429C5.67097 20.986 5.42197 20.385 5.42197 19.759C5.42197 19.132 5.67097 18.531 6.11397 18.088ZM15.563 18.088C16.006 17.645 16.607 17.397 17.233 17.397C17.86 17.397 18.46 17.645 18.903 18.088C19.346 18.531 19.595 19.132 19.595 19.759C19.595 20.385 19.346 20.986 18.903 21.429C18.46 21.872 17.86 22.121 17.233 22.121C16.607 22.121 16.006 21.872 15.563 21.429C15.12 20.986 14.871 20.385 14.871 19.759C14.871 19.132 15.12 18.531 15.563 18.088ZM7.78397 18.971C7.57597 18.971 7.37497 19.054 7.22797 19.202C7.07997 19.35 6.99697 19.55 6.99697 19.759C6.99697 19.967 7.07997 20.168 7.22797 20.315C7.37497 20.463 7.57597 20.546 7.78397 20.546C7.99297 20.546 8.19397 20.463 8.34097 20.315C8.48897 20.168 8.57197 19.967 8.57197 19.759C8.57197 19.55 8.48897 19.35 8.34097 19.202C8.19397 19.054 7.99297 18.971 7.78397 18.971ZM17.233 18.971C17.024 18.971 16.824 19.054 16.676 19.202C16.529 19.35 16.446 19.55 16.446 19.759C16.446 19.967 16.529 20.168 16.676 20.315C16.824 20.463 17.024 20.546 17.233 20.546C17.442 20.546 17.642 20.463 17.79 20.315C17.937 20.168 18.02 19.967 18.02 19.759C18.02 19.55 17.937 19.35 17.79 19.202C17.642 19.054 17.442 18.971 17.233 18.971ZM6.66297 14.058C6.94997 14.36 7.34597 14.554 8.09597 14.66C8.84997 14.766 9.84197 14.772 11.256 14.772H11.394H16.96H17.114C17.869 14.772 18.385 14.768 18.782 14.718C19.184 14.67 19.369 14.584 19.501 14.477L19.507 14.472C19.636 14.365 19.757 14.199 19.884 13.821C20.02 13.417 20.134 12.871 20.304 12.049H20.302L21.162 7.98201C21.164 7.97201 21.166 7.96101 21.168 7.95101L21.17 7.94301C21.254 7.59801 21.565 7.34301 21.935 7.34301C22.37 7.34301 22.722 7.69501 22.722 8.13001C22.722 8.17301 22.719 8.21501 22.712 8.25601L22.713 8.25701L22.709 8.27601C22.707 8.28801 22.704 8.30001 22.702 8.31101L21.845 12.366L20.813 12.154L21.846 12.367C21.684 13.15 21.55 13.807 21.376 14.324C21.195 14.861 20.944 15.333 20.496 15.698L20.485 15.706C20.041 16.065 19.531 16.214 18.974 16.282C18.432 16.348 17.76 16.347 16.96 16.347H11.394H11.127C9.80997 16.346 8.73097 16.341 7.87497 16.219C6.93397 16.086 6.14397 15.8 5.51997 15.142L5.50697 15.127C4.94297 14.527 4.63897 13.887 4.48597 12.998C4.34297 12.158 4.32797 11.059 4.32797 9.53301V6.67601V6.53301C4.32797 5.83401 4.32497 5.35401 4.28397 4.98001C4.24297 4.60001 4.16997 4.40901 4.07597 4.27001L5.37597 3.38101L5.38297 3.39101C5.67397 3.82101 5.79297 4.29301 5.85097 4.81101C5.90397 5.31401 5.90297 5.93301 5.90297 6.67601V9.53301V9.60601C5.90397 11.126 5.92497 12.06 6.03897 12.732C6.14497 13.352 6.32397 13.698 6.65497 14.05L6.66297 14.058ZM2.54597 1.79001L2.27197 1.69301L2.26697 1.69101C2.07097 1.62401 1.85697 1.63601 1.66997 1.72601C1.48097 1.81601 1.33597 1.97801 1.26697 2.17501C1.19797 2.37201 1.20997 2.58901 1.29997 2.77701C1.38997 2.96401 1.54897 3.10801 1.74397 3.17801L1.74897 3.18001L2.02297 3.27501C2.72397 3.52201 3.18497 3.68601 3.52397 3.85401C3.84197 4.00901 3.98297 4.13501 4.07497 4.27001L5.37597 3.38101L5.36897 3.37101C5.07197 2.94001 4.67597 2.66301 4.21697 2.43701C3.77597 2.22101 3.21097 2.02401 2.54597 1.79001Z" fill="black"/>
</g>
<defs>
<clipPath id="clip0_221_15314">
<rect width="24" height="24" fill="white"/>
</clipPath>
</defs>
</svg>
