<svg width="24" height="24" viewBox="0 0 24 24" fill="none" xmlns="http://www.w3.org/2000/svg">
<g clip-path="url(#clip0_221_15128)">
<path fill-rule="evenodd" clip-rule="evenodd" d="M9.939 3.25H14.061C15.904 3.25 17.363 3.25 18.505 3.403C19.679 3.561 20.63 3.893 21.38 4.641C22.41 5.668 22.66 7.081 22.739 8.958V8.982C22.747 9.146 22.754 9.313 22.747 9.454C22.7431 9.65629 22.6921 9.8549 22.598 10.034C22.5291 10.1539 22.4382 10.2598 22.33 10.346C22.2485 10.4104 22.1637 10.4704 22.076 10.526C21.913 10.629 21.691 10.753 21.432 10.898L21.412 10.908C21.2172 11.0161 21.0549 11.1744 20.9419 11.3664C20.8288 11.5585 20.7692 11.7772 20.7692 12C20.7692 12.2228 20.8288 12.4415 20.9419 12.6336C21.0549 12.8256 21.2172 12.9839 21.412 13.092L21.432 13.102C21.692 13.247 21.912 13.371 22.076 13.474C22.161 13.528 22.25 13.588 22.33 13.654C22.404 13.715 22.515 13.818 22.598 13.966C22.718 14.18 22.741 14.396 22.748 14.546C22.754 14.686 22.747 14.854 22.74 15.018L22.739 15.042C22.659 16.918 22.409 18.332 21.38 19.359C20.63 20.107 19.68 20.439 18.505 20.597C17.363 20.75 15.904 20.75 14.061 20.75H9.94C8.097 20.75 6.638 20.75 5.496 20.597C4.321 20.439 3.371 20.107 2.621 19.359C1.591 18.332 1.341 16.919 1.262 15.042V15.018C1.2528 14.8608 1.2498 14.7034 1.253 14.546C1.26 14.396 1.283 14.18 1.403 13.966C1.47192 13.8461 1.56284 13.7402 1.671 13.654C1.75249 13.5896 1.83727 13.5296 1.925 13.474C2.088 13.371 2.31 13.247 2.569 13.102L2.589 13.092C2.78379 12.9839 2.94611 12.8256 3.05913 12.6336C3.17215 12.4415 3.23175 12.2228 3.23175 12C3.23175 11.7772 3.17215 11.5585 3.05913 11.3664C2.94611 11.1744 2.78379 11.0161 2.589 10.908L2.569 10.898C2.309 10.753 2.089 10.629 1.925 10.526C1.83652 10.4716 1.75168 10.4114 1.671 10.346C1.56284 10.2598 1.47192 10.1539 1.403 10.034C1.30852 9.85498 1.25716 9.65637 1.253 9.454C1.24949 9.2886 1.25283 9.12313 1.263 8.958C1.341 7.082 1.591 5.668 2.621 4.641C3.371 3.893 4.321 3.561 5.496 3.403C6.637 3.25 8.095 3.25 9.939 3.25ZM21.25 14.726V14.746L21.241 14.979C21.163 16.835 20.91 17.711 20.321 18.297C19.897 18.721 19.315 18.975 18.306 19.11C17.276 19.248 15.917 19.25 14.006 19.25H9.996C8.085 19.25 6.726 19.248 5.696 19.11C4.686 18.975 4.105 18.721 3.68 18.297C3.092 17.711 2.839 16.835 2.76 14.979L2.752 14.726C2.876 14.649 3.055 14.549 3.32 14.401C3.74755 14.1626 4.10369 13.8144 4.35162 13.3923C4.59955 12.9702 4.73027 12.4895 4.73027 12C4.73027 11.5105 4.59955 11.0298 4.35162 10.6077C4.10369 10.1856 3.74755 9.83739 3.32 9.599C3.12859 9.49432 2.93923 9.38597 2.752 9.274V9.254L2.761 9.021C2.839 7.165 3.092 6.289 3.681 5.703C4.105 5.279 4.686 5.025 5.696 4.89C6.726 4.752 8.085 4.75 9.996 4.75H14.006C15.917 4.75 17.276 4.752 18.306 4.89C19.316 5.025 19.897 5.279 20.322 5.703C20.909 6.289 21.163 7.165 21.241 9.021L21.25 9.254V9.274C21.126 9.351 20.947 9.451 20.682 9.599C20.2542 9.83718 19.8978 10.1853 19.6496 10.6075C19.4015 11.0296 19.2707 11.5103 19.2707 12C19.2707 12.4897 19.4015 12.9704 19.6496 13.3925C19.8978 13.8147 20.2542 14.1628 20.682 14.401C20.946 14.549 21.126 14.649 21.25 14.726ZM15.53 8.47C15.6704 8.61063 15.7493 8.80125 15.7493 9C15.7493 9.19875 15.6704 9.38937 15.53 9.53L9.53 15.53C9.38782 15.6625 9.19978 15.7346 9.00547 15.7312C8.81117 15.7277 8.62579 15.649 8.48838 15.5116C8.35096 15.3742 8.27225 15.1888 8.26882 14.9945C8.26539 14.8002 8.33752 14.6122 8.47 14.47L14.47 8.47C14.6106 8.32955 14.8012 8.25066 15 8.25066C15.1987 8.25066 15.3894 8.32955 15.53 8.47Z" fill="black"/>
<path d="M15.5 14.5C15.5 14.7652 15.3946 15.0196 15.2071 15.2071C15.0196 15.3946 14.7652 15.5 14.5 15.5C14.2348 15.5 13.9804 15.3946 13.7929 15.2071C13.6054 15.0196 13.5 14.7652 13.5 14.5C13.5 14.2348 13.6054 13.9804 13.7929 13.7929C13.9804 13.6054 14.2348 13.5 14.5 13.5C14.7652 13.5 15.0196 13.6054 15.2071 13.7929C15.3946 13.9804 15.5 14.2348 15.5 14.5ZM10.5 9.5C10.5 9.76522 10.3946 10.0196 10.2071 10.2071C10.0196 10.3946 9.76522 10.5 9.5 10.5C9.23478 10.5 8.98043 10.3946 8.79289 10.2071C8.60536 10.0196 8.5 9.76522 8.5 9.5C8.5 9.23478 8.60536 8.98043 8.79289 8.79289C8.98043 8.60536 9.23478 8.5 9.5 8.5C9.76522 8.5 10.0196 8.60536 10.2071 8.79289C10.3946 8.98043 10.5 9.23478 10.5 9.5Z" fill="black"/>
</g>
<defs>
<clipPath id="clip0_221_15128">
<rect width="24" height="24" fill="white"/>
</clipPath>
</defs>
</svg>
