<svg width="24" height="24" viewBox="0 0 24 24" fill="none" xmlns="http://www.w3.org/2000/svg">
<path fill-rule="evenodd" clip-rule="evenodd" d="M1.95404 11.0023C1.95404 11.0023 7.29245 17.0575 9.96214 20.0866C10.4786 20.6717 11.2199 21.0065 11.9995 21.0065C12.7801 21.0065 13.5214 20.6717 14.0379 20.0866C16.1852 17.6505 20.1117 13.1968 22.046 11.0023C22.9404 9.98805 22.9876 8.48187 22.1589 7.4136C21.3596 6.38166 20.2865 4.99822 19.6178 4.13615C19.0847 3.44786 18.2628 3.04431 17.3919 3.04431H6.60809C5.73717 3.04431 4.91535 3.44786 4.3822 4.13615C3.71355 4.99822 2.64037 6.38166 1.84113 7.4136C1.01244 8.48187 1.05956 9.98805 1.95404 11.0023ZM8.63662 9.87512L12.0005 19.0968L15.3634 9.87512H8.63662ZM9.99453 17.895L3.05864 10.0283C3.01543 9.98019 2.97714 9.92913 2.94179 9.87512H7.06858L9.99453 17.895ZM21.0582 9.87512C21.0229 9.92913 20.9846 9.98019 20.9414 10.0283L14.0055 17.895L16.9314 9.87512H21.0582ZM5.38173 5.24955L6.5315 8.40233H2.94278C2.96242 8.37287 2.98304 8.34441 3.00464 8.31594L5.38173 5.24955ZM9.12951 8.40233H14.8705L12.0005 4.93538L9.12951 8.40233ZM18.6183 5.24955L20.9954 8.31594C21.017 8.34441 21.0376 8.37287 21.0572 8.40233H17.4685L18.6183 5.24955ZM13.5656 4.51711L16.1705 7.66299L17.3183 4.51711H13.5656ZM6.68172 4.51711L7.82953 7.66299L10.4344 4.51711H6.68172Z" fill="black"/>
</svg>
