<svg width="24" height="24" viewBox="0 0 24 24" fill="none" xmlns="http://www.w3.org/2000/svg">
<g clip-path="url(#clip0_221_15145)">
<path fill-rule="evenodd" clip-rule="evenodd" d="M18.21 5.83C17.429 5.75 16.42 5.75 15 5.75H9C7.58 5.75 6.571 5.75 5.79 5.83C5.02 5.909 4.555 6.057 4.194 6.298C3.84026 6.53598 3.53598 6.84026 3.298 7.194C3.057 7.555 2.908 8.021 2.83 8.79C2.75 9.571 2.75 10.58 2.75 12C2.75 13.42 2.75 14.429 2.83 15.21C2.909 15.98 3.057 16.445 3.298 16.806C3.535 17.16 3.84 17.466 4.194 17.702C4.555 17.943 5.021 18.092 5.79 18.17C6.571 18.25 7.58 18.25 9 18.25H15C16.42 18.25 17.429 18.25 18.21 18.17C18.98 18.091 19.445 17.943 19.806 17.702C20.16 17.465 20.466 17.16 20.702 16.806C20.943 16.445 21.092 15.979 21.17 15.21C21.25 14.429 21.25 13.42 21.25 12C21.25 10.58 21.25 9.571 21.17 8.79C21.091 8.02 20.943 7.555 20.702 7.194C20.464 6.84026 20.1597 6.53598 19.806 6.298C19.445 6.057 18.979 5.908 18.21 5.83ZM18.362 4.338C19.25 4.428 19.991 4.618 20.639 5.051C21.158 5.397 21.603 5.842 21.949 6.361C22.383 7.009 22.572 7.751 22.662 8.638C22.75 9.504 22.75 10.589 22.75 11.958V12.042C22.75 13.411 22.75 14.496 22.662 15.362C22.572 16.25 22.382 16.991 21.95 17.639C21.6023 18.1567 21.157 18.6016 20.639 18.949C19.991 19.383 19.249 19.572 18.362 19.662C17.496 19.75 16.411 19.75 15.042 19.75H8.958C7.589 19.75 6.504 19.75 5.638 19.662C4.75 19.572 4.009 19.382 3.361 18.95C2.84331 18.6023 2.39835 18.157 2.051 17.639C1.617 16.991 1.428 16.249 1.338 15.362C1.25 14.496 1.25 13.411 1.25 12.042V11.958C1.25 10.589 1.25 9.504 1.338 8.638C1.428 7.75 1.618 7.009 2.051 6.361C2.39846 5.84341 2.84341 5.39846 3.361 5.051C4.009 4.617 4.751 4.428 5.638 4.338C6.504 4.25 7.589 4.25 8.958 4.25H15.042C16.411 4.25 17.496 4.25 18.362 4.338ZM5.5 8.25C5.69891 8.25 5.88968 8.32902 6.03033 8.46967C6.17098 8.61032 6.25 8.80109 6.25 9V15C6.25 15.1989 6.17098 15.3897 6.03033 15.5303C5.88968 15.671 5.69891 15.75 5.5 15.75C5.30109 15.75 5.11032 15.671 4.96967 15.5303C4.82902 15.3897 4.75 15.1989 4.75 15V9C4.75 8.80109 4.82902 8.61032 4.96967 8.46967C5.11032 8.32902 5.30109 8.25 5.5 8.25ZM18.5 8.25C18.6989 8.25 18.8897 8.32902 19.0303 8.46967C19.171 8.61032 19.25 8.80109 19.25 9V15C19.25 15.1989 19.171 15.3897 19.0303 15.5303C18.8897 15.671 18.6989 15.75 18.5 15.75C18.3011 15.75 18.1103 15.671 17.9697 15.5303C17.829 15.3897 17.75 15.1989 17.75 15V9C17.75 8.80109 17.829 8.61032 17.9697 8.46967C18.1103 8.32902 18.3011 8.25 18.5 8.25Z" fill="black"/>
<path fill-rule="evenodd" clip-rule="evenodd" d="M12 5.25C12.1989 5.25 12.3897 5.32902 12.5303 5.46967C12.671 5.61032 12.75 5.80109 12.75 6V6.317C14.38 6.609 15.75 7.834 15.75 9.5C15.75 9.69891 15.671 9.88968 15.5303 10.0303C15.3897 10.171 15.1989 10.25 15 10.25C14.8011 10.25 14.6103 10.171 14.4697 10.0303C14.329 9.88968 14.25 9.69891 14.25 9.5C14.25 8.822 13.686 8.103 12.75 7.847V11.317C14.38 11.609 15.75 12.834 15.75 14.5C15.75 16.166 14.38 17.391 12.75 17.683V18C12.75 18.1989 12.671 18.3897 12.5303 18.5303C12.3897 18.671 12.1989 18.75 12 18.75C11.8011 18.75 11.6103 18.671 11.4697 18.5303C11.329 18.3897 11.25 18.1989 11.25 18V17.683C9.62 17.391 8.25 16.166 8.25 14.5C8.25 14.3011 8.32902 14.1103 8.46967 13.9697C8.61032 13.829 8.80109 13.75 9 13.75C9.19891 13.75 9.38968 13.829 9.53033 13.9697C9.67098 14.1103 9.75 14.3011 9.75 14.5C9.75 15.178 10.314 15.897 11.25 16.152V12.683C9.62 12.391 8.25 11.166 8.25 9.5C8.25 7.834 9.62 6.609 11.25 6.317V6C11.25 5.80109 11.329 5.61032 11.4697 5.46967C11.6103 5.32902 11.8011 5.25 12 5.25ZM11.25 7.847C10.314 8.103 9.75 8.822 9.75 9.5C9.75 10.178 10.314 10.897 11.25 11.152V7.847ZM12.75 12.847V16.153C13.686 15.897 14.25 15.179 14.25 14.5C14.25 13.822 13.686 13.102 12.75 12.847Z" fill="black"/>
</g>
<defs>
<clipPath id="clip0_221_15145">
<rect width="24" height="24" fill="white"/>
</clipPath>
</defs>
</svg>
