<svg width="24" height="24" viewBox="0 0 24 24" fill="none" xmlns="http://www.w3.org/2000/svg">
<g clip-path="url(#clip0_221_15107)">
<path fill-rule="evenodd" clip-rule="evenodd" d="M9.944 3.25H14.056C15.894 3.25 17.35 3.25 18.489 3.403C19.661 3.561 20.61 3.893 21.359 4.641C22.107 5.39 22.439 6.339 22.597 7.511C22.687 8.184 22.724 8.967 22.739 9.874C22.7514 9.95007 22.7528 10.0275 22.743 10.104C22.749 10.6693 22.7513 11.2827 22.75 11.944V12.056C22.75 13.894 22.75 15.35 22.597 16.489C22.439 17.661 22.107 18.61 21.359 19.359C20.61 20.107 19.661 20.439 18.489 20.597C17.349 20.75 15.894 20.75 14.056 20.75H9.944C8.106 20.75 6.65 20.75 5.511 20.597C4.339 20.439 3.39 20.107 2.641 19.359C1.893 18.61 1.561 17.661 1.403 16.489C1.25 15.349 1.25 13.894 1.25 12.056V11.944C1.24866 11.2827 1.251 10.6693 1.257 10.104C1.24691 10.0276 1.24792 9.95012 1.26 9.874C1.276 8.967 1.313 8.184 1.403 7.511C1.561 6.339 1.893 5.39 2.641 4.641C3.39 3.893 4.339 3.561 5.511 3.403C6.651 3.25 8.106 3.25 9.944 3.25ZM2.752 10.75C2.75066 11.138 2.75 11.5547 2.75 12C2.75 13.907 2.752 15.262 2.89 16.29C3.025 17.295 3.279 17.875 3.702 18.298C4.125 18.721 4.705 18.975 5.711 19.11C6.739 19.248 8.093 19.25 10 19.25H14C15.907 19.25 17.262 19.248 18.29 19.11C19.295 18.975 19.875 18.721 20.298 18.298C20.721 17.875 20.975 17.295 21.11 16.289C21.248 15.261 21.25 13.907 21.25 12C21.25 11.5547 21.2493 11.138 21.248 10.75H2.752ZM21.224 9.25H2.776C2.796 8.663 2.83 8.156 2.89 7.71C3.025 6.705 3.279 6.125 3.702 5.702C4.125 5.279 4.705 5.025 5.711 4.89C6.739 4.752 8.093 4.75 10 4.75H14C15.907 4.75 17.262 4.752 18.29 4.89C19.295 5.025 19.875 5.279 20.298 5.702C20.721 6.125 20.975 6.705 21.11 7.711C21.17 8.156 21.204 8.663 21.224 9.25ZM15.955 12.25H16.045C16.478 12.25 16.875 12.25 17.197 12.293C17.553 12.341 17.928 12.453 18.237 12.763C18.546 13.073 18.659 13.447 18.707 13.803C18.75 14.126 18.75 14.523 18.75 14.955V15.045C18.75 15.478 18.75 15.875 18.707 16.197C18.659 16.553 18.547 16.928 18.237 17.237C17.927 17.546 17.553 17.659 17.197 17.707C16.874 17.75 16.477 17.75 16.045 17.75H15.955C15.522 17.75 15.125 17.75 14.803 17.707C14.447 17.659 14.072 17.547 13.763 17.237C13.454 16.927 13.341 16.553 13.293 16.197C13.25 15.874 13.25 15.477 13.25 15.045V14.955C13.25 14.522 13.25 14.125 13.293 13.803C13.341 13.447 13.453 13.072 13.763 12.763C14.073 12.454 14.447 12.341 14.803 12.293C15.126 12.25 15.523 12.25 15.955 12.25ZM14.825 13.822L14.823 13.823L14.822 13.826L14.817 13.836C14.7979 13.8899 14.7855 13.946 14.78 14.003C14.752 14.213 14.75 14.507 14.75 15C14.75 15.493 14.752 15.787 14.78 15.997C14.7862 16.0576 14.8004 16.1171 14.822 16.174L14.823 16.177L14.826 16.178L14.836 16.183C14.858 16.192 14.906 16.207 15.003 16.22C15.213 16.248 15.507 16.25 16 16.25C16.493 16.25 16.787 16.248 16.997 16.22C17.0576 16.2138 17.1171 16.1996 17.174 16.178L17.177 16.177L17.178 16.174L17.183 16.164C17.2021 16.1101 17.2145 16.054 17.22 15.997C17.248 15.787 17.25 15.493 17.25 15C17.25 14.507 17.248 14.213 17.22 14.003C17.2138 13.9424 17.1996 13.8829 17.178 13.826L17.177 13.823L17.174 13.822L17.164 13.817C17.1101 13.7979 17.054 13.7855 16.997 13.78C16.787 13.752 16.493 13.75 16 13.75C15.507 13.75 15.213 13.752 15.003 13.78C14.9424 13.7862 14.8829 13.8004 14.826 13.822M5.25 13.5C5.25 13.3011 5.32902 13.1103 5.46967 12.9697C5.61032 12.829 5.80109 12.75 6 12.75H8C8.19891 12.75 8.38968 12.829 8.53033 12.9697C8.67098 13.1103 8.75 13.3011 8.75 13.5C8.75 13.6989 8.67098 13.8897 8.53033 14.0303C8.38968 14.171 8.19891 14.25 8 14.25H6C5.80109 14.25 5.61032 14.171 5.46967 14.0303C5.32902 13.8897 5.25 13.6989 5.25 13.5ZM5.25 16.5C5.25 16.3011 5.32902 16.1103 5.46967 15.9697C5.61032 15.829 5.80109 15.75 6 15.75H10C10.1989 15.75 10.3897 15.829 10.5303 15.9697C10.671 16.1103 10.75 16.3011 10.75 16.5C10.75 16.6989 10.671 16.8897 10.5303 17.0303C10.3897 17.171 10.1989 17.25 10 17.25H6C5.80109 17.25 5.61032 17.171 5.46967 17.0303C5.32902 16.8897 5.25 16.6989 5.25 16.5Z" fill="black"/>
</g>
<defs>
<clipPath id="clip0_221_15107">
<rect width="24" height="24" fill="white"/>
</clipPath>
</defs>
</svg>
