<svg width="24" height="24" viewBox="0 0 24 24" fill="none" xmlns="http://www.w3.org/2000/svg">
<g clip-path="url(#clip0_221_15087)">
<path fill-rule="evenodd" clip-rule="evenodd" d="M6.07201 18.285C6.51401 17.842 7.11401 17.594 7.74001 17.594C8.36601 17.594 8.96601 17.842 9.40901 18.285C9.85101 18.727 10.1 19.328 10.1 19.953C10.1 20.579 9.85101 21.179 9.40901 21.622C8.96601 22.064 8.36601 22.313 7.74001 22.313C7.11401 22.313 6.51401 22.064 6.07201 21.622C5.62901 21.179 5.38001 20.579 5.38001 19.953C5.38001 19.328 5.62901 18.727 6.07201 18.285ZM15.51 18.285C15.952 17.842 16.553 17.594 17.178 17.594C17.804 17.594 18.404 17.842 18.847 18.285C19.289 18.727 19.538 19.328 19.538 19.953C19.538 20.579 19.289 21.179 18.847 21.622C18.404 22.064 17.804 22.313 17.178 22.313C16.553 22.313 15.952 22.064 15.51 21.622C15.067 21.179 14.819 20.579 14.819 19.953C14.819 19.328 15.067 18.727 15.51 18.285ZM7.74001 19.167C7.53101 19.167 7.33101 19.25 7.18401 19.397C7.03601 19.545 6.95301 19.745 6.95301 19.953C6.95301 20.162 7.03601 20.362 7.18401 20.509C7.33101 20.657 7.53101 20.74 7.74001 20.74C7.94901 20.74 8.14901 20.657 8.29601 20.509C8.44401 20.362 8.52701 20.162 8.52701 19.953C8.52701 19.745 8.44401 19.545 8.29601 19.397C8.14901 19.25 7.94901 19.167 7.74001 19.167ZM17.178 19.167C16.97 19.167 16.77 19.25 16.622 19.397C16.475 19.545 16.392 19.745 16.392 19.953C16.392 20.162 16.475 20.362 16.622 20.509C16.77 20.657 16.97 20.74 17.178 20.74C17.387 20.74 17.587 20.657 17.735 20.509C17.882 20.362 17.965 20.162 17.965 19.953C17.965 19.745 17.882 19.545 17.735 19.397C17.587 19.25 17.387 19.167 17.178 19.167ZM4.28801 6.742C4.28701 6.044 4.28401 5.564 4.24401 5.191C4.20301 4.811 4.13001 4.62 4.03501 4.481L5.33401 3.593L5.34101 3.604C5.63201 4.033 5.75101 4.505 5.80801 5.022C5.86201 5.524 5.86101 6.143 5.86101 6.884V9.532C6.22001 9.219 6.63301 8.925 7.09701 8.679C8.45701 7.961 10.235 7.673 12.321 8.466C15.715 9.756 19.438 10.078 20.688 10.094L20.768 9.708L20.769 9.709L20.768 9.714L21.606 9.881L21.608 9.882L22.31 10.022L22.309 10.026L21.785 12.568L20.797 12.365L21.786 12.569C21.625 13.352 21.491 14.008 21.317 14.524C21.136 15.061 20.886 15.532 20.438 15.897L20.427 15.905C19.983 16.263 19.474 16.412 18.917 16.48C18.376 16.546 17.705 16.545 16.906 16.545H11.346H11.079C9.76301 16.545 8.68601 16.539 7.83001 16.417C6.89101 16.285 6.10101 15.999 5.47801 15.341L5.46501 15.327C4.90201 14.727 4.59801 14.088 4.44501 13.2C4.30201 12.361 4.28801 11.263 4.28801 9.739V6.884V6.742ZM21.608 9.882L21.539 9.868L22.309 10.026L21.608 9.882ZM5.86101 6.708H17.795V5.135L5.81901 5.134C5.84701 5.503 5.85801 5.848 5.86101 6.243V6.708ZM2.50701 2.004L2.23301 1.907L2.22401 1.904C2.03001 1.838 1.81701 1.851 1.63201 1.94C1.44401 2.03 1.29901 2.192 1.23001 2.388C1.16001 2.585 1.17201 2.802 1.26201 2.99C1.35101 3.175 1.50901 3.318 1.70201 3.389L1.71101 3.392L1.98501 3.488C2.68501 3.734 3.14601 3.898 3.48401 4.065C3.80201 4.221 3.94301 4.345 4.03501 4.481L5.33401 3.593L5.32701 3.583C5.03001 3.153 4.63501 2.876 4.17701 2.651C3.73601 2.435 3.17201 2.237 2.50701 2.004ZM17.06 14.972C17.814 14.972 18.329 14.968 18.725 14.918C19.127 14.87 19.313 14.784 19.444 14.677L19.45 14.672C19.579 14.565 19.699 14.4 19.826 14.022C19.963 13.618 20.076 13.073 20.246 12.252H20.244L20.366 11.66C18.707 11.598 15.077 11.196 11.763 9.937C10.12 9.312 8.81301 9.552 7.83201 10.07C6.90101 10.562 6.23901 11.32 5.89501 11.897C5.91501 12.309 5.94701 12.646 5.99601 12.934C6.10101 13.549 6.27901 13.893 6.60401 14.242L6.62001 14.259C6.90601 14.561 7.30201 14.754 8.05101 14.86C8.78001 14.963 9.73201 14.971 11.072 14.972H11.346H16.906H17.06ZM22.244 6.047L22.232 6.032C21.986 5.721 21.646 5.543 21.336 5.435C20.994 5.323 20.641 5.249 20.284 5.215C19.555 5.134 18.665 5.135 17.797 5.135V6.708C18.695 6.708 19.485 6.709 20.11 6.778C20.418 6.815 20.653 6.862 20.814 6.919C20.953 6.968 20.996 7.007 21 7.01C21.064 7.095 21.133 7.25 21.106 7.692C21.078 8.157 20.955 8.777 20.769 9.709L21.606 9.881L22.31 10.022C22.488 9.133 22.639 8.386 22.676 7.788C22.715 7.174 22.644 6.568 22.244 6.047Z" fill="black"/>
</g>
<defs>
<clipPath id="clip0_221_15087">
<rect width="24" height="24" fill="white"/>
</clipPath>
</defs>
</svg>
