<svg width="24" height="24" viewBox="0 0 24 24" fill="none" xmlns="http://www.w3.org/2000/svg">
<g clip-path="url(#clip0_221_15178)">
<path fill-rule="evenodd" clip-rule="evenodd" d="M11.238 2.79897C10.624 2.87997 9.866 3.05397 8.788 3.30297L7.559 3.58697C6.649 3.79697 6.021 3.94297 5.542 4.10697C5.079 4.26597 4.817 4.42197 4.62 4.61997C4.422 4.81697 4.266 5.07897 4.107 5.54197C3.943 6.02097 3.797 6.64797 3.587 7.55897L3.303 8.78697C3.054 9.86597 2.88 10.624 2.799 11.238C2.719 11.836 2.738 12.241 2.844 12.609C2.949 12.977 3.148 13.33 3.532 13.795C3.927 14.273 4.476 14.824 5.259 15.607L7.089 17.437C8.448 18.796 9.415 19.761 10.247 20.395C11.061 21.017 11.657 21.25 12.262 21.25C12.867 21.25 13.463 21.017 14.278 20.395C15.109 19.761 16.077 18.795 17.436 17.436C18.796 16.076 19.761 15.109 20.396 14.278C21.016 13.463 21.25 12.868 21.25 12.262C21.25 11.657 21.017 11.062 20.395 10.247C19.761 9.41497 18.795 8.44697 17.436 7.08797L15.606 5.25797C14.824 4.47597 14.273 3.92697 13.796 3.53197C13.33 3.14797 12.977 2.94897 12.609 2.84397C12.241 2.73797 11.836 2.71997 11.239 2.79897M11.043 1.31197C11.76 1.21697 12.389 1.21997 13.023 1.40197C13.658 1.58397 14.193 1.91497 14.751 2.37497C15.291 2.82097 15.891 3.42097 16.642 4.17197L18.538 6.06797C19.848 7.37797 20.886 8.41597 21.588 9.33797C22.312 10.285 22.751 11.197 22.751 12.262C22.751 13.328 22.312 14.24 21.589 15.187C20.886 16.109 19.849 17.147 18.538 18.457L18.458 18.537C17.148 19.847 16.11 20.885 15.188 21.587C14.241 22.311 13.328 22.75 12.263 22.75C11.198 22.75 10.286 22.311 9.338 21.588C8.417 20.885 7.379 19.848 6.068 18.537L4.173 16.64C3.423 15.89 2.822 15.289 2.376 14.75C1.916 14.191 1.585 13.656 1.403 13.022C1.221 12.387 1.218 11.758 1.313 11.041C1.404 10.347 1.596 9.51897 1.834 8.48497L2.134 7.18197C2.334 6.31897 2.496 5.61497 2.689 5.05397C2.891 4.46697 3.144 3.97397 3.56 3.55797C3.976 3.14197 4.47 2.88797 5.056 2.68797C5.617 2.49397 6.321 2.33197 7.184 2.13297L8.487 1.83297C9.521 1.59297 10.349 1.40297 11.043 1.31097M9.49 7.99497C9.25555 7.76052 8.93756 7.62881 8.606 7.62881C8.27444 7.62881 7.95645 7.76052 7.722 7.99497C7.48755 8.22943 7.35584 8.54741 7.35584 8.87897C7.35584 9.21054 7.48755 9.52852 7.722 9.76297C7.83809 9.87906 7.97591 9.97115 8.12758 10.034C8.27926 10.0968 8.44183 10.1291 8.606 10.1291C8.77017 10.1291 8.93274 10.0968 9.08442 10.034C9.23609 9.97115 9.37391 9.87906 9.49 9.76297C9.60609 9.64688 9.69817 9.50907 9.761 9.35739C9.82383 9.20571 9.85616 9.04315 9.85616 8.87897C9.85616 8.7148 9.82383 8.55223 9.761 8.40056C9.69817 8.24888 9.60609 8.11106 9.49 7.99497ZM6.661 6.93497C7.17671 6.41913 7.87622 6.12928 8.60565 6.12918C9.33507 6.12909 10.0347 6.41876 10.5505 6.93447C11.0663 7.45019 11.3562 8.1497 11.3563 8.87912C11.3564 9.60854 11.0667 10.3081 10.551 10.824C10.0352 11.3398 9.33552 11.6296 8.606 11.6296C7.87648 11.6296 7.17685 11.3398 6.661 10.824C6.14515 10.3081 5.85535 9.60849 5.85535 8.87897C5.85535 8.14946 6.14515 7.45082 6.661 6.93497Z" fill="black"/>
<path d="M16.3875 14.4831C16.7162 14.4831 16.9861 14.1486 16.9861 13.7415C16.9861 13.3344 16.7162 13 16.3875 13H11.5986C11.27 13 11 13.3344 11 13.7415C11 14.1486 11.27 14.4831 11.5986 14.4831H16.3875Z" fill="black"/>
</g>
<defs>
<clipPath id="clip0_221_15178">
<rect width="24" height="24" fill="white"/>
</clipPath>
</defs>
</svg>
