<svg width="24" height="24" viewBox="0 0 24 24" fill="none" xmlns="http://www.w3.org/2000/svg">
<g clip-path="url(#clip0_221_15076)">
<path d="M7.25 12C7.25 11.8011 7.32902 11.6103 7.46967 11.4697C7.61032 11.329 7.80109 11.25 8 11.25H16C16.1989 11.25 16.3897 11.329 16.5303 11.4697C16.671 11.6103 16.75 11.8011 16.75 12C16.75 12.1989 16.671 12.3897 16.5303 12.5303C16.3897 12.671 16.1989 12.75 16 12.75H8C7.80109 12.75 7.61032 12.671 7.46967 12.5303C7.32902 12.3897 7.25 12.1989 7.25 12ZM10 14.25C9.80109 14.25 9.61032 14.329 9.46967 14.4697C9.32902 14.6103 9.25 14.8011 9.25 15C9.25 15.1989 9.32902 15.3897 9.46967 15.5303C9.61032 15.671 9.80109 15.75 10 15.75H14C14.1989 15.75 14.3897 15.671 14.5303 15.5303C14.671 15.3897 14.75 15.1989 14.75 15C14.75 14.8011 14.671 14.6103 14.5303 14.4697C14.3897 14.329 14.1989 14.25 14 14.25H10Z" fill="black"/>
<path fill-rule="evenodd" clip-rule="evenodd" d="M14.665 2.33002C14.8428 2.24111 15.0487 2.22645 15.2373 2.28927C15.426 2.35209 15.582 2.48724 15.671 2.66502L17.484 6.29102C17.9113 6.31169 18.3013 6.34702 18.654 6.39702C19.71 6.54802 20.584 6.87402 21.205 7.64202C21.826 8.41003 21.962 9.33302 21.889 10.397C21.819 11.428 21.539 12.729 21.191 14.354L20.74 16.461C20.505 17.558 20.314 18.447 20.074 19.141C19.824 19.866 19.494 20.461 18.932 20.916C18.37 21.371 17.718 21.568 16.958 21.661C16.228 21.75 15.318 21.75 14.198 21.75H9.802C8.68 21.75 7.771 21.75 7.041 21.661C6.281 21.568 5.629 21.371 5.067 20.916C4.505 20.461 4.175 19.866 3.925 19.142C3.685 18.447 3.495 17.558 3.259 16.462L2.808 14.355C2.46 12.729 2.181 11.428 2.11 10.397C2.037 9.33302 2.173 8.41103 2.794 7.64202C3.414 6.87402 4.288 6.54802 5.344 6.39702C5.69733 6.34769 6.08733 6.31236 6.514 6.29102L8.33 2.66502C8.41977 2.48866 8.57562 2.35492 8.76357 2.29295C8.95152 2.23099 9.15634 2.24582 9.33341 2.33422C9.51047 2.42262 9.64542 2.57742 9.70884 2.76488C9.77226 2.95235 9.75902 3.15728 9.672 3.33502L8.212 6.25202C8.576 6.25002 8.959 6.24936 9.361 6.25002H14.639C15.041 6.25002 15.424 6.25069 15.788 6.25202L14.329 3.33502C14.2401 3.15719 14.2254 2.95132 14.2882 2.76268C14.3511 2.57403 14.4862 2.41805 14.664 2.32902M5.732 7.85802L5.329 8.66402C5.2841 8.75224 5.25711 8.84846 5.24957 8.94716C5.24204 9.04585 5.25412 9.14506 5.28511 9.23907C5.3161 9.33308 5.36539 9.42001 5.43014 9.49488C5.4949 9.56974 5.57383 9.63105 5.66239 9.67526C5.75095 9.71948 5.84738 9.74572 5.94613 9.75249C6.04488 9.75925 6.14399 9.74641 6.23776 9.71468C6.33152 9.68296 6.41807 9.63299 6.49243 9.56766C6.56679 9.50233 6.62748 9.42292 6.671 9.33402L7.458 7.76003C8.028 7.75002 8.678 7.74902 9.422 7.74902H14.578C15.322 7.74902 15.972 7.74902 16.542 7.75902L17.329 9.33402C17.4188 9.51039 17.5746 9.64413 17.7626 9.7061C17.9505 9.76806 18.1553 9.75323 18.3324 9.66483C18.5095 9.57643 18.6444 9.42163 18.7078 9.23417C18.7713 9.0467 18.758 8.84177 18.671 8.66402L18.268 7.85802L18.442 7.88102C19.326 8.00802 19.759 8.23902 20.039 8.58402C20.319 8.93002 20.453 9.40302 20.392 10.294C20.33 11.204 20.076 12.4 19.712 14.099L19.282 16.099C19.035 17.254 18.862 18.053 18.656 18.651C18.456 19.231 18.252 19.537 17.989 19.749C17.727 19.961 17.384 20.097 16.777 20.171C16.148 20.248 15.33 20.249 14.149 20.249H9.85C8.67 20.249 7.852 20.248 7.223 20.171C6.615 20.097 6.273 19.961 6.011 19.749C5.748 19.537 5.543 19.23 5.344 18.651C5.137 18.053 4.964 17.254 4.717 16.099L4.288 14.099C3.924 12.399 3.67 11.205 3.608 10.294C3.547 9.40302 3.682 8.93002 3.961 8.58402C4.241 8.23902 4.674 8.00802 5.558 7.88102L5.732 7.85802Z" fill="black"/>
</g>
<defs>
<clipPath id="clip0_221_15076">
<rect width="24" height="24" fill="white"/>
</clipPath>
</defs>
</svg>
