<svg width="24" height="24" viewBox="0 0 24 24" fill="none" xmlns="http://www.w3.org/2000/svg">
<path fill-rule="evenodd" clip-rule="evenodd" d="M11.2368 2.79874C10.6225 2.87974 9.86502 3.05374 8.78652 3.30273L7.55802 3.58698C6.64753 3.79698 6.01978 3.94248 5.54053 4.10673C5.07778 4.26573 4.81603 4.42173 4.61878 4.61973C4.42078 4.81698 4.26478 5.07873 4.10578 5.54148C3.94153 6.02073 3.79603 6.64773 3.58603 7.55898L3.30178 8.78673C3.05278 9.86597 2.87878 10.6235 2.79778 11.2377C2.71753 11.8355 2.73703 12.2405 2.84278 12.6087C2.94778 12.977 3.14653 13.3295 3.53053 13.7945C3.92578 14.273 4.47478 14.8235 5.25778 15.6065L7.08777 17.4365C8.44677 18.7955 9.41352 19.7607 10.246 20.3945C11.0598 21.017 11.656 21.2495 12.2605 21.2495C12.8658 21.2495 13.462 21.017 14.2765 20.3945C15.1075 19.7607 16.0758 18.7947 17.4348 17.4357C18.7945 16.076 19.7598 15.1085 20.395 14.2775C21.0145 13.463 21.2485 12.8675 21.2485 12.2615C21.2485 11.657 21.016 11.0615 20.3935 10.247C19.7598 9.41447 18.7938 8.44698 17.4348 7.08798L15.6048 5.25798C14.8225 4.47573 14.272 3.92673 13.795 3.53148C13.3285 3.14749 12.976 2.94874 12.6078 2.84374C12.2395 2.73799 11.8338 2.71999 11.2368 2.79874ZM11.0418 1.31149C11.7588 1.21699 12.388 1.21999 13.0218 1.40149C13.657 1.58374 14.1918 1.91449 14.7498 2.37499C15.2898 2.82049 15.8898 3.42048 16.6405 4.17198L18.5365 6.06798C19.8468 7.37748 20.8848 8.41548 21.5868 9.33797C22.3105 10.2845 22.75 11.1965 22.75 12.2615C22.75 13.328 22.3105 14.24 21.5875 15.1865C20.8848 16.109 19.8475 17.147 18.5365 18.4565L18.457 18.5367C17.1468 19.847 16.1088 20.885 15.187 21.587C14.2398 22.3107 13.327 22.7495 12.262 22.7495C11.197 22.7495 10.285 22.3107 9.33702 21.5877C8.41602 20.885 7.37802 19.8477 6.06703 18.5367L4.17178 16.64C3.42178 15.89 2.82103 15.2885 2.37478 14.75C1.91503 14.1905 1.58353 13.6557 1.40203 13.022C1.21978 12.3867 1.21678 11.7575 1.31203 11.0405C1.40278 10.3467 1.59478 9.51872 1.83253 8.48448L2.13253 7.18173C2.33278 6.31848 2.49478 5.61498 2.68753 5.05398C2.89003 4.46673 3.14278 3.97398 3.55903 3.55773C3.97453 3.14148 4.46878 2.88799 5.05453 2.68774C5.61553 2.49349 6.31978 2.33149 7.18302 2.13274L8.48577 1.83274C9.52002 1.59274 10.348 1.40374 11.0418 1.31149ZM9.48852 7.99473C9.25452 7.76073 8.93652 7.62873 8.60502 7.62873C7.91877 7.62873 7.35477 8.19273 7.35477 8.87897C7.35477 9.21047 7.48677 9.52847 7.72077 9.76247C7.95477 9.99722 8.27352 10.1292 8.60502 10.1292C9.29052 10.1292 9.85527 9.56447 9.85527 8.87897C9.85527 8.54748 9.72327 8.22873 9.48852 7.99473ZM6.65952 6.93498C7.17552 6.41898 7.87527 6.12873 8.60502 6.12873C10.1133 6.12873 11.3553 7.37073 11.3553 8.87897C11.3553 9.60797 11.065 10.3085 10.5498 10.8237C10.0338 11.3397 9.33402 11.6292 8.60502 11.6292C7.09602 11.6292 5.85403 10.388 5.85403 8.87897C5.85403 8.14923 6.14428 7.44948 6.65952 6.93348" fill="black"/>
<path fill-rule="evenodd" clip-rule="evenodd" d="M11.3125 12.0575L11.3085 12.0586C10.9885 12.1286 10.7524 12.2556 10.5584 12.4506C10.3643 12.6447 10.2363 12.8797 10.1663 13.1998C10.1013 13.4979 10.0933 13.906 10.0933 14.4881C10.0933 15.0712 10.1013 15.4793 10.1663 15.7774C10.2363 16.0975 10.3643 16.3325 10.5584 16.5265C10.7524 16.7206 10.9885 16.8486 11.3085 16.9186C11.6066 16.9836 12.0137 16.9927 12.5968 16.9927H15.0364C15.6195 16.9927 16.0266 16.9836 16.3257 16.9186C16.6447 16.8486 16.8808 16.7206 17.0748 16.5265C17.2689 16.3325 17.3969 16.0975 17.4669 15.7774C17.5319 15.4793 17.5399 15.0712 17.5399 14.4881C17.5399 13.906 17.5319 13.4979 17.4669 13.1998C17.3969 12.8797 17.2689 12.6447 17.0748 12.4506C16.8808 12.2556 16.6447 12.1286 16.3257 12.0586C16.0266 11.9925 15.6195 11.9845 15.0364 11.9845H12.6628C12.6949 11.3794 13.203 10.8913 13.8171 10.8913C14.1802 10.8913 14.5133 11.0633 14.7283 11.3374C14.9574 11.6294 15.3815 11.6815 15.6735 11.4514C15.9666 11.2224 16.0186 10.7983 15.7886 10.5052C15.3244 9.91306 14.6033 9.54297 13.8171 9.54297C12.4428 9.54297 11.3125 10.6732 11.3125 12.0465V12.0575ZM11.4406 14.4881C11.4406 14.165 11.4396 13.905 11.4556 13.6949C11.4656 13.5639 11.4486 13.4659 11.5116 13.4039V13.4029C11.5746 13.3398 11.6716 13.3578 11.8026 13.3478C12.0137 13.3318 12.2728 13.3328 12.5968 13.3328H15.0364C15.3605 13.3328 15.6195 13.3318 15.8306 13.3478C15.9616 13.3578 16.0586 13.3398 16.1216 13.4029C16.1846 13.4659 16.1676 13.5639 16.1776 13.6949C16.1936 13.905 16.1926 14.165 16.1926 14.4881C16.1926 14.8122 16.1936 15.0722 16.1776 15.2823C16.1676 15.4133 16.1846 15.5103 16.1216 15.5733C16.0586 15.6363 15.9616 15.6193 15.8306 15.6293C15.6195 15.6453 15.3605 15.6444 15.0364 15.6444H12.5968C12.2728 15.6444 12.0137 15.6453 11.8026 15.6293C11.6716 15.6193 11.5746 15.6363 11.5116 15.5743V15.5733C11.4486 15.5103 11.4656 15.4133 11.4556 15.2823C11.4396 15.0722 11.4406 14.8122 11.4406 14.4881ZM13.8171 13.941C13.514 13.941 13.269 14.186 13.269 14.4881C13.269 14.7912 13.514 15.0362 13.8171 15.0362C14.1192 15.0362 14.3642 14.7912 14.3642 14.4881C14.3642 14.186 14.1192 13.941 13.8171 13.941Z" fill="black"/>
</svg>
