<svg width="24" height="24" viewBox="0 0 24 24" fill="none" xmlns="http://www.w3.org/2000/svg">
<g clip-path="url(#clip0_221_15260)">
<path fill-rule="evenodd" clip-rule="evenodd" d="M12 2.75C9.54675 2.75 7.19397 3.72455 5.45926 5.45926C3.72455 7.19397 2.75 9.54675 2.75 12C2.75 14.4533 3.72455 16.806 5.45926 18.5407C7.19397 20.2754 9.54675 21.25 12 21.25C14.4533 21.25 16.806 20.2754 18.5407 18.5407C20.2754 16.806 21.25 14.4533 21.25 12C21.25 9.54675 20.2754 7.19397 18.5407 5.45926C16.806 3.72455 14.4533 2.75 12 2.75ZM1.25 12C1.25 6.063 6.063 1.25 12 1.25C17.937 1.25 22.75 6.063 22.75 12C22.75 17.937 17.937 22.75 12 22.75C6.063 22.75 1.25 17.937 1.25 12ZM6.803 11.25C6.73189 11.7475 6.73189 12.2525 6.803 12.75H10C10.1989 12.75 10.3897 12.829 10.5303 12.9697C10.671 13.1103 10.75 13.3011 10.75 13.5C10.75 13.6989 10.671 13.8897 10.5303 14.0303C10.3897 14.171 10.1989 14.25 10 14.25H7.255C7.56561 14.9055 8.00868 15.4895 8.55626 15.9651C9.10383 16.4408 9.74404 16.7979 10.4365 17.0138C11.129 17.2297 11.8586 17.2998 12.5795 17.2196C13.3004 17.1395 13.9969 16.9108 14.625 16.548C14.7103 16.498 14.8047 16.4653 14.9027 16.4519C15.0007 16.4385 15.1004 16.4446 15.196 16.4699C15.2916 16.4952 15.3813 16.5392 15.4599 16.5992C15.5385 16.6593 15.6044 16.7343 15.6538 16.82C15.7033 16.9057 15.7353 17.0003 15.7481 17.0983C15.7608 17.1964 15.754 17.2961 15.7281 17.3915C15.7022 17.487 15.6577 17.5764 15.5971 17.6545C15.5364 17.7327 15.461 17.7981 15.375 17.847C14.5166 18.3423 13.5598 18.6426 12.5723 18.7266C11.5849 18.8105 10.591 18.6762 9.66135 18.333C8.73166 17.9898 7.88891 17.4461 7.19289 16.7407C6.49687 16.0352 5.96465 15.1852 5.634 14.251H5C4.80096 14.251 4.61006 14.1719 4.46932 14.0312C4.32857 13.8904 4.2495 13.6995 4.2495 13.5005C4.2495 13.3015 4.32857 13.1106 4.46932 12.9698C4.61006 12.8291 4.80096 12.75 5 12.75H5.291C5.23568 12.2515 5.23568 11.7485 5.291 11.25H5C4.80109 11.25 4.61032 11.171 4.46967 11.0303C4.32902 10.8897 4.25 10.6989 4.25 10.5C4.25 10.3011 4.32902 10.1103 4.46967 9.96967C4.61032 9.82902 4.80109 9.75 5 9.75H5.634C5.96452 8.81555 6.49669 7.96531 7.19273 7.25964C7.88878 6.55398 8.73163 6.01018 9.66145 5.66687C10.5913 5.32355 11.5853 5.18913 12.5729 5.27315C13.5605 5.35716 14.5175 5.65755 15.376 6.153C15.5483 6.25259 15.6739 6.41653 15.7253 6.60875C15.7767 6.80098 15.7496 7.00574 15.65 7.178C15.5504 7.35026 15.3865 7.4759 15.1942 7.52728C15.002 7.57867 14.7973 7.55159 14.625 7.452C13.9969 7.08923 13.3004 6.86055 12.5795 6.78038C11.8586 6.70021 11.129 6.77029 10.4365 6.9862C9.74404 7.20211 9.10383 7.55917 8.55626 8.03485C8.00868 8.51054 7.56561 9.09453 7.255 9.75H10C10.1989 9.75 10.3897 9.82902 10.5303 9.96967C10.671 10.1103 10.75 10.3011 10.75 10.5C10.75 10.6989 10.671 10.8897 10.5303 11.0303C10.3897 11.171 10.1989 11.25 10 11.25H6.803Z" fill="black"/>
</g>
<defs>
<clipPath id="clip0_221_15260">
<rect width="24" height="24" fill="white"/>
</clipPath>
</defs>
</svg>
