<svg width="24" height="24" viewBox="0 0 24 24" fill="none" xmlns="http://www.w3.org/2000/svg">
<g clip-path="url(#clip0_221_15238)">
<path fill-rule="evenodd" clip-rule="evenodd" d="M7.945 4.25H13.055C14.422 4.25 15.525 4.25 16.392 4.367C17.292 4.487 18.05 4.747 18.652 5.348C19.206 5.903 19.469 6.59 19.602 7.398C20.411 7.53 21.097 7.794 21.652 8.348C22.254 8.95 22.512 9.708 22.634 10.608C22.75 11.475 22.75 12.578 22.75 13.945V14.055C22.75 15.422 22.75 16.525 22.634 17.392C22.513 18.292 22.254 19.05 21.652 19.652C21.05 20.254 20.292 20.512 19.392 20.634C18.525 20.75 17.422 20.75 16.055 20.75H10.945C9.578 20.75 8.475 20.75 7.609 20.634C6.709 20.512 5.951 20.254 5.349 19.652C4.794 19.097 4.531 18.41 4.399 17.602C3.589 17.469 2.903 17.206 2.349 16.652C1.746 16.05 1.488 15.292 1.367 14.392C1.25 13.525 1.25 12.422 1.25 11.055V10.945C1.25 9.578 1.25 8.475 1.367 7.608C1.487 6.708 1.747 5.95 2.348 5.348C2.95 4.746 3.708 4.488 4.608 4.367C5.475 4.25 6.578 4.25 7.945 4.25ZM5.955 17.732C6.061 18.134 6.21 18.392 6.409 18.591C6.686 18.868 7.075 19.048 7.809 19.147C8.564 19.249 9.565 19.25 11 19.25H16C17.436 19.25 18.437 19.248 19.192 19.147C19.926 19.048 20.314 18.867 20.592 18.591C20.868 18.314 21.049 17.926 21.147 17.191C21.249 16.437 21.25 15.436 21.25 14.001C21.25 12.566 21.249 11.564 21.147 10.808C21.049 10.074 20.868 9.686 20.591 9.409C20.391 9.209 20.135 9.06 19.731 8.955C19.75 9.545 19.75 10.206 19.75 10.945V11.055C19.75 12.422 19.75 13.525 19.634 14.392C19.512 15.292 19.254 16.05 18.652 16.652C18.05 17.254 17.292 17.512 16.392 17.634C15.525 17.75 14.422 17.75 13.055 17.75H7.945C7.206 17.75 6.545 17.75 5.955 17.732ZM4.809 5.853C4.075 5.952 3.687 6.133 3.41 6.409C3.133 6.686 2.953 7.074 2.854 7.809C2.753 8.563 2.751 9.565 2.751 11C2.751 12.435 2.753 13.437 2.854 14.192C2.953 14.926 3.134 15.314 3.41 15.591C3.687 15.868 4.075 16.048 4.81 16.147C5.564 16.248 6.566 16.25 8.001 16.25H13.001C14.436 16.25 15.438 16.248 16.193 16.147C16.927 16.048 17.315 15.867 17.592 15.591C17.869 15.314 18.049 14.926 18.148 14.191C18.249 13.436 18.251 12.435 18.251 11C18.251 9.565 18.249 8.563 18.148 7.808C18.049 7.074 17.868 6.686 17.592 6.409C17.315 6.132 16.927 5.952 16.192 5.853C15.438 5.752 14.436 5.75 13.001 5.75H8C6.565 5.75 5.564 5.752 4.809 5.853ZM10.5 9.25C10.0359 9.25 9.59075 9.43437 9.26256 9.76256C8.93437 10.0908 8.75 10.5359 8.75 11C8.75 11.4641 8.93437 11.9092 9.26256 12.2374C9.59075 12.5656 10.0359 12.75 10.5 12.75C10.9641 12.75 11.4092 12.5656 11.7374 12.2374C12.0656 11.9092 12.25 11.4641 12.25 11C12.25 10.5359 12.0656 10.0908 11.7374 9.76256C11.4092 9.43437 10.9641 9.25 10.5 9.25ZM7.25 11C7.25 10.138 7.59241 9.3114 8.2019 8.7019C8.8114 8.09241 9.63805 7.75 10.5 7.75C11.362 7.75 12.1886 8.09241 12.7981 8.7019C13.4076 9.3114 13.75 10.138 13.75 11C13.75 11.862 13.4076 12.6886 12.7981 13.2981C12.1886 13.9076 11.362 14.25 10.5 14.25C9.63805 14.25 8.8114 13.9076 8.2019 13.2981C7.59241 12.6886 7.25 11.862 7.25 11ZM5 8.25C5.19891 8.25 5.38968 8.32902 5.53033 8.46967C5.67098 8.61032 5.75 8.80109 5.75 9V13C5.75 13.1989 5.67098 13.3897 5.53033 13.5303C5.38968 13.671 5.19891 13.75 5 13.75C4.80109 13.75 4.61032 13.671 4.46967 13.5303C4.32902 13.3897 4.25 13.1989 4.25 13V9C4.25 8.80109 4.32902 8.61032 4.46967 8.46967C4.61032 8.32902 4.80109 8.25 5 8.25ZM16 8.25C16.1989 8.25 16.3897 8.32902 16.5303 8.46967C16.671 8.61032 16.75 8.80109 16.75 9V13C16.75 13.1989 16.671 13.3897 16.5303 13.5303C16.3897 13.671 16.1989 13.75 16 13.75C15.8011 13.75 15.6103 13.671 15.4697 13.5303C15.329 13.3897 15.25 13.1989 15.25 13V9C15.25 8.80109 15.329 8.61032 15.4697 8.46967C15.6103 8.32902 15.8011 8.25 16 8.25Z" fill="black"/>
</g>
<defs>
<clipPath id="clip0_221_15238">
<rect width="24" height="24" fill="white"/>
</clipPath>
</defs>
</svg>
