<svg width="24" height="24" viewBox="0 0 24 24" fill="none" xmlns="http://www.w3.org/2000/svg">
<g clip-path="url(#clip0_221_15123)">
<path fill-rule="evenodd" clip-rule="evenodd" d="M1.25 7.02C1.25 4.41 3.304 2.25 5.889 2.25H18.11C20.695 2.25 22.749 4.41 22.749 7.02C22.749 9.048 21.513 10.8 19.749 11.485V16.052C19.749 16.362 19.748 16.6547 19.746 16.93C19.7494 16.9843 19.7484 17.0388 19.743 17.093C19.7403 17.4944 19.7156 17.8953 19.669 18.294C19.585 18.922 19.399 19.489 18.943 19.944C18.488 20.4 17.921 20.586 17.293 20.67C16.699 20.75 15.949 20.75 15.051 20.75H8.948C8.05 20.75 7.3 20.75 6.706 20.67C6.078 20.586 5.511 20.4 5.056 19.944C4.6 19.489 4.414 18.922 4.33 18.294C4.28344 17.8953 4.25874 17.4944 4.256 17.093C4.25057 17.0388 4.24956 16.9843 4.253 16.93C4.25033 16.6547 4.24933 16.362 4.25 16.052V11.485C2.486 10.8 1.25 9.048 1.25 7.02ZM4.25 9.81C4.25 8.972 4.254 8.27 4.33 7.706C4.414 7.078 4.6 6.511 5.055 6.056C5.511 5.6 6.078 5.414 6.705 5.33C7.3 5.25 8.05 5.25 8.948 5.25H15.052C15.951 5.25 16.7 5.25 17.294 5.33C17.922 5.414 18.489 5.6 18.944 6.055C19.4 6.511 19.586 7.078 19.67 7.705C19.746 8.269 19.75 8.972 19.75 9.81C20.644 9.238 21.25 8.21 21.25 7.02C21.25 5.19 19.821 3.75 18.111 3.75H5.89C4.18 3.75 2.751 5.19 2.751 7.02C2.751 8.21 3.356 9.238 4.25 9.81ZM11.251 6.75H9C8.036 6.75 7.388 6.752 6.905 6.817C6.444 6.879 6.246 6.986 6.116 7.117C5.986 7.248 5.879 7.444 5.816 7.905C5.753 8.388 5.75 9.036 5.75 10V16.25H18.25V10C18.25 9.036 18.248 8.388 18.183 7.905C18.121 7.444 18.014 7.246 17.883 7.116C17.752 6.986 17.556 6.879 17.095 6.816C16.612 6.752 15.964 6.75 15 6.75H12.75V10.973L13.43 10.179C13.4941 10.1041 13.5723 10.0426 13.6601 9.99802C13.748 9.95339 13.8438 9.9265 13.942 9.91888C14.0403 9.91127 14.139 9.92308 14.2327 9.95364C14.3264 9.9842 14.4131 10.0329 14.488 10.097C14.5629 10.1611 14.6244 10.2393 14.669 10.3271C14.7136 10.415 14.7405 10.5108 14.7481 10.609C14.7557 10.7073 14.7439 10.806 14.7134 10.8997C14.6828 10.9934 14.6341 11.0801 14.57 11.155L12.57 13.488C12.4996 13.5703 12.4122 13.6364 12.3138 13.6818C12.2154 13.7271 12.1083 13.7506 12 13.7506C11.8917 13.7506 11.7846 13.7271 11.6862 13.6818C11.5878 13.6364 11.5004 13.5703 11.43 13.488L9.43 11.155C9.30057 11.0038 9.2365 10.8074 9.25188 10.609C9.26726 10.4106 9.36083 10.2264 9.512 10.097C9.66317 9.96757 9.85957 9.9035 10.058 9.91888C10.2564 9.93426 10.4406 10.0278 10.57 10.179L11.25 10.973L11.251 6.75ZM18.219 17.75H5.782C5.79067 17.8733 5.80233 17.9883 5.817 18.095C5.879 18.556 5.986 18.754 6.117 18.884C6.248 19.014 6.444 19.121 6.905 19.184C7.388 19.248 8.036 19.25 9 19.25H15C15.964 19.25 16.612 19.248 17.095 19.183C17.556 19.121 17.754 19.014 17.884 18.883C18.014 18.752 18.121 18.556 18.184 18.095C18.1973 17.9883 18.2097 17.8733 18.219 17.75Z" fill="black"/>
</g>
<defs>
<clipPath id="clip0_221_15123">
<rect width="24" height="24" fill="white"/>
</clipPath>
</defs>
</svg>
