<svg width="24" height="24" viewBox="0 0 24 24" fill="none" xmlns="http://www.w3.org/2000/svg">
<g clip-path="url(#clip0_221_15227)">
<path fill-rule="evenodd" clip-rule="evenodd" d="M12.057 1.25H11.943C9.634 1.25 7.825 1.25 6.413 1.44C4.969 1.634 3.829 2.04 2.934 2.934C2.039 3.829 1.634 4.969 1.44 6.414C1.25 7.825 1.25 9.634 1.25 11.943V12.057C1.25 14.366 1.25 16.175 1.44 17.587C1.634 19.031 2.04 20.171 2.934 21.066C3.829 21.961 4.969 22.366 6.414 22.56C7.825 22.75 9.634 22.75 11.943 22.75H12.057C14.366 22.75 16.175 22.75 17.587 22.56C19.031 22.366 20.171 21.96 21.066 21.066C21.961 20.171 22.366 19.031 22.56 17.586C22.75 16.175 22.75 14.366 22.75 12.057V11.943C22.75 9.634 22.75 7.825 22.56 6.413C22.366 4.969 21.96 3.829 21.066 2.934C20.171 2.039 19.031 1.634 17.586 1.44C16.175 1.25 14.366 1.25 12.057 1.25ZM3.995 3.995C4.565 3.425 5.335 3.098 6.614 2.926C7.914 2.752 9.622 2.75 12 2.75C14.378 2.75 16.086 2.752 17.386 2.926C18.665 3.098 19.436 3.426 20.006 3.995C20.575 4.565 20.902 5.335 21.074 6.614C21.248 7.914 21.25 9.622 21.25 12C21.25 14.378 21.248 16.086 21.074 17.386C20.902 18.665 20.574 19.436 20.005 20.006C19.435 20.575 18.665 20.902 17.386 21.074C16.086 21.248 14.378 21.25 12 21.25C9.622 21.25 7.914 21.248 6.614 21.074C5.335 20.902 4.564 20.574 3.994 20.005C3.425 19.435 3.098 18.665 2.926 17.386C2.752 16.086 2.75 14.378 2.75 12C2.75 9.622 2.752 7.914 2.926 6.614C3.098 5.335 3.426 4.565 3.995 3.995ZM16.392 4.366C15.525 4.249 14.422 4.249 13.055 4.249H10.945C9.578 4.249 8.475 4.249 7.608 4.366C6.708 4.486 5.95 4.746 5.348 5.347C5.07957 5.61511 4.86444 5.93171 4.714 6.28C4.60197 6.24665 4.4837 6.23994 4.36862 6.26042C4.25355 6.28089 4.14484 6.32798 4.0512 6.39792C3.95755 6.46787 3.88154 6.55873 3.82925 6.66327C3.77695 6.7678 3.74982 6.88311 3.75 7V10C3.75002 10.1551 3.79812 10.3063 3.88766 10.4329C3.9772 10.5596 4.10379 10.6553 4.25 10.707V13.293C4.10379 13.3447 3.9772 13.4404 3.88766 13.5671C3.79812 13.6937 3.75002 13.8449 3.75 14V17C3.74982 17.1169 3.77695 17.2322 3.82925 17.3367C3.88154 17.4413 3.95755 17.5321 4.0512 17.6021C4.14484 17.672 4.25355 17.7191 4.36862 17.7396C4.4837 17.7601 4.60197 17.7534 4.714 17.72C4.865 18.062 5.07 18.374 5.348 18.652C5.95 19.254 6.708 19.512 7.608 19.634C8.475 19.75 9.578 19.75 10.945 19.75H13.055C14.422 19.75 15.525 19.75 16.392 19.634C17.292 19.512 18.05 19.254 18.652 18.652C19.254 18.05 19.512 17.292 19.634 16.392C19.75 15.525 19.75 14.422 19.75 13.055V10.945C19.75 9.578 19.75 8.475 19.634 7.608C19.512 6.708 19.254 5.95 18.652 5.348C18.05 4.746 17.292 4.487 16.392 4.366ZM6.409 6.409C6.686 6.132 7.074 5.952 7.809 5.853C8.563 5.752 9.565 5.75 11 5.75H13C14.435 5.75 15.437 5.752 16.192 5.853C16.926 5.952 17.314 6.133 17.591 6.409C17.868 6.686 18.048 7.074 18.147 7.809C18.248 8.563 18.25 9.565 18.25 11V13C18.25 14.435 18.248 15.437 18.147 16.192C18.048 16.926 17.867 17.314 17.591 17.591C17.314 17.868 16.926 18.048 16.191 18.147C15.437 18.248 14.435 18.25 13 18.25H11C9.565 18.25 8.563 18.248 7.808 18.147C7.074 18.048 6.686 17.867 6.409 17.591C6.132 17.314 5.952 16.926 5.853 16.191C5.752 15.437 5.75 14.435 5.75 13V11C5.75 9.565 5.752 8.563 5.853 7.808C5.952 7.074 6.133 6.686 6.409 6.409ZM12 7.25C10.7402 7.25 9.53204 7.75045 8.64124 8.64124C7.75045 9.53204 7.25 10.7402 7.25 12C7.25 13.2598 7.75045 14.468 8.64124 15.3588C9.53204 16.2496 10.7402 16.75 12 16.75C13.2598 16.75 14.468 16.2496 15.3588 15.3588C16.2496 14.468 16.75 13.2598 16.75 12C16.75 10.7402 16.2496 9.53204 15.3588 8.64124C14.468 7.75045 13.2598 7.25 12 7.25ZM12 15.25C10.93 15.25 9.98 14.733 9.389 13.935L11.101 13.201C11.351 13.389 11.663 13.5 12 13.5C12.337 13.5 12.648 13.389 12.899 13.201L14.611 13.935C14.3087 14.3429 13.9151 14.6743 13.4617 14.9027C13.0083 15.131 12.5077 15.25 12 15.25ZM11.25 8.837C10.4441 9.02781 9.74151 9.51907 9.28562 10.2104C8.82972 10.9018 8.65495 11.7411 8.797 12.557L10.51 11.822C10.5377 11.5905 10.6191 11.3686 10.7475 11.174C10.876 10.9794 11.048 10.8175 11.25 10.701V8.837ZM15.25 12C15.25 12.19 15.2343 12.3753 15.203 12.556L13.49 11.822C13.4623 11.5905 13.3809 11.3686 13.2525 11.174C13.124 10.9794 12.952 10.8175 12.75 10.701V8.837C13.4619 9.00585 14.096 9.40998 14.5497 9.984C15.0034 10.558 15.2502 11.2683 15.25 12Z" fill="black"/>
</g>
<defs>
<clipPath id="clip0_221_15227">
<rect width="24" height="24" fill="white"/>
</clipPath>
</defs>
</svg>
