<svg width="24" height="24" viewBox="0 0 24 24" fill="none" xmlns="http://www.w3.org/2000/svg">
<g clip-path="url(#clip0_221_15112)">
<path fill-rule="evenodd" clip-rule="evenodd" d="M11.943 1.25C9.634 1.25 7.825 1.25 6.413 1.44C4.969 1.634 3.829 2.04 2.934 2.934C2.039 3.829 1.634 4.969 1.44 6.414C1.25 7.825 1.25 9.634 1.25 11.943V12.057C1.25 14.366 1.25 16.175 1.44 17.587C1.634 19.031 2.04 20.171 2.934 21.066C3.829 21.961 4.969 22.366 6.414 22.56C7.825 22.75 9.634 22.75 11.943 22.75H12.057C14.366 22.75 16.175 22.75 17.587 22.56C19.031 22.366 20.171 21.96 21.066 21.066C21.961 20.171 22.366 19.031 22.56 17.586C22.75 16.175 22.75 14.366 22.75 12.057V11.943C22.75 9.634 22.75 7.825 22.56 6.413C22.366 4.969 21.96 3.829 21.066 2.934C20.171 2.039 19.031 1.634 17.586 1.44C16.175 1.25 14.366 1.25 12.057 1.25H11.943ZM11.25 2.75C9.256 2.752 7.773 2.77 6.614 2.926C5.335 3.098 4.564 3.426 3.994 3.995C3.425 4.565 3.098 5.335 2.926 6.614C2.771 7.773 2.752 9.256 2.75 11.25H6.914C6.55526 10.8012 6.29741 10.2804 6.158 9.723C5.619 7.57 7.57 5.619 9.723 6.158C10.2804 6.29741 10.8012 6.55526 11.25 6.914V2.75ZM2.75 12.75C2.752 14.744 2.77 16.227 2.926 17.386C3.098 18.665 3.426 19.436 3.995 20.006C4.565 20.575 5.335 20.902 6.614 21.074C7.773 21.229 9.256 21.248 11.25 21.25V14.124C10.8554 14.9133 10.2488 15.577 9.49812 16.0409C8.74744 16.5047 7.88241 16.7502 7 16.75C6.80109 16.75 6.61032 16.671 6.46967 16.5303C6.32902 16.3897 6.25 16.1989 6.25 16C6.25 15.8011 6.32902 15.6103 6.46967 15.4697C6.61032 15.329 6.80109 15.25 7 15.25C7.73167 15.2502 8.44199 15.0034 9.016 14.5497C9.59002 14.096 9.99415 13.4619 10.163 12.75H2.75ZM12.75 21.25C14.744 21.248 16.227 21.23 17.386 21.074C18.665 20.902 19.436 20.574 20.006 20.005C20.575 19.435 20.902 18.665 21.074 17.386C21.229 16.227 21.248 14.744 21.25 12.75H13.837C14.0058 13.4619 14.41 14.096 14.984 14.5497C15.558 15.0034 16.2683 15.2502 17 15.25C17.1989 15.25 17.3897 15.329 17.5303 15.4697C17.671 15.6103 17.75 15.8011 17.75 16C17.75 16.1989 17.671 16.3897 17.5303 16.5303C17.3897 16.671 17.1989 16.75 17 16.75C16.1176 16.7502 15.2526 16.5047 14.5019 16.0409C13.7512 15.577 13.1446 14.9133 12.75 14.124V21.25ZM21.25 11.25H17.086C17.4451 10.8013 17.7033 10.2805 17.843 9.723C18.381 7.57 16.43 5.619 14.278 6.158C13.7203 6.29727 13.1991 6.55513 12.75 6.914V2.75C14.744 2.752 16.227 2.77 17.386 2.926C18.665 3.098 19.436 3.426 20.006 3.995C20.575 4.565 20.902 5.335 21.074 6.614C21.229 7.773 21.248 9.256 21.25 11.25ZM12.75 11.25V10.03C12.7517 9.47425 12.9386 8.93492 13.281 8.49721C13.6235 8.0595 14.102 7.74838 14.641 7.613C14.8822 7.55276 15.1349 7.556 15.3745 7.62239C15.614 7.68878 15.8324 7.81607 16.0081 7.99186C16.1839 8.16765 16.3112 8.38596 16.3776 8.62554C16.444 8.86512 16.4472 9.1178 16.387 9.359C16.2517 9.89768 15.9409 10.376 15.5036 10.7184C15.0663 11.0608 14.5274 11.2478 13.972 11.25H12.75ZM11.25 10.027C11.2476 9.47177 11.0605 8.93312 10.7181 8.49602C10.3757 8.05893 9.89752 7.74825 9.359 7.613C9.1178 7.55276 8.86512 7.556 8.62554 7.62239C8.38596 7.68878 8.16765 7.81607 7.99186 7.99186C7.81607 8.16765 7.68878 8.38596 7.62239 8.62554C7.556 8.86512 7.55276 9.1178 7.613 9.359C7.74829 9.89768 8.05912 10.376 8.49642 10.7184C8.93372 11.0608 9.47259 11.2478 10.028 11.25H11.25V10.027Z" fill="black"/>
</g>
<defs>
<clipPath id="clip0_221_15112">
<rect width="24" height="24" fill="white"/>
</clipPath>
</defs>
</svg>
