<svg width="24" height="24" viewBox="0 0 24 24" fill="none" xmlns="http://www.w3.org/2000/svg">
<g clip-path="url(#clip0_221_15319)">
<path fill-rule="evenodd" clip-rule="evenodd" d="M15.488 1.42996C15.5628 1.49409 15.6243 1.57233 15.6688 1.66022C15.7134 1.74811 15.7402 1.84392 15.7477 1.94218C15.7553 2.04043 15.7434 2.13921 15.7127 2.23286C15.682 2.3265 15.6332 2.41319 15.569 2.48796L13.202 5.24996H16.055C17.422 5.24996 18.525 5.24996 19.392 5.36696C20.292 5.48696 21.05 5.74696 21.652 6.34796C22.254 6.94996 22.512 7.70796 22.634 8.60796C22.75 9.47496 22.75 10.578 22.75 11.945V16.055C22.75 17.422 22.75 18.525 22.634 19.392C22.512 20.292 22.254 21.05 21.652 21.652C21.05 22.254 20.292 22.512 19.392 22.634C18.525 22.75 17.422 22.75 16.055 22.75H7.945C6.578 22.75 5.475 22.75 4.608 22.634C3.708 22.512 2.95 22.254 2.348 21.652C1.746 21.05 1.488 20.292 1.367 19.392C1.25 18.525 1.25 17.422 1.25 16.055V11.945C1.25 10.578 1.25 9.47496 1.367 8.60796C1.487 7.70796 1.747 6.94996 2.348 6.34796C2.95 5.74596 3.708 5.48796 4.608 5.36696C5.475 5.24996 6.578 5.24996 7.945 5.24996H10.798L8.43 2.48796C8.3621 2.41381 8.3098 2.32676 8.27621 2.23199C8.24262 2.13723 8.22843 2.03667 8.23448 1.93631C8.24053 1.83595 8.2667 1.73783 8.31143 1.64778C8.35616 1.55773 8.41854 1.4776 8.49486 1.41214C8.57118 1.34669 8.65988 1.29725 8.7557 1.26676C8.85151 1.23627 8.95247 1.22536 9.05258 1.23467C9.15269 1.24398 9.24991 1.27333 9.33846 1.32096C9.427 1.3686 9.50506 1.43355 9.568 1.51196L12 4.34796L14.43 1.51196C14.4941 1.43714 14.5724 1.37569 14.6603 1.33112C14.7481 1.28655 14.844 1.25974 14.9422 1.25221C15.0405 1.24469 15.1392 1.25661 15.2329 1.28728C15.3265 1.31795 15.4132 1.36677 15.488 1.43096M16.75 6.75096V21.251C17.796 21.247 18.576 21.231 19.192 21.148C19.926 21.049 20.314 20.868 20.591 20.592C20.868 20.315 21.048 19.927 21.147 19.192C21.248 18.437 21.25 17.436 21.25 16.001V12.001C21.25 10.566 21.248 9.56396 21.147 8.80896C21.048 8.07496 20.867 7.68696 20.591 7.40996C20.314 7.13296 19.926 6.95296 19.191 6.85396C18.576 6.77096 17.796 6.75396 16.75 6.75096ZM15.25 21.252V6.74996H8C6.565 6.74996 5.563 6.75196 4.808 6.85296C4.074 6.95196 3.686 7.13296 3.409 7.40896C3.132 7.68596 2.952 8.07396 2.853 8.80896C2.752 9.56296 2.75 10.565 2.75 12V16C2.75 17.435 2.752 18.436 2.853 19.192C2.952 19.926 3.133 20.314 3.409 20.591C3.686 20.868 4.074 21.048 4.809 21.147C5.563 21.248 6.565 21.25 8 21.25L15.25 21.252Z" fill="black"/>
<path d="M20 16C20 15.7348 19.8946 15.4804 19.7071 15.2929C19.5196 15.1054 19.2652 15 19 15C18.7348 15 18.4804 15.1054 18.2929 15.2929C18.1054 15.4804 18 15.7348 18 16C18 16.2652 18.1054 16.5196 18.2929 16.7071C18.4804 16.8946 18.7348 17 19 17C19.2652 17 19.5196 16.8946 19.7071 16.7071C19.8946 16.5196 20 16.2652 20 16ZM20 12C20 11.7348 19.8946 11.4804 19.7071 11.2929C19.5196 11.1054 19.2652 11 19 11C18.7348 11 18.4804 11.1054 18.2929 11.2929C18.1054 11.4804 18 11.7348 18 12C18 12.2652 18.1054 12.5196 18.2929 12.7071C18.4804 12.8946 18.7348 13 19 13C19.2652 13 19.5196 12.8946 19.7071 12.7071C19.8946 12.5196 20 12.2652 20 12Z" fill="black"/>
</g>
<defs>
<clipPath id="clip0_221_15319">
<rect width="24" height="24" fill="white"/>
</clipPath>
</defs>
</svg>
