<svg width="24" height="24" viewBox="0 0 24 24" fill="none" xmlns="http://www.w3.org/2000/svg">
<g clip-path="url(#clip0_221_15325)">
<path fill-rule="evenodd" clip-rule="evenodd" d="M12.05 1.25H11.95C11.286 1.25 10.713 1.25 10.254 1.312C9.76301 1.378 9.29102 1.527 8.90902 1.909C8.52702 2.291 8.37802 2.763 8.31202 3.254C8.25002 3.713 8.25002 4.286 8.25002 4.951V7.378C8.00885 7.29399 7.75539 7.25073 7.50002 7.25H4.50002C4.20454 7.25 3.91196 7.3082 3.63898 7.42127C3.36599 7.53434 3.11796 7.70008 2.90902 7.90901C2.70009 8.11794 2.53436 8.36598 2.42129 8.63896C2.30821 8.91195 2.25002 9.20453 2.25002 9.5V21.25H2.00002C1.8011 21.25 1.61034 21.329 1.46969 21.4697C1.32903 21.6103 1.25002 21.8011 1.25002 22C1.25002 22.1989 1.32903 22.3897 1.46969 22.5303C1.61034 22.671 1.8011 22.75 2.00002 22.75H22C22.1989 22.75 22.3897 22.671 22.5303 22.5303C22.671 22.3897 22.75 22.1989 22.75 22C22.75 21.8011 22.671 21.6103 22.5303 21.4697C22.3897 21.329 22.1989 21.25 22 21.25H21.75V14.5C21.75 13.9033 21.513 13.331 21.091 12.909C20.669 12.4871 20.0968 12.25 19.5 12.25H16.5C16.236 12.2513 15.986 12.294 15.75 12.378V4.951C15.75 4.286 15.75 3.713 15.688 3.254C15.622 2.763 15.473 2.291 15.091 1.909C14.709 1.527 14.238 1.378 13.746 1.312C13.287 1.25 12.714 1.25 12.049 1.25M20.249 21.25V14.5C20.249 14.3011 20.17 14.1103 20.0293 13.9697C19.8887 13.829 19.6979 13.75 19.499 13.75H16.499C16.3001 13.75 16.1093 13.829 15.9687 13.9697C15.828 14.1103 15.749 14.3011 15.749 14.5V21.25H20.249ZM14.249 21.25V5C14.249 4.272 14.247 3.8 14.201 3.454C14.157 3.129 14.086 3.027 14.029 2.97C13.972 2.913 13.87 2.842 13.545 2.798C13.198 2.752 12.727 2.75 11.999 2.75C11.271 2.75 10.799 2.752 10.453 2.798C10.128 2.842 10.026 2.913 9.96902 2.97C9.91201 3.027 9.84101 3.129 9.79702 3.454C9.75102 3.801 9.74901 4.272 9.74901 5V21.25H14.249ZM8.24901 21.25V9.5C8.24901 9.30109 8.17 9.11032 8.02935 8.96967C7.88869 8.82902 7.69793 8.75 7.49902 8.75H4.49902C4.3001 8.75 4.10934 8.82902 3.96869 8.96967C3.82803 9.11032 3.74902 9.30109 3.74902 9.5V21.25H8.24901Z" fill="black"/>
</g>
<defs>
<clipPath id="clip0_221_15325">
<rect width="24" height="24" fill="white"/>
</clipPath>
</defs>
</svg>
