<svg width="24" height="24" viewBox="0 0 24 24" fill="none" xmlns="http://www.w3.org/2000/svg">
<g clip-path="url(#clip0_221_15373)">
<path fill-rule="evenodd" clip-rule="evenodd" d="M9.29498 1.35401C9.12365 1.25269 8.91909 1.22359 8.7263 1.2731C8.53351 1.32261 8.36829 1.44668 8.26698 1.61801C8.16566 1.78934 8.13656 1.9939 8.18607 2.18668C8.23558 2.37947 8.35965 2.54469 8.53098 2.64601L8.72698 2.76201L2.00198 14.37C1.63405 15.0054 1.39522 15.7072 1.29919 16.4352C1.20315 17.1631 1.25182 17.9029 1.44238 18.612C1.63294 19.3211 1.96164 19.9856 2.40964 20.5673C2.85763 21.1491 3.41609 21.6366 4.05298 22.002C5.33946 22.743 6.86722 22.9439 8.30152 22.5606C9.73581 22.1773 10.9597 21.241 11.705 19.957L18.434 8.34301L18.626 8.45301C18.7982 8.5487 19.0011 8.57282 19.1909 8.52014C19.3807 8.46747 19.5422 8.34223 19.6404 8.17149C19.7386 8.00076 19.7658 7.79822 19.7159 7.60765C19.6661 7.41708 19.5432 7.25377 19.374 7.15301L18.534 6.67001L10.126 1.84601L9.29498 1.35401ZM3.29998 15.122L10.023 3.51601L17.133 7.59601L15.628 10.193L13.718 9.09501C13.5458 8.99931 13.3429 8.9752 13.1531 9.02787C12.9633 9.08055 12.8018 9.20578 12.7036 9.37652C12.6053 9.54726 12.5782 9.74979 12.628 9.94036C12.6779 10.1309 12.8007 10.2942 12.97 10.395L14.876 11.491L13.915 13.151L10.36 11.106C10.2745 11.0551 10.1798 11.0218 10.0814 11.0078C9.98295 10.9939 9.88271 10.9997 9.78652 11.0249C9.69033 11.05 9.6001 11.0941 9.52108 11.1544C9.44207 11.2148 9.37584 11.2902 9.32625 11.3764C9.27666 11.4626 9.24471 11.5578 9.23224 11.6564C9.21978 11.7551 9.22705 11.8552 9.25364 11.951C9.28022 12.0468 9.32559 12.1364 9.38711 12.2145C9.44863 12.2926 9.52507 12.3577 9.61198 12.406L13.162 14.449L12.277 15.977L10.313 14.847C10.1408 14.7513 9.93788 14.7272 9.74807 14.7799C9.55826 14.8325 9.3968 14.9578 9.29856 15.1285C9.20032 15.2993 9.17319 15.5018 9.22304 15.6924C9.27289 15.8829 9.39571 16.0462 9.56497 16.147L11.525 17.275L10.407 19.205C9.86059 20.1453 8.9638 20.8308 7.91304 21.1112C6.86227 21.3916 5.74321 21.2441 4.80098 20.701C4.33516 20.434 3.92666 20.0777 3.59893 19.6524C3.27121 19.2271 3.03071 18.7413 2.89124 18.2228C2.75177 17.7044 2.71609 17.1635 2.78623 16.6312C2.85637 16.0989 3.03096 15.5867 3.29998 15.122ZM21.175 12.102C21.0244 11.9412 20.8424 11.8131 20.6403 11.7255C20.4382 11.6379 20.2203 11.5927 20 11.5927C19.7797 11.5927 19.5618 11.6379 19.3597 11.7255C19.1575 11.8131 18.9756 11.9412 18.825 12.102C18.4617 12.4773 18.1318 12.8835 17.839 13.316C17.555 13.746 17.25 14.324 17.25 14.916C17.25 16.452 18.453 17.75 20 17.75C21.547 17.75 22.75 16.452 22.75 14.917C22.75 14.324 22.446 13.747 22.161 13.316C21.8682 12.8835 21.5382 12.4773 21.175 12.102ZM19.914 13.133C19.943 13.103 19.974 13.093 20 13.093C20.0164 13.0933 20.0327 13.0971 20.0476 13.104C20.0626 13.1108 20.076 13.1207 20.087 13.133C20.365 13.427 20.674 13.786 20.91 14.143C21.163 14.526 21.25 14.789 21.25 14.917C21.25 15.682 20.662 16.25 20 16.25C19.338 16.25 18.75 15.682 18.75 14.917C18.75 14.789 18.837 14.527 19.09 14.142C19.326 13.786 19.635 13.427 19.914 13.133Z" fill="black"/>
</g>
<defs>
<clipPath id="clip0_221_15373">
<rect width="24" height="24" fill="white"/>
</clipPath>
</defs>
</svg>
