<svg width="24" height="24" viewBox="0 0 24 24" fill="none" xmlns="http://www.w3.org/2000/svg">
<g clip-path="url(#clip0_221_15384)">
<path d="M12 11.75C12.1989 11.75 12.3897 11.829 12.5303 11.9697C12.671 12.1103 12.75 12.3011 12.75 12.5V13.25H13.5C13.6989 13.25 13.8897 13.329 14.0303 13.4697C14.171 13.6103 14.25 13.8011 14.25 14C14.25 14.1989 14.171 14.3897 14.0303 14.5303C13.8897 14.671 13.6989 14.75 13.5 14.75H12.75V15.5C12.75 15.6989 12.671 15.8897 12.5303 16.0303C12.3897 16.171 12.1989 16.25 12 16.25C11.8011 16.25 11.6103 16.171 11.4697 16.0303C11.329 15.8897 11.25 15.6989 11.25 15.5V14.75H10.5C10.3011 14.75 10.1103 14.671 9.96967 14.5303C9.82902 14.3897 9.75 14.1989 9.75 14C9.75 13.8011 9.82902 13.6103 9.96967 13.4697C10.1103 13.329 10.3011 13.25 10.5 13.25H11.25V12.5C11.25 12.3011 11.329 12.1103 11.4697 11.9697C11.6103 11.829 11.8011 11.75 12 11.75Z" fill="black"/>
<path fill-rule="evenodd" clip-rule="evenodd" d="M12 9.25C10.7402 9.25 9.53204 9.75045 8.64124 10.6412C7.75045 11.532 7.25 12.7402 7.25 14C7.25 15.2598 7.75045 16.468 8.64124 17.3588C9.53204 18.2496 10.7402 18.75 12 18.75C13.2598 18.75 14.468 18.2496 15.3588 17.3588C16.2496 16.468 16.75 15.2598 16.75 14C16.75 12.7402 16.2496 11.532 15.3588 10.6412C14.468 9.75045 13.2598 9.25 12 9.25ZM8.75 14C8.75 13.138 9.09241 12.3114 9.7019 11.7019C10.3114 11.0924 11.138 10.75 12 10.75C12.862 10.75 13.6886 11.0924 14.2981 11.7019C14.9076 12.3114 15.25 13.138 15.25 14C15.25 14.862 14.9076 15.6886 14.2981 16.2981C13.6886 16.9076 12.862 17.25 12 17.25C11.138 17.25 10.3114 16.9076 9.7019 16.2981C9.09241 15.6886 8.75 14.862 8.75 14Z" fill="black"/>
<path fill-rule="evenodd" clip-rule="evenodd" d="M11.948 1.25C11.049 1.25 10.3 1.25 9.706 1.33C9.078 1.414 8.511 1.6 8.056 2.055C7.6 2.511 7.414 3.078 7.33 3.705C7.27 4.145 7.255 4.669 7.251 5.275C6.603 5.296 6.025 5.335 5.511 5.403C4.339 5.561 3.39 5.893 2.641 6.641C1.893 7.39 1.561 8.339 1.403 9.511C1.25 10.651 1.25 12.106 1.25 13.944V14.056C1.25 15.894 1.25 17.35 1.403 18.489C1.561 19.661 1.893 20.61 2.641 21.359C3.39 22.107 4.339 22.439 5.511 22.597C6.651 22.75 8.106 22.75 9.944 22.75H14.056C15.894 22.75 17.35 22.75 18.489 22.597C19.661 22.439 20.61 22.107 21.359 21.359C22.107 20.61 22.439 19.661 22.597 18.489C22.75 17.349 22.75 15.894 22.75 14.056V13.944C22.75 12.106 22.75 10.65 22.597 9.511C22.439 8.339 22.107 7.39 21.359 6.641C20.61 5.893 19.661 5.561 18.489 5.403C17.9114 5.33223 17.3307 5.28952 16.749 5.275C16.745 4.669 16.729 4.145 16.67 3.705C16.586 3.078 16.4 2.511 15.944 2.055C15.488 1.599 14.922 1.415 14.294 1.33C13.7 1.25 12.95 1.25 12.052 1.25H11.948ZM15.248 5.252C15.244 4.682 15.23 4.252 15.184 3.905C15.121 3.444 15.014 3.246 14.884 3.116C14.754 2.986 14.556 2.879 14.094 2.816C13.612 2.752 12.964 2.75 12 2.75C11.036 2.75 10.388 2.752 9.905 2.817C9.444 2.879 9.246 2.986 9.116 3.117C8.986 3.248 8.879 3.444 8.816 3.905C8.77 4.251 8.756 4.681 8.752 5.252C9.13 5.25 9.52733 5.24933 9.944 5.25H14.056C14.4727 5.25 14.87 5.25067 15.248 5.252ZM3.702 7.702C4.125 7.279 4.705 7.025 5.711 6.89C6.739 6.752 8.093 6.75 10 6.75H14C15.907 6.75 17.262 6.752 18.29 6.89C19.295 7.025 19.875 7.279 20.298 7.702C20.721 8.125 20.975 8.705 21.11 9.711C21.248 10.738 21.25 12.093 21.25 14C21.25 15.907 21.248 17.262 21.11 18.29C20.975 19.295 20.721 19.875 20.298 20.298C19.875 20.721 19.295 20.975 18.289 21.11C17.262 21.248 15.907 21.25 14 21.25H10C8.093 21.25 6.739 21.248 5.71 21.11C4.705 20.975 4.125 20.721 3.702 20.298C3.279 19.875 3.025 19.295 2.89 18.289C2.752 17.262 2.75 15.907 2.75 14C2.75 12.093 2.752 10.739 2.89 9.71C3.025 8.705 3.279 8.125 3.702 7.702Z" fill="black"/>
</g>
<defs>
<clipPath id="clip0_221_15384">
<rect width="24" height="24" fill="white"/>
</clipPath>
</defs>
</svg>
