<svg width="24" height="24" viewBox="0 0 24 24" fill="none" xmlns="http://www.w3.org/2000/svg">
<g clip-path="url(#clip0_221_15330)">
<path fill-rule="evenodd" clip-rule="evenodd" d="M2.78002 11.25H4.00002C4.19893 11.25 4.38969 11.329 4.53035 11.4697C4.671 11.6103 4.75002 11.8011 4.75002 12C4.75002 12.1989 4.671 12.3897 4.53035 12.5303C4.38969 12.671 4.19893 12.75 4.00002 12.75H2.78002C2.93368 14.6813 3.6931 16.5147 4.95002 17.989L5.97002 16.969C6.11153 16.8324 6.30102 16.7569 6.49767 16.7587C6.69431 16.7605 6.88239 16.8395 7.02138 16.9786C7.16037 17.1178 7.23916 17.3059 7.24077 17.5025C7.24239 17.6992 7.1667 17.8886 7.03002 18.03L6.01102 19.05C7.68101 20.4743 9.80517 21.2545 12 21.25C14.1949 21.2545 16.319 20.4743 17.989 19.05L16.969 18.03C16.8974 17.9608 16.8403 17.878 16.8011 17.7865C16.7618 17.695 16.7411 17.5965 16.7403 17.4969C16.7395 17.3974 16.7585 17.2986 16.7963 17.2065C16.834 17.1143 16.8898 17.0306 16.9602 16.9602C17.0307 16.8898 17.1144 16.8342 17.2066 16.7965C17.2988 16.7588 17.3976 16.7399 17.4972 16.7408C17.5968 16.7417 17.6952 16.7625 17.7866 16.8018C17.8781 16.8412 17.9609 16.8983 18.03 16.97L19.05 17.989C20.3069 16.5147 21.0663 14.6813 21.22 12.75H20C19.8011 12.75 19.6103 12.671 19.4697 12.5303C19.329 12.3897 19.25 12.1989 19.25 12C19.25 11.8011 19.329 11.6103 19.4697 11.4697C19.6103 11.329 19.8011 11.25 20 11.25H21.22C21.0663 9.31875 20.3069 7.48529 19.05 6.011L18.03 7.031C17.9608 7.1026 17.878 7.1597 17.7865 7.19896C17.695 7.23822 17.5965 7.25886 17.497 7.25968C17.3974 7.2605 17.2986 7.24148 17.2065 7.20372C17.1143 7.16597 17.0306 7.11024 16.9602 7.03979C16.8898 6.96934 16.8342 6.88557 16.7965 6.79338C16.7588 6.70119 16.7399 6.60242 16.7408 6.50284C16.7417 6.40326 16.7625 6.30485 16.8018 6.21337C16.8412 6.12188 16.8983 6.03915 16.97 5.97L17.989 4.95C16.5147 3.69309 14.6813 2.93367 12.75 2.78V4C12.75 4.19891 12.671 4.38968 12.5303 4.53033C12.3897 4.67098 12.1989 4.75 12 4.75C11.8011 4.75 11.6103 4.67098 11.4697 4.53033C11.329 4.38968 11.25 4.19891 11.25 4V2.78C9.31876 2.93367 7.48531 3.69309 6.01102 4.95L7.03102 5.97C7.16757 6.11152 7.24308 6.301 7.24128 6.49765C7.23947 6.6943 7.16051 6.88237 7.02139 7.02136C6.88226 7.16035 6.69412 7.23914 6.49747 7.24076C6.30082 7.24237 6.1114 7.16669 5.97002 7.03L4.95002 6.011C3.6931 7.48529 2.93368 9.31875 2.78002 11.25ZM1.25002 12C1.25002 6.063 6.06302 1.25 12 1.25C17.937 1.25 22.75 6.063 22.75 12C22.75 17.937 17.937 22.75 12 22.75C6.06302 22.75 1.25002 17.937 1.25002 12ZM11.52 8.76C11.28 9.007 11.023 9.402 10.604 10.058C10.3645 10.424 10.1532 10.8078 9.97202 11.206C9.81202 11.573 9.75002 11.837 9.75002 12C9.75002 12.5967 9.98707 13.169 10.409 13.591C10.831 14.0129 11.4033 14.25 12 14.25C12.5968 14.25 13.169 14.0129 13.591 13.591C14.013 13.169 14.25 12.5967 14.25 12C14.25 11.837 14.188 11.573 14.028 11.206C13.8469 10.8078 13.6356 10.424 13.396 10.058C12.976 9.402 12.72 9.008 12.481 8.76C12.286 8.557 12.164 8.517 12 8.517C11.836 8.517 11.714 8.557 11.52 8.76ZM10.44 7.718C10.852 7.291 11.343 7.017 12 7.017C12.657 7.017 13.148 7.291 13.56 7.717C13.916 8.087 14.253 8.613 14.623 9.193L14.66 9.25C14.94 9.69 15.206 10.155 15.403 10.606C15.595 11.045 15.75 11.533 15.75 12C15.75 12.9946 15.3549 13.9484 14.6517 14.6517C13.9484 15.3549 12.9946 15.75 12 15.75C11.0055 15.75 10.0516 15.3549 9.34836 14.6517C8.6451 13.9484 8.25002 12.9946 8.25002 12C8.25002 11.533 8.40502 11.045 8.59702 10.606C8.79402 10.155 9.05902 9.69 9.34002 9.25L9.37602 9.193C9.74702 8.613 10.084 8.087 10.44 7.718Z" fill="black"/>
</g>
<defs>
<clipPath id="clip0_221_15330">
<rect width="24" height="24" fill="white"/>
</clipPath>
</defs>
</svg>
