<svg width="24" height="24" viewBox="0 0 24 24" fill="none" xmlns="http://www.w3.org/2000/svg">
<g clip-path="url(#clip0_221_15368)">
<path fill-rule="evenodd" clip-rule="evenodd" d="M17.416 6.25H17.584C17.964 6.25 18.294 6.25 18.582 6.327C18.9634 6.42914 19.3112 6.62983 19.5905 6.90892C19.8697 7.18802 20.0706 7.53568 20.173 7.917L19.471 8.106L20.173 7.918C20.251 8.207 20.251 8.535 20.25 8.916V9.261C20.9341 9.32237 21.5704 9.63749 22.0338 10.1444C22.4973 10.6512 22.7543 11.3132 22.7543 12C22.7543 12.6868 22.4973 13.3488 22.0338 13.8556C21.5704 14.3625 20.9341 14.6776 20.25 14.739V15.084C20.25 15.464 20.25 15.794 20.173 16.083C20.0707 16.4642 19.87 16.8118 19.5909 17.0909C19.3118 17.37 18.9642 17.5707 18.583 17.673C18.293 17.751 17.965 17.751 17.583 17.75H17.416C17.036 17.75 16.706 17.75 16.418 17.674C16.0365 17.5718 15.6886 17.3709 15.4094 17.0917C15.1301 16.8124 14.9292 16.4645 14.827 16.083C14.749 15.793 14.749 15.465 14.75 15.084V12.75H9.25001V15.084C9.25001 15.464 9.25001 15.794 9.17301 16.083C9.07072 16.4642 8.86996 16.8118 8.59087 17.0909C8.31179 17.37 7.9642 17.5707 7.58301 17.673C7.29301 17.751 6.96501 17.751 6.58301 17.75H6.41601C6.03601 17.75 5.70601 17.75 5.41801 17.674C5.0365 17.5718 4.68863 17.3709 4.40935 17.0917C4.13007 16.8124 3.92923 16.4645 3.82701 16.083C3.74901 15.793 3.75001 15.465 3.75001 15.084V14.739C3.06595 14.6776 2.42961 14.3625 1.96617 13.8556C1.50273 13.3488 1.24573 12.6868 1.24573 12C1.24573 11.3132 1.50273 10.6512 1.96617 10.1444C2.42961 9.63749 3.06595 9.32237 3.75001 9.261V8.916C3.75001 8.536 3.75001 8.206 3.82701 7.918C3.92914 7.53662 4.12984 7.18883 4.40893 6.90956C4.68802 6.63029 5.03569 6.42938 5.41701 6.327C5.70701 6.249 6.03501 6.25 6.41701 6.25H6.58401C6.96401 6.25 7.29401 6.25 7.58201 6.327C7.96339 6.42914 8.31118 6.62983 8.59045 6.90892C8.86972 7.18802 9.07063 7.53568 9.17301 7.917C9.25101 8.207 9.25001 8.535 9.25001 8.917V11.25H14.75V8.916C14.75 8.536 14.75 8.206 14.827 7.918C14.9291 7.53662 15.1298 7.18883 15.4089 6.90956C15.688 6.63029 16.0357 6.42938 16.417 6.327C16.707 6.249 17.034 6.25 17.416 6.25ZM3.75001 10.775C3.46743 10.8324 3.21339 10.9857 3.03091 11.2089C2.84844 11.4322 2.74875 11.7117 2.74875 12C2.74875 12.2883 2.84844 12.5678 3.03091 12.7911C3.21339 13.0143 3.46743 13.1676 3.75001 13.225V10.775ZM20.25 13.225C20.5326 13.1676 20.7866 13.0143 20.9691 12.7911C21.1516 12.5678 21.2513 12.2883 21.2513 12C21.2513 11.7117 21.1516 11.4322 20.9691 11.2089C20.7866 10.9857 20.5326 10.8324 20.25 10.775V13.225ZM17.5 7.75C16.987 7.75 16.877 7.757 16.806 7.776C16.6789 7.8101 16.5631 7.87702 16.4701 7.97005C16.377 8.06307 16.3101 8.17893 16.276 8.306C16.256 8.377 16.25 8.486 16.25 9V15C16.25 15.513 16.256 15.623 16.276 15.694C16.3101 15.8211 16.377 15.9369 16.4701 16.03C16.5631 16.123 16.6789 16.1899 16.806 16.224C16.877 16.244 16.986 16.25 17.5 16.25C18.013 16.25 18.123 16.244 18.194 16.225C18.3211 16.1909 18.4369 16.124 18.53 16.031C18.623 15.9379 18.6899 15.8221 18.724 15.695C18.744 15.623 18.75 15.513 18.75 15V9C18.75 8.487 18.744 8.377 18.724 8.306C18.6899 8.17893 18.623 8.06307 18.53 7.97005C18.4369 7.87702 18.3211 7.8101 18.194 7.776C18.123 7.756 18.014 7.75 17.5 7.75ZM6.50001 7.75C5.98701 7.75 5.87701 7.757 5.80601 7.776C5.67894 7.8101 5.56308 7.87702 5.47005 7.97005C5.37702 8.06307 5.3101 8.17893 5.27601 8.306C5.25601 8.377 5.25001 8.486 5.25001 9V15C5.25001 15.513 5.25601 15.623 5.27601 15.694C5.3101 15.8211 5.37702 15.9369 5.47005 16.03C5.56308 16.123 5.67894 16.1899 5.80601 16.224C5.87701 16.243 5.98601 16.25 6.50001 16.25C7.01301 16.25 7.12301 16.244 7.19401 16.225C7.32107 16.1909 7.43693 16.124 7.52996 16.031C7.62299 15.9379 7.68991 15.8221 7.72401 15.695C7.74401 15.623 7.75001 15.513 7.75001 15V9C7.75001 8.487 7.74401 8.377 7.72401 8.306C7.68991 8.17893 7.62299 8.06307 7.52996 7.97005C7.43693 7.87702 7.32107 7.8101 7.19401 7.776C7.12301 7.756 7.01401 7.75 6.50001 7.75Z" fill="black"/>
</g>
<defs>
<clipPath id="clip0_221_15368">
<rect width="24" height="24" fill="white"/>
</clipPath>
</defs>
</svg>
