<svg width="24" height="24" viewBox="0 0 24 24" fill="none" xmlns="http://www.w3.org/2000/svg">
<g clip-path="url(#clip0_221_15378)">
<path d="M10.093 10.746C10.1817 10.6193 10.2583 10.511 10.323 10.421C10.379 10.519 10.442 10.632 10.517 10.769L12.227 13.879C12.393 14.181 12.557 14.477 12.72 14.692C12.895 14.922 13.202 15.237 13.695 15.247C14.188 15.256 14.508 14.953 14.691 14.729C14.863 14.521 15.036 14.231 15.214 13.935L15.269 13.843C15.49 13.475 15.629 13.245 15.752 13.078C15.865 12.925 15.931 12.875 15.98 12.848C16.029 12.82 16.105 12.789 16.295 12.771C16.501 12.751 16.769 12.751 17.199 12.751H18C18.1989 12.751 18.3897 12.672 18.5303 12.5313C18.671 12.3907 18.75 12.1999 18.75 12.001C18.75 11.8021 18.671 11.6113 18.5303 11.4706C18.3897 11.33 18.1989 11.251 18 11.251H17.166C16.779 11.251 16.436 11.251 16.15 11.278C15.8311 11.2988 15.5206 11.3889 15.24 11.542C14.9647 11.7037 14.7279 11.9235 14.546 12.186C14.375 12.418 14.199 12.711 14 13.043L13.952 13.123C13.865 13.267 13.793 13.387 13.728 13.491L13.518 13.114L11.809 10.006C11.655 9.72598 11.502 9.44598 11.346 9.24198C11.176 9.01798 10.884 8.72198 10.416 8.69698C9.949 8.67098 9.627 8.93398 9.434 9.13798C9.257 9.32498 9.074 9.58598 8.891 9.84798L8.581 10.29C8.354 10.615 8.211 10.817 8.088 10.963C7.975 11.097 7.912 11.141 7.865 11.165C7.819 11.19 7.747 11.216 7.572 11.232C7.382 11.249 7.134 11.25 6.738 11.25H6C5.80109 11.25 5.61032 11.329 5.46967 11.4696C5.32902 11.6103 5.25 11.8011 5.25 12C5.25 12.1989 5.32902 12.3897 5.46967 12.5303C5.61032 12.671 5.80109 12.75 6 12.75H6.768C7.125 12.75 7.442 12.75 7.708 12.726C7.998 12.699 8.279 12.641 8.558 12.496C8.81912 12.3552 9.04907 12.163 9.234 11.931C9.407 11.727 9.588 11.468 9.793 11.175L10.093 10.746Z" fill="black"/>
<path fill-rule="evenodd" clip-rule="evenodd" d="M22.75 9.26C22.75 6.08 21.258 3.606 18.976 2.657C16.846 1.771 14.274 2.31 12 4.437C9.726 2.31 7.154 1.77 5.024 2.657C2.742 3.607 1.25 6.079 1.25 9.26C1.25 11.386 2.38 13.48 3.786 15.283C5.207 17.103 6.996 18.735 8.488 19.952L8.622 20.062C9.822 21.042 10.69 21.75 12 21.75C13.31 21.75 14.178 21.042 15.377 20.062L15.512 19.952C17.005 18.735 18.792 17.104 20.214 15.282C21.621 13.479 22.75 11.386 22.75 9.26ZM12.55 6.01C14.647 3.755 16.827 3.388 18.4 4.042C19.992 4.704 21.25 6.53 21.25 9.26C21.25 10.882 20.37 12.645 19.031 14.36C17.707 16.057 16.014 17.607 14.564 18.79C13.171 19.926 12.722 20.25 12 20.25C11.278 20.25 10.829 19.925 9.436 18.79C7.986 17.607 6.293 16.057 4.969 14.36C3.63 12.645 2.75 10.882 2.75 9.26C2.75 6.53 4.008 4.705 5.6 4.042C7.173 3.388 9.353 3.755 11.45 6.01C11.5202 6.08572 11.6053 6.14614 11.6999 6.18745C11.7946 6.22877 11.8967 6.25009 12 6.25009C12.1033 6.25009 12.2054 6.22877 12.3001 6.18745C12.3947 6.14614 12.4798 6.08572 12.55 6.01Z" fill="black"/>
</g>
<defs>
<clipPath id="clip0_221_15378">
<rect width="24" height="24" fill="white"/>
</clipPath>
</defs>
</svg>
