<svg width="24" height="24" viewBox="0 0 24 24" fill="none" xmlns="http://www.w3.org/2000/svg">
<g clip-path="url(#clip0_221_15363)">
<path fill-rule="evenodd" clip-rule="evenodd" d="M5 1.25C5.19891 1.25 5.38968 1.32902 5.53033 1.46967C5.67098 1.61032 5.75 1.80109 5.75 2V3.085L7.324 2.77C9.11731 2.41177 10.9761 2.58271 12.674 3.262L12.877 3.343C14.2917 3.90878 15.8488 4.01445 17.327 3.645C17.6145 3.57311 17.9146 3.56771 18.2045 3.62919C18.4945 3.69067 18.7665 3.81742 19.0001 3.99982C19.2337 4.18221 19.4226 4.41545 19.5526 4.68181C19.6825 4.94817 19.75 5.24064 19.75 5.537V12.904C19.75 13.892 19.077 14.754 18.118 14.994L17.904 15.047C15.9813 15.5275 13.9561 15.39 12.116 14.654C10.6884 14.0832 9.12567 13.9397 7.618 14.241L5.75 14.615V22C5.75 22.1989 5.67098 22.3897 5.53033 22.5303C5.38968 22.671 5.19891 22.75 5 22.75C4.80109 22.75 4.61032 22.671 4.46967 22.5303C4.32902 22.3897 4.25 22.1989 4.25 22V2C4.25 1.80109 4.32902 1.61032 4.46967 1.46967C4.61032 1.32902 4.80109 1.25 5 1.25ZM5.75 13.085L7.324 12.77C9.11731 12.4118 10.9761 12.5827 12.674 13.262C14.2211 13.8804 15.9236 13.9959 17.54 13.592L17.755 13.538C17.8963 13.5026 18.0218 13.421 18.1115 13.3061C18.2012 13.1912 18.2499 13.0497 18.25 12.904V5.537C18.2501 5.46859 18.2345 5.40107 18.2046 5.33957C18.1746 5.27807 18.131 5.22421 18.0772 5.18208C18.0233 5.13994 17.9605 5.11065 17.8936 5.09643C17.8266 5.08221 17.7574 5.08343 17.691 5.1C15.9069 5.54611 14.0276 5.41874 12.32 4.736L12.116 4.654C10.6884 4.08321 9.12567 3.93972 7.618 4.241L5.75 4.615V13.085Z" fill="black"/>
</g>
<defs>
<clipPath id="clip0_221_15363">
<rect width="24" height="24" fill="white"/>
</clipPath>
</defs>
</svg>
