<svg width="24" height="24" viewBox="0 0 24 24" fill="none" xmlns="http://www.w3.org/2000/svg">
<g clip-path="url(#clip0_221_15453)">
<path fill-rule="evenodd" clip-rule="evenodd" d="M7.00002 1.75C7.19893 1.75 7.38969 1.82902 7.53035 1.96967C7.671 2.11032 7.75002 2.30109 7.75002 2.5V3.263C8.41202 3.25 9.14102 3.25 9.94402 3.25H14.056C14.859 3.25 15.588 3.25 16.25 3.263V2.5C16.25 2.30109 16.329 2.11032 16.4697 1.96967C16.6103 1.82902 16.8011 1.75 17 1.75C17.1989 1.75 17.3897 1.82902 17.5303 1.96967C17.671 2.11032 17.75 2.30109 17.75 2.5V3.327C18.01 3.347 18.2563 3.37233 18.489 3.403C19.661 3.561 20.61 3.893 21.359 4.641C22.107 5.39 22.439 6.339 22.597 7.511C22.6463 7.88567 22.682 8.29567 22.704 8.741C22.7584 8.88855 22.7651 9.04947 22.723 9.201C22.75 10.002 22.75 10.913 22.75 11.944V14.056C22.75 15.894 22.75 17.35 22.597 18.489C22.439 19.661 22.107 20.61 21.359 21.359C20.61 22.107 19.661 22.439 18.489 22.597C17.349 22.75 15.894 22.75 14.056 22.75H9.94402C8.10602 22.75 6.65002 22.75 5.51102 22.597C4.33902 22.439 3.39002 22.107 2.64102 21.359C1.89302 20.61 1.56102 19.661 1.40302 18.489C1.25002 17.349 1.25002 15.894 1.25002 14.056V11.944C1.25002 10.913 1.25002 10.002 1.27702 9.2C1.23529 9.04836 1.24228 8.88744 1.29702 8.74C1.31835 8.29533 1.35368 7.88567 1.40302 7.511C1.56102 6.339 1.89302 5.39 2.64102 4.641C3.39002 3.893 4.33902 3.561 5.51102 3.403C5.74435 3.37233 5.99068 3.347 6.25002 3.327V2.5C6.25002 2.30109 6.32903 2.11032 6.46969 1.96967C6.61034 1.82902 6.8011 1.75 7.00002 1.75ZM2.76302 9.75C2.75002 10.403 2.75002 11.146 2.75002 12V14C2.75002 15.907 2.75202 17.262 2.89002 18.29C3.02502 19.295 3.27902 19.875 3.70202 20.298C4.12502 20.721 4.70502 20.975 5.71102 21.11C6.73902 21.248 8.09302 21.25 10 21.25H14C15.907 21.25 17.262 21.248 18.29 21.11C19.295 20.975 19.875 20.721 20.298 20.298C20.721 19.875 20.975 19.295 21.11 18.289C21.248 17.262 21.25 15.907 21.25 14V12C21.25 11.146 21.25 10.403 21.237 9.75H2.76302ZM21.168 8.25H2.83202C2.84802 8.06067 2.86735 7.88067 2.89002 7.71C3.02502 6.705 3.27902 6.125 3.70202 5.702C4.12502 5.279 4.70502 5.025 5.71102 4.89C6.73902 4.752 8.09302 4.75 10 4.75H14C15.907 4.75 17.262 4.752 18.29 4.89C19.295 5.025 19.875 5.279 20.298 5.702C20.721 6.125 20.975 6.705 21.11 7.711C21.1327 7.881 21.152 8.06067 21.168 8.25Z" fill="black"/>
</g>
<defs>
<clipPath id="clip0_221_15453">
<rect width="24" height="24" fill="white"/>
</clipPath>
</defs>
</svg>
