<svg width="24" height="24" viewBox="0 0 24 24" fill="none" xmlns="http://www.w3.org/2000/svg">
<g clip-path="url(#clip0_221_15464)">
<path fill-rule="evenodd" clip-rule="evenodd" d="M7.00002 1.75C7.19893 1.75 7.38969 1.82902 7.53035 1.96967C7.671 2.11032 7.75002 2.30109 7.75002 2.5V3.263C8.41202 3.25 9.14102 3.25 9.94402 3.25H14.056C14.859 3.25 15.588 3.25 16.25 3.263V2.5C16.25 2.30109 16.329 2.11032 16.4697 1.96967C16.6103 1.82902 16.8011 1.75 17 1.75C17.1989 1.75 17.3897 1.82902 17.5303 1.96967C17.671 2.11032 17.75 2.30109 17.75 2.5V3.327C18.01 3.347 18.2563 3.37233 18.489 3.403C19.661 3.561 20.61 3.893 21.359 4.641C22.107 5.39 22.439 6.339 22.597 7.511C22.6463 7.88567 22.682 8.29567 22.704 8.741C22.7584 8.88855 22.7651 9.04947 22.723 9.201C22.75 10.002 22.75 10.913 22.75 11.944V14.056C22.75 15.894 22.75 17.35 22.597 18.489C22.439 19.661 22.107 20.61 21.359 21.359C20.61 22.107 19.661 22.439 18.489 22.597C17.349 22.75 15.894 22.75 14.056 22.75H9.94402C8.10602 22.75 6.65002 22.75 5.51102 22.597C4.33902 22.439 3.39002 22.107 2.64102 21.359C1.89302 20.61 1.56102 19.661 1.40302 18.489C1.25002 17.349 1.25002 15.894 1.25002 14.056V11.944C1.25002 10.913 1.25002 10.002 1.27702 9.2C1.23529 9.04836 1.24228 8.88744 1.29702 8.74C1.31835 8.29533 1.35368 7.88567 1.40302 7.511C1.56102 6.339 1.89302 5.39 2.64102 4.641C3.39002 3.893 4.33902 3.561 5.51102 3.403C5.74435 3.37233 5.99068 3.347 6.25002 3.327V2.5C6.25002 2.30109 6.32903 2.11032 6.46969 1.96967C6.61034 1.82902 6.8011 1.75 7.00002 1.75ZM2.76302 9.75C2.75002 10.403 2.75002 11.146 2.75002 12V14C2.75002 15.907 2.75202 17.262 2.89002 18.29C3.02502 19.295 3.27902 19.875 3.70202 20.298C4.12502 20.721 4.70502 20.975 5.71102 21.11C6.73902 21.248 8.09302 21.25 10 21.25H14C15.907 21.25 17.262 21.248 18.29 21.11C19.295 20.975 19.875 20.721 20.298 20.298C20.721 19.875 20.975 19.295 21.11 18.289C21.248 17.262 21.25 15.907 21.25 14V12C21.25 11.146 21.25 10.403 21.237 9.75H2.76302ZM21.168 8.25H2.83202C2.84802 8.06067 2.86735 7.88067 2.89002 7.71C3.02502 6.705 3.27902 6.125 3.70202 5.702C4.12502 5.279 4.70502 5.025 5.71102 4.89C6.73902 4.752 8.09302 4.75 10 4.75H14C15.907 4.75 17.262 4.752 18.29 4.89C19.295 5.025 19.875 5.279 20.298 5.702C20.721 6.125 20.975 6.705 21.11 7.711C21.1327 7.881 21.152 8.06067 21.168 8.25ZM10.787 12.307C10.9241 12.3638 11.0412 12.4599 11.1236 12.5833C11.2061 12.7066 11.25 12.8516 11.25 13V17C11.25 17.1989 11.171 17.3897 11.0303 17.5303C10.8897 17.671 10.6989 17.75 10.5 17.75C10.3011 17.75 10.1103 17.671 9.96969 17.5303C9.82903 17.3897 9.75002 17.1989 9.75002 17V14.81L9.53001 15.03C9.38784 15.1625 9.19979 15.2346 9.00549 15.2312C8.81119 15.2277 8.62581 15.149 8.48839 15.0116C8.35098 14.8742 8.27227 14.6888 8.26884 14.4945C8.26541 14.3002 8.33754 14.1122 8.47002 13.97L9.97002 12.47C10.0748 12.3651 10.2084 12.2936 10.3538 12.2646C10.4992 12.2356 10.65 12.2504 10.787 12.307ZM14 13.75C13.9337 13.75 13.8701 13.7763 13.8232 13.8232C13.7764 13.8701 13.75 13.9337 13.75 14V16C13.75 16.0663 13.7764 16.1299 13.8232 16.1768C13.8701 16.2237 13.9337 16.25 14 16.25C14.0663 16.25 14.1299 16.2237 14.1768 16.1768C14.2237 16.1299 14.25 16.0663 14.25 16V14C14.25 13.9337 14.2237 13.8701 14.1768 13.8232C14.1299 13.7763 14.0663 13.75 14 13.75ZM12.25 14C12.25 13.5359 12.4344 13.0908 12.7626 12.7626C13.0908 12.4344 13.5359 12.25 14 12.25C14.4641 12.25 14.9093 12.4344 15.2375 12.7626C15.5656 13.0908 15.75 13.5359 15.75 14V16C15.75 16.4641 15.5656 16.9092 15.2375 17.2374C14.9093 17.5656 14.4641 17.75 14 17.75C13.5359 17.75 13.0908 17.5656 12.7626 17.2374C12.4344 16.9092 12.25 16.4641 12.25 16V14Z" fill="black"/>
</g>
<defs>
<clipPath id="clip0_221_15464">
<rect width="24" height="24" fill="white"/>
</clipPath>
</defs>
</svg>
