<svg width="24" height="24" viewBox="0 0 24 24" fill="none" xmlns="http://www.w3.org/2000/svg">
<g clip-path="url(#clip0_221_15502)">
<path fill-rule="evenodd" clip-rule="evenodd" d="M11.938 1.25H12.062C14.076 1.25 15.665 1.25 16.822 1.403C17.961 1.553 18.983 1.883 19.468 2.826C19.5387 2.962 19.5977 3.10267 19.645 3.248C19.976 4.258 19.486 5.214 18.788 6.118C18.078 7.037 16.954 8.15 15.53 9.56L13.066 12L15.53 14.44C16.954 15.85 18.078 16.963 18.788 17.882C19.486 18.786 19.976 19.742 19.645 20.752C19.5968 20.897 19.5376 21.038 19.468 21.174C18.983 22.117 17.961 22.447 16.823 22.597C15.665 22.75 14.076 22.75 12.063 22.75H11.938C9.92398 22.75 8.33498 22.75 7.17699 22.597C6.03899 22.447 5.01699 22.117 4.53099 21.174C4.46167 21.038 4.40283 20.8969 4.35498 20.752C4.02398 19.742 4.51398 18.786 5.21198 17.882C5.92198 16.963 7.04598 15.85 8.46999 14.44L10.934 12L8.46999 9.56C7.04598 8.15 5.92198 7.037 5.21198 6.118C4.51398 5.214 4.02398 4.258 4.35498 3.248C4.40298 3.10267 4.46165 2.962 4.53099 2.826C5.01699 1.883 6.03899 1.553 7.17699 1.403C8.33498 1.25 9.92498 1.25 11.938 1.25ZM12 10.945L14.43 8.538C15.908 7.075 16.96 6.031 17.6 5.201C18.262 4.345 18.297 3.953 18.22 3.715C18.197 3.64555 18.1686 3.57801 18.135 3.513C18.018 3.286 17.706 3.032 16.627 2.89C15.579 2.752 14.09 2.75 12 2.75C9.90998 2.75 8.41999 2.752 7.37299 2.89C6.29298 3.032 5.98198 3.286 5.86498 3.513C5.83142 3.57801 5.803 3.64555 5.77999 3.715C5.70299 3.953 5.73799 4.345 6.39999 5.201C7.03999 6.031 8.09198 7.075 9.56998 8.538L12 10.945ZM12 13.055L9.56998 15.462C8.09198 16.925 7.03999 17.969 6.39999 18.799C5.73799 19.655 5.70299 20.048 5.77999 20.285C5.80265 20.355 5.83098 20.4223 5.86498 20.487C5.98198 20.714 6.29399 20.968 7.37299 21.11C8.42099 21.248 9.90998 21.25 12 21.25C14.09 21.25 15.58 21.248 16.627 21.11C17.707 20.968 18.018 20.714 18.135 20.487C18.1683 20.4223 18.1967 20.355 18.22 20.285C18.297 20.047 18.262 19.655 17.6 18.799C16.96 17.969 15.908 16.925 14.43 15.462L12 13.055ZM9.24998 5.5C9.24998 5.30109 9.329 5.11032 9.46966 4.96967C9.61031 4.82902 9.80107 4.75 9.99998 4.75H14C14.1989 4.75 14.3897 4.82902 14.5303 4.96967C14.671 5.11032 14.75 5.30109 14.75 5.5C14.75 5.69891 14.671 5.88968 14.5303 6.03033C14.3897 6.17098 14.1989 6.25 14 6.25H9.99998C9.80107 6.25 9.61031 6.17098 9.46966 6.03033C9.329 5.88968 9.24998 5.69891 9.24998 5.5ZM9.24998 18.5C9.24998 18.3011 9.329 18.1103 9.46966 17.9697C9.61031 17.829 9.80107 17.75 9.99998 17.75H14C14.1989 17.75 14.3897 17.829 14.5303 17.9697C14.671 18.1103 14.75 18.3011 14.75 18.5C14.75 18.6989 14.671 18.8897 14.5303 19.0303C14.3897 19.171 14.1989 19.25 14 19.25H9.99998C9.80107 19.25 9.61031 19.171 9.46966 19.0303C9.329 18.8897 9.24998 18.6989 9.24998 18.5Z" fill="black"/>
</g>
<defs>
<clipPath id="clip0_221_15502">
<rect width="24" height="24" fill="white"/>
</clipPath>
</defs>
</svg>
