<svg width="24" height="24" viewBox="0 0 24 24" fill="none" xmlns="http://www.w3.org/2000/svg">
<g clip-path="url(#clip0_221_15517)">
<path fill-rule="evenodd" clip-rule="evenodd" d="M9.25 2C9.25 1.80109 9.32902 1.61032 9.46967 1.46967C9.61032 1.32902 9.80109 1.25 10 1.25H14C14.1989 1.25 14.3897 1.32902 14.5303 1.46967C14.671 1.61032 14.75 1.80109 14.75 2C14.75 2.19891 14.671 2.38968 14.5303 2.53033C14.3897 2.67098 14.1989 2.75 14 2.75H10C9.80109 2.75 9.61032 2.67098 9.46967 2.53033C9.32902 2.38968 9.25 2.19891 9.25 2ZM12 4.75C9.81196 4.75 7.71354 5.61919 6.16637 7.16637C4.61919 8.71354 3.75 10.812 3.75 13C3.75 15.188 4.61919 17.2865 6.16637 18.8336C7.71354 20.3808 9.81196 21.25 12 21.25C14.188 21.25 16.2865 20.3808 17.8336 18.8336C19.3808 17.2865 20.25 15.188 20.25 13C20.25 10.812 19.3808 8.71354 17.8336 7.16637C16.2865 5.61919 14.188 4.75 12 4.75ZM2.25 13C2.25 7.615 6.615 3.25 12 3.25C17.385 3.25 21.75 7.615 21.75 13C21.75 18.385 17.385 22.75 12 22.75C6.615 22.75 2.25 18.385 2.25 13ZM12 8.25C12.1989 8.25 12.3897 8.32902 12.5303 8.46967C12.671 8.61032 12.75 8.80109 12.75 9V13C12.75 13.1989 12.671 13.3897 12.5303 13.5303C12.3897 13.671 12.1989 13.75 12 13.75C11.8011 13.75 11.6103 13.671 11.4697 13.5303C11.329 13.3897 11.25 13.1989 11.25 13V9C11.25 8.80109 11.329 8.61032 11.4697 8.46967C11.6103 8.32902 11.8011 8.25 12 8.25Z" fill="black"/>
</g>
<defs>
<clipPath id="clip0_221_15517">
<rect width="24" height="24" fill="white"/>
</clipPath>
</defs>
</svg>
