<svg width="24" height="24" viewBox="0 0 24 24" fill="none" xmlns="http://www.w3.org/2000/svg">
<g clip-path="url(#clip0_221_15522)">
<path fill-rule="evenodd" clip-rule="evenodd" d="M11.164 1.25H12.836C13.567 1.25 14.182 1.25 14.681 1.31C15.21 1.375 15.693 1.515 16.116 1.855C16.539 2.195 16.782 2.635 16.959 3.138C17.127 3.612 17.259 4.212 17.419 4.926L17.656 5.994C18.476 6.76459 19.1293 7.69515 19.5754 8.72817C20.0216 9.7612 20.2512 10.8747 20.25 12C20.2512 13.1253 20.0216 14.2388 19.5754 15.2718C19.1293 16.3049 18.476 17.2354 17.656 18.006L17.418 19.074C17.26 19.788 17.127 20.388 16.959 20.862C16.782 21.364 16.54 21.805 16.116 22.145C15.693 22.485 15.21 22.625 14.681 22.69C14.182 22.75 13.567 22.75 12.836 22.75H11.164C10.433 22.75 9.818 22.75 9.319 22.69C8.79 22.625 8.307 22.485 7.884 22.145C7.461 21.805 7.218 21.365 7.041 20.862C6.873 20.388 6.741 19.788 6.581 19.074L6.344 18.006C5.52401 17.2354 4.87074 16.3049 4.42458 15.2718C3.97841 14.2388 3.74882 13.1253 3.75 12C3.75 9.633 4.747 7.498 6.344 5.994L6.582 4.926C6.74 4.212 6.873 3.612 7.041 3.138C7.218 2.636 7.46 2.195 7.884 1.855C8.307 1.515 8.79 1.375 9.319 1.31C9.818 1.25 10.433 1.25 11.164 1.25ZM8.172 4.69C9.35259 4.07008 10.6666 3.74743 12 3.75C13.382 3.75 14.684 4.09 15.828 4.69C15.7529 4.33445 15.6584 3.98326 15.545 3.638C15.418 3.279 15.302 3.125 15.178 3.025C15.053 2.925 14.878 2.845 14.5 2.8C14.102 2.751 13.579 2.75 12.791 2.75H11.21C10.422 2.75 9.898 2.751 9.501 2.8C9.124 2.845 8.948 2.925 8.823 3.025C8.699 3.125 8.583 3.279 8.456 3.638C8.361 3.906 8.276 4.242 8.173 4.69M8.173 19.31C8.276 19.758 8.361 20.094 8.456 20.362C8.583 20.721 8.699 20.875 8.823 20.975C8.948 21.075 9.123 21.155 9.501 21.201C9.898 21.249 10.422 21.25 11.21 21.25H12.792C13.58 21.25 14.103 21.249 14.502 21.2C14.878 21.155 15.054 21.075 15.179 20.975C15.303 20.875 15.419 20.721 15.546 20.362C15.641 20.094 15.726 19.758 15.829 19.31C14.685 19.91 13.383 20.25 12.001 20.25C10.6676 20.2526 9.35359 19.9299 8.173 19.31ZM12 5.25C10.2098 5.25 8.4929 5.96116 7.22703 7.22703C5.96116 8.4929 5.25 10.2098 5.25 12C5.25 13.7902 5.96116 15.5071 7.22703 16.773C8.4929 18.0388 10.2098 18.75 12 18.75C13.7902 18.75 15.5071 18.0388 16.773 16.773C18.0388 15.5071 18.75 13.7902 18.75 12C18.75 10.2098 18.0388 8.4929 16.773 7.22703C15.5071 5.96116 13.7902 5.25 12 5.25ZM12 8.173C12.1989 8.173 12.3897 8.25202 12.5303 8.39267C12.671 8.53332 12.75 8.72409 12.75 8.923V11.681L14.52 13.383C14.5943 13.4504 14.6544 13.5321 14.6966 13.6232C14.7388 13.7143 14.7623 13.8129 14.7657 13.9132C14.7691 14.0135 14.7523 14.1135 14.7163 14.2072C14.6804 14.3009 14.626 14.3864 14.5564 14.4587C14.4867 14.531 14.4033 14.5886 14.311 14.6281C14.2187 14.6676 14.1195 14.6881 14.0191 14.6885C13.9187 14.6889 13.8193 14.6691 13.7267 14.6304C13.6341 14.5917 13.5502 14.5347 13.48 14.463L11.48 12.541C11.4072 12.471 11.3493 12.3869 11.3098 12.294C11.2703 12.201 11.2499 12.101 11.25 12V8.923C11.25 8.72409 11.329 8.53332 11.4697 8.39267C11.6103 8.25202 11.8011 8.173 12 8.173Z" fill="black"/>
</g>
<defs>
<clipPath id="clip0_221_15522">
<rect width="24" height="24" fill="white"/>
</clipPath>
</defs>
</svg>
