<svg width="24" height="24" viewBox="0 0 24 24" fill="none" xmlns="http://www.w3.org/2000/svg">
<g clip-path="url(#clip0_221_15497)">
<path fill-rule="evenodd" clip-rule="evenodd" d="M14.394 3.06493C12.0558 2.43514 9.56363 2.75052 7.456 3.94293C7.37011 3.99405 7.27488 4.02748 7.17589 4.04126C7.07689 4.05504 6.97615 4.0489 6.87956 4.0232C6.78298 3.9975 6.69251 3.95275 6.61346 3.89158C6.53442 3.83042 6.46839 3.75407 6.41927 3.66703C6.37015 3.57998 6.33893 3.484 6.32743 3.38472C6.31593 3.28544 6.32439 3.18486 6.35231 3.08889C6.38024 2.99292 6.42706 2.90351 6.49003 2.82589C6.553 2.74828 6.63085 2.68403 6.719 2.63693C9.16875 1.2512 12.0652 0.884477 14.783 1.61593C20.517 3.15293 23.921 9.04693 22.383 14.7819C20.847 20.5169 14.953 23.9199 9.218 22.3829C3.483 20.8459 0.0800016 14.9519 1.617 9.21693C1.9114 8.11083 2.38138 7.05913 3.009 6.10193C3.583 5.22693 4.741 5.15893 5.474 5.75193L12.472 11.4169C12.6266 11.5421 12.7252 11.7236 12.746 11.9214C12.7668 12.1193 12.7082 12.3173 12.583 12.4719C12.4578 12.6266 12.2763 12.7251 12.0785 12.7459C11.8806 12.7667 11.6826 12.7081 11.528 12.5829L4.53 6.91793C4.4831 6.87903 4.42268 6.86033 4.362 6.86593C4.34207 6.8675 4.32278 6.87363 4.30561 6.88386C4.28844 6.8941 4.27386 6.90815 4.263 6.92493C3.7228 7.74839 3.31832 8.65324 3.065 9.60493C2.59143 11.372 2.65248 13.2398 3.24043 14.9722C3.82839 16.7046 4.91684 18.2238 6.36816 19.3376C7.81948 20.4513 9.56847 21.1098 11.394 21.2296C13.2195 21.3494 15.0395 20.9252 16.624 20.0106C18.2084 19.096 19.486 17.7321 20.2954 16.0914C21.1047 14.4507 21.4093 12.6069 21.1707 10.7931C20.9321 8.97928 20.1611 7.27694 18.955 5.90134C17.7489 4.52574 16.162 3.53867 14.395 3.06493" fill="black"/>
</g>
<defs>
<clipPath id="clip0_221_15497">
<rect width="24" height="24" fill="white"/>
</clipPath>
</defs>
</svg>
