<svg width="24" height="24" viewBox="0 0 24 24" fill="none" xmlns="http://www.w3.org/2000/svg">
<g clip-path="url(#clip0_221_15507)">
<path fill-rule="evenodd" clip-rule="evenodd" d="M8.136 1.60296C8.24131 1.77154 8.2754 1.97503 8.23077 2.16872C8.18615 2.36241 8.06646 2.53046 7.898 2.63596L3.898 5.13597C3.72932 5.24152 3.52562 5.27575 3.33171 5.23111C3.1378 5.18648 2.96956 5.06664 2.864 4.89796C2.75844 4.72929 2.72422 4.52559 2.76885 4.33167C2.81349 4.13776 2.93332 3.96952 3.102 3.86396L7.102 1.36396C7.18557 1.31171 7.27862 1.27644 7.37583 1.26017C7.47304 1.2439 7.57251 1.24695 7.66854 1.26914C7.76457 1.29134 7.85528 1.33225 7.93549 1.38953C8.01571 1.44681 8.08384 1.51934 8.136 1.60296ZM15.864 1.60296C15.9162 1.51934 15.9843 1.44681 16.0645 1.38953C16.1447 1.33225 16.2354 1.29134 16.3315 1.26914C16.4275 1.24695 16.527 1.2439 16.6242 1.26017C16.7214 1.27644 16.8144 1.31171 16.898 1.36396L20.898 3.86396C21.0667 3.96952 21.1865 4.13776 21.2311 4.33167C21.2758 4.52559 21.2416 4.72929 21.136 4.89796C21.0304 5.06664 20.8622 5.18648 20.6683 5.23111C20.4744 5.27575 20.2707 5.24152 20.102 5.13597L16.102 2.63596C15.9335 2.53046 15.8139 2.36241 15.7692 2.16872C15.7246 1.97503 15.7587 1.77154 15.864 1.60296ZM12 4.74996C9.81196 4.74996 7.71354 5.61916 6.16637 7.16633C4.61919 8.71351 3.75 10.8119 3.75 13C3.75 15.188 4.61919 17.2864 6.16637 18.8336C7.71354 20.3808 9.81196 21.25 12 21.25C14.188 21.25 16.2865 20.3808 17.8336 18.8336C19.3808 17.2864 20.25 15.188 20.25 13C20.25 10.8119 19.3808 8.71351 17.8336 7.16633C16.2865 5.61916 14.188 4.74996 12 4.74996ZM2.25 13C2.25 7.61497 6.615 3.24996 12 3.24996C17.385 3.24996 21.75 7.61497 21.75 13C21.75 18.385 17.385 22.75 12 22.75C6.615 22.75 2.25 18.385 2.25 13ZM12 8.24997C12.1989 8.24997 12.3897 8.32898 12.5303 8.46964C12.671 8.61029 12.75 8.80105 12.75 8.99997V12.69L15.03 14.97C15.1037 15.0386 15.1628 15.1214 15.2038 15.2134C15.2448 15.3054 15.2668 15.4047 15.2686 15.5054C15.2704 15.6061 15.2518 15.7062 15.2141 15.7996C15.1764 15.893 15.1203 15.9778 15.049 16.049C14.9778 16.1202 14.893 16.1764 14.7996 16.2141C14.7062 16.2518 14.6062 16.2703 14.5055 16.2686C14.4048 16.2668 14.3055 16.2447 14.2135 16.2037C14.1215 16.1628 14.0387 16.1037 13.97 16.03L11.47 13.53C11.3293 13.3894 11.2502 13.1988 11.25 13V8.99997C11.25 8.80105 11.329 8.61029 11.4697 8.46964C11.6103 8.32898 11.8011 8.24997 12 8.24997Z" fill="black"/>
</g>
<defs>
<clipPath id="clip0_221_15507">
<rect width="24" height="24" fill="white"/>
</clipPath>
</defs>
</svg>
