<svg width="24" height="24" viewBox="0 0 24 24" fill="none" xmlns="http://www.w3.org/2000/svg">
<g clip-path="url(#clip0_221_15492)">
<path fill-rule="evenodd" clip-rule="evenodd" d="M9.09999 2.398C9.13548 2.48992 9.15251 2.58794 9.15011 2.68644C9.1477 2.78495 9.12591 2.88202 9.08598 2.9721C9.04605 3.06218 8.98875 3.14351 8.91738 3.21144C8.846 3.27937 8.76193 3.33257 8.66999 3.368C8.52855 3.42212 8.38851 3.47981 8.24999 3.541C8.15938 3.58553 8.06071 3.6113 7.9599 3.61678C7.85909 3.62226 7.75821 3.60733 7.66331 3.57289C7.56841 3.53844 7.48144 3.48519 7.40761 3.41633C7.33379 3.34746 7.27463 3.2644 7.23367 3.17212C7.19272 3.07984 7.17082 2.98024 7.16928 2.8793C7.16775 2.77835 7.18661 2.67813 7.22474 2.58465C7.26286 2.49117 7.31947 2.40634 7.39117 2.33527C7.46287 2.26419 7.54818 2.20832 7.64199 2.171C7.80199 2.099 7.96465 2.03133 8.12999 1.968C8.22191 1.93251 8.31992 1.91548 8.41843 1.91788C8.51694 1.92028 8.614 1.94207 8.70409 1.98201C8.79417 2.02194 8.8755 2.07923 8.94343 2.15061C9.01136 2.22199 9.06456 2.30605 9.09999 2.398ZM5.64798 4.24C5.78504 4.38404 5.85929 4.57661 5.85442 4.77538C5.84954 4.97415 5.76594 5.16285 5.62199 5.3C5.51229 5.40461 5.40526 5.51198 5.30099 5.622C5.16374 5.76615 4.97485 5.84986 4.77587 5.85474C4.57689 5.85962 4.38413 5.78525 4.23998 5.648C4.09584 5.51075 4.01212 5.32186 4.00725 5.12288C4.00237 4.92391 4.07674 4.73115 4.21399 4.587C4.33599 4.46033 4.46032 4.336 4.58699 4.214C4.73103 4.07694 4.9236 4.00269 5.12237 4.00757C5.32114 4.01244 5.51084 4.09605 5.64798 4.24ZM3.15999 7.261C3.25001 7.30098 3.33129 7.3583 3.39916 7.42969C3.46703 7.50108 3.52017 7.58515 3.55555 7.67708C3.59093 7.76901 3.60786 7.86701 3.60536 7.96549C3.60286 8.06396 3.58098 8.16098 3.54099 8.251C3.47965 8.389 3.42165 8.52867 3.36699 8.67C3.29224 8.85109 3.1496 8.99575 2.96957 9.07303C2.78954 9.15031 2.58642 9.15408 2.40365 9.08353C2.22088 9.01299 2.07297 8.87372 1.99155 8.69553C1.91013 8.51733 1.90168 8.31435 1.96799 8.13C2.03065 7.96533 2.09799 7.80267 2.16999 7.642C2.20996 7.55197 2.26729 7.4707 2.33868 7.40283C2.41007 7.33495 2.49413 7.28181 2.58606 7.24643C2.678 7.21105 2.776 7.19413 2.87447 7.19663C2.97295 7.19913 3.06997 7.221 3.15999 7.261ZM2.02099 11.004C2.11949 11.0063 2.21656 11.0281 2.30666 11.0679C2.39677 11.1078 2.47813 11.165 2.54611 11.2363C2.61409 11.3077 2.66735 11.3917 2.70284 11.4836C2.73834 11.5755 2.75538 11.6735 2.75299 11.772C2.74952 11.924 2.74952 12.076 2.75299 12.228C2.75776 12.4269 2.68332 12.6196 2.54604 12.7636C2.40877 12.9076 2.2199 12.9912 2.02099 12.996C1.82207 13.0008 1.62941 12.9263 1.48538 12.7891C1.34136 12.6518 1.25776 12.4629 1.25299 12.264C1.24876 12.088 1.24876 11.912 1.25299 11.736C1.25532 11.6375 1.27704 11.5404 1.31691 11.4503C1.35677 11.3602 1.414 11.2789 1.48532 11.2109C1.55664 11.1429 1.64066 11.0896 1.73257 11.0541C1.82448 11.0186 1.92249 11.0016 2.02099 11.004ZM21.603 14.9C21.7885 14.9717 21.9379 15.1142 22.0184 15.2962C22.0988 15.4781 22.1037 15.6845 22.032 15.87C21.9687 16.0347 21.9013 16.1973 21.83 16.358C21.79 16.448 21.7327 16.5293 21.6613 16.5972C21.5899 16.665 21.5058 16.7182 21.4139 16.7535C21.322 16.7889 21.224 16.8058 21.1255 16.8033C21.027 16.8009 20.93 16.779 20.84 16.739C20.75 16.699 20.6687 16.6417 20.6008 16.5703C20.533 16.4989 20.4798 16.4148 20.4444 16.3229C20.4091 16.231 20.3921 16.133 20.3946 16.0345C20.3971 15.936 20.419 15.839 20.459 15.749C20.5205 15.6108 20.5785 15.4711 20.633 15.33C20.6684 15.2381 20.7216 15.154 20.7895 15.0826C20.8575 15.0112 20.9388 14.9539 21.0289 14.914C21.119 14.8741 21.216 14.8523 21.3145 14.8499C21.413 14.8475 21.5111 14.8645 21.603 14.9ZM2.39799 14.9C2.48991 14.8645 2.58792 14.8475 2.68643 14.8499C2.78494 14.8523 2.882 14.8741 2.97209 14.914C3.06217 14.9539 3.1435 15.0112 3.21143 15.0826C3.27936 15.154 3.33256 15.2381 3.36799 15.33C3.42199 15.4707 3.47965 15.6107 3.54099 15.75C3.58551 15.8406 3.61129 15.9393 3.61677 16.0401C3.62225 16.1409 3.60732 16.2418 3.57287 16.3367C3.53843 16.4316 3.48518 16.5185 3.41631 16.5924C3.34745 16.6662 3.26439 16.7254 3.17211 16.7663C3.07983 16.8073 2.98023 16.8292 2.87928 16.8307C2.77834 16.8322 2.67812 16.8134 2.58463 16.7752C2.49115 16.7371 2.40633 16.6805 2.33525 16.6088C2.26417 16.5371 2.2083 16.4518 2.17099 16.358C2.09899 16.198 2.03132 16.0353 1.96799 15.87C1.93249 15.7781 1.91546 15.6801 1.91786 15.5816C1.92027 15.483 1.94206 15.386 1.98199 15.2959C2.02192 15.2058 2.07922 15.1245 2.1506 15.0566C2.22197 14.9886 2.30604 14.9354 2.39799 14.9ZM19.76 18.352C20.06 18.638 20.071 19.112 19.786 19.412C19.664 19.54 19.5397 19.6647 19.413 19.786C19.3416 19.854 19.2576 19.9072 19.1656 19.9427C19.0737 19.9781 18.9756 19.9952 18.8771 19.9927C18.6781 19.9879 18.4892 19.9041 18.352 19.76C18.2147 19.6159 18.1404 19.4231 18.1452 19.2241C18.1501 19.0251 18.2338 18.8362 18.378 18.699C18.488 18.595 18.595 18.4883 18.699 18.379C18.836 18.2349 19.0246 18.1511 19.2234 18.1461C19.4222 18.141 19.6158 18.2151 19.76 18.352ZM4.23899 18.352C4.38303 18.2149 4.5756 18.1407 4.77437 18.1456C4.97314 18.1504 5.16184 18.234 5.29899 18.378C5.40365 18.488 5.51098 18.595 5.62099 18.699C5.76513 18.8362 5.84885 19.0251 5.85373 19.2241C5.8586 19.4231 5.78423 19.6159 5.64699 19.76C5.50974 19.9041 5.32085 19.9879 5.12187 19.9927C4.92289 19.9976 4.73013 19.9232 4.58599 19.786C4.45869 19.6647 4.33432 19.5403 4.21299 19.413C4.07593 19.269 4.00168 19.0764 4.00655 18.8776C4.01143 18.6788 4.09503 18.4902 4.23899 18.353M7.25999 20.841C7.29996 20.751 7.35729 20.6697 7.42868 20.6018C7.50007 20.534 7.58413 20.4808 7.67606 20.4454C7.768 20.4101 7.866 20.3931 7.96447 20.3956C8.06295 20.3981 8.15997 20.42 8.24999 20.46C8.38799 20.5213 8.52765 20.5793 8.66898 20.634C8.85008 20.7087 8.99474 20.8514 9.07202 21.0314C9.1493 21.2114 9.15307 21.4146 9.08252 21.5973C9.01197 21.7801 8.87271 21.928 8.69451 22.0094C8.51632 22.0909 8.31334 22.0993 8.12898 22.033C7.96473 21.9696 7.80201 21.9022 7.64099 21.831C7.55096 21.791 7.46969 21.7337 7.40181 21.6623C7.33394 21.5909 7.2808 21.5069 7.24542 21.4149C7.21004 21.323 7.19311 21.225 7.19561 21.1265C7.19811 21.028 7.21999 20.931 7.25999 20.841ZM16.738 20.841C16.778 20.931 16.7999 21.028 16.8024 21.1265C16.8049 21.225 16.7879 21.323 16.7526 21.4149C16.7172 21.5069 16.664 21.5909 16.5962 21.6623C16.5283 21.7337 16.447 21.791 16.357 21.831C16.197 21.9023 16.0343 21.9697 15.869 22.033C15.7771 22.0685 15.6791 22.0855 15.5806 22.083C15.4821 22.0806 15.385 22.0588 15.2949 22.0189C15.2049 21.979 15.1235 21.9217 15.0556 21.8503C14.9877 21.779 14.9344 21.6949 14.899 21.603C14.8635 21.5111 14.8465 21.4131 14.8489 21.3146C14.8514 21.2161 14.8732 21.119 14.9131 21.0289C14.953 20.9389 15.0103 20.8575 15.0817 20.7896C15.153 20.7217 15.2371 20.6685 15.329 20.633C15.4704 20.5789 15.6105 20.5212 15.749 20.46C15.9307 20.3795 16.1369 20.3745 16.3223 20.4459C16.5077 20.5173 16.6572 20.6594 16.738 20.841ZM11.003 21.98C11.0053 21.8815 11.027 21.7844 11.0669 21.6943C11.1068 21.6042 11.164 21.5229 11.2353 21.4549C11.3066 21.3869 11.3907 21.3336 11.4826 21.2981C11.5745 21.2626 11.6725 21.2456 11.771 21.248C11.923 21.2519 12.075 21.2519 12.227 21.248C12.4259 21.2432 12.6186 21.3177 12.7626 21.4549C12.9066 21.5922 12.9902 21.7811 12.995 21.98C12.9998 22.1789 12.9253 22.3716 12.788 22.5156C12.6508 22.6596 12.4619 22.7432 12.263 22.748C12.087 22.7522 11.911 22.7522 11.735 22.748C11.6365 22.7457 11.5394 22.7239 11.4493 22.6841C11.3592 22.6442 11.2778 22.587 11.2099 22.5157C11.1419 22.4443 11.0886 22.3603 11.0531 22.2684C11.0176 22.1765 11.0006 22.0785 11.003 21.98ZM11.25 2C11.25 1.80109 11.329 1.61032 11.4697 1.46967C11.6103 1.32902 11.8011 1.25 12 1.25C17.937 1.25 22.75 6.063 22.75 12C22.75 12.1989 22.671 12.3897 22.5303 12.5303C22.3897 12.671 22.1989 12.75 22 12.75C21.8011 12.75 21.6103 12.671 21.4697 12.5303C21.329 12.3897 21.25 12.1989 21.25 12C21.25 9.54675 20.2754 7.19397 18.5407 5.45926C16.806 3.72455 14.4532 2.75 12 2.75C11.8011 2.75 11.6103 2.67098 11.4697 2.53033C11.329 2.38968 11.25 2.19891 11.25 2ZM12 8.25C12.1989 8.25 12.3897 8.32902 12.5303 8.46967C12.671 8.61032 12.75 8.80109 12.75 9V12.25H16C16.1989 12.25 16.3897 12.329 16.5303 12.4697C16.671 12.6103 16.75 12.8011 16.75 13C16.75 13.1989 16.671 13.3897 16.5303 13.5303C16.3897 13.671 16.1989 13.75 16 13.75H12C11.8011 13.75 11.6103 13.671 11.4697 13.5303C11.329 13.3897 11.25 13.1989 11.25 13V9C11.25 8.80109 11.329 8.61032 11.4697 8.46967C11.6103 8.32902 11.8011 8.25 12 8.25Z" fill="black"/>
</g>
<defs>
<clipPath id="clip0_221_15492">
<rect width="24" height="24" fill="white"/>
</clipPath>
</defs>
</svg>
