<svg width="24" height="24" viewBox="0 0 24 24" fill="none" xmlns="http://www.w3.org/2000/svg">
<g clip-path="url(#clip0_221_15512)">
<path fill-rule="evenodd" clip-rule="evenodd" d="M2.78 11.25H4C4.19891 11.25 4.38968 11.329 4.53033 11.4697C4.67098 11.6103 4.75 11.8011 4.75 12C4.75 12.1989 4.67098 12.3897 4.53033 12.5303C4.38968 12.671 4.19891 12.75 4 12.75H2.78C2.93367 14.6813 3.69309 16.5147 4.95 17.989L5.97 16.969C6.11152 16.8324 6.301 16.7569 6.49765 16.7587C6.6943 16.7605 6.88237 16.8395 7.02136 16.9786C7.16035 17.1178 7.23914 17.3059 7.24076 17.5025C7.24237 17.6992 7.16669 17.8886 7.03 18.03L6.011 19.05C7.68099 20.4743 9.80515 21.2545 12 21.25C14.1948 21.2545 16.319 20.4743 17.989 19.05L16.969 18.03C16.8974 17.9608 16.8403 17.878 16.801 17.7865C16.7618 17.695 16.7411 17.5965 16.7403 17.4969C16.7395 17.3974 16.7585 17.2986 16.7963 17.2065C16.834 17.1143 16.8898 17.0306 16.9602 16.9602C17.0307 16.8898 17.1144 16.8342 17.2066 16.7965C17.2988 16.7588 17.3976 16.7399 17.4972 16.7408C17.5967 16.7417 17.6951 16.7625 17.7866 16.8018C17.8781 16.8412 17.9608 16.8983 18.03 16.97L19.05 17.989C20.3069 16.5147 21.0663 14.6813 21.22 12.75H20C19.8011 12.75 19.6103 12.671 19.4697 12.5303C19.329 12.3897 19.25 12.1989 19.25 12C19.25 11.8011 19.329 11.6103 19.4697 11.4697C19.6103 11.329 19.8011 11.25 20 11.25H21.22C21.0663 9.31875 20.3069 7.48529 19.05 6.011L18.03 7.031C17.9608 7.1026 17.878 7.1597 17.7865 7.19896C17.695 7.23822 17.5965 7.25886 17.4969 7.25968C17.3974 7.2605 17.2986 7.24148 17.2065 7.20372C17.1143 7.16597 17.0306 7.11024 16.9602 7.03979C16.8898 6.96934 16.8342 6.88557 16.7965 6.79338C16.7588 6.70119 16.7399 6.60242 16.7408 6.50284C16.7417 6.40326 16.7625 6.30485 16.8018 6.21337C16.8412 6.12188 16.8983 6.03915 16.97 5.97L17.989 4.95C16.5147 3.69309 14.6813 2.93367 12.75 2.78V4C12.75 4.19891 12.671 4.38968 12.5303 4.53033C12.3897 4.67098 12.1989 4.75 12 4.75C11.8011 4.75 11.6103 4.67098 11.4697 4.53033C11.329 4.38968 11.25 4.19891 11.25 4V2.78C9.31875 2.93367 7.48529 3.69309 6.011 4.95L7.031 5.97C7.16755 6.11152 7.24306 6.301 7.24126 6.49765C7.23946 6.6943 7.16049 6.88237 7.02137 7.02136C6.88225 7.16035 6.6941 7.23914 6.49745 7.24076C6.3008 7.24237 6.11139 7.16669 5.97 7.03L4.95 6.011C3.69309 7.48529 2.93367 9.31875 2.78 11.25ZM1.25 12C1.25 6.063 6.063 1.25 12 1.25C17.937 1.25 22.75 6.063 22.75 12C22.75 17.937 17.937 22.75 12 22.75C6.063 22.75 1.25 17.937 1.25 12ZM13.834 10.652C13.412 10.23 12.8397 9.99299 12.243 9.99299C11.6463 9.99299 11.074 10.23 10.652 10.652C10.23 11.074 9.99299 11.6463 9.99299 12.243C9.99299 12.8397 10.23 13.412 10.652 13.834C10.767 13.949 10.997 14.092 11.37 14.238C11.729 14.378 12.163 14.5 12.629 14.603C13.389 14.77 13.849 14.868 14.194 14.873C14.475 14.879 14.589 14.822 14.706 14.706C14.823 14.59 14.879 14.475 14.874 14.194C14.868 13.849 14.77 13.389 14.603 12.629C14.5136 12.2003 14.3916 11.7791 14.238 11.369C14.092 10.997 13.948 10.767 13.834 10.652ZM9.59 9.59C10.2932 8.88683 11.247 8.4918 12.2415 8.4918C13.236 8.4918 14.1898 8.88683 14.893 9.59C15.223 9.92 15.459 10.375 15.633 10.82C15.813 11.28 15.955 11.796 16.067 12.305L16.081 12.371C16.229 13.043 16.364 13.654 16.373 14.167C16.383 14.76 16.23 15.301 15.765 15.765C15.3 16.229 14.76 16.383 14.167 16.373C13.654 16.363 13.044 16.229 12.371 16.081L12.305 16.067C11.7999 15.9608 11.3037 15.8157 10.821 15.633C10.375 15.459 9.921 15.223 9.59 14.893C8.88683 14.1898 8.4918 13.236 8.4918 12.2415C8.4918 11.247 8.88683 10.2932 9.59 9.59Z" fill="black"/>
</g>
<defs>
<clipPath id="clip0_221_15512">
<rect width="24" height="24" fill="white"/>
</clipPath>
</defs>
</svg>
