<svg width="24" height="24" viewBox="0 0 24 24" fill="none" xmlns="http://www.w3.org/2000/svg">
<g clip-path="url(#clip0_221_15481)">
<path d="M17 1.75C17.1989 1.75 17.3896 1.82907 17.5303 1.96973C17.6709 2.11038 17.75 2.30109 17.75 2.5V3.32715C18.01 3.34715 18.2566 3.37265 18.4893 3.40332C19.6611 3.56134 20.6104 3.89269 21.3594 4.64062C22.1073 5.38956 22.4387 6.33888 22.5967 7.51074C22.646 7.88541 22.6821 8.29588 22.7041 8.74121C22.7584 8.8887 22.7647 9.04971 22.7227 9.20117C22.7497 10.0021 22.75 10.9134 22.75 11.9443V14.0557C22.75 15.8937 22.7497 17.3503 22.5967 18.4893C22.4387 19.6611 22.1073 20.6104 21.3594 21.3594C20.6104 22.1073 19.6611 22.4387 18.4893 22.5967C17.3493 22.7497 15.8937 22.75 14.0557 22.75H9.94434C8.10634 22.75 6.64974 22.7497 5.51074 22.5967C4.33888 22.4387 3.38956 22.1073 2.64062 21.3594C1.89269 20.6104 1.56134 19.6611 1.40332 18.4893C1.25032 17.3493 1.25 15.8937 1.25 14.0557V11.9443C1.25 10.9134 1.25035 10.0022 1.27734 9.2002C1.23564 9.04864 1.24223 8.88761 1.29688 8.74023C1.31821 8.29557 1.35399 7.88541 1.40332 7.51074C1.56134 6.33888 1.89269 5.38956 2.64062 4.64062C3.38956 3.89269 4.33888 3.56134 5.51074 3.40332C5.74407 3.37265 5.99067 3.34715 6.25 3.32715V2.5C6.25 2.30109 6.32907 2.11038 6.46973 1.96973C6.61038 1.82907 6.80109 1.75 7 1.75C7.19891 1.75 7.38962 1.82907 7.53027 1.96973C7.67093 2.11038 7.75 2.30109 7.75 2.5V3.2627C8.412 3.2497 9.14134 3.25 9.94434 3.25H14.0557C14.8587 3.25 15.588 3.2497 16.25 3.2627V2.5C16.25 2.30109 16.3291 2.11038 16.4697 1.96973C16.6104 1.82907 16.8011 1.75 17 1.75ZM2.7627 9.75C2.7497 10.403 2.75 11.146 2.75 12V14C2.75 15.907 2.75165 17.262 2.88965 18.29C3.02465 19.295 3.27915 19.8749 3.70215 20.2979C4.12515 20.7208 4.70495 20.9754 5.71094 21.1104C6.73894 21.2484 8.093 21.25 10 21.25H14C15.907 21.25 17.262 21.2484 18.29 21.1104C19.295 20.9754 19.8749 20.7209 20.2979 20.2979C20.7208 19.8749 20.9754 19.2951 21.1104 18.2891C21.2484 17.2621 21.25 15.907 21.25 14V12C21.25 11.146 21.2503 10.403 21.2373 9.75H2.7627ZM10 4.75C8.093 4.75 6.73894 4.75165 5.71094 4.88965C4.70495 5.02465 4.12515 5.27915 3.70215 5.70215C3.27915 6.12515 3.02465 6.70496 2.88965 7.70996C2.86698 7.88062 2.84803 8.06067 2.83203 8.25H21.168C21.152 8.06067 21.133 7.88094 21.1104 7.71094C20.9754 6.70495 20.7208 6.12515 20.2979 5.70215C19.8749 5.27915 19.295 5.02465 18.29 4.88965C17.262 4.75165 15.907 4.75 14 4.75H10Z" fill="black"/>
</g>
<defs>
<clipPath id="clip0_221_15481">
<rect width="24" height="24" fill="white"/>
</clipPath>
</defs>
</svg>
