<svg width="24" height="24" viewBox="0 0 24 24" fill="none" xmlns="http://www.w3.org/2000/svg">
<path fill-rule="evenodd" clip-rule="evenodd" d="M7.49563 4.31234C7.76884 2.97187 8.96195 2.02332 10.328 2.02332H13.672C15.038 2.02332 16.2301 2.97187 16.5044 4.31234C16.5346 4.45995 16.6136 4.59309 16.7287 4.69035C16.8438 4.78761 16.9882 4.84332 17.1388 4.84852H17.1726C18.6082 4.91197 19.7113 5.08797 20.6322 5.69271C21.2124 6.07336 21.7117 6.56248 22.1006 7.13448C22.5846 7.84462 22.7974 8.66118 22.8997 9.64759C23 10.6125 23 11.821 23 13.3518V13.4388C23 14.9695 23 16.179 22.8997 17.1429C22.7974 18.1294 22.5846 18.9459 22.1006 19.6571C21.7096 20.2286 21.2108 20.7184 20.6322 21.0988C19.9128 21.5706 19.0871 21.7793 18.0863 21.8786C17.106 21.9768 15.8771 21.9768 14.3156 21.9768H9.68437C8.12288 21.9768 6.89395 21.9768 5.91367 21.8786C4.91293 21.7793 4.08716 21.5716 3.36781 21.0988C2.7891 20.7181 2.29031 20.228 1.89944 19.6561C1.41544 18.9459 1.2026 18.1294 1.10028 17.1429C1 16.179 1 14.9695 1 13.4388V13.3518C1 11.821 1 10.6125 1.10028 9.64759C1.2026 8.66118 1.41544 7.84462 1.89944 7.13448C2.29031 6.56255 2.7891 6.07245 3.36781 5.69169C4.28874 5.08797 5.39181 4.91197 6.82744 4.84955L6.84484 4.84852H6.86121C7.01179 4.84332 7.15624 4.78761 7.27132 4.69035C7.38639 4.59309 7.4654 4.45995 7.49563 4.31234ZM10.328 3.5582C9.67312 3.5582 9.12363 4.0115 8.99981 4.61829C8.80028 5.60062 7.92846 6.3742 6.87963 6.38341C5.50028 6.4448 4.76149 6.61364 4.20893 6.97587C3.79906 7.24594 3.44562 7.59312 3.16828 7.99811C2.88586 8.41252 2.716 8.94359 2.62595 9.8062C2.53591 10.6821 2.53488 11.8118 2.53488 13.3958C2.53488 14.9798 2.53488 16.1084 2.62698 16.9843C2.716 17.8469 2.88586 18.378 3.1693 18.7935C3.44353 19.1966 3.79656 19.5445 4.20995 19.8157C4.63665 20.095 5.18307 20.2639 6.06614 20.3519C6.96047 20.4409 8.11265 20.4419 9.72633 20.4419H14.2737C15.8863 20.4419 17.0385 20.4419 17.9339 20.3519C18.8169 20.2639 19.3633 20.0961 19.79 19.8157C20.2034 19.5445 20.5575 19.1966 20.8317 18.7924C21.1141 18.378 21.284 17.8469 21.374 16.9843C21.4641 16.1084 21.4651 14.9788 21.4651 13.3958C21.4651 11.8128 21.4651 10.6821 21.373 9.8062C21.284 8.94359 21.1141 8.41252 20.8307 7.99811C20.5535 7.59276 20.2 7.24522 19.79 6.97485C19.2395 6.61364 18.5007 6.4448 17.1193 6.38341C16.0715 6.37318 15.1997 5.60164 15.0002 4.61829C14.9347 4.31569 14.7668 4.04495 14.5248 3.85181C14.2828 3.65867 13.9816 3.55496 13.672 3.5582H10.328ZM12 10.721C11.3894 10.721 10.8038 10.9636 10.372 11.3953C9.94024 11.8271 9.69767 12.4127 9.69767 13.0233C9.69767 13.6339 9.94024 14.2195 10.372 14.6513C10.8038 15.0831 11.3894 15.3256 12 15.3256C12.6106 15.3256 13.1962 15.0831 13.628 14.6513C14.0598 14.2195 14.3023 13.6339 14.3023 13.0233C14.3023 12.4127 14.0598 11.8271 13.628 11.3953C13.1962 10.9636 12.6106 10.721 12 10.721ZM8.16279 13.0233C8.16279 12.0056 8.56707 11.0296 9.28668 10.31C10.0063 9.59038 10.9823 9.18611 12 9.18611C13.0177 9.18611 13.9937 9.59038 14.7133 10.31C15.4329 11.0296 15.8372 12.0056 15.8372 13.0233C15.8372 14.041 15.4329 15.017 14.7133 15.7366C13.9937 16.4562 13.0177 16.8605 12 16.8605C10.9823 16.8605 10.0063 16.4562 9.28668 15.7366C8.56707 15.017 8.16279 14.041 8.16279 13.0233ZM17.3721 9.95355C17.3721 9.75001 17.4529 9.55481 17.5969 9.41088C17.7408 9.26696 17.936 9.18611 18.1395 9.18611H19.1628C19.3663 9.18611 19.5615 9.26696 19.7055 9.41088C19.8494 9.55481 19.9302 9.75001 19.9302 9.95355C19.9302 10.1571 19.8494 10.3523 19.7055 10.4962C19.5615 10.6401 19.3663 10.721 19.1628 10.721H18.1395C17.936 10.721 17.7408 10.6401 17.5969 10.4962C17.4529 10.3523 17.3721 10.1571 17.3721 9.95355Z" fill="black"/>
</svg>
