<svg width="24" height="24" viewBox="0 0 24 24" fill="none" xmlns="http://www.w3.org/2000/svg">
<path fill-rule="evenodd" clip-rule="evenodd" d="M8.47171 12.7368L1.20176 20.1749C1.00276 20.3789 0.944698 20.6809 1.0557 20.9429C1.1657 21.2049 1.4227 21.3759 1.7067 21.3759H8.52475C8.71275 21.3759 8.89373 21.2999 9.02573 21.1669L21.7237 8.36989C21.7207 8.37289 22.4447 7.66588 22.4627 6.54488C22.4737 5.86088 22.2347 4.9949 21.2997 4.0599C20.3317 3.0919 19.4417 2.92789 18.7447 3.02389C17.7927 3.15589 17.1517 3.83588 17.0057 4.00588C17.0077 4.00288 12.6237 8.48884 8.47171 12.7368ZM7.16971 16.0899L3.38572 19.9629H8.22971L9.62571 18.5559L8.97373 17.9019L8.09275 18.7888C7.81775 19.0658 7.36972 19.0669 7.09372 18.7929C6.81672 18.5179 6.81476 18.0698 7.08976 17.7938L7.97672 16.8999L7.16971 16.0899ZM8.15775 15.0789L10.6207 17.5529L11.4468 16.7208L8.97776 14.2409L8.15775 15.0789ZM12.4417 15.7179L9.96476 13.2299L18.0357 4.97286C18.0537 4.95486 18.0707 4.93488 18.0867 4.91488C18.0867 4.91488 18.4137 4.49585 18.9377 4.42385C19.3177 4.37085 19.7728 4.53186 20.3008 5.05886C20.8608 5.61986 21.0557 6.11287 21.0497 6.52187C21.0417 7.03987 20.7228 7.37185 20.7228 7.37185L12.4417 15.7179Z" fill="black"/>
</svg>
