<svg width="24" height="24" viewBox="0 0 24 24" fill="none" xmlns="http://www.w3.org/2000/svg">
<path fill-rule="evenodd" clip-rule="evenodd" d="M19.5687 11.5691C19.5687 10.6501 18.8236 9.90503 17.9047 9.90503H14.9756C14.0566 9.90503 13.3116 10.6501 13.3116 11.5691V14.4981C13.3116 15.4171 14.0566 16.1622 14.9756 16.1622H17.9047C18.8236 16.1622 19.5687 15.4171 19.5687 14.4981V11.5691ZM18.1674 11.5691V14.4981C18.1674 14.6431 18.0497 14.7609 17.9047 14.7609H14.9756C14.8306 14.7609 14.7129 14.6431 14.7129 14.4981V11.5691C14.7129 11.4241 14.8306 11.3064 14.9756 11.3064H17.9047C18.0497 11.3064 18.1674 11.4241 18.1674 11.5691Z" fill="black"/>
<path fill-rule="evenodd" clip-rule="evenodd" d="M16.2659 17.9595C16.2659 17.0405 15.5209 16.2954 14.6019 16.2954H11.6729C10.7539 16.2954 10.0089 17.0405 10.0089 17.9595V20.8885C10.0089 21.8074 10.7539 22.5525 11.6729 22.5525H14.6019C15.5209 22.5525 16.2659 21.8074 16.2659 20.8885V17.9595ZM14.8646 17.9595V20.8885C14.8646 21.0335 14.7469 21.1512 14.6019 21.1512H11.6729C11.5279 21.1512 11.4101 21.0335 11.4101 20.8885V17.9595C11.4101 17.8145 11.5279 17.6967 11.6729 17.6967H14.6019C14.7469 17.6967 14.8646 17.8145 14.8646 17.9595Z" fill="black"/>
<path fill-rule="evenodd" clip-rule="evenodd" d="M22.7443 17.9595C22.7443 17.0405 21.9992 16.2954 21.0803 16.2954H18.1512C17.2322 16.2954 16.4872 17.0405 16.4872 17.9595V20.8885C16.4872 21.8074 17.2322 22.5525 18.1512 22.5525H21.0803C21.9992 22.5525 22.7443 21.8074 22.7443 20.8885V17.9595ZM21.343 17.9595V20.8885C21.343 21.0335 21.2253 21.1512 21.0803 21.1512H18.1512C18.0062 21.1512 17.8885 21.0335 17.8885 20.8885V17.9595C17.8885 17.8145 18.0062 17.6967 18.1512 17.6967H21.0803C21.2253 17.6967 21.343 17.8145 21.343 17.9595Z" fill="black"/>
<path fill-rule="evenodd" clip-rule="evenodd" d="M16.568 7.25694H21.3288V8.50452C21.3288 8.89737 21.6436 9.21511 22.0395 9.21511C22.4354 9.21511 22.75 8.89737 22.75 8.50452V6.54635C22.75 6.15452 22.4354 5.83576 22.0395 5.83576H16.568V1.94997C16.568 1.55712 16.2534 1.23938 15.8575 1.23938H5.11751C4.73177 1.23938 4.40698 1.55712 4.40698 1.94997V10.5246H1.96053C1.56464 10.5246 1.25 10.8433 1.25 11.2352V21.8451C1.25 22.238 1.56464 22.5557 1.96053 22.5557H8.28466C8.6704 22.5557 8.99531 22.238 8.99531 21.8451C8.99531 21.4533 8.6704 21.1346 8.28466 21.1346H7.37103V16.5402C7.37103 16.1483 7.0564 15.8296 6.6605 15.8296H2.67106V11.9458H7.28987C7.67561 11.9458 7.99036 11.627 7.99036 11.2352C7.99036 10.8433 7.67561 10.5246 7.28987 10.5246H5.82816V2.6605H15.1468V8.54615C15.1468 8.93799 15.4616 9.25674 15.8575 9.25674C16.2534 9.25674 16.568 8.93799 16.568 8.54615V7.25694ZM5.94997 21.1346V19.9032H2.67106V21.1346H5.94997ZM2.67106 17.2507V18.482H5.94997V17.2507H2.67106Z" fill="black"/>
</svg>
