<svg width="24" height="24" viewBox="0 0 24 24" fill="none" xmlns="http://www.w3.org/2000/svg">
<path fill-rule="evenodd" clip-rule="evenodd" d="M17.1164 2.8936C17.1164 1.98073 16.3765 1.24097 15.4637 1.24097H8.76219C7.84932 1.24097 7.10956 1.98073 7.10956 2.8936V9.59509C7.10956 10.508 7.84932 11.2477 8.76219 11.2477H15.4637C16.3765 11.2477 17.1164 10.508 17.1164 9.59509V2.8936ZM15.7248 2.8936V9.59509C15.7248 9.73917 15.6078 9.8562 15.4637 9.8562H8.76219C8.6181 9.8562 8.50108 9.73917 8.50108 9.59509V2.8936C8.50108 2.74951 8.6181 2.63248 8.76219 2.63248H15.4637C15.6078 2.63248 15.7248 2.74951 15.7248 2.8936Z" fill="black"/>
<path fill-rule="evenodd" clip-rule="evenodd" d="M11.2568 14.2319C11.2568 13.319 10.517 12.5792 9.60412 12.5792H2.90263C1.98976 12.5792 1.25 13.319 1.25 14.2319V20.9333C1.25 21.8462 1.98976 22.586 2.90263 22.586H9.60412C10.517 22.586 11.2568 21.8462 11.2568 20.9333V14.2319ZM9.86524 14.2319V20.9333C9.86524 21.0774 9.74821 21.1945 9.60412 21.1945H2.90263C2.75855 21.1945 2.64152 21.0774 2.64152 20.9333V14.2319C2.64152 14.0878 2.75855 13.9707 2.90263 13.9707H9.60412C9.74821 13.9707 9.86524 14.0878 9.86524 14.2319Z" fill="black"/>
<path fill-rule="evenodd" clip-rule="evenodd" d="M22.75 14.2319C22.75 13.319 22.0102 12.5792 21.0973 12.5792H14.3958C13.4829 12.5792 12.7432 13.319 12.7432 14.2319V20.9333C12.7432 21.8462 13.4829 22.586 14.3958 22.586H21.0973C22.0102 22.586 22.75 21.8462 22.75 20.9333V14.2319ZM21.3584 14.2319V20.9333C21.3584 21.0774 21.2414 21.1945 21.0973 21.1945H14.3958C14.2517 21.1945 14.1347 21.0774 14.1347 20.9333V14.2319C14.1347 14.0878 14.2517 13.9707 14.3958 13.9707H21.0973C21.2414 13.9707 21.3584 14.0878 21.3584 14.2319Z" fill="black"/>
</svg>
