<svg width="24" height="24" viewBox="0 0 24 24" fill="none" xmlns="http://www.w3.org/2000/svg">
<path fill-rule="evenodd" clip-rule="evenodd" d="M10.1121 3.04344C9.58106 3.44864 8.95688 4.07078 8.05334 4.97431C7.14981 5.87785 6.5287 6.50203 6.12246 7.0331C5.73056 7.54677 5.61391 7.8824 5.61391 8.19961C5.61391 8.51682 5.73056 8.85244 6.12246 9.36612C6.5287 9.89821 7.14981 10.5224 8.05334 11.4249L12.5751 15.9467C13.4786 16.8502 14.1028 17.4713 14.6339 17.8775C15.1476 18.2694 15.4832 18.3861 15.8004 18.3861C16.1176 18.3861 16.4532 18.2694 16.9669 17.8775C17.498 17.4723 18.1222 16.8502 19.0257 15.9467C19.9292 15.0431 20.5503 14.4189 20.9566 13.8879C21.3485 13.3732 21.4651 13.0386 21.4651 12.7214C21.4651 12.4042 21.3485 12.0685 20.9566 11.5549C20.5514 11.0228 19.9292 10.3986 19.0257 9.49607L14.5039 4.97431C13.6004 4.07078 12.9762 3.44967 12.4451 3.04344C11.9315 2.65153 11.5958 2.53488 11.2786 2.53488C10.9614 2.53488 10.6268 2.65153 10.1121 3.04344ZM9.18097 1.82372C9.83176 1.32744 10.4907 1 11.2786 1C12.0665 1 12.7255 1.32744 13.3763 1.82372C13.9995 2.29851 14.6963 2.99534 15.5507 3.84976L15.8004 4.10046C16.0449 3.85692 16.2619 3.65023 16.5013 3.51311C16.8609 3.30527 17.2689 3.19584 17.6842 3.19584C18.0995 3.19584 18.5075 3.30527 18.8671 3.51311C19.1403 3.67069 19.3838 3.91525 19.6724 4.20381L19.7338 4.2652L19.7962 4.32762C20.0848 4.61618 20.3293 4.85971 20.4869 5.13292C20.6947 5.49249 20.8042 5.90048 20.8042 6.3158C20.8042 6.73112 20.6947 7.13911 20.4869 7.49868C20.3488 7.73812 20.1431 7.95505 19.8995 8.19961L20.1502 8.44928C21.0047 9.30472 21.7015 10.0005 22.1763 10.6237C22.6726 11.2745 23 11.9335 23 12.7214C23 13.5093 22.6726 14.1682 22.1763 14.819C21.7015 15.4412 21.0047 16.138 20.1502 16.9924L20.0714 17.0712C19.217 17.9256 18.5202 18.6225 17.897 19.0973C17.2473 19.5935 16.5873 19.921 15.7994 19.921C15.0135 19.921 14.3535 19.5935 13.7027 19.0973C13.0796 18.6225 12.3827 17.9256 11.5283 17.0712L11.2786 16.8205L6.16953 21.9306L6.10814 21.992C5.81958 22.2806 5.57605 22.5252 5.30284 22.6827C4.94327 22.8906 4.53528 23 4.11996 23C3.70464 23 3.29665 22.8906 2.93708 22.6827C2.66387 22.5252 2.42034 22.2806 2.13178 21.992L2.07038 21.9306L2.00796 21.8682C1.71941 21.5797 1.47485 21.3361 1.31727 21.0629C1.10943 20.7033 1 20.2954 1 19.88C1 19.4647 1.10943 19.0567 1.31727 18.6972C1.47485 18.425 1.71941 18.1804 2.00796 17.8929L2.06936 17.8305L7.17949 12.7214L6.92879 12.4717C6.07437 11.6163 5.37754 10.9204 4.90275 10.2973C4.40647 9.64649 4.07903 8.98751 4.07903 8.19961C4.07903 7.4117 4.40647 6.75273 4.90275 6.10194C5.37754 5.4798 6.07437 4.78297 6.92879 3.92855L7.00758 3.84976C7.86199 2.99534 8.55883 2.29851 9.18199 1.82372M8.26516 13.806L3.15503 18.9172C2.77029 19.3019 2.68843 19.393 2.64647 19.4656C2.57335 19.5919 2.53484 19.7352 2.53484 19.8811C2.53484 20.027 2.57335 20.1703 2.64647 20.2965C2.6874 20.3702 2.76926 20.4602 3.15503 20.846C3.5408 21.2307 3.63187 21.3126 3.70452 21.3545C3.83076 21.4277 3.97407 21.4662 4.11996 21.4662C4.26585 21.4662 4.40916 21.4277 4.5354 21.3545C4.60703 21.3136 4.69912 21.2318 5.08386 20.846L10.194 15.7369L8.26516 13.806ZM18.8149 7.11394C19.0605 6.86529 19.1239 6.79263 19.1587 6.73124C19.2318 6.605 19.2703 6.46169 19.2703 6.3158C19.2703 6.16991 19.2318 6.0266 19.1587 5.90036C19.1168 5.82771 19.0359 5.73664 18.6502 5.35087C18.2644 4.96613 18.1733 4.88427 18.1007 4.84232C17.9744 4.76919 17.8311 4.73068 17.6852 4.73068C17.5393 4.73068 17.396 4.76919 17.2698 4.84232C17.2084 4.87711 17.1357 4.94055 16.8871 5.18613L18.8149 7.11394Z" fill="black"/>
</svg>
