<svg width="24" height="24" viewBox="0 0 24 24" fill="none" xmlns="http://www.w3.org/2000/svg">
<path fill-rule="evenodd" clip-rule="evenodd" d="M11.9365 1H12.0634C14.1805 1 15.8556 1 17.1664 1.19544C18.5202 1.39805 19.5946 1.82372 20.4306 2.75284C21.2564 3.66967 21.6257 4.83005 21.8017 6.2933C21.9767 7.73302 21.9767 9.58 21.9767 11.9468V12.0532C21.9767 14.42 21.9767 16.267 21.8028 17.7067C21.6257 19.17 21.2564 20.3303 20.4316 21.2472C19.5946 22.1763 18.5212 22.602 17.1664 22.8046C15.8556 23 14.1805 23 12.0644 23H11.9355C9.81942 23 8.14435 23 6.83356 22.8046C5.47877 22.602 4.40538 22.1763 3.56938 21.2472C2.74361 20.3303 2.37422 19.17 2.19822 17.7067C2.02324 16.267 2.02324 14.42 2.02324 12.0532V11.9468C2.02324 9.58 2.02324 7.73302 2.19719 6.29433C2.37422 4.82902 2.74361 3.66967 3.56836 2.75284C4.40538 1.82372 5.47877 1.39805 6.83356 1.19544C8.14435 1 9.81942 1 11.9365 1ZM7.06073 2.71395C5.90752 2.88586 5.22194 3.21023 4.70929 3.77916C4.18742 4.36037 3.88045 5.15647 3.72082 6.47851C3.55915 7.81488 3.55812 9.56874 3.55812 12C3.55812 14.4313 3.55915 16.1851 3.72184 17.5215C3.88147 18.8435 4.1864 19.6396 4.70929 20.2208C5.22194 20.7898 5.90752 21.1141 7.06073 21.286C8.24463 21.4631 9.8051 21.4651 12 21.4651C14.1949 21.4651 15.7553 21.4631 16.9392 21.286C18.0924 21.1141 18.778 20.7898 19.2897 20.2208C19.8136 19.6396 20.1185 18.8435 20.2791 17.5215C20.4408 16.1851 20.4418 14.4313 20.4418 12C20.4418 9.56874 20.4408 7.81488 20.2781 6.47851C20.1185 5.15647 19.8136 4.36037 19.2907 3.77916C18.778 3.21023 18.0924 2.88586 16.9392 2.71395C15.7553 2.53693 14.1949 2.53488 12 2.53488C9.8051 2.53488 8.24463 2.53693 7.06073 2.71395ZM8.84426 5.09302H15.1557C15.5445 5.09302 15.8822 5.09302 16.1769 5.17181C16.5672 5.27632 16.923 5.48169 17.2088 5.76727C17.4946 6.05285 17.7002 6.4086 17.8049 6.79879C17.8847 7.09553 17.8847 7.43116 17.8837 7.82205V7.99293C17.8837 8.38177 17.8837 8.71944 17.8049 9.01414C17.7004 9.40439 17.495 9.76027 17.2095 10.046C16.9239 10.3318 16.5681 10.5374 16.1779 10.6421C15.8812 10.722 15.5456 10.722 15.1547 10.7209H8.84528C8.45645 10.7209 8.11877 10.7209 7.82408 10.6421C7.43382 10.5376 7.07794 10.3323 6.79218 10.0467C6.50642 9.7611 6.30083 9.40535 6.19608 9.01516C6.11626 8.71842 6.11729 8.38279 6.11729 7.99191V7.82102C6.11729 7.43219 6.11729 7.09451 6.19608 6.79981C6.30059 6.40956 6.50595 6.05368 6.79153 5.76792C7.07712 5.48215 7.43287 5.27657 7.82305 5.17181C8.1198 5.092 8.45542 5.09302 8.84631 5.09302M8.93022 6.62791C8.40528 6.62791 8.29273 6.63405 8.22008 6.65451C8.09005 6.6894 7.9715 6.75788 7.87631 6.85307C7.78112 6.94826 7.71264 7.06682 7.67775 7.19684C7.65729 7.26949 7.65115 7.38102 7.65115 7.90698C7.65115 8.43191 7.65729 8.54447 7.67775 8.61712C7.71264 8.74714 7.78112 8.86569 7.87631 8.96089C7.9715 9.05608 8.09005 9.12455 8.22008 9.15944C8.29273 9.17991 8.40426 9.18605 8.93022 9.18605H15.0697C15.5947 9.18605 15.7072 9.17991 15.7799 9.15944C15.9099 9.12455 16.0285 9.05608 16.1237 8.96089C16.2188 8.86569 16.2873 8.74714 16.3222 8.61712C16.3427 8.54447 16.3488 8.43293 16.3488 7.90698C16.3488 7.38205 16.3427 7.26949 16.3222 7.19684C16.2873 7.06682 16.2188 6.94826 16.1237 6.85307C16.0285 6.75788 15.9099 6.6894 15.7799 6.65451C15.7072 6.63405 15.5957 6.62791 15.0697 6.62791H8.93022Z" fill="black"/>
<path d="M8.93022 13.0233C8.93022 13.2946 8.82242 13.5549 8.63052 13.7468C8.43862 13.9387 8.17835 14.0465 7.90697 14.0465C7.63558 14.0465 7.37532 13.9387 7.18342 13.7468C6.99152 13.5549 6.88371 13.2946 6.88371 13.0233C6.88371 12.7519 6.99152 12.4916 7.18342 12.2997C7.37532 12.1078 7.63558 12 7.90697 12C8.17835 12 8.43862 12.1078 8.63052 12.2997C8.82242 12.4916 8.93022 12.7519 8.93022 13.0233ZM8.93022 17.1163C8.93022 17.3877 8.82242 17.6479 8.63052 17.8398C8.43862 18.0317 8.17835 18.1395 7.90697 18.1395C7.63558 18.1395 7.37532 18.0317 7.18342 17.8398C6.99152 17.6479 6.88371 17.3877 6.88371 17.1163C6.88371 16.8449 6.99152 16.5846 7.18342 16.3927C7.37532 16.2008 7.63558 16.093 7.90697 16.093C8.17835 16.093 8.43862 16.2008 8.63052 16.3927C8.82242 16.5846 8.93022 16.8449 8.93022 17.1163ZM13.0232 13.0233C13.0232 13.2946 12.9154 13.5549 12.7235 13.7468C12.5316 13.9387 12.2714 14.0465 12 14.0465C11.7286 14.0465 11.4683 13.9387 11.2764 13.7468C11.0845 13.5549 10.9767 13.2946 10.9767 13.0233C10.9767 12.7519 11.0845 12.4916 11.2764 12.2997C11.4683 12.1078 11.7286 12 12 12C12.2714 12 12.5316 12.1078 12.7235 12.2997C12.9154 12.4916 13.0232 12.7519 13.0232 13.0233ZM13.0232 17.1163C13.0232 17.3877 12.9154 17.6479 12.7235 17.8398C12.5316 18.0317 12.2714 18.1395 12 18.1395C11.7286 18.1395 11.4683 18.0317 11.2764 17.8398C11.0845 17.6479 10.9767 17.3877 10.9767 17.1163C10.9767 16.8449 11.0845 16.5846 11.2764 16.3927C11.4683 16.2008 11.7286 16.093 12 16.093C12.2714 16.093 12.5316 16.2008 12.7235 16.3927C12.9154 16.5846 13.0232 16.8449 13.0232 17.1163ZM17.1163 13.0233C17.1163 13.2946 17.0085 13.5549 16.8166 13.7468C16.6247 13.9387 16.3644 14.0465 16.093 14.0465C15.8216 14.0465 15.5614 13.9387 15.3695 13.7468C15.1776 13.5549 15.0698 13.2946 15.0698 13.0233C15.0698 12.7519 15.1776 12.4916 15.3695 12.2997C15.5614 12.1078 15.8216 12 16.093 12C16.3644 12 16.6247 12.1078 16.8166 12.2997C17.0085 12.4916 17.1163 12.7519 17.1163 13.0233ZM17.1163 17.1163C17.1163 17.3877 17.0085 17.6479 16.8166 17.8398C16.6247 18.0317 16.3644 18.1395 16.093 18.1395C15.8216 18.1395 15.5614 18.0317 15.3695 17.8398C15.1776 17.6479 15.0698 17.3877 15.0698 17.1163C15.0698 16.8449 15.1776 16.5846 15.3695 16.3927C15.5614 16.2008 15.8216 16.093 16.093 16.093C16.3644 16.093 16.6247 16.2008 16.8166 16.3927C17.0085 16.5846 17.1163 16.8449 17.1163 17.1163Z" fill="black"/>
</svg>
