<svg width="24" height="24" viewBox="0 0 24 24" fill="none" xmlns="http://www.w3.org/2000/svg">
<path fill-rule="evenodd" clip-rule="evenodd" d="M11.948 1.25H12.052C12.9507 1.25 13.7005 1.25002 14.2943 1.32999C14.9222 1.41397 15.489 1.5999 15.9439 2.05477C16.3998 2.51064 16.5857 3.07749 16.6697 3.70531C16.7297 4.14519 16.7447 4.66905 16.7487 5.27488C17.3975 5.29588 17.9754 5.33486 18.4892 5.40284C19.6609 5.56079 20.6106 5.89271 21.3594 6.64151C22.1072 7.3903 22.4391 8.33903 22.597 9.5107C22.75 10.6514 22.75 12.106 22.75 13.9445V14.0564C22.75 15.8939 22.75 17.3505 22.597 18.4892C22.4391 19.6619 22.1072 20.6106 21.3594 21.3594C20.6106 22.1072 19.6609 22.4391 18.4892 22.597C17.3495 22.75 15.8939 22.75 14.0564 22.75H9.94357C8.10608 22.75 6.64946 22.75 5.51078 22.597C4.3391 22.4391 3.3894 22.1072 2.6406 21.3594C1.89281 20.6106 1.56093 19.6619 1.40297 18.4892C1.25002 17.3495 1.25 15.8939 1.25 14.0564V13.9445C1.25 12.106 1.25002 10.6504 1.40297 9.5107C1.56093 8.33903 1.89281 7.3903 2.6406 6.64151C3.3894 5.89271 4.3391 5.56079 5.51078 5.40284C6.08862 5.33186 6.66948 5.28988 7.25132 5.27488C7.25532 4.66905 7.2713 4.14519 7.33028 3.70531C7.41426 3.07749 7.60024 2.51064 8.05511 2.05477C8.51099 1.5999 9.07779 1.41497 9.70462 1.32999C10.2995 1.25002 11.0503 1.25 11.948 1.25ZM5.70976 6.8904C4.70404 7.02536 4.12421 7.2793 3.69933 7.70218C3.27745 8.12507 3.02348 8.70494 2.88852 9.71066C2.75056 10.7384 2.74855 12.093 2.74855 14.0004C2.74855 15.9069 2.75056 17.2625 2.88852 18.2902C3.02348 19.295 3.27742 19.8758 3.70031 20.2987C4.12419 20.7216 4.70404 20.9755 5.70976 21.1104C6.73747 21.2484 8.09207 21.2504 9.99854 21.2504H13.9994C15.9059 21.2504 17.2616 21.2484 18.2893 21.1104C19.294 20.9755 19.8738 20.7216 20.2977 20.2987C20.7206 19.8758 20.9745 19.295 21.1095 18.2893C21.2474 17.2626 21.2494 15.9069 21.2494 14.0004C21.2494 12.093 21.2474 10.7393 21.1095 9.70962C20.9745 8.7049 20.7206 8.12507 20.2977 7.70218C19.8738 7.2793 19.2939 7.02536 18.2882 6.8904C17.2615 6.75244 15.9059 6.75048 13.9994 6.75048H9.99854C8.09207 6.75048 6.73847 6.75244 5.70976 6.8904ZM3.32443 14.9762C3.32443 17.0046 4.97094 18.6512 6.99938 18.6512C8.356 18.6512 9.54166 17.9154 10.1785 16.8207C10.1785 16.8217 13.8215 16.8217 13.8215 16.8217C14.4583 17.9154 15.644 18.6512 17.0006 18.6512C19.0291 18.6512 20.6756 17.0046 20.6756 14.9762C20.6756 12.9477 19.0291 11.3002 17.0006 11.3002C15.689 11.3002 14.5373 11.988 13.8865 13.0227H10.1135C9.46268 11.989 8.31101 11.3002 6.99938 11.3002C4.97094 11.3002 3.32443 12.9477 3.32443 14.9762ZM19.166 14.2763C18.8711 13.3616 18.0123 12.6998 17.0006 12.6998C16.0859 12.6998 15.2971 13.2396 14.9352 14.0184C14.8202 14.2644 14.5733 14.4223 14.3004 14.4223H9.69961C9.42669 14.4223 9.17981 14.2644 9.06484 14.0184C8.70294 13.2396 7.91412 12.6998 6.99938 12.6998C5.98766 12.6998 5.12894 13.3616 4.83402 14.2763H6.99938C7.38627 14.2763 7.69919 14.5893 7.69919 14.9762C7.69919 15.3621 7.38627 15.676 6.99938 15.676H4.83402C5.12894 16.5897 5.98766 17.2515 6.99938 17.2515C7.94611 17.2515 8.75688 16.6737 9.10078 15.852C9.20975 15.591 9.46468 15.422 9.7466 15.422H14.2534C14.5353 15.422 14.7902 15.591 14.8992 15.852C15.2431 16.6737 16.0539 17.2515 17.0006 17.2515C18.0123 17.2515 18.8711 16.5897 19.166 15.676H17.0006C16.6137 15.676 16.3008 15.3621 16.3008 14.9762C16.3008 14.5893 16.6137 14.2763 17.0006 14.2763H19.166ZM17.0006 8.99986C17.0006 9.54871 16.5487 10.0006 15.9999 10.0006C15.451 10.0006 15.0001 9.54871 15.0001 8.99986C15.0001 8.45201 15.451 8.00014 15.9999 8.00014C16.5487 8.00014 17.0006 8.45201 17.0006 8.99986ZM8.99986 8.99986C8.99986 9.54871 8.54898 10.0006 8.00014 10.0006C7.45129 10.0006 6.99938 9.54871 6.99938 8.99986C6.99938 8.45201 7.45129 8.00014 8.00014 8.00014C8.54898 8.00014 8.99986 8.45201 8.99986 8.99986ZM8.75188 5.25188C9.12978 5.24988 9.52768 5.24886 9.94357 5.24986H14.0564C14.4723 5.24986 14.8702 5.25088 15.2481 5.25188C15.2441 4.68204 15.2301 4.25217 15.1841 3.90527C15.1211 3.4444 15.0142 3.24641 14.8842 3.11545C14.7542 2.98548 14.5563 2.87853 14.0944 2.81554C13.6126 2.75156 12.9637 2.74958 12 2.74958C11.0363 2.74958 10.3884 2.7516 9.90457 2.81658C9.4437 2.87856 9.24576 2.98552 9.11579 3.11649C8.98583 3.24845 8.87887 3.4444 8.81589 3.90527C8.7699 4.25117 8.75588 4.68104 8.75188 5.25188Z" fill="black"/>
</svg>
