<svg width="24" height="24" viewBox="0 0 24 24" fill="none" xmlns="http://www.w3.org/2000/svg">
<g clip-path="url(#clip0_221_15584)">
<path fill-rule="evenodd" clip-rule="evenodd" d="M10.588 6.465C10.1213 7.09359 9.83721 7.8389 9.76721 8.6187C9.69722 9.3985 9.84398 10.1825 10.1913 10.8841C10.5387 11.5858 11.0731 12.1779 11.7356 12.5951C12.3981 13.0123 13.163 13.2383 13.9459 13.2483C14.7288 13.2583 15.4992 13.0519 16.1722 12.6518C16.8451 12.2516 17.3945 11.6734 17.7596 10.9808C18.1248 10.2883 18.2916 9.5083 18.2415 8.72697C18.1914 7.94563 17.9265 7.19331 17.476 6.553C17.4205 6.49816 17.3733 6.4355 17.336 6.367C16.9387 5.86243 16.432 5.4547 15.8541 5.17458C15.2762 4.89447 14.6422 4.74929 14 4.75C13.3368 4.74909 12.6826 4.90378 12.09 5.20163C11.4974 5.49949 10.983 5.9322 10.588 6.465ZM8.707 6.75C8.33823 7.61902 8.1891 8.56547 8.27277 9.50578C8.35644 10.4461 8.67034 11.3513 9.18676 12.1416C9.70317 12.9318 10.4062 13.5828 11.2338 14.037C12.0614 14.4911 12.9881 14.7346 13.932 14.7457C14.876 14.7569 15.8082 14.5355 16.6463 14.1011C17.4844 13.6666 18.2027 13.0325 18.7377 12.2547C19.2727 11.4769 19.6079 10.5794 19.7138 9.64129C19.8198 8.70323 19.6931 7.75351 19.345 6.876C19.975 6.977 20.329 7.147 20.591 7.409C20.868 7.686 21.048 8.074 21.147 8.809C21.248 9.563 21.25 10.565 21.25 12C21.25 13.435 21.248 14.437 21.147 15.192C21.048 15.926 20.867 16.314 20.591 16.591C20.314 16.868 19.926 17.048 19.191 17.147C18.436 17.248 17.435 17.25 16 17.25H8C6.565 17.25 5.563 17.248 4.808 17.147C4.074 17.048 3.686 16.867 3.409 16.591C3.132 16.314 2.952 15.926 2.853 15.191C2.752 14.436 2.75 13.435 2.75 12C2.75 10.565 2.752 9.563 2.853 8.808C2.952 8.074 3.133 7.686 3.409 7.409C3.686 7.132 4.074 6.952 4.809 6.853C5.562 6.752 6.564 6.75 8 6.75H8.707ZM9.641 5.25H7.945C6.578 5.25 5.475 5.25 4.608 5.367C3.708 5.487 2.95 5.747 2.348 6.348C1.746 6.95 1.488 7.708 1.367 8.608C1.25 9.475 1.25 10.578 1.25 11.945V12.055C1.25 13.422 1.25 14.525 1.367 15.392C1.487 16.292 1.747 17.05 2.348 17.652C2.95 18.254 3.708 18.512 4.608 18.634C4.68133 18.644 4.75567 18.6527 4.831 18.66L4.329 19.665C4.2841 19.7532 4.2571 19.8494 4.24957 19.9481C4.24204 20.0468 4.25411 20.146 4.28511 20.24C4.3161 20.3341 4.36539 20.421 4.43014 20.4959C4.4949 20.5707 4.57383 20.632 4.66239 20.6762C4.75094 20.7205 4.84738 20.7467 4.94613 20.7535C5.04488 20.7602 5.14399 20.7474 5.23775 20.7157C5.33152 20.6839 5.41807 20.634 5.49243 20.5686C5.56679 20.5033 5.62748 20.4239 5.671 20.335L6.467 18.743C6.92033 18.749 7.413 18.7513 7.945 18.75H16.055C16.5863 18.7513 17.079 18.749 17.533 18.743L18.329 20.335C18.3725 20.4239 18.4332 20.5033 18.5076 20.5686C18.5819 20.634 18.6685 20.6839 18.7622 20.7157C18.856 20.7474 18.9551 20.7602 19.0539 20.7535C19.1526 20.7467 19.2491 20.7205 19.3376 20.6762C19.4262 20.632 19.5051 20.5707 19.5699 20.4959C19.6346 20.421 19.6839 20.3341 19.7149 20.24C19.7459 20.146 19.758 20.0468 19.7504 19.9481C19.7429 19.8494 19.7159 19.7532 19.671 19.665L19.169 18.66L19.392 18.634C20.292 18.512 21.05 18.254 21.652 17.652C22.254 17.05 22.512 16.292 22.634 15.392C22.75 14.525 22.75 13.422 22.75 12.055V11.945C22.75 10.578 22.75 9.475 22.634 8.608C22.512 7.708 22.254 6.95 21.652 6.348C20.849 5.546 19.757 5.345 18.386 5.281C17.8466 4.6439 17.1747 4.13212 16.4172 3.78134C15.6597 3.43057 14.8348 3.24924 14 3.25C13.1722 3.24933 12.354 3.42771 11.6016 3.77293C10.8492 4.11815 10.1804 4.62203 9.641 5.25ZM13.25 7C13.25 6.80109 13.329 6.61032 13.4697 6.46967C13.6103 6.32902 13.8011 6.25 14 6.25C14.5439 6.25 15.0756 6.41129 15.5278 6.71346C15.9801 7.01563 16.3325 7.44513 16.5407 7.94762C16.7488 8.45012 16.8033 9.00305 16.6972 9.5365C16.591 10.0699 16.3291 10.56 15.9445 10.9445C15.5599 11.3291 15.0699 11.5911 14.5365 11.6972C14.003 11.8033 13.4501 11.7488 12.9476 11.5407C12.4451 11.3325 12.0156 10.9801 11.7135 10.5278C11.4113 10.0756 11.25 9.5439 11.25 9C11.25 8.80109 11.329 8.61032 11.4697 8.46967C11.6103 8.32902 11.8011 8.25 12 8.25C12.1989 8.25 12.3897 8.32902 12.5303 8.46967C12.671 8.61032 12.75 8.80109 12.75 9C12.75 9.24723 12.8233 9.4889 12.9607 9.69447C13.098 9.90003 13.2932 10.0602 13.5216 10.1549C13.7501 10.2495 14.0014 10.2742 14.2439 10.226C14.4863 10.1778 14.7091 10.0587 14.8839 9.88389C15.0587 9.70907 15.1778 9.48634 15.226 9.24387C15.2742 9.00139 15.2495 8.75006 15.1548 8.52165C15.0602 8.29324 14.9 8.09802 14.6945 7.96067C14.4889 7.82331 14.2472 7.75 14 7.75C13.8011 7.75 13.6103 7.67098 13.4697 7.53033C13.329 7.38968 13.25 7.19891 13.25 7ZM5.5 8.75C5.69891 8.75 5.88968 8.82902 6.03033 8.96967C6.17098 9.11032 6.25 9.30109 6.25 9.5V11C6.25 11.1989 6.17098 11.3897 6.03033 11.5303C5.88968 11.671 5.69891 11.75 5.5 11.75C5.30109 11.75 5.11032 11.671 4.96967 11.5303C4.82902 11.3897 4.75 11.1989 4.75 11V9.5C4.75 9.30109 4.82902 9.11032 4.96967 8.96967C5.11032 8.82902 5.30109 8.75 5.5 8.75Z" fill="black"/>
</g>
<defs>
<clipPath id="clip0_221_15584">
<rect width="24" height="24" fill="white"/>
</clipPath>
</defs>
</svg>
