<svg width="24" height="24" viewBox="0 0 24 24" fill="none" xmlns="http://www.w3.org/2000/svg">
<path fill-rule="evenodd" clip-rule="evenodd" d="M2.80676 13.75C2.81876 13.906 2.83376 14.0538 2.85251 14.1925C2.95151 14.9261 3.13227 15.3146 3.40828 15.5913C3.68578 15.8681 4.07354 16.0481 4.80856 16.1471C5.56233 16.2483 6.56435 16.2506 7.99988 16.2506H15.9996C17.4351 16.2506 18.4356 16.2483 19.1916 16.1471C19.9259 16.0481 20.3137 15.8673 20.5912 15.5913C20.8679 15.3146 21.0479 14.9261 21.1469 14.191L21.1927 13.75H21.1972L21.2482 12.2485H21.2459L21.2497 11.0005V9.99995C21.2497 9.58894 21.5887 9.24993 21.9997 9.24993C22.4115 9.24993 22.7497 9.58894 22.7497 9.99995V11.0552C22.7497 11.7175 22.7497 12.3183 22.737 12.859C22.734 12.985 22.7317 13.0555 22.7272 13.186C22.71 13.63 22.6822 14.0313 22.6342 14.392C22.512 15.2921 22.254 16.0503 21.6517 16.6526C21.0502 17.2541 20.2919 17.5121 19.3919 17.6344C18.5249 17.7506 17.4216 17.7506 16.0551 17.7506H12.7497V21.2502H15.9996C16.4113 21.2502 16.7496 21.5892 16.7496 22.0002C16.7496 22.412 16.4113 22.7502 15.9996 22.7502H7.99988C7.58812 22.7502 7.24986 22.412 7.24986 22.0002C7.24986 21.5892 7.58812 21.2502 7.99988 21.2502H11.2497V17.7506H7.94438C6.57785 17.7506 5.47457 17.7506 4.60755 17.6344C3.70753 17.5121 2.94926 17.2541 2.34775 16.6526C1.74549 16.0503 1.48748 15.2921 1.36673 14.392C1.31723 14.032 1.28948 13.63 1.27223 13.186C1.26623 13.0158 1.26623 13.0113 1.26248 12.859C1.24973 12.3183 1.24973 11.7175 1.24973 11.0552V9.45018C1.24973 7.84815 1.24973 6.57837 1.36823 5.57409C1.49048 4.54432 1.74549 3.6938 2.32825 2.98578C2.527 2.74653 2.74751 2.52602 2.98677 2.32727C3.69553 1.74526 4.5438 1.49025 5.57433 1.36725C6.57935 1.25024 7.84988 1.25024 9.45042 1.25024H9.49992C9.91093 1.25024 10.2499 1.5885 10.2499 2.00026C10.2499 2.41127 9.91093 2.75028 9.49992 2.75028C7.83788 2.75028 6.6566 2.75103 5.75058 2.85828C4.86181 2.96328 4.3353 3.16204 3.93779 3.4883C3.77353 3.6233 3.62278 3.77405 3.48778 3.93831C3.16152 4.33582 2.96277 4.86233 2.85776 5.7511C2.75051 6.65712 2.74976 7.8384 2.74976 9.50044V11.0005C2.74901 11.458 2.75051 11.875 2.75351 12.25L2.80676 13.75Z" fill="black"/>
<path fill-rule="evenodd" clip-rule="evenodd" d="M15.5215 1.24976C14.0097 1.24976 12.7648 2.49466 12.7648 4.00643C12.7648 5.51821 14.0097 6.76311 15.5215 6.76311C17.0332 6.76311 18.2781 5.51821 18.2781 4.00643C18.2781 2.49466 17.0332 1.24976 15.5215 1.24976ZM14.2683 4.00643C14.2683 3.31933 14.8344 2.75326 15.5215 2.75326C16.2086 2.75326 16.7746 3.31933 16.7746 4.00643C16.7746 4.69353 16.2086 5.2596 15.5215 5.2596C14.8344 5.2596 14.2683 4.69353 14.2683 4.00643ZM15.5215 7.26378C14.3224 7.26378 13.2008 7.50434 12.3498 7.93058C11.5454 8.33352 10.7606 9.02889 10.7606 10.0205V10.0836C10.7584 10.5948 10.7561 11.4571 11.5725 12.0472C11.9514 12.3208 12.4513 12.496 13.0707 12.6072C13.6955 12.72 14.4961 12.7771 15.5215 12.7771C16.5469 12.7771 17.3475 12.72 17.9722 12.6072C18.5916 12.496 19.0915 12.3208 19.4704 12.0464C20.2868 11.4555 20.2846 10.5948 20.2823 10.0828V10.0205C20.2823 9.02814 19.4975 8.33352 18.6931 7.93058C17.8421 7.50584 16.7205 7.26378 15.5215 7.26378ZM12.2641 10.0205C12.2641 9.90543 12.3769 9.59872 13.0226 9.27547C13.624 8.97476 14.5058 8.76728 15.5215 8.76728C16.5371 8.76728 17.4196 8.97476 18.0203 9.27547C18.666 9.59872 18.7788 9.90543 18.7788 10.0205C18.7788 10.6256 18.7397 10.7188 18.5886 10.8293C18.4661 10.9173 18.215 11.0361 17.7068 11.1278C17.2031 11.218 16.501 11.2736 15.5215 11.2736C14.5419 11.2736 13.8398 11.218 13.3361 11.1278C12.8279 11.0361 12.5768 10.9173 12.4543 10.8293C12.3017 10.7188 12.2641 10.6256 12.2641 10.0205Z" fill="black"/>
</svg>
