<svg width="24" height="24" viewBox="0 0 24 24" fill="none" xmlns="http://www.w3.org/2000/svg">
<path fill-rule="evenodd" clip-rule="evenodd" d="M14.0161 23.1071H14.4176C16.1301 23.1071 17.471 23.1061 18.5181 22.9657C19.6149 22.8182 20.4797 22.5064 21.1591 21.8269C21.8386 21.1465 22.1514 20.2828 22.2978 19.1859C22.4393 18.1388 22.4393 16.7969 22.4393 15.0844L22.4264 14.4767C22.3586 13.7345 22.0667 13.0301 21.5895 12.4583C21.4889 12.3377 21.3793 12.2281 21.2109 12.0588L17.3774 8.22522L16.96 7.8287C16.3871 7.3515 15.6828 7.05964 14.9416 6.99189H14.9406C14.7851 6.97794 14.6337 6.97791 14.3986 6.97791H14.3329C12.6213 6.97791 11.2794 6.97893 10.2333 7.1194C9.13547 7.26684 8.2707 7.57867 7.59126 8.25811C6.91182 8.93855 6.59999 9.80229 6.45255 10.8992C6.31108 11.9462 6.31111 13.2882 6.31111 15.0007V15.0824L6.43564 15.2089L6.31111 15.0844C6.31111 16.7969 6.31108 18.1388 6.45255 19.1849C6.59999 20.2827 6.91082 21.1465 7.59126 21.8269C8.2707 22.5064 9.13544 22.8182 10.2323 22.9657C11.2136 23.0982 12.454 23.1061 14.0161 23.1071ZM17.3903 21.6895C17.3903 20.9851 17.3893 20.5119 17.3425 20.1592C17.3027 19.8623 17.2409 19.7318 17.1562 19.6481C17.0715 19.5645 16.943 19.5027 16.6451 19.4618C16.2925 19.415 15.8192 19.414 15.1149 19.414H13.6375C12.9331 19.414 12.4599 19.4151 12.1063 19.4629C11.8094 19.5027 11.6799 19.5635 11.5962 19.6481C11.5115 19.7328 11.4497 19.8623 11.4089 20.1592C11.3621 20.5119 11.361 20.9861 11.361 21.6895V21.7054C12.169 21.7502 13.1523 21.7502 14.3757 21.7502C15.6001 21.7502 16.5824 21.7502 17.3903 21.7054V21.6895ZM14.826 8.34379L14.3757 8.33479C12.6263 8.33479 11.37 8.33579 10.4136 8.4643C9.50505 8.58585 8.95515 8.81401 8.54968 9.21848C8.1462 9.62296 7.91902 10.1729 7.79648 11.0815C7.66896 12.0368 7.66799 13.2931 7.66799 15.0425C7.66799 16.7919 7.66896 18.0482 7.79648 19.0046C7.91902 19.9132 8.14618 20.4631 8.55065 20.8675C8.89037 21.2073 9.33269 21.4215 10.0042 21.554C10.0042 20.9264 10.0071 20.4003 10.0639 19.9789C10.1297 19.4877 10.2791 19.0454 10.6348 18.6888C10.9914 18.3321 11.4338 18.1827 11.925 18.1169C12.3693 18.0572 12.9282 18.0572 13.5986 18.0572H15.1528C15.8232 18.0572 16.3821 18.0572 16.8244 18.1169C17.3166 18.1827 17.759 18.3321 18.1146 18.6888C18.4723 19.0454 18.6207 19.4877 18.6864 19.9789C18.7432 20.4003 18.7462 20.9264 18.7462 21.554C19.4187 21.4215 19.86 21.2063 20.1997 20.8666C20.6042 20.4621 20.8314 19.9132 20.9539 19.0046C21.0814 18.0482 21.0824 16.7919 21.0824 15.0425C21.0824 14.7885 21.0834 14.6919 21.0744 14.5962C21.0316 14.131 20.8493 13.6906 20.5504 13.331C20.4498 13.2174 20.3442 13.1078 20.2346 13.0022L16.417 9.18461L16.0863 8.86678C15.7286 8.5689 15.2893 8.38762 14.826 8.34379ZM10.0052 12.0538L10.0042 12.0886C10.0042 12.4602 10.31 12.7671 10.6826 12.7671H15.1139C15.4865 12.7671 15.7923 12.4602 15.7923 12.0886C15.7923 11.716 15.4865 11.4102 15.1139 11.4102H10.6826C10.322 11.4102 10.0231 11.6971 10.0052 12.0538Z" fill="black"/>
<path fill-rule="evenodd" clip-rule="evenodd" d="M19.3281 4.39299C19.3281 4.39299 19.1412 3.37024 18.1138 2.56138C17.488 2.06448 16.5353 1.63204 15.0783 1.63204H10.6978C10.3522 1.5816 8.68962 1.44619 6.96168 3.17319L3.12287 7.1409C2.82399 7.35759 1.56302 8.42047 1.56302 10.6715V15.0362C1.55368 15.1623 1.5537 16.1813 1.93665 17.1993C2.37564 18.3799 3.30968 19.5503 5.22442 19.5503C5.58869 19.5503 5.87819 19.257 5.87819 18.8965C5.87819 18.535 5.58869 18.2426 5.22442 18.2426C4.01019 18.2426 3.44036 17.4861 3.16016 16.7398C2.84259 15.901 2.87067 15.0632 2.87067 15.0632V10.6715C2.87067 8.92111 3.90742 8.18511 3.90742 8.18511C3.94478 8.15896 3.98214 8.12815 4.0195 8.09453L7.8957 4.09507C9.25003 2.73514 10.511 2.92846 10.511 2.92846C10.5577 2.93593 10.595 2.93969 10.6417 2.93969H15.0783C17.6281 2.93969 18.0485 4.65267 18.0485 4.65267C18.1232 5.00666 18.4688 5.23549 18.8143 5.16357C19.1693 5.09165 19.4028 4.74605 19.3281 4.39299Z" fill="black"/>
</svg>
