<svg width="24" height="24" viewBox="0 0 24 24" fill="none" xmlns="http://www.w3.org/2000/svg">
<path fill-rule="evenodd" clip-rule="evenodd" d="M13.0233 2.53488C10.5129 2.53488 8.10546 3.5321 6.33041 5.30715C4.55535 7.08221 3.55814 9.4897 3.55814 12C3.55814 14.5103 4.55535 16.9178 6.33041 18.6928C8.10546 20.4679 10.5129 21.4651 13.0233 21.4651H16.3488V17.8837H13.0233C11.4628 17.8837 9.96625 17.2638 8.86283 16.1604C7.75942 15.057 7.13953 13.5605 7.13953 12C7.13953 10.4395 7.75942 8.94299 8.86283 7.83958C9.96625 6.73617 11.4628 6.11628 13.0233 6.11628H16.3488V2.53488H13.0233ZM17.8837 2.53488V6.11628H19.6744C19.878 6.11628 20.0732 6.03542 20.2171 5.8915C20.361 5.74758 20.4419 5.55238 20.4419 5.34884V3.30233C20.4419 3.09879 20.361 2.90359 20.2171 2.75966C20.0732 2.61574 19.878 2.53488 19.6744 2.53488H17.8837ZM17.8837 17.8837V21.4651H19.6744C19.878 21.4651 20.0732 21.3843 20.2171 21.2403C20.361 21.0964 20.4419 20.9012 20.4419 20.6977V18.6512C20.4419 18.4476 20.361 18.2524 20.2171 18.1085C20.0732 17.9646 19.878 17.8837 19.6744 17.8837H17.8837ZM2.02325 12C2.02325 5.92493 6.94818 1 13.0233 1H19.6744C20.285 1 20.8706 1.24257 21.3024 1.67434C21.7342 2.10611 21.9767 2.69171 21.9767 3.30233V5.34884C21.9767 5.95945 21.7342 6.54506 21.3024 6.97683C20.8706 7.4086 20.285 7.65116 19.6744 7.65116H13.0233C11.8699 7.65116 10.7637 8.10934 9.94816 8.92491C9.1326 9.74047 8.67442 10.8466 8.67442 12C8.67442 13.1534 9.1326 14.2595 9.94816 15.0751C10.7637 15.8907 11.8699 16.3488 13.0233 16.3488H19.6744C20.285 16.3488 20.8706 16.5914 21.3024 17.0232C21.7342 17.4549 21.9767 18.0405 21.9767 18.6512V20.6977C21.9767 21.3083 21.7342 21.8939 21.3024 22.3257C20.8706 22.7574 20.285 23 19.6744 23H13.0233C6.94818 23 2.02325 18.0751 2.02325 12Z" fill="black"/>
</svg>
