<svg width="24" height="24" viewBox="0 0 24 24" fill="none" xmlns="http://www.w3.org/2000/svg">
<path fill-rule="evenodd" clip-rule="evenodd" d="M11.3928 3.40187V1.7032C11.3928 1.31544 11.7042 1 12.0959 1C12.4777 1 12.7992 1.31544 12.7992 1.7032V3.40187H14.8987C14.9087 3.40187 14.9087 3.40187 14.9087 3.40187C15.2603 3.39484 15.5616 3.64196 15.6219 3.99054L18.1836 19.4666C18.2137 19.6706 18.1534 19.8785 18.0228 20.0362C17.8922 20.1939 17.6913 20.2843 17.4904 20.2843H16.6566L16.9279 21.6626C16.9982 22.0443 16.747 22.413 16.3653 22.4873C15.9936 22.5607 15.622 22.3115 15.5416 21.9298L15.2301 20.2843H14.6576C14.3261 20.2843 14.0448 20.0644 13.9744 19.7509L12.0959 12.1857L10.2174 19.7509C10.1371 20.0644 9.85585 20.2843 9.5344 20.2843H8.77093L8.45946 21.9298C8.3791 22.3115 8.00747 22.5607 7.63578 22.4873C7.25406 22.413 7.00286 22.0443 7.07318 21.6626L7.34443 20.2843H6.7015C6.49054 20.2843 6.29965 20.1939 6.16906 20.0362C6.02842 19.8785 5.97828 19.6706 6.00842 19.4666L8.56995 3.99054C8.63022 3.63593 8.94172 3.38577 9.29332 3.40285C9.30336 3.40185 9.31331 3.40187 9.32336 3.40187H11.3928ZM7.53535 18.878H8.98185L11.222 9.87418C10.2978 9.65921 9.68506 9.09967 9.26315 8.39347L7.53535 18.878ZM14.9288 8.43167C14.517 9.12682 13.8941 9.67329 12.9699 9.88123L15.2001 18.878H15.8229C16.2147 18.878 16.6566 18.878 16.6566 18.878L14.9288 8.43167ZM14.2457 5.77664C14.2658 5.41199 14.2658 5.07547 14.2557 4.80826H9.97634C9.95625 5.25629 9.96628 5.89916 10.0868 6.54207C10.2777 7.52151 10.7599 8.55017 12.0859 8.56423H12.0959C13.1306 8.56423 13.6531 7.93539 13.9343 7.20106C14.1152 6.73897 14.2055 6.23672 14.2457 5.77664Z" fill="black"/>
</svg>
