<svg width="24" height="24" viewBox="0 0 24 24" fill="none" xmlns="http://www.w3.org/2000/svg">
<g clip-path="url(#clip0_221_15563)">
<path fill-rule="evenodd" clip-rule="evenodd" d="M7.945 2.25H16.055C17.422 2.25 18.525 2.25 19.392 2.367C20.292 2.487 21.05 2.747 21.652 3.348C22.254 3.95 22.512 4.708 22.634 5.608C22.75 6.475 22.75 7.578 22.75 8.945V10.055C22.75 11.422 22.75 12.525 22.634 13.392C22.512 14.292 22.254 15.05 21.652 15.652C21.05 16.254 20.292 16.512 19.392 16.634C18.525 16.75 17.422 16.75 16.055 16.75H12.75V18.46L18.237 20.288C18.3305 20.3191 18.417 20.3684 18.4914 20.4329C18.5659 20.4974 18.6269 20.576 18.671 20.6641C18.7152 20.7522 18.7415 20.8482 18.7485 20.9465C18.7555 21.0448 18.7431 21.1435 18.712 21.237C18.6809 21.3305 18.6316 21.417 18.5671 21.4914C18.5026 21.5659 18.424 21.6269 18.3359 21.671C18.2478 21.7152 18.1518 21.7415 18.0535 21.7485C17.9552 21.7555 17.8565 21.7431 17.763 21.712L12 19.79L6.237 21.71C6.14257 21.7455 6.04194 21.7616 5.94115 21.7573C5.84035 21.753 5.74146 21.7285 5.65038 21.6851C5.5593 21.6417 5.47792 21.5803 5.4111 21.5048C5.34428 21.4292 5.29339 21.3409 5.26149 21.2452C5.22958 21.1495 5.21732 21.0483 5.22543 20.9477C5.23353 20.8472 5.26184 20.7493 5.30867 20.6599C5.35549 20.5706 5.41986 20.4916 5.49792 20.4277C5.57599 20.3637 5.66615 20.3162 5.763 20.288L11.25 18.458V16.75H7.945C6.578 16.75 5.475 16.75 4.608 16.634C3.708 16.512 2.95 16.254 2.348 15.652C1.746 15.05 1.488 14.292 1.367 13.392C1.25 12.525 1.25 11.422 1.25 10.055V8.945C1.25 7.578 1.25 6.475 1.367 5.608C1.487 4.708 1.747 3.95 2.348 3.348C2.95 2.746 3.708 2.488 4.608 2.367C5.475 2.25 6.578 2.25 7.945 2.25ZM4.808 3.853C4.074 3.952 3.686 4.133 3.409 4.409C3.132 4.686 2.952 5.074 2.853 5.809C2.752 6.562 2.75 7.564 2.75 9V10C2.75 11.435 2.752 12.437 2.853 13.192C2.952 13.926 3.133 14.314 3.409 14.591C3.686 14.868 4.074 15.048 4.809 15.147C5.563 15.248 6.565 15.25 8 15.25H16C17.435 15.25 18.436 15.248 19.192 15.147C19.926 15.048 20.314 14.867 20.591 14.591C20.868 14.314 21.048 13.926 21.147 13.191C21.248 12.436 21.25 11.435 21.25 10V9C21.25 7.565 21.248 6.563 21.147 5.808C21.048 5.074 20.867 4.686 20.591 4.409C20.314 4.132 19.926 3.952 19.191 3.853C18.436 3.752 17.435 3.75 16 3.75H8C6.565 3.75 5.563 3.752 4.808 3.853Z" fill="black"/>
</g>
<defs>
<clipPath id="clip0_221_15563">
<rect width="24" height="24" fill="white"/>
</clipPath>
</defs>
</svg>
