<svg width="24" height="24" viewBox="0 0 24 24" fill="none" xmlns="http://www.w3.org/2000/svg">
<path fill-rule="evenodd" clip-rule="evenodd" d="M6.23129 21.2802V3.3767C6.23129 3.14277 6.32089 2.91881 6.49012 2.75356C6.64939 2.58832 6.87835 2.49577 7.1073 2.49577H17.5298C17.7687 2.49577 17.9877 2.58832 18.1569 2.75356C18.3162 2.91881 18.4158 3.14277 18.4158 3.3767V8.37097C18.4158 8.74527 18.7143 9.04989 19.0926 9.04989C19.4709 9.04989 19.7696 8.74527 19.7696 8.37097C19.7696 8.37097 19.7696 5.31487 19.7696 3.3767C19.7696 2.78241 19.5306 2.21304 19.1125 1.79395C18.6944 1.37386 18.1271 1.13794 17.5298 1.13794C14.9316 1.13794 9.71542 1.13794 7.1073 1.13794C6.51998 1.13794 5.95248 1.37386 5.52443 1.79395C5.10633 2.21304 4.86751 2.78241 4.86751 3.3767V21.2802H2.67741C2.29914 21.2802 1.9906 21.5848 1.9906 21.9591C1.9906 22.3334 2.29914 22.6379 2.67741 22.6379H7.07741C7.45569 22.6379 7.75438 22.3334 7.75438 21.9591C7.75438 21.5848 7.45569 21.2802 7.07741 21.2802H6.23129ZM15.7379 18.1892C15.7379 17.2993 15.0112 16.5776 14.1253 16.5776H11.2882C10.3923 16.5776 9.67556 17.2993 9.67556 18.1892V21.0263C9.67556 21.9163 10.3923 22.6379 11.2882 22.6379H14.1253C15.0112 22.6379 15.7379 21.9163 15.7379 21.0263V18.1892ZM22.0094 18.1892C22.0094 17.2993 21.2926 16.5776 20.3967 16.5776H17.5597C16.6737 16.5776 15.947 17.2993 15.947 18.1892V21.0263C15.947 21.9163 16.6737 22.6379 17.5597 22.6379H20.3967C21.2926 22.6379 22.0094 21.9163 22.0094 21.0263V18.1892ZM14.3741 18.1892V21.0263C14.3741 21.1667 14.2646 21.2802 14.1253 21.2802H11.2882C11.1488 21.2802 11.0294 21.1667 11.0294 21.0263V18.1892C11.0294 18.0489 11.1488 17.9344 11.2882 17.9344H14.1253C14.2646 17.9344 14.3741 18.0489 14.3741 18.1892ZM20.6556 18.1892V21.0263C20.6556 21.1667 20.5361 21.2802 20.3967 21.2802H17.5597C17.4203 21.2802 17.3108 21.1667 17.3108 21.0263V18.1892C17.3108 18.0489 17.4203 17.9344 17.5597 17.9344H20.3967C20.5361 17.9344 20.6556 18.0489 20.6556 18.1892ZM18.9334 11.9995C18.9334 11.1095 18.2167 10.3878 17.3208 10.3878H14.4836C13.5976 10.3878 12.871 11.1095 12.871 11.9995V14.8365C12.871 15.7265 13.5976 16.4482 14.4836 16.4482H17.3208C18.2167 16.4482 18.9334 15.7265 18.9334 14.8365V11.9995ZM17.5796 11.9995V14.8365C17.5796 14.9769 17.4601 15.0913 17.3208 15.0913H14.4836C14.3442 15.0913 14.2347 14.9769 14.2347 14.8365V11.9995C14.2347 11.8591 14.3442 11.7456 14.4836 11.7456H17.3208C17.4601 11.7456 17.5796 11.8591 17.5796 11.9995Z" fill="black"/>
</svg>
