<svg width="24" height="24" viewBox="0 0 24 24" fill="none" xmlns="http://www.w3.org/2000/svg">
<path fill-rule="evenodd" clip-rule="evenodd" d="M16.537 13.3507L16.5045 13.3499C16.1832 13.3499 15.9139 13.5937 15.8743 13.9052C15.0848 14.1341 14.4695 14.781 14.4695 15.618C14.4695 16.6689 15.4439 17.4206 16.5045 17.4206C16.9542 17.4206 17.2684 17.6758 17.2684 17.9513C17.2684 18.2268 16.9542 18.4812 16.5045 18.4812C16.0556 18.4812 15.7414 18.2268 15.7414 17.9513C15.7414 17.6019 15.4544 17.3149 15.105 17.3149C14.7565 17.3149 14.4695 17.6019 14.4695 17.9513C14.4695 18.7883 15.0848 19.4352 15.8743 19.6641C15.9139 19.9757 16.1832 20.2203 16.5045 20.2203C16.8266 20.2203 17.0959 19.9757 17.1355 19.6641C17.925 19.4352 18.5403 18.7883 18.5403 17.9513C18.5403 16.9004 17.5659 16.1487 16.5045 16.1487C16.0556 16.1487 15.7414 15.8935 15.7414 15.618C15.7414 15.3434 16.0556 15.0882 16.5045 15.0882C16.9542 15.0882 17.2684 15.3434 17.2684 15.618C17.2684 15.9674 17.5554 16.2544 17.9048 16.2544C18.2533 16.2544 18.5403 15.9674 18.5403 15.618C18.5403 14.781 17.925 14.1341 17.1355 13.9052C17.0977 13.6042 16.8451 13.3657 16.537 13.3507Z" fill="black"/>
<path fill-rule="evenodd" clip-rule="evenodd" d="M16.5021 10.6678C13.1256 10.6678 10.3881 13.4091 10.3881 16.7846C10.3881 20.1611 13.1256 22.9015 16.5021 22.9015C19.8786 22.9015 22.616 20.1611 22.616 16.7846C22.616 13.4091 19.8786 10.6678 16.5021 10.6678ZM2.81476 18.697H8.40423C8.80483 18.697 9.11959 18.3766 9.11959 17.9817C9.11959 17.5868 8.80483 17.2663 8.40423 17.2663H2.81476V3.6172C2.81476 3.18322 3.16774 2.83221 3.59695 2.83221H12.2958C12.725 2.83221 13.0778 3.18322 13.0778 3.6172V8.74112C13.0778 9.13504 13.4021 9.45648 13.7932 9.45648C14.1843 9.45648 14.5086 9.13504 14.5086 8.74112V3.6172C14.5086 2.39346 13.5166 1.40149 12.2958 1.40149H3.59695C2.37607 1.40149 1.38403 2.39346 1.38403 3.6172V20.5332C1.38403 21.7579 2.37607 22.7498 3.59695 22.7498H9.85393C10.2545 22.7498 10.5693 22.4294 10.5693 22.0345C10.5693 21.6396 10.2545 21.3191 9.85393 21.3191H3.59695C3.16774 21.3191 2.81476 20.9672 2.81476 20.5332V18.697ZM16.5021 12.0986C19.087 12.0986 21.1853 14.1988 21.1853 16.7846C21.1853 19.3714 19.087 21.4708 16.5021 21.4708C13.9173 21.4708 11.8188 19.3714 11.8188 16.7846C11.8188 14.1988 13.9173 12.0986 16.5021 12.0986Z" fill="black"/>
</svg>
