<svg width="24" height="24" viewBox="0 0 24 24" fill="none" xmlns="http://www.w3.org/2000/svg">
<path fill-rule="evenodd" clip-rule="evenodd" d="M16.0386 18.3858C16.0386 17.4646 15.2909 16.7179 14.3737 16.7179H11.4328C10.5156 16.7179 9.76783 17.4646 9.76783 18.3858V21.3227C9.76783 22.2439 10.5156 22.9906 11.4328 22.9906H14.3737C15.2909 22.9906 16.0386 22.2439 16.0386 21.3227V18.3858ZM22.5387 18.3858C22.5387 17.4646 21.7909 16.7179 20.8638 16.7179H17.9328C17.0057 16.7179 16.2579 17.4646 16.2579 18.3858V21.3227C16.2579 22.2439 17.0057 22.9906 17.9328 22.9906H20.8638C21.7909 22.9906 22.5387 22.2439 22.5387 21.3227V18.3858ZM2.63981 22.2449L7.70422 17.6011C7.98336 17.3399 8.00334 16.8953 7.74414 16.6092C7.48493 16.3231 7.03631 16.3042 6.7472 16.5663L1.69264 21.2101C1.40353 21.4722 1.38366 21.9169 1.64286 22.2021C1.91204 22.4882 2.35069 22.5071 2.63981 22.2449ZM14.6329 18.3858V21.3227C14.6329 21.4673 14.5133 21.5859 14.3737 21.5859H11.4328C11.2932 21.5859 11.1736 21.4673 11.1736 21.3227V18.3858C11.1736 18.2402 11.2932 18.1225 11.4328 18.1225H14.3737C14.5133 18.1225 14.6329 18.2402 14.6329 18.3858ZM21.133 18.3858V21.3227C21.133 21.4673 21.0133 21.5859 20.8638 21.5859H17.9328C17.7833 21.5859 17.6636 21.4673 17.6636 21.3227V18.3858C17.6636 18.2402 17.7833 18.1225 17.9328 18.1225H20.8638C21.0133 18.1225 21.133 18.2402 21.133 18.3858ZM19.3485 11.9784C19.3485 11.0573 18.6008 10.3105 17.6836 10.3105H14.7427C13.8255 10.3105 13.0777 11.0573 13.0777 11.9784V14.9154C13.0777 15.8366 13.8255 16.5833 14.7427 16.5833H17.6836C18.6008 16.5833 19.3485 15.8366 19.3485 14.9154V11.9784ZM17.9428 11.9784V14.9154C17.9428 15.061 17.8331 15.1786 17.6836 15.1786H14.7427C14.6031 15.1786 14.4835 15.061 14.4835 14.9154V11.9784C14.4835 11.8329 14.6031 11.7152 14.7427 11.7152H17.6836C17.8331 11.7152 17.9428 11.8329 17.9428 11.9784ZM15.0616 5.89311L13.1674 7.81421L8.31234 2.95808C8.0332 2.68392 7.58457 2.68496 7.3154 2.95912C1.73253 8.54099 7.29544 14.8187 7.29544 14.8187C7.54467 15.1088 7.99329 15.1347 8.2824 14.8775C8.57151 14.6193 8.60148 14.1747 8.34228 13.8855C8.34228 13.8855 3.97567 9.00554 7.83383 4.46846L12.6789 9.30664C12.8085 9.43923 12.988 9.513 13.1774 9.512C13.3569 9.512 13.5463 9.43619 13.6759 9.3036L16.0386 6.90599C16.4972 7.19211 17.0356 7.35761 17.6039 7.35761C19.2289 7.35761 20.5348 6.04262 20.5348 4.42459C20.5348 2.80556 19.2289 1.4906 17.6039 1.4906C15.9888 1.4906 14.6728 2.80556 14.6728 4.42459C14.6728 4.95895 14.8124 5.46143 15.0616 5.89311ZM17.6039 2.89529C18.4513 2.89529 19.1291 3.58018 19.1291 4.42459C19.1291 5.268 18.4513 5.95292 17.6039 5.95292C16.7665 5.95292 16.0785 5.268 16.0785 4.42459C16.0785 3.58018 16.7665 2.89529 17.6039 2.89529Z" fill="black"/>
</svg>
