<svg width="24" height="24" viewBox="0 0 24 24" fill="none" xmlns="http://www.w3.org/2000/svg">
<g clip-path="url(#clip0_221_15558)">
<path fill-rule="evenodd" clip-rule="evenodd" d="M22.75 11.944L22.75 12.056C22.75 13.894 22.75 15.35 22.597 16.489C22.439 17.661 22.107 18.61 21.359 19.359C20.61 20.107 19.661 20.439 18.489 20.597C17.349 20.75 15.894 20.75 14.056 20.75L9.94403 20.75C8.10603 20.75 6.65003 20.75 5.51103 20.597C4.33903 20.439 3.39003 20.107 2.64103 19.359C1.89303 18.61 1.56103 17.661 1.40303 16.489C1.25003 15.349 1.25003 13.894 1.25003 12.056L1.25003 11.944C1.25003 10.106 1.25003 8.65 1.40303 7.511C1.56103 6.339 1.89303 5.39 2.64103 4.641C3.39003 3.893 4.33903 3.561 5.51103 3.403C6.65103 3.25 8.10603 3.25 9.94403 3.25L14.056 3.25C15.894 3.25 17.35 3.25 18.489 3.403C19.661 3.561 20.61 3.893 21.359 4.641C22.107 5.39 22.439 6.339 22.597 7.511C22.75 8.651 22.75 10.106 22.75 11.944ZM20.927 6.814C20.781 6.325 20.576 5.98 20.298 5.702C19.875 5.279 19.295 5.025 18.289 4.89C17.261 4.752 15.907 4.75 14 4.75L10 4.75C8.09303 4.75 6.73803 4.752 5.71003 4.89C4.70503 5.025 4.12503 5.279 3.70203 5.702C3.27903 6.125 3.02503 6.705 2.89003 7.711C2.75203 8.739 2.75003 10.093 2.75003 12C2.75003 13.907 2.75203 15.262 2.89003 16.29C3.02503 17.295 3.27903 17.875 3.70203 18.298C4.12503 18.721 4.70503 18.975 5.71103 19.11C6.73803 19.248 8.09303 19.25 10 19.25L14 19.25C15.907 19.25 17.261 19.248 18.29 19.11C19.295 18.975 19.875 18.721 20.298 18.298C20.576 18.02 20.781 17.675 20.927 17.186C19.933 16.524 19.242 16.062 18.815 15.374C18.7297 15.236 18.6534 15.0937 18.586 14.947C18.249 14.205 18.249 13.367 18.25 12.16L18.25 11.84C18.25 10.633 18.249 9.795 18.586 9.053C18.6537 8.90617 18.7301 8.76358 18.815 8.626C19.242 7.938 19.933 7.476 20.927 6.814ZM21.184 8.451C20.54 8.895 20.269 9.128 20.089 9.418C20.0377 9.5 19.992 9.58533 19.952 9.674C19.766 10.084 19.75 10.568 19.75 12C19.75 13.432 19.766 13.917 19.952 14.326C19.992 14.414 20.0377 14.4993 20.089 14.582C20.269 14.872 20.54 15.105 21.184 15.549C21.249 14.629 21.25 13.481 21.25 12C21.25 10.519 21.249 9.372 21.184 8.451ZM5.00003 8.25C5.19894 8.25 5.38971 8.32902 5.53036 8.46967C5.67101 8.61032 5.75003 8.80109 5.75003 9L5.75003 15C5.75003 15.1989 5.67101 15.3897 5.53036 15.5303C5.38971 15.671 5.19894 15.75 5.00003 15.75C4.80112 15.75 4.61035 15.671 4.4697 15.5303C4.32905 15.3897 4.25003 15.1989 4.25003 15L4.25003 9C4.25003 8.80109 4.32905 8.61032 4.4697 8.46967C4.61035 8.32902 4.80112 8.25 5.00003 8.25Z" fill="black"/>
</g>
<defs>
<clipPath id="clip0_221_15558">
<rect width="24" height="24" fill="white"/>
</clipPath>
</defs>
</svg>
