<svg width="24" height="24" viewBox="0 0 24 24" fill="none" xmlns="http://www.w3.org/2000/svg">
<path fill-rule="evenodd" clip-rule="evenodd" d="M11.9366 1H12.0634C14.1806 1 15.8556 1 17.1664 1.19544C18.5202 1.39805 19.5946 1.82372 20.4306 2.75284C21.2564 3.66967 21.6258 4.83005 21.8018 6.2933C21.9767 7.73302 21.9767 9.58 21.9767 11.9468V12.0532C21.9767 14.42 21.9767 16.267 21.8028 17.7067C21.6258 19.17 21.2564 20.3303 20.4316 21.2472C19.5946 22.1763 18.5212 22.602 17.1664 22.8046C15.8556 23 14.1806 23 12.0645 23H11.9355C9.81944 23 8.14437 23 6.83358 22.8046C5.47879 22.602 4.40539 22.1763 3.56939 21.2472C2.74363 20.3303 2.37423 19.17 2.19823 17.7067C2.02325 16.267 2.02325 14.42 2.02325 12.0532V11.9468C2.02325 9.58 2.02325 7.73302 2.19721 6.29433C2.37423 4.82902 2.74363 3.66967 3.56837 2.75284C4.40539 1.82372 5.47879 1.39805 6.83358 1.19544C8.14437 1 9.81944 1 11.9366 1ZM7.06074 2.71395C5.90753 2.88586 5.22195 3.21023 4.7093 3.77916C4.18744 4.36037 3.88046 5.15647 3.72084 6.47851C3.55916 7.81488 3.55814 9.56874 3.55814 12C3.55814 14.4313 3.55916 16.1851 3.72186 17.5215C3.88149 18.8435 4.18642 19.6396 4.7093 20.2208C5.22195 20.7898 5.90753 21.1141 7.06074 21.286C8.24465 21.4631 9.80511 21.4651 12 21.4651C14.1949 21.4651 15.7553 21.4631 16.9393 21.286C18.0925 21.1141 18.778 20.7898 19.2897 20.2208C19.8136 19.6396 20.1185 18.8435 20.2792 17.5215C20.4408 16.1851 20.4419 14.4313 20.4419 12C20.4419 9.56874 20.4408 7.81488 20.2781 6.47851C20.1185 5.15647 19.8136 4.36037 19.2907 3.77916C18.778 3.21023 18.0925 2.88586 16.9393 2.71395C15.7553 2.53693 14.1949 2.53488 12 2.53488C9.80511 2.53488 8.24465 2.53693 7.06074 2.71395ZM8.84428 5.09302H15.1557C15.5446 5.09302 15.8822 5.09302 16.1769 5.17181C16.5672 5.27632 16.9231 5.48169 17.2088 5.76727C17.4946 6.05285 17.7002 6.4086 17.8049 6.79879C17.8847 7.09553 17.8847 7.43116 17.8837 7.82205V7.99293C17.8837 8.38177 17.8837 8.71944 17.8049 9.01414C17.7004 9.40439 17.4951 9.76027 17.2095 10.046C16.9239 10.3318 16.5681 10.5374 16.178 10.6421C15.8812 10.722 15.5456 10.722 15.1547 10.7209H8.8453C8.45646 10.7209 8.11879 10.7209 7.82409 10.6421C7.43384 10.5376 7.07796 10.3323 6.7922 10.0467C6.50643 9.7611 6.30085 9.40535 6.19609 9.01516C6.11628 8.71842 6.1173 8.38279 6.1173 7.99191V7.82102C6.1173 7.43219 6.1173 7.09451 6.19609 6.79981C6.3006 6.40956 6.50596 6.05368 6.79155 5.76792C7.07713 5.48215 7.43288 5.27657 7.82307 5.17181C8.11981 5.092 8.45544 5.09302 8.84632 5.09302M8.93023 6.62791C8.4053 6.62791 8.29274 6.63405 8.22009 6.65451C8.09007 6.6894 7.97151 6.75788 7.87632 6.85307C7.78113 6.94826 7.71265 7.06682 7.67777 7.19684C7.6573 7.26949 7.65116 7.38102 7.65116 7.90698C7.65116 8.43191 7.6573 8.54447 7.67777 8.61712C7.71265 8.74714 7.78113 8.86569 7.87632 8.96089C7.97151 9.05608 8.09007 9.12455 8.22009 9.15944C8.29274 9.17991 8.40428 9.18605 8.93023 9.18605H15.0698C15.5947 9.18605 15.7073 9.17991 15.7799 9.15944C15.9099 9.12455 16.0285 9.05608 16.1237 8.96089C16.2189 8.86569 16.2873 8.74714 16.3222 8.61712C16.3427 8.54447 16.3488 8.43293 16.3488 7.90698C16.3488 7.38205 16.3427 7.26949 16.3222 7.19684C16.2873 7.06682 16.2189 6.94826 16.1237 6.85307C16.0285 6.75788 15.9099 6.6894 15.7799 6.65451C15.7073 6.63405 15.5957 6.62791 15.0698 6.62791H8.93023ZM8.4186 13.2791C8.62214 13.2791 8.81734 13.3599 8.96127 13.5038C9.10519 13.6478 9.18604 13.843 9.18604 14.0465V14.814H9.95349C10.157 14.814 10.3522 14.8948 10.4961 15.0387C10.6401 15.1827 10.7209 15.3779 10.7209 15.5814C10.7209 15.7849 10.6401 15.9801 10.4961 16.1241C10.3522 16.268 10.157 16.3488 9.95349 16.3488H9.18604V17.1163C9.18604 17.3198 9.10519 17.515 8.96127 17.6589C8.81734 17.8029 8.62214 17.8837 8.4186 17.8837C8.21506 17.8837 8.01986 17.8029 7.87594 17.6589C7.73202 17.515 7.65116 17.3198 7.65116 17.1163V16.3488H6.88372C6.68018 16.3488 6.48498 16.268 6.34106 16.1241C6.19713 15.9801 6.11628 15.7849 6.11628 15.5814C6.11628 15.3779 6.19713 15.1827 6.34106 15.0387C6.48498 14.8948 6.68018 14.814 6.88372 14.814H7.65116V14.0465C7.65116 13.843 7.73202 13.6478 7.87594 13.5038C8.01986 13.3599 8.21506 13.2791 8.4186 13.2791Z" fill="black"/>
<path d="M16.4338 13.8756C16.4338 14.1016 16.344 14.3184 16.1841 14.4783C16.0243 14.6381 15.8075 14.7279 15.5814 14.7279C15.3553 14.7279 15.1385 14.6381 14.9787 14.4783C14.8188 14.3184 14.729 14.1016 14.729 13.8756C14.729 13.6495 14.8188 13.4327 14.9787 13.2728C15.1385 13.113 15.3553 13.0232 15.5814 13.0232C15.8075 13.0232 16.0243 13.113 16.1841 13.2728C16.344 13.4327 16.4338 13.6495 16.4338 13.8756ZM16.4338 17.2871C16.4338 17.5132 16.344 17.73 16.1841 17.8898C16.0243 18.0497 15.8075 18.1395 15.5814 18.1395C15.3553 18.1395 15.1385 18.0497 14.9787 17.8898C14.8188 17.73 14.729 17.5132 14.729 17.2871C14.729 17.061 14.8188 16.8442 14.9787 16.6844C15.1385 16.5245 15.3553 16.4347 15.5814 16.4347C15.8075 16.4347 16.0243 16.5245 16.1841 16.6844C16.344 16.8442 16.4338 17.061 16.4338 17.2871ZM14.729 15.5813C14.729 15.8075 14.6392 16.0245 14.4792 16.1844C14.3193 16.3444 14.1023 16.4342 13.8761 16.4342C13.6499 16.4342 13.433 16.3444 13.2731 16.1844C13.1131 16.0245 13.0233 15.8075 13.0233 15.5813C13.0233 15.3551 13.1131 15.1382 13.2731 14.9783C13.433 14.8183 13.6499 14.7284 13.8761 14.7284C14.1023 14.7284 14.3193 14.8183 14.4792 14.9783C14.6392 15.1382 14.729 15.3551 14.729 15.5813ZM18.1395 15.5813C18.1395 15.8075 18.0497 16.0245 17.8897 16.1844C17.7298 16.3444 17.5128 16.4342 17.2866 16.4342C17.0605 16.4342 16.8435 16.3444 16.6836 16.1844C16.5236 16.0245 16.4338 15.8075 16.4338 15.5813C16.4338 15.3551 16.5236 15.1382 16.6836 14.9783C16.8435 14.8183 17.0605 14.7284 17.2866 14.7284C17.5128 14.7284 17.7298 14.8183 17.8897 14.9783C18.0497 15.1382 18.1395 15.3551 18.1395 15.5813Z" fill="black"/>
</svg>
