<svg width="24" height="24" viewBox="0 0 24 24" fill="none" xmlns="http://www.w3.org/2000/svg">
<path fill-rule="evenodd" clip-rule="evenodd" d="M17.016 5.57996H12.906V1.98297C12.906 1.58697 12.5759 1.26501 12.1859 1.26501C11.7859 1.26501 11.4659 1.58697 11.4659 1.98297V5.57996H7.01599V1.98297C7.01599 1.58697 6.69591 1.26501 6.30591 1.26501C5.90591 1.26501 5.58594 1.58697 5.58594 1.98297V5.57996H1.98596C1.59596 5.57996 1.26599 5.90097 1.26599 6.29797C1.26599 6.69397 1.59596 7.01599 1.98596 7.01599H5.58594V11.297H1.98596C1.59596 11.297 1.26599 11.619 1.26599 12.015C1.26599 12.412 1.59596 12.733 1.98596 12.733H5.58594V17.014H1.98596C1.59596 17.014 1.26599 17.336 1.26599 17.732C1.26599 18.129 1.59596 18.451 1.98596 18.451H5.58594V22.047C5.58594 22.443 5.90591 22.765 6.30591 22.765C6.69591 22.765 7.01599 22.443 7.01599 22.047V18.451H11.4659V22.047C11.4659 22.443 11.7859 22.765 12.1859 22.765C12.5759 22.765 12.906 22.443 12.906 22.047V18.451H17.016V22.047C17.016 22.443 17.346 22.765 17.736 22.765C18.136 22.765 18.4559 22.443 18.4559 22.047V18.451H22.0559C22.4459 18.451 22.766 18.129 22.766 17.732C22.766 17.336 22.4459 17.014 22.0559 17.014H18.4559V12.733H22.0559C22.4459 12.733 22.766 12.412 22.766 12.015C22.766 11.619 22.4459 11.297 22.0559 11.297H18.4559V7.01599H22.0559C22.4459 7.01599 22.766 6.69397 22.766 6.29797C22.766 5.90097 22.4459 5.57996 22.0559 5.57996H18.4559V1.98297C18.4559 1.58697 18.136 1.26501 17.736 1.26501C17.346 1.26501 17.016 1.58697 17.016 1.98297V5.57996ZM7.01599 12.733V17.014H11.4659V12.733H7.01599ZM12.906 12.733V17.014H17.016V12.733H12.906ZM7.01599 7.01599V11.297H11.4659V7.01599H7.01599ZM12.906 7.01599V11.297H17.016V7.01599H12.906Z" fill="black"/>
</svg>
