<svg width="24" height="24" viewBox="0 0 24 24" fill="none" xmlns="http://www.w3.org/2000/svg">
<g clip-path="url(#clip0_221_15600)">
<path d="M12 12.25C12.1989 12.25 12.3897 12.329 12.5303 12.4697C12.671 12.6103 12.75 12.8011 12.75 13V15C12.75 15.1989 12.671 15.3897 12.5303 15.5303C12.3897 15.671 12.1989 15.75 12 15.75C11.8011 15.75 11.6103 15.671 11.4697 15.5303C11.329 15.3897 11.25 15.1989 11.25 15V13C11.25 12.8011 11.329 12.6103 11.4697 12.4697C11.6103 12.329 11.8011 12.25 12 12.25Z" fill="black"/>
<path fill-rule="evenodd" clip-rule="evenodd" d="M5.95499 1.25C5.52199 1.25 5.12499 1.25 4.80299 1.293C4.44699 1.341 4.07099 1.453 3.76299 1.763C3.45299 2.072 3.34099 2.447 3.29299 2.803C3.24999 3.126 3.24999 3.523 3.24999 3.955V4.252C3.24899 4.577 3.24799 4.929 3.38299 5.255C3.51799 5.582 3.76799 5.83 3.99899 6.06L4.05499 6.116L7.29799 9.36C7.91899 9.981 8.07299 10.153 8.15499 10.351C8.23699 10.549 8.24999 10.779 8.24999 11.658V19.026C8.24999 19.471 8.24999 19.842 8.26999 20.146C8.29199 20.463 8.33899 20.763 8.45999 21.053C8.73864 21.7269 9.27351 22.2624 9.94699 22.542C10.237 22.662 10.537 22.709 10.855 22.73C11.159 22.751 11.53 22.751 11.975 22.751H12.025C12.469 22.751 12.841 22.751 13.145 22.731C13.462 22.709 13.762 22.662 14.052 22.541C14.3857 22.4029 14.689 22.2004 14.9445 21.9451C15.2 21.6898 15.4027 21.3867 15.541 21.053C15.661 20.763 15.707 20.463 15.729 20.146C15.749 19.842 15.749 19.471 15.749 19.026V11.658C15.749 10.779 15.763 10.548 15.845 10.351C15.927 10.153 16.08 9.981 16.702 9.36L19.944 6.117L20.001 6.061C20.232 5.831 20.481 5.583 20.617 5.256C20.752 4.93 20.751 4.578 20.75 4.253V3.956C20.75 3.523 20.75 3.126 20.706 2.804C20.659 2.448 20.546 2.073 20.237 1.764C19.928 1.455 19.553 1.342 19.197 1.294C18.874 1.251 18.477 1.251 18.045 1.251L5.95499 1.25ZM4.82499 2.822L4.82299 2.823L4.82199 2.826L4.81699 2.836C4.79787 2.88994 4.78545 2.94603 4.77999 3.003C4.75099 3.213 4.74999 3.507 4.74999 4V4.25H19.25V4C19.25 3.507 19.248 3.213 19.22 3.003C19.2137 2.94242 19.1996 2.88292 19.178 2.826L19.177 2.823L19.174 2.822L19.164 2.817C19.11 2.79789 19.054 2.78546 18.997 2.78C18.787 2.752 18.492 2.75 18 2.75H5.99999C5.50699 2.75 5.21299 2.752 5.00199 2.78C4.94175 2.78633 4.88259 2.80044 4.82599 2.822M18.19 5.75H5.80999L8.44399 8.384C8.75599 8.694 9.02699 8.965 9.23699 9.25H14.762C14.972 8.965 15.244 8.695 15.555 8.384L18.19 5.75ZM14.264 10.75H9.73699C9.74999 10.992 9.74999 11.252 9.74999 11.536V19C9.74999 19.476 9.74999 19.796 9.76699 20.043C9.78399 20.284 9.81299 20.401 9.84499 20.478C9.97199 20.785 10.215 21.028 10.521 21.155C10.599 21.187 10.716 21.216 10.957 21.233C11.204 21.25 11.524 21.25 12 21.25C12.476 21.25 12.796 21.25 13.043 21.233C13.283 21.216 13.401 21.187 13.478 21.155C13.784 21.028 14.028 20.785 14.155 20.478C14.187 20.401 14.216 20.284 14.233 20.043C14.249 19.796 14.25 19.476 14.25 19V11.536C14.25 11.252 14.25 10.993 14.263 10.75" fill="black"/>
</g>
<defs>
<clipPath id="clip0_221_15600">
<rect width="24" height="24" fill="white"/>
</clipPath>
</defs>
</svg>
