<svg width="24" height="24" viewBox="0 0 24 24" fill="none" xmlns="http://www.w3.org/2000/svg">
<g clip-path="url(#clip0_221_15621)">
<path fill-rule="evenodd" clip-rule="evenodd" d="M5.948 1.25002H18.538C19.208 1.25002 19.767 1.25002 20.219 1.29602C20.692 1.34402 21.132 1.44902 21.528 1.71302C21.828 1.91402 22.086 2.17202 22.287 2.47302C22.551 2.86802 22.656 3.30802 22.704 3.78102C22.75 4.23302 22.75 4.79202 22.75 5.46102V5.53802C22.75 6.20802 22.75 6.76702 22.704 7.21902C22.656 7.69202 22.551 8.13202 22.286 8.52802C22.086 8.82802 21.828 9.08602 21.528 9.28702C21.132 9.55102 20.693 9.65602 20.219 9.70402C19.767 9.75002 19.208 9.75002 18.539 9.75002H11C10.507 9.75002 10.213 9.75202 10.003 9.78002C9.94242 9.78627 9.88292 9.80038 9.826 9.82202L9.823 9.82302L9.822 9.82602L9.817 9.83602C9.79789 9.88997 9.78546 9.94605 9.78 10.003C9.752 10.213 9.75 10.507 9.75 11V18.538C9.75 19.208 9.75 19.767 9.704 20.219C9.656 20.692 9.551 21.132 9.287 21.528C9.08502 21.8277 8.82694 22.0854 8.527 22.287C8.132 22.551 7.692 22.656 7.219 22.704C6.767 22.75 6.208 22.75 5.539 22.75H5.462C4.792 22.75 4.233 22.75 3.781 22.704C3.308 22.656 2.868 22.551 2.472 22.286C2.172 22.086 1.914 21.828 1.713 21.528C1.449 21.132 1.344 20.693 1.296 20.219C1.25 19.767 1.25 19.208 1.25 18.539V5.94702C1.25 5.04902 1.25 4.29902 1.33 3.70502C1.414 3.07702 1.6 2.51002 2.055 2.05502C2.511 1.59902 3.078 1.41302 3.705 1.32902C4.3 1.24902 5.05 1.24902 5.948 1.24902M2.75 9.75002H5C5.19891 9.75002 5.38968 9.67101 5.53033 9.53035C5.67098 9.3897 5.75 9.19894 5.75 9.00002C5.75 8.80111 5.67098 8.61035 5.53033 8.46969C5.38968 8.32904 5.19891 8.25002 5 8.25002H2.75V6.00002C2.75 5.03602 2.752 4.38802 2.817 3.90502C2.879 3.44402 2.986 3.24602 3.117 3.11602C3.248 2.98602 3.444 2.87902 3.905 2.81602C4.388 2.75302 5.036 2.75002 6 2.75002H8.25V5.00002C8.25 5.19894 8.32902 5.3897 8.46967 5.53035C8.61032 5.67101 8.80109 5.75002 9 5.75002C9.19891 5.75002 9.38968 5.67101 9.53033 5.53035C9.67098 5.3897 9.75 5.19894 9.75 5.00002V2.75002H11.25V4.00002C11.25 4.19894 11.329 4.3897 11.4697 4.53035C11.6103 4.67101 11.8011 4.75002 12 4.75002C12.1989 4.75002 12.3897 4.67101 12.5303 4.53035C12.671 4.3897 12.75 4.19894 12.75 4.00002V2.75002H14.25V5.00002C14.25 5.19894 14.329 5.3897 14.4697 5.53035C14.6103 5.67101 14.8011 5.75002 15 5.75002C15.1989 5.75002 15.3897 5.67101 15.5303 5.53035C15.671 5.3897 15.75 5.19894 15.75 5.00002V2.75002H17.25V4.00002C17.25 4.19894 17.329 4.3897 17.4697 4.53035C17.6103 4.67101 17.8011 4.75002 18 4.75002C18.1989 4.75002 18.3897 4.67101 18.5303 4.53035C18.671 4.3897 18.75 4.19894 18.75 4.00002V2.75002C19.333 2.75002 19.744 2.75502 20.067 2.78802C20.422 2.82402 20.586 2.88802 20.695 2.96102C20.831 3.05102 20.948 3.16902 21.039 3.30602C21.112 3.41402 21.176 3.57802 21.212 3.93302C21.249 4.30002 21.25 4.78302 21.25 5.50002C21.25 6.21802 21.25 6.70002 21.212 7.06702C21.176 7.42202 21.112 7.58602 21.039 7.69402C20.9471 7.82967 20.8304 7.94673 20.695 8.03902C20.586 8.11202 20.422 8.17602 20.067 8.21202C19.7 8.24902 19.217 8.25002 18.5 8.25002H10.955C10.522 8.25002 10.125 8.25002 9.803 8.29302C9.447 8.34102 9.072 8.45302 8.763 8.76302C8.454 9.07302 8.341 9.44702 8.293 9.80302C8.25 10.126 8.25 10.523 8.25 10.955V18.5C8.25 19.218 8.25 19.7 8.212 20.067C8.176 20.422 8.112 20.586 8.039 20.695C7.94671 20.8304 7.82965 20.9471 7.694 21.039C7.586 21.112 7.422 21.176 7.067 21.212C6.7 21.249 6.217 21.25 5.5 21.25C4.782 21.25 4.3 21.25 3.933 21.212C3.578 21.176 3.414 21.112 3.306 21.039C3.17035 20.9471 3.05329 20.8304 2.961 20.695C2.888 20.586 2.824 20.422 2.788 20.067C2.755 19.744 2.751 19.333 2.75 18.75H4C4.19891 18.75 4.38968 18.671 4.53033 18.5304C4.67098 18.3897 4.75 18.1989 4.75 18C4.75 17.8011 4.67098 17.6103 4.53033 17.4697C4.38968 17.329 4.19891 17.25 4 17.25H2.75V15.75H5C5.19891 15.75 5.38968 15.671 5.53033 15.5304C5.67098 15.3897 5.75 15.1989 5.75 15C5.75 14.8011 5.67098 14.6103 5.53033 14.4697C5.38968 14.329 5.19891 14.25 5 14.25H2.75V12.75H4C4.19891 12.75 4.38968 12.671 4.53033 12.5304C4.67098 12.3897 4.75 12.1989 4.75 12C4.75 11.8011 4.67098 11.6103 4.53033 11.4697C4.38968 11.329 4.19891 11.25 4 11.25H2.75V9.75002Z" fill="black"/>
</g>
<defs>
<clipPath id="clip0_221_15621">
<rect width="24" height="24" fill="white"/>
</clipPath>
</defs>
</svg>
