<svg width="24" height="24" viewBox="0 0 24 24" fill="none" xmlns="http://www.w3.org/2000/svg">
<path fill-rule="evenodd" clip-rule="evenodd" d="M11.5586 1.55896L5.08816 1.54712C4.82225 1.54712 4.58589 1.69684 4.46771 1.9332L1.5822 7.80875C1.51326 7.94466 1.4935 8.09238 1.52305 8.23223C1.5132 8.29624 1.51319 8.36024 1.51319 8.42524C1.51319 11.1877 1.51319 18.5228 1.51319 21.2852C1.51319 21.7521 1.70033 22.2012 2.02533 22.5311C2.36017 22.862 2.80337 23.0471 3.27609 23.0471C4.91092 23.0471 7.82604 23.0471 7.82604 23.0471C8.21012 23.0471 8.51538 22.7389 8.51538 22.3578C8.51538 21.9776 8.21012 21.6684 7.82604 21.6684H3.27609C3.16776 21.6684 3.07909 21.628 3.00031 21.5561C2.93137 21.4842 2.89199 21.3867 2.89199 21.2852V8.42524C2.89199 8.32282 2.93137 8.22532 3.00031 8.15342C3.07909 8.08153 3.16776 8.04114 3.27609 8.04114H19.841C19.9395 8.04114 20.038 8.08153 20.1168 8.15342C20.1857 8.22532 20.2251 8.32282 20.2251 8.42524V9.10773C20.2251 9.47605 20.5108 9.77745 20.8751 9.79616L20.9146 9.79712L20.944 9.79316C21.0721 9.77444 21.6039 9.6632 21.6039 9.09889C21.6039 9.04374 21.6039 8.75319 21.6039 8.42524C21.6039 8.36024 21.6039 8.29624 21.5941 8.23223C21.6138 8.09238 21.604 7.94466 21.535 7.80875L18.6494 1.9332C18.5312 1.69684 18.2949 1.54712 18.0289 1.54712L11.5586 1.55896ZM16.1184 18.5277C16.1184 17.6236 15.3896 16.8909 14.4836 16.8909H11.5979C10.6919 16.8909 9.96318 17.6236 9.96318 18.5277V21.4103C9.96318 22.3144 10.6919 23.0471 11.5979 23.0471H14.4836C15.3896 23.0471 16.1184 22.3144 16.1184 21.4103V18.5277ZM22.4903 18.5277C22.4903 17.6236 21.7615 16.8909 20.8554 16.8909H17.9698C17.0736 16.8909 16.3351 17.6236 16.3351 18.5277V21.4103C16.3351 22.3144 17.0736 23.0471 17.9698 23.0471H20.8554C21.7615 23.0471 22.4903 22.3144 22.4903 21.4103V18.5277ZM14.7396 18.5277V21.4103C14.7396 21.5531 14.6214 21.6684 14.4836 21.6684H11.5979C11.46 21.6684 11.3419 21.5531 11.3419 21.4103V18.5277C11.3419 18.3849 11.46 18.2697 11.5979 18.2697H14.4836C14.6214 18.2697 14.7396 18.3849 14.7396 18.5277ZM21.1115 18.5277V21.4103C21.1115 21.5531 21.0032 21.6684 20.8554 21.6684H17.9698C17.8319 21.6684 17.7139 21.5531 17.7139 21.4103V18.5277C17.7139 18.3849 17.8319 18.2697 17.9698 18.2697H20.8554C21.0032 18.2697 21.1115 18.3849 21.1115 18.5277ZM19.3683 12.2395C19.3683 11.3354 18.6395 10.6027 17.7334 10.6027H14.8479C13.9419 10.6027 13.2131 11.3354 13.2131 12.2395V15.1221C13.2131 16.0262 13.9419 16.7589 14.8479 16.7589H17.7334C18.6395 16.7589 19.3683 16.0262 19.3683 15.1221V12.2395ZM17.9895 12.2395V15.1221C17.9895 15.2649 17.8713 15.3802 17.7334 15.3802H14.8479C14.7002 15.3802 14.5919 15.2649 14.5919 15.1221V12.2395C14.5919 12.0967 14.7002 11.9815 14.8479 11.9815H17.7334C17.8713 11.9815 17.9895 12.0967 17.9895 12.2395ZM3.67991 6.6624H10.8692V2.93674L5.52155 2.92688L3.67991 6.6624ZM19.4373 6.6624L17.5957 2.92688L12.248 2.93674V6.6624H19.4373Z" fill="black"/>
</svg>
