<svg width="24" height="24" viewBox="0 0 24 24" fill="none" xmlns="http://www.w3.org/2000/svg">
<g clip-path="url(#clip0_221_15595)">
<path fill-rule="evenodd" clip-rule="evenodd" d="M11.524 1.25C5.85 1.25 1.25 5.85 1.25 11.524C1.25 12.201 1.799 12.75 2.476 12.75H11.25V20C11.25 20.3315 11.1183 20.6495 10.8839 20.8839C10.6495 21.1183 10.3315 21.25 10 21.25C9.66848 21.25 9.35054 21.1183 9.11612 20.8839C8.8817 20.6495 8.75 20.3315 8.75 20V19C8.75 18.8011 8.67098 18.6103 8.53033 18.4697C8.38968 18.329 8.19891 18.25 8 18.25C7.80109 18.25 7.61032 18.329 7.46967 18.4697C7.32902 18.6103 7.25 18.8011 7.25 19V20C7.25 20.7293 7.53973 21.4288 8.05546 21.9445C8.57118 22.4603 9.27065 22.75 10 22.75C10.7293 22.75 11.4288 22.4603 11.9445 21.9445C12.4603 21.4288 12.75 20.7293 12.75 20V12.75H21.524C22.201 12.75 22.75 12.201 22.75 11.524C22.75 5.85 18.15 1.25 12.476 1.25H11.524ZM8.844 3.167C7.11892 3.72124 5.60756 4.79562 4.51723 6.24277C3.4269 7.68992 2.81099 9.43897 2.754 11.25H6.415C6.591 9.808 6.941 7.654 7.606 5.738C7.925 4.818 8.328 3.917 8.844 3.167ZM7.927 11.25C8.103 9.868 8.433 7.93 9.023 6.229C9.385 5.187 9.825 4.288 10.348 3.662C10.862 3.046 11.403 2.75 12 2.75C12.597 2.75 13.138 3.046 13.652 3.662C14.175 4.288 14.615 5.187 14.977 6.229C15.567 7.93 15.897 9.869 16.073 11.25H7.927ZM17.585 11.25C17.409 9.808 17.058 7.654 16.394 5.738C16.075 4.818 15.672 3.917 15.156 3.167C16.8811 3.72124 18.3924 4.79562 19.4828 6.24277C20.5731 7.68992 21.189 9.43897 21.246 11.25H17.585Z" fill="black"/>
</g>
<defs>
<clipPath id="clip0_221_15595">
<rect width="24" height="24" fill="white"/>
</clipPath>
</defs>
</svg>
