<svg width="24" height="24" viewBox="0 0 24 24" fill="none" xmlns="http://www.w3.org/2000/svg">
<g clip-path="url(#clip0_221_15568)">
<path fill-rule="evenodd" clip-rule="evenodd" d="M12.62 2.762C12.4136 2.74999 12.2067 2.74599 12 2.75C9.622 2.75 7.914 2.752 6.614 2.926C5.335 3.098 4.564 3.426 3.994 3.995C3.425 4.565 3.098 5.335 2.926 6.614C2.752 7.914 2.75 9.622 2.75 12C2.75 14.378 2.752 16.086 2.926 17.386C3.098 18.665 3.426 19.436 3.995 20.006C4.508 20.519 5.185 20.835 6.25 21.018V20.948C6.25 20.049 6.25 19.3 6.33 18.706C6.414 18.078 6.6 17.511 7.055 17.056C7.511 16.6 8.078 16.414 8.705 16.33C9.3 16.25 10.05 16.25 10.948 16.25H13.052C13.951 16.25 14.7 16.25 15.294 16.33C15.922 16.414 16.489 16.6 16.944 17.056C17.4 17.511 17.586 18.078 17.67 18.706C17.75 19.3 17.75 20.049 17.75 20.948V21.018C18.815 20.835 19.492 20.518 20.005 20.005C20.575 19.435 20.902 18.665 21.074 17.386C21.248 16.086 21.25 14.378 21.25 12C21.25 11.647 21.25 11.513 21.238 11.38C21.1767 10.7158 20.9155 10.0858 20.489 9.573C20.3488 9.41493 20.2023 9.26248 20.05 9.116L14.884 3.95C14.7375 3.79735 14.5851 3.65057 14.427 3.51C13.9144 3.084 13.2847 2.82322 12.621 2.762M16.251 21.18V21C16.251 20.036 16.249 19.388 16.184 18.905C16.122 18.444 16.015 18.246 15.884 18.116C15.753 17.986 15.557 17.879 15.096 17.816C14.613 17.752 13.965 17.75 13.001 17.75H11.001C10.037 17.75 9.389 17.752 8.906 17.817C8.445 17.879 8.247 17.986 8.117 18.117C7.987 18.248 7.88 18.444 7.817 18.905C7.753 19.388 7.751 20.036 7.751 21V21.18C8.877 21.25 10.259 21.25 12.001 21.25C13.743 21.25 15.125 21.25 16.251 21.18ZM12.031 1.25C12.343 1.25 12.544 1.25 12.751 1.268C13.7217 1.35618 14.6425 1.73776 15.391 2.362C15.551 2.495 15.696 2.641 15.921 2.866L15.945 2.889L21.135 8.079C21.359 8.304 21.505 8.449 21.638 8.609C22.2622 9.35752 22.6438 10.2783 22.732 11.249C22.75 11.456 22.75 11.657 22.75 11.969V12.057C22.75 14.366 22.75 16.175 22.56 17.587C22.366 19.031 21.96 20.171 21.066 21.066C20.171 21.961 19.031 22.366 17.586 22.56C16.175 22.75 14.366 22.75 12.057 22.75H11.943C9.634 22.75 7.825 22.75 6.413 22.56C4.969 22.366 3.829 21.96 2.934 21.066C2.039 20.171 1.634 19.031 1.44 17.586C1.25 16.175 1.25 14.366 1.25 12.057V11.943C1.25 9.634 1.25 7.825 1.44 6.413C1.634 4.969 2.04 3.829 2.934 2.934C3.829 2.039 4.969 1.634 6.414 1.44C7.825 1.25 9.634 1.25 11.943 1.25H12.031ZM6.25 8C6.25 7.80109 6.32902 7.61032 6.46967 7.46967C6.61032 7.32902 6.80109 7.25 7 7.25H13C13.1989 7.25 13.3897 7.32902 13.5303 7.46967C13.671 7.61032 13.75 7.80109 13.75 8C13.75 8.19891 13.671 8.38968 13.5303 8.53033C13.3897 8.67098 13.1989 8.75 13 8.75H7C6.80109 8.75 6.61032 8.67098 6.46967 8.53033C6.32902 8.38968 6.25 8.19891 6.25 8Z" fill="black"/>
</g>
<defs>
<clipPath id="clip0_221_15568">
<rect width="24" height="24" fill="white"/>
</clipPath>
</defs>
</svg>
