<svg width="24" height="24" viewBox="0 0 24 24" fill="none" xmlns="http://www.w3.org/2000/svg">
<path fill-rule="evenodd" clip-rule="evenodd" d="M19.4532 11.9433C19.4532 11.0269 18.7102 10.2838 17.7938 10.2838H14.8727C13.9563 10.2838 13.2133 11.0269 13.2133 11.9433V14.8643C13.2133 15.7808 13.9563 16.5238 14.8727 16.5238H17.7938C18.7102 16.5238 19.4532 15.7808 19.4532 14.8643V11.9433ZM18.0558 11.9433V14.8643C18.0558 15.0089 17.9384 15.1263 17.7938 15.1263H14.8727C14.7281 15.1263 14.6107 15.0089 14.6107 14.8643V11.9433C14.6107 11.7987 14.7281 11.6813 14.8727 11.6813H17.7938C17.9384 11.6813 18.0558 11.7987 18.0558 11.9433Z" fill="black"/>
<path fill-rule="evenodd" clip-rule="evenodd" d="M16.1595 18.3162C16.1595 17.3998 15.4165 16.6567 14.5001 16.6567H11.579C10.6626 16.6567 9.91956 17.3998 9.91956 18.3162V21.2373C9.91956 22.1537 10.6626 22.8967 11.579 22.8967H14.5001C15.4165 22.8967 16.1595 22.1537 16.1595 21.2373V18.3162ZM14.7621 18.3162V21.2373C14.7621 21.3818 14.6447 21.4993 14.5001 21.4993H11.579C11.4344 21.4993 11.317 21.3818 11.317 21.2373V18.3162C11.317 18.1716 11.4344 18.0542 11.579 18.0542H14.5001C14.6447 18.0542 14.7621 18.1716 14.7621 18.3162Z" fill="black"/>
<path fill-rule="evenodd" clip-rule="evenodd" d="M22.6201 18.3162C22.6201 17.3998 21.8771 16.6567 20.9606 16.6567H18.0396C17.1232 16.6567 16.3801 17.3998 16.3801 18.3162V21.2373C16.3801 22.1537 17.1232 22.8967 18.0396 22.8967H20.9606C21.8771 22.8967 22.6201 22.1537 22.6201 21.2373V18.3162ZM21.2226 18.3162V21.2373C21.2226 21.3818 21.1052 21.4993 20.9606 21.4993H18.0396C17.895 21.4993 17.7776 21.3818 17.7776 21.2373V18.3162C17.7776 18.1716 17.895 18.0542 18.0396 18.0542H20.9606C21.1052 18.0542 21.2226 18.1716 21.2226 18.3162Z" fill="black"/>
<path fill-rule="evenodd" clip-rule="evenodd" d="M7.00912 4.50023C6.84943 4.624 6.69976 4.75177 6.55004 4.88152C4.69359 6.58626 4.29429 8.81099 4.23441 9.28009L4.21455 9.5276V10.7642C3.75542 10.8351 3.16647 11.0138 2.63749 11.447C1.96877 11.9869 1.37988 12.9261 1.37988 14.6129V19.3907C1.37988 19.776 1.68936 20.0894 2.07862 20.0894C2.45789 20.0894 2.77723 19.776 2.77723 19.3907V14.6129C2.77723 13.517 3.08663 12.8792 3.51581 12.5279C3.74537 12.3423 3.99497 12.2384 4.21455 12.1815V20.9178C4.21455 21.9927 5.08284 22.8641 6.16077 22.8641C6.95924 22.8641 7.82763 22.8641 7.82763 22.8641C8.21688 22.8641 8.52624 22.5517 8.52624 22.1654C8.52624 21.7801 8.21688 21.4668 7.82763 21.4668H6.16077C5.86135 21.4668 5.61177 21.2212 5.61177 20.9178V12.1207H9.90361C10.2829 12.1207 10.6022 11.8082 10.6022 11.422C10.6022 11.0367 10.2829 10.7233 9.90361 10.7233H5.61177V9.52163C5.61177 9.50566 5.61177 9.48966 5.61177 9.47369C5.67166 9.06048 6.01102 7.27992 7.49818 5.91153C8.51623 4.97333 10.0833 4.24669 12.4488 4.24669C14.964 4.24669 16.481 5.0302 17.3893 6.01132C18.6968 7.4296 18.6967 9.19925 18.6967 9.19925C18.6967 9.58451 19.0062 9.89888 19.3955 9.89987C19.7747 9.90087 20.0941 9.58847 20.0941 9.20321C20.0941 9.20321 20.1041 6.90264 18.4173 5.06416C18.1678 4.79767 17.8883 4.54017 17.5689 4.29963L18.7866 2.48407C18.9962 2.16468 18.9163 1.72951 18.5969 1.51492C18.2676 1.30033 17.8384 1.3862 17.6188 1.70559L16.3612 3.59297C15.3532 3.14084 14.0757 2.8494 12.4488 2.8494C10.6722 2.8494 9.28482 3.20971 8.18692 3.75666L6.80956 1.70559C6.59996 1.3862 6.1607 1.30033 5.84132 1.51492C5.52193 1.72951 5.44214 2.16468 5.65174 2.48407L7.00912 4.50023ZM9.15504 6.81081C9.69401 6.81081 10.1332 7.24997 10.1332 7.79093C10.1332 8.3319 9.69401 8.77105 9.15504 8.77105C8.61607 8.77105 8.17693 8.3319 8.17693 7.79093C8.17693 7.24997 8.61607 6.81081 9.15504 6.81081ZM15.1236 6.81081C15.6626 6.81081 16.1017 7.24997 16.1017 7.79093C16.1017 8.3319 15.6626 8.77105 15.1236 8.77105C14.5747 8.77105 14.1455 8.3319 14.1455 7.79093C14.1455 7.24997 14.5747 6.81081 15.1236 6.81081Z" fill="black"/>
</svg>
