<svg width="24" height="24" viewBox="0 0 24 24" fill="none" xmlns="http://www.w3.org/2000/svg">
<g clip-path="url(#clip0_221_15553)">
<path fill-rule="evenodd" clip-rule="evenodd" d="M11.944 1.25H12.056C13.894 1.25 15.35 1.25 16.489 1.403C17.661 1.561 18.61 1.893 19.359 2.641C20.107 3.39 20.439 4.339 20.597 5.511C20.75 6.651 20.75 8.106 20.75 9.944V14.056C20.75 15.894 20.75 17.35 20.597 18.489C20.439 19.661 20.107 20.61 19.359 21.359C18.61 22.107 17.661 22.439 16.489 22.597C15.349 22.75 13.894 22.75 12.056 22.75H11.944C10.106 22.75 8.64998 22.75 7.51098 22.597C6.33898 22.439 5.38998 22.107 4.64098 21.359C3.89298 20.61 3.56098 19.661 3.40298 18.489C3.24998 17.349 3.24998 15.894 3.24998 14.056V9.944C3.24998 8.106 3.24998 6.65 3.40298 5.511C3.56098 4.339 3.89298 3.39 4.64098 2.641C5.38998 1.893 6.33898 1.561 7.51098 1.403C8.65098 1.25 10.106 1.25 11.944 1.25ZM6.81398 3.073C6.32498 3.219 5.97998 3.424 5.70198 3.702C5.27898 4.125 5.02498 4.705 4.88998 5.711C4.75198 6.739 4.74998 8.093 4.74998 10V14C4.74998 15.907 4.75198 17.262 4.88998 18.29C5.02498 19.295 5.27898 19.875 5.70198 20.298C6.12498 20.721 6.70498 20.975 7.71098 21.11C8.73898 21.248 10.093 21.25 12 21.25C13.907 21.25 15.262 21.248 16.29 21.11C17.295 20.975 17.875 20.721 18.298 20.298C18.721 19.875 18.975 19.295 19.11 18.289C19.248 17.262 19.25 15.907 19.25 14V10C19.25 8.093 19.248 6.739 19.11 5.71C18.975 4.705 18.721 4.125 18.298 3.702C18.02 3.424 17.675 3.219 17.186 3.073C16.524 4.067 16.062 4.758 15.374 5.185C15.236 5.27033 15.0937 5.34667 14.947 5.414C14.205 5.751 13.367 5.751 12.16 5.75H11.84C10.633 5.75 9.79499 5.751 9.05299 5.414C8.90616 5.34637 8.76356 5.26989 8.62599 5.185C7.93798 4.758 7.47599 4.067 6.81398 3.073ZM8.45098 2.816C8.89499 3.46 9.12799 3.731 9.41798 3.911C9.49998 3.96233 9.58532 4.008 9.67398 4.048C10.084 4.234 10.568 4.25 12 4.25C13.432 4.25 13.917 4.234 14.326 4.048C14.414 4.008 14.4993 3.96233 14.582 3.911C14.872 3.731 15.105 3.46 15.549 2.816C14.629 2.751 13.481 2.75 12 2.75C10.519 2.75 9.37198 2.751 8.45098 2.816ZM8.24998 19C8.24998 18.8011 8.329 18.6103 8.46966 18.4697C8.61031 18.329 8.80107 18.25 8.99998 18.25H15C15.1989 18.25 15.3897 18.329 15.5303 18.4697C15.671 18.6103 15.75 18.8011 15.75 19C15.75 19.1989 15.671 19.3897 15.5303 19.5303C15.3897 19.671 15.1989 19.75 15 19.75H8.99998C8.80107 19.75 8.61031 19.671 8.46966 19.5303C8.329 19.3897 8.24998 19.1989 8.24998 19Z" fill="black"/>
</g>
<defs>
<clipPath id="clip0_221_15553">
<rect width="24" height="24" fill="white"/>
</clipPath>
</defs>
</svg>
