<svg width="24" height="24" viewBox="0 0 24 24" fill="none" xmlns="http://www.w3.org/2000/svg">
<path fill-rule="evenodd" clip-rule="evenodd" d="M18.6054 22.749H19.9672C20.6983 22.749 21.3993 22.4586 21.92 21.9409C22.4307 21.4222 22.721 20.7202 22.721 19.9872C22.721 19.2411 22.721 18.5782 22.721 18.5782C22.721 18.1917 22.4107 17.8772 22.0301 17.8772C21.6396 17.8772 21.3292 18.1917 21.3292 18.5782V19.9872C21.3292 20.3477 21.179 20.6942 20.9286 20.9495C20.6682 21.2039 20.3277 21.347 19.9672 21.347H18.6054C18.2148 21.347 17.9044 21.6615 17.9044 22.048C17.9044 22.4356 18.2148 22.749 18.6054 22.749ZM1.2511 18.6043V19.9621C1.2511 20.6941 1.5415 21.3971 2.06223 21.9148C2.58296 22.4326 3.28395 22.724 4.01497 22.724C4.756 22.724 5.42691 22.724 5.42691 22.724C5.80745 22.724 6.12791 22.4096 6.12791 22.023C6.12791 21.6365 5.80745 21.322 5.42691 21.322H4.01497C3.65447 21.322 3.30395 21.1788 3.0536 20.9235C2.80325 20.6691 2.65308 20.3226 2.65308 19.9621V18.6043C2.65308 18.2167 2.34264 17.9033 1.95209 17.9033C1.57156 17.9033 1.2511 18.2167 1.2511 18.6043ZM12.0362 7.74405C9.73297 7.74405 7.86031 9.6177 7.86031 11.9259C7.86031 14.2341 9.73297 16.1077 12.0362 16.1077C14.3494 16.1077 16.222 14.2341 16.222 11.9259C16.222 9.6177 14.3494 7.74405 12.0362 7.74405ZM12.0362 9.14604C13.5783 9.14604 14.82 10.3918 14.82 11.9259C14.82 13.4601 13.5783 14.7058 12.0362 14.7058C10.504 14.7058 9.26229 13.4601 9.26229 11.9259C9.26229 10.3918 10.504 9.14604 12.0362 9.14604ZM5.3969 1.25098H4.03502C3.304 1.25098 2.60301 1.54237 2.0923 2.06009C1.57157 2.57781 1.28117 3.28081 1.28117 4.01283C1.28117 4.75887 1.28117 5.42184 1.28117 5.42184C1.28117 5.80938 1.59155 6.12277 1.9821 6.12277C2.36263 6.12277 2.68309 5.80938 2.68309 5.42184V4.01283C2.68309 3.65233 2.82331 3.30588 3.08368 3.05153C3.33402 2.79617 3.68453 2.65296 4.03502 2.65296H5.3969C5.78745 2.65296 6.0979 2.33851 6.0979 1.95197C6.0979 1.56543 5.78745 1.25098 5.3969 1.25098ZM22.7511 5.39678V4.03789C22.7511 3.30587 22.4608 2.60287 21.94 2.08515C21.4193 1.56743 20.7183 1.27604 19.9873 1.27604C19.2463 1.27604 18.5853 1.27604 18.5853 1.27604C18.1948 1.27604 17.8843 1.59049 17.8843 1.97703C17.8843 2.36457 18.1948 2.67796 18.5853 2.67796H19.9873C20.3478 2.67796 20.6982 2.82117 20.9486 3.07652C21.209 3.33188 21.3491 3.67739 21.3491 4.03789V5.39678C21.3491 5.78332 21.6596 6.09777 22.0502 6.09777C22.4407 6.09777 22.7511 5.78332 22.7511 5.39678Z" fill="black"/>
</svg>
