<svg width="24" height="24" viewBox="0 0 24 24" fill="none" xmlns="http://www.w3.org/2000/svg">
<g clip-path="url(#clip0_221_15616)">
<path fill-rule="evenodd" clip-rule="evenodd" d="M15.948 1.25H18.052C18.951 1.25 19.7 1.25 20.294 1.33C20.922 1.414 21.489 1.6 21.944 2.055C22.4 2.511 22.586 3.078 22.67 3.705C22.75 4.3 22.75 5.05 22.75 5.948V18.052C22.75 18.951 22.75 19.7 22.67 20.294C22.586 20.922 22.4 21.489 21.945 21.944C21.489 22.4 20.922 22.586 20.295 22.67C19.7 22.75 18.951 22.75 18.052 22.75H15.948C15.049 22.75 14.3 22.75 13.706 22.67C13.078 22.586 12.511 22.4 12.056 21.944C11.6 21.489 11.414 20.922 11.33 20.294C11.25 19.7 11.25 18.951 11.25 18.052V5.948C11.25 5.05 11.25 4.3 11.33 3.706C11.414 3.078 11.6 2.511 12.056 2.056C12.511 1.6 13.078 1.414 13.706 1.33C14.3 1.25 15.05 1.25 15.948 1.25ZM12.75 9.75H15C15.1989 9.75 15.3897 9.67098 15.5304 9.53033C15.671 9.38968 15.75 9.19891 15.75 9C15.75 8.80109 15.671 8.61032 15.5304 8.46967C15.3897 8.32902 15.1989 8.25 15 8.25H12.75V6.75H14C14.1989 6.75 14.3897 6.67098 14.5304 6.53033C14.671 6.38968 14.75 6.19891 14.75 6C14.75 5.80109 14.671 5.61032 14.5304 5.46967C14.3897 5.32902 14.1989 5.25 14 5.25H12.752C12.756 4.68 12.77 4.25 12.816 3.905C12.879 3.444 12.986 3.246 13.116 3.116C13.246 2.986 13.444 2.879 13.906 2.816C14.388 2.752 15.036 2.75 16 2.75H18C18.964 2.75 19.612 2.752 20.095 2.817C20.556 2.879 20.754 2.986 20.884 3.117C21.014 3.248 21.121 3.444 21.184 3.905C21.248 4.388 21.25 5.036 21.25 6V18C21.25 18.964 21.248 19.612 21.183 20.095C21.121 20.556 21.014 20.754 20.883 20.884C20.752 21.014 20.556 21.121 20.095 21.184C19.612 21.248 18.964 21.25 18 21.25H16C15.036 21.25 14.388 21.248 13.905 21.183C13.444 21.121 13.246 21.014 13.116 20.883C12.986 20.752 12.879 20.556 12.816 20.095C12.77 19.749 12.756 19.319 12.752 18.75H14C14.1989 18.75 14.3897 18.671 14.5304 18.5303C14.671 18.3897 14.75 18.1989 14.75 18C14.75 17.8011 14.671 17.6103 14.5304 17.4697C14.3897 17.329 14.1989 17.25 14 17.25H12.75V15.75H15C15.1989 15.75 15.3897 15.671 15.5304 15.5303C15.671 15.3897 15.75 15.1989 15.75 15C15.75 14.8011 15.671 14.6103 15.5304 14.4697C15.3897 14.329 15.1989 14.25 15 14.25H12.75V12.75H14C14.1989 12.75 14.3897 12.671 14.5304 12.5303C14.671 12.3897 14.75 12.1989 14.75 12C14.75 11.8011 14.671 11.6103 14.5304 11.4697C14.3897 11.329 14.1989 11.25 14 11.25H12.75V9.75ZM1.25002 4.85C1.25002 2.826 2.96602 1.25 5.00002 1.25C7.03402 1.25 8.75002 2.826 8.75002 4.85V15.585C8.75002 16.128 8.75002 16.469 8.70602 16.808C8.65336 17.2093 8.55669 17.5993 8.41602 17.978C8.29602 18.298 8.13602 18.603 7.87902 19.089L6.38702 21.924C6.11402 22.444 5.57002 22.75 5.00002 22.75C4.43002 22.75 3.88602 22.444 3.61302 21.924L2.12002 19.09C1.86402 18.604 1.70302 18.3 1.58402 17.979C1.44284 17.6013 1.3452 17.2088 1.29302 16.809C1.24902 16.47 1.24902 16.129 1.24902 15.586L1.25002 4.85ZM5.00002 2.75C3.72002 2.75 2.75002 3.726 2.75002 4.85V5.405C2.84602 5.462 2.96702 5.528 3.11002 5.594C3.54902 5.795 4.19202 6 5.00002 6C5.80802 6 6.45202 5.795 6.89002 5.594C7.03302 5.528 7.15402 5.462 7.25002 5.405V4.85C7.25002 3.726 6.28002 2.75 5.00002 2.75ZM7.25002 7.071C6.53453 7.35716 5.77061 7.50281 5.00002 7.5C4.08402 7.5 3.32302 7.3 2.75002 7.071V15.534C2.75002 16.144 2.75102 16.384 2.78102 16.614C2.81902 16.9007 2.88869 17.1807 2.99002 17.454C3.07202 17.674 3.18502 17.89 3.47202 18.436L4.44102 20.277H5.55902L6.52902 18.436C6.81502 17.89 6.92802 17.674 7.01002 17.453C7.11136 17.1803 7.18102 16.901 7.21902 16.615C7.24902 16.384 7.25002 16.144 7.25002 15.534V7.071Z" fill="black"/>
</g>
<defs>
<clipPath id="clip0_221_15616">
<rect width="24" height="24" fill="white"/>
</clipPath>
</defs>
</svg>
