<svg width="24" height="24" viewBox="0 0 24 24" fill="none" xmlns="http://www.w3.org/2000/svg">
<path fill-rule="evenodd" clip-rule="evenodd" d="M2.80704 13.7506C2.81904 13.9066 2.83404 14.0544 2.85279 14.1932C2.95179 14.9267 3.13254 15.3152 3.40855 15.5919C3.68606 15.8687 4.07382 16.0487 4.80883 16.1477C5.5626 16.249 6.56462 16.2512 8.00016 16.2512H15.9998C17.4354 16.2512 18.4359 16.249 19.1919 16.1477C19.9262 16.0487 20.3139 15.8679 20.5914 15.5919C20.8682 15.3152 21.0482 14.9267 21.1472 14.1917L21.193 13.7506H21.1975L21.2485 12.2491H21.2462L21.25 11.0011V10.0006C21.25 9.58955 21.589 9.25054 22 9.25054C22.4117 9.25054 22.75 9.58955 22.75 10.0006V11.0558C22.75 11.7181 22.75 12.3189 22.7372 12.8596C22.7342 12.9856 22.732 13.0561 22.7275 13.1866C22.7102 13.6306 22.6825 14.0319 22.6345 14.3927C22.5122 15.2927 22.2542 16.0509 21.652 16.6532C21.0505 17.2547 20.2922 17.5127 19.3922 17.635C18.5252 17.7512 17.4219 17.7512 16.0553 17.7512H12.75V21.2508H15.9998C16.4116 21.2508 16.7499 21.5898 16.7499 22.0008C16.7499 22.4126 16.4116 22.7509 15.9998 22.7509H8.00016C7.5884 22.7509 7.25014 22.4126 7.25014 22.0008C7.25014 21.5898 7.5884 21.2508 8.00016 21.2508H11.25V17.7512H7.94466C6.57812 17.7512 5.47485 17.7512 4.60783 17.635C3.70781 17.5127 2.94954 17.2547 2.34803 16.6532C1.74576 16.0509 1.48776 15.2927 1.367 14.3927C1.3175 14.0327 1.28975 13.6306 1.2725 13.1866C1.2665 13.0164 1.2665 13.0119 1.26275 12.8596C1.25 12.3189 1.25 11.7181 1.25 11.0558V9.4508C1.25 7.84876 1.25 6.57898 1.3685 5.57471C1.49076 4.54493 1.74576 3.69441 2.32852 2.98639C2.52728 2.74714 2.74778 2.52663 2.98704 2.32788C3.69581 1.74587 4.54408 1.49086 5.5746 1.36786C6.57962 1.25085 7.85015 1.25085 9.45069 1.25085H9.50019C9.9112 1.25085 10.2502 1.58911 10.2502 2.00087C10.2502 2.41188 9.9112 2.75089 9.50019 2.75089C7.83815 2.75089 6.65688 2.75164 5.75085 2.85889C4.86208 2.96389 4.33557 3.16265 3.93806 3.48891C3.77381 3.62391 3.62305 3.77466 3.48805 3.93892C3.16179 4.33643 2.96304 4.86294 2.85804 5.75171C2.75078 6.65773 2.75003 7.83901 2.75003 9.50105V11.0011C2.74928 11.4586 2.75078 11.8756 2.75378 12.2506L2.80704 13.7506Z" fill="black"/>
<path fill-rule="evenodd" clip-rule="evenodd" d="M13.7788 9.30255C13.7788 8.38383 13.0339 7.63892 12.1152 7.63892H9.18685C8.26814 7.63892 7.52325 8.38383 7.52325 9.30255V12.2309C7.52325 13.1496 8.26814 13.8945 9.18685 13.8945H12.1152C13.0339 13.8945 13.7788 13.1496 13.7788 12.2309V9.30255ZM12.3779 9.30255V12.2309C12.3779 12.3758 12.2602 12.4936 12.1152 12.4936H9.18685C9.04191 12.4936 8.92421 12.3758 8.92421 12.2309V9.30255C8.92421 9.1576 9.04191 9.03991 9.18685 9.03991H12.1152C12.2602 9.03991 12.3779 9.1576 12.3779 9.30255Z" fill="black"/>
<path fill-rule="evenodd" clip-rule="evenodd" d="M17.0807 2.91376C17.0807 1.99504 16.3358 1.25012 15.4171 1.25012H12.4887C11.57 1.25012 10.8251 1.99504 10.8251 2.91376V5.84208C10.8251 6.7608 11.57 7.50572 12.4887 7.50572H15.4171C16.3358 7.50572 17.0807 6.7608 17.0807 5.84208V2.91376ZM15.6797 2.91376V5.84208C15.6797 5.98703 15.562 6.10476 15.4171 6.10476H12.4887C12.3438 6.10476 12.2261 5.98703 12.2261 5.84208V2.91376C12.2261 2.76881 12.3438 2.65111 12.4887 2.65111H15.4171C15.562 2.65111 15.6797 2.76881 15.6797 2.91376Z" fill="black"/>
<path fill-rule="evenodd" clip-rule="evenodd" d="M20.2556 9.30255C20.2556 8.38383 19.5107 7.63892 18.592 7.63892H15.6636C14.7449 7.63892 14 8.38383 14 9.30255V12.2309C14 13.1496 14.7449 13.8945 15.6636 13.8945H18.592C19.5107 13.8945 20.2556 13.1496 20.2556 12.2309V9.30255ZM18.8546 9.30255V12.2309C18.8546 12.3758 18.7369 12.4936 18.592 12.4936H15.6636C15.5187 12.4936 15.401 12.3758 15.401 12.2309V9.30255C15.401 9.1576 15.5187 9.03991 15.6636 9.03991H18.592C18.7369 9.03991 18.8546 9.1576 18.8546 9.30255Z" fill="black"/>
</svg>
