<svg width="24" height="24" viewBox="0 0 24 24" fill="none" xmlns="http://www.w3.org/2000/svg">
<path fill-rule="evenodd" clip-rule="evenodd" d="M16.4329 18.2806C16.4329 17.3845 15.7078 16.6584 14.8117 16.6584H11.9585C11.0624 16.6584 10.3363 17.3845 10.3363 18.2806V21.1339C10.3363 22.03 11.0624 22.755 11.9585 22.755H14.8117C15.7078 22.755 16.4329 22.03 16.4329 21.1339V18.2806ZM22.7455 18.2806C22.7455 17.3845 22.0194 16.6584 21.1243 16.6584H18.2701C17.375 16.6584 16.6489 17.3845 16.6489 18.2806V21.1339C16.6489 22.03 17.375 22.755 18.2701 22.755H21.1243C22.0194 22.755 22.7455 22.03 22.7455 21.1339V18.2806ZM9.16026 21.8509C9.16026 21.6359 9.07421 21.4289 8.9222 21.2759C8.76918 21.1238 8.56215 21.0379 8.34713 21.0379H6.26698C5.82294 21.0379 5.45886 21.4029 5.45886 21.8459C5.45886 22.289 5.82294 22.654 6.26698 22.654H8.35916C8.8012 22.654 9.16026 22.295 9.16026 21.8529V21.8509ZM15.0678 18.2796V21.1339C15.0678 21.2759 14.9537 21.3899 14.8117 21.3899H11.9585C11.8165 21.3899 11.7025 21.2759 11.7025 21.1339V18.2806C11.7025 18.1386 11.8165 18.0246 11.9575 18.0246H14.8117C14.9537 18.0246 15.0678 18.1386 15.0678 18.2796ZM21.3804 18.2796V21.1339C21.3804 21.2759 21.2653 21.3899 21.1243 21.3899H18.2701C18.129 21.3899 18.0141 21.2759 18.0141 21.1339V18.2806C18.0141 18.1386 18.129 18.0246 18.2701 18.0246H21.1243C21.2653 18.0246 21.3804 18.1386 21.3804 18.2796ZM19.6512 12.053C19.6512 11.1579 18.9261 10.4319 18.03 10.4319H15.1758C14.2807 10.4319 13.5546 11.1579 13.5546 12.053V14.9073C13.5546 15.8024 14.2807 16.5284 15.1758 16.5284H18.03C18.9261 16.5284 19.6512 15.8024 19.6512 14.9073V12.053ZM9.8723 15.0893C9.8723 15.2993 9.95532 15.5003 10.1033 15.6483C10.2524 15.7973 10.4534 15.8804 10.6634 15.8804C10.6744 15.8804 10.6864 15.8804 10.6974 15.8804C10.9074 15.8804 11.1084 15.7973 11.2564 15.6483C11.4044 15.5003 11.4884 15.2993 11.4884 15.0893C11.4884 12.269 11.4884 2.87118 11.4884 2.87118H14.9887C16.0278 2.87118 16.7259 2.87314 17.246 2.94315C17.743 3.01016 17.9561 3.12517 18.0961 3.26618C18.2361 3.40719 18.3511 3.61821 18.4191 4.11526C18.4881 4.63531 18.4901 5.33339 18.4901 6.37249V7.3956C18.4901 7.83864 18.8551 8.20365 19.2982 8.20365C19.7412 8.20365 20.1062 7.83864 20.1062 7.3956V6.31645C20.1062 5.34836 20.1062 4.54031 20.0202 3.90125C19.9292 3.22419 19.7292 2.61311 19.2382 2.12307C18.7481 1.63202 18.137 1.43202 17.46 1.34101C16.8209 1.255 16.0139 1.255 15.0448 1.255H6.31496C5.34787 1.255 4.53981 1.255 3.89975 1.34101C3.22369 1.43202 2.61259 1.63204 2.12255 2.12209C1.6315 2.61314 1.4305 3.22421 1.34049 3.90027C1.25448 4.54033 1.25449 5.34836 1.25449 6.31645V7.3956C1.25449 7.83864 1.6185 8.20365 2.06255 8.20365C2.50559 8.20365 2.86963 7.83864 2.86963 7.3956V6.37249C2.86963 5.33339 2.87263 4.63531 2.94263 4.11526C3.00864 3.61821 3.12465 3.40522 3.26566 3.2652C3.40667 3.12519 3.61769 3.01018 4.11474 2.94217C4.63479 2.87417 5.3329 2.87118 6.37099 2.87118H9.8723V15.0893ZM18.2861 12.053V14.9073C18.2861 15.0493 18.1721 15.1633 18.03 15.1633H15.1758C15.0348 15.1633 14.9198 15.0493 14.9198 14.9073V12.053C14.9198 11.912 15.0348 11.797 15.1758 11.797H18.03C18.1721 11.797 18.2861 11.912 18.2861 12.053Z" fill="black"/>
</svg>
