<svg width="24" height="24" viewBox="0 0 24 24" fill="none" xmlns="http://www.w3.org/2000/svg">
<path fill-rule="evenodd" clip-rule="evenodd" d="M6.84487 3.53353C5.41714 3.73678 4.08856 4.4106 3.07633 5.46287C1.92194 6.66432 1.27716 8.26523 1.27716 9.93025C1.27716 13.3033 1.27716 19.1684 1.27716 19.1684C1.27716 19.5519 1.58851 19.8643 1.97197 19.8643C2.35644 19.8643 2.66782 19.5519 2.66782 19.1684V9.93025C2.66782 8.62467 3.17347 7.36919 4.07956 6.42705C4.89855 5.57602 5.98182 5.03935 7.14222 4.89718V5.27661C7.14222 5.38173 7.1012 5.48286 7.02911 5.55795L5.51526 7.12387C5.19086 7.45828 5.01068 7.90579 5.01068 8.37135C5.01068 10.3077 5.01068 18.0381 5.01068 20.9305C5.01068 21.4071 5.19987 21.8637 5.53628 22.2001C5.87269 22.5365 6.32924 22.7258 6.80582 22.7258H12.729C13.2046 22.7258 13.6611 22.5365 13.9985 22.2001C14.3349 21.8637 14.5241 21.4071 14.5241 20.9305V8.37135C14.5241 7.90579 14.343 7.45828 14.0196 7.12387L12.5057 5.55795C12.4326 5.48286 12.3916 5.38177 12.3916 5.27765V4.86015H14.6313V4.99728C14.6313 5.69612 15.18 6.27183 15.8778 6.30587L21.4025 6.5742C21.7609 6.59222 22.1103 6.46205 22.3707 6.21475C22.63 5.96745 22.7772 5.62404 22.7772 5.26561C22.7772 4.54173 22.7772 3.37433 22.7772 2.63443C22.7772 2.26198 22.619 1.90758 22.3416 1.65828C22.0643 1.40998 21.6938 1.29085 21.3234 1.33189C19.9818 1.47807 17.0242 1.80241 15.7987 1.93657C15.1339 2.00966 14.6313 2.57134 14.6313 3.24015V3.46845H8.57896L7.37951 1.61422C7.15624 1.2688 6.69371 1.17065 6.3483 1.39392C6.00288 1.61719 5.90473 2.07874 6.128 2.42416L6.84487 3.53353ZM9.76741 4.86015H8.53294V5.27661C8.53294 5.74317 8.35267 6.18972 8.02928 6.52513L6.51549 8.09105C6.4424 8.16614 6.40134 8.26623 6.40134 8.37135V20.9305C6.40134 21.0377 6.44437 21.1408 6.51946 21.2159C6.59555 21.292 6.69869 21.3341 6.80582 21.3341H12.729C12.8361 21.3341 12.9382 21.292 13.0143 21.2159C13.0904 21.1408 13.1325 21.0377 13.1325 20.9305V18.3965H12.2725C11.4234 18.3965 10.6095 18.0591 10.0087 17.4584C9.409 16.8587 9.07156 16.0447 9.07156 15.1956V10.8574C9.07156 10.4729 9.38294 10.1615 9.76741 10.1615H13.1325V8.37135C13.1325 8.26623 13.0914 8.16616 13.0193 8.09007L11.5055 6.52513C11.1821 6.18972 11.0009 5.74317 11.0009 5.27661V4.86015H9.76741ZM13.1325 11.5532H10.4623V15.1956C10.4623 15.6752 10.6535 16.1358 10.9929 16.4752C11.3323 16.8146 11.7929 17.0048 12.2725 17.0048H13.1325V11.5532ZM16.022 3.31226V4.92022L21.3855 5.18054V2.72457L16.022 3.31226Z" fill="black"/>
</svg>
