<svg width="24" height="24" viewBox="0 0 24 24" fill="none" xmlns="http://www.w3.org/2000/svg">
<path fill-rule="evenodd" clip-rule="evenodd" d="M18.0492 22.3019H18.0786C20.6606 22.2931 22.75 20.1978 22.75 17.6188V17.5737V17.5276L22.7402 17.4834V17.4462C22.7304 17.0145 22.6519 16.5976 22.5244 16.2023V16.1768L19.2382 4.35796L19.2283 4.36191C18.9311 3.10627 17.8 2.17041 16.4522 2.17041C14.8816 2.17041 13.6044 3.44177 13.5946 5.01035V5.01227V5.01717L13.5328 8.75864H10.4633L10.4015 5.01717C10.4044 5.2016 10.4015 5.19476 10.4015 5.01328V5.01035C10.3907 3.44177 9.11445 2.17041 7.54293 2.17041C6.1676 2.17041 5.01795 3.1455 4.74622 4.44137C4.70403 4.64345 4.69812 4.60423 4.75502 4.39724L1.48542 16.1502C1.34809 16.5652 1.26767 17.0057 1.25198 17.4628L1.25096 17.5285L1.25 17.5952V17.6188C1.25 20.2036 3.34831 22.3019 5.9322 22.3019L5.99303 22.301L6.05973 22.3L6.11661 22.298L6.15882 22.2961L6.21768 22.2931L6.27749 22.2892L6.34521 22.2833L6.38443 22.2804C6.40699 22.2774 6.42952 22.2755 6.45208 22.2725L6.49921 22.2676L6.55022 22.2607L6.57668 22.2578C8.71128 21.9635 10.3888 20.2272 10.5938 18.0661C10.6085 18.0092 10.6154 17.9464 10.6144 17.8768V17.6188V17.5737V17.5609L10.6134 17.5129V17.505C10.6114 17.4422 10.6095 17.3794 10.6055 17.3167L10.6026 17.1803C10.5928 16.5858 10.583 15.9923 10.5732 15.3979L10.531 12.8238H13.4651L13.3905 17.3205C13.3846 17.4196 13.3808 17.5187 13.3808 17.6188C13.3808 17.6659 13.3817 17.713 13.3837 17.7601L13.3817 17.8768L13.3886 17.8837C13.5142 20.1399 15.2406 21.9714 17.4498 22.2618L17.4969 22.2676L17.5558 22.2745L17.6077 22.2794L17.6647 22.2843L17.7039 22.2882L17.748 22.2912L17.8079 22.2951L17.8677 22.2971L17.9334 22.3L17.9913 22.301H18.0345L18.0492 22.3019ZM9.23317 17.3795L9.23903 17.7316C9.1841 19.3747 7.92849 20.7167 6.32264 20.9051L6.28043 20.91L6.23827 20.9139L6.21768 20.9159C6.19708 20.9178 6.17645 20.9198 6.15487 20.9208L6.11074 20.9237L6.05775 20.9257L6.00578 20.9276H5.96357L5.9322 20.9286C4.10563 20.9286 2.62339 19.4454 2.62339 17.6188V17.5864L2.62435 17.5442C2.66358 15.752 4.13113 14.31 5.9322 14.31C7.67833 14.31 9.11055 15.6647 9.23317 17.3795ZM21.3767 17.5541V17.5992V17.6188C21.3767 19.4454 19.8954 20.9286 18.0639 20.9286L18.0168 20.9276L17.9648 20.9266L17.9128 20.9247L17.8717 20.9227L17.8402 20.9208C17.8235 20.9198 17.8059 20.9178 17.7882 20.9168L17.7451 20.9129L17.7039 20.909L17.6627 20.9041C16.0676 20.7108 14.8198 19.3806 14.757 17.7483L14.7629 17.3795C14.8865 15.6647 16.3178 14.31 18.0639 14.31C19.866 14.31 21.3374 15.7579 21.3767 17.5541ZM9.1812 14.2482L9.02816 5.03975C9.03404 5.41448 9.03012 5.39192 9.02816 5.01915C9.02227 4.20396 8.3591 3.5438 7.54293 3.5438C6.82878 3.5438 6.23141 4.04995 6.09015 4.72289C6.08426 4.75036 6.07738 4.77784 6.06757 4.80432L3.63771 13.5369C4.31556 13.1544 5.09837 12.9366 5.9322 12.9366C7.19373 12.9366 8.33854 13.4359 9.1812 14.2482ZM20.3662 13.5399L17.9305 4.79552C17.9178 4.76315 17.9079 4.72975 17.9001 4.69541C17.749 4.0362 17.1575 3.5438 16.4522 3.5438C15.637 3.5438 14.9738 4.20297 14.9679 5.01717V5.03975L14.8149 14.2482C15.6576 13.4359 16.8024 12.9366 18.0639 12.9366C18.8987 12.9366 19.6796 13.1554 20.3662 13.5399ZM10.5075 11.4504H13.4877L13.5102 10.132H10.4858L10.5035 11.1689L10.5075 11.4504Z" fill="black"/>
</svg>
