<svg width="24" height="24" viewBox="0 0 24 24" fill="none" xmlns="http://www.w3.org/2000/svg">
<g clip-path="url(#clip0_221_15527)">
<path fill-rule="evenodd" clip-rule="evenodd" d="M15.5416 1.67838C15.8969 0.774526 17.1744 0.774526 17.5296 1.67838L17.9946 2.8625L19.1722 3.32855C20.0739 3.68488 20.0739 4.96243 19.1722 5.31876L17.9946 5.78589L17.5296 6.96894C17.1744 7.87279 15.8969 7.87279 15.5416 6.96894L15.0767 5.78481L13.898 5.31876C12.9963 4.96243 12.9963 3.68488 13.898 3.32855L15.0767 2.86142L15.5416 1.67838ZM16.5356 2.11944L16.9865 3.26554C17.0951 3.54148 17.3124 3.75984 17.5872 3.86956L18.7355 4.32366L17.5872 4.77884C17.451 4.83261 17.3273 4.91391 17.224 5.01766C17.1206 5.1214 17.0397 5.24535 16.9865 5.38177L16.5356 6.52787L16.0848 5.38177C16.0314 5.24525 15.9504 5.12123 15.8468 5.01748C15.7432 4.91373 15.6194 4.83249 15.483 4.77884L14.3347 4.32366L15.483 3.86956C15.6195 3.81579 15.7434 3.73438 15.847 3.63043C15.9505 3.52649 16.0315 3.40226 16.0848 3.26554L16.5356 2.11944ZM2.1566 2.97114C2.52312 2.60446 2.95828 2.31359 3.43724 2.11513C3.91619 1.91668 4.42956 1.81454 4.948 1.81454C5.46644 1.81454 5.97981 1.91668 6.45876 2.11513C6.93772 2.31359 7.37288 2.60446 7.73939 2.97114L21.0288 16.2605C21.7691 17.0009 22.185 18.005 22.185 19.0519C22.185 20.0989 21.7691 21.103 21.0288 21.8433C20.2885 22.5837 19.2844 22.9996 18.2374 22.9996C17.1904 22.9996 16.1863 22.5837 15.446 21.8433L2.1566 8.55393C1.78993 8.18742 1.49905 7.75225 1.3006 7.2733C1.10214 6.79434 1 6.28098 1 5.76254C1 5.24409 1.10214 4.73073 1.3006 4.25177C1.49905 3.77282 1.78993 3.33765 2.1566 2.97114ZM6.58677 4.12268C6.152 3.68805 5.56237 3.44394 4.94761 3.44404C4.33285 3.44414 3.74331 3.68845 3.30869 4.12322C2.87406 4.558 2.62994 5.14762 2.63004 5.76238C2.63015 6.37714 2.87446 6.96668 3.30923 7.40131L5.03111 9.12427L8.30865 5.84673L6.58677 4.12268ZM16.5986 20.6907L6.18482 10.278L9.46236 7.00044L19.8762 17.4143C20.0914 17.6295 20.2621 17.885 20.3786 18.1661C20.495 18.4473 20.555 18.7487 20.555 19.053C20.555 19.3574 20.495 19.6587 20.3786 19.9399C20.2621 20.2211 20.0914 20.4766 19.8762 20.6918C19.661 20.907 19.4055 21.0777 19.1243 21.1942C18.8431 21.3107 18.5418 21.3706 18.2374 21.3706C17.9331 21.3706 17.6317 21.3107 17.3505 21.1942C17.0693 21.0777 16.8138 20.9059 16.5986 20.6907ZM21.7306 9.09059C21.3754 8.18566 20.0978 8.18566 19.7426 9.09059L19.5742 9.51753L19.1494 9.68591C18.2477 10.0422 18.2477 11.3198 19.1494 11.6761L19.5742 11.8445L19.7426 12.2725C20.0978 13.1764 21.3754 13.1764 21.7306 12.2725L21.8979 11.8445L22.3237 11.6761C23.2254 11.3198 23.2254 10.0422 22.3237 9.68591L21.8979 9.51753L21.7306 9.09059ZM20.7366 9.53057L20.5834 9.92165C20.4748 10.1965 20.2575 10.4159 19.9816 10.5246L19.5861 10.681L19.9816 10.8375C20.2575 10.9461 20.4748 11.1655 20.5834 11.4404L20.7355 11.8315L20.8897 11.4404C20.9984 11.1655 21.2157 10.9472 21.4916 10.8375L21.887 10.681L21.4916 10.5246C21.3552 10.4709 21.2313 10.3897 21.1277 10.2859C21.0242 10.1822 20.9432 10.0582 20.8897 9.92165L20.7366 9.53057ZM3.62753 15.801C3.98277 14.8972 5.26033 14.8972 5.61557 15.801L5.78395 16.229L6.20763 16.3963C7.10931 16.7538 7.10931 18.0313 6.20763 18.3876L5.78395 18.556L5.61557 18.983C5.26033 19.8879 3.98277 19.8879 3.62753 18.983L3.45915 18.556L3.03438 18.3876C2.1327 18.0313 2.1327 16.7538 3.03438 16.3974L3.45915 16.229L3.62753 15.801ZM4.46837 16.6321L4.62046 16.241L4.77472 16.6321C4.88336 16.908 5.10063 17.1264 5.37657 17.2361L5.772 17.3925L5.37657 17.549C5.24015 17.6026 5.11627 17.6839 5.01271 17.7876C4.90915 17.8914 4.82813 18.0154 4.77472 18.1519L4.62155 18.543L4.46837 18.1519C4.41497 18.0154 4.33395 17.8914 4.23039 17.7876C4.12682 17.6839 4.00295 17.6026 3.86653 17.549L3.4711 17.3925L3.86653 17.2361C4.00306 17.1823 4.12699 17.1009 4.23056 16.997C4.33413 16.893 4.41509 16.7688 4.46837 16.6321Z" fill="black"/>
</g>
<defs>
<clipPath id="clip0_221_15527">
<rect width="22" height="22" fill="white" transform="translate(1 1)"/>
</clipPath>
</defs>
</svg>
