<svg width="24" height="24" viewBox="0 0 24 24" fill="none" xmlns="http://www.w3.org/2000/svg">
<g clip-path="url(#clip0_221_15578)">
<path fill-rule="evenodd" clip-rule="evenodd" d="M8.29999 3.25H15.7C16.599 3.25 17.348 3.25 17.943 3.33C18.57 3.414 19.137 3.6 19.593 4.055C20.048 4.511 20.233 5.078 20.318 5.705C20.398 6.3 20.398 7.05 20.398 7.948V15.232L21.911 16.793L21.914 16.797L21.922 16.804L21.929 16.812L21.935 16.818L21.945 16.828L21.955 16.839L21.96 16.844L21.968 16.853L21.977 16.863L21.985 16.873L21.997 16.888C22.369 17.318 22.7 17.962 22.745 18.605V18.609L22.748 18.632V18.645L22.75 18.659V18.774C22.75 18.904 22.75 19.093 22.745 19.174C22.7025 19.8417 22.4182 20.471 21.9451 20.9441C21.472 21.4172 20.8427 21.7016 20.175 21.744C20.087 21.75 19.99 21.75 19.864 21.75H4.13699C4.01099 21.75 3.91399 21.75 3.82699 21.744C3.15895 21.702 2.52915 21.4178 2.05566 20.9447C1.58216 20.4716 1.29749 19.842 1.25499 19.174C1.25072 19.0414 1.24939 18.9087 1.25099 18.776V18.659L1.25199 18.645V18.633L1.25499 18.609V18.605C1.30099 17.962 1.63199 17.319 2.00399 16.888L2.01599 16.873L2.02399 16.863L2.03399 16.853L2.04099 16.844L2.04499 16.839L2.05599 16.829L2.06599 16.818L2.07099 16.812L2.07899 16.804L2.08599 16.797L2.08999 16.793L3.60299 15.232V7.948C3.60299 7.05 3.60299 6.3 3.68299 5.706C3.76699 5.078 3.95299 4.511 4.40799 4.056C4.86399 3.6 5.43099 3.414 6.05799 3.33C6.65299 3.25 7.40099 3.25 8.29999 3.25ZM4.66999 16.286L3.15599 17.849C2.92899 18.102 2.76199 18.475 2.75099 18.726V18.949L2.75199 19.079C2.77137 19.3828 2.90092 19.669 3.11633 19.884C3.33173 20.0991 3.6182 20.2281 3.92199 20.247C3.95499 20.25 3.99999 20.25 4.16099 20.25H19.839C19.999 20.25 20.045 20.25 20.079 20.247C20.3824 20.2277 20.6684 20.0984 20.8834 19.8834C21.0984 19.6684 21.2277 19.3824 21.247 19.079L21.248 19.044L21.249 18.787V18.727C21.238 18.475 21.071 18.102 20.843 17.849L19.329 16.286H4.66999ZM18.897 14.786V8C18.897 7.036 18.895 6.388 18.83 5.905C18.768 5.444 18.661 5.246 18.53 5.116C18.399 4.986 18.203 4.879 17.742 4.816C17.259 4.752 16.611 4.75 15.647 4.75H8.35299C7.38899 4.75 6.74099 4.752 6.25799 4.817C5.79699 4.879 5.59899 4.986 5.46899 5.117C5.33899 5.248 5.23099 5.444 5.16899 5.905C5.10399 6.388 5.10299 7.036 5.10299 8V14.786H18.897ZM2.33099 18.024L2.29999 18.012L2.30899 18.017L2.33099 18.024ZM8.74999 18.5C8.74999 18.3011 8.82901 18.1103 8.96966 17.9697C9.11031 17.829 9.30108 17.75 9.49999 17.75H14.5C14.6989 17.75 14.8897 17.829 15.0303 17.9697C15.171 18.1103 15.25 18.3011 15.25 18.5C15.25 18.6989 15.171 18.8897 15.0303 19.0303C14.8897 19.171 14.6989 19.25 14.5 19.25H9.49999C9.30108 19.25 9.11031 19.171 8.96966 19.0303C8.82901 18.8897 8.74999 18.6989 8.74999 18.5Z" fill="black"/>
<path d="M12.75 6.75C12.75 6.94891 12.671 7.13968 12.5303 7.28033C12.3897 7.42098 12.1989 7.5 12 7.5C11.8011 7.5 11.6103 7.42098 11.4697 7.28033C11.329 7.13968 11.25 6.94891 11.25 6.75C11.25 6.55109 11.329 6.36032 11.4697 6.21967C11.6103 6.07902 11.8011 6 12 6C12.1989 6 12.3897 6.07902 12.5303 6.21967C12.671 6.36032 12.75 6.55109 12.75 6.75Z" fill="black"/>
</g>
<defs>
<clipPath id="clip0_221_15578">
<rect width="24" height="24" fill="white"/>
</clipPath>
</defs>
</svg>
