<svg width="24" height="24" viewBox="0 0 24 24" fill="none" xmlns="http://www.w3.org/2000/svg">
<path fill-rule="evenodd" clip-rule="evenodd" d="M22.75 17.8736C22.75 16.9933 22.0356 16.2798 21.1553 16.2798H18.3495C17.4682 16.2798 16.7548 16.9933 16.7548 17.8736V20.6804C16.7548 21.5607 17.4682 22.2741 18.3495 22.2741H21.1553C22.0356 22.2741 22.75 21.5607 22.75 20.6804V17.8736ZM16.5429 17.8736C16.5429 16.9933 15.8294 16.2798 14.9491 16.2798H12.1423C11.262 16.2798 10.5476 16.9933 10.5476 17.8736V20.6804C10.5476 21.5607 11.262 22.2741 12.1423 22.2741H14.9491C15.8294 22.2741 16.5429 21.5607 16.5429 20.6804V17.8736ZM11.1211 7.89489C11.9582 8.23819 12.3916 9.16545 12.1193 10.0285L12.032 10.3229C12.008 10.3977 12.0195 10.4783 12.0598 10.5435C12.0828 10.578 12.0799 10.6249 12.0521 10.6556C12.0243 10.6921 11.9821 10.7391 11.9323 10.7947C11.6925 11.0603 11.3042 11.1332 10.9849 10.9721C10.6646 10.811 10.4929 10.4562 10.5639 10.1052C10.5888 10.0419 10.6042 9.9767 10.6233 9.9115L10.7202 9.58549C10.7595 9.46083 10.7039 9.32659 10.5917 9.26522C10.5582 9.25467 10.5255 9.24216 10.4929 9.22969C10.3635 9.17887 10.2177 9.23549 10.1554 9.36016L10.0154 9.63442C9.71333 10.2443 9.08328 10.6221 8.4034 10.601L8.10233 10.5991C7.43203 10.6336 6.80298 10.2778 6.49133 9.69576L6.32827 9.39755C6.26785 9.28057 6.13365 9.22588 6.01186 9.26136C5.98022 9.27766 5.94857 9.29204 5.91693 9.30643C5.78939 9.36108 5.72609 9.50492 5.7702 9.63629L5.86513 9.92976C6.08185 10.5751 5.90443 11.2866 5.40867 11.7527L5.1948 11.9646C4.74506 12.4633 4.04794 12.6569 3.416 12.4652L3.08999 12.3693C2.96533 12.33 2.83104 12.3856 2.76967 12.4968C2.75912 12.5304 2.74762 12.5639 2.7342 12.5956C2.68338 12.725 2.73994 12.8717 2.8646 12.9331L3.13887 13.0741C3.74875 13.3762 4.12656 14.0052 4.10547 14.686L4.10353 14.9862C4.13806 15.6575 3.78233 16.2865 3.20026 16.5982L2.902 16.7602C2.78597 16.8206 2.73038 16.9549 2.76586 17.0776C2.78216 17.1083 2.79655 17.1409 2.81093 17.1726C2.86559 17.2991 3.00942 17.3634 3.1408 17.3183L3.4352 17.2244C4.0796 17.0067 4.79209 17.1851 5.25813 17.6808L5.46907 17.8946C5.96771 18.3444 6.16145 19.0406 5.96966 19.6725L5.87373 19.9986C5.83442 20.1242 5.89007 20.2575 6.00226 20.3188C6.03583 20.3294 6.06842 20.3418 6.10006 20.3543C6.22952 20.4051 6.37623 20.3486 6.4376 20.2239L6.57859 19.9496C6.60832 19.8902 6.63992 19.8336 6.6754 19.779C6.86239 19.475 7.23062 19.335 7.572 19.4395C7.91338 19.5431 8.14165 19.8653 8.12726 20.221C8.13685 20.2843 8.13396 20.337 8.133 20.3764C8.13012 20.4176 8.10134 20.4531 8.06107 20.4636C7.98915 20.4828 7.92776 20.5327 7.8942 20.6008C7.84721 20.6957 7.79835 20.7935 7.74753 20.8875C7.34765 21.6786 6.41653 22.0411 5.58993 21.7246L5.5976 21.7275L5.56306 21.7198L5.58993 21.7246L5.47293 21.6892C4.63578 21.3459 4.20137 20.4186 4.47467 19.5565L4.56193 19.2611C4.59262 19.1623 4.56387 19.054 4.4862 18.984L4.1774 18.6752C4.10452 18.6062 4 18.5822 3.90506 18.6148C3.80438 18.6484 3.7008 18.6829 3.5982 18.7136C2.75626 18.9907 1.84143 18.5889 1.48087 17.7806L1.48373 17.7882L1.4646 17.7575L1.48087 17.7806L1.4224 17.6722C1.07334 16.8379 1.42237 15.8752 2.225 15.458L2.4954 15.3113C2.58746 15.2633 2.64312 15.1655 2.63833 15.062V14.6247C2.63545 14.525 2.57791 14.4338 2.48873 14.3888C2.3938 14.3427 2.29501 14.2939 2.202 14.2421C1.41088 13.8432 1.04742 12.912 1.36387 12.0854L1.361 12.0931L1.36867 12.0576L1.36387 12.0854L1.39939 11.9675C1.74269 11.1313 2.67094 10.6969 3.53206 10.9702L3.8274 11.0565C3.92713 11.0881 4.03546 11.0584 4.10547 10.9817L4.41426 10.6729C4.48331 10.6 4.50631 10.4946 4.47467 10.3996C4.44014 10.2999 4.4056 10.1963 4.37587 10.0937C4.09778 9.25175 4.50055 8.33694 5.30893 7.97543L5.30126 7.97929L5.33193 7.96009L5.30893 7.97543L5.41633 7.91789C6.25156 7.56884 7.21435 7.91793 7.63053 8.72055L7.7782 8.99096C7.82614 9.08301 7.92301 9.13862 8.02753 9.13382H8.4638C8.56449 9.13095 8.65562 9.07343 8.69973 8.98329C8.74672 8.88931 8.79564 8.79051 8.84646 8.69749C9.24538 7.90541 10.1775 7.54297 11.0041 7.85942L10.9964 7.85655L11.029 7.86422H11.0309L11.0041 7.85942L11.1211 7.89489ZM21.4075 17.8736V20.6804C21.4075 20.8194 21.2944 20.9316 21.1553 20.9316H18.3495C18.2104 20.9316 18.0973 20.8194 18.0973 20.6804V17.8736C18.0973 17.7345 18.2104 17.6223 18.3495 17.6223H21.1553C21.2944 17.6223 21.4075 17.7345 21.4075 17.8736ZM15.2003 17.8736V20.6804C15.2003 20.8194 15.0881 20.9316 14.9491 20.9316H12.1423C12.0032 20.9316 11.8911 20.8194 11.8901 20.6804V17.8736C11.8911 17.7345 12.0032 17.6223 12.1423 17.6223H14.9491C15.0881 17.6223 15.2003 17.7345 15.2003 17.8736ZM9.0718 12.865C8.00834 12.4383 6.79719 12.9542 6.37047 14.0177C5.94278 15.0811 6.45868 16.2913 7.52213 16.719C8.58559 17.1466 9.79578 16.6298 10.2235 15.5664C10.6511 14.5039 10.1353 13.2927 9.0718 12.865ZM19.7073 11.7508C19.7073 10.8705 18.9939 10.157 18.1136 10.157H15.3068C14.4265 10.157 13.713 10.8705 13.713 11.7508V14.5576C13.713 15.4379 14.4265 16.1513 15.3068 16.1513H18.1136C18.9939 16.1513 19.7073 15.4379 19.7073 14.5576V11.7508ZM8.52426 14.2267C8.83592 14.3523 8.98742 14.7071 8.8618 15.0198C8.73618 15.3314 8.38138 15.4829 8.06973 15.3573C7.75807 15.2317 7.60651 14.8769 7.73213 14.5652C7.8568 14.2536 8.21261 14.102 8.52426 14.2267ZM18.3648 11.7508V14.5576C18.3648 14.6966 18.2526 14.8088 18.1136 14.8088H15.3068C15.1677 14.8088 15.0555 14.6966 15.0555 14.5576V11.7508C15.0555 11.6117 15.1677 11.4995 15.3068 11.4995H18.1136C18.2526 11.4995 18.3648 11.6117 18.3648 11.7508ZM15.1284 11.8265L15.1054 11.7891L15.1131 11.8035L15.1284 11.8265ZM21.7853 7.45376C21.7431 7.61486 21.6952 7.77501 21.6444 7.93036C21.5926 8.08954 21.5159 8.23913 21.4161 8.37243C21.4142 8.37434 21.4132 8.37627 21.4113 8.37722C21.1697 8.68792 20.813 8.88834 20.4227 8.93629C20.3325 8.94684 20.2443 8.94683 20.1551 8.93916C19.9749 8.92669 19.8042 8.85192 19.6719 8.72822L19.3985 8.47983C18.8855 7.99844 19.6891 7.56215 20.1187 7.66476C20.2069 7.68585 20.2453 7.69543 20.2712 7.69256C20.3316 7.68489 20.3872 7.6542 20.4246 7.60529C20.4256 7.60433 20.4265 7.60432 20.4265 7.60336C20.4371 7.58993 20.4438 7.56696 20.4591 7.52189L20.5799 7.11242C20.6327 6.92543 20.6682 6.79976 20.6883 6.70003C20.6979 6.65112 20.7036 6.62622 20.7017 6.60896C20.6941 6.54854 20.6634 6.49295 20.6145 6.45555L20.6135 6.45456C20.5924 6.43826 20.555 6.42774 20.4707 6.40089C20.0497 6.26664 19.7035 5.93098 19.5865 5.47836C19.4695 5.0267 19.6104 4.56547 19.9135 4.24422C19.9144 4.24422 19.9145 4.24329 19.9145 4.24329C19.9758 4.17808 20.0036 4.1512 20.0132 4.12723C20.0142 4.12627 20.0142 4.12629 20.0142 4.12629C20.0382 4.06971 20.0382 4.0064 20.0161 3.94983C20.0152 3.94887 20.0151 3.94889 20.0151 3.94889C20.0094 3.93259 19.9921 3.91436 19.9595 3.87696C19.8943 3.80024 19.8022 3.70721 19.6661 3.56816C19.5299 3.42911 19.4388 3.33615 19.3631 3.26902C19.3257 3.23546 19.3075 3.21814 19.2921 3.21143H19.2911C19.2346 3.18745 19.1713 3.18654 19.1147 3.20956C19.1147 3.20956 19.1137 3.20953 19.1137 3.21049C19.0898 3.22008 19.062 3.24694 18.9949 3.30736C18.6679 3.60463 18.2047 3.73695 17.7549 3.61229C17.3042 3.48763 16.9753 3.13378 16.8487 2.71089C16.8228 2.62555 16.8142 2.58812 16.7979 2.56703C16.7979 2.56703 16.7969 2.56611 16.7969 2.56515C16.7595 2.51721 16.7059 2.48459 16.6455 2.47596C16.6282 2.47404 16.6032 2.47886 16.5543 2.48749C16.4546 2.50667 16.328 2.53925 16.1391 2.58816L15.7287 2.70129C15.6827 2.71568 15.6597 2.72237 15.6463 2.73196C15.6453 2.73292 15.6443 2.73389 15.6433 2.73389C15.5944 2.77129 15.5618 2.82595 15.5532 2.88636C15.5503 2.91225 15.559 2.95061 15.5781 3.03883C15.6731 3.47035 15.5551 3.9383 15.2224 4.26529C14.8887 4.59325 14.4188 4.70163 13.9883 4.59903C13.901 4.57793 13.8626 4.56835 13.8367 4.57122C13.7754 4.5789 13.7207 4.61054 13.6833 4.65849C13.6824 4.65945 13.6814 4.6604 13.6814 4.66136C13.6708 4.67382 13.6641 4.69682 13.6488 4.74189L13.527 5.15136L13.4187 5.56756C13.4091 5.61454 13.4043 5.63852 13.4062 5.65482C13.4139 5.71524 13.4445 5.77083 13.4925 5.80823C13.4934 5.80919 13.4944 5.80922 13.4944 5.80922C13.5145 5.82552 13.5519 5.83604 13.6373 5.86289V5.86389C14.0582 5.99814 14.4044 6.3328 14.5214 6.78542C14.6384 7.23804 14.4974 7.69925 14.1935 8.02049C14.1321 8.0857 14.1043 8.11256 14.0937 8.13749C14.0698 8.19407 14.0688 8.25736 14.0918 8.31489C14.0937 8.31969 14.1215 8.35611 14.1609 8.40789C14.3105 8.68311 14.2481 9.02548 14.0113 9.23069C14.0122 9.23548 14.0093 9.23837 14.0065 9.24029C13.7696 9.44646 13.4129 9.42916 13.1962 9.20189L12.9305 8.78289C12.7829 8.41849 12.7867 8.00994 12.9411 7.64843C13.0187 7.46527 13.1386 7.31279 13.2834 7.15936C13.2853 7.15744 13.2873 7.15557 13.2901 7.15269C13.3036 7.13926 13.3103 7.11913 13.3065 7.09515C13.2978 7.07789 13.2825 7.06445 13.2643 7.05869C13.2614 7.05869 13.2594 7.05772 13.2575 7.05676C13.0562 6.99347 12.8778 6.91774 12.7215 6.79596L12.7205 6.79496C12.4108 6.55331 12.2104 6.19758 12.1625 5.80729C12.1414 5.64044 12.1586 5.47838 12.1921 5.31249L12.3149 4.83782L12.4664 4.32575C12.523 4.16465 12.592 4.01889 12.6956 3.88656C12.9382 3.57682 13.294 3.37544 13.6852 3.32749C13.8827 3.30448 14.0745 3.33132 14.2788 3.38022C14.2807 3.38118 14.2836 3.3812 14.2865 3.38216C14.3056 3.38791 14.3268 3.3831 14.3459 3.36776C14.3574 3.35242 14.3613 3.33231 14.3565 3.31409C14.3555 3.31121 14.3545 3.3083 14.3545 3.30543C14.3095 3.10021 14.2855 2.90747 14.3133 2.71089C14.368 2.32156 14.5761 1.96965 14.8897 1.73376C15.0239 1.63211 15.1715 1.56592 15.3336 1.51222L15.8371 1.37222C16.0279 1.32236 16.188 1.28209 16.3223 1.25716C16.4834 1.22264 16.6493 1.21498 16.8133 1.23415C16.8152 1.23511 16.8181 1.23509 16.82 1.23509C17.2093 1.28975 17.5612 1.49783 17.7981 1.81236C17.917 1.97058 17.9889 2.15185 18.0493 2.35322C18.0503 2.35514 18.0513 2.35798 18.0513 2.35989C18.057 2.38003 18.0704 2.39543 18.0935 2.40502C18.1126 2.40694 18.1318 2.40018 18.1452 2.38676C18.1481 2.38388 18.15 2.38198 18.1519 2.38102C18.3073 2.2391 18.4626 2.12213 18.6458 2.04829C19.0111 1.90061 19.4196 1.90444 19.7811 2.05882C19.7831 2.05978 19.785 2.06073 19.7869 2.06169C19.9375 2.12882 20.0765 2.22087 20.1973 2.33403L20.5598 2.69076C20.6672 2.80008 20.6854 2.81829 20.5675 2.69842C20.7065 2.84035 20.8226 2.95832 20.9117 3.06189C21.022 3.19134 21.1141 3.32459 21.1774 3.48089C21.3241 3.84529 21.3202 4.25381 21.1668 4.61629C21.0891 4.79849 20.9693 4.95189 20.8245 5.10436C20.8225 5.10628 20.8206 5.10824 20.8197 5.11016C20.8053 5.12454 20.7976 5.14469 20.8015 5.16962C20.8101 5.18592 20.8254 5.19934 20.8437 5.20509C20.8456 5.20605 20.8485 5.20606 20.8504 5.20702C21.0508 5.27031 21.2301 5.34602 21.3864 5.46876C21.3864 5.46876 21.3864 5.46876 21.3874 5.46876C21.6971 5.71137 21.8975 6.06714 21.9455 6.45743C21.9455 6.45934 21.9455 6.46224 21.9455 6.46416C21.9627 6.63005 21.9512 6.79788 21.9138 6.95802L21.7892 7.43942L21.7825 7.46336L21.77 7.51036L21.7853 7.45376C21.7853 7.45376 21.7854 7.45569 21.7844 7.45569L21.7834 7.46242C21.7767 7.4864 21.771 7.50748 21.77 7.51036L21.7853 7.45376ZM18.4396 4.90396L18.3753 4.83495C17.6638 4.11 16.4815 4.09943 15.7575 4.81096C15.0325 5.52249 15.021 6.70387 15.7325 7.42883C16.4441 8.15378 17.6255 8.16435 18.3505 7.45282C19.0524 6.76431 19.085 5.63371 18.4396 4.90396ZM16.5237 5.64429C16.2667 5.92334 16.2715 6.36346 16.54 6.63676C16.8162 6.91868 17.2764 6.92349 17.5583 6.64636C17.8403 6.36923 17.8451 5.90895 17.5679 5.62702C17.2908 5.3451 16.8315 5.34125 16.5495 5.61742L16.5237 5.64429Z" fill="black"/>
</svg>
