<svg width="24" height="24" viewBox="0 0 24 24" fill="none" xmlns="http://www.w3.org/2000/svg">
<g clip-path="url(#clip0_221_15589)">
<path fill-rule="evenodd" clip-rule="evenodd" d="M5.65804 3.454C6.16404 3.274 6.67804 3.25 7.10304 3.25H7.71504C8.74804 3.25 9.75503 3.57 10.598 4.167L11.1 4.522C11.3633 4.70795 11.6777 4.80779 12 4.80779C12.3224 4.80779 12.6368 4.70795 12.9 4.522L13.402 4.167C14.2453 3.57096 15.2524 3.25062 16.285 3.25H16.897C17.323 3.25 17.837 3.274 18.342 3.454C19.785 3.966 20.926 5.142 21.678 7.045C22.422 8.929 22.804 11.565 22.744 15.115C22.731 15.865 22.638 16.705 22.349 17.461C22.058 18.228 21.547 18.951 20.689 19.361C20.1536 19.618 19.567 19.751 18.973 19.75C18.2847 19.7584 17.6092 19.5636 17.031 19.19C16.559 18.88 16.146 18.48 15.793 18.138L15.666 18.016C15.262 17.626 14.921 17.323 14.543 17.126C14.0661 16.8792 13.537 16.7502 13 16.75H11C10.4626 16.7504 9.93315 16.8797 9.45604 17.127C9.07804 17.323 8.73704 17.627 8.33304 18.017L8.20604 18.139C7.85304 18.48 7.44004 18.881 6.96804 19.191C6.38975 19.5642 5.71425 19.7587 5.02604 19.75C4.43199 19.7507 3.84543 19.6174 3.31004 19.36C2.45104 18.95 1.94104 18.228 1.65004 17.461C1.36104 16.705 1.26804 15.865 1.25504 15.115C1.19504 11.565 1.57704 8.929 2.32104 7.045C3.07304 5.142 4.21504 3.965 5.65804 3.454ZM7.10304 4.75C6.71904 4.75 6.41604 4.777 6.16004 4.867C5.22004 5.201 4.35104 5.992 3.71704 7.597C3.07604 9.22 2.69704 11.633 2.75604 15.09C2.76704 15.752 2.85104 16.398 3.05204 16.927C3.25004 17.447 3.54204 17.809 3.95804 18.007C4.29132 18.168 4.65688 18.2511 5.02704 18.25C5.51204 18.25 5.87504 18.114 6.14704 17.936C6.49203 17.709 6.80004 17.413 7.16904 17.056L7.29304 16.936C7.69404 16.55 8.17304 16.102 8.76604 15.796C9.4566 15.4377 10.2231 15.2505 11.001 15.25H13C13.778 15.25 14.544 15.437 15.235 15.795C15.827 16.102 16.307 16.55 16.708 16.935L16.832 17.055C17.202 17.413 17.509 17.709 17.855 17.935C18.126 18.114 18.489 18.25 18.975 18.25C19.382 18.25 19.737 18.154 20.043 18.008C20.459 17.808 20.751 17.447 20.949 16.928C21.15 16.398 21.234 15.752 21.245 15.09C21.303 11.633 20.925 9.22 20.284 7.596C19.65 5.992 18.781 5.201 17.841 4.867C17.585 4.777 17.281 4.75 16.898 4.75H16.286C15.564 4.75 14.859 4.974 14.269 5.391L13.767 5.747C13.2505 6.11203 12.6335 6.30803 12.001 6.30803C11.3685 6.30803 10.7516 6.11203 10.235 5.747L9.73304 5.391C9.14296 4.97431 8.43841 4.7504 7.71604 4.75H7.10304ZM7.50004 8.25C7.69895 8.25 7.88971 8.32902 8.03036 8.46967C8.17102 8.61032 8.25004 8.80109 8.25004 9V9.75H9.00004C9.19895 9.75 9.38971 9.82902 9.53036 9.96967C9.67102 10.1103 9.75004 10.3011 9.75004 10.5C9.75004 10.6989 9.67102 10.8897 9.53036 11.0303C9.38971 11.171 9.19895 11.25 9.00004 11.25H8.25004V12C8.25004 12.1989 8.17102 12.3897 8.03036 12.5303C7.88971 12.671 7.69895 12.75 7.50004 12.75C7.30112 12.75 7.11036 12.671 6.96971 12.5303C6.82905 12.3897 6.75004 12.1989 6.75004 12V11.25H6.00004C5.80112 11.25 5.61036 11.171 5.46971 11.0303C5.32905 10.8897 5.25004 10.6989 5.25004 10.5C5.25004 10.3011 5.32905 10.1103 5.46971 9.96967C5.61036 9.82902 5.80112 9.75 6.00004 9.75H6.75004V9C6.75004 8.80109 6.82905 8.61032 6.96971 8.46967C7.11036 8.32902 7.30112 8.25 7.50004 8.25Z" fill="black"/>
<path d="M19 10.25C19 10.4489 18.921 10.6397 18.7803 10.7803C18.6397 10.921 18.4489 11 18.25 11C18.0511 11 17.8603 10.921 17.7197 10.7803C17.579 10.6397 17.5 10.4489 17.5 10.25C17.5 10.0511 17.579 9.86032 17.7197 9.71967C17.8603 9.57902 18.0511 9.5 18.25 9.5C18.4489 9.5 18.6397 9.57902 18.7803 9.71967C18.921 9.86032 19 10.0511 19 10.25ZM16 10.25C16 10.4489 15.921 10.6397 15.7803 10.7803C15.6397 10.921 15.4489 11 15.25 11C15.0511 11 14.8603 10.921 14.7197 10.7803C14.579 10.6397 14.5 10.4489 14.5 10.25C14.5 10.0511 14.579 9.86032 14.7197 9.71967C14.8603 9.57902 15.0511 9.5 15.25 9.5C15.4489 9.5 15.6397 9.57902 15.7803 9.71967C15.921 9.86032 16 10.0511 16 10.25ZM16.75 8C16.9489 8 17.1397 8.07902 17.2803 8.21967C17.421 8.36032 17.5 8.55109 17.5 8.75C17.5 8.94891 17.421 9.13968 17.2803 9.28033C17.1397 9.42098 16.9489 9.5 16.75 9.5C16.5511 9.5 16.3603 9.42098 16.2197 9.28033C16.079 9.13968 16 8.94891 16 8.75C16 8.55109 16.079 8.36032 16.2197 8.21967C16.3603 8.07902 16.5511 8 16.75 8ZM16.75 11C16.8485 11 16.946 11.0194 17.037 11.0571C17.128 11.0948 17.2107 11.15 17.2803 11.2197C17.35 11.2893 17.4052 11.372 17.4429 11.463C17.4806 11.554 17.5 11.6515 17.5 11.75C17.5 11.8485 17.4806 11.946 17.4429 12.037C17.4052 12.128 17.35 12.2107 17.2803 12.2803C17.2107 12.35 17.128 12.4052 17.037 12.4429C16.946 12.4806 16.8485 12.5 16.75 12.5C16.5511 12.5 16.3603 12.421 16.2197 12.2803C16.079 12.1397 16 11.9489 16 11.75C16 11.5511 16.079 11.3603 16.2197 11.2197C16.3603 11.079 16.5511 11 16.75 11Z" fill="black"/>
</g>
<defs>
<clipPath id="clip0_221_15589">
<rect width="24" height="24" fill="white"/>
</clipPath>
</defs>
</svg>
