<svg width="24" height="24" viewBox="0 0 24 24" fill="none" xmlns="http://www.w3.org/2000/svg">
<g clip-path="url(#clip0_221_15692)">
<path fill-rule="evenodd" clip-rule="evenodd" d="M12.0001 2.53472C6.77898 2.53472 2.536 6.80431 2.536 12.0837C2.536 16.7124 5.79779 20.5656 10.1196 21.4455C10.6393 21.5499 11.2327 21.114 11.2327 20.3375V15.7589C10.3661 15.582 9.58722 15.1111 9.02788 14.4259C8.46854 13.7407 8.16312 12.8833 8.1633 11.9988V11.7942C8.1633 10.9347 8.84574 10.2359 9.69802 10.2083V8.92938C9.69802 8.72586 9.77887 8.53068 9.92277 8.38677C10.0667 8.24287 10.2619 8.16202 10.4654 8.16202C10.6689 8.16202 10.8641 8.24287 11.008 8.38677C11.1519 8.53068 11.2327 8.72586 11.2327 8.92938V10.2083H12.7675V8.92938C12.7675 8.72586 12.8483 8.53068 12.9922 8.38677C13.1361 8.24287 13.3313 8.16202 13.5348 8.16202C13.7383 8.16202 13.9335 8.24287 14.0774 8.38677C14.2213 8.53068 14.3022 8.72586 14.3022 8.92938V10.2083C15.1545 10.2359 15.8369 10.9347 15.8369 11.7942V11.9988C15.8371 12.8833 15.5316 13.7407 14.9723 14.4259C14.413 15.1111 13.6341 15.582 12.7675 15.7589V20.3375C12.7675 21.8394 11.51 23.2943 9.81363 22.9485C4.78283 21.9254 1.00128 17.4471 1.00128 12.0837C1.00128 5.96839 5.91954 1 12.0001 1C18.0807 1 22.9989 5.96839 22.9989 12.0837C23.0031 14.1596 22.4246 16.195 21.3292 17.9583C20.2338 19.7217 18.6655 21.1422 16.8027 22.0584C16.62 22.1479 16.4091 22.1612 16.2166 22.0953C16.024 22.0294 15.8656 21.8897 15.776 21.7069C15.6865 21.5242 15.6732 21.3133 15.7391 21.1208C15.805 20.9282 15.9447 20.7698 16.1275 20.6802C17.7324 19.8904 19.0835 18.666 20.0269 17.1462C20.9704 15.6265 21.4684 13.8725 21.4642 12.0837C21.4642 6.80431 17.2212 2.53472 12.0001 2.53472ZM9.74918 11.743C9.73561 11.743 9.7226 11.7484 9.713 11.758C9.70341 11.7676 9.69802 11.7806 9.69802 11.7942V11.9988C9.69802 12.6094 9.94056 13.1949 10.3723 13.6266C10.804 14.0584 11.3895 14.3009 12.0001 14.3009C12.6106 14.3009 13.1962 14.0584 13.6279 13.6266C14.0596 13.1949 14.3022 12.6094 14.3022 11.9988V11.7942C14.3022 11.7806 14.2968 11.7676 14.2872 11.758C14.2776 11.7484 14.2646 11.743 14.251 11.743H9.74918Z" fill="black"/>
</g>
<defs>
<clipPath id="clip0_221_15692">
<rect width="22" height="22" fill="white" transform="translate(1 1)"/>
</clipPath>
</defs>
</svg>
