<svg width="24" height="24" viewBox="0 0 24 24" fill="none" xmlns="http://www.w3.org/2000/svg">
<g clip-path="url(#clip0_221_15611)">
<path fill-rule="evenodd" clip-rule="evenodd" d="M13.688 4.142L14.652 5.106C14.7886 5.24752 14.8641 5.437 14.8623 5.63365C14.8605 5.8303 14.7815 6.01837 14.6424 6.15736C14.5032 6.29635 14.3151 6.37514 14.1185 6.37676C13.9218 6.37837 13.7324 6.30269 13.591 6.166L12.627 5.202L11.567 6.262L13.237 7.934C13.3695 8.07617 13.4416 8.26422 13.4382 8.45852C13.4347 8.65282 13.356 8.83821 13.2186 8.97562C13.0812 9.11304 12.8958 9.19175 12.7015 9.19518C12.5072 9.1986 12.3192 9.12648 12.177 8.994L10.506 7.324L9.445 8.384L10.409 9.348C10.4807 9.41715 10.5378 9.49988 10.5772 9.59137C10.6165 9.68285 10.6373 9.78126 10.6382 9.88084C10.6391 9.98042 10.6202 10.0792 10.5825 10.1714C10.5448 10.2636 10.4892 10.3473 10.4188 10.4178C10.3484 10.4882 10.2647 10.544 10.1725 10.5817C10.0804 10.6195 9.98164 10.6385 9.88206 10.6377C9.78247 10.6369 9.68405 10.6162 9.59253 10.577C9.501 10.5377 9.41822 10.4806 9.349 10.409L8.384 9.445L7.324 10.505L8.994 12.177C9.06769 12.2457 9.12679 12.3285 9.16778 12.4205C9.20877 12.5125 9.23081 12.6118 9.23259 12.7125C9.23437 12.8132 9.21584 12.9132 9.17812 13.0066C9.1404 13.1 9.08426 13.1848 9.01304 13.256C8.94182 13.3273 8.85699 13.3834 8.7636 13.4211C8.67021 13.4588 8.57018 13.4774 8.46948 13.4756C8.36877 13.4738 8.26946 13.4518 8.17746 13.4108C8.08546 13.3698 8.00266 13.3107 7.934 13.237L6.263 11.567L5.203 12.627L6.166 13.591C6.23969 13.6597 6.29879 13.7425 6.33978 13.8345C6.38077 13.9265 6.40281 14.0258 6.40459 14.1265C6.40637 14.2272 6.38784 14.3272 6.35012 14.4206C6.3124 14.514 6.25626 14.5988 6.18504 14.67C6.11382 14.7413 6.02899 14.7974 5.9356 14.8351C5.84221 14.8728 5.74218 14.8914 5.64148 14.8896C5.54077 14.8878 5.44146 14.8658 5.34946 14.8248C5.25746 14.7838 5.17466 14.7247 5.106 14.651L4.142 13.688C3.678 14.157 3.343 14.509 3.108 14.818C2.818 15.198 2.75 15.422 2.75 15.616C2.75 15.809 2.818 16.033 3.108 16.413C3.411 16.811 3.878 17.281 4.576 17.978L6.022 19.424C6.719 20.121 7.189 20.589 7.587 20.892C7.967 21.182 8.191 21.25 8.384 21.25C8.577 21.25 8.802 21.182 9.182 20.892C9.579 20.589 10.05 20.122 10.746 19.424L19.424 10.747C20.121 10.05 20.589 9.579 20.892 9.182C21.182 8.802 21.25 8.578 21.25 8.384C21.25 8.191 21.182 7.967 20.892 7.587C20.589 7.189 20.122 6.719 19.424 6.022L17.978 4.576C17.281 3.879 16.811 3.411 16.413 3.108C16.033 2.818 15.809 2.75 15.616 2.75C15.423 2.75 15.198 2.818 14.818 3.108C14.509 3.343 14.157 3.678 13.688 4.142ZM13.908 1.915C14.422 1.523 14.962 1.25 15.616 1.25C16.27 1.25 16.81 1.523 17.323 1.915C17.81 2.287 18.351 2.828 19.002 3.478L20.522 4.998C21.172 5.648 21.713 6.19 22.085 6.677C22.477 7.19 22.75 7.731 22.75 8.384C22.75 9.038 22.477 9.578 22.085 10.092C21.713 10.579 21.172 11.12 20.522 11.77L11.77 20.522C11.12 21.172 10.579 21.713 10.092 22.085C9.578 22.477 9.038 22.75 8.384 22.75C7.73 22.75 7.19 22.477 6.677 22.085C6.19 21.713 5.649 21.172 4.998 20.522L3.478 19.002C2.828 18.352 2.287 17.81 1.915 17.323C1.523 16.81 1.25 16.269 1.25 15.616C1.25 14.962 1.523 14.422 1.915 13.908C2.287 13.421 2.828 12.88 3.478 12.23L12.23 3.478C12.88 2.828 13.421 2.287 13.908 1.915Z" fill="black"/>
</g>
<defs>
<clipPath id="clip0_221_15611">
<rect width="24" height="24" fill="white"/>
</clipPath>
</defs>
</svg>
