<svg width="24" height="24" viewBox="0 0 24 24" fill="none" xmlns="http://www.w3.org/2000/svg">
<g clip-path="url(#clip0_221_15640)">
<path fill-rule="evenodd" clip-rule="evenodd" d="M17.4691 1.39157C17.5688 1.21409 17.735 1.0835 17.931 1.02852C18.127 0.973544 18.3368 0.998686 18.5143 1.09842C18.6918 1.19815 18.8224 1.3643 18.8774 1.56031C18.9323 1.75633 18.9072 1.96616 18.8075 2.14364L12.8789 12.6869L15.6498 17.6138C15.9995 16.8204 16.6075 16.1688 17.3748 15.7652C18.1422 15.3615 19.0235 15.2295 19.8754 15.3907C20.7273 15.5519 21.4996 15.9968 22.0663 16.6529C22.6331 17.309 22.961 18.1377 22.9967 19.004C23.0324 19.8703 22.7737 20.7231 22.2628 21.4236C21.7519 22.1241 21.0188 22.631 20.1831 22.8616C19.3473 23.0923 18.458 23.0333 17.6601 22.694C16.8622 22.3548 16.2027 21.7554 15.789 20.9935L11.9989 14.2525L8.2089 20.9935C7.79518 21.7551 7.13579 22.3542 6.33811 22.6933C5.54043 23.0323 4.65145 23.0913 3.81597 22.8606C2.98048 22.63 2.24771 22.1232 1.73698 21.4229C1.22625 20.7227 0.967654 19.8701 1.00331 19.0041C1.03897 18.1381 1.36678 17.3096 1.93335 16.6537C2.49992 15.9978 3.27188 15.553 4.1235 15.3918C4.97512 15.2306 5.85623 15.3625 6.62334 15.7659C7.39045 16.1694 7.99836 16.8207 8.34806 17.6138L11.119 12.6869L5.19039 2.14364C5.09066 1.96616 5.06552 1.75633 5.1205 1.56031C5.17547 1.3643 5.30607 1.19815 5.48355 1.09842C5.66103 0.998686 5.87085 0.973544 6.06687 1.02852C6.26289 1.0835 6.42904 1.21409 6.52877 1.39157L11.9989 11.1214L17.4691 1.39157ZM4.83636 21.4642C5.24186 21.4643 5.64022 21.3574 5.99112 21.1542C6.34203 20.951 6.63304 20.6587 6.83471 20.3069L6.85518 20.2701C7.09809 19.8277 7.18892 19.3178 7.1137 18.8188C7.03849 18.3197 6.80139 17.8593 6.43888 17.5082C6.07638 17.1571 5.60855 16.9348 5.10738 16.8756C4.60621 16.8163 4.09946 16.9234 3.66509 17.1803C3.23073 17.4373 2.89281 17.8298 2.70334 18.2975C2.51386 18.7653 2.48332 19.2823 2.61642 19.7691C2.74952 20.2559 3.03887 20.6855 3.43997 20.9917C3.84107 21.298 4.3317 21.464 4.83636 21.4642ZM19.1615 21.4642C18.756 21.4643 18.3576 21.3574 18.0067 21.1542C17.6558 20.951 17.3648 20.6587 17.1631 20.3069L17.1427 20.2701C16.8998 19.8277 16.8089 19.3178 16.8842 18.8188C16.9594 18.3197 17.1965 17.8593 17.559 17.5082C17.9215 17.1571 18.3893 16.9348 18.8905 16.8756C19.3916 16.8163 19.8984 16.9234 20.3328 17.1803C20.7671 17.4373 21.105 17.8298 21.2945 18.2975C21.484 18.7653 21.5145 19.2823 21.3814 19.7691C21.2483 20.2559 20.959 20.6855 20.5579 20.9917C20.1568 21.298 19.6662 21.464 19.1615 21.4642Z" fill="black"/>
</g>
<defs>
<clipPath id="clip0_221_15640">
<rect width="22" height="22" fill="white" transform="translate(1 1)"/>
</clipPath>
</defs>
</svg>
