<svg width="24" height="24" viewBox="0 0 24 24" fill="none" xmlns="http://www.w3.org/2000/svg">
<g clip-path="url(#clip0_221_15548)">
<path fill-rule="evenodd" clip-rule="evenodd" d="M12.6344 2.54716C12.4232 2.53487 12.2116 2.53078 12 2.53488C9.5667 2.53488 7.81898 2.53693 6.48874 2.71498C5.18 2.89098 4.39107 3.2266 3.80781 3.80884C3.22558 4.39209 2.89098 5.18 2.71498 6.48874C2.53693 7.81898 2.53488 9.5667 2.53488 12C2.53488 14.4333 2.53693 16.181 2.71498 17.5113C2.89098 18.82 3.2266 19.6089 3.80884 20.1922C4.33377 20.7171 5.02651 21.0405 6.11628 21.2277V21.1561C6.11628 20.2362 6.11628 19.4698 6.19814 18.862C6.28409 18.2193 6.47442 17.6392 6.94 17.1736C7.4066 16.707 7.98679 16.5167 8.62837 16.4307C9.23721 16.3488 10.0047 16.3488 10.9235 16.3488H13.0765C13.9964 16.3488 14.7628 16.3488 15.3706 16.4307C16.0132 16.5167 16.5934 16.707 17.059 17.1736C17.5256 17.6392 17.7159 18.2193 17.8019 18.862C17.8837 19.4698 17.8837 20.2362 17.8837 21.1561V21.2277C18.9735 21.0405 19.6662 20.7161 20.1912 20.1912C20.7744 19.6079 21.109 18.82 21.285 17.5113C21.4631 16.181 21.4651 14.4333 21.4651 12C21.4651 11.6388 21.4651 11.5017 21.4528 11.3656C21.3901 10.6859 21.1229 10.0413 20.6864 9.51656C20.5429 9.35481 20.3931 9.19881 20.2372 9.04893L14.9511 3.76279C14.8012 3.60659 14.6452 3.45639 14.4834 3.31256C13.9589 2.87665 13.3146 2.60981 12.6354 2.54716M16.3499 21.3935V21.2093C16.3499 20.2229 16.3478 19.5598 16.2813 19.0656C16.2179 18.5939 16.1084 18.3913 15.9743 18.2582C15.8403 18.1252 15.6397 18.0157 15.168 17.9513C14.6738 17.8858 14.0107 17.8837 13.0243 17.8837H10.9778C9.99135 17.8837 9.32828 17.8858 8.83405 17.9523C8.36233 18.0157 8.15972 18.1252 8.0267 18.2593C7.89367 18.3933 7.78419 18.5939 7.71972 19.0656C7.65423 19.5598 7.65219 20.2229 7.65219 21.2093V21.3935C8.80437 21.4651 10.2185 21.4651 12.001 21.4651C13.7835 21.4651 15.1977 21.4651 16.3499 21.3935ZM12.0317 1C12.351 1 12.5567 1 12.7685 1.01842C13.7617 1.10865 14.7039 1.4991 15.4699 2.13786C15.6336 2.27395 15.782 2.42335 16.0122 2.65358L16.0367 2.67712L21.3474 7.98781C21.5767 8.21805 21.726 8.36642 21.8621 8.53014C22.5009 9.29607 22.8914 10.2383 22.9816 11.2315C23 11.4433 23 11.649 23 11.9683V12.0583C23 14.421 23 16.2721 22.8056 17.7169C22.6071 19.1945 22.1916 20.361 21.2768 21.2768C20.361 22.1927 19.1945 22.6071 17.7159 22.8056C16.2721 23 14.421 23 12.0583 23H11.9417C9.57898 23 7.72791 23 6.28307 22.8056C4.80549 22.6071 3.63898 22.1916 2.72316 21.2768C1.80735 20.361 1.39293 19.1945 1.19442 17.7159C1 16.2721 1 14.421 1 12.0583V11.9417C1 9.57898 1 7.72791 1.19442 6.28307C1.39293 4.80549 1.80837 3.63898 2.72316 2.72316C3.63898 1.80735 4.80549 1.39293 6.28409 1.19442C7.72791 1 9.57898 1 11.9417 1H12.0317ZM6.11628 7.90698C6.11628 7.70344 6.19713 7.50824 6.34106 7.36431C6.48498 7.22039 6.68018 7.13953 6.88372 7.13953H13.0233C13.2268 7.13953 13.422 7.22039 13.5659 7.36431C13.7098 7.50824 13.7907 7.70344 13.7907 7.90698C13.7907 8.11052 13.7098 8.30572 13.5659 8.44964C13.422 8.59356 13.2268 8.67442 13.0233 8.67442H6.88372C6.68018 8.67442 6.48498 8.59356 6.34106 8.44964C6.19713 8.30572 6.11628 8.11052 6.11628 7.90698Z" fill="black"/>
</g>
<defs>
<clipPath id="clip0_221_15548">
<rect width="22" height="22" fill="white" transform="translate(1 1)"/>
</clipPath>
</defs>
</svg>
