<svg width="24" height="24" viewBox="0 0 24 24" fill="none" xmlns="http://www.w3.org/2000/svg">
<path fill-rule="evenodd" clip-rule="evenodd" d="M11.9427 1.00037H12.0573C12.7338 0.999008 13.3613 1.00139 13.9396 1.00753C14.0178 0.997217 14.097 0.99825 14.1749 1.0106C15.1027 1.02697 15.9037 1.06482 16.5922 1.15689C17.7911 1.31852 18.762 1.65815 19.5282 2.42335C20.2934 3.18957 20.633 4.16039 20.7946 5.35933C20.9512 6.52554 20.9512 8.01399 20.9512 9.89425V12.9857L20.9501 13.0594C20.946 14.4752 20.9225 15.6404 20.7946 16.5897C20.633 17.7887 20.2934 18.7595 19.5282 19.5257C19.1128 19.94 18.6382 20.2295 18.0991 20.4341L18.8244 21.8847C18.8703 21.975 18.8979 22.0734 18.9056 22.1744C18.9133 22.2753 18.901 22.3768 18.8693 22.473C18.8376 22.5692 18.7871 22.6581 18.7209 22.7347C18.6547 22.8113 18.5739 22.874 18.4833 22.9192C18.3927 22.9644 18.2941 22.9913 18.193 22.9982C18.092 23.0051 17.9906 22.992 17.8947 22.9595C17.7988 22.9271 17.7103 22.876 17.6342 22.8091C17.5581 22.7423 17.496 22.6611 17.4515 22.5701L16.5646 20.7952C15.4035 20.9487 13.9232 20.9487 12.0573 20.9487H11.9427C10.0768 20.9487 8.59753 20.9487 7.43541 20.7952L6.54848 22.5701C6.50395 22.6611 6.44187 22.7423 6.3658 22.8091C6.28973 22.876 6.20119 22.9271 6.10527 22.9595C6.00935 22.992 5.90796 23.0051 5.80694 22.9982C5.70592 22.9913 5.60727 22.9644 5.51668 22.9192C5.42608 22.874 5.34533 22.8113 5.27909 22.7347C5.21285 22.6581 5.16243 22.5692 5.13072 22.473C5.09902 22.3768 5.08666 22.2753 5.09437 22.1744C5.10208 22.0734 5.12969 21.975 5.17563 21.8847L5.90093 20.4341C5.36504 20.2371 4.87769 19.9273 4.47181 19.5257C3.70661 18.7595 3.36698 17.7887 3.20535 16.5897C3.07747 15.6404 3.05394 14.4752 3.04985 13.0604V12.9857L3.04883 12.0548V9.89425C3.04883 8.01399 3.04883 6.52452 3.20535 5.35933C3.36698 4.16039 3.70661 3.18957 4.47181 2.42335C5.23803 1.65815 6.20885 1.31852 7.40779 1.15689C8.09626 1.06482 8.89726 1.02697 9.82512 1.0106C9.90299 0.99825 9.98224 0.997217 10.0604 1.00753C10.6387 1.00139 11.2662 0.999008 11.9427 1.00037ZM9.20109 2.56146C8.59446 2.58192 8.07171 2.61567 7.61239 2.67808C6.58326 2.81618 5.98993 3.07602 5.55618 3.50874C5.12448 3.94147 4.86464 4.5348 4.72653 5.56393C4.58536 6.61557 4.58331 8.00069 4.58331 9.95154V12.2533H19.4167V9.95154C19.4167 8.00069 19.4146 6.61557 19.2735 5.56291C19.1354 4.5348 18.8755 3.94147 18.4428 3.50874C18.0101 3.07602 17.4167 2.81618 16.3876 2.67808C15.9283 2.6167 15.4055 2.58089 14.7989 2.56146C14.7287 3.25494 14.4035 3.89765 13.8863 4.36503C13.3692 4.83241 12.697 5.09117 12 5.09117C11.303 5.09117 10.6308 4.83241 10.1136 4.36503C9.59653 3.89765 9.27134 3.25494 9.20109 2.56146ZM13.2521 2.5369C13.1929 2.82542 13.036 3.08467 12.8077 3.27083C12.5795 3.457 12.294 3.55867 11.9995 3.55867C11.705 3.55867 11.4195 3.457 11.1912 3.27083C10.963 3.08467 10.806 2.82542 10.7468 2.5369C11.5823 2.53306 12.4177 2.53306 13.2532 2.5369M19.4116 13.7878H4.58945C4.59968 14.8455 4.63242 15.6885 4.72653 16.3861C4.86464 17.4143 5.12448 18.0076 5.5572 18.4403C5.98993 18.873 6.58326 19.1329 7.61239 19.271C8.66402 19.4122 10.0492 19.4142 12 19.4142C13.9508 19.4142 15.337 19.4122 16.3886 19.271C17.4167 19.1329 18.0101 18.873 18.4428 18.4403C18.8755 18.0076 19.1354 17.4143 19.2735 16.3851C19.3676 15.6895 19.3993 14.8455 19.4105 13.7878M6.1178 16.0895C6.1178 15.886 6.19863 15.6908 6.34252 15.547C6.48641 15.4031 6.68156 15.3222 6.88504 15.3222H8.41953C8.62301 15.3222 8.81816 15.4031 8.96205 15.547C9.10594 15.6908 9.18677 15.886 9.18677 16.0895C9.18677 16.293 9.10594 16.4881 8.96205 16.632C8.81816 16.7759 8.62301 16.8567 8.41953 16.8567H6.88504C6.68156 16.8567 6.48641 16.7759 6.34252 16.632C6.19863 16.4881 6.1178 16.293 6.1178 16.0895ZM14.8132 16.0895C14.8132 15.886 14.8941 15.6908 15.0379 15.547C15.1818 15.4031 15.377 15.3222 15.5805 15.3222H17.1149C17.3184 15.3222 17.5136 15.4031 17.6575 15.547C17.8014 15.6908 17.8822 15.886 17.8822 16.0895C17.8822 16.293 17.8014 16.4881 17.6575 16.632C17.5136 16.7759 17.3184 16.8567 17.1149 16.8567H15.5805C15.377 16.8567 15.1818 16.7759 15.0379 16.632C14.8941 16.4881 14.8132 16.293 14.8132 16.0895Z" fill="black"/>
</svg>
