<svg width="24" height="24" viewBox="0 0 24 24" fill="none" xmlns="http://www.w3.org/2000/svg">
<path fill-rule="evenodd" clip-rule="evenodd" d="M1.78385 18.7166H9.22521C9.66417 18.7166 10.0091 18.3717 10.0091 17.9328L10.0104 5.48685C10.0104 5.0479 11.348 4.703 10.909 4.703C10.909 4.703 6.09114 4.703 3.88591 4.703C3.12296 4.703 2.39129 5.00614 1.84782 5.53916C1.30434 6.08263 1.00132 6.81418 1.00132 7.57713L1 17.9328C1 18.3717 1.35535 18.7166 1.78385 18.7166ZM4.38623 17.1489H2.5677L2.56902 7.57713C2.56902 7.23223 2.70489 6.89784 2.95572 6.647C3.20655 6.40662 3.54101 6.27071 3.88591 6.27071H8.44268L8.44136 17.1489H4.38623Z" fill="black"/>
<path fill-rule="evenodd" clip-rule="evenodd" d="M8.44141 17.9329C8.44141 18.3718 8.79675 18.7167 9.22526 18.7167C9.22526 18.7167 17.6176 18.7167 20.9098 18.7167C21.4637 18.7167 21.9968 18.4972 22.3835 18.1105C22.7806 17.7134 23.0001 17.1804 23.0001 16.6264C23.0001 14.2435 23.0001 9.1746 23.0001 6.79169C23.0001 6.23777 22.7806 5.70477 22.3835 5.31807C21.9968 4.92092 21.4637 4.70142 20.9098 4.70142C18.4224 4.70142 13.0191 4.70142 10.5317 4.70142C9.97776 4.70142 9.4447 4.92092 9.058 5.31807C8.66085 5.70477 8.44141 6.23777 8.44141 6.79169C8.44141 9.97935 8.44141 17.9329 8.44141 17.9329ZM10.0091 17.149V6.79169C10.0091 6.65582 10.0614 6.51997 10.1659 6.41545C10.26 6.32139 10.3958 6.26912 10.5317 6.26912H20.9098C21.0457 6.26912 21.1816 6.32139 21.2757 6.41545C21.3698 6.51997 21.4324 6.65582 21.4324 6.79169V16.6264C21.4324 16.7728 21.3698 16.8982 21.2757 17.0027C21.1816 17.0967 21.0457 17.149 20.9098 17.149H10.0091Z" fill="black"/>
<path fill-rule="evenodd" clip-rule="evenodd" d="M22.2162 10.2032H9.22526C8.79675 10.2032 8.44141 10.5481 8.44141 10.9871C8.44141 11.4156 8.79675 11.771 9.22526 11.771H22.2162C22.6447 11.771 23.0001 11.4156 23.0001 10.9871C23.0001 10.5481 22.6447 10.2032 22.2162 10.2032Z" fill="black"/>
<path fill-rule="evenodd" clip-rule="evenodd" d="M16.5046 10.7685L16.5046 5.78532C16.5046 5.35681 16.1597 5.00146 15.7207 5.00146C15.2922 5.00146 14.9369 5.35681 14.9369 5.78532L14.9369 10.7685C14.9369 11.197 15.2922 11.5523 15.7207 11.5523C16.1597 11.5523 16.5046 11.197 16.5046 10.7685Z" fill="black"/>
<path fill-rule="evenodd" clip-rule="evenodd" d="M14.1053 17.4033L14.1053 11.1136C14.1053 10.6851 13.7604 10.3297 13.3215 10.3297C12.893 10.3297 12.5376 10.6851 12.5376 11.1136L12.5376 17.4033C12.5376 17.8318 12.893 18.1872 13.3215 18.1872C13.7604 18.1872 14.1053 17.8318 14.1053 17.4033Z" fill="black"/>
<path fill-rule="evenodd" clip-rule="evenodd" d="M1.78391 13.031L5.14128 13.0311C5.56978 13.0311 5.92513 12.6758 5.92513 12.2472V8.08756C5.92513 7.64861 5.56978 7.30371 5.14128 7.30371C4.71277 7.30371 4.35743 7.64861 4.35743 8.08756V11.4634L1.78391 11.4633C1.35541 11.4633 1.00006 11.8082 1.00006 12.2472C1.00006 12.6757 1.35541 13.031 1.78391 13.031Z" fill="black"/>
<path fill-rule="evenodd" clip-rule="evenodd" d="M1.78391 15.8216H3.28885C3.71735 15.8216 4.0727 15.4663 4.0727 15.0378C4.0727 14.6093 3.71735 14.2539 3.28885 14.2539H1.78391C1.35541 14.2539 1.00006 14.6093 1.00006 15.0378C1.00006 15.4663 1.35541 15.8216 1.78391 15.8216Z" fill="black"/>
<path fill-rule="evenodd" clip-rule="evenodd" d="M12.6144 15.8216C13.0429 15.8216 13.3983 15.4663 13.3983 15.0378C13.3983 14.6093 13.0429 14.2539 12.6144 14.2539C12.1859 14.2539 11.8306 14.6093 11.8306 15.0378C11.8306 15.4663 12.1859 15.8216 12.6144 15.8216Z" fill="black"/>
<path fill-rule="evenodd" clip-rule="evenodd" d="M5.87042 15.7382C4.65807 15.7382 3.67554 16.7206 3.67554 17.933C3.67554 19.1453 4.65807 20.1277 5.87042 20.1277C7.08278 20.1277 8.06518 19.1453 8.06518 17.933C8.06518 16.7206 7.08278 15.7382 5.87042 15.7382ZM5.87042 17.3059C6.21532 17.3059 6.49748 17.5881 6.49748 17.933C6.49748 18.2779 6.21532 18.56 5.87042 18.56C5.52553 18.56 5.24324 18.2779 5.24324 17.933C5.24324 17.5881 5.52553 17.3059 5.87042 17.3059Z" fill="black"/>
<path fill-rule="evenodd" clip-rule="evenodd" d="M16.9071 15.7382C15.6947 15.7382 14.7122 16.7206 14.7122 17.933C14.7122 19.1453 15.6947 20.1277 16.9071 20.1277C18.1195 20.1277 19.1019 19.1453 19.1019 17.933C19.1019 16.7206 18.1195 15.7382 16.9071 15.7382ZM16.9071 17.3059C17.252 17.3059 17.5342 17.5881 17.5342 17.933C17.5342 18.2779 17.252 18.56 16.9071 18.56C16.5622 18.56 16.2799 18.2779 16.2799 17.933C16.2799 17.5881 16.5622 17.3059 16.9071 17.3059Z" fill="black"/>
</svg>
