<svg width="24" height="24" viewBox="0 0 24 24" fill="none" xmlns="http://www.w3.org/2000/svg">
<path d="M5.72261 17.9998C6.82839 17.9998 7.72479 17.1034 7.72479 15.9977C7.72479 14.8919 6.82839 13.9955 5.72261 13.9955C4.61683 13.9955 3.72043 14.8919 3.72043 15.9977C3.72043 17.1034 4.61683 17.9998 5.72261 17.9998Z" fill="black"/>
<path d="M16.7456 17.9998C17.8514 17.9998 18.7478 17.1034 18.7478 15.9977C18.7478 14.8919 17.8514 13.9955 16.7456 13.9955C15.6398 13.9955 14.7434 14.8919 14.7434 15.9977C14.7434 17.1034 15.6398 17.9998 16.7456 17.9998Z" fill="black"/>
<path fill-rule="evenodd" clip-rule="evenodd" d="M2.68264 16.653C6.27536 16.674 17.4476 16.7581 21.0634 16.7896C21.5762 16.7896 22.068 16.59 22.4316 16.2327C22.7951 15.8649 23 15.371 23 14.8666V11.6302C23 10.5688 22.1394 9.70715 21.0771 9.70715H2.6963C1.63499 9.70715 0.77433 10.5688 0.77433 11.6302V14.7301C0.77433 15.7809 1.62553 16.6425 2.68264 16.653ZM2.69316 15.0768C2.50401 15.0768 2.35054 14.9192 2.35054 14.7301V11.6302C2.35054 11.4305 2.50506 11.2834 2.6963 11.2834H21.0771C21.2683 11.2834 21.4238 11.4305 21.4238 11.6302V14.8666C21.4238 14.9507 21.3871 15.0453 21.3209 15.1083C21.2557 15.1714 21.1674 15.2134 21.075 15.2134L2.69316 15.0768Z" fill="black"/>
<path fill-rule="evenodd" clip-rule="evenodd" d="M4.94709 10.9051L7.22105 7.19573C7.28409 7.09065 7.39549 7.02763 7.51633 7.02763H14.3319C14.4538 7.02763 14.5672 7.09065 14.6292 7.19573L16.8286 10.8946C17.0503 11.2729 17.5348 11.3885 17.9089 11.1678C18.2819 10.9472 18.4059 10.4638 18.1831 10.0855C18.1831 10.0855 16.6689 7.54249 15.9837 6.39711C15.638 5.80865 15.0097 5.45142 14.3319 5.45142H7.51633C6.84696 5.45142 6.22699 5.79818 5.87707 6.36562L3.60312 10.0855C3.37614 10.4532 3.49277 10.9366 3.8637 11.1678C4.23464 11.3885 4.72012 11.2729 4.94709 10.9051Z" fill="black"/>
</svg>
