<svg width="24" height="24" viewBox="0 0 24 24" fill="none" xmlns="http://www.w3.org/2000/svg">
<path fill-rule="evenodd" clip-rule="evenodd" d="M1.94117 23.0342C1.94117 23.0342 3.50715 22.2982 4.58516 21.7902C5.02016 21.5932 5.52814 21.5932 5.95314 21.8002C6.40914 22.0182 6.94818 22.2772 7.41518 22.5052C8.32718 22.9402 9.39513 22.9202 10.2871 22.4322C10.5871 22.2662 10.9091 22.0902 11.2091 21.9242C11.6451 21.6962 12.1732 21.6752 12.6192 21.8722L14.1542 22.5572C15.0562 22.9612 16.0922 22.9202 16.9632 22.4432L17.8442 21.9452C18.2902 21.7072 18.8192 21.6862 19.2852 21.9042L21.7462 23.0342C22.1362 23.2202 22.5962 23.0442 22.7762 22.6602C22.9562 22.2662 22.7862 21.8002 22.3962 21.6242C22.3962 21.6242 20.9762 20.9702 19.9392 20.4832C19.0262 20.0692 17.9692 20.1102 17.0982 20.5872C16.8082 20.7532 16.4972 20.9192 16.2062 21.0742C15.7712 21.3232 15.2422 21.3442 14.7862 21.1362L13.2522 20.4522C12.3602 20.0582 11.3342 20.1002 10.4732 20.5662C10.1732 20.7222 9.84119 20.8982 9.54019 21.0642C9.09418 21.3132 8.54513 21.3232 8.08913 21.1052L6.63716 20.4002C5.77716 19.9862 4.79214 19.9862 3.93214 20.3802C2.84314 20.8882 1.27814 21.6242 1.27814 21.6242C0.894142 21.8102 0.728118 22.2662 0.904118 22.6602C1.09112 23.0442 1.54717 23.2202 1.94117 23.0342ZM3.27815 16.0862C2.30715 16.5412 1.27814 17.0252 1.27814 17.0252C0.894142 17.2112 0.728118 17.6682 0.904118 18.0622C1.09112 18.4452 1.54717 18.6212 1.94117 18.4352C1.94117 18.4352 3.50715 17.6992 4.58516 17.1912C5.02016 16.9942 5.52814 16.9942 5.95314 17.2012C6.40914 17.4192 6.94818 17.6782 7.41518 17.9062C8.32718 18.3412 9.39513 18.3212 10.2871 17.8332C10.5871 17.6682 10.9091 17.4912 11.2091 17.3252C11.6451 17.0972 12.1732 17.0772 12.6192 17.2742L14.1542 17.9582C15.0562 18.3622 16.0922 18.3212 16.9632 17.8442L17.8442 17.3462C18.2902 17.1082 18.8192 17.0872 19.2852 17.3052L21.7462 18.4352C22.1362 18.6212 22.5962 18.4452 22.7762 18.0622C22.9562 17.6682 22.7862 17.2012 22.3962 17.0252C22.3962 17.0252 21.4662 16.5982 20.5632 16.1772L21.0262 14.8922L22.1562 15.3442C22.5462 15.4972 22.9762 15.3102 23.1262 14.9262C23.2862 14.5412 23.0962 14.1052 22.7162 13.9512L18.4362 12.2402L12.6361 1.71113C12.5041 1.47213 12.2532 1.32413 11.9802 1.32313C11.7082 1.32213 11.4562 1.47014 11.3242 1.70814L5.46516 12.2252L1.15613 13.9512C0.771132 14.1052 0.58514 14.5412 0.73914 14.9262C0.89314 15.3102 1.32912 15.4972 1.71412 15.3432L2.82313 14.8992L3.27815 16.0862ZM12.6881 15.6662C12.8801 15.7102 13.0692 15.7722 13.2522 15.8532L14.7862 16.5372C15.2422 16.7452 15.7712 16.7242 16.2062 16.4752C16.4972 16.3202 16.8082 16.1542 17.0982 15.9882C17.7292 15.6422 18.4592 15.5252 19.1602 15.6452L19.6322 14.3342L12.6792 11.5522L12.6881 15.6662ZM11.1881 15.6862L11.1792 11.5522L6.36318 13.4812C6.29918 13.5182 6.23117 13.5452 6.16017 13.5622L4.21718 14.3402L4.67616 15.5432C5.33216 15.4192 6.01716 15.5032 6.63716 15.8012L8.08913 16.5062C8.54513 16.7242 9.09418 16.7142 9.54019 16.4652C9.84119 16.2992 10.1732 16.1232 10.4732 15.9672C10.7022 15.8432 10.9421 15.7502 11.1881 15.6862ZM16.2392 11.3611L11.9752 3.62113L7.67617 11.3392L11.6482 9.74816C11.8272 9.67616 12.0271 9.67616 12.2061 9.74816L16.2392 11.3611Z" fill="black"/>
</svg>
