<svg width="24" height="24" viewBox="0 0 24 24" fill="none" xmlns="http://www.w3.org/2000/svg">
<g clip-path="url(#clip0_221_15825)">
<path fill-rule="evenodd" clip-rule="evenodd" d="M15.2195 2.60976C14.8637 2.60976 14.5225 2.75109 14.271 3.00266C14.0194 3.25424 13.8781 3.59544 13.8781 3.95122C13.8781 4.307 14.0194 4.6482 14.271 4.89978C14.5225 5.15135 14.8637 5.29268 15.2195 5.29268C15.5753 5.29268 15.9165 5.15135 16.1681 4.89978C16.4196 4.6482 16.561 4.307 16.561 3.95122C16.561 3.59544 16.4196 3.25424 16.1681 3.00266C15.9165 2.75109 15.5753 2.60976 15.2195 2.60976ZM12.2683 3.95122C12.2683 3.16851 12.5792 2.41785 13.1327 1.86439C13.6862 1.31093 14.4368 1 15.2195 1C16.0022 1 16.7529 1.31093 17.3063 1.86439C17.8598 2.41785 18.1707 3.16851 18.1707 3.95122C18.1707 4.73393 17.8598 5.48459 17.3063 6.03805C16.7529 6.59151 16.0022 6.90244 15.2195 6.90244C14.4368 6.90244 13.6862 6.59151 13.1327 6.03805C12.5792 5.48459 12.2683 4.73393 12.2683 3.95122ZM12.1728 7.29415L12.2103 7.33171L12.8306 7.94771C13.8062 8.91678 14.1453 9.23551 14.5531 9.40293C14.9609 9.57034 15.4266 9.58537 16.8014 9.58537H18.9756C19.1891 9.58537 19.3938 9.67017 19.5447 9.82111C19.6957 9.97205 19.7805 10.1768 19.7805 10.3902C19.7805 10.6037 19.6957 10.8084 19.5447 10.9594C19.3938 11.1103 19.1891 11.1951 18.9756 11.1951H16.649C15.4867 11.1951 14.6786 11.1951 13.9392 10.8914C13.1998 10.5866 12.6278 10.0168 11.8036 9.19581L11.6963 9.08849L11.076 8.47356C10.6371 8.03785 10.3677 7.77278 10.1531 7.6118C10.0925 7.56369 10.0257 7.52398 9.95454 7.49376L9.94381 7.5002C9.8835 7.54136 9.82868 7.59004 9.78069 7.64507C9.59825 7.84361 9.38039 8.15161 9.02839 8.66029L7.71161 10.5566C7.35318 11.0739 7.13532 11.3904 7.01191 11.6373C6.97487 11.7062 6.94743 11.7798 6.93035 11.8562L6.93786 11.8648C6.99082 11.917 7.05035 11.9621 7.11493 11.9989C7.34888 12.1438 7.70088 12.2994 8.27718 12.5516L9.9041 13.2599C10.5995 13.5647 11.1855 13.8201 11.6362 14.0841C12.1159 14.3653 12.5216 14.698 12.7931 15.1948C13.0646 15.6928 13.1268 16.2133 13.1043 16.7681C13.0839 17.2907 12.983 17.9228 12.8639 18.6719L12.7952 19.1022C12.7616 19.3132 12.6456 19.5021 12.4728 19.6275C12.2999 19.7528 12.0843 19.8044 11.8734 19.7708C11.6625 19.7372 11.4735 19.6213 11.3482 19.4484C11.2228 19.2755 11.1712 19.0599 11.2048 18.849L11.267 18.4637C11.3958 17.6567 11.4795 17.1201 11.4967 16.7037C11.5117 16.3099 11.4613 16.1145 11.3808 15.9675C11.3003 15.8216 11.164 15.6724 10.8227 15.4739C10.4643 15.2624 9.96742 15.0446 9.21727 14.7173L7.58391 14.0047C7.07308 13.7815 6.61269 13.5808 6.2682 13.3683C5.89474 13.1376 5.52771 12.8156 5.38069 12.2951C5.23259 11.7736 5.3764 11.3078 5.57386 10.915C5.75415 10.5544 6.04069 10.1423 6.35835 9.68302L6.38947 9.63902L7.70625 7.74166L7.7363 7.69873C8.04752 7.248 8.32976 6.84234 8.60127 6.55044C8.8964 6.23278 9.27737 5.93873 9.80859 5.89044C10.3398 5.84215 10.7669 6.06215 11.1146 6.32185C11.4334 6.5601 11.7843 6.9078 12.1728 7.29415ZM5.56098 16.561C4.92058 16.561 4.30641 16.8154 3.85358 17.2682C3.40075 17.721 3.14635 18.3352 3.14635 18.9756C3.14635 19.616 3.40075 20.2302 3.85358 20.683C4.30641 21.1358 4.92058 21.3902 5.56098 21.3902C6.20138 21.3902 6.81555 21.1358 7.26838 20.683C7.72122 20.2302 7.97561 19.616 7.97561 18.9756C7.97561 18.3352 7.72122 17.721 7.26838 17.2682C6.81555 16.8154 6.20138 16.561 5.56098 16.561ZM1.53659 18.9756C1.53659 17.9083 1.96059 16.8847 2.71531 16.1299C3.47003 15.3752 4.49365 14.9512 5.56098 14.9512C6.62831 14.9512 7.65193 15.3752 8.40665 16.1299C9.16137 16.8847 9.58537 17.9083 9.58537 18.9756C9.58537 20.0429 9.16137 21.0666 8.40665 21.8213C7.65193 22.576 6.62831 23 5.56098 23C4.49365 23 3.47003 22.576 2.71531 21.8213C1.96059 21.0666 1.53659 20.0429 1.53659 18.9756ZM18.439 16.561C17.7986 16.561 17.1845 16.8154 16.7316 17.2682C16.2788 17.721 16.0244 18.3352 16.0244 18.9756C16.0244 19.616 16.2788 20.2302 16.7316 20.683C17.1845 21.1358 17.7986 21.3902 18.439 21.3902C19.0794 21.3902 19.6936 21.1358 20.1464 20.683C20.5993 20.2302 20.8537 19.616 20.8537 18.9756C20.8537 18.3352 20.5993 17.721 20.1464 17.2682C19.6936 16.8154 19.0794 16.561 18.439 16.561ZM14.4146 18.9756C14.4146 17.9083 14.8386 16.8847 15.5934 16.1299C16.3481 15.3752 17.3717 14.9512 18.439 14.9512C19.5064 14.9512 20.53 15.3752 21.2847 16.1299C22.0394 16.8847 22.4634 17.9083 22.4634 18.9756C22.4634 20.0429 22.0394 21.0666 21.2847 21.8213C20.53 22.576 19.5064 23 18.439 23C17.3717 23 16.3481 22.576 15.5934 21.8213C14.8386 21.0666 14.4146 20.0429 14.4146 18.9756Z" fill="black"/>
</g>
<defs>
<clipPath id="clip0_221_15825">
<rect width="22" height="22" fill="white" transform="translate(1 1)"/>
</clipPath>
</defs>
</svg>
