<svg width="24" height="24" viewBox="0 0 24 24" fill="none" xmlns="http://www.w3.org/2000/svg">
<g clip-path="url(#clip0_221_15801)">
<path fill-rule="evenodd" clip-rule="evenodd" d="M11.9427 1H12.0573C13.938 1 15.4279 1 16.5934 1.15656C17.7927 1.31823 18.7637 1.65795 19.5301 2.42335C20.2955 3.18977 20.6353 4.16084 20.7969 5.36009C20.9023 6.14186 20.9361 7.06893 20.9473 8.16279H21.2093C22.1978 8.16279 23 8.96502 23 9.95349V10.9767C23 11.5395 22.734 12.0716 22.2837 12.4093L20.9504 13.409C20.9433 14.6697 20.9136 15.7216 20.7969 16.5934C20.6353 17.7927 20.2955 18.7637 19.5301 19.5301C19.3357 19.7239 19.128 19.892 18.907 20.0346V21.2093C18.907 21.6842 18.7183 22.1397 18.3825 22.4755C18.0467 22.8113 17.5912 23 17.1163 23H15.5814C15.1065 23 14.651 22.8113 14.3152 22.4755C13.9794 22.1397 13.7907 21.6842 13.7907 21.2093V20.9473C13.2545 20.9521 12.6767 20.9542 12.0573 20.9535H11.9427C11.3226 20.9549 10.7448 20.9528 10.2093 20.9473V21.2093C10.2093 21.6842 10.0206 22.1397 9.68482 22.4755C9.349 22.8113 8.89353 23 8.4186 23H6.88372C6.4088 23 5.95333 22.8113 5.61751 22.4755C5.28169 22.1397 5.09302 21.6842 5.09302 21.2093V20.0346C4.86803 19.889 4.65914 19.7199 4.46986 19.5301C3.70446 18.7637 3.36474 17.7927 3.20307 16.5934C3.08642 15.7216 3.05674 14.6697 3.04958 13.409L1.71628 12.4093C1.26605 12.0716 1 11.5395 1 10.9767V9.95349C1 8.96502 1.80223 8.16279 2.7907 8.16279H3.05163C3.06391 7.06893 3.09767 6.14186 3.20307 5.36009C3.36474 4.16084 3.70446 3.18977 4.46986 2.42335C5.23628 1.65795 6.20735 1.31823 7.4066 1.15656C8.57312 1 10.062 1 11.9427 1ZM3.04651 9.69767H2.7907C2.72285 9.69767 2.65778 9.72463 2.60981 9.7726C2.56184 9.82057 2.53488 9.88564 2.53488 9.95349V10.9767C2.53488 11.0165 2.54413 11.0556 2.56189 11.0911C2.57965 11.1267 2.60544 11.1576 2.63721 11.1814L3.04651 11.4884V9.69767ZM4.58753 13.7907C4.59777 14.8487 4.63051 15.6919 4.72465 16.3898C4.86279 17.4181 5.1227 18.0116 5.55553 18.4445C5.98837 18.8773 6.58186 19.1372 7.61126 19.2754C8.66316 19.4166 10.0487 19.4186 12 19.4186C13.9513 19.4186 15.3379 19.4166 16.3898 19.2754C17.4181 19.1372 18.0116 18.8773 18.4445 18.4445C18.8773 18.0116 19.1372 17.4181 19.2754 16.3887C19.3695 15.6929 19.4012 14.8487 19.4125 13.7907H4.58753ZM19.4186 12.2558H4.5814V9.95349C4.5814 8.0267 4.58344 6.65144 4.71954 5.60465H19.2805C19.4166 6.65144 19.4186 8.0267 19.4186 9.95349V12.2558ZM20.9535 11.4884L21.3628 11.1814C21.3946 11.1576 21.4203 11.1267 21.4381 11.0911C21.4559 11.0556 21.4651 11.0165 21.4651 10.9767V9.95349C21.4651 9.88564 21.4382 9.82057 21.3902 9.7726C21.3422 9.72463 21.2771 9.69767 21.2093 9.69767H20.9535V11.4884ZM18.8568 4.06977C18.7479 3.86345 18.609 3.67447 18.4445 3.50902C18.0116 3.07619 17.4181 2.81628 16.3887 2.67814C15.3368 2.53693 13.9513 2.53488 12 2.53488C10.0487 2.53488 8.66316 2.53693 7.61023 2.67814C6.58186 2.81628 5.98837 3.07619 5.55553 3.50902C5.39104 3.67447 5.25207 3.86345 5.14316 4.06977H18.8568ZM6.62791 20.6567V21.2093C6.62791 21.3505 6.74251 21.4651 6.88372 21.4651H8.4186C8.48645 21.4651 8.55152 21.4382 8.59949 21.3902C8.64747 21.3422 8.67442 21.2771 8.67442 21.2093V20.9064C8.25048 20.8875 7.82751 20.8509 7.4066 20.7969C7.14493 20.7628 6.88506 20.716 6.62791 20.6567ZM15.3256 20.9064V21.2093C15.3256 21.3505 15.4402 21.4651 15.5814 21.4651H17.1163C17.1841 21.4651 17.2492 21.4382 17.2972 21.3902C17.3451 21.3422 17.3721 21.2771 17.3721 21.2093V20.6567C17.1245 20.714 16.8649 20.7608 16.5934 20.7969C16.1725 20.8509 15.7495 20.8875 15.3256 20.9064ZM6.11628 16.093C6.11628 15.8895 6.19713 15.6943 6.34106 15.5504C6.48498 15.4064 6.68018 15.3256 6.88372 15.3256H8.4186C8.62214 15.3256 8.81734 15.4064 8.96127 15.5504C9.10519 15.6943 9.18605 15.8895 9.18605 16.093C9.18605 16.2966 9.10519 16.4918 8.96127 16.6357C8.81734 16.7796 8.62214 16.8605 8.4186 16.8605H6.88372C6.68018 16.8605 6.48498 16.7796 6.34106 16.6357C6.19713 16.4918 6.11628 16.2966 6.11628 16.093ZM14.814 16.093C14.814 15.8895 14.8948 15.6943 15.0387 15.5504C15.1827 15.4064 15.3779 15.3256 15.5814 15.3256H17.1163C17.3198 15.3256 17.515 15.4064 17.6589 15.5504C17.8029 15.6943 17.8837 15.8895 17.8837 16.093C17.8837 16.2966 17.8029 16.4918 17.6589 16.6357C17.515 16.7796 17.3198 16.8605 17.1163 16.8605H15.5814C15.3779 16.8605 15.1827 16.7796 15.0387 16.6357C14.8948 16.4918 14.814 16.2966 14.814 16.093Z" fill="black"/>
</g>
<defs>
<clipPath id="clip0_221_15801">
<rect width="22" height="22" fill="white" transform="translate(1 1)"/>
</clipPath>
</defs>
</svg>
