<svg width="24" height="24" viewBox="0 0 24 24" fill="none" xmlns="http://www.w3.org/2000/svg">
<path fill-rule="evenodd" clip-rule="evenodd" d="M7.61037 5.4235H16.6104C17.0105 5.4235 17.3104 5.6235 17.5104 6.0235L19.0104 8.62349H5.21034L6.71034 6.0235C6.91034 5.6265 7.21037 5.4265 7.61037 5.4235ZM3.41034 17.7235C3.41034 17.7895 3.45038 17.8235 3.51038 17.8235H4.41035C4.48035 17.8235 4.51038 17.7895 4.51038 17.7235V16.3235H3.41034V17.7235ZM19.8104 17.7235C19.8104 17.7895 19.8504 17.8235 19.9104 17.8235H20.8104C20.8804 17.8235 20.9104 17.7895 20.9104 17.7235V16.3235H19.8104V17.7235ZM20.7604 10.1235C20.6604 10.1835 20.5504 10.2235 20.4104 10.2235H3.81037C3.68037 10.2235 3.57034 10.1835 3.47034 10.1235H3.01038C2.81038 10.1235 2.71033 10.3235 2.71033 10.4235V14.4235C2.71033 14.6235 2.81038 14.7235 3.01038 14.7235H21.2104C21.4104 14.7235 21.5104 14.6235 21.5104 14.4235V10.4235C21.5104 10.3235 21.4104 10.1235 21.2104 10.1235H20.7604ZM4.91035 13.4235C5.41035 13.4235 5.91035 13.0235 5.91035 12.4235C5.91035 11.9235 5.41035 11.5235 4.91035 11.5235C4.41035 11.5235 3.91035 11.9235 3.91035 12.4235C3.91035 13.0235 4.41035 13.4235 4.91035 13.4235ZM19.4104 13.4235C19.9104 13.4235 20.4104 13.0235 20.4104 12.4235C20.4104 11.9235 19.9104 11.5235 19.4104 11.5235C18.9104 11.5235 18.4104 11.9235 18.4104 12.4235C18.4104 13.0235 18.9104 13.4235 19.4104 13.4235ZM16.6104 3.82349C17.5105 3.82349 18.4104 4.32348 18.9104 5.22348C19.5104 6.27149 20.4504 7.88048 20.8804 8.62349H21.2104C22.3104 8.62349 23.1105 9.42351 23.1105 10.5235V14.4235C23.1105 15.0065 22.8904 15.5045 22.5104 15.8455V17.7235C22.5104 18.6235 21.7104 19.4235 20.8104 19.4235H20.0104C19.0104 19.4235 18.3104 18.6235 18.3104 17.7235V16.3235H6.11036V17.7235C6.11036 18.6235 5.31035 19.4235 4.41035 19.4235H3.51038C2.61038 19.4235 1.91034 18.6235 1.91034 17.7235V16.0015C1.42034 15.6695 1.11035 15.1035 1.11035 14.4235V10.5235C1.11035 9.42351 1.91038 8.62349 3.01038 8.62349H3.35035C3.78035 7.88048 4.72037 6.27149 5.31037 5.22348C5.81038 4.32348 6.71036 3.82349 7.61037 3.82349H16.6104Z" fill="black"/>
</svg>
