<svg width="24" height="24" viewBox="0 0 24 24" fill="none" xmlns="http://www.w3.org/2000/svg">
<path fill-rule="evenodd" clip-rule="evenodd" d="M5.62609 13.142H7.18616V10.9149H16.4761V13.142L19.7261 13.143C19.9461 13.143 20.1161 13.317 20.1161 13.531V15.726H16.4462C16.0162 15.726 15.6662 16.074 15.6662 16.503C15.6662 16.932 16.0162 17.28 16.4462 17.28H20.1161V17.694C20.1161 17.909 19.9461 18.083 19.7261 18.083H3.89611C3.68611 18.083 3.5161 17.909 3.5161 17.694V17.28H7.04614C7.47614 17.28 7.81616 16.932 7.81616 16.503C7.81616 16.074 7.47614 15.726 7.04614 15.726H3.5161V13.531C3.5161 13.317 3.68611 13.143 3.89611 13.143L5.62609 13.142ZM5.48608 20.956V19.887C5.48608 19.755 5.38609 19.647 5.24609 19.647C5.11609 19.647 5.0061 19.755 5.0061 19.887V20.956C5.0061 21.089 5.11609 21.196 5.24609 21.196C5.38609 21.196 5.48608 21.089 5.48608 20.956ZM18.8461 20.956V19.887C18.8461 19.755 18.7361 19.647 18.6061 19.647C18.4761 19.647 18.3661 19.755 18.3661 19.887V20.956C18.3661 21.089 18.4761 21.196 18.6061 21.196C18.7361 21.196 18.8461 21.089 18.8461 20.956ZM8.68616 12.061C8.83616 11.88 9.05614 11.7739 9.28614 11.7739H14.3761C14.6161 11.7739 14.8361 11.88 14.9861 12.061C15.1361 12.243 15.1861 12.482 15.1461 12.711L14.2461 16.995C14.1661 17.354 13.8461 17.612 13.4861 17.612H10.1862C9.81616 17.612 9.49615 17.354 9.42615 16.994L8.52612 12.711C8.47612 12.481 8.53616 12.243 8.68616 12.061ZM10.2461 13.328L10.8162 16.058H12.8461L13.4262 13.328H10.2461ZM16.4761 5.39893V9.36095H7.18616V5.39893H16.4761ZM16.4761 3.84394H7.18616V3.24195C7.18616 3.02795 7.35616 2.85395 7.56616 2.85395H16.0862C16.2962 2.85395 16.4761 3.02795 16.4761 3.24195V3.84394ZM5.62609 3.24195C5.62609 2.16895 6.49616 1.29993 7.56616 1.29993H16.0862C17.1562 1.29993 18.0261 2.16895 18.0261 3.24195V11.5879H18.6862C18.7662 11.3869 18.9261 11.2269 19.1261 11.1489V7.04295C19.1261 6.16895 19.6262 5.60294 20.1662 5.29194C20.6662 4.99894 21.2261 4.89695 21.6061 4.88395C22.0361 4.86995 22.3962 5.20593 22.4062 5.63493C22.4262 6.06393 22.0862 6.42294 21.6562 6.43794C21.4662 6.44494 21.1662 6.50495 20.9462 6.63295C20.7562 6.74295 20.6862 6.85895 20.6862 7.04295V11.081H20.7062C21.1262 11.075 21.4861 11.4179 21.4861 11.8469C21.4961 12.0509 21.4162 12.238 21.2862 12.378C21.5262 12.701 21.6662 13.099 21.6662 13.531V17.694C21.6662 18.545 21.1261 19.268 20.3661 19.531C20.3861 19.646 20.3961 19.765 20.3961 19.887V20.956C20.3961 21.947 19.5961 22.75 18.6061 22.75C17.6161 22.75 16.8062 21.947 16.8062 20.956V19.887C16.8062 19.802 16.8162 19.719 16.8262 19.637H7.02612C7.03612 19.719 7.04614 19.802 7.04614 19.887V20.956C7.04614 21.947 6.23609 22.75 5.24609 22.75C4.25609 22.75 3.45617 21.947 3.45617 20.956V19.887C3.45617 19.787 3.46606 19.688 3.47606 19.592C2.60606 19.4 1.95616 18.623 1.95616 17.694V13.531C1.95616 13.097 2.09617 12.696 2.33617 12.3729C2.22617 12.2409 2.16611 12.0709 2.15611 11.8859C2.15611 11.4569 2.49613 11.104 2.92614 11.099L3.04613 11.0969V7.04295C3.04613 6.85895 2.96611 6.74295 2.77611 6.63295C2.55611 6.50495 2.26615 6.44494 2.06615 6.43794C1.63615 6.42294 1.29615 6.06393 1.31615 5.63493C1.32615 5.20593 1.68607 4.86995 2.11608 4.88395C2.49608 4.89695 3.06615 4.99894 3.56615 5.29194C4.09615 5.60294 4.59606 6.16895 4.59606 7.04295V11.1649C4.76606 11.2529 4.90607 11.4039 4.97607 11.5879H5.62609V3.24195Z" fill="black"/>
</svg>
