<svg width="24" height="24" viewBox="0 0 24 24" fill="none" xmlns="http://www.w3.org/2000/svg">
<path fill-rule="evenodd" clip-rule="evenodd" d="M15.0701 10.87C15.0419 10.87 15.0148 10.8812 14.9948 10.9012C14.9748 10.9211 14.9636 10.9482 14.9636 10.9765V13.0229C14.9636 13.0511 14.9748 13.0782 14.9948 13.0982C15.0148 13.1182 15.0419 13.1294 15.0701 13.1294C15.0984 13.1294 15.1255 13.1182 15.1454 13.0982C15.1654 13.0782 15.1766 13.0511 15.1766 13.0229V10.9765C15.1766 10.9482 15.1654 10.9211 15.1454 10.9012C15.1255 10.8812 15.0984 10.87 15.0701 10.87ZM13.6984 9.60479C14.0622 9.241 14.5556 9.03662 15.0701 9.03662C15.5846 9.03662 16.078 9.241 16.4418 9.60479C16.8056 9.96859 17.01 10.462 17.01 10.9765V13.0229C17.01 13.5374 16.8056 14.0308 16.4418 14.3946C16.078 14.7584 15.5846 14.9627 15.0701 14.9627C14.5556 14.9627 14.0622 14.7584 13.6984 14.3946C13.3346 14.0308 13.1302 13.5374 13.1302 13.0229V10.9765C13.1302 10.462 13.3346 9.96859 13.6984 9.60479Z" fill="black"/>
<path d="M14.0612 17.1156L14.8286 17.1176V17.1156H14.0612ZM14.0612 6.88362H14.8286V6.88158L14.0612 6.88362ZM14.8225 19.1671L14.8286 17.1176L13.2938 17.1136L13.2877 19.163L14.8225 19.1671ZM15.0865 16.8598C15.2307 16.8598 15.3453 16.9764 15.3453 17.1156H16.8801C16.8801 16.1251 16.0749 15.325 15.0865 15.325V16.8598ZM15.0865 15.325C14.0981 15.325 13.2938 16.1251 13.2938 17.1156H14.8286C14.8286 16.9764 14.9422 16.8598 15.0865 16.8598V15.325ZM9.949 4.58143H13.5404V3.04663H9.949V4.58143ZM13.0319 19.4178H9.949V20.9526H13.0319V19.4178ZM9.949 19.4178C7.99367 19.4178 6.60314 19.4158 5.54925 19.2745C4.51582 19.1364 3.92134 18.8765 3.48648 18.4427L2.40292 19.5303C3.17031 20.2957 4.1444 20.6354 5.34563 20.7971C6.5264 20.9557 8.03664 20.9536 9.95002 20.9536L9.949 19.4178ZM9.949 3.04663C8.03562 3.04663 6.52538 3.04459 5.34461 3.20318C4.14338 3.36485 3.17031 3.70455 2.40292 4.4699L3.48751 5.55654C3.92134 5.1227 4.51684 4.86281 5.54925 4.72468C6.60314 4.58348 7.99367 4.58143 9.949 4.58143V3.04663ZM2.36915 10.8833C2.7641 11.1033 3.02707 11.5218 3.02707 11.9996H4.56186C4.56178 11.4988 4.42803 11.007 4.17441 10.5752C3.9208 10.1433 3.55651 9.78696 3.11915 9.54291L2.36915 10.8833ZM2.54616 8.95048C2.62597 7.05143 2.88484 6.15613 3.48751 5.55654L2.40292 4.4699C1.34902 5.52175 1.09322 6.96548 1.01137 8.88705L2.54616 8.95048ZM3.02707 11.9996C3.02707 12.4774 2.7641 12.8959 2.36915 13.1169L3.11813 14.4573C3.55583 14.2133 3.92042 13.8569 4.17423 13.4248C4.42804 12.9927 4.56186 12.5007 4.56186 11.9996H3.02707ZM1.01239 15.1122C1.09425 17.0317 1.35005 18.4785 2.40292 19.5293L3.48751 18.4427C2.88484 17.8431 2.62597 16.9468 2.54616 15.0477L1.01239 15.1122ZM20.974 11.9996C20.974 11.5218 21.2369 11.1033 21.6319 10.8833L20.8829 9.54291C20.4453 9.78682 20.0809 10.1431 19.8271 10.575C19.5732 11.0069 19.4393 11.4987 19.4392 11.9996H20.974ZM22.9886 8.88705C22.9068 6.96753 22.651 5.52072 21.5981 4.4699L20.5135 5.55654C21.1152 6.15613 21.375 7.05245 21.4549 8.95151L22.9886 8.88705ZM21.6319 13.1169C21.4326 13.0062 21.2665 12.8443 21.1508 12.6478C21.0352 12.4514 20.9741 12.2276 20.974 11.9996H19.4392C19.4392 13.0576 20.0234 13.9764 20.8829 14.4563L21.6319 13.1169ZM21.4549 15.0477C21.375 16.9468 21.1162 17.8431 20.5135 18.4427L21.5981 19.5293C22.652 18.4785 22.9078 17.0327 22.9886 15.1122L21.4549 15.0477ZM20.8829 14.4563C21.1735 14.619 21.3638 14.7254 21.4917 14.8062C21.5551 14.8461 21.5838 14.8676 21.592 14.8738C21.6063 14.8861 21.5541 14.8492 21.505 14.7612L22.8454 14.0112C22.7746 13.8884 22.6812 13.7801 22.5701 13.692C22.4876 13.625 22.4008 13.5635 22.3103 13.5078C22.1394 13.3993 21.9051 13.2694 21.6319 13.1159L20.8829 14.4563ZM22.9886 15.1122C22.9958 14.9372 23.004 14.7561 22.9978 14.6047C22.9936 14.3976 22.941 14.1944 22.8444 14.0112L21.505 14.7602C21.4538 14.6681 21.461 14.6047 21.4641 14.6722C21.4654 14.6995 21.4654 14.7452 21.4641 14.8093L21.4549 15.0477L22.9886 15.1122ZM21.6319 10.8833C21.9051 10.7298 22.1394 10.5999 22.3103 10.4914C22.4 10.4346 22.4868 10.3731 22.5701 10.3072C22.6808 10.219 22.7738 10.1107 22.8444 9.98801L21.505 9.23903C21.5541 9.15001 21.6063 9.11317 21.5909 9.12545C21.5592 9.14988 21.5261 9.17243 21.4917 9.19298C21.3638 9.27484 21.1745 9.38023 20.8829 9.54291L21.6319 10.8833ZM21.4549 8.95151L21.4641 9.18889C21.4654 9.25301 21.4654 9.29871 21.4641 9.326C21.461 9.39353 21.4538 9.33009 21.505 9.238L22.8454 9.98698C22.9417 9.80372 22.9939 9.60051 22.9978 9.39353C23.0014 9.22429 22.998 9.05498 22.9876 8.88602L21.4549 8.95151ZM2.36915 13.1159C2.09596 13.2694 1.86164 13.3983 1.69077 13.5068C1.60025 13.5625 1.51343 13.624 1.43088 13.691C1.32021 13.7792 1.22718 13.8885 1.15666 14.0112L2.49603 14.7592C2.44691 14.8482 2.39473 14.885 2.40906 14.8728C2.41826 14.8656 2.44589 14.8451 2.50933 14.8052C2.63723 14.7234 2.82652 14.618 3.11813 14.4553L2.36915 13.1159ZM2.54616 15.0467L2.53696 14.8083C2.53542 14.7626 2.53542 14.7169 2.53696 14.6712C2.54002 14.6037 2.54719 14.6671 2.49603 14.7592L1.15564 14.0102C1.05933 14.1935 1.00713 14.3967 1.00318 14.6037C0.997043 14.7551 1.00523 14.9362 1.01341 15.1112L2.54616 15.0467ZM3.11813 9.54189C2.82754 9.3792 2.63723 9.27279 2.50933 9.19196C2.4746 9.17144 2.44112 9.14889 2.40906 9.12443C2.39473 9.11215 2.44691 9.14898 2.49603 9.23698L1.15564 9.98698C1.24159 10.1384 1.35516 10.2428 1.43088 10.3062C1.51273 10.3738 1.6038 10.4351 1.69077 10.4904C1.86164 10.5989 2.09596 10.7288 2.36915 10.8823L3.11813 9.54189ZM1.01137 8.88705C1.0042 9.06201 0.996019 9.24312 1.00216 9.39455C1.00932 9.54803 1.03285 9.77007 1.15564 9.98801L2.49603 9.23903C2.54719 9.33111 2.539 9.39455 2.53593 9.32702C2.5344 9.28133 2.5344 9.2356 2.53593 9.18991L2.54514 8.95151L1.01137 8.88705ZM14.8276 6.88158L14.8194 4.32154L13.2856 4.32665L13.2928 6.88567L14.8276 6.88158ZM15.0855 7.13942C15.0517 7.13969 15.0182 7.13328 14.9869 7.12054C14.9557 7.10781 14.9272 7.08901 14.9033 7.06523C14.8793 7.04145 14.8603 7.01316 14.8473 6.98199C14.8343 6.95082 14.8276 6.91739 14.8276 6.88362H13.2928C13.2928 7.87408 14.097 8.67422 15.0855 8.67422V7.13942ZM15.3464 6.88362C15.3464 7.02278 15.2318 7.13942 15.0875 7.13942V8.67422C16.0759 8.67422 16.8812 7.87408 16.8812 6.88362H15.3464ZM15.3464 4.342V6.88362H16.8812V4.342H15.3464ZM16.6151 4.60087C18.8539 4.65817 19.8576 4.89964 20.5156 5.55654L21.6002 4.4699C20.4613 3.33415 18.8508 3.12337 16.654 3.06607L16.6151 4.60087ZM16.8812 4.342C16.8812 4.48525 16.7625 4.60394 16.6151 4.60087L16.654 3.06607C16.4838 3.06184 16.3145 3.09172 16.156 3.15394C15.9975 3.21616 15.8531 3.30948 15.7312 3.42838C15.6094 3.54729 15.5125 3.68938 15.4464 3.84628C15.3803 4.00319 15.3463 4.17174 15.3464 4.342H16.8812ZM13.5404 4.58143C13.4728 4.58116 13.409 4.55409 13.3612 4.50615C13.3135 4.4582 13.2867 4.39329 13.2867 4.32563L14.8215 4.32154C14.8204 3.98303 14.6852 3.65877 14.4454 3.41979C14.2057 3.18082 13.881 3.04663 13.5425 3.04663L13.5404 4.58143ZM17.183 20.9158C19.1015 20.8339 20.5483 20.5781 21.5991 19.5293L20.5135 18.4427C19.9139 19.0423 19.0166 19.3022 17.1196 19.382L17.183 20.9158ZM15.3464 17.1156V19.1385H16.8812V17.1156H15.3464ZM13.2887 19.162C13.2887 19.2858 13.2887 19.381 13.2856 19.4618C13.2836 19.5436 13.2795 19.5907 13.2754 19.6204C13.2713 19.6501 13.2703 19.6398 13.2816 19.6102C13.3014 19.5665 13.3288 19.5267 13.3624 19.4925L14.446 20.5791C14.6432 20.3753 14.7664 20.1112 14.7959 19.8291C14.8235 19.6276 14.8215 19.3861 14.8225 19.1671L13.2887 19.162ZM13.0319 20.9526C13.2509 20.9526 13.4934 20.9546 13.6949 20.927C13.919 20.8963 14.2045 20.8196 14.446 20.5791L13.3614 19.4925C13.3962 19.459 13.4368 19.432 13.4811 19.4127C13.5097 19.4004 13.52 19.4024 13.4913 19.4055C13.4383 19.411 13.385 19.4144 13.3317 19.4157C13.2498 19.4178 13.1547 19.4178 13.0319 19.4178V20.9526ZM17.1196 19.382C16.9968 19.3871 16.9016 19.3912 16.8208 19.3922C16.74 19.3932 16.6929 19.3922 16.6653 19.3891C16.6376 19.3861 16.6499 19.384 16.6806 19.3963C16.7185 19.4106 16.7625 19.4372 16.8024 19.4741L15.7403 20.5822C15.99 20.8216 16.2816 20.8932 16.5149 20.9158C16.7215 20.9362 16.964 20.925 17.183 20.9158L17.1196 19.382ZM15.3464 19.1385C15.3464 19.3615 15.3443 19.6091 15.373 19.8168C15.4047 20.0481 15.4876 20.3397 15.7403 20.5822L16.8024 19.4741C16.8433 19.513 16.8699 19.557 16.8863 19.5938C16.8986 19.6245 16.8965 19.6347 16.8934 19.6061C16.8879 19.552 16.8845 19.4977 16.8832 19.4434C16.8812 19.3615 16.8812 19.2643 16.8812 19.1385H15.3464Z" fill="black"/>
</svg>
