<svg width="24" height="24" viewBox="0 0 24 24" fill="none" xmlns="http://www.w3.org/2000/svg">
<path fill-rule="evenodd" clip-rule="evenodd" d="M2.09827 18.5403C2.09827 18.5403 3.66364 17.8042 4.74183 17.2962C5.17725 17.0992 5.68531 17.0993 6.11037 17.3066C6.56652 17.5243 7.10552 17.7835 7.57205 18.0116C8.48436 18.447 9.5522 18.4262 10.4438 17.939C10.7444 17.7731 11.0658 17.5969 11.3665 17.431C11.8019 17.2029 12.3306 17.1822 12.7764 17.3792L14.3107 18.0634C15.2127 18.4677 16.2495 18.4262 17.1203 17.9494L18.0015 17.4518C18.4473 17.2133 18.976 17.1925 19.4425 17.4102L21.8996 18.5403C22.2935 18.7269 22.7497 18.5507 22.9363 18.1671C23.1125 17.7731 22.9467 17.3066 22.5527 17.1304C22.5527 17.1304 21.1324 16.4772 20.0957 15.9899C19.1834 15.5753 18.1259 15.6168 17.2551 16.0937C16.9648 16.2595 16.6538 16.4254 16.3635 16.5809C15.9281 16.8297 15.3994 16.8504 14.9432 16.6431L13.4088 15.9589C12.5172 15.5649 11.4909 15.6064 10.6304 16.0729C10.3298 16.2284 9.99802 16.4046 9.69737 16.5705C9.25158 16.8193 8.7021 16.8297 8.24594 16.612L6.79451 15.9071C5.93403 15.4924 4.94917 15.4923 4.08869 15.8863C3.00013 16.3943 1.43476 17.1304 1.43476 17.1304C1.05117 17.317 0.88531 17.7731 1.06155 18.1671C1.24816 18.5507 1.70432 18.7269 2.09827 18.5403Z" fill="black"/>
<path fill-rule="evenodd" clip-rule="evenodd" d="M2.09827 23.1392C2.09827 23.1392 3.66364 22.4031 4.74183 21.8951C5.17725 21.6981 5.68531 21.6981 6.11037 21.9055C6.56652 22.1232 7.10552 22.3824 7.57205 22.6104C8.48436 23.0459 9.5522 23.0251 10.4438 22.5379C10.7444 22.372 11.0658 22.1957 11.3665 22.0299C11.8019 21.8018 12.3306 21.7811 12.7764 21.9781L14.3107 22.6623C15.2127 23.0666 16.2495 23.0251 17.1203 22.5482L18.0015 22.0506C18.4473 21.8122 18.976 21.7914 19.4425 22.0091L21.8996 23.1392C22.2935 23.3258 22.7497 23.1496 22.9363 22.766C23.1125 22.372 22.9467 21.9055 22.5527 21.7292C22.5527 21.7292 21.1324 21.0761 20.0957 20.5888C19.1834 20.1741 18.1259 20.2156 17.2551 20.6925C16.9648 20.8584 16.6538 21.0242 16.3635 21.1798C15.9281 21.4286 15.3994 21.4493 14.9432 21.242L13.4088 20.5578C12.5172 20.1638 11.4909 20.2053 10.6304 20.6718C10.3298 20.8273 9.99802 21.0035 9.69737 21.1694C9.25158 21.4182 8.7021 21.4286 8.24594 21.2109L6.79451 20.5059C5.93403 20.0912 4.94917 20.0912 4.08869 20.4852C3.00013 20.9932 1.43476 21.7292 1.43476 21.7292C1.05117 21.9159 0.88531 22.372 1.06155 22.766C1.24816 23.1496 1.70432 23.3258 2.09827 23.1392Z" fill="black"/>
<path fill-rule="evenodd" clip-rule="evenodd" d="M7.86177 16.5067L5.6127 12.4963C5.6127 12.4859 5.6127 12.4652 5.6127 12.4549C5.62306 12.4445 5.63333 12.4445 5.6437 12.4445H18.157C18.1673 12.4445 18.1777 12.4445 18.1881 12.4549C18.1985 12.4652 18.1985 12.4859 18.1881 12.4963L15.7103 17.0786C15.503 17.4622 15.648 17.9287 16.0213 18.1361C16.4049 18.333 16.8714 18.1983 17.0787 17.8147C17.0787 17.8147 18.6442 14.9326 19.5565 13.2324C19.8261 12.7348 19.8053 12.1438 19.5254 11.6566C19.2351 11.1797 18.7168 10.8894 18.157 10.8894H5.6437C5.08387 10.8894 4.5552 11.1901 4.27529 11.6773C3.98501 12.1646 3.985 12.7658 4.26491 13.2531L6.50373 17.2635C6.72144 17.6367 7.18786 17.7715 7.56108 17.5641C7.94466 17.3464 8.06911 16.8799 7.86177 16.5067Z" fill="black"/>
<path fill-rule="evenodd" clip-rule="evenodd" d="M8.60878 12.1852L11.9989 8.43231L15.3993 12.1852C15.6896 12.5066 16.1769 12.5273 16.4983 12.237C16.8197 11.9468 16.8404 11.4595 16.5501 11.1381L12.5691 6.74245C12.424 6.58695 12.2166 6.49365 11.9989 6.49365C11.7812 6.49365 11.5635 6.58696 11.4184 6.75283L7.44766 11.1381C7.16774 11.4595 7.18854 11.9468 7.50992 12.237C7.8313 12.5273 8.3185 12.5066 8.60878 12.1852Z" fill="black"/>
<path fill-rule="evenodd" clip-rule="evenodd" d="M17.0477 2.93866C16.8922 2.90756 16.747 2.89715 16.5811 2.89715C15.3992 2.89715 14.4352 3.85094 14.4352 5.04316C14.4352 6.22502 15.3992 7.18918 16.5811 7.18918H19.9194C21.6196 7.18918 23.0088 5.79999 23.0088 4.0894C23.0088 2.37882 21.6196 1 19.9194 1C18.6132 1 17.5039 1.80864 17.0477 2.93866ZM16.5811 5.6341C16.2597 5.6341 15.9902 5.36455 15.9902 5.04316C15.9902 4.71141 16.2597 4.45223 16.5811 4.45223C16.6329 4.45223 16.6848 4.45224 16.7366 4.4626C16.7677 4.47297 16.7989 4.48336 16.83 4.48336L17.5246 4.57663C17.7319 4.59736 17.9289 4.54555 18.0948 4.41078C18.2607 4.28637 18.3644 4.09977 18.3851 3.89242C18.4888 3.13562 19.1315 2.55508 19.9194 2.55508C20.7695 2.55508 21.4538 3.23929 21.4538 4.0894C21.4538 4.93951 20.7695 5.6341 19.9194 5.6341H16.5811Z" fill="black"/>
</svg>
