<svg width="24" height="24" viewBox="0 0 24 24" fill="none" xmlns="http://www.w3.org/2000/svg">
<path fill-rule="evenodd" clip-rule="evenodd" d="M6.71602 9.12988C6.71602 8.71567 7.05181 8.37988 7.46602 8.37988H10.674C11.0882 8.37988 11.424 8.71567 11.424 9.12988C11.424 9.5441 11.0882 9.87988 10.674 9.87988H9.82003V15.2045C9.82003 15.6187 9.48424 15.9545 9.07003 15.9545C8.65581 15.9545 8.32003 15.6187 8.32003 15.2045V9.87988H7.46602C7.05181 9.87988 6.71602 9.5441 6.71602 9.12988ZM19.5394 9.89461V12.1044C19.8441 12.0931 20.1416 12.0595 20.407 11.9662C20.6247 11.8897 20.7711 11.7867 20.8673 11.6572C20.9609 11.5312 21.0567 11.3137 21.0567 10.9158C21.0567 10.6582 20.9839 10.5009 20.8941 10.3902C20.7952 10.2682 20.6362 10.1562 20.4053 10.0671C20.1418 9.96546 19.8344 9.91295 19.5394 9.89461ZM19.5394 13.6061C19.9568 13.5914 20.4524 13.5402 20.9044 13.3813C21.3218 13.2346 21.7509 12.9831 22.0714 12.5518C22.3945 12.1169 22.5567 11.5671 22.5567 10.9158C22.5567 10.3342 22.378 9.83848 22.0592 9.44538C21.7495 9.06355 21.3428 8.82098 20.9451 8.66759C20.1655 8.36684 19.2789 8.35325 18.7038 8.41936L18.0394 8.49572V15.2045C18.0394 15.6187 18.3752 15.9545 18.7894 15.9545C19.2036 15.9545 19.5394 15.6187 19.5394 15.2045V13.6061ZM12.5357 9.33099C12.8917 8.8252 13.4829 8.41445 14.3329 8.41445C15.1736 8.41445 15.7622 8.80817 16.1167 9.31097C16.4461 9.77802 16.5614 10.3148 16.5738 10.6825L16.5742 10.6951V13.6535L16.5714 13.686C16.5393 14.0548 16.4005 14.5912 16.065 15.0566C15.7085 15.5511 15.1223 15.9663 14.2809 15.9663C13.4431 15.9663 12.8619 15.5597 12.5146 15.058C12.1911 14.5908 12.0739 14.0549 12.0577 13.689L12.0569 13.6723V10.7394L12.058 10.7191C12.0782 10.347 12.203 9.80356 12.5357 9.33099ZM13.5569 10.7834V13.6362C13.5665 13.791 13.6248 14.0264 13.7478 14.2041C13.8507 14.3527 13.9949 14.4663 14.2809 14.4663C14.5632 14.4663 14.7254 14.3498 14.8482 14.1795C14.984 13.991 15.0549 13.7472 15.0742 13.5835V10.7227C15.0671 10.5754 15.0121 10.3473 14.8909 10.1754C14.792 10.0352 14.6436 9.91445 14.3329 9.91445C14.0315 9.91445 13.8741 10.0355 13.7623 10.1944C13.6317 10.3799 13.5689 10.6231 13.5569 10.7834ZM2.16377 9.03219C2.615 8.63443 3.23353 8.46862 3.93257 8.46862C5.26821 8.46862 5.96678 9.38131 6.15878 9.92528C6.29666 10.3159 6.09178 10.7443 5.70119 10.8822C5.31059 11.02 4.88219 10.8151 4.74431 10.4246C4.71129 10.331 4.48722 9.96862 3.93257 9.96862C3.45018 9.96862 3.23889 10.0841 3.15566 10.1574C3.08622 10.2186 3.02294 10.3226 3.02294 10.5406C3.02294 10.7925 3.07937 10.9222 3.16864 11.0203C3.277 11.1393 3.52164 11.3065 4.08254 11.4436C4.80311 11.6197 5.39563 11.9217 5.77623 12.4011C6.17515 12.9035 6.25681 13.4928 6.15826 14.0472C6.06282 14.584 5.82186 15.0735 5.38037 15.4336C4.9491 15.7853 4.39983 15.9535 3.79393 15.999C2.54079 16.093 1.85233 15.3665 1.63039 15.0495C1.39286 14.7101 1.47538 14.2425 1.81472 14.0049C2.15406 13.7674 2.6217 13.8499 2.85924 14.1893C2.89984 14.2473 3.13901 14.5439 3.68167 14.5032C4.0902 14.4726 4.31145 14.3697 4.43235 14.2711C4.54302 14.1809 4.63586 14.0408 4.68141 13.7846C4.72158 13.5587 4.67846 13.4307 4.60146 13.3338C4.50615 13.2137 4.27161 13.0339 3.72636 12.9007C3.02143 12.7284 2.45032 12.4595 2.05938 12.03C1.64935 11.5795 1.52294 11.0482 1.52294 10.5406C1.52294 9.99916 1.69875 9.4421 2.16377 9.03219Z" fill="black"/>
<path fill-rule="evenodd" clip-rule="evenodd" d="M5.57518 2.88719C5.71765 2.71436 5.92991 2.61426 6.15389 2.61426H17.1575C17.3462 2.61426 17.5279 2.68537 17.6665 2.81342L20.9971 5.89096C21.3013 6.17207 21.32 6.64658 21.0389 6.9508C20.7578 7.25502 20.2833 7.27376 19.9791 6.99265L16.864 4.11426H6.50761L4.16088 6.96096C3.89741 7.28057 3.42472 7.32607 3.10511 7.0626C2.78549 6.79912 2.73999 6.32643 3.00346 6.00682L5.57518 2.88719Z" fill="black"/>
<path fill-rule="evenodd" clip-rule="evenodd" d="M18.4951 21.5481C18.3526 21.7209 18.1403 21.821 17.9164 21.821L6.91276 21.821C6.72408 21.821 6.54234 21.7499 6.40377 21.6219L3.07318 18.5443C2.76895 18.2632 2.75022 17.7887 3.03132 17.4845C3.31243 17.1803 3.78694 17.1615 4.09116 17.4427L7.20622 20.321L17.5626 20.321L19.9094 17.4743C20.1728 17.1547 20.6455 17.1092 20.9651 17.3727C21.2848 17.6362 21.3303 18.1089 21.0668 18.4285L18.4951 21.5481Z" fill="black"/>
</svg>
