<svg width="24" height="24" viewBox="0 0 24 24" fill="none" xmlns="http://www.w3.org/2000/svg">
<path fill-rule="evenodd" clip-rule="evenodd" d="M1.78385 17.7164H9.22521C9.66417 17.7164 10.0091 17.3715 10.0091 16.9325V7.08732C10.0091 6.64836 9.66417 6.30347 9.22521 6.30347C9.22521 6.30347 6.08982 6.30347 3.88458 6.30347C3.12163 6.30347 2.38996 6.60661 1.84649 7.13963C1.30302 7.6831 1 8.41464 1 9.17759V16.9325C1 17.3715 1.35535 17.7164 1.78385 17.7164ZM4.38623 16.1487H2.5677V9.17759C2.5677 8.83269 2.70357 8.4983 2.9544 8.24747C3.20523 8.00709 3.53969 7.87117 3.88458 7.87117H8.44136V16.1487H4.38623Z" fill="black"/>
<path fill-rule="evenodd" clip-rule="evenodd" d="M8.44135 16.9326C8.44135 17.3716 8.79669 17.7165 9.2252 17.7165C9.2252 17.7165 17.6176 17.7165 20.9097 17.7165C21.4637 17.7165 21.9967 17.497 22.3834 17.1103C22.7806 16.7131 23 16.1801 23 15.6262C23 13.2433 23 8.17435 23 5.79144C23 5.23752 22.7806 4.70453 22.3834 4.31783C21.9967 3.92068 21.4637 3.70117 20.9097 3.70117C18.4223 3.70117 13.019 3.70117 10.5316 3.70117C9.97769 3.70117 9.44464 3.92068 9.05794 4.31783C8.66079 4.70453 8.44135 5.23752 8.44135 5.79144C8.44135 8.97911 8.44135 16.9326 8.44135 16.9326ZM10.009 16.1488V5.79144C10.009 5.65558 10.0613 5.51972 10.1658 5.41521C10.2599 5.32115 10.3957 5.26888 10.5316 5.26888H20.9097C21.0456 5.26888 21.1816 5.32115 21.2756 5.41521C21.3697 5.51972 21.4323 5.65558 21.4323 5.79144V15.6262C21.4323 15.7725 21.3697 15.8979 21.2756 16.0024C21.1816 16.0965 21.0456 16.1488 20.9097 16.1488H10.009Z" fill="black"/>
<path fill-rule="evenodd" clip-rule="evenodd" d="M22.2162 11.8219H9.2252C8.79669 11.8219 8.44135 12.1668 8.44135 12.6058C8.44135 13.0343 8.79669 13.3896 9.2252 13.3896H22.2162C22.6447 13.3896 23 13.0343 23 12.6058C23 12.1668 22.6447 11.8219 22.2162 11.8219Z" fill="black"/>
<path fill-rule="evenodd" clip-rule="evenodd" d="M1.78385 12.0309H6.60191C7.03042 12.0309 7.38576 11.6755 7.38576 11.247V7.08732C7.38576 6.64836 7.03042 6.30347 6.60191 6.30347C6.17341 6.30347 5.81806 6.64836 5.81806 7.08732V10.4631H1.78385C1.35535 10.4631 1 10.808 1 11.247C1 11.6755 1.35535 12.0309 1.78385 12.0309Z" fill="black"/>
<path fill-rule="evenodd" clip-rule="evenodd" d="M1.78385 14.8214H3.28879C3.71729 14.8214 4.07264 14.466 4.07264 14.0375C4.07264 13.609 3.71729 13.2537 3.28879 13.2537H1.78385C1.35535 13.2537 1 13.609 1 14.0375C1 14.466 1.35535 14.8214 1.78385 14.8214Z" fill="black"/>
<path fill-rule="evenodd" clip-rule="evenodd" d="M5.87036 14.7379C4.65801 14.7379 3.67548 15.7204 3.67548 16.9327C3.67548 18.1451 4.65801 19.1275 5.87036 19.1275C7.08272 19.1275 8.06512 18.1451 8.06512 16.9327C8.06512 15.7204 7.08272 14.7379 5.87036 14.7379ZM5.87036 16.3056C6.21526 16.3056 6.49742 16.5878 6.49742 16.9327C6.49742 17.2776 6.21526 17.5598 5.87036 17.5598C5.52547 17.5598 5.24318 17.2776 5.24318 16.9327C5.24318 16.5878 5.52547 16.3056 5.87036 16.3056Z" fill="black"/>
<path fill-rule="evenodd" clip-rule="evenodd" d="M16.907 14.7379C15.6947 14.7379 14.7122 15.7204 14.7122 16.9327C14.7122 18.1451 15.6947 19.1275 16.907 19.1275C18.1194 19.1275 19.1018 18.1451 19.1018 16.9327C19.1018 15.7204 18.1194 14.7379 16.907 14.7379ZM16.907 16.3056C17.2519 16.3056 17.5341 16.5878 17.5341 16.9327C17.5341 17.2776 17.2519 17.5598 16.907 17.5598C16.5622 17.5598 16.2799 17.2776 16.2799 16.9327C16.2799 16.5878 16.5622 16.3056 16.907 16.3056Z" fill="black"/>
</svg>
