<svg width="24" height="24" viewBox="0 0 24 24" fill="none" xmlns="http://www.w3.org/2000/svg">
<g clip-path="url(#clip0_221_17158)">
<path fill-rule="evenodd" clip-rule="evenodd" d="M11.238 2.79885C10.624 2.87985 9.866 3.05385 8.788 3.30285L7.559 3.58685C6.649 3.79685 6.021 3.94285 5.542 4.10685C5.079 4.26585 4.817 4.42185 4.62 4.61985C4.422 4.81685 4.266 5.07885 4.107 5.54185C3.943 6.02085 3.797 6.64785 3.587 7.55885L3.303 8.78685C3.054 9.86585 2.88 10.6239 2.799 11.2379C2.719 11.8359 2.738 12.2409 2.844 12.6089C2.949 12.9769 3.148 13.3299 3.532 13.7949C3.927 14.2729 4.476 14.8239 5.259 15.6069L7.089 17.4369C8.448 18.7959 9.415 19.7609 10.247 20.3949C11.061 21.0169 11.657 21.2499 12.262 21.2499C12.867 21.2499 13.463 21.0169 14.278 20.3949C15.109 19.7609 16.077 18.7949 17.436 17.4359C18.796 16.0759 19.761 15.1089 20.396 14.2779C21.016 13.4629 21.25 12.8679 21.25 12.2619C21.25 11.6569 21.017 11.0619 20.395 10.2469C19.761 9.41485 18.795 8.44685 17.436 7.08785L15.606 5.25785C14.824 4.47585 14.273 3.92685 13.796 3.53185C13.33 3.14785 12.977 2.94885 12.609 2.84385C12.241 2.73785 11.836 2.71985 11.239 2.79885M11.043 1.31185C11.76 1.21685 12.389 1.21985 13.023 1.40185C13.658 1.58385 14.193 1.91485 14.751 2.37485C15.291 2.82085 15.891 3.42085 16.642 4.17185L18.538 6.06785C19.848 7.37785 20.886 8.41585 21.588 9.33785C22.312 10.2849 22.751 11.1969 22.751 12.2619C22.751 13.3279 22.312 14.2399 21.589 15.1869C20.886 16.1089 19.849 17.1469 18.538 18.4569L18.458 18.5369C17.148 19.8469 16.11 20.8849 15.188 21.5869C14.241 22.3109 13.328 22.7499 12.263 22.7499C11.198 22.7499 10.286 22.3109 9.338 21.5879C8.417 20.8849 7.379 19.8479 6.068 18.5369L4.173 16.6399C3.423 15.8899 2.822 15.2889 2.376 14.7499C1.916 14.1909 1.585 13.6559 1.403 13.0219C1.221 12.3869 1.218 11.7579 1.313 11.0409C1.404 10.3469 1.596 9.51885 1.834 8.48485L2.134 7.18185C2.334 6.31885 2.496 5.61485 2.689 5.05385C2.891 4.46685 3.144 3.97385 3.56 3.55785C3.976 3.14185 4.47 2.88785 5.056 2.68785C5.617 2.49385 6.321 2.33185 7.184 2.13285L8.487 1.83285C9.521 1.59285 10.349 1.40285 11.043 1.31085M9.49 7.99485C9.25554 7.7604 8.93756 7.62869 8.606 7.62869C8.27443 7.62869 7.95645 7.7604 7.722 7.99485C7.48755 8.2293 7.35583 8.54729 7.35583 8.87885C7.35583 9.21042 7.48755 9.5284 7.722 9.76285C7.83808 9.87894 7.9759 9.97103 8.12758 10.0339C8.27926 10.0967 8.44182 10.129 8.606 10.129C8.77017 10.129 8.93274 10.0967 9.08441 10.0339C9.23609 9.97103 9.37391 9.87894 9.49 9.76285C9.60608 9.64676 9.69817 9.50895 9.761 9.35727C9.82382 9.20559 9.85616 9.04303 9.85616 8.87885C9.85616 8.71468 9.82382 8.55211 9.761 8.40043C9.69817 8.24876 9.60608 8.11094 9.49 7.99485ZM6.662 6.93485C6.91673 6.67668 7.22002 6.47145 7.55439 6.33098C7.88877 6.1905 8.24763 6.11755 8.61031 6.11634C8.973 6.11512 9.33234 6.18566 9.66765 6.3239C10.003 6.46213 10.3076 6.66532 10.5641 6.92178C10.8205 7.17824 11.0237 7.48289 11.162 7.8182C11.3002 8.15351 11.3707 8.51285 11.3695 8.87554C11.3683 9.23822 11.2953 9.59708 11.1549 9.93146C11.0144 10.2658 10.8092 10.5691 10.551 10.8239C10.0351 11.3397 9.33551 11.6295 8.606 11.6295C7.87648 11.6295 7.17684 11.3397 6.661 10.8239C6.14515 10.308 5.85535 9.60837 5.85535 8.87885C5.85535 8.14934 6.14515 7.4497 6.661 6.93385M19.05 10.9899C19.1904 11.1305 19.2693 11.3211 19.2693 11.5199C19.2693 11.7186 19.1904 11.9092 19.05 12.0499L12.071 19.0299C11.9288 19.1623 11.7408 19.2345 11.5465 19.231C11.3522 19.2276 11.1668 19.1489 11.0294 19.0115C10.892 18.8741 10.8132 18.6887 10.8098 18.4944C10.8064 18.3001 10.8785 18.112 11.011 17.9699L17.989 10.9899C18.0586 10.9202 18.1413 10.8649 18.2324 10.8271C18.3234 10.7894 18.421 10.77 18.5195 10.77C18.618 10.77 18.7156 10.7894 18.8066 10.8271C18.8976 10.8649 18.9803 10.9202 19.05 10.9899Z" fill="black"/>
</g>
<defs>
<clipPath id="clip0_221_17158">
<rect width="24" height="24" fill="white"/>
</clipPath>
</defs>
</svg>
