<svg width="24" height="24" viewBox="0 0 24 24" fill="none" xmlns="http://www.w3.org/2000/svg">
<path fill-rule="evenodd" clip-rule="evenodd" d="M3.545 11.647C3.41369 11.365 3.45774 11.0325 3.65794 10.7944L11.3183 1.68501C11.4675 1.5076 11.6863 1.40362 11.9181 1.4C12.1498 1.39637 12.3718 1.49345 12.5265 1.6661L20.6617 10.7473C20.8722 10.9824 20.9249 11.3193 20.7962 11.6074C20.6675 11.8956 20.3814 12.0811 20.0658 12.0811L17.264 12.0811L17.2637 21.8094C17.2637 22.2512 16.9055 22.6094 16.4637 22.6094L7.73857 22.6094C7.5264 22.6094 7.32292 22.5251 7.17289 22.3751C7.02286 22.225 6.93857 22.0215 6.93857 21.8094L6.93857 12.1093L4.27023 12.1093C3.95916 12.1093 3.67631 11.929 3.545 11.647ZM5.98823 10.5093L7.73857 10.5093C8.1804 10.5093 8.53857 10.8675 8.53857 11.3093L8.53857 21.0094L15.6637 21.0094L15.6641 11.2811C15.6641 10.8393 16.0222 10.4811 16.4641 10.4811L18.2751 10.4811L11.9497 3.42017L5.98823 10.5093Z" fill="black"/>
</svg>
