<svg width="24" height="24" viewBox="0 0 24 24" fill="none" xmlns="http://www.w3.org/2000/svg">
<path fill-rule="evenodd" clip-rule="evenodd" d="M11.6471 20.455C11.3651 20.5863 11.0326 20.5423 10.7945 20.3421L1.68507 12.6817C1.50766 12.5325 1.40368 12.3137 1.40006 12.0819C1.39643 11.8502 1.49351 11.6282 1.66616 11.4735L10.7474 3.33833C10.9824 3.12776 11.3193 3.07505 11.6075 3.20378C11.8956 3.33251 12.0812 3.61861 12.0812 3.9342L12.0812 6.73597L21.8095 6.73628C22.2513 6.73629 22.6094 7.09446 22.6094 7.53628L22.6094 16.2614C22.6094 16.4736 22.5252 16.6771 22.3751 16.8271C22.2251 16.9771 22.0216 17.0614 21.8094 17.0614L12.1094 17.0614L12.1094 19.7298C12.1094 20.0408 11.9291 20.3237 11.6471 20.455ZM10.5094 18.0118L10.5094 16.2614C10.5094 15.8196 10.8675 15.4614 11.3094 15.4614L21.0094 15.4614L21.0094 8.33625L11.2811 8.33594C10.8393 8.33593 10.4812 7.97776 10.4812 7.53594L10.4812 5.72493L3.42024 12.0503L10.5094 18.0118Z" fill="black"/>
</svg>
