<svg width="24" height="24" viewBox="0 0 24 24" fill="none" xmlns="http://www.w3.org/2000/svg">
<g clip-path="url(#clip0_221_16196)">
<path fill-rule="evenodd" clip-rule="evenodd" d="M5.47001 5.47007C5.61064 5.32962 5.80126 5.25073 6.00001 5.25073C6.19876 5.25073 6.38939 5.32962 6.53001 5.47007L17.25 16.1901V9.00007C17.25 8.80116 17.329 8.61039 17.4697 8.46974C17.6103 8.32909 17.8011 8.25007 18 8.25007C18.1989 8.25007 18.3897 8.32909 18.5303 8.46974C18.671 8.61039 18.75 8.80116 18.75 9.00007V18.0001C18.75 18.199 18.671 18.3898 18.5303 18.5304C18.3897 18.6711 18.1989 18.7501 18 18.7501H9.00001C8.8011 18.7501 8.61033 18.6711 8.46968 18.5304C8.32903 18.3898 8.25001 18.199 8.25001 18.0001C8.25001 17.8012 8.32903 17.6104 8.46968 17.4697C8.61033 17.3291 8.8011 17.2501 9.00001 17.2501H16.19L5.47001 6.53007C5.32956 6.38945 5.25067 6.19882 5.25067 6.00007C5.25067 5.80132 5.32956 5.6107 5.47001 5.47007Z" fill="black"/>
</g>
<defs>
<clipPath id="clip0_221_16196">
<rect width="24" height="24" fill="white"/>
</clipPath>
</defs>
</svg>
