<svg width="24" height="24" viewBox="0 0 24 24" fill="none" xmlns="http://www.w3.org/2000/svg">
<path fill-rule="evenodd" clip-rule="evenodd" d="M2.46906 6.82158V17.5066C1.76706 17.5946 1.2251 18.1946 1.2251 18.9196V21.4286C1.2251 22.2146 1.86207 22.8516 2.64807 22.8516H5.25007C5.98907 22.8516 6.59709 22.2876 6.66609 21.5666H17.2571C17.3261 22.2876 17.9341 22.8516 18.6741 22.8516H21.2761C22.0621 22.8516 22.6991 22.2146 22.6991 21.4286V18.9196C22.6991 18.1336 22.0621 17.4956 21.2761 17.4956H18.6741C17.8881 17.4956 17.2501 18.1336 17.2501 18.9196V20.0716H6.67311V18.9196C6.67311 18.1336 6.03607 17.4956 5.25007 17.4956H3.96308V6.83256H5.25007C6.03607 6.83256 6.67311 6.19556 6.67311 5.40955V2.90055C6.67311 2.11454 6.03607 1.47656 5.25007 1.47656H2.64807C1.86207 1.47656 1.2251 2.11454 1.2251 2.90055V5.40955C1.2251 6.13556 1.76706 6.73358 2.46906 6.82158ZM18.7441 18.9906V21.3576H21.2051V18.9906H18.7441ZM5.17909 20.8066V18.9906H2.71808V21.3576H5.17909V20.8316C5.17909 20.8276 5.17909 20.8236 5.17909 20.8186C5.17909 20.8146 5.17909 20.8106 5.17909 20.8066ZM17.1821 5.33555H14.6191C14.2071 5.33555 13.8721 5.67056 13.8721 6.08256C13.8721 6.49556 14.2071 6.82957 14.6191 6.82957H17.1821V9.39156C17.1821 9.80456 17.5161 10.1386 17.9291 10.1386C18.3411 10.1386 18.6761 9.80456 18.6761 9.39156V6.82957H21.2331C21.6461 6.82957 21.9801 6.49556 21.9801 6.08256C21.9801 5.67056 21.6461 5.33555 21.2331 5.33555H18.6761V2.77756C18.6761 2.36556 18.3411 2.03055 17.9291 2.03055C17.5161 2.03055 17.1821 2.36556 17.1821 2.77756V5.33555ZM3.28907 5.33955H5.17909V2.97156H2.71808V5.33955H3.14307C3.16707 5.33655 3.19107 5.33555 3.21607 5.33555C3.24107 5.33555 3.26507 5.33655 3.28907 5.33955Z" fill="black"/>
</svg>
