<svg width="24" height="24" viewBox="0 0 24 24" fill="none" xmlns="http://www.w3.org/2000/svg">
<g clip-path="url(#clip0_221_16166)">
<path fill-rule="evenodd" clip-rule="evenodd" d="M10.53 5.47007C10.6704 5.6107 10.7493 5.80132 10.7493 6.00007C10.7493 6.19882 10.6704 6.38945 10.53 6.53007L5.81 11.2501H20C20.1989 11.2501 20.3897 11.3291 20.5303 11.4697C20.671 11.6104 20.75 11.8012 20.75 12.0001C20.75 12.199 20.671 12.3898 20.5303 12.5304C20.3897 12.6711 20.1989 12.7501 20 12.7501H5.81L10.53 17.4701C10.6037 17.5387 10.6628 17.6215 10.7038 17.7135C10.7448 17.8055 10.7668 17.9048 10.7686 18.0056C10.7704 18.1063 10.7518 18.2063 10.7141 18.2997C10.6764 18.3931 10.6203 18.4779 10.549 18.5491C10.4778 18.6203 10.393 18.6765 10.2996 18.7142C10.2062 18.7519 10.1062 18.7704 10.0055 18.7687C9.90477 18.7669 9.80546 18.7448 9.71346 18.7039C9.62146 18.6629 9.53866 18.6038 9.47 18.5301L3.47 12.5301C3.32955 12.3894 3.25066 12.1988 3.25066 12.0001C3.25066 11.8013 3.32955 11.6107 3.47 11.4701L9.47 5.47007C9.61062 5.32962 9.80125 5.25073 10 5.25073C10.1987 5.25073 10.3894 5.32962 10.53 5.47007Z" fill="black"/>
</g>
<defs>
<clipPath id="clip0_221_16166">
<rect width="24" height="24" fill="white"/>
</clipPath>
</defs>
</svg>
