<svg width="24" height="24" viewBox="0 0 24 24" fill="none" xmlns="http://www.w3.org/2000/svg">
<path fill-rule="evenodd" clip-rule="evenodd" d="M12.3529 3.545C12.6349 3.41369 12.9674 3.45774 13.2055 3.65794L22.3149 11.3183C22.4923 11.4675 22.5963 11.6863 22.5999 11.9181C22.6036 12.1498 22.5065 12.3718 22.3338 12.5265L13.2526 20.6617C13.0176 20.8722 12.6807 20.9249 12.3925 20.7962C12.1044 20.6675 11.9188 20.3814 11.9188 20.0658L11.9188 17.264L2.19054 17.2637C1.74873 17.2637 1.39057 16.9055 1.39057 16.4637L1.39056 7.73857C1.39056 7.5264 1.47485 7.32292 1.62488 7.17289C1.77491 7.02286 1.97839 6.93857 2.19056 6.93857L11.8906 6.93857L11.8906 4.27023C11.8906 3.95917 12.0709 3.67631 12.3529 3.545ZM13.4906 5.98823L13.4906 7.73858C13.4906 8.1804 13.1325 8.53857 12.6906 8.53857L2.99056 8.53857L2.99057 15.6637L12.7188 15.6641C13.1607 15.6641 13.5188 16.0222 13.5188 16.4641L13.5188 18.2751L20.5798 11.9497L13.4906 5.98823Z" fill="black"/>
</svg>
