<svg width="24" height="24" viewBox="0 0 24 24" fill="none" xmlns="http://www.w3.org/2000/svg">
<g clip-path="url(#clip0_221_16181)">
<path fill-rule="evenodd" clip-rule="evenodd" d="M12 3.25C12.1989 3.25 12.3897 3.32902 12.5303 3.46967C12.671 3.61032 12.75 3.80109 12.75 4V18.19L17.47 13.47C17.5387 13.3963 17.6215 13.3372 17.7135 13.2962C17.8055 13.2552 17.9048 13.2332 18.0055 13.2314C18.1062 13.2296 18.2062 13.2482 18.2996 13.2859C18.393 13.3236 18.4778 13.3797 18.549 13.451C18.6203 13.5222 18.6764 13.607 18.7141 13.7004C18.7518 13.7938 18.7704 13.8938 18.7686 13.9945C18.7668 14.0952 18.7448 14.1945 18.7038 14.2865C18.6628 14.3785 18.6037 14.4613 18.53 14.53L12.53 20.53C12.3894 20.6705 12.1988 20.7493 12 20.7493C11.8013 20.7493 11.6106 20.6705 11.47 20.53L5.47 14.53C5.39631 14.4613 5.33721 14.3785 5.29622 14.2865C5.25523 14.1945 5.23319 14.0952 5.23141 13.9945C5.22963 13.8938 5.24816 13.7938 5.28588 13.7004C5.3236 13.607 5.37974 13.5222 5.45096 13.451C5.52218 13.3797 5.60702 13.3236 5.7004 13.2859C5.79379 13.2482 5.89382 13.2296 5.99452 13.2314C6.09523 13.2332 6.19454 13.2552 6.28654 13.2962C6.37854 13.3372 6.46134 13.3963 6.53 13.47L11.25 18.19V4C11.25 3.80109 11.329 3.61032 11.4697 3.46967C11.6103 3.32902 11.8011 3.25 12 3.25Z" fill="black"/>
</g>
<defs>
<clipPath id="clip0_221_16181">
<rect width="24" height="24" fill="white"/>
</clipPath>
</defs>
</svg>
