<svg width="24" height="24" viewBox="0 0 24 24" fill="none" xmlns="http://www.w3.org/2000/svg">
<path fill-rule="evenodd" clip-rule="evenodd" d="M7.468 4.25H7.532C7.972 4.25 8.352 4.25 8.662 4.278C8.992 4.308 9.318 4.374 9.625 4.551C9.967 4.749 10.251 5.033 10.449 5.375C10.626 5.682 10.692 6.008 10.722 6.337C10.75 6.649 10.75 7.028 10.75 7.467V11.25H13.25V9.468C13.25 9.028 13.25 8.648 13.278 8.338C13.308 8.008 13.374 7.682 13.551 7.375C13.7485 7.03274 14.0327 6.74854 14.375 6.551C14.682 6.374 15.008 6.308 15.337 6.278C15.649 6.25 16.028 6.25 16.467 6.25H16.532C16.972 6.25 17.352 6.25 17.662 6.278C17.992 6.308 18.318 6.374 18.625 6.551C18.967 6.749 19.251 7.033 19.449 7.375C19.626 7.682 19.692 8.008 19.722 8.337C19.75 8.649 19.75 9.028 19.75 9.467V11.25H22C22.1989 11.25 22.3897 11.329 22.5303 11.4697C22.671 11.6103 22.75 11.8011 22.75 12C22.75 12.1989 22.671 12.3897 22.5303 12.5303C22.3897 12.671 22.1989 12.75 22 12.75H19.75V14.532C19.75 14.972 19.75 15.352 19.722 15.662C19.692 15.992 19.626 16.318 19.449 16.625C19.2514 16.9672 18.9672 17.2514 18.625 17.449C18.318 17.626 17.992 17.692 17.663 17.722C17.351 17.75 16.972 17.75 16.533 17.75H16.468C16.028 17.75 15.648 17.75 15.338 17.722C15.008 17.692 14.682 17.626 14.375 17.449C14.0328 17.2514 13.7486 16.9672 13.551 16.625C13.374 16.318 13.308 15.992 13.278 15.663C13.25 15.351 13.25 14.972 13.25 14.533V12.75H10.75V16.532C10.75 16.972 10.75 17.352 10.722 17.662C10.692 17.992 10.626 18.318 10.449 18.625C10.2515 18.9673 9.96726 19.2515 9.625 19.449C9.318 19.626 8.992 19.692 8.663 19.722C8.351 19.75 7.972 19.75 7.533 19.75H7.468C7.028 19.75 6.648 19.75 6.338 19.722C6.008 19.692 5.682 19.626 5.375 19.449C5.03274 19.2515 4.74854 18.9673 4.551 18.625C4.374 18.318 4.308 17.992 4.278 17.663C4.25 17.351 4.25 16.972 4.25 16.533V12.75H2C1.80109 12.75 1.61032 12.671 1.46967 12.5303C1.32902 12.3897 1.25 12.1989 1.25 12C1.25 11.8011 1.32902 11.6103 1.46967 11.4697C1.61032 11.329 1.80109 11.25 2 11.25H4.25V7.468C4.25 7.028 4.25 6.648 4.278 6.338C4.308 6.008 4.374 5.682 4.551 5.375C4.74854 5.03274 5.03274 4.74854 5.375 4.551C5.682 4.374 6.008 4.308 6.337 4.278C6.649 4.25 7.029 4.25 7.468 4.25ZM5.75 12.001V7.5C5.75 7.019 5.75 6.708 5.772 6.473C5.792 6.248 5.827 6.166 5.85 6.125C5.91589 6.01075 6.01075 5.91589 6.125 5.85C6.165 5.827 6.248 5.792 6.473 5.772C6.708 5.751 7.019 5.75 7.5 5.75C7.981 5.75 8.292 5.75 8.527 5.772C8.752 5.792 8.834 5.827 8.875 5.85C8.98925 5.91589 9.08411 6.01075 9.15 6.125C9.173 6.165 9.208 6.248 9.228 6.473C9.249 6.708 9.25 7.019 9.25 7.5V16.5C9.25 16.981 9.25 17.292 9.228 17.527C9.208 17.752 9.173 17.834 9.15 17.875C9.08397 17.9889 8.98912 18.0834 8.875 18.149C8.835 18.173 8.752 18.207 8.527 18.228C8.292 18.249 7.981 18.25 7.5 18.25C7.019 18.25 6.708 18.25 6.473 18.228C6.248 18.208 6.166 18.173 6.125 18.149C6.01088 18.0834 5.91603 17.9889 5.85 17.875C5.827 17.835 5.792 17.752 5.772 17.527C5.75094 17.1851 5.7436 16.8425 5.75 16.5V12.001ZM14.75 14.5C14.75 14.981 14.75 15.292 14.772 15.527C14.792 15.752 14.827 15.834 14.851 15.875C14.9168 15.9888 15.0112 16.0832 15.125 16.149C15.165 16.173 15.248 16.207 15.473 16.228C15.708 16.249 16.019 16.25 16.5 16.25C16.981 16.25 17.292 16.25 17.527 16.228C17.752 16.208 17.834 16.173 17.875 16.149C17.9888 16.0832 18.0832 15.9888 18.149 15.875C18.173 15.835 18.207 15.752 18.228 15.527C18.249 15.292 18.25 14.981 18.25 14.5V9.5C18.25 9.019 18.25 8.708 18.228 8.473C18.208 8.248 18.173 8.166 18.149 8.125C18.0834 8.01088 17.9889 7.91603 17.875 7.85C17.835 7.827 17.752 7.792 17.527 7.772C17.1851 7.75094 16.8425 7.7436 16.5 7.75C16.019 7.75 15.708 7.75 15.473 7.772C15.248 7.792 15.166 7.827 15.125 7.85C15.0111 7.91603 14.9166 8.01088 14.851 8.125C14.827 8.165 14.792 8.248 14.772 8.473C14.751 8.708 14.75 9.019 14.75 9.5V14.5Z" fill="black"/>
</svg>
