<svg width="24" height="24" viewBox="0 0 24 24" fill="none" xmlns="http://www.w3.org/2000/svg">
<g clip-path="url(#clip0_221_17049)">
<path fill-rule="evenodd" clip-rule="evenodd" d="M7.468 2.25002H7.532C7.972 2.25002 8.352 2.25002 8.662 2.27802C8.992 2.30802 9.318 2.37402 9.625 2.55102C9.967 2.74902 10.251 3.03302 10.449 3.37502C10.626 3.68202 10.692 4.00802 10.722 4.33702C10.75 4.64902 10.75 5.02802 10.75 5.46702V14.532C10.75 14.972 10.75 15.352 10.722 15.662C10.692 15.992 10.626 16.318 10.449 16.625C10.2515 16.9673 9.96726 17.2515 9.625 17.449C9.318 17.626 8.992 17.692 8.663 17.722C8.351 17.75 7.972 17.75 7.533 17.75H7.468C7.028 17.75 6.648 17.75 6.338 17.722C6.008 17.692 5.682 17.626 5.375 17.449C5.03274 17.2515 4.74854 16.9673 4.551 16.625C4.374 16.318 4.308 15.992 4.278 15.663C4.25 15.351 4.25 14.972 4.25 14.533V5.46702C4.25 5.02702 4.25 4.64702 4.278 4.33702C4.308 4.00702 4.374 3.68102 4.551 3.37402C4.74854 3.03176 5.03274 2.74756 5.375 2.55002C5.682 2.37302 6.008 2.30702 6.337 2.27702C6.649 2.24902 7.028 2.24902 7.467 2.24902M6.472 3.77102C6.247 3.79102 6.165 3.82602 6.124 3.84902C6.00975 3.91492 5.91489 4.00977 5.849 4.12402C5.826 4.16402 5.791 4.24702 5.771 4.47202C5.75 4.70702 5.749 5.01802 5.749 5.49902V14.499C5.749 14.98 5.749 15.291 5.771 15.526C5.791 15.751 5.826 15.833 5.849 15.874C5.91503 15.9879 6.00988 16.0824 6.124 16.148C6.164 16.172 6.247 16.206 6.472 16.227C6.707 16.248 7.018 16.249 7.499 16.249C7.98 16.249 8.291 16.249 8.526 16.227C8.751 16.207 8.833 16.172 8.874 16.148C8.98812 16.0824 9.08297 15.9879 9.149 15.874C9.172 15.834 9.207 15.751 9.227 15.526C9.248 15.291 9.249 14.98 9.249 14.499V5.49902C9.249 5.01802 9.249 4.70702 9.227 4.47202C9.207 4.24702 9.172 4.16502 9.149 4.12402C9.08311 4.00977 8.98825 3.91492 8.874 3.84902C8.834 3.82602 8.751 3.79102 8.526 3.77102C8.18441 3.75052 7.84214 3.74352 7.5 3.75002C7.019 3.75002 6.708 3.75002 6.473 3.77202M16.468 5.25002H16.532C16.972 5.25002 17.352 5.25002 17.662 5.27802C17.992 5.30802 18.318 5.37402 18.625 5.55102C18.967 5.74902 19.251 6.03302 19.449 6.37502C19.626 6.68202 19.692 7.00802 19.722 7.33702C19.75 7.64902 19.75 8.02802 19.75 8.46702V14.532C19.75 14.972 19.75 15.352 19.722 15.662C19.692 15.992 19.626 16.318 19.449 16.625C19.2515 16.9673 18.9673 17.2515 18.625 17.449C18.318 17.626 17.992 17.692 17.663 17.722C17.351 17.75 16.972 17.75 16.533 17.75H16.468C16.028 17.75 15.648 17.75 15.338 17.722C15.008 17.692 14.682 17.626 14.375 17.449C14.0327 17.2515 13.7485 16.9673 13.551 16.625C13.374 16.318 13.308 15.992 13.278 15.663C13.25 15.351 13.25 14.972 13.25 14.533V8.46702C13.25 8.02702 13.25 7.64702 13.278 7.33702C13.308 7.00702 13.374 6.68102 13.551 6.37402C13.7485 6.03176 14.0327 5.74756 14.375 5.55002C14.682 5.37302 15.008 5.30702 15.337 5.27702C15.649 5.24902 16.028 5.24902 16.467 5.24902M15.472 6.77102C15.247 6.79102 15.165 6.82602 15.124 6.84902C15.0101 6.91505 14.9156 7.0099 14.85 7.12402C14.826 7.16402 14.791 7.24702 14.771 7.47202C14.75 7.70702 14.749 8.01802 14.749 8.49902V14.499C14.749 14.98 14.749 15.291 14.771 15.526C14.791 15.751 14.826 15.833 14.85 15.874C14.9158 15.9878 15.0102 16.0823 15.124 16.148C15.164 16.172 15.247 16.206 15.472 16.227C15.707 16.248 16.018 16.249 16.499 16.249C16.98 16.249 17.291 16.249 17.526 16.227C17.751 16.207 17.833 16.172 17.874 16.148C17.9878 16.0823 18.0822 15.9878 18.148 15.874C18.172 15.834 18.206 15.751 18.227 15.526C18.248 15.291 18.249 14.98 18.249 14.499V8.49902C18.249 8.01802 18.249 7.70702 18.227 7.47202C18.207 7.24702 18.172 7.16502 18.148 7.12402C18.0824 7.0099 17.9879 6.91505 17.874 6.84902C17.834 6.82602 17.751 6.79102 17.526 6.77102C17.1844 6.75052 16.8421 6.74352 16.5 6.75002C16.019 6.75002 15.708 6.75002 15.473 6.77202M1.25 21C1.25 20.8011 1.32902 20.6103 1.46967 20.4697C1.61032 20.329 1.80109 20.25 2 20.25H22C22.1989 20.25 22.3897 20.329 22.5303 20.4697C22.671 20.6103 22.75 20.8011 22.75 21C22.75 21.1989 22.671 21.3897 22.5303 21.5304C22.3897 21.671 22.1989 21.75 22 21.75H2C1.80109 21.75 1.61032 21.671 1.46967 21.5304C1.32902 21.3897 1.25 21.1989 1.25 21Z" fill="black"/>
</g>
<defs>
<clipPath id="clip0_221_17049">
<rect width="24" height="24" fill="white"/>
</clipPath>
</defs>
</svg>
