<svg width="24" height="24" viewBox="0 0 24 24" fill="none" xmlns="http://www.w3.org/2000/svg">
<g clip-path="url(#clip0_221_16201)">
<path fill-rule="evenodd" clip-rule="evenodd" d="M18.53 5.47007C18.6705 5.6107 18.7493 5.80132 18.7493 6.00007C18.7493 6.19882 18.6705 6.38945 18.53 6.53007L7.81 17.2501H15C15.1989 17.2501 15.3897 17.3291 15.5303 17.4697C15.671 17.6104 15.75 17.8012 15.75 18.0001C15.75 18.199 15.671 18.3898 15.5303 18.5304C15.3897 18.6711 15.1989 18.7501 15 18.7501H6C5.80109 18.7501 5.61032 18.6711 5.46967 18.5304C5.32902 18.3898 5.25 18.199 5.25 18.0001V9.00007C5.25 8.80116 5.32902 8.61039 5.46967 8.46974C5.61032 8.32909 5.80109 8.25007 6 8.25007C6.19891 8.25007 6.38968 8.32909 6.53033 8.46974C6.67098 8.61039 6.75 8.80116 6.75 9.00007V16.1901L17.47 5.47007C17.6106 5.32962 17.8012 5.25073 18 5.25073C18.1988 5.25073 18.3894 5.32962 18.53 5.47007Z" fill="black"/>
</g>
<defs>
<clipPath id="clip0_221_16201">
<rect width="24" height="24" fill="white"/>
</clipPath>
</defs>
</svg>
