<svg width="24" height="24" viewBox="0 0 24 24" fill="none" xmlns="http://www.w3.org/2000/svg">
<g clip-path="url(#clip0_221_16769)">
<path fill-rule="evenodd" clip-rule="evenodd" d="M12 5.42885C12.1989 5.42885 12.3897 5.50787 12.5303 5.64852C12.671 5.78917 12.75 5.97994 12.75 6.17885V16.0352L15.6477 13.1375C15.7163 13.0638 15.7991 13.0047 15.8911 12.9637C15.9831 12.9227 16.0824 12.9007 16.1831 12.8989C16.2839 12.8971 16.3839 12.9157 16.4773 12.9534C16.5707 12.9911 16.6555 13.0472 16.7267 13.1185C16.7979 13.1897 16.8541 13.2745 16.8918 13.3679C16.9295 13.4613 16.948 13.5613 16.9463 13.662C16.9445 13.7627 16.9224 13.862 16.8815 13.954C16.8405 14.046 16.7814 14.1288 16.7077 14.1975L12.53 18.3752C12.3894 18.5156 12.1987 18.5945 12 18.5945C11.8012 18.5945 11.6106 18.5156 11.47 18.3752L7.29028 14.1955C7.2166 14.1268 7.15749 14.044 7.1165 13.952C7.07551 13.86 7.05347 13.7607 7.05169 13.66C7.04991 13.5593 7.06844 13.4593 7.10616 13.3659C7.14388 13.2725 7.20003 13.1877 7.27125 13.1164C7.34246 13.0452 7.4273 12.9891 7.52069 12.9513C7.61407 12.9136 7.7141 12.8951 7.81481 12.8969C7.91551 12.8987 8.01482 12.9207 8.10682 12.9617C8.19882 13.0027 8.28162 13.0618 8.35028 13.1355L11.25 16.0352V6.17885C11.25 5.97994 11.329 5.78917 11.4697 5.64852C11.6103 5.50787 11.8011 5.42885 12 5.42885Z" fill="black"/>
</g>
<defs>
<clipPath id="clip0_221_16769">
<rect width="24" height="24" fill="white"/>
</clipPath>
</defs>
</svg>
