<svg width="24" height="24" viewBox="0 0 24 24" fill="none" xmlns="http://www.w3.org/2000/svg">
<g clip-path="url(#clip0_221_16171)">
<path fill-rule="evenodd" clip-rule="evenodd" d="M11.47 3.47007C11.6106 3.32962 11.8013 3.25073 12 3.25073C12.1988 3.25073 12.3894 3.32962 12.53 3.47007L18.53 9.47007C18.6037 9.53873 18.6628 9.62153 18.7038 9.71353C18.7448 9.80553 18.7668 9.90485 18.7686 10.0056C18.7704 10.1063 18.7518 10.2063 18.7141 10.2997C18.6764 10.3931 18.6203 10.4779 18.549 10.5491C18.4778 10.6203 18.393 10.6765 18.2996 10.7142C18.2062 10.7519 18.1062 10.7704 18.0055 10.7687C17.9048 10.7669 17.8055 10.7448 17.7135 10.7039C17.6215 10.6629 17.5387 10.6038 17.47 10.5301L12.75 5.81007V20.0001C12.75 20.199 12.671 20.3898 12.5303 20.5304C12.3897 20.6711 12.1989 20.7501 12 20.7501C11.8011 20.7501 11.6103 20.6711 11.4697 20.5304C11.329 20.3898 11.25 20.199 11.25 20.0001V5.81007L6.53 10.5301C6.46134 10.6038 6.37854 10.6629 6.28654 10.7039C6.19454 10.7448 6.09523 10.7669 5.99452 10.7687C5.89382 10.7704 5.79379 10.7519 5.7004 10.7142C5.60702 10.6765 5.52218 10.6203 5.45096 10.5491C5.37974 10.4779 5.3236 10.3931 5.28588 10.2997C5.24816 10.2063 5.22963 10.1063 5.23141 10.0056C5.23319 9.90485 5.25523 9.80553 5.29622 9.71353C5.33721 9.62153 5.39631 9.53873 5.47 9.47007L11.47 3.47007Z" fill="black"/>
</g>
<defs>
<clipPath id="clip0_221_16171">
<rect width="24" height="24" fill="white"/>
</clipPath>
</defs>
</svg>
