<svg width="24" height="24" viewBox="0 0 24 24" fill="none" xmlns="http://www.w3.org/2000/svg">
<g clip-path="url(#clip0_221_16754)">
<path fill-rule="evenodd" clip-rule="evenodd" d="M18.5817 12.0126C18.5817 12.2115 18.5027 12.4023 18.3621 12.543C18.2214 12.6836 18.0307 12.7626 17.8317 12.7626L7.97541 12.7626L10.8731 15.6603C10.9468 15.729 11.0059 15.8118 11.0469 15.9038C11.0879 15.9958 11.1099 16.0951 11.1117 16.1958C11.1135 16.2965 11.0949 16.3965 11.0572 16.4899C11.0195 16.5833 10.9633 16.6681 10.8921 16.7393C10.8209 16.8106 10.7361 16.8667 10.6427 16.9044C10.5493 16.9421 10.4493 16.9607 10.3486 16.9589C10.2479 16.9571 10.1486 16.9351 10.0566 16.8941C9.96456 16.8531 9.88175 16.794 9.81309 16.7203L5.63541 12.5426C5.49496 12.402 5.41607 12.2114 5.41607 12.0126C5.41607 11.8139 5.49496 11.6232 5.63541 11.4826L9.81512 7.30292C9.88378 7.22923 9.96658 7.17013 10.0586 7.12914C10.1506 7.08814 10.2499 7.0661 10.3506 7.06433C10.4513 7.06255 10.5513 7.08107 10.6447 7.11879C10.7381 7.15652 10.8229 7.21266 10.8942 7.28388C10.9654 7.3551 11.0215 7.43993 11.0592 7.53332C11.097 7.62671 11.1155 7.72674 11.1137 7.82744C11.1119 7.92814 11.0899 8.02746 11.0489 8.11946C11.0079 8.21145 10.9488 8.29425 10.8751 8.36292L7.97541 11.2626L17.8317 11.2626C18.0307 11.2626 18.2214 11.3416 18.3621 11.4823C18.5027 11.6229 18.5817 11.8137 18.5817 12.0126Z" fill="black"/>
</g>
<defs>
<clipPath id="clip0_221_16754">
<rect width="24" height="24" fill="white"/>
</clipPath>
</defs>
</svg>
