<svg width="24" height="24" viewBox="0 0 24 24" fill="none" xmlns="http://www.w3.org/2000/svg">
<g clip-path="url(#clip0_221_17044)">
<path fill-rule="evenodd" clip-rule="evenodd" d="M1.25 3C1.25 2.80109 1.32902 2.61032 1.46967 2.46967C1.61032 2.32902 1.80109 2.25 2 2.25H22C22.1989 2.25 22.3897 2.32902 22.5303 2.46967C22.671 2.61032 22.75 2.80109 22.75 3C22.75 3.19891 22.671 3.38968 22.5303 3.53033C22.3897 3.67098 22.1989 3.75 22 3.75H2C1.80109 3.75 1.61032 3.67098 1.46967 3.53033C1.32902 3.38968 1.25 3.19891 1.25 3ZM7.468 6.25H7.532C7.972 6.25 8.352 6.25 8.662 6.278C8.992 6.308 9.318 6.374 9.625 6.551C9.967 6.749 10.251 7.033 10.449 7.375C10.626 7.682 10.692 8.008 10.722 8.337C10.75 8.649 10.75 9.028 10.75 9.467V18.532C10.75 18.972 10.75 19.352 10.722 19.662C10.692 19.992 10.626 20.318 10.449 20.625C10.2515 20.9673 9.96726 21.2515 9.625 21.449C9.318 21.626 8.992 21.692 8.663 21.722C8.351 21.75 7.972 21.75 7.533 21.75H7.468C7.028 21.75 6.648 21.75 6.338 21.722C6.008 21.692 5.682 21.626 5.375 21.449C5.03274 21.2515 4.74854 20.9673 4.551 20.625C4.374 20.318 4.308 19.992 4.278 19.663C4.25346 19.2869 4.24412 18.9099 4.25 18.533V9.467C4.25 9.027 4.25 8.647 4.278 8.337C4.308 8.007 4.374 7.681 4.551 7.374C4.74854 7.03174 5.03274 6.74754 5.375 6.55C5.682 6.373 6.008 6.307 6.337 6.277C6.649 6.249 7.028 6.249 7.467 6.249M6.472 7.771C6.247 7.791 6.165 7.826 6.124 7.849C6.00975 7.91489 5.91489 8.00975 5.849 8.124C5.826 8.164 5.791 8.247 5.771 8.472C5.75 8.707 5.749 9.018 5.749 9.499V18.499C5.749 18.98 5.749 19.291 5.771 19.526C5.791 19.751 5.826 19.833 5.849 19.874C5.91503 19.9879 6.00988 20.0824 6.124 20.148C6.164 20.172 6.247 20.206 6.472 20.227C6.707 20.248 7.018 20.249 7.499 20.249C7.98 20.249 8.291 20.249 8.526 20.227C8.751 20.207 8.833 20.172 8.874 20.148C8.98812 20.0824 9.08297 19.9879 9.149 19.874C9.172 19.834 9.207 19.751 9.227 19.526C9.248 19.291 9.249 18.98 9.249 18.499V9.499C9.249 9.018 9.249 8.707 9.227 8.472C9.207 8.247 9.172 8.165 9.149 8.124C9.08311 8.00975 8.98825 7.91489 8.874 7.849C8.834 7.826 8.751 7.791 8.526 7.771C8.18441 7.7505 7.84214 7.74349 7.5 7.75C7.019 7.75 6.708 7.75 6.473 7.772M16.468 6.25H16.532C16.972 6.25 17.352 6.25 17.662 6.278C17.992 6.308 18.318 6.374 18.625 6.551C18.967 6.749 19.251 7.033 19.449 7.375C19.626 7.682 19.692 8.008 19.722 8.337C19.75 8.649 19.75 9.028 19.75 9.467V15.532C19.75 15.972 19.75 16.352 19.722 16.662C19.692 16.992 19.626 17.318 19.449 17.625C19.2515 17.9673 18.9673 18.2515 18.625 18.449C18.318 18.626 17.992 18.692 17.663 18.722C17.351 18.75 16.972 18.75 16.533 18.75H16.468C16.028 18.75 15.648 18.75 15.338 18.722C15.008 18.692 14.682 18.626 14.375 18.449C14.0327 18.2515 13.7485 17.9673 13.551 17.625C13.374 17.318 13.308 16.992 13.278 16.663C13.25 16.351 13.25 15.972 13.25 15.533V9.467C13.25 9.027 13.25 8.647 13.278 8.337C13.308 8.007 13.374 7.681 13.551 7.374C13.7485 7.03174 14.0327 6.74754 14.375 6.55C14.682 6.373 15.008 6.307 15.337 6.277C15.649 6.249 16.028 6.249 16.467 6.249M15.472 7.771C15.247 7.791 15.165 7.826 15.124 7.849C15.0101 7.91503 14.9156 8.00987 14.85 8.124C14.826 8.164 14.791 8.247 14.771 8.472C14.75 8.707 14.749 9.018 14.749 9.499V15.499C14.749 15.98 14.749 16.291 14.771 16.526C14.791 16.751 14.826 16.833 14.85 16.874C14.9158 16.9878 15.0102 17.0822 15.124 17.148C15.164 17.172 15.247 17.206 15.472 17.227C15.707 17.248 16.018 17.249 16.499 17.249C16.98 17.249 17.291 17.249 17.526 17.227C17.751 17.207 17.833 17.172 17.874 17.148C17.9878 17.0822 18.0822 16.9878 18.148 16.874C18.172 16.834 18.206 16.751 18.227 16.526C18.248 16.291 18.249 15.98 18.249 15.499V9.499C18.249 9.018 18.249 8.707 18.227 8.472C18.207 8.247 18.172 8.165 18.148 8.124C18.0824 8.00987 17.9879 7.91503 17.874 7.849C17.834 7.826 17.751 7.791 17.526 7.771C17.1844 7.7505 16.8421 7.74349 16.5 7.75C16.019 7.75 15.708 7.75 15.473 7.772" fill="black"/>
</g>
<defs>
<clipPath id="clip0_221_17044">
<rect width="24" height="24" fill="white"/>
</clipPath>
</defs>
</svg>
