<svg width="24" height="24" viewBox="0 0 24 24" fill="none" xmlns="http://www.w3.org/2000/svg">
<g clip-path="url(#clip0_221_16191)">
<path fill-rule="evenodd" clip-rule="evenodd" d="M9 6.75C8.80109 6.75 8.61032 6.67098 8.46967 6.53033C8.32902 6.38968 8.25 6.19891 8.25 6C8.25 5.80109 8.32902 5.61032 8.46967 5.46967C8.61032 5.32902 8.80109 5.25 9 5.25H18C18.1989 5.25 18.3897 5.32902 18.5303 5.46967C18.671 5.61032 18.75 5.80109 18.75 6V15C18.75 15.1989 18.671 15.3897 18.5303 15.5303C18.3897 15.671 18.1989 15.75 18 15.75C17.8011 15.75 17.6103 15.671 17.4697 15.5303C17.329 15.3897 17.25 15.1989 17.25 15V7.81L6.53 18.53C6.38782 18.6625 6.19978 18.7346 6.00548 18.7312C5.81118 18.7277 5.62579 18.649 5.48838 18.5116C5.35096 18.3742 5.27225 18.1888 5.26882 17.9945C5.2654 17.8002 5.33752 17.6122 5.47 17.47L16.19 6.75H9Z" fill="black"/>
</g>
<defs>
<clipPath id="clip0_221_16191">
<rect width="24" height="24" fill="white"/>
</clipPath>
</defs>
</svg>
