<svg width="24" height="24" viewBox="0 0 24 24" fill="none" xmlns="http://www.w3.org/2000/svg">
<path fill-rule="evenodd" clip-rule="evenodd" d="M12 1.25C12.1989 1.25 12.3897 1.32902 12.5303 1.46967C12.671 1.61032 12.75 1.80109 12.75 2V4.25H16.532C16.972 4.25 17.352 4.25 17.662 4.278C17.992 4.308 18.318 4.374 18.625 4.551C18.967 4.749 19.251 5.033 19.449 5.375C19.626 5.682 19.692 6.008 19.722 6.337C19.75 6.649 19.75 7.028 19.75 7.467V7.532C19.75 7.972 19.75 8.352 19.722 8.662C19.692 8.992 19.626 9.318 19.449 9.625C19.2515 9.96726 18.9673 10.2515 18.625 10.449C18.318 10.626 17.992 10.692 17.663 10.722C17.351 10.75 16.972 10.75 16.533 10.75H12.75V13.25H14.532C14.972 13.25 15.352 13.25 15.662 13.278C15.992 13.308 16.318 13.374 16.625 13.551C16.967 13.749 17.251 14.033 17.449 14.375C17.626 14.682 17.692 15.008 17.722 15.337C17.75 15.649 17.75 16.028 17.75 16.467V16.532C17.75 16.972 17.75 17.352 17.722 17.662C17.692 17.992 17.626 18.318 17.449 18.625C17.2514 18.9672 16.9672 19.2514 16.625 19.449C16.318 19.626 15.992 19.692 15.663 19.722C15.351 19.75 14.972 19.75 14.533 19.75H12.75V22C12.75 22.1989 12.671 22.3897 12.5303 22.5303C12.3897 22.671 12.1989 22.75 12 22.75C11.8011 22.75 11.6103 22.671 11.4697 22.5303C11.329 22.3897 11.25 22.1989 11.25 22V19.75H9.468C9.028 19.75 8.648 19.75 8.338 19.722C8.008 19.692 7.682 19.626 7.375 19.449C7.03274 19.2515 6.74854 18.9673 6.551 18.625C6.374 18.318 6.308 17.992 6.278 17.663C6.25 17.351 6.25 16.972 6.25 16.533V16.468C6.25 16.028 6.25 15.648 6.278 15.338C6.308 15.008 6.374 14.682 6.551 14.375C6.74854 14.0327 7.03274 13.7485 7.375 13.551C7.682 13.374 8.008 13.308 8.337 13.278C8.649 13.25 9.028 13.25 9.467 13.25H11.25V10.75H7.468C7.028 10.75 6.648 10.75 6.338 10.722C6.008 10.692 5.682 10.626 5.375 10.449C5.03274 10.2515 4.74854 9.96726 4.551 9.625C4.374 9.318 4.308 8.992 4.278 8.663C4.25 8.351 4.25 7.972 4.25 7.533V7.468C4.25 7.028 4.25 6.648 4.278 6.338C4.308 6.008 4.374 5.682 4.551 5.375C4.74854 5.03274 5.03274 4.74854 5.375 4.551C5.682 4.374 6.008 4.308 6.337 4.278C6.649 4.25 7.028 4.25 7.467 4.25H11.25V2C11.25 1.80109 11.329 1.61032 11.4697 1.46967C11.6103 1.32902 11.8011 1.25 12 1.25ZM7.5 5.75C7.019 5.75 6.708 5.75 6.473 5.772C6.248 5.792 6.166 5.827 6.125 5.85C6.01075 5.91589 5.91589 6.01075 5.85 6.125C5.827 6.165 5.792 6.248 5.772 6.473C5.751 6.708 5.75 7.019 5.75 7.5C5.75 7.981 5.75 8.292 5.772 8.527C5.792 8.752 5.827 8.834 5.85 8.875C5.91589 8.98925 6.01075 9.08411 6.125 9.15C6.165 9.173 6.248 9.208 6.473 9.228C6.708 9.249 7.019 9.25 7.5 9.25H16.5C16.981 9.25 17.292 9.25 17.527 9.228C17.752 9.208 17.834 9.173 17.875 9.15C17.9889 9.08397 18.0834 8.98912 18.149 8.875C18.173 8.835 18.207 8.752 18.228 8.527C18.249 8.292 18.25 7.981 18.25 7.5C18.25 7.019 18.25 6.708 18.228 6.473C18.208 6.248 18.173 6.166 18.149 6.125C18.0834 6.01088 17.9889 5.91603 17.875 5.85C17.835 5.827 17.752 5.792 17.527 5.772C17.1851 5.75094 16.8425 5.7436 16.5 5.75H7.5ZM9.5 14.75C9.019 14.75 8.708 14.75 8.473 14.772C8.248 14.792 8.166 14.827 8.125 14.851C8.01088 14.9166 7.91603 15.0111 7.85 15.125C7.827 15.165 7.792 15.248 7.772 15.473C7.75094 15.8149 7.7436 16.1575 7.75 16.5C7.75 16.981 7.75 17.292 7.772 17.527C7.792 17.752 7.827 17.834 7.85 17.875C7.91603 17.9889 8.01088 18.0834 8.125 18.149C8.165 18.173 8.248 18.207 8.473 18.228C8.708 18.249 9.019 18.25 9.5 18.25H14.5C14.981 18.25 15.292 18.25 15.527 18.228C15.752 18.208 15.834 18.173 15.875 18.149C15.9888 18.0832 16.0832 17.9888 16.149 17.875C16.173 17.835 16.207 17.752 16.228 17.527C16.249 17.292 16.25 16.981 16.25 16.5C16.25 16.019 16.25 15.708 16.228 15.473C16.208 15.248 16.173 15.166 16.149 15.125C16.0832 15.0112 15.9888 14.9168 15.875 14.851C15.835 14.827 15.752 14.792 15.527 14.772C15.1851 14.7509 14.8425 14.7436 14.5 14.75H9.5Z" fill="black"/>
</svg>
