<svg width="24" height="24" viewBox="0 0 24 24" fill="none" xmlns="http://www.w3.org/2000/svg">
<path fill-rule="evenodd" clip-rule="evenodd" d="M20.455 12.353C20.5863 12.635 20.5423 12.9675 20.3421 13.2056L12.6817 22.315C12.5325 22.4924 12.3137 22.5964 12.0819 22.6C11.8502 22.6036 11.6282 22.5066 11.4735 22.3339L3.33833 13.2527C3.12776 13.0176 3.07505 12.6807 3.20378 12.3926C3.33251 12.1044 3.61861 11.9189 3.9342 11.9189L6.73597 11.9189L6.73628 2.19061C6.73629 1.74879 7.09446 1.39063 7.53628 1.39063L16.2614 1.39062C16.4736 1.39062 16.6771 1.47491 16.8271 1.62494C16.9771 1.77497 17.0614 1.97845 17.0614 2.19062L17.0614 11.8907L19.7298 11.8907C20.0408 11.8907 20.3237 12.071 20.455 12.353ZM18.0118 13.4907L16.2614 13.4907C15.8196 13.4907 15.4614 13.1325 15.4614 12.6907L15.4614 2.99063L8.33625 2.99063L8.33594 12.7189C8.33593 13.1607 7.97776 13.5189 7.53594 13.5189L5.72493 13.5189L12.0503 20.5798L18.0118 13.4907Z" fill="black"/>
</svg>
