<svg width="24" height="24" viewBox="0 0 24 24" fill="none" xmlns="http://www.w3.org/2000/svg">
<g clip-path="url(#clip0_221_17163)">
<path fill-rule="evenodd" clip-rule="evenodd" d="M11.238 2.7991C10.624 2.8801 9.86601 3.0541 8.78801 3.3031L7.55901 3.5871C6.64901 3.7971 6.02101 3.9431 5.54201 4.1071C5.07901 4.2661 4.81701 4.4221 4.62001 4.6201C4.42201 4.8171 4.26601 5.0791 4.10701 5.5421C3.94301 6.0211 3.79701 6.6481 3.58701 7.5591L3.30301 8.7871C3.05401 9.8661 2.88001 10.6241 2.79901 11.2381C2.71901 11.8361 2.73801 12.2411 2.84401 12.6091C2.94901 12.9771 3.14801 13.3301 3.53201 13.7951C3.92701 14.2731 4.47601 14.8241 5.25901 15.6071L7.08901 17.4371C8.44801 18.7961 9.41501 19.7611 10.247 20.3951C11.061 21.0171 11.657 21.2501 12.262 21.2501C12.867 21.2501 13.463 21.0171 14.278 20.3951C15.109 19.7611 16.077 18.7951 17.436 17.4361C18.796 16.0761 19.761 15.1091 20.396 14.2781C21.016 13.4631 21.25 12.8681 21.25 12.2621C21.25 11.6571 21.017 11.0621 20.395 10.2471C19.761 9.4151 18.795 8.4471 17.436 7.0881L15.606 5.2581C14.824 4.4761 14.273 3.9271 13.796 3.5321C13.33 3.1481 12.977 2.9491 12.609 2.8441C12.241 2.7381 11.836 2.7201 11.239 2.7991M11.043 1.3121C11.76 1.2171 12.389 1.2201 13.023 1.4021C13.658 1.5841 14.193 1.9151 14.751 2.3751C15.291 2.8211 15.891 3.4211 16.642 4.1721L18.538 6.0681C19.848 7.3781 20.886 8.4161 21.588 9.3381C22.312 10.2851 22.751 11.1971 22.751 12.2621C22.751 13.3281 22.312 14.2401 21.589 15.1871C20.886 16.1091 19.849 17.1471 18.538 18.4571L18.458 18.5371C17.148 19.8471 16.11 20.8851 15.188 21.5871C14.241 22.3111 13.328 22.7501 12.263 22.7501C11.198 22.7501 10.286 22.3111 9.33801 21.5881C8.41701 20.8851 7.37901 19.8481 6.06801 18.5371L4.17301 16.6401C3.42301 15.8901 2.82201 15.2891 2.37601 14.7501C1.91601 14.1911 1.58501 13.6561 1.40301 13.0221C1.22101 12.3871 1.21801 11.7581 1.31301 11.0411C1.40401 10.3471 1.59601 9.5191 1.83401 8.4851L2.13401 7.1821C2.33401 6.3191 2.49601 5.6151 2.68901 5.0541C2.89101 4.4671 3.14401 3.9741 3.56001 3.5581C3.97601 3.1421 4.47001 2.8881 5.05601 2.6881C5.61701 2.4941 6.32101 2.3321 7.18401 2.1331L8.48701 1.8331C9.52101 1.5931 10.349 1.4031 11.043 1.3111M9.49001 7.9951C9.25556 7.76064 8.93758 7.62893 8.60601 7.62893C8.27445 7.62893 7.95646 7.76064 7.72201 7.9951C7.48756 8.22955 7.35585 8.54753 7.35585 8.8791C7.35585 9.21066 7.48756 9.52864 7.72201 9.7631C7.8381 9.87918 7.97592 9.97127 8.12759 10.0341C8.27927 10.0969 8.44184 10.1293 8.60601 10.1293C8.77019 10.1293 8.93275 10.0969 9.08443 10.0341C9.23611 9.97127 9.37392 9.87918 9.49001 9.7631C9.6061 9.64701 9.69819 9.50919 9.76101 9.35751C9.82384 9.20584 9.85618 9.04327 9.85618 8.8791C9.85618 8.71492 9.82384 8.55236 9.76101 8.40068C9.69819 8.249 9.6061 8.11118 9.49001 7.9951ZM6.66101 6.9351C7.17672 6.41925 7.87624 6.1294 8.60566 6.1293C9.33508 6.12921 10.0347 6.41888 10.5505 6.9346C11.0664 7.45031 11.3562 8.14982 11.3563 8.87924C11.3564 9.60867 11.0667 10.3083 10.551 10.8241C10.0352 11.3399 9.33553 11.6297 8.60601 11.6297C7.87649 11.6297 7.17686 11.3399 6.66101 10.8241C6.14517 10.3083 5.85537 9.60861 5.85537 8.8791C5.85537 8.14958 6.14516 7.45094 6.66101 6.9351Z" fill="black"/>
<path fill-rule="evenodd" clip-rule="evenodd" d="M10.446 14.2875L13.446 11.2875C13.5866 11.147 13.7772 11.0681 13.976 11.0681C14.1747 11.0681 14.3653 11.147 14.506 11.2875L17.506 14.2875C17.5796 14.3561 17.6387 14.4389 17.6797 14.5309C17.7207 14.6229 17.7428 14.7222 17.7445 14.8229C17.7463 14.9236 17.7278 15.0237 17.6901 15.1171C17.6524 15.2104 17.5962 15.2953 17.525 15.3665C17.4538 15.4377 17.3689 15.4939 17.2755 15.5316C17.1822 15.5693 17.0821 15.5878 16.9814 15.586C16.8807 15.5843 16.7814 15.5622 16.6894 15.5212C16.5974 15.4802 16.5146 15.4211 16.446 15.3475L13.976 12.8775L11.506 15.3475C11.3638 15.4799 11.1757 15.5521 10.9814 15.5486C10.7871 15.5452 10.6017 15.4665 10.4643 15.3291C10.3269 15.1917 10.2482 15.0063 10.2448 14.812C10.2413 14.6177 10.3135 14.4296 10.446 14.2875Z" fill="black"/>
</g>
<defs>
<clipPath id="clip0_221_17163">
<rect width="24" height="24" fill="white"/>
</clipPath>
</defs>
</svg>
