<svg width="24" height="24" viewBox="0 0 24 24" fill="none" xmlns="http://www.w3.org/2000/svg">
<g clip-path="url(#clip0_221_17034)">
<path fill-rule="evenodd" clip-rule="evenodd" d="M3 1.25C3.19891 1.25 3.38968 1.32902 3.53033 1.46967C3.67098 1.61032 3.75 1.80109 3.75 2V22C3.75 22.1989 3.67098 22.3897 3.53033 22.5303C3.38968 22.671 3.19891 22.75 3 22.75C2.80109 22.75 2.61032 22.671 2.46967 22.5303C2.32902 22.3897 2.25 22.1989 2.25 22V2C2.25 1.80109 2.32902 1.61032 2.46967 1.46967C2.61032 1.32902 2.80109 1.25 3 1.25ZM9.468 4.25H18.532C18.972 4.25 19.352 4.25 19.662 4.278C19.992 4.308 20.318 4.374 20.625 4.551C20.967 4.749 21.251 5.033 21.449 5.375C21.626 5.682 21.692 6.008 21.722 6.337C21.75 6.649 21.75 7.028 21.75 7.467V7.532C21.75 7.972 21.75 8.352 21.722 8.662C21.692 8.992 21.626 9.318 21.449 9.625C21.2515 9.96726 20.9673 10.2515 20.625 10.449C20.318 10.626 19.992 10.692 19.663 10.722C19.351 10.75 18.972 10.75 18.533 10.75H9.467C9.027 10.75 8.647 10.75 8.337 10.722C8.007 10.692 7.681 10.626 7.374 10.449C7.03174 10.2515 6.74754 9.96726 6.55 9.625C6.373 9.318 6.307 8.992 6.277 8.663C6.249 8.351 6.249 7.972 6.249 7.533V7.468C6.249 7.028 6.249 6.648 6.277 6.338C6.307 6.008 6.373 5.682 6.55 5.375C6.74754 5.03274 7.03174 4.74854 7.374 4.551C7.681 4.374 8.007 4.308 8.336 4.278C8.648 4.25 9.027 4.25 9.466 4.25M8.471 5.772C8.246 5.792 8.164 5.827 8.123 5.85C8.00875 5.91589 7.91389 6.01075 7.848 6.125C7.825 6.165 7.79 6.248 7.77 6.473C7.749 6.708 7.748 7.019 7.748 7.5C7.748 7.981 7.748 8.292 7.77 8.527C7.79 8.752 7.825 8.834 7.848 8.875C7.91389 8.98925 8.00875 9.08411 8.123 9.15C8.163 9.173 8.246 9.208 8.471 9.228C8.706 9.249 9.017 9.25 9.498 9.25H18.498C18.979 9.25 19.29 9.25 19.525 9.228C19.75 9.208 19.832 9.173 19.873 9.15C19.9869 9.08397 20.0814 8.98912 20.147 8.875C20.171 8.835 20.205 8.752 20.226 8.527C20.247 8.292 20.248 7.981 20.248 7.5C20.248 7.019 20.248 6.708 20.226 6.473C20.206 6.248 20.171 6.166 20.147 6.125C20.0814 6.01088 19.9869 5.91603 19.873 5.85C19.833 5.827 19.75 5.792 19.525 5.772C19.1838 5.75119 18.8418 5.74385 18.5 5.75H9.5C9.019 5.75 8.708 5.75 8.473 5.772M9.468 13.25H15.532C15.972 13.25 16.352 13.25 16.662 13.278C16.992 13.308 17.318 13.374 17.625 13.551C17.967 13.749 18.251 14.033 18.449 14.375C18.626 14.682 18.692 15.008 18.722 15.337C18.75 15.649 18.75 16.028 18.75 16.467V16.532C18.75 16.972 18.75 17.352 18.722 17.662C18.692 17.992 18.626 18.318 18.449 18.625C18.2515 18.9673 17.9673 19.2515 17.625 19.449C17.318 19.626 16.992 19.692 16.663 19.722C16.351 19.75 15.972 19.75 15.533 19.75H9.467C9.027 19.75 8.647 19.75 8.337 19.722C8.007 19.692 7.681 19.626 7.374 19.449C7.03174 19.2515 6.74754 18.9673 6.55 18.625C6.373 18.318 6.307 17.992 6.277 17.663C6.249 17.351 6.249 16.972 6.249 16.533V16.468C6.249 16.028 6.249 15.648 6.277 15.338C6.307 15.008 6.373 14.682 6.55 14.375C6.74754 14.0327 7.03174 13.7485 7.374 13.551C7.681 13.374 8.007 13.308 8.336 13.278C8.648 13.25 9.027 13.25 9.466 13.25M8.471 14.772C8.246 14.792 8.164 14.827 8.123 14.851C8.00888 14.9166 7.91403 15.0111 7.848 15.125C7.825 15.165 7.79 15.248 7.77 15.473C7.74981 15.8149 7.74313 16.1575 7.75 16.5C7.75 16.981 7.75 17.292 7.772 17.527C7.792 17.752 7.827 17.834 7.85 17.875C7.91603 17.9889 8.01088 18.0834 8.125 18.149C8.165 18.173 8.248 18.207 8.473 18.228C8.708 18.249 9.019 18.25 9.5 18.25H15.5C15.981 18.25 16.292 18.25 16.527 18.228C16.752 18.208 16.834 18.173 16.875 18.149C16.9888 18.0832 17.0832 17.9888 17.149 17.875C17.173 17.835 17.207 17.752 17.228 17.527C17.249 17.292 17.25 16.981 17.25 16.5C17.25 16.019 17.25 15.708 17.228 15.473C17.208 15.248 17.173 15.166 17.149 15.125C17.0832 15.0112 16.9888 14.9168 16.875 14.851C16.835 14.827 16.752 14.792 16.527 14.772C16.1851 14.7511 15.8425 14.7438 15.5 14.75H9.5C9.019 14.75 8.708 14.75 8.473 14.772" fill="black"/>
</g>
<defs>
<clipPath id="clip0_221_17034">
<rect width="24" height="24" fill="white"/>
</clipPath>
</defs>
</svg>
