<svg width="24" height="24" viewBox="0 0 24 24" fill="none" xmlns="http://www.w3.org/2000/svg">
<g clip-path="url(#clip0_221_17039)">
<path fill-rule="evenodd" clip-rule="evenodd" d="M21 1.25C21.1989 1.25 21.3897 1.32902 21.5303 1.46967C21.671 1.61032 21.75 1.80109 21.75 2V22C21.75 22.1989 21.671 22.3897 21.5303 22.5303C21.3897 22.671 21.1989 22.75 21 22.75C20.8011 22.75 20.6103 22.671 20.4697 22.5303C20.329 22.3897 20.25 22.1989 20.25 22V2C20.25 1.80109 20.329 1.61032 20.4697 1.46967C20.6103 1.32902 20.8011 1.25 21 1.25ZM5.46799 4.25H14.532C14.972 4.25 15.352 4.25 15.662 4.278C15.992 4.308 16.318 4.374 16.625 4.551C16.967 4.749 17.251 5.033 17.449 5.375C17.626 5.682 17.692 6.008 17.722 6.337C17.75 6.649 17.75 7.028 17.75 7.467V7.532C17.75 7.972 17.75 8.352 17.722 8.662C17.692 8.992 17.626 9.318 17.449 9.625C17.2515 9.96726 16.9673 10.2515 16.625 10.449C16.318 10.626 15.992 10.692 15.663 10.722C15.351 10.75 14.972 10.75 14.533 10.75H5.46699C5.02699 10.75 4.64699 10.75 4.33699 10.722C4.00699 10.692 3.68099 10.626 3.37399 10.449C3.03173 10.2515 2.74753 9.96726 2.54999 9.625C2.37299 9.318 2.30699 8.992 2.27699 8.663C2.24899 8.351 2.24899 7.972 2.24899 7.533V7.468C2.24899 7.028 2.24899 6.648 2.27699 6.338C2.30699 6.008 2.37299 5.682 2.54999 5.375C2.74753 5.03274 3.03173 4.74854 3.37399 4.551C3.68099 4.374 4.00699 4.308 4.33599 4.278C4.64799 4.25 5.02699 4.25 5.46599 4.25M4.47099 5.772C4.24599 5.792 4.16399 5.827 4.12299 5.85C4.00874 5.91589 3.91388 6.01075 3.84799 6.125C3.82499 6.165 3.78999 6.248 3.76999 6.473C3.74899 6.708 3.74799 7.019 3.74799 7.5C3.74799 7.981 3.74799 8.292 3.76999 8.527C3.78999 8.752 3.82499 8.834 3.84799 8.875C3.91388 8.98925 4.00874 9.08411 4.12299 9.15C4.16299 9.173 4.24599 9.208 4.47099 9.228C4.70599 9.249 5.01699 9.25 5.49799 9.25H14.498C14.979 9.25 15.29 9.25 15.525 9.228C15.75 9.208 15.832 9.173 15.873 9.15C15.9869 9.08397 16.0814 8.98912 16.147 8.875C16.171 8.835 16.205 8.752 16.226 8.527C16.247 8.292 16.248 7.981 16.248 7.5C16.248 7.019 16.248 6.708 16.226 6.473C16.206 6.248 16.171 6.166 16.147 6.125C16.0814 6.01088 15.9869 5.91603 15.873 5.85C15.833 5.827 15.75 5.792 15.525 5.772C15.1837 5.75119 14.8418 5.74385 14.5 5.75H5.49999C5.01899 5.75 4.70799 5.75 4.47299 5.772M8.46799 13.25H14.532C14.972 13.25 15.352 13.25 15.662 13.278C15.992 13.308 16.318 13.374 16.625 13.551C16.967 13.749 17.251 14.033 17.449 14.375C17.626 14.682 17.692 15.008 17.722 15.337C17.75 15.649 17.75 16.028 17.75 16.467V16.532C17.75 16.972 17.75 17.352 17.722 17.662C17.692 17.992 17.626 18.318 17.449 18.625C17.2515 18.9673 16.9673 19.2515 16.625 19.449C16.318 19.626 15.992 19.692 15.663 19.722C15.351 19.75 14.972 19.75 14.533 19.75H8.46699C8.02699 19.75 7.64699 19.75 7.33699 19.722C7.00699 19.692 6.68099 19.626 6.37399 19.449C6.03173 19.2515 5.74753 18.9673 5.54999 18.625C5.37299 18.318 5.30699 17.992 5.27699 17.663C5.24899 17.351 5.24899 16.972 5.24899 16.533V16.468C5.24899 16.028 5.24899 15.648 5.27699 15.338C5.30699 15.008 5.37299 14.682 5.54999 14.375C5.74753 14.0327 6.03173 13.7485 6.37399 13.551C6.68099 13.374 7.00699 13.308 7.33599 13.278C7.64799 13.25 8.02699 13.25 8.46599 13.25M7.47099 14.772C7.24599 14.792 7.16399 14.827 7.12299 14.851C7.00887 14.9166 6.91402 15.0111 6.84799 15.125C6.82499 15.165 6.78999 15.248 6.76999 15.473C6.7498 15.8149 6.74313 16.1575 6.74999 16.5C6.74999 16.981 6.74999 17.292 6.77199 17.527C6.79199 17.752 6.82699 17.834 6.84999 17.875C6.91602 17.9889 7.01087 18.0834 7.12499 18.149C7.16499 18.173 7.24799 18.207 7.47299 18.228C7.70799 18.249 8.01899 18.25 8.49999 18.25H14.5C14.981 18.25 15.292 18.25 15.527 18.228C15.752 18.208 15.834 18.173 15.875 18.149C15.9888 18.0832 16.0832 17.9888 16.149 17.875C16.173 17.835 16.207 17.752 16.228 17.527C16.249 17.292 16.25 16.981 16.25 16.5C16.25 16.019 16.25 15.708 16.228 15.473C16.208 15.248 16.173 15.166 16.149 15.125C16.0832 15.0112 15.9888 14.9168 15.875 14.851C15.835 14.827 15.752 14.792 15.527 14.772C15.1851 14.7511 14.8425 14.7438 14.5 14.75H8.49999C8.01899 14.75 7.70799 14.75 7.47299 14.772" fill="black"/>
</g>
<defs>
<clipPath id="clip0_221_17039">
<rect width="24" height="24" fill="white"/>
</clipPath>
</defs>
</svg>
