<svg width="24" height="24" viewBox="0 0 24 24" fill="none" xmlns="http://www.w3.org/2000/svg">
<g clip-path="url(#clip0_221_16759)">
<path fill-rule="evenodd" clip-rule="evenodd" d="M11.998 18.5943C11.7991 18.5943 11.6083 18.5153 11.4676 18.3747C11.327 18.234 11.248 18.0433 11.248 17.8443L11.248 7.98801L8.35028 10.8857C8.28162 10.9594 8.19882 11.0185 8.10682 11.0595C8.01482 11.1005 7.91551 11.1225 7.81481 11.1243C7.7141 11.1261 7.61408 11.1075 7.52069 11.0698C7.4273 11.0321 7.34247 10.976 7.27125 10.9047C7.20003 10.8335 7.14388 10.7487 7.10616 10.6553C7.06844 10.5619 7.04992 10.4619 7.05169 10.3612C7.05347 10.2605 7.07551 10.1612 7.1165 10.0692C7.1575 9.97716 7.2166 9.89436 7.29029 9.8257L11.468 5.64801C11.6086 5.50756 11.7992 5.42867 11.998 5.42867C12.1967 5.42867 12.3873 5.50756 12.528 5.64801L16.7077 9.82772C16.7814 9.89639 16.8405 9.97919 16.8815 10.0712C16.9224 10.1632 16.9445 10.2625 16.9463 10.3632C16.948 10.4639 16.9295 10.5639 16.8918 10.6573C16.8541 10.7507 16.7979 10.8355 16.7267 10.9068C16.6555 10.978 16.5707 11.0341 16.4773 11.0718C16.3839 11.1096 16.2839 11.1281 16.1832 11.1263C16.0824 11.1245 15.9831 11.1025 15.8911 11.0615C15.7991 11.0205 15.7163 10.9614 15.6477 10.8877L12.748 7.98801L12.748 17.8443C12.748 18.0433 12.6689 18.234 12.5283 18.3747C12.3876 18.5153 12.1969 18.5943 11.998 18.5943Z" fill="black"/>
</g>
<defs>
<clipPath id="clip0_221_16759">
<rect width="24" height="24" fill="white"/>
</clipPath>
</defs>
</svg>
