<svg width="24" height="24" viewBox="0 0 24 24" fill="none" xmlns="http://www.w3.org/2000/svg">
<g clip-path="url(#clip0_221_16764)">
<path fill-rule="evenodd" clip-rule="evenodd" d="M5.41621 12.0106C5.41621 11.8117 5.49523 11.6209 5.63588 11.4802C5.77654 11.3396 5.9673 11.2606 6.16621 11.2606L16.0225 11.2606L13.1249 8.36289C13.0512 8.29422 12.9921 8.21142 12.9511 8.11942C12.9101 8.02743 12.888 7.92811 12.8863 7.82741C12.8845 7.72671 12.903 7.62668 12.9407 7.53329C12.9785 7.4399 13.0346 7.35507 13.1058 7.28385C13.177 7.21263 13.2619 7.15649 13.3553 7.11876C13.4487 7.08104 13.5487 7.06252 13.6494 7.0643C13.7501 7.06607 13.8494 7.08811 13.9414 7.12911C14.0334 7.1701 14.1162 7.2292 14.1849 7.30289L18.3625 11.4806C18.503 11.6212 18.5819 11.8118 18.5819 12.0106C18.5819 12.2093 18.503 12.3999 18.3625 12.5406L14.1828 16.7203C14.1142 16.794 14.0314 16.8531 13.9394 16.8941C13.8474 16.935 13.7481 16.9571 13.6474 16.9589C13.5467 16.9606 13.4466 16.9421 13.3532 16.9044C13.2598 16.8667 13.175 16.8105 13.1038 16.7393C13.0326 16.6681 12.9764 16.5833 12.9387 16.4899C12.901 16.3965 12.8825 16.2965 12.8842 16.1958C12.886 16.0951 12.9081 15.9957 12.9491 15.9037C12.99 15.8117 13.0491 15.7289 13.1228 15.6603L16.0225 12.7606L6.16621 12.7606C5.9673 12.7606 5.77654 12.6816 5.63588 12.5409C5.49523 12.4002 5.41621 12.2095 5.41621 12.0106Z" fill="black"/>
</g>
<defs>
<clipPath id="clip0_221_16764">
<rect width="24" height="24" fill="white"/>
</clipPath>
</defs>
</svg>
