<svg width="24" height="24" viewBox="0 0 24 24" fill="none" xmlns="http://www.w3.org/2000/svg">
<g clip-path="url(#clip0_221_16908)">
<path d="M12 7.25C12.1989 7.25 12.3897 7.32902 12.5303 7.46967C12.671 7.61032 12.75 7.80109 12.75 8V13C12.75 13.1989 12.671 13.3897 12.5303 13.5303C12.3897 13.671 12.1989 13.75 12 13.75C11.8011 13.75 11.6103 13.671 11.4697 13.5303C11.329 13.3897 11.25 13.1989 11.25 13V8C11.25 7.80109 11.329 7.61032 11.4697 7.46967C11.6103 7.32902 11.8011 7.25 12 7.25ZM12 17C12.2652 17 12.5196 16.8946 12.7071 16.7071C12.8946 16.5196 13 16.2652 13 16C13 15.7348 12.8946 15.4804 12.7071 15.2929C12.5196 15.1054 12.2652 15 12 15C11.7348 15 11.4804 15.1054 11.2929 15.2929C11.1054 15.4804 11 15.7348 11 16C11 16.2652 11.1054 16.5196 11.2929 16.7071C11.4804 16.8946 11.7348 17 12 17Z" fill="black"/>
<path fill-rule="evenodd" clip-rule="evenodd" d="M8.29397 4.476C9.36597 3.115 10.502 2.25 12 2.25C13.498 2.25 14.634 3.115 15.706 4.476C16.76 5.816 17.876 7.796 19.306 10.331L19.742 11.103C20.923 13.198 21.857 14.853 22.347 16.18C22.847 17.538 22.967 18.77 22.209 19.857C21.474 20.912 20.247 21.343 18.699 21.547C17.158 21.75 15.084 21.75 12.425 21.75H11.575C8.91497 21.75 6.84197 21.75 5.30097 21.547C3.75297 21.343 2.52597 20.912 1.79097 19.857C1.03297 18.77 1.15197 17.537 1.65297 16.18C2.14297 14.852 3.07697 13.198 4.25797 11.103L4.69397 10.331C6.12297 7.796 7.23997 5.815 8.29397 4.476ZM9.47297 5.404C8.49897 6.641 7.43697 8.52 5.96497 11.13L5.60097 11.775C4.37497 13.949 3.50397 15.499 3.06097 16.7C2.62297 17.886 2.68297 18.514 3.02097 19C3.38197 19.516 4.05897 19.87 5.49697 20.06C6.92897 20.248 8.90297 20.25 11.637 20.25H12.364C15.097 20.25 17.071 20.248 18.504 20.06C19.941 19.87 20.618 19.516 20.978 19C21.317 18.514 21.378 17.886 20.94 16.7C20.496 15.499 19.625 13.949 18.399 11.775L18.035 11.13C16.563 8.52 15.501 6.641 14.527 5.404C13.562 4.18 12.813 3.75 12 3.75C11.187 3.75 10.438 4.179 9.47297 5.404Z" fill="black"/>
</g>
<defs>
<clipPath id="clip0_221_16908">
<rect width="24" height="24" fill="white"/>
</clipPath>
</defs>
</svg>
