<svg width="24" height="24" viewBox="0 0 24 24" fill="none" xmlns="http://www.w3.org/2000/svg">
<g clip-path="url(#clip0_221_16661)">
<path fill-rule="evenodd" clip-rule="evenodd" d="M9.875 4.92C9.875 5.353 9.875 5.75 9.918 6.072C9.966 6.428 10.078 6.803 10.388 7.112C10.698 7.421 11.072 7.534 11.428 7.582C11.751 7.625 12.148 7.625 12.58 7.625L18.92 7.625C19.353 7.625 19.75 7.625 20.072 7.582C20.428 7.534 20.803 7.422 21.112 7.112C21.421 6.802 21.534 6.428 21.582 6.072C21.625 5.749 21.625 5.352 21.625 4.92V4.83C21.625 4.397 21.625 4 21.582 3.678C21.534 3.322 21.422 2.947 21.112 2.638C20.802 2.329 20.428 2.216 20.072 2.168C19.749 2.125 19.352 2.125 18.92 2.125L12.58 2.125C12.147 2.125 11.75 2.125 11.428 2.168C11.072 2.216 10.697 2.328 10.388 2.638C10.079 2.948 9.966 3.322 9.918 3.678C9.875 4.001 9.875 4.398 9.875 4.83V4.92ZM11.447 6.05L11.448 6.052L11.451 6.053L11.461 6.058C11.5149 6.07711 11.571 6.08954 11.628 6.095C11.838 6.123 12.132 6.125 12.625 6.125H18.875C19.368 6.125 19.662 6.123 19.872 6.095C19.9326 6.08876 19.9921 6.07464 20.049 6.053L20.052 6.052L20.053 6.049L20.055 6.046L20.058 6.039C20.067 6.017 20.082 5.969 20.095 5.872C20.123 5.662 20.125 5.368 20.125 4.875C20.125 4.382 20.123 4.088 20.095 3.878C20.0888 3.81743 20.0746 3.75792 20.053 3.701L20.052 3.698L20.049 3.697L20.039 3.692C19.9851 3.67289 19.929 3.66046 19.872 3.655C19.662 3.627 19.368 3.625 18.875 3.625L12.625 3.625C12.132 3.625 11.838 3.627 11.628 3.655C11.5674 3.66124 11.5079 3.67536 11.451 3.697L11.448 3.698L11.447 3.701L11.442 3.711C11.4229 3.76495 11.4105 3.82103 11.405 3.878C11.377 4.088 11.375 4.382 11.375 4.875C11.375 5.368 11.377 5.662 11.405 5.872C11.4112 5.93258 11.4254 5.99308 11.447 6.05Z" fill="black"/>
<path fill-rule="evenodd" clip-rule="evenodd" d="M9.875 11.92C9.875 12.353 9.875 12.75 9.918 13.072C9.966 13.428 10.078 13.803 10.388 14.112C10.698 14.421 11.072 14.534 11.428 14.582C11.751 14.625 12.148 14.625 12.58 14.625H18.92C19.353 14.625 19.75 14.625 20.072 14.582C20.428 14.534 20.803 14.422 21.112 14.112C21.421 13.802 21.534 13.428 21.582 13.072C21.625 12.749 21.625 12.352 21.625 11.92V11.83C21.625 11.397 21.625 11 21.582 10.678C21.534 10.322 21.422 9.947 21.112 9.638C20.802 9.329 20.428 9.216 20.072 9.168C19.749 9.125 19.352 9.125 18.92 9.125H12.58C12.147 9.125 11.75 9.125 11.428 9.168C11.072 9.216 10.697 9.328 10.388 9.638C10.079 9.948 9.966 10.322 9.918 10.678C9.875 11.001 9.875 11.398 9.875 11.83V11.92ZM11.447 13.05L11.448 13.052L11.451 13.053L11.461 13.058C11.5149 13.0771 11.571 13.0895 11.628 13.095C11.838 13.123 12.132 13.125 12.625 13.125H18.875C19.368 13.125 19.662 13.123 19.872 13.095C19.9326 13.0888 19.9921 13.0746 20.049 13.053L20.052 13.052L20.053 13.049L20.055 13.046L20.058 13.039C20.067 13.017 20.082 12.969 20.095 12.872C20.123 12.662 20.125 12.368 20.125 11.875C20.125 11.382 20.123 11.088 20.095 10.878C20.0888 10.8174 20.0746 10.7579 20.053 10.701L20.052 10.698L20.049 10.697L20.039 10.692C19.9851 10.6729 19.929 10.6605 19.872 10.655C19.662 10.627 19.368 10.625 18.875 10.625H12.625C12.132 10.625 11.838 10.627 11.628 10.655C11.5674 10.6612 11.5079 10.6754 11.451 10.697L11.448 10.698L11.447 10.701L11.442 10.711C11.4229 10.7649 11.4105 10.821 11.405 10.878C11.377 11.088 11.375 11.382 11.375 11.875C11.375 12.368 11.377 12.662 11.405 12.872C11.4112 12.9326 11.4254 12.9931 11.447 13.05Z" fill="black"/>
<path fill-rule="evenodd" clip-rule="evenodd" d="M9.875 19.045C9.875 19.478 9.875 19.875 9.918 20.197C9.966 20.553 10.078 20.928 10.388 21.237C10.698 21.546 11.072 21.659 11.428 21.707C11.751 21.75 12.148 21.75 12.58 21.75H18.92C19.353 21.75 19.75 21.75 20.072 21.707C20.428 21.659 20.803 21.547 21.112 21.237C21.421 20.927 21.534 20.553 21.582 20.197C21.625 19.874 21.625 19.477 21.625 19.045V18.955C21.625 18.522 21.625 18.125 21.582 17.803C21.534 17.447 21.422 17.072 21.112 16.763C20.802 16.454 20.428 16.341 20.072 16.293C19.749 16.25 19.352 16.25 18.92 16.25H12.58C12.147 16.25 11.75 16.25 11.428 16.293C11.072 16.341 10.697 16.453 10.388 16.763C10.079 17.073 9.966 17.447 9.918 17.803C9.875 18.126 9.875 18.523 9.875 18.955V19.045ZM11.447 20.175L11.448 20.177L11.451 20.178L11.461 20.183C11.5149 20.2021 11.571 20.2145 11.628 20.22C11.838 20.248 12.132 20.25 12.625 20.25H18.875C19.368 20.25 19.662 20.248 19.872 20.22C19.9326 20.2138 19.9921 20.1996 20.049 20.178L20.052 20.177L20.053 20.174L20.055 20.171L20.058 20.164C20.067 20.142 20.082 20.094 20.095 19.997C20.123 19.787 20.125 19.493 20.125 19C20.125 18.507 20.123 18.213 20.095 18.003C20.0888 17.9424 20.0746 17.8829 20.053 17.826L20.052 17.823L20.049 17.822L20.039 17.817C19.9851 17.7979 19.929 17.7855 19.872 17.78C19.662 17.752 19.368 17.75 18.875 17.75H12.625C12.132 17.75 11.838 17.752 11.628 17.78C11.5674 17.7862 11.5079 17.8004 11.451 17.822L11.448 17.823L11.447 17.826L11.442 17.836C11.4229 17.8899 11.4105 17.946 11.405 18.003C11.377 18.213 11.375 18.507 11.375 19C11.375 19.493 11.377 19.787 11.405 19.997C11.4112 20.0576 11.4254 20.1181 11.447 20.175Z" fill="black"/>
<path fill-rule="evenodd" clip-rule="evenodd" d="M2.375 4.92C2.375 5.353 2.375 5.75 2.418 6.072C2.466 6.428 2.578 6.803 2.888 7.112C3.198 7.421 3.572 7.534 3.928 7.582C4.251 7.625 4.648 7.625 5.08 7.625L5.42 7.625C5.853 7.625 6.25 7.625 6.572 7.582C6.928 7.534 7.303 7.422 7.612 7.112C7.921 6.802 8.034 6.428 8.082 6.072C8.125 5.749 8.125 5.352 8.125 4.92V4.83C8.125 4.397 8.125 4 8.082 3.678C8.034 3.322 7.922 2.947 7.612 2.638C7.302 2.329 6.928 2.216 6.572 2.168C6.249 2.125 5.852 2.125 5.42 2.125H5.08C4.647 2.125 4.25 2.125 3.928 2.168C3.572 2.216 3.197 2.328 2.888 2.638C2.579 2.948 2.466 3.322 2.418 3.678C2.375 4.001 2.375 4.398 2.375 4.83V4.92ZM3.947 6.05L3.948 6.052L3.951 6.053L3.961 6.058C4.01494 6.07711 4.07103 6.08954 4.128 6.095C4.338 6.123 4.632 6.125 5.125 6.125H5.375C5.868 6.125 6.162 6.123 6.372 6.095C6.43258 6.08876 6.49208 6.07464 6.549 6.053L6.552 6.052L6.553 6.049L6.555 6.046L6.558 6.039C6.567 6.017 6.582 5.969 6.595 5.872C6.623 5.662 6.625 5.368 6.625 4.875C6.625 4.382 6.623 4.088 6.595 3.878C6.58876 3.81743 6.57464 3.75792 6.553 3.701L6.552 3.698L6.549 3.697L6.539 3.692C6.48505 3.67289 6.42897 3.66046 6.372 3.655C6.162 3.627 5.868 3.625 5.375 3.625H5.125C4.632 3.625 4.338 3.627 4.128 3.655C4.06742 3.66124 4.00792 3.67536 3.951 3.697L3.948 3.698L3.947 3.701L3.942 3.711C3.92289 3.76495 3.91046 3.82103 3.905 3.878C3.877 4.088 3.875 4.382 3.875 4.875C3.875 5.368 3.877 5.662 3.905 5.872C3.91124 5.93258 3.92536 5.99308 3.947 6.05Z" fill="black"/>
<path fill-rule="evenodd" clip-rule="evenodd" d="M2.375 11.92C2.375 12.353 2.375 12.75 2.418 13.072C2.466 13.428 2.578 13.803 2.888 14.112C3.198 14.421 3.572 14.534 3.928 14.582C4.251 14.625 4.648 14.625 5.08 14.625H5.42C5.853 14.625 6.25 14.625 6.572 14.582C6.928 14.534 7.303 14.422 7.612 14.112C7.921 13.802 8.034 13.428 8.082 13.072C8.125 12.749 8.125 12.352 8.125 11.92V11.83C8.125 11.397 8.125 11 8.082 10.678C8.034 10.322 7.922 9.947 7.612 9.638C7.302 9.329 6.928 9.216 6.572 9.168C6.249 9.125 5.852 9.125 5.42 9.125H5.08C4.647 9.125 4.25 9.125 3.928 9.168C3.572 9.216 3.197 9.328 2.888 9.638C2.579 9.948 2.466 10.322 2.418 10.678C2.375 11.001 2.375 11.398 2.375 11.83V11.92ZM3.947 13.05L3.948 13.052L3.951 13.053L3.961 13.058C4.01494 13.0771 4.07103 13.0895 4.128 13.095C4.338 13.123 4.632 13.125 5.125 13.125H5.375C5.868 13.125 6.162 13.123 6.372 13.095C6.43258 13.0888 6.49208 13.0746 6.549 13.053L6.552 13.052L6.553 13.049L6.555 13.046L6.558 13.039C6.567 13.017 6.582 12.969 6.595 12.872C6.623 12.662 6.625 12.368 6.625 11.875C6.625 11.382 6.623 11.088 6.595 10.878C6.58876 10.8174 6.57464 10.7579 6.553 10.701L6.552 10.698L6.549 10.697L6.539 10.692C6.48505 10.6729 6.42897 10.6605 6.372 10.655C6.162 10.627 5.868 10.625 5.375 10.625H5.125C4.632 10.625 4.338 10.627 4.128 10.655C4.06742 10.6612 4.00792 10.6754 3.951 10.697L3.948 10.698L3.947 10.701L3.942 10.711C3.92289 10.7649 3.91046 10.821 3.905 10.878C3.877 11.088 3.875 11.382 3.875 11.875C3.875 12.368 3.877 12.662 3.905 12.872C3.91124 12.9326 3.92536 12.9931 3.947 13.05Z" fill="black"/>
<path fill-rule="evenodd" clip-rule="evenodd" d="M2.375 19.045C2.375 19.478 2.375 19.875 2.418 20.197C2.466 20.553 2.578 20.928 2.888 21.237C3.198 21.546 3.572 21.659 3.928 21.707C4.251 21.75 4.648 21.75 5.08 21.75H5.42C5.853 21.75 6.25 21.75 6.572 21.707C6.928 21.659 7.303 21.547 7.612 21.237C7.921 20.927 8.034 20.553 8.082 20.197C8.125 19.874 8.125 19.477 8.125 19.045V18.955C8.125 18.522 8.125 18.125 8.082 17.803C8.034 17.447 7.922 17.072 7.612 16.763C7.302 16.454 6.928 16.341 6.572 16.293C6.249 16.25 5.852 16.25 5.42 16.25H5.08C4.647 16.25 4.25 16.25 3.928 16.293C3.572 16.341 3.197 16.453 2.888 16.763C2.579 17.073 2.466 17.447 2.418 17.803C2.375 18.126 2.375 18.523 2.375 18.955V19.045ZM3.947 20.175L3.948 20.177L3.951 20.178L3.961 20.183C4.01494 20.2021 4.07103 20.2145 4.128 20.22C4.338 20.248 4.632 20.25 5.125 20.25H5.375C5.868 20.25 6.162 20.248 6.372 20.22C6.43258 20.2138 6.49208 20.1996 6.549 20.178L6.552 20.177L6.553 20.174L6.555 20.171L6.558 20.164C6.567 20.142 6.582 20.094 6.595 19.997C6.623 19.787 6.625 19.493 6.625 19C6.625 18.507 6.623 18.213 6.595 18.003C6.58876 17.9424 6.57464 17.8829 6.553 17.826L6.552 17.823L6.549 17.822L6.539 17.817C6.48505 17.7979 6.42897 17.7855 6.372 17.78C6.162 17.752 5.868 17.75 5.375 17.75H5.125C4.632 17.75 4.338 17.752 4.128 17.78C4.06742 17.7862 4.00792 17.8004 3.951 17.822L3.948 17.823L3.947 17.826L3.942 17.836C3.92289 17.8899 3.91046 17.946 3.905 18.003C3.877 18.213 3.875 18.507 3.875 19C3.875 19.493 3.877 19.787 3.905 19.997C3.91124 20.0576 3.92536 20.1181 3.947 20.175Z" fill="black"/>
</g>
<defs>
<clipPath id="clip0_221_16661">
<rect width="24" height="24" fill="white"/>
</clipPath>
</defs>
</svg>
