<svg width="24" height="24" viewBox="0 0 24 24" fill="none" xmlns="http://www.w3.org/2000/svg">
<g clip-path="url(#clip0_221_16561)">
<path d="M11.03 8.97009C10.8878 8.83761 10.6997 8.76549 10.5054 8.76892C10.3111 8.77234 10.1258 8.85106 9.98835 8.98847C9.85094 9.12588 9.77222 9.31127 9.7688 9.50557C9.76537 9.69987 9.83749 9.88792 9.96997 10.0301L11.94 12.0001L9.96997 13.9701C9.89628 14.0388 9.83718 14.1216 9.79619 14.2136C9.7552 14.3056 9.73316 14.4049 9.73138 14.5056C9.7296 14.6063 9.74813 14.7063 9.78585 14.7997C9.82357 14.8931 9.87971 14.9779 9.95093 15.0491C10.0222 15.1203 10.107 15.1765 10.2004 15.2142C10.2938 15.2519 10.3938 15.2705 10.4945 15.2687C10.5952 15.2669 10.6945 15.2449 10.7865 15.2039C10.8785 15.1629 10.9613 15.1038 11.03 15.0301L13 13.0601L14.97 15.0301C15.1121 15.1626 15.3002 15.2347 15.4945 15.2313C15.6888 15.2278 15.8742 15.1491 16.0116 15.0117C16.149 14.8743 16.2277 14.6889 16.2311 14.4946C16.2346 14.3003 16.1625 14.1123 16.03 13.9701L14.06 12.0001L16.03 10.0301C16.1625 9.88792 16.2346 9.69987 16.2311 9.50557C16.2277 9.31127 16.149 9.12588 16.0116 8.98847C15.8742 8.85106 15.6888 8.77234 15.4945 8.76892C15.3002 8.76549 15.1121 8.83761 14.97 8.97009L13 10.9401L11.03 8.97009Z" fill="black"/>
<path fill-rule="evenodd" clip-rule="evenodd" d="M21.32 4.634C20.554 3.889 19.585 3.56 18.387 3.403C17.219 3.25 15.725 3.25 13.834 3.25H11.106C10.023 3.25 9.158 3.25 8.45 3.316C7.72 3.384 7.1 3.526 6.515 3.841C5.929 4.157 5.475 4.595 5.025 5.165C4.592 5.716 4.133 6.431 3.56 7.323L2.837 8.45C2.359 9.194 1.968 9.802 1.702 10.332C1.424 10.885 1.25 11.412 1.25 12.001C1.25 12.59 1.424 13.117 1.702 13.671C1.968 14.201 2.359 14.808 2.837 15.552L3.56 16.678C4.133 17.57 4.592 18.285 5.026 18.836C5.475 19.406 5.929 19.844 6.516 20.16C7.1 20.475 7.719 20.617 8.45 20.685C9.158 20.751 10.023 20.751 11.106 20.751H13.834C15.725 20.751 17.219 20.751 18.387 20.598C19.585 20.441 20.554 20.112 21.319 19.367C22.087 18.62 22.429 17.669 22.592 16.493C22.75 15.353 22.75 13.895 22.75 12.059V11.943C22.75 10.107 22.75 8.65 22.592 7.509C22.43 6.333 22.087 5.383 21.319 4.635M13.778 4.751C15.736 4.751 17.132 4.753 18.191 4.891C19.231 5.027 19.833 5.283 20.272 5.711C20.708 6.134 20.967 6.712 21.106 7.715C21.247 8.741 21.249 10.094 21.249 12.001C21.249 13.908 21.247 15.261 21.106 16.287C20.967 17.29 20.708 17.867 20.272 18.292C19.833 18.719 19.231 18.975 18.191 19.111C17.131 19.25 15.736 19.251 13.778 19.251H11.141C10.014 19.251 9.219 19.251 8.588 19.191C7.973 19.134 7.571 19.026 7.226 18.839C6.882 18.654 6.576 18.382 6.203 17.907C5.819 17.42 5.399 16.767 4.801 15.836L4.12 14.776C3.615 13.989 3.268 13.448 3.042 12.997C2.823 12.562 2.749 12.272 2.749 12.001C2.749 11.73 2.823 11.44 3.042 11.005C3.268 10.555 3.615 10.013 4.12 9.226L4.8 8.166C5.399 7.236 5.82 6.582 6.203 6.095C6.577 5.62 6.883 5.348 7.226 5.163C7.571 4.976 7.973 4.868 8.588 4.81C9.218 4.752 10.014 4.751 11.141 4.751H13.778Z" fill="black"/>
</g>
<defs>
<clipPath id="clip0_221_16561">
<rect width="24" height="24" fill="white"/>
</clipPath>
</defs>
</svg>
