<svg width="24" height="24" viewBox="0 0 24 24" fill="none" xmlns="http://www.w3.org/2000/svg">
<g clip-path="url(#clip0_221_16270)">
<path fill-rule="evenodd" clip-rule="evenodd" d="M12 1.25C6.063 1.25 1.25 6.063 1.25 12C1.25 17.937 6.063 22.75 12 22.75C17.937 22.75 22.75 17.937 22.75 12C22.75 6.063 17.937 1.25 12 1.25ZM2.75 12C2.75 9.54675 3.72455 7.19397 5.45926 5.45926C7.19397 3.72455 9.54675 2.75 12 2.75C14.284 2.75 16.376 3.578 17.99 4.95L17.97 4.97L4.97 17.97L4.95 17.99C3.52552 16.3197 2.74522 14.1952 2.75 12ZM6.01 19.05C7.78027 20.5585 10.0539 21.3448 12.3779 21.2522C14.7019 21.1596 16.9057 20.1949 18.5503 18.5503C20.1949 16.9057 21.1596 14.7019 21.2522 12.3779C21.3448 10.0539 20.5585 7.78027 19.05 6.01L19.031 6.03L6.031 19.03L6.01 19.05Z" fill="black"/>
</g>
<defs>
<clipPath id="clip0_221_16270">
<rect width="24" height="24" fill="white"/>
</clipPath>
</defs>
</svg>
