<svg width="24" height="24" viewBox="0 0 24 24" fill="none" xmlns="http://www.w3.org/2000/svg">
<g clip-path="url(#clip0_221_16914)">
<path d="M12 7.74993C11.379 7.74993 10.875 8.25393 10.875 8.87493C10.875 9.07385 10.796 9.26461 10.6553 9.40526C10.5147 9.54591 10.3239 9.62493 10.125 9.62493C9.92609 9.62493 9.73532 9.54591 9.59467 9.40526C9.45402 9.26461 9.375 9.07385 9.375 8.87493C9.37497 8.41525 9.49565 7.96361 9.72498 7.56521C9.95431 7.16681 10.2842 6.83562 10.6817 6.60477C11.0793 6.37392 11.5304 6.2515 11.9901 6.24977C12.4498 6.24804 12.9019 6.36706 13.3011 6.59491C13.7004 6.82276 14.0328 7.15146 14.2651 7.54812C14.4974 7.94478 14.6215 8.3955 14.6249 8.85517C14.6284 9.31484 14.511 9.76736 14.2846 10.1674C14.0583 10.5675 13.7308 10.9011 13.335 11.1349C13.1616 11.2328 13.0047 11.3573 12.87 11.5039C12.768 11.6239 12.75 11.7039 12.75 11.7499V12.9999C12.75 13.1988 12.671 13.3896 12.5303 13.5303C12.3897 13.6709 12.1989 13.7499 12 13.7499C11.8011 13.7499 11.6103 13.6709 11.4697 13.5303C11.329 13.3896 11.25 13.1988 11.25 12.9999V11.7499C11.25 11.2439 11.472 10.8339 11.727 10.5329C11.979 10.2359 12.293 10.0089 12.572 9.84393C12.7853 9.71904 12.9516 9.5273 13.0449 9.2984C13.1383 9.0695 13.1536 8.81621 13.0884 8.57774C13.0233 8.33927 12.8813 8.12893 12.6846 7.97928C12.4878 7.82963 12.2472 7.74902 12 7.74993ZM12 16.9999C12.2652 16.9999 12.5196 16.8946 12.7071 16.707C12.8946 16.5195 13 16.2652 13 15.9999C13 15.7347 12.8946 15.4804 12.7071 15.2928C12.5196 15.1053 12.2652 14.9999 12 14.9999C11.7348 14.9999 11.4804 15.1053 11.2929 15.2928C11.1054 15.4804 11 15.7347 11 15.9999C11 16.2652 11.1054 16.5195 11.2929 16.707C11.4804 16.8946 11.7348 16.9999 12 16.9999Z" fill="black"/>
<path fill-rule="evenodd" clip-rule="evenodd" d="M11.943 1.25H12.057C14.366 1.25 16.175 1.25 17.587 1.44C19.031 1.634 20.171 2.04 21.066 2.934C21.961 3.829 22.366 4.969 22.56 6.414C22.75 7.825 22.75 9.634 22.75 11.943V12.057C22.75 14.366 22.75 16.175 22.56 17.587C22.366 19.031 21.96 20.171 21.066 21.066C20.171 21.961 19.031 22.366 17.586 22.56C16.175 22.75 14.366 22.75 12.057 22.75H11.943C9.634 22.75 7.825 22.75 6.413 22.56C4.969 22.366 3.829 21.96 2.934 21.066C2.039 20.171 1.634 19.031 1.44 17.586C1.25 16.175 1.25 14.366 1.25 12.057V11.943C1.25 9.634 1.25 7.825 1.44 6.413C1.634 4.969 2.04 3.829 2.934 2.934C3.829 2.039 4.969 1.634 6.414 1.44C7.825 1.25 9.634 1.25 11.943 1.25ZM6.613 2.926C5.335 3.098 4.564 3.426 3.995 3.995C3.425 4.565 3.098 5.335 2.926 6.614C2.752 7.914 2.75 9.622 2.75 12C2.75 14.378 2.752 16.086 2.926 17.386C3.098 18.665 3.426 19.436 3.995 20.006C4.565 20.575 5.335 20.902 6.614 21.074C7.914 21.248 9.622 21.25 12 21.25C14.378 21.25 16.086 21.248 17.386 21.074C18.665 20.902 19.436 20.574 20.006 20.005C20.575 19.435 20.902 18.665 21.074 17.386C21.248 16.086 21.25 14.378 21.25 12C21.25 9.622 21.248 7.914 21.074 6.614C20.902 5.335 20.574 4.564 20.005 3.994C19.435 3.425 18.665 3.098 17.386 2.926C16.086 2.752 14.378 2.75 12 2.75C9.622 2.75 7.913 2.752 6.613 2.926Z" fill="black"/>
</g>
<defs>
<clipPath id="clip0_221_16914">
<rect width="24" height="24" fill="white"/>
</clipPath>
</defs>
</svg>
