<svg width="24" height="24" viewBox="0 0 24 24" fill="none" xmlns="http://www.w3.org/2000/svg">
<g clip-path="url(#clip0_221_16235)">
<path fill-rule="evenodd" clip-rule="evenodd" d="M12 2.75C9.54675 2.75 7.19397 3.72455 5.45926 5.45926C3.72455 7.19397 2.75 9.54675 2.75 12C2.75 14.4533 3.72455 16.806 5.45926 18.5407C7.19397 20.2754 9.54675 21.25 12 21.25C14.4533 21.25 16.806 20.2754 18.5407 18.5407C20.2754 16.806 21.25 14.4533 21.25 12C21.25 9.54675 20.2754 7.19397 18.5407 5.45926C16.806 3.72455 14.4533 2.75 12 2.75ZM1.25 12C1.25 6.063 6.063 1.25 12 1.25C17.937 1.25 22.75 6.063 22.75 12C22.75 17.937 17.937 22.75 12 22.75C6.063 22.75 1.25 17.937 1.25 12ZM12 7.25C12.1989 7.25 12.3897 7.32902 12.5303 7.46967C12.671 7.61032 12.75 7.80109 12.75 8V14.19L14.47 12.47C14.5387 12.3963 14.6215 12.3372 14.7135 12.2962C14.8055 12.2552 14.9048 12.2332 15.0055 12.2314C15.1062 12.2296 15.2062 12.2482 15.2996 12.2859C15.393 12.3236 15.4778 12.3797 15.549 12.451C15.6203 12.5222 15.6764 12.607 15.7141 12.7004C15.7518 12.7938 15.7704 12.8938 15.7686 12.9945C15.7668 13.0952 15.7448 13.1945 15.7038 13.2865C15.6628 13.3785 15.6037 13.4613 15.53 13.53L12.53 16.53C12.3894 16.6705 12.1988 16.7493 12 16.7493C11.8012 16.7493 11.6106 16.6705 11.47 16.53L8.47 13.53C8.39631 13.4613 8.33721 13.3785 8.29622 13.2865C8.25523 13.1945 8.23318 13.0952 8.23141 12.9945C8.22963 12.8938 8.24816 12.7938 8.28588 12.7004C8.3236 12.607 8.37974 12.5222 8.45096 12.451C8.52218 12.3797 8.60701 12.3236 8.7004 12.2859C8.79379 12.2482 8.89382 12.2296 8.99452 12.2314C9.09522 12.2332 9.19454 12.2552 9.28654 12.2962C9.37854 12.3372 9.46134 12.3963 9.53 12.47L11.25 14.19V8C11.25 7.80109 11.329 7.61032 11.4697 7.46967C11.6103 7.32902 11.8011 7.25 12 7.25Z" fill="black"/>
</g>
<defs>
<clipPath id="clip0_221_16235">
<rect width="24" height="24" fill="white"/>
</clipPath>
</defs>
</svg>
