<svg width="24" height="24" viewBox="0 0 24 24" fill="none" xmlns="http://www.w3.org/2000/svg">
<g clip-path="url(#clip0_221_16225)">
<path fill-rule="evenodd" clip-rule="evenodd" d="M12 2.75C9.54675 2.75 7.19397 3.72455 5.45926 5.45926C3.72455 7.19397 2.75 9.54675 2.75 12C2.75 14.4533 3.72455 16.806 5.45926 18.5407C7.19397 20.2754 9.54675 21.25 12 21.25C14.4533 21.25 16.806 20.2754 18.5407 18.5407C20.2754 16.806 21.25 14.4533 21.25 12C21.25 9.54675 20.2754 7.19397 18.5407 5.45926C16.806 3.72455 14.4533 2.75 12 2.75ZM1.25 12C1.25 6.063 6.063 1.25 12 1.25C17.937 1.25 22.75 6.063 22.75 12C22.75 17.937 17.937 22.75 12 22.75C6.063 22.75 1.25 17.937 1.25 12ZM8.47 10.47L11.47 7.47C11.6106 7.32955 11.8012 7.25066 12 7.25066C12.1988 7.25066 12.3894 7.32955 12.53 7.47L15.53 10.47C15.6037 10.5387 15.6628 10.6215 15.7038 10.7135C15.7448 10.8055 15.7668 10.9048 15.7686 11.0055C15.7704 11.1062 15.7518 11.2062 15.7141 11.2996C15.6764 11.393 15.6203 11.4778 15.549 11.549C15.4778 11.6203 15.393 11.6764 15.2996 11.7141C15.2062 11.7518 15.1062 11.7704 15.0055 11.7686C14.9048 11.7668 14.8055 11.7448 14.7135 11.7038C14.6215 11.6628 14.5387 11.6037 14.47 11.53L12.75 9.81V16C12.75 16.1989 12.671 16.3897 12.5303 16.5303C12.3897 16.671 12.1989 16.75 12 16.75C11.8011 16.75 11.6103 16.671 11.4697 16.5303C11.329 16.3897 11.25 16.1989 11.25 16V9.81L9.53 11.53C9.38783 11.6625 9.19978 11.7346 9.00548 11.7312C8.81118 11.7277 8.62579 11.649 8.48838 11.5116C8.35097 11.3742 8.27225 11.1888 8.26882 10.9945C8.2654 10.8002 8.33752 10.6122 8.47 10.47Z" fill="black"/>
</g>
<defs>
<clipPath id="clip0_221_16225">
<rect width="24" height="24" fill="white"/>
</clipPath>
</defs>
</svg>
