<svg width="24" height="24" viewBox="0 0 24 24" fill="none" xmlns="http://www.w3.org/2000/svg">
<g clip-path="url(#clip0_221_16857)">
<g clip-path="url(#clip1_221_16857)">
<path d="M6.0562 5.00013C5.91554 4.85948 5.72478 4.78046 5.52587 4.78046C5.32695 4.78046 5.13619 4.85948 4.99554 5.00013C4.85488 5.14078 4.77587 5.33155 4.77587 5.53046C4.77587 5.72937 4.85489 5.92014 4.99554 6.06079L10.9364 12.0016L4.99996 17.9319C4.85931 18.0726 4.78029 18.2633 4.78029 18.4622C4.78029 18.6612 4.85931 18.8519 4.99996 18.9926C5.14061 19.1332 5.33138 19.2122 5.53029 19.2122C5.7292 19.2122 5.91997 19.1332 6.06062 18.9926L11.9971 13.0623L17.9393 19.0045C18.08 19.1451 18.2708 19.2241 18.4697 19.2241C18.6686 19.2241 18.8593 19.1451 19 19.0045C19.1407 18.8638 19.2197 18.673 19.2197 18.4741C19.2197 18.2752 19.1407 18.0844 19 17.9438L13.0577 12.0016L18.9986 6.06073C19.1392 5.92008 19.2183 5.72931 19.2183 5.5304C19.2183 5.33149 19.1392 5.14072 18.9986 5.00007C18.8579 4.85942 18.6672 4.7804 18.4683 4.7804C18.2693 4.7804 18.0786 4.85942 17.9379 5.00007L11.9971 10.9409L6.0562 5.00013Z" fill="black"/>
</g>
</g>
<defs>
<clipPath id="clip0_221_16857">
<rect width="24" height="24" fill="white"/>
</clipPath>
<clipPath id="clip1_221_16857">
<rect width="24" height="24" fill="white"/>
</clipPath>
</defs>
</svg>
