<svg width="24" height="24" viewBox="0 0 24 24" fill="none" xmlns="http://www.w3.org/2000/svg">
<g clip-path="url(#clip0_221_17169)">
<path d="M1.32627 18.2825L12.0463 7.5625C12.0463 7.5525 12.0363 7.5525 12.0363 7.5525C12.0263 7.5425 12.0263 7.5425 12.0263 7.5425L22.7463 18.2525C23.0363 18.5425 23.5063 18.5425 23.8063 18.2425C24.0963 17.9425 24.0963 17.4725 23.7963 17.1725L13.0763 6.4525C13.0663 6.4425 13.0663 6.4425 13.0663 6.4425C12.4763 5.8525 11.5263 5.8525 10.9463 6.4425L0.226266 17.1525C-0.0737341 17.4425 -0.0737341 17.9125 0.216266 18.2125C0.506266 18.5025 0.976266 18.5025 1.27627 18.2125L1.32627 18.2825Z" fill="black"/>
</g>
<defs>
<clipPath id="clip0_221_17169">
<rect width="24" height="24" fill="white"/>
</clipPath>
</defs>
</svg>
