<svg width="24" height="24" viewBox="0 0 24 24" fill="none" xmlns="http://www.w3.org/2000/svg">
<g clip-path="url(#clip0_221_16734)">
<path fill-rule="evenodd" clip-rule="evenodd" d="M15.2493 5.5001C15.3898 5.64073 15.4687 5.83135 15.4687 6.0301C15.4687 6.22885 15.3898 6.41948 15.2493 6.5601L9.80934 12L15.2494 17.44C15.3231 17.5087 15.3822 17.5915 15.4232 17.6835C15.4642 17.7755 15.4862 17.8748 15.488 17.9755C15.4898 18.0762 15.4712 18.1762 15.4335 18.2696C15.3958 18.363 15.3397 18.4478 15.2684 18.519C15.1972 18.5903 15.1124 18.6464 15.019 18.6841C14.9256 18.7218 14.8256 18.7404 14.7249 18.7386C14.6242 18.7368 14.5249 18.7148 14.4329 18.6738C14.3409 18.6328 14.2581 18.5737 14.1894 18.5L8.21934 12.53C8.07889 12.3893 8 12.1987 8 12C8 11.8012 8.07889 11.6106 8.21934 11.47L14.1893 5.5001C14.33 5.35965 14.5206 5.28076 14.7193 5.28076C14.9181 5.28076 15.1087 5.35965 15.2493 5.5001Z" fill="black"/>
</g>
<defs>
<clipPath id="clip0_221_16734">
<rect width="24" height="24" fill="white"/>
</clipPath>
</defs>
</svg>
