<svg width="24" height="24" viewBox="0 0 24 24" fill="none" xmlns="http://www.w3.org/2000/svg">
<g clip-path="url(#clip0_221_16302)">
<path fill-rule="evenodd" clip-rule="evenodd" d="M5 1.25C5.19891 1.25 5.38968 1.32902 5.53033 1.46967C5.67098 1.61032 5.75 1.80109 5.75 2V11C5.75 12.907 5.752 14.262 5.89 15.29C6.025 16.295 6.279 16.875 6.702 17.298C7.125 17.721 7.705 17.975 8.711 18.11C9.739 18.248 11.093 18.25 13 18.25H22C22.1989 18.25 22.3897 18.329 22.5303 18.4697C22.671 18.6103 22.75 18.8011 22.75 19C22.75 19.1989 22.671 19.3897 22.5303 19.5303C22.3897 19.671 22.1989 19.75 22 19.75H19.75V22C19.75 22.1989 19.671 22.3897 19.5303 22.5303C19.3897 22.671 19.1989 22.75 19 22.75C18.8011 22.75 18.6103 22.671 18.4697 22.5303C18.329 22.3897 18.25 22.1989 18.25 22V19.75H12.944C11.106 19.75 9.65 19.75 8.511 19.597C7.339 19.439 6.39 19.107 5.641 18.359C4.893 17.61 4.561 16.661 4.403 15.489C4.25 14.349 4.25 12.894 4.25 11.056V5.75H2C1.80109 5.75 1.61032 5.67098 1.46967 5.53033C1.32902 5.38968 1.25 5.19891 1.25 5C1.25 4.80109 1.32902 4.61032 1.46967 4.46967C1.61032 4.32902 1.80109 4.25 2 4.25H4.25V2C4.25 1.80109 4.32902 1.61032 4.46967 1.46967C4.61032 1.32902 4.80109 1.25 5 1.25ZM15.29 5.89C14.262 5.752 12.907 5.75 11 5.75H8C7.80109 5.75 7.61032 5.67098 7.46967 5.53033C7.32902 5.38968 7.25 5.19891 7.25 5C7.25 4.80109 7.32902 4.61032 7.46967 4.46967C7.61032 4.32902 7.80109 4.25 8 4.25H11.056C12.894 4.25 14.35 4.25 15.489 4.403C16.661 4.561 17.61 4.893 18.359 5.641C19.107 6.39 19.439 7.339 19.597 8.511C19.75 9.651 19.75 11.106 19.75 12.944V16C19.75 16.1989 19.671 16.3897 19.5303 16.5303C19.3897 16.671 19.1989 16.75 19 16.75C18.8011 16.75 18.6103 16.671 18.4697 16.5303C18.329 16.3897 18.25 16.1989 18.25 16V13C18.25 11.093 18.248 9.739 18.11 8.71C17.975 7.705 17.721 7.125 17.298 6.702C16.875 6.279 16.295 6.025 15.289 5.89" fill="black"/>
</g>
<defs>
<clipPath id="clip0_221_16302">
<rect width="24" height="24" fill="white"/>
</clipPath>
</defs>
</svg>
