<svg width="24" height="24" viewBox="0 0 24 24" fill="none" xmlns="http://www.w3.org/2000/svg">
<g clip-path="url(#clip0_221_17137)">
<path d="M16.03 10.0299C16.1037 9.96125 16.1628 9.87845 16.2038 9.78645C16.2448 9.69445 16.2668 9.59513 16.2686 9.49443C16.2704 9.39373 16.2518 9.2937 16.2141 9.20031C16.1764 9.10692 16.1203 9.02209 16.049 8.95087C15.9778 8.87965 15.893 8.82351 15.7996 8.78579C15.7062 8.74807 15.6062 8.72954 15.5055 8.73132C15.4048 8.73309 15.3055 8.75514 15.2135 8.79613C15.1215 8.83712 15.0387 8.89622 14.97 8.96991L10.5 13.4399L9.03 11.9699C8.88782 11.8374 8.69978 11.7653 8.50548 11.7687C8.31118 11.7722 8.12579 11.8509 7.98838 11.9883C7.85096 12.1257 7.77225 12.3111 7.76882 12.5054C7.7654 12.6997 7.83752 12.8877 7.97 13.0299L9.97 15.0299C10.1106 15.1704 10.3012 15.2493 10.5 15.2493C10.6987 15.2493 10.8894 15.1704 11.03 15.0299L16.03 10.0299Z" fill="black"/>
<path fill-rule="evenodd" clip-rule="evenodd" d="M12.057 1.25H11.943C9.634 1.25 7.825 1.25 6.413 1.44C4.969 1.634 3.829 2.04 2.934 2.934C2.039 3.829 1.634 4.969 1.44 6.414C1.25 7.825 1.25 9.634 1.25 11.943V12.057C1.25 14.366 1.25 16.175 1.44 17.587C1.634 19.031 2.04 20.171 2.934 21.066C3.829 21.961 4.969 22.366 6.414 22.56C7.825 22.75 9.634 22.75 11.943 22.75H12.057C14.366 22.75 16.175 22.75 17.587 22.56C19.031 22.366 20.171 21.96 21.066 21.066C21.961 20.171 22.366 19.031 22.56 17.586C22.75 16.175 22.75 14.366 22.75 12.057V11.943C22.75 9.634 22.75 7.825 22.56 6.413C22.366 4.969 21.96 3.829 21.066 2.934C20.171 2.039 19.031 1.634 17.586 1.44C16.175 1.25 14.366 1.25 12.057 1.25ZM3.995 3.995C4.565 3.425 5.335 3.098 6.614 2.926C7.914 2.752 9.622 2.75 12 2.75C14.378 2.75 16.086 2.752 17.386 2.926C18.665 3.098 19.436 3.426 20.006 3.995C20.575 4.565 20.902 5.335 21.074 6.614C21.248 7.914 21.25 9.622 21.25 12C21.25 14.378 21.248 16.086 21.074 17.386C20.902 18.665 20.574 19.436 20.005 20.006C19.435 20.575 18.665 20.902 17.386 21.074C16.086 21.248 14.378 21.25 12 21.25C9.622 21.25 7.914 21.248 6.614 21.074C5.335 20.902 4.564 20.574 3.994 20.005C3.425 19.435 3.098 18.665 2.926 17.386C2.752 16.086 2.75 14.378 2.75 12C2.75 9.622 2.752 7.914 2.926 6.614C3.098 5.335 3.426 4.565 3.995 3.995Z" fill="black"/>
</g>
<defs>
<clipPath id="clip0_221_17137">
<rect width="24" height="24" fill="white"/>
</clipPath>
</defs>
</svg>
