<svg width="24" height="24" viewBox="0 0 24 24" fill="none" xmlns="http://www.w3.org/2000/svg">
<g clip-path="url(#clip0_221_17027)">
<path d="M13.4525 4.51021C13.183 4.19572 12.7095 4.1593 12.395 4.42886C12.0805 4.69843 12.0441 5.1719 12.3137 5.4864L17.8953 11.9983L12.3137 18.5102C12.0441 18.8247 12.0805 19.2982 12.395 19.5677C12.7095 19.8373 13.183 19.8009 13.4525 19.4864L19.4525 12.4864C19.6933 12.2055 19.6933 11.7911 19.4525 11.5102L13.4525 4.51021Z" fill="black"/>
<path d="M5.05746 4.25225C4.85926 4.23687 4.66307 4.30081 4.51199 4.43002L4.51099 4.43102C4.36032 4.56064 4.26726 4.74478 4.25226 4.94296C4.23726 5.14115 4.30154 5.33719 4.43099 5.48802L10.012 12L4.43099 18.512C4.30912 18.6638 4.25106 18.8571 4.26909 19.051C4.28712 19.2448 4.37983 19.4241 4.52761 19.5508C4.67539 19.6776 4.86667 19.7419 5.061 19.7301C5.25534 19.7184 5.4375 19.6316 5.56899 19.488L11.569 12.488C11.6855 12.3521 11.7495 12.179 11.7495 12C11.7495 11.821 11.6855 11.6479 11.569 11.512L5.56899 4.51202C5.43964 4.36106 5.25566 4.26762 5.05746 4.25225Z" fill="black"/>
<path d="M8.76624 4.28755C8.67256 4.31814 8.58582 4.36689 8.51099 4.43102H8.51299C8.36217 4.5605 8.26893 4.74456 8.25374 4.94276C8.23855 5.14095 8.30266 5.33707 8.43199 5.48802L14.013 12L8.42899 18.513C8.29956 18.6642 8.23549 18.8606 8.25087 19.059C8.26625 19.2574 8.35982 19.4416 8.51099 19.571C8.66216 19.7004 8.85856 19.7645 9.05697 19.7491C9.25538 19.7338 9.43956 19.6402 9.56899 19.489L15.569 12.489C15.6855 12.3531 15.7495 12.18 15.7495 12.001C15.7495 11.822 15.6855 11.6489 15.569 11.513L9.56899 4.51302C9.50493 4.43812 9.42674 4.37659 9.33889 4.33193C9.25103 4.28727 9.15524 4.26037 9.05698 4.25275C8.95873 4.24514 8.85993 4.25696 8.76624 4.28755Z" fill="black"/>
</g>
<defs>
<clipPath id="clip0_221_17027">
<rect width="24" height="24" fill="white"/>
</clipPath>
</defs>
</svg>
