<svg width="24" height="24" viewBox="0 0 24 24" fill="none" xmlns="http://www.w3.org/2000/svg">
<g clip-path="url(#clip0_221_16938)">
<path fill-rule="evenodd" clip-rule="evenodd" d="M2.75 12C2.75 14.4533 3.72455 16.806 5.45926 18.5407C7.19397 20.2755 9.54675 21.25 12 21.25C14.4533 21.25 16.806 20.2755 18.5407 18.5407C20.2754 16.806 21.25 14.4533 21.25 12C21.25 9.54675 20.2754 7.19398 18.5407 5.45927C16.806 3.72455 14.4533 2.75 12 2.75C9.54675 2.75 7.19398 3.72455 5.45926 5.45926C3.72455 7.19397 2.75 9.54675 2.75 12ZM12 22.75C6.063 22.75 1.25 17.937 1.25 12C1.25 6.063 6.063 1.25 12 1.25C17.937 1.25 22.75 6.063 22.75 12C22.75 17.937 17.937 22.75 12 22.75Z" fill="black"/>
<path fill-rule="evenodd" clip-rule="evenodd" d="M5.66484 9.61139C5.94013 9.3019 6.4142 9.27417 6.72369 9.54946L11.7598 14.0291L17.1524 9.44678C17.4681 9.17856 17.9414 9.21701 18.2096 9.53266C18.4778 9.8483 18.4394 10.3216 18.1237 10.5898L11.7373 16.0166L5.72677 10.6702C5.41727 10.3949 5.38955 9.92088 5.66484 9.61139Z" fill="black"/>
</g>
<defs>
<clipPath id="clip0_221_16938">
<rect width="24" height="24" fill="white"/>
</clipPath>
</defs>
</svg>
