<svg width="24" height="24" viewBox="0 0 24 24" fill="none" xmlns="http://www.w3.org/2000/svg">
<g clip-path="url(#clip0_221_16516)">
<path fill-rule="evenodd" clip-rule="evenodd" d="M12 15.25C12.1989 15.25 12.3897 15.329 12.5303 15.4697C12.671 15.6103 12.75 15.8011 12.75 16V20.19L13.47 19.47C13.5387 19.3963 13.6215 19.3372 13.7135 19.2962C13.8055 19.2552 13.9048 19.2332 14.0055 19.2314C14.1062 19.2296 14.2062 19.2482 14.2996 19.2859C14.393 19.3236 14.4778 19.3797 14.549 19.451C14.6203 19.5222 14.6764 19.607 14.7141 19.7004C14.7518 19.7938 14.7704 19.8938 14.7686 19.9945C14.7668 20.0952 14.7448 20.1945 14.7038 20.2865C14.6628 20.3785 14.6037 20.4613 14.53 20.53L12.53 22.53C12.3894 22.6705 12.1988 22.7493 12 22.7493C11.8013 22.7493 11.6106 22.6705 11.47 22.53L9.47 20.53C9.39631 20.4613 9.33721 20.3785 9.29622 20.2865C9.25523 20.1945 9.23319 20.0952 9.23141 19.9945C9.22963 19.8938 9.24816 19.7938 9.28588 19.7004C9.3236 19.607 9.37974 19.5222 9.45096 19.451C9.52218 19.3797 9.60702 19.3236 9.7004 19.2859C9.79379 19.2482 9.89382 19.2296 9.99452 19.2314C10.0952 19.2332 10.1945 19.2552 10.2865 19.2962C10.3785 19.3372 10.4613 19.3963 10.53 19.47L11.25 20.19V16C11.25 15.8011 11.329 15.6103 11.4697 15.4697C11.6103 15.329 11.8011 15.25 12 15.25Z" fill="black"/>
<path d="M12.226 3.5C9.476 3.5 7.262 5.7 7.262 8.397C7.262 8.859 7.327 9.306 7.447 9.728C7.944 9.872 8.41 10.088 8.83 10.368C8.91639 10.4203 8.99132 10.4896 9.0503 10.5716C9.10927 10.6536 9.15108 10.7466 9.1732 10.8452C9.19533 10.9438 9.19732 11.0458 9.17906 11.1451C9.16079 11.2444 9.12265 11.3391 9.06692 11.4233C9.01118 11.5076 8.93901 11.5797 8.85472 11.6353C8.77044 11.691 8.67578 11.7291 8.57642 11.7472C8.47706 11.7654 8.37506 11.7633 8.27652 11.7411C8.17799 11.7189 8.08495 11.677 8.003 11.618C7.41992 11.2317 6.73546 11.0267 6.036 11.029C4.075 11.029 2.5 12.599 2.5 14.515C2.5 16.431 4.075 18 6.036 18C6.23491 18 6.42568 18.079 6.56633 18.2197C6.70698 18.3603 6.786 18.5511 6.786 18.75C6.786 18.9489 6.70698 19.1397 6.56633 19.2803C6.42568 19.421 6.23491 19.5 6.036 19.5C3.263 19.5 1 17.276 1 14.515C1 11.81 3.17 9.622 5.864 9.532C5.79632 9.15745 5.76218 8.77761 5.762 8.397C5.762 4.856 8.664 2 12.226 2C15.384 2 18.022 4.244 18.581 7.221C20.881 8.198 22.5 10.459 22.5 13.103C22.5 16.177 20.312 18.734 17.407 19.356C17.2125 19.3976 17.0094 19.3603 16.8424 19.2522C16.6754 19.1441 16.5581 18.974 16.5165 18.7795C16.4749 18.585 16.5122 18.3819 16.6203 18.2149C16.7284 18.0479 16.8985 17.9306 17.093 17.889C19.333 17.409 21 15.443 21 13.103C21 10.966 19.61 9.141 17.662 8.475C17.1387 8.29567 16.5892 8.20443 16.036 8.205C15.453 8.205 14.896 8.305 14.378 8.485C14.1914 8.54593 13.9883 8.53126 13.8124 8.44415C13.6365 8.35704 13.5017 8.20443 13.4371 8.01909C13.3724 7.83374 13.383 7.63043 13.4666 7.4528C13.5501 7.27516 13.7 7.13737 13.884 7.069C14.8537 6.72978 15.8901 6.62526 16.908 6.764C16.5587 5.80402 15.9215 4.97531 15.0835 4.3911C14.2455 3.80689 13.2475 3.49568 12.226 3.5Z" fill="black"/>
</g>
<defs>
<clipPath id="clip0_221_16516">
<rect width="24" height="24" fill="white"/>
</clipPath>
</defs>
</svg>
