<svg width="24" height="24" viewBox="0 0 24 24" fill="none" xmlns="http://www.w3.org/2000/svg">
<g clip-path="url(#clip0_221_16920)">
<path fill-rule="evenodd" clip-rule="evenodd" d="M12 2.75C9.54675 2.75 7.19397 3.72455 5.45926 5.45926C3.72455 7.19397 2.75 9.54675 2.75 12C2.75 14.4533 3.72455 16.806 5.45926 18.5407C7.19397 20.2754 9.54675 21.25 12 21.25C14.4533 21.25 16.806 20.2754 18.5407 18.5407C20.2754 16.806 21.25 14.4533 21.25 12C21.25 9.54675 20.2754 7.19397 18.5407 5.45926C16.806 3.72455 14.4533 2.75 12 2.75ZM1.25 12C1.25 6.063 6.063 1.25 12 1.25C17.937 1.25 22.75 6.063 22.75 12C22.75 17.937 17.937 22.75 12 22.75C6.063 22.75 1.25 17.937 1.25 12Z" fill="black"/>
<path fill-rule="evenodd" clip-rule="evenodd" d="M14.031 5.72868C14.3405 6.00398 14.3682 6.47804 14.0929 6.78753L9.61332 11.8237L14.1956 17.2163C14.4638 17.5319 14.4254 18.0052 14.1097 18.2734C13.7941 18.5417 13.3208 18.5032 13.0526 18.1876L7.62579 11.8012L12.9722 5.79061C13.2474 5.48111 13.7215 5.45339 14.031 5.72868Z" fill="black"/>
</g>
<defs>
<clipPath id="clip0_221_16920">
<rect width="24" height="24" fill="white"/>
</clipPath>
</defs>
</svg>
