<svg width="24" height="24" viewBox="0 0 24 24" fill="none" xmlns="http://www.w3.org/2000/svg">
<g clip-path="url(#clip0_221_16365)">
<path d="M5.52997 4.46991C5.3878 4.33743 5.19975 4.26531 5.00545 4.26873C4.81115 4.27216 4.62576 4.35088 4.48835 4.48829C4.35094 4.6257 4.27222 4.81109 4.2688 5.00539C4.26537 5.19969 4.33749 5.38773 4.46997 5.52991L10.94 11.9999L4.46997 18.4699C4.39628 18.5386 4.33718 18.6214 4.29619 18.7134C4.2552 18.8054 4.23316 18.9047 4.23138 19.0054C4.2296 19.1061 4.24813 19.2061 4.28585 19.2995C4.32357 19.3929 4.37971 19.4777 4.45093 19.5489C4.52215 19.6202 4.60698 19.6763 4.70037 19.714C4.79376 19.7518 4.89379 19.7703 4.99449 19.7685C5.0952 19.7667 5.19451 19.7447 5.28651 19.7037C5.37851 19.6627 5.46131 19.6036 5.52997 19.5299L12 13.0599L18.47 19.5299C18.6121 19.6624 18.8002 19.7345 18.9945 19.7311C19.1888 19.7277 19.3742 19.6489 19.5116 19.5115C19.649 19.3741 19.7277 19.1887 19.7311 18.9944C19.7346 18.8001 19.6624 18.6121 19.53 18.4699L13.06 11.9999L19.53 5.52991C19.6037 5.46125 19.6628 5.37845 19.7038 5.28645C19.7447 5.19445 19.7668 5.09513 19.7686 4.99443C19.7703 4.89373 19.7518 4.7937 19.7141 4.70031C19.6764 4.60692 19.6202 4.52209 19.549 4.45087C19.4778 4.37965 19.393 4.32351 19.2996 4.28579C19.2062 4.24807 19.1062 4.22954 19.0054 4.23132C18.9047 4.23309 18.8054 4.25514 18.7134 4.29613C18.6214 4.33712 18.5386 4.39622 18.47 4.46991L12 10.9399L5.52997 4.46991Z" fill="black"/>
</g>
<defs>
<clipPath id="clip0_221_16365">
<rect width="24" height="24" fill="white"/>
</clipPath>
</defs>
</svg>
