<svg width="24" height="24" viewBox="0 0 24 24" fill="none" xmlns="http://www.w3.org/2000/svg">
<g clip-path="url(#clip0_221_16837)">
<path fill-rule="evenodd" clip-rule="evenodd" d="M12 2.75C9.54675 2.75 7.19397 3.72455 5.45926 5.45926C3.72455 7.19397 2.75 9.54675 2.75 12C2.75 14.4533 3.72455 16.806 5.45926 18.5407C7.19397 20.2754 9.54675 21.25 12 21.25C14.4533 21.25 16.806 20.2754 18.5407 18.5407C20.2754 16.806 21.25 14.4533 21.25 12C21.25 9.54675 20.2754 7.19397 18.5407 5.45926C16.806 3.72455 14.4533 2.75 12 2.75ZM1.25 12C1.25 6.063 6.063 1.25 12 1.25C17.937 1.25 22.75 6.063 22.75 12C22.75 17.937 17.937 22.75 12 22.75C6.063 22.75 1.25 17.937 1.25 12ZM12 7.75C11.379 7.75 10.875 8.254 10.875 8.875C10.875 9.07391 10.796 9.26468 10.6553 9.40533C10.5147 9.54598 10.3239 9.625 10.125 9.625C9.92609 9.625 9.73532 9.54598 9.59467 9.40533C9.45402 9.26468 9.375 9.07391 9.375 8.875C9.37497 8.41531 9.49565 7.96368 9.72498 7.56528C9.95431 7.16688 10.2842 6.83569 10.6817 6.60484C11.0793 6.37399 11.5304 6.25157 11.9901 6.24984C12.4498 6.24811 12.9019 6.36713 13.3011 6.59498C13.7004 6.82283 14.0328 7.15153 14.2651 7.54819C14.4974 7.94485 14.6215 8.39556 14.6249 8.85524C14.6284 9.31491 14.511 9.76743 14.2846 10.1675C14.0583 10.5676 13.7308 10.9012 13.335 11.135C13.1616 11.2329 13.0047 11.3574 12.87 11.504C12.768 11.624 12.75 11.704 12.75 11.75V13C12.75 13.1989 12.671 13.3897 12.5303 13.5303C12.3897 13.671 12.1989 13.75 12 13.75C11.8011 13.75 11.6103 13.671 11.4697 13.5303C11.329 13.3897 11.25 13.1989 11.25 13V11.75C11.25 11.244 11.472 10.834 11.727 10.533C11.979 10.236 12.293 10.009 12.572 9.844C12.7853 9.71911 12.9516 9.52737 13.0449 9.29847C13.1383 9.06957 13.1536 8.81628 13.0884 8.57781C13.0233 8.33934 12.8813 8.129 12.6846 7.97935C12.4878 7.8297 12.2472 7.74909 12 7.75ZM12 17C12.2652 17 12.5196 16.8946 12.7071 16.7071C12.8946 16.5196 13 16.2652 13 16C13 15.7348 12.8946 15.4804 12.7071 15.2929C12.5196 15.1054 12.2652 15 12 15C11.7348 15 11.4804 15.1054 11.2929 15.2929C11.1054 15.4804 11 15.7348 11 16C11 16.2652 11.1054 16.5196 11.2929 16.7071C11.4804 16.8946 11.7348 17 12 17Z" fill="black"/>
</g>
<defs>
<clipPath id="clip0_221_16837">
<rect width="24" height="24" fill="white"/>
</clipPath>
</defs>
</svg>
