<svg width="24" height="24" viewBox="0 0 24 24" fill="none" xmlns="http://www.w3.org/2000/svg">
<g clip-path="url(#clip0_221_16932)">
<path fill-rule="evenodd" clip-rule="evenodd" d="M12 21.25C14.4533 21.25 16.806 20.2754 18.5407 18.5407C20.2754 16.806 21.25 14.4533 21.25 12C21.25 9.54675 20.2755 7.19397 18.5407 5.45926C16.806 3.72455 14.4533 2.75 12 2.75C9.54675 2.75 7.19398 3.72455 5.45926 5.45926C3.72455 7.19397 2.75 9.54675 2.75 12C2.75 14.4533 3.72455 16.806 5.45926 18.5407C7.19397 20.2754 9.54675 21.25 12 21.25ZM22.75 12C22.75 17.937 17.937 22.75 12 22.75C6.063 22.75 1.25 17.937 1.25 12C1.25 6.063 6.063 1.25 12 1.25C17.937 1.25 22.75 6.063 22.75 12Z" fill="black"/>
<path fill-rule="evenodd" clip-rule="evenodd" d="M9.96899 18.2713C9.6595 17.996 9.63178 17.522 9.90707 17.2125L14.3867 12.1763L9.80438 6.78374C9.53617 6.46809 9.57462 5.99477 9.89026 5.72656C10.2059 5.45834 10.6792 5.49679 10.9474 5.81244L16.3742 12.1988L11.0278 18.2094C10.7526 18.5189 10.2785 18.5466 9.96899 18.2713Z" fill="black"/>
</g>
<defs>
<clipPath id="clip0_221_16932">
<rect width="24" height="24" fill="white"/>
</clipPath>
</defs>
</svg>
