<svg width="24" height="24" viewBox="0 0 24 24" fill="none" xmlns="http://www.w3.org/2000/svg">
<path fill-rule="evenodd" clip-rule="evenodd" d="M2.02469 8.21053H21.7127C22.1262 8.21053 22.4622 7.87462 22.4622 7.46105C22.4622 7.04646 22.1262 6.71045 21.7127 6.71045H2.02469C1.61112 6.71045 1.27515 7.04646 1.27515 7.46105C1.27515 7.87462 1.61112 8.21053 2.02469 8.21053Z" fill="black"/>
<path fill-rule="evenodd" clip-rule="evenodd" d="M2.02567 18.9786H15.3165C15.7301 18.9786 16.0665 18.6427 16.0665 18.2291C16.0665 17.8145 15.7301 17.4785 15.3165 17.4785H2.02567C1.61205 17.4785 1.27563 17.8145 1.27563 18.2291C1.27563 18.6427 1.61205 18.9786 2.02567 18.9786Z" fill="black"/>
<path fill-rule="evenodd" clip-rule="evenodd" d="M18.2601 4.59055L20.9406 7.4549L18.2325 10.2856C17.9466 10.5848 17.9568 11.0596 18.256 11.3466C18.5552 11.6325 19.0301 11.6223 19.316 11.3231L22.5153 7.97875C22.79 7.69181 22.793 7.23946 22.5204 6.94843L19.3558 3.56534C19.0729 3.26308 18.5971 3.2477 18.2948 3.53056C17.9926 3.81342 17.9772 4.28829 18.2601 4.59055Z" fill="black"/>
<path fill-rule="evenodd" clip-rule="evenodd" d="M17.5891 16.4328L21.4328 20.4235C21.7197 20.7217 22.1946 20.7309 22.4928 20.4439C22.7909 20.157 22.8001 19.6811 22.5132 19.3829L18.6695 15.3922C18.3816 15.094 17.9067 15.0849 17.6085 15.3728C17.3104 15.6598 17.3012 16.1346 17.5891 16.4328Z" fill="black"/>
<path fill-rule="evenodd" clip-rule="evenodd" d="M21.4844 15.4208L17.5666 19.3387C17.2738 19.6312 17.2735 20.1061 17.566 20.3989C17.8585 20.6916 18.3345 20.6919 18.6272 20.3994L22.5451 16.4815C22.8378 16.188 22.838 15.713 22.5445 15.4203C22.252 15.1276 21.7771 15.1273 21.4844 15.4208Z" fill="black"/>
</svg>
