<svg width="24" height="24" viewBox="0 0 24 24" fill="none" xmlns="http://www.w3.org/2000/svg">
<g clip-path="url(#clip0_221_16258)">
<path d="M16.03 10.0299C16.1037 9.96125 16.1628 9.87845 16.2038 9.78645C16.2448 9.69445 16.2668 9.59513 16.2686 9.49443C16.2704 9.39373 16.2519 9.2937 16.2142 9.20031C16.1764 9.10692 16.1203 9.02209 16.0491 8.95087C15.9778 8.87965 15.893 8.82351 15.7996 8.78579C15.7062 8.74807 15.6062 8.72954 15.5055 8.73132C15.4048 8.73309 15.3055 8.75514 15.2135 8.79613C15.1215 8.83712 15.0387 8.89622 14.97 8.96991L10.5 13.4399L9.03003 11.9699C8.88785 11.8374 8.69981 11.7653 8.50551 11.7687C8.31121 11.7722 8.12582 11.8509 7.98841 11.9883C7.85099 12.1257 7.77228 12.3111 7.76885 12.5054C7.76543 12.6997 7.83755 12.8877 7.97003 13.0299L9.97003 15.0299C10.1107 15.1704 10.3013 15.2493 10.5 15.2493C10.6988 15.2493 10.8894 15.1704 11.03 15.0299L16.03 10.0299Z" fill="black"/>
<path fill-rule="evenodd" clip-rule="evenodd" d="M12 1.25C6.063 1.25 1.25 6.063 1.25 12C1.25 17.937 6.063 22.75 12 22.75C17.937 22.75 22.75 17.937 22.75 12C22.75 6.063 17.937 1.25 12 1.25ZM2.75 12C2.75 9.54675 3.72455 7.19397 5.45926 5.45926C7.19397 3.72455 9.54675 2.75 12 2.75C14.4533 2.75 16.806 3.72455 18.5407 5.45926C20.2754 7.19397 21.25 9.54675 21.25 12C21.25 14.4533 20.2754 16.806 18.5407 18.5407C16.806 20.2754 14.4533 21.25 12 21.25C9.54675 21.25 7.19397 20.2754 5.45926 18.5407C3.72455 16.806 2.75 14.4533 2.75 12Z" fill="black"/>
</g>
<defs>
<clipPath id="clip0_221_16258">
<rect width="24" height="24" fill="white"/>
</clipPath>
</defs>
</svg>
