<svg width="24" height="24" viewBox="0 0 24 24" fill="none" xmlns="http://www.w3.org/2000/svg">
<g clip-path="url(#clip0_221_16401)">
<path fill-rule="evenodd" clip-rule="evenodd" d="M15.488 4.42993C15.5628 4.49406 15.6243 4.5723 15.6688 4.66019C15.7134 4.74808 15.7402 4.84389 15.7477 4.94215C15.7553 5.0404 15.7434 5.13918 15.7127 5.23283C15.682 5.32647 15.6332 5.41316 15.569 5.48793L9.988 11.9999L15.569 18.5119C15.6369 18.5861 15.6892 18.6731 15.7228 18.7679C15.7564 18.8627 15.7706 18.9632 15.7645 19.0636C15.7585 19.1639 15.7323 19.2621 15.6876 19.3521C15.6428 19.4422 15.5805 19.5223 15.5041 19.5877C15.4278 19.6532 15.3391 19.7026 15.2433 19.7331C15.1475 19.7636 15.0465 19.7745 14.9464 19.7652C14.8463 19.7559 14.7491 19.7266 14.6605 19.6789C14.572 19.6313 14.4939 19.5663 14.431 19.4879L8.431 12.4879C8.31453 12.352 8.25052 12.1789 8.25052 11.9999C8.25052 11.8209 8.31453 11.6479 8.431 11.5119L14.431 4.51193C14.5605 4.36112 14.7445 4.26787 14.9427 4.25268C15.1409 4.23749 15.337 4.30161 15.488 4.43093" fill="black"/>
</g>
<defs>
<clipPath id="clip0_221_16401">
<rect width="24" height="24" fill="white"/>
</clipPath>
</defs>
</svg>
