<svg width="24" height="24" viewBox="0 0 24 24" fill="none" xmlns="http://www.w3.org/2000/svg">
<path fill-rule="evenodd" clip-rule="evenodd" d="M3.72003 22.0342H20.4657C20.8633 22.0342 21.1857 21.7119 21.1857 21.3142C21.1857 20.9166 20.8633 20.5942 20.4657 20.5942H3.72003C3.32239 20.5942 3 20.9166 3 21.3142C3 21.7119 3.32239 22.0342 3.72003 22.0342Z" fill="black"/>
<path fill-rule="evenodd" clip-rule="evenodd" d="M12.104 2.67807L18.029 21.5299C18.148 21.9092 18.5527 22.1198 18.9321 22.0008C19.3114 21.8818 19.5219 21.477 19.4029 21.0977C19.4029 21.0977 15.0126 7.12938 13.3814 1.93768C13.2044 1.37732 12.6837 0.996967 12.0959 1.00002C11.5091 1.00307 10.9914 1.38751 10.8206 1.9499L4.99327 21.1048C4.87835 21.4851 5.09293 21.8868 5.47329 22.0028C5.85364 22.1187 6.25534 21.9042 6.37128 21.5238L12.104 2.67807Z" fill="black"/>
<path fill-rule="evenodd" clip-rule="evenodd" d="M9.77619 8.94879H14.5804C14.9781 8.94879 15.3004 8.62545 15.3004 8.22882C15.3004 7.83118 14.9781 7.50879 14.5804 7.50879H9.77619C9.37854 7.50879 9.05615 7.83118 9.05615 8.22882C9.05615 8.62545 9.37854 8.94879 9.77619 8.94879Z" fill="black"/>
<path fill-rule="evenodd" clip-rule="evenodd" d="M9.11304 11.6961H15.1297C15.5271 11.6961 15.8506 11.3728 15.8506 10.9761C15.8506 10.5785 15.5271 10.2561 15.1297 10.2561H9.11304C8.71567 10.2561 8.39215 10.5785 8.39215 10.9761C8.39215 11.3728 8.71567 11.6961 9.11304 11.6961Z" fill="black"/>
<path fill-rule="evenodd" clip-rule="evenodd" d="M8.01439 15.5569H16.0688C16.4678 15.5569 16.79 15.2336 16.79 14.837C16.79 14.4393 16.4678 14.1169 16.0688 14.1169H8.01439C7.61713 14.1169 7.29486 14.4393 7.29486 14.837C7.29486 15.2336 7.61713 15.5569 8.01439 15.5569Z" fill="black"/>
<path fill-rule="evenodd" clip-rule="evenodd" d="M7.2995 18.098H16.9773C17.3748 18.098 17.6984 17.7746 17.6984 17.378C17.6984 16.9804 17.3748 16.658 16.9773 16.658H7.2995C6.90207 16.658 6.57837 16.9804 6.57837 17.378C6.57837 17.7746 6.90207 18.098 7.2995 18.098Z" fill="black"/>
</svg>
