<svg width="24" height="24" viewBox="0 0 24 24" fill="none" xmlns="http://www.w3.org/2000/svg">
<path fill-rule="evenodd" clip-rule="evenodd" d="M16.6804 7.80322C13.322 7.80322 10.5946 10.5274 10.5946 13.8931C10.5946 17.2484 13.322 19.9725 16.6804 19.9725C20.0398 19.9725 22.7671 17.2484 22.7671 13.8931C22.7671 10.5274 20.0398 7.80322 16.6804 7.80322ZM16.6804 9.29676C19.2173 9.29676 21.2767 11.3478 21.2767 13.8931C21.2767 16.428 19.2173 18.479 16.6804 18.479C14.1445 18.479 12.084 16.428 12.084 13.8931C12.084 11.3478 14.1445 9.29676 16.6804 9.29676Z" fill="black"/>
<path fill-rule="evenodd" clip-rule="evenodd" d="M17.4259 16.7202V11.3181C17.4259 10.8971 17.0924 10.5664 16.6809 10.5664C16.2703 10.5664 15.9368 10.8971 15.9368 11.3181V16.7202C15.9368 17.1312 16.2703 17.4619 16.6809 17.4619C17.0924 17.4619 17.4259 17.1312 17.4259 16.7202Z" fill="black"/>
<path fill-rule="evenodd" clip-rule="evenodd" d="M15.1763 13.6407L16.7004 12.2944L18.3717 13.6512C18.6904 13.9142 19.1595 13.8616 19.4193 13.5461C19.6791 13.2305 19.6317 12.7572 19.313 12.4943L17.1516 10.7377C16.8686 10.5063 16.4606 10.5169 16.1881 10.7588L14.1897 12.5258C13.8815 12.7887 13.8521 13.2621 14.1245 13.5776C14.3969 13.8826 14.8681 13.9142 15.1763 13.6407Z" fill="black"/>
<path fill-rule="evenodd" clip-rule="evenodd" d="M1.50696 5.13154L8.65498 12.3153C8.94423 12.5993 9.4165 12.6098 9.70784 12.3153C9.99919 12.0208 10.0002 11.558 9.70993 11.2635L2.56191 4.07974C2.27266 3.79576 1.8004 3.78524 1.50905 4.07974C1.2177 4.37425 1.21667 4.83704 1.50696 5.13154Z" fill="black"/>
<path fill-rule="evenodd" clip-rule="evenodd" d="M19.8808 7.52962L22.2926 5.13154C22.584 4.84756 22.5861 4.37425 22.2968 4.07974C22.0076 3.79576 21.5353 3.78524 21.244 4.07974L18.8322 6.46729C18.5398 6.76179 18.5377 7.2351 18.828 7.51909C19.1172 7.81359 19.5895 7.8136 19.8808 7.52962Z" fill="black"/>
</svg>
