<svg width="24" height="24" viewBox="0 0 24 24" fill="none" xmlns="http://www.w3.org/2000/svg">
<path fill-rule="evenodd" clip-rule="evenodd" d="M16.6974 8.03687C13.3262 8.03687 10.5885 10.7714 10.5885 14.1499C10.5885 17.5179 13.3262 20.2524 16.6974 20.2524C20.0696 20.2524 22.8073 17.5179 22.8073 14.1499C22.8073 10.7714 20.0696 8.03687 16.6974 8.03687ZM16.6974 9.53608C19.244 9.53608 21.3112 11.5949 21.3112 14.1499C21.3112 16.6944 19.244 18.7533 16.6974 18.7533C14.1518 18.7533 12.0846 16.6944 12.0846 14.1499C12.0846 11.5949 14.1518 9.53608 16.6974 9.53608Z" fill="black"/>
<path fill-rule="evenodd" clip-rule="evenodd" d="M17.447 16.9856V11.5629C17.447 11.1403 17.1112 10.8083 16.6981 10.8083C16.2859 10.8083 15.9502 11.1403 15.9502 11.5629V16.9856C15.9502 17.3981 16.2859 17.73 16.6981 17.73C17.1112 17.73 17.447 17.3981 17.447 16.9856Z" fill="black"/>
<path fill-rule="evenodd" clip-rule="evenodd" d="M15.1876 13.8965L16.7175 12.5451L18.3941 13.9071C18.714 14.171 19.1859 14.1183 19.4467 13.8015C19.7075 13.4848 19.66 13.0097 19.34 12.7457L17.1704 10.9825C16.8864 10.7502 16.4767 10.7608 16.2022 11.0036L14.1972 12.7774C13.8879 13.0413 13.8583 13.5164 14.1318 13.8332C14.4053 14.1393 14.8783 14.171 15.1876 13.8965Z" fill="black"/>
<path fill-rule="evenodd" clip-rule="evenodd" d="M14.9669 6.34759L12.4868 4.04589C12.1923 3.77138 11.7362 3.78195 11.4511 4.05646L1.5266 13.9071C1.23309 14.1922 1.23098 14.6673 1.52238 14.9629C1.81273 15.2585 2.28677 15.2585 2.58028 14.9735L11.9948 5.62959L13.9491 7.4456C14.2522 7.72011 14.7252 7.69901 15.006 7.40339C15.2868 7.09721 15.2689 6.6221 14.9669 6.34759Z" fill="black"/>
</svg>
