<svg width="24" height="24" viewBox="0 0 24 24" fill="none" xmlns="http://www.w3.org/2000/svg">
<g clip-path="url(#clip0_221_16739)">
<path fill-rule="evenodd" clip-rule="evenodd" d="M18.2537 15.515C18.1131 15.6554 17.9224 15.7343 17.7237 15.7343C17.5249 15.7343 17.3343 15.6554 17.1937 15.515L11.7538 10.075L6.31378 15.515C6.24512 15.5887 6.16232 15.6478 6.07032 15.6888C5.97832 15.7298 5.87901 15.7518 5.77831 15.7536C5.6776 15.7554 5.57757 15.7369 5.48419 15.6991C5.3908 15.6614 5.30597 15.6053 5.23475 15.5341C5.16353 15.4628 5.10738 15.378 5.06966 15.2846C5.03194 15.1912 5.01342 15.0912 5.01519 14.9905C5.01697 14.8898 5.03901 14.7905 5.08 14.6985C5.121 14.6065 5.1801 14.5237 5.25378 14.455L11.2238 8.48497C11.3644 8.34451 11.5551 8.26562 11.7538 8.26562C11.9526 8.26562 12.1432 8.34451 12.2838 8.48497L18.2537 14.455C18.3941 14.5956 18.473 14.7862 18.473 14.985C18.473 15.1837 18.3941 15.3743 18.2537 15.515Z" fill="black"/>
</g>
<defs>
<clipPath id="clip0_221_16739">
<rect width="24" height="24" fill="white"/>
</clipPath>
</defs>
</svg>
