<svg width="24" height="24" viewBox="0 0 24 24" fill="none" xmlns="http://www.w3.org/2000/svg">
<g clip-path="url(#clip0_221_16852)">
<path d="M19.1392 8.41686C19.2129 8.3482 19.272 8.2654 19.313 8.1734C19.3539 8.0814 19.376 7.98209 19.3778 7.88139C19.3795 7.78068 19.361 7.68065 19.3233 7.58727C19.2856 7.49388 19.2294 7.40904 19.1582 7.33783C19.087 7.26661 19.0022 7.21046 18.9088 7.17274C18.8154 7.13502 18.7154 7.11649 18.6147 7.11827C18.5139 7.12005 18.4146 7.14209 18.3226 7.18308C18.2306 7.22407 18.1478 7.28318 18.0792 7.35686L9.69665 16.3283L5.71672 12.4446C5.57455 12.3122 5.3865 12.24 5.1922 12.2435C4.9979 12.2469 4.81251 12.3256 4.6751 12.463C4.53769 12.6004 4.45897 12.7858 4.45555 12.9801C4.45212 13.1744 4.52424 13.3625 4.65672 13.5046L9.16665 17.9183C9.30727 18.0588 9.4979 18.1377 9.69665 18.1377C9.8954 18.1377 10.086 18.0588 10.2266 17.9183L19.1392 8.41686Z" fill="black"/>
</g>
<defs>
<clipPath id="clip0_221_16852">
<rect width="24" height="24" fill="white"/>
</clipPath>
</defs>
</svg>
