<svg width="24" height="24" viewBox="0 0 24 24" fill="none" xmlns="http://www.w3.org/2000/svg">
<path fill-rule="evenodd" clip-rule="evenodd" d="M21.8971 5.92923H17.06C17.07 5.92923 10.4498 5.86276 10.4498 12.0696C10.4498 12.4851 10.7867 12.822 11.2012 12.822C11.6167 12.822 11.9536 12.4851 11.9536 12.0696C11.9536 7.33439 17.0489 7.433 17.0489 7.433L21.8971 7.43408C22.3127 7.43408 22.6496 7.09614 22.6496 6.68169C22.6496 6.26613 22.3127 5.92923 21.8971 5.92923Z" fill="black"/>
<path fill-rule="evenodd" clip-rule="evenodd" d="M1.92034 12.8219H11.2012C11.6167 12.8219 11.9536 12.4851 11.9536 12.0695C11.9536 11.655 11.6167 11.3181 11.2012 11.3181H1.92034C1.50589 11.3181 1.16901 11.655 1.16901 12.0695C1.16901 12.4851 1.50589 12.8219 1.92034 12.8219Z" fill="black"/>
<path fill-rule="evenodd" clip-rule="evenodd" d="M18.8364 4.47642L20.871 6.67833L18.8309 8.86253C18.5472 9.16505 18.5627 9.64161 18.8663 9.9253C19.17 10.209 19.6465 10.1923 19.9302 9.88871L22.4468 7.19474C22.7161 6.90662 22.7172 6.46009 22.4501 6.17086L19.9412 3.45585C19.6598 3.15111 19.1833 3.13224 18.8785 3.41371C18.5738 3.69519 18.5549 4.17168 18.8364 4.47642Z" fill="black"/>
<path fill-rule="evenodd" clip-rule="evenodd" d="M21.8971 16.7L17.0489 16.701C17.0489 16.701 11.9536 16.7996 11.9536 12.0645C11.9536 11.6489 11.6167 11.3121 11.2012 11.3121C10.7867 11.3121 10.4498 11.6489 10.4498 12.0645C10.4498 18.2713 17.07 18.2048 17.07 18.2048C17.06 18.2048 21.8971 18.2048 21.8971 18.2048C22.3127 18.2048 22.6496 17.8679 22.6496 17.4523C22.6496 17.0379 22.3127 16.7 21.8971 16.7Z" fill="black"/>
<path fill-rule="evenodd" clip-rule="evenodd" d="M19.9412 20.6782L22.4501 17.9632C22.7172 17.6739 22.7161 17.2274 22.4468 16.9393L19.9302 14.2453C19.6465 13.9417 19.17 13.925 18.8663 14.2087C18.5627 14.4924 18.5472 14.969 18.8309 15.2715L20.871 17.4557L18.8364 19.6576C18.5549 19.9624 18.5738 20.4388 18.8785 20.7203C19.1833 21.0018 19.6598 20.9829 19.9412 20.6782Z" fill="black"/>
</svg>
