<svg width="24" height="24" viewBox="0 0 24 24" fill="none" xmlns="http://www.w3.org/2000/svg">
<g clip-path="url(#clip0_221_16206)">
<path fill-rule="evenodd" clip-rule="evenodd" d="M12 2.75C9.54675 2.75 7.19397 3.72455 5.45926 5.45926C3.72455 7.19397 2.75 9.54675 2.75 12C2.75 14.4533 3.72455 16.806 5.45926 18.5407C7.19397 20.2754 9.54675 21.25 12 21.25C14.4533 21.25 16.806 20.2754 18.5407 18.5407C20.2754 16.806 21.25 14.4533 21.25 12C21.25 9.54675 20.2754 7.19397 18.5407 5.45926C16.806 3.72455 14.4533 2.75 12 2.75ZM1.25 12C1.25 6.063 6.063 1.25 12 1.25C17.937 1.25 22.75 6.063 22.75 12C22.75 17.937 17.937 22.75 12 22.75C6.063 22.75 1.25 17.937 1.25 12ZM11.53 8.47C11.6705 8.61063 11.7493 8.80125 11.7493 9C11.7493 9.19875 11.6705 9.38937 11.53 9.53L9.81 11.25H16C16.1989 11.25 16.3897 11.329 16.5303 11.4697C16.671 11.6103 16.75 11.8011 16.75 12C16.75 12.1989 16.671 12.3897 16.5303 12.5303C16.3897 12.671 16.1989 12.75 16 12.75H9.81L11.53 14.47C11.6037 14.5387 11.6628 14.6215 11.7038 14.7135C11.7448 14.8055 11.7668 14.9048 11.7686 15.0055C11.7704 15.1062 11.7518 15.2062 11.7141 15.2996C11.6764 15.393 11.6203 15.4778 11.549 15.549C11.4778 15.6203 11.393 15.6764 11.2996 15.7141C11.2062 15.7518 11.1062 15.7704 11.0055 15.7686C10.9048 15.7668 10.8055 15.7448 10.7135 15.7038C10.6215 15.6628 10.5387 15.6037 10.47 15.53L7.47 12.53C7.32955 12.3894 7.25066 12.1988 7.25066 12C7.25066 11.8012 7.32955 11.6106 7.47 11.47L10.47 8.47C10.6106 8.32955 10.8012 8.25066 11 8.25066C11.1988 8.25066 11.3894 8.32955 11.53 8.47Z" fill="black"/>
</g>
<defs>
<clipPath id="clip0_221_16206">
<rect width="24" height="24" fill="white"/>
</clipPath>
</defs>
</svg>
