<svg width="24" height="24" viewBox="0 0 24 24" fill="none" xmlns="http://www.w3.org/2000/svg">
<g clip-path="url(#clip0_221_16749)">
<path fill-rule="evenodd" clip-rule="evenodd" d="M5.23442 8.50458C5.37504 8.36413 5.56566 8.28524 5.76442 8.28524C5.96317 8.28524 6.15379 8.36413 6.29442 8.50458L11.7343 13.9446L17.1743 8.50451C17.243 8.43082 17.3258 8.37172 17.4178 8.33073C17.5098 8.28974 17.6091 8.2677 17.7098 8.26592C17.8105 8.26414 17.9105 8.28267 18.0039 8.32039C18.0973 8.35811 18.1821 8.41425 18.2534 8.48547C18.3246 8.55669 18.3807 8.64153 18.4184 8.73491C18.4562 8.8283 18.4747 8.92833 18.4729 9.02903C18.4711 9.12974 18.4491 9.22905 18.4081 9.32105C18.3671 9.41305 18.308 9.49585 18.2343 9.56451L12.2643 15.5346C12.1237 15.675 11.933 15.7539 11.7343 15.7539C11.5355 15.7539 11.3449 15.675 11.2043 15.5346L5.23442 9.56458C5.09397 9.42395 5.01508 9.23333 5.01508 9.03458C5.01508 8.83583 5.09397 8.6452 5.23442 8.50458Z" fill="black"/>
</g>
<defs>
<clipPath id="clip0_221_16749">
<rect width="24" height="24" fill="white"/>
</clipPath>
</defs>
</svg>
