<svg width="24" height="24" viewBox="0 0 24 24" fill="none" xmlns="http://www.w3.org/2000/svg">
<path fill-rule="evenodd" clip-rule="evenodd" d="M16.026 7.05504L6.81593 16.2321C6.71593 16.2071 6.59597 16.1941 6.48597 16.1941H2.59595C2.21595 16.1941 1.85594 16.345 1.58594 16.613C1.31594 16.881 1.16602 17.2441 1.16602 17.6241V21.3951C1.16602 21.7731 1.31594 22.1361 1.58594 22.4051C1.85594 22.6731 2.21595 22.8231 2.59595 22.8231H6.48597C6.86597 22.8231 7.23599 22.6731 7.49599 22.4051C7.76599 22.1361 7.91603 21.7731 7.91603 21.3951V17.6241C7.91603 17.5111 7.90599 17.3991 7.87599 17.2911L17.1761 8.02904C17.2461 8.04004 17.316 8.04503 17.386 8.04503H21.276C21.656 8.04503 22.0261 7.89503 22.2861 7.62703C22.5561 7.35803 22.706 6.99504 22.706 6.61604V2.84503C22.706 2.46603 22.5561 2.10302 22.2861 1.83502C22.0261 1.56702 21.656 1.41602 21.276 1.41602H17.386C17.006 1.41602 16.646 1.56702 16.376 1.83502C16.106 2.10302 15.956 2.46603 15.956 2.84503V6.61604C15.956 6.76704 15.976 6.91504 16.026 7.05504ZM2.66602 21.3231H6.41603V17.6941H2.66602V21.3231ZM17.456 6.54502H21.206V2.91602H17.456V6.54502Z" fill="black"/>
</svg>
