<svg width="24" height="24" viewBox="0 0 24 24" fill="none" xmlns="http://www.w3.org/2000/svg">
<g clip-path="url(#clip0_221_16883)">
<path fill-rule="evenodd" clip-rule="evenodd" d="M12.0625 8.8125C10.2676 8.8125 8.8125 10.2676 8.8125 12.0625C8.8125 13.8574 10.2676 15.3125 12.0625 15.3125C13.8574 15.3125 15.3125 13.8574 15.3125 12.0625C15.3125 10.2676 13.8574 8.8125 12.0625 8.8125ZM7.3125 12.0625C7.3125 9.43915 9.43915 7.3125 12.0625 7.3125C14.6859 7.3125 16.8125 9.43915 16.8125 12.0625C16.8125 14.6859 14.6859 16.8125 12.0625 16.8125C9.43915 16.8125 7.3125 14.6859 7.3125 12.0625Z" fill="black"/>
<path fill-rule="evenodd" clip-rule="evenodd" d="M13.9178 10.6353C14.2151 10.9238 14.2222 11.3986 13.9338 11.6959L12.1008 13.5849C11.9526 13.7375 11.7466 13.8201 11.5341 13.812C11.3215 13.804 11.1224 13.706 10.9863 13.5426L10.1533 12.5426C9.88814 12.2243 9.93123 11.7514 10.2495 11.4863C10.5677 11.2212 11.0407 11.2643 11.3058 11.5826L11.605 11.9418L12.8573 10.6513C13.1457 10.354 13.6205 10.3469 13.9178 10.6353Z" fill="black"/>
</g>
<defs>
<clipPath id="clip0_221_16883">
<rect width="24" height="24" fill="white"/>
</clipPath>
</defs>
</svg>
