<svg width="24" height="24" viewBox="0 0 24 24" fill="none" xmlns="http://www.w3.org/2000/svg">
<g clip-path="url(#clip0_221_16926)">
<path fill-rule="evenodd" clip-rule="evenodd" d="M21.25 12C21.25 9.54675 20.2754 7.19397 18.5407 5.45926C16.806 3.72455 14.4533 2.75 12 2.75C9.54675 2.75 7.19397 3.72455 5.45926 5.45926C3.72455 7.19397 2.75 9.54675 2.75 12C2.75 14.4533 3.72455 16.806 5.45926 18.5407C7.19397 20.2754 9.54675 21.25 12 21.25C14.4533 21.25 16.806 20.2754 18.5407 18.5407C20.2754 16.806 21.25 14.4533 21.25 12ZM12 1.25C17.937 1.25 22.75 6.063 22.75 12C22.75 17.937 17.937 22.75 12 22.75C6.063 22.75 1.25 17.937 1.25 12C1.25 6.063 6.063 1.25 12 1.25Z" fill="black"/>
<path fill-rule="evenodd" clip-rule="evenodd" d="M18.3352 14.3884C18.0599 14.6979 17.5858 14.7256 17.2763 14.4503L12.2402 9.97068L6.84758 14.553C6.53193 14.8212 6.05862 14.7827 5.7904 14.4671C5.52218 14.1515 5.56063 13.6781 5.87628 13.4099L12.2627 7.98315L18.2732 13.3295C18.5827 13.6048 18.6105 14.0789 18.3352 14.3884Z" fill="black"/>
</g>
<defs>
<clipPath id="clip0_221_16926">
<rect width="24" height="24" fill="white"/>
</clipPath>
</defs>
</svg>
