<svg width="24" height="24" viewBox="0 0 24 24" fill="none" xmlns="http://www.w3.org/2000/svg">
<g clip-path="url(#clip0_221_16252)">
<path d="M10.03 8.96991C9.8878 8.83743 9.69975 8.76531 9.50545 8.76873C9.31115 8.77216 9.12576 8.85088 8.98835 8.98829C8.85094 9.1257 8.77222 9.31109 8.7688 9.50539C8.76537 9.69969 8.83749 9.88773 8.96997 10.0299L10.94 11.9999L8.96997 13.9699C8.89628 14.0386 8.83718 14.1214 8.79619 14.2134C8.7552 14.3054 8.73316 14.4047 8.73138 14.5054C8.7296 14.6061 8.74813 14.7061 8.78585 14.7995C8.82357 14.8929 8.87971 14.9777 8.95093 15.0489C9.02215 15.1202 9.10698 15.1763 9.20037 15.214C9.29376 15.2518 9.39379 15.2703 9.49449 15.2685C9.5952 15.2667 9.69451 15.2447 9.78651 15.2037C9.87851 15.1627 9.96131 15.1036 10.03 15.0299L12 13.0599L13.97 15.0299C14.1121 15.1624 14.3002 15.2345 14.4945 15.2311C14.6888 15.2277 14.8742 15.1489 15.0116 15.0115C15.149 14.8741 15.2277 14.6887 15.2311 14.4944C15.2346 14.3001 15.1625 14.1121 15.03 13.9699L13.06 11.9999L15.03 10.0299C15.1037 9.96125 15.1628 9.87845 15.2038 9.78645C15.2447 9.69445 15.2668 9.59513 15.2686 9.49443C15.2703 9.39373 15.2518 9.2937 15.2141 9.20031C15.1764 9.10692 15.1202 9.02209 15.049 8.95087C14.9778 8.87965 14.893 8.82351 14.7996 8.78579C14.7062 8.74807 14.6062 8.72954 14.5054 8.73132C14.4047 8.73309 14.3054 8.75514 14.2134 8.79613C14.1214 8.83712 14.0386 8.89622 13.97 8.96991L12 10.9399L10.03 8.96991Z" fill="black"/>
<path fill-rule="evenodd" clip-rule="evenodd" d="M12 1.25C6.063 1.25 1.25 6.063 1.25 12C1.25 17.937 6.063 22.75 12 22.75C17.937 22.75 22.75 17.937 22.75 12C22.75 6.063 17.937 1.25 12 1.25ZM2.75 12C2.75 9.54675 3.72455 7.19397 5.45926 5.45926C7.19397 3.72455 9.54675 2.75 12 2.75C14.4533 2.75 16.806 3.72455 18.5407 5.45926C20.2754 7.19397 21.25 9.54675 21.25 12C21.25 14.4533 20.2754 16.806 18.5407 18.5407C16.806 20.2754 14.4533 21.25 12 21.25C9.54675 21.25 7.19397 20.2754 5.45926 18.5407C3.72455 16.806 2.75 14.4533 2.75 12Z" fill="black"/>
</g>
<defs>
<clipPath id="clip0_221_16252">
<rect width="24" height="24" fill="white"/>
</clipPath>
</defs>
</svg>
