<svg width="24" height="24" viewBox="0 0 24 24" fill="none" xmlns="http://www.w3.org/2000/svg">
<g clip-path="url(#clip0_221_16264)">
<path d="M16.114 21.932C14.6455 22.5402 13.0604 22.8151 11.4728 22.737C9.88526 22.6589 8.33478 22.2298 6.93302 21.4805C5.53126 20.7312 4.31311 19.6803 3.36628 18.4036C2.41945 17.127 1.76752 15.6562 1.45742 14.0973C1.14733 12.5383 1.18678 10.93 1.57296 9.38821C1.95913 7.84636 2.68241 6.40934 3.6907 5.18062C4.699 3.95191 5.96722 2.96207 7.40404 2.2824C8.84086 1.60272 10.4105 1.25013 12 1.25C12.1989 1.25 12.3897 1.32902 12.5303 1.46967C12.671 1.61032 12.75 1.80109 12.75 2C12.75 2.19891 12.671 2.38968 12.5303 2.53033C12.3897 2.67098 12.1989 2.75 12 2.75C10.1705 2.75 8.38212 3.2925 6.86096 4.30891C5.33981 5.32531 4.15421 6.76996 3.4541 8.46018C2.75399 10.1504 2.57081 12.0103 2.92773 13.8046C3.28464 15.5989 4.16562 17.2471 5.45925 18.5407C6.75289 19.8344 8.40108 20.7154 10.1954 21.0723C11.9897 21.4292 13.8496 21.246 15.5398 20.5459C17.23 19.8458 18.6747 18.6602 19.6911 17.139C20.7075 15.6179 21.25 13.8295 21.25 12C21.25 11.8011 21.329 11.6103 21.4697 11.4697C21.6103 11.329 21.8011 11.25 22 11.25C22.1989 11.25 22.3897 11.329 22.5303 11.4697C22.671 11.6103 22.75 11.8011 22.75 12C22.7501 14.1262 22.1196 16.2046 20.9384 17.9725C19.7572 19.7404 18.0783 21.1183 16.114 21.932Z" fill="black"/>
<path fill-rule="evenodd" clip-rule="evenodd" d="M19.993 4.68503C20.1428 4.81581 20.2346 5.00072 20.2481 5.19913C20.2616 5.39753 20.1957 5.59317 20.065 5.74303L12.208 14.743C12.1376 14.8237 12.0508 14.8883 11.9533 14.9326C11.8559 14.9769 11.7501 14.9998 11.643 14.9998C11.536 14.9998 11.4302 14.9769 11.3327 14.9326C11.2352 14.8883 11.1484 14.8237 11.078 14.743L7.93501 11.143C7.80893 10.9926 7.74688 10.7987 7.76217 10.6029C7.77746 10.4072 7.86887 10.2253 8.01679 10.0962C8.16471 9.96718 8.35733 9.90125 8.55331 9.91262C8.74929 9.92398 8.933 10.0117 9.06501 10.157L11.643 13.11L18.935 4.75703C19.0658 4.60722 19.2507 4.51548 19.4491 4.50198C19.6475 4.48847 19.8431 4.55432 19.993 4.68503Z" fill="black"/>
</g>
<defs>
<clipPath id="clip0_221_16264">
<rect width="24" height="24" fill="white"/>
</clipPath>
</defs>
</svg>
