<svg width="24" height="24" viewBox="0 0 24 24" fill="none" xmlns="http://www.w3.org/2000/svg">
<g clip-path="url(#clip0_221_16744)">
<path fill-rule="evenodd" clip-rule="evenodd" d="M8.23877 18.5194C8.09832 18.3788 8.01943 18.1882 8.01943 17.9894C8.01943 17.7907 8.09832 17.6001 8.23877 17.4594L13.6788 12.0196L8.2387 6.57953C8.16502 6.51087 8.10592 6.42807 8.06492 6.33607C8.02393 6.24407 8.00189 6.14476 8.00011 6.04405C7.99834 5.94335 8.01686 5.84332 8.05458 5.74993C8.0923 5.65654 8.14845 5.57171 8.21967 5.50049C8.29089 5.42927 8.37572 5.37313 8.46911 5.33541C8.56249 5.29769 8.66252 5.27916 8.76323 5.28094C8.86393 5.28272 8.96324 5.30476 9.05524 5.34575C9.14724 5.38674 9.23004 5.44584 9.2987 5.51953L15.2688 11.4896C15.4092 11.6302 15.4881 11.8208 15.4881 12.0196C15.4881 12.2183 15.4092 12.4089 15.2688 12.5496L9.29877 18.5194C9.15814 18.6599 8.96752 18.7388 8.76877 18.7388C8.57002 18.7388 8.3794 18.6599 8.23877 18.5194Z" fill="black"/>
</g>
<defs>
<clipPath id="clip0_221_16744">
<rect width="24" height="24" fill="white"/>
</clipPath>
</defs>
</svg>
