<svg width="24" height="24" viewBox="0 0 24 24" fill="none" xmlns="http://www.w3.org/2000/svg">
<path d="M3.66699 11.25L3.74316 11.2539C4.12144 11.2922 4.41699 11.6116 4.41699 12C4.41699 12.3884 4.12144 12.7078 3.74316 12.7461L3.66699 12.75H2C1.58579 12.75 1.25 12.4142 1.25 12C1.25 11.5858 1.58579 11.25 2 11.25H3.66699ZM10.333 11.25C10.7472 11.25 11.083 11.5858 11.083 12C11.083 12.4142 10.7472 12.75 10.333 12.75H7C6.58579 12.75 6.25 12.4142 6.25 12C6.25 11.5858 6.58579 11.25 7 11.25H10.333ZM17 11.25L17.0771 11.2539C17.4551 11.2925 17.75 11.6118 17.75 12C17.75 12.3882 17.4551 12.7075 17.0771 12.7461L17 12.75H13.667C13.2528 12.75 12.917 12.4142 12.917 12C12.917 11.5858 13.2528 11.25 13.667 11.25H17ZM22 11.25C22.4142 11.25 22.75 11.5858 22.75 12C22.75 12.4142 22.4142 12.75 22 12.75H20.333C19.9189 12.7498 19.583 12.4141 19.583 12C19.583 11.5859 19.9189 11.2502 20.333 11.25H22Z" fill="black"/>
</svg>
