<svg width="24" height="24" viewBox="0 0 24 24" fill="none" xmlns="http://www.w3.org/2000/svg">
<g clip-path="url(#clip0_221_16370)">
<path fill-rule="evenodd" clip-rule="evenodd" d="M18.2331 6.93503C18.3829 7.06581 18.4747 7.25072 18.4882 7.44913C18.5017 7.64753 18.4358 7.84317 18.3051 7.99303L10.4481 16.993C10.3777 17.0737 10.2909 17.1383 10.1934 17.1826C10.096 17.2269 9.99016 17.2498 9.88312 17.2498C9.77607 17.2498 9.67027 17.2269 9.57281 17.1826C9.47536 17.1383 9.38852 17.0737 9.31812 16.993L6.17512 13.393C6.04904 13.2426 5.98699 13.0487 6.00228 12.8529C6.01757 12.6572 6.10899 12.4753 6.2569 12.3462C6.40482 12.2172 6.59744 12.1513 6.79342 12.1626C6.9894 12.174 7.17311 12.2617 7.30512 12.407L9.88312 15.36L17.1751 7.00703C17.3059 6.85722 17.4908 6.76548 17.6892 6.75198C17.8876 6.73847 18.0833 6.80432 18.2331 6.93503Z" fill="black"/>
</g>
<defs>
<clipPath id="clip0_221_16370">
<rect width="24" height="24" fill="white"/>
</clipPath>
</defs>
</svg>
