<svg width="24" height="24" viewBox="0 0 24 24" fill="none" xmlns="http://www.w3.org/2000/svg">
<g clip-path="url(#clip0_221_16406)">
<path fill-rule="evenodd" clip-rule="evenodd" d="M11.512 8.42999C11.6479 8.31353 11.821 8.24951 12 8.24951C12.179 8.24951 12.3521 8.31353 12.488 8.42999L19.488 14.43C19.5628 14.4941 19.6243 14.5723 19.669 14.6601C19.7136 14.748 19.7405 14.8438 19.7481 14.942C19.7557 15.0403 19.7439 15.139 19.7134 15.2327C19.6828 15.3264 19.6341 15.4131 19.57 15.488C19.5059 15.5628 19.4277 15.6243 19.3399 15.669C19.252 15.7136 19.1562 15.7405 19.058 15.7481C18.9597 15.7557 18.8609 15.7439 18.7673 15.7134C18.6736 15.6828 18.5868 15.6341 18.512 15.57L12 9.98699L5.48799 15.568C5.41384 15.6359 5.32679 15.6882 5.23202 15.7218C5.13726 15.7554 5.0367 15.7696 4.93634 15.7635C4.83598 15.7575 4.73786 15.7313 4.64781 15.6866C4.55776 15.6418 4.47763 15.5794 4.41217 15.5031C4.34672 15.4268 4.29728 15.3381 4.26679 15.2423C4.2363 15.1465 4.22539 15.0455 4.2347 14.9454C4.24401 14.8453 4.27336 14.7481 4.32099 14.6595C4.36863 14.571 4.43358 14.4929 4.51199 14.43L11.512 8.42999Z" fill="black"/>
</g>
<defs>
<clipPath id="clip0_221_16406">
<rect width="24" height="24" fill="white"/>
</clipPath>
</defs>
</svg>
