<svg width="24" height="24" viewBox="0 0 24 24" fill="none" xmlns="http://www.w3.org/2000/svg">
<g clip-path="url(#clip0_221_16411)">
<path fill-rule="evenodd" clip-rule="evenodd" d="M8.51199 4.43002C8.66307 4.30081 8.85926 4.23687 9.05746 4.25225C9.25566 4.26762 9.43965 4.36106 9.56899 4.51202L15.569 11.512C15.6855 11.6479 15.7495 11.821 15.7495 12C15.7495 12.179 15.6855 12.3521 15.569 12.488L9.56899 19.488C9.43751 19.6316 9.25534 19.7184 9.06101 19.7301C8.86667 19.7419 8.67539 19.6776 8.52761 19.5508C8.37983 19.4241 8.28712 19.2448 8.26909 19.051C8.25106 18.8571 8.30912 18.6638 8.43099 18.512L14.012 12L8.43099 5.48802C8.30155 5.33719 8.23726 5.14115 8.25226 4.94296C8.26726 4.74478 8.36032 4.56064 8.51099 4.43102" fill="black"/>
</g>
<defs>
<clipPath id="clip0_221_16411">
<rect width="24" height="24" fill="white"/>
</clipPath>
</defs>
</svg>
