<svg width="24" height="24" viewBox="0 0 24 24" fill="none" xmlns="http://www.w3.org/2000/svg">
<g clip-path="url(#clip0_221_16230)">
<path fill-rule="evenodd" clip-rule="evenodd" d="M12 2.75C9.54675 2.75 7.19397 3.72455 5.45926 5.45926C3.72455 7.19397 2.75 9.54675 2.75 12C2.75 14.4533 3.72455 16.806 5.45926 18.5407C7.19397 20.2754 9.54675 21.25 12 21.25C14.4533 21.25 16.806 20.2754 18.5407 18.5407C20.2754 16.806 21.25 14.4533 21.25 12C21.25 9.54675 20.2754 7.19397 18.5407 5.45926C16.806 3.72455 14.4533 2.75 12 2.75ZM1.25 12C1.25 6.063 6.063 1.25 12 1.25C17.937 1.25 22.75 6.063 22.75 12C22.75 17.937 17.937 22.75 12 22.75C6.063 22.75 1.25 17.937 1.25 12ZM12.47 8.47C12.6106 8.32955 12.8012 8.25066 13 8.25066C13.1988 8.25066 13.3894 8.32955 13.53 8.47L16.53 11.47C16.6705 11.6106 16.7493 11.8012 16.7493 12C16.7493 12.1988 16.6705 12.3894 16.53 12.53L13.53 15.53C13.4613 15.6037 13.3785 15.6628 13.2865 15.7038C13.1945 15.7448 13.0952 15.7668 12.9945 15.7686C12.8938 15.7704 12.7938 15.7518 12.7004 15.7141C12.607 15.6764 12.5222 15.6203 12.451 15.549C12.3797 15.4778 12.3236 15.393 12.2859 15.2996C12.2482 15.2062 12.2296 15.1062 12.2314 15.0055C12.2332 14.9048 12.2552 14.8055 12.2962 14.7135C12.3372 14.6215 12.3963 14.5387 12.47 14.47L14.19 12.75H8C7.80109 12.75 7.61032 12.671 7.46967 12.5303C7.32902 12.3897 7.25 12.1989 7.25 12C7.25 11.8011 7.32902 11.6103 7.46967 11.4697C7.61032 11.329 7.80109 11.25 8 11.25H14.19L12.47 9.53C12.3295 9.38937 12.2507 9.19875 12.2507 9C12.2507 8.80125 12.3295 8.61063 12.47 8.47Z" fill="black"/>
</g>
<defs>
<clipPath id="clip0_221_16230">
<rect width="24" height="24" fill="white"/>
</clipPath>
</defs>
</svg>
