<svg width="24" height="24" viewBox="0 0 24 24" fill="none" xmlns="http://www.w3.org/2000/svg">
<path fill-rule="evenodd" clip-rule="evenodd" d="M22.2344 6.48964V4.13323C22.2333 2.79425 21.1482 1.70801 19.8081 1.70801H4.20145C2.86141 1.70801 1.77523 2.79425 1.77523 4.13323V6.48964C1.77523 7.82862 2.86141 8.91486 4.20145 8.91486H19.8081C21.1482 8.91486 22.2333 7.82862 22.2344 6.48964ZM20.7357 4.13323V6.48964C20.7357 7.00154 20.3211 7.41721 19.8081 7.41721H4.20145C3.68849 7.41721 3.27391 7.00154 3.27391 6.48964V4.13323C3.27391 3.62133 3.68849 3.20566 4.20145 3.20566H19.8081C20.3211 3.20566 20.7357 3.62133 20.7357 4.13323Z" fill="black"/>
<path fill-rule="evenodd" clip-rule="evenodd" d="M22.2344 13.0226C22.2344 11.6818 21.1482 10.5964 19.8081 10.5964H4.20145C2.86141 10.5964 1.77523 11.6818 1.77523 13.0226C1.77523 14.9004 1.77523 17.9274 1.77523 19.8052C1.77523 21.146 2.86141 22.2313 4.20145 22.2313H19.8081C21.1482 22.2313 22.2344 21.146 22.2344 19.8052C22.2344 17.9274 22.2344 14.9004 22.2344 13.0226ZM20.7357 13.0226C20.7357 14.9004 20.7357 17.9274 20.7357 19.8052C20.7357 20.3178 20.3211 20.7329 19.8081 20.7329H4.20145C3.68849 20.7329 3.27391 20.3178 3.27391 19.8052C3.27391 17.9274 3.27391 14.9004 3.27391 13.0226C3.27391 12.5099 3.68849 12.095 4.20145 12.095H19.8081C20.3211 12.095 20.7357 12.5099 20.7357 13.0226Z" fill="black"/>
<path fill-rule="evenodd" clip-rule="evenodd" d="M2.52402 17.169H21.4845C21.8981 17.169 22.2344 16.8338 22.2344 16.4202C22.2344 16.0067 21.8981 15.6714 21.4845 15.6714H2.52402C2.11154 15.6714 1.77523 16.0067 1.77523 16.4202C1.77523 16.8338 2.11154 17.169 2.52402 17.169Z" fill="black"/>
<path fill-rule="evenodd" clip-rule="evenodd" d="M16.0471 8.16604V2.45683C16.0471 2.04329 15.7108 1.70801 15.2983 1.70801C14.8848 1.70801 14.5485 2.04329 14.5485 2.45683V8.16604C14.5485 8.57958 14.8848 8.91486 15.2983 8.91486C15.7108 8.91486 16.0471 8.57958 16.0471 8.16604Z" fill="black"/>
<path fill-rule="evenodd" clip-rule="evenodd" d="M16.8066 5.62143L17.9584 6.69283C18.245 6.9583 18.6881 6.96043 18.9758 6.69496L20.1487 5.61724C20.4523 5.33802 20.4724 4.86313 20.1932 4.55959C19.9129 4.25498 19.4391 4.2349 19.1345 4.51517L18.4724 5.12437L17.8272 4.52466C17.5237 4.24227 17.0498 4.26026 16.7685 4.56275C16.4872 4.86524 16.5041 5.33904 16.8066 5.62143Z" fill="black"/>
<path d="M18.4861 14.7851C18.9804 14.7851 19.3811 14.3844 19.3811 13.8901C19.3811 13.3958 18.9804 12.9951 18.4861 12.9951C17.9918 12.9951 17.5911 13.3958 17.5911 13.8901C17.5911 14.3844 17.9918 14.7851 18.4861 14.7851Z" fill="black"/>
<path d="M18.4861 19.9153C18.9804 19.9153 19.3811 19.5145 19.3811 19.0202C19.3811 18.5259 18.9804 18.1252 18.4861 18.1252C17.9918 18.1252 17.5911 18.5259 17.5911 19.0202C17.5911 19.5145 17.9918 19.9153 18.4861 19.9153Z" fill="black"/>
</svg>
