<svg width="24" height="24" viewBox="0 0 24 24" fill="none" xmlns="http://www.w3.org/2000/svg">
<path fill-rule="evenodd" clip-rule="evenodd" d="M5.2673 9.16735H8.51254C8.9299 9.16735 9.26718 8.83005 9.26718 8.41382V5.16854C9.26718 2.96105 7.4748 1.1687 5.2673 1.1687C3.0598 1.1687 1.26852 2.96105 1.26852 5.16854C1.26852 7.37604 3.0598 9.16735 5.2673 9.16735ZM5.2673 7.65918C3.89227 7.65918 2.77667 6.54358 2.77667 5.16854C2.77667 3.79351 3.89227 2.67681 5.2673 2.67681C6.64233 2.67681 7.75903 3.79351 7.75903 5.16854V7.65918H5.2673Z" fill="black"/>
<path fill-rule="evenodd" clip-rule="evenodd" d="M5.2673 14.6776C3.0598 14.6776 1.26852 16.4689 1.26852 18.6764C1.26852 20.8839 3.0598 22.6763 5.2673 22.6763C7.4748 22.6763 9.26718 20.8839 9.26718 18.6764V15.4312C9.26718 15.0149 8.9299 14.6776 8.51254 14.6776H5.2673ZM5.2673 16.1858H7.75903V18.6764C7.75903 20.0515 6.64233 21.1682 5.2673 21.1682C3.89227 21.1682 2.77667 20.0515 2.77667 18.6764C2.77667 17.3014 3.89227 16.1858 5.2673 16.1858Z" fill="black"/>
<path fill-rule="evenodd" clip-rule="evenodd" d="M18.779 9.16735C20.9865 9.16735 22.7778 7.37604 22.7778 5.16854C22.7778 2.96105 20.9865 1.1687 18.779 1.1687C16.5715 1.1687 14.7791 2.96105 14.7791 5.16854V8.41382C14.7791 8.83005 15.1164 9.16735 15.5338 9.16735H18.779ZM18.779 7.65918H16.2873V5.16854C16.2873 3.79351 17.404 2.67681 18.779 2.67681C20.154 2.67681 21.2696 3.79351 21.2696 5.16854C21.2696 6.54358 20.154 7.65918 18.779 7.65918Z" fill="black"/>
<path fill-rule="evenodd" clip-rule="evenodd" d="M18.779 14.6776H15.5338C15.1164 14.6776 14.7791 15.0149 14.7791 15.4312V18.6764C14.7791 20.8839 16.5715 22.6763 18.779 22.6763C20.9865 22.6763 22.7778 20.8839 22.7778 18.6764C22.7778 16.4689 20.9865 14.6776 18.779 14.6776ZM18.779 16.1858C20.154 16.1858 21.2696 17.3014 21.2696 18.6764C21.2696 20.0515 20.154 21.1682 18.779 21.1682C17.404 21.1682 16.2873 20.0515 16.2873 18.6764V16.1858H18.779Z" fill="black"/>
<path fill-rule="evenodd" clip-rule="evenodd" d="M16.289 8.41382C16.289 7.99646 15.9517 7.65918 15.5354 7.65918H8.51251C8.09627 7.65918 7.759 7.99646 7.759 8.41382V15.4356C7.759 15.8518 8.09627 16.1891 8.51251 16.1891H15.5354C15.9517 16.1891 16.289 15.8518 16.289 15.4356V8.41382ZM14.7808 9.16736V14.681H9.26715V9.16736H14.7808Z" fill="black"/>
</svg>
