<svg width="24" height="24" viewBox="0 0 24 24" fill="none" xmlns="http://www.w3.org/2000/svg">
<g clip-path="url(#clip0_221_17181)">
<path d="M1.32633 6.18747L12.0463 16.9075C12.0463 16.9175 12.0363 16.9175 12.0363 16.9175C12.0263 16.9275 12.0263 16.9275 12.0263 16.9275L22.7463 6.21747C23.0363 5.92747 23.5063 5.92747 23.8063 6.22747C24.0963 6.52747 24.0963 6.99747 23.7963 7.29747L13.0763 18.0175C13.0663 18.0275 13.0663 18.0275 13.0663 18.0275C12.4763 18.6175 11.5263 18.6175 10.9463 18.0275L0.226327 7.31747C-0.0736731 7.02747 -0.0736731 6.55747 0.216327 6.25747C0.506327 5.96747 0.976327 5.96747 1.27633 6.25747L1.32633 6.18747Z" fill="black"/>
</g>
<defs>
<clipPath id="clip0_221_17181">
<rect width="24" height="24" fill="white"/>
</clipPath>
</defs>
</svg>
