<svg width="24" height="24" viewBox="0 0 24 24" fill="none" xmlns="http://www.w3.org/2000/svg">
<g clip-path="url(#clip0_221_16416)">
<path fill-rule="evenodd" clip-rule="evenodd" d="M4.42999 8.51193C4.49412 8.43711 4.57236 8.37566 4.66025 8.33109C4.74814 8.28652 4.84395 8.25971 4.94221 8.25219C5.04046 8.24467 5.13924 8.25658 5.23289 8.28725C5.32654 8.31792 5.41322 8.36675 5.48799 8.43093L12 14.0119L18.512 8.43093C18.6638 8.30906 18.8571 8.25101 19.0509 8.26904C19.2448 8.28707 19.424 8.37977 19.5508 8.52756C19.6775 8.67534 19.7418 8.86662 19.7301 9.06095C19.7184 9.25529 19.6316 9.43745 19.488 9.56894L12.488 15.5689C12.3521 15.6854 12.179 15.7494 12 15.7494C11.821 15.7494 11.6479 15.6854 11.512 15.5689L4.51199 9.56894C4.36118 9.43945 4.26793 9.25539 4.25274 9.0572C4.23756 8.859 4.30167 8.66289 4.43099 8.51193" fill="black"/>
</g>
<defs>
<clipPath id="clip0_221_16416">
<rect width="24" height="24" fill="white"/>
</clipPath>
</defs>
</svg>
