<svg width="24" height="24" viewBox="0 0 24 24" fill="none" xmlns="http://www.w3.org/2000/svg">
<g clip-path="url(#clip0_221_16246)">
<path d="M15 12.75C15.1989 12.75 15.3897 12.671 15.5303 12.5303C15.671 12.3897 15.75 12.1989 15.75 12C15.75 11.8011 15.671 11.6103 15.5303 11.4697C15.3897 11.329 15.1989 11.25 15 11.25H9C8.80109 11.25 8.61032 11.329 8.46967 11.4697C8.32902 11.6103 8.25 11.8011 8.25 12C8.25 12.1989 8.32902 12.3897 8.46967 12.5303C8.61032 12.671 8.80109 12.75 9 12.75H15Z" fill="black"/>
<path fill-rule="evenodd" clip-rule="evenodd" d="M12 1.25C6.063 1.25 1.25 6.063 1.25 12C1.25 17.937 6.063 22.75 12 22.75C17.937 22.75 22.75 17.937 22.75 12C22.75 6.063 17.937 1.25 12 1.25ZM2.75 12C2.75 9.54675 3.72455 7.19397 5.45926 5.45926C7.19397 3.72455 9.54675 2.75 12 2.75C14.4533 2.75 16.806 3.72455 18.5407 5.45926C20.2754 7.19397 21.25 9.54675 21.25 12C21.25 14.4533 20.2754 16.806 18.5407 18.5407C16.806 20.2754 14.4533 21.25 12 21.25C9.54675 21.25 7.19397 20.2754 5.45926 18.5407C3.72455 16.806 2.75 14.4533 2.75 12Z" fill="black"/>
</g>
<defs>
<clipPath id="clip0_221_16246">
<rect width="24" height="24" fill="white"/>
</clipPath>
</defs>
</svg>
