<svg width="24" height="24" viewBox="0 0 24 24" fill="none" xmlns="http://www.w3.org/2000/svg">
<g clip-path="url(#clip0_221_16820)">
<path fill-rule="evenodd" clip-rule="evenodd" d="M12 8.75C11.138 8.75 10.3114 9.09241 9.7019 9.7019C9.09241 10.3114 8.75 11.138 8.75 12C8.75 12.862 9.09241 13.6886 9.7019 14.2981C10.3114 14.9076 11.138 15.25 12 15.25C12.862 15.25 13.6886 14.9076 14.2981 14.2981C14.9076 13.6886 15.25 12.862 15.25 12C15.25 11.138 14.9076 10.3114 14.2981 9.7019C13.6886 9.09241 12.862 8.75 12 8.75ZM7.25 12C7.25 10.7402 7.75045 9.53204 8.64124 8.64124C9.53204 7.75045 10.7402 7.25 12 7.25C13.2598 7.25 14.468 7.75045 15.3588 8.64124C16.2496 9.53204 16.75 10.7402 16.75 12C16.75 13.2598 16.2496 14.468 15.3588 15.3588C14.468 16.2496 13.2598 16.75 12 16.75C10.7402 16.75 9.53204 16.2496 8.64124 15.3588C7.75045 14.468 7.25 13.2598 7.25 12Z" fill="black"/>
</g>
<defs>
<clipPath id="clip0_221_16820">
<rect width="24" height="24" fill="white"/>
</clipPath>
</defs>
</svg>
