<svg width="24" height="24" viewBox="0 0 24 24" fill="none" xmlns="http://www.w3.org/2000/svg">
<path d="M17.7627 7.28014C17.8634 7.28192 17.9627 7.30458 18.0547 7.34557C18.1465 7.38648 18.2293 7.44497 18.2979 7.51843L22.2686 11.4891C22.409 11.6298 22.4883 11.8207 22.4883 12.0194C22.4883 12.2182 22.409 12.409 22.2686 12.5497L18.3184 16.4999C18.1777 16.6403 17.9868 16.7196 17.7881 16.7196C17.5894 16.7196 17.3984 16.6403 17.2578 16.4999C17.1175 16.3593 17.0391 16.1682 17.0391 15.9696C17.0392 15.7712 17.1177 15.5808 17.2578 15.4403L19.9482 12.7499H19.417C19.0028 12.7499 18.667 12.4141 18.667 11.9999C18.6671 11.5857 19.0028 11.2499 19.417 11.2499H19.9092L17.2383 8.57897C17.1647 8.51039 17.1054 8.42767 17.0645 8.33581C17.0235 8.24394 17.0018 8.14438 17 8.04382C16.9982 7.94311 17.016 7.84228 17.0537 7.74889C17.0914 7.65568 17.1477 7.57099 17.2188 7.49987C17.29 7.42865 17.3754 7.37255 17.4688 7.33483C17.5621 7.29714 17.662 7.27837 17.7627 7.28014Z" fill="black"/>
<path d="M3.58301 11.2499C3.99718 11.2499 4.33295 11.5857 4.33301 11.9999C4.33301 12.4141 3.99722 12.7499 3.58301 12.7499H2C1.58579 12.7499 1.25 12.4141 1.25 11.9999C1.25006 11.5857 1.58582 11.2499 2 11.2499H3.58301Z" fill="black"/>
<path d="M9.99316 11.2538C10.3714 11.2921 10.6669 11.6115 10.667 11.9999C10.667 12.3883 10.3714 12.7076 9.99316 12.746L9.91699 12.7499H6.75C6.33579 12.7499 6 12.4141 6 11.9999C6.00006 11.5857 6.33582 11.2499 6.75 11.2499H9.91699L9.99316 11.2538Z" fill="black"/>
<path d="M16.25 11.2499C16.6642 11.2499 16.9999 11.5857 17 11.9999C17 12.4141 16.6642 12.7499 16.25 12.7499H13.083C12.6689 12.7497 12.333 12.414 12.333 11.9999C12.3331 11.5858 12.669 11.25 13.083 11.2499H16.25Z" fill="black"/>
</svg>
