<svg width="24" height="24" viewBox="0 0 24 24" fill="none" xmlns="http://www.w3.org/2000/svg">
<path d="M10.3505 9.38855C11.0413 9.38855 11.6013 8.82856 11.6013 8.13776C11.6013 7.44695 11.0413 6.88696 10.3505 6.88696C9.65968 6.88696 9.09967 7.44695 9.09967 8.13776C9.09967 8.82856 9.65968 9.38855 10.3505 9.38855Z" fill="black"/>
<path d="M10.3505 12.8903C11.0413 12.8903 11.6013 12.3303 11.6013 11.6395C11.6013 10.9487 11.0413 10.3887 10.3505 10.3887C9.65968 10.3887 9.09967 10.9487 9.09967 11.6395C9.09967 12.3303 9.65968 12.8903 10.3505 12.8903Z" fill="black"/>
<path d="M10.3505 16.3917C11.0413 16.3917 11.6013 15.8317 11.6013 15.1409C11.6013 14.4501 11.0413 13.8901 10.3505 13.8901C9.65968 13.8901 9.09967 14.4501 9.09967 15.1409C9.09967 15.8317 9.65968 16.3917 10.3505 16.3917Z" fill="black"/>
<path d="M13.8521 9.38855C14.5429 9.38855 15.1029 8.82856 15.1029 8.13776C15.1029 7.44695 14.5429 6.88696 13.8521 6.88696C13.1613 6.88696 12.6013 7.44695 12.6013 8.13776C12.6013 8.82856 13.1613 9.38855 13.8521 9.38855Z" fill="black"/>
<path d="M13.8521 12.8903C14.5429 12.8903 15.1029 12.3303 15.1029 11.6395C15.1029 10.9487 14.5429 10.3887 13.8521 10.3887C13.1613 10.3887 12.6013 10.9487 12.6013 11.6395C12.6013 12.3303 13.1613 12.8903 13.8521 12.8903Z" fill="black"/>
<path d="M13.8521 16.3917C14.5429 16.3917 15.1029 15.8317 15.1029 15.1409C15.1029 14.4501 14.5429 13.8901 13.8521 13.8901C13.1613 13.8901 12.6013 14.4501 12.6013 15.1409C12.6013 15.8317 13.1613 16.3917 13.8521 16.3917Z" fill="black"/>
</svg>
