<svg width="24" height="24" viewBox="0 0 24 24" fill="none" xmlns="http://www.w3.org/2000/svg">
<path d="M3.75 12.75H20.25C20.66 12.75 21 12.41 21 12C21 11.58 20.66 11.25 20.25 11.25H3.75C3.33 11.25 3 11.58 3 12C3 12.41 3.33 12.75 3.75 12.75Z" fill="black"/>
<path d="M6.97 7.71L3.22 11.46C2.92 11.75 2.92 12.22 3.22 12.52L6.97 16.27C7.26 16.56 7.73 16.56 8.03 16.27C8.32 15.97 8.32 15.5 8.03 15.2L4.28 11.45V12.51L8.03 8.76C8.32 8.46 8.32 7.99 8.03 7.69C7.73 7.39 7.26 7.39 6.96 7.69L6.97 7.71Z" fill="black"/>
<path d="M15.97 8.77L19.72 12.52V11.45L15.97 15.2C15.67 15.49 15.67 15.96 15.97 16.26C16.26 16.55 16.73 16.55 17.03 16.26L20.78 12.51C21.07 12.21 21.07 11.74 20.78 11.44L17.03 7.69C16.73 7.39 16.26 7.39 15.96 7.69C15.66 7.98 15.66 8.45 15.96 8.75L15.97 8.77Z" fill="black"/>
<path d="M0 0.75V23.25C0 23.66 0.33 24 0.75 24C1.16 24 1.5 23.66 1.5 23.25V0.75C1.5 0.33 1.16 0 0.75 0C0.33 0 0 0.33 0 0.75Z" fill="black"/>
<path d="M22.5 0.75V23.25C22.5 23.66 22.83 24 23.25 24C23.66 24 24 23.66 24 23.25V0.75C24 0.33 23.66 0 23.25 0C22.83 0 22.5 0.33 22.5 0.75Z" fill="black"/>
</svg>
