<svg width="24" height="24" viewBox="0 0 24 24" fill="none" xmlns="http://www.w3.org/2000/svg">
<g clip-path="url(#clip0_221_17022)">
<path fill-rule="evenodd" clip-rule="evenodd" d="M22.53 1.21999C22.823 1.51299 22.823 1.98699 22.53 2.27999L19.887 4.92399H19.888L18.699 6.11399L18.698 6.11299L15.442 9.36799C15.443 9.36899 15.443 9.36899 15.443 9.36899L14.226 10.586C14.226 10.586 14.226 10.586 14.225 10.585L10.835 13.975C10.836 13.976 10.836 13.976 10.836 13.976L9.619 15.193C9.619 15.193 9.619 15.193 9.618 15.192L6.54 18.271L6.541 18.272L5.329 19.483L2.53 22.28C2.237 22.573 1.763 22.573 1.47 22.28C1.177 21.987 1.177 21.513 1.47 21.22L4.113 18.576C3.104 17.735 2.268 16.811 1.597 15.939L1.562 15.894C1.116 15.315 0.707 14.782 0.428 14.152C0.129 13.477 0 12.741 0 11.75C0 10.759 0.129 10.023 0.428 9.34799C0.705 8.71799 1.115 8.18599 1.562 7.60599L1.596 7.55999C3.567 5.00099 6.961 1.98199 12 1.98199C14.677 1.98199 16.89 2.83499 18.672 4.01699L21.47 1.21999C21.763 0.926994 22.237 0.926994 22.53 1.21999ZM9.775 12.915L13.165 9.52499C12.809 9.33799 12.409 9.23799 12 9.23799C11.334 9.23799 10.695 9.50299 10.224 9.97399C9.753 10.445 9.488 11.084 9.488 11.75C9.488 12.159 9.588 12.559 9.775 12.915ZM14.382 8.30799C13.687 7.82699 12.857 7.56399 12 7.56399C10.89 7.56399 9.825 8.00499 9.04 8.78999C8.255 9.57499 7.814 10.64 7.814 11.75C7.814 12.607 8.077 13.437 8.558 14.132L5.302 17.387C4.36 16.621 3.57 15.757 2.925 14.918C2.433 14.282 2.148 13.902 1.959 13.476C1.783 13.076 1.674 12.588 1.674 11.75C1.674 10.912 1.783 10.424 1.959 10.024C2.148 9.59799 2.436 9.21799 2.925 8.58199C4.742 6.21899 7.702 3.65699 12 3.65699C14.146 3.65699 15.958 4.29499 17.461 5.22899L14.382 8.30799ZM7.54 19.394C7.775 19.159 8.125 19.085 8.435 19.204C9.502 19.604 10.689 19.843 12 19.843C16.298 19.843 19.256 17.281 21.077 14.918C21.565 14.282 21.852 13.902 22.041 13.476C22.217 13.076 22.326 12.588 22.326 11.75C22.326 10.912 22.217 10.424 22.041 10.024C21.852 9.59799 21.567 9.21799 21.075 8.58199C20.847 8.28499 20.601 7.98599 20.337 7.68899C20.048 7.36499 20.062 6.87199 20.369 6.56599C20.377 6.55599 20.386 6.54699 20.396 6.53799C20.555 6.37899 20.773 6.29199 20.998 6.29799C21.223 6.30399 21.435 6.40299 21.585 6.57099C21.88 6.90399 22.153 7.23599 22.403 7.55999L22.44 7.60899C22.885 8.18699 23.294 8.71899 23.573 9.34799C23.871 10.023 24 10.759 24 11.75C24 12.741 23.871 13.477 23.573 14.152C23.295 14.782 22.885 15.315 22.438 15.894L22.404 15.939C20.434 18.499 17.039 21.517 12 21.517C10.456 21.517 9.067 21.234 7.825 20.767C7.563 20.665 7.371 20.437 7.314 20.161C7.256 19.886 7.341 19.6 7.54 19.401C7.538 19.396 7.539 19.395 7.54 19.394ZM13.776 13.526C13.563 13.739 13.315 13.91 13.046 14.033C12.888 14.104 12.744 14.203 12.621 14.326C12.396 14.537 12.026 14.908 11.706 15.228C11.587 15.346 11.551 15.525 11.615 15.68C11.679 15.835 11.831 15.937 11.999 15.937C11.999 15.936 12 15.936 12 15.936C13.11 15.936 14.175 15.495 14.96 14.71C15.745 13.925 16.186 12.86 16.186 11.75V11.749C16.186 11.581 16.085 11.43 15.93 11.366C15.775 11.302 15.596 11.337 15.478 11.456C15.083 11.85 14.613 12.321 14.444 12.49C14.402 12.532 14.37 12.582 14.35 12.638C14.225 12.968 14.031 13.271 13.776 13.526Z" fill="black"/>
</g>
<defs>
<clipPath id="clip0_221_17022">
<rect width="24" height="24" fill="white"/>
</clipPath>
</defs>
</svg>
