<svg width="24" height="24" viewBox="0 0 24 24" fill="none" xmlns="http://www.w3.org/2000/svg">
<path d="M12.75 20.25L12.75 3.75C12.75 3.34 12.41 3 12 3C11.58 3 11.25 3.34 11.25 3.75L11.25 20.25C11.25 20.67 11.58 21 12 21C12.41 21 12.75 20.67 12.75 20.25Z" fill="black"/>
<path d="M7.71 17.03L11.46 20.78C11.75 21.08 12.22 21.08 12.52 20.78L16.27 17.03C16.56 16.74 16.56 16.27 16.27 15.97C15.97 15.68 15.5 15.68 15.2 15.97L11.45 19.72L12.51 19.72L8.76 15.97C8.46 15.68 7.99 15.68 7.69 15.97C7.39 16.27 7.39 16.74 7.69 17.04L7.71 17.03Z" fill="black"/>
<path d="M8.77 8.03L12.52 4.28L11.45 4.28L15.2 8.03C15.49 8.33 15.96 8.33 16.26 8.03C16.55 7.74 16.55 7.27 16.26 6.97L12.51 3.22C12.21 2.93 11.74 2.93 11.44 3.22L7.69 6.97C7.39 7.27 7.39 7.74 7.69 8.04C7.98 8.34 8.45 8.34 8.75 8.04L8.77 8.03Z" fill="black"/>
<path d="M0.75 24L23.25 24C23.66 24 24 23.67 24 23.25C24 22.84 23.66 22.5 23.25 22.5L0.75 22.5C0.33 22.5 -5.07052e-08 22.84 -3.27835e-08 23.25C-1.44248e-08 23.67 0.33 24 0.75 24Z" fill="black"/>
<path d="M0.749999 1.5L23.25 1.5C23.66 1.5 24 1.17 24 0.749999C24 0.339999 23.66 -1.03421e-06 23.25 -1.01629e-06L0.749999 -3.27835e-08C0.329999 -1.44248e-08 -1.03421e-06 0.34 -1.01629e-06 0.75C-9.97931e-07 1.17 0.329999 1.5 0.749999 1.5Z" fill="black"/>
</svg>
