<svg width="24" height="24" viewBox="0 0 24 24" fill="none" xmlns="http://www.w3.org/2000/svg">
<g clip-path="url(#clip0_221_16441)">
<path d="M10.9801 11.9668L2.79004 3.7768V7.82384C2.79004 8.02284 2.71105 8.21381 2.57105 8.35481C2.43005 8.49481 2.23904 8.57384 2.04004 8.57384C1.84104 8.57384 1.65107 8.49481 1.51007 8.35481C1.36907 8.21381 1.29004 8.02284 1.29004 7.82384V1.9668C1.29004 1.7678 1.36907 1.5778 1.51007 1.4368C1.65107 1.2958 1.84104 1.2168 2.04004 1.2168H7.89711C8.09611 1.2168 8.28706 1.2958 8.42806 1.4368C8.56806 1.5778 8.64711 1.7678 8.64711 1.9668C8.64711 2.1658 8.56806 2.35681 8.42806 2.49781C8.28706 2.63781 8.09611 2.7168 7.89711 2.7168H3.85108L12.0411 10.9068L20.2301 2.7168H16.1831C15.9841 2.7168 15.7941 2.63781 15.6531 2.49781C15.5121 2.35681 15.4331 2.1658 15.4331 1.9668C15.4331 1.7678 15.5121 1.5778 15.6531 1.4368C15.7941 1.2958 15.9841 1.2168 16.1831 1.2168H22.0401C22.2391 1.2168 22.4301 1.2958 22.5711 1.4368C22.7111 1.5778 22.7901 1.7678 22.7901 1.9668V7.82384C22.7901 8.02284 22.7111 8.21381 22.5711 8.35481C22.4301 8.49481 22.2391 8.57384 22.0401 8.57384C21.8411 8.57384 21.6511 8.49481 21.5101 8.35481C21.3691 8.21381 21.2901 8.02284 21.2901 7.82384V3.77781L13.1011 11.9668L17.5711 16.4368C17.5761 16.4418 17.5811 16.4479 17.5861 16.4529L21.2901 20.1568V16.1098C21.2901 16.0118 21.3101 15.9138 21.3471 15.8228C21.3851 15.7318 21.4401 15.6498 21.5101 15.5798C21.5801 15.5098 21.6621 15.4548 21.7531 15.4168C21.8441 15.3798 21.9421 15.3598 22.0401 15.3598C22.1391 15.3598 22.2361 15.3798 22.3271 15.4168C22.4181 15.4548 22.5011 15.5098 22.5711 15.5798C22.6401 15.6498 22.6961 15.7318 22.7331 15.8228C22.7711 15.9138 22.7901 16.0118 22.7901 16.1098V21.9668C22.7901 22.3808 22.4541 22.7168 22.0401 22.7168H16.1831C15.9841 22.7168 15.7941 22.6379 15.6531 22.4979C15.5121 22.3568 15.4331 22.1658 15.4331 21.9668C15.4331 21.7678 15.5121 21.5778 15.6531 21.4368C15.7941 21.2958 15.9841 21.2168 16.1831 21.2168H20.2291L14.5091 15.4968C14.4981 15.4868 14.4871 15.4748 14.4771 15.4638L12.0411 13.0278L7.57008 17.4978C7.56508 17.5028 7.56007 17.5079 7.55507 17.5129L3.8501 21.2168H7.89711C7.99611 21.2168 8.0931 21.2368 8.1841 21.2738C8.2751 21.3118 8.35806 21.3668 8.42806 21.4368C8.49706 21.5068 8.5531 21.5889 8.5901 21.6799C8.6281 21.7709 8.64711 21.8688 8.64711 21.9668C8.64711 22.0658 8.6281 22.1629 8.5901 22.2539C8.5531 22.3449 8.49706 22.4279 8.42806 22.4979C8.35806 22.5669 8.2751 22.6229 8.1841 22.6599C8.0931 22.6979 7.99611 22.7168 7.89711 22.7168H2.04004C1.62604 22.7168 1.29004 22.3808 1.29004 21.9668V16.1098C1.29004 15.9108 1.36907 15.7208 1.51007 15.5798C1.65107 15.4388 1.84104 15.3598 2.04004 15.3598C2.23904 15.3598 2.43005 15.4388 2.57105 15.5798C2.71105 15.7208 2.79004 15.9108 2.79004 16.1098V20.1559L8.51009 14.4359C8.52109 14.4249 8.53208 14.4138 8.54408 14.4038L10.9801 11.9668ZM7.55507 17.5129C7.41507 17.6399 7.2321 17.7098 7.0431 17.7088C6.8461 17.7068 6.65806 17.6278 6.51905 17.4888C6.38005 17.3498 6.30106 17.1608 6.30006 16.9648C6.29806 16.7678 6.37408 16.5788 6.51008 16.4368L8.54408 14.4038C8.60608 14.3468 8.67711 14.3019 8.75411 14.2679C8.84511 14.2289 8.94411 14.2078 9.04311 14.2078C9.14311 14.2068 9.24206 14.2258 9.33406 14.2638C9.42606 14.3008 9.5101 14.3568 9.5801 14.4278C9.6511 14.4978 9.7061 14.5818 9.7441 14.6738C9.7821 14.7658 9.80007 14.8648 9.80007 14.9648C9.79907 15.0638 9.77809 15.1618 9.73909 15.2538C9.69909 15.3448 9.64209 15.4278 9.57009 15.4968L7.55507 17.5129ZM17.5861 16.4529C17.7131 16.5929 17.7831 16.7748 17.7821 16.9648C17.7801 17.1618 17.7011 17.3498 17.5621 17.4888C17.4231 17.6278 17.2341 17.7058 17.0381 17.7078C16.8411 17.7098 16.6521 17.6338 16.5101 17.4968L14.4771 15.4638C14.4201 15.4018 14.3741 15.3308 14.3411 15.2538C14.3021 15.1618 14.2811 15.0638 14.2811 14.9638C14.2801 14.8648 14.2991 14.7658 14.3371 14.6738C14.3741 14.5818 14.4301 14.4978 14.5011 14.4278C14.5711 14.3568 14.6551 14.3018 14.7471 14.2638C14.8391 14.2258 14.9381 14.2068 15.0381 14.2078C15.1371 14.2088 15.2351 14.2298 15.3271 14.2688C15.4181 14.3088 15.5011 14.3658 15.5701 14.4368L17.5861 16.4529Z" fill="black"/>
</g>
<defs>
<clipPath id="clip0_221_16441">
<rect width="24" height="24" fill="white"/>
</clipPath>
</defs>
</svg>
