<svg width="24" height="24" viewBox="0 0 24 24" fill="none" xmlns="http://www.w3.org/2000/svg">
<g clip-path="url(#clip0_221_17381)">
<path fill-rule="evenodd" clip-rule="evenodd" d="M11.25 6.448C11.25 5.55 11.25 4.8 11.17 4.206C11.086 3.578 10.9 3.011 10.445 2.556C9.989 2.1 9.422 1.914 8.795 1.83C8.2 1.75 7.45 1.75 6.552 1.75L6.448 1.75C5.55 1.75 4.8 1.75 4.206 1.83C3.578 1.914 3.011 2.1 2.556 2.555C2.1 3.011 1.914 3.578 1.83 4.205C1.75 4.8 1.75 5.55 1.75 6.448L1.75 6.552C1.75 7.45 1.75 8.2 1.83 8.794C1.914 9.422 2.1 9.989 2.556 10.444C3.011 10.9 3.578 11.086 4.206 11.17C4.8 11.25 5.55 11.25 6.448 11.25L6.552 11.25C7.45 11.25 8.2 11.25 8.794 11.17C9.422 11.086 9.989 10.9 10.444 10.444C10.9 9.989 11.086 9.422 11.17 8.794C11.25 8.2 11.25 7.45 11.25 6.552L11.25 6.448ZM9.384 3.616C9.514 3.746 9.621 3.944 9.684 4.406C9.748 4.888 9.75 5.536 9.75 6.5C9.75 7.464 9.748 8.112 9.683 8.595C9.621 9.056 9.514 9.254 9.383 9.384C9.252 9.514 9.056 9.621 8.595 9.684C8.112 9.748 7.464 9.75 6.5 9.75C5.536 9.75 4.888 9.748 4.405 9.683C3.944 9.621 3.746 9.514 3.616 9.383C3.486 9.252 3.379 9.056 3.316 8.595C3.252 8.112 3.25 7.464 3.25 6.5C3.25 5.536 3.252 4.888 3.317 4.405C3.379 3.944 3.486 3.746 3.617 3.616C3.748 3.486 3.944 3.379 4.405 3.316C4.888 3.253 5.536 3.25 6.5 3.25C7.464 3.25 8.112 3.252 8.595 3.317C9.056 3.379 9.254 3.486 9.384 3.617M11.25 17.448C11.25 16.549 11.25 15.8 11.17 15.206C11.086 14.578 10.9 14.011 10.445 13.556C9.989 13.1 9.422 12.914 8.795 12.83C8.2 12.75 7.45 12.75 6.552 12.75L6.448 12.75C5.55 12.75 4.8 12.75 4.206 12.83C3.578 12.914 3.011 13.1 2.556 13.556C2.1 14.011 1.914 14.578 1.83 15.206C1.75 15.8 1.75 16.549 1.75 17.448L1.75 17.552C1.75 18.451 1.75 19.2 1.83 19.794C1.914 20.422 2.1 20.989 2.556 21.444C3.011 21.9 3.578 22.086 4.206 22.17C4.8 22.25 5.55 22.25 6.448 22.25L6.552 22.25C7.45 22.25 8.2 22.25 8.794 22.17C9.422 22.086 9.989 21.9 10.444 21.444C10.9 20.989 11.086 20.422 11.17 19.794C11.25 19.2 11.25 18.451 11.25 17.552L11.25 17.448ZM9.384 14.616C9.514 14.746 9.621 14.944 9.684 15.406C9.748 15.888 9.75 16.536 9.75 17.5C9.75 18.464 9.748 19.112 9.683 19.595C9.621 20.056 9.514 20.254 9.383 20.384C9.252 20.514 9.056 20.621 8.595 20.684C8.112 20.748 7.464 20.75 6.5 20.75C5.536 20.75 4.888 20.748 4.405 20.683C3.944 20.621 3.746 20.514 3.616 20.383C3.486 20.252 3.379 20.056 3.316 19.595C3.252 19.112 3.25 18.464 3.25 17.5C3.25 16.536 3.252 15.888 3.317 15.405C3.379 14.944 3.486 14.746 3.617 14.616C3.748 14.486 3.944 14.379 4.405 14.316C4.888 14.252 5.536 14.25 6.5 14.25C7.464 14.25 8.112 14.252 8.595 14.316C9.056 14.379 9.254 14.486 9.384 14.616Z" fill="black"/>
<path d="M17.4688 20.0061C17.539 20.083 17.6245 20.1443 17.7198 20.1863C17.8151 20.2283 17.9181 20.25 18.0223 20.25C18.1264 20.25 18.2294 20.2283 18.3247 20.1863C18.42 20.1443 18.5055 20.083 18.5758 20.0061L21.5758 16.6311C21.6994 16.4829 21.7611 16.2927 21.7481 16.1001C21.735 15.9075 21.6483 15.7274 21.5058 15.5972C21.3633 15.467 21.1762 15.3967 20.9832 15.4009C20.7902 15.4052 20.6063 15.4837 20.4698 15.6201L18.7738 17.5701L18.7738 4.5001C18.7738 4.30119 18.6948 4.11042 18.5541 3.96977C18.4135 3.82912 18.2227 3.7501 18.0238 3.7501C17.8249 3.7501 17.6341 3.82912 17.4934 3.96977C17.3528 4.11042 17.2738 4.30119 17.2738 4.5001L17.2738 17.5681L15.5768 15.6181C15.4424 15.4713 15.2553 15.3839 15.0565 15.3751C14.8577 15.3663 14.6636 15.4368 14.5168 15.5711C14.37 15.7054 14.2826 15.8926 14.2737 16.0914C14.2649 16.2902 14.3354 16.4843 14.4698 16.6311L17.4688 20.0061Z" fill="black"/>
</g>
<defs>
<clipPath id="clip0_221_17381">
<rect width="24" height="24" fill="white"/>
</clipPath>
</defs>
</svg>
