<svg width="24" height="24" viewBox="0 0 24 24" fill="none" xmlns="http://www.w3.org/2000/svg">
<g clip-path="url(#clip0_221_17387)">
<g clip-path="url(#clip1_221_17387)">
<path fill-rule="evenodd" clip-rule="evenodd" d="M6.948 1.75C6.05 1.75 5.3 1.75 4.706 1.83C4.078 1.914 3.511 2.1 3.056 2.555C2.6 3.011 2.414 3.578 2.33 4.205C2.25 4.8 2.25 5.55 2.25 6.448V6.552C2.25 7.45 2.25 8.2 2.33 8.794C2.414 9.422 2.6 9.989 3.055 10.444C3.511 10.9 4.078 11.086 4.705 11.17C5.3 11.25 6.05 11.25 6.948 11.25H7.052C7.95 11.25 8.7 11.25 9.294 11.17C9.922 11.086 10.489 10.9 10.944 10.444C11.4 9.989 11.586 9.422 11.67 8.794C11.75 8.2 11.75 7.45 11.75 6.552V6.448C11.75 5.55 11.75 4.8 11.67 4.206C11.586 3.578 11.4 3.011 10.944 2.556C10.489 2.1 9.922 1.914 9.294 1.83C8.7 1.75 7.95 1.75 7.052 1.75H6.948ZM4.116 3.616C4.246 3.486 4.444 3.379 4.906 3.316C5.388 3.252 6.036 3.25 7 3.25C7.964 3.25 8.612 3.252 9.095 3.317C9.556 3.379 9.754 3.486 9.884 3.617C10.014 3.748 10.121 3.944 10.184 4.405C10.248 4.888 10.25 5.536 10.25 6.5C10.25 7.464 10.248 8.112 10.183 8.595C10.121 9.056 10.014 9.254 9.883 9.384C9.752 9.514 9.556 9.621 9.095 9.684C8.612 9.748 7.964 9.75 7 9.75C6.036 9.75 5.388 9.748 4.905 9.683C4.444 9.621 4.246 9.514 4.116 9.383C3.986 9.252 3.879 9.056 3.816 8.595C3.753 8.112 3.75 7.464 3.75 6.5C3.75 5.536 3.752 4.888 3.817 4.405C3.879 3.944 3.986 3.746 4.117 3.616M17.948 4.75C17.049 4.75 16.3 4.75 15.706 4.83C15.078 4.914 14.511 5.1 14.056 5.556C13.6 6.011 13.414 6.578 13.33 7.206C13.25 7.8 13.25 8.549 13.25 9.448V9.552C13.25 10.451 13.25 11.2 13.33 11.794C13.414 12.422 13.6 12.989 14.056 13.444C14.511 13.9 15.078 14.086 15.706 14.17C16.3 14.25 17.049 14.25 17.948 14.25H18.052C18.95 14.25 19.7 14.25 20.294 14.17C20.922 14.086 21.489 13.9 21.944 13.444C22.4 12.989 22.586 12.422 22.67 11.794C22.75 11.2 22.75 10.451 22.75 9.552V9.448C22.75 8.55 22.75 7.8 22.67 7.206C22.586 6.578 22.4 6.011 21.944 5.556C21.489 5.1 20.922 4.914 20.294 4.83C19.7 4.75 18.951 4.75 18.052 4.75H17.948ZM15.116 6.616C15.246 6.486 15.444 6.379 15.906 6.316C16.388 6.252 17.036 6.25 18 6.25C18.964 6.25 19.612 6.252 20.095 6.316C20.556 6.379 20.754 6.486 20.884 6.616C21.014 6.746 21.121 6.944 21.184 7.406C21.248 7.888 21.25 8.536 21.25 9.5C21.25 10.464 21.248 11.112 21.183 11.595C21.121 12.056 21.014 12.254 20.883 12.384C20.752 12.514 20.556 12.621 20.095 12.684C19.612 12.748 18.964 12.75 18 12.75C17.036 12.75 16.388 12.748 15.905 12.683C15.444 12.621 15.246 12.514 15.116 12.383C14.986 12.252 14.879 12.056 14.816 11.595C14.752 11.112 14.75 10.464 14.75 9.5C14.75 8.536 14.752 7.888 14.816 7.405C14.879 6.944 14.986 6.746 15.116 6.616ZM8.948 13.75H9.052C9.95 13.75 10.7 13.75 11.294 13.83C11.922 13.914 12.489 14.1 12.944 14.556C13.4 15.011 13.586 15.578 13.67 16.206C13.75 16.8 13.75 17.549 13.75 18.448V18.552C13.75 19.451 13.75 20.2 13.67 20.794C13.586 21.422 13.4 21.989 12.944 22.444C12.489 22.9 11.922 23.086 11.294 23.17C10.7 23.25 9.951 23.25 9.052 23.25H8.948C8.05 23.25 7.3 23.25 6.706 23.17C6.078 23.086 5.511 22.9 5.056 22.444C4.6 21.989 4.414 21.422 4.33 20.794C4.25 20.2 4.25 19.451 4.25 18.552V18.448C4.25 17.549 4.25 16.8 4.33 16.206C4.414 15.578 4.6 15.011 5.055 14.556C5.511 14.1 6.078 13.914 6.705 13.83C7.3 13.75 8.05 13.75 8.948 13.75ZM6.905 15.316C6.444 15.379 6.246 15.486 6.116 15.616C5.986 15.746 5.879 15.944 5.816 16.406C5.752 16.888 5.75 17.536 5.75 18.5C5.75 19.464 5.752 20.112 5.817 20.595C5.879 21.056 5.986 21.254 6.117 21.384C6.248 21.514 6.444 21.621 6.905 21.684C7.388 21.748 8.036 21.75 9 21.75C9.964 21.75 10.612 21.748 11.095 21.683C11.556 21.621 11.754 21.514 11.884 21.383C12.014 21.252 12.121 21.056 12.184 20.595C12.248 20.112 12.25 19.464 12.25 18.5C12.25 17.536 12.248 16.888 12.183 16.405C12.121 15.944 12.014 15.746 11.883 15.616C11.752 15.486 11.556 15.379 11.095 15.316C10.612 15.252 9.964 15.25 9 15.25C8.036 15.25 7.388 15.252 6.905 15.316Z" fill="black"/>
</g>
</g>
<defs>
<clipPath id="clip0_221_17387">
<rect width="24" height="24" fill="white"/>
</clipPath>
<clipPath id="clip1_221_17387">
<rect width="24" height="24" fill="white" transform="translate(24) rotate(90)"/>
</clipPath>
</defs>
</svg>
