<svg width="24" height="24" viewBox="0 0 24 24" fill="none" xmlns="http://www.w3.org/2000/svg">
<g clip-path="url(#clip0_221_17375)">
<path fill-rule="evenodd" clip-rule="evenodd" d="M6.448 1.75C5.55 1.75 4.8 1.75 4.206 1.83C3.578 1.914 3.011 2.1 2.556 2.555C2.1 3.011 1.914 3.578 1.83 4.205C1.75 4.8 1.75 5.55 1.75 6.448V6.552C1.75 7.45 1.75 8.2 1.83 8.794C1.914 9.422 2.1 9.989 2.555 10.444C3.011 10.9 3.578 11.086 4.205 11.17C4.8 11.25 5.55 11.25 6.448 11.25H6.552C7.45 11.25 8.2 11.25 8.794 11.17C9.422 11.086 9.989 10.9 10.444 10.444C10.9 9.989 11.086 9.422 11.17 8.794C11.25 8.2 11.25 7.45 11.25 6.552V6.448C11.25 5.55 11.25 4.8 11.17 4.206C11.086 3.578 10.9 3.011 10.444 2.556C9.989 2.1 9.422 1.914 8.794 1.83C8.2 1.75 7.45 1.75 6.552 1.75H6.448ZM3.616 3.616C3.746 3.486 3.944 3.379 4.406 3.316C4.888 3.252 5.536 3.25 6.5 3.25C7.464 3.25 8.112 3.252 8.595 3.317C9.056 3.379 9.254 3.486 9.384 3.617C9.514 3.748 9.621 3.944 9.684 4.405C9.748 4.888 9.75 5.536 9.75 6.5C9.75 7.464 9.748 8.112 9.683 8.595C9.621 9.056 9.514 9.254 9.383 9.384C9.252 9.514 9.056 9.621 8.595 9.684C8.112 9.748 7.464 9.75 6.5 9.75C5.536 9.75 4.888 9.748 4.405 9.683C3.944 9.621 3.746 9.514 3.616 9.383C3.486 9.252 3.379 9.056 3.316 8.595C3.253 8.112 3.25 7.464 3.25 6.5C3.25 5.536 3.252 4.888 3.317 4.405C3.379 3.944 3.486 3.746 3.617 3.616M17.448 1.75C16.549 1.75 15.8 1.75 15.206 1.83C14.578 1.914 14.011 2.1 13.556 2.555C13.1 3.011 12.914 3.578 12.83 4.205C12.75 4.8 12.75 5.55 12.75 6.448V6.552C12.75 7.45 12.75 8.2 12.83 8.794C12.914 9.422 13.1 9.989 13.556 10.444C14.011 10.9 14.578 11.086 15.206 11.17C15.8 11.25 16.549 11.25 17.448 11.25H17.552C18.451 11.25 19.2 11.25 19.794 11.17C20.422 11.086 20.989 10.9 21.444 10.444C21.9 9.989 22.086 9.422 22.17 8.794C22.25 8.2 22.25 7.45 22.25 6.552V6.448C22.25 5.55 22.25 4.8 22.17 4.206C22.086 3.578 21.9 3.011 21.444 2.556C20.989 2.1 20.422 1.914 19.794 1.83C19.2 1.75 18.451 1.75 17.552 1.75H17.448ZM14.616 3.616C14.746 3.486 14.944 3.379 15.406 3.316C15.888 3.252 16.536 3.25 17.5 3.25C18.464 3.25 19.112 3.252 19.595 3.317C20.056 3.379 20.254 3.486 20.384 3.617C20.514 3.748 20.621 3.944 20.684 4.405C20.748 4.888 20.75 5.536 20.75 6.5C20.75 7.464 20.748 8.112 20.683 8.595C20.621 9.056 20.514 9.254 20.383 9.384C20.252 9.514 20.056 9.621 19.595 9.684C19.112 9.748 18.464 9.75 17.5 9.75C16.536 9.75 15.888 9.748 15.405 9.683C14.944 9.621 14.746 9.514 14.616 9.383C14.486 9.252 14.379 9.056 14.316 8.595C14.252 8.112 14.25 7.464 14.25 6.5C14.25 5.536 14.252 4.888 14.316 4.405C14.379 3.944 14.486 3.746 14.616 3.616Z" fill="black"/>
<path d="M20.0061 18.5313C20.083 18.461 20.1443 18.3755 20.1863 18.2802C20.2283 18.1849 20.25 18.0819 20.25 17.9778C20.25 17.8736 20.2283 17.7706 20.1863 17.6753C20.1443 17.58 20.083 17.4945 20.0061 17.4243L16.6311 14.4243C16.4829 14.3006 16.2927 14.2389 16.1001 14.252C15.9075 14.265 15.7274 14.3518 15.5972 14.4942C15.467 14.6367 15.3967 14.8239 15.4009 15.0168C15.4052 15.2098 15.4837 15.3937 15.6201 15.5303L17.5701 17.2263L4.5001 17.2263C4.30119 17.2263 4.11042 17.3053 3.96977 17.4459C3.82912 17.5866 3.7501 17.7773 3.7501 17.9763C3.7501 18.1752 3.82912 18.3659 3.96977 18.5066C4.11042 18.6472 4.30119 18.7263 4.5001 18.7263L17.5681 18.7263L15.6181 20.4233C15.4713 20.5576 15.3839 20.7447 15.3751 20.9435C15.3663 21.1423 15.4368 21.3365 15.5711 21.4833C15.7054 21.6301 15.8926 21.7175 16.0914 21.7263C16.2902 21.7351 16.4843 21.6646 16.6311 21.5303L20.0061 18.5313Z" fill="black"/>
</g>
<defs>
<clipPath id="clip0_221_17375">
<rect width="24" height="24" fill="white"/>
</clipPath>
</defs>
</svg>
