<svg width="24" height="24" viewBox="0 0 24 24" fill="none" xmlns="http://www.w3.org/2000/svg">
<path fill-rule="evenodd" clip-rule="evenodd" d="M14.5109 3.89598C14.8069 3.77078 15.1491 3.83489 15.3797 4.05876L22.497 10.9677C22.6518 11.1179 22.7393 11.3242 22.7398 11.5399C22.7403 11.7555 22.6537 11.9622 22.4997 12.1132L15.4893 18.9817C15.2593 19.2071 14.9165 19.2726 14.6195 19.1478C14.3226 19.023 14.1295 18.7323 14.1295 18.4103V15.2756L2.07804 15.2005C1.63778 15.1983 1.28204 14.8407 1.28204 14.4005V8.59506C1.28204 8.15324 1.64022 7.79506 2.08204 7.79506H14.0225V4.63278C14.0225 4.31138 14.2148 4.02118 14.5109 3.89598ZM15.6225 6.52429V8.59506C15.6225 9.03689 15.2643 9.39506 14.8225 9.39506H2.88204V13.6045L14.9335 13.6796C15.3737 13.6818 15.7295 14.0393 15.7295 14.4796V16.5065L20.794 11.5444L15.6225 6.52429Z" fill="black"/>
</svg>
