<svg width="24" height="24" viewBox="0 0 24 24" fill="none" xmlns="http://www.w3.org/2000/svg">
<g clip-path="url(#clip0_221_16623)">
<path fill-rule="evenodd" clip-rule="evenodd" d="M10.2803 1.71967C10.5732 2.01256 10.5732 2.48744 10.2803 2.78033L2.78033 10.2803C2.48744 10.5732 2.01256 10.5732 1.71967 10.2803C1.42678 9.98744 1.42678 9.51256 1.71967 9.21967L9.21967 1.71967C9.51256 1.42678 9.98744 1.42678 10.2803 1.71967Z" fill="black"/>
<path fill-rule="evenodd" clip-rule="evenodd" d="M13.7197 1.71967C14.0126 1.42678 14.4874 1.42678 14.7803 1.71967L22.2803 9.21967C22.5732 9.51256 22.5732 9.98744 22.2803 10.2803C21.9874 10.5732 21.5126 10.5732 21.2197 10.2803L13.7197 2.78033C13.4268 2.48744 13.4268 2.01256 13.7197 1.71967Z" fill="black"/>
<path fill-rule="evenodd" clip-rule="evenodd" d="M22.2803 13.7197C22.5732 14.0126 22.5732 14.4874 22.2803 14.7803L14.7803 22.2803C14.4874 22.5732 14.0126 22.5732 13.7197 22.2803C13.4268 21.9874 13.4268 21.5126 13.7197 21.2197L21.2197 13.7197C21.5126 13.4268 21.9874 13.4268 22.2803 13.7197Z" fill="black"/>
<path fill-rule="evenodd" clip-rule="evenodd" d="M1.71967 13.7197C2.01256 13.4268 2.48744 13.4268 2.78033 13.7197L10.2803 21.2197C10.5732 21.5126 10.5732 21.9874 10.2803 22.2803C9.98744 22.5732 9.51256 22.5732 9.21967 22.2803L1.71967 14.7803C1.42678 14.4874 1.42678 14.0126 1.71967 13.7197Z" fill="black"/>
<path fill-rule="evenodd" clip-rule="evenodd" d="M6.61391 2.92632C5.3358 3.09811 4.56473 3.42484 3.99421 3.99445C3.42484 4.56436 3.09811 5.33526 2.92632 6.61353C2.75159 7.91358 2.75 9.62181 2.75 12C2.75 14.3782 2.75159 16.0867 2.92632 17.3867C3.09816 18.6653 3.42496 19.4357 3.99415 20.0045C4.56411 20.5745 5.33519 20.9016 6.61359 21.0736C7.91361 21.2484 9.62179 21.25 12 21.25C14.3782 21.25 16.0866 21.2484 17.3867 21.0736C18.6651 20.9016 19.4355 20.5746 20.0043 20.005C20.5741 19.4356 20.9016 18.6646 21.0736 17.3863C21.2484 16.0864 21.25 14.3782 21.25 12C21.25 9.62179 21.2484 7.91386 21.0736 6.61398C20.9016 5.33578 20.5747 4.56471 20.0045 3.99415C19.4351 3.42487 18.6646 3.09813 17.3863 2.92632C16.0864 2.75159 14.3782 2.75 12 2.75C9.6218 2.75 7.91384 2.75159 6.61391 2.92632ZM11.9426 1.25H12.0574C14.3657 1.24999 16.1748 1.24998 17.5862 1.43968C19.0308 1.63386 20.1707 2.03906 21.0653 2.93367C21.9602 3.82911 22.3659 4.96922 22.5602 6.41402C22.75 7.82546 22.75 9.63424 22.75 11.9426V12.0574C22.75 14.3658 22.75 16.1748 22.5602 17.5862C22.3659 19.0307 21.9605 20.1706 21.0655 21.0651C20.1714 21.9604 19.0313 22.3659 17.5866 22.5602C16.175 22.75 14.3658 22.75 12.0574 22.75H11.9426C9.63424 22.75 7.82521 22.75 6.41366 22.5602C4.9689 22.3659 3.82886 21.9604 2.93385 21.0655C2.03916 20.1713 1.63383 19.0311 1.43968 17.5865C1.24998 16.175 1.24999 14.3657 1.25 12.0574V11.9426C1.24999 9.63425 1.24998 7.82525 1.43968 6.41372C1.63386 4.96897 2.03905 3.82891 2.93349 2.93385C3.82895 2.03961 4.96938 1.63387 6.41409 1.43968C7.8255 1.24998 9.63426 1.24999 11.9426 1.25ZM2.93385 21.0655C2.93379 21.0655 2.93391 21.0656 2.93385 21.0655V21.0655Z" fill="black"/>
</g>
<defs>
<clipPath id="clip0_221_16623">
<rect width="24" height="24" fill="white"/>
</clipPath>
</defs>
</svg>
