<svg width="24" height="24" viewBox="0 0 24 24" fill="none" xmlns="http://www.w3.org/2000/svg">
<g clip-path="url(#clip0_221_16456)">
<path fill-rule="evenodd" clip-rule="evenodd" d="M9.944 1.25H10C10.1989 1.25 10.3897 1.32902 10.5303 1.46967C10.671 1.61032 10.75 1.80109 10.75 2C10.75 2.19891 10.671 2.38968 10.5303 2.53033C10.3897 2.67098 10.1989 2.75 10 2.75C8.093 2.75 6.739 2.752 5.71 2.89C4.705 3.025 4.125 3.279 3.702 3.702C3.279 4.125 3.025 4.705 2.89 5.71C2.752 6.739 2.75 8.093 2.75 10C2.75 10.1989 2.67098 10.3897 2.53033 10.5303C2.38968 10.671 2.19891 10.75 2 10.75C1.80109 10.75 1.61032 10.671 1.46967 10.5303C1.32902 10.3897 1.25 10.1989 1.25 10V9.944C1.25 8.106 1.25 6.65 1.403 5.511C1.561 4.339 1.893 3.39 2.641 2.641C3.39 1.893 4.339 1.561 5.511 1.403C6.651 1.25 8.106 1.25 9.944 1.25ZM18.289 2.89C17.262 2.752 15.907 2.75 14 2.75C13.8011 2.75 13.6103 2.67098 13.4697 2.53033C13.329 2.38968 13.25 2.19891 13.25 2C13.25 1.80109 13.329 1.61032 13.4697 1.46967C13.6103 1.32902 13.8011 1.25 14 1.25H14.056C15.894 1.25 17.35 1.25 18.489 1.403C19.661 1.561 20.61 1.893 21.359 2.641C22.107 3.39 22.439 4.339 22.597 5.511C22.75 6.651 22.75 8.106 22.75 9.944V10C22.75 10.1989 22.671 10.3897 22.5303 10.5303C22.3897 10.671 22.1989 10.75 22 10.75C21.8011 10.75 21.6103 10.671 21.4697 10.5303C21.329 10.3897 21.25 10.1989 21.25 10C21.25 8.093 21.248 6.739 21.11 5.71C20.975 4.705 20.721 4.125 20.298 3.702C19.875 3.279 19.295 3.025 18.289 2.89ZM2 13.25C2.19891 13.25 2.38968 13.329 2.53033 13.4697C2.67098 13.6103 2.75 13.8011 2.75 14C2.75 15.907 2.752 17.262 2.89 18.29C3.025 19.295 3.279 19.875 3.702 20.298C4.125 20.721 4.705 20.975 5.711 21.11C6.739 21.248 8.093 21.25 10 21.25C10.1989 21.25 10.3897 21.329 10.5303 21.4697C10.671 21.6103 10.75 21.8011 10.75 22C10.75 22.1989 10.671 22.3897 10.5303 22.5303C10.3897 22.671 10.1989 22.75 10 22.75H9.944C8.106 22.75 6.65 22.75 5.511 22.597C4.339 22.439 3.39 22.107 2.641 21.359C1.893 20.61 1.561 19.661 1.403 18.489C1.25 17.349 1.25 15.894 1.25 14.056V14C1.25 13.8011 1.32902 13.6103 1.46967 13.4697C1.61032 13.329 1.80109 13.25 2 13.25ZM22 13.25C22.1989 13.25 22.3897 13.329 22.5303 13.4697C22.671 13.6103 22.75 13.8011 22.75 14V14.056C22.75 15.894 22.75 17.35 22.597 18.489C22.439 19.661 22.107 20.61 21.359 21.359C20.61 22.107 19.661 22.439 18.489 22.597C17.349 22.75 15.894 22.75 14.056 22.75H14C13.8011 22.75 13.6103 22.671 13.4697 22.5303C13.329 22.3897 13.25 22.1989 13.25 22C13.25 21.8011 13.329 21.6103 13.4697 21.4697C13.6103 21.329 13.8011 21.25 14 21.25C15.907 21.25 17.262 21.248 18.29 21.11C19.295 20.975 19.875 20.721 20.298 20.298C20.721 19.875 20.975 19.295 21.11 18.289C21.248 17.262 21.25 15.907 21.25 14C21.25 13.8011 21.329 13.6103 21.4697 13.4697C21.6103 13.329 21.8011 13.25 22 13.25Z" fill="black"/>
</g>
<defs>
<clipPath id="clip0_221_16456">
<rect width="24" height="24" fill="white"/>
</clipPath>
</defs>
</svg>
