<svg width="24" height="24" viewBox="0 0 24 24" fill="none" xmlns="http://www.w3.org/2000/svg">
<g clip-path="url(#clip0_221_16656)">
<path fill-rule="evenodd" clip-rule="evenodd" d="M2.25 5C2.25 4.27065 2.53973 3.57118 3.05546 3.05546C3.57118 2.53973 4.27065 2.25 5 2.25C5.72935 2.25 6.42882 2.53973 6.94454 3.05546C7.46027 3.57118 7.75 4.27065 7.75 5C7.75 5.72935 7.46027 6.42882 6.94454 6.94454C6.42882 7.46027 5.72935 7.75 5 7.75C4.27065 7.75 3.57118 7.46027 3.05546 6.94454C2.53973 6.42882 2.25 5.72935 2.25 5ZM5 3.75C4.66848 3.75 4.35054 3.8817 4.11612 4.11612C3.8817 4.35054 3.75 4.66848 3.75 5C3.75 5.33152 3.8817 5.64946 4.11612 5.88388C4.35054 6.1183 4.66848 6.25 5 6.25C5.33152 6.25 5.64946 6.1183 5.88388 5.88388C6.1183 5.64946 6.25 5.33152 6.25 5C6.25 4.66848 6.1183 4.35054 5.88388 4.11612C5.64946 3.8817 5.33152 3.75 5 3.75Z" fill="black"/>
<path fill-rule="evenodd" clip-rule="evenodd" d="M9.25 5C9.25 4.27065 9.53973 3.57118 10.0555 3.05546C10.5712 2.53973 11.2707 2.25 12 2.25C12.7293 2.25 13.4288 2.53973 13.9445 3.05546C14.4603 3.57118 14.75 4.27065 14.75 5C14.75 5.72935 14.4603 6.42882 13.9445 6.94454C13.4288 7.46027 12.7293 7.75 12 7.75C11.2707 7.75 10.5712 7.46027 10.0555 6.94454C9.53973 6.42882 9.25 5.72935 9.25 5ZM12 3.75C11.6685 3.75 11.3505 3.8817 11.1161 4.11612C10.8817 4.35054 10.75 4.66848 10.75 5C10.75 5.33152 10.8817 5.64946 11.1161 5.88388C11.3505 6.1183 11.6685 6.25 12 6.25C12.3315 6.25 12.6495 6.1183 12.8839 5.88388C13.1183 5.64946 13.25 5.33152 13.25 5C13.25 4.66848 13.1183 4.35054 12.8839 4.11612C12.6495 3.8817 12.3315 3.75 12 3.75Z" fill="black"/>
<path fill-rule="evenodd" clip-rule="evenodd" d="M19 2.25C18.2707 2.25 17.5712 2.53973 17.0555 3.05546C16.5397 3.57118 16.25 4.27065 16.25 5C16.25 5.72935 16.5397 6.42882 17.0555 6.94454C17.5712 7.46027 18.2707 7.75 19 7.75C19.7293 7.75 20.4288 7.46027 20.9445 6.94454C21.4603 6.42882 21.75 5.72935 21.75 5C21.75 4.27065 21.4603 3.57118 20.9445 3.05546C20.4288 2.53973 19.7293 2.25 19 2.25ZM17.75 5C17.75 4.83585 17.7823 4.6733 17.8451 4.52165C17.908 4.36999 18 4.23219 18.1161 4.11612C18.2322 4.00004 18.37 3.90797 18.5216 3.84515C18.6733 3.78233 18.8358 3.75 19 3.75C19.1642 3.75 19.3267 3.78233 19.4784 3.84515C19.63 3.90797 19.7678 4.00004 19.8839 4.11612C20 4.23219 20.092 4.36999 20.1549 4.52165C20.2177 4.6733 20.25 4.83585 20.25 5C20.25 5.33152 20.1183 5.64946 19.8839 5.88388C19.6495 6.1183 19.3315 6.25 19 6.25C18.6685 6.25 18.3505 6.1183 18.1161 5.88388C17.8817 5.64946 17.75 5.33152 17.75 5Z" fill="black"/>
<path fill-rule="evenodd" clip-rule="evenodd" d="M2.25 12C2.25 11.2707 2.53973 10.5712 3.05546 10.0555C3.57118 9.53973 4.27065 9.25 5 9.25C5.72935 9.25 6.42882 9.53973 6.94454 10.0555C7.46027 10.5712 7.75 11.2707 7.75 12C7.75 12.7293 7.46027 13.4288 6.94454 13.9445C6.42882 14.4603 5.72935 14.75 5 14.75C4.27065 14.75 3.57118 14.4603 3.05546 13.9445C2.53973 13.4288 2.25 12.7293 2.25 12ZM5 10.75C4.66848 10.75 4.35054 10.8817 4.11612 11.1161C3.8817 11.3505 3.75 11.6685 3.75 12C3.75 12.3315 3.8817 12.6495 4.11612 12.8839C4.35054 13.1183 4.66848 13.25 5 13.25C5.33152 13.25 5.64946 13.1183 5.88388 12.8839C6.1183 12.6495 6.25 12.3315 6.25 12C6.25 11.6685 6.1183 11.3505 5.88388 11.1161C5.64946 10.8817 5.33152 10.75 5 10.75Z" fill="black"/>
<path fill-rule="evenodd" clip-rule="evenodd" d="M9.25 12C9.25 11.2707 9.53973 10.5712 10.0555 10.0555C10.5712 9.53973 11.2707 9.25 12 9.25C12.7293 9.25 13.4288 9.53973 13.9445 10.0555C14.4603 10.5712 14.75 11.2707 14.75 12C14.75 12.7293 14.4603 13.4288 13.9445 13.9445C13.4288 14.4603 12.7293 14.75 12 14.75C11.2707 14.75 10.5712 14.4603 10.0555 13.9445C9.53973 13.4288 9.25 12.7293 9.25 12ZM12 10.75C11.6685 10.75 11.3505 10.8817 11.1161 11.1161C10.8817 11.3505 10.75 11.6685 10.75 12C10.75 12.3315 10.8817 12.6495 11.1161 12.8839C11.3505 13.1183 11.6685 13.25 12 13.25C12.3315 13.25 12.6495 13.1183 12.8839 12.8839C13.1183 12.6495 13.25 12.3315 13.25 12C13.25 11.6685 13.1183 11.3505 12.8839 11.1161C12.6495 10.8817 12.3315 10.75 12 10.75Z" fill="black"/>
<path fill-rule="evenodd" clip-rule="evenodd" d="M19 9.25C18.2707 9.25 17.5712 9.53973 17.0555 10.0555C16.5397 10.5712 16.25 11.2707 16.25 12C16.25 12.7293 16.5397 13.4288 17.0555 13.9445C17.5712 14.4603 18.2707 14.75 19 14.75C19.7293 14.75 20.4288 14.4603 20.9445 13.9445C21.4603 13.4288 21.75 12.7293 21.75 12C21.75 11.2707 21.4603 10.5712 20.9445 10.0555C20.4288 9.53973 19.7293 9.25 19 9.25ZM17.75 12C17.75 11.8358 17.7823 11.6733 17.8451 11.5216C17.908 11.37 18 11.2322 18.1161 11.1161C18.2322 11 18.37 10.908 18.5216 10.8452C18.6733 10.7823 18.8358 10.75 19 10.75C19.1642 10.75 19.3267 10.7823 19.4784 10.8452C19.63 10.908 19.7678 11 19.8839 11.1161C20 11.2322 20.092 11.37 20.1549 11.5216C20.2177 11.6733 20.25 11.8358 20.25 12C20.25 12.3315 20.1183 12.6495 19.8839 12.8839C19.6495 13.1183 19.3315 13.25 19 13.25C18.6685 13.25 18.3505 13.1183 18.1161 12.8839C17.8817 12.6495 17.75 12.3315 17.75 12Z" fill="black"/>
<path fill-rule="evenodd" clip-rule="evenodd" d="M3.05546 17.0555C2.53973 17.5712 2.25 18.2707 2.25 19C2.25 19.7293 2.53973 20.4288 3.05546 20.9445C3.57118 21.4603 4.27065 21.75 5 21.75C5.72935 21.75 6.42882 21.4603 6.94454 20.9445C7.46027 20.4288 7.75 19.7293 7.75 19C7.75 18.2707 7.46027 17.5712 6.94454 17.0555C6.42882 16.5397 5.72935 16.25 5 16.25C4.27065 16.25 3.57118 16.5397 3.05546 17.0555ZM4.11612 18.1161C4.35054 17.8817 4.66848 17.75 5 17.75C5.33152 17.75 5.64946 17.8817 5.88388 18.1161C6.1183 18.3505 6.25 18.6685 6.25 19C6.25 19.3315 6.1183 19.6495 5.88388 19.8839C5.64946 20.1183 5.33152 20.25 5 20.25C4.66848 20.25 4.35054 20.1183 4.11612 19.8839C3.8817 19.6495 3.75 19.3315 3.75 19C3.75 18.6685 3.8817 18.3505 4.11612 18.1161Z" fill="black"/>
<path fill-rule="evenodd" clip-rule="evenodd" d="M10.0555 17.0555C9.53973 17.5712 9.25 18.2707 9.25 19C9.25 19.7293 9.53973 20.4288 10.0555 20.9445C10.5712 21.4603 11.2707 21.75 12 21.75C12.7293 21.75 13.4288 21.4603 13.9445 20.9445C14.4603 20.4288 14.75 19.7293 14.75 19C14.75 18.2707 14.4603 17.5712 13.9445 17.0555C13.4288 16.5397 12.7293 16.25 12 16.25C11.2707 16.25 10.5712 16.5397 10.0555 17.0555ZM11.1161 18.1161C11.3505 17.8817 11.6685 17.75 12 17.75C12.3315 17.75 12.6495 17.8817 12.8839 18.1161C13.1183 18.3505 13.25 18.6685 13.25 19C13.25 19.3315 13.1183 19.6495 12.8839 19.8839C12.6495 20.1183 12.3315 20.25 12 20.25C11.6685 20.25 11.3505 20.1183 11.1161 19.8839C10.8817 19.6495 10.75 19.3315 10.75 19C10.75 18.6685 10.8817 18.3505 11.1161 18.1161Z" fill="black"/>
<path fill-rule="evenodd" clip-rule="evenodd" d="M17.0555 17.0555C17.5712 16.5397 18.2707 16.25 19 16.25C19.7293 16.25 20.4288 16.5397 20.9445 17.0555C21.4603 17.5712 21.75 18.2707 21.75 19C21.75 19.7293 21.4603 20.4288 20.9445 20.9445C20.4288 21.4603 19.7293 21.75 19 21.75C18.2707 21.75 17.5712 21.4603 17.0555 20.9445C16.5397 20.4288 16.25 19.7293 16.25 19C16.25 18.2707 16.5397 17.5712 17.0555 17.0555ZM17.8451 18.5216C17.7823 18.6733 17.75 18.8358 17.75 19C17.75 19.3315 17.8817 19.6495 18.1161 19.8839C18.3505 20.1183 18.6685 20.25 19 20.25C19.3315 20.25 19.6495 20.1183 19.8839 19.8839C20.1183 19.6495 20.25 19.3315 20.25 19C20.25 18.8358 20.2177 18.6733 20.1549 18.5216C20.092 18.37 20 18.2322 19.8839 18.1161C19.7678 18 19.63 17.908 19.4784 17.8451C19.3267 17.7823 19.1642 17.75 19 17.75C18.8358 17.75 18.6733 17.7823 18.5216 17.8451C18.37 17.908 18.2322 18 18.1161 18.1161C18 18.2322 17.908 18.37 17.8451 18.5216Z" fill="black"/>
</g>
<defs>
<clipPath id="clip0_221_16656">
<rect width="24" height="24" fill="white"/>
</clipPath>
</defs>
</svg>
