<svg width="24" height="24" viewBox="0 0 24 24" fill="none" xmlns="http://www.w3.org/2000/svg">
<g clip-path="url(#clip0_221_17278)">
<g clip-path="url(#clip1_221_17278)">
<path d="M13.7173 11.856C13.7173 11.7518 13.7389 11.6485 13.7808 11.5532C13.8228 11.4579 13.8846 11.3725 13.9615 11.3022L18.3365 7.30322C18.4833 7.16893 18.6778 7.09812 18.8765 7.10693C19.0751 7.11585 19.2618 7.20353 19.3961 7.3501C19.5304 7.49689 19.6012 7.69135 19.5923 7.89014C19.5835 8.08885 19.4959 8.27636 19.3492 8.41064L16.399 11.1069H22.4673C22.6662 11.1069 22.857 11.1861 22.9976 11.3267C23.1382 11.4672 23.2173 11.6581 23.2173 11.8569C23.2173 12.0558 23.1382 12.2466 22.9976 12.3872C22.857 12.5279 22.6663 12.6069 22.4673 12.6069L16.397 12.6069L19.3472 15.3032C19.4836 15.4398 19.5627 15.6239 19.567 15.8169C19.5711 16.0097 19.5008 16.197 19.3707 16.3394C19.2405 16.4817 19.0602 16.5684 18.8677 16.5815C18.6753 16.5946 18.4847 16.5331 18.3365 16.4097L13.9615 12.4097C13.8846 12.3394 13.8228 12.253 13.7808 12.1577C13.739 12.0626 13.7174 11.9598 13.7173 11.856ZM0.717346 11.8325C0.717346 11.6336 0.796476 11.4429 0.937073 11.3022C1.0777 11.1616 1.26847 11.0825 1.46735 11.0825H7.53766L4.58746 8.38623C4.45112 8.24968 4.37298 8.06548 4.36871 7.87256C4.36456 7.67975 4.43488 7.49245 4.565 7.3501C4.6952 7.20788 4.87554 7.12093 5.06793 7.10791C5.26034 7.09502 5.4501 7.15725 5.59821 7.28076L9.97321 11.2808C10.05 11.351 10.1119 11.4365 10.1539 11.5317C10.1957 11.6268 10.2173 11.7296 10.2173 11.8335C10.2173 11.9376 10.1958 12.041 10.1539 12.1362C10.1119 12.2315 10.0501 12.3169 9.97321 12.3872L5.59821 16.3862C5.45152 16.5205 5.25777 16.5912 5.05914 16.5825C4.86037 16.5737 4.67296 16.4861 4.53864 16.3394C4.4043 16.1926 4.33353 15.9981 4.34235 15.7993C4.35125 15.6007 4.43889 15.414 4.58551 15.2798L7.53571 12.5825H1.46735C1.26847 12.5825 1.0777 12.5034 0.937073 12.3628C0.796446 12.2222 0.717366 12.0314 0.717346 11.8325Z" fill="black"/>
</g>
</g>
<defs>
<clipPath id="clip0_221_17278">
<rect width="24" height="24" fill="white"/>
</clipPath>
<clipPath id="clip1_221_17278">
<rect width="24" height="24" fill="white" transform="matrix(0 -1 1 0 -0.0326538 23.8562)"/>
</clipPath>
</defs>
</svg>
