<svg width="24" height="24" viewBox="0 0 24 24" fill="none" xmlns="http://www.w3.org/2000/svg">
<g clip-path="url(#clip0_221_17212)">
<path d="M12 7.74993C11.379 7.74993 10.875 8.25393 10.875 8.87493C10.875 9.07385 10.796 9.26461 10.6553 9.40526C10.5147 9.54591 10.3239 9.62493 10.125 9.62493C9.92609 9.62493 9.73532 9.54591 9.59467 9.40526C9.45402 9.26461 9.375 9.07385 9.375 8.87493C9.37497 8.41525 9.49565 7.96361 9.72498 7.56521C9.95431 7.16681 10.2842 6.83562 10.6817 6.60477C11.0793 6.37392 11.5304 6.2515 11.9901 6.24977C12.4498 6.24804 12.9019 6.36706 13.3011 6.59491C13.7004 6.82276 14.0328 7.15146 14.2651 7.54812C14.4974 7.94478 14.6215 8.3955 14.6249 8.85517C14.6284 9.31484 14.511 9.76736 14.2846 10.1674C14.0583 10.5675 13.7308 10.9011 13.335 11.1349C13.1616 11.2328 13.0047 11.3573 12.87 11.5039C12.768 11.6239 12.75 11.7039 12.75 11.7499V12.9999C12.75 13.1988 12.671 13.3896 12.5303 13.5303C12.3897 13.6709 12.1989 13.7499 12 13.7499C11.8011 13.7499 11.6103 13.6709 11.4697 13.5303C11.329 13.3896 11.25 13.1988 11.25 12.9999V11.7499C11.25 11.2439 11.472 10.8339 11.727 10.5329C11.979 10.2359 12.293 10.0089 12.572 9.84393C12.7853 9.71904 12.9516 9.5273 13.0449 9.2984C13.1383 9.0695 13.1536 8.81621 13.0884 8.57774C13.0233 8.33927 12.8813 8.12893 12.6846 7.97928C12.4878 7.82963 12.2472 7.74902 12 7.74993ZM12 16.9999C12.2652 16.9999 12.5196 16.8946 12.7071 16.707C12.8946 16.5195 13 16.2652 13 15.9999C13 15.7347 12.8946 15.4804 12.7071 15.2928C12.5196 15.1053 12.2652 14.9999 12 14.9999C11.7348 14.9999 11.4804 15.1053 11.2929 15.2928C11.1054 15.4804 11 15.7347 11 15.9999C11 16.2652 11.1054 16.5195 11.2929 16.707C11.4804 16.8946 11.7348 16.9999 12 16.9999Z" fill="black"/>
</g>
<defs>
<clipPath id="clip0_221_17212">
<rect width="24" height="24" fill="white"/>
</clipPath>
</defs>
</svg>
