<svg width="24" height="24" viewBox="0 0 24 24" fill="none" xmlns="http://www.w3.org/2000/svg">
<path fill-rule="evenodd" clip-rule="evenodd" d="M3 2.69264V18.6028C3 18.6028 3.03815 20.8841 5.32346 20.8841H8.28478C8.6673 20.8841 8.97742 20.574 8.97742 20.1915C8.97742 19.809 8.6673 19.4988 8.28478 19.4988H5.32346C4.45669 19.4988 4.39017 18.6859 4.38527 18.5881C4.38527 18.5822 4.38527 2.69264 4.38527 2.69264C4.38527 2.31013 4.07417 2 3.69264 2C3.31012 2 3 2.31013 3 2.69264Z" fill="black"/>
<path fill-rule="evenodd" clip-rule="evenodd" d="M3.69264 14.5623H8.28478C8.6673 14.5623 8.97742 14.2522 8.97742 13.8696C8.97742 13.4881 8.6673 13.177 8.28478 13.177H3.69264C3.31012 13.177 3 13.4881 3 13.8696C3 14.2522 3.31012 14.5623 3.69264 14.5623Z" fill="black"/>
<path fill-rule="evenodd" clip-rule="evenodd" d="M3.69264 8.33158H8.28478C8.6673 8.33158 8.97742 8.02145 8.97742 7.63893C8.97742 7.2574 8.6673 6.94629 8.28478 6.94629H3.69264C3.31012 6.94629 3 7.2574 3 7.63893C3 8.02145 3.31012 8.33158 3.69264 8.33158Z" fill="black"/>
<path fill-rule="evenodd" clip-rule="evenodd" d="M20.5771 7.66214V6.38158C20.5771 5.87678 20.3766 5.39152 20.0185 5.03445C19.6614 4.67737 19.1772 4.47681 18.6714 4.47681C16.5152 4.47681 12.0405 4.47681 9.8843 4.47681C9.37852 4.47681 8.89427 4.67737 8.53719 5.03445C8.18011 5.39152 7.97858 5.87678 7.97858 6.38158V7.66214C7.97858 8.16792 8.18011 8.65219 8.53719 9.00927C8.89427 9.36733 9.37852 9.56786 9.8843 9.56786C12.0405 9.56786 16.5152 9.56786 18.6714 9.56786C19.1772 9.56786 19.6614 9.36733 20.0185 9.00927C20.3766 8.65219 20.5771 8.16792 20.5771 7.66214ZM19.1919 6.38158V7.66214C19.1919 7.80008 19.1371 7.93218 19.0392 8.03001C18.9414 8.12784 18.8093 8.18263 18.6714 8.18263H9.8843C9.74636 8.18263 9.61429 8.12784 9.51646 8.03001C9.41863 7.93218 9.36385 7.80008 9.36385 7.66214V6.38158C9.36385 6.24364 9.41863 6.11153 9.51646 6.0137C9.61429 5.91685 9.74636 5.8621 9.8843 5.8621H18.6714C18.8093 5.8621 18.9414 5.91685 19.0392 6.0137C19.1371 6.11153 19.1919 6.24364 19.1919 6.38158Z" fill="black"/>
<path fill-rule="evenodd" clip-rule="evenodd" d="M20.5771 14.011V12.7305C20.5771 12.2257 20.3766 11.7404 20.0185 11.3833C19.6614 11.0262 19.1772 10.8257 18.6714 10.8257C16.5152 10.8257 12.0405 10.8257 9.8843 10.8257C9.37852 10.8257 8.89427 11.0262 8.53719 11.3833C8.18011 11.7404 7.97858 12.2257 7.97858 12.7305V14.011C7.97858 14.5168 8.18011 15.0011 8.53719 15.3581C8.89427 15.7162 9.37852 15.9167 9.8843 15.9167C12.0405 15.9167 16.5152 15.9167 18.6714 15.9167C19.1772 15.9167 19.6614 15.7162 20.0185 15.3581C20.3766 15.0011 20.5771 14.5168 20.5771 14.011ZM19.1919 12.7305V14.011C19.1919 14.149 19.1371 14.2811 19.0392 14.3789C18.9414 14.4767 18.8093 14.5315 18.6714 14.5315H9.8843C9.74636 14.5315 9.61429 14.4767 9.51646 14.3789C9.41863 14.2811 9.36385 14.149 9.36385 14.011V12.7305C9.36385 12.5925 9.41863 12.4604 9.51646 12.3626C9.61429 12.2657 9.74636 12.211 9.8843 12.211H18.6714C18.8093 12.211 18.9414 12.2657 19.0392 12.3626C19.1371 12.4604 19.1919 12.5925 19.1919 12.7305Z" fill="black"/>
<path fill-rule="evenodd" clip-rule="evenodd" d="M20.5771 20.2503V18.9697C20.5771 18.4649 20.3766 17.9797 20.0185 17.6226C19.6614 17.2655 19.1772 17.0649 18.6714 17.0649C16.5152 17.0649 12.0405 17.0649 9.8843 17.0649C9.37852 17.0649 8.89427 17.2655 8.53719 17.6226C8.18011 17.9797 7.97858 18.4649 7.97858 18.9697V20.2503C7.97858 20.7561 8.18011 21.2403 8.53719 21.5974C8.89427 21.9555 9.37852 22.156 9.8843 22.156C12.0405 22.156 16.5152 22.156 18.6714 22.156C19.1772 22.156 19.6614 21.9555 20.0185 21.5974C20.3766 21.2403 20.5771 20.7561 20.5771 20.2503ZM19.1919 18.9697V20.2503C19.1919 20.3882 19.1371 20.5203 19.0392 20.6181C18.9414 20.716 18.8093 20.7708 18.6714 20.7708H9.8843C9.74636 20.7708 9.61429 20.716 9.51646 20.6181C9.41863 20.5203 9.36385 20.3882 9.36385 20.2503V18.9697C9.36385 18.8318 9.41863 18.6997 9.51646 18.6018C9.61429 18.505 9.74636 18.4502 9.8843 18.4502H18.6714C18.8093 18.4502 18.9414 18.505 19.0392 18.6018C19.1371 18.6997 19.1919 18.8318 19.1919 18.9697Z" fill="black"/>
</svg>
