<svg width="24" height="24" viewBox="0 0 24 24" fill="none" xmlns="http://www.w3.org/2000/svg">
<path fill-rule="evenodd" clip-rule="evenodd" d="M2.32737 12.8261C2.32737 12.8261 8.5038 6.65627 11.2866 3.8773C11.4927 3.67114 11.774 3.55524 12.0656 3.55524C12.3583 3.55524 12.6385 3.6721 12.8447 3.87922L21.7811 12.8441C22.0842 13.1481 22.5763 13.1491 22.8803 12.846C23.1843 12.5429 23.1853 12.0499 22.8822 11.7459C22.8822 11.7459 16.7219 5.56559 13.9468 2.78093C13.4489 2.28119 12.7725 2 12.0675 2C11.3626 1.99905 10.6861 2.27837 10.1873 2.77716C7.40457 5.55612 1.22814 11.7259 1.22814 11.7259C0.924113 12.029 0.924113 12.522 1.22719 12.8261C1.53121 13.1301 2.02335 13.1301 2.32737 12.8261Z" fill="black"/>
<path fill-rule="evenodd" clip-rule="evenodd" d="M3.75441 13.7334V21.2219C3.75441 21.6514 4.10309 22 4.53252 22H10.0562C10.4857 22 10.8344 21.6514 10.8344 21.2219V16.0763C10.8344 15.8654 10.918 15.664 11.0662 15.5148C11.2153 15.3657 11.4168 15.2821 11.6277 15.2821H12.5483C12.7592 15.2821 12.9606 15.3657 13.1098 15.5148C13.2589 15.664 13.3416 15.8654 13.3416 16.0753V21.201C13.3416 21.6304 13.6903 21.9782 14.1197 21.9782H19.6026C20.032 21.9782 20.3807 21.6304 20.3807 21.201V13.7239C20.3807 13.2954 20.032 12.9468 19.6026 12.9468C19.1732 12.9468 18.8254 13.2954 18.8254 13.7239V20.4229H14.8978V16.0753C14.8978 15.453 14.6499 14.8555 14.21 14.4146C13.7691 13.9738 13.1715 13.7268 12.5483 13.7268C12.2462 13.7268 11.9298 13.7268 11.6277 13.7268C11.0044 13.7268 10.4068 13.9738 9.96694 14.4146C9.52611 14.8555 9.27814 15.453 9.27814 16.0753V20.4438H5.30968V13.7334C5.30968 13.305 4.96195 12.9563 4.53252 12.9563C4.10309 12.9563 3.75441 13.305 3.75441 13.7334Z" fill="black"/>
</svg>
