<svg width="24" height="24" viewBox="0 0 24 24" fill="none" xmlns="http://www.w3.org/2000/svg">
<path fill-rule="evenodd" clip-rule="evenodd" d="M12.0005 1.25C6.06656 1.25 1.25 6.06655 1.25 12.0005C1.25 17.9334 6.06656 22.751 12.0005 22.751C17.9334 22.751 22.75 17.9334 22.75 12.0005C22.75 6.06655 17.9334 1.25 12.0005 1.25ZM12.0005 2.74406C17.1089 2.74406 21.2559 6.89212 21.2559 12.0005C21.2559 17.1089 17.1089 21.2559 12.0005 21.2559C6.89108 21.2559 2.74411 17.1089 2.74411 12.0005C2.74411 6.89212 6.89108 2.74406 12.0005 2.74406Z" fill="black"/>
<path fill-rule="evenodd" clip-rule="evenodd" d="M12.0002 7.41357C9.46924 7.41357 7.4147 9.46812 7.4147 11.999C7.4147 14.5296 9.46924 16.5845 12.0002 16.5845C14.5307 16.5845 16.5852 14.5296 16.5852 11.999C16.5852 9.46812 14.5307 7.41357 12.0002 7.41357ZM12.0002 8.90788C13.7058 8.90788 15.0909 10.293 15.0909 11.999C15.0909 13.705 13.7058 15.0898 12.0002 15.0898C10.2941 15.0898 8.90899 13.705 8.90899 11.999C8.90899 10.293 10.2941 8.90788 12.0002 8.90788Z" fill="black"/>
<path fill-rule="evenodd" clip-rule="evenodd" d="M21.0026 16.4925L16.3137 12.0241C16.0153 11.7396 15.5423 11.7513 15.2578 12.0497C14.9734 12.348 14.984 12.821 15.2834 13.1066L19.9713 17.5739C20.2696 17.8584 20.7437 17.8467 21.0282 17.5483C21.3127 17.25 21.3009 16.777 21.0026 16.4925Z" fill="black"/>
<path fill-rule="evenodd" clip-rule="evenodd" d="M17.7829 19.7682L13.094 15.2997C12.7957 15.0153 12.3226 15.027 12.0382 15.3253C11.7537 15.6236 11.7643 16.0967 12.0637 16.3822L16.7516 20.8495C17.0499 21.134 17.524 21.1223 17.8085 20.824C18.093 20.5257 18.0813 20.0526 17.7829 19.7682Z" fill="black"/>
<path fill-rule="evenodd" clip-rule="evenodd" d="M3.04449 7.42826L7.63968 11.8018C7.938 12.0863 8.41212 12.0746 8.69659 11.7763C8.98 11.4769 8.96933 11.0038 8.66995 10.7194L4.07582 6.34573C3.77644 6.06126 3.3034 6.07303 3.01893 6.37135C2.73446 6.66967 2.74617 7.14379 3.04449 7.42826Z" fill="black"/>
<path fill-rule="evenodd" clip-rule="evenodd" d="M6.29187 4.17947L10.8594 8.52643C11.1577 8.8109 11.6318 8.79919 11.9163 8.50087C12.1997 8.20149 12.188 7.72843 11.8896 7.44397L7.32215 3.097C7.02383 2.8136 6.55077 2.82534 6.2663 3.12366C5.98183 3.42198 5.99355 3.89606 6.29187 4.17947Z" fill="black"/>
<path fill-rule="evenodd" clip-rule="evenodd" d="M16.519 3.0193L12.0506 7.70825C11.7661 8.00657 11.7778 8.47962 12.0762 8.76409C12.3745 9.04856 12.8475 9.0379 13.1331 8.73852L17.6004 4.05064C17.8849 3.75232 17.8732 3.2782 17.5748 2.99373C17.2765 2.70926 16.8035 2.72098 16.519 3.0193Z" fill="black"/>
<path fill-rule="evenodd" clip-rule="evenodd" d="M19.7938 6.23903L15.3254 10.928C15.0409 11.2263 15.0526 11.6993 15.3509 11.9838C15.6493 12.2683 16.1223 12.2576 16.4078 11.9582L20.8752 7.27037C21.1596 6.97205 21.1479 6.49793 20.8496 6.21346C20.5513 5.92899 20.0783 5.94071 19.7938 6.23903Z" fill="black"/>
<path fill-rule="evenodd" clip-rule="evenodd" d="M7.45914 20.9772L11.8327 16.382C12.1172 16.0837 12.1055 15.6095 11.8071 15.3251C11.5078 15.0417 11.0347 15.0523 10.7502 15.3517L6.37661 19.9458C6.09214 20.2452 6.10391 20.7183 6.40223 21.0027C6.70055 21.2872 7.17467 21.2755 7.45914 20.9772Z" fill="black"/>
<path fill-rule="evenodd" clip-rule="evenodd" d="M4.21096 17.7301L8.55792 13.1626C8.84239 12.8643 8.83069 12.3902 8.53237 12.1057C8.23298 11.8223 7.75993 11.834 7.47546 12.1323L3.12849 16.6998C2.84509 16.9981 2.85684 17.4712 3.15516 17.7557C3.45347 18.0401 3.92756 18.0284 4.21096 17.7301Z" fill="black"/>
</svg>
