<svg width="24" height="24" viewBox="0 0 24 24" fill="none" xmlns="http://www.w3.org/2000/svg">
<g clip-path="url(#clip0_221_17285)">
<g clip-path="url(#clip1_221_17285)">
<path d="M11.9676 13.6062C12.0717 13.6062 12.175 13.6277 12.2703 13.6697C12.3656 13.7117 12.451 13.7735 12.5213 13.8503L16.5203 18.2253C16.6546 18.3721 16.7254 18.5666 16.7166 18.7654C16.7077 18.9639 16.62 19.1507 16.4734 19.2849C16.3267 19.4192 16.1322 19.49 15.9334 19.4812C15.7347 19.4723 15.5472 19.3848 15.4129 19.238L12.7166 16.2878V22.3562C12.7166 22.555 12.6375 22.7458 12.4969 22.8865C12.3563 23.0271 12.1654 23.1061 11.9666 23.1062C11.7678 23.1062 11.577 23.027 11.4363 22.8865C11.2957 22.7458 11.2166 22.5551 11.2166 22.3562V16.2859L8.52032 19.2361C8.38376 19.3725 8.19962 19.4515 8.00665 19.4558C7.81384 19.46 7.62657 19.3896 7.48419 19.2595C7.34183 19.1294 7.25513 18.949 7.242 18.7566C7.22898 18.5642 7.29043 18.3735 7.41388 18.2253L11.4139 13.8503C11.4842 13.7735 11.5705 13.7117 11.6658 13.6697C11.7609 13.6279 11.8637 13.6062 11.9676 13.6062ZM11.991 0.606201C12.1899 0.606201 12.3807 0.685331 12.5213 0.825928C12.6619 0.966556 12.741 1.15733 12.741 1.3562V7.42651L15.4373 4.47632C15.5739 4.33998 15.7581 4.26184 15.951 4.25757C16.1438 4.25342 16.3311 4.32373 16.4734 4.45386C16.6157 4.58405 16.7026 4.7644 16.7156 4.95679C16.7285 5.14919 16.6663 5.33895 16.5428 5.48706L12.5428 9.86206C12.4725 9.9389 12.3871 10.0007 12.2918 10.0427C12.1967 10.0846 12.0939 10.1061 11.9901 10.1062C11.886 10.1062 11.7826 10.0847 11.6873 10.0427C11.592 10.0007 11.5066 9.93891 11.4363 9.86206L7.43732 5.48706C7.3031 5.34037 7.23234 5.14663 7.24103 4.948C7.24984 4.74923 7.33742 4.56182 7.48419 4.42749C7.63099 4.29316 7.82544 4.22239 8.02423 4.2312C8.22281 4.24011 8.40953 4.32775 8.54376 4.47437L11.241 7.42456V1.3562C11.2411 1.15733 11.3201 0.966556 11.4608 0.825928C11.6014 0.685301 11.7921 0.606221 11.991 0.606201Z" fill="black"/>
</g>
</g>
<defs>
<clipPath id="clip0_221_17285">
<rect width="24" height="24" fill="white"/>
</clipPath>
<clipPath id="clip1_221_17285">
<rect width="24" height="24" fill="white" transform="translate(-0.0326538 -0.143799)"/>
</clipPath>
</defs>
</svg>
