<svg width="24" height="24" viewBox="0 0 24 24" fill="none" xmlns="http://www.w3.org/2000/svg">
<path fill-rule="evenodd" clip-rule="evenodd" d="M11.4175 5.57013V17.5497C11.4175 17.9625 11.7531 18.299 12.1669 18.299C12.5808 18.299 12.9163 17.9625 12.9163 17.5497V5.57013C12.9163 5.15627 12.5808 4.8208 12.1669 4.8208C11.7531 4.8208 11.4175 5.15627 11.4175 5.57013Z" fill="black"/>
<path fill-rule="evenodd" clip-rule="evenodd" d="M12.1669 1C10.7316 1 9.56628 2.16539 9.56628 3.60064C9.56628 5.0359 10.7316 6.20122 12.1669 6.20122C13.6022 6.20122 14.7675 5.0359 14.7675 3.60064C14.7675 2.16539 13.6022 1 12.1669 1ZM12.1669 2.49878C12.7744 2.49878 13.2687 2.99309 13.2687 3.60064C13.2687 4.20819 12.7744 4.7025 12.1669 4.7025C11.5583 4.7025 11.065 4.20819 11.065 3.60064C11.065 2.99309 11.5583 2.49878 12.1669 2.49878Z" fill="black"/>
<path fill-rule="evenodd" clip-rule="evenodd" d="M12.1669 17.2988C10.7316 17.2988 9.56628 18.4642 9.56628 19.8995C9.56628 21.3347 10.7316 22.5 12.1669 22.5C13.6022 22.5 14.7675 21.3347 14.7675 19.8995C14.7675 18.4642 13.6022 17.2988 12.1669 17.2988ZM12.1669 18.7976C12.7744 18.7976 13.2687 19.2919 13.2687 19.8995C13.2687 20.507 12.7744 21.0013 12.1669 21.0013C11.5583 21.0013 11.065 20.507 11.065 19.8995C11.065 19.2919 11.5583 18.7976 12.1669 18.7976Z" fill="black"/>
<path fill-rule="evenodd" clip-rule="evenodd" d="M4.60061 17.2988C3.16535 17.2988 2 18.4642 2 19.8995C2 21.3347 3.16535 22.5 4.60061 22.5C6.03587 22.5 7.20122 21.3347 7.20122 19.8995C7.20122 18.4642 6.03587 17.2988 4.60061 17.2988ZM4.60061 18.7976C5.20816 18.7976 5.70246 19.2919 5.70246 19.8995C5.70246 20.507 5.20816 21.0013 4.60061 21.0013C3.992 21.0013 3.49876 20.507 3.49876 19.8995C3.49876 19.2919 3.992 18.7976 4.60061 18.7976Z" fill="black"/>
<path fill-rule="evenodd" clip-rule="evenodd" d="M19.5935 17.2988C18.1582 17.2988 16.9929 18.4642 16.9929 19.8995C16.9929 21.3347 18.1582 22.5 19.5935 22.5C21.0287 22.5 22.1941 21.3347 22.1941 19.8995C22.1941 18.4642 21.0287 17.2988 19.5935 17.2988ZM19.5935 18.7976C20.201 18.7976 20.6953 19.2919 20.6953 19.8995C20.6953 20.507 20.201 21.0013 19.5935 21.0013C18.9849 21.0013 18.4916 20.507 18.4916 19.8995C18.4916 19.2919 18.9849 18.7976 19.5935 18.7976Z" fill="black"/>
<path fill-rule="evenodd" clip-rule="evenodd" d="M12.1669 11.6258H9.42662C9.17894 11.6131 7.31396 11.5708 5.80249 12.8811C4.76203 13.7819 3.85071 15.3314 3.85071 18.0484C3.85071 18.4623 4.1873 18.7978 4.60009 18.7978C5.01394 18.7978 5.34947 18.4623 5.34947 18.0484C5.34947 15.9421 5.97713 14.7123 6.78367 14.0137C7.9268 13.023 9.35359 13.1224 9.35359 13.1224C9.37158 13.1235 9.39063 13.1246 9.40863 13.1246H12.1669C12.5808 13.1246 12.9163 12.789 12.9163 12.3752C12.9163 11.9613 12.5808 11.6258 12.1669 11.6258Z" fill="black"/>
<path fill-rule="evenodd" clip-rule="evenodd" d="M12.1662 13.1244H14.9246C14.9426 13.1244 14.9616 13.1234 14.9796 13.1223C14.9796 13.1223 16.4064 13.0229 17.5495 14.0136C18.3561 14.7121 18.9837 15.942 18.9837 18.0483C18.9837 18.4622 19.3192 18.7977 19.7331 18.7977C20.1459 18.7977 20.4825 18.4622 20.4825 18.0483C20.4825 15.3313 19.5712 13.7818 18.5307 12.881C17.0224 11.5738 15.1617 11.613 14.9002 11.6257C14.9066 11.6257 12.1662 11.6257 12.1662 11.6257C11.7524 11.6257 11.4169 11.9612 11.4169 12.375C11.4169 12.7889 11.7524 13.1244 12.1662 13.1244Z" fill="black"/>
</svg>
