<svg width="24" height="24" viewBox="0 0 24 24" fill="none" xmlns="http://www.w3.org/2000/svg">
<g clip-path="url(#clip0_221_16152)">
<path d="M11.943 1.25H12.057C14.366 1.25 16.175 1.25 17.587 1.44C19.031 1.634 20.171 2.04 21.066 2.934C21.961 3.829 22.366 4.969 22.56 6.414C22.75 7.825 22.75 9.634 22.75 11.943V12.057C22.75 14.366 22.75 16.175 22.56 17.587C22.366 19.031 21.96 20.171 21.066 21.066C20.237 21.894 19.198 22.304 17.899 22.514C16.622 22.721 15.016 22.746 13.001 22.749C12.8021 22.7493 12.6112 22.6705 12.4704 22.53C12.3295 22.3896 12.2503 22.1989 12.25 22C12.2497 21.8011 12.3285 21.6102 12.469 21.4694C12.6094 21.3285 12.8001 21.2493 12.999 21.249C15.039 21.246 16.522 21.218 17.659 21.033C18.776 20.853 19.477 20.533 20.005 20.005C20.575 19.435 20.902 18.665 21.074 17.386C21.248 16.086 21.25 14.378 21.25 12C21.25 9.622 21.248 7.914 21.073 6.614C20.902 5.335 20.575 4.564 20.005 3.994C19.435 3.425 18.665 3.098 17.386 2.926C16.086 2.752 14.378 2.75 12 2.75C9.622 2.75 7.913 2.752 6.613 2.926C5.335 3.098 4.564 3.426 3.995 3.995C3.466 4.523 3.147 5.225 2.967 6.34C2.782 7.478 2.754 8.961 2.75 11.001C2.74987 11.1999 2.67072 11.3906 2.52998 11.5312C2.38923 11.6717 2.19841 11.7506 1.9995 11.7505C1.80059 11.7504 1.60988 11.6712 1.46932 11.5305C1.32876 11.3897 1.24987 11.1989 1.25 11C1.254 8.984 1.28 7.378 1.486 6.102C1.696 4.802 2.106 3.764 2.934 2.935C3.829 2.04 4.969 1.635 6.414 1.441C7.825 1.251 9.634 1.251 11.943 1.251" fill="black"/>
<path d="M16.5 11.9999C16.5 12.1988 16.421 12.3896 16.2803 12.5302C16.1397 12.6709 15.9489 12.7499 15.75 12.7499H12C11.8011 12.7499 11.6103 12.6709 11.4697 12.5302C11.329 12.3896 11.25 12.1988 11.25 11.9999V8.24991C11.25 8.051 11.329 7.86023 11.4697 7.71958C11.6103 7.57893 11.8011 7.49991 12 7.49991C12.1989 7.49991 12.3897 7.57893 12.5303 7.71958C12.671 7.86023 12.75 8.051 12.75 8.24991V10.1899L16.47 6.46991C16.5387 6.39622 16.6215 6.33712 16.7135 6.29613C16.8055 6.25514 16.9048 6.23309 17.0055 6.23132C17.1062 6.22954 17.2062 6.24807 17.2996 6.28579C17.393 6.32351 17.4778 6.37965 17.549 6.45087C17.6203 6.52209 17.6764 6.60692 17.7141 6.70031C17.7518 6.7937 17.7704 6.89373 17.7686 6.99443C17.7668 7.09513 17.7448 7.19445 17.7038 7.28645C17.6628 7.37845 17.6037 7.46125 17.53 7.52991L13.81 11.2499H15.75C15.9489 11.2499 16.1397 11.3289 16.2803 11.4696C16.421 11.6102 16.5 11.801 16.5 11.9999Z" fill="black"/>
<path fill-rule="evenodd" clip-rule="evenodd" d="M5.948 13.25C5.05 13.25 4.3 13.25 3.706 13.33C3.078 13.414 2.511 13.6 2.056 14.056C1.6 14.511 1.414 15.078 1.33 15.706C1.25 16.3 1.25 17.049 1.25 17.948V18.052C1.25 18.951 1.25 19.7 1.33 20.294C1.414 20.922 1.6 21.489 2.055 21.944C2.511 22.4 3.078 22.586 3.705 22.67C4.3 22.75 5.05 22.75 5.948 22.75H6.052C6.95 22.75 7.7 22.75 8.294 22.67C8.922 22.586 9.489 22.4 9.944 21.944C10.4 21.489 10.586 20.922 10.67 20.294C10.75 19.7 10.75 18.951 10.75 18.052V17.948C10.75 17.049 10.75 16.3 10.67 15.706C10.586 15.078 10.4 14.511 9.945 14.056C9.489 13.6 8.922 13.414 8.295 13.33C7.7 13.25 6.95 13.25 6.052 13.25H5.948ZM3.116 15.116C3.246 14.986 3.444 14.879 3.906 14.816C4.388 14.752 5.036 14.75 6 14.75C6.964 14.75 7.612 14.752 8.095 14.816C8.556 14.879 8.754 14.986 8.884 15.116C9.014 15.246 9.121 15.444 9.184 15.906C9.248 16.388 9.25 17.036 9.25 18C9.25 18.964 9.248 19.612 9.183 20.095C9.121 20.556 9.014 20.754 8.883 20.884C8.752 21.014 8.556 21.121 8.095 21.184C7.612 21.248 6.964 21.25 6 21.25C5.036 21.25 4.388 21.248 3.905 21.183C3.444 21.121 3.246 21.014 3.116 20.883C2.986 20.752 2.879 20.556 2.816 20.095C2.752 19.612 2.75 18.964 2.75 18C2.75 17.036 2.752 16.388 2.817 15.905C2.879 15.444 2.986 15.246 3.117 15.116" fill="black"/>
</g>
<defs>
<clipPath id="clip0_221_16152">
<rect width="24" height="24" fill="white"/>
</clipPath>
</defs>
</svg>
