<svg width="24" height="24" viewBox="0 0 24 24" fill="none" xmlns="http://www.w3.org/2000/svg">
<g clip-path="url(#clip0_221_16484)">
<path fill-rule="evenodd" clip-rule="evenodd" d="M12 1.25C12.1989 1.25 12.3897 1.32902 12.5303 1.46967C12.671 1.61032 12.75 1.80109 12.75 2V12.973L14.43 11.012C14.4941 10.9371 14.5723 10.8756 14.6601 10.831C14.748 10.7864 14.8438 10.7595 14.942 10.7519C15.0403 10.7443 15.139 10.7561 15.2327 10.7866C15.3264 10.8172 15.4131 10.8659 15.488 10.93C15.5629 10.9941 15.6244 11.0723 15.669 11.1601C15.7136 11.248 15.7405 11.3438 15.7481 11.442C15.7557 11.5403 15.7439 11.639 15.7134 11.7327C15.6828 11.8264 15.6341 11.9131 15.57 11.988L12.57 15.488C12.4996 15.5703 12.4122 15.6364 12.3138 15.6818C12.2154 15.7271 12.1083 15.7506 12 15.7506C11.8917 15.7506 11.7846 15.7271 11.6862 15.6818C11.5878 15.6364 11.5004 15.5703 11.43 15.488L8.43 11.988C8.36592 11.9131 8.3172 11.8264 8.28664 11.7327C8.25608 11.639 8.24427 11.5403 8.25188 11.442C8.2595 11.3438 8.28639 11.248 8.33102 11.1601C8.37565 11.0723 8.43715 10.9941 8.512 10.93C8.58685 10.8659 8.6736 10.8172 8.76728 10.7866C8.86096 10.7561 8.95974 10.7443 9.05798 10.7519C9.15623 10.7595 9.25201 10.7864 9.33986 10.831C9.42771 10.8756 9.50591 10.9371 9.57 11.012L11.25 12.972V2C11.25 1.80109 11.329 1.61032 11.4697 1.46967C11.6103 1.32902 11.8011 1.25 12 1.25ZM6.996 8.252C7.19491 8.25094 7.3861 8.32894 7.5275 8.46884C7.6689 8.60874 7.74894 8.79909 7.75 8.998C7.75106 9.19691 7.67306 9.3881 7.53316 9.5295C7.39326 9.6709 7.20291 9.75094 7.004 9.752C5.911 9.758 5.136 9.786 4.547 9.894C3.981 9.999 3.652 10.166 3.409 10.409C3.132 10.686 2.952 11.075 2.853 11.809C2.752 12.564 2.75 13.565 2.75 15V16C2.75 17.436 2.752 18.437 2.853 19.192C2.952 19.926 3.133 20.314 3.409 20.592C3.686 20.868 4.074 21.048 4.809 21.147C5.563 21.249 6.565 21.25 8 21.25H16C17.435 21.25 18.436 21.249 19.192 21.147C19.926 21.048 20.314 20.868 20.591 20.591C20.868 20.314 21.048 19.926 21.147 19.192C21.248 18.437 21.25 17.436 21.25 16V15C21.25 13.565 21.248 12.564 21.147 11.808C21.048 11.075 20.867 10.686 20.591 10.409C20.347 10.166 20.019 9.999 19.453 9.894C18.864 9.786 18.089 9.758 16.996 9.752C16.8975 9.75147 16.8001 9.73155 16.7093 9.69338C16.6185 9.6552 16.5361 9.59952 16.4668 9.5295C16.3976 9.45949 16.3428 9.37651 16.3056 9.28532C16.2684 9.19412 16.2495 9.09649 16.25 8.998C16.2505 8.89951 16.2704 8.80209 16.3086 8.71129C16.3468 8.6205 16.4025 8.53811 16.4725 8.46884C16.5425 8.39957 16.6255 8.34477 16.7167 8.30756C16.8079 8.27035 16.9055 8.25147 17.004 8.252C18.086 8.258 18.987 8.284 19.724 8.419C20.482 8.559 21.127 8.824 21.652 9.349C22.254 9.95 22.512 10.709 22.634 11.609C22.75 12.475 22.75 13.578 22.75 14.945V16.055C22.75 17.423 22.75 18.525 22.634 19.392C22.512 20.292 22.254 21.05 21.652 21.652C21.05 22.254 20.292 22.512 19.392 22.634C18.525 22.75 17.422 22.75 16.055 22.75H7.945C6.578 22.75 5.475 22.75 4.608 22.634C3.708 22.513 2.95 22.254 2.348 21.652C1.746 21.05 1.488 20.292 1.367 19.392C1.25 18.525 1.25 17.422 1.25 16.055V14.945C1.25 13.578 1.25 12.475 1.367 11.608C1.487 10.708 1.747 9.95 2.348 9.348C2.873 8.824 3.518 8.558 4.276 8.419C5.013 8.284 5.914 8.258 6.996 8.252Z" fill="black"/>
</g>
<defs>
<clipPath id="clip0_221_16484">
<rect width="24" height="24" fill="white"/>
</clipPath>
</defs>
</svg>
