<svg width="24" height="24" viewBox="0 0 24 24" fill="none" xmlns="http://www.w3.org/2000/svg">
<g clip-path="url(#clip0_221_16582)">
<path fill-rule="evenodd" clip-rule="evenodd" d="M18.289 3.88981C17.2614 3.75159 15.9067 3.75 14 3.75H10C8.09341 3.75 6.73893 3.75184 5.71144 3.89017C4.70552 4.02559 4.12567 4.27935 3.7021 4.70256C3.27886 5.12544 3.02512 5.7049 2.88981 6.71097C2.75159 7.73861 2.75 9.09329 2.75 11V13C2.75 14.9066 2.75184 16.2611 2.89017 17.2886C3.02559 18.2945 3.27935 18.8743 3.70256 19.2979C4.12544 19.7211 4.7049 19.9749 5.71097 20.1102C6.73861 20.2484 8.09329 20.25 10 20.25H14C15.9066 20.25 17.2611 20.2482 18.2886 20.1098C19.2945 19.9744 19.8743 19.7206 20.2979 19.2974C20.7211 18.8746 20.9749 18.2951 21.1102 17.289C21.2484 16.2614 21.25 14.9067 21.25 13V11C21.25 9.09341 21.2482 7.73893 21.1098 6.71144C20.9744 5.70552 20.7206 5.12567 20.2974 4.7021C19.8746 4.27887 19.2951 4.02512 18.289 3.88981ZM18.489 2.40319C19.6614 2.56088 20.6104 2.89314 21.3586 3.6419C22.1063 4.39033 22.4386 5.33898 22.5964 6.51131C22.75 7.65226 22.75 9.11048 22.75 10.9524V13.0564C22.75 14.8941 22.75 16.3497 22.5968 17.489C22.4391 18.6614 22.1069 19.6104 21.3581 20.3586C20.6097 21.1064 19.661 21.4386 18.4887 21.5964C17.3478 21.75 15.8895 21.75 14.0477 21.75H9.94358C8.10595 21.75 6.65026 21.75 5.51103 21.5968C4.3386 21.4391 3.38957 21.1069 2.64144 20.3581C1.89365 19.6097 1.56141 18.661 1.40358 17.4887C1.24998 16.3477 1.24999 14.8895 1.25 13.0476L1.25 10.9436C1.24998 9.10594 1.24997 7.65026 1.40319 6.51103C1.56088 5.3386 1.89314 4.38957 2.6419 3.64144C3.39033 2.89365 4.33898 2.56141 5.51131 2.40358C6.65225 2.24998 8.11046 2.24999 9.95235 2.25L14.0564 2.25C15.8941 2.24998 17.3497 2.24997 18.489 2.40319Z" fill="black"/>
<path fill-rule="evenodd" clip-rule="evenodd" d="M12 2.25C12.4142 2.25 12.75 2.58579 12.75 3V21C12.75 21.4142 12.4142 21.75 12 21.75C11.5858 21.75 11.25 21.4142 11.25 21V3C11.25 2.58579 11.5858 2.25 12 2.25Z" fill="black"/>
</g>
<defs>
<clipPath id="clip0_221_16582">
<rect width="24" height="24" fill="white"/>
</clipPath>
</defs>
</svg>
