<svg width="24" height="24" viewBox="0 0 24 24" fill="none" xmlns="http://www.w3.org/2000/svg">
<g clip-path="url(#clip0_221_16597)">
<path fill-rule="evenodd" clip-rule="evenodd" d="M5.71097 3.88981C6.73861 3.75159 8.09329 3.75 10 3.75H14C15.9066 3.75 17.2611 3.75184 18.2886 3.89017C19.2945 4.02559 19.8743 4.27935 20.2979 4.70256C20.7211 5.12544 20.9749 5.7049 21.1102 6.71097C21.2484 7.73861 21.25 9.09329 21.25 11V13C21.25 14.9066 21.2482 16.2611 21.1098 17.2886C20.9744 18.2945 20.7206 18.8743 20.2974 19.2979C19.8746 19.7211 19.2951 19.9749 18.289 20.1102C17.2614 20.2484 15.9067 20.25 14 20.25H10C8.09341 20.25 6.73893 20.2482 5.71144 20.1098C4.70552 19.9744 4.12567 19.7206 3.7021 19.2974C3.27887 18.8746 3.02512 18.2951 2.88981 17.289C2.75159 16.2614 2.75 14.9067 2.75 13V11C2.75 9.09341 2.75184 7.73893 2.89017 6.71144C3.02559 5.70552 3.27935 5.12567 3.70256 4.7021C4.12544 4.27886 4.7049 4.02512 5.71097 3.88981ZM5.51103 2.40319C4.3386 2.56088 3.38957 2.89314 2.64145 3.6419C1.89365 4.39033 1.56141 5.33898 1.40358 6.51131C1.24998 7.65225 1.24999 9.11046 1.25 10.9523V13.0565C1.24999 14.8941 1.24997 16.3498 1.40319 17.489C1.56088 18.6614 1.89314 19.6104 2.6419 20.3586C3.39033 21.1064 4.33898 21.4386 5.51131 21.5964C6.65225 21.75 8.11046 21.75 9.95235 21.75H14.0565C15.8941 21.75 17.3498 21.75 18.489 21.5968C19.6614 21.4391 20.6104 21.1069 21.3586 20.3581C22.1064 19.6097 22.4386 18.661 22.5964 17.4887C22.75 16.3477 22.75 14.8895 22.75 13.0476V10.9436C22.75 9.10594 22.75 7.65026 22.5968 6.51103C22.4391 5.3386 22.1069 4.38957 21.3581 3.64144C20.6097 2.89365 19.661 2.56141 18.4887 2.40358C17.3477 2.24998 15.8895 2.24999 14.0476 2.25L9.94357 2.25C8.10594 2.24998 6.65026 2.24997 5.51103 2.40319Z" fill="black"/>
<path fill-rule="evenodd" clip-rule="evenodd" d="M9 2.25C8.58579 2.25 8.25 2.58579 8.25 3V21C8.25 21.4142 8.58579 21.75 9 21.75C9.41421 21.75 9.75 21.4142 9.75 21V3C9.75 2.58579 9.41421 2.25 9 2.25Z" fill="black"/>
<path fill-rule="evenodd" clip-rule="evenodd" d="M22.5 12C22.5 11.5858 22.1642 11.25 21.75 11.25H9C8.58579 11.25 8.25 11.5858 8.25 12C8.25 12.4142 8.58579 12.75 9 12.75H21.75C22.1642 12.75 22.5 12.4142 22.5 12Z" fill="black"/>
</g>
<defs>
<clipPath id="clip0_221_16597">
<rect width="24" height="24" fill="white"/>
</clipPath>
</defs>
</svg>
