<svg width="24" height="24" viewBox="0 0 24 24" fill="none" xmlns="http://www.w3.org/2000/svg">
<g clip-path="url(#clip0_221_16467)">
<path d="M9.05498 1.25C10.422 1.25 11.525 1.25 12.392 1.367C13.292 1.487 14.05 1.747 14.652 2.348C15.176 2.873 15.442 3.518 15.581 4.276C15.716 5.013 15.742 5.914 15.748 6.996C15.749 7.19491 15.671 7.3861 15.5311 7.5275C15.3912 7.6689 15.2009 7.74894 15.002 7.75C14.8031 7.75106 14.6119 7.67306 14.4705 7.53316C14.3291 7.39326 14.249 7.20291 14.248 7.004C14.242 5.911 14.214 5.136 14.106 4.547C14.001 3.981 13.834 3.652 13.591 3.409C13.314 3.132 12.925 2.952 12.191 2.853C11.436 2.752 10.435 2.75 8.99998 2.75H7.99998C6.56398 2.75 5.56298 2.752 4.80798 2.853C4.07398 2.952 3.68598 3.133 3.40798 3.409C3.13198 3.686 2.95198 4.074 2.85298 4.809C2.75098 5.563 2.74998 6.565 2.74998 8V16C2.74998 17.435 2.75098 18.436 2.85298 19.192C2.95198 19.926 3.13198 20.314 3.40898 20.591C3.68598 20.868 4.07398 21.048 4.80798 21.147C5.56298 21.248 6.56398 21.25 7.99998 21.25H8.99998C10.435 21.25 11.436 21.248 12.192 21.147C12.925 21.048 13.314 20.867 13.591 20.591C13.834 20.347 14.001 20.019 14.106 19.453C14.214 18.864 14.242 18.089 14.248 16.996C14.2485 16.8975 14.2684 16.8001 14.3066 16.7093C14.3448 16.6185 14.4005 16.5361 14.4705 16.4668C14.5405 16.3976 14.6235 16.3428 14.7147 16.3056C14.8059 16.2684 14.9035 16.2495 15.002 16.25C15.1005 16.2505 15.1979 16.2704 15.2887 16.3086C15.3795 16.3468 15.4619 16.4025 15.5311 16.4725C15.6004 16.5425 15.6552 16.6255 15.6924 16.7167C15.7296 16.8079 15.7485 16.9055 15.748 17.004C15.742 18.086 15.716 18.987 15.581 19.724C15.441 20.482 15.176 21.127 14.651 21.652C14.05 22.254 13.291 22.512 12.391 22.634C11.525 22.75 10.422 22.75 9.05498 22.75H7.94497C6.57697 22.75 5.47497 22.75 4.60798 22.634C3.70798 22.512 2.94998 22.254 2.34797 21.652C1.74597 21.05 1.48797 20.292 1.36597 19.392C1.24997 18.525 1.24998 17.422 1.24998 16.055V7.945C1.24998 6.578 1.24997 5.475 1.36597 4.608C1.48697 3.708 1.74597 2.95 2.34797 2.348C2.94998 1.746 3.70798 1.488 4.60798 1.367C5.47497 1.25 6.57798 1.25 7.94497 1.25H9.05498Z" fill="black"/>
<path d="M8.99999 11.2501C8.80108 11.2501 8.61031 11.3291 8.46966 11.4698C8.32901 11.6104 8.24999 11.8012 8.24999 12.0001C8.24999 12.199 8.32901 12.3898 8.46966 12.5304C8.61031 12.6711 8.80108 12.7501 8.99999 12.7501H19.973L18.012 14.4301C17.8608 14.5595 17.7673 14.7437 17.7519 14.9421C17.7365 15.1406 17.8006 15.3369 17.93 15.4881C18.0594 15.6393 18.2436 15.7329 18.442 15.7482C18.6404 15.7636 18.8368 15.6995 18.988 15.5701L22.488 12.5701C22.5703 12.4997 22.6364 12.4123 22.6818 12.3139C22.7271 12.2155 22.7505 12.1085 22.7505 12.0001C22.7505 11.8918 22.7271 11.7847 22.6818 11.6863C22.6364 11.5879 22.5703 11.5005 22.488 11.4301L18.988 8.43012C18.9131 8.36603 18.8264 8.31732 18.7327 8.28676C18.639 8.2562 18.5403 8.24439 18.442 8.252C18.3438 8.25961 18.248 8.28651 18.1601 8.33114C18.0723 8.37577 17.9941 8.43727 17.93 8.51212C17.8659 8.58697 17.8172 8.67372 17.7866 8.7674C17.7561 8.86108 17.7443 8.95986 17.7519 9.0581C17.7595 9.15635 17.7864 9.25213 17.831 9.33998C17.8756 9.42783 17.9371 9.50603 18.012 9.57012L19.972 11.2501H8.99999Z" fill="black"/>
</g>
<defs>
<clipPath id="clip0_221_16467">
<rect width="24" height="24" fill="white"/>
</clipPath>
</defs>
</svg>
