<svg width="24" height="24" viewBox="0 0 24 24" fill="none" xmlns="http://www.w3.org/2000/svg">
<g clip-path="url(#clip0_221_16592)">
<path fill-rule="evenodd" clip-rule="evenodd" d="M14.056 2.25C15.894 2.25 17.35 2.25 18.489 2.403C19.661 2.561 20.61 2.893 21.359 3.641C22.107 4.39 22.439 5.339 22.597 6.511C22.75 7.651 22.75 9.106 22.75 10.944V13.056C22.75 14.894 22.75 16.35 22.597 17.489C22.439 18.661 22.107 19.61 21.359 20.359C20.61 21.107 19.661 21.439 18.489 21.597C17.349 21.75 15.894 21.75 14.056 21.75H9.034L8.962 21.749C7.578 21.745 6.439 21.722 5.511 21.597C4.339 21.439 3.39 21.107 2.641 20.359C1.893 19.61 1.561 18.661 1.403 17.489C1.25 16.349 1.25 14.894 1.25 13.056V10.944C1.25 9.106 1.25 7.65 1.403 6.511C1.561 5.339 1.893 4.39 2.641 3.641C3.39 2.893 4.339 2.561 5.511 2.403C6.439 2.278 7.578 2.255 8.961 2.251H9.034L9.944 2.25H14.056ZM9.75 3.75H14C15.907 3.75 17.261 3.752 18.29 3.89C19.295 4.025 19.875 4.279 20.298 4.702C20.721 5.125 20.975 5.705 21.11 6.71C21.248 7.739 21.25 9.093 21.25 11V13C21.25 14.907 21.248 16.262 21.11 17.29C20.975 18.295 20.721 18.875 20.298 19.298C19.875 19.721 19.295 19.975 18.289 20.11C17.261 20.248 15.907 20.25 14 20.25H9.75V3.75ZM8.25 20.244C7.216 20.234 6.392 20.202 5.71 20.11C4.705 19.975 4.125 19.721 3.702 19.298C3.279 18.875 3.025 18.295 2.89 17.289C2.752 16.262 2.75 14.907 2.75 13V11C2.75 9.093 2.752 7.739 2.89 6.71C3.025 5.705 3.279 5.125 3.702 4.702C4.125 4.279 4.705 4.025 5.711 3.89C6.391 3.798 7.216 3.767 8.25 3.756V20.244Z" fill="black"/>
</g>
<defs>
<clipPath id="clip0_221_16592">
<rect width="24" height="24" fill="white"/>
</clipPath>
</defs>
</svg>
