<svg width="24" height="24" viewBox="0 0 24 24" fill="none" xmlns="http://www.w3.org/2000/svg">
<g clip-path="url(#clip0_221_16602)">
<path fill-rule="evenodd" clip-rule="evenodd" d="M6.61391 2.92632C5.33587 3.0981 4.56481 3.4248 3.99431 3.99435C3.42488 4.56428 3.09812 5.33519 2.92632 6.61353C2.75159 7.91358 2.75 9.62181 2.75 12C2.75 14.3782 2.75159 16.0867 2.92632 17.3867C3.09816 18.6653 3.42496 19.4357 3.99415 20.0045C4.56411 20.5745 5.33519 20.9016 6.61359 21.0736C7.91361 21.2484 9.62179 21.25 12 21.25C14.3782 21.25 16.0866 21.2484 17.3867 21.0736C18.6651 20.9016 19.4355 20.5746 20.0043 20.005L20.0048 20.0045C20.5746 19.4351 20.9016 18.6646 21.0736 17.3863C21.2484 16.0864 21.25 14.3782 21.25 12C21.25 9.62179 21.2484 7.91386 21.0736 6.61398C20.9016 5.33578 20.5747 4.56471 20.0045 3.99415C19.4351 3.42487 18.6646 3.09813 17.3863 2.92632C16.0864 2.75159 14.3782 2.75 12 2.75C9.6218 2.75 7.91383 2.75159 6.61391 2.92632ZM11.9426 1.25H12.0574C14.3657 1.24999 16.1748 1.24998 17.5862 1.43968C19.0308 1.63386 20.1707 2.03906 21.0653 2.93367C21.9602 3.82911 22.3659 4.96922 22.5602 6.41402C22.75 7.82546 22.75 9.63426 22.75 11.9426V12.0574C22.75 14.3657 22.75 16.1748 22.5602 17.5862C22.3659 19.0307 21.9605 20.1706 21.0655 21.0651C20.1714 21.9604 19.0313 22.3659 17.5866 22.5602C16.175 22.75 14.3657 22.75 12.0574 22.75H11.9426C9.63425 22.75 7.82522 22.75 6.41366 22.5602C4.9689 22.3659 3.82886 21.9604 2.93385 21.0655C2.03904 20.1713 1.63384 19.0312 1.43968 17.5865C1.24998 16.175 1.24999 14.3657 1.25 12.0574V11.9426C1.24999 9.63426 1.24998 7.82525 1.43968 6.41372C1.63386 4.96897 2.03905 3.82891 2.93349 2.93385L2.93403 2.93331C3.82949 2.03907 4.96938 1.63387 6.41409 1.43968C7.82549 1.24998 9.63426 1.24999 11.9426 1.25Z" fill="black"/>
<path fill-rule="evenodd" clip-rule="evenodd" d="M1.25 12C1.25 11.5858 1.58579 11.25 2 11.25H22C22.4142 11.25 22.75 11.5858 22.75 12C22.75 12.4142 22.4142 12.75 22 12.75H2C1.58579 12.75 1.25 12.4142 1.25 12Z" fill="black"/>
</g>
<defs>
<clipPath id="clip0_221_16602">
<rect width="24" height="24" fill="white"/>
</clipPath>
</defs>
</svg>
