<svg width="24" height="24" viewBox="0 0 24 24" fill="none" xmlns="http://www.w3.org/2000/svg">
<path fill-rule="evenodd" clip-rule="evenodd" d="M5.83032 17.194L9.92698 17.1939C10.3165 17.1939 10.6325 16.8842 10.6325 16.4946C10.6325 16.1051 10.3165 15.7864 9.92698 15.7864L5.83032 15.7865C5.4408 15.7865 5.12476 16.1052 5.12476 16.4947C5.12476 16.8842 5.4408 17.194 5.83032 17.194Z" fill="black"/>
<path fill-rule="evenodd" clip-rule="evenodd" d="M5.83032 19.7879L8.47493 19.7877C8.86445 19.7877 9.18049 19.4779 9.18049 19.0884C9.18049 18.6989 8.86445 18.3801 8.47493 18.3801L5.83032 18.3803C5.4408 18.3803 5.12476 18.699 5.12476 19.0886C5.12476 19.4781 5.4408 19.7879 5.83032 19.7879Z" fill="black"/>
<path fill-rule="evenodd" clip-rule="evenodd" d="M13.2705 16.113C13.4019 15.9804 13.5809 15.9058 13.7677 15.9058H18.7728C19.1594 15.9058 19.4728 16.2192 19.4728 16.6058V19.1083C19.4728 19.4949 19.1594 19.8083 18.7728 19.8083H13.7902C13.4061 19.8083 13.0937 19.4987 13.0902 19.1146L13.0677 16.6121C13.066 16.4253 13.139 16.2457 13.2705 16.113ZM14.474 17.3058L14.4839 18.4083H18.0728V17.3058H14.474Z" fill="black"/>
<path fill-rule="evenodd" clip-rule="evenodd" d="M6.61391 2.92632C5.3358 3.09811 4.56473 3.42484 3.99421 3.99445C3.42484 4.56436 3.09811 5.33526 2.92632 6.61353C2.75159 7.91358 2.75 9.62181 2.75 12C2.75 14.3782 2.75159 16.0867 2.92632 17.3867C3.09816 18.6653 3.42496 19.4357 3.99415 20.0045C4.56411 20.5745 5.33519 20.9016 6.61359 21.0736C7.91361 21.2484 9.62179 21.25 12 21.25C14.3782 21.25 16.0866 21.2484 17.3867 21.0736C18.6651 20.9016 19.4355 20.5746 20.0043 20.005C20.5741 19.4356 20.9016 18.6646 21.0736 17.3863C21.2484 16.0864 21.25 14.3782 21.25 12C21.25 9.62179 21.2484 7.91386 21.0736 6.61398C20.9016 5.33578 20.5747 4.56471 20.0045 3.99415C19.4351 3.42487 18.6646 3.09813 17.3863 2.92632C16.0864 2.75159 14.3782 2.75 12 2.75C9.6218 2.75 7.91384 2.75159 6.61391 2.92632ZM11.9426 1.25H12.0574C14.3657 1.24999 16.1748 1.24998 17.5862 1.43968C19.0308 1.63386 20.1707 2.03906 21.0653 2.93367C21.9602 3.82911 22.3659 4.96922 22.5602 6.41402C22.75 7.82546 22.75 9.63424 22.75 11.9426V12.0574C22.75 14.3658 22.75 16.1748 22.5602 17.5862C22.3659 19.0307 21.9605 20.1706 21.0655 21.0651C20.1714 21.9604 19.0313 22.3659 17.5866 22.5602C16.175 22.75 14.3658 22.75 12.0574 22.75H11.9426C9.63424 22.75 7.82521 22.75 6.41366 22.5602C4.9689 22.3659 3.82886 21.9604 2.93385 21.0655C2.03916 20.1713 1.63383 19.0311 1.43968 17.5865C1.24998 16.175 1.24999 14.3657 1.25 12.0574V11.9426C1.24999 9.63425 1.24998 7.82525 1.43968 6.41372C1.63386 4.96897 2.03905 3.82891 2.93349 2.93385C3.82895 2.03961 4.96938 1.63387 6.41409 1.43968C7.8255 1.24998 9.63426 1.24999 11.9426 1.25ZM2.93385 21.0655C2.93379 21.0655 2.93391 21.0656 2.93385 21.0655V21.0655Z" fill="black"/>
<path fill-rule="evenodd" clip-rule="evenodd" d="M15.0845 6.38648C15.0845 5.80115 14.8517 5.2413 14.4377 4.82563C14.0237 4.40996 13.4622 4.18091 12.8764 4.18091C11.1963 4.18091 8.48729 4.18091 6.80722 4.18091C6.22147 4.18091 5.65989 4.40996 5.24592 4.82563C4.83195 5.2413 4.59909 5.80115 4.59909 6.38648C4.59909 8.06612 4.59909 10.7765 4.59909 12.4561C4.59909 13.0414 4.83195 13.6056 5.24592 14.017C5.65989 14.4327 6.22147 14.6659 6.80722 14.6659C8.48729 14.6659 11.1963 14.6659 12.8764 14.6659C13.4622 14.6659 14.0237 14.4327 14.4377 14.017C14.8517 13.6056 15.0845 13.0414 15.0845 12.4561V6.38648ZM13.6658 6.38648V12.4561C13.6658 12.6639 13.5826 12.8675 13.4346 13.016C13.2866 13.1644 13.0859 13.245 12.8764 13.245H6.80722C6.59769 13.245 6.39707 13.1644 6.24904 13.016C6.10101 12.8675 6.01788 12.6639 6.01788 12.4561V6.38648C6.01788 6.17864 6.10101 5.97508 6.24904 5.83086C6.39707 5.68241 6.59769 5.59756 6.80722 5.59756H12.8764C13.0859 5.59756 13.2866 5.68241 13.4346 5.83086C13.5826 5.97508 13.6658 6.17864 13.6658 6.38648Z" fill="black"/>
<path fill-rule="evenodd" clip-rule="evenodd" d="M5.32767 5.76193L13.2783 13.8753C13.5532 14.1511 14.0024 14.16 14.2818 13.8842C14.5611 13.6085 14.5656 13.1636 14.2916 12.879L6.34007 4.76554C6.06606 4.48976 5.6168 4.48085 5.33746 4.75664C5.05722 5.03242 5.05367 5.48614 5.32767 5.76193Z" fill="black"/>
<path fill-rule="evenodd" clip-rule="evenodd" d="M13.4409 4.90193L5.29071 13.0488C5.01761 13.3255 5.01308 13.7748 5.29157 14.0514C5.57007 14.329 6.02379 14.3281 6.2969 14.0515L14.4382 5.90467C14.7202 5.62791 14.7158 5.17867 14.4462 4.90194C14.1677 4.6244 13.714 4.62526 13.4409 4.90193Z" fill="black"/>
<path fill-rule="evenodd" clip-rule="evenodd" d="M18.0831 5.60868V13.9151C18.0831 14.3108 18.4042 14.6347 18.8009 14.6347C19.1967 14.6347 19.5178 14.3108 19.5178 13.9151V5.60868C19.5178 5.21291 19.1967 4.88916 18.8009 4.88916C18.4042 4.88916 18.0831 5.21291 18.0831 5.60868Z" fill="black"/>
</svg>
