<svg width="24" height="24" viewBox="0 0 24 24" fill="none" xmlns="http://www.w3.org/2000/svg">
<g clip-path="url(#clip0_221_16649)">
<path fill-rule="evenodd" clip-rule="evenodd" d="M2.375 4.92C2.375 5.353 2.375 5.75 2.418 6.072C2.466 6.428 2.578 6.803 2.888 7.112C3.198 7.421 3.572 7.534 3.928 7.582C4.251 7.625 4.648 7.625 5.08 7.625L18.92 7.625C19.353 7.625 19.75 7.625 20.072 7.582C20.428 7.534 20.803 7.422 21.112 7.112C21.421 6.802 21.534 6.428 21.582 6.072C21.625 5.749 21.625 5.352 21.625 4.92V4.83C21.625 4.397 21.625 4 21.582 3.678C21.534 3.322 21.422 2.947 21.112 2.638C20.802 2.329 20.428 2.216 20.072 2.168C19.749 2.125 19.352 2.125 18.92 2.125L5.08 2.125C4.647 2.125 4.25 2.125 3.928 2.168C3.572 2.216 3.197 2.328 2.888 2.638C2.579 2.948 2.466 3.322 2.418 3.678C2.375 4.001 2.375 4.398 2.375 4.83V4.92ZM3.947 6.05L3.948 6.052L3.951 6.053L3.961 6.058C4.01494 6.07711 4.07103 6.08954 4.128 6.095C4.338 6.123 4.632 6.125 5.125 6.125L18.875 6.125C19.368 6.125 19.662 6.123 19.872 6.095C19.9326 6.08876 19.9921 6.07464 20.049 6.053L20.052 6.052L20.053 6.049L20.055 6.046L20.058 6.039C20.067 6.017 20.082 5.969 20.095 5.872C20.123 5.662 20.125 5.368 20.125 4.875C20.125 4.382 20.123 4.088 20.095 3.878C20.0888 3.81743 20.0746 3.75792 20.053 3.701L20.052 3.698L20.049 3.697L20.039 3.692C19.9851 3.67289 19.929 3.66046 19.872 3.655C19.662 3.627 19.368 3.625 18.875 3.625L5.125 3.625C4.632 3.625 4.338 3.627 4.128 3.655C4.06742 3.66124 4.00792 3.67536 3.951 3.697L3.948 3.698L3.947 3.701L3.942 3.711C3.92289 3.76495 3.91046 3.82103 3.905 3.878C3.877 4.088 3.875 4.382 3.875 4.875C3.875 5.368 3.877 5.662 3.905 5.872C3.91124 5.93258 3.92536 5.99308 3.947 6.05Z" fill="black"/>
<path fill-rule="evenodd" clip-rule="evenodd" d="M2.375 11.92C2.375 12.353 2.375 12.75 2.418 13.072C2.466 13.428 2.578 13.803 2.888 14.112C3.198 14.421 3.572 14.534 3.928 14.582C4.251 14.625 4.648 14.625 5.08 14.625L18.92 14.625C19.353 14.625 19.75 14.625 20.072 14.582C20.428 14.534 20.803 14.422 21.112 14.112C21.421 13.802 21.534 13.428 21.582 13.072C21.625 12.749 21.625 12.352 21.625 11.92V11.83C21.625 11.397 21.625 11 21.582 10.678C21.534 10.322 21.422 9.947 21.112 9.638C20.802 9.329 20.428 9.216 20.072 9.168C19.749 9.125 19.352 9.125 18.92 9.125H5.08C4.647 9.125 4.25 9.125 3.928 9.168C3.572 9.216 3.197 9.328 2.888 9.638C2.579 9.948 2.466 10.322 2.418 10.678C2.375 11.001 2.375 11.398 2.375 11.83V11.92ZM3.947 13.05L3.948 13.052L3.951 13.053L3.961 13.058C4.01494 13.0771 4.07103 13.0895 4.128 13.095C4.338 13.123 4.632 13.125 5.125 13.125L18.875 13.125C19.368 13.125 19.662 13.123 19.872 13.095C19.9326 13.0888 19.9921 13.0746 20.049 13.053L20.052 13.052L20.053 13.049L20.055 13.046L20.058 13.039C20.067 13.017 20.082 12.969 20.095 12.872C20.123 12.662 20.125 12.368 20.125 11.875C20.125 11.382 20.123 11.088 20.095 10.878C20.0888 10.8174 20.0746 10.7579 20.053 10.701L20.052 10.698L20.049 10.697L20.039 10.692C19.9851 10.6729 19.929 10.6605 19.872 10.655C19.662 10.627 19.368 10.625 18.875 10.625H5.125C4.632 10.625 4.338 10.627 4.128 10.655C4.06742 10.6612 4.00792 10.6754 3.951 10.697L3.948 10.698L3.947 10.701L3.942 10.711C3.92289 10.7649 3.91046 10.821 3.905 10.878C3.877 11.088 3.875 11.382 3.875 11.875C3.875 12.368 3.877 12.662 3.905 12.872C3.91124 12.9326 3.92536 12.9931 3.947 13.05Z" fill="black"/>
<path fill-rule="evenodd" clip-rule="evenodd" d="M2.375 19.045C2.375 19.478 2.375 19.875 2.418 20.197C2.466 20.553 2.578 20.928 2.888 21.237C3.198 21.546 3.572 21.659 3.928 21.707C4.251 21.75 4.648 21.75 5.08 21.75H18.92C19.353 21.75 19.75 21.75 20.072 21.707C20.428 21.659 20.803 21.547 21.112 21.237C21.421 20.927 21.534 20.553 21.582 20.197C21.625 19.874 21.625 19.477 21.625 19.045V18.955C21.625 18.522 21.625 18.125 21.582 17.803C21.534 17.447 21.422 17.072 21.112 16.763C20.802 16.454 20.428 16.341 20.072 16.293C19.749 16.25 19.352 16.25 18.92 16.25H5.08C4.647 16.25 4.25 16.25 3.928 16.293C3.572 16.341 3.197 16.453 2.888 16.763C2.579 17.073 2.466 17.447 2.418 17.803C2.375 18.126 2.375 18.523 2.375 18.955V19.045ZM3.947 20.175L3.948 20.177L3.951 20.178L3.961 20.183C4.01494 20.2021 4.07103 20.2145 4.128 20.22C4.338 20.248 4.632 20.25 5.125 20.25H18.875C19.368 20.25 19.662 20.248 19.872 20.22C19.9326 20.2138 19.9921 20.1996 20.049 20.178L20.052 20.177L20.053 20.174L20.055 20.171L20.058 20.164C20.067 20.142 20.082 20.094 20.095 19.997C20.123 19.787 20.125 19.493 20.125 19C20.125 18.507 20.123 18.213 20.095 18.003C20.0888 17.9424 20.0746 17.8829 20.053 17.826L20.052 17.823L20.049 17.822L20.039 17.817C19.9851 17.7979 19.929 17.7855 19.872 17.78C19.662 17.752 19.368 17.75 18.875 17.75H5.125C4.632 17.75 4.338 17.752 4.128 17.78C4.06742 17.7862 4.00792 17.8004 3.951 17.822L3.948 17.823L3.947 17.826L3.942 17.836C3.92289 17.8899 3.91046 17.946 3.905 18.003C3.877 18.213 3.875 18.507 3.875 19C3.875 19.493 3.877 19.787 3.905 19.997C3.91124 20.0576 3.92536 20.1181 3.947 20.175Z" fill="black"/>
</g>
<defs>
<clipPath id="clip0_221_16649">
<rect width="24" height="24" fill="white"/>
</clipPath>
</defs>
</svg>
