<svg width="24" height="24" viewBox="0 0 24 24" fill="none" xmlns="http://www.w3.org/2000/svg">
<g clip-path="url(#clip0_221_16473)">
<path d="M14.945 1.25C13.578 1.25 12.475 1.25 11.608 1.367C10.708 1.487 9.95 1.747 9.348 2.348C8.824 2.873 8.558 3.518 8.419 4.276C8.284 5.013 8.258 5.914 8.252 6.996C8.25094 7.19491 8.32894 7.3861 8.46884 7.5275C8.60874 7.6689 8.79909 7.74894 8.998 7.75C9.19691 7.75106 9.3881 7.67306 9.5295 7.53316C9.6709 7.39326 9.75094 7.20291 9.752 7.004C9.758 5.911 9.786 5.136 9.894 4.547C9.999 3.981 10.166 3.652 10.409 3.409C10.686 3.132 11.075 2.952 11.809 2.853C12.564 2.752 13.565 2.75 15 2.75H16C17.436 2.75 18.437 2.752 19.192 2.853C19.926 2.952 20.314 3.133 20.592 3.409C20.868 3.686 21.048 4.074 21.147 4.809C21.249 5.563 21.25 6.565 21.25 8V16C21.25 17.435 21.249 18.436 21.147 19.192C21.048 19.926 20.868 20.314 20.591 20.591C20.314 20.868 19.926 21.048 19.192 21.147C18.437 21.248 17.436 21.25 16 21.25H15C13.565 21.25 12.564 21.248 11.808 21.147C11.075 21.048 10.686 20.867 10.409 20.591C10.166 20.347 9.999 20.019 9.894 19.453C9.786 18.864 9.758 18.089 9.752 16.996C9.75147 16.8975 9.73155 16.8001 9.69338 16.7093C9.6552 16.6185 9.59952 16.5361 9.5295 16.4668C9.45949 16.3976 9.37651 16.3428 9.28532 16.3056C9.19412 16.2684 9.09649 16.2495 8.998 16.25C8.89951 16.2505 8.80209 16.2704 8.71129 16.3086C8.6205 16.3468 8.53811 16.4025 8.46884 16.4725C8.39957 16.5425 8.34477 16.6255 8.30756 16.7167C8.27035 16.8079 8.25147 16.9055 8.252 17.004C8.258 18.086 8.284 18.987 8.419 19.724C8.559 20.482 8.824 21.127 9.349 21.652C9.95 22.254 10.709 22.512 11.609 22.634C12.475 22.75 13.578 22.75 14.945 22.75H16.055C17.423 22.75 18.525 22.75 19.392 22.634C20.292 22.512 21.05 22.254 21.652 21.652C22.254 21.05 22.512 20.292 22.634 19.392C22.75 18.525 22.75 17.422 22.75 16.055V7.945C22.75 6.578 22.75 5.475 22.634 4.608C22.513 3.708 22.254 2.95 21.652 2.348C21.05 1.746 20.292 1.488 19.392 1.367C18.525 1.25 17.422 1.25 16.055 1.25H14.945Z" fill="black"/>
<path d="M2.001 11.2489C1.80209 11.2489 1.61132 11.3279 1.47067 11.4686C1.33002 11.6092 1.251 11.8 1.251 11.9989C1.251 12.1978 1.33002 12.3886 1.47067 12.5292C1.61132 12.6699 1.80209 12.7489 2.001 12.7489H13.974L12.013 14.4289C11.9381 14.493 11.8766 14.5712 11.832 14.659C11.7874 14.7469 11.7605 14.8427 11.7529 14.9409C11.7375 15.1393 11.8016 15.3357 11.931 15.4869C12.0604 15.6381 12.2446 15.7316 12.443 15.747C12.6414 15.7624 12.8378 15.6983 12.989 15.5689L16.489 12.5689C16.5713 12.4985 16.6374 12.4111 16.6828 12.3127C16.7281 12.2143 16.7516 12.1072 16.7516 11.9989C16.7516 11.8906 16.7281 11.7835 16.6828 11.6851C16.6374 11.5867 16.5713 11.4993 16.489 11.4289L12.989 8.4289C12.8378 8.29947 12.6414 8.2354 12.443 8.25078C12.2446 8.26616 12.0604 8.35973 11.931 8.5109C11.8016 8.66207 11.7375 8.85847 11.7529 9.05688C11.7683 9.2553 11.8618 9.43947 12.013 9.5689L13.973 11.2489H2.001Z" fill="black"/>
</g>
<defs>
<clipPath id="clip0_221_16473">
<rect width="24" height="24" fill="white"/>
</clipPath>
</defs>
</svg>
