<svg width="24" height="24" viewBox="0 0 24 24" fill="none" xmlns="http://www.w3.org/2000/svg">
<path fill-rule="evenodd" clip-rule="evenodd" d="M10.2358 2.85537H8.30686C8.15233 2.84457 7.09654 2.85534 6.23958 3.63341C5.66468 4.15212 5.14489 5.01663 5.14489 6.52954V8.61519L5.14597 8.66927C5.14597 8.66927 4.85526 10.3118 1.76136 11.2196C1.36476 11.3385 1.13674 11.7491 1.25345 12.1489C1.37016 12.5488 1.78732 12.7757 2.18391 12.6568C4.50839 11.976 5.58688 11.0034 6.10559 10.247C6.67509 9.40407 6.65671 8.72328 6.64374 8.57199L6.64483 6.52954C6.64483 5.61099 6.89444 5.0599 7.24349 4.74651C7.70061 4.33586 8.26903 4.34667 8.26903 4.34667H10.2358C10.6497 4.34667 10.9858 4.01167 10.9858 3.60102C10.9858 3.19038 10.6497 2.85537 10.2358 2.85537Z" fill="black"/>
<path fill-rule="evenodd" clip-rule="evenodd" d="M10.2358 19.5117H8.26903C8.26903 19.5117 7.70061 19.5225 7.24349 19.1119C6.89444 18.7985 6.64483 18.2474 6.64483 17.3289V15.2864C6.65671 15.1459 6.67942 14.4543 6.10559 13.6114C5.58688 12.855 4.50839 11.8824 2.18391 11.2016C1.78732 11.0827 1.37016 11.3096 1.25345 11.7095C1.13674 12.1093 1.36476 12.5199 1.76136 12.6388C4.85526 13.5466 5.14597 15.1891 5.14597 15.1891C5.14597 15.1891 5.14489 15.6539 5.14489 15.2432V17.3289C5.14489 18.8418 5.66468 19.7063 6.23958 20.225C7.09654 21.0031 8.15234 21.0138 8.31336 21.003C8.30687 21.003 10.2358 21.003 10.2358 21.003C10.6497 21.003 10.9858 20.668 10.9858 20.2574C10.9858 19.8467 10.6497 19.5117 10.2358 19.5117Z" fill="black"/>
<path fill-rule="evenodd" clip-rule="evenodd" d="M13.7128 4.35606H15.6524C15.6524 4.35606 16.2094 4.33481 16.6567 4.73954C16.9997 5.04841 17.2457 5.59157 17.2457 6.49688V8.20105C17.2457 8.61643 17.5802 8.95722 17.9913 8.95722C18.4035 8.95722 18.7379 8.61643 18.7379 8.20105V6.49688C18.7379 5.00577 18.2245 4.14306 17.6568 3.63182C16.8112 2.87561 15.7695 2.86499 15.6087 2.86499C15.614 2.86499 13.7128 2.86499 13.7128 2.86499C13.3007 2.86499 12.9662 3.19518 12.9662 3.61056C12.9662 4.02594 13.3007 4.35606 13.7128 4.35606Z" fill="black"/>
<path fill-rule="evenodd" clip-rule="evenodd" d="M16.6803 10.0361C13.3219 10.0361 10.5946 12.7603 10.5946 16.126C10.5946 19.4813 13.3219 22.2054 16.6803 22.2054C20.0398 22.2054 22.7671 19.4813 22.7671 16.126C22.7671 12.7603 20.0398 10.0361 16.6803 10.0361ZM16.6803 11.5297C19.2173 11.5297 21.2767 13.5807 21.2767 16.126C21.2767 18.6609 19.2173 20.7119 16.6803 20.7119C14.1444 20.7119 12.084 18.6609 12.084 16.126C12.084 13.5807 14.1444 11.5297 16.6803 11.5297Z" fill="black"/>
<path fill-rule="evenodd" clip-rule="evenodd" d="M17.4259 18.9531V13.551C17.4259 13.1301 17.0924 12.7993 16.6809 12.7993C16.2703 12.7993 15.9368 13.1301 15.9368 13.551V18.9531C15.9368 19.3641 16.2703 19.6948 16.6809 19.6948C17.0924 19.6948 17.4259 19.3641 17.4259 18.9531Z" fill="black"/>
<path fill-rule="evenodd" clip-rule="evenodd" d="M15.1763 15.8736L16.7004 14.5273L18.3717 15.8841C18.6904 16.1471 19.1595 16.0945 19.4193 15.779C19.6791 15.4634 19.6317 14.9901 19.313 14.7272L17.1516 12.9706C16.8686 12.7392 16.4606 12.7498 16.1881 12.9917L14.1897 14.7587C13.8815 15.0217 13.8521 15.495 14.1245 15.8105C14.3969 16.1155 14.8681 16.1471 15.1763 15.8736Z" fill="black"/>
</svg>
