<svg width="24" height="24" viewBox="0 0 24 24" fill="none" xmlns="http://www.w3.org/2000/svg">
<path d="M11.2505 0.774637V11.268C11.2505 11.6778 11.5805 12.0176 12.0005 12.0176C12.4105 12.0176 12.7505 11.6778 12.7505 11.268V0.774637C12.7505 0.354901 12.4105 0.0251093 12.0005 0.0251093C11.5805 0.0251093 11.2505 0.354901 11.2505 0.774637Z" fill="black"/>
<path d="M8.78063 5.04195L12.5305 1.29431H11.4605L15.2104 5.04195C15.5004 5.33176 15.9703 5.33176 16.2703 5.04195C16.5603 4.74214 16.5603 4.27243 16.2703 3.97262L12.5205 0.224983C12.2205 -0.0748277 11.7505 -0.0748277 11.4505 0.223984L7.70068 3.96263C7.40069 4.25245 7.40069 4.72215 7.70068 5.02196C7.99067 5.31178 8.46065 5.31178 8.76064 5.02196L8.78063 5.04195Z" fill="black"/>
<path d="M22.5001 21.7514C22.5001 22.1612 22.1601 22.5009 21.7501 22.5009H2.25091C1.83092 22.5009 1.50094 22.1612 1.50094 21.7514V17.2543C1.50094 16.8345 1.83092 16.5047 2.25091 16.5047H21.7501C22.1601 16.5047 22.5001 16.8345 22.5001 17.2543V21.7514ZM24 19.5028V17.2543C24 16.005 22.99 15.0057 21.7501 15.0057H2.25091C1.00096 15.0057 0.000999958 16.005 0.000999958 17.2543L0 21.7514C0 22.9906 0.999958 24 2.24991 24L21.7491 23.999C22.989 23.999 23.999 22.9896 23.999 21.7504V19.5018L24 19.5028Z" fill="black"/>
</svg>
