<svg width="24" height="24" viewBox="0 0 24 24" fill="none" xmlns="http://www.w3.org/2000/svg">
<path fill-rule="evenodd" clip-rule="evenodd" d="M10.2359 2.85537H8.30689C8.15236 2.84457 7.09657 2.85534 6.23961 3.63341C5.66471 4.15212 5.14492 5.01663 5.14492 6.52954V8.61519L5.146 8.66927C5.146 8.66927 4.85529 10.3118 1.76139 11.2196C1.36479 11.3385 1.13677 11.7491 1.25348 12.1489C1.37019 12.5488 1.78735 12.7757 2.18395 12.6568C4.50842 11.976 5.58691 11.0034 6.10562 10.247C6.67512 9.40407 6.65674 8.72328 6.64377 8.57199L6.64486 6.52954C6.64486 5.61099 6.89447 5.0599 7.24352 4.74651C7.70064 4.33586 8.26906 4.34667 8.26906 4.34667H10.2359C10.6497 4.34667 10.9858 4.01167 10.9858 3.60102C10.9858 3.19038 10.6497 2.85537 10.2359 2.85537Z" fill="black"/>
<path fill-rule="evenodd" clip-rule="evenodd" d="M10.2359 19.5117H8.26906C8.26906 19.5117 7.70064 19.5225 7.24352 19.1119C6.89447 18.7985 6.64486 18.2474 6.64486 17.3289V15.2864C6.65675 15.1459 6.67945 14.4543 6.10562 13.6114C5.58691 12.855 4.50842 11.8824 2.18395 11.2016C1.78735 11.0827 1.37019 11.3096 1.25348 11.7095C1.13677 12.1093 1.36479 12.5199 1.76139 12.6388C4.85529 13.5466 5.146 15.1891 5.146 15.1891C5.146 15.1891 5.14492 15.6539 5.14492 15.2432V17.3289C5.14492 18.8418 5.66471 19.7063 6.23961 20.225C7.09657 21.0031 8.15237 21.0138 8.31339 21.003C8.3069 21.003 10.2359 21.003 10.2359 21.003C10.6497 21.003 10.9858 20.668 10.9858 20.2574C10.9858 19.8467 10.6497 19.5117 10.2359 19.5117Z" fill="black"/>
<path fill-rule="evenodd" clip-rule="evenodd" d="M18.8021 8.67904C18.8043 8.65743 18.8043 8.64657 18.8043 8.62495V6.53931C18.8043 5.0264 18.2845 4.16189 17.7096 3.64317C16.8526 2.86511 15.7968 2.85433 15.6358 2.86514C15.6423 2.86514 13.7133 2.86514 13.7133 2.86514C13.2994 2.86514 12.9634 3.20014 12.9634 3.61079C12.9634 4.02144 13.2994 4.35644 13.7133 4.35644H15.6801C15.6801 4.35644 16.2486 4.34563 16.7057 4.75627C17.0547 5.06966 17.3043 5.62076 17.3043 6.53931V8.58175C17.2924 8.72224 17.2697 9.41384 17.8436 10.2567C18.3623 11.0132 19.4408 11.9858 21.7652 12.6666C22.1618 12.7854 22.579 12.5585 22.6957 12.1587C22.8124 11.7589 22.5844 11.3482 22.1878 11.2294C19.0939 10.3216 18.8021 8.67904 18.8021 8.67904Z" fill="black"/>
<path fill-rule="evenodd" clip-rule="evenodd" d="M18.8 15.2643L18.8032 15.1994C18.8043 14.9076 19.0939 13.5568 22.1878 12.6491C22.5844 12.5302 22.8124 12.1196 22.6957 11.7197C22.579 11.3199 22.1618 11.093 21.7652 11.2118C19.4408 11.8927 18.3623 12.8652 17.8436 13.6217C17.2741 14.4646 17.2925 15.1454 17.3054 15.2967L17.3043 17.3391C17.3043 18.2577 17.0547 18.8088 16.7057 19.1221C16.2486 19.5328 15.6801 19.522 15.6801 19.522H13.7133C13.2994 19.522 12.9634 19.857 12.9634 20.2676C12.9634 20.6783 13.2994 21.0133 13.7133 21.0133H15.6423C15.7968 21.0241 16.8526 21.0133 17.7096 20.2352C18.2845 19.7165 18.8043 18.852 18.8043 17.3391V15.2535L18.8 15.2643Z" fill="black"/>
</svg>
