<svg width="24" height="24" viewBox="0 0 24 24" fill="none" xmlns="http://www.w3.org/2000/svg">
<g clip-path="url(#clip0_221_17222)">
<path fill-rule="evenodd" clip-rule="evenodd" d="M2.25 12C2.25 11.2707 2.53973 10.5712 3.05546 10.0555C3.57118 9.53973 4.27065 9.25 5 9.25C5.72935 9.25 6.42882 9.53973 6.94454 10.0555C7.46027 10.5712 7.75 11.2707 7.75 12C7.75 12.7293 7.46027 13.4288 6.94454 13.9445C6.42882 14.4603 5.72935 14.75 5 14.75C4.27065 14.75 3.57118 14.4603 3.05546 13.9445C2.53973 13.4288 2.25 12.7293 2.25 12ZM5 10.75C4.66848 10.75 4.35054 10.8817 4.11612 11.1161C3.8817 11.3505 3.75 11.6685 3.75 12C3.75 12.3315 3.8817 12.6495 4.11612 12.8839C4.35054 13.1183 4.66848 13.25 5 13.25C5.33152 13.25 5.64946 13.1183 5.88388 12.8839C6.1183 12.6495 6.25 12.3315 6.25 12C6.25 11.6685 6.1183 11.3505 5.88388 11.1161C5.64946 10.8817 5.33152 10.75 5 10.75ZM9.25 12C9.25 11.2707 9.53973 10.5712 10.0555 10.0555C10.5712 9.53973 11.2707 9.25 12 9.25C12.7293 9.25 13.4288 9.53973 13.9445 10.0555C14.4603 10.5712 14.75 11.2707 14.75 12C14.75 12.7293 14.4603 13.4288 13.9445 13.9445C13.4288 14.4603 12.7293 14.75 12 14.75C11.2707 14.75 10.5712 14.4603 10.0555 13.9445C9.53973 13.4288 9.25 12.7293 9.25 12ZM12 10.75C11.6685 10.75 11.3505 10.8817 11.1161 11.1161C10.8817 11.3505 10.75 11.6685 10.75 12C10.75 12.3315 10.8817 12.6495 11.1161 12.8839C11.3505 13.1183 11.6685 13.25 12 13.25C12.3315 13.25 12.6495 13.1183 12.8839 12.8839C13.1183 12.6495 13.25 12.3315 13.25 12C13.25 11.6685 13.1183 11.3505 12.8839 11.1161C12.6495 10.8817 12.3315 10.75 12 10.75ZM19 9.25C18.2707 9.25 17.5712 9.53973 17.0555 10.0555C16.5397 10.5712 16.25 11.2707 16.25 12C16.25 12.7293 16.5397 13.4288 17.0555 13.9445C17.5712 14.4603 18.2707 14.75 19 14.75C19.7293 14.75 20.4288 14.4603 20.9445 13.9445C21.4603 13.4288 21.75 12.7293 21.75 12C21.75 11.2707 21.4603 10.5712 20.9445 10.0555C20.4288 9.53973 19.7293 9.25 19 9.25ZM17.75 12C17.75 11.8358 17.7823 11.6733 17.8451 11.5216C17.908 11.37 18 11.2322 18.1161 11.1161C18.2322 11 18.37 10.908 18.5216 10.8452C18.6733 10.7823 18.8358 10.75 19 10.75C19.1642 10.75 19.3267 10.7823 19.4784 10.8452C19.63 10.908 19.7678 11 19.8839 11.1161C20 11.2322 20.092 11.37 20.1549 11.5216C20.2177 11.6733 20.25 11.8358 20.25 12C20.25 12.3315 20.1183 12.6495 19.8839 12.8839C19.6495 13.1183 19.3315 13.25 19 13.25C18.6685 13.25 18.3505 13.1183 18.1161 12.8839C17.8817 12.6495 17.75 12.3315 17.75 12Z" fill="black"/>
</g>
<defs>
<clipPath id="clip0_221_17222">
<rect width="24" height="24" fill="white"/>
</clipPath>
</defs>
</svg>
