<svg width="24" height="24" viewBox="0 0 24 24" fill="none" xmlns="http://www.w3.org/2000/svg">
<path d="M5.25078 0.774637V11.268C5.25078 11.6778 5.58077 12.0176 6.00075 12.0176C6.41073 12.0176 6.75072 11.6778 6.75072 11.268V0.774637C6.75072 0.354901 6.41073 0.0251093 6.00075 0.0251093C5.58077 0.0251093 5.25078 0.354901 5.25078 0.774637Z" fill="black"/>
<path d="M2.78088 5.04195L6.53073 1.29431H5.46077L9.21062 5.04195C9.5006 5.33176 9.97058 5.33176 10.2706 5.04195C10.5606 4.74214 10.5606 4.27243 10.2706 3.97262L6.52073 0.224983C6.22074 -0.0748277 5.75076 -0.0748277 5.45077 0.223984L1.70093 3.96263C1.40094 4.25245 1.40094 4.72215 1.70093 5.02196C1.99092 5.31178 2.4609 5.31178 2.76089 5.02196L2.78088 5.04195Z" fill="black"/>
<path d="M22.5001 21.7514C22.5001 22.1612 22.1601 22.5009 21.7501 22.5009H2.25091C1.83092 22.5009 1.50094 22.1612 1.50094 21.7514V17.2543C1.50094 16.8345 1.83092 16.5047 2.25091 16.5047H21.7501C22.1601 16.5047 22.5001 16.8345 22.5001 17.2543V21.7514ZM24 19.5028V17.2543C24 16.005 22.99 15.0057 21.7501 15.0057H2.25091C1.00096 15.0057 0.000999958 16.005 0.000999958 17.2543L0 21.7514C0 22.9906 0.999958 24 2.24991 24L21.7491 23.999C22.989 23.999 23.999 22.9896 23.999 21.7504V19.5018L24 19.5028Z" fill="black"/>
<path d="M17.2503 0.774637V11.268C17.2503 11.6778 17.5803 12.0176 18.0003 12.0176C18.4102 12.0176 18.7502 11.6778 18.7502 11.268V0.774637C18.7502 0.354901 18.4102 0.0251093 18.0003 0.0251093C17.5803 0.0251093 17.2503 0.354901 17.2503 0.774637Z" fill="black"/>
<path d="M14.7804 5.04195L18.5302 1.29431H17.4603L21.2101 5.04195C21.5001 5.33176 21.9701 5.33176 22.2701 5.04195C22.5601 4.74214 22.5601 4.27243 22.2701 3.97262L18.5202 0.224983C18.2203 -0.0748277 17.7503 -0.0748277 17.4503 0.223984L13.7004 3.96263C13.4005 4.25245 13.4005 4.72215 13.7004 5.02196C13.9904 5.31178 14.4604 5.31178 14.7604 5.02196L14.7804 5.04195Z" fill="black"/>
</svg>
