<svg width="24" height="24" viewBox="0 0 24 24" fill="none" xmlns="http://www.w3.org/2000/svg">
<g clip-path="url(#clip0_221_16868)">
<path fill-rule="evenodd" clip-rule="evenodd" d="M12 2.25C12.7293 2.25 13.4288 2.53973 13.9445 3.05546C14.4603 3.57118 14.75 4.27065 14.75 5C14.75 5.72935 14.4603 6.42882 13.9445 6.94454C13.4288 7.46027 12.7293 7.75 12 7.75C11.2707 7.75 10.5712 7.46027 10.0555 6.94454C9.53973 6.42882 9.25 5.72935 9.25 5C9.25 4.27065 9.53973 3.57118 10.0555 3.05546C10.5712 2.53973 11.2707 2.25 12 2.25ZM13.25 5C13.25 4.66848 13.1183 4.35054 12.8839 4.11612C12.6495 3.8817 12.3315 3.75 12 3.75C11.6685 3.75 11.3505 3.8817 11.1161 4.11612C10.8817 4.35054 10.75 4.66848 10.75 5C10.75 5.33152 10.8817 5.64946 11.1161 5.88388C11.3505 6.1183 11.6685 6.25 12 6.25C12.3315 6.25 12.6495 6.1183 12.8839 5.88388C13.1183 5.64946 13.25 5.33152 13.25 5ZM12 9.25C12.7293 9.25 13.4288 9.53973 13.9445 10.0555C14.4603 10.5712 14.75 11.2707 14.75 12C14.75 12.7293 14.4603 13.4288 13.9445 13.9445C13.4288 14.4603 12.7293 14.75 12 14.75C11.2707 14.75 10.5712 14.4603 10.0555 13.9445C9.53973 13.4288 9.25 12.7293 9.25 12C9.25 11.2707 9.53973 10.5712 10.0555 10.0555C10.5712 9.53973 11.2707 9.25 12 9.25ZM13.25 12C13.25 11.6685 13.1183 11.3505 12.8839 11.1161C12.6495 10.8817 12.3315 10.75 12 10.75C11.6685 10.75 11.3505 10.8817 11.1161 11.1161C10.8817 11.3505 10.75 11.6685 10.75 12C10.75 12.3315 10.8817 12.6495 11.1161 12.8839C11.3505 13.1183 11.6685 13.25 12 13.25C12.3315 13.25 12.6495 13.1183 12.8839 12.8839C13.1183 12.6495 13.25 12.3315 13.25 12ZM14.75 19C14.75 18.2707 14.4603 17.5712 13.9445 17.0555C13.4288 16.5397 12.7293 16.25 12 16.25C11.2707 16.25 10.5712 16.5397 10.0555 17.0555C9.53973 17.5712 9.25 18.2707 9.25 19C9.25 19.7293 9.53973 20.4288 10.0555 20.9445C10.5712 21.4603 11.2707 21.75 12 21.75C12.7293 21.75 13.4288 21.4603 13.9445 20.9445C14.4603 20.4288 14.75 19.7293 14.75 19ZM12 17.75C12.1642 17.75 12.3267 17.7823 12.4784 17.8451C12.63 17.908 12.7678 18 12.8839 18.1161C13 18.2322 13.092 18.37 13.1548 18.5216C13.2177 18.6733 13.25 18.8358 13.25 19C13.25 19.1642 13.2177 19.3267 13.1548 19.4784C13.092 19.63 13 19.7678 12.8839 19.8839C12.7678 20 12.63 20.092 12.4784 20.1549C12.3267 20.2177 12.1642 20.25 12 20.25C11.6685 20.25 11.3505 20.1183 11.1161 19.8839C10.8817 19.6495 10.75 19.3315 10.75 19C10.75 18.6685 10.8817 18.3505 11.1161 18.1161C11.3505 17.8817 11.6685 17.75 12 17.75Z" fill="black"/>
</g>
<defs>
<clipPath id="clip0_221_16868">
<rect width="24" height="24" fill="white"/>
</clipPath>
</defs>
</svg>
