<svg width="24" height="24" viewBox="0 0 24 24" fill="none" xmlns="http://www.w3.org/2000/svg">
<g clip-path="url(#clip0_221_16360)">
<path d="M12.5899 11.2501C12.4074 11.2501 12.4378 11.2501 12.3009 11.2501C12.1031 11.2501 12.1989 11.2501 12 11.2501C11.8011 11.2501 11.8952 11.2502 11.7533 11.2502C11.5859 11.2499 11.5606 11.2499 11.4541 11.2502L11.25 11.2501H4C3.80109 11.2501 3.61032 11.3291 3.46967 11.4697C3.32902 11.6104 3.25 11.8012 3.25 12.0001C3.25 12.199 3.32902 12.3897 3.46967 12.5304C3.61032 12.6711 3.80109 12.7501 4 12.7501H11.25H11.4609C11.5977 12.7501 11.5898 12.7501 11.7539 12.7501C11.8789 12.7501 11.8011 12.7501 12 12.7501C12.1989 12.7501 12.2305 12.7501 12.3359 12.7501C12.4414 12.7501 12.5391 12.7501 12.6133 12.7501H12.75H20C20.1989 12.7501 20.3897 12.6711 20.5303 12.5304C20.671 12.3897 20.75 12.199 20.75 12.0001C20.75 11.8012 20.671 11.6104 20.5303 11.4697C20.3897 11.3291 20.1989 11.2501 20 11.2501H12.75L12.5899 11.2501Z" fill="black"/>
</g>
<defs>
<clipPath id="clip0_221_16360">
<rect width="24" height="24" fill="white"/>
</clipPath>
</defs>
</svg>
