<svg width="24" height="24" viewBox="0 0 24 24" fill="none" xmlns="http://www.w3.org/2000/svg">
<g clip-path="url(#clip0_221_17217)">
<path fill-rule="evenodd" clip-rule="evenodd" d="M12 21.75C11.2707 21.75 10.5712 21.4603 10.0555 20.9445C9.53973 20.4288 9.25 19.7293 9.25 19C9.25 18.2707 9.53973 17.5712 10.0555 17.0555C10.5712 16.5397 11.2707 16.25 12 16.25C12.7293 16.25 13.4288 16.5397 13.9445 17.0555C14.4603 17.5712 14.75 18.2707 14.75 19C14.75 19.7293 14.4603 20.4288 13.9445 20.9445C13.4288 21.4603 12.7293 21.75 12 21.75ZM10.75 19C10.75 19.3315 10.8817 19.6495 11.1161 19.8839C11.3505 20.1183 11.6685 20.25 12 20.25C12.3315 20.25 12.6495 20.1183 12.8839 19.8839C13.1183 19.6495 13.25 19.3315 13.25 19C13.25 18.6685 13.1183 18.3505 12.8839 18.1161C12.6495 17.8817 12.3315 17.75 12 17.75C11.6685 17.75 11.3505 17.8817 11.1161 18.1161C10.8817 18.3505 10.75 18.6685 10.75 19ZM12 14.75C11.2707 14.75 10.5712 14.4603 10.0555 13.9445C9.53973 13.4288 9.25 12.7293 9.25 12C9.25 11.2707 9.53973 10.5712 10.0555 10.0555C10.5712 9.53973 11.2707 9.25 12 9.25C12.7293 9.25 13.4288 9.53973 13.9445 10.0555C14.4603 10.5712 14.75 11.2707 14.75 12C14.75 12.7293 14.4603 13.4288 13.9445 13.9445C13.4288 14.4603 12.7293 14.75 12 14.75ZM10.75 12C10.75 12.3315 10.8817 12.6495 11.1161 12.8839C11.3505 13.1183 11.6685 13.25 12 13.25C12.3315 13.25 12.6495 13.1183 12.8839 12.8839C13.1183 12.6495 13.25 12.3315 13.25 12C13.25 11.6685 13.1183 11.3505 12.8839 11.1161C12.6495 10.8817 12.3315 10.75 12 10.75C11.6685 10.75 11.3505 10.8817 11.1161 11.1161C10.8817 11.3505 10.75 11.6685 10.75 12ZM9.25 5C9.25 5.72935 9.53973 6.42882 10.0555 6.94454C10.5712 7.46027 11.2707 7.75 12 7.75C12.7293 7.75 13.4288 7.46027 13.9445 6.94454C14.4603 6.42882 14.75 5.72935 14.75 5C14.75 4.27065 14.4603 3.57118 13.9445 3.05546C13.4288 2.53973 12.7293 2.25 12 2.25C11.2707 2.25 10.5712 2.53973 10.0555 3.05546C9.53973 3.57118 9.25 4.27065 9.25 5ZM12 6.25C11.8358 6.25 11.6733 6.21767 11.5216 6.15485C11.37 6.09203 11.2322 5.99996 11.1161 5.88388C11 5.76781 10.908 5.63001 10.8452 5.47835C10.7823 5.3267 10.75 5.16415 10.75 5C10.75 4.83585 10.7823 4.6733 10.8452 4.52165C10.908 4.36999 11 4.23219 11.1161 4.11612C11.2322 4.00004 11.37 3.90797 11.5216 3.84515C11.6733 3.78233 11.8358 3.75 12 3.75C12.3315 3.75 12.6495 3.8817 12.8839 4.11612C13.1183 4.35054 13.25 4.66848 13.25 5C13.25 5.33152 13.1183 5.64946 12.8839 5.88388C12.6495 6.1183 12.3315 6.25 12 6.25Z" fill="black"/>
</g>
<defs>
<clipPath id="clip0_221_17217">
<rect width="24" height="24" fill="white"/>
</clipPath>
</defs>
</svg>
