<svg width="24" height="24" viewBox="0 0 24 24" fill="none" xmlns="http://www.w3.org/2000/svg">
<g clip-path="url(#clip0_221_16446)">
<path d="M12.7068 11.5806H19.7768L17.8268 9.88356C17.6798 9.74956 17.5928 9.56257 17.5838 9.36357C17.5748 9.16457 17.6458 8.97056 17.7798 8.82356C17.9138 8.67656 18.1018 8.58958 18.2998 8.58058C18.4988 8.57158 18.6928 8.64257 18.8398 8.77657L22.2148 11.7766C22.2918 11.8466 22.3528 11.9326 22.3948 12.0276C22.4368 12.1226 22.4588 12.2256 22.4588 12.3306C22.4588 12.4346 22.4368 12.5376 22.3948 12.6326C22.3528 12.7276 22.2918 12.8136 22.2148 12.8836L18.8398 15.8836C18.6928 16.0146 18.4998 16.0826 18.3028 16.0726C18.1058 16.0626 17.9208 15.9746 17.7878 15.8296C17.6548 15.6836 17.5848 15.4916 17.5918 15.2946C17.5998 15.0976 17.6838 14.9116 17.8278 14.7766L19.7778 13.0806H12.7068V20.1516L14.4038 18.2016C14.5378 18.0546 14.7248 17.9666 14.9238 17.9586C15.1228 17.9496 15.3168 18.0196 15.4638 18.1546C15.6098 18.2886 15.6978 18.4756 15.7068 18.6746C15.7158 18.8736 15.6448 19.0676 15.5108 19.2146L12.5108 22.5896C12.4398 22.6656 12.3548 22.7276 12.2598 22.7696C12.1638 22.8116 12.0608 22.8326 11.9568 22.8326C11.8528 22.8326 11.7497 22.8116 11.6547 22.7696C11.5587 22.7276 11.4738 22.6656 11.4038 22.5896L8.40376 19.2146C8.27276 19.0666 8.20474 18.8736 8.21474 18.6766C8.22474 18.4806 8.31178 18.2956 8.45778 18.1616C8.60278 18.0286 8.79478 17.9586 8.99178 17.9666C9.18978 17.9736 9.37576 18.0586 9.51076 18.2026L11.2067 20.1526V13.0806H4.13776L6.08778 14.7766C6.23078 14.9116 6.31574 15.0976 6.32374 15.2946C6.33074 15.4916 6.26076 15.6836 6.12776 15.8296C5.99476 15.9746 5.80974 16.0626 5.61274 16.0726C5.41574 16.0826 5.22275 16.0146 5.07575 15.8836L1.70075 12.8836C1.62375 12.8136 1.56171 12.7276 1.51971 12.6326C1.47771 12.5376 1.45673 12.4346 1.45673 12.3306C1.45673 12.2256 1.47771 12.1226 1.51971 12.0276C1.56171 11.9326 1.62375 11.8466 1.70075 11.7766L5.07575 8.77657C5.22175 8.64257 5.41576 8.57158 5.61476 8.58058C5.81376 8.58958 6.00075 8.67656 6.13575 8.82356C6.26975 8.97056 6.33974 9.16457 6.33174 9.36357C6.32274 9.56257 6.23476 9.74956 6.08876 9.88356L4.13874 11.5806H11.2067V4.51157L9.51076 6.46156C9.37576 6.60556 9.18978 6.69055 8.99178 6.69755C8.79478 6.70555 8.60278 6.63457 8.45778 6.50157C8.31178 6.36857 8.22474 6.18355 8.21474 5.98655C8.20474 5.78955 8.27276 5.59656 8.40376 5.44956L11.4038 2.07456C11.4738 1.99755 11.5587 1.93656 11.6547 1.89456C11.7497 1.85256 11.8528 1.83057 11.9568 1.83057C12.0608 1.83057 12.1638 1.85256 12.2598 1.89456C12.3548 1.93656 12.4398 1.99755 12.5108 2.07456L15.5108 5.44956C15.6448 5.59656 15.7158 5.79057 15.7068 5.98957C15.6978 6.18857 15.6098 6.37556 15.4638 6.50956C15.3168 6.64356 15.1228 6.71458 14.9238 6.70558C14.7248 6.69658 14.5378 6.60957 14.4038 6.46257L12.7068 4.51255V11.5806Z" fill="black"/>
</g>
<defs>
<clipPath id="clip0_221_16446">
<rect width="24" height="24" fill="white"/>
</clipPath>
</defs>
</svg>
