<svg width="24" height="24" viewBox="0 0 24 24" fill="none" xmlns="http://www.w3.org/2000/svg">
<g clip-path="url(#clip0_221_16799)">
<path fill-rule="evenodd" clip-rule="evenodd" d="M6.25 14.7868C6.25 16.2088 7.746 17.2758 9.075 16.4918L13.795 13.7048C15.068 12.9528 15.068 11.0468 13.795 10.2948L9.075 7.50785C7.746 6.72385 6.25 7.79085 6.25 9.21285L6.25 14.7868ZM7.96 15.1948C7.846 15.1238 7.75 14.9848 7.75 14.7868L7.75 9.21285C7.74711 9.13265 7.7648 9.05306 7.80139 8.98164C7.83797 8.91022 7.89223 8.84936 7.959 8.80485C8.01086 8.76948 8.07198 8.75015 8.13475 8.74926C8.19752 8.74838 8.25916 8.76597 8.312 8.79985L13.032 11.5868C13.1012 11.6307 13.1577 11.6919 13.1959 11.7644C13.2342 11.8368 13.2528 11.918 13.25 11.9998C13.2528 12.0817 13.2342 12.1629 13.1959 12.2353C13.1577 12.3078 13.1012 12.369 13.032 12.4128L8.312 15.1998C8.25926 15.2335 8.19781 15.251 8.13525 15.2501C8.07269 15.2492 8.01176 15.23 7.96 15.1948Z" fill="black"/>
<path d="M16.4694 16.5301C16.6101 16.6707 16.8008 16.7498 16.9998 16.7498C17.1987 16.7498 17.3894 16.6707 17.5301 16.5301C17.6707 16.3894 17.7498 16.1987 17.7498 15.9998L17.7498 7.99976C17.7498 7.80084 17.6707 7.61008 17.5301 7.46943C17.3894 7.32877 17.1987 7.24976 16.9998 7.24976C16.8008 7.24976 16.6101 7.32877 16.4694 7.46943C16.3288 7.61008 16.2498 7.80084 16.2498 7.99976L16.2498 15.9998C16.2498 16.1987 16.3288 16.3894 16.4694 16.5301Z" fill="black"/>
</g>
<defs>
<clipPath id="clip0_221_16799">
<rect width="24" height="24" fill="white"/>
</clipPath>
</defs>
</svg>
