<svg width="24" height="24" viewBox="0 0 24 24" fill="none" xmlns="http://www.w3.org/2000/svg">
<g clip-path="url(#clip0_221_16159)">
<path d="M11.943 1.25H12.057C14.366 1.25 16.175 1.25 17.587 1.44C19.031 1.634 20.171 2.04 21.066 2.934C21.961 3.829 22.366 4.969 22.56 6.414C22.75 7.825 22.75 9.634 22.75 11.943V12.057C22.75 14.366 22.75 16.175 22.56 17.587C22.366 19.031 21.96 20.171 21.066 21.066C20.237 21.894 19.198 22.304 17.899 22.514C16.622 22.721 15.016 22.746 13.001 22.749C12.8021 22.7493 12.6112 22.6705 12.4704 22.53C12.3295 22.3896 12.2503 22.1989 12.25 22C12.2497 21.8011 12.3285 21.6102 12.469 21.4694C12.6094 21.3285 12.8001 21.2493 12.999 21.249C15.039 21.246 16.522 21.218 17.659 21.033C18.776 20.853 19.477 20.533 20.005 20.005C20.575 19.435 20.902 18.665 21.074 17.386C21.248 16.086 21.25 14.378 21.25 12C21.25 9.622 21.248 7.914 21.073 6.614C20.902 5.335 20.575 4.564 20.005 3.994C19.435 3.425 18.665 3.098 17.386 2.926C16.086 2.752 14.378 2.75 12 2.75C9.622 2.75 7.913 2.752 6.613 2.926C5.335 3.098 4.564 3.426 3.995 3.995C3.466 4.523 3.147 5.225 2.967 6.34C2.782 7.478 2.754 8.961 2.75 11.001C2.74987 11.1999 2.67072 11.3906 2.52998 11.5312C2.38923 11.6717 2.19841 11.7506 1.9995 11.7505C1.80059 11.7504 1.60988 11.6712 1.46932 11.5305C1.32876 11.3897 1.24987 11.1989 1.25 11C1.254 8.984 1.28 7.378 1.486 6.102C1.696 4.802 2.106 3.764 2.934 2.935C3.829 2.04 4.969 1.635 6.414 1.441C7.825 1.251 9.634 1.251 11.943 1.251" fill="black"/>
<path d="M12.5 7C12.5 6.80109 12.579 6.61032 12.7197 6.46967C12.8603 6.32902 13.0511 6.25 13.25 6.25H17C17.1989 6.25 17.3897 6.32902 17.5303 6.46967C17.671 6.61032 17.75 6.80109 17.75 7V10.75C17.75 10.9489 17.671 11.1397 17.5303 11.2803C17.3897 11.421 17.1989 11.5 17 11.5C16.8011 11.5 16.6103 11.421 16.4697 11.2803C16.329 11.1397 16.25 10.9489 16.25 10.75V8.81L12.53 12.53C12.4613 12.6037 12.3785 12.6628 12.2865 12.7038C12.1945 12.7448 12.0952 12.7668 11.9945 12.7686C11.8938 12.7704 11.7938 12.7518 11.7004 12.7141C11.607 12.6764 11.5222 12.6203 11.451 12.549C11.3797 12.4778 11.3236 12.393 11.2859 12.2996C11.2482 12.2062 11.2296 12.1062 11.2314 12.0055C11.2332 11.9048 11.2552 11.8055 11.2962 11.7135C11.3372 11.6215 11.3963 11.5387 11.47 11.47L15.19 7.75H13.25C13.0511 7.75 12.8603 7.67098 12.7197 7.53033C12.579 7.38968 12.5 7.19891 12.5 7Z" fill="black"/>
<path fill-rule="evenodd" clip-rule="evenodd" d="M5.948 13.25C5.05 13.25 4.3 13.25 3.706 13.33C3.078 13.414 2.511 13.6 2.056 14.056C1.6 14.511 1.414 15.078 1.33 15.706C1.25 16.3 1.25 17.049 1.25 17.948V18.052C1.25 18.951 1.25 19.7 1.33 20.294C1.414 20.922 1.6 21.489 2.055 21.944C2.511 22.4 3.078 22.586 3.705 22.67C4.3 22.75 5.05 22.75 5.948 22.75H6.052C6.95 22.75 7.7 22.75 8.294 22.67C8.922 22.586 9.489 22.4 9.944 21.944C10.4 21.489 10.586 20.922 10.67 20.294C10.75 19.7 10.75 18.951 10.75 18.052V17.948C10.75 17.049 10.75 16.3 10.67 15.706C10.586 15.078 10.4 14.511 9.945 14.056C9.489 13.6 8.922 13.414 8.295 13.33C7.7 13.25 6.95 13.25 6.052 13.25H5.948ZM3.116 15.116C3.246 14.986 3.444 14.879 3.906 14.816C4.388 14.752 5.036 14.75 6 14.75C6.964 14.75 7.612 14.752 8.095 14.816C8.556 14.879 8.754 14.986 8.884 15.116C9.014 15.246 9.121 15.444 9.184 15.906C9.248 16.388 9.25 17.036 9.25 18C9.25 18.964 9.248 19.612 9.183 20.095C9.121 20.556 9.014 20.754 8.883 20.884C8.752 21.014 8.556 21.121 8.095 21.184C7.612 21.248 6.964 21.25 6 21.25C5.036 21.25 4.388 21.248 3.905 21.183C3.444 21.121 3.246 21.014 3.116 20.883C2.986 20.752 2.879 20.556 2.816 20.095C2.752 19.612 2.75 18.964 2.75 18C2.75 17.036 2.752 16.388 2.817 15.905C2.879 15.444 2.986 15.246 3.117 15.116" fill="black"/>
</g>
<defs>
<clipPath id="clip0_221_16159">
<rect width="24" height="24" fill="white"/>
</clipPath>
</defs>
</svg>
