<svg width="24" height="24" viewBox="0 0 24 24" fill="none" xmlns="http://www.w3.org/2000/svg">
<path fill-rule="evenodd" clip-rule="evenodd" d="M3 1.25C3.19891 1.25 3.38968 1.32902 3.53033 1.46967C3.67098 1.61032 3.75 1.80109 3.75 2V22C3.75 22.1989 3.67098 22.3897 3.53033 22.5303C3.38968 22.671 3.19891 22.75 3 22.75C2.80109 22.75 2.61032 22.671 2.46967 22.5303C2.32902 22.3897 2.25 22.1989 2.25 22V2C2.25 1.80109 2.32902 1.61032 2.46967 1.46967C2.61032 1.32902 2.80109 1.25 3 1.25ZM21 1.25C21.1989 1.25 21.3897 1.32902 21.5303 1.46967C21.671 1.61032 21.75 1.80109 21.75 2V22C21.75 22.1989 21.671 22.3897 21.5303 22.5303C21.3897 22.671 21.1989 22.75 21 22.75C20.8011 22.75 20.6103 22.671 20.4697 22.5303C20.329 22.3897 20.25 22.1989 20.25 22V2C20.25 1.80109 20.329 1.61032 20.4697 1.46967C20.6103 1.32902 20.8011 1.25 21 1.25ZM11.948 3.25H12.052C12.951 3.25 13.7 3.25 14.294 3.33C14.922 3.414 15.489 3.6 15.944 4.055C16.4 4.511 16.586 5.078 16.67 5.705C16.75 6.3 16.75 7.05 16.75 7.948V16.052C16.75 16.951 16.75 17.7 16.67 18.294C16.586 18.922 16.4 19.489 15.944 19.944C15.489 20.4 14.922 20.586 14.294 20.67C13.7 20.75 12.95 20.75 12.052 20.75H11.948C11.049 20.75 10.3 20.75 9.706 20.67C9.078 20.586 8.511 20.4 8.056 19.944C7.6 19.489 7.414 18.922 7.33 18.294C7.25 17.7 7.25 16.951 7.25 16.052V7.948C7.25 7.05 7.25 6.3 7.33 5.706C7.414 5.078 7.6 4.511 8.055 4.056C8.511 3.6 9.078 3.414 9.705 3.33C10.3 3.25 11.05 3.25 11.948 3.25ZM9.905 4.817C9.444 4.879 9.246 4.986 9.116 5.117C8.986 5.247 8.879 5.444 8.816 5.905C8.753 6.388 8.75 7.036 8.75 8V16C8.75 16.964 8.752 17.612 8.817 18.095C8.879 18.556 8.986 18.754 9.117 18.884C9.247 19.014 9.444 19.121 9.905 19.184C10.388 19.248 11.036 19.25 12 19.25C12.964 19.25 13.612 19.248 14.095 19.183C14.556 19.121 14.754 19.014 14.884 18.883C15.014 18.753 15.121 18.556 15.184 18.095C15.248 17.612 15.25 16.964 15.25 16V8C15.25 7.036 15.248 6.388 15.184 5.905C15.121 5.444 15.014 5.246 14.884 5.116C14.754 4.986 14.556 4.879 14.094 4.816C13.612 4.752 12.964 4.75 12 4.75C11.036 4.75 10.388 4.752 9.905 4.817Z" fill="black"/>
</svg>
