<svg width="24" height="24" viewBox="0 0 24 24" fill="none" xmlns="http://www.w3.org/2000/svg">
<g clip-path="url(#clip0_221_16355)">
<path d="M12.75 4C12.75 3.80109 12.671 3.61032 12.5303 3.46967C12.3897 3.32902 12.1989 3.25 12 3.25C11.8011 3.25 11.6103 3.32902 11.4697 3.46967C11.329 3.61032 11.25 3.80109 11.25 4V11.25H4C3.80109 11.25 3.61032 11.329 3.46967 11.4697C3.32902 11.6103 3.25 11.8011 3.25 12C3.25 12.1989 3.32902 12.3897 3.46967 12.5303C3.61032 12.671 3.80109 12.75 4 12.75H11.25V20C11.25 20.1989 11.329 20.3897 11.4697 20.5303C11.6103 20.671 11.8011 20.75 12 20.75C12.1989 20.75 12.3897 20.671 12.5303 20.5303C12.671 20.3897 12.75 20.1989 12.75 20V12.75H20C20.1989 12.75 20.3897 12.671 20.5303 12.5303C20.671 12.3897 20.75 12.1989 20.75 12C20.75 11.8011 20.671 11.6103 20.5303 11.4697C20.3897 11.329 20.1989 11.25 20 11.25H12.75V4Z" fill="black"/>
</g>
<defs>
<clipPath id="clip0_221_16355">
<rect width="24" height="24" fill="white"/>
</clipPath>
</defs>
</svg>
