<svg width="24" height="24" viewBox="0 0 24 24" fill="none" xmlns="http://www.w3.org/2000/svg">
<g clip-path="url(#clip0_221_16528)">
<path d="M12.75 2C12.75 1.80109 12.671 1.61032 12.5303 1.46967C12.3897 1.32902 12.1989 1.25 12 1.25C11.8011 1.25 11.6103 1.32902 11.4697 1.46967C11.329 1.61032 11.25 1.80109 11.25 2V6C11.25 6.19891 11.329 6.38968 11.4697 6.53033C11.6103 6.67098 11.8011 6.75 12 6.75C12.1989 6.75 12.3897 6.67098 12.5303 6.53033C12.671 6.38968 12.75 6.19891 12.75 6V2Z" fill="black"/>
<path d="M8.792 4.39697C8.88274 4.35863 8.96505 4.30278 9.03421 4.23263C9.10337 4.16248 9.15804 4.07939 9.19509 3.98811C9.23214 3.89683 9.25085 3.79915 9.25014 3.70064C9.24944 3.60213 9.22935 3.50472 9.191 3.41397C9.15265 3.32323 9.09681 3.24093 9.02666 3.17177C8.9565 3.10261 8.87342 3.04794 8.78214 3.01089C8.69086 2.97384 8.59317 2.95513 8.49466 2.95583C8.39615 2.95653 8.29874 2.97663 8.208 3.01497C6.44139 3.76077 4.93392 5.01094 3.87418 6.60908C2.81444 8.20723 2.24949 10.0824 2.25 12C2.25 17.385 6.615 21.75 12 21.75C17.385 21.75 21.75 17.385 21.75 12C21.7505 10.0824 21.1856 8.20723 20.1258 6.60908C19.0661 5.01094 17.5586 3.76077 15.792 3.01497C15.7013 2.97663 15.6038 2.95653 15.5053 2.95583C15.4068 2.95513 15.3091 2.97384 15.2179 3.01089C15.1266 3.04794 15.0435 3.10261 14.9733 3.17177C14.9032 3.24093 14.8473 3.32323 14.809 3.41397C14.7707 3.50472 14.7506 3.60213 14.7499 3.70064C14.7492 3.79915 14.7679 3.89683 14.8049 3.98811C14.842 4.07939 14.8966 4.16248 14.9658 4.23263C15.035 4.30278 15.1173 4.35863 15.208 4.39697C16.9605 5.13888 18.4027 6.46364 19.2905 8.14694C20.1783 9.83024 20.4571 11.7686 20.0796 13.6339C19.7022 15.4991 18.6917 17.1766 17.2193 18.3823C15.7469 19.588 13.9031 20.2478 12 20.25C10.0951 20.2512 8.24845 19.5932 6.77354 18.3877C5.29863 17.1821 4.28635 15.5033 3.90853 13.6363C3.53072 11.7692 3.81064 9.82892 4.7008 8.14479C5.59095 6.46066 7.03648 5.13646 8.792 4.39697Z" fill="black"/>
</g>
<defs>
<clipPath id="clip0_221_16528">
<rect width="24" height="24" fill="white"/>
</clipPath>
</defs>
</svg>
