<svg width="24" height="24" viewBox="0 0 24 24" fill="none" xmlns="http://www.w3.org/2000/svg">
<g clip-path="url(#clip0_221_16804)">
<path fill-rule="evenodd" clip-rule="evenodd" d="M21.14 1.80398C22.106 2.46398 22.75 3.64498 22.75 5.03298V18.967C22.75 20.355 22.106 21.535 21.14 22.197C20.16 22.866 18.865 22.983 17.722 22.245L6.933 15.277C5.783 14.535 5.25 13.235 5.25 12C5.25 10.765 5.783 9.46497 6.933 8.72297L17.723 1.75498C18.865 1.01698 20.161 1.13498 21.14 1.80398ZM20.291 3.04198C19.769 2.68398 19.129 2.63198 18.535 3.01598L7.747 9.98298C7.11 10.393 6.75 11.163 6.75 12C6.75 12.836 7.11 13.606 7.747 14.017L18.536 20.985C19.13 21.368 19.77 21.315 20.292 20.958C20.827 20.593 21.25 19.888 21.25 18.968V5.03198C21.25 4.11098 20.827 3.40698 20.292 3.04098M2 4.24998C2.19891 4.24998 2.38968 4.32899 2.53033 4.46965C2.67098 4.6103 2.75 4.80106 2.75 4.99998V19C2.75 19.1989 2.67098 19.3897 2.53033 19.5303C2.38968 19.671 2.19891 19.75 2 19.75C1.80109 19.75 1.61032 19.671 1.46967 19.5303C1.32902 19.3897 1.25 19.1989 1.25 19V4.99998C1.25 4.80106 1.32902 4.6103 1.46967 4.46965C1.61032 4.32899 1.80109 4.24998 2 4.24998Z" fill="black"/>
</g>
<defs>
<clipPath id="clip0_221_16804">
<rect width="24" height="24" fill="white"/>
</clipPath>
</defs>
</svg>
