<svg width="24" height="24" viewBox="0 0 24 24" fill="none" xmlns="http://www.w3.org/2000/svg">
<path d="M20.75 21C20.75 21.1989 20.671 21.3897 20.5303 21.5303C20.3897 21.671 20.1989 21.75 20 21.75L4 21.75C3.80109 21.75 3.61032 21.671 3.46967 21.5303C3.32902 21.3897 3.25 21.1989 3.25 21C3.25 20.8011 3.32902 20.6103 3.46967 20.4697C3.61032 20.329 3.80109 20.25 4 20.25L20 20.25C20.1989 20.25 20.3897 20.329 20.5303 20.4697C20.671 20.6103 20.75 20.8011 20.75 21Z" fill="black"/>
<path d="M11.446 17.0061C11.5162 17.083 11.6018 17.1443 11.697 17.1863C11.7923 17.2283 11.8953 17.25 11.9995 17.25C12.1036 17.25 12.2066 17.2283 12.3019 17.1863C12.3972 17.1443 12.4827 17.083 12.553 17.0061L16.553 12.6311C16.6766 12.4829 16.7383 12.2927 16.7253 12.1001C16.7122 11.9075 16.6255 11.7274 16.483 11.5972C16.3405 11.467 16.1534 11.3967 15.9604 11.4009C15.7674 11.4052 15.5835 11.4837 15.447 11.6201L12.751 14.5701L12.751 3.5001C12.751 3.30119 12.672 3.11042 12.5313 2.96977C12.3907 2.82912 12.1999 2.7501 12.001 2.7501C11.8021 2.7501 11.6113 2.82912 11.4706 2.96977C11.33 3.11042 11.251 3.30119 11.251 3.5001L11.251 14.5681L8.55397 11.6181C8.41964 11.4713 8.2325 11.3839 8.03371 11.3751C7.83492 11.3663 7.64077 11.4368 7.49397 11.5711C7.34718 11.7054 7.25976 11.8926 7.25094 12.0914C7.24213 12.2902 7.31264 12.4843 7.44697 12.6311L11.446 17.0061Z" fill="black"/>
</svg>
