<svg width="24" height="24" viewBox="0 0 24 24" fill="none" xmlns="http://www.w3.org/2000/svg">
<g clip-path="url(#clip0_221_16794)">
<path fill-rule="evenodd" clip-rule="evenodd" d="M17.7498 9.21291C17.7498 7.79091 16.2538 6.72391 14.9248 7.50791L10.2048 10.2949C8.93176 11.0469 8.93176 12.9529 10.2048 13.7049L14.9248 16.4919C16.2538 17.2759 17.7498 16.2089 17.7498 14.7869V9.21291ZM16.0398 8.80491C16.1538 8.87591 16.2498 9.01491 16.2498 9.21291V14.7869C16.2526 14.8671 16.235 14.9467 16.1984 15.0181C16.1618 15.0895 16.1075 15.1504 16.0408 15.1949C15.9889 15.2303 15.9278 15.2496 15.865 15.2505C15.8022 15.2514 15.7406 15.2338 15.6878 15.1999L10.9678 12.4129C10.8986 12.369 10.8421 12.3078 10.8038 12.2354C10.7656 12.163 10.747 12.0818 10.7498 11.9999C10.747 11.918 10.7656 11.8369 10.8038 11.7644C10.8421 11.692 10.8986 11.6308 10.9678 11.5869L15.6878 8.79991C15.7405 8.76624 15.8019 8.74877 15.8645 8.74965C15.9271 8.75054 15.988 8.76975 16.0398 8.80491Z" fill="black"/>
<path d="M7.53033 7.46967C7.38968 7.32902 7.19891 7.25 7 7.25C6.80109 7.25 6.61032 7.32902 6.46967 7.46967C6.32902 7.61032 6.25 7.80109 6.25 8V16C6.25 16.1989 6.32902 16.3897 6.46967 16.5303C6.61032 16.671 6.80109 16.75 7 16.75C7.19891 16.75 7.38968 16.671 7.53033 16.5303C7.67098 16.3897 7.75 16.1989 7.75 16V8C7.75 7.80109 7.67098 7.61032 7.53033 7.46967Z" fill="black"/>
</g>
<defs>
<clipPath id="clip0_221_16794">
<rect width="24" height="24" fill="white"/>
</clipPath>
</defs>
</svg>
