<svg width="24" height="24" viewBox="0 0 24 24" fill="none" xmlns="http://www.w3.org/2000/svg">
<path d="M3.25 3C3.25 2.80109 3.32902 2.61032 3.46967 2.46967C3.61032 2.32902 3.80109 2.25 4 2.25H20C20.1989 2.25 20.3897 2.32902 20.5303 2.46967C20.671 2.61032 20.75 2.80109 20.75 3C20.75 3.19891 20.671 3.38968 20.5303 3.53033C20.3897 3.67098 20.1989 3.75 20 3.75H4C3.80109 3.75 3.61032 3.67098 3.46967 3.53033C3.32902 3.38968 3.25 3.19891 3.25 3Z" fill="black"/>
<path d="M12.554 6.9939C12.4838 6.91705 12.3982 6.85567 12.303 6.81368C12.2077 6.77169 12.1047 6.75 12.0005 6.75C11.8964 6.75 11.7934 6.77169 11.6981 6.81368C11.6028 6.85567 11.5173 6.91705 11.447 6.9939L7.44702 11.3689C7.3234 11.5171 7.26169 11.7073 7.27472 11.8999C7.28775 12.0925 7.37453 12.2726 7.51699 12.4028C7.65945 12.533 7.84664 12.6033 8.0396 12.5991C8.23257 12.5948 8.41646 12.5163 8.55303 12.3799L11.249 9.4299V20.4999C11.249 20.6988 11.328 20.8896 11.4687 21.0302C11.6093 21.1709 11.8001 21.2499 11.999 21.2499C12.1979 21.2499 12.3887 21.1709 12.5294 21.0302C12.67 20.8896 12.749 20.6988 12.749 20.4999V9.4319L15.446 12.3819C15.5804 12.5287 15.7675 12.6161 15.9663 12.6249C16.1651 12.6337 16.3592 12.5632 16.506 12.4289C16.6528 12.2946 16.7402 12.1074 16.7491 11.9086C16.7579 11.7098 16.6874 11.5157 16.553 11.3689L12.554 6.9939Z" fill="black"/>
</svg>
