<svg width="24" height="24" viewBox="0 0 24 24" fill="none" xmlns="http://www.w3.org/2000/svg">
<path d="M21 3.25C21.1989 3.25 21.3897 3.32902 21.5303 3.46967C21.671 3.61032 21.75 3.80109 21.75 4L21.75 20C21.75 20.1989 21.671 20.3897 21.5303 20.5303C21.3897 20.671 21.1989 20.75 21 20.75C20.8011 20.75 20.6103 20.671 20.4697 20.5303C20.329 20.3897 20.25 20.1989 20.25 20L20.25 4C20.25 3.80109 20.329 3.61032 20.4697 3.46967C20.6103 3.32902 20.8011 3.25 21 3.25Z" fill="black"/>
<path d="M17.006 12.554C17.0828 12.4837 17.1442 12.3982 17.1862 12.3029C17.2282 12.2076 17.2499 12.1046 17.2499 12.0005C17.2499 11.8963 17.2282 11.7933 17.1862 11.698C17.1442 11.6027 17.0828 11.5172 17.006 11.447L12.631 7.44696C12.4827 7.32334 12.2926 7.26163 12.1 7.27466C11.9074 7.28769 11.7273 7.37447 11.5971 7.51693C11.4668 7.65939 11.3965 7.84658 11.4008 8.03954C11.4051 8.23251 11.4836 8.4164 11.62 8.55296L14.57 11.249L3.49998 11.249C3.30107 11.249 3.1103 11.328 2.96965 11.4686C2.829 11.6093 2.74998 11.8001 2.74998 11.999C2.74998 12.1979 2.829 12.3886 2.96965 12.5293C3.1103 12.6699 3.30107 12.749 3.49998 12.749L14.568 12.749L11.618 15.446C11.4712 15.5803 11.3838 15.7674 11.3749 15.9662C11.3661 16.165 11.4366 16.3592 11.571 16.506C11.7053 16.6528 11.8925 16.7402 12.0912 16.749C12.29 16.7578 12.4842 16.6873 12.631 16.553L17.006 12.554Z" fill="black"/>
</svg>
