<svg width="24" height="24" viewBox="0 0 24 24" fill="none" xmlns="http://www.w3.org/2000/svg">
<g clip-path="url(#clip0_221_16577)">
<path fill-rule="evenodd" clip-rule="evenodd" d="M4.24998 8.6751C3.58594 8.53965 2.971 8.22683 2.47051 7.76987C1.97002 7.31292 1.60269 6.72891 1.40754 6.0799C1.21238 5.43089 1.19671 4.74114 1.36218 4.08393C1.52765 3.42673 1.86808 2.82664 2.3473 2.34742C2.82652 1.86821 3.42661 1.52777 4.08381 1.3623C4.74101 1.19683 5.43077 1.21251 6.07978 1.40766C6.72879 1.60281 7.3128 1.97015 7.76975 2.47063C8.22671 2.97112 8.53953 3.58606 8.67498 4.2501H15.325C15.4604 3.58606 15.7733 2.97112 16.2302 2.47063C16.6872 1.97015 17.2712 1.60281 17.9202 1.40766C18.5692 1.21251 19.2589 1.19683 19.9161 1.3623C20.5733 1.52777 21.1734 1.86821 21.6527 2.34742C22.1319 2.82664 22.4723 3.42673 22.6378 4.08393C22.8032 4.74114 22.7876 5.43089 22.5924 6.0799C22.3973 6.72891 22.0299 7.31292 21.5294 7.76987C21.029 8.22683 20.414 8.53965 19.75 8.6751V15.3251C20.414 15.4605 21.029 15.7734 21.5294 16.2303C22.0299 16.6873 22.3973 17.2713 22.5924 17.9203C22.7876 18.5693 22.8032 19.2591 22.6378 19.9163C22.4723 20.5735 22.1319 21.1736 21.6527 21.6528C21.1734 22.132 20.5733 22.4724 19.9161 22.6379C19.2589 22.8034 18.5692 22.7877 17.9202 22.5925C17.2712 22.3974 16.6872 22.0301 16.2302 21.5296C15.7733 21.0291 15.4604 20.4141 15.325 19.7501H8.67498C8.53953 20.4141 8.22671 21.0291 7.76975 21.5296C7.3128 22.0301 6.72879 22.3974 6.07978 22.5925C5.43077 22.7877 4.74101 22.8034 4.08381 22.6379C3.42661 22.4724 2.82652 22.132 2.3473 21.6528C1.86808 21.1736 1.52765 20.5735 1.36218 19.9163C1.19671 19.2591 1.21238 18.5693 1.40754 17.9203C1.60269 17.2713 1.97002 16.6873 2.47051 16.2303C2.971 15.7734 3.58594 15.4605 4.24998 15.3251V8.6751ZM2.74998 5.0001C2.74998 4.70463 2.80818 4.41204 2.92125 4.13906C3.03432 3.86608 3.20006 3.61804 3.40899 3.40911C3.61792 3.20018 3.86596 3.03444 4.13894 2.92137C4.41192 2.8083 4.7045 2.7501 4.99998 2.7501C5.29545 2.7501 5.58803 2.8083 5.86102 2.92137C6.134 3.03444 6.38204 3.20018 6.59097 3.40911C6.7999 3.61804 6.96563 3.86608 7.07871 4.13906C7.19178 4.41204 7.24998 4.70463 7.24998 5.0001C7.24998 5.59684 7.01293 6.16913 6.59097 6.59109C6.16901 7.01305 5.59671 7.2501 4.99998 7.2501C4.40324 7.2501 3.83094 7.01305 3.40899 6.59109C2.98703 6.16913 2.74998 5.59684 2.74998 5.0001ZM5.74998 15.3251V8.6751C6.47065 8.52812 7.13218 8.17247 7.65226 7.65239C8.17234 7.13231 8.528 6.47077 8.67498 5.7501H15.325C15.4732 6.47023 15.8292 7.13111 16.3491 7.65099C16.869 8.17086 17.5299 8.52692 18.25 8.6751V15.3251C17.5299 15.4733 16.869 15.8293 16.3491 16.3492C15.8292 16.8691 15.4732 17.53 15.325 18.2501H8.67498C8.52679 17.53 8.17074 16.8691 7.65086 16.3492C7.13099 15.8293 6.4701 15.4733 5.74998 15.3251ZM4.99998 16.7501C4.40324 16.7501 3.83094 16.9872 3.40899 17.4091C2.98703 17.8311 2.74998 18.4034 2.74998 19.0001C2.74998 19.5968 2.98703 20.1691 3.40899 20.5911C3.83094 21.013 4.40324 21.2501 4.99998 21.2501C5.59671 21.2501 6.16901 21.013 6.59097 20.5911C7.01293 20.1691 7.24998 19.5968 7.24998 19.0001C7.24998 18.4034 7.01293 17.8311 6.59097 17.4091C6.16901 16.9872 5.59671 16.7501 4.99998 16.7501ZM21.25 5.0001C21.25 5.59684 21.0129 6.16913 20.591 6.59109C20.169 7.01305 19.5967 7.2501 19 7.2501C18.4032 7.2501 17.8309 7.01305 17.409 6.59109C16.987 6.16913 16.75 5.59684 16.75 5.0001C16.75 4.40336 16.987 3.83107 17.409 3.40911C17.8309 2.98715 18.4032 2.7501 19 2.7501C19.5967 2.7501 20.169 2.98715 20.591 3.40911C21.0129 3.83107 21.25 4.40336 21.25 5.0001ZM16.75 19.0001C16.75 18.4034 16.987 17.8311 17.409 17.4091C17.8309 16.9872 18.4032 16.7501 19 16.7501C19.5967 16.7501 20.169 16.9872 20.591 17.4091C21.0129 17.8311 21.25 18.4034 21.25 19.0001C21.25 19.5968 21.0129 20.1691 20.591 20.5911C20.169 21.013 19.5967 21.2501 19 21.2501C18.4032 21.2501 17.8309 21.013 17.409 20.5911C16.987 20.1691 16.75 19.5968 16.75 19.0001Z" fill="black"/>
</g>
<defs>
<clipPath id="clip0_221_16577">
<rect width="24" height="24" fill="white"/>
</clipPath>
</defs>
</svg>
