<svg width="24" height="24" viewBox="0 0 24 24" fill="none" xmlns="http://www.w3.org/2000/svg">
<g clip-path="url(#clip0_221_16461)">
<path d="M12 1.25H11.943C9.634 1.25 7.825 1.25 6.413 1.44C4.969 1.634 3.829 2.04 2.934 2.934C2.039 3.829 1.634 4.969 1.44 6.414C1.25 7.825 1.25 9.634 1.25 11.943V12.057C1.25 14.366 1.25 16.175 1.44 17.587C1.634 19.031 2.04 20.171 2.934 21.066C3.829 21.961 4.969 22.366 6.414 22.56C7.825 22.75 9.634 22.75 11.943 22.75H12.057C14.366 22.75 16.175 22.75 17.587 22.56C19.031 22.366 20.171 21.96 21.066 21.066C21.961 20.171 22.366 19.031 22.56 17.586C22.75 16.175 22.75 14.366 22.75 12.057V12C22.75 11.8011 22.671 11.6103 22.5303 11.4697C22.3897 11.329 22.1989 11.25 22 11.25C21.8011 11.25 21.6103 11.329 21.4697 11.4697C21.329 11.6103 21.25 11.8011 21.25 12C21.25 14.378 21.248 16.086 21.074 17.386C20.902 18.665 20.574 19.436 20.005 20.006C19.435 20.575 18.665 20.902 17.386 21.074C16.086 21.248 14.378 21.25 12 21.25C9.622 21.25 7.914 21.248 6.614 21.074C5.335 20.902 4.564 20.574 3.994 20.005C3.425 19.435 3.098 18.665 2.926 17.386C2.752 16.086 2.75 14.378 2.75 12C2.75 9.622 2.752 7.914 2.926 6.614C3.098 5.335 3.426 4.564 3.995 3.994C4.565 3.425 5.335 3.098 6.614 2.926C7.914 2.752 9.622 2.75 12 2.75C12.1989 2.75 12.3897 2.67098 12.5303 2.53033C12.671 2.38968 12.75 2.19891 12.75 2C12.75 1.80109 12.671 1.61032 12.5303 1.46967C12.3897 1.32902 12.1989 1.25 12 1.25Z" fill="black"/>
<path d="M12.47 10.47C12.3963 10.5387 12.3372 10.6215 12.2963 10.7135C12.2553 10.8055 12.2332 10.9048 12.2314 11.0055C12.2297 11.1062 12.2482 11.2062 12.2859 11.2996C12.3236 11.393 12.3798 11.4778 12.451 11.549C12.5222 11.6203 12.607 11.6764 12.7004 11.7141C12.7938 11.7518 12.8939 11.7704 12.9946 11.7686C13.0953 11.7668 13.1946 11.7448 13.2866 11.7038C13.3786 11.6628 13.4614 11.6037 13.53 11.53L21.25 3.81V7.344C21.25 7.54291 21.329 7.73368 21.4697 7.87433C21.6104 8.01498 21.8011 8.094 22 8.094C22.1989 8.094 22.3897 8.01498 22.5304 7.87433C22.671 7.73368 22.75 7.54291 22.75 7.344V2C22.75 1.80109 22.671 1.61032 22.5304 1.46967C22.3897 1.32902 22.1989 1.25 22 1.25H16.656C16.4571 1.25 16.2664 1.32902 16.1257 1.46967C15.985 1.61032 15.906 1.80109 15.906 2C15.906 2.19891 15.985 2.38968 16.1257 2.53033C16.2664 2.67098 16.4571 2.75 16.656 2.75H20.189L12.47 10.47Z" fill="black"/>
</g>
<defs>
<clipPath id="clip0_221_16461">
<rect width="24" height="24" fill="white"/>
</clipPath>
</defs>
</svg>
