<svg width="24" height="24" viewBox="0 0 24 24" fill="none" xmlns="http://www.w3.org/2000/svg">
<path fill-rule="evenodd" clip-rule="evenodd" d="M7.948 7.25H16.052C16.951 7.25 17.7 7.25 18.294 7.33C18.922 7.414 19.489 7.6 19.944 8.055C20.4 8.511 20.586 9.078 20.67 9.705C20.75 10.3 20.75 11.05 20.75 11.948V12.052C20.75 12.951 20.75 13.7 20.67 14.294C20.586 14.922 20.4 15.489 19.944 15.944C19.489 16.4 18.922 16.586 18.294 16.67C17.7 16.75 16.951 16.75 16.052 16.75H7.948C7.05 16.75 6.3 16.75 5.706 16.67C5.078 16.586 4.511 16.4 4.056 15.944C3.6 15.489 3.414 14.922 3.33 14.294C3.25 13.7 3.25 12.95 3.25 12.052V11.948C3.25 11.049 3.25 10.3 3.33 9.706C3.414 9.078 3.6 8.511 4.055 8.056C4.511 7.6 5.078 7.414 5.705 7.33C6.3 7.25 7.05 7.25 7.948 7.25ZM5.905 8.817C5.444 8.879 5.246 8.986 5.116 9.117C4.986 9.247 4.879 9.444 4.816 9.905C4.752 10.388 4.75 11.036 4.75 12C4.75 12.964 4.752 13.612 4.817 14.095C4.879 14.556 4.986 14.754 5.117 14.884C5.247 15.014 5.444 15.121 5.905 15.184C6.388 15.248 7.036 15.25 8 15.25H16C16.964 15.25 17.612 15.248 18.095 15.184C18.556 15.121 18.754 15.014 18.884 14.884C19.014 14.754 19.121 14.556 19.184 14.094C19.248 13.612 19.25 12.964 19.25 12C19.25 11.036 19.248 10.388 19.183 9.905C19.121 9.444 19.014 9.246 18.883 9.116C18.753 8.986 18.556 8.879 18.095 8.816C17.612 8.752 16.964 8.75 16 8.75H8C7.036 8.75 6.388 8.752 5.905 8.817ZM1.25 21C1.25 20.8011 1.32902 20.6103 1.46967 20.4697C1.61032 20.329 1.80109 20.25 2 20.25H22C22.1989 20.25 22.3897 20.329 22.5303 20.4697C22.671 20.6103 22.75 20.8011 22.75 21C22.75 21.1989 22.671 21.3897 22.5303 21.5303C22.3897 21.671 22.1989 21.75 22 21.75H2C1.80109 21.75 1.61032 21.671 1.46967 21.5303C1.32902 21.3897 1.25 21.1989 1.25 21Z" fill="black"/>
</svg>
