<svg width="24" height="24" viewBox="0 0 24 24" fill="none" xmlns="http://www.w3.org/2000/svg">
<g clip-path="url(#clip0_221_16842)">
<path d="M12.7499 5.25C12.7499 5.05109 12.6708 4.86032 12.5302 4.71967C12.3895 4.57902 12.1988 4.5 11.9999 4.5C11.8009 4.5 11.6102 4.57902 11.4695 4.71967C11.3289 4.86032 11.2499 5.05109 11.2499 5.25V11.2502L5.25 11.2459C5.05109 11.2459 4.86032 11.325 4.71967 11.4656C4.57902 11.6063 4.5 11.797 4.5 11.9959C4.5 12.1948 4.57902 12.3856 4.71967 12.5263C4.86032 12.6669 5.05109 12.7459 5.25 12.7459L11.2499 12.7502V18.75C11.2499 18.9489 11.3289 19.1397 11.4695 19.2803C11.6102 19.421 11.8009 19.5 11.9999 19.5C12.1988 19.5 12.3895 19.421 12.5302 19.2803C12.6708 19.1397 12.7499 18.9489 12.7499 18.75V12.7502H18.75C18.9489 12.7502 19.1397 12.6712 19.2803 12.5305C19.421 12.3899 19.5 12.1991 19.5 12.0002C19.5 11.8013 19.421 11.6105 19.2803 11.4699C19.1397 11.3292 18.9489 11.2502 18.75 11.2502H12.7499V5.25Z" fill="black"/>
</g>
<defs>
<clipPath id="clip0_221_16842">
<rect width="24" height="24" fill="white"/>
</clipPath>
</defs>
</svg>
