<svg width="24" height="24" viewBox="0 0 24 24" fill="none" xmlns="http://www.w3.org/2000/svg">
<path d="M3 20.75C2.80109 20.75 2.61032 20.671 2.46967 20.5303C2.32902 20.3897 2.25 20.1989 2.25 20L2.25 4C2.25 3.80109 2.32902 3.61032 2.46967 3.46967C2.61032 3.32902 2.80109 3.25 3 3.25C3.19891 3.25 3.38968 3.32902 3.53033 3.46967C3.67098 3.61032 3.75 3.80109 3.75 4L3.75 20C3.75 20.1989 3.67098 20.3897 3.53033 20.5303C3.38968 20.671 3.19891 20.75 3 20.75Z" fill="black"/>
<path d="M6.99402 11.446C6.91717 11.5163 6.85579 11.6018 6.8138 11.6971C6.77181 11.7924 6.75012 11.8954 6.75012 11.9995C6.75012 12.1037 6.77181 12.2067 6.8138 12.302C6.85579 12.3973 6.91717 12.4828 6.99402 12.553L11.369 16.553C11.5173 16.6767 11.7074 16.7384 11.9 16.7253C12.0926 16.7123 12.2727 16.6255 12.4029 16.4831C12.5332 16.3406 12.6035 16.1534 12.5992 15.9605C12.5949 15.7675 12.5164 15.5836 12.38 15.447L9.43002 12.751H20.5C20.6989 12.751 20.8897 12.672 21.0304 12.5314C21.171 12.3907 21.25 12.1999 21.25 12.001C21.25 11.8021 21.171 11.6114 21.0304 11.4707C20.8897 11.3301 20.6989 11.251 20.5 11.251H9.43202L12.382 8.55404C12.5288 8.4197 12.6162 8.23256 12.6251 8.03377C12.6339 7.83498 12.5634 7.64083 12.429 7.49403C12.2947 7.34724 12.1075 7.25982 11.9088 7.251C11.71 7.24219 11.5158 7.3127 11.369 7.44704L6.99402 11.446Z" fill="black"/>
</svg>
