<svg width="24" height="24" viewBox="0 0 24 24" fill="none" xmlns="http://www.w3.org/2000/svg">
<path fill-rule="evenodd" clip-rule="evenodd" d="M5.60377 15.0888V9.30201C5.60377 9.27132 5.60157 9.24065 5.59829 9.20996C5.59829 9.20996 5.54459 8.88447 5.77365 8.69268C5.89859 8.58856 6.09368 8.54143 6.37425 8.54143C6.6603 8.54143 6.85865 8.58636 6.98579 8.68719C7.19074 8.85049 7.14362 9.12668 7.14362 9.12668C7.13924 9.15956 7.13703 9.19354 7.13703 9.22642V15.1491C7.13703 15.5634 7.47352 15.8988 7.88671 15.8988C8.30099 15.8988 8.63745 15.5634 8.63745 15.1491V9.24943C8.6506 9.05873 8.65828 8.39459 8.24181 7.8444C7.93165 7.43341 7.39022 7.04102 6.37425 7.04102C5.63008 7.04102 5.14128 7.26573 4.81139 7.54191C4.10667 8.13155 4.0924 9.05105 4.10446 9.31847C4.10336 9.30641 4.10339 15.0888 4.10339 15.0888C4.10339 15.502 4.43984 15.8385 4.85303 15.8385C5.26731 15.8385 5.60377 15.502 5.60377 15.0888Z" fill="black"/>
<path fill-rule="evenodd" clip-rule="evenodd" d="M4.84754 12.8606H7.89326C8.30754 12.8606 8.644 12.5253 8.644 12.111C8.644 11.6967 8.30754 11.3613 7.89326 11.3613H4.84754C4.43326 11.3613 4.0979 11.6967 4.0979 12.111C4.0979 12.5253 4.43326 12.8606 4.84754 12.8606Z" fill="black"/>
<path fill-rule="evenodd" clip-rule="evenodd" d="M11.3357 15.1491V11.6628L12.8526 15.4296C12.9863 15.7628 13.3381 15.9535 13.691 15.8856C14.0428 15.8165 14.2982 15.5086 14.2982 15.1491V7.79069C14.2982 7.3775 13.9617 7.04102 13.5485 7.04102C13.1342 7.04102 12.7978 7.3775 12.7978 7.79069V11.2781L11.282 7.51121C11.1472 7.17803 10.7954 6.98622 10.4436 7.05526C10.0907 7.12321 9.83533 7.4323 9.83533 7.79069V15.1491C9.83533 15.5634 10.1718 15.8988 10.5861 15.8988C10.9993 15.8988 11.3357 15.5634 11.3357 15.1491Z" fill="black"/>
<path fill-rule="evenodd" clip-rule="evenodd" d="M16.3598 7.0432C15.9685 7.0728 15.6671 7.39941 15.6671 7.79067V15.1491C15.6671 15.5414 15.9685 15.8669 16.3598 15.8965C16.3598 15.8965 17.7396 16.0105 18.8411 15.0055C19.5184 14.3874 20.1278 13.3297 20.1278 11.4699C20.1278 9.60999 19.5184 8.55236 18.8411 7.93422C17.7396 6.92921 16.3598 7.0432 16.3598 7.0432ZM17.1664 8.65098C17.379 8.72442 17.6147 8.84497 17.8306 9.04224C18.2898 9.462 18.6284 10.2062 18.6284 11.4699C18.6284 12.7335 18.2898 13.4777 17.8306 13.8975C17.6147 14.0948 17.379 14.2153 17.1664 14.2888V8.65098Z" fill="black"/>
</svg>
