<svg width="24" height="24" viewBox="0 0 24 24" fill="none" xmlns="http://www.w3.org/2000/svg">
<g clip-path="url(#clip0_221_16421)">
<path d="M4.181 12.75L7.131 15.446C7.275 15.581 7.359 15.767 7.367 15.964C7.374 16.161 7.304 16.353 7.171 16.499C7.038 16.644 6.853 16.732 6.656 16.742C6.459 16.752 6.266 16.684 6.119 16.553L1.744 12.553C1.667 12.483 1.606 12.397 1.564 12.302C1.522 12.207 1.5 12.104 1.5 12C1.5 11.895 1.522 11.792 1.564 11.697C1.606 11.602 1.667 11.516 1.744 11.446L6.119 7.44603C6.266 7.31203 6.46 7.24103 6.659 7.25003C6.857 7.25903 7.045 7.34603 7.179 7.49303C7.313 7.64003 7.384 7.83403 7.375 8.03303C7.366 8.23203 7.279 8.41903 7.132 8.55303L4.182 11.25H19.821L16.871 8.55303C16.724 8.41903 16.636 8.23203 16.627 8.03303C16.619 7.83403 16.689 7.64003 16.824 7.49303C16.958 7.34603 17.145 7.25903 17.344 7.25003C17.543 7.24103 17.737 7.31203 17.884 7.44603L22.259 11.446C22.335 11.516 22.397 11.602 22.439 11.697C22.481 11.792 22.502 11.895 22.502 12C22.502 12.104 22.481 12.207 22.439 12.302C22.397 12.397 22.335 12.483 22.259 12.553L17.884 16.553C17.736 16.684 17.543 16.752 17.346 16.742C17.149 16.732 16.964 16.644 16.831 16.499C16.698 16.353 16.628 16.161 16.635 15.964C16.643 15.767 16.728 15.581 16.872 15.446L19.822 12.75H4.181Z" fill="black"/>
</g>
<defs>
<clipPath id="clip0_221_16421">
<rect width="24" height="24" fill="white"/>
</clipPath>
</defs>
</svg>
