<svg width="24" height="24" viewBox="0 0 24 24" fill="none" xmlns="http://www.w3.org/2000/svg">
<path fill-rule="evenodd" clip-rule="evenodd" d="M2.43079 6.82231V17.5073C1.72979 17.5953 1.18677 18.1943 1.18677 18.9203V21.4293C1.18677 22.2153 1.8238 22.8523 2.60981 22.8523H5.2118C5.9518 22.8523 6.5598 22.2883 6.6288 21.5663H17.2198C17.2888 22.2883 17.8958 22.8523 18.6358 22.8523H21.2378C22.0238 22.8523 22.6608 22.2153 22.6608 21.4293V18.9203C22.6608 18.1333 22.0238 17.4963 21.2378 17.4963H18.6358C17.8498 17.4963 17.2128 18.1333 17.2128 18.9203V20.0723H6.63478V18.9203C6.63478 18.1333 5.9978 17.4963 5.2118 17.4963H3.92579V6.83329H5.2118C5.9978 6.83329 6.63478 6.19629 6.63478 5.41029V2.90128C6.63478 2.11528 5.9978 1.47729 5.2118 1.47729H2.60981C1.8238 1.47729 1.18677 2.11528 1.18677 2.90128V5.41029C1.18677 6.13529 1.72979 6.73431 2.43079 6.82231ZM18.7068 18.9903V21.3583H21.1669V18.9903H18.7068ZM5.14179 20.8063V18.9903H2.68079V21.3583H5.14179V20.8323C5.14179 20.8273 5.14082 20.8233 5.14082 20.8193C5.14082 20.8153 5.14179 20.8103 5.14179 20.8063ZM14.5818 6.8303H21.1958C21.6088 6.8303 21.9429 6.49529 21.9429 6.08329C21.9429 5.67129 21.6088 5.33531 21.1958 5.33531H14.5818C14.1688 5.33531 13.8348 5.67129 13.8348 6.08329C13.8348 6.49529 14.1688 6.8303 14.5818 6.8303ZM3.25178 5.3393H5.14179V2.97129H2.68079V5.3393H3.1048C3.1288 5.3373 3.1538 5.33531 3.1778 5.33531C3.2028 5.33531 3.22777 5.3373 3.25178 5.3393Z" fill="black"/>
</svg>
