<svg width="24" height="24" viewBox="0 0 24 24" fill="none" xmlns="http://www.w3.org/2000/svg">
<path fill-rule="evenodd" clip-rule="evenodd" d="M12.0029 7.16406C9.3208 7.16406 7.14258 9.34231 7.14258 12.0244C7.14258 14.7064 9.3208 16.8847 12.0029 16.8847C14.6849 16.8847 16.8631 14.7064 16.8631 12.0244C16.8631 9.34231 14.6849 7.16406 12.0029 7.16406ZM12.0029 8.66906C13.8543 8.66906 15.3582 10.1729 15.3582 12.0244C15.3582 13.8759 13.8543 15.3797 12.0029 15.3797C10.1514 15.3797 8.64754 13.8759 8.64754 12.0244C8.64754 10.1729 10.1514 8.66906 12.0029 8.66906Z" fill="black"/>
<path fill-rule="evenodd" clip-rule="evenodd" d="M12.0011 1.29419C6.08001 1.29419 1.27045 6.10375 1.27045 12.0249C1.27045 17.946 6.08001 22.7556 12.0011 22.7556C17.9223 22.7556 22.7318 17.946 22.7318 12.0249C22.7318 6.10375 17.9223 1.29419 12.0011 1.29419ZM12.0011 2.8011C17.0913 2.8011 21.2248 6.93474 21.2248 12.0249C21.2248 17.1177 17.0913 21.2487 12.0011 21.2487C6.90832 21.2487 2.77744 17.1177 2.77744 12.0249C2.77744 6.93474 6.90832 2.8011 12.0011 2.8011Z" fill="black"/>
</svg>
