<svg width="24" height="24" viewBox="0 0 24 24" fill="none" xmlns="http://www.w3.org/2000/svg">
<path d="M5.91144 8.47375C5.22064 8.47375 4.66063 9.03374 4.66063 9.72455C4.66063 10.4154 5.22064 10.9753 5.91144 10.9753C6.60225 10.9753 7.16225 10.4154 7.16225 9.72455C7.16225 9.03374 6.60225 8.47375 5.91144 8.47375Z" fill="black"/>
<path d="M5.91144 4.6427C5.22064 4.6427 4.66063 5.20269 4.66063 5.89349C4.66063 6.5843 5.22064 7.14429 5.91144 7.14429C6.60225 7.14429 7.16225 6.5843 7.16225 5.89349C7.16225 5.20269 6.60225 4.6427 5.91144 4.6427Z" fill="black"/>
<path d="M5.91144 0.920772C5.22064 0.920772 4.66063 1.48076 4.66063 2.17157C4.66063 2.86237 5.22064 3.42236 5.91144 3.42236C6.60225 3.42236 7.16225 2.86237 7.16225 2.17157C7.16225 1.48076 6.60225 0.920772 5.91144 0.920772Z" fill="black"/>
<path d="M9.66063 4.6427C8.96983 4.6427 8.40982 5.20269 8.40982 5.89349C8.40982 6.5843 8.96983 7.14429 9.66063 7.14429C10.3514 7.14429 10.9114 6.5843 10.9114 5.89349C10.9114 5.20269 10.3514 4.6427 9.66063 4.6427Z" fill="black"/>
<path d="M9.66063 0.920772C8.96983 0.920772 8.40982 1.48076 8.40982 2.17157C8.40982 2.86237 8.96983 3.42236 9.66063 3.42236C10.3514 3.42236 10.9114 2.86237 10.9114 2.17157C10.9114 1.48076 10.3514 0.920772 9.66063 0.920772Z" fill="black"/>
<path d="M13.4545 0.920772C12.7637 0.920772 12.2037 1.48076 12.2037 2.17157C12.2037 2.86237 12.7637 3.42236 13.4545 3.42236C14.1453 3.42236 14.7053 2.86237 14.7053 2.17157C14.7053 1.48076 14.1453 0.920772 13.4545 0.920772Z" fill="black"/>
<path d="M2.26143 8.47375C1.57063 8.47375 1.01062 9.03374 1.01062 9.72455C1.01062 10.4154 1.57063 10.9753 2.26143 10.9753C2.95224 10.9753 3.51225 10.4154 3.51225 9.72455C3.51225 9.03374 2.95224 8.47375 2.26143 8.47375Z" fill="black"/>
<path d="M2.26143 12.3788C1.57063 12.3788 1.01062 12.9388 1.01062 13.6296C1.01062 14.3204 1.57063 14.8804 2.26143 14.8804C2.95224 14.8804 3.51225 14.3204 3.51225 13.6296C3.51225 12.9388 2.95224 12.3788 2.26143 12.3788Z" fill="black"/>
<path d="M2.26143 4.6427C1.57063 4.6427 1.01062 5.20269 1.01062 5.89349C1.01062 6.5843 1.57063 7.14429 2.26143 7.14429C2.95224 7.14429 3.51225 6.5843 3.51225 5.89349C3.51225 5.20269 2.95224 4.6427 2.26143 4.6427Z" fill="black"/>
<path d="M2.26143 0.920772C1.57063 0.920772 1.01062 1.48076 1.01062 2.17157C1.01062 2.86237 1.57063 3.42236 2.26143 3.42236C2.95224 3.42236 3.51225 2.86237 3.51225 2.17157C3.51225 1.48076 2.95224 0.920772 2.26143 0.920772Z" fill="black"/>
</svg>
