<svg width="24" height="24" viewBox="0 0 24 24" fill="none" xmlns="http://www.w3.org/2000/svg">
<g clip-path="url(#clip0_221_16330)">
<path fill-rule="evenodd" clip-rule="evenodd" d="M10.03 6.47007C10.1705 6.6107 10.2494 6.80132 10.2494 7.00007C10.2494 7.19882 10.1705 7.38945 10.03 7.53007L6.31001 11.2501H14.5C15.453 11.2501 16.867 11.5301 18.063 12.3911C19.298 13.2811 20.25 14.7561 20.25 17.0001C20.25 17.199 20.171 17.3898 20.0303 17.5304C19.8897 17.6711 19.6989 17.7501 19.5 17.7501C19.3011 17.7501 19.1103 17.6711 18.9697 17.5304C18.829 17.3898 18.75 17.199 18.75 17.0001C18.75 15.2441 18.035 14.2201 17.187 13.6091C16.3 12.9701 15.213 12.7501 14.5 12.7501H6.31001L10.03 16.4701C10.1037 16.5387 10.1628 16.6215 10.2038 16.7135C10.2448 16.8055 10.2668 16.9048 10.2686 17.0056C10.2704 17.1063 10.2519 17.2063 10.2141 17.2997C10.1764 17.3931 10.1203 17.4779 10.049 17.5491C9.97783 17.6203 9.893 17.6765 9.79961 17.7142C9.70622 17.7519 9.60619 17.7704 9.50549 17.7687C9.40479 17.7669 9.30547 17.7448 9.21347 17.7039C9.12147 17.6629 9.03867 17.6038 8.97001 17.5301L3.97001 12.5301C3.82956 12.3894 3.75067 12.1988 3.75067 12.0001C3.75067 11.8013 3.82956 11.6107 3.97001 11.4701L8.97001 6.47007C9.11064 6.32962 9.30126 6.25073 9.50001 6.25073C9.69876 6.25073 9.88939 6.32962 10.03 6.47007Z" fill="black"/>
</g>
<defs>
<clipPath id="clip0_221_16330">
<rect width="24" height="24" fill="white"/>
</clipPath>
</defs>
</svg>
