<svg width="24" height="24" viewBox="0 0 24 24" fill="none" xmlns="http://www.w3.org/2000/svg">
<path fill-rule="evenodd" clip-rule="evenodd" d="M14 9.25594C14 7.83394 15.4962 6.76687 16.8252 7.55087L21.5449 10.338C22.8177 11.09 22.8178 12.9951 21.5449 13.7472L16.8252 16.5343C15.4962 17.3183 14 16.2512 14 14.8292V12.7501H12.5C12.0858 12.7501 11.7501 12.4142 11.75 12.0001C11.75 11.5859 12.0858 11.2501 12.5 11.2501H14V9.25594ZM15.8848 8.79208C15.822 8.79297 15.7608 8.81238 15.709 8.84774C15.6423 8.89224 15.5883 8.95312 15.5518 9.0245C15.5152 9.09591 15.4971 9.17576 15.5 9.25594V14.8292C15.5 15.0271 15.596 15.1664 15.71 15.2374C15.7616 15.2725 15.8224 15.2921 15.8848 15.2931C15.9472 15.2939 16.0088 15.2758 16.0615 15.2423L20.7822 12.4552C20.8512 12.4113 20.9081 12.3507 20.9463 12.2784C20.9845 12.206 21.0028 12.1239 21 12.0421C21.0027 11.9604 20.9845 11.879 20.9463 11.8067C20.9081 11.7344 20.8512 11.6738 20.7822 11.63L16.0615 8.84286C16.0087 8.80905 15.9475 8.79119 15.8848 8.79208Z" fill="black"/>
<path d="M3.5 11.2501C3.91421 11.2501 4.25 11.5859 4.25 12.0001C4.24991 12.4142 3.91416 12.7501 3.5 12.7501H2C1.58584 12.7501 1.25009 12.4142 1.25 12.0001C1.25 11.5859 1.58579 11.2501 2 11.2501H3.5Z" fill="black"/>
<path d="M9.5 11.2501C9.91421 11.2501 10.25 11.5859 10.25 12.0001C10.2499 12.4142 9.91416 12.7501 9.5 12.7501H6.5C6.08584 12.7501 5.75009 12.4142 5.75 12.0001C5.75 11.5859 6.08579 11.2501 6.5 11.2501H9.5Z" fill="black"/>
</svg>
