<svg width="24" height="24" viewBox="0 0 24 24" fill="none" xmlns="http://www.w3.org/2000/svg">
<g clip-path="url(#clip0_221_16436)">
<path d="M20.857 9.75006C21.0559 9.75006 21.2467 9.67104 21.3873 9.53039C21.528 9.38974 21.607 9.19897 21.607 9.00006C21.607 8.80115 21.528 8.61038 21.3873 8.46973C21.2467 8.32908 21.0559 8.25006 20.857 8.25006H16.811L22.531 2.53006C22.6676 2.38854 22.7431 2.19906 22.7413 2.00241C22.7395 1.80576 22.6605 1.61769 22.5214 1.4787C22.3823 1.33971 22.1941 1.26092 21.9975 1.2593C21.8008 1.25769 21.6114 1.33337 21.47 1.47006L15.75 7.19006V3.14206C15.75 2.94315 15.671 2.75238 15.5303 2.61173C15.3897 2.47108 15.1989 2.39206 15 2.39206C14.8011 2.39206 14.6103 2.47108 14.4697 2.61173C14.329 2.75238 14.25 2.94315 14.25 3.14206V9.00006C14.25 9.41406 14.586 9.75006 15 9.75006H20.857ZM3.143 14.2501C2.94409 14.2501 2.75333 14.3291 2.61267 14.4697C2.47202 14.6104 2.393 14.8011 2.393 15.0001C2.393 15.199 2.47202 15.3897 2.61267 15.5304C2.75333 15.671 2.94409 15.7501 3.143 15.7501H7.189L1.469 21.4701C1.3974 21.5393 1.34031 21.6221 1.30104 21.7136C1.26178 21.8051 1.24114 21.9035 1.24032 22.0031C1.2395 22.1027 1.25853 22.2015 1.29628 22.2936C1.33403 22.3858 1.38976 22.4695 1.46022 22.5399C1.53067 22.6102 1.61443 22.6659 1.70662 22.7036C1.79881 22.7412 1.89758 22.7602 1.99716 22.7592C2.09675 22.7583 2.19515 22.7376 2.28664 22.6982C2.37812 22.6589 2.46085 22.6017 2.53 22.5301L8.25 16.8101V20.8571C8.25 21.056 8.32902 21.2467 8.46968 21.3874C8.61033 21.528 8.80109 21.6071 9 21.6071C9.19892 21.6071 9.38968 21.528 9.53033 21.3874C9.67099 21.2467 9.75 21.056 9.75 20.8571V15.0001C9.75 14.8011 9.67099 14.6104 9.53033 14.4697C9.38968 14.3291 9.19892 14.2501 9 14.2501H3.143Z" fill="black"/>
</g>
<defs>
<clipPath id="clip0_221_16436">
<rect width="24" height="24" fill="white"/>
</clipPath>
</defs>
</svg>
