<svg width="24" height="24" viewBox="0 0 24 24" fill="none" xmlns="http://www.w3.org/2000/svg">
<path fill-rule="evenodd" clip-rule="evenodd" d="M6.22547 5.95115L1.7306 10.5655C1.04123 11.2734 1.03917 12.4018 1.72648 13.1129L6.22855 17.7685C6.51708 18.0663 6.99212 18.0745 7.28992 17.786C7.5867 17.4985 7.59494 17.0234 7.30744 16.7256L2.80433 12.07C2.68068 11.9422 2.68172 11.7392 2.80537 11.6115L7.30024 6.99709C7.58877 6.70134 7.58258 6.22625 7.2858 5.93669C6.98903 5.64816 6.514 5.65438 6.22547 5.95115Z" fill="black"/>
<path fill-rule="evenodd" clip-rule="evenodd" d="M17.7093 17.7615L22.2042 13.1471C22.8936 12.4392 22.8956 11.3108 22.2083 10.5998L17.7063 5.94416C17.4177 5.64636 16.9427 5.63815 16.6449 5.92667C16.3481 6.21417 16.3399 6.68921 16.6274 6.98701L21.1305 11.6426C21.2541 11.7704 21.2531 11.9734 21.1294 12.1012L16.6346 16.7156C16.346 17.0113 16.3522 17.4864 16.649 17.776C16.9458 18.0645 17.4208 18.0583 17.7093 17.7615Z" fill="black"/>
<path fill-rule="evenodd" clip-rule="evenodd" d="M11.8631 9.17651C10.3813 9.17651 9.17877 10.379 9.17877 11.8608C9.17877 13.3416 10.3813 14.5442 11.8631 14.5442C13.3439 14.5442 14.5464 13.3416 14.5464 11.8608C14.5464 10.379 13.3439 9.17651 11.8631 9.17651ZM11.8631 10.6769C12.5164 10.6769 13.0471 11.2075 13.0471 11.8608C13.0471 12.5142 12.5164 13.0448 11.8631 13.0448C11.2098 13.0448 10.6791 12.5142 10.6791 11.8608C10.6791 11.2075 11.2098 10.6769 11.8631 10.6769Z" fill="black"/>
</svg>
