<svg width="24" height="24" viewBox="0 0 24 24" fill="none" xmlns="http://www.w3.org/2000/svg">
<g clip-path="url(#clip0_221_16539)">
<path fill-rule="evenodd" clip-rule="evenodd" d="M2.93 11.2C3.002 6.24001 7.07601 2.25001 12.079 2.25001C13.6453 2.24758 15.1861 2.64684 16.5541 3.40964C17.9221 4.17243 19.0717 5.27328 19.893 6.60701C19.9912 6.77615 20.0195 6.97696 19.9718 7.16664C19.9241 7.35631 19.8041 7.51985 19.6376 7.62237C19.471 7.72489 19.271 7.75829 19.0801 7.71544C18.8893 7.6726 18.7228 7.5569 18.616 7.39301C17.9289 6.27741 16.9672 5.35669 15.8227 4.71888C14.6782 4.08107 13.3892 3.74748 12.079 3.75001C7.89401 3.75001 4.504 7.07801 4.431 11.198L4.831 10.801C4.97223 10.6608 5.16336 10.5825 5.36233 10.5833C5.56131 10.584 5.75184 10.6638 5.892 10.805C6.03217 10.9462 6.11049 11.1374 6.10974 11.3363C6.10899 11.5353 6.02923 11.7258 5.888 11.866L4.208 13.532C4.06755 13.6712 3.87778 13.7494 3.68 13.7494C3.48223 13.7494 3.29246 13.6712 3.152 13.532L1.472 11.866C1.40201 11.7967 1.34636 11.7142 1.30823 11.6234C1.27009 11.5325 1.25023 11.4351 1.24976 11.3365C1.2493 11.238 1.26825 11.1404 1.30552 11.0492C1.34279 10.958 1.39767 10.875 1.467 10.805C1.53634 10.735 1.61879 10.6794 1.70963 10.6412C1.80048 10.6031 1.89795 10.5832 1.99647 10.5828C2.09499 10.5823 2.19264 10.6013 2.28384 10.6385C2.37504 10.6758 2.45801 10.7307 2.528 10.8L2.93 11.2ZM19.786 10.467C19.9264 10.3281 20.116 10.2502 20.3135 10.2502C20.511 10.2502 20.7006 10.3281 20.841 10.467L22.527 12.133C22.5989 12.2018 22.6565 12.2842 22.6962 12.3754C22.736 12.4667 22.7572 12.5649 22.7586 12.6644C22.76 12.7639 22.7416 12.8627 22.7045 12.955C22.6673 13.0473 22.6122 13.1314 22.5423 13.2022C22.4723 13.273 22.389 13.3291 22.2971 13.3674C22.2053 13.4057 22.1067 13.4253 22.0072 13.4251C21.9077 13.4249 21.8092 13.4049 21.7175 13.3662C21.6258 13.3276 21.5427 13.2711 21.473 13.2L21.063 12.795C20.993 17.76 16.902 21.75 11.883 21.75C10.3128 21.7535 8.76779 21.3551 7.39511 20.5926C6.02244 19.8301 4.86776 18.729 4.041 17.394C3.98926 17.3102 3.95454 17.2169 3.93883 17.1197C3.92312 17.0224 3.92671 16.923 3.94942 16.8271C3.97212 16.7312 4.01349 16.6408 4.07115 16.5609C4.12882 16.481 4.20166 16.4133 4.2855 16.3615C4.36935 16.3098 4.46257 16.2751 4.55984 16.2593C4.65711 16.2436 4.75652 16.2472 4.85239 16.2699C4.94827 16.2926 5.03873 16.334 5.11862 16.3917C5.19851 16.4493 5.26626 16.5222 5.318 16.606C6.01032 17.7232 6.97708 18.6446 8.12624 19.2824C9.27539 19.9203 10.5687 20.2534 11.883 20.25C16.089 20.25 19.493 16.917 19.563 12.797L19.155 13.2C19.0135 13.3399 18.8222 13.4179 18.6233 13.4168C18.4243 13.4156 18.2339 13.3355 18.094 13.194C17.9541 13.0525 17.8761 12.8612 17.8773 12.6623C17.8784 12.4633 17.9585 12.2729 18.1 12.133L19.786 10.467Z" fill="black"/>
</g>
<defs>
<clipPath id="clip0_221_16539">
<rect width="24" height="24" fill="white"/>
</clipPath>
</defs>
</svg>
