<svg width="24" height="24" viewBox="0 0 24 24" fill="none" xmlns="http://www.w3.org/2000/svg">
<g clip-path="url(#clip0_221_16291)">
<path fill-rule="evenodd" clip-rule="evenodd" d="M11.5 2.75C10.3509 2.75 9.21312 2.97633 8.15152 3.41605C7.08992 3.85578 6.12533 4.5003 5.31282 5.31282C4.5003 6.12533 3.85578 7.08992 3.41605 8.15152C2.97633 9.21312 2.75 10.3509 2.75 11.5C2.75 12.6491 2.97633 13.7869 3.41605 14.8485C3.85578 15.9101 4.5003 16.8747 5.31282 17.6872C6.12533 18.4997 7.08992 19.1442 8.15152 19.5839C9.21312 20.0237 10.3509 20.25 11.5 20.25C13.8206 20.25 16.0462 19.3281 17.6872 17.6872C19.3281 16.0462 20.25 13.8206 20.25 11.5C20.25 9.17936 19.3281 6.95376 17.6872 5.31282C16.0462 3.67187 13.8206 2.75 11.5 2.75ZM1.25 11.5C1.25 5.84 5.84 1.25 11.5 1.25C17.16 1.25 21.75 5.84 21.75 11.5C21.75 14.06 20.811 16.402 19.259 18.198L22.53 21.47C22.6037 21.5387 22.6628 21.6215 22.7038 21.7135C22.7448 21.8055 22.7668 21.9048 22.7686 22.0055C22.7704 22.1062 22.7518 22.2062 22.7141 22.2996C22.6764 22.393 22.6203 22.4778 22.549 22.549C22.4778 22.6203 22.393 22.6764 22.2996 22.7141C22.2062 22.7518 22.1062 22.7704 22.0055 22.7686C21.9048 22.7668 21.8055 22.7448 21.7135 22.7038C21.6215 22.6628 21.5387 22.6037 21.47 22.53L18.198 19.259C16.3388 20.8699 13.96 21.7545 11.5 21.75C5.84 21.75 1.25 17.16 1.25 11.5Z" fill="black"/>
<path d="M15.7613 9.92371C15.835 9.85505 15.8941 9.77225 15.9351 9.68025C15.9761 9.58825 15.9981 9.48893 15.9999 9.38823C16.0017 9.28753 15.9831 9.1875 15.9454 9.09411C15.9077 9.00072 15.8515 8.91589 15.7803 8.84467C15.7091 8.77345 15.6243 8.71731 15.5309 8.67959C15.4375 8.64186 15.3375 8.62334 15.2368 8.62512C15.1361 8.62689 15.0368 8.64894 14.9448 8.68993C14.8528 8.73092 14.77 8.79002 14.7013 8.86371L10.2313 13.3337L8.76129 11.8637C8.61912 11.7312 8.43107 11.6591 8.23677 11.6625C8.04247 11.666 7.85708 11.7447 7.71967 11.8821C7.58226 12.0195 7.50355 12.2049 7.50012 12.3992C7.49669 12.5935 7.56881 12.7815 7.70129 12.9237L9.70129 14.9237C9.84192 15.0642 10.0325 15.143 10.2313 15.143C10.43 15.143 10.6207 15.0642 10.7613 14.9237L15.7613 9.92371Z" fill="black"/>
</g>
<defs>
<clipPath id="clip0_221_16291">
<rect width="24" height="24" fill="white"/>
</clipPath>
</defs>
</svg>
