<svg width="24" height="24" viewBox="0 0 24 24" fill="none" xmlns="http://www.w3.org/2000/svg">
<path fill-rule="evenodd" clip-rule="evenodd" d="M9.28314 2.04289V22.0257C9.28314 22.4373 9.61712 22.7712 10.0287 22.7712C10.4403 22.7712 10.7743 22.4373 10.7743 22.0257V2.04289C10.7743 1.63131 10.4403 1.29736 10.0287 1.29736C9.61712 1.29736 9.28314 1.63131 9.28314 2.04289Z" fill="black"/>
<path fill-rule="evenodd" clip-rule="evenodd" d="M10.0287 11.2886H2.11568C1.70409 11.2886 1.37012 11.6225 1.37012 12.0341C1.37012 12.4457 1.70409 12.7796 2.11568 12.7796H10.0287C10.4403 12.7796 10.7743 12.4457 10.7743 12.0341C10.7743 11.6225 10.4403 11.2886 10.0287 11.2886Z" fill="black"/>
<path fill-rule="evenodd" clip-rule="evenodd" d="M4.82822 8.16245L1.58049 11.5154C1.30066 11.8044 1.30065 12.263 1.57946 12.553L4.8078 15.8916C5.09377 16.1878 5.56662 16.196 5.8628 15.91C6.15795 15.6241 6.16612 15.1512 5.88016 14.8551L3.1533 12.0352L5.89855 9.20009C6.18553 8.90493 6.17737 8.43209 5.88221 8.14612C5.58706 7.86016 5.11418 7.8673 4.82822 8.16245Z" fill="black"/>
<path fill-rule="evenodd" clip-rule="evenodd" d="M14.7317 22.0267L14.7317 2.04389C14.7317 1.63231 14.3977 1.29836 13.9861 1.29836C13.5745 1.29836 13.2406 1.63231 13.2406 2.04389L13.2406 22.0267C13.2406 22.4383 13.5745 22.7722 13.9861 22.7722C14.3977 22.7722 14.7317 22.4383 14.7317 22.0267Z" fill="black"/>
<path fill-rule="evenodd" clip-rule="evenodd" d="M13.9862 12.7808L21.8992 12.7808C22.3108 12.7808 22.6448 12.4468 22.6448 12.0352C22.6448 11.6236 22.3108 11.2897 21.8992 11.2897L13.9862 11.2897C13.5746 11.2897 13.2406 11.6236 13.2406 12.0352C13.2406 12.4468 13.5746 12.7808 13.9862 12.7808Z" fill="black"/>
<path fill-rule="evenodd" clip-rule="evenodd" d="M19.1867 15.9071L22.4344 12.5542C22.7142 12.2651 22.7142 11.8066 22.4354 11.5165L19.2071 8.17794C18.9211 7.88176 18.4483 7.87358 18.1521 8.15955C17.8569 8.44551 17.8488 8.91833 18.1347 9.21451L20.8616 12.0344L18.1163 14.8695C17.8294 15.1647 17.8375 15.6375 18.1327 15.9235C18.4278 16.2094 18.9007 16.2023 19.1867 15.9071Z" fill="black"/>
</svg>
