<svg width="24" height="24" viewBox="0 0 24 24" fill="none" xmlns="http://www.w3.org/2000/svg">
<g clip-path="url(#clip0_221_16612)">
<path fill-rule="evenodd" clip-rule="evenodd" d="M12.59 3C12.59 2.80109 12.669 2.61032 12.8097 2.46967C12.9503 2.32902 13.1411 2.25 13.34 2.25H15.002C15.4367 2.25 15.841 2.251 16.215 2.253C16.3135 2.25385 16.4108 2.2741 16.5015 2.31258C16.5922 2.35106 16.6744 2.40702 16.7434 2.47727C16.8125 2.54751 16.867 2.63067 16.9039 2.72199C16.9408 2.81331 16.9594 2.91101 16.9585 3.0095C16.9576 3.10799 16.9374 3.20535 16.8989 3.29602C16.8604 3.38669 16.8045 3.46889 16.7342 3.53793C16.664 3.60697 16.5808 3.66149 16.4895 3.6984C16.3982 3.7353 16.3005 3.75385 16.202 3.753C15.8353 3.751 15.4347 3.75 15 3.75H13.34C13.1411 3.75 12.9503 3.67098 12.8097 3.53033C12.669 3.38968 12.59 3.19891 12.59 3ZM18.371 3.055C18.4002 2.96089 18.4476 2.87345 18.5106 2.79769C18.5736 2.72192 18.6509 2.65931 18.7381 2.61343C18.8253 2.56756 18.9207 2.53931 19.0188 2.53032C19.117 2.52132 19.2159 2.53175 19.31 2.561C19.825 2.721 20.272 2.969 20.652 3.348C21.032 3.727 21.279 4.175 21.439 4.69C21.471 4.78478 21.4838 4.885 21.4765 4.98477C21.4692 5.08454 21.442 5.18185 21.3965 5.27095C21.351 5.36006 21.2882 5.43917 21.2117 5.50362C21.1352 5.56808 21.0465 5.61658 20.951 5.64627C20.8555 5.67595 20.755 5.68623 20.6554 5.67649C20.5559 5.66674 20.4592 5.63718 20.3713 5.58954C20.2833 5.5419 20.2058 5.47714 20.1432 5.39908C20.0806 5.32102 20.0343 5.23123 20.007 5.135C19.907 4.814 19.772 4.59 19.591 4.409C19.41 4.228 19.186 4.093 18.865 3.993C18.6752 3.93404 18.5165 3.80212 18.4239 3.62624C18.3312 3.45036 18.3122 3.2449 18.371 3.055ZM20.991 7.041C21.0895 7.04021 21.1872 7.05883 21.2785 7.09579C21.3698 7.13275 21.4529 7.18733 21.5231 7.25642C21.5933 7.32551 21.6492 7.40775 21.6876 7.49844C21.726 7.58913 21.7462 7.68651 21.747 7.785C21.7497 8.159 21.7507 8.56333 21.75 8.998V10.364C21.75 10.5629 21.671 10.7537 21.5303 10.8943C21.3897 11.035 21.1989 11.114 21 11.114C20.8011 11.114 20.6103 11.035 20.4697 10.8943C20.329 10.7537 20.25 10.5629 20.25 10.364V9C20.25 8.56467 20.249 8.164 20.247 7.798C20.2461 7.69951 20.2646 7.6018 20.3014 7.51045C20.3382 7.4191 20.3927 7.33591 20.4617 7.26561C20.5307 7.19532 20.6129 7.1393 20.7035 7.10076C20.7942 7.06222 20.8925 7.04191 20.991 7.041ZM21 12.886C21.1989 12.886 21.3897 12.965 21.5303 13.1057C21.671 13.2463 21.75 13.4371 21.75 13.636V15.002C21.75 15.436 21.749 15.8403 21.747 16.215C21.7453 16.4139 21.6646 16.604 21.5227 16.7434C21.3809 16.8829 21.1894 16.9602 20.9905 16.9585C20.7916 16.9568 20.6015 16.8761 20.4621 16.7342C20.3226 16.5924 20.2453 16.4009 20.247 16.202C20.2497 15.8353 20.2507 15.4347 20.25 15V13.636C20.25 13.4371 20.329 13.2463 20.4697 13.1057C20.6103 12.965 20.8011 12.886 21 12.886ZM20.945 18.371C21.0391 18.4002 21.1265 18.4476 21.2023 18.5106C21.2781 18.5736 21.3407 18.6509 21.3866 18.7381C21.4324 18.8253 21.4607 18.9207 21.4697 19.0189C21.4787 19.117 21.4682 19.2159 21.439 19.31C21.279 19.825 21.031 20.272 20.652 20.652C20.273 21.032 19.825 21.279 19.31 21.439C19.2152 21.471 19.115 21.4838 19.0152 21.4765C18.9155 21.4692 18.8182 21.442 18.729 21.3965C18.6399 21.351 18.5608 21.2882 18.4964 21.2117C18.4319 21.1352 18.3834 21.0466 18.3537 20.951C18.324 20.8555 18.3138 20.755 18.3235 20.6554C18.3333 20.5559 18.3628 20.4592 18.4105 20.3713C18.4581 20.2833 18.5229 20.2058 18.6009 20.1432C18.679 20.0807 18.7688 20.0343 18.865 20.007C19.186 19.907 19.41 19.772 19.591 19.591C19.772 19.41 19.907 19.186 20.007 18.865C20.066 18.6752 20.1979 18.5165 20.3738 18.4239C20.5496 18.3312 20.7551 18.3122 20.945 18.371ZM16.959 20.991C16.9598 21.0895 16.9412 21.1872 16.9042 21.2785C16.8672 21.3698 16.8127 21.4529 16.7436 21.5231C16.6745 21.5933 16.5923 21.6492 16.5016 21.6876C16.4109 21.726 16.3135 21.7462 16.215 21.747C15.8403 21.7497 15.436 21.7507 15.002 21.75H13.341C13.1421 21.75 12.9513 21.671 12.8107 21.5303C12.67 21.3897 12.591 21.1989 12.591 21C12.591 20.8011 12.67 20.6103 12.8107 20.4697C12.9513 20.329 13.1421 20.25 13.341 20.25H15C15.4353 20.25 15.836 20.249 16.202 20.247C16.3005 20.2461 16.3982 20.2646 16.4895 20.3014C16.5809 20.3382 16.6641 20.3927 16.7344 20.4617C16.8047 20.5307 16.8607 20.6129 16.8992 20.7035C16.9378 20.7942 16.9581 20.8925 16.959 20.991Z" fill="black"/>
<path fill-rule="evenodd" clip-rule="evenodd" d="M8.99999 3.74996C8.56465 3.74996 8.16399 3.75096 7.79799 3.75296C7.59907 3.75468 7.40762 3.67732 7.26575 3.53788C7.12388 3.39845 7.04321 3.20837 7.04149 3.00946C7.03976 2.81054 7.11713 2.61909 7.25656 2.47722C7.39599 2.33535 7.58607 2.25468 7.78499 2.25296C8.15899 2.25029 8.56332 2.24929 8.99799 2.24996H10.659C10.8579 2.24996 11.0487 2.32897 11.1893 2.46963C11.33 2.61028 11.409 2.80104 11.409 2.99996C11.409 3.19887 11.33 3.38963 11.1893 3.53029C11.0487 3.67094 10.8579 3.74996 10.659 3.74996H8.99999ZM5.62899 3.05496C5.68776 3.24485 5.66875 3.45031 5.57612 3.62619C5.48349 3.80208 5.32482 3.93399 5.13499 3.99296C4.81399 4.09296 4.58999 4.22796 4.40899 4.40896C4.22799 4.58996 4.09299 4.81396 3.99299 5.13496C3.93034 5.32039 3.79768 5.47399 3.62334 5.56295C3.449 5.65192 3.24679 5.6692 3.05987 5.61112C2.87296 5.55304 2.71616 5.42419 2.62295 5.25208C2.52974 5.07997 2.5075 4.87824 2.56099 4.68996C2.72099 4.17496 2.96899 3.72796 3.34799 3.34796C3.72699 2.96796 4.17499 2.72096 4.68999 2.56096C4.78408 2.5317 4.88301 2.52128 4.98113 2.53027C5.07926 2.53927 5.17464 2.56751 5.26185 2.61339C5.34905 2.65927 5.42636 2.72188 5.48935 2.79764C5.55235 2.87341 5.5998 2.96085 5.62899 3.05496ZM3.00899 7.03996C3.10756 7.04074 3.20502 7.06095 3.29578 7.09943C3.38654 7.13791 3.46882 7.19391 3.53792 7.26421C3.60702 7.33452 3.66158 7.41776 3.69849 7.50918C3.73539 7.60059 3.75391 7.69838 3.75299 7.79696C3.75099 8.16429 3.74999 8.56529 3.74999 8.99996V10.364C3.74999 10.5629 3.67097 10.7536 3.53032 10.8943C3.38966 11.0349 3.1989 11.114 2.99999 11.114C2.80107 11.114 2.61031 11.0349 2.46966 10.8943C2.329 10.7536 2.24999 10.5629 2.24999 10.364V8.99796C2.24999 8.56329 2.25099 8.15896 2.25299 7.78496C2.25377 7.68638 2.27398 7.58892 2.31246 7.49816C2.35094 7.4074 2.40694 7.32512 2.47725 7.25602C2.54755 7.18692 2.63079 7.13236 2.72221 7.09545C2.81362 7.05855 2.91141 7.04003 3.00999 7.04096M2.99999 12.886C3.1989 12.886 3.38966 12.965 3.53032 13.1056C3.67097 13.2463 3.74999 13.437 3.74999 13.636V15C3.74999 15.4353 3.75099 15.836 3.75299 16.202C3.75471 16.4009 3.67735 16.5923 3.53791 16.7342C3.39848 16.8761 3.2084 16.9567 3.00949 16.9585C2.81057 16.9602 2.61912 16.8828 2.47725 16.7434C2.33538 16.6039 2.25471 16.4139 2.25299 16.215C2.25032 15.8403 2.24932 15.436 2.24999 15.002V13.636C2.24999 13.437 2.329 13.2463 2.46966 13.1056C2.61031 12.965 2.80107 12.886 2.99999 12.886ZM3.05499 18.371C3.24488 18.3122 3.45034 18.3312 3.62623 18.4238C3.80211 18.5165 3.93402 18.6751 3.99299 18.865C4.09299 19.186 4.22799 19.41 4.40899 19.591C4.58999 19.772 4.81399 19.907 5.13499 20.007C5.23122 20.0343 5.32101 20.0806 5.39907 20.1432C5.47713 20.2057 5.54189 20.2833 5.58953 20.3712C5.63717 20.4592 5.66673 20.5558 5.67647 20.6554C5.68621 20.7549 5.67594 20.8554 5.64625 20.951C5.61656 21.0465 5.56807 21.1351 5.50361 21.2116C5.43916 21.2881 5.36005 21.351 5.27094 21.3965C5.18183 21.4419 5.08453 21.4691 4.98476 21.4764C4.88499 21.4837 4.78476 21.471 4.68999 21.439C4.18472 21.291 3.72377 21.0207 3.34799 20.652C2.97925 20.2762 2.70893 19.8152 2.56099 19.31C2.53173 19.2159 2.52131 19.1169 2.5303 19.0188C2.5393 18.9207 2.56754 18.8253 2.61342 18.7381C2.6593 18.6509 2.72191 18.5736 2.79767 18.5106C2.87344 18.4476 2.96088 18.4001 3.05499 18.371ZM7.04099 20.991C7.04177 20.8924 7.06198 20.7949 7.10046 20.7042C7.13894 20.6134 7.19494 20.5311 7.26524 20.462C7.33555 20.3929 7.41879 20.3384 7.51021 20.3015C7.60162 20.2646 7.69941 20.246 7.79799 20.247C8.16465 20.2496 8.56532 20.2506 8.99999 20.25H10.66C10.8589 20.25 11.0497 20.329 11.1903 20.4696C11.331 20.6103 11.41 20.801 11.41 21C11.41 21.1989 11.331 21.3896 11.1903 21.5303C11.0497 21.6709 10.8589 21.75 10.66 21.75H8.99799C8.56332 21.75 8.15899 21.749 7.78499 21.747C7.68641 21.7462 7.58895 21.726 7.49819 21.6875C7.40743 21.649 7.32515 21.593 7.25605 21.5227C7.18695 21.4524 7.13239 21.3692 7.09549 21.2777C7.05858 21.1863 7.04006 21.0895 7.04099 20.991Z" fill="black"/>
</g>
<defs>
<clipPath id="clip0_221_16612">
<rect width="24" height="24" fill="white"/>
</clipPath>
</defs>
</svg>
