<svg width="24" height="24" viewBox="0 0 24 24" fill="none" xmlns="http://www.w3.org/2000/svg">
<g clip-path="url(#clip0_221_16285)">
<path fill-rule="evenodd" clip-rule="evenodd" d="M11.5 2.75C10.3509 2.75 9.21312 2.97633 8.15152 3.41605C7.08992 3.85578 6.12533 4.5003 5.31282 5.31282C4.5003 6.12533 3.85578 7.08992 3.41605 8.15152C2.97633 9.21312 2.75 10.3509 2.75 11.5C2.75 12.6491 2.97633 13.7869 3.41605 14.8485C3.85578 15.9101 4.5003 16.8747 5.31282 17.6872C6.12533 18.4997 7.08992 19.1442 8.15152 19.5839C9.21312 20.0237 10.3509 20.25 11.5 20.25C13.8206 20.25 16.0462 19.3281 17.6872 17.6872C19.3281 16.0462 20.25 13.8206 20.25 11.5C20.25 9.17936 19.3281 6.95376 17.6872 5.31282C16.0462 3.67187 13.8206 2.75 11.5 2.75ZM1.25 11.5C1.25 5.84 5.84 1.25 11.5 1.25C17.16 1.25 21.75 5.84 21.75 11.5C21.75 14.06 20.811 16.402 19.259 18.198L22.53 21.47C22.6037 21.5387 22.6628 21.6215 22.7038 21.7135C22.7448 21.8055 22.7668 21.9048 22.7686 22.0055C22.7704 22.1062 22.7518 22.2062 22.7141 22.2996C22.6764 22.393 22.6203 22.4778 22.549 22.549C22.4778 22.6203 22.393 22.6764 22.2996 22.7141C22.2062 22.7518 22.1062 22.7704 22.0055 22.7686C21.9048 22.7668 21.8055 22.7448 21.7135 22.7038C21.6215 22.6628 21.5387 22.6037 21.47 22.53L18.198 19.259C16.3388 20.8699 13.96 21.7545 11.5 21.75C5.84 21.75 1.25 17.16 1.25 11.5Z" fill="black"/>
<path d="M9.54871 8.48871C9.40653 8.35623 9.21849 8.2841 9.02419 8.28753C8.82989 8.29096 8.6445 8.36967 8.50709 8.50709C8.36967 8.6445 8.29096 8.82989 8.28753 9.02419C8.2841 9.21849 8.35623 9.40653 8.48871 9.54871L10.4587 11.5187L8.48871 13.4887C8.41502 13.5574 8.35592 13.6402 8.31493 13.7322C8.27394 13.8242 8.25189 13.9235 8.25012 14.0242C8.24834 14.1249 8.26686 14.2249 8.30459 14.3183C8.34231 14.4117 8.39845 14.4965 8.46967 14.5677C8.54089 14.639 8.62572 14.6951 8.71911 14.7328C8.8125 14.7706 8.91253 14.7891 9.01323 14.7873C9.11393 14.7855 9.21325 14.7635 9.30525 14.7225C9.39725 14.6815 9.48005 14.6224 9.54871 14.5487L11.5187 12.5787L13.4887 14.5487C13.6309 14.6812 13.8189 14.7533 14.0132 14.7499C14.2075 14.7465 14.3929 14.6677 14.5303 14.5303C14.6677 14.3929 14.7465 14.2075 14.7499 14.0132C14.7533 13.8189 14.6812 13.6309 14.5487 13.4887L12.5787 11.5187L14.5487 9.54871C14.6224 9.48005 14.6815 9.39725 14.7225 9.30525C14.7635 9.21325 14.7855 9.11393 14.7873 9.01323C14.7891 8.91253 14.7706 8.8125 14.7328 8.71911C14.6951 8.62572 14.639 8.54089 14.5677 8.46967C14.4965 8.39845 14.4117 8.34231 14.3183 8.30459C14.2249 8.26686 14.1249 8.24834 14.0242 8.25012C13.9235 8.25189 13.8242 8.27394 13.7322 8.31493C13.6402 8.35592 13.5574 8.41502 13.4887 8.48871L11.5187 10.4587L9.54871 8.48871Z" fill="black"/>
</g>
<defs>
<clipPath id="clip0_221_16285">
<rect width="24" height="24" fill="white"/>
</clipPath>
</defs>
</svg>
