<svg width="24" height="24" viewBox="0 0 24 24" fill="none" xmlns="http://www.w3.org/2000/svg">
<g clip-path="url(#clip0_221_16385)">
<path fill-rule="evenodd" clip-rule="evenodd" d="M11.292 3.308C10.898 3.822 10.454 4.616 9.808 5.774L9.481 6.361L9.422 6.467C9.122 7.007 8.867 7.465 8.458 7.775C8.045 8.089 7.541 8.202 6.955 8.334L6.841 8.36L6.205 8.504C4.95 8.788 4.095 8.983 3.511 9.214C2.94 9.438 2.82 9.623 2.774 9.77C2.725 9.926 2.724 10.165 3.064 10.707C3.411 11.257 3.996 11.943 4.85 12.943L5.284 13.45L5.359 13.537C5.762 14.007 6.098 14.399 6.252 14.895C6.405 15.388 6.354 15.905 6.292 16.533L6.282 16.65L6.216 17.327C6.086 18.659 6 19.577 6.029 20.237C6.059 20.897 6.198 21.079 6.309 21.163C6.407 21.238 6.589 21.32 7.182 21.15C7.785 20.978 8.587 20.611 9.762 20.07L10.358 19.796L10.467 19.746C11.012 19.493 11.484 19.275 12 19.275C12.516 19.275 12.988 19.493 13.533 19.745C13.5683 19.7623 13.605 19.779 13.643 19.795L14.238 20.07C15.413 20.611 16.215 20.978 16.818 21.15C17.411 21.32 17.593 21.238 17.691 21.163C17.802 21.079 17.941 20.896 17.971 20.237C18.001 19.577 17.913 18.659 17.784 17.327L17.718 16.65L17.708 16.533C17.646 15.905 17.595 15.388 17.748 14.895C17.902 14.399 18.238 14.007 18.641 13.537L18.716 13.45L19.15 12.943C20.004 11.943 20.589 11.257 20.935 10.707C21.276 10.165 21.275 9.927 21.226 9.77C21.18 9.623 21.06 9.438 20.489 9.214C19.904 8.983 19.05 8.788 17.795 8.504L17.159 8.36L17.045 8.334C16.459 8.202 15.955 8.089 15.542 7.775C15.132 7.465 14.879 7.008 14.578 6.467L14.52 6.361L14.192 5.774C13.546 4.616 13.102 3.822 12.708 3.308C12.314 2.794 12.114 2.75 12 2.75C11.886 2.75 11.685 2.794 11.292 3.308ZM10.102 2.396C10.577 1.774 11.166 1.25 12 1.25C12.834 1.25 13.422 1.774 13.899 2.396C14.367 3.008 14.864 3.899 15.471 4.988L15.83 5.631C16.222 6.335 16.323 6.485 16.449 6.581C16.569 6.672 16.726 6.724 17.489 6.897L18.189 7.055C19.365 7.321 20.334 7.54 21.039 7.818C21.771 8.107 22.412 8.532 22.659 9.325C22.903 10.11 22.629 10.832 22.205 11.505C21.793 12.16 21.135 12.93 20.331 13.87L19.856 14.425C19.339 15.029 19.231 15.177 19.18 15.34C19.129 15.507 19.133 15.7 19.212 16.505L19.283 17.243C19.405 18.499 19.504 19.523 19.469 20.303C19.434 21.098 19.254 21.86 18.599 22.358C17.931 22.864 17.154 22.808 16.404 22.592C15.677 22.384 14.771 21.967 13.671 21.46L13.015 21.158C12.297 20.828 12.144 20.775 12 20.775C11.856 20.775 11.703 20.828 10.985 21.158L10.33 21.46C9.229 21.967 8.323 22.384 7.596 22.592C6.846 22.807 6.069 22.864 5.402 22.358C4.746 21.86 4.566 21.098 4.531 20.304C4.496 19.524 4.595 18.499 4.717 17.244L4.789 16.505C4.867 15.699 4.871 15.507 4.819 15.34C4.769 15.177 4.661 15.03 4.144 14.425L3.669 13.87C2.866 12.93 2.208 12.16 1.796 11.506C1.371 10.832 1.097 10.11 1.341 9.325C1.588 8.532 2.229 8.107 2.961 7.818C3.666 7.54 4.635 7.321 5.811 7.055L5.874 7.041L6.51 6.897C7.274 6.724 7.43 6.672 7.551 6.58C7.677 6.485 7.778 6.335 8.171 5.631L8.529 4.988C9.136 3.898 9.633 3.008 10.101 2.396" fill="black"/>
</g>
<defs>
<clipPath id="clip0_221_16385">
<rect width="24" height="24" fill="white"/>
</clipPath>
</defs>
</svg>
