<svg width="24" height="24" viewBox="0 0 24 24" fill="none" xmlns="http://www.w3.org/2000/svg">
<path fill-rule="evenodd" clip-rule="evenodd" d="M21.9571 9.2832L1.97431 9.2832C1.56273 9.2832 1.22878 9.61718 1.22878 10.0288C1.22878 10.4403 1.56273 10.7743 1.97431 10.7743L21.9571 10.7743C22.3687 10.7743 22.7026 10.4403 22.7026 10.0288C22.7026 9.61718 22.3687 9.2832 21.9571 9.2832Z" fill="black"/>
<path fill-rule="evenodd" clip-rule="evenodd" d="M12.7114 10.0287L12.7114 2.11568C12.7114 1.70409 12.3775 1.37012 11.9659 1.37012C11.5543 1.37012 11.2204 1.70409 11.2204 2.11568L11.2204 10.0287C11.2204 10.4403 11.5543 10.7743 11.9659 10.7743C12.3775 10.7743 12.7114 10.4403 12.7114 10.0287Z" fill="black"/>
<path fill-rule="evenodd" clip-rule="evenodd" d="M15.8375 4.82834L12.4846 1.58061C12.1956 1.30078 11.737 1.30077 11.447 1.57959L8.10835 4.80793C7.81218 5.09389 7.804 5.56674 8.08997 5.86292C8.37593 6.15807 8.84875 6.16624 9.14493 5.88028L11.9648 3.15342L14.7999 5.89867C15.0951 6.18565 15.5679 6.17749 15.8539 5.88234C16.1398 5.58718 16.1327 5.1143 15.8375 4.82834Z" fill="black"/>
<path fill-rule="evenodd" clip-rule="evenodd" d="M1.97331 14.7317L21.9561 14.7317C22.3677 14.7317 22.7016 14.3977 22.7016 13.9861C22.7016 13.5745 22.3677 13.2406 21.9561 13.2406L1.97331 13.2406C1.56173 13.2406 1.22778 13.5745 1.22778 13.9861C1.22778 14.3977 1.56173 14.7317 1.97331 14.7317Z" fill="black"/>
<path fill-rule="evenodd" clip-rule="evenodd" d="M11.2192 13.9862L11.2192 21.8992C11.2192 22.3108 11.5532 22.6448 11.9648 22.6448C12.3764 22.6448 12.7103 22.3108 12.7103 21.8992L12.7103 13.9862C12.7103 13.5746 12.3764 13.2406 11.9648 13.2406C11.5532 13.2406 11.2192 13.5746 11.2192 13.9862Z" fill="black"/>
<path fill-rule="evenodd" clip-rule="evenodd" d="M8.09287 19.1866L11.4458 22.4343C11.7349 22.7141 12.1934 22.7141 12.4835 22.4353L15.8221 19.207C16.1182 18.921 16.1264 18.4482 15.8405 18.152C15.5545 17.8568 15.0817 17.8487 14.7855 18.1346L11.9656 20.8615L9.13051 18.1162C8.83535 17.8292 8.36251 17.8374 8.07654 18.1326C7.79058 18.4277 7.79772 18.9006 8.09287 19.1866Z" fill="black"/>
</svg>
