<svg width="24" height="24" viewBox="0 0 24 24" fill="none" xmlns="http://www.w3.org/2000/svg">
<path fill-rule="evenodd" clip-rule="evenodd" d="M18.0489 6.22559L13.4346 1.73073C12.7267 1.04135 11.5983 1.03929 10.8872 1.72661L6.23161 6.22867C5.93381 6.5172 5.9256 6.99224 6.21413 7.29004C6.50163 7.58682 6.97666 7.59506 7.27447 7.30756L11.9301 2.80446C12.0579 2.6808 12.2609 2.68184 12.3887 2.80549L17.003 7.30036C17.2988 7.58889 17.7739 7.5827 18.0634 7.28593C18.3519 6.98915 18.3457 6.51412 18.0489 6.22559Z" fill="black"/>
<path fill-rule="evenodd" clip-rule="evenodd" d="M6.23861 17.7095L10.853 22.2043C11.5609 22.8937 12.6893 22.8958 13.4003 22.2085L18.0559 17.7064C18.3537 17.4179 18.362 16.9428 18.0734 16.645C17.7859 16.3482 17.3109 16.34 17.0131 16.6275L12.3575 21.1306C12.2297 21.2543 12.0267 21.2532 11.8989 21.1296L7.28454 16.6347C6.9888 16.3462 6.5137 16.3524 6.22415 16.6491C5.93562 16.9459 5.94184 17.4209 6.23861 17.7095Z" fill="black"/>
<path fill-rule="evenodd" clip-rule="evenodd" d="M14.8236 11.8633C14.8236 10.3815 13.6211 9.17896 12.1393 9.17895C10.6585 9.17895 9.45594 10.3815 9.45594 11.8633C9.45594 13.3441 10.6585 14.5466 12.1393 14.5466C13.6211 14.5466 14.8236 13.3441 14.8236 11.8633ZM13.3232 11.8633C13.3232 12.5166 12.7926 13.0473 12.1393 13.0473C11.4859 13.0473 10.9553 12.5166 10.9553 11.8633C10.9553 11.21 11.4859 10.6793 12.1393 10.6793C12.7926 10.6793 13.3232 11.21 13.3232 11.8633Z" fill="black"/>
</svg>
