<svg width="24" height="24" viewBox="0 0 24 24" fill="none" xmlns="http://www.w3.org/2000/svg">
<g clip-path="url(#clip0_221_17308)">
<path d="M11.999 10.25C11.8951 10.2499 11.7923 10.2284 11.6973 10.1865C11.602 10.1445 11.5165 10.0827 11.4463 10.0059L7.44726 5.63086C7.31293 5.48406 7.24216 5.28961 7.25097 5.09082C7.2599 4.89223 7.34749 4.70552 7.49414 4.57129C7.64094 4.43696 7.83539 4.36619 8.03418 4.375C8.23278 4.38393 8.41948 4.47151 8.55371 4.61817L11.251 7.56836L11.251 1.5C11.251 1.30109 11.3301 1.11038 11.4707 0.969728C11.6114 0.829078 11.8021 0.750005 12.001 0.750001C12.1999 0.750001 12.3906 0.829078 12.5312 0.969728C12.6719 1.11038 12.751 1.30109 12.751 1.5L12.751 7.57031L15.4473 4.62012C15.5837 4.48387 15.7672 4.40477 15.96 4.40039C16.1529 4.39612 16.3409 4.46645 16.4834 4.59668C16.6258 4.72682 16.7125 4.90718 16.7256 5.09961C16.7386 5.29218 16.6764 5.48263 16.5527 5.63086L12.5527 10.0059C12.4825 10.0827 12.397 10.1445 12.3018 10.1865C12.2065 10.2284 12.1031 10.25 11.999 10.25ZM0.999999 12.75C0.801087 12.75 0.610377 12.6709 0.469726 12.5303C0.329074 12.3896 0.249999 12.1989 0.249999 12C0.249999 11.8011 0.329074 11.6104 0.469726 11.4697C0.610377 11.3291 0.801087 11.25 0.999999 11.25L23 11.25C23.1989 11.25 23.3896 11.3291 23.5303 11.4697C23.6709 11.6104 23.75 11.8011 23.75 12C23.75 12.1989 23.6709 12.3896 23.5303 12.5303C23.3896 12.6709 23.1989 12.75 23 12.75L0.999999 12.75ZM11.9766 23.25C11.7778 23.25 11.5869 23.1708 11.4463 23.0303C11.3057 22.8896 11.2266 22.6989 11.2266 22.5L11.2266 16.4297L8.53027 19.3799C8.39371 19.5163 8.20957 19.5944 8.0166 19.5986C7.82371 19.6029 7.63655 19.5325 7.49414 19.4023C7.35184 19.2721 7.26498 19.0919 7.25195 18.8994C7.23906 18.7072 7.3005 18.5172 7.42383 18.3691L11.4238 13.9941C11.4941 13.9173 11.5805 13.8555 11.6758 13.8135C11.7709 13.7716 11.8736 13.75 11.9775 13.75C12.0817 13.75 12.185 13.7715 12.2803 13.8135C12.3756 13.8555 12.461 13.9173 12.5312 13.9941L16.5303 18.3691C16.6644 18.5158 16.7352 18.7096 16.7266 18.9082C16.7178 19.1069 16.6301 19.2944 16.4834 19.4287C16.3366 19.563 16.1421 19.6338 15.9434 19.625C15.7446 19.6162 15.5572 19.5286 15.4229 19.3818L12.7266 16.4316L12.7266 22.5C12.7265 22.6988 12.6474 22.8897 12.5068 23.0303C12.3663 23.1708 12.1754 23.2499 11.9766 23.25Z" fill="black"/>
</g>
<defs>
<clipPath id="clip0_221_17308">
<rect width="24" height="24" fill="white" transform="matrix(0 -1 1 0 0 24)"/>
</clipPath>
</defs>
</svg>
