<svg width="24" height="24" viewBox="0 0 24 24" fill="none" xmlns="http://www.w3.org/2000/svg">
<g clip-path="url(#clip0_221_16774)">
<path fill-rule="evenodd" clip-rule="evenodd" d="M7.50791 10.0752C6.72391 8.74624 7.79091 7.25024 9.21291 7.25024H14.7869C16.2089 7.25024 17.2759 8.74624 16.4919 10.0752L13.7049 14.7952C12.9529 16.0682 11.0469 16.0682 10.2949 14.7952L7.50791 10.0752ZM9.21291 8.75024C9.01491 8.75024 8.87591 8.84624 8.80491 8.96024C8.76975 9.012 8.75054 9.07293 8.74965 9.1355C8.74877 9.19806 8.76624 9.25951 8.79991 9.31224L11.5869 14.0322C11.6308 14.1014 11.692 14.1579 11.7644 14.1962C11.8369 14.2344 11.918 14.253 11.9999 14.2502C12.0818 14.253 12.163 14.2344 12.2354 14.1962C12.3078 14.1579 12.369 14.1014 12.4129 14.0322L15.1999 9.31224C15.2338 9.2594 15.2514 9.19776 15.2505 9.13499C15.2496 9.07223 15.2303 9.01111 15.1949 8.95924C15.1504 8.89247 15.0895 8.83821 15.0181 8.80163C14.9467 8.76504 14.8671 8.74735 14.7869 8.75024H9.21291Z" fill="black"/>
</g>
<defs>
<clipPath id="clip0_221_16774">
<rect width="24" height="24" fill="white"/>
</clipPath>
</defs>
</svg>
