<svg width="24" height="24" viewBox="0 0 24 24" fill="none" xmlns="http://www.w3.org/2000/svg">
<g clip-path="url(#clip0_221_16784)">
<path fill-rule="evenodd" clip-rule="evenodd" d="M13.9248 7.50791C15.2538 6.72391 16.7498 7.79091 16.7498 9.21291V14.7869C16.7498 16.2089 15.2538 17.2759 13.9248 16.4919L9.20476 13.7049C7.93176 12.9529 7.93176 11.0469 9.20476 10.2949L13.9248 7.50791ZM15.2498 9.21291C15.2498 9.01491 15.1538 8.87591 15.0398 8.80491C14.988 8.76975 14.9271 8.75054 14.8645 8.74965C14.8019 8.74877 14.7405 8.76624 14.6878 8.79991L9.96776 11.5869C9.89858 11.6308 9.84207 11.692 9.80383 11.7644C9.76559 11.8369 9.74695 11.918 9.74976 11.9999C9.74695 12.0818 9.76559 12.163 9.80383 12.2354C9.84207 12.3078 9.89858 12.369 9.96776 12.4129L14.6878 15.1999C14.7406 15.2338 14.8022 15.2514 14.865 15.2505C14.9278 15.2496 14.9889 15.2303 15.0408 15.1949C15.1075 15.1504 15.1618 15.0895 15.1984 15.0181C15.235 14.9467 15.2526 14.8671 15.2498 14.7869V9.21291Z" fill="black"/>
</g>
<defs>
<clipPath id="clip0_221_16784">
<rect width="24" height="24" fill="white"/>
</clipPath>
</defs>
</svg>
