<svg width="24" height="24" viewBox="0 0 24 24" fill="none" xmlns="http://www.w3.org/2000/svg">
<path fill-rule="evenodd" clip-rule="evenodd" d="M10.5338 5.62522V12.507C10.5338 12.9258 10.8733 13.2653 11.2921 13.2653C11.7109 13.2653 12.0505 12.9258 12.0505 12.507V5.62522C12.0505 5.20642 11.7109 4.86694 11.2921 4.86694C10.8733 4.86694 10.5338 5.20642 10.5338 5.62522Z" fill="black"/>
<path fill-rule="evenodd" clip-rule="evenodd" d="M11.2922 1C9.83979 1 8.66052 2.1793 8.66052 3.63169C8.66052 5.08409 9.83979 6.26332 11.2922 6.26332C12.7446 6.26332 13.9238 5.08409 13.9238 3.63169C13.9238 2.1793 12.7446 1 11.2922 1ZM11.2922 2.51668C11.907 2.51668 12.4072 3.01689 12.4072 3.63169C12.4072 4.2465 11.907 4.74671 11.2922 4.74671C10.6763 4.74671 10.1772 4.2465 10.1772 3.63169C10.1772 3.01689 10.6763 2.51668 11.2922 2.51668Z" fill="black"/>
<path fill-rule="evenodd" clip-rule="evenodd" d="M3.63618 17.4934C2.18378 17.4934 1.00452 18.6727 1.00452 20.1251C1.00452 21.5775 2.18378 22.7567 3.63618 22.7567C5.08857 22.7567 6.26784 21.5775 6.26784 20.1251C6.26784 18.6727 5.08857 17.4934 3.63618 17.4934ZM3.63618 19.0101C4.25098 19.0101 4.75118 19.5103 4.75118 20.1251C4.75118 20.7399 4.25098 21.2401 3.63618 21.2401C3.0203 21.2401 2.52118 20.7399 2.52118 20.1251C2.52118 19.5103 3.0203 19.0101 3.63618 19.0101Z" fill="black"/>
<path fill-rule="evenodd" clip-rule="evenodd" d="M11.2921 11.7525H8.51901C8.26838 11.7397 6.38112 11.6969 4.85161 13.0229C3.79873 13.9344 2.87653 15.5024 2.87653 18.2519C2.87653 18.6707 3.21713 19.0102 3.63486 19.0102C4.05365 19.0102 4.39318 18.6707 4.39318 18.2519C4.39318 16.1204 5.02834 14.8759 5.84451 14.1689C7.00128 13.1664 8.44511 13.267 8.44511 13.267C8.46331 13.2681 8.4826 13.2692 8.5008 13.2692H11.2921C11.7108 13.2692 12.0504 12.9297 12.0504 12.5109C12.0504 12.0921 11.7108 11.7525 11.2921 11.7525Z" fill="black"/>
<path fill-rule="evenodd" clip-rule="evenodd" d="M16.6267 10.5232C13.2056 10.5232 10.4294 13.2995 10.4294 16.7205C10.4294 20.1405 13.2056 22.9178 16.6267 22.9178C20.0467 22.9178 22.824 20.1405 22.824 16.7205C22.824 13.2995 20.0467 10.5232 16.6267 10.5232ZM16.6267 12.0399C19.2102 12.0399 21.3073 14.1371 21.3073 16.7205C21.3073 19.304 19.2102 21.4012 16.6267 21.4012C14.0432 21.4012 11.946 19.304 11.946 16.7205C11.946 14.1371 14.0432 12.0399 16.6267 12.0399Z" fill="black"/>
<path fill-rule="evenodd" clip-rule="evenodd" d="M17.3851 19.3498V13.9976C17.3851 13.5788 17.0455 13.2393 16.6267 13.2393C16.208 13.2393 15.8684 13.5788 15.8684 13.9976V19.3498C15.8684 19.7686 16.208 20.1082 16.6267 20.1082C17.0455 20.1082 17.3851 19.7686 17.3851 19.3498Z" fill="black"/>
<path fill-rule="evenodd" clip-rule="evenodd" d="M14.9537 16.5638L16.6171 15.0365L18.2269 16.5713C18.5301 16.8594 19.0099 16.8488 19.2991 16.5456C19.5872 16.2425 19.5765 15.7626 19.2734 15.4734L17.1494 13.4491C16.8613 13.1728 16.4072 13.1685 16.1137 13.4395L13.9276 15.4477C13.6191 15.7305 13.5988 16.2104 13.8826 16.5188C14.1654 16.8273 14.6452 16.8476 14.9537 16.5638Z" fill="black"/>
</svg>
