<svg width="24" height="24" viewBox="0 0 24 24" fill="none" xmlns="http://www.w3.org/2000/svg">
<g clip-path="url(#clip0_221_16789)">
<path fill-rule="evenodd" clip-rule="evenodd" d="M11.075 7.50791C9.746 6.72391 8.25 7.79091 8.25 9.21291V14.7869C8.25 16.2089 9.746 17.2759 11.075 16.4919L15.795 13.7049C17.068 12.9529 17.068 11.0469 15.795 10.2949L11.075 7.50791ZM9.75 9.21291C9.75 9.01491 9.846 8.87591 9.96 8.80491C10.0118 8.76975 10.0727 8.75054 10.1353 8.74965C10.1978 8.74877 10.2593 8.76624 10.312 8.79991L15.032 11.5869C15.1012 11.6308 15.1577 11.692 15.1959 11.7644C15.2342 11.8369 15.2528 11.918 15.25 11.9999C15.2528 12.0818 15.2342 12.163 15.1959 12.2354C15.1577 12.3078 15.1012 12.369 15.032 12.4129L10.312 15.1999C10.2592 15.2338 10.1975 15.2514 10.1347 15.2505C10.072 15.2496 10.0109 15.2303 9.959 15.1949C9.89223 15.1504 9.83797 15.0895 9.80138 15.0181C9.7648 14.9467 9.74711 14.8671 9.75 14.7869V9.21291Z" fill="black"/>
</g>
<defs>
<clipPath id="clip0_221_16789">
<rect width="24" height="24" fill="white"/>
</clipPath>
</defs>
</svg>
