<svg width="24" height="24" viewBox="0 0 24 24" fill="none" xmlns="http://www.w3.org/2000/svg">
<g clip-path="url(#clip0_221_16779)">
<path fill-rule="evenodd" clip-rule="evenodd" d="M7.50791 12.925C6.72391 14.254 7.79091 15.75 9.21291 15.75H14.7869C16.2089 15.75 17.2759 14.254 16.4919 12.925L13.7049 8.205C12.9529 6.932 11.0469 6.932 10.2949 8.205L7.50791 12.925ZM9.21291 14.25C9.01491 14.25 8.87591 14.154 8.80491 14.04C8.76975 13.9882 8.75054 13.9273 8.74965 13.8647C8.74877 13.8022 8.76624 13.7407 8.79991 13.688L11.5869 8.968C11.6308 8.89882 11.692 8.84231 11.7644 8.80408C11.8369 8.76584 11.918 8.7472 11.9999 8.75C12.0818 8.7472 12.163 8.76584 12.2354 8.80408C12.3078 8.84231 12.369 8.89882 12.4129 8.968L15.1999 13.688C15.2338 13.7408 15.2514 13.8025 15.2505 13.8653C15.2496 13.928 15.2303 13.9891 15.1949 14.041C15.1504 14.1078 15.0895 14.162 15.0181 14.1986C14.9467 14.2352 14.8671 14.2529 14.7869 14.25H9.21291Z" fill="black"/>
</g>
<defs>
<clipPath id="clip0_221_16779">
<rect width="24" height="24" fill="white"/>
</clipPath>
</defs>
</svg>
