<svg width="24" height="24" viewBox="0 0 24 24" fill="none" xmlns="http://www.w3.org/2000/svg">
<path fill-rule="evenodd" clip-rule="evenodd" d="M7.53001 20.5299C7.67046 20.3893 7.74935 20.1987 7.74935 19.9999C7.74935 19.8012 7.67046 19.6106 7.53001 19.4699L5.81001 17.7499H15C16.525 17.7499 17.9875 17.1441 19.0659 16.0658C20.1442 14.9875 20.75 13.5249 20.75 11.9999C20.75 10.4749 20.1442 9.0124 19.0659 7.93406C17.9875 6.85573 16.525 6.24993 15 6.24993H8.00001C7.8011 6.24993 7.61033 6.32894 7.46968 6.46959C7.32903 6.61025 7.25001 6.80101 7.25001 6.99993C7.25001 7.19884 7.32903 7.3896 7.46968 7.53026C7.61033 7.67091 7.8011 7.74993 8.00001 7.74993H15C16.1272 7.74993 17.2082 8.19769 18.0052 8.99472C18.8022 9.79175 19.25 10.8728 19.25 11.9999C19.25 13.1271 18.8022 14.2081 18.0052 15.0051C17.2082 15.8022 16.1272 16.2499 15 16.2499H5.81001L7.53001 14.5299C7.6037 14.4613 7.6628 14.3785 7.70379 14.2865C7.74478 14.1945 7.76683 14.0952 7.7686 13.9944C7.77038 13.8937 7.75186 13.7937 7.71413 13.7003C7.67641 13.6069 7.62027 13.5221 7.54905 13.4509C7.47783 13.3797 7.393 13.3235 7.29961 13.2858C7.20622 13.2481 7.10619 13.2296 7.00549 13.2313C6.90479 13.2331 6.80547 13.2552 6.71347 13.2961C6.62147 13.3371 6.53867 13.3962 6.47001 13.4699L3.47001 16.4699C3.32956 16.6106 3.25067 16.8012 3.25067 16.9999C3.25067 17.1987 3.32956 17.3893 3.47001 17.5299L6.47001 20.5299C6.61064 20.6704 6.80126 20.7493 7.00001 20.7493C7.19876 20.7493 7.38939 20.6704 7.53001 20.5299Z" fill="black"/>
</svg>
