<svg width="24" height="24" viewBox="0 0 24 24" fill="none" xmlns="http://www.w3.org/2000/svg">
<g clip-path="url(#clip0_221_16878)">
<path fill-rule="evenodd" clip-rule="evenodd" d="M7.84278 4.52249C7.98278 4.66249 8.06275 4.85349 8.06275 5.05249C8.06275 5.25049 7.98278 5.44152 7.84278 5.58252L6.12281 7.3025H15.3528C16.2528 7.3025 16.9828 7.30251 17.5728 7.35551C18.1828 7.41051 18.7128 7.52752 19.1928 7.80552C19.7628 8.13352 20.2328 8.6075 20.5628 9.1775C20.8428 9.6585 20.9627 10.1885 21.0127 10.7945C21.0627 11.3835 21.0628 12.1125 21.0628 13.0165V13.0885C21.0628 13.9925 21.0627 14.7215 21.0127 15.3105C20.9627 15.9165 20.8428 16.4465 20.5628 16.9275C20.2328 17.4975 19.7628 17.9705 19.1928 18.3005C18.7128 18.5775 18.1828 18.6945 17.5728 18.7495C16.9828 18.8025 16.2528 18.8025 15.3528 18.8025H8.31276C8.11275 18.8025 7.92272 18.7236 7.78272 18.5826C7.64272 18.4416 7.56275 18.2505 7.56275 18.0525C7.56275 17.8535 7.64272 17.6625 7.78272 17.5215C7.92272 17.3815 8.11275 17.3025 8.31276 17.3025H15.3128C16.2628 17.3025 16.9228 17.3025 17.4428 17.2555C17.9428 17.2095 18.2228 17.1255 18.4428 17.0015C18.7828 16.8035 19.0727 16.5195 19.2627 16.1775C19.3927 15.9625 19.4727 15.6775 19.5227 15.1745C19.5627 14.6625 19.5628 14.0005 19.5628 13.0525C19.5628 12.1045 19.5627 11.4425 19.5227 10.9305C19.4727 10.4275 19.3927 10.1425 19.2627 9.9275C19.0727 9.5845 18.7828 9.30053 18.4428 9.10353C18.2228 8.97953 17.9428 8.89553 17.4428 8.84953C16.9228 8.80353 16.2628 8.8025 15.3128 8.8025H6.12281L7.84278 10.5225C7.92278 10.5905 7.98272 10.6735 8.02272 10.7655C8.06272 10.8575 8.08277 10.9565 8.08277 11.0575C8.08277 11.1585 8.07273 11.2585 8.03272 11.3515C7.99272 11.4455 7.9328 11.5295 7.8628 11.6015C7.7928 11.6725 7.7128 11.7285 7.6128 11.7665C7.5228 11.8035 7.42276 11.8225 7.32276 11.8205C7.22276 11.8185 7.12272 11.7965 7.03272 11.7555C6.94272 11.7145 6.85272 11.6555 6.78272 11.5825L3.78272 8.58253C3.64272 8.44153 3.56274 8.2505 3.56274 8.0525C3.56274 7.8535 3.64272 7.6625 3.78272 7.5225L6.78272 4.52249C6.92272 4.38149 7.11275 4.30249 7.31275 4.30249C7.51275 4.30249 7.70278 4.38149 7.84278 4.52249Z" fill="black"/>
</g>
<defs>
<clipPath id="clip0_221_16878">
<rect width="24" height="24" fill="white"/>
</clipPath>
</defs>
</svg>
