<svg width="24" height="24" viewBox="0 0 24 24" fill="none" xmlns="http://www.w3.org/2000/svg">
<path fill-rule="evenodd" clip-rule="evenodd" d="M22.7106 18.8651V13.2429C22.7106 10.8008 20.731 8.82227 18.289 8.82227C12.5218 8.82227 1.9849 8.82227 1.9849 8.82227C1.57041 8.82227 1.23248 9.15917 1.23248 9.57468C1.23248 9.98918 1.57041 10.3271 1.9849 10.3271H18.289C19.9 10.3271 21.2047 11.6329 21.2058 13.2429V18.8651C21.2058 19.2796 21.5427 19.6175 21.9582 19.6175C22.3727 19.6175 22.7106 19.2796 22.7106 18.8651Z" fill="black"/>
<path fill-rule="evenodd" clip-rule="evenodd" d="M5.93285 4.33543L1.44078 9.05613C1.16309 9.34709 1.16412 9.80549 1.44283 10.0954L5.90936 14.7406C6.19726 15.0408 6.67402 15.0499 6.97315 14.762C7.27228 14.4741 7.28149 13.9974 6.99359 13.6982L3.02628 9.5717L7.02216 5.37368C7.30904 5.0725 7.29679 4.59574 6.99664 4.30989C6.69547 4.02301 6.21871 4.03528 5.93285 4.33543Z" fill="black"/>
</svg>
