<svg width="24" height="24" viewBox="0 0 24 24" fill="none" xmlns="http://www.w3.org/2000/svg">
<g clip-path="url(#clip0_221_16554)">
<path fill-rule="evenodd" clip-rule="evenodd" d="M12.59 3C12.59 2.80109 12.669 2.61032 12.8097 2.46967C12.9503 2.32902 13.1411 2.25 13.34 2.25H15.002C15.4367 2.25 15.841 2.251 16.215 2.253C16.3135 2.25385 16.4109 2.2741 16.5015 2.31258C16.5922 2.35106 16.6744 2.40702 16.7435 2.47727C16.8125 2.54751 16.867 2.63067 16.9039 2.72199C16.9408 2.81331 16.9594 2.91101 16.9585 3.0095C16.9577 3.10799 16.9374 3.20535 16.8989 3.29602C16.8605 3.38669 16.8045 3.46889 16.7343 3.53793C16.664 3.60697 16.5809 3.66149 16.4895 3.6984C16.3982 3.7353 16.3005 3.75385 16.202 3.753C15.8354 3.751 15.4347 3.75 15 3.75H13.34C13.1411 3.75 12.9503 3.67098 12.8097 3.53033C12.669 3.38968 12.59 3.19891 12.59 3ZM18.371 3.055C18.4002 2.96089 18.4477 2.87345 18.5107 2.79769C18.5737 2.72192 18.651 2.65931 18.7382 2.61343C18.8254 2.56756 18.9208 2.53931 19.0189 2.53032C19.117 2.52132 19.2159 2.53175 19.31 2.561C19.825 2.721 20.272 2.969 20.652 3.348C21.032 3.727 21.279 4.175 21.439 4.69C21.471 4.78478 21.4838 4.885 21.4765 4.98477C21.4692 5.08454 21.442 5.18185 21.3965 5.27095C21.3511 5.36006 21.2882 5.43917 21.2117 5.50362C21.1352 5.56808 21.0466 5.61658 20.951 5.64627C20.8555 5.67595 20.755 5.68623 20.6554 5.67649C20.5559 5.66674 20.4593 5.63718 20.3713 5.58954C20.2833 5.5419 20.2058 5.47714 20.1432 5.39908C20.0807 5.32102 20.0344 5.23123 20.007 5.135C19.907 4.814 19.772 4.59 19.591 4.409C19.41 4.228 19.186 4.093 18.865 3.993C18.6752 3.93404 18.5165 3.80212 18.4239 3.62624C18.3313 3.45036 18.3123 3.2449 18.371 3.055ZM20.991 7.041C21.0895 7.04021 21.1872 7.05883 21.2785 7.09579C21.3698 7.13275 21.4529 7.18733 21.5231 7.25642C21.5933 7.32551 21.6492 7.40775 21.6876 7.49844C21.7261 7.58913 21.7462 7.68651 21.747 7.785C21.7497 8.159 21.7507 8.56333 21.75 8.998V10.364C21.75 10.5629 21.671 10.7537 21.5304 10.8943C21.3897 11.035 21.1989 11.114 21 11.114C20.8011 11.114 20.6103 11.035 20.4697 10.8943C20.329 10.7537 20.25 10.5629 20.25 10.364V9C20.25 8.56467 20.249 8.164 20.247 7.798C20.2461 7.69951 20.2646 7.6018 20.3014 7.51045C20.3383 7.4191 20.3927 7.33591 20.4617 7.26561C20.5307 7.19532 20.6129 7.1393 20.7035 7.10076C20.7942 7.06222 20.8925 7.04191 20.991 7.041ZM21 12.886C21.1989 12.886 21.3897 12.965 21.5304 13.1057C21.671 13.2463 21.75 13.4371 21.75 13.636V15.002C21.75 15.436 21.749 15.8403 21.747 16.215C21.7453 16.4139 21.6646 16.604 21.5228 16.7434C21.3809 16.8829 21.1894 16.9602 20.9905 16.9585C20.7916 16.9568 20.6015 16.8761 20.4621 16.7342C20.3227 16.5924 20.2453 16.4009 20.247 16.202C20.2497 15.8353 20.2507 15.4347 20.25 15V13.636C20.25 13.4371 20.329 13.2463 20.4697 13.1057C20.6103 12.965 20.8011 12.886 21 12.886Z" fill="black"/>
<path fill-rule="evenodd" clip-rule="evenodd" d="M9.00003 3.74996C8.5647 3.74996 8.16403 3.75096 7.79803 3.75296C7.59912 3.75468 7.40767 3.67732 7.2658 3.53788C7.12393 3.39845 7.04326 3.20837 7.04153 3.00946C7.03981 2.81054 7.11717 2.61909 7.25661 2.47722C7.39604 2.33535 7.58612 2.25468 7.78503 2.25296C8.15903 2.25029 8.56337 2.24929 8.99803 2.24996H10.659C10.8579 2.24996 11.0487 2.32897 11.1894 2.46963C11.33 2.61028 11.409 2.80104 11.409 2.99996C11.409 3.19887 11.33 3.38963 11.1894 3.53029C11.0487 3.67094 10.8579 3.74996 10.659 3.74996H9.00003Z" fill="black"/>
<path fill-rule="evenodd" clip-rule="evenodd" d="M5.80822 6.60318C5.07434 6.70188 4.68596 6.88239 4.40963 7.15903C4.13299 7.43536 3.95188 7.82434 3.85318 8.55822C3.75159 9.31361 3.75 10.3148 3.75 11.75V15.25C3.75 16.6852 3.75159 17.6864 3.85318 18.4418C3.95188 19.1757 4.13239 19.564 4.40903 19.8404C4.68536 20.117 5.07434 20.2981 5.80822 20.3968C6.56361 20.4984 7.5648 20.5 9 20.5H12C13.4352 20.5 14.4364 20.4984 15.1918 20.3968C15.9257 20.2981 16.314 20.1176 16.5904 19.841C16.867 19.5646 17.0481 19.1757 17.1468 18.4418C17.2484 17.6864 17.25 16.6852 17.25 15.25V11.75C17.25 10.3148 17.2484 9.31361 17.1468 8.55822C17.0481 7.82434 16.8676 7.43596 16.591 7.15963C16.3146 6.88299 15.9257 6.70188 15.1918 6.60318C14.4364 6.50159 13.4352 6.5 12 6.5H9C7.5648 6.5 6.56361 6.50159 5.80822 6.60318ZM8.94513 5H12.0549C13.4223 4.99998 14.5247 4.99996 15.3917 5.11657C16.2917 5.2376 17.0497 5.49653 17.6513 6.09867C18.2535 6.7003 18.5124 7.45832 18.6334 8.35829C18.75 9.22533 18.75 10.3277 18.75 11.6951V15.3049C18.75 16.6723 18.75 17.7747 18.6334 18.6417C18.5124 19.5417 18.2535 20.2997 17.6513 20.9013C17.0497 21.5035 16.2917 21.7624 15.3917 21.8834C14.5247 22 13.4223 22 12.0549 22H8.9451C7.57773 22 6.47532 22 5.60829 21.8834C4.70832 21.7624 3.9503 21.5035 3.34867 20.9013C2.74653 20.2997 2.4876 19.5417 2.36657 18.6417C2.24996 17.7747 2.24998 16.6723 2.25 15.3049V11.6951C2.24998 10.3277 2.24996 9.22533 2.36657 8.35829C2.4876 7.45832 2.74653 6.7003 3.34867 6.09867C3.9503 5.49653 4.70832 5.2376 5.60829 5.11657C6.47533 4.99996 7.57775 4.99998 8.94513 5Z" fill="black"/>
</g>
<defs>
<clipPath id="clip0_221_16554">
<rect width="24" height="24" fill="white"/>
</clipPath>
</defs>
</svg>
