<svg width="24" height="24" viewBox="0 0 24 24" fill="none" xmlns="http://www.w3.org/2000/svg">
<g clip-path="url(#clip0_221_16136)">
<path d="M12.7673 14.0485C12.7673 13.845 12.6864 13.6499 12.5425 13.506C12.3987 13.3621 12.2035 13.2812 12 13.2812C11.7965 13.2812 11.6013 13.3621 11.4575 13.506C11.3136 13.6499 11.2327 13.845 11.2327 14.0485V18.1406C11.2327 18.3441 11.3136 18.5393 11.4575 18.6832C11.6013 18.8271 11.7965 18.9079 12 18.9079C12.2035 18.9079 12.3987 18.8271 12.5425 18.6832C12.6864 18.5393 12.7673 18.3441 12.7673 18.1406V14.0485Z" fill="black"/>
<path fill-rule="evenodd" clip-rule="evenodd" d="M12.0002 2.53938C10.5758 2.53938 9.20964 3.10524 8.2024 4.11248C7.19516 5.11972 6.6293 6.48584 6.6293 7.91029V9.19215C7.01123 9.18942 7.41874 9.1884 7.85182 9.18908H16.1486C17.5471 9.18908 18.6755 9.18908 19.5625 9.30878C20.4832 9.43154 21.2586 9.69753 21.8745 10.3124C22.4904 10.9282 22.7543 11.7037 22.8791 12.6244C22.9978 13.5114 22.9978 14.6398 22.9978 16.0383V16.1508C22.9978 17.5493 22.9978 18.6777 22.8791 19.5647C22.7543 20.4854 22.4904 21.2608 21.8745 21.8767C21.2586 22.4926 20.4832 22.7565 19.5625 22.8813C18.6755 23 17.5471 23 16.1486 23H7.85182C6.45333 23 5.32493 23 4.43796 22.8813C3.51723 22.7565 2.74178 22.4926 2.12591 21.8767C1.51005 21.2608 1.24611 20.4854 1.12232 19.5647C1.00262 18.6777 1.00262 17.5493 1.00262 16.1508V16.0383C1.00262 14.6398 1.00262 13.5114 1.12232 12.6244C1.24508 11.7037 1.51107 10.9282 2.12591 10.3124C2.74178 9.6965 3.51723 9.43256 4.43796 9.30878C4.64325 9.28081 4.86218 9.25899 5.09475 9.2433V7.91029C5.09358 6.22866 5.70608 4.60439 6.81732 3.34224C7.92857 2.0801 9.46219 1.26682 11.1304 1.05501C12.7987 0.843202 14.4869 1.24742 15.8783 2.19181C17.2697 3.1362 18.2687 4.55587 18.6878 6.18444C18.7162 6.28302 18.7245 6.38631 18.7123 6.48817C18.7001 6.59004 18.6676 6.68843 18.6167 6.77751C18.5658 6.86659 18.4975 6.94456 18.416 7.00681C18.3344 7.06905 18.2412 7.11431 18.1419 7.1399C18.0425 7.16549 17.939 7.1709 17.8376 7.1558C17.7361 7.1407 17.6387 7.1054 17.5511 7.05199C17.4635 6.99858 17.3875 6.92814 17.3276 6.84485C17.2677 6.76156 17.2251 6.66709 17.2023 6.56705C16.9045 5.41396 16.2318 4.39256 15.2901 3.66347C14.3485 2.93439 13.1911 2.53896 12.0002 2.53938ZM4.64257 10.829C3.89166 10.9303 3.49473 11.1154 3.21135 11.3978C2.92797 11.6812 2.74382 12.0781 2.64254 12.83C2.53922 13.6024 2.53717 14.6265 2.53717 16.0945C2.53717 17.5626 2.53922 18.5866 2.64254 19.3601C2.74382 20.111 2.92899 20.5079 3.21135 20.7913C3.49473 21.0747 3.89166 21.2588 4.64359 21.3601C5.41496 21.4634 6.44003 21.4655 7.90808 21.4655H16.0923C17.5604 21.4655 18.5844 21.4634 19.3578 21.3601C20.1088 21.2588 20.5057 21.0736 20.7891 20.7913C21.0724 20.5079 21.2566 20.111 21.3579 19.359C21.4612 18.5866 21.4632 17.5626 21.4632 16.0945C21.4632 14.6265 21.4612 13.6014 21.3579 12.829C21.2566 12.0781 21.0714 11.6812 20.7891 11.3978C20.5057 11.1144 20.1088 10.9303 19.3568 10.829C18.5844 10.7257 17.5604 10.7236 16.0923 10.7236H7.90808C6.44003 10.7236 5.41496 10.7257 4.64257 10.829Z" fill="black"/>
</g>
<defs>
<clipPath id="clip0_221_16136">
<rect width="22" height="22" fill="white" transform="translate(1 1)"/>
</clipPath>
</defs>
</svg>
