<svg width="24" height="24" viewBox="0 0 24 24" fill="none" xmlns="http://www.w3.org/2000/svg">
<path fill-rule="evenodd" clip-rule="evenodd" d="M6.35053 22.5871H6.83117H6.83932H7.42588C8.42795 22.5871 9.26708 21.8213 9.3567 20.8274L9.71521 17.0716C10.2529 17.0472 10.7662 16.8272 11.1491 16.4443C11.5483 16.0451 11.7683 15.5074 11.7683 14.9453C11.7683 14.5787 11.7683 14.0084 11.7683 13.5847C11.7683 12.3138 11.2631 11.0999 10.3669 10.2037C9.47074 9.29943 8.25693 8.80249 6.98601 8.80249C6.94528 8.80249 6.90453 8.8025 6.87194 8.81065C6.83936 8.8025 6.81493 8.80249 6.78234 8.80249C5.51957 8.80249 4.29751 9.30758 3.40135 10.2037C2.50518 11.0999 2 12.322 2 13.5847C2 14.0165 2 14.5868 2 14.9453C2 15.5074 2.22813 16.0533 2.62733 16.4525C3.00209 16.8354 3.51534 17.0553 4.05304 17.0716L4.41156 20.8274C4.50932 21.8294 5.34846 22.5871 6.35053 22.5871ZM6.88815 10.2364H6.98601C7.87403 10.2364 8.72938 10.5866 9.3567 11.2139C9.98401 11.8413 10.3344 12.6967 10.3344 13.5847V14.9453C10.3344 15.1245 10.2611 15.3037 10.1307 15.4341C10.0004 15.5644 9.8292 15.6378 9.64182 15.6378H9.07157C8.32206 15.5563 8.33019 16.485 8.34649 16.2813C8.34649 16.2813 8.08578 19.0757 7.93098 20.6888C7.90654 20.9495 7.68658 21.1533 7.42588 21.1533H6.83932C6.81488 21.1533 6.78232 21.1533 6.75787 21.1533H6.35053C6.08168 21.1533 5.86171 20.9495 5.83727 20.6888C5.69062 19.0839 5.42177 16.2895 5.42177 16.2895C5.42177 16.2895 5.41362 15.6296 4.70483 15.6378H4.12643C3.9472 15.6378 3.76789 15.5644 3.63754 15.4341C3.50719 15.3037 3.43387 15.1327 3.43387 14.9453V13.5847C3.43387 12.6967 3.78424 11.8494 4.41156 11.2221C5.04702 10.5866 5.89432 10.2364 6.78234 10.2364H6.88815Z" fill="black"/>
<path fill-rule="evenodd" clip-rule="evenodd" d="M6.88814 2C4.9899 2 3.45831 3.53974 3.45831 5.43798C3.45831 7.32806 4.9899 8.8678 6.88814 8.8678C8.77822 8.8678 10.3181 7.32806 10.3181 5.43798C10.3181 3.53974 8.77822 2 6.88814 2ZM6.88814 3.43387C7.98797 3.43387 8.88419 4.33 8.88419 5.43798C8.88419 6.53781 7.98797 7.43393 6.88814 7.43393C5.78015 7.43393 4.89218 6.53781 4.89218 5.43798C4.89218 4.33 5.78015 3.43387 6.88814 3.43387Z" fill="black"/>
<path fill-rule="evenodd" clip-rule="evenodd" d="M17.3666 2C15.4683 2 13.9367 3.53974 13.9367 5.43798C13.9367 7.32806 15.4683 8.8678 17.3666 8.8678C19.2566 8.8678 20.7965 7.32806 20.7965 5.43798C20.7965 3.53974 19.2566 2 17.3666 2ZM17.3666 3.43387C18.4664 3.43387 19.3626 4.33 19.3626 5.43798C19.3626 6.53781 18.4664 7.43393 17.3666 7.43393C16.2586 7.43393 15.3706 6.53781 15.3706 5.43798C15.3706 4.33 16.2586 3.43387 17.3666 3.43387Z" fill="black"/>
<path fill-rule="evenodd" clip-rule="evenodd" d="M17.4319 8.81104H17.2934C17.2934 8.81104 16.7883 8.8599 16.3565 8.90064C15.721 8.96581 15.1671 9.38126 14.939 9.97599L12.4867 16.1759C12.283 16.7054 12.3482 17.3001 12.6659 17.7726C12.9837 18.237 13.5132 18.5221 14.0835 18.5221H14.5071C14.6375 18.5221 14.7515 18.6117 14.776 18.7421C14.9226 19.459 15.1264 20.4937 15.2648 21.2106C15.4278 22.009 16.1284 22.5875 16.9512 22.5875H17.7822C18.5969 22.5875 19.3056 22.009 19.4604 21.2106C19.6071 20.4937 19.8108 19.459 19.9493 18.7421C19.9738 18.6117 20.0878 18.5221 20.2263 18.5221H20.6418C21.2121 18.5221 21.7416 18.237 22.0594 17.7726C22.3771 17.3001 22.4422 16.7054 22.2386 16.1759L19.7945 9.97599C19.5582 9.38126 19.0042 8.96581 18.3688 8.90064C17.937 8.8599 17.4319 8.81104 17.4319 8.81104ZM17.3667 10.2449L18.2303 10.3264C18.3281 10.3345 18.4176 10.4078 18.4584 10.5056L20.9025 16.7054C20.935 16.7868 20.927 16.8846 20.8781 16.9661C20.8211 17.0394 20.7396 17.0802 20.6418 17.0802H20.2263C19.4035 17.0802 18.7029 17.6586 18.5399 18.4651C18.4014 19.182 18.1977 20.2167 18.051 20.9337C18.0266 21.064 17.9126 21.1536 17.7822 21.1536H16.9512C16.8127 21.1536 16.6987 21.064 16.6742 20.9337C16.5358 20.2167 16.324 19.182 16.1855 18.4651C16.0307 17.6586 15.3218 17.0802 14.5071 17.0802H14.0835C13.9939 17.0802 13.9043 17.0394 13.8554 16.9661C13.7984 16.8846 13.7902 16.7868 13.8228 16.7054L16.2669 10.5056C16.3076 10.4078 16.3973 10.3345 16.5032 10.3264L17.3667 10.2449Z" fill="black"/>
</svg>
