<svg width="24" height="24" viewBox="0 0 24 24" fill="none" xmlns="http://www.w3.org/2000/svg">
<path fill-rule="evenodd" clip-rule="evenodd" d="M9.51165 2H15.4756C16.8102 2 17.8872 2 18.7336 2.11421C19.6121 2.23135 20.3516 2.48467 20.9395 3.07184C21.5274 3.65901 21.7792 4.39919 21.8978 5.27774C22.0113 6.12408 22.0113 7.20105 22.0113 8.53499V16.4522C22.0113 17.7862 22.0113 18.8631 21.8978 19.7095C21.7792 20.588 21.5274 21.3282 20.9395 21.9154C20.3516 22.5033 19.6121 22.7551 18.7336 22.8745C17.8872 22.9872 16.8102 22.9872 15.4756 22.9872H9.51165L8.63382 22.9865C8.60161 22.988 8.56867 22.988 8.53645 22.9865C7.64033 22.9799 6.8833 22.9579 6.25367 22.8745C5.37512 22.7551 4.63567 22.5033 4.04777 21.9154C3.45987 21.3282 3.20801 20.588 3.09014 19.7095C2.9957 19.0118 2.97959 18.1574 2.97666 17.1302H2.73213C2.33019 17.1302 2 16.8 2 16.3981C2 15.9969 2.33019 15.6659 2.73213 15.6659H2.97593V13.2257H2.73213C2.33019 13.2257 2 12.8955 2 12.4936C2 12.0917 2.33019 11.7615 2.73213 11.7615H2.97593V9.32129H2.73213C2.33019 9.32129 2 8.99037 2 8.58916C2 8.18723 2.33019 7.85704 2.73213 7.85704H2.97593C2.97959 6.82986 2.9957 5.97546 3.09014 5.27774C3.20728 4.39919 3.46133 3.65901 4.04777 3.07184C4.63567 2.48394 5.37512 2.23208 6.25367 2.11421C7.10001 2 8.17698 2 9.51165 2ZM4.44019 9.32129H4.68399C5.08593 9.32129 5.41612 8.99037 5.41612 8.58916C5.41612 8.18723 5.08593 7.85704 4.68399 7.85704H4.44019C4.44385 6.83571 4.45995 6.0743 4.54049 5.47322C4.63713 4.75647 4.81431 4.37796 5.08373 4.10707C5.35388 3.83691 5.7324 3.6612 6.44988 3.56456C6.84084 3.51185 7.30135 3.48622 7.85704 3.47451V21.5134C7.38628 21.5098 6.91625 21.4798 6.44915 21.4234C5.7324 21.3268 5.35388 21.1503 5.08373 20.8809C4.81284 20.6107 4.63713 20.2315 4.54049 19.514C4.45995 18.9137 4.44385 18.1522 4.44092 17.1316H4.68399C5.08593 17.1316 5.41612 16.8007 5.41612 16.3995C5.41612 15.9976 5.08593 15.6674 4.68399 15.6674H4.44019V13.2265H4.68399C5.08593 13.2265 5.41612 12.8963 5.41612 12.4943C5.41612 12.0931 5.08593 11.7622 4.68399 11.7622H4.44019V9.32129ZM9.32129 21.523H15.4221C16.8227 21.523 17.8001 21.5215 18.5381 21.4227C19.2548 21.326 19.6333 21.1496 19.9035 20.8802C20.1744 20.6093 20.3501 20.2308 20.4467 19.5133C20.5448 18.776 20.547 17.7994 20.547 16.3981V8.58916C20.547 7.18787 20.5448 6.20974 20.4467 5.47322C20.3501 4.75647 20.1729 4.37796 19.9035 4.10707C19.6333 3.83691 19.2548 3.6612 18.5373 3.56456C17.8001 3.46572 16.8227 3.46426 15.4221 3.46426H9.32129V21.523Z" fill="black"/>
<path d="M14.8081 18.107C15.21 18.107 15.5402 17.7761 15.5402 17.3749V11.5178C15.5402 11.1158 15.21 10.7856 14.8081 10.7856C14.4061 10.7856 14.076 11.1158 14.076 11.5178V17.3749C14.076 17.779 14.404 18.107 14.8081 18.107ZM14.8081 7.61255C15.3433 7.61255 15.784 8.0533 15.784 8.58922C15.784 9.12441 15.3433 9.56516 14.8081 9.56516C14.2729 9.56516 13.8322 9.12441 13.8322 8.58922C13.8322 8.0533 14.2729 7.61255 14.8081 7.61255Z" fill="black"/>
</svg>
