<svg width="24" height="24" viewBox="0 0 24 24" fill="none" xmlns="http://www.w3.org/2000/svg">
<g clip-path="url(#clip0_221_16130)">
<path d="M12 13.2791C12.2035 13.2791 12.3987 13.3599 12.5426 13.5038C12.6866 13.6478 12.7674 13.843 12.7674 14.0465V18.1395C12.7674 18.3431 12.6866 18.5383 12.5426 18.6822C12.3987 18.8261 12.2035 18.907 12 18.907C11.7964 18.907 11.6012 18.8261 11.4573 18.6822C11.3134 18.5383 11.2325 18.3431 11.2325 18.1395V14.0465C11.2325 13.843 11.3134 13.6478 11.4573 13.5038C11.6012 13.3599 11.7964 13.2791 12 13.2791Z" fill="black"/>
<path fill-rule="evenodd" clip-rule="evenodd" d="M5.09302 9.24028V7.90698C5.09302 6.07513 5.82072 4.31832 7.11603 3.02301C8.41134 1.7277 10.1682 1 12 1C13.8318 1 15.5887 1.7277 16.884 3.02301C18.1793 4.31832 18.907 6.07513 18.907 7.90698V9.24028C19.1389 9.25597 19.3579 9.2778 19.5639 9.30577C20.4848 9.42856 21.2605 9.6946 21.8765 10.3096C22.4925 10.9256 22.7565 11.7012 22.8813 12.6221C23 13.5093 23 14.638 23 16.0367V16.1493C23 17.5481 23 18.6767 22.8813 19.5639C22.7565 20.4848 22.4925 21.2605 21.8765 21.8765C21.2605 22.4925 20.4848 22.7565 19.5639 22.8813C18.6767 23 17.5481 23 16.1493 23H7.8507C6.45191 23 5.32326 23 4.43609 22.8813C3.51516 22.7565 2.73953 22.4925 2.12353 21.8765C1.50753 21.2605 1.24353 20.4848 1.11972 19.5639C1 18.6767 1 17.5481 1 16.1493V16.0367C1 14.638 1 13.5093 1.11972 12.6221C1.24251 11.7012 1.50856 10.9256 2.12353 10.3096C2.73953 9.69358 3.51516 9.42958 4.43609 9.30577C4.64143 9.2778 4.8604 9.25597 5.09302 9.24028ZM6.62791 7.90698C6.62791 6.48221 7.19389 5.1158 8.20136 4.10833C9.20882 3.10087 10.5752 2.53488 12 2.53488C13.4248 2.53488 14.7912 3.10087 15.7986 4.10833C16.8061 5.1158 17.3721 6.48221 17.3721 7.90698V9.18912C16.9901 9.18639 16.5825 9.18536 16.1493 9.18605H7.8507C7.4182 9.18605 7.0106 9.18707 6.62791 9.18912V7.90698ZM4.64074 10.8263C3.88967 10.9276 3.49265 11.1128 3.20921 11.3953C2.92577 11.6787 2.74158 12.0757 2.64028 12.8278C2.53693 13.6004 2.53488 14.6247 2.53488 16.093C2.53488 17.5614 2.53693 18.5857 2.64028 19.3593C2.74158 20.1103 2.92679 20.5073 3.20921 20.7908C3.49265 21.0742 3.88967 21.2584 4.64177 21.3597C5.4133 21.4631 6.4386 21.4651 7.90698 21.4651H16.093C17.5614 21.4651 18.5857 21.4631 19.3593 21.3597C20.1103 21.2584 20.5073 21.0732 20.7908 20.7908C21.0742 20.5073 21.2584 20.1103 21.3597 19.3582C21.4631 18.5857 21.4651 17.5614 21.4651 16.093C21.4651 14.6247 21.4631 13.5993 21.3597 12.8268C21.2584 12.0757 21.0732 11.6787 20.7908 11.3953C20.5073 11.1118 20.1103 10.9276 19.3582 10.8263C18.5857 10.723 17.5614 10.7209 16.093 10.7209H7.90698C6.4386 10.7209 5.4133 10.723 4.64074 10.8263Z" fill="black"/>
</g>
<defs>
<clipPath id="clip0_221_16130">
<rect width="22" height="22" fill="white" transform="translate(1 1)"/>
</clipPath>
</defs>
</svg>
