<svg width="24" height="24" viewBox="0 0 24 24" fill="none" xmlns="http://www.w3.org/2000/svg">
<g clip-path="url(#clip0_221_16046)">
<path fill-rule="evenodd" clip-rule="evenodd" d="M15.7656 5.19336C14.9652 5.19255 14.1972 5.50965 13.6306 6.07494C13.064 6.64024 12.745 7.40743 12.744 8.20783C12.7453 9.00822 13.0645 9.77531 13.6313 10.3404C14.1982 10.9055 14.9662 11.2224 15.7666 11.2213C16.567 11.2224 17.3351 10.9055 17.9019 10.3404C18.4687 9.77531 18.7879 9.00822 18.7893 8.20783C18.7887 7.81142 18.7101 7.41901 18.5579 7.05299C18.4057 6.68696 18.1829 6.3545 17.9023 6.07458C17.6216 5.79466 17.2885 5.57277 16.9221 5.42157C16.5556 5.27037 16.162 5.19282 15.7656 5.19336ZM14.2798 8.20783C14.2804 8.01298 14.3193 7.82016 14.3943 7.64035C14.4694 7.46055 14.5791 7.29729 14.7173 7.15989C14.8555 7.0225 15.0193 6.91366 15.1995 6.83959C15.3797 6.76553 15.5728 6.72768 15.7676 6.72822C16.5924 6.72822 17.2554 7.39333 17.2554 8.20783C17.2541 8.60115 17.0966 8.97784 16.8176 9.2551C16.5386 9.53236 16.161 9.6875 15.7676 9.68641C15.3743 9.6875 14.9966 9.53236 14.7177 9.2551C14.4387 8.97784 14.2812 8.60115 14.2798 8.20783Z" fill="black"/>
<path fill-rule="evenodd" clip-rule="evenodd" d="M9.47267 21.0842C9.76945 20.6837 9.92493 20.196 9.91471 19.6977C10.3158 19.8164 10.7128 19.8307 11.0935 19.7591C11.8793 19.6097 12.4616 19.1124 12.7706 18.7031L12.7757 18.6959L12.7808 18.6888C12.9961 18.3952 13.1441 18.0578 13.2141 17.7005C13.2842 17.3432 13.2746 16.9749 13.186 16.6218C13.1104 16.3141 12.9861 16.0204 12.8176 15.7521C12.7397 15.6083 12.6464 15.4735 12.5393 15.3499L12.5485 15.3397L13.0233 14.867C13.4142 15.0542 13.8378 15.1719 14.2082 15.2486C14.7212 15.3536 15.243 15.4091 15.7666 15.4144C19.7583 15.4144 22.9999 12.1912 22.9999 8.20668C22.9999 4.22423 19.7583 1 15.7656 1C11.775 1 8.53231 4.22321 8.53231 8.20668C8.53616 9.13631 8.73485 10.0548 9.11556 10.9029L1.69093 18.2969C1.34453 18.6476 1.11324 19.0955 1.02787 19.581C0.926568 20.198 1.09233 20.8846 1.69093 21.4802L2.59343 22.3786L2.6364 22.4195C2.98661 22.7127 3.41001 22.9051 3.86122 22.9761C4.18258 23.0259 4.51121 22.9976 4.81932 22.8936C5.12743 22.7896 5.40598 22.6129 5.63143 22.3786L6.21058 21.8014C6.70964 22.093 7.29763 22.1934 7.86516 22.0839C8.49855 21.9584 9.06536 21.6085 9.46141 21.0985L9.46755 21.0913L9.47267 21.0842ZM10.0672 8.20668C10.0672 5.07761 12.6161 2.53486 15.7666 2.53486C18.9162 2.53486 21.465 5.07761 21.465 8.20668C21.465 11.3378 18.9172 13.8795 15.7656 13.8795C15.4873 13.8795 15.0053 13.8458 14.5193 13.7465C14.0107 13.6401 13.6117 13.4835 13.3988 13.3065C13.2517 13.1848 13.0646 13.1223 12.8738 13.1312C12.6831 13.14 12.5025 13.2197 12.3674 13.3546L11.4649 14.253C11.2592 14.4577 11.0607 14.691 10.9553 14.9601C10.8223 15.3008 10.8653 15.6282 11.0167 15.9014C11.1068 16.0621 11.2521 16.2156 11.3125 16.28L11.3329 16.3015C11.4045 16.3803 11.4424 16.4315 11.4711 16.4888L11.4987 16.543L11.5294 16.586L11.5365 16.5962C11.5461 16.6119 11.5604 16.6378 11.5795 16.674C11.6184 16.7487 11.6634 16.8541 11.6921 16.9779C11.7294 17.1155 11.7349 17.2597 11.7083 17.3997C11.6817 17.5398 11.6237 17.6719 11.5386 17.7863C11.3953 17.9735 11.1221 18.1915 10.808 18.2508C10.544 18.3009 10.1142 18.2682 9.54123 17.6983C9.39737 17.5549 9.20254 17.4743 8.99942 17.4743C8.7963 17.4743 8.60147 17.5549 8.45762 17.6983L8.15678 17.997C8.01771 18.1353 7.93683 18.3215 7.93074 18.5175C7.92465 18.7135 7.99382 18.9044 8.12404 19.051C8.13632 19.0674 8.15508 19.0946 8.18032 19.1328C8.22943 19.2096 8.28673 19.317 8.32766 19.4398C8.40543 19.67 8.41771 19.9166 8.23046 20.1827C8.10767 20.3413 7.85902 20.5224 7.57661 20.5756C7.33717 20.6217 7.0302 20.5879 6.68434 20.2431C6.54049 20.0997 6.34565 20.0191 6.14253 20.0191C5.93941 20.0191 5.74458 20.0997 5.60073 20.2431L4.54781 21.2919C4.37898 21.4597 4.23061 21.4791 4.08531 21.4576C3.9277 21.4287 3.7791 21.3632 3.65146 21.2663L2.77454 20.3924C2.52998 20.1499 2.52078 19.9627 2.54226 19.8297C2.57519 19.6617 2.65584 19.5068 2.77454 19.3835L10.5962 11.5936C10.7188 11.4714 10.7961 11.3112 10.8157 11.1392C10.8352 10.9672 10.7957 10.7937 10.7036 10.6471L10.7016 10.644C10.6714 10.5941 10.6434 10.5429 10.6177 10.4906C10.2595 9.78227 10.071 9.00037 10.0672 8.20668ZM8.11278 19.0356C8.11278 19.037 8.11415 19.0387 8.11688 19.0407L8.11585 19.0397L8.11278 19.0356Z" fill="black"/>
</g>
<defs>
<clipPath id="clip0_221_16046">
<rect width="22" height="22" fill="white" transform="translate(1 1)"/>
</clipPath>
</defs>
</svg>
