<svg width="24" height="24" viewBox="0 0 24 24" fill="none" xmlns="http://www.w3.org/2000/svg">
<path fill-rule="evenodd" clip-rule="evenodd" d="M10.3033 1C7.49482 1 5.21429 3.28053 5.21429 6.089C5.21429 8.89747 7.49482 11.178 10.3033 11.178C13.1118 11.178 15.3923 8.89747 15.3923 6.089C15.3923 3.28053 13.1118 1 10.3033 1ZM10.3033 2.60714C12.2254 2.60714 13.7852 4.16686 13.7852 6.089C13.7852 8.01113 12.2254 9.57086 10.3033 9.57086C8.38116 9.57086 6.82143 8.01113 6.82143 6.089C6.82143 4.16686 8.38116 2.60714 10.3033 2.60714Z" fill="black"/>
<path fill-rule="evenodd" clip-rule="evenodd" d="M12.3114 21.1905C11.675 21.299 11.0008 21.3568 10.3033 21.3568C8.02355 21.3568 5.99615 20.7485 4.74419 19.7722C4.05392 19.2346 3.60714 18.5933 3.60714 17.875C3.60714 17.1558 4.05392 16.5153 4.74419 15.9769C5.99615 15.0014 8.02355 14.3923 10.3033 14.3923C11.5568 14.3923 12.7341 14.5787 13.7506 14.909C14.1146 15.0271 15.4726 13.8676 15.4726 13.8676C14.0744 13.1966 12.2712 12.7852 10.3033 12.7852C7.61212 12.7852 5.23436 13.5574 3.7566 14.7097C2.62678 15.5896 2 16.6985 2 17.875C2 19.0506 2.62678 20.1595 3.7566 21.0402C5.23436 22.1917 7.61212 22.964 10.3033 22.964C11.0168 22.964 11.7087 22.9101 12.3668 22.8097C12.4392 22.7984 15.0371 22.2432 13.7482 22.4625L12.3114 21.1905Z" fill="black"/>
<path fill-rule="evenodd" clip-rule="evenodd" d="M21.2066 19.9225L21.5205 18.7487C21.9404 17.1813 22.0976 16.3906 21.94 15.7119C21.7947 15.0888 21.4676 14.5231 21.0008 14.0863C20.4929 13.6103 19.7286 13.3502 18.1613 12.9303C16.5939 12.5099 15.8018 12.3532 15.1241 12.5108V12.5112C14.5014 12.6565 13.9357 12.9831 13.4989 13.45C13.0776 13.8996 12.8179 14.5404 12.4913 15.7365L12.0281 17.4633C11.6077 19.0302 11.451 19.8213 11.6086 20.5C11.7539 21.1231 12.081 21.6888 12.5478 22.1257C13.0557 22.6016 13.82 22.8617 15.3873 23.2821C16.772 23.6529 17.5386 23.8237 18.1622 23.7467L18.4232 23.7007C19.0467 23.5554 19.6124 23.2293 20.0497 22.7629L20.0502 22.7624C20.5261 22.2536 20.7862 21.4893 21.2066 19.9225ZM19.6543 19.5061C19.3396 20.6781 19.233 21.2835 18.8768 21.6638C18.6573 21.8979 18.3735 22.0619 18.061 22.1348C18.0292 22.1421 17.9968 22.148 17.9636 22.1521C17.4757 22.2117 16.8863 22.0195 15.8037 21.7298C14.6317 21.4156 14.0263 21.309 13.6465 20.9528C13.4114 20.7328 13.247 20.4486 13.1737 20.1356C13.0562 19.6282 13.2661 19.0511 13.5804 17.8791L14.0423 16.1583C14.2677 15.3312 14.3798 14.8597 14.6713 14.5491L14.6718 14.5486C14.8913 14.3136 15.176 14.1492 15.4889 14.0763C15.9954 13.9583 16.573 14.1683 17.7449 14.4826C18.9174 14.7969 19.5223 14.903 19.9021 15.2592C20.1372 15.4792 20.3016 15.7634 20.3749 16.0763C20.4924 16.5837 20.282 17.1608 19.9682 18.3328L19.6543 19.5061Z" fill="black"/>
<path fill-rule="evenodd" clip-rule="evenodd" d="M14.567 20.6428L16.327 21.1143C16.7556 21.2291 17.1966 20.9744 17.3113 20.5458C17.4261 20.1177 17.1715 19.6768 16.7429 19.562L14.9829 19.0905C14.5543 18.9758 14.1134 19.2304 13.999 19.659C13.8842 20.0876 14.1389 20.5285 14.567 20.6428ZM15.1847 18.1987L18.118 18.9844C18.5462 19.0992 18.9875 18.8446 19.1023 18.416C19.2171 17.9878 18.9625 17.5469 18.5339 17.4321L15.6005 16.6459C15.1724 16.5312 14.731 16.7858 14.6162 17.2144C14.5014 17.6425 14.756 18.0839 15.1847 18.1987Z" fill="black"/>
</svg>
