<svg width="24" height="24" viewBox="0 0 24 24" fill="none" xmlns="http://www.w3.org/2000/svg">
<g clip-path="url(#clip0_221_15913)">
<path fill-rule="evenodd" clip-rule="evenodd" d="M11.0015 1.25C9.74175 1.25 8.53357 1.75044 7.64277 2.64124C6.75197 3.53204 6.25153 4.74022 6.25153 6C6.25153 7.25978 6.75197 8.46796 7.64277 9.35876C8.53357 10.2496 9.74175 10.75 11.0015 10.75C12.2613 10.75 13.4695 10.2496 14.3603 9.35876C15.2511 8.46796 15.7515 7.25978 15.7515 6C15.7515 4.74022 15.2511 3.53204 14.3603 2.64124C13.4695 1.75044 12.2613 1.25 11.0015 1.25ZM7.75153 6C7.75153 5.13805 8.09394 4.3114 8.70343 3.7019C9.31292 3.09241 10.1396 2.75 11.0015 2.75C11.8635 2.75 12.6901 3.09241 13.2996 3.7019C13.9091 4.3114 14.2515 5.13805 14.2515 6C14.2515 6.86195 13.9091 7.6886 13.2996 8.2981C12.6901 8.90759 11.8635 9.25 11.0015 9.25C10.1396 9.25 9.31292 8.90759 8.70343 8.2981C8.09394 7.6886 7.75153 6.86195 7.75153 6Z" fill="black"/>
<path d="M13.7323 12.5046C12.8322 12.3336 11.9178 12.2484 11.0015 12.25C8.68852 12.25 6.55652 12.776 4.97752 13.664C3.42152 14.54 2.25152 15.866 2.25152 17.5V17.602C2.25052 18.764 2.24952 20.222 3.52852 21.264C4.15752 21.776 5.03852 22.141 6.22852 22.381C7.42052 22.623 8.97552 22.75 11.0015 22.75C13.8695 22.75 15.8115 22.496 17.1215 22.009C18.292 21.5722 18.9883 20.9363 19.3633 20.1347C18.6635 20.5373 17.852 20.7676 16.9866 20.7676C16.7421 20.7676 16.5019 20.7493 16.2673 20.7138C15.1959 21.0428 13.5433 21.25 11.0015 21.25C9.02652 21.25 7.58152 21.125 6.52452 20.911C5.46452 20.697 4.84452 20.402 4.47452 20.101C3.79052 19.544 3.75052 18.808 3.75052 17.5C3.75052 16.649 4.37252 15.725 5.71152 14.972C7.02752 14.232 8.89552 13.75 11.0015 13.75C11.5922 13.75 12.1676 13.7882 12.7176 13.8598C12.9736 13.3489 13.3187 12.8904 13.7323 12.5046Z" fill="black"/>
<path fill-rule="evenodd" clip-rule="evenodd" d="M13.2792 17.1359L13.2782 17.1379L12.7742 18.6499C12.7362 18.7629 12.7172 18.8809 12.7172 18.9999C12.7172 19.6069 13.2162 20.1059 13.8222 20.1059C13.9422 20.1059 14.0602 20.0869 14.1733 20.0489L15.6883 19.5439C15.9483 19.4569 16.1253 19.3979 16.2943 19.3169C16.4983 19.2199 16.6893 19.1019 16.8673 18.9629C16.8683 18.9619 16.8693 18.9609 16.8703 18.9599C17.0363 18.8239 17.1943 18.6769 17.3423 18.5209L20.7964 15.0648C21.2194 14.6598 21.4584 14.0988 21.4584 13.5128C21.4584 12.3338 20.4884 11.3638 19.3094 11.3638C18.7233 11.3638 18.1623 11.6028 17.7573 12.0258L14.3233 15.4609L14.3023 15.4818L14.3033 15.4858L14.3013 15.4829C14.1073 15.6769 13.9752 15.8089 13.8602 15.9569C13.7222 16.1339 13.6032 16.3259 13.5062 16.5299C13.4262 16.6979 13.3662 16.8749 13.2792 17.1359ZM14.4313 18.4439L14.3783 18.3909L14.6353 17.6219C14.7293 17.3399 14.7623 17.2399 14.8053 17.1479C14.8583 17.0389 14.9213 16.9369 14.9953 16.8419C15.0573 16.7619 15.1323 16.6869 15.3423 16.4769L17.6483 14.1708C17.7753 14.3728 17.9243 14.5598 18.0933 14.7288C18.2623 14.8978 18.4493 15.0468 18.6513 15.1729L16.3453 17.4799C16.1353 17.6899 16.0603 17.7639 15.9813 17.8259C15.8853 17.8999 15.7823 17.9639 15.6733 18.0169C15.5823 18.0599 15.4823 18.0929 15.2003 18.1869L14.4313 18.4439ZM19.7784 13.0438C19.6454 12.9108 19.4654 12.8358 19.2774 12.8358C19.0894 12.8358 18.9094 12.9108 18.7763 13.0438L18.7193 13.0998C18.7843 13.2738 18.9013 13.4978 19.1124 13.7098C19.2844 13.8838 19.4944 14.0178 19.7234 14.1018L19.7784 14.0458C19.9114 13.9128 19.9864 13.7328 19.9864 13.5448C19.9864 13.3568 19.9114 13.1768 19.7784 13.0438Z" fill="black"/>
</g>
<defs>
<clipPath id="clip0_221_15913">
<rect width="21.5" height="21.5" fill="white" transform="translate(1.25 1.25)"/>
</clipPath>
</defs>
</svg>
