<svg width="24" height="24" viewBox="0 0 24 24" fill="none" xmlns="http://www.w3.org/2000/svg">
<g clip-path="url(#clip0_221_15953)">
<path fill-rule="evenodd" clip-rule="evenodd" d="M13 1.25C11.7402 1.25 10.532 1.75044 9.64124 2.64124C8.75044 3.53204 8.24999 4.74022 8.24999 6C8.24999 7.25978 8.75044 8.46796 9.64124 9.35876C10.532 10.2496 11.7402 10.75 13 10.75C14.2598 10.75 15.468 10.2496 16.3588 9.35876C17.2495 8.46796 17.75 7.25978 17.75 6C17.75 4.74022 17.2495 3.53204 16.3588 2.64124C15.468 1.75044 14.2598 1.25 13 1.25ZM9.74999 6C9.74999 5.13805 10.0924 4.3114 10.7019 3.7019C11.3114 3.09241 12.138 2.75 13 2.75C13.8619 2.75 14.6886 3.09241 15.2981 3.7019C15.9076 4.3114 16.25 5.13805 16.25 6C16.25 6.86195 15.9076 7.6886 15.2981 8.2981C14.6886 8.90759 13.8619 9.25 13 9.25C12.138 9.25 11.3114 8.90759 10.7019 8.2981C10.0924 7.6886 9.74999 6.86195 9.74999 6ZM13 12.25C10.687 12.25 8.55499 12.776 6.97599 13.664C5.41999 14.54 4.24999 15.866 4.24999 17.5V17.602C4.24899 18.764 4.24799 20.222 5.52699 21.264C6.15599 21.776 7.03699 22.141 8.22699 22.381C9.41899 22.623 10.974 22.75 13 22.75C15.026 22.75 16.58 22.623 17.774 22.381C18.964 22.141 19.844 21.776 20.474 21.264C21.753 20.222 21.751 18.764 21.75 17.602V17.5C21.75 15.866 20.58 14.54 19.025 13.664C17.445 12.776 15.314 12.25 13 12.25ZM5.74999 17.5C5.74999 16.649 6.37199 15.725 7.71099 14.972C9.02699 14.232 10.895 13.75 13.001 13.75C15.105 13.75 16.973 14.232 18.289 14.972C19.629 15.725 20.25 16.649 20.25 17.5C20.25 18.808 20.21 19.544 19.526 20.1C19.156 20.402 18.536 20.697 17.476 20.911C16.419 21.125 14.974 21.25 13 21.25C11.026 21.25 9.58 21.125 8.52399 20.911C7.46399 20.697 6.84399 20.402 6.47399 20.101C5.78999 19.544 5.74999 18.808 5.74999 17.5Z" fill="black"/>
</g>
<defs>
<clipPath id="clip0_221_15953">
<rect width="21.5" height="21.5" fill="white" transform="translate(2.25 1.25)"/>
</clipPath>
</defs>
</svg>
