<svg width="24" height="24" viewBox="0 0 24 24" fill="none" xmlns="http://www.w3.org/2000/svg">
<path fill-rule="evenodd" clip-rule="evenodd" d="M14.9346 4.49463C12.9966 4.49463 11.4329 6.06664 11.4329 8.00465C11.4329 9.93434 12.9966 11.5063 14.9346 11.5063C16.8643 11.5063 18.4364 9.93434 18.4364 8.00465C18.4364 6.06664 16.8643 4.49463 14.9346 4.49463ZM14.9346 5.95854C16.0575 5.95854 16.9725 6.87345 16.9725 8.00465C16.9725 9.12753 16.0575 10.0424 14.9346 10.0424C13.8034 10.0424 12.8968 9.12753 12.8968 8.00465C12.8968 6.87345 13.8034 5.95854 14.9346 5.95854Z" fill="black"/>
<path fill-rule="evenodd" clip-rule="evenodd" d="M9.51165 1H15.4756C16.8102 1 17.8872 1 18.7336 1.11421C19.6121 1.23135 20.3516 1.48467 20.9395 2.07184C21.5274 2.65901 21.7792 3.39919 21.8978 4.27774C22.0113 5.12408 22.0113 6.20105 22.0113 7.53499V15.4522C22.0113 16.7862 22.0113 17.8631 21.8978 18.7095C21.7792 19.588 21.5274 20.3282 20.9395 20.9154C20.3516 21.5033 19.6121 21.7551 18.7336 21.8745C17.8872 21.9872 16.8102 21.9872 15.4756 21.9872H9.51165L8.63382 21.9865C8.60161 21.988 8.56867 21.988 8.53645 21.9865C7.64033 21.9799 6.8833 21.9579 6.25367 21.8745C5.37512 21.7551 4.63567 21.5033 4.04777 20.9154C3.45987 20.3282 3.20801 19.588 3.09014 18.7095C2.9957 18.0118 2.97959 17.1574 2.97666 16.1302H2.73213C2.33019 16.1302 2 15.8 2 15.3981C2 14.9969 2.33019 14.6659 2.73213 14.6659H2.97593V12.2257H2.73213C2.33019 12.2257 2 11.8955 2 11.4936C2 11.0917 2.33019 10.7615 2.73213 10.7615H2.97593V8.32129H2.73213C2.33019 8.32129 2 7.99037 2 7.58916C2 7.18723 2.33019 6.85704 2.73213 6.85704H2.97593C2.97959 5.82986 2.9957 4.97546 3.09014 4.27774C3.20728 3.39919 3.46133 2.65901 4.04777 2.07184C4.63567 1.48394 5.37512 1.23208 6.25367 1.11421C7.10001 1 8.17698 1 9.51165 1ZM4.44019 8.32129H4.68399C5.08593 8.32129 5.41612 7.99037 5.41612 7.58916C5.41612 7.18723 5.08593 6.85704 4.68399 6.85704H4.44019C4.44385 5.83571 4.45995 5.0743 4.54049 4.47322C4.63713 3.75647 4.81431 3.37796 5.08373 3.10707C5.35388 2.83691 5.7324 2.6612 6.44988 2.56456C6.84084 2.51185 7.30135 2.48622 7.85704 2.47451V20.5134C7.38628 20.5098 6.91625 20.4798 6.44915 20.4234C5.7324 20.3268 5.35388 20.1503 5.08373 19.8809C4.81284 19.6107 4.63713 19.2315 4.54049 18.514C4.45995 17.9137 4.44385 17.1522 4.44092 16.1316H4.68399C5.08593 16.1316 5.41612 15.8007 5.41612 15.3995C5.41612 14.9976 5.08593 14.6674 4.68399 14.6674H4.44019V12.2265H4.68399C5.08593 12.2265 5.41612 11.8963 5.41612 11.4943C5.41612 11.0931 5.08593 10.7622 4.68399 10.7622H4.44019V8.32129ZM9.32129 20.523H15.4221C16.8227 20.523 17.8001 20.5215 18.5381 20.4227C19.2548 20.326 19.6333 20.1496 19.9035 19.8802C20.1744 19.6093 20.3501 19.2308 20.4467 18.5133C20.5448 17.776 20.547 16.7994 20.547 15.3981V7.58916C20.547 6.18787 20.5448 5.20974 20.4467 4.47322C20.3501 3.75647 20.1729 3.37796 19.9035 3.10707C19.6333 2.83691 19.2548 2.6612 18.5373 2.56456C17.8001 2.46572 16.8227 2.46426 15.4221 2.46426H9.32129V20.523Z" fill="black"/>
<path fill-rule="evenodd" clip-rule="evenodd" d="M11.4011 16.1451C11.4011 16.1451 11.5475 12.7382 14.9349 12.7382C18.3125 12.7382 18.4589 16.1451 18.4589 16.1451C18.4784 16.5453 18.8201 16.8675 19.2203 16.848C19.6303 16.8285 19.9427 16.4868 19.9232 16.0866C19.9232 16.0866 19.7084 11.2739 14.9349 11.2739C10.1516 11.2739 9.93681 16.0768 9.93681 16.0768C9.92705 16.4868 10.2394 16.8285 10.6396 16.848C11.0399 16.8675 11.3816 16.5453 11.4011 16.1451Z" fill="black"/>
</svg>
