<svg width="24" height="24" viewBox="0 0 24 24" fill="none" xmlns="http://www.w3.org/2000/svg">
<path fill-rule="evenodd" clip-rule="evenodd" d="M11.8854 22.9586H12.3881H12.3967H13.0101C14.0581 22.9586 14.9358 22.1576 15.0295 21.1181L15.4044 17.1901C15.9668 17.1646 16.5036 16.9345 16.9041 16.534C17.3216 16.1165 17.5516 15.5542 17.5516 14.9663C17.5516 14.5829 17.5516 13.9864 17.5516 13.5433C17.5516 12.2141 17.0233 10.9445 16.086 10.0073C15.1488 9.06148 13.8793 8.54175 12.5501 8.54175C12.5075 8.54175 12.4649 8.54176 12.4308 8.55028C12.3967 8.54176 12.3711 8.54175 12.3371 8.54175C11.0164 8.54175 9.73827 9.07 8.801 10.0073C7.86374 10.9445 7.33539 12.2226 7.33539 13.5433C7.33539 13.9949 7.33539 14.5914 7.33539 14.9663C7.33539 15.5542 7.57398 16.1251 7.99149 16.5426C8.38343 16.943 8.92023 17.1731 9.48259 17.1901L9.85754 21.1181C9.95979 22.1661 10.8374 22.9586 11.8854 22.9586ZM12.4477 10.0414H12.5501C13.4788 10.0414 14.3734 10.4077 15.0295 11.0638C15.6856 11.7199 16.052 12.6146 16.052 13.5433V14.9663C16.052 15.1537 15.9753 15.3412 15.839 15.4775C15.7027 15.6138 15.5237 15.6905 15.3277 15.6905H14.7313C13.9474 15.6053 13.9559 16.5766 13.9729 16.3636C13.9729 16.3636 13.7003 19.2861 13.5384 20.9732C13.5128 21.2459 13.2828 21.4589 13.0101 21.4589H12.3967C12.3711 21.4589 12.337 21.4589 12.3115 21.4589H11.8854C11.6043 21.4589 11.3742 21.2459 11.3486 20.9732C11.1953 19.2947 10.9141 16.3721 10.9141 16.3721C10.9141 16.3721 10.9056 15.682 10.1643 15.6905H9.55935C9.37189 15.6905 9.18436 15.6138 9.04803 15.4775C8.9117 15.3412 8.83502 15.1623 8.83502 14.9663V13.5433C8.83502 12.6146 9.20146 11.7284 9.85754 11.0723C10.5221 10.4077 11.4083 10.0414 12.3371 10.0414H12.4477Z" fill="black"/>
<path fill-rule="evenodd" clip-rule="evenodd" d="M12.4477 1.42725C10.4624 1.42725 8.8606 3.03761 8.8606 5.0229C8.8606 6.99967 10.4624 8.61002 12.4477 8.61002C14.4245 8.61002 16.0349 6.99967 16.0349 5.0229C16.0349 3.03761 14.4245 1.42725 12.4477 1.42725ZM12.4477 2.92687C13.598 2.92687 14.5353 3.8641 14.5353 5.0229C14.5353 6.17317 13.598 7.11039 12.4477 7.11039C11.2889 7.11039 10.3602 6.17317 10.3602 5.0229C10.3602 3.8641 11.2889 2.92687 12.4477 2.92687Z" fill="black"/>
</svg>
