<svg width="24" height="24" viewBox="0 0 24 24" fill="none" xmlns="http://www.w3.org/2000/svg">
<path fill-rule="evenodd" clip-rule="evenodd" d="M4.93199 18.2331H9.29601C9.62601 18.2331 9.898 18.5701 9.898 18.9791C9.898 19.3881 9.62601 19.7261 9.29601 19.7261H4.95201L6.64903 21.4222C6.79903 21.5622 6.88499 21.7602 6.88499 21.9672C6.88499 22.3752 6.54903 22.7112 6.14103 22.7112C5.93403 22.7112 5.73599 22.6251 5.59599 22.4751L2.61698 19.4952C2.32898 19.2072 2.32898 18.7322 2.61698 18.4432L5.59599 15.4641C5.88399 15.1751 6.35903 15.1751 6.64903 15.4641C6.93703 15.7521 6.93703 16.2271 6.64903 16.5161L4.93199 18.2331ZM17.116 18.8471C16.356 18.3051 15.8601 17.4161 15.8601 16.4111C15.8601 14.7591 17.199 13.4121 18.85 13.4121C20.5021 13.4121 21.8421 14.7591 21.8421 16.4111C21.8421 17.4151 21.346 18.3041 20.586 18.8471C21.098 19.0031 21.4551 19.2191 21.7041 19.4281C22.2511 19.8731 22.3711 20.3372 22.3991 20.4202L22.418 20.5042C22.427 20.5972 22.427 20.6802 22.408 20.7452C22.362 21.0142 22.158 21.2272 21.88 21.2922C21.379 21.3942 21.054 20.7912 21.054 20.7912C21.054 20.7912 20.6001 20.0122 18.8651 20.0122H18.838C17.103 20.0122 16.6491 20.7912 16.6491 20.7912C16.6491 20.7912 16.3241 21.3942 15.8231 21.2922C15.5451 21.2272 15.341 21.0142 15.295 20.7452C15.276 20.6802 15.276 20.5972 15.285 20.5042L15.304 20.4202C15.332 20.3372 15.452 19.8731 16 19.4281C16.247 19.2201 16.604 19.0031 17.116 18.8471ZM18.85 14.8051C19.733 14.8051 20.449 15.5281 20.449 16.4111C20.449 17.2941 19.733 18.0091 18.85 18.0091C17.968 18.0091 17.2451 17.2941 17.2451 16.4111C17.2451 15.5281 17.968 14.8051 18.85 14.8051ZM12.0601 9.92513L12.026 9.92412C11.689 9.92412 11.407 10.1801 11.365 10.5071C10.538 10.7471 9.893 11.4251 9.893 12.3021C9.893 13.4041 10.914 14.1921 12.026 14.1921C12.498 14.1921 12.827 14.4601 12.827 14.7491C12.827 15.0381 12.498 15.3041 12.026 15.3041C11.555 15.3041 11.226 15.0381 11.226 14.7491C11.226 14.3821 10.925 14.0821 10.559 14.0821C10.193 14.0821 9.893 14.3821 9.893 14.7491C9.893 15.6261 10.538 16.3051 11.365 16.5451C11.407 16.8711 11.689 17.1281 12.026 17.1281C12.364 17.1281 12.646 16.8711 12.688 16.5451C13.515 16.3051 14.16 15.6261 14.16 14.7491C14.16 13.6471 13.139 12.8591 12.026 12.8591C11.555 12.8591 11.226 12.5911 11.226 12.3021C11.226 12.0151 11.555 11.7471 12.026 11.7471C12.498 11.7471 12.827 12.0151 12.827 12.3021C12.827 12.6691 13.128 12.9701 13.494 12.9701C13.86 12.9701 14.16 12.6691 14.16 12.3021C14.16 11.4251 13.515 10.7471 12.688 10.5071C12.648 10.1911 12.3831 9.94113 12.0601 9.92513ZM3.447 8.35112C2.686 7.80812 2.18997 6.91911 2.18997 5.9141C2.18997 4.2621 3.53001 2.9151 5.18101 2.9151C6.83301 2.9151 8.17204 4.2621 8.17204 5.9141C8.17204 6.91811 7.677 7.80811 6.916 8.35011C7.429 8.50611 7.78604 8.72314 8.03404 8.93114C8.58204 9.37614 8.70203 9.84012 8.73003 9.92312L8.74901 10.0071C8.75801 10.1001 8.758 10.1831 8.739 10.2481C8.693 10.5171 8.48899 10.7301 8.21098 10.7951C7.70998 10.8971 7.38499 10.2941 7.38499 10.2941C7.38499 10.2941 6.93103 9.51513 5.19602 9.51513H5.16801C3.43401 9.51513 2.98002 10.2941 2.98002 10.2941C2.98002 10.2941 2.65503 10.8971 2.15403 10.7951C1.87602 10.7301 1.67197 10.5171 1.62497 10.2481C1.60697 10.1831 1.607 10.1001 1.616 10.0071L1.63498 9.92312C1.66298 9.84012 1.78299 9.37614 2.32999 8.93114C2.57799 8.72314 2.935 8.50712 3.447 8.35112ZM16.079 5.87013H11.715C11.385 5.87013 11.113 5.53312 11.113 5.12312C11.113 4.71412 11.385 4.37711 11.715 4.37711H16.059L14.362 2.68112C14.212 2.54012 14.126 2.34311 14.126 2.13611C14.126 1.72811 14.4621 1.39111 14.8701 1.39111C15.0771 1.39111 15.274 1.47711 15.415 1.62811L18.3941 4.60712C18.6821 4.89613 18.6821 5.37113 18.3941 5.65913L15.415 8.63912C15.127 8.92712 14.652 8.92712 14.362 8.63912C14.074 8.35012 14.074 7.87511 14.362 7.58711L16.079 5.87013ZM5.18101 4.30811C6.06401 4.30811 6.78001 5.0311 6.78001 5.9141C6.78001 6.79711 6.06401 7.51213 5.18101 7.51213C4.29801 7.51213 3.57499 6.79711 3.57499 5.9141C3.57499 5.0311 4.29801 4.30811 5.18101 4.30811Z" fill="black"/>
</svg>
