<svg width="24" height="24" viewBox="0 0 24 24" fill="none" xmlns="http://www.w3.org/2000/svg">
<path fill-rule="evenodd" clip-rule="evenodd" d="M12.2257 1C10.2404 1 8.63855 2.61036 8.63855 4.59565C8.63855 6.57242 10.2404 8.18277 12.2257 8.18277C14.2024 8.18277 15.8129 6.57242 15.8129 4.59565C15.8129 2.61036 14.2024 1 12.2257 1ZM12.2257 2.49963C13.3759 2.49963 14.3133 3.43686 14.3133 4.59565C14.3133 5.74593 13.3759 6.68315 12.2257 6.68315C11.0669 6.68315 10.1382 5.74593 10.1382 4.59565C10.1382 3.43686 11.0669 2.49963 12.2257 2.49963Z" fill="black"/>
<path fill-rule="evenodd" clip-rule="evenodd" d="M12.2939 8.12329H12.1491C12.1491 8.12329 11.6208 8.1744 11.1692 8.217C10.5046 8.28517 9.92525 8.71967 9.68668 9.34167L7.12198 15.8259C6.90897 16.3797 6.97711 17.0017 7.30941 17.4959C7.64171 17.9816 8.19554 18.2797 8.79198 18.2797H9.23506C9.37139 18.2797 9.49064 18.3735 9.5162 18.5098C9.66957 19.2596 9.88267 20.3417 10.0275 21.0916C10.1979 21.9266 10.9307 22.5316 11.7912 22.5316H12.6603C13.5124 22.5316 14.2536 21.9266 14.4155 21.0916C14.5689 20.3417 14.782 19.2596 14.9268 18.5098C14.9524 18.3735 15.0717 18.2797 15.2165 18.2797H15.6511C16.2475 18.2797 16.8013 17.9816 17.1336 17.4959C17.4659 17.0017 17.5341 16.3797 17.3211 15.8259L14.7649 9.34167C14.5178 8.71967 13.9384 8.28517 13.2738 8.217C12.8222 8.1744 12.2939 8.12329 12.2939 8.12329ZM12.2258 9.62292L13.129 9.7081C13.2313 9.71662 13.3249 9.79328 13.3675 9.89553L15.9237 16.3797C15.9578 16.4649 15.9493 16.5672 15.8982 16.6524C15.8386 16.7291 15.7533 16.7717 15.6511 16.7717H15.2165C14.3559 16.7717 13.6232 17.3766 13.4528 18.2201C13.308 18.9699 13.0949 20.0521 12.9415 20.8019C12.9159 20.9382 12.7967 21.032 12.6603 21.032H11.7912C11.6464 21.032 11.5271 20.9382 11.5016 20.8019C11.3567 20.0521 11.1352 18.9699 10.9903 18.2201C10.8285 17.3766 10.0871 16.7717 9.23506 16.7717H8.79198C8.69825 16.7717 8.6046 16.7291 8.55348 16.6524C8.49384 16.5672 8.48528 16.4649 8.51937 16.3797L11.0755 9.89553C11.1181 9.79328 11.2119 9.71662 11.3227 9.7081L12.2258 9.62292Z" fill="black"/>
</svg>
