<svg width="24" height="24" viewBox="0 0 24 24" fill="none" xmlns="http://www.w3.org/2000/svg">
<path fill-rule="evenodd" clip-rule="evenodd" d="M10.9395 1C8.25411 1 6.07349 3.18062 6.07349 5.86605C6.07349 8.55149 8.25411 10.7321 10.9395 10.7321C13.625 10.7321 15.8056 8.55149 15.8056 5.86605C15.8056 3.18062 13.625 1 10.9395 1ZM10.9395 2.53673C12.7775 2.53673 14.2689 4.02813 14.2689 5.86605C14.2689 7.70398 12.7775 9.19538 10.9395 9.19538C9.10161 9.19538 7.61022 7.70398 7.61022 5.86605C7.61022 4.02813 9.10161 2.53673 10.9395 2.53673Z" fill="black"/>
<path fill-rule="evenodd" clip-rule="evenodd" d="M18.1796 16.268L18.2282 16.3573C18.7011 17.2833 18.3662 18.444 17.4557 18.9697C16.5158 19.5123 15.2967 19.1857 14.7541 18.2458C14.2114 17.3059 14.5381 16.0868 15.4779 15.5441C16.4178 15.0015 17.637 15.3281 18.1796 16.268ZM15.8 17.6419C15.5954 17.2876 15.7081 16.8314 16.0486 16.6107L16.0818 16.5901C16.4474 16.379 16.9226 16.5063 17.1337 16.8719C17.3447 17.2375 17.2174 17.7127 16.8518 17.9237C16.4862 18.1348 16.011 18.0075 15.8 17.6419Z" fill="black"/>
<path fill-rule="evenodd" clip-rule="evenodd" d="M14.5298 21.491C14.0522 21.6206 13.581 21.7315 13.1178 21.8203C12.4271 21.9387 11.6964 22.0017 10.9395 22.0017C8.36626 22.0017 6.09267 21.2633 4.67965 20.1622C3.59932 19.3201 3 18.2597 3 17.1356C3 16.0107 3.59932 14.9504 4.67965 14.109C6.09267 13.0072 8.36626 12.2688 10.9395 12.2688C12.2766 12.2688 13.5342 12.4674 14.6298 12.8126C14.8031 12.5069 15.0737 12.2654 15.402 12.1293C15.5683 12.0604 15.7382 12.0315 15.9201 12.0182L16.4758 12.0088L16.4787 12.0086C16.6894 12.0088 16.8657 12.0093 17.0111 12.0187C17.1866 12.0257 17.3609 12.0619 17.5248 12.1268C17.5277 12.1266 17.5301 12.1282 17.5319 12.1287C17.9198 12.2899 18.2291 12.5988 18.3895 12.986L18.3901 12.9872C18.4702 13.1832 18.4971 13.3888 18.5048 13.6131L18.5052 13.6218C18.5053 13.6428 18.516 13.6637 18.5367 13.6788C18.5558 13.6859 18.5773 13.684 18.5953 13.6736L18.6032 13.669C18.803 13.5642 18.9932 13.4845 19.2028 13.4567C19.6198 13.4025 20.0416 13.5156 20.3757 13.771C20.377 13.7733 20.3788 13.7737 20.3812 13.7753C20.5186 13.8856 20.6368 14.0174 20.7322 14.167L21.0058 14.6228L21.0128 14.6323L21.0215 14.6473C21.1264 14.8291 21.2129 14.9816 21.2768 15.1102C21.356 15.2736 21.4172 15.4369 21.4401 15.6147C21.4954 16.031 21.3824 16.4528 21.1263 16.7858C20.997 16.9552 20.8317 17.0807 20.6422 17.2006L20.6355 17.2045C20.6163 17.2156 20.6034 17.2351 20.6003 17.2609C20.6044 17.2811 20.6178 17.299 20.6348 17.3103C20.6366 17.3107 20.639 17.3123 20.6408 17.3128C20.8319 17.4327 20.9965 17.5588 21.1262 17.7261L21.1268 17.7272C21.3827 18.061 21.4949 18.4821 21.4394 18.8993C21.4396 18.9022 21.4391 18.904 21.4386 18.9057C21.4124 19.0818 21.3561 19.2527 21.2744 19.4082L21.0169 19.8743C21.0104 19.8854 21.0035 19.8973 20.9974 19.908C21.0006 19.9023 21.0043 19.8957 21.0084 19.8882C20.9214 20.0423 20.8308 20.1954 20.7362 20.3418C20.6403 20.4935 20.5205 20.6273 20.3818 20.7389L20.375 20.7429C20.0425 20.9981 19.6209 21.1121 19.2037 21.0566C18.9936 21.0289 18.8014 20.9488 18.6043 20.8445L18.6025 20.844C18.5808 20.8325 18.5553 20.8247 18.5343 20.8353C18.5164 20.8486 18.506 20.8696 18.5056 20.8924C18.5058 20.8953 18.506 20.8982 18.505 20.9018C18.4968 21.1247 18.4701 21.3312 18.389 21.5269C18.2285 21.916 17.919 22.2241 17.5317 22.3845C17.366 22.4545 17.1955 22.4823 17.0136 22.4956C16.8677 22.5061 16.6903 22.5062 16.4778 22.5055L16.4556 22.5063L15.9197 22.4952C15.7398 22.4833 15.5682 22.4545 15.4017 22.3851C15.0138 22.2239 14.7053 21.9161 14.5442 21.5277C14.5392 21.5155 14.5344 21.5033 14.5298 21.491ZM12.2337 20.3939C11.8148 20.4406 11.3821 20.4649 10.9395 20.4649C8.75966 20.4649 6.82108 19.8833 5.62397 18.9497C4.96394 18.4357 4.53673 17.8225 4.53673 17.1356C4.53673 16.4479 4.96394 15.8355 5.62397 15.3207C6.82108 14.3879 8.75966 13.8055 10.9395 13.8055C11.4467 13.8055 11.9407 13.8374 12.4157 13.8982C12.337 13.9787 12.2682 14.0679 12.2034 14.1641L11.9268 14.6231C11.9223 14.6311 11.918 14.6386 11.914 14.6457L11.9093 14.6528C11.9048 14.6615 11.9007 14.6691 11.8971 14.6758C11.8847 14.6983 11.8776 14.7116 11.8773 14.7125C11.8772 14.7127 11.8775 14.7122 11.8782 14.711L11.6567 15.1115C11.5766 15.2751 11.5169 15.4375 11.4931 15.6152C11.4388 16.0317 11.5517 16.4539 11.8069 16.7865L11.8075 16.7877C11.9372 16.955 12.1018 17.0811 12.2929 17.201C12.2946 17.2014 12.297 17.203 12.2994 17.2046C12.3164 17.2158 12.3292 17.2327 12.3333 17.2528C12.3309 17.2798 12.3185 17.2975 12.3004 17.3079C12.2988 17.3089 12.2975 17.31 12.2963 17.3111C12.295 17.3122 12.2938 17.3133 12.2921 17.3143C12.1019 17.4331 11.9355 17.5592 11.8073 17.728C11.5512 18.0609 11.4382 18.4827 11.4936 18.8991C11.5165 19.0769 11.5776 19.2402 11.6569 19.4035L11.9267 19.8917L12.2035 20.3502C12.2134 20.3649 12.2235 20.3795 12.2337 20.3939ZM11.8971 14.6758C11.8893 14.6906 11.8839 14.7006 11.8807 14.7064L11.9158 14.643L11.914 14.6457C11.9076 14.657 11.902 14.6671 11.8971 14.6758ZM19.3782 14.7847C19.4436 14.7755 19.5095 14.7931 19.5609 14.8327C19.5735 14.8421 19.5844 14.8584 19.6035 14.887C19.6084 14.8943 19.6138 14.9024 19.6199 14.9114C19.6723 14.9885 19.7315 15.0913 19.8143 15.235C19.8266 15.2564 19.8395 15.2787 19.8529 15.3019C19.8664 15.3254 19.8794 15.3478 19.8918 15.3693C19.9751 15.5133 20.0341 15.6152 20.0753 15.7001C20.0801 15.7101 20.0844 15.719 20.0884 15.727C20.1032 15.757 20.112 15.7748 20.1133 15.7895C20.1225 15.8549 20.1042 15.9196 20.0642 15.9728C20.0494 15.9916 20.0202 16.01 19.9621 16.0465C19.952 16.0529 19.9411 16.0597 19.9292 16.0673C19.5299 16.3189 19.2615 16.7582 19.2605 17.2567C19.2612 17.7557 19.5298 18.1949 19.9296 18.447C19.9389 18.4528 19.9476 18.4583 19.9557 18.4633C20.0178 18.502 20.0479 18.5208 20.063 18.54L20.0643 18.5423C20.1048 18.5941 20.1216 18.6596 20.1138 18.7243C20.1113 18.7394 20.102 18.7584 20.0857 18.7916C20.0822 18.7986 20.0784 18.8064 20.0743 18.8148C20.0264 18.9117 19.9578 19.0326 19.8535 19.2116L19.6196 19.6039C19.6125 19.6142 19.6063 19.6234 19.6008 19.6314C19.5839 19.6566 19.574 19.6712 19.5634 19.6785C19.5628 19.6788 19.5624 19.6794 19.562 19.68C19.5616 19.6806 19.5612 19.6812 19.5607 19.6815C19.5082 19.7209 19.4433 19.7388 19.3786 19.731C19.3537 19.7268 19.323 19.7107 19.2569 19.6761C19.2481 19.6714 19.2386 19.6665 19.2285 19.6612C18.8108 19.4405 18.2956 19.4265 17.8635 19.676C17.4313 19.9255 17.186 20.3786 17.1682 20.8507C17.1677 20.861 17.1673 20.8707 17.167 20.8798C17.1639 20.9564 17.1624 20.9917 17.1524 21.0163C17.128 21.0755 17.0789 21.1234 17.0186 21.1492C17.0186 21.1492 17.0168 21.1487 17.0157 21.1494C17.0018 21.1561 16.9813 21.157 16.9444 21.1587C16.9376 21.159 16.9303 21.1593 16.9223 21.1597L16.4663 21.1672C16.2591 21.1679 16.119 21.1676 16.0112 21.1607C16.0065 21.1603 16.002 21.16 15.9977 21.1597C15.9533 21.1566 15.93 21.1549 15.9142 21.149C15.8543 21.1234 15.8059 21.0761 15.7812 21.0151L15.7799 21.0128C15.7714 20.9917 15.7703 20.9601 15.7679 20.896C15.7674 20.8825 15.7668 20.8675 15.7661 20.8508C15.7483 20.3797 15.5017 19.9263 15.0699 19.6762C14.6387 19.4271 14.123 19.4406 13.7054 19.6606L13.7043 19.6612C13.6921 19.6676 13.6809 19.6735 13.6706 19.679C13.6097 19.7111 13.5798 19.7268 13.556 19.7303C13.49 19.7383 13.4241 19.7207 13.3727 19.6811C13.3607 19.6726 13.3496 19.656 13.3305 19.6274C13.3255 19.6199 13.32 19.6116 13.3137 19.6024C13.2615 19.5255 13.203 19.424 13.1205 19.2807C13.1078 19.2587 13.0946 19.2358 13.0808 19.2118C13.067 19.188 13.0538 19.1653 13.0412 19.1434C12.9586 19.0007 12.8995 18.8984 12.859 18.8148C12.8543 18.805 12.85 18.7962 12.8461 18.7884C12.8308 18.7575 12.8222 18.74 12.8203 18.7243C12.8118 18.66 12.8294 18.5942 12.8701 18.5421L12.8694 18.541C12.8843 18.5221 12.9128 18.5042 12.9711 18.4675C12.981 18.4613 12.9917 18.4545 13.0033 18.4472L13.0044 18.4465C13.4038 18.1949 13.6728 17.7567 13.6732 17.257C13.6724 16.758 13.4038 16.3189 13.0047 16.0679L13.004 16.0668C12.9949 16.0611 12.9864 16.0558 12.9784 16.0508C12.916 16.0119 12.8858 15.993 12.8706 15.9738L12.8693 15.9715C12.8295 15.9208 12.8121 15.8541 12.8205 15.7906C12.8235 15.7723 12.8344 15.7495 12.8573 15.7032L13.0802 15.3022L13.3147 14.911C13.3203 14.9025 13.3253 14.8949 13.3298 14.8879C13.3485 14.8591 13.3589 14.8431 13.3702 14.8353C13.3714 14.8347 13.3725 14.834 13.373 14.8322C13.4244 14.7935 13.4904 14.775 13.5546 14.7846C13.5786 14.787 13.608 14.8023 13.667 14.8329C13.6785 14.8389 13.6912 14.8454 13.7052 14.8526C14.1229 15.0733 14.638 15.0873 15.0701 14.8378C15.5023 14.5883 15.7477 14.1352 15.7655 13.6631C15.7663 13.646 15.767 13.6306 15.7676 13.6168C15.7705 13.5526 15.7719 13.5205 15.7808 13.4993C15.8057 13.4383 15.8536 13.391 15.9139 13.3652C15.9157 13.3657 15.9168 13.365 15.918 13.3644C15.9294 13.3589 15.9475 13.3579 15.9769 13.3562C15.987 13.3557 15.9984 13.355 16.0113 13.3541L16.4673 13.3466C16.4896 13.3466 16.5111 13.3466 16.5319 13.3467C16.7047 13.3469 16.8263 13.347 16.9231 13.3542C16.9758 13.3569 17.0022 13.3583 17.0201 13.3659C17.0794 13.3904 17.1284 13.4388 17.1524 13.4987L17.1537 13.5009C17.1628 13.5236 17.164 13.5591 17.1665 13.6322C17.1668 13.6418 17.1671 13.652 17.1675 13.663C17.1853 14.1341 17.4309 14.5881 17.8638 14.8376C18.2967 15.0871 18.8118 15.0726 19.2294 14.8525C19.2416 14.8462 19.2528 14.8403 19.263 14.8348C19.324 14.8027 19.3538 14.787 19.3776 14.7835L19.3782 14.7847Z" fill="black"/>
<path d="M20.9974 19.908C20.9877 19.9249 20.98 19.9387 20.9785 19.9415C20.977 19.9442 20.9819 19.9358 20.9974 19.908Z" fill="black"/>
</svg>
