<svg width="24" height="24" viewBox="0 0 24 24" fill="none" xmlns="http://www.w3.org/2000/svg">
<path fill-rule="evenodd" clip-rule="evenodd" d="M12.0134 5.52979C9.9809 5.52979 8.341 7.17842 8.341 9.21089C8.341 11.2346 9.9809 12.8833 12.0134 12.8833C14.0371 12.8833 15.6859 11.2346 15.6859 9.21089C15.6859 7.17842 14.0371 5.52979 12.0134 5.52979ZM12.0134 7.06505C13.191 7.06505 14.1506 8.02456 14.1506 9.21089C14.1506 10.3885 13.191 11.348 12.0134 11.348C10.827 11.348 9.87627 10.3885 9.87627 9.21089C9.87627 8.02456 10.827 7.06505 12.0134 7.06505Z" fill="black"/>
<path fill-rule="evenodd" clip-rule="evenodd" d="M8.30459 17.7477C8.30459 17.7477 8.45815 14.1748 12.0106 14.1748C15.5528 14.1748 15.7064 17.7477 15.7064 17.7477C15.7269 18.1675 16.0852 18.5054 16.505 18.485C16.9349 18.4645 17.2625 18.1061 17.242 17.6864C17.242 17.6864 17.0168 12.6392 12.0106 12.6392C6.99416 12.6392 6.76894 17.6761 6.76894 17.6761C6.7587 18.1061 7.08628 18.4645 7.50602 18.485C7.92577 18.5054 8.28411 18.1675 8.30459 17.7477Z" fill="black"/>
<path fill-rule="evenodd" clip-rule="evenodd" d="M12.0098 1C11.2847 1 10.6264 1.2074 9.91046 1.5546C9.2199 1.89105 8.42103 2.3865 7.42475 3.00485L5.30775 4.31915C4.36523 4.90524 3.60861 5.37381 3.02636 5.81933C2.42337 6.28022 1.96018 6.75186 1.62527 7.3633C1.29189 7.97243 1.14211 8.62152 1.06913 9.38889C1 10.1317 1 11.0412 1 12.1811V13.8326C1 15.7829 1 17.3223 1.1567 18.526C1.31647 19.7596 1.65446 20.7566 2.41646 21.544C3.18153 22.3359 4.154 22.6901 5.36075 22.8567C6.52833 23.0196 8.0216 23.0196 9.90201 23.0196H14.1176C15.998 23.0196 17.4913 23.0196 18.6588 22.8567C19.8641 22.6901 20.8381 22.3359 21.6047 21.544C22.3651 20.7566 22.7031 19.7596 22.8644 18.526C23.0196 17.3223 23.0196 15.7829 23.0196 13.8326V12.1811C23.0196 11.0412 23.0196 10.1325 22.9505 9.38889C22.8783 8.62075 22.7277 7.97243 22.3943 7.3633C22.0594 6.75186 21.5955 6.28175 20.9932 5.81933C20.411 5.37304 19.6551 4.90524 18.7118 4.31915L16.5948 3.00485C15.5986 2.3865 14.7997 1.89105 14.1084 1.5546C13.3948 1.20663 12.7357 1 12.0098 1ZM8.1998 4.3322C9.2391 3.68696 9.97191 3.23453 10.5834 2.93649C11.1779 2.6469 11.6004 2.53629 12.0098 2.53629C12.4192 2.53629 12.8417 2.6469 13.4362 2.93649C14.0492 3.23376 14.7805 3.68696 15.8198 4.3322L17.8684 5.60348C18.8524 6.21492 19.5437 6.64432 20.0599 7.03914C20.5608 7.42321 20.8488 7.73969 21.0462 8.10071C21.2436 8.46174 21.3596 8.88499 21.4203 9.53253C21.4825 10.1962 21.4833 11.0327 21.4833 12.2187V13.7765C21.4833 15.7944 21.4818 17.2339 21.3404 18.327C21.2006 19.4001 20.9379 20.0231 20.5001 20.477C20.0653 20.9264 19.4731 21.1937 18.4476 21.3358C17.3968 21.4818 16.0111 21.4833 14.0584 21.4833H9.96116C8.007 21.4833 6.62281 21.4818 5.57199 21.3358C4.54652 21.1929 3.95428 20.9264 3.52028 20.4755C3.08167 20.0231 2.81896 19.4001 2.6807 18.327C2.53705 17.2339 2.53629 15.7952 2.53629 13.7765V12.2187C2.53629 11.0327 2.53629 10.1962 2.59927 9.53253C2.65996 8.88499 2.77595 8.46174 2.97336 8.10071C3.17077 7.73969 3.45883 7.42321 3.96042 7.03914C4.47585 6.64432 5.16718 6.21492 6.15117 5.60348L8.1998 4.3322Z" fill="black"/>
</svg>
