<svg width="24" height="24" viewBox="0 0 24 24" fill="none" xmlns="http://www.w3.org/2000/svg">
<path fill-rule="evenodd" clip-rule="evenodd" d="M11.6226 1.21509C5.55557 1.21509 0.622559 6.1481 0.622559 12.2151C0.622559 18.2911 5.55557 23.2161 11.6226 23.2161C17.6976 23.2161 22.6196 18.2911 22.6196 12.2151C22.6196 6.1481 17.6976 1.21509 11.6226 1.21509ZM18.5566 18.6601C16.8276 20.5201 14.3596 21.6851 11.6226 21.6851C8.85358 21.6851 6.36161 20.4921 4.6316 18.5931C4.6476 18.5691 4.66258 18.5431 4.67658 18.5171C4.67658 18.5171 5.8006 16.5851 11.6266 16.5851C11.6676 16.5851 11.7076 16.5851 11.7386 16.5751C17.3596 16.6261 18.4536 18.5071 18.4536 18.5071C18.4826 18.5631 18.5176 18.6141 18.5566 18.6601ZM19.5386 17.4101C18.8786 16.6361 16.8676 15.0421 11.5036 15.0421C11.4626 15.0421 11.4216 15.0521 11.3806 15.0521C6.38257 15.1041 4.38061 16.5521 3.6626 17.3331C2.7136 15.8571 2.16156 14.1001 2.16156 12.2151C2.16156 6.9911 6.39857 2.7461 11.6226 2.7461C16.8476 2.7461 21.0926 6.9911 21.0926 12.2151C21.0926 14.1331 20.5206 15.9181 19.5386 17.4101ZM11.6216 4.54408C9.0676 4.54408 6.99458 6.61709 6.99458 9.1711C6.99458 11.7251 9.0676 13.7981 11.6216 13.7981C14.1756 13.7981 16.2486 11.7251 16.2486 9.1711C16.2486 6.61709 14.1756 4.54408 11.6216 4.54408ZM11.6216 6.07209C13.3316 6.07209 14.7206 7.4611 14.7206 9.1711C14.7206 10.8811 13.3316 12.2701 11.6216 12.2701C9.9126 12.2701 8.5226 10.8811 8.5226 9.1711C8.5226 7.4611 9.9126 6.07209 11.6216 6.07209Z" fill="black"/>
</svg>
