<svg width="24" height="24" viewBox="0 0 24 24" fill="none" xmlns="http://www.w3.org/2000/svg">
<path fill-rule="evenodd" clip-rule="evenodd" d="M9.62636 17.3322L9.25637 21.2152C9.15636 22.2542 8.28634 23.0552 7.23634 23.0552H6.10633C5.06633 23.0552 4.18631 22.2632 4.08631 21.2152L3.70643 17.2872C3.14642 17.2702 2.60631 17.0402 2.21631 16.6392C1.79631 16.2222 1.5564 15.6512 1.5564 15.0632V13.6402C1.5564 12.3192 2.08637 11.0412 3.02637 10.1042C3.84637 9.27817 4.94632 8.76917 6.09632 8.66017C4.38632 8.38417 3.08631 6.90018 3.08631 5.11918C3.08631 3.13417 4.6864 1.52417 6.6764 1.52417C6.7464 1.52417 6.82637 1.52616 6.89637 1.53116H21.6764C21.8864 1.53116 22.0864 1.61517 22.2464 1.76517C22.3964 1.91517 22.4764 2.11818 22.4764 2.33118V16.5322C22.4764 16.7442 22.3964 16.9472 22.2464 17.0972C22.0864 17.2472 21.8864 17.3322 21.6764 17.3322H17.0564L12.7864 20.4402C12.5064 20.6432 12.1263 20.6452 11.8463 20.4462C11.5663 20.2462 11.4464 19.8892 11.5464 19.5602L12.2263 17.3322H9.62636ZM8.19643 16.4772V16.4602C8.19643 16.4672 8.19643 16.4722 8.19643 16.4772C8.17643 16.7142 7.91637 19.4572 7.76637 21.0702C7.73637 21.3422 7.50634 21.5552 7.23634 21.5552H6.10633C5.82633 21.5552 5.59643 21.3422 5.57643 21.0702C5.41642 19.3912 5.13636 16.4692 5.13636 16.4692C5.13636 16.4692 5.12636 15.7792 4.38636 15.7872H3.78638C3.59638 15.7872 3.40637 15.7102 3.27637 15.5742C3.13637 15.4382 3.0564 15.2592 3.0564 15.0632V13.6402C3.0564 12.7112 3.42631 11.8252 4.08631 11.1692C4.74631 10.5042 5.63641 10.1382 6.55641 10.1382H6.77638C7.70638 10.1382 8.59636 10.5042 9.25637 11.1602C9.90637 11.8162 10.2764 12.7112 10.2764 13.6402V15.0632C10.2764 15.2502 10.1964 15.4382 10.0664 15.5742C9.92642 15.7102 9.74642 15.7872 9.55641 15.7872H8.95644C8.19644 15.7052 8.17643 16.6142 8.19643 16.4772ZM9.65639 3.13117C10.0364 3.70017 10.2564 4.38418 10.2564 5.11918C10.2564 6.90018 8.95635 8.38417 7.24635 8.66017C8.40635 8.76917 9.48641 9.27117 10.3064 10.1042C11.2464 11.0412 11.7764 12.3112 11.7764 13.6402V15.0632C11.7764 15.2922 11.7464 15.5172 11.6764 15.7322H13.3064C13.5664 15.7322 13.7964 15.8522 13.9564 16.0552C14.1064 16.2592 14.1464 16.5222 14.0764 16.7652L13.7764 17.7382L16.3164 15.8852C16.4564 15.7852 16.6264 15.7322 16.7864 15.7322H20.8764V3.13117H9.65639ZM15.1464 13.6672C15.4064 13.6672 15.6563 13.5622 15.8463 13.3742C16.0363 13.1872 16.1464 12.9332 16.1464 12.6672C16.1464 12.4022 16.0363 12.1482 15.8463 11.9602C15.6563 11.7732 15.4064 11.6672 15.1464 11.6672C14.8764 11.6672 14.6264 11.7732 14.4364 11.9602C14.2464 12.1482 14.1464 12.4022 14.1464 12.6672C14.1464 12.9332 14.2464 13.1872 14.4364 13.3742C14.6264 13.5622 14.8764 13.6672 15.1464 13.6672ZM15.1464 4.91718C15.3364 4.91718 15.5264 4.99618 15.6764 5.13718C15.8164 5.27819 15.8964 5.46818 15.8964 5.66718V9.66719C15.8964 9.86619 15.8164 10.0572 15.6764 10.1982C15.5264 10.3382 15.3364 10.4172 15.1464 10.4172C14.9464 10.4172 14.7564 10.3382 14.6064 10.1982C14.4664 10.0572 14.3964 9.86619 14.3964 9.66719V5.66718C14.3964 5.46818 14.4664 5.27819 14.6064 5.13718C14.7564 4.99618 14.9464 4.91718 15.1464 4.91718ZM6.6764 3.02317C7.82641 3.02317 8.75636 3.96118 8.75636 5.11918C8.75636 6.27018 7.82641 7.20717 6.6764 7.20717C5.5164 7.20717 4.58631 6.27018 4.58631 5.11918C4.58631 3.96118 5.5164 3.02317 6.6764 3.02317Z" fill="black"/>
</svg>
