<svg width="24" height="24" viewBox="0 0 24 24" fill="none" xmlns="http://www.w3.org/2000/svg">
<g clip-path="url(#clip0_221_15906)">
<path fill-rule="evenodd" clip-rule="evenodd" d="M11.0015 1.25C9.74173 1.25 8.53355 1.75044 7.64275 2.64124C6.75196 3.53204 6.25151 4.74022 6.25151 6C6.25151 7.25978 6.75196 8.46796 7.64275 9.35876C8.53355 10.2496 9.74173 10.75 11.0015 10.75C12.2613 10.75 13.4695 10.2496 14.3603 9.35876C15.2511 8.46796 15.7515 7.25978 15.7515 6C15.7515 4.74022 15.2511 3.53204 14.3603 2.64124C13.4695 1.75044 12.2613 1.25 11.0015 1.25ZM7.75151 6C7.75151 5.13805 8.09392 4.3114 8.70341 3.7019C9.31291 3.09241 10.1396 2.75 11.0015 2.75C11.8635 2.75 12.6901 3.09241 13.2996 3.7019C13.9091 4.3114 14.2515 5.13805 14.2515 6C14.2515 6.86195 13.9091 7.6886 13.2996 8.2981C12.6901 8.90759 11.8635 9.25 11.0015 9.25C10.1396 9.25 9.31291 8.90759 8.70341 8.2981C8.09392 7.6886 7.75151 6.86195 7.75151 6Z" fill="black"/>
<path fill-rule="evenodd" clip-rule="evenodd" d="M13.7765 12.513C12.8621 12.3364 11.9328 12.2483 11.0015 12.25C8.6885 12.25 6.5565 12.776 4.9775 13.664C3.4215 14.54 2.25151 15.866 2.25151 17.5V17.602C2.25051 18.764 2.24951 20.222 3.52851 21.264C4.1575 21.776 5.0385 22.141 6.2285 22.381C7.4205 22.623 8.9755 22.75 11.0015 22.75C13.8695 22.75 15.8115 22.496 17.1215 22.009C18.3005 21.569 18.9985 20.927 19.3715 20.117C19.9504 19.7831 20.4524 19.3308 20.8446 18.7897C21.2368 18.2486 21.5104 17.6308 21.6475 16.9767C21.7846 16.3226 21.7821 15.647 21.6403 14.9939C21.4984 14.3408 21.2203 13.725 20.8242 13.1868C20.4281 12.6485 19.9229 12.1999 19.3415 11.8703C18.7602 11.5406 18.1158 11.3373 17.4505 11.2738C16.7852 11.2102 16.114 11.2877 15.4808 11.5012C14.8475 11.7148 14.2674 12.0595 13.7765 12.513ZM13.7515 16C13.7515 15.138 14.0939 14.3114 14.7034 13.7019C15.3129 13.0924 16.1395 12.75 17.0015 12.75C17.8635 12.75 18.6901 13.0924 19.2996 13.7019C19.9091 14.3114 20.2515 15.138 20.2515 16C20.2515 16.8619 19.9091 17.6886 19.2996 18.2981C18.6901 18.9076 17.8635 19.25 17.0015 19.25C16.1395 19.25 15.3129 18.9076 14.7034 18.2981C14.0939 17.6886 13.7515 16.8619 13.7515 16ZM12.7575 13.865C12.4194 14.5369 12.2456 15.2795 12.2506 16.0317C12.2556 16.7839 12.4392 17.5242 12.7862 18.1916C13.1332 18.8589 13.6338 19.4344 14.2467 19.8705C14.8596 20.3066 15.5672 20.5909 16.3115 20.7C15.2415 21.037 13.5785 21.25 11.0015 21.25C9.0265 21.25 7.5815 21.125 6.5245 20.911C5.4645 20.697 4.8445 20.402 4.4745 20.101C3.7905 19.544 3.75051 18.808 3.75051 17.5C3.75051 16.649 4.3725 15.725 5.7115 14.972C7.0275 14.232 8.8955 13.75 11.0015 13.75C11.6065 13.75 12.1955 13.79 12.7575 13.865Z" fill="black"/>
<path d="M19.9749 14.5841C20.2737 14.2853 20.2151 13.7358 19.845 13.3657C19.4748 12.9955 18.9253 12.9369 18.6265 13.2357L14.2725 17.5898C13.9737 17.8886 14.0323 18.4381 14.4024 18.8082C14.7725 19.1784 15.3221 19.237 15.6209 18.9382L19.9749 14.5841Z" fill="black"/>
</g>
<defs>
<clipPath id="clip0_221_15906">
<rect width="21.5" height="21.5" fill="white" transform="translate(1.25 1.25)"/>
</clipPath>
</defs>
</svg>
