<svg width="24" height="24" viewBox="0 0 24 24" fill="none" xmlns="http://www.w3.org/2000/svg">
<path fill-rule="evenodd" clip-rule="evenodd" d="M11.9147 1C9.26027 1 7.07572 3.18455 7.07572 5.83902C7.07572 8.49349 9.26027 10.678 11.9147 10.678C14.5692 10.678 16.7538 8.49349 16.7538 5.83902C16.7538 3.18455 14.5692 1 11.9147 1ZM8.60392 5.83902C8.60392 4.02276 10.0985 2.52819 11.9147 2.52819C13.731 2.52819 15.2256 4.02276 15.2256 5.83902C15.2256 7.65527 13.731 9.14985 11.9147 9.14985C10.0985 9.14985 8.60392 7.65527 8.60392 5.83902ZM11.9147 12.2062C9.55827 12.2062 7.38595 12.7426 5.77753 13.6473C4.19203 14.5398 3.00004 15.8907 3.00004 17.5549V17.6588C2.99927 18.8432 2.99851 20.3286 4.30129 21.3899C4.94237 21.9118 5.83942 22.2831 7.05204 22.5276C8.26619 22.7744 9.85092 22.9036 11.9147 22.9036C13.9786 22.9036 15.5618 22.7744 16.7782 22.5276C17.9908 22.2831 18.8871 21.9118 19.529 21.3899C20.8325 20.3286 20.8302 18.8432 20.8294 17.6588V17.5549C20.8294 15.8907 19.6375 14.5398 18.0527 13.6473C16.4435 12.7426 14.272 12.2062 11.9147 12.2062ZM4.52823 17.5549C4.52823 16.6884 5.16243 15.747 6.52634 14.9799C7.86733 14.2257 9.76993 13.7344 11.9155 13.7344C14.0596 13.7344 15.9622 14.2257 17.3031 14.9799C18.6686 15.747 19.3013 16.6884 19.3013 17.5549C19.3013 18.8875 19.26 19.6378 18.5631 20.204C18.1864 20.512 17.5545 20.8122 16.4749 21.03C15.3983 21.2485 13.9258 21.3754 11.9147 21.3754C9.90364 21.3754 8.43047 21.2485 7.35462 21.03C6.27495 20.8122 5.64304 20.512 5.26635 20.2048C4.56949 19.6378 4.52823 18.8875 4.52823 17.5549Z" fill="black"/>
<path fill-rule="evenodd" clip-rule="evenodd" d="M6.2118 8.38135C5.01465 8.38135 4.04517 9.35083 4.04517 10.548C4.04517 11.7451 5.01465 12.7147 6.2118 12.7147C7.40053 12.7147 8.37844 11.7451 8.37844 10.548C8.37844 9.35083 7.40053 8.38135 6.2118 8.38135ZM6.2118 9.90724C6.55746 9.90724 6.8441 10.1939 6.8441 10.548C6.8441 10.9021 6.55746 11.1887 6.2118 11.1887C5.85771 11.1887 5.57106 10.9021 5.57106 10.548C5.57106 10.1939 5.85771 9.90724 6.2118 9.90724Z" fill="black"/>
<path fill-rule="evenodd" clip-rule="evenodd" d="M5.32406 4.50942C5.32406 4.50942 4.7026 5.19202 4.31546 6.17006C3.89775 7.22961 3.77549 8.60488 4.81466 9.88856C5.07954 10.2146 5.5583 10.2656 5.88432 10.0007C6.21033 9.73585 6.26126 9.25696 5.99637 8.92076C5.38509 8.16685 5.49716 7.35179 5.74167 6.73033C6.00656 6.02736 6.4549 5.54861 6.4549 5.54861C6.74016 5.23279 6.71974 4.75389 6.40391 4.46863C6.09827 4.18337 5.60932 4.20378 5.32406 4.50942Z" fill="black"/>
<path fill-rule="evenodd" clip-rule="evenodd" d="M7.6774 4.65168C7.6774 4.65168 9.68446 7.13754 15.9908 6.82172C16.4085 6.79115 16.7345 6.43454 16.7141 6.01683C16.6937 5.59913 16.3372 5.27315 15.9093 5.29353C10.581 5.55841 8.83884 3.66336 8.83884 3.66336C8.57395 3.33734 8.08488 3.30682 7.76905 3.5819C7.44304 3.85697 7.41251 4.33585 7.6774 4.65168Z" fill="black"/>
</svg>
