<svg width="24" height="24" viewBox="0 0 24 24" fill="none" xmlns="http://www.w3.org/2000/svg">
<g clip-path="url(#clip0_221_16084)">
<path fill-rule="evenodd" clip-rule="evenodd" d="M12 1.25C10.7402 1.25 9.53204 1.75044 8.64124 2.64124C7.75045 3.53204 7.25 4.74022 7.25 6C7.25 7.25978 7.75045 8.46796 8.64124 9.35876C9.53204 10.2496 10.7402 10.75 12 10.75C13.2598 10.75 14.468 10.2496 15.3588 9.35876C16.2496 8.46796 16.75 7.25978 16.75 6C16.75 4.74022 16.2496 3.53204 15.3588 2.64124C14.468 1.75044 13.2598 1.25 12 1.25ZM8.75 6C8.75 5.13805 9.09241 4.3114 9.7019 3.7019C10.3114 3.09241 11.138 2.75 12 2.75C12.862 2.75 13.6886 3.09241 14.2981 3.7019C14.9076 4.3114 15.25 5.13805 15.25 6C15.25 6.86195 14.9076 7.6886 14.2981 8.2981C13.6886 8.90759 12.862 9.25 12 9.25C11.138 9.25 10.3114 8.90759 9.7019 8.2981C9.09241 7.6886 8.75 6.86195 8.75 6Z" fill="black"/>
<path d="M18 3.25C17.8011 3.25 17.6103 3.32902 17.4697 3.46967C17.329 3.61032 17.25 3.80109 17.25 4C17.25 4.19891 17.329 4.38968 17.4697 4.53033C17.6103 4.67098 17.8011 4.75 18 4.75C19.377 4.75 20.25 5.656 20.25 6.5C20.25 7.344 19.377 8.25 18 8.25C17.8011 8.25 17.6103 8.32902 17.4697 8.46967C17.329 8.61032 17.25 8.80109 17.25 9C17.25 9.19891 17.329 9.38968 17.4697 9.53033C17.6103 9.67098 17.8011 9.75 18 9.75C19.937 9.75 21.75 8.417 21.75 6.5C21.75 4.583 19.937 3.25 18 3.25ZM6.75 4C6.75 3.80109 6.67098 3.61032 6.53033 3.46967C6.38968 3.32902 6.19891 3.25 6 3.25C4.063 3.25 2.25 4.583 2.25 6.5C2.25 8.417 4.063 9.75 6 9.75C6.19891 9.75 6.38968 9.67098 6.53033 9.53033C6.67098 9.38968 6.75 9.19891 6.75 9C6.75 8.80109 6.67098 8.61032 6.53033 8.46967C6.38968 8.32902 6.19891 8.25 6 8.25C4.624 8.25 3.75 7.344 3.75 6.5C3.75 5.656 4.624 4.75 6 4.75C6.19891 4.75 6.38968 4.67098 6.53033 4.53033C6.67098 4.38968 6.75 4.19891 6.75 4Z" fill="black"/>
<path fill-rule="evenodd" clip-rule="evenodd" d="M12 12.25C10.216 12.25 8.566 12.73 7.341 13.547C6.121 14.361 5.25 15.567 5.25 17C5.25 18.433 6.121 19.64 7.341 20.453C8.566 21.269 10.216 21.75 12 21.75C13.784 21.75 15.434 21.27 16.659 20.453C17.879 19.639 18.75 18.433 18.75 17C18.75 15.567 17.878 14.36 16.659 13.547C15.434 12.731 13.784 12.25 12 12.25ZM6.75 17C6.75 16.224 7.222 15.43 8.173 14.796C9.12 14.165 10.471 13.75 12 13.75C13.53 13.75 14.88 14.165 15.827 14.796C16.778 15.43 17.25 16.224 17.25 17C17.25 17.776 16.778 18.57 15.827 19.204C14.88 19.835 13.529 20.25 12 20.25C10.47 20.25 9.12 19.835 8.173 19.204C7.222 18.57 6.75 17.776 6.75 17Z" fill="black"/>
<path d="M19.267 13.84C19.288 13.7437 19.3278 13.6524 19.3841 13.5714C19.4404 13.4904 19.5121 13.4213 19.5951 13.3681C19.6782 13.3149 19.7709 13.2785 19.868 13.2612C19.9651 13.2439 20.0647 13.2458 20.161 13.267C21.122 13.478 21.989 13.859 22.633 14.386C23.276 14.912 23.75 15.636 23.75 16.5C23.75 17.365 23.276 18.088 22.633 18.614C21.989 19.141 21.123 19.522 20.161 19.733C20.0647 19.7542 19.9653 19.7561 19.8682 19.7388C19.7712 19.7215 19.6786 19.6853 19.5955 19.6322C19.5125 19.5791 19.4408 19.5101 19.3844 19.4293C19.328 19.3484 19.2881 19.2573 19.267 19.161C19.2459 19.0648 19.2439 18.9653 19.2612 18.8683C19.2785 18.7712 19.3147 18.6786 19.3678 18.5956C19.421 18.5125 19.4899 18.4408 19.5707 18.3844C19.6516 18.3281 19.7427 18.2882 19.839 18.267C20.632 18.094 21.265 17.795 21.683 17.453C22.101 17.111 22.25 16.776 22.25 16.5C22.25 16.224 22.101 15.89 21.683 15.547C21.265 15.204 20.632 14.907 19.839 14.733C19.7427 14.7119 19.6515 14.6721 19.5707 14.6157C19.4898 14.5594 19.4208 14.4876 19.3677 14.4046C19.3146 14.3216 19.2783 14.2289 19.261 14.1318C19.2438 14.0348 19.2458 13.9353 19.267 13.839M3.84 13.267C4.0344 13.2246 4.2377 13.2611 4.40517 13.3686C4.57264 13.476 4.69057 13.6456 4.733 13.84C4.77543 14.0344 4.7389 14.2377 4.63145 14.4052C4.52399 14.5727 4.3544 14.6906 4.16 14.733C3.368 14.906 2.735 15.205 2.317 15.547C1.899 15.889 1.75 16.224 1.75 16.5C1.75 16.776 1.899 17.11 2.317 17.453C2.735 17.796 3.368 18.093 4.161 18.267C4.3554 18.3097 4.52488 18.4279 4.63215 18.5956C4.73942 18.7632 4.7757 18.9666 4.733 19.161C4.6903 19.3554 4.57212 19.5249 4.40447 19.6322C4.23681 19.7395 4.0334 19.7757 3.839 19.733C2.877 19.522 2.011 19.141 1.367 18.614C0.724 18.088 0.25 17.364 0.25 16.5C0.25 15.635 0.724 14.912 1.367 14.386C2.011 13.859 2.878 13.478 3.84 13.267Z" fill="black"/>
</g>
<defs>
<clipPath id="clip0_221_16084">
<rect width="24" height="24" fill="white"/>
</clipPath>
</defs>
</svg>
