<svg width="24" height="24" viewBox="0 0 24 24" fill="none" xmlns="http://www.w3.org/2000/svg">
<g clip-path="url(#clip0_221_15925)">
<path fill-rule="evenodd" clip-rule="evenodd" d="M6.25153 6C6.25153 4.74022 6.75197 3.53204 7.64277 2.64124C8.53357 1.75044 9.74175 1.25 11.0015 1.25C12.2613 1.25 13.4695 1.75044 14.3603 2.64124C15.2511 3.53204 15.7515 4.74022 15.7515 6C15.7515 7.25978 15.2511 8.46796 14.3603 9.35876C13.4695 10.2496 12.2613 10.75 11.0015 10.75C9.74175 10.75 8.53357 10.2496 7.64277 9.35876C6.75197 8.46796 6.25153 7.25978 6.25153 6ZM11.0015 2.75C10.1396 2.75 9.31292 3.09241 8.70343 3.7019C8.09394 4.3114 7.75153 5.13805 7.75153 6C7.75153 6.86195 8.09394 7.6886 8.70343 8.2981C9.31292 8.90759 10.1396 9.25 11.0015 9.25C11.8635 9.25 12.6901 8.90759 13.2996 8.2981C13.9091 7.6886 14.2515 6.86195 14.2515 6C14.2515 5.13805 13.9091 4.3114 13.2996 3.7019C12.6901 3.09241 11.8635 2.75 11.0015 2.75Z" fill="black"/>
<path d="M17.0015 13.917C17.2004 13.917 17.3912 13.996 17.5318 14.1367C17.6725 14.2773 17.7515 14.4681 17.7515 14.667V15.25H18.3345C18.5334 15.25 18.7242 15.329 18.8648 15.4697C19.0055 15.6103 19.0845 15.8011 19.0845 16C19.0845 16.1989 19.0055 16.3897 18.8648 16.5303C18.7242 16.671 18.5334 16.75 18.3345 16.75H17.7515V17.333C17.7515 17.5319 17.6725 17.7227 17.5318 17.8633C17.3912 18.004 17.2004 18.083 17.0015 18.083C16.8026 18.083 16.6118 18.004 16.4712 17.8633C16.3305 17.7227 16.2515 17.5319 16.2515 17.333V16.75H15.6685C15.4696 16.75 15.2788 16.671 15.1382 16.5303C14.9975 16.3897 14.9185 16.1989 14.9185 16C14.9185 15.8011 14.9975 15.6103 15.1382 15.4697C15.2788 15.329 15.4696 15.25 15.6685 15.25H16.2515V14.667C16.2515 14.4681 16.3305 14.2773 16.4712 14.1367C16.6118 13.996 16.8026 13.917 17.0015 13.917Z" fill="black"/>
<path fill-rule="evenodd" clip-rule="evenodd" d="M13.7765 12.513C12.8621 12.3364 11.9328 12.2483 11.0015 12.25C8.68852 12.25 6.55652 12.776 4.97752 13.664C3.42152 14.54 2.25152 15.866 2.25152 17.5V17.602C2.25052 18.764 2.24952 20.222 3.52852 21.264C4.15752 21.776 5.03852 22.141 6.22852 22.381C7.42052 22.623 8.97552 22.75 11.0015 22.75C13.8695 22.75 15.8115 22.496 17.1215 22.009C18.3005 21.569 18.9985 20.927 19.3715 20.117C19.9505 19.7831 20.4524 19.3308 20.8446 18.7897C21.2368 18.2486 21.5104 17.6308 21.6475 16.9767C21.7846 16.3226 21.7822 15.647 21.6403 14.9939C21.4984 14.3408 21.2204 13.725 20.8242 13.1868C20.4281 12.6485 19.9229 12.1999 19.3415 11.8703C18.7602 11.5406 18.1158 11.3373 17.4505 11.2738C16.7853 11.2102 16.1141 11.2877 15.4808 11.5012C14.8475 11.7148 14.2674 12.0595 13.7765 12.513ZM5.71152 14.972C4.37152 15.725 3.75152 16.649 3.75152 17.5C3.75152 18.808 3.79152 19.544 4.47452 20.1C4.84452 20.402 5.46452 20.697 6.52452 20.911C7.58152 21.125 9.02652 21.25 11.0005 21.25C13.5785 21.25 15.2405 21.037 16.3115 20.7C15.5672 20.591 14.8594 20.3068 14.2464 19.8708C13.6333 19.4347 13.1327 18.8593 12.7855 18.1919C12.4384 17.5245 12.2548 16.7842 12.2497 16.0319C12.2447 15.2797 12.4184 14.537 12.7565 13.865C12.1748 13.7871 11.5884 13.7487 11.0015 13.75C8.89652 13.75 7.02752 14.232 5.71152 14.972ZM13.7525 16C13.7525 15.138 14.0949 14.3114 14.7044 13.7019C15.3139 13.0924 16.1406 12.75 17.0025 12.75C17.8645 12.75 18.6911 13.0924 19.3006 13.7019C19.9101 14.3114 20.2525 15.138 20.2525 16C20.2525 16.8619 19.9101 17.6886 19.3006 18.2981C18.6911 18.9076 17.8645 19.25 17.0025 19.25C16.1406 19.25 15.3139 18.9076 14.7044 18.2981C14.0949 17.6886 13.7525 16.8619 13.7525 16Z" fill="black"/>
</g>
<defs>
<clipPath id="clip0_221_15925">
<rect width="21.5" height="21.5" fill="white" transform="translate(1.25 1.25)"/>
</clipPath>
</defs>
</svg>
