<svg width="24" height="24" viewBox="0 0 24 24" fill="none" xmlns="http://www.w3.org/2000/svg">
<path fill-rule="evenodd" clip-rule="evenodd" d="M10.9713 1C8.2751 1 6.08575 3.18934 6.08575 5.88552C6.08575 8.5817 8.2751 10.771 10.9713 10.771C13.6675 10.771 15.8568 8.5817 15.8568 5.88552C15.8568 3.18934 13.6675 1 10.9713 1ZM10.9713 2.54288C12.8166 2.54288 14.3139 4.04024 14.3139 5.88552C14.3139 7.73081 12.8166 9.22817 10.9713 9.22817C9.126 9.22817 7.62863 7.73081 7.62863 5.88552C7.62863 4.04024 9.126 2.54288 10.9713 2.54288Z" fill="black"/>
<path fill-rule="evenodd" clip-rule="evenodd" d="M12.8991 20.383C12.2881 20.4871 11.6409 20.5427 10.9713 20.5427C8.78271 20.5427 6.83637 19.9587 5.63446 19.0214C4.9718 18.5053 4.54288 17.8897 4.54288 17.2C4.54288 16.5096 4.9718 15.8947 5.63446 15.3779C6.83637 14.4413 8.78271 13.8566 10.9713 13.8566C12.1747 13.8566 13.3049 14.0356 14.2808 14.3526C14.6302 14.466 15.9339 13.3528 15.9339 13.3528C14.5916 12.7087 12.8605 12.3137 10.9713 12.3137C8.38773 12.3137 6.10504 13.0551 4.68637 14.1613C3.60172 15.006 3 16.0706 3 17.2C3 18.3286 3.60172 19.3932 4.68637 20.2387C6.10504 21.3442 8.38773 22.0855 10.9713 22.0855C11.6563 22.0855 12.3205 22.0339 12.9523 21.9374C13.0218 21.9266 15.5158 21.3936 14.2784 21.6042L12.8991 20.383Z" fill="black"/>
<path fill-rule="evenodd" clip-rule="evenodd" d="M16.2386 20.0621L17.5264 18.7742C17.8278 18.4732 17.8278 17.9845 17.5264 17.6834L16.2386 16.3956C15.9375 16.0945 15.4488 16.0945 15.1478 16.3956C14.8467 16.6966 14.8467 17.1853 15.1478 17.4864L15.8899 18.2288L15.1478 18.9713C14.8467 19.2723 14.8467 19.761 15.1478 20.0621C15.4488 20.3631 15.9375 20.3631 16.2386 20.0621Z" fill="black"/>
<path fill-rule="evenodd" clip-rule="evenodd" d="M16.1145 13.343C13.4176 13.343 11.2282 15.5324 11.2282 18.2285C11.2282 20.9247 13.4176 23.1141 16.1145 23.1141C18.8107 23.1141 21 20.9247 21 18.2285C21 15.5324 18.8107 13.343 16.1145 13.343ZM16.1145 14.8859C17.959 14.8859 19.4572 16.3833 19.4572 18.2285C19.4572 20.0738 17.959 21.5712 16.1145 21.5712C14.2692 21.5712 12.7711 20.0738 12.7711 18.2285C12.7711 16.3833 14.2692 14.8859 16.1145 14.8859Z" fill="black"/>
</svg>
