<svg width="24" height="24" viewBox="0 0 24 24" fill="none" xmlns="http://www.w3.org/2000/svg">
<path fill-rule="evenodd" clip-rule="evenodd" d="M10.8592 1C8.17315 1 5.992 3.18115 5.992 5.86724C5.992 8.55332 8.17315 10.7345 10.8592 10.7345C13.5453 10.7345 15.7265 8.55332 15.7265 5.86724C15.7265 3.18115 13.5453 1 10.8592 1ZM10.8592 2.5371C12.6976 2.5371 14.1894 4.02886 14.1894 5.86724C14.1894 7.70561 12.6976 9.19737 10.8592 9.19737C9.02087 9.19737 7.52911 7.70561 7.52911 5.86724C7.52911 4.02886 9.02087 2.5371 10.8592 2.5371Z" fill="black"/>
<path fill-rule="evenodd" clip-rule="evenodd" d="M12.7798 20.3105C12.1711 20.4143 11.5263 20.4696 10.8592 20.4696C8.67885 20.4696 6.73979 19.8878 5.54239 18.954C4.8822 18.4399 4.45489 17.8266 4.45489 17.1395C4.45489 16.4516 4.8822 15.8391 5.54239 15.3242C6.73979 14.3911 8.67885 13.8086 10.8592 13.8086C12.0543 13.8086 13.1764 13.9854 14.1463 14.2989C14.1502 14.3005 14.1532 14.3043 14.1563 14.3028C15.2523 13.6802 15.8033 13.3067 15.8033 13.3067C14.466 12.665 12.7414 12.2715 10.8592 12.2715C8.28535 12.2715 6.01121 13.0101 4.59784 14.1122C3.51726 14.9537 2.91779 16.0143 2.91779 17.1395C2.91779 18.2639 3.51726 19.3245 4.59784 20.1668C6.01121 21.2681 8.28535 22.0067 10.8592 22.0067C11.5417 22.0067 12.2034 21.9552 12.8329 21.8592C12.902 21.8484 13.5453 21.7316 14.154 21.5272L12.7798 20.3105Z" fill="black"/>
<path fill-rule="evenodd" clip-rule="evenodd" d="M18.5951 11.4993C17.222 11.4993 16.108 12.6219 16.108 13.995C16.108 15.3595 17.222 16.4821 18.5951 16.4821C19.9682 16.4821 21.0822 15.3595 21.0822 13.995C21.0822 12.6219 19.9682 11.4993 18.5951 11.4993ZM18.5951 13.0365C19.1219 13.0365 19.545 13.4682 19.545 13.995C19.545 14.5132 19.1219 14.9449 18.5951 14.9449C18.0683 14.9449 17.6452 14.5132 17.6452 13.995C17.6452 13.4682 18.0683 13.0365 18.5951 13.0365Z" fill="black"/>
<path fill-rule="evenodd" clip-rule="evenodd" d="M18.5951 17.217C17.222 17.217 16.108 18.3397 16.108 19.7128C16.108 21.0772 17.222 22.1999 18.5951 22.1999C19.9682 22.1999 21.0822 21.0772 21.0822 19.7128C21.0822 18.3397 19.9682 17.217 18.5951 17.217ZM18.5951 18.7542C19.1219 18.7542 19.545 19.186 19.545 19.7128C19.545 20.2309 19.1219 20.6627 18.5951 20.6627C18.0683 20.6627 17.6452 20.2309 17.6452 19.7128C17.6452 19.186 18.0683 18.7542 18.5951 18.7542Z" fill="black"/>
<path fill-rule="evenodd" clip-rule="evenodd" d="M13.0205 14.9421C11.6474 14.9421 10.5334 16.0648 10.5334 17.4379C10.5334 18.8023 11.6474 19.925 13.0205 19.925C14.3936 19.925 15.5076 18.8023 15.5076 17.4379C15.5076 16.0648 14.3936 14.9421 13.0205 14.9421ZM13.0205 16.4793C13.5473 16.4793 13.9704 16.9111 13.9704 17.4379C13.9704 17.956 13.5473 18.3878 13.0205 18.3878C12.4937 18.3878 12.0706 17.956 12.0706 17.4379C12.0706 16.9111 12.4937 16.4793 13.0205 16.4793Z" fill="black"/>
<path fill-rule="evenodd" clip-rule="evenodd" d="M16.7134 14.2229L14.078 15.8886C13.7183 16.1154 13.6088 16.5924 13.8356 16.9521C14.0624 17.3119 14.5394 17.4213 14.8991 17.1867L17.5346 15.521C17.8943 15.2943 18.0037 14.8171 17.7769 14.4574C17.5502 14.1055 17.0731 13.9961 16.7134 14.2229Z" fill="black"/>
<path fill-rule="evenodd" clip-rule="evenodd" d="M14.3674 18.6645L16.5024 19.822C16.8699 20.0254 17.3392 19.8924 17.5425 19.517C17.7458 19.1416 17.6051 18.6802 17.2375 18.4769L15.1026 17.3117C14.7272 17.1083 14.2658 17.2491 14.0624 17.6245C13.8591 17.992 13.9921 18.4612 14.3674 18.6645Z" fill="black"/>
</svg>
