<svg width="24" height="24" viewBox="0 0 24 24" fill="none" xmlns="http://www.w3.org/2000/svg">
<path fill-rule="evenodd" clip-rule="evenodd" d="M16.59 19.4673C15.85 18.9223 15.3699 18.0453 15.3699 17.0562C15.3699 15.4052 16.71 14.0583 18.36 14.0583C20.01 14.0583 21.36 15.4052 21.36 17.0562C21.36 18.0503 20.8699 18.9313 20.1199 19.4753C20.6099 19.6303 20.95 19.8403 21.2 20.0433C21.74 20.4883 21.8599 20.9523 21.8899 21.0353L21.9099 21.1193C21.9199 21.2113 21.9199 21.2953 21.8999 21.3603C21.8599 21.6293 21.6499 21.8423 21.3699 21.9073C20.8699 22.0093 20.5499 21.4063 20.5499 21.4063C20.5499 21.4063 20.09 20.6273 18.36 20.6273H18.33C16.6 20.6273 16.1399 21.4063 16.1399 21.4063C16.1399 21.4063 15.8199 22.0093 15.3199 21.9073C15.0399 21.8423 14.8299 21.6293 14.7899 21.3603C14.7699 21.2953 14.7699 21.2113 14.7799 21.1193L14.7999 21.0353C14.8299 20.9523 14.9399 20.4883 15.4899 20.0433C15.7399 19.8373 16.09 19.6233 16.59 19.4673ZM3.72989 19.4723C2.98989 18.9283 2.50992 18.0483 2.50992 17.0562C2.50992 15.4052 3.83991 14.0583 5.49991 14.0583C7.14992 14.0583 8.48991 15.4052 8.48991 17.0562C8.48991 18.0483 7.99993 18.9263 7.25993 19.4713C7.75993 19.6263 8.10989 19.8383 8.3499 20.0433C8.8999 20.4883 9.01991 20.9523 9.04991 21.0353L9.05992 21.1193C9.06992 21.2113 9.06992 21.2953 9.05992 21.3603C9.00992 21.6293 8.79989 21.8423 8.52989 21.9073C8.02989 22.0093 7.69993 21.4063 7.69993 21.4063C7.69993 21.4063 7.24993 20.6273 5.50992 20.6273H5.4899C3.7499 20.6273 3.2999 21.4063 3.2999 21.4063C3.2999 21.4063 2.96988 22.0093 2.46988 21.9073C2.18988 21.8423 1.98991 21.6293 1.93991 21.3603C1.91991 21.2953 1.9199 21.2113 1.9299 21.1193L1.94992 21.0353C1.97992 20.9523 2.09987 20.4883 2.64987 20.0433C2.88987 19.8393 3.23989 19.6273 3.72989 19.4723ZM5.49991 15.4513C6.37992 15.4513 7.08988 16.1742 7.08988 17.0562C7.08988 17.9393 6.37992 18.6553 5.49991 18.6553C4.60991 18.6553 3.88992 17.9393 3.88992 17.0562C3.88992 16.1742 4.60991 15.4513 5.49991 15.4513ZM18.36 15.4513C19.25 15.4513 19.96 16.1742 19.96 17.0562C19.96 17.9393 19.25 18.6553 18.36 18.6553C17.48 18.6553 16.7599 17.9393 16.7599 17.0562C16.7599 16.1742 17.48 15.4513 18.36 15.4513ZM6.37992 12.2902H17.45C17.84 12.2902 18.1399 11.9783 18.1399 11.5903C18.1399 11.2103 17.84 10.8982 17.45 10.8982H6.37992C5.98992 10.8982 5.67991 11.2103 5.67991 11.5903C5.67991 11.9783 5.98992 12.2902 6.37992 12.2902ZM10.2199 7.32225C9.45989 6.77925 8.95988 5.89023 8.95988 4.88523C8.95988 3.23423 10.2999 1.88623 11.9499 1.88623C13.5999 1.88623 14.9399 3.23423 14.9399 4.88523C14.9399 5.89023 14.4499 6.77924 13.6899 7.32124C14.1999 7.47724 14.5599 7.69424 14.8099 7.90224C15.3499 8.34824 15.4699 8.81125 15.4999 8.89525L15.5199 8.97823C15.5299 9.07123 15.5299 9.15426 15.5099 9.21926C15.4599 9.48826 15.26 9.70223 14.98 9.76723C14.48 9.86923 14.1599 9.26625 14.1599 9.26625C14.1599 9.26625 13.6999 8.48723 11.9699 8.48723H11.9399C10.2099 8.48723 9.74992 9.26625 9.74992 9.26625C9.74992 9.26625 9.42992 9.86923 8.92991 9.76723C8.64991 9.70223 8.43988 9.48826 8.39988 9.21926C8.37988 9.15426 8.37993 9.07123 8.38993 8.97823L8.40989 8.89525C8.42989 8.81125 8.5499 8.34824 9.0999 7.90224C9.3499 7.69424 9.70989 7.47825 10.2199 7.32225ZM11.9499 3.27924C12.8399 3.27924 13.5499 4.00223 13.5499 4.88523C13.5499 5.76823 12.8399 6.48323 11.9499 6.48323C11.0699 6.48323 10.3499 5.76823 10.3499 4.88523C10.3499 4.00223 11.0699 3.27924 11.9499 3.27924Z" fill="black"/>
</svg>
