<svg width="24" height="24" viewBox="0 0 24 24" fill="none" xmlns="http://www.w3.org/2000/svg">
<path fill-rule="evenodd" clip-rule="evenodd" d="M12.5 2.75C12.2702 2.75 12.0426 2.79527 11.8303 2.88321C11.618 2.97116 11.4251 3.10006 11.2626 3.26256C11.1001 3.42507 10.9712 3.61798 10.8832 3.8303C10.7953 4.04262 10.75 4.27019 10.75 4.5C10.75 4.72981 10.7953 4.95738 10.8832 5.1697C10.9712 5.38202 11.1001 5.57493 11.2626 5.73744C11.4251 5.89994 11.618 6.02884 11.8303 6.11679C12.0426 6.20474 12.2702 6.25 12.5 6.25C12.9641 6.25 13.4092 6.06563 13.7374 5.73744C14.0656 5.40925 14.25 4.96413 14.25 4.5C14.25 4.03587 14.0656 3.59075 13.7374 3.26256C13.4092 2.93437 12.9641 2.75 12.5 2.75ZM9.25 4.5C9.25 3.63805 9.59241 2.8114 10.2019 2.2019C10.8114 1.59241 11.638 1.25 12.5 1.25C13.362 1.25 14.1886 1.59241 14.7981 2.2019C15.4076 2.8114 15.75 3.63805 15.75 4.5C15.75 5.36195 15.4076 6.1886 14.7981 6.7981C14.1886 7.40759 13.362 7.75 12.5 7.75C11.638 7.75 10.8114 7.40759 10.2019 6.7981C9.59241 6.1886 9.25 5.36195 9.25 4.5ZM10.93 9.267C11.129 9.257 11.322 9.25 11.5 9.25C12.054 9.25 12.654 9.312 13.194 9.39C14.715 9.608 15.867 10.73 16.328 12.112C16.3785 12.2634 16.4814 12.3919 16.6181 12.4742C16.7549 12.5565 16.9166 12.5873 17.074 12.561L18.877 12.261C18.9755 12.2416 19.0769 12.2421 19.1752 12.2625C19.2735 12.283 19.3666 12.323 19.4492 12.3801C19.5317 12.4373 19.602 12.5104 19.6557 12.5952C19.7095 12.68 19.7457 12.7747 19.7621 12.8737C19.7786 12.9728 19.775 13.0741 19.7516 13.1717C19.7282 13.2694 19.6854 13.3613 19.6258 13.4421C19.5662 13.5229 19.491 13.5908 19.4046 13.642C19.3182 13.6932 19.2225 13.7265 19.123 13.74L17.32 14.04C16.8103 14.1249 16.287 14.0251 15.8443 13.7585C15.4015 13.492 15.0685 13.0762 14.905 12.586C14.598 11.664 13.862 11.001 12.981 10.874C12.7136 10.8352 12.4452 10.8042 12.176 10.781L11.905 13.492C11.821 14.332 11.811 14.554 11.868 14.752C11.924 14.95 12.05 15.132 12.565 15.801L16.995 21.541C17.0552 21.619 17.0995 21.7081 17.1252 21.8032C17.151 21.8983 17.1578 21.9976 17.1452 22.0953C17.1326 22.193 17.1009 22.2873 17.0519 22.3728C17.0029 22.4583 16.9375 22.5333 16.8595 22.5935C16.7815 22.6537 16.6924 22.698 16.5973 22.7237C16.5022 22.7495 16.4029 22.7563 16.3052 22.7437C16.2075 22.7311 16.1132 22.6994 16.0277 22.6504C15.9422 22.6014 15.8672 22.536 15.807 22.458L11.377 16.718L11.307 16.625C10.896 16.095 10.571 15.674 10.425 15.165C10.28 14.655 10.333 14.127 10.4 13.459L10.412 13.343L10.666 10.803C8.993 11.076 7.75 12.649 7.75 14.5C7.75 14.6989 7.67098 14.8897 7.53033 15.0303C7.38968 15.171 7.19891 15.25 7 15.25C6.80109 15.25 6.61032 15.171 6.46967 15.0303C6.32902 14.8897 6.25 14.6989 6.25 14.5C6.25 11.86 8.164 9.417 10.93 9.267ZM10.147 16.765C10.3419 16.8041 10.5133 16.9189 10.6235 17.0843C10.7338 17.2497 10.7739 17.4521 10.735 17.647C10.3775 19.4346 9.4013 21.0389 7.978 22.178L7.468 22.586C7.31232 22.7073 7.1151 22.7624 6.9191 22.7393C6.7231 22.7161 6.54411 22.6167 6.42095 22.4625C6.29778 22.3082 6.24037 22.1117 6.26116 21.9154C6.28195 21.7192 6.37926 21.539 6.532 21.414L7.041 21.007C8.18904 20.0885 8.97653 18.7947 9.265 17.353C9.3041 17.1581 9.41895 16.9867 9.58432 16.8765C9.7497 16.7662 9.95208 16.7261 10.147 16.765Z" fill="black"/>
</svg>
