<svg width="24" height="24" viewBox="0 0 24 24" fill="none" xmlns="http://www.w3.org/2000/svg">
<g clip-path="url(#clip0_221_15965)">
<path fill-rule="evenodd" clip-rule="evenodd" d="M11.001 1.25C9.74126 1.25 8.53308 1.75044 7.64228 2.64124C6.75148 3.53204 6.25104 4.74022 6.25104 6C6.25104 7.25978 6.75148 8.46796 7.64228 9.35876C8.53308 10.2496 9.74126 10.75 11.001 10.75C12.2608 10.75 13.469 10.2496 14.3598 9.35876C15.2506 8.46796 15.751 7.25978 15.751 6C15.751 4.74022 15.2506 3.53204 14.3598 2.64124C13.469 1.75044 12.2608 1.25 11.001 1.25ZM7.75104 6C7.75104 5.13805 8.09345 4.3114 8.70294 3.7019C9.31243 3.09241 10.1391 2.75 11.001 2.75C11.863 2.75 12.6896 3.09241 13.2991 3.7019C13.9086 4.3114 14.251 5.13805 14.251 6C14.251 6.86195 13.9086 7.6886 13.2991 8.2981C12.6896 8.90759 11.863 9.25 11.001 9.25C10.1391 9.25 9.31243 8.90759 8.70294 8.2981C8.09345 7.6886 7.75104 6.86195 7.75104 6Z" fill="black"/>
<path d="M16.001 15.25C15.8021 15.25 15.6114 15.329 15.4707 15.4697C15.3301 15.6103 15.251 15.8011 15.251 16C15.251 16.1989 15.3301 16.3897 15.4707 16.5303C15.6114 16.671 15.8021 16.75 16.001 16.75H18.001C18.1999 16.75 18.3907 16.671 18.5314 16.5303C18.672 16.3897 18.751 16.1989 18.751 16C18.751 15.8011 18.672 15.6103 18.5314 15.4697C18.3907 15.329 18.1999 15.25 18.001 15.25H16.001Z" fill="black"/>
<path fill-rule="evenodd" clip-rule="evenodd" d="M11.001 12.25C11.97 12.25 12.903 12.342 13.776 12.513C14.2669 12.0595 14.848 11.7148 15.4813 11.5012C16.1146 11.2877 16.7858 11.2102 17.451 11.2738C18.1163 11.3373 18.7607 11.5406 19.342 11.8703C19.9234 12.1999 20.4286 12.6485 20.8247 13.1868C21.2209 13.725 21.4989 14.3408 21.6408 14.9939C21.7827 15.647 21.7851 16.3226 21.648 16.9767C21.5109 17.6308 21.2373 18.2486 20.8451 18.7897C20.4529 19.3308 19.951 19.7831 19.372 20.117C18.998 20.927 18.3 21.57 17.121 22.009C15.811 22.496 13.869 22.75 11.001 22.75C8.97503 22.75 7.42103 22.623 6.22703 22.381C5.03703 22.141 4.15703 21.776 3.52703 21.264C2.24903 20.222 2.25003 18.764 2.25103 17.602V17.5C2.25103 15.866 3.42103 14.54 4.97703 13.664C6.55703 12.776 8.68703 12.25 11.001 12.25ZM3.75103 17.5C3.75103 16.649 4.37303 15.725 5.71203 14.972C7.02803 14.232 8.89603 13.75 11.002 13.75C11.607 13.75 12.195 13.79 12.757 13.865C12.4189 14.5369 12.2452 15.2795 12.2502 16.0317C12.2551 16.7839 12.4387 17.5242 12.7857 18.1916C13.1327 18.8589 13.6333 19.4344 14.2462 19.8705C14.8591 20.3066 15.5668 20.5909 16.311 20.7C15.241 21.037 13.578 21.25 11.001 21.25C9.02603 21.25 7.58103 21.125 6.52403 20.911C5.46403 20.697 4.84403 20.402 4.47403 20.101C3.79003 19.544 3.75103 18.808 3.75103 17.5ZM17.001 12.75C16.1391 12.75 15.3124 13.0924 14.7029 13.7019C14.0934 14.3114 13.751 15.138 13.751 16C13.751 16.8619 14.0934 17.6886 14.7029 18.2981C15.3124 18.9076 16.1391 19.25 17.001 19.25C17.863 19.25 18.6896 18.9076 19.2991 18.2981C19.9086 17.6886 20.251 16.8619 20.251 16C20.251 15.138 19.9086 14.3114 19.2991 13.7019C18.6896 13.0924 17.863 12.75 17.001 12.75Z" fill="black"/>
</g>
<defs>
<clipPath id="clip0_221_15965">
<rect width="21.5" height="21.5" fill="white" transform="translate(1.25 1.25)"/>
</clipPath>
</defs>
</svg>
