<svg width="24" height="24" viewBox="0 0 24 24" fill="none" xmlns="http://www.w3.org/2000/svg">
<path fill-rule="evenodd" clip-rule="evenodd" d="M9.97904 1.25C7.37348 1.25 5.22918 3.3943 5.22918 5.99986C5.22918 8.60542 7.37348 10.7497 9.97904 10.7497C12.5846 10.7497 14.7289 8.60542 14.7289 5.99986C14.7289 3.3943 12.5846 1.25 9.97904 1.25ZM6.72922 5.99986C6.72922 4.21707 8.19625 2.75003 9.97904 2.75003C11.7618 2.75003 13.2289 4.21707 13.2289 5.99986C13.2289 7.78265 11.7618 9.24969 9.97904 9.24969C8.19625 9.24969 6.72922 7.78265 6.72922 5.99986ZM9.97904 12.2498C7.66599 12.2498 5.53369 12.7763 3.9549 13.6643C2.39862 14.5403 1.22859 15.8663 1.22859 17.4999V17.6019C1.22784 18.7644 1.22709 20.2224 2.50587 21.2642C3.13513 21.7765 4.01565 22.141 5.20593 22.381C6.39771 22.6232 7.95324 22.75 9.97904 22.75C12.0048 22.75 13.5589 22.6232 14.7529 22.381C15.9432 22.141 16.8229 21.7765 17.453 21.2642C18.7325 20.2224 18.7302 18.7644 18.7295 17.6019V17.4999C18.7295 15.8663 17.5595 14.5403 16.0039 13.6643C14.4244 12.7763 12.2928 12.2498 9.97904 12.2498ZM2.72862 17.4999C2.72862 16.6494 3.35114 15.7253 4.68992 14.9723C6.0062 14.2321 7.87374 13.7498 9.97979 13.7498C12.0843 13.7498 13.9519 14.2321 15.2682 14.9723C16.6084 15.7253 17.2295 16.6494 17.2295 17.4999C17.2295 18.8079 17.189 19.5444 16.5049 20.1002C16.1352 20.4024 15.5149 20.6972 14.4551 20.911C13.3984 21.1255 11.9531 21.25 9.97904 21.25C8.005 21.25 6.55896 21.1255 5.50294 20.911C4.44316 20.6972 3.8229 20.4024 3.45314 20.1009C2.76912 19.5444 2.72862 18.8079 2.72862 17.4999Z" fill="black"/>
<path fill-rule="evenodd" clip-rule="evenodd" d="M22.003 18.8446C22.3631 18.8546 22.6731 18.5946 22.7431 18.2246C22.7431 18.2246 23.2231 16.1046 19.983 14.2745C17.1129 12.6445 13.8229 12.8444 13.8229 12.8444C13.4029 12.8744 13.0928 13.2245 13.1228 13.6445C13.1428 14.0545 14.0629 14.3345 14.3329 14.3345C15.2129 14.3445 17.3329 14.4944 19.243 15.5745C21.163 16.6645 21.253 17.9946 21.253 17.9946C21.293 18.5546 21.553 18.8346 22.003 18.8446Z" fill="black"/>
<path fill-rule="evenodd" clip-rule="evenodd" d="M19.3814 6.05347C17.5122 6.05347 15.9913 7.57427 15.9913 9.44346C15.9913 11.3126 17.5122 12.8336 19.3814 12.8336C21.2506 12.8336 22.7714 11.3126 22.7714 9.44346C22.7714 7.57427 21.2506 6.05347 19.3814 6.05347ZM19.3814 7.56266C20.4263 7.56266 21.2622 8.41018 21.2622 9.44346C21.2622 10.4883 20.4263 11.3359 19.3814 11.3359C18.3365 11.3359 17.489 10.4883 17.489 9.44346C17.489 8.41018 18.3365 7.56266 19.3814 7.56266Z" fill="black"/>
</svg>
