<svg width="24" height="24" viewBox="0 0 24 24" fill="none" xmlns="http://www.w3.org/2000/svg">
<g clip-path="url(#clip0_221_15009)">
<path fill-rule="evenodd" clip-rule="evenodd" d="M11.943 1.25H12.057C14.366 1.25 16.175 1.25 17.587 1.44C19.031 1.634 20.171 2.04 21.066 2.934C21.961 3.829 22.366 4.969 22.56 6.414C22.75 7.825 22.75 9.634 22.75 11.943V12.057C22.75 14.366 22.75 16.175 22.56 17.587C22.366 19.031 21.96 20.171 21.066 21.066C20.171 21.961 19.031 22.366 17.586 22.56C16.175 22.75 14.366 22.75 12.057 22.75H11.943C9.634 22.75 7.825 22.75 6.413 22.56C4.969 22.366 3.829 21.96 2.934 21.066C2.039 20.171 1.634 19.031 1.44 17.586C1.25 16.175 1.25 14.366 1.25 12.057V11.943C1.25 9.634 1.25 7.825 1.44 6.413C1.634 4.969 2.04 3.829 2.934 2.934C3.829 2.039 4.969 1.634 6.414 1.44C7.825 1.25 9.634 1.25 11.943 1.25ZM6.25 2.982C5.185 3.165 4.508 3.482 3.995 3.995C3.481 4.508 3.165 5.185 2.982 6.25H6.25V2.982ZM7.75 2.82V6.25H11.25V2.75C9.855 2.752 8.71 2.761 7.75 2.82ZM12.75 2.75V6.25H16.25V2.82C15.29 2.761 14.145 2.752 12.75 2.75ZM17.75 2.982V6.25H21.018C20.835 5.185 20.518 4.508 20.005 3.995C19.492 3.481 18.815 3.165 17.75 2.982ZM21.18 7.75H2.82C2.75 8.876 2.75 10.258 2.75 12C2.75 13.742 2.75 15.124 2.82 16.25H21.18C21.25 15.124 21.25 13.742 21.25 12C21.25 10.258 21.25 8.876 21.18 7.75ZM21.018 17.75H17.75V21.018C18.815 20.835 19.492 20.518 20.005 20.005C20.519 19.492 20.835 18.815 21.018 17.75ZM16.25 21.18V17.75H12.75V21.25C14.145 21.248 15.29 21.239 16.25 21.18ZM11.25 21.25V17.75H7.75V21.18C8.71 21.239 9.855 21.248 11.25 21.25ZM6.25 21.018V17.75H2.982C3.165 18.815 3.482 19.492 3.995 20.005C4.508 20.519 5.185 20.835 6.25 21.018ZM12.78 9.748L12.83 9.782L12.876 9.813C13.366 10.143 13.803 10.436 14.111 10.72C14.445 11.027 14.75 11.434 14.75 12C14.75 12.566 14.445 12.973 14.111 13.28C13.803 13.564 13.366 13.858 12.876 14.187L12.83 14.218L12.78 14.252C12.286 14.584 11.842 14.882 11.468 15.055C11.076 15.236 10.519 15.391 9.986 15.039C9.496 14.715 9.362 14.173 9.306 13.739C9.25 13.3 9.25 12.723 9.25 12.051V11.949C9.25 11.277 9.25 10.699 9.306 10.261C9.362 9.827 9.496 9.285 9.986 8.961C10.519 8.609 11.076 8.763 11.468 8.945C11.841 9.118 12.287 9.416 12.78 9.748ZM10.819 10.298L10.837 10.306C11.088 10.422 11.432 10.65 11.992 11.026C12.542 11.397 12.882 11.627 13.094 11.823C13.1538 11.8741 13.2056 11.9338 13.248 12L13.245 12.007C13.203 12.0706 13.1522 12.1278 13.094 12.177C12.881 12.373 12.543 12.603 11.992 12.973C11.432 13.35 11.088 13.578 10.837 13.693L10.818 13.703C10.8077 13.652 10.7993 13.6006 10.793 13.549C10.75 13.217 10.749 12.738 10.749 12C10.749 11.262 10.751 10.783 10.793 10.45C10.801 10.3873 10.8093 10.3367 10.818 10.298" fill="black"/>
</g>
<defs>
<clipPath id="clip0_221_15009">
<rect width="24" height="24" fill="white"/>
</clipPath>
</defs>
</svg>
