<svg width="24" height="24" viewBox="0 0 24 24" fill="none" xmlns="http://www.w3.org/2000/svg">
<g clip-path="url(#clip0_221_17409)">
<path fill-rule="evenodd" clip-rule="evenodd" d="M12.476 2.75C9.726 2.75 7.512 4.95 7.512 7.647C7.512 8.109 7.577 8.556 7.697 8.978C8.194 9.122 8.66 9.338 9.08 9.618C9.16639 9.67033 9.24132 9.73958 9.3003 9.82158C9.35927 9.90358 9.40108 9.99665 9.4232 10.0952C9.44533 10.1938 9.44732 10.2958 9.42906 10.3951C9.41079 10.4944 9.37265 10.5891 9.31692 10.6733C9.26118 10.7576 9.18901 10.8297 9.10472 10.8853C9.02044 10.941 8.92578 10.9791 8.82642 10.9972C8.72706 11.0154 8.62506 11.0133 8.52652 10.9911C8.42799 10.9689 8.33495 10.927 8.253 10.868C7.66992 10.4817 6.98546 10.2767 6.286 10.279C4.325 10.279 2.75 11.849 2.75 13.765C2.75 15.681 4.325 17.25 6.286 17.25C6.48491 17.25 6.67568 17.329 6.81633 17.4697C6.95698 17.6103 7.036 17.8011 7.036 18C7.036 18.1989 6.95698 18.3897 6.81633 18.5303C6.67568 18.671 6.48491 18.75 6.286 18.75C3.513 18.75 1.25 16.526 1.25 13.765C1.25 11.06 3.42 8.872 6.114 8.782C6.04632 8.40745 6.01218 8.02761 6.012 7.647C6.012 4.106 8.914 1.25 12.476 1.25C15.634 1.25 18.272 3.494 18.831 6.471C21.131 7.448 22.75 9.709 22.75 12.353C22.75 15.427 20.562 17.984 17.657 18.606C17.4625 18.6476 17.2594 18.6103 17.0924 18.5022C16.9254 18.3941 16.8081 18.224 16.7665 18.0295C16.7249 17.835 16.7622 17.6319 16.8703 17.4649C16.9784 17.2979 17.1485 17.1806 17.343 17.139C19.583 16.659 21.25 14.693 21.25 12.353C21.25 10.216 19.86 8.391 17.912 7.725C17.3887 7.54567 16.8392 7.45443 16.286 7.455C15.703 7.455 15.146 7.555 14.628 7.735C14.4414 7.79593 14.2383 7.78126 14.0624 7.69415C13.8865 7.60704 13.7517 7.45443 13.6871 7.26909C13.6224 7.08374 13.633 6.88043 13.7166 6.7028C13.8001 6.52516 13.95 6.38737 14.134 6.319C15.1037 5.97978 16.1401 5.87526 17.158 6.014C16.8087 5.05402 16.1715 4.22531 15.3335 3.6411C14.4955 3.05689 13.4975 2.74568 12.476 2.75Z" fill="black"/>
<path fill-rule="evenodd" clip-rule="evenodd" d="M12.454 13.783C11.814 13.587 11.336 14.032 11.112 14.263L10.202 15.412L10.172 15.454L9.022 17.008L8.994 17.048L8.439 17.867C8.304 18.119 8.127 18.563 8.37 19.033L8.388 19.066C8.638 19.516 9.094 19.625 9.374 19.664C9.652 19.703 10.009 19.703 10.384 19.703H10.669V20.073C10.669 20.642 10.669 21.146 10.719 21.517C10.762 21.833 10.891 22.488 11.546 22.689C12.186 22.885 12.664 22.44 12.888 22.209C13.151 21.935 13.453 21.526 13.798 21.06L14.978 19.464L15.006 19.424L15.046 19.37C15.248 19.098 15.439 18.835 15.561 18.605C15.696 18.353 15.873 17.909 15.63 17.439L15.612 17.406C15.362 16.956 14.906 16.847 14.626 16.808C14.348 16.769 13.991 16.769 13.616 16.769H13.331V16.399C13.331 15.83 13.331 15.326 13.281 14.955C13.238 14.639 13.109 13.984 12.454 13.783ZM11.827 15.745C11.6753 15.9441 11.5253 16.1444 11.377 16.346L10.23 17.9L10.009 18.201C10.1257 18.2023 10.267 18.203 10.433 18.203H10.466C10.668 18.203 10.884 18.203 11.066 18.226C11.276 18.253 11.55 18.322 11.786 18.543L11.791 18.548L11.804 18.561C12.039 18.791 12.116 19.067 12.146 19.282C12.171 19.463 12.171 19.677 12.171 19.868V20.018C12.171 20.298 12.171 20.531 12.174 20.727C12.3 20.564 12.447 20.365 12.624 20.126L13.772 18.572C13.856 18.4593 13.9297 18.359 13.993 18.271L13.569 18.269H13.536C13.334 18.269 13.118 18.269 12.936 18.246C12.6681 18.2206 12.4156 18.1094 12.216 17.929L12.211 17.924L12.198 17.911C12.0051 17.7167 11.8844 17.4623 11.856 17.19C11.8362 16.9953 11.8279 16.7996 11.831 16.604V16.454C11.831 16.174 11.831 15.941 11.828 15.745" fill="black"/>
</g>
<defs>
<clipPath id="clip0_221_17409">
<rect width="24" height="24" fill="white"/>
</clipPath>
</defs>
</svg>
