<svg width="24" height="24" viewBox="0 0 24 24" fill="none" xmlns="http://www.w3.org/2000/svg">
<g clip-path="url(#clip0_221_17460)">
<path fill-rule="evenodd" clip-rule="evenodd" d="M12 1.25C12.1989 1.25 12.3897 1.32902 12.5303 1.46967C12.671 1.61032 12.75 1.80109 12.75 2V4.19L14.47 2.47C14.6122 2.33752 14.8002 2.2654 14.9945 2.26883C15.1888 2.27225 15.3742 2.35097 15.5116 2.48838C15.649 2.62579 15.7277 2.81118 15.7312 3.00548C15.7346 3.19978 15.6625 3.38783 15.53 3.53L12.75 6.31V10.701L16.552 8.506L17.57 4.708C17.5955 4.61286 17.6394 4.52366 17.6994 4.44551C17.7593 4.36736 17.8341 4.30178 17.9194 4.25252C18.0047 4.20326 18.0988 4.17128 18.1965 4.15841C18.2941 4.14554 18.3933 4.15202 18.4885 4.1775C18.5836 4.20298 18.6728 4.24694 18.751 4.30689C18.8291 4.36684 18.8947 4.44159 18.944 4.52688C18.9932 4.61217 19.0252 4.70633 19.0381 4.80398C19.0509 4.90163 19.0445 5.00086 19.019 5.096L18.389 7.446L20.285 6.351C20.4571 6.25311 20.661 6.2273 20.8522 6.27919C21.0433 6.33108 21.2062 6.45646 21.3052 6.62798C21.4042 6.79949 21.4314 7.00322 21.3808 7.19469C21.3301 7.38616 21.2058 7.54984 21.035 7.65L19.14 8.744L21.49 9.374C21.6821 9.42558 21.8459 9.55139 21.9453 9.72373C22.0447 9.89608 22.0716 10.1009 22.02 10.293C21.9684 10.4851 21.8426 10.6489 21.6702 10.7483C21.4979 10.8477 21.2931 10.8746 21.101 10.823L17.303 9.805L13.5 12L17.302 14.195L21.1 13.177C21.2923 13.1255 21.4971 13.1526 21.6695 13.2522C21.8418 13.3518 21.9675 13.5157 22.019 13.708C22.0704 13.9003 22.0434 14.1051 21.9438 14.2775C21.8442 14.4498 21.6803 14.5755 21.488 14.627L19.139 15.256L21.035 16.351C21.121 16.3999 21.1964 16.4653 21.257 16.5435C21.3176 16.6216 21.3622 16.711 21.3881 16.8065C21.414 16.9019 21.4208 17.0016 21.408 17.0997C21.3953 17.1977 21.3633 17.2923 21.3138 17.378C21.2643 17.4637 21.1984 17.5387 21.1199 17.5988C21.0413 17.6588 20.9516 17.7028 20.856 17.7281C20.7604 17.7534 20.6607 17.7595 20.5627 17.7461C20.4647 17.7327 20.3703 17.7 20.285 17.65L18.389 16.555L19.019 18.904C19.0445 18.9991 19.0509 19.0984 19.0381 19.196C19.0252 19.2937 18.9932 19.3878 18.944 19.4731C18.8947 19.5584 18.8291 19.6332 18.751 19.6931C18.6728 19.7531 18.5836 19.797 18.4885 19.8225C18.3933 19.848 18.2941 19.8545 18.1965 19.8416C18.0988 19.8287 18.0047 19.7967 17.9194 19.7475C17.8341 19.6982 17.7593 19.6326 17.6994 19.5545C17.6394 19.4763 17.5955 19.3871 17.57 19.292L16.552 15.494L12.75 13.3V17.69L15.53 20.47C15.6016 20.5392 15.6588 20.6219 15.6982 20.7134C15.7375 20.8049 15.7583 20.9033 15.7592 21.0028C15.7601 21.1024 15.7411 21.2012 15.7035 21.2934C15.6658 21.3856 15.6102 21.4693 15.5398 21.5398C15.4694 21.6102 15.3857 21.666 15.2935 21.7037C15.2014 21.7415 15.1026 21.7605 15.003 21.7597C14.9035 21.7589 14.805 21.7382 14.7135 21.699C14.622 21.6597 14.5392 21.6026 14.47 21.531L12.75 19.811V22C12.75 22.1989 12.671 22.3897 12.5303 22.5303C12.3897 22.671 12.1989 22.75 12 22.75C11.8011 22.75 11.6103 22.671 11.4697 22.5303C11.329 22.3897 11.25 22.1989 11.25 22V19.81L9.52998 21.53C9.3878 21.6625 9.19976 21.7346 9.00546 21.7312C8.81116 21.7277 8.62577 21.649 8.48836 21.5116C8.35095 21.3742 8.27223 21.1888 8.26881 20.9945C8.26538 20.8002 8.3375 20.6122 8.46998 20.47L11.25 17.69V13.299L7.44798 15.494L6.42998 19.292C6.4045 19.3871 6.36054 19.4763 6.30059 19.5545C6.24064 19.6326 6.16589 19.6982 6.0806 19.7475C5.99531 19.7967 5.90115 19.8287 5.8035 19.8416C5.70585 19.8545 5.60662 19.848 5.51148 19.8225C5.41634 19.797 5.32715 19.7531 5.24899 19.6931C5.17084 19.6332 5.10526 19.5584 5.056 19.4731C5.00674 19.3878 4.97476 19.2937 4.96189 19.196C4.94902 19.0984 4.9555 18.9991 4.98098 18.904L5.61098 16.554L3.71498 17.65C3.54259 17.7495 3.33775 17.7764 3.14553 17.7248C2.9533 17.6732 2.78944 17.5474 2.68998 17.375C2.59052 17.2026 2.56362 16.9978 2.6152 16.8055C2.66677 16.6133 2.79259 16.4495 2.96498 16.35L4.86098 15.256L2.51098 14.626C2.41333 14.6028 2.32131 14.5603 2.24039 14.501C2.15947 14.4416 2.09129 14.3666 2.03988 14.2804C1.98847 14.1942 1.95489 14.0986 1.94112 13.9992C1.92734 13.8997 1.93366 13.7986 1.9597 13.7016C1.98574 13.6047 2.03097 13.514 2.0927 13.4349C2.15444 13.3558 2.23143 13.2898 2.31911 13.241C2.40679 13.1922 2.50338 13.1614 2.60316 13.1506C2.70294 13.1398 2.80387 13.1491 2.89998 13.178L6.69798 14.195L10.5 12L6.69798 9.805L2.89998 10.823C2.80477 10.8485 2.70548 10.855 2.60777 10.8421C2.51006 10.8292 2.41584 10.7971 2.33051 10.7478C2.24517 10.6985 2.17038 10.6329 2.11041 10.5547C2.05044 10.4765 2.00646 10.3872 1.98098 10.292C1.9555 10.1968 1.94903 10.0975 1.96193 9.99979C1.97482 9.90208 2.00684 9.80786 2.05615 9.72253C2.10546 9.63719 2.17109 9.5624 2.2493 9.50243C2.32751 9.44246 2.41677 9.39848 2.51198 9.373L4.86098 8.744L2.96498 7.65C2.87962 7.60075 2.8048 7.53518 2.74478 7.45702C2.68477 7.37885 2.64073 7.28963 2.6152 7.19445C2.58966 7.09927 2.58312 7 2.59595 6.90229C2.60878 6.80458 2.64073 6.71036 2.68998 6.625C2.73923 6.53964 2.8048 6.46482 2.88297 6.4048C2.96113 6.34478 3.05035 6.30075 3.14553 6.27522C3.33775 6.22364 3.54259 6.25054 3.71498 6.35L5.60998 7.446L4.97998 5.097C4.92853 4.90472 4.95557 4.69987 5.05515 4.52753C5.15473 4.35518 5.3187 4.22945 5.51098 4.178C5.70326 4.12655 5.90811 4.15359 6.08045 4.25317C6.2528 4.35275 6.37853 4.51672 6.42998 4.709L7.44698 8.507L11.25 10.7V6.31L8.46998 3.53C8.3375 3.38783 8.26538 3.19978 8.26881 3.00548C8.27223 2.81118 8.35095 2.62579 8.48836 2.48838C8.62577 2.35097 8.81116 2.27225 9.00546 2.26883C9.19976 2.2654 9.3878 2.33752 9.52998 2.47L11.25 4.19V2C11.25 1.80109 11.329 1.61032 11.4697 1.46967C11.6103 1.32902 11.8011 1.25 12 1.25Z" fill="black"/>
</g>
<defs>
<clipPath id="clip0_221_17460">
<rect width="24" height="24" fill="white"/>
</clipPath>
</defs>
</svg>
