<svg width="24" height="24" viewBox="0 0 24 24" fill="none" xmlns="http://www.w3.org/2000/svg">
<g clip-path="url(#clip0_221_17470)">
<path d="M13 18.75C13 19.0152 12.8946 19.2696 12.7071 19.4571C12.5196 19.6446 12.2652 19.75 12 19.75C11.7348 19.75 11.4804 19.6446 11.2929 19.4571C11.1054 19.2696 11 19.0152 11 18.75C11 18.4848 11.1054 18.2304 11.2929 18.0429C11.4804 17.8554 11.7348 17.75 12 17.75C12.2652 17.75 12.5196 17.8554 12.7071 18.0429C12.8946 18.2304 13 18.4848 13 18.75ZM13 21.75C13 22.0152 12.8946 22.2696 12.7071 22.4571C12.5196 22.6446 12.2652 22.75 12 22.75C11.7348 22.75 11.4804 22.6446 11.2929 22.4571C11.1054 22.2696 11 22.0152 11 21.75C11 21.4848 11.1054 21.2304 11.2929 21.0429C11.4804 20.8554 11.7348 20.75 12 20.75C12.2652 20.75 12.5196 20.8554 12.7071 21.0429C12.8946 21.2304 13 21.4848 13 21.75ZM16 20.25C16 20.5152 15.8946 20.7696 15.7071 20.9571C15.5196 21.1446 15.2652 21.25 15 21.25C14.7348 21.25 14.4804 21.1446 14.2929 20.9571C14.1054 20.7696 14 20.5152 14 20.25C14 19.9848 14.1054 19.7304 14.2929 19.5429C14.4804 19.3554 14.7348 19.25 15 19.25C15.2652 19.25 15.5196 19.3554 15.7071 19.5429C15.8946 19.7304 16 19.9848 16 20.25ZM16 17.25C16 17.5152 15.8946 17.7696 15.7071 17.9571C15.5196 18.1446 15.2652 18.25 15 18.25C14.7348 18.25 14.4804 18.1446 14.2929 17.9571C14.1054 17.7696 14 17.5152 14 17.25C14 16.9848 14.1054 16.7304 14.2929 16.5429C14.4804 16.3554 14.7348 16.25 15 16.25C15.2652 16.25 15.5196 16.3554 15.7071 16.5429C15.8946 16.7304 16 16.9848 16 17.25ZM10 20.25C10 20.5152 9.89464 20.7696 9.70711 20.9571C9.51957 21.1446 9.26522 21.25 9 21.25C8.73478 21.25 8.48043 21.1446 8.29289 20.9571C8.10536 20.7696 8 20.5152 8 20.25C8 19.9848 8.10536 19.7304 8.29289 19.5429C8.48043 19.3554 8.73478 19.25 9 19.25C9.26522 19.25 9.51957 19.3554 9.70711 19.5429C9.89464 19.7304 10 19.9848 10 20.25ZM10 17.25C10 17.5152 9.89464 17.7696 9.70711 17.9571C9.51957 18.1446 9.26522 18.25 9 18.25C8.73478 18.25 8.48043 18.1446 8.29289 17.9571C8.10536 17.7696 8 17.5152 8 17.25C8 16.9848 8.10536 16.7304 8.29289 16.5429C8.48043 16.3554 8.73478 16.25 9 16.25C9.26522 16.25 9.51957 16.3554 9.70711 16.5429C9.89464 16.7304 10 16.9848 10 17.25Z" fill="black"/>
<path fill-rule="evenodd" clip-rule="evenodd" d="M12.476 4.5C9.726 4.5 7.512 6.7 7.512 9.397C7.512 9.859 7.577 10.306 7.697 10.728C8.194 10.872 8.66 11.088 9.08 11.368C9.16639 11.4203 9.24132 11.4896 9.3003 11.5716C9.35927 11.6536 9.40108 11.7466 9.4232 11.8452C9.44533 11.9438 9.44732 12.0458 9.42905 12.1451C9.41079 12.2444 9.37265 12.3391 9.31692 12.4233C9.26118 12.5076 9.18901 12.5797 9.10472 12.6353C9.02044 12.691 8.92578 12.7291 8.82642 12.7472C8.72706 12.7654 8.62506 12.7633 8.52652 12.7411C8.42799 12.7189 8.33495 12.677 8.253 12.618C7.66992 12.2317 6.98546 12.0267 6.286 12.029C4.325 12.029 2.75 13.599 2.75 15.515C2.75 17.431 4.325 19 6.286 19C6.48491 19 6.67568 19.079 6.81633 19.2197C6.95698 19.3603 7.036 19.5511 7.036 19.75C7.036 19.9489 6.95698 20.1397 6.81633 20.2803C6.67568 20.421 6.48491 20.5 6.286 20.5C3.513 20.5 1.25 18.276 1.25 15.515C1.25 12.81 3.42 10.622 6.114 10.532C6.04632 10.1575 6.01218 9.77761 6.012 9.397C6.012 5.856 8.914 3 12.476 3C15.634 3 18.272 5.244 18.831 8.221C21.131 9.198 22.75 11.459 22.75 14.103C22.75 17.177 20.562 19.734 17.657 20.356C17.4625 20.3976 17.2594 20.3603 17.0924 20.2522C16.9254 20.1441 16.8081 19.974 16.7665 19.7795C16.7249 19.585 16.7622 19.3819 16.8703 19.2149C16.9784 19.0479 17.1485 18.9306 17.343 18.889C19.583 18.409 21.25 16.443 21.25 14.103C21.25 11.966 19.86 10.141 17.912 9.475C17.3887 9.29567 16.8392 9.20443 16.286 9.205C15.703 9.205 15.146 9.305 14.628 9.485C14.4414 9.54593 14.2383 9.53126 14.0624 9.44415C13.8865 9.35704 13.7517 9.20443 13.6871 9.01909C13.6224 8.83374 13.633 8.63043 13.7166 8.4528C13.8001 8.27516 13.95 8.13737 14.134 8.069C15.1037 7.72978 16.1401 7.62526 17.158 7.764C16.8087 6.80402 16.1715 5.97531 15.3335 5.3911C14.4955 4.80689 13.4975 4.49568 12.476 4.5Z" fill="black"/>
<path fill-rule="evenodd" clip-rule="evenodd" d="M4.52947 1.81051C5.32386 1.43222 6.19448 1.24129 7.07428 1.25241C7.95407 1.26354 8.81958 1.47642 9.60416 1.87466C10.3887 2.27291 11.0715 2.8459 11.5998 3.54952L10.4002 4.45015C10.0098 3.93009 9.50514 3.50657 8.92523 3.21222C8.34532 2.91786 7.7056 2.76051 7.05531 2.75229C6.40503 2.74407 5.76153 2.8852 5.17437 3.1648C4.5872 3.4444 4.07204 3.85502 3.66854 4.36505C3.26504 4.87507 2.98396 5.47089 2.84696 6.10664C2.70996 6.74238 2.72068 7.40108 2.87831 8.03203C3.03593 8.66298 3.33625 9.24933 3.75614 9.74595C4.17602 10.2426 4.70428 10.6362 5.30024 10.8966L4.69976 12.2711C3.89347 11.9189 3.17877 11.3863 2.61068 10.7144C2.0426 10.0425 1.63629 9.24922 1.42303 8.39559C1.20978 7.54195 1.19527 6.65077 1.38062 5.79064C1.56598 4.93052 1.94625 4.12441 2.49217 3.43437C3.03808 2.74434 3.73507 2.18879 4.52947 1.81051Z" fill="black"/>
</g>
<defs>
<clipPath id="clip0_221_17470">
<rect width="24" height="24" fill="white"/>
</clipPath>
</defs>
</svg>
