<svg width="24" height="24" viewBox="0 0 24 24" fill="none" xmlns="http://www.w3.org/2000/svg">
<g clip-path="url(#clip0_221_17398)">
<path fill-rule="evenodd" clip-rule="evenodd" d="M12.476 4.75C9.726 4.75 7.512 6.95 7.512 9.647C7.512 10.109 7.577 10.556 7.697 10.978C8.194 11.122 8.66 11.338 9.08 11.618C9.16639 11.6703 9.24132 11.7396 9.3003 11.8216C9.35927 11.9036 9.40108 11.9966 9.4232 12.0952C9.44533 12.1938 9.44732 12.2958 9.42906 12.3951C9.41079 12.4944 9.37265 12.5891 9.31692 12.6733C9.26118 12.7576 9.18901 12.8297 9.10472 12.8853C9.02044 12.941 8.92578 12.9791 8.82642 12.9972C8.72706 13.0154 8.62506 13.0133 8.52652 12.9911C8.42799 12.9689 8.33495 12.927 8.253 12.868C7.66992 12.4817 6.98546 12.2767 6.286 12.279C4.325 12.279 2.75 13.849 2.75 15.765C2.75 17.681 4.325 19.25 6.286 19.25H16.286C19.036 19.25 21.25 17.05 21.25 14.353C21.25 12.216 19.86 10.391 17.912 9.725C17.3887 9.54567 16.8392 9.45443 16.286 9.455C15.703 9.455 15.146 9.555 14.628 9.735C14.4414 9.79593 14.2383 9.78126 14.0624 9.69415C13.8865 9.60704 13.7517 9.45443 13.6871 9.26909C13.6224 9.08374 13.633 8.88043 13.7166 8.7028C13.8001 8.52516 13.95 8.38737 14.134 8.319C15.1037 7.97978 16.1401 7.87526 17.158 8.014C16.8087 7.05402 16.1715 6.22531 15.3335 5.6411C14.4955 5.05689 13.4975 4.74568 12.476 4.75ZM18.831 8.471C18.272 5.494 15.634 3.25 12.476 3.25C8.914 3.25 6.012 6.106 6.012 9.647C6.012 10.035 6.046 10.4133 6.114 10.782C3.42 10.872 1.25 13.06 1.25 15.765C1.25 18.526 3.513 20.75 6.286 20.75H16.286C19.847 20.75 22.75 17.894 22.75 14.353C22.75 11.709 21.131 9.448 18.831 8.471Z" fill="black"/>
</g>
<defs>
<clipPath id="clip0_221_17398">
<rect width="24" height="24" fill="white"/>
</clipPath>
</defs>
</svg>
