<svg width="24" height="24" viewBox="0 0 24 24" fill="none" xmlns="http://www.w3.org/2000/svg">
<g clip-path="url(#clip0_221_17421)">
<path fill-rule="evenodd" clip-rule="evenodd" d="M1.25 16C1.25 15.5858 1.58579 15.25 2 15.25H22C22.4142 15.25 22.75 15.5858 22.75 16C22.75 16.4142 22.4142 16.75 22 16.75H2C1.58579 16.75 1.25 16.4142 1.25 16ZM4.25 19C4.25 18.5858 4.58579 18.25 5 18.25H19C19.4142 18.25 19.75 18.5858 19.75 19C19.75 19.4142 19.4142 19.75 19 19.75H5C4.58579 19.75 4.25 19.4142 4.25 19ZM7.25 22C7.25 21.5858 7.58579 21.25 8 21.25H16C16.4142 21.25 16.75 21.5858 16.75 22C16.75 22.4142 16.4142 22.75 16 22.75H8C7.58579 22.75 7.25 22.4142 7.25 22Z" fill="black"/>
<path fill-rule="evenodd" clip-rule="evenodd" d="M12 5.25C10.7009 5.24994 9.42939 5.62475 8.33807 6.32945L12 5.25ZM12 6.75C10.9895 6.74994 10.0006 7.04146 9.15176 7.58957C8.30293 8.13768 7.6303 8.91909 7.21459 9.84002C6.79888 10.761 6.65776 11.7823 6.80815 12.7814C6.94216 13.6717 7.30254 14.5107 7.85231 15.219H16.1477C16.6975 14.5107 17.0578 13.6717 17.1918 12.7814C17.3422 11.7823 17.2011 10.761 16.7854 9.84002C16.3697 8.91909 15.6971 8.13768 14.8482 7.58957C13.9994 7.04146 13.0104 6.74994 12 6.75ZM12 5.25C13.299 5.24994 14.5706 5.62475 15.6619 6.32945C16.7533 7.03416 17.6181 8.03882 18.1526 9.22288C18.6871 10.4069 18.8685 11.7201 18.6751 13.0047C18.4818 14.2893 17.9218 15.4909 17.0625 16.4651L16.8385 16.719H7.16147L6.93754 16.4651C6.07818 15.4909 5.51822 14.2893 5.32486 13.0047C5.1315 11.7201 5.31294 10.4069 5.84742 9.22288C6.38191 8.03882 7.24672 7.03416 8.33807 6.32945" fill="black"/>
<path fill-rule="evenodd" clip-rule="evenodd" d="M12 1.25C12.4142 1.25 12.75 1.58579 12.75 2V3C12.75 3.41421 12.4142 3.75 12 3.75C11.5858 3.75 11.25 3.41421 11.25 3V2C11.25 1.58579 11.5858 1.25 12 1.25ZM4.39867 4.39867C4.69156 4.10578 5.16644 4.10578 5.45933 4.39867L5.85233 4.79167C6.14522 5.08456 6.14522 5.55944 5.85233 5.85233C5.55944 6.14522 5.08456 6.14522 4.79167 5.85233L4.39867 5.45933C4.10578 5.16644 4.10578 4.69156 4.39867 4.39867ZM19.5997 4.39899C19.8929 4.69151 19.8935 5.16639 19.601 5.45965L19.209 5.85265C18.9165 6.14592 18.4416 6.14652 18.1483 5.854C17.8551 5.56149 17.8545 5.08661 18.147 4.79335L18.539 4.40035C18.8315 4.10708 19.3064 4.10647 19.5997 4.39899ZM1.25 12C1.25 11.5858 1.58579 11.25 2 11.25H3C3.41421 11.25 3.75 11.5858 3.75 12C3.75 12.4142 3.41421 12.75 3 12.75H2C1.58579 12.75 1.25 12.4142 1.25 12ZM20.25 12C20.25 11.5858 20.5858 11.25 21 11.25H22C22.4142 11.25 22.75 11.5858 22.75 12C22.75 12.4142 22.4142 12.75 22 12.75H21C20.5858 12.75 20.25 12.4142 20.25 12Z" fill="black"/>
</g>
<defs>
<clipPath id="clip0_221_17421">
<rect width="24" height="24" fill="white"/>
</clipPath>
</defs>
</svg>
