<svg width="24" height="24" viewBox="0 0 24 24" fill="none" xmlns="http://www.w3.org/2000/svg">
<g clip-path="url(#clip0_221_17444)">
<path fill-rule="evenodd" clip-rule="evenodd" d="M20.366 2.124C20.038 1.292 18.862 1.292 18.536 2.124L18.107 3.214L17.023 3.643C16.193 3.971 16.193 5.147 17.023 5.475L18.107 5.905L18.535 6.994C18.862 7.826 20.038 7.826 20.365 6.994L20.794 5.904L21.878 5.475C22.708 5.147 22.708 3.971 21.878 3.643L20.794 3.213L20.366 2.124ZM19.45 2.53L19.865 3.585C19.965 3.839 20.165 4.04 20.419 4.141L21.476 4.559L20.419 4.978C20.2934 5.02738 20.1794 5.10217 20.0841 5.19767C19.9887 5.29317 19.9141 5.40733 19.865 5.533L19.45 6.588L19.036 5.533C18.9868 5.40733 18.9123 5.29317 18.8169 5.19767C18.7216 5.10217 18.6076 5.02738 18.482 4.978L17.425 4.559L18.482 4.141C18.6077 4.0915 18.7217 4.01656 18.8171 3.92088C18.9124 3.8252 18.9869 3.71085 19.036 3.585L19.45 2.53ZM16.498 7.947C16.171 7.114 14.995 7.114 14.668 7.947L14.513 8.34L14.123 8.495C13.293 8.823 13.293 9.999 14.123 10.328L14.513 10.482L14.668 10.876C14.995 11.708 16.171 11.708 16.498 10.876L16.653 10.482L17.043 10.328C17.873 9.999 17.873 8.823 17.043 8.495L16.653 8.34L16.498 7.947ZM15.583 8.352L15.724 8.712C15.824 8.965 16.024 9.167 16.278 9.267L16.642 9.411L16.278 9.555C16.1523 9.6045 16.0382 9.67943 15.9429 9.77512C15.8476 9.8708 15.773 9.98515 15.724 10.111L15.583 10.471L15.442 10.111C15.3929 9.98515 15.3184 9.8708 15.2231 9.77512C15.1277 9.67943 15.0137 9.6045 14.888 9.555L14.524 9.411L14.888 9.267C15.0136 9.21762 15.1276 9.14283 15.2229 9.04733C15.3182 8.95183 15.3928 8.83767 15.442 8.712L15.583 8.352Z" fill="black"/>
<path fill-rule="evenodd" clip-rule="evenodd" d="M11.017 2.802C9.28125 2.98759 7.63344 3.66056 6.26402 4.74312C4.89459 5.82569 3.85945 7.27366 3.27822 8.9197C2.69699 10.5657 2.5934 12.3427 2.97943 14.0451C3.36545 15.7475 4.22533 17.306 5.45969 18.5403C6.69405 19.7747 8.25249 20.6345 9.95492 21.0206C11.6573 21.4066 13.4343 21.303 15.0803 20.7218C16.7263 20.1406 18.1743 19.1054 19.2569 17.736C20.3394 16.3666 21.0124 14.7188 21.198 12.983C20.5644 13.7881 19.7673 14.4497 18.8594 14.9243C17.9515 15.3989 16.9533 15.6757 15.9306 15.7364C14.9079 15.7972 13.8839 15.6404 12.9262 15.2766C11.9685 14.9128 11.0987 14.3501 10.3743 13.6257C9.64987 12.9013 9.0872 12.0315 8.72338 11.0738C8.35955 10.1161 8.20284 9.09213 8.26357 8.06944C8.3243 7.04674 8.60108 6.04852 9.07569 5.14059C9.55029 4.23265 10.2119 3.43561 11.017 2.802ZM1.25 12C1.25 6.063 6.063 1.25 12 1.25C12.717 1.25 13.075 1.821 13.137 2.276C13.196 2.714 13.034 3.271 12.531 3.575C11.7839 4.02586 11.1493 4.64082 10.6751 5.37331C10.201 6.10579 9.89974 6.93658 9.79425 7.80274C9.68875 8.6689 9.78177 9.54771 10.0662 10.3726C10.3507 11.1975 10.8192 11.9468 11.4362 12.5638C12.0532 13.1808 12.8025 13.6493 13.6274 13.9338C14.4523 14.2182 15.3311 14.3112 16.1973 14.2058C17.0634 14.1003 17.8942 13.799 18.6267 13.3249C19.3592 12.8507 19.9741 12.2161 20.425 11.469C20.729 10.966 21.286 10.804 21.724 10.863C22.179 10.925 22.75 11.283 22.75 12C22.75 17.937 17.937 22.75 12 22.75C6.063 22.75 1.25 17.937 1.25 12Z" fill="black"/>
</g>
<defs>
<clipPath id="clip0_221_17444">
<rect width="24" height="24" fill="white"/>
</clipPath>
</defs>
</svg>
