<svg width="24" height="24" viewBox="0 0 24 24" fill="none" xmlns="http://www.w3.org/2000/svg">
<g clip-path="url(#clip0_221_17403)">
<path d="M13 18C13 18.2652 12.8946 18.5196 12.7071 18.7071C12.5196 18.8946 12.2652 19 12 19C11.7348 19 11.4804 18.8946 11.2929 18.7071C11.1054 18.5196 11 18.2652 11 18C11 17.7348 11.1054 17.4804 11.2929 17.2929C11.4804 17.1054 11.7348 17 12 17C12.2652 17 12.5196 17.1054 12.7071 17.2929C12.8946 17.4804 13 17.7348 13 18ZM13 21C13 21.2652 12.8946 21.5196 12.7071 21.7071C12.5196 21.8946 12.2652 22 12 22C11.7348 22 11.4804 21.8946 11.2929 21.7071C11.1054 21.5196 11 21.2652 11 21C11 20.7348 11.1054 20.4804 11.2929 20.2929C11.4804 20.1054 11.7348 20 12 20C12.2652 20 12.5196 20.1054 12.7071 20.2929C12.8946 20.4804 13 20.7348 13 21ZM16 19.5C16 19.7652 15.8946 20.0196 15.7071 20.2071C15.5196 20.3946 15.2652 20.5 15 20.5C14.7348 20.5 14.4804 20.3946 14.2929 20.2071C14.1054 20.0196 14 19.7652 14 19.5C14 19.2348 14.1054 18.9804 14.2929 18.7929C14.4804 18.6054 14.7348 18.5 15 18.5C15.2652 18.5 15.5196 18.6054 15.7071 18.7929C15.8946 18.9804 16 19.2348 16 19.5ZM16 16.5C16 16.7652 15.8946 17.0196 15.7071 17.2071C15.5196 17.3946 15.2652 17.5 15 17.5C14.7348 17.5 14.4804 17.3946 14.2929 17.2071C14.1054 17.0196 14 16.7652 14 16.5C14 16.2348 14.1054 15.9804 14.2929 15.7929C14.4804 15.6054 14.7348 15.5 15 15.5C15.2652 15.5 15.5196 15.6054 15.7071 15.7929C15.8946 15.9804 16 16.2348 16 16.5ZM10 19.5C10 19.7652 9.89464 20.0196 9.70711 20.2071C9.51957 20.3946 9.26522 20.5 9 20.5C8.73478 20.5 8.48043 20.3946 8.29289 20.2071C8.10536 20.0196 8 19.7652 8 19.5C8 19.2348 8.10536 18.9804 8.29289 18.7929C8.48043 18.6054 8.73478 18.5 9 18.5C9.26522 18.5 9.51957 18.6054 9.70711 18.7929C9.89464 18.9804 10 19.2348 10 19.5ZM10 16.5C10 16.7652 9.89464 17.0196 9.70711 17.2071C9.51957 17.3946 9.26522 17.5 9 17.5C8.73478 17.5 8.48043 17.3946 8.29289 17.2071C8.10536 17.0196 8 16.7652 8 16.5C8 16.2348 8.10536 15.9804 8.29289 15.7929C8.48043 15.6054 8.73478 15.5 9 15.5C9.26522 15.5 9.51957 15.6054 9.70711 15.7929C9.89464 15.9804 10 16.2348 10 16.5Z" fill="black"/>
<path fill-rule="evenodd" clip-rule="evenodd" d="M12.476 3.75C9.726 3.75 7.512 5.95 7.512 8.647C7.512 9.109 7.577 9.556 7.697 9.978C8.194 10.122 8.66 10.338 9.08 10.618C9.16639 10.6703 9.24132 10.7396 9.3003 10.8216C9.35927 10.9036 9.40108 10.9966 9.4232 11.0952C9.44533 11.1938 9.44732 11.2958 9.42906 11.3951C9.41079 11.4944 9.37265 11.5891 9.31692 11.6733C9.26118 11.7576 9.18901 11.8297 9.10472 11.8853C9.02044 11.941 8.92578 11.9791 8.82642 11.9972C8.72706 12.0154 8.62506 12.0133 8.52652 11.9911C8.42799 11.9689 8.33495 11.927 8.253 11.868C7.66992 11.4817 6.98546 11.2767 6.286 11.279C4.325 11.279 2.75 12.849 2.75 14.765C2.75 16.681 4.325 18.25 6.286 18.25C6.48491 18.25 6.67568 18.329 6.81633 18.4697C6.95698 18.6103 7.036 18.8011 7.036 19C7.036 19.1989 6.95698 19.3897 6.81633 19.5303C6.67568 19.671 6.48491 19.75 6.286 19.75C3.513 19.75 1.25 17.526 1.25 14.765C1.25 12.06 3.42 9.872 6.114 9.782C6.04632 9.40745 6.01218 9.02761 6.012 8.647C6.012 5.106 8.914 2.25 12.476 2.25C15.634 2.25 18.272 4.494 18.831 7.471C21.131 8.448 22.75 10.709 22.75 13.353C22.75 16.427 20.562 18.984 17.657 19.606C17.4625 19.6476 17.2594 19.6103 17.0924 19.5022C16.9254 19.3941 16.8081 19.224 16.7665 19.0295C16.7249 18.835 16.7622 18.6319 16.8703 18.4649C16.9784 18.2979 17.1485 18.1806 17.343 18.139C19.583 17.659 21.25 15.693 21.25 13.353C21.25 11.216 19.86 9.391 17.912 8.725C17.3887 8.54567 16.8392 8.45443 16.286 8.455C15.703 8.455 15.146 8.555 14.628 8.735C14.4414 8.79593 14.2383 8.78126 14.0624 8.69415C13.8865 8.60704 13.7517 8.45443 13.6871 8.26909C13.6224 8.08374 13.633 7.88043 13.7166 7.7028C13.8001 7.52516 13.95 7.38737 14.134 7.319C15.1037 6.97978 16.1401 6.87526 17.158 7.014C16.8087 6.05402 16.1715 5.22531 15.3335 4.6411C14.4955 4.05689 13.4975 3.74568 12.476 3.75Z" fill="black"/>
</g>
<defs>
<clipPath id="clip0_221_17403">
<rect width="24" height="24" fill="white"/>
</clipPath>
</defs>
</svg>
