<svg width="24" height="24" viewBox="0 0 24 24" fill="none" xmlns="http://www.w3.org/2000/svg">
<g clip-path="url(#clip0_221_17450)">
<path fill-rule="evenodd" clip-rule="evenodd" d="M9.26 3.09908C9.664 2.08808 10.995 1.46308 12.027 2.24908C13.747 3.55908 15.904 5.48608 17.64 7.68908C19.36 9.87208 20.75 12.4351 20.75 15.0001C20.75 17.2931 20.04 18.9971 19.012 20.2181C17.993 21.4271 16.699 22.1191 15.582 22.4681C15.3315 22.5509 15.0601 22.545 14.8133 22.4514C14.5666 22.3578 14.3596 22.1822 14.227 21.9541C13.987 21.5511 13.986 21.0141 14.287 20.5831C15.144 19.3511 16.05 17.5791 16.05 16.0001C16.05 15.2161 15.712 14.2891 15.167 13.3371C14.7568 12.6351 14.2874 11.9693 13.764 11.3471C13.663 12.7491 13.358 14.5121 12.412 15.9701C12.3122 16.1267 12.1763 16.2571 12.0157 16.3504C11.8551 16.4437 11.6745 16.4971 11.489 16.5062C11.3036 16.5153 11.1186 16.4798 10.9496 16.4027C10.7807 16.3256 10.6327 16.2092 10.518 16.0631C10.359 15.8621 10.202 15.6411 10.058 15.4391L10.033 15.4031L9.808 15.0901C9.122 15.7731 8.483 16.5901 8.483 17.5001C8.483 18.3041 8.884 19.4021 9.359 20.3341C9.616 20.8371 9.509 21.3951 9.199 21.7611C8.871 22.1491 8.273 22.3491 7.706 22.0211C5.762 20.8951 3.25 18.4901 3.25 15.0001C3.25 14.0531 3.571 13.0741 4.02 12.1171C4.473 11.1541 5.086 10.1501 5.73 9.14708C5.954 8.80041 6.179 8.45374 6.405 8.10708C7.51 6.41408 8.605 4.73608 9.26 3.09908ZM10.898 3.41708C10.8428 3.43737 10.7924 3.46905 10.7502 3.51005C10.708 3.55105 10.6749 3.60046 10.653 3.65508C9.937 5.44508 8.74 7.27708 7.635 8.96808C7.415 9.30474 7.20067 9.63474 6.992 9.95808C6.352 10.9531 5.785 11.8871 5.378 12.7541C4.968 13.6281 4.75 14.3741 4.75 15.0001C4.75 17.2941 6.157 19.0761 7.633 20.1781C7.278 19.3381 6.983 18.3671 6.983 17.5001C6.983 15.7701 8.283 14.4631 9.009 13.7751C9.479 13.3301 10.291 13.2901 10.765 13.8741C10.935 14.0851 11.103 14.3201 11.255 14.5341L11.273 14.5591L11.398 14.7341C12.068 13.4601 12.254 11.9061 12.301 10.6261C12.321 10.1001 12.647 9.68308 13.075 9.50908C13.3054 9.41444 13.5595 9.39382 13.8021 9.45008C14.0447 9.50635 14.2638 9.6367 14.429 9.82308C15.096 10.5601 15.863 11.5351 16.468 12.5911C17.066 13.6341 17.55 14.8331 17.55 16.0001C17.55 17.6931 16.782 19.4101 16.006 20.6891C16.7184 20.3443 17.3511 19.8549 17.864 19.2521C18.651 18.3181 19.25 16.9621 19.25 15.0001C19.25 12.9431 18.113 10.7131 16.461 8.61708C14.826 6.54008 12.77 4.70008 11.118 3.44208C11.064 3.40108 10.993 3.38508 10.898 3.41708Z" fill="black"/>
</g>
<defs>
<clipPath id="clip0_221_17450">
<rect width="24" height="24" fill="white"/>
</clipPath>
</defs>
</svg>
