<svg width="24" height="24" viewBox="0 0 24 24" fill="none" xmlns="http://www.w3.org/2000/svg">
<g clip-path="url(#clip0_221_17428)">
<path d="M11.7 6.95706C11.7924 6.9177 11.8759 6.86021 11.9456 6.78798C12.0153 6.71575 12.0698 6.63026 12.1059 6.53657C12.142 6.44289 12.1589 6.34291 12.1556 6.24257C12.1523 6.14223 12.1289 6.04358 12.0868 5.95245C12.0447 5.86132 11.9847 5.77957 11.9104 5.71205C11.8361 5.64453 11.749 5.59262 11.6543 5.55938C11.5596 5.52615 11.4591 5.51227 11.3589 5.51857C11.2587 5.52487 11.1608 5.55122 11.071 5.59606C9.10601 6.50406 7.59101 8.31106 6.90001 10.4971C6.83994 10.6867 6.85766 10.8924 6.94927 11.069C7.04088 11.2455 7.19888 11.3785 7.38851 11.4386C7.57814 11.4986 7.78387 11.4809 7.96043 11.3893C8.137 11.2977 8.26994 11.1397 8.33001 10.9501C8.90701 9.12506 10.155 7.67206 11.7 6.95706Z" fill="black"/>
<path fill-rule="evenodd" clip-rule="evenodd" d="M14.386 1.72893C13.6303 1.41264 12.8192 1.24976 12 1.24976C11.1808 1.24976 10.3697 1.41264 9.614 1.72893C5.154 3.58993 2.25 8.02193 2.25 12.9289V13.1929C2.25 18.4549 6.425 22.7499 11.612 22.7499H12.389C17.575 22.7499 21.75 18.4549 21.75 13.1929V12.9279C21.75 8.02193 18.847 3.59193 14.386 1.72893ZM10.192 3.11193C10.7646 2.8721 11.3792 2.74859 12 2.74859C12.6208 2.74859 13.2354 2.8721 13.808 3.11193C17.696 4.73493 20.25 8.60993 20.25 12.9269V13.1919C20.25 17.6579 16.715 21.2489 12.389 21.2489H11.612C7.286 21.2489 3.75 17.6579 3.75 13.1919V12.9269C3.75 8.60993 6.304 4.73493 10.192 3.11193Z" fill="black"/>
</g>
<defs>
<clipPath id="clip0_221_17428">
<rect width="24" height="24" fill="white"/>
</clipPath>
</defs>
</svg>
