<svg width="24" height="24" viewBox="0 0 24 24" fill="none" xmlns="http://www.w3.org/2000/svg">
<g clip-path="url(#clip0_221_17415)">
<path fill-rule="evenodd" clip-rule="evenodd" d="M12.03 14.9701C12.1705 15.1107 12.2493 15.3013 12.2493 15.5001C12.2493 15.6988 12.1705 15.8894 12.03 16.0301L10.03 18.0301C9.96134 18.1038 9.87854 18.1629 9.78654 18.2039C9.69454 18.2448 9.59522 18.2669 9.49452 18.2687C9.39382 18.2704 9.29379 18.2519 9.2004 18.2142C9.10701 18.1765 9.02218 18.1203 8.95096 18.0491C8.87974 17.9779 8.8236 17.8931 8.78588 17.7997C8.74816 17.7063 8.72963 17.6063 8.73141 17.5056C8.73318 17.4048 8.75523 17.3055 8.79622 17.2135C8.83721 17.1215 8.89631 17.0387 8.97 16.9701L10.97 14.9701C11.1106 14.8296 11.3012 14.7507 11.5 14.7507C11.6988 14.7507 11.8894 14.8296 12.03 14.9701ZM16.53 14.9701C16.6705 15.1107 16.7493 15.3013 16.7493 15.5001C16.7493 15.6988 16.6705 15.8894 16.53 16.0301L14.53 18.0301C14.4613 18.1038 14.3785 18.1629 14.2865 18.2039C14.1945 18.2448 14.0952 18.2669 13.9945 18.2687C13.8938 18.2704 13.7938 18.2519 13.7004 18.2142C13.607 18.1765 13.5222 18.1203 13.451 18.0491C13.3797 17.9779 13.3236 17.8931 13.2859 17.7997C13.2482 17.7063 13.2296 17.6063 13.2314 17.5056C13.2332 17.4048 13.2552 17.3055 13.2962 17.2135C13.3372 17.1215 13.3963 17.0387 13.47 16.9701L15.47 14.9701C15.6106 14.8296 15.8012 14.7507 16 14.7507C16.1988 14.7507 16.3894 14.8296 16.53 14.9701ZM8.03 18.4701C8.17045 18.6107 8.24934 18.8013 8.24934 19.0001C8.24934 19.1988 8.17045 19.3894 8.03 19.5301L6.03 21.5301C5.88782 21.6626 5.69978 21.7347 5.50548 21.7312C5.31118 21.7278 5.12579 21.6491 4.98838 21.5117C4.85096 21.3743 4.77225 21.1889 4.76882 20.9946C4.7654 20.8003 4.83752 20.6122 4.97 20.4701L6.97 18.4701C7.11062 18.3296 7.30125 18.2507 7.5 18.2507C7.69875 18.2507 7.88937 18.3296 8.03 18.4701ZM17.53 18.4701C17.6705 18.6107 17.7493 18.8013 17.7493 19.0001C17.7493 19.1988 17.6705 19.3894 17.53 19.5301L15.53 21.5301C15.4613 21.6038 15.3785 21.6629 15.2865 21.7039C15.1945 21.7448 15.0952 21.7669 14.9945 21.7687C14.8938 21.7704 14.7938 21.7519 14.7004 21.7142C14.607 21.6765 14.5222 21.6203 14.451 21.5491C14.3797 21.4779 14.3236 21.3931 14.2859 21.2997C14.2482 21.2063 14.2296 21.1063 14.2314 21.0056C14.2332 20.9048 14.2552 20.8055 14.2962 20.7135C14.3372 20.6215 14.3963 20.5387 14.47 20.4701L16.47 18.4701C16.6106 18.3296 16.8012 18.2507 17 18.2507C17.1988 18.2507 17.3894 18.3296 17.53 18.4701ZM12.53 19.4701C12.6705 19.6107 12.7493 19.8013 12.7493 20.0001C12.7493 20.1988 12.6705 20.3894 12.53 20.5301L10.53 22.5301C10.4613 22.6038 10.3785 22.6629 10.2865 22.7039C10.1945 22.7448 10.0952 22.7669 9.99452 22.7687C9.89382 22.7704 9.79379 22.7519 9.7004 22.7142C9.60701 22.6765 9.52218 22.6203 9.45096 22.5491C9.37974 22.4779 9.3236 22.3931 9.28588 22.2997C9.24816 22.2063 9.22963 22.1063 9.23141 22.0056C9.23318 21.9048 9.25523 21.8055 9.29622 21.7135C9.33721 21.6215 9.39631 21.5387 9.47 21.4701L11.47 19.4701C11.6106 19.3296 11.8012 19.2507 12 19.2507C12.1988 19.2507 12.3894 19.3296 12.53 19.4701Z" fill="black"/>
<path d="M12.476 3.75C9.726 3.75 7.512 5.95 7.512 8.647C7.512 9.109 7.577 9.556 7.697 9.978C8.194 10.122 8.66 10.338 9.08 10.618C9.16639 10.6703 9.24132 10.7396 9.3003 10.8216C9.35927 10.9036 9.40108 10.9966 9.4232 11.0952C9.44533 11.1938 9.44732 11.2958 9.42906 11.3951C9.41079 11.4944 9.37265 11.5891 9.31692 11.6733C9.26118 11.7576 9.18901 11.8297 9.10472 11.8853C9.02044 11.941 8.92578 11.9791 8.82642 11.9972C8.72706 12.0154 8.62506 12.0133 8.52652 11.9911C8.42799 11.9689 8.33495 11.927 8.253 11.868C7.66992 11.4817 6.98546 11.2767 6.286 11.279C4.325 11.279 2.75 12.849 2.75 14.765C2.75 15.839 3.242 16.801 4.023 17.443C4.10062 17.505 4.16515 17.5818 4.21283 17.669C4.26052 17.7561 4.29041 17.8519 4.30078 17.9507C4.31114 18.0495 4.30178 18.1494 4.27322 18.2445C4.24466 18.3397 4.19748 18.4282 4.13442 18.505C4.07137 18.5818 3.99368 18.6453 3.90589 18.6918C3.81809 18.7383 3.72193 18.7668 3.62299 18.7759C3.52405 18.7849 3.42431 18.7742 3.32955 18.7443C3.23479 18.7145 3.14691 18.6661 3.071 18.602C2.50231 18.1372 2.04395 17.5518 1.72903 16.8883C1.41411 16.2247 1.2505 15.4995 1.25 14.765C1.25 12.06 3.42 9.872 6.114 9.782C6.04632 9.40745 6.01218 9.02761 6.012 8.647C6.012 5.106 8.914 2.25 12.476 2.25C15.634 2.25 18.272 4.494 18.831 7.471C21.131 8.448 22.75 10.709 22.75 13.353C22.7493 14.3998 22.4906 15.4303 21.9968 16.3533C21.503 17.2763 20.7894 18.0634 19.919 18.645C19.754 18.7538 19.5527 18.7931 19.359 18.7543C19.1652 18.7155 18.9945 18.6018 18.8841 18.4379C18.7737 18.274 18.7324 18.0731 18.7693 17.8789C18.8062 17.6848 18.9182 17.513 19.081 17.401C19.7476 16.9567 20.2943 16.3548 20.6726 15.6487C21.051 14.9426 21.2493 14.1541 21.25 13.353C21.25 11.216 19.86 9.391 17.912 8.725C17.3887 8.54567 16.8392 8.45443 16.286 8.455C15.703 8.455 15.146 8.555 14.628 8.735C14.4414 8.79593 14.2383 8.78126 14.0624 8.69415C13.8865 8.60704 13.7517 8.45443 13.6871 8.26909C13.6224 8.08374 13.633 7.88043 13.7166 7.7028C13.8001 7.52516 13.95 7.38737 14.134 7.319C15.1037 6.97978 16.1401 6.87526 17.158 7.014C16.8087 6.05402 16.1715 5.22531 15.3335 4.6411C14.4955 4.05689 13.4975 3.74568 12.476 3.75Z" fill="black"/>
</g>
<defs>
<clipPath id="clip0_221_17415">
<rect width="24" height="24" fill="white"/>
</clipPath>
</defs>
</svg>
