<svg width="24" height="24" viewBox="0 0 24 24" fill="none" xmlns="http://www.w3.org/2000/svg">
<g clip-path="url(#clip0_221_17393)">
<path fill-rule="evenodd" clip-rule="evenodd" d="M6.25 5.5C6.25 4.85721 6.44061 4.22886 6.79772 3.6944C7.15484 3.15994 7.66242 2.74338 8.25628 2.49739C8.85014 2.25141 9.50361 2.18705 10.134 2.31245C10.7645 2.43785 11.3436 2.74738 11.7981 3.2019C12.2526 3.65642 12.5622 4.23552 12.6876 4.86596C12.813 5.4964 12.7486 6.14986 12.5026 6.74372C12.2566 7.33758 11.8401 7.84516 11.3056 8.20228C10.7711 8.55939 10.1428 8.75 9.5 8.75H3C2.80109 8.75 2.61032 8.67098 2.46967 8.53033C2.32902 8.38968 2.25 8.19891 2.25 8C2.25 7.80109 2.32902 7.61032 2.46967 7.46967C2.61032 7.32902 2.80109 7.25 3 7.25H9.5C9.84612 7.25 10.1845 7.14737 10.4722 6.95507C10.76 6.76278 10.9843 6.48947 11.1168 6.1697C11.2492 5.84993 11.2839 5.49806 11.2164 5.15859C11.1489 4.81913 10.9822 4.50731 10.7374 4.26256C10.4927 4.01782 10.1809 3.85115 9.84141 3.78363C9.50194 3.7161 9.15007 3.75076 8.8303 3.88321C8.51053 4.01567 8.23722 4.23997 8.04493 4.52775C7.85264 4.81554 7.75 5.15388 7.75 5.5V5.857C7.75 6.05591 7.67098 6.24668 7.53033 6.38733C7.38968 6.52798 7.19891 6.607 7 6.607C6.80109 6.607 6.61032 6.52798 6.46967 6.38733C6.32902 6.24668 6.25 6.05591 6.25 5.857V5.5ZM14.25 7.5C14.25 6.65943 14.4993 5.83774 14.9663 5.13883C15.4333 4.43992 16.097 3.89519 16.8736 3.57351C17.6502 3.25184 18.5047 3.16768 19.3291 3.33166C20.1536 3.49565 20.9108 3.90042 21.5052 4.4948C22.0996 5.08917 22.5043 5.84645 22.6683 6.67087C22.8323 7.49529 22.7482 8.34982 22.4265 9.12641C22.1048 9.90299 21.5601 10.5668 20.8612 11.0337C20.1623 11.5007 19.3406 11.75 18.5 11.75H2C1.80109 11.75 1.61032 11.671 1.46967 11.5303C1.32902 11.3897 1.25 11.1989 1.25 11C1.25 10.8011 1.32902 10.6103 1.46967 10.4697C1.61032 10.329 1.80109 10.25 2 10.25H18.5C19.0439 10.25 19.5756 10.0887 20.0278 9.78654C20.4801 9.48437 20.8325 9.05488 21.0407 8.55238C21.2488 8.04988 21.3033 7.49695 21.1972 6.9635C21.091 6.43006 20.8291 5.94005 20.4445 5.55546C20.0599 5.17086 19.5699 4.90895 19.0365 4.80284C18.5031 4.69673 17.9501 4.75119 17.4476 4.95933C16.9451 5.16747 16.5156 5.51995 16.2135 5.97218C15.9113 6.42442 15.75 6.9561 15.75 7.5V8C15.75 8.19891 15.671 8.38968 15.5303 8.53033C15.3897 8.67098 15.1989 8.75 15 8.75C14.8011 8.75 14.6103 8.67098 14.4697 8.53033C14.329 8.38968 14.25 8.19891 14.25 8V7.5ZM3.25 14C3.25 13.8011 3.32902 13.6103 3.46967 13.4697C3.61032 13.329 3.80109 13.25 4 13.25H18.5C19.3406 13.25 20.1623 13.4993 20.8612 13.9663C21.5601 14.4333 22.1048 15.097 22.4265 15.8736C22.7482 16.6502 22.8323 17.5047 22.6683 18.3291C22.5043 19.1536 22.0996 19.9108 21.5052 20.5052C20.9108 21.0996 20.1536 21.5044 19.3291 21.6683C18.5047 21.8323 17.6502 21.7482 16.8736 21.4265C16.097 21.1048 15.4333 20.5601 14.9663 19.8612C14.4993 19.1623 14.25 18.3406 14.25 17.5V17C14.25 16.8011 14.329 16.6103 14.4697 16.4697C14.6103 16.329 14.8011 16.25 15 16.25C15.1989 16.25 15.3897 16.329 15.5303 16.4697C15.671 16.6103 15.75 16.8011 15.75 17V17.5C15.75 18.0439 15.9113 18.5756 16.2135 19.0278C16.5156 19.4801 16.9451 19.8325 17.4476 20.0407C17.9501 20.2488 18.5031 20.3033 19.0365 20.1972C19.5699 20.0911 20.0599 19.8291 20.4445 19.4445C20.8291 19.06 21.091 18.5699 21.1972 18.0365C21.3033 17.5031 21.2488 16.9501 21.0407 16.4476C20.8325 15.9451 20.4801 15.5156 20.0278 15.2135C19.5756 14.9113 19.0439 14.75 18.5 14.75H4C3.80109 14.75 3.61032 14.671 3.46967 14.5303C3.32902 14.3897 3.25 14.1989 3.25 14Z" fill="black"/>
</g>
<defs>
<clipPath id="clip0_221_17393">
<rect width="24" height="24" fill="white"/>
</clipPath>
</defs>
</svg>
