<svg width="24" height="24" viewBox="0 0 24 24" fill="none" xmlns="http://www.w3.org/2000/svg">
<g clip-path="url(#clip0_221_17465)">
<path fill-rule="evenodd" clip-rule="evenodd" d="M20.528 10.374C20.158 9.73195 19.478 9.52095 18.829 9.42995C18.176 9.33895 17.301 9.33895 16.243 9.33895H16.183C15.553 9.33895 15.14 9.33195 14.84 9.29095C14.569 9.25295 14.483 9.19695 14.446 9.16395C14.419 9.13595 14.371 9.07095 14.338 8.83395C14.299 8.55395 14.298 8.17095 14.298 7.55695V7.18295C14.298 5.59495 14.298 4.32295 14.175 3.41695C14.061 2.56595 13.788 1.60995 12.844 1.31995C11.916 1.03595 11.138 1.64595 10.534 2.27395C9.88901 2.94395 9.12401 3.97895 8.16601 5.27495L5.02901 9.51995C4.41901 10.345 3.90901 11.034 3.60701 11.603C3.30301 12.173 3.08201 12.851 3.41901 13.527V13.529L3.42301 13.537L3.42701 13.544L3.43101 13.552L3.43601 13.56L3.44001 13.568L3.44401 13.576L3.44901 13.584L3.45301 13.591L3.45401 13.593C3.82201 14.23 4.49801 14.453 5.15301 14.553C5.82701 14.655 6.72701 14.662 7.81801 14.662C8.45501 14.662 8.86001 14.663 9.15801 14.702C9.42201 14.735 9.50101 14.787 9.53401 14.816C9.56401 14.848 9.61701 14.921 9.65401 15.166C9.69601 15.447 9.70301 15.836 9.70301 16.443V16.818C9.70301 18.405 9.70301 19.678 9.82501 20.584C9.94001 21.434 10.212 22.391 11.156 22.68C12.084 22.964 12.862 22.355 13.466 21.726C14.111 21.056 14.876 20.022 15.834 18.725L18.934 14.532C19.564 13.678 20.084 12.965 20.389 12.372C20.689 11.792 20.898 11.11 20.564 10.44L20.562 10.438L20.559 10.43L20.555 10.422L20.551 10.415L20.547 10.406L20.542 10.398L20.538 10.391L20.533 10.383L20.529 10.376L20.528 10.374ZM11.615 3.31395C11.046 3.90395 10.339 4.85895 9.33501 6.21695L6.27301 10.36C5.61501 11.25 5.17501 11.849 4.93101 12.308C4.81101 12.531 4.76701 12.672 4.75401 12.758C4.74601 12.811 4.75101 12.834 4.75701 12.85C4.78201 12.885 4.88701 12.994 5.37901 13.07C5.91701 13.152 6.69001 13.162 7.81801 13.162H7.86401C8.44101 13.162 8.94401 13.162 9.34801 13.213C9.78101 13.269 10.212 13.394 10.568 13.729L10.574 13.735L10.58 13.74C10.93 14.084 11.072 14.51 11.137 14.943C11.199 15.357 11.203 15.866 11.203 16.443V16.753C11.203 18.42 11.204 19.589 11.311 20.383C11.365 20.779 11.436 21.011 11.505 21.14C11.556 21.237 11.586 21.244 11.595 21.246H11.597C11.607 21.25 11.645 21.263 11.758 21.206C11.9 21.134 12.103 20.98 12.386 20.686C12.954 20.096 13.662 19.141 14.666 17.783L17.727 13.64C18.381 12.755 18.817 12.148 19.057 11.684C19.261 11.287 19.238 11.153 19.225 11.117C19.202 11.084 19.102 10.983 18.622 10.915C18.085 10.84 17.316 10.839 16.182 10.839C15.58 10.839 15.057 10.835 14.634 10.776C14.197 10.716 13.765 10.584 13.412 10.252L13.406 10.246L13.401 10.241C13.048 9.89395 12.911 9.46895 12.852 9.03895C12.797 8.64495 12.798 8.15595 12.798 7.60495V7.24695C12.798 5.57995 12.796 4.41095 12.688 3.61695C12.636 3.22195 12.564 2.98995 12.495 2.85995C12.444 2.76295 12.415 2.75695 12.406 2.75495H12.404L12.403 2.75395C12.393 2.74995 12.356 2.73795 12.242 2.79395C12.1 2.86595 11.898 3.01995 11.615 3.31395Z" fill="black"/>
</g>
<defs>
<clipPath id="clip0_221_17465">
<rect width="24" height="24" fill="white"/>
</clipPath>
</defs>
</svg>
