<svg width="24" height="24" viewBox="0 0 24 24" fill="none" xmlns="http://www.w3.org/2000/svg">
<g clip-path="url(#clip0_221_17455)">
<path fill-rule="evenodd" clip-rule="evenodd" d="M8.25 5C8.25 4.00544 8.64509 3.05161 9.34835 2.34835C10.0516 1.64509 11.0054 1.25 12 1.25C12.9946 1.25 13.9484 1.64509 14.6517 2.34835C15.3549 3.05161 15.75 4.00544 15.75 5V11.348C15.75 11.42 15.79 11.528 15.908 11.622C16.9184 12.4315 17.6524 13.5349 18.0087 14.7796C18.365 16.0243 18.3259 17.349 17.8969 18.5705C17.4679 19.7921 16.6701 20.8502 15.6138 21.5988C14.5574 22.3474 13.2947 22.7495 12 22.7495C10.7053 22.7495 9.44256 22.3474 8.38623 21.5988C7.32989 20.8502 6.53211 19.7921 6.1031 18.5705C5.67409 17.349 5.63502 16.0243 5.9913 14.7796C6.34758 13.5349 7.08162 12.4315 8.092 11.622C8.21 11.527 8.25 11.42 8.25 11.348V5ZM12 2.75C11.4033 2.75 10.831 2.98705 10.409 3.40901C9.98705 3.83097 9.75 4.40326 9.75 5V11.348C9.75 11.951 9.44 12.464 9.03 12.792C8.26196 13.4072 7.70394 14.2457 7.43304 15.1917C7.16214 16.1377 7.19174 17.1445 7.51773 18.073C7.84373 19.0014 8.45004 19.8057 9.25288 20.3748C10.0557 20.9438 11.0155 21.2494 11.9995 21.2494C12.9835 21.2494 13.9433 20.9438 14.7461 20.3748C15.549 19.8057 16.1553 19.0014 16.4813 18.073C16.8073 17.1445 16.8369 16.1377 16.566 15.1917C16.2951 14.2457 15.737 13.4072 14.969 12.792C14.56 12.464 14.25 11.952 14.25 11.348V5C14.25 4.40326 14.0129 3.83097 13.591 3.40901C13.169 2.98705 12.5967 2.75 12 2.75ZM12 4.25C12.1989 4.25 12.3897 4.32902 12.5303 4.46967C12.671 4.61032 12.75 4.80109 12.75 5V13.337C13.5253 13.5208 14.2062 13.983 14.6632 14.6358C15.1202 15.2885 15.3215 16.0864 15.229 16.8779C15.1365 17.6693 14.7565 18.3992 14.1612 18.9289C13.5659 19.4587 12.7968 19.7513 12 19.7513C11.2032 19.7513 10.4341 19.4587 9.8388 18.9289C9.24353 18.3992 8.86354 17.6693 8.771 16.8779C8.67846 16.0864 8.87981 15.2885 9.33682 14.6358C9.79383 13.983 10.4747 13.5208 11.25 13.337V5C11.25 4.80109 11.329 4.61032 11.4697 4.46967C11.6103 4.32902 11.8011 4.25 12 4.25ZM12 14.75C11.5359 14.75 11.0908 14.9344 10.7626 15.2626C10.4344 15.5908 10.25 16.0359 10.25 16.5C10.25 16.9641 10.4344 17.4093 10.7626 17.7374C11.0908 18.0656 11.5359 18.25 12 18.25C12.4641 18.25 12.9092 18.0656 13.2374 17.7374C13.5656 17.4093 13.75 16.9641 13.75 16.5C13.75 16.0359 13.5656 15.5908 13.2374 15.2626C12.9092 14.9344 12.4641 14.75 12 14.75Z" fill="black"/>
</g>
<defs>
<clipPath id="clip0_221_17455">
<rect width="24" height="24" fill="white"/>
</clipPath>
</defs>
</svg>
