<svg width="24" height="24" viewBox="0 0 24 24" fill="none" xmlns="http://www.w3.org/2000/svg">
<g clip-path="url(#clip0_221_17565)">
<path d="M19.99 3.99095C18.437 2.46995 16.309 2.41095 15.225 3.47295L11.525 7.09795C11.3824 7.23388 11.1919 7.3082 10.9949 7.30484C10.7979 7.30148 10.6101 7.22072 10.4721 7.08C10.3342 6.93929 10.2571 6.74994 10.2577 6.55288C10.2582 6.35582 10.3363 6.1669 10.475 6.02695L14.175 2.40195C16.011 0.602949 19.089 1.00895 21.04 2.91995C22.993 4.83295 23.418 7.87495 21.568 9.68795L18.661 12.5359C18.5906 12.6049 18.5074 12.6593 18.4159 12.6961C18.3245 12.7328 18.2268 12.7512 18.1283 12.7502C18.0297 12.7492 17.9324 12.7288 17.8417 12.6901C17.7511 12.6515 17.669 12.5953 17.6 12.5249C17.5311 12.4546 17.4767 12.3713 17.4399 12.2799C17.4032 12.1885 17.3848 12.0907 17.3858 11.9922C17.3868 11.8936 17.4072 11.7963 17.4459 11.7057C17.4845 11.615 17.5406 11.5329 17.611 11.4639L20.518 8.61595C21.588 7.56795 21.54 5.50995 19.99 3.99095ZM6.62403 3.58395C6.56992 3.50082 6.49986 3.42925 6.41791 3.37338C6.33595 3.31752 6.24373 3.27846 6.14658 3.25847C6.04943 3.23849 5.94928 3.23797 5.85193 3.25695C5.75458 3.27593 5.66196 3.31403 5.57943 3.36905C5.4969 3.42407 5.42611 3.49491 5.37114 3.57747C5.31618 3.66004 5.27814 3.75268 5.25922 3.85005C5.2403 3.94741 5.24089 4.04756 5.26094 4.1447C5.28099 4.24184 5.32011 4.33403 5.37603 4.41595L7.37603 7.41595C7.48737 7.57905 7.65855 7.69166 7.85241 7.72932C8.04627 7.76699 8.24716 7.72667 8.41148 7.61713C8.5758 7.50758 8.69028 7.33765 8.73007 7.14422C8.76986 6.95078 8.73176 6.74946 8.62403 6.58395L6.62403 3.58395ZM2.23703 7.28895C2.14322 7.25631 2.04385 7.24264 1.94471 7.24871C1.84557 7.25479 1.74862 7.2805 1.6595 7.32435C1.57038 7.3682 1.49085 7.42932 1.42554 7.50415C1.36023 7.57899 1.31043 7.66605 1.27904 7.76029C1.24765 7.85453 1.23529 7.95406 1.24268 8.05311C1.25007 8.15216 1.27706 8.24876 1.32209 8.3373C1.36712 8.42583 1.42928 8.50454 1.50497 8.56886C1.58067 8.63317 1.66838 8.68181 1.76303 8.71195L7.76303 10.7119C7.95092 10.7718 8.15482 10.7552 8.33059 10.6658C8.50635 10.5764 8.63984 10.4214 8.70216 10.2343C8.76448 10.0472 8.75061 9.84314 8.66356 9.66621C8.57651 9.48927 8.42327 9.35374 8.23703 9.28895L2.23703 7.28895ZM6.72803 12.5059C6.85909 12.3587 6.92688 12.1657 6.91673 11.9688C6.90657 11.7719 6.81929 11.5869 6.67377 11.4538C6.52825 11.3208 6.33619 11.2504 6.13917 11.2579C5.94215 11.2654 5.75601 11.3502 5.62103 11.4939L4.36003 12.8739C2.63303 14.7629 3.01003 17.927 4.86403 19.955C6.72903 21.9949 9.73403 22.4599 11.519 20.507L15.554 16.0929C15.6851 15.9457 15.7529 15.7527 15.7427 15.5558C15.7326 15.3589 15.6453 15.1739 15.4998 15.0408C15.3542 14.9078 15.1622 14.8374 14.9652 14.8449C14.7681 14.8524 14.582 14.9372 14.447 15.0809L10.412 19.495C9.41103 20.59 7.44903 20.56 5.97203 18.943C4.48203 17.315 4.40803 15.0429 5.46703 13.8849L6.72803 12.5059Z" fill="black"/>
</g>
<defs>
<clipPath id="clip0_221_17565">
<rect width="24" height="24" fill="white"/>
</clipPath>
</defs>
</svg>
