<svg width="24" height="24" viewBox="0 0 24 24" fill="none" xmlns="http://www.w3.org/2000/svg">
<g clip-path="url(#clip0_221_17699)">
<path d="M12 7.25C12.1989 7.25 12.3897 7.32902 12.5303 7.46967C12.671 7.61032 12.75 7.80109 12.75 8V12C12.75 12.1989 12.671 12.3897 12.5303 12.5303C12.3897 12.671 12.1989 12.75 12 12.75C11.8011 12.75 11.6103 12.671 11.4697 12.5303C11.329 12.3897 11.25 12.1989 11.25 12V8C11.25 7.80109 11.329 7.61032 11.4697 7.46967C11.6103 7.32902 11.8011 7.25 12 7.25ZM12 16C12.2652 16 12.5196 15.8946 12.7071 15.7071C12.8946 15.5196 13 15.2652 13 15C13 14.7348 12.8946 14.4804 12.7071 14.2929C12.5196 14.1054 12.2652 14 12 14C11.7348 14 11.4804 14.1054 11.2929 14.2929C11.1054 14.4804 11 14.7348 11 15C11 15.2652 11.1054 15.5196 11.2929 15.7071C11.4804 15.8946 11.7348 16 12 16Z" fill="black"/>
<path fill-rule="evenodd" clip-rule="evenodd" d="M8.723 2.051C10.167 1.557 11.063 1.25 12 1.25C12.937 1.25 13.833 1.557 15.277 2.051L16.004 2.301C17.485 2.807 18.629 3.199 19.447 3.531C19.859 3.698 20.214 3.861 20.499 4.026C20.774 4.186 21.049 4.385 21.236 4.652C21.421 4.915 21.517 5.239 21.577 5.552C21.64 5.876 21.677 6.265 21.702 6.712C21.75 7.598 21.75 8.814 21.75 10.39V11.991C21.75 18.092 17.142 21.017 14.402 22.215L14.375 22.226C14.035 22.375 13.715 22.514 13.348 22.608C12.961 22.708 12.549 22.75 12 22.75C11.45 22.75 11.04 22.708 10.652 22.608C10.285 22.514 9.965 22.375 9.625 22.226L9.598 22.215C6.858 21.017 2.25 18.092 2.25 11.99V10.39C2.25 8.814 2.25 7.598 2.298 6.711C2.323 6.265 2.36 5.876 2.423 5.551C2.483 5.239 2.579 4.915 2.763 4.651C2.951 4.385 3.226 4.186 3.501 4.026C3.786 3.861 4.141 3.698 4.553 3.531C5.371 3.199 6.515 2.807 7.996 2.301L8.723 2.051ZM12 2.75C11.342 2.75 10.695 2.962 9.08 3.514L8.508 3.71C6.995 4.228 5.892 4.606 5.118 4.92C4.82115 5.03487 4.53248 5.16985 4.254 5.324C4.18183 5.36595 4.11236 5.41237 4.046 5.463C4.02615 5.47792 4.00774 5.49466 3.991 5.513C3.97787 5.53653 3.96715 5.56132 3.959 5.587C3.939 5.64167 3.918 5.72433 3.896 5.835C3.84071 6.15166 3.8073 6.47175 3.796 6.793C3.75 7.634 3.75 8.808 3.75 10.417V11.991C3.75 17.167 7.62 19.714 10.199 20.84C10.57 21.002 10.785 21.094 11.024 21.155C11.252 21.214 11.53 21.25 12 21.25C12.47 21.25 12.748 21.214 12.976 21.155C13.216 21.095 13.43 21.002 13.801 20.84C16.381 19.714 20.25 17.166 20.25 11.991V10.417C20.25 8.808 20.25 7.634 20.204 6.793C20.1927 6.47175 20.1593 6.15166 20.104 5.835C20.0883 5.75107 20.0673 5.66824 20.041 5.587C20.0329 5.56132 20.0221 5.53653 20.009 5.513C19.9923 5.49466 19.9738 5.47792 19.954 5.463C19.8877 5.41203 19.8182 5.36527 19.746 5.323C19.4675 5.16953 19.1788 5.03522 18.882 4.921C18.108 4.606 17.005 4.228 15.492 3.711L14.919 3.514C13.305 2.962 12.658 2.75 12 2.75Z" fill="black"/>
</g>
<defs>
<clipPath id="clip0_221_17699">
<rect width="24" height="24" fill="white"/>
</clipPath>
</defs>
</svg>
