<svg width="24" height="24" viewBox="0 0 24 24" fill="none" xmlns="http://www.w3.org/2000/svg">
<g clip-path="url(#clip0_221_17648)">
<path fill-rule="evenodd" clip-rule="evenodd" d="M5.99146 1.44797C8.37176 1.04417 13.9235 1.03556 17.3945 1.30813C18.7128 1.41165 19.7522 1.80475 20.5504 2.42932C21.3464 3.05214 21.8474 3.86193 22.1625 4.70969C22.7326 6.24356 22.7274 8.01833 22.7238 9.26691C22.7235 9.36264 22.7233 9.45528 22.7233 9.54448L21.1233 9.54448C21.1233 9.46884 21.1234 9.39243 21.1235 9.31533C21.1251 8.01387 21.127 6.51638 20.6627 5.26713C20.425 4.62752 20.0756 4.08939 19.5644 3.6894C19.0555 3.29117 18.331 2.98659 17.2693 2.90322C13.8562 2.6352 8.49259 2.65455 6.28862 3.02047C5.02336 3.33688 4.27941 3.5899 3.75376 4.31357C3.19266 5.08607 2.77984 6.54473 2.77984 9.60802C2.77984 12.686 2.83633 14.7537 2.90613 16.0846C2.94106 16.7506 2.97901 17.2261 3.01401 17.5483C3.04035 17.7907 3.06191 17.9117 3.0697 17.9555C3.07352 17.9769 3.07404 17.9798 3.07022 17.9695L3.09952 18.049L3.1115 18.1329C3.18409 18.641 3.40812 19.4196 4.16685 20.0568C4.92696 20.6951 6.34768 21.2954 9.03144 21.1833L9.09823 22.7819C6.16456 22.9045 4.30161 22.2593 3.1379 21.282C2.00513 20.3307 1.65241 19.1633 1.5369 18.4216C1.48679 18.239 1.45262 17.9903 1.42337 17.7211C1.38406 17.3593 1.34417 16.8519 1.30833 16.1684C1.23658 14.8003 1.17984 12.7027 1.17984 9.60802C1.17984 6.49863 1.57832 4.58606 2.45922 3.37328C3.37142 2.1174 4.69255 1.76935 5.93177 1.46045L5.96138 1.45307L5.99146 1.44797Z" fill="black"/>
<path d="M7 6C7 6.26522 6.89464 6.51957 6.70711 6.70711C6.51957 6.89464 6.26522 7 6 7C5.73478 7 5.48043 6.89464 5.29289 6.70711C5.10536 6.51957 5 6.26522 5 6C5 5.73478 5.10536 5.48043 5.29289 5.29289C5.48043 5.10536 5.73478 5 6 5C6.26522 5 6.51957 5.10536 6.70711 5.29289C6.89464 5.48043 7 5.73478 7 6ZM10 6C10 6.26522 9.89464 6.51957 9.70711 6.70711C9.51957 6.89464 9.26522 7 9 7C8.73478 7 8.48043 6.89464 8.29289 6.70711C8.10536 6.51957 8 6.26522 8 6C8 5.73478 8.10536 5.48043 8.29289 5.29289C8.48043 5.10536 8.73478 5 9 5C9.26522 5 9.51957 5.10536 9.70711 5.29289C9.89464 5.48043 10 5.73478 10 6ZM13 6C13 6.26522 12.8946 6.51957 12.7071 6.70711C12.5196 6.89464 12.2652 7 12 7C11.7348 7 11.4804 6.89464 11.2929 6.70711C11.1054 6.51957 11 6.26522 11 6C11 5.73478 11.1054 5.48043 11.2929 5.29289C11.4804 5.10536 11.7348 5 12 5C12.2652 5 12.5196 5.10536 12.7071 5.29289C12.8946 5.48043 13 5.73478 13 6Z" fill="black"/>
<path fill-rule="evenodd" clip-rule="evenodd" d="M1.25 9.5C1.25 9.08579 1.58579 8.75 2 8.75H21.9766C22.3908 8.75 22.7266 9.08579 22.7266 9.5C22.7266 9.91421 22.3908 10.25 21.9766 10.25H9.75V22.0358C9.75 22.45 9.41421 22.7858 9 22.7858C8.58579 22.7858 8.25 22.45 8.25 22.0358V10.25H2C1.58579 10.25 1.25 9.91421 1.25 9.5Z" fill="black"/>
<path fill-rule="evenodd" clip-rule="evenodd" d="M22 14C22 14.1989 21.921 14.3897 21.7803 14.5303C21.6397 14.671 21.4489 14.75 21.25 14.75H9.5C9.30109 14.75 9.11032 14.671 8.96967 14.5303C8.82902 14.3897 8.75 14.1989 8.75 14C8.75 13.8011 8.82902 13.6103 8.96967 13.4697C9.11032 13.329 9.30109 13.25 9.5 13.25H21.25C21.4489 13.25 21.6397 13.329 21.7803 13.4697C21.921 13.6103 22 13.8011 22 14ZM22 18.75C22 18.9489 21.921 19.1397 21.7803 19.2803C21.6397 19.421 21.4489 19.5 21.25 19.5H9.5C9.30109 19.5 9.11032 19.421 8.96967 19.2803C8.82902 19.1397 8.75 18.9489 8.75 18.75C8.75 18.5511 8.82902 18.3603 8.96967 18.2197C9.11032 18.079 9.30109 18 9.5 18H21.25C21.4489 18 21.6397 18.079 21.7803 18.2197C21.921 18.3603 22 18.5511 22 18.75Z" fill="black"/>
<path fill-rule="evenodd" clip-rule="evenodd" d="M14 8.75C14.1989 8.75 14.3897 8.82902 14.5303 8.96967C14.671 9.11032 14.75 9.30109 14.75 9.5V21.25C14.75 21.4489 14.671 21.6397 14.5303 21.7803C14.3897 21.921 14.1989 22 14 22C13.8011 22 13.6103 21.921 13.4697 21.7803C13.329 21.6397 13.25 21.4489 13.25 21.25L13.25 9.5C13.25 9.30109 13.329 9.11032 13.4697 8.96967C13.6103 8.82902 13.8011 8.75 14 8.75ZM18.75 8.75C18.9489 8.75 19.1397 8.82902 19.2803 8.96967C19.421 9.11032 19.5 9.30109 19.5 9.5V21.25C19.5 21.4489 19.421 21.6397 19.2803 21.7803C19.1397 21.921 18.9489 22 18.75 22C18.5511 22 18.3603 21.921 18.2197 21.7803C18.079 21.6397 18 21.4489 18 21.25V9.5C18 9.30109 18.079 9.11032 18.2197 8.96967C18.3603 8.82902 18.5511 8.75 18.75 8.75Z" fill="black"/>
</g>
<defs>
<clipPath id="clip0_221_17648">
<rect width="24" height="24" fill="white"/>
</clipPath>
</defs>
</svg>
