<svg width="24" height="24" viewBox="0 0 24 24" fill="none" xmlns="http://www.w3.org/2000/svg">
<g clip-path="url(#clip0_221_17550)">
<path d="M22.8386 11.945C22.8386 9.63597 22.8386 7.82699 22.6486 6.41499C22.4546 4.97099 22.0486 3.83098 21.1546 2.93598C20.2596 2.04098 19.1196 1.63596 17.6746 1.44196C16.2636 1.25196 14.4546 1.25195 12.1456 1.25195H12.0316C9.72259 1.25195 7.91358 1.25196 6.50158 1.44196C5.05758 1.63596 3.91757 2.04198 3.02257 2.93598C2.12757 3.83098 1.72258 4.97096 1.52858 6.41597C1.33858 7.82697 1.33857 9.63597 1.33857 11.945V12.059C1.33857 14.368 1.33858 16.177 1.52858 17.589C1.72258 19.033 2.12857 20.173 3.02257 21.068C3.91757 21.963 5.05758 22.368 6.50259 22.562C7.91359 22.752 9.72259 22.752 12.0316 22.752H12.1456C14.4546 22.752 16.2636 22.752 17.6756 22.562C19.1196 22.368 20.2596 21.962 21.1546 21.068C22.0496 20.173 22.4546 19.033 22.6486 17.588C22.8386 16.177 22.8386 14.368 22.8386 12.059V11.945ZM6.33858 2.98298V3.00196V21.002V21.02C5.27358 20.836 4.59657 20.519 4.08257 20.007C3.51357 19.437 3.18657 18.667 3.01457 17.388C2.84057 16.088 2.83858 14.38 2.83858 12.002C2.83858 9.62397 2.84057 7.91598 3.01457 6.61598C3.18657 5.33698 3.51457 4.56598 4.08358 3.99598C4.59758 3.48298 5.27358 3.16598 6.33858 2.98298ZM7.83859 21.181L7.83859 2.82196C8.96459 2.75296 10.3466 2.75196 12.0886 2.75196C14.4666 2.75196 16.1746 2.75398 17.4746 2.92798C18.7536 3.09998 19.5236 3.42795 20.0936 3.99695C20.6636 4.56696 20.9906 5.33698 21.1626 6.61598C21.3366 7.91598 21.3386 9.62397 21.3386 12.002C21.3386 14.38 21.3366 16.088 21.1626 17.388C20.9906 18.667 20.6626 19.438 20.0936 20.008C19.5236 20.577 18.7536 20.904 17.4746 21.076C16.1746 21.25 14.4666 21.252 12.0886 21.252C10.3466 21.252 8.96459 21.25 7.83859 21.181ZM17.8386 12.002C17.8386 12.2 17.7596 12.391 17.6186 12.532C17.4786 12.673 17.2876 12.752 17.0886 12.752H11.8986L13.6186 14.472C13.6926 14.54 13.7516 14.623 13.7926 14.715C13.8336 14.807 13.8556 14.906 13.8576 15.007C13.8586 15.108 13.8406 15.208 13.8026 15.301C13.7646 15.395 13.7086 15.479 13.6376 15.551C13.5666 15.622 13.4816 15.678 13.3886 15.716C13.2946 15.753 13.1946 15.772 13.0946 15.77C12.9936 15.768 12.8946 15.746 12.8026 15.705C12.7106 15.664 12.6276 15.605 12.5586 15.532L9.55859 12.532C9.41859 12.391 9.3396 12.2 9.3396 12.002C9.3396 11.803 9.41859 11.612 9.55859 11.472L12.5586 8.472C12.6276 8.398 12.7106 8.33899 12.8026 8.29799C12.8946 8.25699 12.9936 8.23499 13.0946 8.23299C13.1946 8.23099 13.2946 8.25 13.3886 8.287C13.4816 8.325 13.5666 8.38098 13.6376 8.45198C13.7086 8.52398 13.7646 8.60898 13.8026 8.70198C13.8406 8.79498 13.8586 8.89499 13.8576 8.99599C13.8556 9.09699 13.8336 9.19598 13.7926 9.28798C13.7516 9.37998 13.6926 9.463 13.6186 9.532L11.8986 11.252H17.0886C17.2876 11.252 17.4786 11.331 17.6186 11.471C17.7596 11.612 17.8386 11.803 17.8386 12.002Z" fill="black"/>
</g>
<defs>
<clipPath id="clip0_221_17550">
<rect width="24" height="24" fill="white"/>
</clipPath>
</defs>
</svg>
