<svg width="24" height="24" viewBox="0 0 24 24" fill="none" xmlns="http://www.w3.org/2000/svg">
<g clip-path="url(#clip0_221_17628)">
<path fill-rule="evenodd" clip-rule="evenodd" d="M20.9641 12.0582C21.097 12.1936 21.1191 12.2161 20.9736 12.0678C21.1455 12.243 21.2878 12.3901 21.3974 12.5168C21.5332 12.6766 21.6487 12.8417 21.7257 13.034C21.9078 13.4838 21.9031 13.9884 21.7126 14.4347C21.6168 14.6616 21.4682 14.8498 21.2908 15.0386C21.2886 15.0408 21.2865 15.0428 21.2843 15.045C21.2661 15.0629 21.2573 15.0884 21.2613 15.1182C21.2717 15.1396 21.2918 15.1558 21.3141 15.1634C21.3162 15.1634 21.3194 15.1645 21.3216 15.1645C21.5699 15.2435 21.7905 15.3371 21.9839 15.4868C21.9849 15.4879 21.9849 15.4879 21.9849 15.4879C22.3675 15.7874 22.6146 16.2262 22.6729 16.7089C22.6739 16.7121 22.6739 16.7143 22.6739 16.7164C22.6954 16.921 22.6818 17.1284 22.6352 17.326L22.4817 17.9217C22.463 17.9865 22.4419 18.0704 22.4762 17.9398C22.4232 18.1373 22.3661 18.3347 22.3025 18.5258C22.239 18.7232 22.1436 18.9075 22.0207 19.0724C22.0185 19.0745 22.0164 19.0766 22.0142 19.0787C21.7158 19.4602 21.277 19.7095 20.7943 19.7678C20.5513 19.7975 20.3131 19.7633 20.0625 19.7035L20.0603 19.7035C20.0327 19.6968 20.0019 19.6955 19.9815 19.7134C19.9653 19.7335 19.9598 19.76 19.9659 19.7856C19.967 19.7888 19.968 19.792 19.968 19.7963C20.0231 20.048 20.0528 20.2868 20.0186 20.5291C19.9513 21.0107 19.6939 21.4447 19.3069 21.736C19.1418 21.8622 18.959 21.9425 18.7593 22.0098C18.5991 22.0637 18.4007 22.115 18.1627 22.1756L18.1382 22.1829L17.5354 22.3252C17.3307 22.3637 17.1304 22.381 16.9241 22.3514C16.4436 22.2831 16.0096 22.0278 15.7173 21.6397C15.5711 21.4436 15.4817 21.2213 15.4073 20.9715C15.4063 20.9683 15.4053 20.9651 15.4042 20.9619C15.398 20.9385 15.3802 20.9181 15.3526 20.9072C15.3292 20.9048 15.3057 20.9131 15.2885 20.93C15.2853 20.9331 15.2831 20.9352 15.281 20.9374C15.0877 21.1123 14.8969 21.2574 14.6715 21.3479C14.6704 21.3489 14.6704 21.3489 14.6704 21.3489C14.2206 21.5289 13.716 21.5242 13.2686 21.3348C13.0777 21.2542 12.9159 21.1367 12.7586 20.9979L12.3166 20.5648L11.8739 20.0966C11.7381 19.9367 11.6226 19.7717 11.5456 19.5793C11.3635 19.1295 11.3682 18.625 11.5586 18.1786C11.6534 17.9527 11.8031 17.7636 11.9815 17.5758C11.9847 17.5726 11.9858 17.5694 11.9891 17.5663C12.0063 17.5494 12.015 17.5261 12.01 17.4952C11.9995 17.4738 11.9805 17.4587 11.9582 17.451C11.955 17.4499 11.9518 17.4488 11.9497 17.4488C11.7014 17.3698 11.4808 17.2762 11.2874 17.1265L11.2864 17.1254C10.9049 16.827 10.6567 16.3872 10.5973 15.9055C10.5726 15.6998 10.5926 15.5009 10.6349 15.2948L10.7895 14.6959L10.7852 14.7086C10.7552 14.835 10.7631 14.7914 10.7962 14.6704L10.9731 14.077C11.0431 13.8796 11.1289 13.6984 11.2571 13.5346C11.5555 13.1531 11.9942 12.9038 12.477 12.8455C12.721 12.8169 12.9581 12.85 13.2088 12.9098C13.2131 12.9099 13.2162 12.911 13.2194 12.9121C13.2438 12.9197 13.2694 12.9136 13.293 12.8946C13.306 12.8756 13.3115 12.8512 13.3053 12.8277C13.3043 12.8245 13.3033 12.8213 13.3033 12.8171C13.2482 12.5653 13.2185 12.3266 13.2527 12.0842C13.321 11.6037 13.5763 11.1696 13.9644 10.8773C14.1305 10.7522 14.3122 10.6709 14.5119 10.6035L15.131 10.4326L15.1341 10.4316C15.37 10.371 15.5674 10.3206 15.7326 10.2892C15.931 10.2463 16.1366 10.2365 16.3386 10.2618C16.3418 10.2608 16.345 10.2619 16.3471 10.2619C16.8277 10.3303 17.2628 10.5866 17.554 10.9736C17.5551 10.9747 17.5551 10.9747 17.5551 10.9747C17.7012 11.1708 17.7907 11.3931 17.8639 11.6418C17.865 11.645 17.866 11.6482 17.867 11.6514C17.8732 11.6749 17.8911 11.6953 17.9187 11.7062C17.9421 11.7085 17.9656 11.7002 17.9828 11.6834C17.986 11.6802 17.9881 11.6781 17.9903 11.676C18.1835 11.5011 18.3733 11.357 18.5998 11.2654C19.0507 11.0844 19.5552 11.0892 20.0027 11.2785C20.0048 11.2807 20.0069 11.2807 20.0101 11.2818C20.1956 11.3655 20.366 11.4788 20.5158 11.6186L20.9536 12.0496L20.9641 12.0582ZM19.3975 12.7015C19.3286 12.6721 19.2499 12.6713 19.1793 12.7005L19.1783 12.6994C19.1484 12.7119 19.114 12.7456 19.0324 12.8194C18.6287 13.1861 18.0566 13.351 17.5003 13.1968C16.9439 13.0426 16.5381 12.6056 16.3823 12.0836C16.3513 11.979 16.339 11.932 16.3201 11.9063C16.319 11.9052 16.319 11.9052 16.318 11.9042C16.2738 11.8441 16.205 11.8041 16.1317 11.7938C16.1093 11.7904 16.0795 11.7965 16.0197 11.8087C15.8961 11.831 15.7402 11.8721 15.5076 11.9317L14.9996 12.0718C14.9441 12.0904 14.9131 12.0976 14.8981 12.1102C14.8971 12.1113 14.896 12.1123 14.8938 12.1123C14.8338 12.1586 14.7938 12.2252 14.7835 12.3007C14.779 12.3326 14.7913 12.3796 14.8137 12.4884C14.9301 13.0217 14.7863 13.5994 14.3748 14.0033C13.9634 14.4072 13.383 14.5401 12.852 14.4138C12.7436 14.3894 12.6969 14.3762 12.6639 14.3812C12.5893 14.389 12.5208 14.4288 12.4745 14.4869C12.4745 14.4891 12.4734 14.4902 12.4723 14.4912C12.4594 14.506 12.4517 14.5346 12.432 14.5919L12.2825 15.0972L12.1489 15.6102C12.1367 15.6686 12.1311 15.6973 12.133 15.7186C12.1419 15.7921 12.1806 15.8617 12.2398 15.9069C12.2409 15.908 12.2409 15.908 12.2419 15.9091C12.2673 15.9285 12.314 15.9417 12.418 15.9746C12.418 15.9746 12.418 15.9746 12.4191 15.9757C12.938 16.1413 13.3653 16.5551 13.5102 17.1132C13.654 17.6723 13.4795 18.2402 13.1053 18.6369L13.1042 18.638C13.029 18.7182 12.9946 18.7519 12.9815 18.7816L12.9826 18.7827C12.9521 18.8527 12.9514 18.9314 12.9795 19.0009C12.9878 19.0222 13.0089 19.0437 13.0489 19.0909C13.1289 19.1854 13.2439 19.3003 13.4116 19.4711C13.5803 19.643 13.692 19.7591 13.7849 19.8408C13.8314 19.8817 13.8535 19.9043 13.8737 19.9119C13.9426 19.9413 14.0214 19.942 14.093 19.914C14.1229 19.9015 14.1573 19.8677 14.2388 19.794L14.2399 19.7929C14.6436 19.4262 15.2168 19.2623 15.771 19.4165C16.3263 19.5718 16.7331 20.0078 16.889 20.5298C16.921 20.6354 16.9323 20.6813 16.9512 20.707C16.9522 20.7081 16.9523 20.7081 16.9533 20.7092C16.9985 20.7703 17.0663 20.8092 17.1407 20.8206C17.1619 20.8229 17.1918 20.8168 17.2526 20.8057C17.3752 20.7823 17.5321 20.7423 17.7637 20.6816L18.2717 20.5416C18.3282 20.524 18.357 20.5168 18.3731 20.5031C18.3742 20.5021 18.3763 20.5021 18.3763 20.5021C18.4364 20.4558 18.4774 20.3881 18.4877 20.3147C18.4923 20.2807 18.481 20.2348 18.4575 20.125C18.3412 19.5916 18.4849 19.0139 18.8964 18.61C19.3079 18.2062 19.8882 18.0732 20.4193 18.1995C20.5287 18.225 20.5744 18.2371 20.6074 18.2342C20.682 18.2243 20.7494 18.1856 20.7968 18.1264C20.7979 18.1253 20.7979 18.1232 20.7989 18.1222C20.8119 18.1074 20.8196 18.0787 20.8403 18.0225L20.9888 17.5161C21.0537 17.2857 21.0956 17.1307 21.1213 17.0085C21.1335 16.9479 21.1413 16.9171 21.1394 16.8958C21.1294 16.8212 21.0917 16.7528 21.0315 16.7064C21.0304 16.7053 21.0304 16.7053 21.0293 16.7043C21.004 16.6849 20.9573 16.6717 20.8532 16.6388C20.3332 16.4721 19.906 16.0583 19.7611 15.5002C19.6183 14.9421 19.7918 14.3732 20.166 13.9764C20.2412 13.8962 20.2766 13.8614 20.2897 13.8317C20.3191 13.7607 20.3209 13.683 20.2917 13.6125C20.2845 13.5922 20.2623 13.5696 20.2234 13.5235C20.1423 13.428 20.0284 13.3141 19.8597 13.1422C19.692 12.9714 19.5792 12.8543 19.4863 12.7725C19.4398 12.7316 19.4188 12.7102 19.3975 12.7015ZM18.3466 14.7919L18.2665 14.706C17.3881 13.8111 15.9298 13.7975 15.0349 14.6758C14.14 15.5542 14.1264 17.0124 15.0048 17.9074C15.8832 18.8023 17.3414 18.8159 18.2363 17.9375C19.1033 17.0866 19.1429 15.6913 18.3466 14.7919ZM15.9812 15.7045C15.664 16.0496 15.6696 16.5925 16.0007 16.9299C16.3423 17.278 16.9107 17.2833 17.2588 16.9416C17.6069 16.6 17.6122 16.0316 17.2706 15.6835C16.9289 15.3354 16.3605 15.3301 16.0124 15.6718L15.9812 15.7045Z" fill="black"/>
<path fill-rule="evenodd" clip-rule="evenodd" d="M5.2026 14.9734C3.02796 14.9734 1.263 16.7383 1.263 18.912C1.263 21.0856 3.02796 22.8506 5.2026 22.8506C7.37623 22.8506 9.14119 21.0856 9.14119 18.912C9.14119 16.7383 7.37623 14.9734 5.2026 14.9734ZM5.2026 16.4649C6.55292 16.4649 7.64968 17.5617 7.64968 18.912C7.64968 20.2623 6.55292 21.3591 5.2026 21.3591C3.85128 21.3591 2.75452 20.2623 2.75452 18.912C2.75452 17.5617 3.85128 16.4649 5.2026 16.4649Z" fill="black"/>
<path fill-rule="evenodd" clip-rule="evenodd" d="M2.24442 10.3797C2.24442 10.3797 6.50518 8.94979 9.88894 11.201C10.232 11.4287 10.6954 11.3362 10.9231 10.9932C11.1508 10.6501 11.0573 10.1868 10.7152 9.95909C6.75576 7.32606 1.77409 8.96371 1.77409 8.96371C1.38332 9.09298 1.17152 9.51563 1.30178 9.90641C1.43105 10.2972 1.85364 10.5089 2.24442 10.3797Z" fill="black"/>
<path fill-rule="evenodd" clip-rule="evenodd" d="M2.16586 3.76408C2.16586 3.76408 10.5273 1.9583 16.2677 8.01287C16.551 8.31117 17.0234 8.32411 17.3227 8.04072C17.621 7.75734 17.6339 7.28502 17.3505 6.98672C11.0394 0.331572 1.85265 2.30534 1.85265 2.30534C1.44994 2.39185 1.19339 2.78958 1.2799 3.19129C1.36641 3.594 1.76415 3.85059 2.16586 3.76408Z" fill="black"/>
</g>
<defs>
<clipPath id="clip0_221_17628">
<rect width="24" height="24" fill="white"/>
</clipPath>
</defs>
</svg>
