<svg width="24" height="24" viewBox="0 0 24 24" fill="none" xmlns="http://www.w3.org/2000/svg">
<g clip-path="url(#clip0_221_17688)">
<path fill-rule="evenodd" clip-rule="evenodd" d="M9.72451 20.17C10.9545 20.181 12.1775 20.181 12.9745 20.181H13.9745C14.1735 20.181 14.3645 20.26 14.5045 20.401C14.6455 20.542 14.7245 20.732 14.7245 20.931C14.7245 21.13 14.6455 21.321 14.5045 21.462C14.3645 21.602 14.1735 21.681 13.9745 21.681H12.9185C11.0805 21.681 6.62455 21.681 5.48554 21.528C4.31354 21.37 3.36448 21.038 2.61548 20.29C1.86748 19.541 1.5355 18.592 1.3775 17.42C1.2245 16.28 1.22449 14.8249 1.22449 12.9869V10.8749C1.22449 9.03692 1.2245 7.58094 1.3775 6.44194C1.5355 5.26993 1.86748 4.32094 2.61548 3.57193C3.36448 2.82393 4.31354 2.49192 5.48554 2.33392C6.62555 2.18092 8.08053 2.18091 9.91854 2.18091H14.0305C15.8686 2.18091 17.3245 2.18092 18.4635 2.33392C19.6355 2.49192 20.5845 2.82393 21.3335 3.57193C22.0815 4.32094 22.4136 5.26993 22.5716 6.44194C22.7246 7.58194 22.7245 9.03692 22.7245 10.8749V10.9309C22.7245 11.1299 22.6456 11.3209 22.5046 11.4619C22.3646 11.6019 22.1735 11.6809 21.9745 11.6809C21.7755 11.6809 21.5846 11.6019 21.4446 11.4619C21.3036 11.3209 21.2245 11.1299 21.2245 10.9309C21.2245 10.3879 21.2246 9.88993 21.2206 9.43093H16.2245V11.1809C16.2245 11.3799 16.1456 11.5709 16.0045 11.7119C15.8645 11.8519 15.6735 11.9309 15.4745 11.9309C15.2755 11.9309 15.0846 11.8519 14.9446 11.7119C14.8035 11.5709 14.7245 11.3799 14.7245 11.1809V9.43093H9.72451V14.4309H12.7245C12.9235 14.4309 13.1145 14.5099 13.2545 14.6509C13.3955 14.7919 13.4745 14.9819 13.4745 15.1809C13.4745 15.3799 13.3955 15.5709 13.2545 15.7119C13.1145 15.8519 12.9235 15.9309 12.7245 15.9309H9.72451V20.17ZM18.1946 12.9009C18.3356 12.7609 18.5255 12.6819 18.7245 12.6819C18.9235 12.6819 19.1136 12.7609 19.2546 12.9009L21.7546 15.4009C21.8286 15.4699 21.8876 15.553 21.9286 15.645C21.9696 15.737 21.9916 15.836 21.9936 15.937C21.9946 16.038 21.9766 16.138 21.9386 16.231C21.9006 16.324 21.8445 16.409 21.7735 16.48C21.7025 16.552 21.6176 16.608 21.5246 16.646C21.4306 16.683 21.3305 16.702 21.2295 16.7C21.1295 16.698 21.0295 16.676 20.9375 16.635C20.8455 16.594 20.7636 16.5349 20.6946 16.4609L19.4745 15.2409V20.431C19.4745 20.63 19.3956 20.821 19.2546 20.962C19.1146 21.102 18.9235 21.181 18.7245 21.181C18.5255 21.181 18.3346 21.102 18.1946 20.962C18.0536 20.821 17.9745 20.63 17.9745 20.431V15.2409L16.7546 16.4609C16.6856 16.5349 16.6036 16.594 16.5116 16.635C16.4196 16.676 16.3195 16.698 16.2195 16.7C16.1185 16.702 16.0185 16.683 15.9245 16.646C15.8315 16.608 15.7466 16.552 15.6756 16.48C15.6046 16.409 15.5485 16.324 15.5105 16.231C15.4725 16.138 15.4545 16.038 15.4555 15.937C15.4575 15.836 15.4795 15.737 15.5205 15.645C15.5615 15.553 15.6206 15.4699 15.6946 15.4009L18.1946 12.9009ZM2.75849 15.9C2.77949 16.395 2.81251 16.832 2.86451 17.221C2.99951 18.226 3.25352 18.806 3.67652 19.229C4.09952 19.652 4.67949 19.906 5.6855 20.041C6.1065 20.098 7.0845 20.132 8.2245 20.152V15.9309H2.97449C2.90049 15.9309 2.82849 15.92 2.75849 15.9ZM2.72852 9.38994C2.72452 9.85994 2.72449 10.3719 2.72449 10.9309V12.9309C2.72449 13.4909 2.72452 14.003 2.72852 14.473C2.80652 14.446 2.88949 14.4309 2.97449 14.4309H8.2245V9.43093H2.97449C2.88949 9.43093 2.80652 9.41694 2.72852 9.38994ZM8.2245 3.68692V7.93092H2.97449C2.90049 7.93092 2.82849 7.94194 2.75849 7.96293C2.77949 7.46793 2.81251 7.03094 2.86451 6.64094C2.99951 5.63594 3.25352 5.05594 3.67652 4.63294C4.09952 4.20994 4.67952 3.95593 5.68452 3.82093C6.36652 3.72993 7.1905 3.69792 8.2245 3.68692ZM14.7245 3.68192V7.93092H9.72451V3.68091H9.97451H13.9745C14.2345 3.68091 14.4845 3.68092 14.7245 3.68192ZM16.2245 3.69492C17.0295 3.70992 17.6965 3.74493 18.2635 3.82093C19.2695 3.95593 19.8496 4.20994 20.2726 4.63294C20.6956 5.05594 20.9496 5.63594 21.0846 6.64094C21.1356 7.02294 21.1686 7.44892 21.1886 7.93092H16.2245V3.69492Z" fill="black"/>
</g>
<defs>
<clipPath id="clip0_221_17688">
<rect width="24" height="24" fill="white"/>
</clipPath>
</defs>
</svg>
