<svg width="24" height="24" viewBox="0 0 24 24" fill="none" xmlns="http://www.w3.org/2000/svg">
<g clip-path="url(#clip0_221_17636)">
<path d="M5.53033 1.46967C5.38968 1.32902 5.19891 1.25 5 1.25C4.80109 1.25 4.61032 1.32902 4.46967 1.46967C4.32902 1.61032 4.25 1.80109 4.25 2V22C4.25 22.1989 4.32902 22.3897 4.46967 22.5303C4.61032 22.671 4.80109 22.75 5 22.75C5.19891 22.75 5.38968 22.671 5.53033 22.5303C5.67098 22.3897 5.75 22.1989 5.75 22V14.615V13.085V4.615V3.085V2C5.75 1.80109 5.67098 1.61032 5.53033 1.46967Z" fill="black"/>
<path fill-rule="evenodd" clip-rule="evenodd" d="M5.5 2C4.171 1.216 4.25001 2.79094 4.25001 4.21294V13.7869C4.25001 15.2089 4.171 16.784 5.5 16L18.795 10.7049C20.068 9.95294 20.068 8.04694 18.795 7.29494L5.5 2ZM5.75001 4.21294C5.75001 4.01494 5.386 3.57104 5.5 3.50004C5.43744 3.50092 5.55176 3.46488 5.5 3.50004C5.56256 3.49915 6.25927 3.76627 6.31201 3.79994L18.032 8.58694C18.1012 8.63082 18.1577 8.69201 18.1959 8.76445C18.2342 8.8369 18.2528 8.91808 18.25 8.99994C18.2528 9.08181 18.2342 9.16299 18.1959 9.23544C18.1577 9.30788 18.1012 9.36907 18.032 9.41294L6.31201 14.1999C6.25916 14.2338 5.56277 14.5009 5.5 14.5C5.43723 14.4991 5.55186 14.5354 5.5 14.5C5.43323 14.4555 5.53659 14.0714 5.5 14C5.46342 13.9286 5.74712 13.8671 5.75001 13.7869V4.21294Z" fill="black"/>
</g>
<defs>
<clipPath id="clip0_221_17636">
<rect width="24" height="24" fill="white"/>
</clipPath>
</defs>
</svg>
