<svg width="24" height="24" viewBox="0 0 24 24" fill="none" xmlns="http://www.w3.org/2000/svg">
<g clip-path="url(#clip0_221_17589)">
<path d="M14.18 4.27596C14.3721 4.3273 14.536 4.45285 14.6356 4.625C14.7352 4.79715 14.7623 5.00181 14.711 5.19396L10.738 20.024C10.6864 20.2162 10.5606 20.3802 10.3881 20.4796C10.2157 20.5791 10.0108 20.606 9.8185 20.5545C9.62622 20.5029 9.4623 20.377 9.36281 20.2046C9.26333 20.0321 9.23642 19.8272 9.288 19.635L13.262 4.80496C13.2875 4.7098 13.3315 4.62061 13.3915 4.54247C13.4516 4.46434 13.5264 4.39879 13.6117 4.34957C13.697 4.30035 13.7912 4.26843 13.8889 4.25563C13.9866 4.24282 14.0859 4.24939 14.181 4.27496M16.443 7.32796C16.576 7.18013 16.7623 7.09118 16.9609 7.08068C17.1595 7.07018 17.3541 7.13898 17.502 7.27196L19.239 8.83596C19.976 9.49796 20.586 10.048 21.006 10.546C21.446 11.071 21.76 11.634 21.76 12.33C21.76 13.025 21.447 13.588 21.006 14.112C20.586 14.611 19.976 15.161 19.239 15.823L17.502 17.387C17.3541 17.5201 17.1595 17.589 16.9608 17.5786C16.7621 17.5682 16.5756 17.4793 16.4425 17.3315C16.3094 17.1836 16.2404 16.9889 16.2508 16.7902C16.2612 16.5915 16.3501 16.4051 16.498 16.272L18.195 14.745C18.983 14.036 19.514 13.555 19.858 13.147C20.188 12.754 20.26 12.525 20.26 12.329C20.26 12.133 20.188 11.905 19.858 11.512C19.514 11.103 18.983 10.622 18.195 9.91396L16.498 8.38696C16.4247 8.32107 16.365 8.24138 16.3225 8.15243C16.28 8.06348 16.2554 7.96702 16.2502 7.86857C16.245 7.77012 16.2593 7.6716 16.2922 7.57867C16.3251 7.48573 16.376 7.4002 16.442 7.32696M7.502 8.38696C7.64986 8.25382 7.73877 8.06739 7.74918 7.8687C7.75959 7.67001 7.69064 7.47531 7.5575 7.32746C7.42436 7.1796 7.23794 7.09068 7.03924 7.08028C6.84055 7.06987 6.64586 7.13882 6.498 7.27196L4.761 8.83596C4.024 9.49796 3.414 10.048 2.994 10.546C2.554 11.071 2.24 11.634 2.24 12.33C2.24 13.025 2.553 13.588 2.994 14.112C3.414 14.611 4.024 15.161 4.761 15.823L6.498 17.387C6.64586 17.5201 6.84055 17.589 7.03924 17.5786C7.23794 17.5682 7.42436 17.4793 7.5575 17.3315C7.69064 17.1836 7.75959 16.9889 7.74918 16.7902C7.73877 16.5915 7.64986 16.4051 7.502 16.272L5.805 14.745C5.017 14.036 4.486 13.555 4.142 13.147C3.812 12.754 3.74 12.525 3.74 12.329C3.74 12.133 3.812 11.905 4.142 11.512C4.486 11.103 5.017 10.622 5.805 9.91396L7.502 8.38696Z" fill="black"/>
</g>
<defs>
<clipPath id="clip0_221_17589">
<rect width="24" height="24" fill="white"/>
</clipPath>
</defs>
</svg>
