<svg width="24" height="24" viewBox="0 0 24 24" fill="none" xmlns="http://www.w3.org/2000/svg">
<g clip-path="url(#clip0_221_17642)">
<path d="M17.75 15C17.75 15.199 17.671 15.3897 17.5303 15.5304C17.3897 15.671 17.1989 15.75 17 15.75H12C11.8011 15.75 11.6103 15.671 11.4697 15.5304C11.329 15.3897 11.25 15.199 11.25 15C11.25 14.8011 11.329 14.6104 11.4697 14.4697C11.6103 14.3291 11.8011 14.25 12 14.25H17C17.1989 14.25 17.3897 14.3291 17.5303 14.4697C17.671 14.6104 17.75 14.8011 17.75 15ZM7.48 9.42405C7.40474 9.3582 7.31706 9.30807 7.22213 9.27661C7.1272 9.24515 7.02694 9.23299 6.92724 9.24084C6.82755 9.2487 6.73043 9.27642 6.6416 9.32237C6.55277 9.36831 6.47403 9.43156 6.41001 9.50839C6.34599 9.58521 6.29798 9.67407 6.2688 9.76972C6.23963 9.86538 6.22988 9.96591 6.24012 10.0654C6.25037 10.1649 6.28041 10.2613 6.32848 10.349C6.37654 10.4367 6.44166 10.5139 6.52 10.576L6.754 10.771C7.413 11.321 7.844 11.681 8.12 11.987C8.382 12.277 8.407 12.414 8.407 12.5C8.407 12.586 8.382 12.722 8.12 13.013C7.843 13.319 7.413 13.68 6.754 14.229L6.52 14.424C6.37264 14.553 6.28154 14.7344 6.26615 14.9296C6.25077 15.1248 6.31232 15.3182 6.43767 15.4687C6.56301 15.6191 6.74221 15.7145 6.93697 15.7346C7.13174 15.7546 7.32662 15.6977 7.48 15.576L7.757 15.346C8.362 14.842 8.877 14.413 9.233 14.018C9.611 13.598 9.907 13.117 9.907 12.5C9.907 11.883 9.611 11.401 9.233 10.982C8.877 10.587 8.362 10.158 7.757 9.65405L7.48 9.42405Z" fill="black"/>
<path fill-rule="evenodd" clip-rule="evenodd" d="M11.943 1.25H12.057C14.366 1.25 16.175 1.25 17.587 1.44C19.031 1.634 20.171 2.04 21.066 2.934C21.961 3.829 22.366 4.969 22.56 6.414C22.75 7.825 22.75 9.634 22.75 11.943V12.057C22.75 14.366 22.75 16.175 22.56 17.587C22.366 19.031 21.96 20.171 21.066 21.066C20.171 21.961 19.031 22.366 17.586 22.56C16.175 22.75 14.366 22.75 12.057 22.75H11.943C9.634 22.75 7.825 22.75 6.413 22.56C4.969 22.366 3.829 21.96 2.934 21.066C2.039 20.171 1.634 19.031 1.44 17.586C1.25 16.175 1.25 14.366 1.25 12.057V11.943C1.25 9.634 1.25 7.825 1.44 6.413C1.634 4.969 2.04 3.829 2.934 2.934C3.829 2.039 4.969 1.634 6.414 1.44C7.825 1.25 9.634 1.25 11.943 1.25ZM6.613 2.926C5.335 3.098 4.564 3.426 3.995 3.995C3.425 4.565 3.098 5.335 2.926 6.614C2.752 7.914 2.75 9.622 2.75 12C2.75 14.378 2.752 16.086 2.926 17.386C3.098 18.665 3.426 19.436 3.995 20.006C4.565 20.575 5.335 20.902 6.614 21.074C7.914 21.248 9.622 21.25 12 21.25C14.378 21.25 16.086 21.248 17.386 21.074C18.665 20.902 19.436 20.574 20.006 20.005C20.575 19.435 20.902 18.665 21.074 17.386C21.248 16.086 21.25 14.378 21.25 12C21.25 9.622 21.248 7.914 21.074 6.614C20.902 5.335 20.574 4.564 20.005 3.994C19.435 3.425 18.665 3.098 17.386 2.926C16.086 2.752 14.378 2.75 12 2.75C9.622 2.75 7.913 2.752 6.613 2.926Z" fill="black"/>
</g>
<defs>
<clipPath id="clip0_221_17642">
<rect width="24" height="24" fill="white"/>
</clipPath>
</defs>
</svg>
