<svg width="24" height="24" viewBox="0 0 24 24" fill="none" xmlns="http://www.w3.org/2000/svg">
<path d="M2.75 2C2.75 1.80109 2.67098 1.61032 2.53033 1.46967C2.38968 1.32902 2.19891 1.25 2 1.25C1.80109 1.25 1.61032 1.32902 1.46967 1.46967C1.32902 1.61032 1.25 1.80109 1.25 2V12.057C1.25 14.366 1.25 16.175 1.44 17.587C1.634 19.031 2.04 20.171 2.934 21.066C3.829 21.961 4.969 22.366 6.414 22.56C7.825 22.75 9.634 22.75 11.943 22.75H22C22.1989 22.75 22.3897 22.671 22.5303 22.5303C22.671 22.3897 22.75 22.1989 22.75 22C22.75 21.8011 22.671 21.6103 22.5303 21.4697C22.3897 21.329 22.1989 21.25 22 21.25H12C9.622 21.25 7.914 21.248 6.614 21.074C5.335 20.902 4.564 20.574 3.994 20.005C3.425 19.435 3.098 18.665 2.926 17.386C2.752 16.086 2.75 14.378 2.75 12V2Z" fill="black"/>
<path d="M19.588 7.46599C19.6513 7.38907 19.6987 7.3003 19.7273 7.20486C19.756 7.10942 19.7653 7.00923 19.7548 6.91014C19.7443 6.81105 19.7141 6.71505 19.6661 6.62775C19.6181 6.54044 19.5531 6.46358 19.4751 6.40166C19.397 6.33974 19.3074 6.29399 19.2114 6.2671C19.1155 6.2402 19.0151 6.23269 18.9163 6.24501C18.8174 6.25733 18.7219 6.28923 18.6355 6.33885C18.5491 6.38847 18.4735 6.45481 18.413 6.53399L15.295 10.46C15.05 10.769 14.889 10.97 14.756 11.116C14.626 11.259 14.566 11.299 14.538 11.314C14.434 11.3694 14.3184 11.3996 14.2006 11.402C14.0829 11.4044 13.9661 11.3791 13.86 11.328C13.832 11.315 13.77 11.278 13.633 11.141C13.495 11.001 13.325 10.806 13.067 10.508L13.05 10.49C12.813 10.216 12.61 9.98199 12.43 9.80199C12.2466 9.60476 12.0299 9.44128 11.79 9.31899C11.4712 9.16588 11.1208 9.09007 10.7672 9.09772C10.4136 9.10536 10.0669 9.19624 9.75498 9.36299C9.52001 9.49533 9.31015 9.66796 9.13498 9.87299C8.96498 10.061 8.77197 10.303 8.54597 10.588L5.41298 14.534C5.34739 14.6106 5.29793 14.6996 5.26754 14.7958C5.23715 14.8919 5.22646 14.9932 5.23611 15.0936C5.24576 15.1939 5.27555 15.2913 5.3237 15.3799C5.37185 15.4685 5.43737 15.5465 5.51634 15.6092C5.59532 15.6719 5.68613 15.718 5.78333 15.7448C5.88054 15.7716 5.98216 15.7785 6.0821 15.7652C6.18205 15.7518 6.27827 15.7184 6.36502 15.667C6.45176 15.6156 6.52725 15.5472 6.58698 15.466L9.70598 11.54C9.95098 11.231 10.112 11.03 10.244 10.884C10.374 10.741 10.434 10.701 10.462 10.686C10.5659 10.6306 10.6815 10.6004 10.7993 10.598C10.9171 10.5956 11.0338 10.6209 11.14 10.672C11.169 10.685 11.231 10.722 11.367 10.859C11.506 10.999 11.675 11.194 11.934 11.492L11.95 11.51C12.188 11.784 12.39 12.018 12.57 12.198C12.755 12.385 12.959 12.56 13.21 12.681C13.5288 12.8341 13.8792 12.9099 14.2327 12.9023C14.5863 12.8946 14.9331 12.8037 15.245 12.637C15.4788 12.503 15.6884 12.3306 15.865 12.127C16.035 11.939 16.228 11.697 16.455 11.412L19.588 7.46599Z" fill="black"/>
</svg>
