<svg width="24" height="24" viewBox="0 0 24 24" fill="none" xmlns="http://www.w3.org/2000/svg">
<path fill-rule="evenodd" clip-rule="evenodd" d="M15.4842 17.4644H20.9269C21.4763 17.4644 22.0036 17.2456 22.3924 16.8568C22.7813 16.468 23 15.9407 23 15.3912C23 12.5658 23 5.89855 23 3.07314C23 1.92776 22.0723 1 20.9269 1H4.4911C3.34678 1 2.41906 1.92776 2.41906 3.07314C2.41906 5.64813 2.41906 11.1436 2.41906 11.1436C2.41906 11.5695 2.76351 11.915 3.18933 11.915C3.61409 11.915 3.95961 11.5695 3.95961 11.1436C3.95961 11.1436 3.95961 5.64813 3.95961 3.07314C3.95961 2.7794 4.19736 2.5416 4.4911 2.5416H20.9269C21.2206 2.5416 21.4584 2.7794 21.4584 3.07314V15.3912C21.4584 15.5318 21.4024 15.6671 21.3031 15.7664C21.2037 15.8668 21.0685 15.9227 20.9269 15.9227H15.4842C15.0584 15.9227 14.7129 16.2682 14.7129 16.693C14.7129 17.1188 15.0584 17.4644 15.4842 17.4644Z" fill="black"/>
<path fill-rule="evenodd" clip-rule="evenodd" d="M3.18933 6.50383H22.2297C22.6545 6.50383 23 6.15831 23 5.73355C23 5.30773 22.6545 4.96223 22.2297 4.96223H3.18933C2.76351 4.96223 2.41906 5.30773 2.41906 5.73355C2.41906 6.15831 2.76351 6.50383 3.18933 6.50383Z" fill="black"/>
<path fill-rule="evenodd" clip-rule="evenodd" d="M6.66561 9.32716H10.5688V11.2619C10.5688 11.6867 10.9143 12.0321 11.3391 12.0321C11.7649 12.0321 12.1104 11.6867 12.1104 11.2619C12.1104 11.2619 12.1104 9.89885 12.1104 9.10744C12.1104 8.37731 11.5176 7.78556 10.7875 7.78556H6.44689C5.71676 7.78556 5.12504 8.37731 5.12504 9.10744C5.12504 9.8978 5.12504 11.2566 5.12504 11.2566C5.12504 11.6824 5.46951 12.0279 5.89533 12.0279C6.32115 12.0279 6.66561 11.6824 6.66561 11.2566V9.32716Z" fill="black"/>
<path fill-rule="evenodd" clip-rule="evenodd" d="M20.2359 12.8795V9.50787C20.2359 8.5569 19.4645 7.78556 18.5136 7.78556H15.1419C14.1899 7.78556 13.4185 8.5569 13.4185 9.50787V12.8795C13.4185 13.8316 14.1899 14.6029 15.1419 14.6029H18.5136C19.4645 14.6029 20.2359 13.8316 20.2359 12.8795ZM18.6953 9.50787V12.8795C18.6953 12.9799 18.614 13.0613 18.5136 13.0613H15.1419C15.0415 13.0613 14.9601 12.9799 14.9601 12.8795V9.50787C14.9601 9.40749 15.0415 9.32716 15.1419 9.32716H18.5136C18.614 9.32716 18.6953 9.40749 18.6953 9.50787Z" fill="black"/>
<path fill-rule="evenodd" clip-rule="evenodd" d="M13.2516 21.1095V15.0519C13.2516 14.0999 12.4802 13.3286 11.5282 13.3286H2.7223C1.77134 13.3286 1 14.0999 1 15.0519V21.1095C1 22.0605 1.77134 22.8329 2.7223 22.8329H11.5282C12.4802 22.8329 13.2516 22.0605 13.2516 21.1095ZM11.71 15.0519V21.1095C11.71 21.2099 11.6286 21.2912 11.5282 21.2912H2.7223C2.62193 21.2912 2.54055 21.2099 2.54055 21.1095V15.0519C2.54055 14.9515 2.62193 14.8702 2.7223 14.8702H11.5282C11.6286 14.8702 11.71 14.9515 11.71 15.0519Z" fill="black"/>
<path fill-rule="evenodd" clip-rule="evenodd" d="M1.77028 17.4641H12.4813C12.9061 17.4641 13.2516 17.1186 13.2516 16.6928C13.2516 16.268 12.9061 15.9225 12.4813 15.9225H1.77028C1.34446 15.9225 1 16.268 1 16.6928C1 17.1186 1.34446 17.4641 1.77028 17.4641Z" fill="black"/>
<path fill-rule="evenodd" clip-rule="evenodd" d="M4.59992 20.2357H5.89534C6.32116 20.2357 6.66562 19.8902 6.66562 19.4654C6.66562 19.0396 6.32116 18.6941 5.89534 18.6941H4.59992C4.1741 18.6941 3.82963 19.0396 3.82963 19.4654C3.82963 19.8902 4.1741 20.2357 4.59992 20.2357Z" fill="black"/>
<path fill-rule="evenodd" clip-rule="evenodd" d="M8.66445 20.2357H9.95987C10.3857 20.2357 10.7302 19.8902 10.7302 19.4654C10.7302 19.0396 10.3857 18.6941 9.95987 18.6941H8.66445C8.23863 18.6941 7.89417 19.0396 7.89417 19.4654C7.89417 19.8902 8.23863 20.2357 8.66445 20.2357Z" fill="black"/>
</svg>
