<svg width="24" height="24" viewBox="0 0 24 24" fill="none" xmlns="http://www.w3.org/2000/svg">
<g clip-path="url(#clip0_221_17680)">
<path d="M9.693 1.25H11.25C11.4489 1.25 11.6397 1.32902 11.7803 1.46967C11.921 1.61032 12 1.80109 12 2C12 2.19891 11.921 2.38968 11.7803 2.53033C11.6397 2.67098 11.4489 2.75 11.25 2.75H9.75C7.372 2.75 7.914 2.752 6.614 2.926C5.335 3.098 4.564 3.426 3.994 3.995C3.425 4.565 3.098 5.335 2.926 6.614C2.752 7.914 2.75 9.622 2.75 12C2.75 14.378 2.752 16.086 2.926 17.386C3.098 18.665 3.426 19.436 3.995 20.006C4.565 20.575 5.335 20.902 6.614 21.074C7.914 21.248 9.622 21.25 12 21.25C14.378 21.25 16.086 21.248 17.386 21.074C18.665 20.902 19.436 20.574 20.006 20.005C20.575 19.435 20.902 18.665 21.074 17.386C21.248 16.086 21.25 17.378 21.25 15V13.5C21.25 13.3011 21.329 13.1103 21.4697 12.9697C21.6103 12.829 21.8011 12.75 22 12.75C22.1989 12.75 22.3897 12.829 22.5303 12.9697C22.671 13.1103 22.75 13.3011 22.75 13.5V15.057C22.75 17.366 22.75 16.175 22.56 17.587C22.366 19.031 21.96 20.171 21.066 21.066C20.171 21.961 19.031 22.366 17.586 22.56C16.175 22.75 14.366 22.75 12.057 22.75H11.943C9.634 22.75 7.825 22.75 6.413 22.56C4.969 22.366 3.829 21.96 2.934 21.066C2.039 20.171 1.634 19.031 1.44 17.586C1.25 16.175 1.25 14.366 1.25 12.057V11.943C1.25 9.634 1.25 7.825 1.44 6.413C1.634 4.969 2.04 3.829 2.934 2.934C3.829 2.039 4.969 1.634 6.414 1.44C7.825 1.25 7.384 1.25 9.693 1.25Z" fill="black"/>
<path d="M17.48 13.6737C17.6327 13.801 17.7286 13.9838 17.7466 14.1818C17.7646 14.3798 17.7033 14.5769 17.576 14.7297L15.747 16.9247C15.419 17.3187 15.123 17.6747 14.847 17.9247C14.545 18.1947 14.167 18.4377 13.667 18.4377C13.167 18.4377 12.788 18.1957 12.487 17.9237C12.211 17.6737 11.915 17.3187 11.586 16.9237L11.294 16.5737C10.923 16.1287 10.695 15.8577 10.507 15.6887C10.4581 15.6413 10.4033 15.6003 10.344 15.5667L10.337 15.5637L10.333 15.5617L10.323 15.5667C10.2634 15.6002 10.2082 15.6412 10.159 15.6887C9.97202 15.8587 9.74401 16.1287 9.37301 16.5737L7.57601 18.7297C7.4471 18.8771 7.26566 18.9682 7.07047 18.9836C6.87528 18.9989 6.68181 18.9374 6.5314 18.812C6.38099 18.6867 6.28555 18.5075 6.26549 18.3127C6.24542 18.118 6.30232 17.9231 6.42401 17.7697L8.25301 15.5747C8.58101 15.1807 8.87701 14.8247 9.15301 14.5747C9.45501 14.3047 9.83301 14.0617 10.333 14.0617C10.833 14.0617 11.212 14.3037 11.513 14.5757C11.789 14.8257 12.085 15.1807 12.414 15.5757L12.706 15.9257C13.077 16.3707 13.305 16.6417 13.493 16.8107C13.579 16.8887 13.631 16.9207 13.656 16.9327L13.666 16.9377L13.671 16.9357L13.678 16.9327C13.7373 16.8991 13.7921 16.8581 13.841 16.8107C14.028 16.6407 14.256 16.3707 14.627 15.9257L16.424 13.7697C16.5514 13.617 16.7341 13.5211 16.9321 13.5031C17.1302 13.4851 17.3272 13.5464 17.48 13.6737Z" fill="black"/>
<path fill-rule="evenodd" clip-rule="evenodd" d="M17.0112 2.3962C16.7501 2.52318 16.4306 2.72038 15.9413 3.02421L14.991 3.61384C14.991 3.61388 14.9911 3.61379 14.991 3.61384C14.528 3.90136 14.2267 4.08931 14.0065 4.25792C13.8 4.4161 13.7113 4.52354 13.6554 4.62599L13.6546 4.62735C13.5977 4.73117 13.553 4.86903 13.5276 5.13876C13.5008 5.42371 13.5 5.79048 13.5 6.34818V7.07084C13.5 8.01798 13.5016 8.65541 13.5635 9.13105C13.6229 9.58767 13.7258 9.78092 13.8462 9.90552C13.9629 10.0263 14.1393 10.1279 14.569 10.1877C15.0229 10.2508 15.6332 10.2525 16.551 10.2525H18.4515C19.3693 10.2525 19.9795 10.2508 20.4333 10.1877C20.8628 10.1279 21.0395 10.0263 21.1565 9.90529C21.2769 9.7808 21.3798 9.58765 21.4392 9.13097C21.501 8.65524 21.5025 8.01785 21.5025 7.07084V6.3477C21.5025 5.79027 21.5017 5.42366 21.475 5.13877C21.4496 4.86912 21.405 4.7309 21.3479 4.62652C21.2917 4.52378 21.2028 4.4162 20.9961 4.25797C20.7758 4.08932 20.4747 3.90148 20.0117 3.61397C20.0116 3.61393 20.0118 3.61402 20.0117 3.61397L19.0614 3.02434C18.5718 2.72044 18.2522 2.52319 17.991 2.39617C17.7453 2.27665 17.6103 2.25 17.5013 2.25C17.3921 2.25 17.257 2.27668 17.0112 2.3962ZM16.3553 1.04721C16.7175 0.871082 17.084 0.75 17.5013 0.75C17.9186 0.75 18.2849 0.871112 18.6471 1.04724C18.986 1.21205 19.3711 1.45108 19.821 1.73035L20.8364 2.3604C21.2601 2.62353 21.6233 2.84905 21.908 3.06697C22.2137 3.30108 22.4735 3.55863 22.6639 3.90678C22.8534 4.2533 22.9321 4.61206 22.9684 4.99844C23.0025 5.36177 23.0025 5.79923 23.0025 6.31442L23.0025 7.12127C23.0025 8.00478 23.0026 8.74048 22.9266 9.32437C22.8468 9.93838 22.6713 10.4966 22.2348 10.948C21.795 11.4028 21.2454 11.5891 20.64 11.6734C20.0706 11.7526 19.3551 11.7525 18.5045 11.7525H16.498C15.6474 11.7525 14.9318 11.7526 14.3624 11.6734C13.757 11.5892 13.2071 11.4028 12.7675 10.9478C12.3315 10.4965 12.156 9.9386 12.0761 9.32464C12 8.73992 12 8.00294 12 7.11735L12 6.31483C12 5.79946 12 5.36172 12.0342 4.99821C12.0705 4.61192 12.1493 4.25302 12.3391 3.90664C12.5293 3.55854 12.789 3.30102 13.0945 3.06702C13.3791 2.84907 13.7424 2.62352 14.1661 2.3604C14.1773 2.35348 14.1885 2.34652 14.1997 2.33954L15.1783 1.73235C15.6294 1.45219 16.0155 1.21244 16.3553 1.04721Z" fill="black"/>
<path fill-rule="evenodd" clip-rule="evenodd" d="M17.5012 4.75122C17.9154 4.75122 18.2512 5.08701 18.2512 5.50122V8.50122C18.2512 8.91543 17.9154 9.25122 17.5012 9.25122C17.087 9.25122 16.7512 8.91543 16.7512 8.50122V5.50122C16.7512 5.08701 17.087 4.75122 17.5012 4.75122Z" fill="black"/>
</g>
<defs>
<clipPath id="clip0_221_17680">
<rect width="24" height="24" fill="white"/>
</clipPath>
</defs>
</svg>
