<svg width="24" height="24" viewBox="0 0 24 24" fill="none" xmlns="http://www.w3.org/2000/svg">
<g clip-path="url(#clip0_221_17535)">
<path d="M11.8192 1.25049C9.51023 1.25049 7.70126 1.25049 6.28926 1.44049C4.84525 1.63449 3.70525 2.04048 2.81025 2.93448C1.91524 3.82948 1.51022 4.9695 1.31622 6.4145C1.12622 7.8255 1.12622 9.6345 1.12622 11.9435V12.0575C1.12622 14.3665 1.12622 16.1755 1.31622 17.5875C1.51022 19.0315 1.91624 20.1715 2.81025 21.0665C3.70525 21.9615 4.84523 22.3665 6.29023 22.5605C7.70124 22.7505 9.51023 22.7505 11.8192 22.7505H11.9333C14.2423 22.7505 16.0513 22.7505 17.4633 22.5605C18.9073 22.3665 20.0473 21.9605 20.9423 21.0665C21.8373 20.1715 22.2423 19.0315 22.4363 17.5865C22.6263 16.1755 22.6263 14.3665 22.6263 12.0575V11.9435C22.6263 9.6345 22.6263 7.8255 22.4363 6.41349C22.2423 4.96949 21.8363 3.82948 20.9423 2.93448C20.0473 2.03948 18.9073 1.63449 17.4623 1.44049C16.0513 1.25049 14.2423 1.25049 11.9333 1.25049H11.8192ZM2.85724 17.7505H2.87622H20.8763H20.8943C20.7103 18.8155 20.3933 19.4925 19.8813 20.0065C19.3113 20.5755 18.5413 20.9025 17.2623 21.0745C15.9623 21.2485 14.2543 21.2505 11.8762 21.2505C9.49824 21.2505 7.79025 21.2485 6.49025 21.0745C5.21124 20.9025 4.44025 20.5745 3.87025 20.0055C3.35724 19.4915 3.04024 18.8155 2.85724 17.7505ZM21.0553 16.2505H2.69623C2.62723 15.1245 2.62622 13.7425 2.62622 12.0005C2.62622 9.62251 2.62825 7.91449 2.80225 6.61448C2.97425 5.33548 3.30222 4.56549 3.87122 3.99549C4.44122 3.42549 5.21124 3.09849 6.49025 2.92649C7.79025 2.75249 9.49824 2.75049 11.8762 2.75049C14.2543 2.75049 15.9623 2.75249 17.2623 2.92649C18.5413 3.09849 19.3123 3.42649 19.8823 3.99549C20.4513 4.56549 20.7783 5.33548 20.9503 6.61448C21.1243 7.91449 21.1263 9.62251 21.1263 12.0005C21.1263 13.7425 21.1243 15.1245 21.0553 16.2505ZM11.8762 6.2505C12.0742 6.2505 12.2653 6.3295 12.4063 6.4705C12.5473 6.6105 12.6262 6.8015 12.6262 7.0005V12.1905L14.3463 10.4705C14.4143 10.3965 14.4973 10.3375 14.5893 10.2965C14.6813 10.2555 14.7803 10.2335 14.8813 10.2315C14.9823 10.2305 15.0823 10.2485 15.1753 10.2865C15.2693 10.3245 15.3533 10.3805 15.4253 10.4515C15.4963 10.5225 15.5523 10.6075 15.5903 10.7005C15.6273 10.7945 15.6463 10.8945 15.6443 10.9945C15.6423 11.0955 15.6203 11.1945 15.5793 11.2865C15.5383 11.3785 15.4793 11.4615 15.4063 11.5305L12.4063 14.5305C12.2653 14.6705 12.0742 14.7495 11.8762 14.7495C11.6772 14.7495 11.4863 14.6705 11.3463 14.5305L8.34627 11.5305C8.27227 11.4615 8.21326 11.3785 8.17226 11.2865C8.13126 11.1945 8.10925 11.0955 8.10725 10.9945C8.10525 10.8945 8.12427 10.7945 8.16127 10.7005C8.19927 10.6075 8.25525 10.5225 8.32625 10.4515C8.39825 10.3805 8.48325 10.3245 8.57625 10.2865C8.66925 10.2485 8.76926 10.2305 8.87026 10.2315C8.97126 10.2335 9.07025 10.2555 9.16225 10.2965C9.25425 10.3375 9.33727 10.3965 9.40627 10.4705L11.1262 12.1905V7.0005C11.1262 6.8015 11.2052 6.6105 11.3452 6.4705C11.4862 6.3295 11.6772 6.2505 11.8762 6.2505Z" fill="black"/>
</g>
<defs>
<clipPath id="clip0_221_17535">
<rect width="24" height="24" fill="white"/>
</clipPath>
</defs>
</svg>
