<svg width="24" height="24" viewBox="0 0 24 24" fill="none" xmlns="http://www.w3.org/2000/svg">
<g clip-path="url(#clip0_221_17518)">
<path fill-rule="evenodd" clip-rule="evenodd" d="M1.25 5C1.25 4.00544 1.64509 3.05161 2.34835 2.34835C3.05161 1.64509 4.00544 1.25 5 1.25H19C19.7871 1.25 20.5542 1.49764 21.1927 1.95784C21.8312 2.41804 22.3087 3.06748 22.5576 3.81415C22.8065 4.56082 22.8141 5.36687 22.5794 6.11813C22.3448 6.86939 21.8797 7.52777 21.25 8C21.8797 8.47224 22.3448 9.13061 22.5794 9.88187C22.8141 10.6331 22.8065 11.4392 22.5576 12.1859C22.3087 12.9325 21.8312 13.582 21.1927 14.0422C20.5542 14.5024 19.7871 14.75 19 14.75H12.75V16.354C13.666 16.613 14.387 17.334 14.646 18.25H22C22.1989 18.25 22.3897 18.329 22.5303 18.4697C22.671 18.6103 22.75 18.8011 22.75 19C22.75 19.1989 22.671 19.3897 22.5303 19.5303C22.3897 19.671 22.1989 19.75 22 19.75H14.647C14.4836 20.3259 14.1367 20.8328 13.6591 21.1938C13.1815 21.5547 12.5992 21.75 12.0005 21.75C11.4018 21.75 10.8195 21.5547 10.3419 21.1938C9.86428 20.8328 9.51744 20.3259 9.354 19.75H2C1.80109 19.75 1.61033 19.671 1.46967 19.5303C1.32902 19.3897 1.25 19.1989 1.25 19C1.25 18.8011 1.32902 18.6103 1.46967 18.4697C1.61033 18.329 1.80109 18.25 2 18.25H9.354C9.48284 17.7989 9.72454 17.388 10.0563 17.0563C10.388 16.7245 10.7989 16.4828 11.25 16.354V14.75H5C4.21294 14.75 3.44584 14.5024 2.80734 14.0422C2.16884 13.582 1.69133 12.9325 1.44244 12.1859C1.19355 11.4392 1.1859 10.6331 1.42058 9.88187C1.65525 9.13061 2.12036 8.47224 2.75 8C2.28369 7.65124 1.90526 7.19841 1.64484 6.67758C1.38443 6.15675 1.24922 5.58231 1.25 5ZM5 7.25C4.40327 7.25 3.83097 7.01295 3.40901 6.59099C2.98706 6.16903 2.75 5.59674 2.75 5C2.75 4.40326 2.98706 3.83097 3.40901 3.40901C3.83097 2.98705 4.40327 2.75 5 2.75H19C19.5967 2.75 20.169 2.98705 20.591 3.40901C21.013 3.83097 21.25 4.40326 21.25 5C21.25 5.59674 21.013 6.16903 20.591 6.59099C20.169 7.01295 19.5967 7.25 19 7.25H5ZM19 8.75H5C4.40327 8.75 3.83097 8.98705 3.40901 9.40901C2.98706 9.83097 2.75 10.4033 2.75 11C2.75 11.5967 2.98706 12.169 3.40901 12.591C3.83097 13.0129 4.40327 13.25 5 13.25H19C19.5967 13.25 20.169 13.0129 20.591 12.591C21.013 12.169 21.25 11.5967 21.25 11C21.25 10.4033 21.013 9.83097 20.591 9.40901C20.169 8.98705 19.5967 8.75 19 8.75ZM12.25 5C12.25 4.80109 12.329 4.61032 12.4697 4.46967C12.6103 4.32902 12.8011 4.25 13 4.25H19C19.1989 4.25 19.3897 4.32902 19.5303 4.46967C19.671 4.61032 19.75 4.80109 19.75 5C19.75 5.19891 19.671 5.38968 19.5303 5.53033C19.3897 5.67098 19.1989 5.75 19 5.75H13C12.8011 5.75 12.6103 5.67098 12.4697 5.53033C12.329 5.38968 12.25 5.19891 12.25 5ZM12.25 11C12.25 10.8011 12.329 10.6103 12.4697 10.4697C12.6103 10.329 12.8011 10.25 13 10.25H19C19.1989 10.25 19.3897 10.329 19.5303 10.4697C19.671 10.6103 19.75 10.8011 19.75 11C19.75 11.1989 19.671 11.3897 19.5303 11.5303C19.3897 11.671 19.1989 11.75 19 11.75H13C12.8011 11.75 12.6103 11.671 12.4697 11.5303C12.329 11.3897 12.25 11.1989 12.25 11ZM12 17.75C11.8359 17.75 11.6733 17.7823 11.5216 17.8452C11.37 17.908 11.2322 18 11.1161 18.1161C11 18.2322 10.908 18.37 10.8452 18.5216C10.7823 18.6733 10.75 18.8358 10.75 19C10.75 19.1642 10.7823 19.3267 10.8452 19.4784C10.908 19.63 11 19.7678 11.1161 19.8839C11.2322 20 11.37 20.092 11.5216 20.1549C11.6733 20.2177 11.8359 20.25 12 20.25C12.3315 20.25 12.6495 20.1183 12.8839 19.8839C13.1183 19.6495 13.25 19.3315 13.25 19C13.25 18.6685 13.1183 18.3505 12.8839 18.1161C12.6495 17.8817 12.3315 17.75 12 17.75Z" fill="black"/>
<path d="M7 5C7 5.26522 6.89464 5.51957 6.70711 5.70711C6.51957 5.89464 6.26522 6 6 6C5.73478 6 5.48043 5.89464 5.29289 5.70711C5.10536 5.51957 5 5.26522 5 5C5 4.73478 5.10536 4.48043 5.29289 4.29289C5.48043 4.10536 5.73478 4 6 4C6.26522 4 6.51957 4.10536 6.70711 4.29289C6.89464 4.48043 7 4.73478 7 5ZM7 11C7 11.2652 6.89464 11.5196 6.70711 11.7071C6.51957 11.8946 6.26522 12 6 12C5.73478 12 5.48043 11.8946 5.29289 11.7071C5.10536 11.5196 5 11.2652 5 11C5 10.7348 5.10536 10.4804 5.29289 10.2929C5.48043 10.1054 5.73478 10 6 10C6.26522 10 6.51957 10.1054 6.70711 10.2929C6.89464 10.4804 7 10.7348 7 11Z" fill="black"/>
</g>
<defs>
<clipPath id="clip0_221_17518">
<rect width="24" height="24" fill="white"/>
</clipPath>
</defs>
</svg>
