<svg width="24" height="24" viewBox="0 0 24 24" fill="none" xmlns="http://www.w3.org/2000/svg">
<g clip-path="url(#clip0_221_17668)">
<path fill-rule="evenodd" clip-rule="evenodd" d="M12.25 2.834C11.79 2.756 11.162 2.75 10.03 2.75C8.113 2.75 6.75 2.752 5.718 2.89C4.706 3.025 4.125 3.28 3.702 3.702C3.279 4.124 3.025 4.705 2.89 5.711C2.752 6.739 2.75 8.093 2.75 10.001V14.001C2.75 15.907 2.752 17.261 2.89 18.289C3.025 19.295 3.279 19.875 3.702 20.299C4.125 20.721 4.705 20.975 5.711 21.11C6.739 21.249 8.093 21.25 10 21.25H14C15.907 21.25 17.262 21.248 18.29 21.11C19.295 20.975 19.875 20.721 20.298 20.298C20.721 19.875 20.975 19.295 21.11 18.289C21.248 17.262 21.25 15.907 21.25 14V13.563C21.25 12.027 21.24 11.299 21.076 10.75H17.946C16.813 10.75 15.888 10.75 15.156 10.652C14.393 10.549 13.731 10.327 13.202 9.798C12.673 9.269 12.451 8.608 12.348 7.843C12.25 7.113 12.25 6.187 12.25 5.053V2.834ZM13.75 3.61V5C13.75 6.2 13.752 7.024 13.835 7.643C13.915 8.241 14.059 8.534 14.263 8.737C14.467 8.94 14.759 9.085 15.357 9.165C15.976 9.248 16.8 9.25 18 9.25H20.02C19.6362 8.88462 19.2462 8.5259 18.85 8.174L14.891 4.611C14.5176 4.26957 14.1371 3.93583 13.75 3.61ZM10.175 1.25C11.56 1.25 12.455 1.25 13.278 1.565C14.101 1.881 14.763 2.477 15.788 3.4L15.895 3.496L19.853 7.059L19.978 7.171C21.162 8.236 21.928 8.925 22.339 9.849C22.75 10.773 22.751 11.803 22.75 13.395V14.056C22.75 15.894 22.75 17.35 22.597 18.489C22.439 19.661 22.107 20.61 21.359 21.359C20.61 22.107 19.661 22.439 18.489 22.597C17.349 22.75 15.894 22.75 14.056 22.75H9.944C8.106 22.75 6.65 22.75 5.511 22.597C4.339 22.439 3.39 22.107 2.641 21.359C1.893 20.61 1.561 19.661 1.403 18.489C1.25 17.349 1.25 15.894 1.25 14.056V9.945C1.25 8.107 1.25 6.651 1.403 5.512C1.561 4.34 1.893 3.391 2.641 2.642C3.391 1.893 4.342 1.562 5.519 1.404C6.663 1.251 8.126 1.251 9.974 1.251H10.176" fill="black"/>
<path d="M14 15C14 14.8011 14.079 14.6103 14.2197 14.4697C14.3603 14.329 14.5511 14.25 14.75 14.25C14.9489 14.25 15.1397 14.329 15.2803 14.4697C15.421 14.6103 15.5 14.8011 15.5 15V18C15.5 18.1989 15.421 18.3897 15.2803 18.5303C15.1397 18.671 14.9489 18.75 14.75 18.75C14.5511 18.75 14.3603 18.671 14.2197 18.5303C14.079 18.3897 14 18.1989 14 18V15ZM10.5 11.25C10.3011 11.25 10.1103 11.329 9.96967 11.4697C9.82902 11.6103 9.75 11.8011 9.75 12V18C9.75 18.1989 9.82902 18.3897 9.96967 18.5303C10.1103 18.671 10.3011 18.75 10.5 18.75C10.6989 18.75 10.8897 18.671 11.0303 18.5303C11.171 18.3897 11.25 18.1989 11.25 18V12C11.25 11.8011 11.171 11.6103 11.0303 11.4697C10.8897 11.329 10.6989 11.25 10.5 11.25ZM5.5 9C5.5 8.80109 5.57902 8.61032 5.71967 8.46967C5.86032 8.32902 6.05109 8.25 6.25 8.25C6.44891 8.25 6.63968 8.32902 6.78033 8.46967C6.92098 8.61032 7 8.80109 7 9V18C7 18.1989 6.92098 18.3897 6.78033 18.5303C6.63968 18.671 6.44891 18.75 6.25 18.75C6.05109 18.75 5.86032 18.671 5.71967 18.5303C5.57902 18.3897 5.5 18.1989 5.5 18V9Z" fill="black"/>
</g>
<defs>
<clipPath id="clip0_221_17668">
<rect width="24" height="24" fill="white"/>
</clipPath>
</defs>
</svg>
