<svg width="24" height="24" viewBox="0 0 24 24" fill="none" xmlns="http://www.w3.org/2000/svg">
<g clip-path="url(#clip0_221_17657)">
<path fill-rule="evenodd" clip-rule="evenodd" d="M10.8753 1.34818H12.9833C14.1163 1.34818 15.7913 1.34818 16.5233 1.44618C17.2863 1.54918 17.9483 1.77118 18.4773 2.30018C19.0063 2.82918 19.2283 3.49018 19.3313 4.25518C19.3813 4.63118 19.4063 5.05818 19.4183 5.53818C20.625 6.00012 20.5933 6.04518 21.2883 6.73918C22.0363 7.48818 22.3683 8.43718 22.5263 9.60918C22.6793 10.7492 22.6793 12.2042 22.6793 14.0422V14.1552C22.6793 15.9922 22.6793 17.4482 22.5263 18.5872C22.3683 19.7602 22.0363 20.7092 21.2883 21.4572C20.5393 22.2052 19.5903 22.5372 18.4183 22.6952C17.2783 22.8482 15.8233 22.8482 13.9853 22.8482H9.87332C8.03532 22.8482 6.57932 22.8482 5.44032 22.6952C4.26832 22.5372 3.31932 22.2052 2.57032 21.4572C1.82232 20.7092 1.49032 19.7602 1.33232 18.5872C1.17932 17.4482 1.17932 15.9922 1.17932 14.1552V14.0422C1.17932 12.2042 1.17932 10.7482 1.33232 9.60918C1.49032 8.43718 1.82232 7.48818 2.57032 6.73918C3.26532 6.04518 3.375 6.00012 4.44032 5.53918C4.45232 5.05818 4.47732 4.63118 4.52732 4.25518C4.63032 3.49118 4.85232 2.82918 5.38132 2.30018C5.91032 1.77118 6.57132 1.54918 7.33632 1.44618C8.06632 1.34818 9.74132 1.34818 10.8753 1.34818ZM4.42932 7.06418C3.75 7.50012 3.93138 7.50012 3.63132 7.80018C3.20832 8.22318 2.95432 8.80318 2.81932 9.80918C2.68132 10.8372 2.67932 12.1912 2.67932 14.0992C2.67932 16.0052 2.68132 17.3592 2.81932 18.3872C2.95432 19.3932 3.20832 19.9732 3.63132 20.3972C4.05432 20.8192 4.63432 21.0732 5.64032 21.2082C6.66831 21.3472 8.02232 21.3482 9.92932 21.3482H13.9293C15.8363 21.3482 17.1913 21.3472 18.2193 21.2082C19.2243 21.0732 19.8043 20.8192 20.2273 20.3962C20.6503 19.9732 20.9043 19.3932 21.0393 18.3872C21.1773 17.3602 21.1793 16.0052 21.1793 14.0982C21.1793 12.1912 21.1773 10.8372 21.0393 9.80918C20.9043 8.80318 20.6503 8.22318 20.2273 7.80018C19.8733 7.44618 19.875 7.50012 19.4293 7.22312L19.4293 8.36118C19.4293 9.14718 19.4313 9.77018 19.1693 10.3282C18.9093 10.8852 18.4293 11.2832 17.8253 11.7862L17.7203 11.8742L16.9633 12.5042C16.0763 13.2442 14.6083 13.8422 13.9733 14.2502C13.3133 14.6752 12.6703 14.9432 11.9293 14.9432C11.1883 14.9432 10.5453 14.6742 9.88432 14.2502C9.25031 13.8422 7.78232 13.2432 6.89532 12.5052L6.13832 11.8742C6.10298 11.8435 6.06798 11.8142 6.03332 11.7862C5.42932 11.2832 4.95032 10.8862 4.68932 10.3282C4.42832 9.77018 4.42932 9.14818 4.42932 8.36118V7.06418ZM7.53632 2.93318C6.93832 3.01318 6.64632 3.15718 6.44232 3.36118C6.23832 3.56518 6.09432 3.85718 6.01432 4.45518C5.93131 5.07418 5.92932 5.89818 5.92932 7.09818V8.22518C5.92932 9.21518 5.94632 9.47518 6.04732 9.69118C6.14832 9.90818 6.33732 10.0872 7.09832 10.7212L7.81832 11.3212C8.75132 12.0982 10.1483 12.6362 10.6963 12.9882C11.2253 13.3282 11.5843 13.4432 11.9293 13.4432C12.2743 13.4432 12.6333 13.3292 13.1623 12.9882C13.7093 12.6362 15.1073 12.0982 16.0403 11.3212L16.7603 10.7212C17.5213 10.0872 17.7103 9.90818 17.8113 9.69118C17.9123 9.47518 17.9293 9.21618 17.9293 8.22518V7.09818C17.9293 5.89818 17.9273 5.07418 17.8443 4.45518C17.7643 3.85718 17.6203 3.56518 17.4163 3.36118C17.2123 3.15718 16.9203 3.01318 16.3223 2.93318C15.7033 2.85018 14.1293 2.84818 12.9293 2.84818H10.9293C9.72931 2.84818 8.15532 2.85018 7.53632 2.93318Z" fill="black"/>
<path fill-rule="evenodd" clip-rule="evenodd" d="M15.53 5.72007C15.6704 5.8607 15.7493 6.05132 15.7493 6.25007C15.7493 6.44882 15.6704 6.63945 15.53 6.78007L14.237 8.07307L14.213 8.09807C14.071 8.24587 13.92 8.3848 13.761 8.51407C13.5457 8.68969 13.2777 8.78794 13 8.79307C12.7222 8.78794 12.4542 8.68969 12.239 8.51407C12.0799 8.3848 11.929 8.24587 11.787 8.09807L11.763 8.07307L11.177 7.48707L11 7.31207L10.823 7.48707L9.52997 8.78007C9.46131 8.85376 9.37851 8.91286 9.28651 8.95385C9.19451 8.99485 9.0952 9.01689 8.99449 9.01866C8.89379 9.02044 8.79376 9.00192 8.70037 8.9642C8.60699 8.92647 8.52215 8.87033 8.45093 8.79911C8.37971 8.72789 8.32357 8.64306 8.28585 8.54967C8.24813 8.45628 8.2296 8.35625 8.23138 8.25555C8.23316 8.15485 8.2552 8.05553 8.29619 7.96353C8.33718 7.87153 8.39628 7.78873 8.46997 7.72007L9.76297 6.42707L9.78697 6.40207C9.93197 6.25707 10.089 6.10007 10.239 5.98607C10.4542 5.81045 10.7222 5.7122 11 5.70707C11.334 5.70707 11.585 5.85207 11.761 5.98607C11.911 6.10007 12.068 6.25707 12.213 6.40207L12.237 6.42707L12.823 7.01307L13 7.18807L13.177 7.01307L14.47 5.72007C14.6106 5.57962 14.8012 5.50073 15 5.50073C15.1987 5.50073 15.3893 5.57962 15.53 5.72007Z" fill="black"/>
</g>
<defs>
<clipPath id="clip0_221_17657">
<rect width="24" height="24" fill="white"/>
</clipPath>
</defs>
</svg>
