<svg width="24" height="24" viewBox="0 0 24 24" fill="none" xmlns="http://www.w3.org/2000/svg">
<g clip-path="url(#clip0_221_17545)">
<path d="M1.19653 12.0563C1.19653 14.3653 1.19654 16.1742 1.38654 17.5862C1.58054 19.0302 1.98653 20.1702 2.88053 21.0652C3.77553 21.9602 4.91554 22.3653 6.36055 22.5593C7.77155 22.7493 9.58055 22.7493 11.8896 22.7493H12.0036C14.3126 22.7493 16.1216 22.7493 17.5336 22.5593C18.9776 22.3653 20.1176 21.9592 21.0126 21.0652C21.9076 20.1702 22.3126 19.0303 22.5066 17.5853C22.6966 16.1743 22.6966 14.3653 22.6966 12.0563V11.9422C22.6966 9.63323 22.6966 7.8242 22.5066 6.4122C22.3126 4.96819 21.9066 3.82818 21.0126 2.93318C20.1176 2.03818 18.9776 1.63322 17.5326 1.43922C16.1216 1.24922 14.3126 1.24922 12.0036 1.24922H11.8896C9.58055 1.24922 7.77154 1.24922 6.35954 1.43922C4.91554 1.63322 3.77553 2.03918 2.88053 2.93318C1.98553 3.82818 1.58054 4.96823 1.38654 6.41323C1.19654 7.82423 1.19653 9.63323 1.19653 11.9422V12.0563ZM17.6966 21.0182V20.9993V2.99922V2.98122C18.7616 3.16522 19.4386 3.48222 19.9526 3.99422C20.5216 4.56422 20.8486 5.33418 21.0206 6.61318C21.1946 7.91319 21.1966 9.62124 21.1966 11.9992C21.1966 14.3772 21.1946 16.0852 21.0206 17.3852C20.8486 18.6642 20.5206 19.4352 19.9516 20.0052C19.4376 20.5182 18.7616 20.8352 17.6966 21.0182ZM16.1966 2.82021V21.1793C15.0706 21.2483 13.6886 21.2493 11.9466 21.2493C9.56855 21.2493 7.86053 21.2472 6.56053 21.0732C5.28153 20.9012 4.51154 20.5733 3.94153 20.0043C3.37153 19.4343 3.04453 18.6642 2.87253 17.3852C2.69853 16.0852 2.69654 14.3772 2.69654 11.9992C2.69654 9.62124 2.69853 7.91319 2.87253 6.61318C3.04453 5.33418 3.37253 4.56318 3.94153 3.99318C4.51154 3.42418 5.28153 3.09719 6.56053 2.92519C7.86053 2.75119 9.56855 2.74922 11.9466 2.74922C13.6886 2.74922 15.0706 2.75121 16.1966 2.82021ZM6.19654 11.9992C6.19654 11.8012 6.27555 11.6102 6.41655 11.4692C6.55655 11.3282 6.74755 11.2492 6.94655 11.2492H12.1366L10.4166 9.52921C10.3426 9.46121 10.2835 9.37822 10.2425 9.28622C10.2015 9.19422 10.1795 9.09523 10.1775 8.99423C10.1765 8.89323 10.1946 8.79322 10.2326 8.70022C10.2706 8.60622 10.3265 8.52222 10.3975 8.45022C10.4685 8.37922 10.5536 8.32318 10.6466 8.28518C10.7406 8.24818 10.8405 8.22923 10.9405 8.23123C11.0415 8.23323 11.1406 8.25523 11.2326 8.29623C11.3246 8.33723 11.4076 8.39621 11.4766 8.46921L14.4766 11.4692C14.6166 11.6102 14.6956 11.8012 14.6956 11.9992C14.6956 12.1982 14.6166 12.3892 14.4766 12.5292L11.4766 15.5292C11.4076 15.6032 11.3246 15.6622 11.2326 15.7032C11.1406 15.7442 11.0415 15.7662 10.9405 15.7682C10.8405 15.7702 10.7406 15.7512 10.6466 15.7142C10.5536 15.6762 10.4685 15.6202 10.3975 15.5492C10.3265 15.4772 10.2706 15.3922 10.2326 15.2992C10.1946 15.2062 10.1765 15.1062 10.1775 15.0052C10.1795 14.9042 10.2015 14.8052 10.2425 14.7132C10.2835 14.6212 10.3426 14.5382 10.4166 14.4692L12.1366 12.7492H6.94655C6.74755 12.7492 6.55655 12.6703 6.41655 12.5303C6.27555 12.3892 6.19654 12.1982 6.19654 11.9992Z" fill="black"/>
</g>
<defs>
<clipPath id="clip0_221_17545">
<rect width="24" height="24" fill="white"/>
</clipPath>
</defs>
</svg>
