<svg width="24" height="24" viewBox="0 0 24 24" fill="none" xmlns="http://www.w3.org/2000/svg">
<g clip-path="url(#clip0_221_17570)">
<path d="M6.16999 6.30906C6.66377 5.81494 7.25007 5.42296 7.89541 5.15552C8.54074 4.88809 9.23244 4.75044 9.93099 4.75044C10.6295 4.75044 11.3212 4.88809 11.9666 5.15552C12.6119 5.42296 13.1982 5.81494 13.692 6.30906C14.6899 7.30775 15.2504 8.66178 15.2504 10.0736C15.2504 11.4853 14.6899 12.8394 13.692 13.8381L12.262 15.2681C12.1253 15.4094 12.0496 15.5989 12.0512 15.7955C12.0528 15.9922 12.1316 16.1803 12.2706 16.3194C12.4096 16.4586 12.5977 16.5375 12.7943 16.5393C12.991 16.5411 13.1805 16.4656 13.322 16.3291L14.752 14.8981C16.0311 13.6181 16.7496 11.8826 16.7496 10.0731C16.7496 8.26353 16.0311 6.52805 14.752 5.24806C14.1189 4.61455 13.3672 4.112 12.5398 3.76912C11.7124 3.42624 10.8256 3.24976 9.92999 3.24976C9.03438 3.24976 8.14754 3.42624 7.32016 3.76912C6.49278 4.112 5.74107 4.61455 5.10799 5.24806L2.24799 8.11206C1.31808 9.04375 0.677396 10.2244 0.403118 11.5119C0.12884 12.7993 0.232671 14.1386 0.702101 15.3684C1.17153 16.5982 1.98654 17.6661 3.04893 18.4433C4.11132 19.2205 5.37579 19.674 6.68999 19.7491C6.78835 19.7545 6.88682 19.7405 6.97978 19.7079C7.07274 19.6753 7.15836 19.6247 7.23177 19.559C7.30517 19.4933 7.36492 19.4138 7.4076 19.325C7.45027 19.2362 7.47504 19.1399 7.48049 19.0416C7.48594 18.9432 7.47196 18.8447 7.43936 18.7518C7.40675 18.6588 7.35616 18.5732 7.29046 18.4998C7.22476 18.4264 7.14525 18.3666 7.05646 18.324C6.96767 18.2813 6.87135 18.2565 6.77299 18.2511C5.74761 18.1924 4.76108 17.8384 3.93223 17.2319C3.10338 16.6254 2.46756 15.7922 2.10139 14.8326C1.73521 13.8731 1.65429 12.8281 1.86837 11.8236C2.08245 10.8191 2.5824 9.89794 3.30799 9.17106L6.16999 6.30906Z" fill="black"/>
<path d="M17.31 4.25091C17.1114 4.2399 16.9165 4.30826 16.7683 4.44094C16.62 4.57362 16.5305 4.75976 16.5195 4.95841C16.5085 5.15705 16.5769 5.35194 16.7096 5.50018C16.8422 5.64843 17.0284 5.7379 17.227 5.74891C18.2524 5.8076 19.2389 6.16152 20.0678 6.76803C20.8966 7.37454 21.5325 8.20776 21.8986 9.16732C22.2648 10.1269 22.3457 11.1719 22.1317 12.1764C21.9176 13.1808 21.4176 14.102 20.692 14.8289L17.83 17.6899C17.3362 18.1842 16.7499 18.5763 16.1044 18.8438C15.459 19.1113 14.7672 19.249 14.0685 19.249C13.3699 19.249 12.678 19.1113 12.0326 18.8438C11.3872 18.5763 10.8008 18.1842 10.307 17.6899C9.30946 16.6913 8.74913 15.3374 8.74913 13.9259C8.74913 12.5144 9.30946 11.1606 10.307 10.1619L11.737 8.72991C11.8695 8.58773 11.9416 8.39968 11.9382 8.20538C11.9348 8.01108 11.8561 7.8257 11.7187 7.68828C11.5812 7.55087 11.3959 7.47216 11.2016 7.46873C11.0073 7.4653 10.8192 7.53743 10.677 7.66991L9.24703 9.10091C7.96795 10.3809 7.24945 12.1164 7.24945 13.9259C7.24945 15.7354 7.96795 17.4709 9.24703 18.7509C9.88011 19.3844 10.6318 19.887 11.4592 20.2299C12.2866 20.5727 13.1734 20.7492 14.069 20.7492C14.9646 20.7492 15.8515 20.5727 16.6789 20.2299C17.5062 19.887 18.258 19.3844 18.891 18.7509L21.751 15.8869C22.6806 14.9552 23.321 13.7747 23.5951 12.4875C23.8692 11.2003 23.7654 9.86129 23.2961 8.63172C22.8269 7.40215 22.0121 6.33446 20.9501 5.55722C19.888 4.77998 18.6239 4.32633 17.31 4.25091Z" fill="black"/>
</g>
<defs>
<clipPath id="clip0_221_17570">
<rect width="24" height="24" fill="white"/>
</clipPath>
</defs>
</svg>
