<svg width="24" height="24" viewBox="0 0 24 24" fill="none" xmlns="http://www.w3.org/2000/svg">
<g clip-path="url(#clip0_221_17674)">
<path fill-rule="evenodd" clip-rule="evenodd" d="M18.29 4.89002C17.262 4.75202 15.907 4.75002 14 4.75002H10C8.093 4.75002 6.739 4.75202 5.71 4.89002C4.705 5.02502 4.125 5.27902 3.702 5.70202C3.279 6.12502 3.025 6.70502 2.89 7.71002C2.752 8.73802 2.75 10.092 2.75 11.999C2.75 13.906 2.752 15.261 2.89 16.289C3.025 17.294 3.279 17.874 3.702 18.297C4.125 18.72 4.705 18.974 5.711 19.109C6.739 19.247 8.093 19.249 10 19.249H14C15.907 19.249 17.262 19.247 18.29 19.109C19.295 18.974 19.875 18.72 20.298 18.297C20.721 17.874 20.975 17.294 21.11 16.288C21.248 15.26 21.25 13.906 21.25 11.999C21.25 10.092 21.248 8.73802 21.11 7.70902C20.975 6.70402 20.721 6.12402 20.298 5.70102C19.875 5.27802 19.295 5.02402 18.289 4.88902M18.488 3.40202C19.66 3.56002 20.609 3.89202 21.358 4.64002C22.106 5.38902 22.438 6.33802 22.596 7.51002C22.749 8.65002 22.749 10.105 22.749 11.943V12.055C22.749 13.893 22.749 15.349 22.596 16.488C22.438 17.66 22.106 18.609 21.358 19.358C20.609 20.106 19.66 20.438 18.488 20.596C17.348 20.749 15.893 20.749 14.055 20.749H9.944C8.106 20.749 6.65 20.749 5.511 20.596C4.339 20.438 3.39 20.106 2.641 19.358C1.893 18.609 1.561 17.66 1.403 16.488C1.25 15.348 1.25 13.893 1.25 12.055V11.943C1.25 10.105 1.25 8.64902 1.403 7.51002C1.561 6.33802 1.893 5.38902 2.641 4.64002C3.39 3.89202 4.339 3.56002 5.511 3.40202C6.651 3.24902 8.106 3.24902 9.944 3.24902H14.056C15.894 3.24902 17.349 3.24902 18.488 3.40202ZM8.25 17C8.25 16.8011 8.32902 16.6103 8.46967 16.4697C8.61032 16.329 8.80109 16.25 9 16.25H15C15.1989 16.25 15.3897 16.329 15.5303 16.4697C15.671 16.6103 15.75 16.8011 15.75 17C15.75 17.1989 15.671 17.3897 15.5303 17.5304C15.3897 17.671 15.1989 17.75 15 17.75H9C8.80109 17.75 8.61032 17.671 8.46967 17.5304C8.32902 17.3897 8.25 17.1989 8.25 17Z" fill="black"/>
<path d="M13.75 9.25C13.75 9.664 14.086 10 14.5 10H15.19L13.177 12.013C13.1538 12.0363 13.1262 12.0548 13.0958 12.0674C13.0655 12.08 13.0329 12.0864 13 12.0864C12.9671 12.0864 12.9346 12.08 12.9042 12.0674C12.8738 12.0548 12.8463 12.0363 12.823 12.013L11.237 10.427C10.9089 10.0991 10.4639 9.91487 10 9.91487C9.53612 9.91487 9.09118 10.0991 8.76303 10.427L6.47003 12.72C6.39634 12.7887 6.33724 12.8715 6.29625 12.9635C6.25526 13.0555 6.23322 13.1548 6.23144 13.2555C6.22966 13.3562 6.24819 13.4562 6.28591 13.5496C6.32363 13.643 6.37977 13.7278 6.45099 13.799C6.52221 13.8703 6.60705 13.9264 6.70043 13.9641C6.79382 14.0018 6.89385 14.0204 6.99455 14.0186C7.09526 14.0168 7.19457 13.9948 7.28657 13.9538C7.37857 13.9128 7.46137 13.8537 7.53003 13.78L9.82303 11.487C9.84625 11.4637 9.87384 11.4452 9.90422 11.4326C9.93459 11.42 9.96715 11.4136 10 11.4136C10.0329 11.4136 10.0655 11.42 10.0958 11.4326C10.1262 11.4452 10.1538 11.4637 10.177 11.487L11.763 13.073C12.0912 13.4009 12.5361 13.5851 13 13.5851C13.4639 13.5851 13.9089 13.4009 14.237 13.073L16.25 11.061V11.75C16.25 11.9489 16.3291 12.1397 16.4697 12.2803C16.6104 12.421 16.8011 12.5 17 12.5C17.1989 12.5 17.3897 12.421 17.5304 12.2803C17.671 12.1397 17.75 11.9489 17.75 11.75V9.25C17.75 9.05109 17.671 8.86032 17.5304 8.71967C17.3897 8.57902 17.1989 8.5 17 8.5H14.5C14.3011 8.5 14.1104 8.57902 13.9697 8.71967C13.8291 8.86032 13.75 9.05109 13.75 9.25Z" fill="black"/>
</g>
<defs>
<clipPath id="clip0_221_17674">
<rect width="24" height="24" fill="white"/>
</clipPath>
</defs>
</svg>
