<svg width="24" height="24" viewBox="0 0 24 24" fill="none" xmlns="http://www.w3.org/2000/svg">
<g clip-path="url(#clip0_221_17663)">
<path fill-rule="evenodd" clip-rule="evenodd" d="M11.8409 1.25049C9.5319 1.25049 7.72287 1.25049 6.31086 1.44049C4.86686 1.63449 3.72685 2.04048 2.83185 2.93448C1.93685 3.82948 1.53183 4.9695 1.33783 6.4145C1.14783 7.8255 1.14789 9.6345 1.14789 11.9435V12.0575C1.14789 14.3665 1.14783 16.1755 1.33783 17.5875C1.53183 19.0315 1.93785 20.1715 2.83185 21.0665C3.72685 21.9615 4.8669 22.3665 6.3119 22.5605C7.7229 22.7505 9.5319 22.7505 11.8409 22.7505H11.9549C14.2639 22.7505 16.0729 22.7505 17.4849 22.5605C18.9289 22.3665 20.0689 21.9605 20.9639 21.0665C21.8589 20.1715 22.2639 19.0315 22.4579 17.5865C22.6479 16.1755 22.6479 14.3665 22.6479 12.0575V11.9435C22.6479 9.6345 22.6479 7.8255 22.4579 6.41349C22.2639 4.96949 21.8579 3.82948 20.9639 2.93448C20.0689 2.03948 18.9289 1.63449 17.4839 1.44049C16.0729 1.25049 14.2639 1.25049 11.9549 1.25049H11.8409ZM14.3939 21.2395V18.0005H9.40187V21.2395C10.1419 21.2505 10.9689 21.2505 11.8979 21.2505C12.8269 21.2505 13.6539 21.2505 14.3939 21.2395ZM7.8979 18.0005H2.92585C3.11485 18.9235 3.41985 19.5335 3.89185 20.0055C4.46185 20.5745 5.23285 20.9025 6.51185 21.0745C6.92885 21.1305 7.3879 21.1685 7.8979 21.1945V18.0005ZM15.8979 18.0005V21.1945C16.4069 21.1685 16.8669 21.1305 17.2839 21.0745C18.5629 20.9025 19.3329 20.5755 19.9029 20.0065C20.3739 19.5345 20.6799 18.9235 20.8689 18.0005H15.8979ZM7.8979 8.6125C7.7899 8.7385 7.66687 8.8865 7.52186 9.0605L2.72486 14.2165C2.70286 14.2425 2.67989 14.2665 2.65589 14.2885C2.66589 15.1265 2.68787 15.8575 2.73487 16.5005H7.8979V8.6125ZM9.40187 9.0125V16.5005H14.3939V13.8635C14.0929 13.7755 13.8449 13.6005 13.6359 13.4105C13.3599 13.1605 10.0639 9.80551 9.73488 9.41051L9.40187 9.0125ZM15.8979 16.5005H21.0609C21.1469 15.3305 21.1479 13.8735 21.1479 12.0005C21.1479 9.69751 21.1459 8.0225 20.9879 6.7375L16.8959 12.4105C16.5679 12.8055 16.2719 13.1605 15.9959 13.4105C15.9639 13.4395 15.9309 13.4675 15.8979 13.4955V16.5005ZM20.5039 4.85249C20.3429 4.51449 20.1449 4.23749 19.9039 3.99549C19.3339 3.42649 18.5629 3.09849 17.2839 2.92649C15.9839 2.75249 14.2759 2.75049 11.8979 2.75049C9.51991 2.75049 7.81186 2.75249 6.51185 2.92649C5.23285 3.09849 4.46289 3.42549 3.89289 3.99549C3.32389 4.56549 2.99586 5.33548 2.82386 6.61448C2.64986 7.91449 2.64789 9.62251 2.64789 12.0005V12.0995L6.40187 8.06252C6.72987 7.66751 7.02589 7.31251 7.30189 7.06251C7.60389 6.79051 7.98189 6.5485 8.48189 6.5485C8.98189 6.5485 9.36088 6.79051 9.66188 7.06251C9.93789 7.31251 10.2349 7.66751 10.5629 8.06252L10.8549 8.41249C11.2259 8.85749 14.4539 12.1275 14.6409 12.2975C14.6899 12.3455 14.7449 12.3865 14.8049 12.4195L14.8159 12.4245L14.8269 12.4195C14.8859 12.3865 14.9409 12.3455 14.9899 12.2975C15.1769 12.1285 15.4059 11.8575 15.7759 11.4125L20.5039 4.85249Z" fill="black"/>
</g>
<defs>
<clipPath id="clip0_221_17663">
<rect width="24" height="24" fill="white"/>
</clipPath>
</defs>
</svg>
