<svg width="24" height="24" viewBox="0 0 24 24" fill="none" xmlns="http://www.w3.org/2000/svg">
<g clip-path="url(#clip0_221_17513)">
<path fill-rule="evenodd" clip-rule="evenodd" d="M8.75 3.5C8.75 3.30109 8.82902 3.11032 8.96967 2.96967C9.11032 2.82902 9.30109 2.75 9.5 2.75H14.5C14.6989 2.75 14.8897 2.82902 15.0303 2.96967C15.171 3.11032 15.25 3.30109 15.25 3.5C15.25 3.69891 15.171 3.88968 15.0303 4.03033C14.8897 4.17098 14.6989 4.25 14.5 4.25H9.5C9.30109 4.25 9.11032 4.17098 8.96967 4.03033C8.82902 3.88968 8.75 3.69891 8.75 3.5ZM9.958 5.25H14.041C15.411 5.25 16.495 5.25 17.361 5.338C18.25 5.428 18.991 5.618 19.639 6.051C20.157 6.397 20.603 6.843 20.949 7.361C21.382 8.009 21.571 8.751 21.662 9.638C21.75 10.505 21.75 11.59 21.75 12.96V13.042C21.75 14.411 21.75 15.496 21.662 16.362C21.572 17.25 21.382 17.991 20.95 18.639C20.6023 19.1567 20.157 19.6016 19.639 19.949C18.991 20.383 18.249 20.572 17.362 20.662C16.496 20.75 15.411 20.75 14.042 20.75H9.958C8.589 20.75 7.504 20.75 6.638 20.662C5.75 20.572 5.009 20.382 4.361 19.95C3.84331 19.6023 3.39835 19.157 3.051 18.639C2.617 17.991 2.428 17.249 2.338 16.362C2.25 15.496 2.25 14.411 2.25 13.042V12.957C2.25 11.588 2.25 10.504 2.338 9.637C2.428 8.75 2.618 8.009 3.05 7.361C3.39746 6.84341 3.84241 6.39846 4.36 6.051C5.01 5.618 5.75 5.429 6.638 5.338C7.504 5.25 8.589 5.25 9.958 5.25ZM6.79 6.83C6.02 6.909 5.555 7.057 5.194 7.298C4.84016 7.53628 4.53588 7.8409 4.298 8.195C4.057 8.555 3.908 9.021 3.83 9.789C3.75 10.571 3.75 11.579 3.75 12.999V13C3.75 14.42 3.75 15.429 3.83 16.21C3.909 16.98 4.057 17.445 4.298 17.806C4.535 18.16 4.84 18.466 5.194 18.702C5.555 18.943 6.021 19.092 6.79 19.17C7.571 19.25 8.58 19.25 10 19.25H14C15.42 19.25 16.429 19.25 17.21 19.17C17.98 19.091 18.445 18.943 18.806 18.702C19.16 18.465 19.466 18.16 19.702 17.806C19.943 17.445 20.092 16.979 20.17 16.21C20.25 15.429 20.25 14.42 20.25 13C20.25 11.58 20.25 10.571 20.17 9.79C20.091 9.02 19.943 8.555 19.702 8.195C19.4638 7.8408 19.1592 7.53618 18.805 7.298C18.445 7.057 17.979 6.908 17.21 6.831C16.428 6.751 15.42 6.751 14 6.751H10C8.58 6.751 7.571 6.75 6.79 6.83ZM12 10.75C11.4033 10.75 10.831 10.9871 10.409 11.409C9.98705 11.831 9.75 12.4033 9.75 13C9.75 13.5967 9.98705 14.169 10.409 14.591C10.831 15.0129 11.4033 15.25 12 15.25C12.5967 15.25 13.169 15.0129 13.591 14.591C14.0129 14.169 14.25 13.5967 14.25 13C14.25 12.4033 14.0129 11.831 13.591 11.409C13.169 10.9871 12.5967 10.75 12 10.75ZM8.25 13C8.25 12.0054 8.64509 11.0516 9.34835 10.3483C10.0516 9.64509 11.0054 9.25 12 9.25C12.9946 9.25 13.9484 9.64509 14.6517 10.3483C15.3549 11.0516 15.75 12.0054 15.75 13C15.75 13.9946 15.3549 14.9484 14.6517 15.6517C13.9484 16.3549 12.9946 16.75 12 16.75C11.0054 16.75 10.0516 16.3549 9.34835 15.6517C8.64509 14.9484 8.25 13.9946 8.25 13ZM16.75 10C16.75 9.80109 16.829 9.61032 16.9697 9.46967C17.1103 9.32902 17.3011 9.25 17.5 9.25H18C18.1989 9.25 18.3897 9.32902 18.5303 9.46967C18.671 9.61032 18.75 9.80109 18.75 10C18.75 10.1989 18.671 10.3897 18.5303 10.5303C18.3897 10.671 18.1989 10.75 18 10.75H17.5C17.3011 10.75 17.1103 10.671 16.9697 10.5303C16.829 10.3897 16.75 10.1989 16.75 10Z" fill="black"/>
</g>
<defs>
<clipPath id="clip0_221_17513">
<rect width="24" height="24" fill="white"/>
</clipPath>
</defs>
</svg>
