<svg width="24" height="24" viewBox="0 0 24 24" fill="none" xmlns="http://www.w3.org/2000/svg">
<g clip-path="url(#clip0_221_17477)">
<path fill-rule="evenodd" clip-rule="evenodd" d="M19.6 4.39995C21.6 6.39995 22.7 9.09995 22.7 12C22.7 14.9 21.6 17.6 19.6 19.6C17.6 21.6 14.9 22.7999 12 22.7999C10.6 22.7999 9.2 22.5 7.9 21.9C6.6 21.4 5.4 20.6 4.4 19.6C3.4 18.6 2.6 17.4 2.1 16.1C1.5 14.8 1.2 13.4 1.2 12C1.2 10.6 1.5 9.19995 2.1 7.89995C2.6 6.59995 3.4 5.39995 4.4 4.39995C5.4 3.39995 6.6 2.59995 7.9 2.09995C9.2 1.49995 10.6 1.19995 12 1.19995C14.9 1.19995 17.6 2.39995 19.6 4.39995ZM9.2 3.19995C7.5 3.69995 5.9 4.79995 4.8 6.19995C3.6 7.69995 2.9 9.39995 2.8 11.2H7.3C7.3 10.1333 7.4 9.06662 7.6 7.99995C7.8 6.79995 8.1 5.59995 8.5 4.59995C8.7 4.13328 8.93333 3.66662 9.2 3.19995ZM12 2.69995C11.7 2.69995 11.4 2.89995 11 3.29995C10.6 3.69995 10.2333 4.33328 9.9 5.19995C9.5 6.06662 9.2 7.09995 9 8.29995C8.86666 9.23328 8.8 10.2 8.8 11.2H15.2C15.2 10.2666 15.1333 9.29995 15 8.29995C14.8 7.09995 14.5 6.06662 14.1 5.19995C13.7667 4.33328 13.4 3.69995 13 3.29995C12.6 2.89995 12.3 2.69995 12 2.69995ZM21.2 11.2C21 9.09995 20.1 6.99995 18.5 5.49995C17.5 4.39995 16.2 3.59995 14.8 3.19995C15.0667 3.66662 15.3 4.13328 15.5 4.59995C15.9 5.59995 16.2 6.79995 16.4 7.99995C16.6 9.06662 16.7 10.1333 16.7 11.2H21.2ZM15.3 12.7H8.8C8.8 13.7666 8.9 14.7666 9.1 15.7C9.3 16.9 9.56666 17.9333 9.9 18.7999C10.2333 19.6666 10.6 20.3 11 20.7C11.4 21.1 11.8 21.2 12 21.2C12.3 21.2 12.6 21.1 13 20.7C13.4 20.3 13.8 19.6666 14.2 18.7999C14.5333 17.9333 14.8 16.9 15 15.7C15.1333 14.7666 15.2333 13.7666 15.3 12.7ZM19.3 17.7999C20.4 16.2999 21.1 14.6 21.2 12.7H16.8C16.7333 13.8333 16.6333 14.9 16.5 15.9C16.2 17.2 15.9 18.4 15.5 19.4C15.3 19.9333 15.0667 20.4 14.8 20.7999C16.6 20.2999 18.1 19.1999 19.3 17.7999ZM9.2 20.7999C8.93333 20.3333 8.7 19.8666 8.5 19.4C8.1 18.4 7.8 17.2 7.6 15.9C7.4 14.9 7.3 13.8333 7.3 12.7H2.8C2.9 14.6 3.6 16.2999 4.8 17.7999C5.9 19.1999 7.5 20.2999 9.2 20.7999Z" fill="black"/>
</g>
<defs>
<clipPath id="clip0_221_17477">
<rect width="24" height="24" fill="white"/>
</clipPath>
</defs>
</svg>
