<svg width="24" height="24" viewBox="0 0 24 24" fill="none" xmlns="http://www.w3.org/2000/svg">
<g clip-path="url(#clip0_221_17508)">
<path d="M12.0751 1.32275C9.76509 1.32275 7.95506 1.32276 6.54506 1.51276C5.09505 1.70676 3.95507 2.11278 3.06507 3.00678C2.16507 3.90178 1.76506 5.04176 1.56506 6.48677C1.37506 7.89777 1.375 9.7068 1.375 12.0158V12.1298C1.375 14.4388 1.37506 16.2478 1.56506 17.6598C1.76506 19.1038 2.16507 20.2438 3.06507 21.1388C3.95507 22.0338 5.09505 22.4388 6.54506 22.6328C7.95506 22.8228 9.76509 22.8228 12.0751 22.8228H12.1851C14.4951 22.8228 16.3051 22.8228 17.7151 22.6328C19.1551 22.4388 20.2951 22.0328 21.1951 21.1388C22.0851 20.2438 22.4951 19.1038 22.6851 17.6588C22.8751 16.2478 22.875 14.4388 22.875 12.1298V12.0158C22.875 9.7068 22.8751 7.89779 22.6851 6.48579C22.4951 5.04179 22.0851 3.90178 21.1951 3.00678C20.2951 2.11178 19.1551 1.70676 17.7151 1.51276C16.3051 1.32276 14.4951 1.32275 12.1851 1.32275H12.0751ZM4.12501 4.06779C4.69501 3.49778 5.465 3.17078 6.74501 2.99878C8.04501 2.82478 9.74502 2.82276 12.125 2.82276C14.505 2.82276 16.215 2.82478 17.5151 2.99878C18.7951 3.17078 19.5651 3.49878 20.1351 4.06779C20.7051 4.63779 21.0251 5.40778 21.2051 6.68678C21.3751 7.98678 21.375 9.69477 21.375 12.0728C21.375 14.4508 21.3751 16.1588 21.2051 17.4588C21.0251 18.7378 20.7051 19.5088 20.1351 20.0788C19.5651 20.6478 18.7951 20.9748 17.5151 21.1468C16.215 21.3208 14.505 21.3228 12.125 21.3228C9.74502 21.3228 8.04501 21.3208 6.74501 21.1468C5.465 20.9748 4.69501 20.6468 4.12501 20.0778C3.555 19.5078 3.22506 18.7378 3.05506 17.4588C2.87506 16.1588 2.875 14.4508 2.875 12.0728C2.875 9.69477 2.87506 7.98678 3.05506 6.68678C3.22506 5.40778 3.555 4.63779 4.12501 4.06779ZM17.6051 13.7468C17.7551 13.8738 17.855 14.0568 17.875 14.2548C17.895 14.4528 17.8351 14.6498 17.7051 14.8028L15.875 16.9978C15.545 17.3918 15.2451 17.7478 14.9751 17.9978C14.6751 18.2678 14.2951 18.5108 13.7951 18.5108C13.2951 18.5108 12.915 18.2688 12.615 17.9968C12.335 17.7468 12.0451 17.3918 11.7151 16.9968L11.4251 16.6468C11.0551 16.2018 10.825 15.9308 10.635 15.7618C10.585 15.7138 10.5351 15.6728 10.4751 15.6398L10.4551 15.6348L10.4451 15.6398C10.3951 15.6728 10.3351 15.7138 10.2851 15.7618C10.0951 15.9318 9.87501 16.2018 9.49501 16.6468L7.70509 18.8028C7.57509 18.9498 7.39508 19.0408 7.19508 19.0568C7.00508 19.0718 6.80504 19.0108 6.65504 18.8848C6.50504 18.7598 6.41503 18.5808 6.39503 18.3858C6.37503 18.1908 6.42507 17.9958 6.55507 17.8428L8.38503 15.6478C8.70503 15.2538 9.00505 14.8978 9.28505 14.6478C9.58505 14.3778 9.9551 14.1348 10.4551 14.1348C10.9551 14.1348 11.335 14.3768 11.645 14.6488C11.915 14.8988 12.2151 15.2538 12.5451 15.6488L12.8351 15.9988C13.2051 16.4438 13.435 16.7148 13.625 16.8838C13.705 16.9618 13.7551 16.9938 13.7851 17.0058L13.7951 17.0108L13.8051 17.0058C13.8651 16.9718 13.9151 16.9308 13.9651 16.8838C14.1551 16.7138 14.385 16.4438 14.755 15.9988L16.5551 13.8428C16.6751 13.6898 16.8651 13.5938 17.0551 13.5758C17.2551 13.5578 17.4551 13.6198 17.6051 13.7468ZM8.37502 4.57276C7.38501 4.57276 6.42511 4.96778 5.72511 5.67079C5.02511 6.37479 4.62501 7.32877 4.62501 8.32277C4.62501 9.31777 5.02511 10.2718 5.72511 10.9748C6.42511 11.6778 7.38501 12.0728 8.37502 12.0728C9.37502 12.0728 10.325 11.6778 11.025 10.9748C11.735 10.2718 12.125 9.31777 12.125 8.32277C12.125 7.32877 11.735 6.37479 11.025 5.67079C10.325 4.96778 9.37502 4.57276 8.37502 4.57276ZM7.44508 6.27577C7.44508 6.29777 7.43507 6.31978 7.43507 6.34178V8.66878C7.43507 8.76978 7.45501 8.86979 7.49501 8.96279C7.53501 9.05579 7.59506 9.1398 7.67506 9.2098L8.99501 10.4858C8.79501 10.5428 8.58502 10.5728 8.37502 10.5728C7.78501 10.5728 7.20505 10.3358 6.78505 9.91378C6.36505 9.49178 6.12501 8.91977 6.12501 8.32277C6.12501 7.72577 6.36505 7.15376 6.78505 6.73176C6.97505 6.53976 7.20508 6.38677 7.44508 6.27577ZM8.91506 6.13679C9.30506 6.23379 9.67511 6.43876 9.96511 6.73176C10.3951 7.15376 10.625 7.72577 10.625 8.32277C10.625 8.77977 10.485 9.2218 10.235 9.5938L8.93508 8.34978V6.34178C8.93508 6.27178 8.92506 6.20279 8.91506 6.13679ZM15.125 7.57277C14.925 7.57277 14.7351 7.65177 14.5951 7.79277C14.4551 7.93277 14.375 8.12377 14.375 8.32277C14.375 8.52177 14.4551 8.71277 14.5951 8.85277C14.7351 8.99377 14.925 9.07277 15.125 9.07277H18.625C18.825 9.07277 19.0151 8.99377 19.1551 8.85277C19.2951 8.71277 19.375 8.52177 19.375 8.32277C19.375 8.12377 19.2951 7.93277 19.1551 7.79277C19.0151 7.65177 18.825 7.57277 18.625 7.57277H15.125Z" fill="black"/>
</g>
<defs>
<clipPath id="clip0_221_17508">
<rect width="24" height="24" fill="white"/>
</clipPath>
</defs>
</svg>
