<svg width="24" height="24" viewBox="0 0 24 24" fill="none" xmlns="http://www.w3.org/2000/svg">
<g clip-path="url(#clip0_221_17499)">
<path fill-rule="evenodd" clip-rule="evenodd" d="M6.25 14C5.25544 14 4.30161 14.3951 3.59835 15.0983C2.89509 15.8016 2.5 16.7554 2.5 17.75C2.5 18.7446 2.89509 19.6984 3.59835 20.4017C4.30161 21.1049 5.25544 21.5 6.25 21.5C7.24456 21.5 8.19839 21.1049 8.90165 20.4017C9.60491 19.6984 10 18.7446 10 17.75C10 16.7554 9.60491 15.8016 8.90165 15.0983C8.19839 14.3951 7.24456 14 6.25 14ZM4 17.75C4 17.1533 4.23705 16.581 4.65901 16.159C5.08097 15.7371 5.65326 15.5 6.25 15.5C6.84674 15.5 7.41903 15.7371 7.84099 16.159C8.26295 16.581 8.5 17.1533 8.5 17.75C8.5 18.3467 8.26295 18.919 7.84099 19.341C7.41903 19.7629 6.84674 20 6.25 20C5.65326 20 5.08097 19.7629 4.65901 19.341C4.23705 18.919 4 18.3467 4 17.75Z" fill="black"/>
<path fill-rule="evenodd" clip-rule="evenodd" d="M4.84682 9.52482C4.83784 9.1107 5.16627 8.76771 5.58038 8.75873C8.02057 8.70581 10.443 9.5712 12.2629 11.3911C14.1052 13.2334 14.9706 15.6913 14.893 18.1613C14.8799 18.5753 14.5338 18.9004 14.1198 18.8874C13.7058 18.8744 13.3807 18.5282 13.3937 18.1142C13.4594 16.0253 12.7292 13.9787 11.2023 12.4518C9.69426 10.9438 7.67726 10.2136 5.61291 10.2584C5.19879 10.2674 4.8558 9.93893 4.84682 9.52482Z" fill="black"/>
<path fill-rule="evenodd" clip-rule="evenodd" d="M3.70388 2.55956C3.71158 2.14542 4.05354 1.81593 4.46768 1.82362C7.3681 1.8775 11.7122 2.80388 15.38 5.42699C19.083 8.07524 22.0594 12.431 22.172 19.2197C22.1789 19.6338 21.8487 19.9751 21.4346 19.982C21.0204 19.9889 20.6791 19.6587 20.6722 19.2445C20.5679 12.9544 17.843 9.03259 14.5074 6.64708C11.1367 4.23641 7.10513 3.37287 4.43982 3.32336C4.02568 3.31567 3.69619 2.9737 3.70388 2.55956Z" fill="black"/>
</g>
<defs>
<clipPath id="clip0_221_17499">
<rect width="24" height="24" fill="white"/>
</clipPath>
</defs>
</svg>
