<svg width="24" height="24" viewBox="0 0 24 24" fill="none" xmlns="http://www.w3.org/2000/svg">
<g clip-path="url(#clip0_221_17482)">
<path fill-rule="evenodd" clip-rule="evenodd" d="M6.75 12C6.75086 11.2338 6.9194 10.4771 7.2438 9.783C7.5682 9.08889 8.04059 8.47419 8.62782 7.98206C9.21504 7.48992 9.90287 7.13228 10.643 6.93425C11.3832 6.73621 12.1577 6.70257 12.9122 6.8357C13.6667 6.96882 14.383 7.26549 15.0106 7.70486C15.6383 8.14423 16.1622 8.71566 16.5456 9.37903C16.9289 10.0424 17.1625 10.7817 17.2297 11.5449C17.297 12.3081 17.1964 13.0768 16.935 13.797C16.8877 13.914 16.8133 14.0182 16.718 14.101L16.638 14.176C16.5113 14.2928 16.3533 14.3701 16.1833 14.3985C16.0134 14.4269 15.8388 14.4052 15.681 14.3361C15.5232 14.2669 15.3889 14.1533 15.2946 14.0091C15.2003 13.8649 15.1501 13.6963 15.15 13.524V12C15.1499 11.2913 14.9109 10.6034 14.4715 10.0473C14.0321 9.49132 13.4181 9.09969 12.7286 8.93577C12.0392 8.77184 11.3146 8.8452 10.672 9.14397C10.0294 9.44275 9.50626 9.94949 9.18724 10.5823C8.86821 11.2151 8.77189 11.937 8.91385 12.6313C9.0558 13.3256 9.42773 13.9518 9.96953 14.4086C10.5113 14.8654 11.1913 15.1262 11.8997 15.1487C12.608 15.1713 13.3032 14.9544 13.873 14.533C14.0316 14.8735 14.2684 15.1718 14.5642 15.4035C14.8599 15.6353 15.2061 15.7939 15.5747 15.8665C15.9433 15.9391 16.3238 15.9236 16.6853 15.8214C17.0468 15.7191 17.3791 15.5329 17.655 15.278L17.735 15.204C17.985 14.974 18.211 14.676 18.344 14.311C18.8355 12.9622 18.8842 11.4918 18.483 10.1135C18.0817 8.73516 17.2515 7.52062 16.113 6.64631C14.9744 5.772 13.5867 5.28346 12.1515 5.25166C10.7163 5.21985 9.30833 5.64644 8.13212 6.46945C6.95592 7.29246 6.07273 8.46903 5.61085 9.82825C5.14898 11.1875 5.13247 12.6585 5.56372 14.0278C5.99498 15.397 6.85154 16.5931 8.00898 17.4423C9.16642 18.2915 10.5645 18.7496 12 18.75C12.199 18.75 12.3899 18.6709 12.5307 18.5302C12.6714 18.3894 12.7505 18.1985 12.7505 17.9995C12.7505 17.8005 12.6714 17.6096 12.5307 17.4688C12.3899 17.3281 12.199 17.249 12 17.249C10.6078 17.249 9.27258 16.696 8.28805 15.7117C7.30351 14.7273 6.75027 13.3922 6.75 12ZM12 10.35C12.2167 10.35 12.4312 10.3927 12.6314 10.4756C12.8316 10.5585 13.0135 10.6801 13.1667 10.8333C13.3199 10.9865 13.4415 11.1684 13.5244 11.3686C13.6073 11.5688 13.65 11.7833 13.65 12C13.65 12.2167 13.6073 12.4312 13.5244 12.6314C13.4415 12.8316 13.3199 13.0135 13.1667 13.1667C13.0135 13.3199 12.8316 13.4415 12.6314 13.5244C12.4312 13.6073 12.2167 13.65 12 13.65C11.5624 13.65 11.1427 13.4762 10.8333 13.1667C10.5238 12.8573 10.35 12.4376 10.35 12C10.35 11.5624 10.5238 11.1427 10.8333 10.8333C11.1427 10.5238 11.5624 10.35 12 10.35Z" fill="black"/>
<path fill-rule="evenodd" clip-rule="evenodd" d="M12.057 1.25H11.943C9.634 1.25 7.825 1.25 6.413 1.44C4.969 1.634 3.829 2.04 2.934 2.934C2.039 3.829 1.634 4.969 1.44 6.414C1.25 7.825 1.25 9.634 1.25 11.943V12.057C1.25 14.366 1.25 16.175 1.44 17.587C1.634 19.031 2.04 20.171 2.934 21.066C3.829 21.961 4.969 22.366 6.414 22.56C7.825 22.75 9.634 22.75 11.943 22.75H12.057C14.366 22.75 16.175 22.75 17.587 22.56C19.031 22.366 20.171 21.96 21.066 21.066C21.961 20.171 22.366 19.031 22.56 17.586C22.75 16.175 22.75 14.366 22.75 12.057V11.943C22.75 9.634 22.75 7.825 22.56 6.413C22.366 4.969 21.96 3.829 21.066 2.934C20.171 2.039 19.031 1.634 17.586 1.44C16.175 1.25 14.366 1.25 12.057 1.25ZM3.995 3.995C4.565 3.425 5.335 3.098 6.614 2.926C7.914 2.752 9.622 2.75 12 2.75C14.378 2.75 16.086 2.752 17.386 2.926C18.665 3.098 19.436 3.426 20.006 3.995C20.575 4.565 20.902 5.335 21.074 6.614C21.248 7.914 21.25 9.622 21.25 12C21.25 14.378 21.248 16.086 21.074 17.386C20.902 18.665 20.574 19.436 20.005 20.006C19.435 20.575 18.665 20.902 17.386 21.074C16.086 21.248 14.378 21.25 12 21.25C9.622 21.25 7.914 21.248 6.614 21.074C5.335 20.902 4.564 20.574 3.994 20.005C3.425 19.435 3.098 18.665 2.926 17.386C2.752 16.086 2.75 14.378 2.75 12C2.75 9.622 2.752 7.914 2.926 6.614C3.098 5.335 3.426 4.565 3.995 3.995Z" fill="black"/>
</g>
<defs>
<clipPath id="clip0_221_17482">
<rect width="24" height="24" fill="white"/>
</clipPath>
</defs>
</svg>
