<svg width="24" height="24" viewBox="0 0 24 24" fill="none" xmlns="http://www.w3.org/2000/svg">
<g clip-path="url(#clip0_221_17540)">
<path d="M12.1109 22.749C14.4199 22.749 16.2289 22.749 17.6409 22.559C19.0849 22.365 20.2249 21.959 21.1199 21.065C22.0149 20.17 22.42 19.03 22.614 17.585C22.804 16.174 22.804 14.365 22.804 12.056V11.942C22.804 9.63299 22.804 7.82398 22.614 6.41198C22.42 4.96798 22.0139 3.82797 21.1199 2.93297C20.2249 2.03797 19.0849 1.63298 17.6399 1.43898C16.2289 1.24898 14.4199 1.24897 12.1109 1.24897H11.9969C9.68792 1.24897 7.87889 1.24898 6.46688 1.43898C5.02288 1.63298 3.88287 2.03897 2.98787 2.93297C2.09287 3.82797 1.68791 4.96799 1.49391 6.41299C1.30391 7.82399 1.30391 9.63299 1.30391 11.942V12.056C1.30391 14.365 1.30391 16.174 1.49391 17.586C1.68791 19.03 2.09387 20.17 2.98787 21.065C3.88287 21.96 5.02292 22.365 6.46792 22.559C7.87892 22.749 9.68792 22.749 11.9969 22.749H12.1109ZM21.0729 6.24899H21.054L3.05391 6.24899H3.03591C3.21991 5.18398 3.53691 4.50697 4.04891 3.99297C4.61891 3.42397 5.38887 3.09697 6.66787 2.92497C7.96787 2.75097 9.67593 2.74898 12.0539 2.74898C14.4319 2.74898 16.1399 2.75097 17.4399 2.92497C18.7189 3.09697 19.4899 3.42497 20.0599 3.99398C20.5729 4.50798 20.8899 5.18398 21.0729 6.24899ZM2.87489 7.74899L21.2339 7.74899C21.3029 8.87499 21.304 10.257 21.304 11.999C21.304 14.377 21.3019 16.085 21.1279 17.385C20.9559 18.664 20.628 19.434 20.059 20.004C19.489 20.574 18.7189 20.901 17.4399 21.073C16.1399 21.247 14.4319 21.249 12.0539 21.249C9.67593 21.249 7.96787 21.247 6.66787 21.073C5.38887 20.901 4.61787 20.573 4.04787 20.004C3.47887 19.434 3.15187 18.664 2.97987 17.385C2.80587 16.085 2.80391 14.377 2.80391 11.999C2.80391 10.257 2.80589 8.87499 2.87489 7.74899ZM12.0539 17.749C11.8559 17.749 11.6649 17.67 11.5239 17.529C11.3829 17.389 11.3039 17.198 11.3039 16.999L11.3039 11.809L9.58389 13.529C9.51589 13.603 9.43291 13.662 9.34091 13.703C9.24891 13.744 9.14992 13.766 9.04892 13.768C8.94792 13.769 8.84791 13.751 8.75491 13.713C8.66091 13.675 8.57691 13.619 8.50491 13.548C8.43391 13.477 8.37787 13.392 8.33987 13.299C8.30287 13.205 8.28392 13.105 8.28592 13.005C8.28792 12.904 8.30992 12.805 8.35092 12.713C8.39192 12.621 8.45089 12.538 8.52389 12.469L11.5239 9.46899C11.6649 9.32899 11.8559 9.25 12.0539 9.25C12.2529 9.25 12.4439 9.32899 12.5839 9.46899L15.5839 12.469C15.6579 12.538 15.7169 12.621 15.7579 12.713C15.7989 12.805 15.8209 12.904 15.8229 13.005C15.8249 13.105 15.8059 13.205 15.7689 13.299C15.7309 13.392 15.6749 13.477 15.6039 13.548C15.5319 13.619 15.4469 13.675 15.3539 13.713C15.2609 13.751 15.1609 13.769 15.0599 13.768C14.9589 13.766 14.8599 13.744 14.7679 13.703C14.6759 13.662 14.5929 13.603 14.5239 13.529L12.8039 11.809L12.8039 16.999C12.8039 17.198 12.7249 17.389 12.5849 17.529C12.4439 17.67 12.2529 17.749 12.0539 17.749Z" fill="black"/>
</g>
<defs>
<clipPath id="clip0_221_17540">
<rect width="24" height="24" fill="white"/>
</clipPath>
</defs>
</svg>
