<svg width="24" height="24" viewBox="0 0 24 24" fill="none" xmlns="http://www.w3.org/2000/svg">
<path fill-rule="evenodd" clip-rule="evenodd" d="M12.0603 11.7871C11.5833 11.2141 11.2413 10.8201 10.9373 10.5911C10.6063 10.3411 10.2893 10.2351 9.94735 10.2351C9.60535 10.2351 9.28935 10.3411 8.95835 10.5911C8.65435 10.8201 8.31235 11.2141 7.83535 11.7871L6.03835 13.9431C5.77335 14.2611 5.81635 14.7341 6.13435 14.9991C6.45235 15.2641 6.92535 15.2211 7.19035 14.9031L8.98735 12.7471C9.25635 12.4241 9.47135 12.1651 9.66035 11.9711C9.72635 11.9051 9.78635 11.8471 9.84535 11.8011C9.88435 11.7711 9.90835 11.7351 9.94735 11.7351C9.98635 11.7351 10.0113 11.7711 10.0503 11.8011C10.1093 11.8471 10.1693 11.9051 10.2353 11.9711C10.4243 12.1651 10.6393 12.4241 10.9083 12.7471L11.1623 13.0521L11.1683 13.0591C11.6453 13.6321 11.9873 14.0261 12.2913 14.2551C12.6223 14.5051 12.9393 14.6111 13.2813 14.6111C13.6243 14.6111 13.9403 14.5041 14.2713 14.2551C14.5753 14.0261 14.9163 13.6321 15.3933 13.0591L17.1903 10.9031C17.4553 10.5851 17.4123 10.1121 17.0943 9.84706C16.7763 9.58206 16.3033 9.62506 16.0383 9.94306L14.2413 12.0991C13.9723 12.4221 13.7573 12.6811 13.5683 12.8751C13.5033 12.9421 13.4423 12.9991 13.3833 13.0451C13.3453 13.0751 13.3203 13.1111 13.2813 13.1111C13.2423 13.1111 13.2173 13.0751 13.1783 13.0451C13.1193 12.9991 13.0593 12.9411 12.9933 12.8751C12.8053 12.6821 12.5923 12.4251 12.3253 12.1041C12.3293 12.1101 12.3223 12.1011 12.3143 12.0921C12.2803 12.0501 12.1053 11.8411 12.0673 11.7961L12.0603 11.7871Z" fill="black"/>
</svg>
