<svg width="24" height="24" viewBox="0 0 24 24" fill="none" xmlns="http://www.w3.org/2000/svg">
<g clip-path="url(#clip0_221_17494)">
<path fill-rule="evenodd" clip-rule="evenodd" d="M12.05 2.25H11.95C11.286 2.25 10.713 2.25 10.254 2.312C9.763 2.378 9.291 2.527 8.909 2.909C8.527 3.291 8.378 3.763 8.312 4.254C8.25 4.713 8.25 5.286 8.25 5.951V8.378C8.00884 8.29399 7.75537 8.25073 7.5 8.25H4.5C4.20453 8.25 3.91194 8.3082 3.63896 8.42127C3.36598 8.53434 3.11794 8.70008 2.90901 8.90901C2.70008 9.11794 2.53434 9.36598 2.42127 9.63896C2.3082 9.91195 2.25 10.2045 2.25 10.5V22.25H2C1.80109 22.25 1.61032 22.329 1.46967 22.4697C1.32902 22.6103 1.25 22.8011 1.25 23C1.25 23.1989 1.32902 23.3897 1.46967 23.5303C1.61032 23.671 1.80109 23.75 2 23.75H22C22.1989 23.75 22.3897 23.671 22.5303 23.5303C22.671 23.3897 22.75 23.1989 22.75 23C22.75 22.8011 22.671 22.6103 22.5303 22.4697C22.3897 22.329 22.1989 22.25 22 22.25H21.75V15.5C21.75 14.9033 21.5129 14.331 21.091 13.909C20.669 13.4871 20.0967 13.25 19.5 13.25H16.5C16.236 13.2513 15.986 13.294 15.75 13.378V5.951C15.75 5.286 15.75 4.713 15.688 4.254C15.622 3.763 15.473 3.291 15.091 2.909C14.709 2.527 14.238 2.378 13.746 2.312C13.287 2.25 12.714 2.25 12.049 2.25M20.249 22.25V15.5C20.249 15.3011 20.17 15.1103 20.0293 14.9697C19.8887 14.829 19.6979 14.75 19.499 14.75H16.499C16.3001 14.75 16.1093 14.829 15.9687 14.9697C15.828 15.1103 15.749 15.3011 15.749 15.5V22.25H20.249ZM14.249 22.25V6C14.249 5.272 14.247 4.8 14.201 4.454C14.157 4.129 14.086 4.027 14.029 3.97C13.972 3.913 13.87 3.842 13.545 3.798C13.198 3.752 12.727 3.75 11.999 3.75C11.271 3.75 10.799 3.752 10.453 3.798C10.128 3.842 10.026 3.913 9.969 3.97C9.912 4.027 9.841 4.129 9.797 4.454C9.751 4.801 9.749 5.272 9.749 6V22.25H14.249ZM8.249 22.25V10.5C8.249 10.3011 8.16998 10.1103 8.02933 9.96967C7.88868 9.82902 7.69791 9.75 7.499 9.75H4.499C4.30009 9.75 4.10932 9.82902 3.96867 9.96967C3.82802 10.1103 3.749 10.3011 3.749 10.5V22.25H8.249Z" fill="black"/>
</g>
<defs>
<clipPath id="clip0_221_17494">
<rect width="24" height="24" fill="white"/>
</clipPath>
</defs>
</svg>
