<svg width="24" height="24" viewBox="0 0 24 24" fill="none" xmlns="http://www.w3.org/2000/svg">
<g clip-path="url(#clip0_221_18756)">
<path fill-rule="evenodd" clip-rule="evenodd" d="M21.974 7.25H2.02601C2.09201 5.229 2.32801 4.015 3.17201 3.172C4.34301 2 6.22901 2 10 2H14C17.771 2 19.657 2 20.828 3.172C21.672 4.015 21.908 5.229 21.974 7.25ZM2.00001 10C2.00001 9.558 2.00067 9.14133 2.00201 8.75H21.998C21.9993 9.14133 22 9.558 22 10V12C22 12.4413 21.9993 12.858 21.998 13.25H2.00201C2.00001 12.858 1.99934 12.4413 2.00001 12V10ZM21.974 14.75H2.02601C2.09201 16.771 2.32801 17.985 3.17201 18.828C3.47877 19.133 3.84598 19.3704 4.25001 19.525V22C4.25001 22.1989 4.32902 22.3897 4.46968 22.5303C4.61033 22.671 4.80109 22.75 5.00001 22.75C5.19892 22.75 5.38968 22.671 5.53034 22.5303C5.67099 22.3897 5.75001 22.1989 5.75001 22V19.871C6.82001 20 8.19401 20 10 20H14C15.806 20 17.18 20 18.25 19.871V22C18.25 22.1989 18.329 22.3897 18.4697 22.5303C18.6103 22.671 18.8011 22.75 19 22.75C19.1989 22.75 19.3897 22.671 19.5303 22.5303C19.671 22.3897 19.75 22.1989 19.75 22V19.525C20.154 19.3704 20.5212 19.133 20.828 18.828C21.672 17.985 21.908 16.771 21.974 14.75ZM13 17C13 17.2652 12.8946 17.5196 12.7071 17.7071C12.5196 17.8946 12.2652 18 12 18C11.7348 18 11.4804 17.8946 11.2929 17.7071C11.1054 17.5196 11 17.2652 11 17C11 16.7348 11.1054 16.4804 11.2929 16.2929C11.4804 16.1054 11.7348 16 12 16C12.2652 16 12.5196 16.1054 12.7071 16.2929C12.8946 16.4804 13 16.7348 13 17Z" fill="black"/>
</g>
<defs>
<clipPath id="clip0_221_18756">
<rect width="24" height="24" fill="white"/>
</clipPath>
</defs>
</svg>
