<svg width="24" height="24" viewBox="0 0 24 24" fill="none" xmlns="http://www.w3.org/2000/svg">
<path fill-rule="evenodd" clip-rule="evenodd" d="M6.14068 5.10936C6.12503 5.10844 6.10927 5.10797 6.09341 5.10797H2.05544C1.61513 5.10797 1.25 5.46881 1.25 5.91342V20.6015C1.25 21.0461 1.61513 21.4069 2.05544 21.4069H3.93481V21.8526C3.93481 22.2972 4.29995 22.658 4.74026 22.658C5.1913 22.658 5.5457 22.2972 5.5457 21.8526V21.4069H18.5294V21.8526C18.5294 22.2972 18.8946 22.658 19.3349 22.658C19.7752 22.658 20.1403 22.2972 20.1403 21.8526V21.4069H21.9446C22.3849 21.4069 22.75 21.0461 22.75 20.6015V5.92738C22.75 5.48529 22.3907 5.12775 21.9552 5.122V5.10936H17.7692C17.8318 5.19395 17.9024 5.27878 17.9817 5.36354C20.3229 7.87652 17.6274 10.2338 17.6274 10.2338C17.2945 10.5238 16.7789 10.4873 16.489 10.1501C16.199 9.81392 16.2421 9.30483 16.575 9.0138C16.575 9.0138 18.0355 7.782 16.8005 6.46322C16.3742 6.00783 16.0959 5.55105 15.9251 5.10936H14.397C14.4597 5.19395 14.53 5.27878 14.6093 5.36354C16.9505 7.87652 14.255 10.2338 14.255 10.2338C13.9221 10.5238 13.4065 10.4873 13.1166 10.1501C12.8266 9.81392 12.8696 9.30483 13.2026 9.0138C13.2026 9.0138 14.663 7.782 13.428 6.46322C13.0018 6.00783 12.7235 5.55105 12.5527 5.10936H10.7369C10.799 5.19395 10.869 5.27878 10.9476 5.36354C13.2995 7.87652 10.6039 10.2338 10.6039 10.2338C10.271 10.5238 9.75555 10.4873 9.46559 10.1501C9.17563 9.81392 9.2078 9.30483 9.55146 9.0138C9.55146 9.0138 11.012 7.782 9.77694 6.46322C9.3507 6.00783 9.07202 5.55105 8.90058 5.10936H6.14068ZM9.27221 17.8576V12.6383C9.27221 12.1937 9.6266 11.8329 10.0777 11.8329C10.518 11.8329 10.8831 12.1937 10.8831 12.6383V17.8576C10.8831 18.3022 10.518 18.6631 10.0777 18.6631C9.6266 18.6631 9.27221 18.3022 9.27221 17.8576ZM17.1012 17.8576V12.6383C17.1012 12.1937 17.4663 11.8329 17.9066 11.8329C18.3577 11.8329 18.712 12.1937 18.712 12.6383V17.8576C18.712 18.3022 18.3577 18.6631 17.9066 18.6631C17.4663 18.6631 17.1012 18.3022 17.1012 17.8576ZM14.5345 17.8576V12.6383C14.5345 12.1937 14.8996 11.8329 15.3399 11.8329C15.7802 11.8329 16.1454 12.1937 16.1454 12.6383V17.8576C16.1454 18.3022 15.7802 18.6631 15.3399 18.6631C14.8996 18.6631 14.5345 18.3022 14.5345 17.8576ZM11.8389 17.8576V12.6383C11.8389 12.1937 12.204 11.8329 12.6443 11.8329C13.0847 11.8329 13.4498 12.1937 13.4498 12.6383V17.8576C13.4498 18.3022 13.0847 18.6631 12.6443 18.6631C12.204 18.6631 11.8389 18.3022 11.8389 17.8576ZM6.30816 13.2516C6.30816 12.749 5.9001 12.3398 5.39535 12.3398C4.90135 12.3398 4.48254 12.749 4.48254 13.2516C4.48254 13.7552 4.90135 14.1633 5.39535 14.1633C5.9001 14.1633 6.30816 13.7552 6.30816 13.2516ZM6.30816 9.42945C6.30816 8.92578 5.9001 8.51769 5.39535 8.51769C4.90135 8.51769 4.48254 8.92578 4.48254 9.42945C4.48254 9.93205 4.90135 10.3412 5.39535 10.3412C5.9001 10.3412 6.30816 9.93205 6.30816 9.42945Z" fill="black"/>
</svg>
