<svg width="24" height="24" viewBox="0 0 24 24" fill="none" xmlns="http://www.w3.org/2000/svg">
<g clip-path="url(#clip0_221_18699)">
<path d="M6.99996 13V12C6.99996 11.2056 6.68485 10.4436 6.12375 9.88115C5.56266 9.31874 4.80139 9.00185 4.00696 9C4.01496 8.672 4.03396 8.434 4.07696 8.22C4.23128 7.44401 4.61225 6.73121 5.17171 6.17175C5.73116 5.6123 6.44396 5.23132 7.21996 5.077C7.60596 5 8.06996 5 8.99996 5H11.25V13H6.99996ZM12.75 13H17V12C17 11.2056 17.3151 10.4436 17.8762 9.88115C18.4373 9.31874 19.1985 9.00185 19.993 9C19.9918 8.73848 19.9684 8.47754 19.923 8.22C19.7686 7.44401 19.3877 6.73121 18.8282 6.17175C18.2688 5.6123 17.556 5.23132 16.78 5.077C16.394 5 15.93 5 15 5H12.75V13Z" fill="black"/>
<path d="M18.444 18H5.556C5.28473 17.9998 5.01434 17.9689 4.75 17.908V19C4.75 19.1989 4.67098 19.3897 4.53033 19.5303C4.38968 19.671 4.19891 19.75 4 19.75C3.80109 19.75 3.61032 19.671 3.46967 19.5303C3.32902 19.3897 3.25 19.1989 3.25 19V17.151C2.85781 16.8174 2.54287 16.4025 2.32702 15.9351C2.11118 15.4677 1.99959 14.9589 2 14.444V12C2 11.4696 2.21071 10.9609 2.58579 10.5858C2.96086 10.2107 3.46957 10 4 10C4.53043 10 5.03914 10.2107 5.41421 10.5858C5.78929 10.9609 6 11.4696 6 12V13.2C6 13.4122 6.08429 13.6157 6.23432 13.7657C6.38434 13.9157 6.58783 14 6.8 14H17.2C17.4122 14 17.6157 13.9157 17.7657 13.7657C17.9157 13.6157 18 13.4122 18 13.2V12C18 11.4696 18.2107 10.9609 18.5858 10.5858C18.9609 10.2107 19.4696 10 20 10C20.5304 10 21.0391 10.2107 21.4142 10.5858C21.7893 10.9609 22 11.4696 22 12V14.444C22.0004 14.9589 21.8888 15.4677 21.673 15.9351C21.4571 16.4025 21.1422 16.8174 20.75 17.151V19C20.75 19.1989 20.671 19.3897 20.5303 19.5303C20.3897 19.671 20.1989 19.75 20 19.75C19.8011 19.75 19.6103 19.671 19.4697 19.5303C19.329 19.3897 19.25 19.1989 19.25 19V17.908C18.9857 17.9689 18.7153 17.9998 18.444 18Z" fill="black"/>
</g>
<defs>
<clipPath id="clip0_221_18699">
<rect width="24" height="24" fill="white"/>
</clipPath>
</defs>
</svg>
