<svg width="24" height="24" viewBox="0 0 24 24" fill="none" xmlns="http://www.w3.org/2000/svg">
<path d="M15.4994 2.56147V5.15125H13.8695V5.13112H13.8765V3.37294H10.1328V10.5409H13.8765V9.36696H13.8695V9.35702H15.4994V10.5409H15.9429C16.3865 10.5409 16.7544 10.9044 16.7544 11.3524C16.7544 11.8003 16.3865 12.1638 15.9429 12.1638H7.89321C7.43879 12.1638 7.08174 11.8003 7.08174 11.3524C7.08174 10.9044 7.43879 10.5409 7.89321 10.5409H8.50987V2.56147C8.50987 2.11354 8.86692 1.75 9.32134 1.75H14.6879C15.1315 1.75 15.4994 2.11354 15.4994 2.56147Z" fill="black"/>
<path d="M13.8695 7.75702H15.4994V6.75125H13.8695V6.75406H13.8765V7.74402H13.8695V7.75702Z" fill="black"/>
<path fill-rule="evenodd" clip-rule="evenodd" d="M3.76372 12.4335L20.3477 12.3789C20.764 12.3852 21.093 12.7207 21.093 13.1333V13.9285L22.0236 14.6718C22.2725 14.8698 22.3806 15.1944 22.3048 15.5016C22.056 16.5014 21.6665 17.46 21.1364 18.3461C20.9741 18.6188 20.6711 18.7724 20.3466 18.7389L19.1673 18.6112C18.7453 19.149 18.2583 19.6359 17.7173 20.0643L17.8472 21.2468C17.8905 21.5617 17.739 21.869 17.4685 22.0324C16.5813 22.5625 15.6184 22.9607 14.623 23.215C14.32 23.2929 13.9954 23.1847 13.7898 22.938L13.0433 22.0118C12.3617 22.0908 11.6801 22.0918 10.9984 22.0161L10.2519 22.9455C10.0572 23.1933 9.73258 23.3026 9.41881 23.2258C8.42341 22.9748 7.46046 22.5798 6.57326 22.054C6.30277 21.8917 6.15131 21.5856 6.18377 21.2696L6.3136 20.087C5.77262 19.6607 5.28563 19.1749 4.85285 18.6404L3.67355 18.7714C3.35978 18.8071 3.05687 18.6545 2.89457 18.3819C2.36441 17.4979 1.96411 16.5414 1.70444 15.5428C1.62871 15.2355 1.73691 14.9099 1.98576 14.7108L2.9054 13.9642V13.1928C2.9054 12.7946 3.21921 12.4646 3.61953 12.4386C3.63036 12.4381 3.64116 12.4373 3.65197 12.4365C3.66277 12.4357 3.67357 12.4349 3.68438 12.4343C3.71086 12.4327 3.73735 12.4324 3.76372 12.4335ZM12.0048 16.9353C8.62908 16.9353 8.07728 14.2282 8.07728 14.2282C7.9799 13.7911 8.26115 13.3562 8.69394 13.2577C9.12672 13.1593 9.57035 13.4341 9.66773 13.8712C9.66773 13.8712 10.0573 15.3123 12.0048 15.3123C13.9307 15.3123 14.2877 13.8885 14.2877 13.8885C14.3851 13.4492 14.8071 13.1657 15.2507 13.2555C15.6835 13.3453 15.9755 13.7749 15.8782 14.2141C15.8782 14.2141 15.3913 16.9353 12.0048 16.9353Z" fill="black"/>
</svg>
