<svg width="24" height="24" viewBox="0 0 24 24" fill="none" xmlns="http://www.w3.org/2000/svg">
<g clip-path="url(#clip0_221_18663)">
<path d="M18.5 3H16C15.8674 3 15.7402 3.05268 15.6464 3.14645C15.5527 3.24021 15.5 3.36739 15.5 3.5V3.559L19 6.359V3.5C19 3.36739 18.9473 3.24021 18.8536 3.14645C18.7598 3.05268 18.6326 3 18.5 3Z" fill="black"/>
<path d="M10.75 9.5C10.75 9.16848 10.8817 8.85054 11.1161 8.61612C11.3505 8.3817 11.6685 8.25 12 8.25C12.3315 8.25 12.6495 8.3817 12.8839 8.61612C13.1183 8.85054 13.25 9.16848 13.25 9.5C13.25 9.83152 13.1183 10.1495 12.8839 10.3839C12.6495 10.6183 12.3315 10.75 12 10.75C11.6685 10.75 11.3505 10.6183 11.1161 10.3839C10.8817 10.1495 10.75 9.83152 10.75 9.5Z" fill="black"/>
<path fill-rule="evenodd" clip-rule="evenodd" d="M20.75 10.96L21.532 11.586C21.6877 11.7074 21.8849 11.7624 22.0809 11.7393C22.2769 11.7162 22.4559 11.6167 22.5791 11.4625C22.7022 11.3083 22.7596 11.1117 22.7388 10.9155C22.7181 10.7192 22.6207 10.539 22.468 10.414L14.343 3.91404C13.678 3.3819 12.8517 3.09198 12 3.09198C11.1483 3.09198 10.322 3.3819 9.657 3.91404L1.532 10.414C1.37658 10.5383 1.27689 10.7192 1.25486 10.917C1.23282 11.1147 1.29025 11.3131 1.4145 11.4685C1.53875 11.624 1.71966 11.7236 1.91741 11.7457C2.11517 11.7677 2.31358 11.7103 2.469 11.586L3.25 10.96V21.25H2C1.80109 21.25 1.61032 21.3291 1.46967 21.4697C1.32902 21.6104 1.25 21.8011 1.25 22C1.25 22.199 1.32902 22.3897 1.46967 22.5304C1.61032 22.671 1.80109 22.75 2 22.75H22C22.1989 22.75 22.3897 22.671 22.5303 22.5304C22.671 22.3897 22.75 22.199 22.75 22C22.75 21.8011 22.671 21.6104 22.5303 21.4697C22.3897 21.3291 22.1989 21.25 22 21.25H20.75V10.96ZM9.25 9.50004C9.25 8.77069 9.53973 8.07122 10.0555 7.55549C10.5712 7.03977 11.2707 6.75004 12 6.75004C12.7293 6.75004 13.4288 7.03977 13.9445 7.55549C14.4603 8.07122 14.75 8.77069 14.75 9.50004C14.75 10.2294 14.4603 10.9289 13.9445 11.4446C13.4288 11.9603 12.7293 12.25 12 12.25C11.2707 12.25 10.5712 11.9603 10.0555 11.4446C9.53973 10.9289 9.25 10.2294 9.25 9.50004ZM12.05 13.25C12.714 13.25 13.287 13.25 13.746 13.312C14.238 13.378 14.709 13.527 15.091 13.909C15.473 14.291 15.622 14.762 15.688 15.254C15.746 15.684 15.75 16.214 15.75 16.827V21.25H14.25V17C14.25 16.272 14.248 15.8 14.202 15.454C14.158 15.129 14.088 15.027 14.03 14.97C13.972 14.913 13.871 14.842 13.546 14.798C13.199 14.752 12.728 14.75 12 14.75C11.272 14.75 10.8 14.752 10.454 14.798C10.129 14.842 10.027 14.913 9.97 14.97C9.913 15.027 9.842 15.129 9.798 15.454C9.752 15.801 9.75 16.272 9.75 17V21.25H8.25V16.95C8.25 16.286 8.25 15.713 8.312 15.254C8.378 14.762 8.527 14.291 8.909 13.909C9.291 13.527 9.763 13.378 10.254 13.312C10.713 13.25 11.286 13.25 11.951 13.25H12.05Z" fill="black"/>
<path d="M10.75 9.5C10.75 9.16848 10.8817 8.85054 11.1161 8.61612C11.3505 8.3817 11.6685 8.25 12 8.25C12.3315 8.25 12.6495 8.3817 12.8839 8.61612C13.1183 8.85054 13.25 9.16848 13.25 9.5C13.25 9.83152 13.1183 10.1495 12.8839 10.3839C12.6495 10.6183 12.3315 10.75 12 10.75C11.6685 10.75 11.3505 10.6183 11.1161 10.3839C10.8817 10.1495 10.75 9.83152 10.75 9.5Z" fill="black"/>
</g>
<defs>
<clipPath id="clip0_221_18663">
<rect width="24" height="24" fill="white"/>
</clipPath>
</defs>
</svg>
