<svg width="24" height="24" viewBox="0 0 24 24" fill="none" xmlns="http://www.w3.org/2000/svg">
<path d="M13.8509 4.46492L13.8085 4.46389C13.5646 4.45116 13.3524 4.3239 13.2145 4.13404C13.1403 4.04282 13.0872 3.92615 13.066 3.77765V3.75008L13.0554 2.95243C13.0554 2.88773 13.0024 2.83577 12.9387 2.83577H3.49864C3.1274 2.83577 2.84102 3.12953 2.84102 3.49229V20.2171C2.84102 20.442 2.92598 20.6573 3.08508 20.8164C3.24419 20.9744 3.45627 21.0636 3.68962 21.0636H7.47619C7.91106 21.0636 8.2717 21.421 8.2717 21.8591C8.2717 22.2982 7.91106 22.6546 7.47619 22.6546H3.68962C3.0426 22.6546 2.41679 22.3978 1.9607 21.9407C1.50461 21.4835 1.25 20.863 1.25 20.2171V3.49229C1.25 2.25129 2.25764 1.24475 3.49864 1.24475H12.9387C13.8827 1.24475 14.6464 2.00949 14.6464 2.95243V3.65886C14.6464 4.30906 14.0418 4.43844 13.8933 4.46071L13.8509 4.46492Z" fill="black"/>
<path d="M19.0482 12.1156H16.0995L18.4225 14.884C18.5498 15.0389 18.7407 15.1312 18.9422 15.1386L20.2787 15.1831C21.4454 15.2213 22.3575 16.1844 22.3363 17.3448C22.3151 18.5147 21.3605 19.4502 20.1937 19.4428L18.8785 19.4332C18.1784 19.429 17.4996 19.2137 16.9269 18.8149L15.8237 18.0459C15.8131 18.0353 15.792 18.0363 15.7708 18.0459L14.6676 18.8297C14.604 18.8722 14.5722 18.94 14.5722 19.0122V20.5608C14.5722 21.1166 14.3495 21.649 13.9571 22.0415C13.5646 22.4339 13.0342 22.6546 12.4827 22.6546H12.3978C11.878 22.6546 11.3796 22.4456 11.0189 22.0744C10.6477 21.7021 10.4462 21.1993 10.4568 20.6774C10.4613 20.391 10.4658 20.0757 10.4704 19.7604C10.4764 19.3377 10.4825 18.9149 10.4886 18.5614C10.5098 17.7829 10.8174 17.0404 11.3795 16.4931L12.7054 15.181C12.8009 15.0781 12.8115 14.9127 12.716 14.8023L12.419 14.4491C12.3978 14.4269 12.366 14.4226 12.3448 14.4375C11.8993 14.7175 11.3902 15.0421 11.3902 15.0421C11.2629 15.1195 11.125 15.163 10.9765 15.1662L7.99591 15.2298C6.99887 15.251 6.15039 14.4831 6.07614 13.4828V13.3842C6.0019 12.3172 6.79746 11.388 7.85814 11.2989L9.6931 11.1451L14.0312 8.39262C14.4131 8.15503 14.8374 8.02885 15.2829 8.02885H19.0058C20.1195 8.02885 21.0317 8.91236 21.0636 10.025V10.0271C21.0848 10.5755 20.8832 11.107 20.5014 11.5005C20.1195 11.894 19.5892 12.1156 19.0482 12.1156Z" fill="black"/>
<path d="M7.11559 6.78147C7.11559 5.21484 8.38846 3.94313 9.95827 3.94313C11.5175 3.94313 12.7902 5.21484 12.7902 6.78147C12.7902 8.34809 11.5175 9.61987 9.95827 9.61987C8.38846 9.61987 7.11559 8.34809 7.11559 6.78147Z" fill="black"/>
<path d="M16.5238 4.72057C16.5238 4.64102 16.5451 4.56362 16.5663 4.49043C16.5981 4.38224 16.6617 4.28038 16.7465 4.19341L18.6452 2.17815C18.9422 1.85783 19.4407 1.84293 19.7696 2.14417C20.0878 2.44434 20.0983 2.94816 19.8013 3.26848L19.1649 3.94313H21.9545C22.4 3.94313 22.75 4.29952 22.75 4.73864C22.75 5.17776 22.4 5.53415 21.9545 5.53415H19.2074L19.8862 6.22569C20.1938 6.54071 20.1832 7.0445 19.865 7.35104C19.5574 7.65758 19.0482 7.65121 18.7406 7.33725L16.7465 5.29332C16.6723 5.2074 16.6087 5.10563 16.5663 4.9985V4.99526C16.5451 4.91889 16.5238 4.83618 16.5238 4.75133V4.72057Z" fill="black"/>
</svg>
