<svg width="24" height="24" viewBox="0 0 24 24" fill="none" xmlns="http://www.w3.org/2000/svg">
<path fill-rule="evenodd" clip-rule="evenodd" d="M14.145 11.8125L14.1674 11.7836H14.1651C14.7819 10.994 15.1494 10.0003 15.1494 8.92072C15.1494 7.82655 14.7719 6.82056 14.1399 6.02594H14.1423C13.7276 5.51442 13.2174 5.08982 12.6332 4.78603V2.45671H14.348C14.7953 2.45671 15.1468 2.09884 15.1468 1.65789C15.1468 1.21694 14.7953 0.85907 14.348 0.85907H6.63672C6.20003 0.85907 5.8379 1.21694 5.8379 1.65789C5.8379 2.09884 6.20003 2.45671 6.63672 2.45671H8.54328V4.69443C7.87227 5.00224 7.29703 5.46239 6.84969 6.03009H6.84704C6.21707 6.82406 5.84082 7.82845 5.84082 8.92072C5.84082 10.0003 6.20838 10.994 6.82517 11.7836H6.82263L6.82388 11.7848H6.82849C7.68057 12.8744 9.01188 13.5752 10.4924 13.5752C11.9708 13.5752 13.2922 12.8863 14.145 11.8125ZM11.0356 2.45671V4.29716C10.8545 4.27586 10.6841 4.26524 10.4924 4.26524C10.3752 4.26524 10.2581 4.26951 10.1409 4.27909V2.45671H11.0356Z" fill="black"/>
<path d="M5.04829 11.7848L5.04871 11.7836H5.04583C4.59562 10.9284 4.34082 9.95431 4.34082 8.92072C4.34082 7.87592 4.60117 6.89193 5.06054 6.03009H3.36693V1.65789C3.36693 1.21694 3.01545 0.85907 2.56811 0.85907C2.13142 0.85907 1.76929 1.21694 1.76929 1.65789V16.1815C1.76929 16.6225 2.13142 16.9803 2.56811 16.9803C3.01545 16.9803 3.36693 16.6225 3.36693 16.1815V11.7848H5.04829Z" fill="black"/>
<path d="M16.7125 11.7848H15.9445L15.9442 11.7836C16.3944 10.9284 16.6494 9.95431 16.6494 8.92072C16.6494 7.87592 16.3891 6.89193 15.9297 6.03009H17.6391C18.7362 6.03009 19.7906 6.46784 20.5681 7.24536C21.3456 8.02394 21.7824 9.07946 21.7824 10.1797V13.5912C21.7824 14.0322 21.4309 14.39 20.9835 14.39H17.5113C17.0746 14.39 16.7125 14.0322 16.7125 13.5912V11.7848Z" fill="black"/>
<path d="M16.5847 19.3928C17.0107 17.17 19.1836 15.2261 19.8653 15.7438V15.7481C19.9824 15.8343 21.761 17.2424 22.1764 19.3928C22.4427 20.8413 21.6865 21.5986 20.8664 21.9937C20.1634 22.3303 19.4072 22.3591 19.4072 22.3591L19.3327 22.358C19.2582 22.3538 18.7682 22.325 18.2356 22.1386C17.6818 21.9448 17.1066 21.5826 16.7871 20.9915C16.5741 20.5846 16.4569 20.0649 16.5847 19.3928Z" fill="black"/>
</svg>
