<svg width="24" height="24" viewBox="0 0 24 24" fill="none" xmlns="http://www.w3.org/2000/svg">
<path fill-rule="evenodd" clip-rule="evenodd" d="M18.0883 22.6176V10.0375C18.0883 9.82531 18.004 9.62183 17.8539 9.4718C17.7039 9.32177 17.5004 9.23749 17.2883 9.23749L6.86189 9.23751C6.42006 9.23751 6.06189 9.59569 6.06189 10.0375V22.6329C3.35173 22.1667 1.28784 19.8018 1.28784 16.9573V7.04276C1.28784 3.86378 3.8657 1.28375 7.04255 1.28375H17.0224C20.1993 1.28375 22.7878 3.86378 22.7878 7.04276V16.9573C22.7878 19.772 20.7585 22.1172 18.0883 22.6176ZM8.15506 6.25654L6.62541 8.07599C6.33661 8.41507 5.83394 8.45897 5.49166 8.17445C5.16006 7.88992 5.10662 7.38288 5.39542 7.04487L7.49189 4.55473C7.63094 4.38251 7.84491 4.27879 8.06954 4.26917C8.29417 4.25954 8.50803 4.3451 8.66847 4.50341L11.1073 6.94544C11.4282 7.25884 11.4282 7.7669 11.1073 8.0803C10.7971 8.39371 10.2943 8.39371 9.97341 8.0803L8.15506 6.25654ZM15.5785 6.37425L17.108 4.55473C17.3968 4.21565 17.8996 4.17181 18.2419 4.45634C18.5842 4.74087 18.6269 5.24789 18.3381 5.58696L16.2522 8.07599C16.1025 8.24821 15.8886 8.35199 15.664 8.36162C15.4394 8.37125 15.2254 8.28675 15.0649 8.12738L12.6262 5.68535C12.316 5.37194 12.316 4.86389 12.6262 4.55048C12.9364 4.23815 13.4498 4.23815 13.76 4.55048L15.5785 6.37425Z" fill="black"/>
<path d="M16.4883 22.7162V10.8375L12.8751 10.8375V22.7162H16.4883Z" fill="black"/>
<path d="M11.2751 22.7162V10.8375L7.66189 10.8375V22.7162H11.2751Z" fill="black"/>
</svg>
