<svg width="24" height="24" viewBox="0 0 24 24" fill="none" xmlns="http://www.w3.org/2000/svg">
<g clip-path="url(#clip0_221_18653)">
<path fill-rule="evenodd" clip-rule="evenodd" d="M15 2H17C18.886 2 19.828 2 20.414 2.586C21 3.172 21 4.114 21 6V21.25H22C22.1989 21.25 22.3897 21.329 22.5303 21.4697C22.671 21.6103 22.75 21.8011 22.75 22C22.75 22.1989 22.671 22.3897 22.5303 22.5303C22.3897 22.671 22.1989 22.75 22 22.75H2C1.80109 22.75 1.61032 22.671 1.46967 22.5303C1.32902 22.3897 1.25 22.1989 1.25 22C1.25 21.8011 1.32902 21.6103 1.46967 21.4697C1.61032 21.329 1.80109 21.25 2 21.25H3V9C3 7.114 3 6.172 3.586 5.586C4.172 5 5.114 5 7 5H11C12.886 5 13.828 5 14.414 5.586C15 6.172 15 7.114 15 9V21.25H16.5V8.91C16.5 8.045 16.5 7.251 16.413 6.606C16.318 5.895 16.093 5.143 15.475 4.526C14.857 3.907 14.105 3.682 13.395 3.586C12.758 3.501 11.977 3.5 11.126 3.5C11.21 3.113 11.351 2.82 11.586 2.586C12.172 2 13.114 2 15 2ZM5.25 8C5.25 7.80109 5.32902 7.61032 5.46967 7.46967C5.61032 7.32902 5.80109 7.25 6 7.25H12C12.1989 7.25 12.3897 7.32902 12.5303 7.46967C12.671 7.61032 12.75 7.80109 12.75 8C12.75 8.19891 12.671 8.38968 12.5303 8.53033C12.3897 8.67098 12.1989 8.75 12 8.75H6C5.80109 8.75 5.61032 8.67098 5.46967 8.53033C5.32902 8.38968 5.25 8.19891 5.25 8ZM5.25 11C5.25 10.8011 5.32902 10.6103 5.46967 10.4697C5.61032 10.329 5.80109 10.25 6 10.25H12C12.1989 10.25 12.3897 10.329 12.5303 10.4697C12.671 10.6103 12.75 10.8011 12.75 11C12.75 11.1989 12.671 11.3897 12.5303 11.5303C12.3897 11.671 12.1989 11.75 12 11.75H6C5.80109 11.75 5.61032 11.671 5.46967 11.5303C5.32902 11.3897 5.25 11.1989 5.25 11ZM5.25 14C5.25 13.8011 5.32902 13.6103 5.46967 13.4697C5.61032 13.329 5.80109 13.25 6 13.25H12C12.1989 13.25 12.3897 13.329 12.5303 13.4697C12.671 13.6103 12.75 13.8011 12.75 14C12.75 14.1989 12.671 14.3897 12.5303 14.5303C12.3897 14.671 12.1989 14.75 12 14.75H6C5.80109 14.75 5.61032 14.671 5.46967 14.5303C5.32902 14.3897 5.25 14.1989 5.25 14ZM9 18.25C9.19891 18.25 9.38968 18.329 9.53033 18.4697C9.67098 18.6103 9.75 18.8011 9.75 19V21.25H8.25V19C8.25 18.8011 8.32902 18.6103 8.46967 18.4697C8.61032 18.329 8.80109 18.25 9 18.25Z" fill="black"/>
</g>
<defs>
<clipPath id="clip0_221_18653">
<rect width="24" height="24" fill="white"/>
</clipPath>
</defs>
</svg>
