<svg width="24" height="24" viewBox="0 0 24 24" fill="none" xmlns="http://www.w3.org/2000/svg">
<g clip-path="url(#clip0_221_18772)">
<path d="M6.66699 3.151C5.88099 3.926 5.57699 5.099 4.96799 7.445L4.88399 7.769C4.05599 10.958 3.64199 12.552 4.39399 13.672C4.46865 13.784 4.55099 13.8903 4.64099 13.991C5.53599 15 7.18299 15 10.477 15H11.256V21.25H9.00599C8.80708 21.25 8.61631 21.329 8.47566 21.4697C8.33501 21.6103 8.25599 21.8011 8.25599 22C8.25599 22.1989 8.33501 22.3897 8.47566 22.5303C8.61631 22.671 8.80708 22.75 9.00599 22.75H15.006C15.2049 22.75 15.3957 22.671 15.5363 22.5303C15.677 22.3897 15.756 22.1989 15.756 22C15.756 21.8011 15.677 21.6103 15.5363 21.4697C15.3957 21.329 15.2049 21.25 15.006 21.25H12.756V15H13.536C14.856 15 15.91 15 16.759 14.935L16.756 15V17C16.756 17.1989 16.835 17.3897 16.9757 17.5303C17.1163 17.671 17.3071 17.75 17.506 17.75C17.7049 17.75 17.8957 17.671 18.0363 17.5303C18.177 17.3897 18.256 17.1989 18.256 17V14.682C18.724 14.532 19.086 14.313 19.372 13.991C19.462 13.891 19.5443 13.7843 19.619 13.671C20.371 12.551 19.957 10.958 19.129 7.769L19.045 7.445C18.436 5.099 18.132 3.926 17.345 3.151C17.1173 2.92648 16.8635 2.73008 16.589 2.566C15.64 2 14.429 2 12.007 2C9.58299 2 8.37199 2 7.42399 2.566C7.14916 2.73001 6.89501 2.92642 6.66699 3.151Z" fill="black"/>
</g>
<defs>
<clipPath id="clip0_221_18772">
<rect width="24" height="24" fill="white"/>
</clipPath>
</defs>
</svg>
