<svg width="24" height="24" viewBox="0 0 24 24" fill="none" xmlns="http://www.w3.org/2000/svg">
<g clip-path="url(#clip0_221_18687)">
<path d="M11.25 10.5V7.25H9.5C8.536 7.25 7.888 7.252 7.405 7.317C6.944 7.379 6.746 7.486 6.616 7.617C6.486 7.748 6.379 7.944 6.316 8.405C6.252 8.888 6.25 9.536 6.25 10.5H11.25ZM17.75 10.5C17.75 9.536 17.748 8.888 17.683 8.405C17.622 7.944 17.514 7.746 17.383 7.616C17.252 7.486 17.056 7.379 16.595 7.316C16.112 7.252 15.464 7.25 14.5 7.25H12.75V10.5H17.75Z" fill="black"/>
<path fill-rule="evenodd" clip-rule="evenodd" d="M13 4H11C7.229 4 5.343 4 4.172 5.172C3.149 6.194 3.019 7.76 3.002 10.649V12.267C2.61966 12.4871 2.32082 12.8274 2.152 13.235C2 13.602 2 14.068 2 15C2 15.932 2 16.398 2.152 16.765C2.25251 17.0078 2.3999 17.2284 2.58572 17.4143C2.77155 17.6001 2.99218 17.7475 3.235 17.848C3.487 17.952 3.785 17.985 4.25 17.995V20C4.25 20.1989 4.32902 20.3897 4.46967 20.5303C4.61032 20.671 4.80109 20.75 5 20.75C5.19891 20.75 5.38968 20.671 5.53033 20.5303C5.67098 20.3897 5.75 20.1989 5.75 20V18H18.25V20C18.25 20.1989 18.329 20.3897 18.4697 20.5303C18.6103 20.671 18.8011 20.75 19 20.75C19.1989 20.75 19.3897 20.671 19.5303 20.5303C19.671 20.3897 19.75 20.1989 19.75 20V17.995C20.214 17.985 20.513 17.952 20.765 17.848C21.0078 17.7475 21.2284 17.6001 21.4143 17.4143C21.6001 17.2284 21.7475 17.0078 21.848 16.765C22 16.398 22 15.932 22 15C22 14.068 22 13.602 21.848 13.235C21.6792 12.8274 21.3803 12.4871 20.998 12.267V10.649C20.981 7.76 20.851 6.194 19.828 5.172C18.658 4 16.772 4 13 4ZM19.25 12V10.448C19.25 9.55 19.25 8.8 19.17 8.206C19.086 7.578 18.9 7.011 18.445 6.556C17.989 6.1 17.422 5.914 16.795 5.83C16.2 5.75 15.45 5.75 14.552 5.75H9.448C8.55 5.75 7.8 5.75 7.206 5.83C6.578 5.914 6.011 6.1 5.556 6.555C5.1 7.011 4.914 7.578 4.83 8.205C4.75 8.8 4.75 9.55 4.75 10.448V12H19.25Z" fill="black"/>
</g>
<defs>
<clipPath id="clip0_221_18687">
<rect width="24" height="24" fill="white"/>
</clipPath>
</defs>
</svg>
