<svg width="24" height="24" viewBox="0 0 24 24" fill="none" xmlns="http://www.w3.org/2000/svg">
<path d="M9.35286 5.44443H12.9577L10.7626 10.9625C10.7303 11.0572 10.7087 11.1594 10.7087 11.2617V18.2992H8.22307V6.57002C8.22307 6.27195 8.34137 5.9857 8.55658 5.77479C8.76103 5.5628 9.05156 5.44443 9.35286 5.44443Z" fill="black"/>
<path d="M15.8201 17.1693L15.9169 12.0698H12.3228V18.2992H14.6687C15.2928 18.2992 15.8093 17.7966 15.8201 17.1693Z" fill="black"/>
<path d="M14.7009 5.44443H18.1874L16.2182 10.4557H12.6994L14.7009 5.44443Z" fill="black"/>
<path fill-rule="evenodd" clip-rule="evenodd" d="M22.75 3.85073C22.75 2.4131 21.5878 1.24554 20.1459 1.24554H3.85414C2.4122 1.24554 1.25 2.4131 1.25 3.85073V20.0628C1.25 21.5015 2.4122 22.6691 3.85414 22.6691H20.1459C21.5878 22.6691 22.75 21.5015 22.75 20.0628V3.85073ZM5.53289 19.0427C5.53289 18.538 5.12388 18.1291 4.61812 18.1291C4.11237 18.1291 3.70349 18.538 3.70349 19.0427C3.70349 19.5474 4.11237 19.9563 4.61812 19.9563C5.12388 19.9563 5.53289 19.5474 5.53289 19.0427ZM20.1567 19.0427C20.1567 18.538 19.7478 18.1291 19.242 18.1291C18.747 18.1291 18.3273 18.538 18.3273 19.0427C18.3273 19.5474 18.747 19.9563 19.242 19.9563C19.7478 19.9563 20.1567 19.5474 20.1567 19.0427ZM9.35286 3.83032H19.3711C19.6402 3.83032 19.8876 3.96268 20.0383 4.18328C20.1889 4.40387 20.2212 4.68468 20.1243 4.93326L17.6279 11.2864C17.6172 11.4037 17.5955 11.5156 17.5417 11.6157L17.4342 17.2015C17.4019 18.708 16.1752 19.9133 14.6687 19.9133H7.41601C6.96406 19.9133 6.60896 19.5517 6.60896 19.1062V6.57002C6.60896 5.84367 6.8995 5.14633 7.41601 4.63304C7.92177 4.11868 8.62113 3.83032 9.35286 3.83032ZM5.53289 4.74496C5.53289 4.24028 5.12388 3.83137 4.61812 3.83137C4.11237 3.83137 3.70349 4.24028 3.70349 4.74496C3.70349 5.24856 4.11237 5.65854 4.61812 5.65854C5.12388 5.65854 5.53289 5.24856 5.53289 4.74496Z" fill="black"/>
</svg>
