<svg width="24" height="24" viewBox="0 0 24 24" fill="none" xmlns="http://www.w3.org/2000/svg">
<g clip-path="url(#clip0_221_18777)">
<path d="M13.747 3.06204L10.154 3.04304C10.3323 2.72475 10.5927 2.46009 10.9081 2.27664C11.2234 2.0932 11.5822 1.99768 11.947 2.00004C12.3141 2.00249 12.6739 2.10203 12.9901 2.28856C13.3062 2.47508 13.5674 2.74194 13.747 3.06204ZM12.75 7.03404C13.2383 6.9083 13.6878 6.66344 14.0583 6.32139C14.4288 5.97935 14.7087 5.55078 14.873 5.07404C15.057 4.54004 14.578 4.06604 14.011 4.06304L9.89702 4.04204C9.32902 4.03904 8.85401 4.50804 9.04201 5.04504C9.21503 5.53544 9.5075 5.975 9.893 6.32401C10.2785 6.67302 10.7449 6.92049 11.25 7.04404V13.407C11.1268 13.2892 10.9976 13.1777 10.863 13.073L10.852 13.063L6.96501 10.286L6.88901 10.229C7.07305 9.76945 7.14544 9.27276 7.10024 8.77976C7.05504 8.28676 6.89355 7.81151 6.62901 7.39304C6.32402 6.91304 5.66101 6.99504 5.31101 7.44304L2.78001 10.685C2.43001 11.132 2.50601 11.802 3.04001 11.989C3.53987 12.1637 4.07658 12.2051 4.59733 12.1094C5.11808 12.0137 5.60494 11.784 6.01002 11.443L6.08001 11.496L9.95602 14.266C10.3558 14.5803 10.6798 14.9805 10.904 15.437C11.1282 15.8934 11.2468 16.3945 11.251 16.903V21.25H9.00001C8.8011 21.25 8.61034 21.3291 8.46969 21.4697C8.32903 21.6104 8.25001 21.8011 8.25001 22C8.25001 22.199 8.32903 22.3897 8.46969 22.5304C8.61034 22.671 8.8011 22.75 9.00001 22.75H15C15.1989 22.75 15.3897 22.671 15.5303 22.5304C15.671 22.3897 15.75 22.199 15.75 22C15.75 21.8011 15.671 21.6104 15.5303 21.4697C15.3897 21.3291 15.1989 21.25 15 21.25H12.75V16.937C12.7493 16.4229 12.8655 15.9154 13.0898 15.4528C13.3142 14.9902 13.6408 14.5848 14.045 14.267L17.921 11.497L18.052 11.397C18.4579 11.7549 18.9517 11.9984 19.4828 12.1024C20.0139 12.2065 20.5631 12.1673 21.074 11.989C21.608 11.802 21.684 11.132 21.334 10.684L18.802 7.44304C18.452 6.99504 17.789 6.91304 17.484 7.39304C17.226 7.80145 17.066 8.26404 17.0165 8.7446C16.9671 9.22517 17.0295 9.71065 17.199 10.163L17.035 10.286L13.148 13.064L13.136 13.073C13.0017 13.1777 12.8729 13.2892 12.75 13.407V7.03404ZM2.15701 9.85704L4.36901 7.02604C4.00875 6.96857 3.63966 7.00877 3.30021 7.14244C2.96076 7.27611 2.66337 7.49836 2.43901 7.78604C2.21362 8.07555 2.06881 8.41953 2.01928 8.78307C1.96976 9.14662 2.01727 9.51679 2.15701 9.85604M19.745 7.02604L21.956 9.85604C22.0958 9.51679 22.1433 9.14662 22.0937 8.78307C22.0442 8.41953 21.8994 8.07555 21.674 7.78604C21.4497 7.49836 21.1523 7.27611 20.8128 7.14244C20.4734 7.00877 20.1043 6.96857 19.744 7.02604" fill="black"/>
</g>
<defs>
<clipPath id="clip0_221_18777">
<rect width="24" height="24" fill="white"/>
</clipPath>
</defs>
</svg>
