<svg width="24" height="24" viewBox="0 0 24 24" fill="none" xmlns="http://www.w3.org/2000/svg">
<path d="M11.9169 3.00229C11.8523 3.00121 11.7867 3.00012 11.7211 3.00012C11.6716 3.00012 11.6231 3.00445 11.5758 3.01306C9.45485 3.11744 8.12478 3.8395 7.27898 4.65732C6.44688 5.46193 6.07088 6.38498 5.90184 7.02734H17.932C17.7629 6.38498 17.3869 5.46193 16.5537 4.65732C15.709 3.8395 14.379 3.11744 12.257 3.01306C12.2096 3.00445 12.1622 3.00012 12.1127 3.00012C12.0469 3.00012 11.9831 3.00118 11.9194 3.00225L11.9169 3.00229Z" fill="black"/>
<path fill-rule="evenodd" clip-rule="evenodd" d="M18.0699 8.6964L5.76279 8.71509V13.6278H18.0699V8.6964ZM14.1045 12.0237V10.6722C14.1045 10.2267 13.743 9.89214 13.2975 9.89214C12.852 9.89214 12.4904 10.2267 12.4904 10.6722V12.0237C12.4904 12.4692 12.852 12.8308 13.2975 12.8308C13.743 12.8308 14.1045 12.4692 14.1045 12.0237ZM11.4886 10.4925V11.8451C11.4886 12.2906 11.1271 12.6522 10.6816 12.6522C10.2361 12.6522 9.87451 12.2906 9.87451 11.8451V10.4925C9.87451 10.047 10.2361 9.71244 10.6816 9.71244C11.1271 9.71244 11.4886 10.047 11.4886 10.4925Z" fill="black"/>
<path fill-rule="evenodd" clip-rule="evenodd" d="M21.5833 15.293H2.51518V20.3099H2.05681C1.61132 20.3099 1.24976 20.6715 1.24976 21.117C1.24976 21.5625 1.61132 21.924 2.05681 21.924H21.9427C22.3882 21.924 22.7498 21.5625 22.7498 21.117C22.7498 20.6715 22.3882 20.3099 21.9427 20.3099H21.5833V15.293ZM14.1047 18.5419V17.1904C14.1047 16.7449 13.7433 16.4032 13.2978 16.4032C12.8523 16.4032 12.4905 16.7449 12.4905 17.1904V18.5419C12.4905 18.9874 12.8521 19.349 13.2976 19.349C13.7431 19.349 14.1047 18.9874 14.1047 18.5419ZM8.80821 17.1V18.4526C8.80821 18.8981 8.44665 19.2597 8.00115 19.2597C7.55565 19.2597 7.19409 18.8981 7.19409 18.4526V17.1C7.19409 16.6556 7.5559 16.3129 8.00139 16.3129C8.44689 16.3129 8.80821 16.6556 8.80821 17.1ZM16.7852 18.4526V17.1C16.7852 16.6556 16.4239 16.3129 15.9784 16.3129C15.5329 16.3129 15.1711 16.6556 15.1711 17.1V18.4526C15.1711 18.8981 15.5326 19.2597 15.9781 19.2597C16.4236 19.2597 16.7852 18.8981 16.7852 18.4526ZM11.4887 17.0107V18.3633C11.4887 18.8088 11.1272 19.1704 10.6817 19.1704C10.2362 19.1704 9.87463 18.8088 9.87463 18.3633V17.0107C9.87463 16.5652 10.2364 16.2235 10.6819 16.2235C11.1274 16.2235 11.4887 16.5652 11.4887 17.0107Z" fill="black"/>
</svg>
