<svg width="24" height="24" viewBox="0 0 24 24" fill="none" xmlns="http://www.w3.org/2000/svg">
<g clip-path="url(#clip0_221_18727)">
<path fill-rule="evenodd" clip-rule="evenodd" d="M3.464 3.464C2 4.93 2 7.286 2 12C2 16.714 2 19.071 3.464 20.535C4.93 22 7.286 22 12 22C16.714 22 19.071 22 20.535 20.535C22 19.072 22 16.714 22 12C22 7.286 22 4.929 20.535 3.464C19.072 2 16.714 2 12 2C7.286 2 4.929 2 3.464 3.464ZM17 12.667C17 16.933 13.444 18 11.667 18C10.11 18 7 16.933 7 12.667C7 10.81 8.063 9.633 8.956 9.04C9.364 8.769 9.872 8.942 9.898 9.431C9.956 10.502 10.781 11.362 11.421 10.501C12.005 9.713 12.294 8.643 12.294 8C12.294 7.053 13.252 6.452 14.001 7.032C15.459 8.162 17 10.056 17 12.667Z" fill="black"/>
</g>
<defs>
<clipPath id="clip0_221_18727">
<rect width="24" height="24" fill="white"/>
</clipPath>
</defs>
</svg>
