<svg width="24" height="24" viewBox="0 0 24 24" fill="none" xmlns="http://www.w3.org/2000/svg">
<path d="M19.7008 3.08154H8.19325L8.60269 2.55464C8.88284 2.20338 8.81818 1.69484 8.46262 1.42008C8.11782 1.14532 7.60058 1.20673 7.33121 1.55799L5.89821 3.39077C5.86589 3.43063 5.83361 3.47269 5.81206 3.51578V3.52006C5.75819 3.62781 5.72578 3.74743 5.72578 3.87565V3.90905C5.72578 4.0362 5.75819 4.15685 5.81206 4.26352V4.26997C5.83361 4.30768 5.8551 4.34433 5.88743 4.37881L7.32056 6.26551C7.58993 6.62 8.09626 6.68893 8.45183 6.41848C8.8074 6.14803 8.88285 5.64058 8.61348 5.28609L8.16089 4.69776H19.733L19.2806 5.28609C19.0112 5.64058 19.0758 6.14803 19.4314 6.41848C19.787 6.68893 20.2933 6.62 20.5627 6.26551L22.0066 4.37881C22.0282 4.34433 22.0496 4.30768 22.0712 4.26997V4.26352C22.1358 4.15685 22.1681 4.0362 22.1681 3.90905V3.87565C22.1681 3.74743 22.1358 3.62781 22.082 3.52006L22.0712 3.51578C22.0496 3.47269 22.0281 3.43063 21.9958 3.39077L20.5627 1.55799C20.2825 1.20673 19.7762 1.14532 19.4206 1.42008C19.0758 1.69484 19.0112 2.20338 19.2913 2.55464L19.7008 3.08154Z" fill="black"/>
<path d="M3.92647 5.94761H3.95883C4.08813 5.94977 4.2066 5.9821 4.31435 6.03705V6.03922C4.35745 6.06185 4.40054 6.0888 4.44364 6.12004L6.2753 7.55633C6.63087 7.83217 6.68475 8.34071 6.41538 8.69089C6.13524 9.04215 5.6289 9.10356 5.28411 8.8288L4.75615 8.41613V19.9268L5.28411 19.5142C5.6289 19.2394 6.13524 19.3008 6.41538 19.6521C6.68475 20.0022 6.63087 20.5109 6.2753 20.7867L4.44364 22.223C4.40054 22.2542 4.35745 22.2811 4.31435 22.3037V22.3059C4.2066 22.3609 4.08813 22.3932 3.95883 22.3953H3.92647C3.79717 22.3921 3.67857 22.3598 3.57082 22.3037L3.56003 22.2995L3.54224 22.2889C3.513 22.2717 3.479 22.2517 3.45231 22.2294L1.56672 20.7931C1.21116 20.5227 1.14649 20.0152 1.41586 19.6607C1.68523 19.3051 2.1917 19.2373 2.54727 19.5077L3.13993 19.956V8.38706L2.54727 8.83525C2.1917 9.10569 1.68523 9.03785 1.41586 8.68228C1.14649 8.32779 1.21116 7.82027 1.56672 7.54982L3.45231 6.11248C3.47577 6.09371 3.50489 6.07608 3.53145 6.06C3.54149 6.05392 3.55117 6.04806 3.56003 6.04244L3.57082 6.03922C3.67857 5.98319 3.79717 5.95084 3.92647 5.94761Z" fill="black"/>
<path d="M8.18047 20.0492C8.72827 21.5122 10.0853 22.5815 11.7076 22.7073V20.0492H8.18047Z" fill="black"/>
<path d="M13.3076 22.7197H17.1134V15.9544C17.1134 15.5126 17.4716 15.1544 17.9134 15.1544C18.3552 15.1544 18.7134 15.5126 18.7134 15.9544V17.009H22.75V12.7493H17.1834C16.7416 12.7493 16.3834 12.3911 16.3834 11.9493V7.94421H15.4754V15.9569C15.4754 16.3988 15.1173 16.7569 14.6754 16.7569H11.3234C10.8816 16.7569 10.5234 16.3988 10.5234 15.9569C10.5234 15.5151 10.8816 15.1569 11.3234 15.1569H13.8754V7.94421H12.0291C9.79617 7.94421 7.97238 9.73227 7.92483 11.9529H11.9243C12.3662 11.9529 12.7243 12.3111 12.7243 12.7529C12.7243 13.1947 12.3662 13.5529 11.9243 13.5529H7.92388V18.4492H12.5076C12.9494 18.4492 13.3076 18.8074 13.3076 19.2492V22.7197Z" fill="black"/>
<path d="M17.9834 7.94421V11.1493H22.6462C22.241 9.31657 20.6039 7.94421 18.6447 7.94421H17.9834Z" fill="black"/>
<path d="M22.75 18.609H18.7134V22.7191C20.9446 22.6824 22.75 20.8597 22.75 18.6209V18.609Z" fill="black"/>
</svg>
