<svg width="24" height="24" viewBox="0 0 24 24" fill="none" xmlns="http://www.w3.org/2000/svg">
<path d="M9.16496 17.0518V13.3579H8.08834V17.0518C8.08834 17.083 8.09914 17.1131 8.12067 17.139L8.62665 17.9346L9.14341 17.139C9.15417 17.1131 9.16496 17.083 9.16496 17.0518Z" fill="black"/>
<path d="M8.08834 12.0283V12.3889H9.16496V12.0283C9.16496 11.7333 8.9281 11.4943 8.62665 11.4943C8.33597 11.4943 8.08834 11.7333 8.08834 12.0283Z" fill="black"/>
<path d="M13.0623 18.2457V17.4749H14.3542C14.6018 17.4749 14.8064 17.2703 14.8064 17.0173C14.8064 16.7654 14.6018 16.5598 14.3542 16.5598H13.0623V15.4864H13.6759C13.9235 15.4864 14.1389 15.2818 14.1389 15.0288C14.1389 14.7769 13.9235 14.5713 13.6759 14.5713H13.0623V13.4623H14.3542C14.6018 13.4623 14.8064 13.2578 14.8064 13.0048C14.8064 12.7518 14.6018 12.5472 14.3542 12.5472H13.0623V11.813H15.6354V18.2457H13.0623Z" fill="black"/>
<path fill-rule="evenodd" clip-rule="evenodd" d="M20.6692 9.59049V21.1351H20.9921C21.4442 21.1351 21.7995 21.4968 21.7995 21.9425C21.7995 22.3883 21.4442 22.75 20.9921 22.75H2.87265C2.43124 22.75 2.06519 22.3883 2.06519 21.9425C2.06519 21.4968 2.43124 21.1351 2.87265 21.1351H3.0987V3.89627C3.0987 3.15125 3.48636 2.45791 4.12156 2.06817C4.75676 1.67736 5.55341 1.64507 6.22091 1.98097L8.77249 3.27615V2.05746C8.77249 1.61174 9.13854 1.25 9.57995 1.25C10.0321 1.25 10.3874 1.61174 10.3874 2.05746V4.09333L13.4557 5.64688C13.7249 5.78362 13.8972 6.06247 13.8972 6.36715V6.82792H17.9022C18.6343 6.82792 19.3341 7.1197 19.8617 7.63755C20.3785 8.1554 20.6692 8.85732 20.6692 9.59049ZM6.58105 12.0283C6.58105 10.9011 7.4962 9.98706 8.62665 9.98706C9.7571 9.98706 10.6722 10.9011 10.6722 12.0283V17.0518C10.6722 17.3715 10.5754 17.6849 10.4031 17.9529L9.58486 19.2276C9.3803 19.5549 9.01423 19.753 8.62665 19.753C8.23907 19.753 7.873 19.5549 7.66845 19.2276L6.85021 17.9529C6.67795 17.6849 6.58105 17.3715 6.58105 17.0518V12.0283ZM16.389 10.3057C16.8089 10.3057 17.1427 10.6427 17.1427 11.0593V18.9994C17.1427 19.415 16.8089 19.753 16.389 19.753H12.3087C11.8996 19.753 11.555 19.415 11.555 18.9994V11.0593C11.555 10.6427 11.8996 10.3057 12.3087 10.3057H16.389Z" fill="black"/>
</svg>
