<svg width="24" height="24" viewBox="0 0 24 24" fill="none" xmlns="http://www.w3.org/2000/svg">
<path fill-rule="evenodd" clip-rule="evenodd" d="M20.6692 21.1351V9.59049C20.6692 8.85732 20.3785 8.1554 19.8617 7.63755C19.3341 7.1197 18.6343 6.82792 17.9022 6.82792H13.8972V6.36715C13.8972 6.06247 13.7249 5.78362 13.4557 5.64688L10.3874 4.09333V2.05746C10.3874 1.61174 10.0321 1.25 9.57995 1.25C9.13854 1.25 8.77249 1.61174 8.77249 2.05746V3.27615L6.22091 1.98097C5.55341 1.64507 4.75676 1.67736 4.12156 2.06817C3.48636 2.45791 3.0987 3.15125 3.0987 3.89627V21.1351H2.87265C2.43124 21.1351 2.06519 21.4968 2.06519 21.9425C2.06519 22.3883 2.43124 22.75 2.87265 22.75H20.9921C21.4442 22.75 21.7995 22.3883 21.7995 21.9425C21.7995 21.4968 21.4442 21.1351 20.9921 21.1351H20.6692ZM11.9759 10.282C12.4707 10.282 12.8772 10.6886 12.8772 11.1834V13.8875H15.5813C16.0761 13.8875 16.4826 14.294 16.4826 14.7888C16.4826 15.2837 16.0761 15.6902 15.5813 15.6902H12.8772V18.3942C12.8772 18.8891 12.4707 19.2956 11.9759 19.2956C11.481 19.2956 11.0745 18.8891 11.0745 18.3942V15.6902H8.37047C7.87563 15.6902 7.46912 15.2837 7.46912 14.7888C7.46912 14.294 7.87563 13.8875 8.37047 13.8875H11.0745V11.1834C11.0745 10.6886 11.481 10.282 11.9759 10.282Z" fill="black"/>
</svg>
