<svg width="24" height="24" viewBox="0 0 24 24" fill="none" xmlns="http://www.w3.org/2000/svg">
<g clip-path="url(#clip0_221_18710)">
<path fill-rule="evenodd" clip-rule="evenodd" d="M2 9.75C2 9.308 2.00067 8.89133 2.002 8.5H11.25V19.75H10C8.194 19.75 6.82 19.75 5.75 19.621V21.75C5.75 21.9489 5.67098 22.1397 5.53033 22.2803C5.38968 22.421 5.19891 22.5 5 22.5C4.80109 22.5 4.61032 22.421 4.46967 22.2803C4.32902 22.1397 4.25 21.9489 4.25 21.75V19.275C3.84597 19.1204 3.47877 18.883 3.172 18.578C2 17.407 2 15.521 2 11.75V9.75ZM9 11C9.19891 11 9.38968 11.079 9.53033 11.2197C9.67098 11.3603 9.75 11.5511 9.75 11.75V14.75C9.75 14.9489 9.67098 15.1397 9.53033 15.2803C9.38968 15.421 9.19891 15.5 9 15.5C8.80109 15.5 8.61032 15.421 8.46967 15.2803C8.32902 15.1397 8.25 14.9489 8.25 14.75V11.75C8.25 11.5511 8.32902 11.3603 8.46967 11.2197C8.61032 11.079 8.80109 11 9 11Z" fill="black"/>
<path d="M21.974 7H2.026C2.092 4.979 2.328 3.765 3.172 2.922C4.343 1.75 6.229 1.75 10 1.75H14C17.771 1.75 19.657 1.75 20.828 2.922C21.672 3.765 21.908 4.979 21.974 7Z" fill="black"/>
<path fill-rule="evenodd" clip-rule="evenodd" d="M12.75 8.5H21.998C21.9993 8.89133 22 9.308 22 9.75V11.75C22 15.521 22 17.407 20.828 18.578C20.5212 18.883 20.154 19.1204 19.75 19.275V21.75C19.75 21.9489 19.671 22.1397 19.5303 22.2803C19.3897 22.421 19.1989 22.5 19 22.5C18.8011 22.5 18.6103 22.421 18.4697 22.2803C18.329 22.1397 18.25 21.9489 18.25 21.75V19.621C17.18 19.75 15.806 19.75 14 19.75H12.75V8.5ZM15 11C15.1989 11 15.3897 11.079 15.5303 11.2197C15.671 11.3603 15.75 11.5511 15.75 11.75V14.75C15.75 14.9489 15.671 15.1397 15.5303 15.2803C15.3897 15.421 15.1989 15.5 15 15.5C14.8011 15.5 14.6103 15.421 14.4697 15.2803C14.329 15.1397 14.25 14.9489 14.25 14.75V11.75C14.25 11.5511 14.329 11.3603 14.4697 11.2197C14.6103 11.079 14.8011 11 15 11Z" fill="black"/>
</g>
<defs>
<clipPath id="clip0_221_18710">
<rect width="24" height="24" fill="white"/>
</clipPath>
</defs>
</svg>
