<svg width="24" height="24" viewBox="0 0 24 24" fill="none" xmlns="http://www.w3.org/2000/svg">
<g clip-path="url(#clip0_221_18705)">
<path d="M7.402 4.5C7 5.196 7 6.13 7 8V11.027C7.43 11 7.914 11 8.435 11H15.565C16.085 11 16.57 11 17 11.027V8C17 6.13 17 5.196 16.598 4.5C16.3347 4.04398 15.956 3.66529 15.5 3.402C14.804 3 13.87 3 12 3C10.13 3 9.196 3 8.5 3.402C8.04398 3.66529 7.66529 4.04398 7.402 4.5ZM6.25 15.991C5.748 15.971 5.444 15.903 5.236 15.676C4.939 15.352 4.978 14.902 5.056 14.001C5.111 13.351 5.237 12.913 5.523 12.586C6.035 12 6.858 12 8.505 12H15.495C17.142 12 17.965 12 18.477 12.586C18.763 12.912 18.889 13.35 18.945 14.001C19.022 14.901 19.061 15.352 18.764 15.676C18.556 15.903 18.252 15.971 17.75 15.991V21C17.75 21.1989 17.671 21.3897 17.5303 21.5303C17.3897 21.671 17.1989 21.75 17 21.75C16.8011 21.75 16.6103 21.671 16.4697 21.5303C16.329 21.3897 16.25 21.1989 16.25 21V16H7.75V21C7.75 21.1989 7.67098 21.3897 7.53033 21.5303C7.38967 21.671 7.19891 21.75 7 21.75C6.80108 21.75 6.61032 21.671 6.46967 21.5303C6.32901 21.3897 6.25 21.1989 6.25 21V15.991Z" fill="black"/>
</g>
<defs>
<clipPath id="clip0_221_18705">
<rect width="24" height="24" fill="white"/>
</clipPath>
</defs>
</svg>
