<svg width="24" height="24" viewBox="0 0 24 24" fill="none" xmlns="http://www.w3.org/2000/svg">
<path d="M16.4158 9.64819V11.2985H14.698C14.2659 11.2985 13.9076 11.6526 13.9076 12.0889C13.9076 12.5252 14.2659 12.8793 14.698 12.8793H16.4158V13.9058H14.698C14.2659 13.9058 13.9076 14.2599 13.9076 14.6962C13.9076 15.1325 14.2659 15.4866 14.698 15.4866H16.4158V17.0906H12.7273V9.64819H16.4158Z" fill="black"/>
<path fill-rule="evenodd" clip-rule="evenodd" d="M1.54564 19.015C1.49295 19.2342 1.4718 19.4618 1.4718 19.6947C1.4718 21.52 2.95777 23.0028 4.78097 23.0028C5.29737 23.0028 5.78213 22.8847 6.21422 22.675H21.7378C22.1805 22.675 22.5282 22.322 22.5282 21.8846V5.5697C22.5282 5.1334 22.1805 4.7793 21.7378 4.7793H8.16398C8.1429 2.9677 6.66747 1.50281 4.85481 1.50281C3.03162 1.50281 1.55618 2.97294 1.54564 4.78875V19.015ZM6.49878 19.8918C6.27747 20.5894 5.62414 21.0942 4.85481 21.0942C3.89579 21.0942 3.12645 20.3207 3.12645 19.368V19.2067C3.33722 18.4901 4.00111 17.9674 4.78097 17.9674C5.73999 17.9674 6.50933 18.7409 6.50933 19.6947C6.50933 19.7611 6.50932 19.8275 6.49878 19.8918ZM6.58317 16.9167V4.81088C6.58317 3.85713 5.80329 3.08361 4.85481 3.08361C3.90633 3.08361 3.13699 3.84975 3.12645 4.79718V16.8313C3.61123 16.5478 4.18026 16.3866 4.78097 16.3866C5.44491 16.3866 6.06678 16.5816 6.58317 16.9167ZM10.746 17.0906H11.1464V8.85779C11.1464 8.42148 11.4942 8.06738 11.9368 8.06738H17.2062C17.6488 8.06738 17.9966 8.42148 17.9966 8.85779V17.0906H18.65C19.0821 17.0906 19.4404 17.4447 19.4404 17.881C19.4404 18.3173 19.0821 18.6714 18.65 18.6714H10.746C10.3139 18.6714 9.95557 18.3173 9.95557 17.881C9.95557 17.4447 10.3139 17.0906 10.746 17.0906Z" fill="black"/>
</svg>
