<svg width="24" height="24" viewBox="0 0 24 24" fill="none" xmlns="http://www.w3.org/2000/svg">
<path d="M5.16834 10.6061H4.79651C3.15379 10.6061 1.77267 11.7635 1.42684 13.3092H10.0994V22.8553H10.6507C12.5631 22.8553 14.1143 21.3041 14.1143 19.3948V17.5281H19.7348C21.3497 17.5281 22.6566 16.2202 22.6566 14.6063V9.58833C22.6566 8.87754 22.3802 8.19648 21.8808 7.69394C21.3709 7.19139 20.691 6.90876 19.9791 6.90876H16.5898V4.46511C16.5898 2.74924 15.1981 1.35529 13.4769 1.35529H7.88831C6.16712 1.35529 4.77524 2.74924 4.77524 4.46511V9.09108C4.77524 9.64143 4.91335 10.1577 5.16834 10.6061Z" fill="black"/>
<path d="M8.49944 22.8553V18.324H1.34351V19.3948C1.34351 21.3041 2.8947 22.8553 4.79651 22.8553H8.49944Z" fill="black"/>
<path d="M1.34351 16.824H8.49944V14.9092H1.34351V16.824Z" fill="black"/>
</svg>
