<svg width="24" height="24" viewBox="0 0 24 24" fill="none" xmlns="http://www.w3.org/2000/svg">
<path d="M5.9857 10.3232H18.0232L18.3504 6.47445H5.65837L5.9857 10.3232Z" fill="black"/>
<path d="M5.48651 4.87445H18.5176C18.8565 4.7873 19.1648 4.61143 19.4231 4.35941C19.7852 3.98981 19.9983 3.48917 19.9983 2.96832C19.9983 2.44641 19.7852 1.94579 19.4231 1.57619C19.0503 1.20765 18.5496 1 18.0277 1H5.97046C5.44855 1 4.94788 1.20765 4.57508 1.57619C4.21294 1.94579 4 2.44537 4 2.96728C4 3.48813 4.21294 3.98981 4.57508 4.35941C4.83211 4.6113 5.1487 4.78777 5.48651 4.87445Z" fill="black"/>
<path d="M19.0325 11.9232H4.97635C4.89816 12.4014 5.00354 12.8994 5.28877 13.3108C6.21543 14.6603 7.47229 16.4806 8.22853 17.567C8.51612 17.9856 8.62265 18.5022 8.51614 19.0007L8.15403 20.8135C8.07947 21.2279 8.18589 21.6571 8.45217 21.9841C8.71845 22.3111 9.11257 22.4996 9.53862 22.4996H14.4702C14.8856 22.4996 15.2904 22.3111 15.5566 21.9841C15.8229 21.6571 15.9295 21.2279 15.8442 20.8135L15.482 19.0007C15.3861 18.5022 15.4927 17.9856 15.7803 17.567L18.72 13.3108C19.0053 12.8994 19.1106 12.4014 19.0325 11.9232Z" fill="black"/>
</svg>
