<svg width="24" height="24" viewBox="0 0 24 24" fill="none" xmlns="http://www.w3.org/2000/svg">
<g clip-path="url(#clip0_221_18693)">
<path d="M16.533 18H6.75004V20C6.75004 20.1989 6.67102 20.3897 6.53037 20.5303C6.38972 20.671 6.19895 20.75 6.00004 20.75C5.80113 20.75 5.61036 20.671 5.46971 20.5303C5.32906 20.3897 5.25004 20.1989 5.25004 20V17.676C4.42104 17.314 3.76004 16.671 3.44204 15.859L3.40304 15.757L2.10004 12.264C1.68504 11.15 2.61304 10 3.92704 10C4.73704 10 5.46104 10.453 5.73704 11.134L6.83504 13.84C6.93504 14.086 6.98504 14.21 7.05704 14.31C7.23684 14.5518 7.50099 14.717 7.79704 14.773C7.92704 14.8 8.07404 14.8 8.36704 14.8H15.347C15.916 14.8 16.2 14.8 16.438 14.702C16.5687 14.6473 16.685 14.5743 16.787 14.483C16.971 14.317 17.068 14.078 17.262 13.6L18.263 11.134C18.539 10.454 19.263 10 20.073 10C21.387 10 22.315 11.15 21.9 12.264L20.78 15.264C20.585 15.788 20.488 16.049 20.359 16.272C19.9858 16.8993 19.4221 17.3911 18.75 17.676V20C18.75 20.1989 18.671 20.3897 18.5304 20.5303C18.3897 20.671 18.199 20.75 18 20.75C17.8011 20.75 17.6104 20.671 17.4697 20.5303C17.3291 20.3897 17.25 20.1989 17.25 20V17.995C17.063 18 16.835 18 16.533 18Z" fill="black"/>
<path d="M13.236 3.5H10.764C9.664 3.5 8.788 3.5 8.104 3.588C7.398 3.678 6.819 3.868 6.358 4.308C5.894 4.749 5.689 5.311 5.593 5.993C5.5 6.651 5.5 7.488 5.5 8.533V9.413L5.71 9.563C6.126 9.857 6.462 10.261 6.664 10.758L7.898 13.8H15.347L15.71 13.799H15.712L16.1 13.792L16.226 13.492L16.336 13.224L17.336 10.758C17.538 10.261 17.874 9.858 18.29 9.562L18.5 9.412V8.532C18.5 7.488 18.5 6.651 18.407 5.993C18.311 5.311 18.106 4.749 17.642 4.307C17.182 3.869 16.602 3.678 15.897 3.587C15.212 3.5 14.337 3.5 13.236 3.5Z" fill="black"/>
</g>
<defs>
<clipPath id="clip0_221_18693">
<rect width="24" height="24" fill="white"/>
</clipPath>
</defs>
</svg>
