<svg width="24" height="24" viewBox="0 0 24 24" fill="none" xmlns="http://www.w3.org/2000/svg">
<g clip-path="url(#clip0_221_18751)">
<path d="M13.0697 7.30501C13.0697 7.08901 13.1757 6.95201 13.2727 6.89401C13.3119 6.86945 13.3585 6.85725 13.4047 6.85901C13.4645 6.86557 13.5209 6.88996 13.5667 6.92901C14.9257 7.98201 16.2757 9.68101 16.2757 11.972C16.2757 13.86 15.5057 14.969 14.5877 15.63C13.6307 16.318 12.4607 16.555 11.6927 16.555C10.8026 16.5348 9.94436 16.2196 9.2527 15.659C8.4677 15.014 7.7757 13.901 7.7757 11.971C7.7757 10.565 8.5077 9.63101 9.2117 9.10101C9.3057 9.67501 9.5707 10.23 9.9917 10.575C10.1361 10.6997 10.305 10.7926 10.4877 10.8478C10.6703 10.9029 10.8625 10.919 11.0517 10.895C11.4777 10.835 11.8097 10.574 12.0487 10.253C12.7317 9.33201 13.0697 8.10401 13.0697 7.30501Z" fill="black"/>
<path fill-rule="evenodd" clip-rule="evenodd" d="M3 10.417C3 7.22 3 5.62 3.378 5.082C3.755 4.545 5.258 4.03 8.265 3L8.838 2.805C10.405 2.268 11.188 2 12 2C12.812 2 13.595 2.268 15.162 2.805L15.735 3.001C18.742 4.03 20.245 4.545 20.622 5.082C21 5.62 21 7.219 21 10.417V11.991C21 17.63 16.761 20.365 14.101 21.527L14.0975 21.5285C13.3788 21.8425 13.0184 22 12 22C10.9816 22 10.6205 21.8422 9.90036 21.5276L9.899 21.527C7.239 20.366 3 17.629 3 11.991V10.417ZM13.521 5.36286C13.168 5.33747 12.8158 5.42094 12.5117 5.60201C11.9427 5.93701 11.5697 6.57401 11.5697 7.30501C11.5697 7.78401 11.3367 8.67501 10.8667 9.32801C10.8343 9.27988 10.8062 9.22902 10.7827 9.17601C10.7247 9.04101 10.6827 8.87601 10.6727 8.69601C10.6447 8.16601 10.3317 7.73601 9.8687 7.55601C9.65434 7.47743 9.42429 7.45131 9.19777 7.47984C8.97126 7.50837 8.75487 7.59073 8.5667 7.72001C7.5337 8.40601 6.2757 9.79201 6.2757 11.972C6.2757 14.31 7.1387 15.863 8.2987 16.817C9.25914 17.5987 10.4545 18.0347 11.6927 18.055C12.7017 18.055 14.1977 17.758 15.4637 16.847C16.7677 15.908 17.7757 14.349 17.7757 11.972C17.7757 9.04101 16.0447 6.95201 14.4857 5.74401C14.2107 5.52128 13.874 5.38825 13.521 5.36286Z" fill="black"/>
</g>
<defs>
<clipPath id="clip0_221_18751">
<rect width="24" height="24" fill="white"/>
</clipPath>
</defs>
</svg>
