<svg width="24" height="24" viewBox="0 0 24 24" fill="none" xmlns="http://www.w3.org/2000/svg">
<path d="M12.914 14.863C12.914 14.3629 12.5035 13.9571 12.009 13.9571C11.5052 13.9571 11.1039 14.3629 11.1039 14.863C11.1039 15.3631 11.5052 15.769 12.009 15.769C12.5035 15.769 12.914 15.3631 12.914 14.863Z" fill="black"/>
<path fill-rule="evenodd" clip-rule="evenodd" d="M12.1116 12.1301C9.06053 12.1301 7.79157 14.18 7.44634 14.8854C7.8009 15.5834 9.06055 17.5959 12.0183 17.5959C14.9948 17.5959 16.2358 15.5899 16.5717 14.9209C16.2824 14.2285 15.1534 12.1301 12.1116 12.1301ZM9.70427 14.863C9.70427 13.5903 10.7307 12.5575 12.009 12.5575C13.278 12.5575 14.3136 13.5903 14.3136 14.863C14.3136 16.1348 13.278 17.1686 12.009 17.1686C10.7307 17.1686 9.70427 16.1348 9.70427 14.863Z" fill="black"/>
<path fill-rule="evenodd" clip-rule="evenodd" d="M20.6692 9.59049V21.1351H20.9921C21.4442 21.1351 21.7995 21.4968 21.7995 21.9425C21.7995 22.3883 21.4442 22.75 20.9921 22.75H2.87265C2.43124 22.75 2.06519 22.3883 2.06519 21.9425C2.06519 21.4968 2.43124 21.1351 2.87265 21.1351H3.0987V3.89627C3.0987 3.15125 3.48636 2.45791 4.12156 2.06817C4.75676 1.67736 5.55341 1.64507 6.22091 1.98097L8.77249 3.27615V2.05746C8.77249 1.61174 9.13854 1.25 9.57995 1.25C10.0321 1.25 10.3874 1.61174 10.3874 2.05746V4.09333L13.4557 5.64688C13.7249 5.78362 13.8972 6.06247 13.8972 6.36715V6.82792H17.9022C18.6343 6.82792 19.3341 7.1197 19.8617 7.63755C20.3785 8.1554 20.6692 8.85732 20.6692 9.59049ZM6.02807 15.1262C5.97209 14.975 5.97209 14.8089 6.02807 14.6568C6.02807 14.6568 7.37169 10.7305 12.1116 10.7305C16.8796 10.7305 17.9992 14.7538 17.9992 14.7538C18.0365 14.8957 18.0365 15.0468 17.9805 15.1849C17.9805 15.1849 16.637 18.9955 12.0183 18.9955C7.39971 18.9955 6.02807 15.1262 6.02807 15.1262Z" fill="black"/>
</svg>
