<svg width="24" height="24" viewBox="0 0 24 24" fill="none" xmlns="http://www.w3.org/2000/svg">
<g clip-path="url(#clip0_221_18741)">
<path fill-rule="evenodd" clip-rule="evenodd" d="M11.66 5.75C10.824 5.75 10.286 6.342 10.286 6.91C10.286 7.10891 10.207 7.29968 10.0663 7.44033C9.92567 7.58098 9.73491 7.66 9.53599 7.66C9.33708 7.66 9.14632 7.58098 9.00566 7.44033C8.86501 7.29968 8.78599 7.10891 8.78599 6.91C8.78599 5.367 10.15 4.25 11.66 4.25C13.17 4.25 14.534 5.367 14.534 6.91C14.534 7.59 14.286 8.224 13.844 8.704C13.704 8.857 13.55 9.009 13.409 9.149L13.335 9.221C13.1819 9.36972 13.0347 9.52451 12.894 9.685C12.8192 9.77134 12.7507 9.86291 12.689 9.959C13.2664 10.0665 13.8157 10.2911 14.303 10.619L21.736 15.629C22.686 16.269 22.943 17.326 22.613 18.217C22.288 19.093 21.422 19.75 20.297 19.75H3.70199C2.58999 19.75 1.72799 19.105 1.39599 18.24C1.05799 17.36 1.29599 16.309 2.22399 15.657L9.31899 10.665C9.84853 10.294 10.4549 10.0472 11.093 9.943C11.198 9.436 11.486 9.025 11.751 8.713C11.923 8.511 12.111 8.322 12.28 8.155L12.36 8.075C12.503 7.935 12.627 7.812 12.74 7.689C12.922 7.491 13.034 7.221 13.034 6.909C13.034 6.342 12.496 5.75 11.66 5.75ZM13.465 11.862C12.9749 11.5373 12.3978 11.3692 11.81 11.38C11.2283 11.3835 10.661 11.5619 10.182 11.892L3.08699 16.883C2.74099 17.126 2.69599 17.441 2.79699 17.702C2.90199 17.977 3.19999 18.25 3.70199 18.25H20.297C20.806 18.25 21.103 17.973 21.207 17.695C21.304 17.431 21.254 17.113 20.897 16.873L13.465 11.862Z" fill="black"/>
</g>
<defs>
<clipPath id="clip0_221_18741">
<rect width="24" height="24" fill="white"/>
</clipPath>
</defs>
</svg>
