<svg width="24" height="24" viewBox="0 0 24 24" fill="none" xmlns="http://www.w3.org/2000/svg">
<g clip-path="url(#clip0_221_18647)">
<path d="M9.707 4.793C9.414 4.5 8.943 4.5 8 4.5H7.75V3C7.75 2.80109 7.67098 2.61032 7.53033 2.46967C7.38968 2.32902 7.19891 2.25 7 2.25C6.80109 2.25 6.61032 2.32902 6.46967 2.46967C6.32902 2.61032 6.25 2.80109 6.25 3V4.5H6C5.057 4.5 4.586 4.5 4.293 4.793C4 5.086 4 5.557 4 6.5V6.704C4.20333 6.652 4.40533 6.613 4.606 6.587C5.25 6.5 6.045 6.5 6.91 6.5H7.089C7.954 6.5 8.748 6.5 9.393 6.587C9.59433 6.61233 9.79633 6.65133 9.999 6.704V6.5C9.999 5.557 10 5.086 9.707 4.793Z" fill="black"/>
<path fill-rule="evenodd" clip-rule="evenodd" d="M2 21.25C1.80109 21.25 1.61032 21.3291 1.46967 21.4697C1.32902 21.6104 1.25 21.8011 1.25 22C1.25 22.199 1.32902 22.3897 1.46967 22.5304C1.61032 22.671 1.80109 22.75 2 22.75H22C22.1989 22.75 22.3897 22.671 22.5303 22.5304C22.671 22.3897 22.75 22.199 22.75 22C22.75 21.8011 22.671 21.6104 22.5303 21.4697C22.3897 21.3291 22.1989 21.25 22 21.25H21V7.77205C21 6.43205 21 5.76105 20.644 5.24705C20.288 4.73305 19.66 4.49705 18.404 4.02705C15.949 3.10605 14.722 2.64605 13.861 3.24205C13 3.84005 13 5.15005 13 7.77205V10.5001H13.09C13.955 10.5001 14.749 10.5001 15.394 10.587C16.105 10.682 16.857 10.9071 17.474 11.5251C18.093 12.1431 18.318 12.8951 18.414 13.6051C18.5 14.251 18.5 15.0451 18.5 15.9111V21.25H17V16.0001C17 14.1141 17 13.1721 16.414 12.5861C15.828 12.0001 14.886 12.0001 13 12.0001H11C9.114 12.0001 8.172 12.0001 7.586 12.5861C7 13.1721 7 14.1141 7 16.0001V21.25H5.5V15.9101C5.5 15.0451 5.5 14.2511 5.587 13.6061C5.682 12.8951 5.907 12.1431 6.525 11.5261C7.143 10.9071 7.895 10.6821 8.605 10.5861C9.251 10.5001 10.045 10.5001 10.911 10.5001H10.983C10.943 9.56405 10.818 8.99005 10.414 8.58605C9.828 8.00005 8.886 8.00005 7 8.00005C5.114 8.00005 4.172 8.00005 3.586 8.58605C3 9.17205 3 10.1141 3 12.0001V21.25H2ZM9.25 15.0001C9.25 14.8011 9.32902 14.6104 9.46967 14.4697C9.61032 14.3291 9.80109 14.2501 10 14.2501H14C14.1989 14.2501 14.3897 14.3291 14.5303 14.4697C14.671 14.6104 14.75 14.8011 14.75 15.0001C14.75 15.199 14.671 15.3897 14.5303 15.5304C14.3897 15.671 14.1989 15.7501 14 15.7501H10C9.80109 15.7501 9.61032 15.671 9.46967 15.5304C9.32902 15.3897 9.25 15.199 9.25 15.0001ZM9.25 18.0001C9.25 17.8011 9.32902 17.6104 9.46967 17.4697C9.61032 17.3291 9.80109 17.2501 10 17.2501H14C14.1989 17.2501 14.3897 17.3291 14.5303 17.4697C14.671 17.6104 14.75 17.8011 14.75 18.0001C14.75 18.199 14.671 18.3897 14.5303 18.5304C14.3897 18.671 14.1989 18.7501 14 18.7501H10C9.80109 18.7501 9.61032 18.671 9.46967 18.5304C9.32902 18.3897 9.25 18.199 9.25 18.0001Z" fill="black"/>
</g>
<defs>
<clipPath id="clip0_221_18647">
<rect width="24" height="24" fill="white"/>
</clipPath>
</defs>
</svg>
