<svg width="24" height="24" viewBox="0 0 24 24" fill="none" xmlns="http://www.w3.org/2000/svg">
<g clip-path="url(#clip0_221_17872)">
<path fill-rule="evenodd" clip-rule="evenodd" d="M12 10.75C12.1988 10.7498 12.3895 10.6707 12.53 10.53L15.53 7.53C15.6624 7.38783 15.7346 7.19978 15.7311 7.00548C15.7277 6.81118 15.649 6.62579 15.5116 6.48838C15.3742 6.35097 15.1888 6.27225 14.9945 6.26883C14.8002 6.2654 14.6121 6.33752 14.47 6.47L12.75 8.19V2C12.75 1.80109 12.671 1.61032 12.5303 1.46967C12.3896 1.32902 12.1989 1.25 12 1.25C11.8011 1.25 11.6103 1.32902 11.4696 1.46967C11.329 1.61032 11.25 1.80109 11.25 2V8.19L9.52997 6.47C9.38779 6.33752 9.19975 6.2654 9.00545 6.26883C8.81115 6.27225 8.62576 6.35097 8.48835 6.48838C8.35093 6.62579 8.27222 6.81118 8.26879 7.00548C8.26537 7.19978 8.33749 7.38783 8.46997 7.53L11.47 10.53C11.61 10.671 11.801 10.75 12 10.75Z" fill="black"/>
<path d="M3.46393 20.536C4.92993 22 7.28593 22 11.9999 22C16.7139 22 19.0709 22 20.5349 20.535C21.8059 19.265 21.9749 17.322 21.9969 13.75H18.8399C17.8659 13.75 17.6109 13.766 17.3979 13.864C17.1839 13.963 17.0059 14.146 16.3719 14.884L15.6789 15.694C15.1769 16.28 14.7789 16.745 14.2289 16.998C13.6789 17.251 13.0669 17.251 12.2949 17.25H11.7049C10.9329 17.25 10.3209 17.252 9.77093 16.998C9.22093 16.745 8.82293 16.28 8.32093 15.693L7.62793 14.885C6.99393 14.145 6.81593 13.963 6.60193 13.865C6.38893 13.766 6.13393 13.75 5.15993 13.75H2.00293C2.02593 17.322 2.19293 19.266 3.46393 20.536Z" fill="black"/>
<path d="M22 12C22 7.286 22 4.929 20.535 3.464C19.325 2.254 17.505 2.044 14.25 2.008V4.878C14.7313 4.70757 15.2562 4.70589 15.7386 4.87325C16.221 5.0406 16.6321 5.36704 16.9044 5.79894C17.1767 6.23084 17.294 6.74251 17.237 7.2499C17.1801 7.75728 16.9523 8.23022 16.591 8.591L13.591 11.591C13.3821 11.7999 13.134 11.9657 12.861 12.0787C12.5881 12.1918 12.2955 12.25 12 12.25C11.7045 12.25 11.4119 12.1918 11.139 12.0787C10.866 11.9657 10.6179 11.7999 10.409 11.591L7.409 8.591C7.04773 8.23022 6.8199 7.75728 6.76296 7.2499C6.70601 6.74251 6.82332 6.23084 7.09563 5.79894C7.36794 5.36704 7.77904 5.0406 8.2614 4.87325C8.74377 4.70589 9.26871 4.70757 9.75 4.878V2.008C6.494 2.044 4.675 2.254 3.464 3.464C2 4.93 2 7.286 2 12V12.25H5.295C6.067 12.25 6.679 12.248 7.229 12.502C7.779 12.755 8.177 13.22 8.679 13.807L9.372 14.615C10.006 15.355 10.184 15.537 10.398 15.635C10.611 15.734 10.866 15.75 11.84 15.75H12.16C13.134 15.75 13.389 15.734 13.602 15.636C13.816 15.537 13.994 15.354 14.628 14.616L15.321 13.806C15.823 13.22 16.221 12.755 16.771 12.502C17.321 12.249 17.933 12.249 18.706 12.25H22V12Z" fill="black"/>
</g>
<defs>
<clipPath id="clip0_221_17872">
<rect width="24" height="24" fill="white"/>
</clipPath>
</defs>
</svg>
