<svg width="24" height="24" viewBox="0 0 24 24" fill="none" xmlns="http://www.w3.org/2000/svg">
<g clip-path="url(#clip0_221_17761)">
<path fill-rule="evenodd" clip-rule="evenodd" d="M10.799 21.105L10.549 21.528C10.4617 21.6721 10.3387 21.7912 10.1919 21.8738C10.0451 21.9565 9.87946 21.9999 9.711 21.9999C9.54254 21.9999 9.37692 21.9565 9.23013 21.8738C9.08334 21.7912 8.96034 21.6721 8.873 21.528L8.623 21.105C8.223 20.428 8.022 20.09 7.703 19.901C7.38403 19.712 6.96708 19.699 6.13424 19.673C5.35324 19.647 4.829 19.579 4.38 19.393C3.43553 19.0015 2.68495 18.2513 2.293 17.307C2 16.598 2 15.7 2 13.903V13.132C2 10.61 2 9.346 2.568 8.42C2.88594 7.9009 3.32215 7.46435 3.841 7.146C4.768 6.578 6.03 6.578 8.554 6.578H10.868C13.391 6.578 14.654 6.578 15.581 7.146C16.0997 7.46407 16.5359 7.90026 16.854 8.419C17.422 9.346 17.422 10.608 17.422 13.132V13.904C17.422 15.7 17.422 16.598 17.128 17.307C16.7363 18.2511 15.9861 19.0013 15.042 19.393C14.593 19.579 14.068 19.647 13.287 19.672L13.28 19.6722C12.4527 19.6991 12.0381 19.7125 11.719 19.901C11.399 20.09 11.199 20.428 10.799 21.105ZM10.1756 10.2179C10.0349 10.0773 9.84418 9.99828 9.64526 9.99828C9.44635 9.99828 9.25559 10.0773 9.11493 10.2179C8.97428 10.3586 8.89526 10.5494 8.89526 10.7483V15.7483C8.89526 15.9472 8.97428 16.138 9.11493 16.2786C9.25559 16.4193 9.44635 16.4983 9.64526 16.4983C9.84418 16.4983 10.0349 16.4193 10.1756 16.2786C10.3162 16.138 10.3953 15.9472 10.3953 15.7483V10.7483C10.3953 10.5494 10.3162 10.3586 10.1756 10.2179ZM7.17559 11.7179C7.03494 11.5773 6.84418 11.4983 6.64526 11.4983C6.44635 11.4983 6.25559 11.5773 6.11493 11.7179C5.97428 11.8586 5.89526 12.0494 5.89526 12.2483V14.2483C5.89526 14.4472 5.97428 14.638 6.11493 14.7786C6.25559 14.9193 6.44635 14.9983 6.64526 14.9983C6.84418 14.9983 7.03494 14.9193 7.17559 14.7786C7.31625 14.638 7.39526 14.4472 7.39526 14.2483V12.2483C7.39526 12.0494 7.31625 11.8586 7.17559 11.7179ZM12.6453 11.4983C12.8442 11.4983 13.0349 11.5773 13.1756 11.7179C13.3162 11.8586 13.3953 12.0494 13.3953 12.2483V14.2483C13.3953 14.4472 13.3162 14.638 13.1756 14.7786C13.0349 14.9193 12.8442 14.9983 12.6453 14.9983C12.4464 14.9983 12.2556 14.9193 12.1149 14.7786C11.9743 14.638 11.8953 14.4472 11.8953 14.2483V12.2483C11.8953 12.0494 11.9743 11.8586 12.1149 11.7179C12.2556 11.5773 12.4464 11.4983 12.6453 11.4983Z" fill="black"/>
<path d="M15.17 2C16.321 2 17.237 2 17.972 2.07C18.725 2.141 19.362 2.292 19.929 2.64C20.512 2.99728 21.0023 3.48726 21.36 4.07C21.708 4.637 21.858 5.274 21.93 6.027C22 6.763 22 7.678 22 8.83V9.617C22 10.437 22 11.089 21.964 11.617C21.927 12.158 21.85 12.623 21.67 13.057C21.4463 13.5967 21.1159 14.0857 20.6987 14.4947C20.2815 14.9036 19.786 15.2241 19.242 15.437C19.1146 15.4863 19.0033 15.527 18.908 15.559C18.922 15.09 18.922 14.556 18.922 13.954V13.061C18.922 11.86 18.922 10.853 18.844 10.035C18.762 9.178 18.585 8.375 18.132 7.635C17.6903 6.91453 17.0844 6.30871 16.364 5.867C15.626 5.415 14.822 5.237 13.964 5.156C13.147 5.078 12.14 5.078 10.938 5.078H8.48298C7.66698 5.078 6.94098 5.078 6.30298 5.102C6.33298 4.999 6.37298 4.882 6.42098 4.742C6.50098 4.50733 6.60598 4.284 6.73598 4.072C7.0933 3.48817 7.58365 2.99713 8.16698 2.639C8.73498 2.292 9.37198 2.141 10.125 2.069C10.859 2 11.775 2 12.927 2H15.17Z" fill="black"/>
</g>
<defs>
<clipPath id="clip0_221_17761">
<rect width="24" height="24" fill="white"/>
</clipPath>
</defs>
</svg>
