<svg width="24" height="24" viewBox="0 0 24 24" fill="none" xmlns="http://www.w3.org/2000/svg">
<g clip-path="url(#clip0_221_17752)">
<path fill-rule="evenodd" clip-rule="evenodd" d="M13.087 21.388L13.629 20.472C14.049 19.761 14.259 19.406 14.597 19.21C14.9341 19.0135 15.3578 19.006 16.2034 18.9911L16.21 18.991C17.466 18.969 18.253 18.893 18.913 18.619C19.5198 18.3678 20.0712 17.9996 20.5357 17.5353C21.0002 17.071 21.3686 16.5197 21.62 15.913C22 14.995 22 13.83 22 11.5V10.5C22 7.228 22 5.59 21.263 4.387C20.8508 3.71456 20.2854 3.14917 19.613 2.737C18.41 2 16.773 2 13.5 2H10.5C7.228 2 5.59 2 4.387 2.737C3.71445 3.14945 3.14904 3.7152 2.737 4.388C2 5.59 2 7.227 2 10.5V11.5C2 13.83 2 14.995 2.381 15.913C2.63227 16.5196 3.00057 17.0708 3.46487 17.5351C3.92917 17.9994 4.48037 18.3677 5.087 18.619C5.747 18.893 6.534 18.97 7.79 18.991L7.79664 18.9911C8.64221 19.006 9.06588 19.0135 9.403 19.21C9.7401 19.4055 9.94988 19.7601 10.3677 20.4663L10.913 21.388C11.397 22.204 12.604 22.204 13.087 21.388ZM10.887 8.14957C10.887 7.52856 11.391 7.02456 12.012 7.02456H12.0165C12.633 7.02456 13.14 7.53231 13.14 8.14882C13.14 8.54782 12.9278 8.91757 12.5843 9.11857C12.3053 9.28357 11.991 9.51083 11.739 9.80783C11.484 10.1086 11.262 10.5188 11.262 11.0251V12.2746C11.262 12.6863 11.6003 13.0246 12.012 13.0246C12.4238 13.0246 12.762 12.6863 12.762 12.2746V11.0251C12.762 10.9786 12.78 10.8991 12.882 10.7791C13.017 10.6321 13.1738 10.5076 13.3471 10.4101C14.1458 9.93833 14.6371 9.07732 14.6371 8.14957C14.6371 6.70956 13.4521 5.52455 12.012 5.52455C10.572 5.52455 9.38696 6.70956 9.38696 8.14957C9.38696 8.56132 9.72522 8.89957 10.137 8.89957C10.5487 8.89957 10.887 8.56132 10.887 8.14957ZM13.0118 15.2746C13.0118 15.8236 12.5603 16.2751 12.012 16.2751C11.4638 16.2751 11.0123 15.8236 11.0123 15.2746C11.0123 14.7264 11.4638 14.2749 12.012 14.2749C12.5603 14.2749 13.0118 14.7264 13.0118 15.2746Z" fill="black"/>
</g>
<defs>
<clipPath id="clip0_221_17752">
<rect width="24" height="24" fill="white"/>
</clipPath>
</defs>
</svg>
