<svg width="24" height="24" viewBox="0 0 24 24" fill="none" xmlns="http://www.w3.org/2000/svg">
<g clip-path="url(#clip0_221_17896)">
<path fill-rule="evenodd" clip-rule="evenodd" d="M21.565 10.492L21.831 10.559C22.6825 9.40236 23.0909 7.9787 22.9821 6.54658C22.8732 5.11446 22.2544 3.76887 21.2379 2.7542C20.2214 1.73952 18.8747 1.12307 17.4424 1.01679C16.0101 0.91051 14.5871 1.32146 13.432 2.175L13.508 2.435L13.792 3.289L13.795 3.296L13.812 3.341C13.828 3.385 13.8574 3.45366 13.9 3.547C13.984 3.734 14.125 4.017 14.34 4.376C14.772 5.094 15.504 6.123 16.69 7.31C17.877 8.496 18.906 9.228 19.625 9.66C19.984 9.875 20.267 10.016 20.453 10.1C20.5351 10.1378 20.6185 10.1728 20.703 10.205L20.709 10.207L21.565 10.492ZM13.658 21.636L18.571 12.792C19.4903 12.5425 20.337 12.0777 21.041 11.436L14.969 22.364C14.8699 22.5328 14.7087 22.6562 14.5198 22.7078C14.3309 22.7594 14.1293 22.735 13.9581 22.64C13.787 22.5449 13.6598 22.3867 13.6037 22.1991C13.5476 22.0115 13.5671 21.8094 13.658 21.636ZM13.321 11.74L16.17 8.891C17.223 9.871 18.15 10.524 18.853 10.946C19.0637 11.0707 19.2527 11.1767 19.42 11.264L18.571 12.792C17.6742 13.0351 16.7332 13.0667 15.8222 12.8841C14.9111 12.7015 14.0549 12.3099 13.321 11.74ZM12.26 10.68C12.5676 11.0763 12.9238 11.4324 13.32 11.74L5.53002 19.53C5.38784 19.6625 5.1998 19.7346 5.0055 19.7312C4.81119 19.7277 4.62581 19.649 4.4884 19.5116C4.35098 19.3742 4.27227 19.1888 4.26884 18.9945C4.26541 18.8002 4.33754 18.6122 4.47002 18.47L12.26 10.68ZM11.208 5.43L12.736 4.58C12.8227 4.74733 12.929 4.93633 13.055 5.147C13.476 5.85 14.129 6.777 15.109 7.83L12.259 10.68C11.6895 9.94595 11.2982 9.08966 11.116 8.17861C10.9338 7.26756 10.9646 6.32664 11.208 5.43ZM11.208 5.43C11.4575 4.5107 11.9234 3.66402 12.565 2.96L1.63602 9.031C1.46717 9.13013 1.34379 9.29136 1.29222 9.48025C1.24066 9.66913 1.26501 9.87069 1.36006 10.0419C1.45511 10.213 1.61334 10.3403 1.80093 10.3963C1.98853 10.4524 2.19061 10.4329 2.36402 10.342L11.208 5.43Z" fill="black"/>
</g>
<defs>
<clipPath id="clip0_221_17896">
<rect width="24" height="24" fill="white"/>
</clipPath>
</defs>
</svg>
