<svg width="24" height="24" viewBox="0 0 24 24" fill="none" xmlns="http://www.w3.org/2000/svg">
<g clip-path="url(#clip0_221_17812)">
<path d="M17.8729 2.11899C19.1759 1.88699 20.3489 1.93999 21.2039 2.79599C22.0599 3.65099 22.1129 4.82399 21.8809 6.12599C21.651 7.42054 21.0893 9.10483 20.3787 11.2358L18.6715 16.3572C18.0942 18.0902 17.6456 19.4368 17.2309 20.411C16.8309 21.351 16.3869 22.147 15.7129 22.539C15.1922 22.842 14.6004 23.0016 13.9979 23.0016C13.3954 23.0016 12.8037 22.842 12.2829 22.539C11.6089 22.147 11.1649 21.351 10.7649 20.411C10.3538 19.4451 9.9093 18.1131 9.33808 16.4014L9.32194 16.353L9.30994 16.315C9.24563 16.1227 9.19556 15.9747 9.15438 15.8582L15.6418 9.50735C15.9575 9.19827 15.9629 8.69177 15.6538 8.37605C15.3447 8.06032 14.8382 8.05493 14.5225 8.36401L7.96447 14.784C7.88302 14.7563 7.79024 14.7253 7.68394 14.69L7.64694 14.678L7.59853 14.6618C5.88684 14.0906 4.55485 13.6461 3.58894 13.235C2.64894 12.835 1.85294 12.391 1.46094 11.717C1.15792 11.1962 0.998291 10.6045 0.998291 10.002C0.998291 9.39949 1.15792 8.80775 1.46094 8.28699C1.85294 7.61299 2.64894 7.16899 3.58894 6.76899C4.56394 6.35399 5.91194 5.90499 7.64794 5.32699L12.783 3.61499C14.906 2.9073 16.5832 2.34824 17.8739 2.11899H17.8729Z" fill="black"/>
</g>
<defs>
<clipPath id="clip0_221_17812">
<rect width="24" height="24" fill="white"/>
</clipPath>
</defs>
</svg>
