<svg width="24" height="24" viewBox="0 0 24 24" fill="none" xmlns="http://www.w3.org/2000/svg">
<path d="M1.25 17.2233L1.25009 17.2634V17.5595C1.25009 17.5595 1.21908 20.0876 2.98189 21.6073C3.73824 22.2596 4.82074 22.7449 6.38646 22.7449H6.48266C6.52653 22.7455 6.55989 22.7452 6.58146 22.7449H17.4076C17.4291 22.7452 17.4625 22.7455 17.5064 22.7449H17.6026C19.1683 22.7449 20.2508 22.2596 21.0071 21.6073C22.7699 20.0876 22.7389 17.5595 22.7389 17.5595V17.2632L22.739 17.2233V10.8913C22.0105 11.3457 21.15 11.6082 20.2281 11.6082C19.3859 11.6082 18.5948 11.389 17.9089 11.0046L16.2806 12.3615C15.3937 13.1014 14.6748 13.7002 14.04 14.1084C13.3797 14.533 12.7359 14.8017 11.9946 14.8017C11.2532 14.8017 10.6102 14.5323 9.94915 14.1084C9.32582 13.7075 8.62219 13.1222 7.75655 12.4022L5.51085 10.5315C5.33977 10.3889 5.24072 10.1773 5.24072 9.95443C5.24072 9.77885 5.30225 9.60853 5.4148 9.47421H5.41255C5.67667 9.15832 6.15314 9.1148 6.46904 9.37817L8.63229 11.1775C9.56572 11.9549 10.2133 12.4936 10.761 12.8455C11.2908 13.1854 11.6494 13.301 11.9946 13.301C12.3397 13.301 12.6992 13.1869 13.2282 12.8455C13.7759 12.4936 14.4242 11.9549 15.3576 11.1775L16.7097 10.05C15.9437 9.2064 15.4769 8.0862 15.4769 6.85698C15.4769 5.62327 15.9471 4.49939 16.7181 3.65477C16.4724 3.45781 16.2264 3.26764 15.9819 3.08679C15.3775 2.63987 14.7772 2.25323 14.2051 1.95153C14.1902 1.94158 14.1748 1.93214 14.159 1.92325C13.3856 1.48605 12.6523 1.24994 12.04 1.24994C12.0249 1.24994 12.0097 1.25008 11.9945 1.25037C11.9793 1.25008 11.9641 1.24994 11.949 1.24994C11.3367 1.24994 10.6034 1.48605 9.83006 1.92325C9.81424 1.93214 9.79884 1.94158 9.78389 1.95153C9.21183 2.25323 8.61153 2.63987 8.00712 3.08679C4.84166 5.42787 1.43508 9.32967 1.43508 9.32967C1.31603 9.46573 1.25 9.64082 1.25 9.8229V17.2233Z" fill="black"/>
<path d="M19.6179 2.2718C19.9297 2.2718 20.1858 2.52797 20.1858 2.8398V5.8689C20.1858 6.18073 19.9297 6.4369 19.6179 6.4369C19.306 6.4369 19.0499 6.18073 19.0499 5.8689V2.8398C19.0499 2.52797 19.306 2.2718 19.6179 2.2718ZM19.6179 8.89801C20.0331 8.89801 20.375 8.55608 20.375 8.14088C20.375 7.72567 20.0331 7.38374 19.6179 7.38374C19.2026 7.38374 18.8607 7.72567 18.8607 8.14088C18.8607 8.55608 19.2026 8.89801 19.6179 8.89801Z" fill="black"/>
</svg>
