<svg width="24" height="24" viewBox="0 0 24 24" fill="none" xmlns="http://www.w3.org/2000/svg">
<g clip-path="url(#clip0_221_17833)">
<path d="M8 13.478V12.862C8 12.862 8 11.396 12 11.396C16 11.396 16 12.862 16 12.862V13.25C16 14.206 16.723 15.02 17.7 15.162L19.7 15.456C20.91 15.633 22 14.726 22 13.543V11.418C22 10.831 21.816 10.254 21.37 9.85599C20.23 8.83699 17.42 6.99999 12 6.99999C6.251 6.99999 3.44 9.58299 2.44 10.789C2.125 11.17 2 11.653 2 12.141V14.064C2 15.362 3.296 16.292 4.58 15.916L6.58 15.329C7.423 15.082 8 14.331 8 13.479" fill="black"/>
</g>
<defs>
<clipPath id="clip0_221_17833">
<rect width="24" height="24" fill="white"/>
</clipPath>
</defs>
</svg>
