<svg width="24" height="24" viewBox="0 0 24 24" fill="none" xmlns="http://www.w3.org/2000/svg">
<g clip-path="url(#clip0_221_17823)">
<path d="M17.3326 5.59889C16.9984 4.77044 16.4731 4.02485 15.7915 3.42706C14.7427 2.50716 13.3951 1.99997 12 2C10.475 2 9.01248 2.6058 7.93414 3.68414C6.85581 4.76247 6.25001 6.22501 6.25001 7.75V10.75C6.24781 12.2114 6.80218 13.6189 7.80043 14.6863C7.91937 14.8134 8.04355 14.9346 8.17249 15.0497L17.3326 5.59889Z" fill="black"/>
<path d="M17.7361 7.48153L9.52795 15.9501C10.1801 16.2606 10.8906 16.4483 11.6242 16.4963C13.0825 16.5919 14.5225 16.1285 15.6514 15.2004C16.7804 14.2724 17.5136 12.9492 17.702 11.5H17.6933L17.6993 11.496C17.7985 10.0285 17.8359 9.03362 17.7361 7.48153Z" fill="black"/>
<path d="M7.13228 16.1229C7.0441 16.043 6.9578 15.9608 6.87348 15.8765C6.20025 15.2033 5.66622 14.4041 5.30187 13.5245C4.93753 12.6448 4.75 11.7021 4.75 10.75V9.75C4.75 9.55109 4.67098 9.36032 4.53033 9.21967C4.38968 9.07902 4.19891 9 4 9C3.80109 9 3.61032 9.07902 3.46967 9.21967C3.32902 9.36032 3.25 9.55109 3.25 9.75V10.75C3.24995 12.9408 4.07177 15.052 5.55303 16.6662C5.72411 16.8526 5.90254 17.0309 6.08771 17.2006L7.13228 16.1229Z" fill="black"/>
<path d="M7.371 18.1755L8.44428 17.0682C8.69636 17.21 8.95721 17.337 9.22554 17.4481C10.1052 17.8125 11.0479 18 12 18C12.9521 18 13.8948 17.8125 14.7745 17.4481C15.6541 17.0838 16.4533 16.5497 17.1265 15.8765C17.7997 15.2033 18.3338 14.4041 18.6981 13.5245C19.0625 12.6448 19.25 11.7021 19.25 10.75V9.75C19.25 9.55109 19.329 9.36032 19.4697 9.21967C19.6103 9.07902 19.8011 9 20 9C20.1989 9 20.3897 9.07902 20.5303 9.21967C20.671 9.36032 20.75 9.55109 20.75 9.75V10.75C20.7501 12.9408 19.9282 15.052 18.447 16.6662C16.9657 18.2804 14.9328 19.2802 12.75 19.468V21.75C12.75 21.9489 12.671 22.1397 12.5303 22.2803C12.3897 22.421 12.1989 22.5 12 22.5C11.8011 22.5 11.6103 22.421 11.4697 22.2803C11.329 22.1397 11.25 21.9489 11.25 21.75V19.468C9.86196 19.3486 8.53452 18.9008 7.371 18.1755Z" fill="black"/>
</g>
<defs>
<clipPath id="clip0_221_17823">
<rect width="24" height="24" fill="white"/>
</clipPath>
</defs>
</svg>
