<svg width="24" height="24" viewBox="0 0 24 24" fill="none" xmlns="http://www.w3.org/2000/svg">
<path d="M3.49201 16.1034C3.87102 16.2794 5.13002 16.3644 6.43002 16.4064C6.50402 17.1184 6.68403 18.1195 7.11703 18.9985C7.70703 20.1945 8.72603 21.1705 10.439 21.1705C10.88 21.1705 11.239 20.8115 11.239 20.3705C11.239 19.9285 10.88 19.5705 10.439 19.5705C9.45504 19.5705 8.89103 18.9775 8.55203 18.2905C8.24803 17.6744 8.10403 16.9814 8.03703 16.4384C8.66669 16.4454 9.20745 16.4454 9.53351 16.4454H9.69404C10.222 16.4454 10.402 16.4474 10.571 16.4774C10.753 16.5074 10.929 16.5604 11.098 16.6344C11.254 16.7034 11.407 16.8014 11.847 17.0924L12.1682 17.3037C13.3552 18.085 14.3089 18.7127 15.0981 19.0965C15.9121 19.4915 16.7131 19.7115 17.5191 19.4355C17.7891 19.3445 18.0441 19.2155 18.2771 19.0515C18.9731 18.5615 19.2671 17.7894 19.4271 16.9024C19.583 16.0374 19.6364 14.8922 19.7027 13.4678L19.7041 13.4384L19.7071 13.3814C19.7581 12.2824 19.7931 11.3234 19.7931 10.7794C19.7931 10.2354 19.7581 9.27641 19.7071 8.17841L19.7041 8.12041L19.7027 8.09098C19.6364 6.66664 19.583 5.52144 19.4271 4.65639C19.2671 3.76939 18.9731 2.99739 18.2771 2.50739C18.0451 2.34538 17.7871 2.21438 17.5191 2.12238C16.7141 1.84738 15.9121 2.06838 15.0981 2.46238C14.3022 2.84838 13.3381 3.48349 12.1381 4.27391L11.847 4.46539C11.407 4.7564 11.255 4.8554 11.097 4.9244C10.929 4.9974 10.752 5.05039 10.571 5.08139C10.402 5.11039 10.222 5.11239 9.69304 5.11239H9.53404C8.33503 5.11139 4.23302 5.1114 3.49201 5.4544C2.77401 5.8014 2.18 6.3604 1.79 7.0544C1.40368 7.77315 1.35816 8.52179 1.29334 9.58781L1.293 9.59341L1.285 9.72141C1.263 10.0834 1.25 10.4434 1.25 10.7794C1.251 11.1324 1.263 11.4854 1.285 11.8374L1.293 11.9654L1.29332 11.9706C1.35815 13.0379 1.40363 13.7866 1.79 14.5034C2.18 15.1984 2.77401 15.7564 3.49201 16.1034Z" fill="black"/>
<path d="M22.1647 7.4655C22.0302 7.24673 21.7907 7.11296 21.5335 7.11296C21.1278 7.11296 20.7937 7.44702 20.7937 7.85277C20.7937 7.96363 20.8189 8.07301 20.8669 8.17279C20.8736 8.18683 20.8913 8.22526 20.909 8.26887C20.9438 8.3546 20.9948 8.50019 21.048 8.70935C21.1566 9.12692 21.2719 9.80391 21.2719 10.7795C21.2719 11.7551 21.1551 12.432 21.048 12.8496C20.9948 13.0588 20.9438 13.2044 20.909 13.2901L20.8669 13.3862C20.677 13.7395 20.8085 14.1866 21.1596 14.381C21.5158 14.5805 21.9822 14.4209 22.1802 14.0639L22.2068 14.0114C22.2268 13.9693 22.2512 13.9124 22.2807 13.8392C22.3399 13.6944 22.4108 13.4882 22.481 13.2177C22.6185 12.6745 22.7501 11.8733 22.7501 10.7795C22.7501 9.68566 22.62 8.88451 22.481 8.34129C22.4278 8.12992 22.3613 7.92224 22.2807 7.71974C22.2578 7.66135 22.2334 7.6037 22.2068 7.54753L22.1647 7.4655Z" fill="black"/>
</svg>
