<svg width="24" height="24" viewBox="0 0 24 24" fill="none" xmlns="http://www.w3.org/2000/svg">
<path fill-rule="evenodd" clip-rule="evenodd" d="M22 12C22 17.523 17.523 22 12 22C10.4551 22.002 8.93095 21.6446 7.548 20.956C7.19414 20.7727 6.78538 20.7254 6.399 20.823L4.173 21.419C3.95267 21.4778 3.72075 21.4776 3.50053 21.4184C3.2803 21.3593 3.07951 21.2432 2.91831 21.0819C2.75712 20.9206 2.64119 20.7197 2.58216 20.4995C2.52312 20.2792 2.52307 20.0473 2.582 19.827L3.177 17.601C3.28 17.216 3.221 16.809 3.043 16.453C2.376 15.112 2 13.6 2 12C2 6.477 6.477 2 12 2C17.523 2 22 6.477 22 12ZM10.887 9.07846C10.887 8.45746 11.391 7.95345 12.012 7.95345H12.0165C12.633 7.95345 13.14 8.46121 13.14 9.07771C13.14 9.47671 12.9278 9.84647 12.5843 10.0475C12.3053 10.2125 11.991 10.4397 11.739 10.7367C11.484 11.0375 11.262 11.4477 11.262 11.954V13.2035C11.262 13.6152 11.6003 13.9535 12.012 13.9535C12.4238 13.9535 12.762 13.6152 12.762 13.2035V11.954C12.762 11.9075 12.78 11.828 12.882 11.708C13.017 11.561 13.1738 11.4365 13.3471 11.339C14.1458 10.8672 14.6371 10.0062 14.6371 9.07846C14.6371 7.63845 13.4521 6.45345 12.012 6.45345C10.572 6.45345 9.38696 7.63845 9.38696 9.07846C9.38696 9.49021 9.72522 9.82847 10.137 9.82847C10.5487 9.82847 10.887 9.49021 10.887 9.07846ZM13.0118 16.2035C13.0118 16.7525 12.5603 17.204 12.012 17.204C11.4638 17.204 11.0123 16.7525 11.0123 16.2035C11.0123 15.6553 11.4638 15.2037 12.012 15.2037C12.5603 15.2037 13.0118 15.6553 13.0118 16.2035Z" fill="black"/>
</svg>
