<svg width="24" height="24" viewBox="0 0 24 24" fill="none" xmlns="http://www.w3.org/2000/svg">
<g clip-path="url(#clip0_221_17890)">
<path fill-rule="evenodd" clip-rule="evenodd" d="M14 5H10C6.229 5 4.343 5 3.172 6.172C2.001 7.344 2 9.229 2 13C2 16.771 2 18.657 3.172 19.828C4.344 20.999 6.229 21 10 21H14C17.771 21 19.657 21 20.828 19.828C21.999 18.656 22 16.771 22 13C22 11.547 22 10.373 21.933 9.413C21.1177 10.116 20.0765 10.5018 19 10.5C18.521 10.5 18.06 10.425 17.627 10.287L16.284 11.407C15.397 12.145 14.679 12.744 14.044 13.152C13.384 13.577 12.741 13.845 12 13.845C11.259 13.845 10.616 13.576 9.955 13.152C9.321 12.744 8.603 12.145 7.716 11.407L5.52 9.577C5.3671 9.4497 5.27104 9.26687 5.25294 9.06874C5.23484 8.8706 5.2962 8.6734 5.4235 8.5205C5.5508 8.3676 5.73363 8.27154 5.93176 8.25344C6.1299 8.23534 6.3271 8.2967 6.48 8.424L8.639 10.223C9.572 11 10.219 11.538 10.767 11.89C11.296 12.23 11.655 12.345 12 12.345C12.345 12.345 12.704 12.231 13.233 11.89C13.78 11.538 14.428 11 15.361 10.223L16.201 9.523C15.5355 8.99649 15.0328 8.29216 14.7512 7.49164C14.4696 6.69113 14.4207 5.82721 14.61 5H14Z" fill="black"/>
<path fill-rule="evenodd" clip-rule="evenodd" d="M19.2698 9.51749C21.4149 9.51749 23.1538 7.77855 23.1538 5.63345C23.1538 3.48836 21.4149 1.74942 19.2698 1.74942C17.1247 1.74942 15.3857 3.48836 15.3857 5.63345C15.3857 7.77855 17.1247 9.51749 19.2698 9.51749ZM20.0101 3.82778C20.0101 3.41682 19.6725 3.07921 19.2615 3.07921C18.8505 3.07921 18.5129 3.41682 18.5129 3.82778V6.29758C18.5129 6.49595 18.5923 6.68684 18.7323 6.82682L19.4968 7.59061C19.6383 7.74257 19.8367 7.82941 20.044 7.82941C20.455 7.82941 20.7926 7.49105 20.7926 7.08083C20.7926 6.87273 20.7065 6.67435 20.5545 6.53287L20.0101 5.98841V3.82778Z" fill="black"/>
</g>
<defs>
<clipPath id="clip0_221_17890">
<rect width="24" height="24" fill="white"/>
</clipPath>
</defs>
</svg>
