<svg width="24" height="24" viewBox="0 0 24 24" fill="none" xmlns="http://www.w3.org/2000/svg">
<g clip-path="url(#clip0_221_17746)">
<path fill-rule="evenodd" clip-rule="evenodd" d="M10.549 21.528L10.799 21.105C11.199 20.428 11.399 20.09 11.719 19.901C12.039 19.712 12.455 19.699 13.287 19.672C14.068 19.647 14.593 19.579 15.042 19.393C15.9861 19.0013 16.7363 18.2511 17.128 17.307C17.422 16.598 17.422 15.7 17.422 13.904V13.132C17.422 10.608 17.422 9.346 16.854 8.419C16.5359 7.90026 16.0997 7.46406 15.581 7.146C14.654 6.578 13.391 6.578 10.868 6.578H8.554C6.03 6.578 4.768 6.578 3.841 7.146C3.32215 7.46434 2.88594 7.90089 2.568 8.42C2 9.346 2 10.61 2 13.132V13.903C2 15.7 2 16.598 2.293 17.307C2.68495 18.2513 3.43553 19.0015 4.38 19.393C4.829 19.579 5.353 19.647 6.134 19.673C6.967 19.699 7.384 19.712 7.703 19.901C8.022 20.09 8.223 20.428 8.623 21.105L8.873 21.528C8.96034 21.672 9.08334 21.7912 9.23013 21.8738C9.37692 21.9565 9.54254 21.9999 9.711 21.9999C9.87946 21.9999 10.0451 21.9565 10.1919 21.8738C10.3387 21.7912 10.4617 21.672 10.549 21.528ZM13.084 14.289C13.3397 14.289 13.5849 14.1874 13.7657 14.0066C13.9464 13.8259 14.048 13.5807 14.048 13.325C14.048 13.0693 13.9464 12.8241 13.7657 12.6433C13.5849 12.4626 13.3397 12.361 13.084 12.361C12.8283 12.361 12.5831 12.4626 12.4023 12.6433C12.2216 12.8241 12.12 13.0693 12.12 13.325C12.12 13.5807 12.2216 13.8259 12.4023 14.0066C12.5831 14.1874 12.8283 14.289 13.084 14.289ZM10.674 13.325C10.6782 13.4541 10.6563 13.5828 10.6098 13.7033C10.5632 13.8239 10.4929 13.9338 10.403 14.0266C10.3132 14.1194 10.2055 14.1933 10.0866 14.2437C9.9676 14.2941 9.83971 14.32 9.7105 14.32C9.58129 14.32 9.4534 14.2941 9.33443 14.2437C9.21546 14.1933 9.10784 14.1194 9.01796 14.0266C8.92808 13.9338 8.85778 13.8239 8.81123 13.7033C8.76468 13.5828 8.74284 13.4541 8.747 13.325C8.747 13.0693 8.84856 12.8241 9.02935 12.6433C9.21013 12.4626 9.45533 12.361 9.711 12.361C9.96667 12.361 10.2119 12.4626 10.3927 12.6433C10.5734 12.8241 10.675 13.0693 10.675 13.325M6.338 14.289C6.59367 14.289 6.83887 14.1874 7.01965 14.0066C7.20044 13.8259 7.302 13.5807 7.302 13.325C7.302 13.0693 7.20044 12.8241 7.01965 12.6433C6.83887 12.4626 6.59367 12.361 6.338 12.361C6.08233 12.361 5.83713 12.4626 5.65635 12.6433C5.47556 12.8241 5.374 13.0693 5.374 13.325C5.374 13.5807 5.47556 13.8259 5.65635 14.0066C5.83713 14.1874 6.08233 14.289 6.338 14.289Z" fill="black"/>
<path d="M15.17 2C16.321 2 17.237 2 17.972 2.07C18.725 2.141 19.362 2.292 19.929 2.64C20.512 2.99728 21.0023 3.48726 21.36 4.07C21.708 4.637 21.858 5.274 21.93 6.027C22 6.763 22 7.678 22 8.83V9.617C22 10.437 22 11.089 21.964 11.617C21.927 12.158 21.85 12.623 21.67 13.057C21.4463 13.5967 21.1159 14.0857 20.6987 14.4947C20.2815 14.9036 19.786 15.2241 19.242 15.437C19.1146 15.4863 19.0033 15.527 18.908 15.559C18.922 15.09 18.922 14.556 18.922 13.954V13.061C18.922 11.86 18.922 10.853 18.844 10.035C18.762 9.178 18.585 8.375 18.132 7.635C17.6903 6.91453 17.0844 6.30871 16.364 5.867C15.626 5.415 14.822 5.237 13.964 5.156C13.147 5.078 12.14 5.078 10.938 5.078H8.48298C7.66698 5.078 6.94098 5.078 6.30298 5.102C6.33298 4.999 6.37298 4.882 6.42098 4.742C6.50098 4.50733 6.60598 4.284 6.73598 4.072C7.0933 3.48817 7.58365 2.99713 8.16698 2.639C8.73498 2.292 9.37198 2.141 10.125 2.069C10.859 2 11.775 2 12.927 2H15.17Z" fill="black"/>
</g>
<defs>
<clipPath id="clip0_221_17746">
<rect width="24" height="24" fill="white"/>
</clipPath>
</defs>
</svg>
