<svg width="24" height="24" viewBox="0 0 24 24" fill="none" xmlns="http://www.w3.org/2000/svg">
<g clip-path="url(#clip0_221_17784)">
<path fill-rule="evenodd" clip-rule="evenodd" d="M14 5H10C6.229 5 4.343 5 3.172 6.172C2.001 7.344 2 9.229 2 13C2 16.771 2 18.657 3.172 19.828C4.344 20.999 6.229 21 10 21H14C17.771 21 19.657 21 20.828 19.828C21.999 18.656 22 16.771 22 13C22 11.547 22 10.373 21.933 9.413C21.1177 10.116 20.0765 10.5018 19 10.5C18.521 10.5 18.06 10.425 17.627 10.287L16.284 11.407C15.397 12.145 14.679 12.744 14.044 13.152C13.384 13.577 12.741 13.845 12 13.845C11.259 13.845 10.616 13.576 9.955 13.152C9.321 12.744 8.603 12.145 7.716 11.407L5.52 9.577C5.3671 9.44969 5.27104 9.26687 5.25294 9.06873C5.23484 8.8706 5.2962 8.6734 5.4235 8.5205C5.5508 8.3676 5.73363 8.27154 5.93176 8.25344C6.1299 8.23534 6.3271 8.29669 6.48 8.424L8.639 10.223C9.572 11 10.219 11.538 10.767 11.89C11.296 12.23 11.655 12.345 12 12.345C12.345 12.345 12.704 12.231 13.233 11.89C13.78 11.538 14.428 11 15.361 10.223L16.201 9.523C15.5355 8.99649 15.0328 8.29216 14.7512 7.49164C14.4696 6.69113 14.4207 5.8272 14.61 5H14Z" fill="black"/>
<path fill-rule="evenodd" clip-rule="evenodd" d="M23.0244 3.44116C23.1664 3.58391 23.2469 3.77677 23.2469 3.97874C23.2469 4.17996 23.1664 4.37358 23.0244 4.51557L18.9744 8.56489C18.6843 8.85571 18.2082 8.86102 17.9113 8.57628L15.8871 6.63249C15.7375 6.48898 15.6532 6.29156 15.6532 6.08503C15.6532 5.66818 15.9964 5.32498 16.4133 5.32498C16.6092 5.32498 16.7982 5.40091 16.9394 5.53682L18.4277 6.96582L21.9508 3.44268C22.2454 3.14807 22.7298 3.14807 23.0244 3.44268" fill="black"/>
</g>
<defs>
<clipPath id="clip0_221_17784">
<rect width="24" height="24" fill="white"/>
</clipPath>
</defs>
</svg>
