<svg width="24" height="24" viewBox="0 0 24 24" fill="none" xmlns="http://www.w3.org/2000/svg">
<g clip-path="url(#clip0_221_17867)">
<path fill-rule="evenodd" clip-rule="evenodd" d="M13.087 21.388L13.629 20.472C14.049 19.761 14.259 19.406 14.597 19.21C14.9341 19.0135 15.3578 19.006 16.2034 18.9911L16.21 18.991C17.466 18.969 18.253 18.893 18.913 18.619C19.5198 18.3678 20.0712 17.9996 20.5357 17.5353C21.0002 17.071 21.3686 16.5197 21.62 15.913C22 14.995 22 13.83 22 11.5V10.5C22 7.228 22 5.59 21.263 4.387C20.8508 3.71456 20.2854 3.14917 19.613 2.737C18.41 2 16.773 2 13.5 2H10.5C7.228 2 5.59 2 4.387 2.737C3.71445 3.14945 3.14904 3.7152 2.737 4.388C2 5.59 2 7.227 2 10.5V11.5C2 13.83 2 14.995 2.381 15.913C2.63227 16.5196 3.00057 17.0708 3.46487 17.5351C3.92917 17.9994 4.48037 18.3677 5.087 18.619C5.747 18.893 6.534 18.97 7.79 18.991L7.79664 18.9911C8.64221 19.006 9.06588 19.0135 9.403 19.21C9.7401 19.4055 9.94988 19.7601 10.3677 20.4663L10.913 21.388C11.397 22.204 12.604 22.204 13.087 21.388ZM12.5232 6.38703C12.3826 6.24638 12.1918 6.16736 11.9929 6.16736C11.794 6.16736 11.6032 6.24638 11.4626 6.38703C11.3219 6.52768 11.2429 6.71845 11.2429 6.91736V10.9174C11.2429 11.1163 11.3219 11.307 11.4626 11.4477C11.6032 11.5883 11.794 11.6674 11.9929 11.6674C12.1918 11.6674 12.3826 11.5883 12.5232 11.4477C12.6639 11.307 12.7429 11.1163 12.7429 10.9174V6.91736C12.7429 6.71845 12.6639 6.52768 12.5232 6.38703ZM12.7 14.6245C12.5125 14.812 12.2581 14.9174 11.9929 14.9174C11.7277 14.9174 11.4733 14.812 11.2858 14.6245C11.0983 14.4369 10.9929 14.1826 10.9929 13.9174C10.9929 13.6521 11.0983 13.3978 11.2858 13.2103C11.4733 13.0227 11.7277 12.9174 11.9929 12.9174C12.2581 12.9174 12.5125 13.0227 12.7 13.2103C12.8876 13.3978 12.9929 13.6521 12.9929 13.9174C12.9929 14.1826 12.8876 14.4369 12.7 14.6245Z" fill="black"/>
</g>
<defs>
<clipPath id="clip0_221_17867">
<rect width="24" height="24" fill="white"/>
</clipPath>
</defs>
</svg>
