<svg width="24" height="24" viewBox="0 0 24 24" fill="none" xmlns="http://www.w3.org/2000/svg">
<g clip-path="url(#clip0_221_17720)">
<path fill-rule="evenodd" clip-rule="evenodd" d="M22 12C22 17.523 17.523 22 12 22C10.4551 22.002 8.93095 21.6446 7.548 20.956C7.19414 20.7727 6.78538 20.7254 6.399 20.823L4.173 21.419C3.95267 21.4778 3.72075 21.4776 3.50053 21.4184C3.2803 21.3593 3.07951 21.2432 2.91831 21.0819C2.75712 20.9206 2.64119 20.7197 2.58216 20.4995C2.52312 20.2792 2.52307 20.0473 2.582 19.827L3.177 17.601C3.28 17.216 3.221 16.809 3.043 16.453C2.376 15.112 2 13.6 2 12C2 6.477 6.477 2 12 2C17.523 2 22 6.477 22 12ZM15.2929 12.7071C15.1054 12.5196 15 12.2652 15 12C15 11.7348 15.1054 11.4804 15.2929 11.2929C15.4804 11.1054 15.7348 11 16 11C16.2652 11 16.5196 11.1054 16.7071 11.2929C16.8946 11.4804 17 11.7348 17 12C17 12.2652 16.8946 12.5196 16.7071 12.7071C16.5196 12.8946 16.2652 13 16 13C15.7348 13 15.4804 12.8946 15.2929 12.7071ZM11.2929 12.7071C11.1054 12.5196 11 12.2652 11 12C11 11.7348 11.1054 11.4804 11.2929 11.2929C11.4804 11.1054 11.7348 11 12 11C12.2652 11 12.5196 11.1054 12.7071 11.2929C12.8946 11.4804 13 11.7348 13 12C13 12.2652 12.8946 12.5196 12.7071 12.7071C12.5196 12.8946 12.2652 13 12 13C11.7348 13 11.4804 12.8946 11.2929 12.7071ZM7.29289 12.7071C7.10536 12.5196 7 12.2652 7 12C7 11.7348 7.10536 11.4804 7.29289 11.2929C7.48043 11.1054 7.73478 11 8 11C8.26522 11 8.51957 11.1054 8.70711 11.2929C8.89464 11.4804 9 11.7348 9 12C9 12.2652 8.89464 12.5196 8.70711 12.7071C8.51957 12.8946 8.26522 13 8 13C7.73478 13 7.48043 12.8946 7.29289 12.7071Z" fill="black"/>
</g>
<defs>
<clipPath id="clip0_221_17720">
<rect width="24" height="24" fill="white"/>
</clipPath>
</defs>
</svg>
