<svg width="24" height="24" viewBox="0 0 24 24" fill="none" xmlns="http://www.w3.org/2000/svg">
<path d="M7.67684 7.5487L7.79949 7.30542C8.36512 6.17519 8.82025 5.26897 9.25512 4.62631C9.71836 3.94412 10.2566 3.41093 11.0179 3.26091C11.2723 3.21124 11.5359 3.19705 11.7943 3.21935C12.5668 3.28929 13.1557 3.75659 13.6868 4.38405C14.1835 4.97298 14.7269 5.81939 15.403 6.87461L15.401 6.87158L15.4303 6.91617C15.9453 7.719 16.3872 8.4245 16.6234 8.83301C16.8596 9.24151 17.2488 9.97642 17.6867 10.8238L17.7091 10.8684C18.2848 11.9814 18.746 12.8755 19.0076 13.6003C19.2853 14.3737 19.3958 15.1177 19.0694 15.8212C18.9599 16.0574 18.817 16.2773 18.6447 16.473C18.1338 17.0579 17.405 17.2586 16.5819 17.3174C15.812 17.3718 14.8087 17.313 13.5562 17.2396L13.5338 17.2383H13.5429L13.2621 17.2221C12.8212 17.1957 12.6701 17.1876 12.5282 17.2028C12.3823 17.218 12.2414 17.2515 12.1035 17.3032C12.1029 17.3038 12.1027 17.304 12.1024 17.3041C12.1022 17.3042 12.1028 17.3041 12.1024 17.3041C11.9686 17.3528 11.8369 17.4278 11.4558 17.6488L11.3159 17.7269C11.3203 17.7256 11.3244 17.7236 11.3285 17.7215C11.331 17.7202 11.3335 17.7189 11.3362 17.7178L11.2933 17.7425C11.0743 17.8688 10.7467 18.0577 10.3641 18.2743C10.6317 18.6088 10.9865 18.9848 11.4071 19.2656C11.9129 19.6032 12.5353 19.7927 13.2114 19.4025C13.6149 19.1693 14.1318 19.3082 14.364 19.7116C14.5971 20.1141 14.4582 20.631 14.0558 20.8632C12.7127 21.6386 11.473 21.3386 10.4695 20.6685C9.79742 20.2195 9.247 19.592 8.87397 19.0943C7.89984 19.6123 6.95613 20.0613 6.60135 20.0928C6.60034 20.0938 6.59933 20.0938 6.59933 20.0938C5.88064 20.1455 5.16397 19.9772 4.54463 19.6103C4.54412 19.6098 4.54362 19.6095 4.54311 19.6092C4.54261 19.609 4.5421 19.6087 4.54159 19.6082C3.92427 19.2271 3.55225 18.6726 3.02616 17.8779L2.96534 17.7857C2.79505 17.5292 2.63185 17.2677 2.47676 17.0011H2.47574C2.32977 16.7467 2.18279 16.4689 2.04088 16.1851L2.04393 16.1902L1.99324 16.0878L1.99121 16.0858C1.56649 15.2333 1.27252 14.6332 1.25022 13.9074V13.9044C1.24212 13.1836 1.45398 12.4792 1.85843 11.8831L1.86045 11.8811C1.98716 11.7007 2.36221 11.4026 2.85384 11.0671C3.95569 10.313 5.6546 9.33173 6.28509 8.96884L6.40368 8.89991C6.78685 8.67893 6.9166 8.60291 7.02709 8.51269C7.13961 8.41842 7.23996 8.31199 7.32714 8.19339C7.41229 8.07783 7.48019 7.94302 7.67684 7.5487Z" fill="black"/>
<path d="M21.2295 11.4858C21.2184 6.13058 16.6954 3.53663 16.6954 3.53663C16.3305 3.32883 16.2038 2.86355 16.4126 2.49965C16.6214 2.13473 17.0857 2.00904 17.4506 2.21684C17.4506 2.21684 22.7368 5.23653 22.75 11.4827C22.751 11.9024 22.4114 12.243 21.9918 12.244C21.5721 12.245 21.2305 11.9054 21.2295 11.4858Z" fill="black"/>
<path d="M18.2706 10.4082L18.2615 10.3271L18.1794 9.95716C18.0811 9.60542 17.8793 9.06108 17.4668 8.34543C17.0542 7.6308 16.6842 7.18378 16.4278 6.92327L16.148 6.66681L16.0831 6.61917C15.9848 6.55227 15.9027 6.46408 15.8439 6.36068C15.627 5.98462 15.7578 5.49705 16.1338 5.27911C16.372 5.14227 16.665 5.13821 16.9072 5.26897L17.1262 5.42406C17.2793 5.54469 17.4232 5.67545 17.559 5.81534C17.9037 6.16809 18.3558 6.72155 18.8373 7.55478C19.3177 8.38801 19.5701 9.05703 19.7039 9.53142C19.7708 9.77369 19.8083 9.96527 19.8276 10.1041L19.8509 10.3332C19.858 10.7681 19.5093 11.1604 19.0734 11.1675C18.6467 11.1746 18.2879 10.834 18.2706 10.4082Z" fill="black"/>
</svg>
