<svg width="24" height="24" viewBox="0 0 24 24" fill="none" xmlns="http://www.w3.org/2000/svg">
<g clip-path="url(#clip0_221_17843)">
<path fill-rule="evenodd" clip-rule="evenodd" d="M3.692 10.372C4.075 10.372 4.385 10.685 4.385 11.07V12.93C4.385 17.169 7.795 20.605 12 20.605C16.206 20.605 19.615 17.169 19.615 12.93V11.07C19.615 10.684 19.925 10.372 20.308 10.372C20.691 10.372 21 10.685 21 11.07V12.93C21 17.94 16.97 22 12 22C7.03 22 3 17.94 3 12.93V11.07C3 10.684 3.31 10.372 3.692 10.372Z" fill="black"/>
<path fill-rule="evenodd" clip-rule="evenodd" d="M12 2C8.55902 2 5.77002 4.811 5.77002 8.28V12.93C5.77002 16.398 8.55902 19.21 12 19.21C15.441 19.21 18.23 16.398 18.23 12.93V8.28C18.23 4.81 15.442 2 12 2ZM9.67802 7.39C9.5443 7.26249 9.46641 7.08727 9.46135 6.90256C9.4563 6.71786 9.52447 6.53864 9.65102 6.404L10.154 6.884L9.65202 6.404L9.65402 6.401L9.65702 6.398L9.66402 6.39L9.72402 6.335C9.76533 6.30029 9.80803 6.26726 9.85202 6.236C9.98892 6.14318 10.1354 6.0654 10.289 6.004C10.668 5.85 11.219 5.721 12 5.721C12.781 5.721 13.332 5.85 13.711 6.004C13.901 6.081 14.043 6.164 14.148 6.236C14.2147 6.28216 14.2776 6.33367 14.336 6.39L14.343 6.398L14.346 6.401L14.348 6.403C14.348 6.403 14.349 6.404 13.856 6.874L14.349 6.404C14.612 6.684 14.599 7.126 14.322 7.391C14.1938 7.51298 14.0235 7.581 13.8465 7.581C13.6695 7.581 13.4993 7.51298 13.371 7.391L13.364 7.386C13.3097 7.35118 13.2521 7.32171 13.192 7.298C13 7.22 12.63 7.116 12 7.116C11.37 7.116 11 7.22 10.808 7.298C10.748 7.32171 10.6904 7.35118 10.636 7.386L10.629 7.391C10.5008 7.51269 10.3308 7.58053 10.154 7.58053C9.97726 7.58053 9.80723 7.51269 9.67902 7.391M9.67902 10.182C9.5453 10.0545 9.46741 9.87927 9.46235 9.69456C9.4573 9.50986 9.52547 9.33064 9.65202 9.196L9.65302 9.194L9.65502 9.193L9.65802 9.189L9.66502 9.182L9.72502 9.126C9.76635 9.09163 9.80905 9.05893 9.85302 9.028C9.98992 8.93518 10.1364 8.85739 10.29 8.796C10.669 8.642 11.22 8.513 12.001 8.513C12.782 8.513 13.333 8.642 13.712 8.796C13.902 8.873 14.044 8.956 14.149 9.028C14.2157 9.07416 14.2786 9.12567 14.337 9.182L14.344 9.189L14.347 9.193L14.349 9.194C14.349 9.194 14.35 9.196 13.857 9.665L14.35 9.196C14.613 9.476 14.6 9.918 14.323 10.182C14.1948 10.304 14.0245 10.372 13.8475 10.372C13.6705 10.372 13.5003 10.304 13.372 10.182L13.365 10.178C13.3107 10.1432 13.2531 10.1137 13.193 10.09C13 10.01 12.63 9.907 12 9.907C11.37 9.907 11 10.011 10.808 10.089C10.748 10.1127 10.6904 10.1422 10.636 10.177L10.629 10.182C10.5008 10.3037 10.3308 10.3715 10.154 10.3715C9.97726 10.3715 9.80723 10.3037 9.67902 10.182Z" fill="black"/>
</g>
<defs>
<clipPath id="clip0_221_17843">
<rect width="24" height="24" fill="white"/>
</clipPath>
</defs>
</svg>
