<svg width="24" height="24" viewBox="0 0 24 24" fill="none" xmlns="http://www.w3.org/2000/svg">
<path d="M14.8253 9.08502L14.8233 9.08601L14.8223 9.08901L14.8173 9.09899C14.7973 9.15291 14.7853 9.20983 14.7803 9.26674C14.7514 9.47643 14.7494 9.76999 14.7494 10.2632C14.7494 10.7565 14.7514 11.0501 14.7803 11.2608C14.7863 11.3207 14.8003 11.3806 14.8223 11.4375L14.8233 11.4405L14.8263 11.4415L14.8363 11.4465C14.8582 11.4555 14.9062 11.4704 15.003 11.4834C15.2127 11.5114 15.5072 11.5134 15.9995 11.5134C16.4928 11.5134 16.7863 11.5114 16.997 11.4834C17.0569 11.4774 17.1168 11.4625 17.1738 11.4415L17.1767 11.4405L17.1777 11.4375L17.1827 11.4275C17.2017 11.3736 17.2147 11.3177 17.2197 11.2608C17.2476 11.0501 17.2496 10.7565 17.2496 10.2632C17.2496 9.76999 17.2476 9.47643 17.2197 9.26674C17.2137 9.20583 17.1997 9.14592 17.1777 9.08901L17.1767 9.08601L17.1738 9.08502L17.1638 9.08002C17.1098 9.06105 17.0539 9.04907 16.997 9.04308C16.7863 9.01512 16.4928 9.01312 15.9995 9.01312C15.5072 9.01312 15.2127 9.01512 15.003 9.04308C14.9421 9.05007 14.8822 9.06405 14.8253 9.08502Z" fill="black"/>
<path fill-rule="evenodd" clip-rule="evenodd" d="M9.94359 3.51367H14.0554C15.8937 3.51367 17.3495 3.51367 18.4888 3.66644C19.661 3.82421 20.6096 4.15671 21.3585 4.90459C22.1064 5.65347 22.4389 6.60205 22.5966 7.77429C22.6865 8.44728 22.7234 9.2301 22.7384 10.1377C22.7514 10.2136 22.7524 10.2905 22.7424 10.3674C22.7484 10.9326 22.7514 11.5456 22.7494 12.2076V12.3195C22.7494 14.1567 22.7494 15.6135 22.5966 16.7518C22.4389 17.9241 22.1064 18.8726 21.3585 19.6215C20.6096 20.3704 19.661 20.7019 18.4888 20.8597C17.3485 21.0134 15.8937 21.0134 14.0554 21.0134H9.94359C8.10634 21.0134 6.65052 21.0134 5.51123 20.8597C4.33898 20.7019 3.39041 20.3704 2.64153 19.6215C1.89365 18.8726 1.56115 17.9241 1.40339 16.7518C1.25062 15.6125 1.25062 14.1567 1.25062 12.3195V12.2076C1.24862 11.5456 1.25161 10.9326 1.25761 10.3674C1.24762 10.2905 1.24862 10.2136 1.2606 10.1377C1.27658 9.2301 1.31352 8.44728 1.40339 7.77429C1.56115 6.60205 1.89365 5.65347 2.64153 4.90459C3.39041 4.15671 4.33898 3.82421 5.51123 3.66644C6.65152 3.51367 8.10634 3.51367 9.94359 3.51367ZM6.0001 16.0131C5.58836 16.0131 5.25012 16.3514 5.25012 16.7631C5.25012 17.1748 5.58836 17.5131 6.0001 17.5131H11.6879C12.0989 17.5131 12.4379 17.1748 12.4379 16.7631C12.4379 16.3514 12.0989 16.0131 11.6879 16.0131H6.0001ZM15.9546 7.51337H16.0444C16.4778 7.51337 16.8752 7.51337 17.1967 7.5563C17.5532 7.60423 17.9276 7.71606 18.2372 8.0266C18.5457 8.33613 18.6585 8.71057 18.7065 9.06604C18.7494 9.38955 18.7494 9.78596 18.7494 10.2183V10.3082C18.7494 10.7415 18.7494 11.1379 18.7065 11.4605C18.6585 11.8159 18.5467 12.1914 18.2372 12.4999C17.9266 12.8094 17.5532 12.9223 17.1967 12.9702C16.8742 13.0131 16.4768 13.0131 16.0445 13.0131H15.9546C15.5222 13.0131 15.1248 13.0131 14.8033 12.9702C14.4468 12.9223 14.0714 12.8104 13.7629 12.4999C13.4543 12.1904 13.3405 11.8159 13.2926 11.4605C13.2496 11.1369 13.2496 10.7405 13.2496 10.3082V10.2183C13.2496 9.78497 13.2496 9.38855 13.2926 9.06604C13.3405 8.71057 13.4533 8.33513 13.7629 8.0266C14.0724 7.71706 14.4468 7.60423 14.8033 7.5563C15.1258 7.51337 15.5232 7.51337 15.9546 7.51337ZM6.0001 13.0132C5.58836 13.0132 5.25012 13.3515 5.25012 13.7632C5.25012 14.1749 5.58836 14.5132 6.0001 14.5132H9.003C9.41474 14.5132 9.75298 14.1749 9.75298 13.7632C9.75298 13.3515 9.41474 13.0132 9.003 13.0132H6.0001Z" fill="black"/>
</svg>
