<svg width="24" height="24" viewBox="0 0 24 24" fill="none" xmlns="http://www.w3.org/2000/svg">
<g clip-path="url(#clip0_221_17725)">
<path d="M13.629 20.472L13.087 21.388C12.604 22.204 11.397 22.204 10.913 21.388L10.371 20.472C9.951 19.762 9.741 19.406 9.403 19.21C9.065 19.013 8.64 19.006 7.79 18.991C6.534 18.97 5.747 18.893 5.087 18.619C4.48037 18.3677 3.92917 17.9994 3.46487 17.5351C3.00057 17.0708 2.63227 16.5196 2.381 15.913C2 14.995 2 13.83 2 11.5V10.5C2 7.227 2 5.59 2.737 4.388C3.14904 3.7152 3.71445 3.14945 4.387 2.737C5.59 2 7.228 2 10.5 2H13.5C16.773 2 18.41 2 19.613 2.737C20.2854 3.14916 20.8508 3.71456 21.263 4.387C22 5.59 22 7.228 22 10.5V11.5C22 13.83 22 14.995 21.62 15.913C21.3686 16.5197 21.0002 17.071 20.5357 17.5353C20.0712 17.9996 19.5198 18.3678 18.913 18.619C18.253 18.893 17.466 18.969 16.21 18.991C15.36 19.006 14.935 19.013 14.597 19.21C14.259 19.406 14.049 19.761 13.629 20.472Z" fill="black"/>
</g>
<defs>
<clipPath id="clip0_221_17725">
<rect width="24" height="24" fill="white"/>
</clipPath>
</defs>
</svg>
