<svg width="24" height="24" viewBox="0 0 24 24" fill="none" xmlns="http://www.w3.org/2000/svg">
<g clip-path="url(#clip0_221_17778)">
<path fill-rule="evenodd" clip-rule="evenodd" d="M14 5H10C6.229 5 4.343 5 3.172 6.172C2.001 7.344 2 9.229 2 13C2 16.771 2 18.657 3.172 19.828C4.344 20.999 6.229 21 10 21H14C17.771 21 19.657 21 20.828 19.828C21.999 18.656 22 16.771 22 13C22 11.547 22 10.373 21.933 9.413C21.1177 10.116 20.0765 10.5018 19 10.5C18.521 10.5 18.06 10.425 17.627 10.287L16.284 11.407C15.397 12.145 14.679 12.744 14.044 13.152C13.384 13.577 12.741 13.845 12 13.845C11.259 13.845 10.616 13.576 9.955 13.152C9.321 12.744 8.603 12.145 7.716 11.407L5.52 9.577C5.3671 9.44969 5.27104 9.26687 5.25294 9.06873C5.23484 8.8706 5.2962 8.6734 5.4235 8.5205C5.5508 8.3676 5.73363 8.27154 5.93176 8.25344C6.1299 8.23534 6.3271 8.29669 6.48 8.424L8.639 10.223C9.572 11 10.219 11.538 10.767 11.89C11.296 12.23 11.655 12.345 12 12.345C12.345 12.345 12.704 12.231 13.233 11.89C13.78 11.538 14.428 11 15.361 10.223L16.201 9.523C15.5355 8.99649 15.0328 8.29216 14.7512 7.49164C14.4696 6.69113 14.4207 5.8272 14.61 5H14Z" fill="black"/>
<path fill-rule="evenodd" clip-rule="evenodd" d="M16.4676 3.46882C16.7588 3.17769 17.2387 3.17769 17.5306 3.46882L19.0051 4.94329L20.4795 3.46882C20.6217 3.31611 20.8211 3.2296 21.0302 3.2296C21.4424 3.2296 21.7825 3.56888 21.7825 3.98188C21.7825 4.19026 21.6952 4.39036 21.5425 4.53254L20.068 6.00701L21.5425 7.48147C21.6952 7.62365 21.7825 7.823 21.7825 8.03138C21.7825 8.44438 21.4424 8.78366 21.0302 8.78366C20.8211 8.78366 20.6217 8.69715 20.4795 8.54444L19.0051 7.06997L17.5306 8.54444C17.3884 8.69715 17.1891 8.78366 16.9799 8.78366C16.5677 8.78366 16.2277 8.44438 16.2277 8.03138C16.2277 7.823 16.3149 7.62365 16.4676 7.48147L17.9421 6.00701L16.4676 4.53254C16.1758 4.24066 16.1758 3.76071 16.4676 3.46882Z" fill="black"/>
</g>
<defs>
<clipPath id="clip0_221_17778">
<rect width="24" height="24" fill="white"/>
</clipPath>
</defs>
</svg>
