<svg width="24" height="24" viewBox="0 0 24 24" fill="none" xmlns="http://www.w3.org/2000/svg">
<g clip-path="url(#clip0_221_17885)">
<path d="M19.8582 6.3628V3.04229C19.8582 2.7109 19.5209 2.43867 19.1104 2.43867C18.6999 2.43867 18.3627 2.7109 18.3627 3.04229V6.38333L17.4549 5.47513C17.1654 5.18636 16.6893 5.18636 16.3998 5.47513C16.111 5.76465 16.111 6.2407 16.3998 6.53021L18.5726 8.703C18.8622 8.99177 19.3382 8.99177 19.6277 8.703L21.7842 6.54648C21.9357 6.40546 22.0215 6.20698 22.0215 6.00029C22.0215 5.59064 21.685 5.25412 21.2754 5.25412C21.0687 5.25412 20.8702 5.33993 20.7292 5.4914L19.8582 6.3628Z" fill="black"/>
<path d="M10 5C6.229 5 4.343 5 3.172 6.172C2.001 7.344 2 9.229 2 13C2 16.771 2 18.657 3.172 19.828C4.344 20.999 6.229 21 10 21H14C17.771 21 19.657 21 20.828 19.828C21.999 18.656 22 16.771 22 13C22 11.547 22 10.373 21.933 9.413C21.1177 10.116 20.0765 10.5018 19 10.5C18.521 10.5 18.06 10.425 17.627 10.287L16.284 11.407L16.2493 11.4359C15.3782 12.1606 14.6707 12.7493 14.044 13.152C13.384 13.577 12.741 13.845 12 13.845C11.259 13.845 10.616 13.576 9.955 13.152C9.32935 12.7494 8.6219 12.1607 7.75096 11.4361L5.52 9.577C5.3671 9.4497 5.27104 9.26687 5.25294 9.06874C5.23484 8.8706 5.2962 8.6734 5.4235 8.5205C5.5508 8.3676 5.73363 8.27154 5.93176 8.25344C6.1299 8.23534 6.3271 8.2967 6.48 8.424L8.639 10.223C9.572 11 10.219 11.538 10.767 11.89C11.296 12.23 11.655 12.345 12 12.345C12.345 12.345 12.704 12.231 13.233 11.89C13.78 11.538 14.428 11 15.361 10.223L16.201 9.523C15.5355 8.99649 15.0328 8.29216 14.7512 7.49164C14.4696 6.69113 14.4207 5.82721 14.61 5H10Z" fill="black"/>
</g>
<defs>
<clipPath id="clip0_221_17885">
<rect width="24" height="24" fill="white"/>
</clipPath>
</defs>
</svg>
