<svg width="24" height="24" viewBox="0 0 24 24" fill="none" xmlns="http://www.w3.org/2000/svg">
<g clip-path="url(#clip0_221_17879)">
<path fill-rule="evenodd" clip-rule="evenodd" d="M14 5H10C6.229 5 4.343 5 3.172 6.172C2.001 7.344 2 9.229 2 13C2 16.771 2 18.657 3.172 19.828C4.344 20.999 6.229 21 10 21H14C17.771 21 19.657 21 20.828 19.828C21.999 18.656 22 16.771 22 13C22 11.547 22 10.373 21.933 9.413C21.1177 10.116 20.0765 10.5018 19 10.5C18.521 10.5 18.06 10.425 17.627 10.287L16.284 11.407C15.397 12.145 14.679 12.744 14.044 13.152C13.384 13.577 12.741 13.845 12 13.845C11.259 13.845 10.616 13.576 9.955 13.152C9.321 12.744 8.603 12.145 7.716 11.407L5.52 9.577C5.3671 9.4497 5.27104 9.26687 5.25294 9.06874C5.23484 8.8706 5.2962 8.6734 5.4235 8.5205C5.5508 8.3676 5.73363 8.27154 5.93176 8.25344C6.1299 8.23534 6.3271 8.2967 6.48 8.424L8.639 10.223C9.572 11 10.219 11.538 10.767 11.89C11.296 12.23 11.655 12.345 12 12.345C12.345 12.345 12.704 12.231 13.233 11.89C13.78 11.538 14.428 11 15.361 10.223L16.201 9.523C15.5355 8.99649 15.0328 8.29216 14.7512 7.49164C14.4696 6.69113 14.4207 5.82721 14.61 5H14Z" fill="black"/>
<path fill-rule="evenodd" clip-rule="evenodd" d="M21.8248 6.28759C21.5448 7.28959 20.6128 8.0266 19.5058 8.0266C18.6688 8.0286 17.8878 7.59559 17.4478 6.88459C17.3308 6.69559 17.1228 6.5796 16.9008 6.5796C16.5478 6.5796 16.2568 6.8706 16.2568 7.2236C16.2568 7.3426 16.2908 7.4596 16.3528 7.5606C17.0288 8.6506 18.2238 9.3156 19.5058 9.3126C21.3208 9.3126 22.8318 8.0146 23.1398 6.3016C23.1488 6.3026 23.1588 6.30259 23.1678 6.30259C23.5208 6.30259 23.8108 6.0116 23.8108 5.6596C23.8108 5.4836 23.7388 5.3166 23.6128 5.1956L23.6138 5.1966L23.0068 4.59561C22.7578 4.34961 22.3508 4.3496 22.1018 4.5966L21.4928 5.1986C21.3698 5.3196 21.3018 5.4846 21.3018 5.6556C21.3018 5.9686 21.5288 6.23159 21.8248 6.28759ZM15.9518 4.5306C15.9448 4.5306 15.9388 4.5306 15.9318 4.5306C15.5788 4.5306 15.2878 4.82059 15.2878 5.17359C15.2878 5.34559 15.3568 5.50959 15.4788 5.63059L16.0858 6.23361C16.3348 6.47961 16.7428 6.47961 16.9918 6.23361L17.5998 5.63059C17.7208 5.50959 17.7898 5.34559 17.7898 5.17359C17.7898 4.86259 17.5638 4.5996 17.2678 4.5426C17.5468 3.5406 18.4738 2.8036 19.5768 2.8036C20.4108 2.8016 21.1868 3.2346 21.6238 3.9436C21.6258 3.9466 21.6268 3.94959 21.6288 3.95159C21.7478 4.13359 21.9508 4.2436 22.1678 4.2436C22.5208 4.2436 22.8108 3.95359 22.8108 3.60059C22.8108 3.48759 22.7808 3.3756 22.7238 3.2776C22.7228 3.2746 22.7208 3.2726 22.7188 3.2696C22.0478 2.1796 20.8558 1.5156 19.5758 1.5166C17.7658 1.5176 16.2578 2.8176 15.9518 4.5306ZM21.9458 6.2216V6.19959L21.9448 6.2246L21.9458 6.2216ZM21.9488 6.19959V6.2066L21.9508 6.1986L21.9488 6.19959Z" fill="black"/>
</g>
<defs>
<clipPath id="clip0_221_17879">
<rect width="24" height="24" fill="white"/>
</clipPath>
</defs>
</svg>
