<svg width="24" height="24" viewBox="0 0 24 24" fill="none" xmlns="http://www.w3.org/2000/svg">
<g clip-path="url(#clip0_221_17838)">
<path d="M8.35194 20.242C8.78709 20.7923 9.34159 21.2364 9.97355 21.541C10.6055 21.8455 11.2984 22.0025 11.9999 22C12.7015 22.0025 13.3944 21.8455 14.0263 21.541C14.6583 21.2364 15.2128 20.7923 15.6479 20.242C13.227 20.5697 10.7729 20.5697 8.35194 20.242ZM18.7499 9V9.704C18.7499 10.549 18.9899 11.375 19.4419 12.078L20.5499 13.801C21.5609 15.375 20.7889 17.514 19.0299 18.011C14.4337 19.3127 9.56623 19.3127 4.96994 18.011C3.21094 17.514 2.43894 15.375 3.44994 13.801L4.55794 12.078C5.01115 11.3692 5.25165 10.5453 5.25094 9.704V9C5.25094 5.134 8.27294 2 11.9999 2C15.7269 2 18.7499 5.134 18.7499 9Z" fill="black"/>
</g>
<defs>
<clipPath id="clip0_221_17838">
<rect width="24" height="24" fill="white"/>
</clipPath>
</defs>
</svg>
