<svg width="24" height="24" viewBox="0 0 24 24" fill="none" xmlns="http://www.w3.org/2000/svg">
<g clip-path="url(#clip0_221_18212)">
<path fill-rule="evenodd" clip-rule="evenodd" d="M11.0647 5.23571C11.0647 4.82397 11.4029 4.48572 11.8147 4.48572H21.8144C22.2261 4.48572 22.5644 4.82397 22.5644 5.23571C22.5644 5.64671 22.2261 5.98571 21.8144 5.98571H11.8147C11.4029 5.98571 11.0647 5.64671 11.0647 5.23571ZM11.0647 12.2354C11.0647 11.8237 11.4029 11.4854 11.8147 11.4854H21.8144C22.2261 11.4854 22.5644 11.8237 22.5644 12.2354C22.5644 12.6472 22.2261 12.9854 21.8144 12.9854H11.8147C11.4029 12.9854 11.0647 12.6472 11.0647 12.2354ZM11.0647 19.2351C11.0647 18.8241 11.4029 18.4851 11.8147 18.4851H21.8144C22.2261 18.4851 22.5644 18.8241 22.5644 19.2351C22.5644 19.6469 22.2261 19.9851 21.8144 19.9851H11.8147C11.4029 19.9851 11.0647 19.6469 11.0647 19.2351Z" fill="black"/>
<path fill-rule="evenodd" clip-rule="evenodd" d="M3.35595 17.7044C3.37895 17.8634 3.48195 18.0804 3.65795 18.2064C3.83095 18.3304 4.07695 18.3634 4.21895 18.3414C4.59495 18.2804 4.86095 17.9474 4.84895 17.5764C4.84495 17.5204 4.87695 17.4684 4.92795 17.4464V17.4454C5.05295 17.3914 5.22395 17.3674 5.45495 17.3684C5.65095 17.3694 5.78495 17.4144 5.88795 17.4774C6.07795 17.5934 6.07295 17.8924 6.04995 17.9064C6.04995 17.9064 5.96295 18.3184 5.33995 18.4094C4.95095 18.4664 4.67195 18.8144 4.69995 19.2064C4.72695 19.5704 5.00995 19.8584 5.36495 19.8974H5.36295C5.36295 19.8974 5.55895 19.9254 5.73995 19.9994C5.85895 20.0474 6.00495 20.1074 6.07095 20.2434C6.10795 20.3214 6.10095 20.4204 6.06995 20.5454C5.97395 20.9294 5.55395 20.9834 5.23595 20.8944C5.05395 20.8444 4.86995 20.7514 4.83795 20.5654C4.76895 20.1574 4.38195 19.8824 3.97395 19.9514C3.56595 20.0204 3.28995 20.4084 3.35995 20.8164C3.48895 21.5794 4.08695 22.1324 4.83395 22.3404C5.90695 22.6384 7.19995 22.2024 7.52495 20.9104C7.66095 20.3654 7.58695 19.9364 7.42295 19.5954C7.33795 19.4184 7.22495 19.2634 7.09495 19.1294C7.11495 19.1064 7.13495 19.0834 7.15295 19.0594C7.58295 18.5094 7.55495 17.9124 7.54595 17.7994C7.54595 17.7934 7.54495 17.7864 7.54495 17.7814C7.53395 17.5644 7.44795 16.7944 6.81295 16.2964C6.51295 16.0614 6.08695 15.8724 5.46395 15.8684C4.55895 15.8634 4.07195 16.1504 3.79195 16.4314C3.46295 16.7624 3.36995 17.1434 3.34895 17.3964C3.33595 17.5654 3.35295 17.6834 3.35595 17.7044Z" fill="black"/>
<path fill-rule="evenodd" clip-rule="evenodd" d="M3.55201 11.4264C3.56701 11.5974 3.67001 11.8444 3.85601 11.9824C4.01401 12.1004 4.24801 12.1244 4.37601 12.1114C4.76001 12.0724 5.04701 11.7484 5.05001 11.3714C5.04901 11.3324 5.05901 11.2944 5.07901 11.2614C5.14701 11.1924 5.30301 11.0734 5.66001 11.0734C5.83701 11.0734 5.96401 11.0784 6.03601 11.1504C6.08901 11.2044 6.07501 11.2864 6.07101 11.3584C6.06201 11.5084 6.01601 11.6544 5.96201 11.7454C5.47101 12.5684 3.97901 13.4054 3.97901 13.4054C3.68601 13.5764 3.54401 13.9224 3.63201 14.2494C3.72101 14.5764 4.01701 14.8044 4.35601 14.8044H6.79701C7.21101 14.8044 7.54701 14.4684 7.54701 14.0544C7.54701 13.6404 7.21101 13.3044 6.79701 13.3044H6.58901C6.85501 13.0484 7.09201 12.7794 7.25001 12.5144C7.43201 12.2084 7.59901 11.6884 7.56801 11.1874C7.54301 10.7804 7.39801 10.3914 7.09701 10.0904C6.81001 9.80339 6.36401 9.57339 5.66001 9.57339C4.77901 9.57339 4.29201 9.87139 4.00501 10.1724C3.69301 10.4994 3.59001 10.8744 3.56001 11.1234C3.54001 11.2894 3.55101 11.4044 3.55201 11.4264Z" fill="black"/>
<path fill-rule="evenodd" clip-rule="evenodd" d="M6.20937 7.04401V2.793C6.20937 2.379 5.87337 2.043 5.45937 2.043H4.09937C3.68537 2.043 3.34937 2.379 3.34937 2.793C3.34937 3.207 3.68537 3.543 4.09937 3.543H4.70937V7.04401H4.09937C3.68537 7.04401 3.34937 7.38001 3.34937 7.79401C3.34937 8.20801 3.68537 8.54401 4.09937 8.54401H6.79736C7.21136 8.54401 7.54736 8.20801 7.54736 7.79401C7.54736 7.38001 7.21136 7.04401 6.79736 7.04401H6.20937Z" fill="black"/>
</g>
<defs>
<clipPath id="clip0_221_18212">
<rect width="24" height="24" fill="white"/>
</clipPath>
</defs>
</svg>
