<svg width="24" height="24" viewBox="0 0 24 24" fill="none" xmlns="http://www.w3.org/2000/svg">
<g clip-path="url(#clip0_221_18033)">
<path d="M19.352 7.61699L15.392 4.05399C14.265 3.03899 13.702 2.53099 13.009 2.26599L13 4.99999C13 7.35699 13 8.53599 13.732 9.26799C14.464 9.99999 15.643 9.99999 18 9.99999H21.58C21.218 9.29599 20.568 8.71199 19.352 7.61699Z" fill="black"/>
<path d="M8.82866 18.3033C9.01973 18.1759 9.14712 17.9592 9.14712 17.7147V16.7449C9.14712 16.3587 8.82867 16.0413 8.44242 16.0413C8.05617 16.0413 7.73772 16.3587 7.73772 16.7449V17.7147C7.73772 17.9592 7.8651 18.1759 8.05616 18.3033H7.75612C7.18862 18.3033 6.78335 18.3033 6.4742 18.2612C6.29032 18.2345 6.17527 18.2067 6.09618 18.1256C6.01297 18.0393 5.98317 17.9129 5.95749 17.7095C5.91522 17.393 5.91528 16.9805 5.91536 16.4109C5.91536 16.3853 5.91537 16.3593 5.91537 16.333L5.91536 15.7916C5.91532 15.4635 5.91528 15.2264 5.93386 15.0377C5.94516 14.9144 5.95955 14.8332 5.99653 14.7644C6.03249 14.6987 6.09103 14.6452 6.18348 14.5744H6.18452C6.32515 14.4658 6.51087 14.3504 6.76798 14.1905C6.7907 14.1764 6.81399 14.1619 6.83785 14.147L7.48399 13.7464L7.48491 13.7458C7.79465 13.553 8.01218 13.4176 8.19485 13.3283C8.29963 13.278 8.37051 13.2492 8.44242 13.2492C8.51433 13.2492 8.58521 13.278 8.68999 13.3283L8.69102 13.3293C8.85861 13.4103 9.05468 13.5318 9.32511 13.6995C9.34973 13.7147 9.37496 13.7304 9.40085 13.7464L10.047 14.147C10.0715 14.1623 10.0954 14.1771 10.1187 14.1916C10.3748 14.3509 10.5601 14.4661 10.7014 14.5744C10.7938 14.6452 10.8513 14.6987 10.8883 14.7644C10.9253 14.8332 10.9397 14.9144 10.951 15.0377C10.9695 15.2263 10.9695 15.4623 10.9695 15.7908C10.9695 15.8076 10.9695 15.8247 10.9695 15.842L10.9695 16.3759C10.9695 16.9637 10.9695 17.3866 10.9284 17.7095C10.9017 17.914 10.8719 18.0403 10.7887 18.1266C10.7106 18.2078 10.5955 18.2355 10.4106 18.2612C10.1015 18.3033 9.69622 18.3033 9.12872 18.3033H8.82866Z" fill="black"/>
<path fill-rule="evenodd" clip-rule="evenodd" d="M14 22H10C6.229 22 4.344 21.999 3.172 20.828C2 19.657 2 17.771 2 14V10C2 6.229 2 4.343 3.172 3.172C4.343 2 6.239 2 10.03 2C10.636 2 11.121 2 11.53 2.017C11.5167 2.097 11.51 2.17833 11.51 2.261L11.5 5.095C11.5 6.193 11.5 7.162 11.605 7.943C11.719 8.79 11.98 9.637 12.672 10.329C13.363 11.02 14.21 11.281 15.057 11.395C15.838 11.5 16.808 11.5 17.905 11.5H21.957C22 12.034 22 12.69 22 13.563V14C22 17.771 21.999 19.656 20.828 20.828C19.657 22 17.771 22 14 22ZM8.44242 11.8398L8.55336 11.8429C8.80915 11.8604 9.05055 11.9364 9.30736 12.0617C9.53644 12.1726 9.8025 12.337 10.1333 12.5425L10.801 12.9564C11.1142 13.1515 11.365 13.3078 11.5581 13.4557C11.8036 13.6437 11.9885 13.8389 12.1241 14.0874C12.2597 14.334 12.3254 14.5949 12.3542 14.9062C12.3778 15.1517 12.3789 15.4527 12.3789 15.8297V16.3515C12.3789 16.9915 12.3768 17.4959 12.3254 17.8914C12.2607 18.3906 12.1087 18.7871 11.8015 19.1056C11.4882 19.4292 11.0968 19.5884 10.6038 19.6562C10.2196 19.7096 9.72752 19.7117 9.10706 19.7117H7.77778C7.15732 19.7117 6.66527 19.7096 6.28107 19.6562C5.78799 19.5884 5.39558 19.4292 5.08329 19.1056C4.77512 18.7871 4.62412 18.3906 4.5594 17.8914C4.50804 17.4959 4.50598 16.9915 4.50598 16.3515V15.8297C4.50598 15.4527 4.50701 15.1517 4.53064 14.9062V14.9051C4.5594 14.5949 4.62514 14.334 4.76074 14.0874C4.89737 13.8389 5.08124 13.6437 5.32675 13.4557C5.51982 13.3078 5.77038 13.1517 6.08356 12.9566L6.75156 12.5425C7.08234 12.337 7.34942 12.1726 7.5785 12.0617C7.87229 11.9189 8.14452 11.8398 8.44242 11.8398Z" fill="black"/>
</g>
<defs>
<clipPath id="clip0_221_18033">
<rect width="24" height="24" fill="white"/>
</clipPath>
</defs>
</svg>
