<svg width="24" height="24" viewBox="0 0 24 24" fill="none" xmlns="http://www.w3.org/2000/svg">
<path fill-rule="evenodd" clip-rule="evenodd" d="M12.5083 1.42862H12.664C13.7658 1.42862 14.4779 1.43357 15.1334 1.68448C15.788 1.9354 16.3186 2.40548 17.1338 3.14037L20.3847 6.06601C21.3269 6.91295 21.9318 7.46635 22.2581 8.20123C22.5854 8.9371 22.5933 9.75628 22.5923 11.0227V11.5355C22.5923 12.9715 22.5913 14.108 22.4723 14.9976C22.3434 15.9487 22.0697 16.7153 21.4627 17.3233C20.8548 17.9302 20.0872 18.2049 19.1361 18.3329L18.3516 18.3606L18.312 19.4724C18.184 20.4235 17.9093 21.1911 17.3024 21.798C16.6954 22.405 15.9278 22.6797 14.9767 22.8076C14.0862 22.9276 12.9506 22.9286 11.5146 22.9286H8.32511C6.89006 22.9286 5.75253 22.9276 4.86294 22.8076C3.91285 22.6797 3.14524 22.405 2.5373 21.798C1.93036 21.1911 1.65565 20.4235 1.52772 19.4724C1.40772 18.5818 1.40771 17.4463 1.40771 16.0102V12.8218C1.40771 11.3857 1.40772 10.2492 1.52772 9.35958C1.65565 8.4085 1.93036 7.64089 2.5373 7.03394C3.14524 6.42601 3.91484 6.15229 4.86989 6.02436L5.64841 5.99658L5.68709 4.88484C5.81602 3.93376 6.08973 3.16615 6.69667 2.55921C7.3056 1.95127 8.07421 1.67754 9.02926 1.54961C9.92282 1.42961 11.0653 1.42862 12.5083 1.42862ZM16.8263 13.6191C16.9196 14.0237 16.9215 14.5752 16.9215 15.6284V15.9626L16.8134 19.279C16.7153 20.003 16.5397 20.4245 16.2343 20.7299C15.9278 21.0364 15.5043 21.2129 14.7764 21.3101C13.984 21.4172 12.9407 21.4172 11.4719 21.4172H8.36876C6.89999 21.4172 5.85667 21.4172 5.06427 21.3101C4.33534 21.2129 3.91185 21.0364 3.60541 20.7309C3.29896 20.4235 3.12343 20 3.02524 19.2711C2.91913 18.4787 2.91813 17.4363 2.91813 15.9676V12.8654C2.91813 11.3946 2.91913 10.3523 3.02524 9.55991C3.12343 8.83098 3.29896 8.40751 3.60541 8.10106C3.90987 7.79759 4.33038 7.62105 5.05336 7.52287L5.78129 7.49808L8.39454 7.41378C9.14331 7.41378 9.60248 7.41577 9.94066 7.45544V9.02636C9.94066 9.91595 9.94066 10.6419 10.018 11.2141C10.1033 11.8469 10.2917 12.3923 10.7301 12.8297C11.1675 13.2681 11.7139 13.4565 12.3456 13.5418C12.9189 13.6191 13.6438 13.6191 14.5324 13.6191H16.8263ZM12.0461 8.81314L11.4511 8.28355V8.9857C11.4511 9.90603 11.4521 10.5378 11.5156 11.0128C11.5701 11.4204 11.6594 11.6227 11.7982 11.7616C11.937 11.8994 12.1394 11.9897 12.547 12.0442C13.022 12.1077 13.6538 12.1087 14.5741 12.1087C14.5741 12.1087 15.7037 12.1087 15.7037 12.1097C15.5103 11.9302 15.3159 11.7527 15.1186 11.5771L12.0461 8.81314ZM16.2065 4.33838L15.6105 3.80781V4.51096C15.6105 5.4313 15.6115 6.06303 15.6749 6.53807C15.7295 6.94568 15.8187 7.148 15.9576 7.28684C16.0964 7.4247 16.2987 7.51495 16.7063 7.56949C17.1804 7.63297 17.8141 7.63394 18.7345 7.63394C18.7345 7.63394 19.8631 7.63395 19.8641 7.63494C19.6707 7.45544 19.4753 7.27791 19.2779 7.10238L16.2065 4.33838Z" fill="black"/>
<path fill-rule="evenodd" clip-rule="evenodd" d="M8.93754 12.1388C9.34586 12.1388 9.68244 12.4754 9.68296 12.8842L9.68296 14.9522L11.751 14.9522C11.9578 14.9448 12.1582 15.024 12.3049 15.1706C12.594 15.4597 12.5945 15.9361 12.3049 16.2257C12.1587 16.3719 11.9572 16.451 11.7504 16.4436L9.68244 16.4436L9.68244 18.5116C9.68982 18.7184 9.61122 18.9194 9.46509 19.0655C9.17546 19.3551 8.69909 19.3546 8.40999 19.0655C8.26333 18.9189 8.1842 18.7184 8.19159 18.5116L8.19159 16.4436L6.1236 16.4436C5.9168 16.451 5.71633 16.3719 5.56967 16.2252C5.28058 15.9361 5.28005 15.4597 5.56967 15.1701C5.71581 15.024 5.9168 14.9454 6.1236 14.9528L8.19159 14.9528L8.19159 12.8848C8.19159 12.4754 8.52816 12.1388 8.93754 12.1388Z" fill="black"/>
</svg>
