<svg width="24" height="24" viewBox="0 0 24 24" fill="none" xmlns="http://www.w3.org/2000/svg">
<g clip-path="url(#clip0_221_18227)">
<g clip-path="url(#clip1_221_18227)">
<path d="M13.278 14.7881C13.0866 14.9797 12.8583 15.1304 12.607 15.2311L9.072 16.6451C8.32908 16.9425 7.48041 16.7684 6.91456 16.2026C6.34872 15.6367 6.17463 14.788 6.472 14.0451L7.887 10.5101C7.98731 10.2585 8.13768 10.0299 8.329 9.83812L15.146 3.02512H3.118C1.39705 3.02677 0.00220484 4.42117 0 6.14212V19.9081C0.00275439 21.6288 1.39728 23.0229 3.118 23.0251H16.883C18.6036 23.0229 19.9978 21.6287 20 19.9081V8.06612L13.278 14.7881Z" fill="black"/>
<path d="M19.679 0.610112L9.39 10.8991C9.34227 10.9472 9.30454 11.0043 9.279 11.0671L7.865 14.6021C7.79047 14.7881 7.83415 15.0006 7.976 15.1421C8.11843 15.2815 8.32933 15.3246 8.515 15.2521L12.046 13.8381C12.109 13.8129 12.1661 13.7751 12.214 13.7271L22.506 3.43911C23.0261 2.93715 23.2349 2.19361 23.0521 1.49429C22.8693 0.794972 22.3234 0.24869 21.6242 0.0654114C20.925 -0.117867 20.1813 0.0903797 19.679 0.610112Z" fill="black"/>
</g>
</g>
<defs>
<clipPath id="clip0_221_18227">
<rect width="24" height="24" fill="white"/>
</clipPath>
<clipPath id="clip1_221_18227">
<rect width="23.1171" height="23.0251" fill="white"/>
</clipPath>
</defs>
</svg>
