<svg width="24" height="24" viewBox="0 0 24 24" fill="none" xmlns="http://www.w3.org/2000/svg">
<path fill-rule="evenodd" clip-rule="evenodd" d="M20.0559 2.60858C21.5852 2.55533 22.75 3.81086 22.75 5.2734V16.4847C22.75 18.0207 21.5065 19.22 20.0319 19.3122C19.0734 19.3722 17.9941 19.4877 17.1909 19.7C16.1993 19.9617 14.9708 20.5437 13.98 21.0718C12.7433 21.7295 11.2567 21.7295 10.02 21.0718C9.02768 20.5437 7.80065 19.961 6.80763 19.7C6.00586 19.4877 4.92659 19.3722 3.96806 19.3122C2.49353 19.22 1.25 18.0207 1.25 16.4847V5.33865C1.25 3.84086 2.46953 2.57183 4.02806 2.66633C5.01509 2.72784 6.23087 2.84934 7.19089 3.10284C8.32791 3.40285 9.63669 4.02687 10.6327 4.55263C11.472 4.98989 12.4785 4.96739 13.2983 4.49488C14.1713 3.98937 15.2903 3.40735 16.2848 3.10959C17.4301 2.76684 18.9174 2.64833 20.0559 2.60858ZM4.27177 9.15849C4.35502 8.82549 4.65653 8.58998 4.99928 8.58998C5.06079 8.58998 5.12229 8.59748 5.18154 8.61248L9.18213 9.61301C9.51514 9.69626 9.75065 9.99776 9.75065 10.3405C9.75065 10.7523 9.41164 11.0913 8.99988 11.0913C8.93838 11.0913 8.87762 11.0838 8.81762 11.0688L4.81778 10.069C4.48477 9.98576 4.24927 9.68426 4.24927 9.34075C4.24927 9.27925 4.25677 9.2185 4.27177 9.15849ZM5.18154 12.6131C5.12229 12.5981 5.06079 12.5906 5.00004 12.5906C4.58828 12.5906 4.24927 12.9288 4.24927 13.3406C4.24927 13.6841 4.48477 13.9856 4.81778 14.0689L8.81762 15.0686C8.87762 15.0836 8.93838 15.0911 8.99988 15.0911C9.41164 15.0911 9.75065 14.7529 9.75065 14.3411C9.75065 13.9976 9.51514 13.6961 9.18213 13.6128L5.18154 12.6131ZM18.9991 8.58998C19.3419 8.58998 19.6434 8.82549 19.7266 9.15849C19.7416 9.2185 19.7491 9.27925 19.7491 9.34075C19.7491 9.68426 19.5136 9.98576 19.1806 10.069L15.1808 11.0688C15.1208 11.0838 15.06 11.0913 14.9985 11.0913C14.5868 11.0913 14.2478 10.7523 14.2478 10.3405C14.2478 9.99776 14.4833 9.69626 14.8163 9.61301L18.8169 8.61248C18.8761 8.59748 18.9376 8.58998 18.9991 8.58998ZM18.9984 12.5906C18.9376 12.5906 18.8761 12.5981 18.8169 12.6131L14.8163 13.6128C14.4833 13.6961 14.2478 13.9976 14.2478 14.3411C14.2478 14.7529 14.5868 15.0911 14.9985 15.0911C15.06 15.0911 15.1208 15.0836 15.1808 15.0686L19.1806 14.0689C19.5136 13.9856 19.7491 13.6841 19.7491 13.3406C19.7491 12.9288 19.4101 12.5906 18.9984 12.5906Z" fill="black"/>
</svg>
