<svg width="24" height="24" viewBox="0 0 24 24" fill="none" xmlns="http://www.w3.org/2000/svg">
<g clip-path="url(#clip0_221_18440)">
<path d="M19.352 7.61699L15.392 4.05399C14.265 3.03899 13.702 2.53099 13.009 2.26599L13 4.99999C13 7.35699 13 8.53599 13.732 9.26799C14.464 9.99999 15.643 9.99999 18 9.99999H21.58C21.218 9.29599 20.568 8.71199 19.352 7.61699Z" fill="black"/>
<path d="M9.51178 17.186C10.0591 17.3662 10.6584 17.9395 11.0246 18.3365V18.8029H5.2855L5.30382 15.5556C5.40692 15.5402 5.51772 15.5315 5.63046 15.5354C5.8569 15.5421 6.09876 15.5971 6.24908 15.8177C6.87348 16.735 7.33602 17.3643 7.33602 17.3643C7.49019 17.5734 7.78213 17.6235 7.99701 17.476C7.99701 17.476 8.75537 16.9384 9.51178 17.186Z" fill="black"/>
<path fill-rule="evenodd" clip-rule="evenodd" d="M5.66034 14.5718C5.54086 14.568 5.42235 14.5737 5.30864 14.5853L5.31923 12.8104H11.0246V17.026C10.6459 16.7042 10.2152 16.4026 9.81146 16.2706C9.06757 16.0268 8.31886 16.2571 7.8708 16.4585C7.67905 16.1897 7.38706 15.7763 7.04596 15.2762C6.70196 14.7703 6.17682 14.5882 5.66034 14.5718ZM8.57902 14.2895C8.57902 13.7614 9.01359 13.3259 9.5426 13.3259C10.0716 13.3259 10.5062 13.7614 10.5062 14.2895C10.5062 14.8185 10.0716 15.2531 9.5426 15.2531C9.01359 15.2531 8.57902 14.8185 8.57902 14.2895Z" fill="black"/>
<path fill-rule="evenodd" clip-rule="evenodd" d="M10 22H14C17.771 22 19.656 21.999 20.828 20.828C22 19.657 22 17.771 22 14V13.563C22 12.69 22 12.034 21.957 11.5H17.905C16.808 11.5 15.838 11.5 15.057 11.395C14.21 11.281 13.362 11.019 12.672 10.329C11.98 9.637 11.719 8.79 11.605 7.943C11.5 7.162 11.5 6.192 11.5 5.095L11.51 2.261C11.51 2.17833 11.5167 2.097 11.53 2.017C11.121 2 10.636 2 10.03 2C6.239 2 4.344 2.001 3.172 3.172C2 4.343 2 6.229 2 10V14C2 17.771 2.001 19.656 3.172 20.828C4.343 22 6.229 22 10 22ZM4.04636 20.0353C3.91049 19.8994 3.83531 19.7144 3.83628 19.5217L3.87771 12.0838C3.87964 11.6859 4.20244 11.365 4.6004 11.365H11.7473C12.1462 11.365 12.4699 11.6888 12.4699 12.0877V19.5256C12.4699 19.9255 12.1462 20.2483 11.7473 20.2483H4.55896C4.36625 20.2483 4.18222 20.1721 4.04636 20.0353Z" fill="black"/>
</g>
<defs>
<clipPath id="clip0_221_18440">
<rect width="24" height="24" fill="white"/>
</clipPath>
</defs>
</svg>
