<svg width="24" height="24" viewBox="0 0 24 24" fill="none" xmlns="http://www.w3.org/2000/svg">
<g clip-path="url(#clip0_221_17955)">
<path fill-rule="evenodd" clip-rule="evenodd" d="M8.75 2.013V22H15C17.828 22 19.243 22 20.121 21.121C21 20.243 21 18.828 21 16V8C21 5.172 21 3.757 20.121 2.879C19.243 2 17.828 2 15 2H9L8.75 2.013ZM10.75 6.5C10.75 6.30109 10.829 6.11032 10.9697 5.96967C11.1103 5.82902 11.3011 5.75 11.5 5.75H16.5C16.6989 5.75 16.8897 5.82902 17.0303 5.96967C17.171 6.11032 17.25 6.30109 17.25 6.5C17.25 6.69891 17.171 6.88968 17.0303 7.03033C16.8897 7.17098 16.6989 7.25 16.5 7.25H11.5C11.3011 7.25 11.1103 7.17098 10.9697 7.03033C10.829 6.88968 10.75 6.69891 10.75 6.5ZM10.75 10C10.75 9.80109 10.829 9.61032 10.9697 9.46967C11.1103 9.32902 11.3011 9.25 11.5 9.25H16.5C16.6989 9.25 16.8897 9.32902 17.0303 9.46967C17.171 9.61032 17.25 9.80109 17.25 10C17.25 10.1989 17.171 10.3897 17.0303 10.5303C16.8897 10.671 16.6989 10.75 16.5 10.75H11.5C11.3011 10.75 11.1103 10.671 10.9697 10.5303C10.829 10.3897 10.75 10.1989 10.75 10ZM3 7.25C3.008 4.914 3.081 3.676 3.879 2.879C4.554 2.204 5.545 2.047 7.25 2.011V21.989C5.545 21.953 4.554 21.796 3.879 21.121C3.081 20.324 3.008 19.086 3.001 16.75H4C4.19891 16.75 4.38968 16.671 4.53033 16.5303C4.67098 16.3897 4.75 16.1989 4.75 16C4.75 15.8011 4.67098 15.6103 4.53033 15.4697C4.38968 15.329 4.19891 15.25 4 15.25H3V12.75H4C4.19891 12.75 4.38968 12.671 4.53033 12.5303C4.67098 12.3897 4.75 12.1989 4.75 12C4.75 11.8011 4.67098 11.6103 4.53033 11.4697C4.38968 11.329 4.19891 11.25 4 11.25H3V8.75H4C4.19891 8.75 4.38968 8.67098 4.53033 8.53033C4.67098 8.38968 4.75 8.19891 4.75 8C4.75 7.80109 4.67098 7.61032 4.53033 7.46967C4.38968 7.32902 4.19891 7.25 4 7.25H3ZM3 7.25H2C1.80109 7.25 1.61032 7.32902 1.46967 7.46967C1.32902 7.61032 1.25 7.80109 1.25 8C1.25 8.19891 1.32902 8.38968 1.46967 8.53033C1.61032 8.67098 1.80109 8.75 2 8.75H3V7.25ZM3 12.75H2C1.80109 12.75 1.61032 12.671 1.46967 12.5303C1.32902 12.3897 1.25 12.1989 1.25 12C1.25 11.8011 1.32902 11.6103 1.46967 11.4697C1.61032 11.329 1.80109 11.25 2 11.25H3V12.75ZM3 15.25H2C1.80109 15.25 1.61032 15.329 1.46967 15.4697C1.32902 15.6103 1.25 15.8011 1.25 16C1.25 16.1989 1.32902 16.3897 1.46967 16.5303C1.61032 16.671 1.80109 16.75 2 16.75H3.001L3 15.25Z" fill="black"/>
</g>
<defs>
<clipPath id="clip0_221_17955">
<rect width="24" height="24" fill="white"/>
</clipPath>
</defs>
</svg>
