<svg width="24" height="24" viewBox="0 0 24 24" fill="none" xmlns="http://www.w3.org/2000/svg">
<g clip-path="url(#clip0_221_18064)">
<path d="M4.727 2.712C4.944 2.5 5.222 2.34 5.655 2.227V15.58C5.53499 15.5968 5.4161 15.6208 5.299 15.652C4.83533 15.7741 4.39598 15.9746 4 16.245V7.675C4 6.124 4.002 5.042 4.114 4.225C4.223 3.432 4.422 3.012 4.727 2.712Z" fill="black"/>
<path fill-rule="evenodd" clip-rule="evenodd" d="M20 15.514H7.31V2.029C7.981 2 8.791 2 9.793 2H14.207C15.791 2 16.895 2.002 17.729 2.112C18.539 2.218 18.967 2.413 19.273 2.712C19.578 3.012 19.777 3.432 19.886 4.225C19.998 5.042 20 6.124 20 7.676V15.514ZM13.594 5.5831L13.6282 5.58401C13.9511 5.5997 14.216 5.84978 14.2556 6.16536C15.0834 6.40528 15.7284 7.08352 15.7284 7.96107C15.7284 8.32741 15.4276 8.62824 15.0621 8.62824C14.6958 8.62824 14.395 8.32741 14.395 7.96107C14.395 7.67317 14.0656 7.40556 13.594 7.40556C13.1234 7.40556 12.794 7.67317 12.794 7.96107C12.794 8.2499 13.1234 8.5175 13.594 8.5175C14.7069 8.5175 15.7284 9.30555 15.7284 10.4073C15.7284 11.2849 15.0834 11.9631 14.2556 12.203C14.2141 12.5297 13.9317 12.7862 13.594 12.7862C13.2572 12.7862 12.9748 12.5297 12.9333 12.203C12.1056 11.9631 11.4606 11.2849 11.4606 10.4073C11.4606 10.041 11.7614 9.74017 12.1268 9.74017C12.4932 9.74017 12.794 10.041 12.794 10.4073C12.794 10.6962 13.1234 10.9628 13.594 10.9628C14.0656 10.9628 14.395 10.6962 14.395 10.4073C14.395 10.1185 14.0656 9.85091 13.594 9.85091C12.4821 9.85091 11.4606 9.06286 11.4606 7.96107C11.4606 7.08352 12.1056 6.40528 12.9333 6.16536C12.9748 5.8387 13.2572 5.5831 13.594 5.5831Z" fill="black"/>
<path d="M5.727 17.218C6.017 17.142 6.394 17.135 7.473 17.135H19.999C19.996 18.265 19.978 19.109 19.886 19.775C19.777 20.568 19.578 20.988 19.273 21.288C18.967 21.587 18.539 21.782 17.729 21.889C16.895 21.998 15.791 22 14.207 22H9.793C8.209 22 7.105 21.998 6.271 21.888C5.461 21.782 5.033 21.587 4.727 21.288C4.422 20.988 4.223 20.568 4.114 19.775C4.07333 19.4763 4.04533 19.1367 4.03 18.756C4.16693 18.3812 4.39296 18.0454 4.6886 17.7775C4.98424 17.5095 5.34062 17.3175 5.727 17.218Z" fill="black"/>
</g>
<defs>
<clipPath id="clip0_221_18064">
<rect width="24" height="24" fill="white"/>
</clipPath>
</defs>
</svg>
