<svg width="24" height="24" viewBox="0 0 24 24" fill="none" xmlns="http://www.w3.org/2000/svg">
<g clip-path="url(#clip0_221_18339)">
<path fill-rule="evenodd" clip-rule="evenodd" d="M8.04799 2.48801C8.18378 2.63336 8.25626 2.82668 8.24951 3.02547C8.24276 3.22425 8.15732 3.41222 8.01199 3.54801L3.72599 7.54801C3.65076 7.61832 3.56186 7.67239 3.46482 7.70684C3.36778 7.74129 3.26468 7.75539 3.16196 7.74826C3.05923 7.74113 2.95907 7.71293 2.86772 7.6654C2.77637 7.61787 2.69579 7.55204 2.63099 7.47201L1.41699 5.97201C1.35501 5.89545 1.30871 5.80743 1.28075 5.71298C1.25278 5.61853 1.24369 5.51949 1.254 5.42152C1.27481 5.22367 1.37337 5.04219 1.52799 4.91701C1.68261 4.79183 1.88063 4.7332 2.07848 4.75402C2.27633 4.77483 2.45781 4.87339 2.58299 5.02801L3.29099 5.90301L6.98799 2.45201C7.13334 2.31623 7.32666 2.24374 7.52545 2.25049C7.72423 2.25724 7.9122 2.34268 8.04799 2.48801ZM11.25 5.00001C11.25 4.8011 11.329 4.61033 11.4697 4.46968C11.6103 4.32903 11.8011 4.25001 12 4.25001H22C22.1989 4.25001 22.3897 4.32903 22.5303 4.46968C22.671 4.61033 22.75 4.8011 22.75 5.00001C22.75 5.19893 22.671 5.38969 22.5303 5.53034C22.3897 5.67099 22.1989 5.75001 22 5.75001H12C11.8011 5.75001 11.6103 5.67099 11.4697 5.53034C11.329 5.38969 11.25 5.19893 11.25 5.00001ZM8.04799 9.48801C8.18378 9.63336 8.25626 9.82668 8.24951 10.0255C8.24276 10.2243 8.15732 10.4122 8.01199 10.548L3.72599 14.548C3.65076 14.6183 3.56186 14.6724 3.46482 14.7068C3.36778 14.7413 3.26468 14.7554 3.16196 14.7483C3.05923 14.7411 2.95907 14.7129 2.86772 14.6654C2.77637 14.6179 2.69579 14.552 2.63099 14.472L1.41699 12.972C1.35501 12.8955 1.30871 12.8074 1.28074 12.713C1.25278 12.6185 1.24369 12.5195 1.254 12.4215C1.2643 12.3236 1.29381 12.2286 1.34082 12.142C1.38783 12.0555 1.45143 11.979 1.52799 11.917C1.60455 11.855 1.69257 11.8087 1.78703 11.7808C1.88148 11.7528 1.98052 11.7437 2.07848 11.754C2.17645 11.7643 2.27142 11.7938 2.35799 11.8408C2.44455 11.8878 2.52101 11.9515 2.58299 12.028L3.29099 12.903L6.98799 9.45201C7.13334 9.31623 7.32666 9.24374 7.52545 9.25049C7.72423 9.25725 7.9122 9.34268 8.04799 9.48801ZM11.25 12C11.25 11.8011 11.329 11.6103 11.4697 11.4697C11.6103 11.329 11.8011 11.25 12 11.25H22C22.1989 11.25 22.3897 11.329 22.5303 11.4697C22.671 11.6103 22.75 11.8011 22.75 12C22.75 12.1989 22.671 12.3897 22.5303 12.5303C22.3897 12.671 22.1989 12.75 22 12.75H12C11.8011 12.75 11.6103 12.671 11.4697 12.5303C11.329 12.3897 11.25 12.1989 11.25 12ZM8.04799 16.488C8.18378 16.6334 8.25626 16.8267 8.24951 17.0255C8.24276 17.2243 8.15732 17.4122 8.01199 17.548L3.72599 21.548C3.65076 21.6183 3.56186 21.6724 3.46482 21.7068C3.36778 21.7413 3.26468 21.7554 3.16196 21.7483C3.05923 21.7411 2.95907 21.7129 2.86772 21.6654C2.77637 21.6179 2.69579 21.552 2.63099 21.472L1.41699 19.972C1.35501 19.8955 1.30871 19.8074 1.28074 19.713C1.25278 19.6185 1.24369 19.5195 1.254 19.4215C1.2643 19.3236 1.29381 19.2286 1.34082 19.142C1.38783 19.0555 1.45143 18.979 1.52799 18.917C1.60455 18.855 1.69257 18.8087 1.78703 18.7808C1.88148 18.7528 1.98052 18.7437 2.07848 18.754C2.17645 18.7643 2.27142 18.7938 2.35799 18.8408C2.44455 18.8878 2.52101 18.9515 2.58299 19.028L3.29099 19.903L6.98799 16.452C7.13334 16.3162 7.32666 16.2437 7.52545 16.2505C7.72423 16.2572 7.9122 16.3427 8.04799 16.488ZM11.25 19C11.25 18.8011 11.329 18.6103 11.4697 18.4697C11.6103 18.329 11.8011 18.25 12 18.25H22C22.1989 18.25 22.3897 18.329 22.5303 18.4697C22.671 18.6103 22.75 18.8011 22.75 19C22.75 19.1989 22.671 19.3897 22.5303 19.5303C22.3897 19.671 22.1989 19.75 22 19.75H12C11.8011 19.75 11.6103 19.671 11.4697 19.5303C11.329 19.3897 11.25 19.1989 11.25 19Z" fill="black"/>
</g>
<defs>
<clipPath id="clip0_221_18339">
<rect width="24" height="24" fill="white"/>
</clipPath>
</defs>
</svg>
