<svg width="24" height="24" viewBox="0 0 24 24" fill="none" xmlns="http://www.w3.org/2000/svg">
<g clip-path="url(#clip0_221_17943)">
<path d="M19.352 7.61699L15.392 4.05399C14.265 3.03899 13.702 2.53099 13.009 2.26599L13 4.99999C13 7.35699 13 8.53599 13.732 9.26799C14.464 9.99999 15.643 9.99999 18 9.99999H21.58C21.218 9.29599 20.568 8.71199 19.352 7.61699Z" fill="black"/>
<path d="M11.1627 16.5547V16.5767L11.1617 16.5797L11.1627 16.5547Z" fill="black"/>
<path d="M11.1657 16.5617V16.5547L11.1677 16.5537L11.1657 16.5617Z" fill="black"/>
<path fill-rule="evenodd" clip-rule="evenodd" d="M14 22H10C6.229 22 4.344 21.999 3.172 20.828C2 19.657 2 17.771 2 14V10C2 6.229 2 4.343 3.172 3.172C4.343 2 6.239 2 10.03 2C10.636 2 11.121 2 11.53 2.017C11.5167 2.097 11.51 2.17833 11.51 2.261L11.5 5.095C11.5 6.193 11.5 7.162 11.605 7.943C11.719 8.79 11.98 9.637 12.672 10.329C13.363 11.02 14.21 11.281 15.057 11.395C15.838 11.5 16.808 11.5 17.905 11.5H21.957C22 12.034 22 12.69 22 13.563V14C22 17.771 21.999 19.656 20.828 20.828C19.657 22 17.771 22 14 22ZM8.72266 18.3817C9.82968 18.3817 10.7617 17.6447 11.0417 16.6427C10.7457 16.5867 10.5187 16.3237 10.5187 16.0107C10.5187 15.8397 10.5867 15.6747 10.7097 15.5537L11.3187 14.9517C11.5677 14.7047 11.9747 14.7047 12.2237 14.9507L12.8307 15.5517L12.8298 15.5507C12.9558 15.6717 13.0278 15.8387 13.0278 16.0147C13.0278 16.3667 12.7377 16.6577 12.3847 16.6577C12.3758 16.6577 12.3657 16.6577 12.3567 16.6567C12.0487 18.3697 10.5377 19.6678 8.72266 19.6678C7.44063 19.6708 6.24561 19.0057 5.56959 17.9157C5.50759 17.8147 5.4736 17.6977 5.4736 17.5787C5.4736 17.2257 5.7646 16.9347 6.11761 16.9347C6.33961 16.9347 6.54762 17.0507 6.66462 17.2397C7.10463 17.9507 7.88564 18.3837 8.72266 18.3817ZM5.1486 14.8857H5.16858C5.47459 13.1726 6.98263 11.8726 8.79267 11.8716C10.0727 11.8706 11.2647 12.5346 11.9357 13.6246C11.9363 13.6255 11.9369 13.6263 11.9375 13.6271C11.9388 13.6289 11.94 13.6305 11.9407 13.6326C11.9977 13.7306 12.0277 13.8426 12.0277 13.9556C12.0277 14.3086 11.7377 14.5987 11.3847 14.5987C11.1677 14.5987 10.9647 14.4886 10.8457 14.3066C10.8437 14.3046 10.8427 14.3016 10.8407 14.2986C10.4037 13.5896 9.62767 13.1566 8.79366 13.1586C7.69064 13.1586 6.76363 13.8956 6.48462 14.8977C6.78063 14.9547 7.00663 15.2177 7.00663 15.5287C7.00663 15.7007 6.93763 15.8647 6.81663 15.9857L6.20861 16.5887C5.95961 16.8347 5.5516 16.8347 5.30259 16.5887L4.69558 15.9857C4.57358 15.8647 4.50459 15.7007 4.50459 15.5287C4.50459 15.1757 4.79559 14.8857 5.1486 14.8857Z" fill="black"/>
</g>
<defs>
<clipPath id="clip0_221_17943">
<rect width="24" height="24" fill="white"/>
</clipPath>
</defs>
</svg>
