<svg width="24" height="24" viewBox="0 0 24 24" fill="none" xmlns="http://www.w3.org/2000/svg">
<g clip-path="url(#clip0_221_18344)">
<path fill-rule="evenodd" clip-rule="evenodd" d="M8.05833 2.48959C8.3392 2.79074 8.32267 3.26987 8.02228 3.55149L3.73036 7.55652C3.59143 7.68645 3.40819 7.75854 3.21744 7.75854C2.99139 7.75854 2.77661 7.65641 2.63392 7.48067L1.41806 5.97869C1.30992 5.84502 1.25134 5.67754 1.25134 5.50557C1.25134 5.09402 1.59004 4.75458 2.00233 4.75458C2.22838 4.75458 2.44317 4.85746 2.58585 5.03319L3.29479 5.9096L6.99642 2.45354C7.29757 2.17267 7.7767 2.18919 8.05833 2.48959ZM11.2643 5.00541C11.2643 4.59311 11.603 4.25442 12.0153 4.25442H22.0283C22.4406 4.25442 22.7793 4.59311 22.7793 5.00541C22.7793 5.41695 22.4406 5.7564 22.0283 5.7564H12.0153C11.603 5.7564 11.2643 5.41695 11.2643 5.00541ZM8.05833 9.49934C8.3392 9.80049 8.32267 10.2789 8.02228 10.5605L3.73036 14.5655C3.59143 14.6954 3.40819 14.7683 3.21744 14.7683C2.99139 14.7683 2.77661 14.6654 2.63392 14.4897L1.41806 12.9877C1.30992 12.854 1.25134 12.6873 1.25134 12.5153C1.25134 12.103 1.59004 11.7643 2.00233 11.7643C2.22838 11.7643 2.44317 11.8665 2.58585 12.0422L3.29479 12.9186L6.99642 9.46329C7.29757 9.18167 7.7767 9.19819 8.05833 9.49934ZM11.2643 12.0144C11.2643 11.6021 11.603 11.2634 12.0153 11.2634H13.2755C13.6878 11.2634 14.0265 11.6021 14.0265 12.0144C14.0265 12.4267 13.6878 12.7654 13.2755 12.7654H12.0153C11.603 12.7654 11.2643 12.4267 11.2643 12.0144ZM8.05833 16.5083C8.3392 16.8095 8.32267 17.2886 8.02228 17.5695L3.73036 21.5753C3.59143 21.7052 3.40819 21.7773 3.21744 21.7773C2.99139 21.7773 2.77661 21.6752 2.63392 21.4987L1.41806 19.9967C1.30992 19.863 1.25134 19.6963 1.25134 19.5243C1.25134 19.112 1.59004 18.7733 2.00233 18.7733C2.22838 18.7733 2.44317 18.8755 2.58585 19.0519L3.29479 19.9276L6.99642 16.4723C7.29757 16.1914 7.7767 16.2072 8.05833 16.5083Z" fill="black"/>
<path fill-rule="evenodd" clip-rule="evenodd" d="M18.0274 10.2728C16.5186 10.2728 15.2761 11.5153 15.2761 13.0241C15.2761 14.5329 16.5186 15.7754 18.0274 15.7754C19.5362 15.7754 20.7787 14.5329 20.7787 13.0241C20.7787 11.5153 19.5362 10.2728 18.0274 10.2728ZM16.7767 13.0241C16.7767 12.3383 17.3416 11.7734 18.0274 11.7734C18.7131 11.7734 19.2781 12.3383 19.2781 13.0241C19.2781 13.7099 18.7131 14.2748 18.0274 14.2748C17.3416 14.2748 16.7767 13.7099 16.7767 13.0241ZM18.0274 16.2751C16.8307 16.2751 15.7113 16.5151 14.862 16.9405C14.0592 17.3427 13.2759 18.0367 13.2759 19.0263V19.0893C13.2736 19.5995 13.2714 20.4601 14.0862 21.0491C14.4643 21.3222 14.9632 21.497 15.5815 21.608C16.205 21.7206 17.004 21.7776 18.0274 21.7776C19.0508 21.7776 19.8498 21.7206 20.4733 21.608C21.0915 21.497 21.5905 21.3222 21.9686 21.0483C22.7834 20.4586 22.7811 19.5995 22.7789 19.0886V19.0263C22.7789 18.036 21.9956 17.3427 21.1928 16.9405C20.3435 16.5166 19.2241 16.2751 18.0274 16.2751ZM14.7764 19.0263C14.7764 18.9115 14.889 18.6054 15.5335 18.2828C16.1337 17.9827 17.0138 17.7756 18.0274 17.7756C19.041 17.7756 19.9218 17.9827 20.5213 18.2828C21.1658 18.6054 21.2783 18.9115 21.2783 19.0263C21.2783 19.6303 21.2393 19.7233 21.0885 19.8336C20.9662 19.9214 20.7156 20.0399 20.2084 20.1315C19.7058 20.2215 19.005 20.277 18.0274 20.277C17.0498 20.277 16.349 20.2215 15.8463 20.1315C15.3391 20.0399 15.0885 19.9214 14.9662 19.8336C14.8139 19.7233 14.7764 19.6303 14.7764 19.0263Z" fill="black"/>
</g>
<defs>
<clipPath id="clip0_221_18344">
<rect width="24" height="24" fill="white"/>
</clipPath>
</defs>
</svg>
