<svg width="24" height="24" viewBox="0 0 24 24" fill="none" xmlns="http://www.w3.org/2000/svg">
<g clip-path="url(#clip0_221_17994)">
<path d="M19.352 7.61699L15.392 4.05399C14.265 3.03899 13.702 2.53099 13.009 2.26599L13 4.99999C13 7.35699 13 8.53599 13.732 9.26799C14.464 9.99999 15.643 9.99999 18 9.99999H21.58C21.218 9.29599 20.568 8.71199 19.352 7.61699Z" fill="black"/>
<path fill-rule="evenodd" clip-rule="evenodd" d="M14 22H10C6.229 22 4.343 22 3.172 20.828C2.001 19.656 2 17.771 2 14V10C2 6.229 2 4.343 3.172 3.172C4.344 2.001 6.239 2 10.03 2C10.636 2 11.121 2 11.53 2.017C11.5167 2.097 11.51 2.17833 11.51 2.261L11.5 5.095C11.5 6.192 11.5 7.162 11.605 7.943C11.719 8.79 11.98 9.637 12.672 10.329C13.362 11.019 14.21 11.281 15.057 11.395C15.838 11.5 16.808 11.5 17.905 11.5H21.957C22 12.034 22 12.69 22 13.563V14C22 17.771 22 19.657 20.828 20.828C19.656 21.999 17.771 22 14 22ZM10.498 14.44C10.6465 14.572 10.7366 14.7576 10.7484 14.956C10.7602 15.1543 10.6928 15.3493 10.561 15.498L7.894 18.498C7.82364 18.5771 7.73731 18.6405 7.6407 18.6839C7.5441 18.7272 7.4394 18.7497 7.3335 18.7497C7.2276 18.7497 7.1229 18.7272 7.0263 18.6839C6.92969 18.6405 6.84336 18.5771 6.773 18.498L5.439 16.998C5.30692 16.8492 5.23936 16.6541 5.25117 16.4555C5.26299 16.2569 5.35321 16.0711 5.502 15.939C5.65079 15.8069 5.84595 15.7394 6.04455 15.7512C6.24315 15.763 6.42892 15.8532 6.561 16.002L7.333 16.872L9.439 14.502C9.5044 14.4282 9.58372 14.368 9.67243 14.3248C9.76113 14.2817 9.85747 14.2565 9.95593 14.2506C10.0544 14.2448 10.153 14.2584 10.2462 14.2907C10.3394 14.323 10.4253 14.3734 10.499 14.439" fill="black"/>
</g>
<defs>
<clipPath id="clip0_221_17994">
<rect width="24" height="24" fill="white"/>
</clipPath>
</defs>
</svg>
