<svg width="24" height="24" viewBox="0 0 24 24" fill="none" xmlns="http://www.w3.org/2000/svg">
<g clip-path="url(#clip0_221_18095)">
<path d="M19.352 7.61699L15.392 4.05399C14.265 3.03899 13.702 2.53099 13.009 2.26599L13 4.99999C13 7.35699 13 8.53599 13.732 9.26799C14.464 9.99999 15.643 9.99999 18 9.99999H21.58C21.218 9.29599 20.568 8.71199 19.352 7.61699Z" fill="black"/>
<path fill-rule="evenodd" clip-rule="evenodd" d="M8.49649 11.3697L8.47165 11.3694C8.04657 11.3845 7.47332 11.6162 7.47332 12.2696C7.47332 12.9634 7.94406 13.2442 7.94406 13.2442C8.16716 13.3596 8.30756 13.59 8.30756 13.8411V15.3886C8.30756 15.7598 8.00651 16.0609 7.63526 16.0609H7C6.48706 16.0609 6.1774 16.1858 6.00728 16.3835C5.85396 16.5618 5.82424 16.7724 5.81907 16.8701L6.15759 18.0403H10.8047C10.8047 18.0403 11.1436 16.8701 11.1436 16.8684C11.1384 16.7728 11.1087 16.5622 10.9554 16.3835C10.7853 16.1858 10.4756 16.0609 9.96268 16.0609H9.32699C8.95574 16.0609 8.65469 15.7598 8.65469 15.3886V13.8411C8.65469 13.59 8.79509 13.3596 9.01862 13.2442C9.01862 13.2442 9.48893 12.9634 9.48893 12.2696C9.48893 11.6202 8.92268 11.3874 8.49843 11.3697C8.50366 11.3699 8.50897 11.3699 8.51409 11.3699L8.49649 11.3697Z" fill="black"/>
<path fill-rule="evenodd" clip-rule="evenodd" d="M10 22H14C17.771 22 19.656 21.999 20.828 20.828C22 19.657 22 17.771 22 14V13.563C22 12.69 22 12.034 21.957 11.5H17.905C16.808 11.5 15.838 11.5 15.057 11.395C14.21 11.281 13.362 11.019 12.672 10.329C11.98 9.637 11.719 8.79 11.605 7.943C11.5 7.162 11.5 6.192 11.5 5.095L11.51 2.261C11.51 2.17833 11.5167 2.097 11.53 2.017C11.121 2 10.636 2 10.03 2C6.239 2 4.344 2.001 3.172 3.172C2 4.343 2 6.229 2 10V14C2 17.771 2.001 19.656 3.172 20.828C4.343 22 6.229 22 10 22ZM8.42428 10.0261L8.51429 10.0244C8.54013 10.0244 8.56554 10.0257 8.59095 10.0287C9.59703 10.0843 10.8335 10.7363 10.8335 12.2696C10.8335 13.2774 10.3512 13.8795 9.99929 14.1844V14.7171C11.039 14.7253 11.6264 15.1022 11.9744 15.507C12.5519 16.1785 12.4848 17.0196 12.4848 17.0196C12.4813 17.0661 12.4731 17.1122 12.4602 17.157L11.9554 18.8995C11.8723 19.1868 11.6092 19.3845 11.3099 19.3845H5.65239C5.35307 19.3845 5.08993 19.1868 5.0068 18.8995L4.50247 17.157C4.48912 17.1122 4.48094 17.0661 4.47749 17.0196C4.47749 17.0196 4.4103 16.1785 4.98785 15.507C5.33627 15.1022 5.92373 14.7253 6.9634 14.7171V14.1844C6.6111 13.879 6.12916 13.2769 6.12916 12.2696C6.12916 10.7096 7.40916 10.0619 8.42428 10.0261Z" fill="black"/>
</g>
<defs>
<clipPath id="clip0_221_18095">
<rect width="24" height="24" fill="white"/>
</clipPath>
</defs>
</svg>
