<svg width="24" height="24" viewBox="0 0 24 24" fill="none" xmlns="http://www.w3.org/2000/svg">
<g clip-path="url(#clip0_221_18000)">
<path d="M19.352 7.61699L15.392 4.05399C14.265 3.03899 13.702 2.53099 13.009 2.26599L13 4.99999C13 7.35699 13 8.53599 13.732 9.26799C14.464 9.99999 15.643 9.99999 18 9.99999H21.58C21.218 9.29599 20.568 8.71199 19.352 7.61699Z" fill="black"/>
<path fill-rule="evenodd" clip-rule="evenodd" d="M10 22H14C17.771 22 19.657 22 20.828 20.828C21.999 19.656 22 17.771 22 14V13.563C22 12.69 22 12.034 21.957 11.5H17.905C16.808 11.5 15.838 11.5 15.057 11.395C14.21 11.281 13.363 11.02 12.672 10.329C11.98 9.637 11.719 8.79 11.605 7.943C11.5 7.162 11.5 6.193 11.5 5.095L11.51 2.261C11.51 2.17833 11.5167 2.097 11.53 2.017C11.121 2 10.636 2 10.03 2C6.239 2 4.343 2 3.172 3.172C2 4.343 2 6.229 2 10V14C2 17.771 2 19.657 3.172 20.828C4.344 21.999 6.229 22 10 22ZM5.47 14.47C5.61063 14.3295 5.80125 14.2507 6 14.2507C6.19875 14.2507 6.38937 14.3295 6.53 14.47L7.5 15.44L8.47 14.47C8.61217 14.3375 8.80022 14.2654 8.99452 14.2688C9.18882 14.2723 9.37421 14.351 9.51162 14.4884C9.64903 14.6258 9.72775 14.8112 9.73118 15.0055C9.7346 15.1998 9.66248 15.3878 9.53 15.53L8.56 16.5L9.53 17.47C9.60369 17.5387 9.66279 17.6215 9.70378 17.7135C9.74477 17.8055 9.76682 17.9048 9.76859 18.0055C9.77037 18.1062 9.75184 18.2062 9.71412 18.2996C9.6764 18.393 9.62026 18.4778 9.54904 18.549C9.47782 18.6203 9.39299 18.6764 9.2996 18.7141C9.20621 18.7518 9.10618 18.7704 9.00548 18.7686C8.90478 18.7668 8.80546 18.7448 8.71346 18.7038C8.62146 18.6628 8.53866 18.6037 8.47 18.53L7.5 17.56L6.53 18.53C6.38783 18.6625 6.19978 18.7346 6.00548 18.7312C5.81118 18.7277 5.62579 18.649 5.48838 18.5116C5.35097 18.3742 5.27225 18.1888 5.26883 17.9945C5.2654 17.8002 5.33752 17.6122 5.47 17.47L6.44 16.5L5.47 15.53C5.32955 15.3894 5.25066 15.1988 5.25066 15C5.25066 14.8012 5.32955 14.6106 5.47 14.47Z" fill="black"/>
</g>
<defs>
<clipPath id="clip0_221_18000">
<rect width="24" height="24" fill="white"/>
</clipPath>
</defs>
</svg>
