<svg width="24" height="24" viewBox="0 0 24 24" fill="none" xmlns="http://www.w3.org/2000/svg">
<g clip-path="url(#clip0_221_18369)">
<path fill-rule="evenodd" clip-rule="evenodd" d="M3.464 3.464C2 4.93 2 7.286 2 12C2 16.714 2 19.071 3.464 20.535C4.93 22 7.286 22 12 22C16.714 22 19.071 22 20.535 20.535C22 19.072 22 16.714 22 12C22 7.286 22 4.929 20.535 3.464C19.072 2 16.714 2 12 2C7.286 2 4.929 2 3.464 3.464ZM10.544 7.517C10.6119 7.44563 10.6651 7.36158 10.7005 7.26966C10.7359 7.17773 10.7528 7.07974 10.7504 6.98126C10.7479 6.88279 10.7261 6.78576 10.6861 6.69572C10.6462 6.60568 10.5889 6.52439 10.5175 6.4565C10.4461 6.38861 10.3621 6.33544 10.2702 6.30002C10.1782 6.26461 10.0802 6.24765 9.98176 6.25011C9.88329 6.25257 9.78626 6.27441 9.69622 6.31437C9.60618 6.35432 9.52489 6.41163 9.457 6.483L7.143 8.913L6.543 8.283C6.47584 8.20878 6.39451 8.14876 6.30379 8.10646C6.21307 8.06417 6.1148 8.04046 6.01478 8.03674C5.91476 8.03302 5.815 8.04935 5.72139 8.08478C5.62778 8.12022 5.5422 8.17403 5.46971 8.24305C5.39722 8.31207 5.33928 8.3949 5.2993 8.48666C5.25932 8.57842 5.23812 8.67726 5.23693 8.77734C5.23575 8.87743 5.25461 8.97674 5.2924 9.06942C5.3302 9.1621 5.38616 9.24628 5.457 9.317L6.6 10.517C6.67005 10.5905 6.75429 10.649 6.84763 10.689C6.94097 10.729 7.04146 10.7497 7.143 10.7497C7.24454 10.7497 7.34503 10.729 7.43837 10.689C7.53171 10.649 7.61595 10.5905 7.686 10.517L10.544 7.517ZM13 8.25C12.8011 8.25 12.6103 8.32902 12.4697 8.46967C12.329 8.61032 12.25 8.80109 12.25 9C12.25 9.19891 12.329 9.38968 12.4697 9.53033C12.6103 9.67098 12.8011 9.75 13 9.75H18C18.1989 9.75 18.3897 9.67098 18.5303 9.53033C18.671 9.38968 18.75 9.19891 18.75 9C18.75 8.80109 18.671 8.61032 18.5303 8.46967C18.3897 8.32902 18.1989 8.25 18 8.25H13ZM10.543 14.517C10.6138 14.4463 10.6698 14.3621 10.7076 14.2694C10.7454 14.1767 10.7643 14.0774 10.7631 13.9773C10.7619 13.8773 10.7407 13.7784 10.7007 13.6867C10.6607 13.5949 10.6028 13.5121 10.5303 13.443C10.4578 13.374 10.3722 13.3202 10.2786 13.2848C10.185 13.2494 10.0852 13.233 9.98522 13.2367C9.8852 13.2405 9.78693 13.2642 9.69621 13.3065C9.60549 13.3488 9.52416 13.4088 9.457 13.483L7.143 15.913L6.543 15.283C6.47584 15.2088 6.39451 15.1488 6.30379 15.1065C6.21307 15.0642 6.1148 15.0405 6.01478 15.0367C5.91476 15.033 5.815 15.0494 5.72139 15.0848C5.62778 15.1202 5.5422 15.174 5.46971 15.243C5.39722 15.3121 5.33928 15.3949 5.2993 15.4867C5.25932 15.5784 5.23812 15.6773 5.23693 15.7773C5.23575 15.8774 5.25461 15.9767 5.2924 16.0694C5.3302 16.1621 5.38616 16.2463 5.457 16.317L6.6 17.517C6.67005 17.5905 6.75429 17.649 6.84763 17.689C6.94097 17.729 7.04146 17.7497 7.143 17.7497C7.24454 17.7497 7.34503 17.729 7.43837 17.689C7.53171 17.649 7.61595 17.5905 7.686 17.517L10.543 14.517ZM13 15.25C12.8011 15.25 12.6103 15.329 12.4697 15.4697C12.329 15.6103 12.25 15.8011 12.25 16C12.25 16.1989 12.329 16.3897 12.4697 16.5303C12.6103 16.671 12.8011 16.75 13 16.75H18C18.1989 16.75 18.3897 16.671 18.5303 16.5303C18.671 16.3897 18.75 16.1989 18.75 16C18.75 15.8011 18.671 15.6103 18.5303 15.4697C18.3897 15.329 18.1989 15.25 18 15.25H13Z" fill="black"/>
</g>
<defs>
<clipPath id="clip0_221_18369">
<rect width="24" height="24" fill="white"/>
</clipPath>
</defs>
</svg>
