<svg width="24" height="24" viewBox="0 0 24 24" fill="none" xmlns="http://www.w3.org/2000/svg">
<g clip-path="url(#clip0_221_17965)">
<path fill-rule="evenodd" clip-rule="evenodd" d="M22.75 4.93301C22.75 3.47001 21.585 2.21501 20.056 2.26801C18.917 2.30801 17.43 2.42601 16.285 2.76901C15.29 3.06701 14.171 3.64901 13.298 4.15401C12.8945 4.38704 12.4388 4.51452 11.9729 4.52466C11.5071 4.53479 11.0462 4.42726 10.633 4.21201C9.637 3.68601 8.328 3.06201 7.191 2.76201C6.231 2.50901 5.015 2.38701 4.028 2.32601C2.47 2.23101 1.25 3.50001 1.25 4.99801V16.144C1.25 17.68 2.494 18.879 3.968 18.971C4.927 19.031 6.006 19.147 6.808 19.359C7.801 19.62 9.028 20.203 10.02 20.731C10.6297 21.0549 11.3096 21.2243 12 21.2243C12.6904 21.2243 13.3703 21.0549 13.98 20.731C14.971 20.203 16.199 19.621 17.191 19.359C17.994 19.147 19.073 19.031 20.032 18.971C21.506 18.879 22.75 17.68 22.75 16.144V4.93301ZM19.603 12.5532C19.6617 12.6324 19.7042 12.7224 19.728 12.818C19.752 12.9136 19.7568 13.013 19.7424 13.1105C19.7279 13.208 19.6943 13.3017 19.6436 13.3862C19.5929 13.4707 19.526 13.5444 19.4468 13.603C19.3676 13.6617 19.2776 13.7041 19.182 13.728L15.182 14.728C14.9889 14.7763 14.7846 14.7459 14.6139 14.6435C14.4433 14.5411 14.3203 14.3751 14.272 14.182C14.2237 13.9889 14.2541 13.7846 14.3565 13.6139C14.4589 13.4433 14.6249 13.3203 14.818 13.272L18.818 12.272C18.9136 12.248 19.013 12.2432 19.1105 12.2576C19.208 12.2721 19.3017 12.3057 19.3862 12.3564C19.4707 12.4071 19.5444 12.474 19.603 12.5532ZM19.5303 4.96967C19.671 5.11032 19.75 5.30109 19.75 5.5V9.537C19.75 9.648 19.75 9.807 19.729 9.943C19.711 10.0829 19.6617 10.2169 19.5848 10.3351C19.508 10.4533 19.4055 10.5527 19.285 10.626C19.167 10.6928 19.0363 10.7338 18.9013 10.7464C18.7664 10.7589 18.6303 10.7428 18.502 10.699C18.3825 10.6613 18.2529 10.6 18.1504 10.5515C18.1414 10.5472 18.1326 10.543 18.124 10.539L17 10.005L15.876 10.539C15.77 10.59 15.628 10.658 15.498 10.698C15.3698 10.7419 15.2338 10.7583 15.0988 10.7458C14.9638 10.7334 14.833 10.6926 14.715 10.626C14.5943 10.5529 14.4917 10.4535 14.4146 10.3352C14.3376 10.217 14.2882 10.0829 14.27 9.943C14.25 9.807 14.25 9.648 14.25 9.537V6.95C14.25 6.75109 14.329 6.56032 14.4697 6.41967C14.6103 6.27902 14.8011 6.2 15 6.2C15.1989 6.2 15.3897 6.27902 15.5303 6.41967C15.671 6.56032 15.75 6.75109 15.75 6.95V8.939L16.499 8.583L16.508 8.578C16.6596 8.49681 16.8281 8.45228 17 8.448C17.1719 8.45228 17.3404 8.49681 17.492 8.578L17.5 8.583L18.25 8.939V5.5C18.25 5.30109 18.329 5.11032 18.4697 4.96967C18.6103 4.82902 18.8011 4.75 19 4.75C19.1989 4.75 19.3897 4.82902 19.5303 4.96967ZM4.39698 8.55317C4.33832 8.63238 4.29586 8.72237 4.272 8.818C4.24805 8.9136 4.24317 9.01299 4.25765 9.11048C4.27213 9.20797 4.30568 9.30165 4.35639 9.38617C4.4071 9.47068 4.47397 9.54437 4.55318 9.60303C4.63238 9.66168 4.72237 9.70415 4.818 9.728L8.818 10.728C8.91361 10.7519 9.01298 10.7567 9.11045 10.7422C9.20792 10.7277 9.30158 10.6942 9.38608 10.6435C9.47059 10.5928 9.54427 10.5259 9.60294 10.4467C9.66161 10.3676 9.7041 10.2776 9.728 10.182C9.7519 10.0864 9.75674 9.98702 9.74224 9.88955C9.72773 9.79208 9.69417 9.69842 9.64347 9.61392C9.59277 9.52942 9.52592 9.45573 9.44674 9.39706C9.36756 9.3384 9.27761 9.2959 9.182 9.272L5.182 8.272C5.0864 8.24804 4.98701 8.24317 4.88952 8.25765C4.79203 8.27213 4.69835 8.30568 4.61384 8.35639C4.52932 8.4071 4.45563 8.47397 4.39698 8.55317ZM4.61392 12.3565C4.78458 12.2541 4.98893 12.2237 5.182 12.272L9.182 13.272C9.37508 13.3203 9.54108 13.4433 9.64347 13.6139C9.74587 13.7846 9.77627 13.9889 9.728 14.182C9.67973 14.3751 9.55674 14.5411 9.38608 14.6435C9.21543 14.7459 9.01108 14.7763 8.818 14.728L4.818 13.728C4.62493 13.6797 4.45893 13.5567 4.35654 13.3861C4.25414 13.2154 4.22373 13.0111 4.272 12.818C4.32027 12.6249 4.44327 12.4589 4.61392 12.3565Z" fill="black"/>
</g>
<defs>
<clipPath id="clip0_221_17965">
<rect width="24" height="24" fill="white"/>
</clipPath>
</defs>
</svg>
