<svg width="24" height="24" viewBox="0 0 24 24" fill="none" xmlns="http://www.w3.org/2000/svg">
<g clip-path="url(#clip0_221_18199)">
<path fill-rule="evenodd" clip-rule="evenodd" d="M2 1.25C1.80109 1.25 1.61032 1.32902 1.46967 1.46967C1.32902 1.61032 1.25 1.80109 1.25 2C1.25 2.19891 1.32902 2.38968 1.46967 2.53033C1.61032 2.67098 1.80109 2.75 2 2.75H4V10.5C4 13.564 4 15.096 5.004 16.048C6.008 17 7.624 17 10.857 17H11.25V20.537L9.665 21.329C9.5761 21.3725 9.4967 21.4332 9.43136 21.5076C9.36603 21.5819 9.31606 21.6685 9.28434 21.7622C9.25262 21.856 9.23977 21.9551 9.24654 22.0539C9.2533 22.1526 9.27955 22.2491 9.32376 22.3376C9.36798 22.4262 9.42928 22.5051 9.50415 22.5699C9.57901 22.6346 9.66595 22.6839 9.75996 22.7149C9.85396 22.7459 9.95317 22.758 10.0519 22.7504C10.1506 22.7429 10.2468 22.7159 10.335 22.671L12 21.839L13.665 22.671C13.7532 22.7159 13.8494 22.7429 13.9481 22.7504C14.0468 22.758 14.146 22.7459 14.24 22.7149C14.3341 22.6839 14.421 22.6346 14.4959 22.5699C14.5707 22.5051 14.632 22.4262 14.6762 22.3376C14.7205 22.2491 14.7467 22.1526 14.7535 22.0539C14.7602 21.9551 14.7474 21.856 14.7157 21.7622C14.6839 21.6685 14.634 21.5819 14.5686 21.5076C14.5033 21.4332 14.4239 21.3725 14.335 21.329L12.75 20.536V17H13.143C16.375 17 17.992 17 18.996 16.048C20 15.096 20 13.564 20 10.5V2.75H22C22.1989 2.75 22.3897 2.67098 22.5303 2.53033C22.671 2.38968 22.75 2.19891 22.75 2C22.75 1.80109 22.671 1.61032 22.5303 1.46967C22.3897 1.32902 22.1989 1.25 22 1.25H2ZM15.53 7.97C15.6705 8.11063 15.7493 8.30125 15.7493 8.5C15.7493 8.69875 15.6705 8.88937 15.53 9.03L14.213 10.348C14.071 10.4958 13.9201 10.6347 13.761 10.764C13.5457 10.9396 13.2778 11.0379 13 11.043C12.7222 11.0379 12.4543 10.9396 12.239 10.764C12.0799 10.6347 11.929 10.4958 11.787 10.348L11.177 9.738L11 9.561L10.823 9.736L9.53 11.03C9.46134 11.1037 9.37854 11.1628 9.28654 11.2038C9.19454 11.2448 9.09522 11.2668 8.99452 11.2686C8.89382 11.2704 8.79379 11.2518 8.7004 11.2141C8.60701 11.1764 8.52218 11.1203 8.45096 11.049C8.37974 10.9778 8.3236 10.893 8.28588 10.7996C8.24816 10.7062 8.22963 10.6062 8.23141 10.5055C8.23318 10.4048 8.25523 10.3055 8.29622 10.2135C8.33721 10.1215 8.39631 10.0387 8.47 9.97L9.787 8.652C9.932 8.507 10.089 8.35 10.239 8.236C10.4543 8.06038 10.7222 7.96213 11 7.957C11.334 7.957 11.585 8.102 11.761 8.236C11.911 8.35 12.068 8.507 12.213 8.652L12.823 9.262L13 9.438L13.177 9.263L14.47 7.97C14.6106 7.82955 14.8012 7.75066 15 7.75066C15.1988 7.75066 15.3894 7.82955 15.53 7.97Z" fill="black"/>
</g>
<defs>
<clipPath id="clip0_221_18199">
<rect width="24" height="24" fill="white"/>
</clipPath>
</defs>
</svg>
