<svg width="24" height="24" viewBox="0 0 24 24" fill="none" xmlns="http://www.w3.org/2000/svg">
<g clip-path="url(#clip0_221_18255)">
<path d="M9.5 2C9.10218 2 8.72064 2.15804 8.43934 2.43934C8.15804 2.72064 8 3.10218 8 3.5V4.5C8 4.89782 8.15804 5.27936 8.43934 5.56066C8.72064 5.84196 9.10218 6 9.5 6H14.5C14.8978 6 15.2794 5.84196 15.5607 5.56066C15.842 5.27936 16 4.89782 16 4.5V3.5C16 3.10218 15.842 2.72064 15.5607 2.43934C15.2794 2.15804 14.8978 2 14.5 2H9.5Z" fill="black"/>
<path d="M8.35807 16.076C8.36488 16.0869 8.36947 16.0943 8.3721 16.0987L8.3434 16.051L8.34452 16.0532C8.34958 16.0618 8.35413 16.0695 8.35807 16.076Z" fill="black"/>
<path d="M11.8274 14.62C11.5134 14.62 11.2534 14.37 11.2374 14.059L11.2364 14.029C11.2364 13.705 11.5034 13.438 11.8274 13.438C12.1514 13.438 12.4184 13.705 12.4184 14.029C12.4184 14.353 12.1514 14.62 11.8274 14.62Z" fill="black"/>
<path fill-rule="evenodd" clip-rule="evenodd" d="M11.3014 11.145C11.3204 11.098 11.3574 11.061 11.4034 11.042C11.4146 11.0372 11.4295 11.0363 11.4559 11.0346C11.4626 11.0341 11.4701 11.0336 11.4784 11.033C11.5498 11.0278 11.6409 11.0279 11.7681 11.028C11.7871 11.028 11.8068 11.028 11.8274 11.028C11.8482 11.028 11.868 11.028 11.8871 11.028C12.0148 11.0279 12.1052 11.0278 12.1774 11.033C12.1859 11.0337 12.1935 11.0342 12.2003 11.0346C12.2259 11.0363 12.2412 11.0373 12.2514 11.042C12.2984 11.061 12.3344 11.098 12.3544 11.145C12.3612 11.1621 12.3622 11.1885 12.3642 11.2412C12.3646 11.2503 12.365 11.2602 12.3654 11.271C12.3794 11.633 12.5684 11.98 12.8994 12.172C13.2314 12.363 13.6264 12.353 13.9474 12.184C13.9548 12.1801 13.9618 12.1764 13.9683 12.1729C14.0178 12.1465 14.0418 12.1337 14.0604 12.131H14.0624C14.1124 12.124 14.1624 12.138 14.2024 12.168C14.2115 12.1754 14.2205 12.1889 14.2363 12.2125C14.2397 12.2175 14.2434 12.223 14.2474 12.229C14.2934 12.298 14.3474 12.39 14.4264 12.528L14.5974 12.834C14.6015 12.8427 14.6052 12.8504 14.6085 12.8571C14.6187 12.878 14.6246 12.8902 14.6254 12.9C14.6254 12.9005 14.6257 12.9011 14.6259 12.9016C14.6262 12.9021 14.6264 12.9025 14.6264 12.903C14.6324 12.953 14.6194 13.003 14.5894 13.043C14.5771 13.058 14.5546 13.0722 14.5062 13.1028C14.4997 13.1069 14.4928 13.1113 14.4854 13.116C14.1784 13.309 13.9714 13.646 13.9714 14.029C13.9714 14.412 14.1784 14.749 14.4854 14.942C14.4921 14.9463 14.4984 14.9502 14.5043 14.954C14.554 14.9854 14.5769 14.9999 14.5894 15.016C14.6194 15.055 14.6324 15.106 14.6264 15.156C14.6264 15.156 14.6254 15.157 14.6254 15.158C14.6246 15.1698 14.6173 15.1838 14.6042 15.2089C14.6018 15.2136 14.5992 15.2186 14.5964 15.224L14.4264 15.53C14.3474 15.668 14.2934 15.761 14.2474 15.83C14.2454 15.833 14.2434 15.8359 14.2416 15.8386C14.2225 15.867 14.2124 15.8818 14.2024 15.89C14.1624 15.92 14.1124 15.934 14.0624 15.927H14.0604C14.0431 15.9245 14.0216 15.9132 13.9781 15.8902C13.9689 15.8853 13.9587 15.8799 13.9474 15.874C13.6274 15.705 13.2314 15.695 12.8994 15.886C12.5684 16.077 12.3794 16.425 12.3654 16.787V16.788C12.365 16.7986 12.3646 16.8083 12.3643 16.8172C12.3622 16.87 12.3613 16.8959 12.3544 16.913C12.3344 16.96 12.2974 16.997 12.2514 17.016C12.2411 17.0208 12.2258 17.0218 12.1995 17.0235C12.1926 17.0239 12.1849 17.0244 12.1764 17.025C12.1053 17.0302 12.0154 17.0301 11.8884 17.03C11.869 17.03 11.8487 17.03 11.8274 17.03C11.8063 17.03 11.7861 17.03 11.7668 17.03C11.6402 17.0301 11.5495 17.0302 11.4784 17.025C11.4701 17.0244 11.4626 17.0239 11.4559 17.0235C11.4295 17.0218 11.4146 17.0208 11.4034 17.016C11.3574 16.997 11.3204 16.96 11.3014 16.913H11.3004C11.2936 16.8959 11.2926 16.87 11.2906 16.8172C11.2902 16.8083 11.2898 16.7986 11.2894 16.788V16.787C11.2754 16.425 11.0874 16.078 10.7554 15.886C10.4234 15.695 10.0284 15.705 9.70841 15.874H9.7074C9.70015 15.8779 9.69335 15.8815 9.68698 15.8849C9.63715 15.9115 9.61303 15.9243 9.59441 15.927H9.59241C9.54341 15.934 9.49241 15.92 9.45341 15.89C9.44241 15.881 9.43141 15.865 9.40941 15.832L9.2284 15.53L9.0584 15.224C9.05491 15.217 9.05173 15.2108 9.04885 15.2051C9.03687 15.1816 9.03022 15.1685 9.02941 15.158C9.02941 15.157 9.0294 15.156 9.0284 15.155C9.0224 15.106 9.03541 15.055 9.06641 15.016C9.07729 15.001 9.09867 14.9873 9.14168 14.9598C9.15007 14.9544 9.15929 14.9485 9.16941 14.942C9.47641 14.749 9.6834 14.412 9.6834 14.029C9.6834 13.646 9.47641 13.309 9.16941 13.116C9.15838 13.1089 9.14844 13.1025 9.13946 13.0968C9.09793 13.0703 9.0771 13.057 9.06641 13.043C9.03541 13.003 9.0224 12.953 9.0284 12.903C9.0294 12.902 9.02941 12.901 9.02941 12.9C9.03015 12.8903 9.03644 12.8779 9.04661 12.8577C9.05011 12.8508 9.05406 12.843 9.0584 12.834L9.2284 12.528C9.23699 12.5132 9.24526 12.4989 9.25326 12.4851C9.31971 12.3703 9.36645 12.2896 9.40841 12.228C9.43041 12.194 9.44141 12.177 9.45341 12.168C9.49241 12.138 9.54341 12.124 9.59241 12.131H9.59441C9.61298 12.1337 9.63701 12.1465 9.68655 12.1729C9.69304 12.1764 9.69998 12.1801 9.7074 12.184C10.0274 12.353 10.4234 12.364 10.7554 12.172C11.0874 11.98 11.2754 11.632 11.2894 11.27C11.2898 11.2595 11.2902 11.2498 11.2906 11.2408C11.2926 11.188 11.2936 11.1621 11.3004 11.145H11.3014ZM11.8274 12.511L11.9054 12.513C12.7024 12.554 13.3454 13.222 13.3454 14.029C13.3454 14.862 12.6604 15.547 11.8274 15.547C10.9944 15.547 10.3094 14.862 10.3094 14.029C10.3094 13.196 10.9944 12.511 11.8274 12.511Z" fill="black"/>
<path fill-rule="evenodd" clip-rule="evenodd" d="M6.5 4.03699C5.242 4.10699 4.448 4.30699 3.879 4.87699C3 5.75599 3 7.16999 3 9.99799V15.998C3 18.827 3 20.24 3.879 21.12C4.757 21.998 6.17199 21.998 8.99998 21.998H15C17.828 21.998 19.243 21.998 20.121 21.12C21 20.241 21 18.827 21 15.998V9.99799C21 7.16999 21 5.75599 20.121 4.87699C19.552 4.30699 18.758 4.10699 17.5 4.03699V4.49999C17.5 5.29564 17.1839 6.0587 16.6213 6.62131C16.0587 7.18392 15.2956 7.49999 14.5 7.49999H9.5C8.70435 7.49999 7.94129 7.18392 7.37868 6.62131C6.81607 6.0587 6.5 5.29564 6.5 4.49999V4.03699ZM11.8364 10H11.8274L11.8184 10.001L11.4104 10.008C11.2744 10.014 11.1414 10.042 11.0154 10.091C11.0134 10.092 11.0124 10.093 11.0104 10.093C10.7124 10.217 10.4754 10.454 10.3514 10.752C10.2894 10.902 10.2694 11.059 10.2624 11.232V11.239C10.2624 11.255 10.2554 11.27 10.2434 11.28C10.2254 11.288 10.2074 11.287 10.1934 11.279L10.1874 11.276C10.0354 11.195 9.88841 11.134 9.72741 11.112H9.7264C9.4074 11.07 9.08341 11.157 8.82741 11.353C8.82641 11.354 8.8244 11.355 8.8234 11.357C8.7174 11.441 8.6264 11.543 8.5544 11.657C8.4924 11.75 8.42441 11.867 8.3434 12.007L8.34241 12.009L8.13541 12.382C8.07441 12.508 8.02841 12.632 8.01041 12.769C7.96841 13.089 8.05541 13.412 8.25141 13.668C8.35041 13.797 8.47741 13.894 8.62241 13.985C8.62441 13.987 8.6264 13.988 8.6284 13.989C8.6424 13.997 8.65141 14.011 8.65441 14.026C8.65241 14.046 8.64341 14.061 8.62841 14.069C8.62641 14.07 8.62441 14.071 8.62241 14.073C8.47741 14.164 8.35141 14.261 8.25141 14.39C8.05441 14.646 7.96841 14.97 8.01041 15.289C8.02841 15.426 8.07441 15.551 8.13541 15.676L8.3344 16.036C8.33796 16.0421 8.34134 16.0479 8.34452 16.0532L8.3474 16.059C8.35143 16.0654 8.35498 16.0711 8.35807 16.076C8.36819 16.0928 8.37429 16.1026 8.3748 16.1033C8.37493 16.1034 8.37471 16.103 8.37412 16.102L8.55541 16.403C8.63341 16.519 8.71841 16.621 8.82741 16.705C9.08341 16.901 9.4074 16.988 9.7264 16.946H9.72741C9.88841 16.924 10.0354 16.863 10.1884 16.782C10.1894 16.781 10.1914 16.78 10.1934 16.779C10.2074 16.772 10.2234 16.77 10.2384 16.775C10.2554 16.787 10.2624 16.802 10.2624 16.818C10.2624 16.8195 10.2627 16.8208 10.2629 16.822C10.2632 16.8233 10.2634 16.8245 10.2634 16.826C10.2694 16.998 10.2894 17.157 10.3524 17.307C10.4754 17.605 10.7124 17.842 11.0104 17.965C11.1374 18.018 11.2694 18.04 11.4084 18.05L11.8364 18.058L12.2474 18.05C12.3864 18.04 12.5174 18.018 12.6444 17.965C12.9424 17.841 13.1794 17.604 13.3034 17.307V17.306C13.3654 17.157 13.3854 16.999 13.3924 16.826V16.819C13.3924 16.803 13.3994 16.788 13.4114 16.778C13.4294 16.77 13.4474 16.771 13.4614 16.779L13.4674 16.782C13.6204 16.863 13.7674 16.924 13.9284 16.946C14.2484 16.988 14.5714 16.901 14.8274 16.705C14.9374 16.621 15.0224 16.518 15.0994 16.403L15.3124 16.051L15.3204 16.036C15.4024 15.895 15.4704 15.777 15.5194 15.676C15.5804 15.55 15.6274 15.426 15.6444 15.289C15.6864 14.97 15.6004 14.646 15.4034 14.39C15.3044 14.261 15.1774 14.164 15.0324 14.073C15.0304 14.071 15.0284 14.07 15.0264 14.069C15.0114 14.06 15.0014 14.045 14.9994 14.028C15.0004 14.01 15.0154 13.996 15.0314 13.986L15.0324 13.985C15.1774 13.894 15.3044 13.797 15.4034 13.668C15.6004 13.412 15.6864 13.088 15.6444 12.769V12.763C15.6234 12.628 15.5804 12.497 15.5164 12.375C15.4554 12.256 15.3884 12.137 15.3194 12.02C15.3227 12.0256 15.3257 12.0305 15.3282 12.0348C15.3358 12.0479 15.3421 12.0584 15.3433 12.0604C15.3445 12.0623 15.3407 12.0557 15.3282 12.0348C15.3235 12.0267 15.3183 12.0176 15.3134 12.009L15.1024 11.659C15.0304 11.545 14.9384 11.442 14.8314 11.357C14.8304 11.356 14.8294 11.355 14.8274 11.354C14.5714 11.157 14.2484 11.07 13.9284 11.112H13.9274C13.7664 11.134 13.6194 11.195 13.4664 11.276C13.4659 11.2765 13.4652 11.277 13.4644 11.2775C13.4637 11.278 13.4629 11.2785 13.4624 11.279C13.4484 11.286 13.4314 11.288 13.4164 11.283C13.4004 11.271 13.3924 11.255 13.3924 11.238V11.232C13.3854 11.06 13.3654 10.902 13.3024 10.751C13.1794 10.453 12.9424 10.216 12.6444 10.093C12.5174 10.04 12.3854 10.018 12.2464 10.008C12.1354 10.001 11.9994 10 11.8364 10Z" fill="black"/>
</g>
<defs>
<clipPath id="clip0_221_18255">
<rect width="24" height="24" fill="white"/>
</clipPath>
</defs>
</svg>
