<svg width="24" height="24" viewBox="0 0 24 24" fill="none" xmlns="http://www.w3.org/2000/svg">
<g clip-path="url(#clip0_221_18398)">
<path d="M2.75499 14.716L3.27199 16.648C3.87599 18.903 4.17899 20.031 4.86399 20.762C5.40464 21.3388 6.10408 21.7425 6.87399 21.922C7.84999 22.15 8.97799 21.848 11.234 21.244C13.488 20.64 14.616 20.338 15.347 19.653C15.4077 19.5957 15.4663 19.537 15.523 19.477C15.1824 19.4463 14.8439 19.3962 14.509 19.327C13.813 19.189 12.986 18.967 12.008 18.705L11.901 18.676L11.876 18.67C10.812 18.384 9.92299 18.146 9.21299 17.89C8.46599 17.62 7.78799 17.287 7.21099 16.747C6.41731 16.0034 5.86191 15.0412 5.61499 13.982C5.43499 13.213 5.48699 12.459 5.62699 11.678C5.76099 10.929 6.00099 10.031 6.28899 8.956L6.82399 6.962L6.84199 6.892C4.92199 7.409 3.91099 7.715 3.23699 8.346C2.65949 8.88705 2.25545 9.58725 2.07599 10.358C1.84799 11.333 2.14999 12.461 2.75499 14.716Z" fill="black"/>
<path fill-rule="evenodd" clip-rule="evenodd" d="M20.8305 10.7132C21.4342 8.45938 21.7359 7.33273 21.508 6.35699C21.3285 5.58625 20.9245 4.88605 20.347 4.34499C19.6164 3.66137 18.4892 3.35933 16.2377 2.75599L16.234 2.75499C13.978 2.14999 12.85 1.84799 11.874 2.07599C11.1041 2.25553 10.4046 2.65919 9.86399 3.23599C9.27699 3.86299 8.97099 4.77999 8.51599 6.44599L8.27199 7.35099L7.75499 9.28299C7.14999 11.538 6.84799 12.665 7.07599 13.641C7.25563 14.4114 7.65966 15.1112 8.23699 15.652C8.96704 16.3361 10.0931 16.6382 12.3422 17.2416L12.351 17.244C14.383 17.788 15.5 18.087 16.415 17.974C16.515 17.962 16.6133 17.9447 16.71 17.922C17.48 17.7422 18.1795 17.3382 18.72 16.761C19.4041 16.0309 19.7062 14.9049 20.3097 12.6557L20.8305 10.7132ZM11.717 10.5013L13.416 8.80229V13.1533C13.416 13.4843 13.754 13.7573 14.164 13.7573C14.574 13.7573 14.911 13.4843 14.911 13.1533V8.78129L16.631 10.5013C16.921 10.7903 17.397 10.7903 17.686 10.5013C17.975 10.2123 17.975 9.73628 17.686 9.44728L14.701 6.46229C14.412 6.17329 13.936 6.17329 13.647 6.46229L10.662 9.44728C10.511 9.58828 10.425 9.78627 10.425 9.99327C10.425 10.4023 10.762 10.7393 11.171 10.7393C11.378 10.7393 11.576 10.6533 11.717 10.5013Z" fill="black"/>
</g>
<defs>
<clipPath id="clip0_221_18398">
<rect width="24" height="24" fill="white"/>
</clipPath>
</defs>
</svg>
