<svg width="24" height="24" viewBox="0 0 24 24" fill="none" xmlns="http://www.w3.org/2000/svg">
<g clip-path="url(#clip0_221_18238)">
<path fill-rule="evenodd" clip-rule="evenodd" d="M21 11.098V16.091C21 19.187 21 20.736 20.266 21.412C19.916 21.735 19.474 21.938 19.003 21.992C18.016 22.105 16.863 21.085 14.558 19.046C13.538 18.145 13.029 17.694 12.44 17.576C12.1497 17.5167 11.8503 17.5167 11.56 17.576C10.97 17.694 10.461 18.145 9.442 19.046C7.137 21.085 5.984 22.105 4.997 21.991C4.52527 21.9367 4.08299 21.734 3.734 21.412C3 20.736 3 19.188 3 16.091V11.097C3 6.81 3 4.666 4.318 3.333C5.636 2 7.758 2 12 2C16.242 2 18.364 2 19.682 3.332C21 4.664 21 6.81 21 11.098ZM8.25 6C8.25 5.80109 8.32902 5.61032 8.46967 5.46967C8.61032 5.32902 8.80109 5.25 9 5.25H15C15.1989 5.25 15.3897 5.32902 15.5303 5.46967C15.671 5.61032 15.75 5.80109 15.75 6C15.75 6.19891 15.671 6.38968 15.5303 6.53033C15.3897 6.67098 15.1989 6.75 15 6.75H9C8.80109 6.75 8.61032 6.67098 8.46967 6.53033C8.32902 6.38968 8.25 6.19891 8.25 6Z" fill="black"/>
</g>
<defs>
<clipPath id="clip0_221_18238">
<rect width="24" height="24" fill="white"/>
</clipPath>
</defs>
</svg>
