<svg width="24" height="24" viewBox="0 0 24 24" fill="none" xmlns="http://www.w3.org/2000/svg">
<g clip-path="url(#clip0_221_18131)">
<path d="M14.4141 14.4977V14.5197L14.4131 14.5227L14.4141 14.4977Z" fill="black"/>
<path d="M14.4171 14.5047V14.4977L14.4191 14.4967L14.4171 14.5047Z" fill="black"/>
<path fill-rule="evenodd" clip-rule="evenodd" d="M2 6.95C2 6.068 2 5.626 2.07 5.258C2.21947 4.46789 2.60361 3.74017 3.17231 3.17165C3.741 2.60314 4.46784 2.21922 5.258 2.07C5.626 2 6.067 2 6.95 2C7.336 2 7.53 2 7.716 2.017C8.51694 2.09194 9.27667 2.40664 9.896 2.92C10.04 3.04 10.176 3.17599 10.45 3.44998L11.0167 4.01671C11.8216 4.8206 12.2273 5.22586 12.712 5.495C12.9802 5.64449 13.2648 5.7626 13.56 5.847C14.098 6 14.675 6 15.828 6H16.202C18.834 6 20.151 6 21.006 6.769C21.0846 6.83999 21.1594 6.9151 21.23 6.994C22 7.849 22 9.166 22 11.798V14C22 17.771 21.999 19.656 20.828 20.828C19.657 22 17.771 22 14 22H10C6.229 22 4.344 21.999 3.172 20.828C2 19.657 2 17.771 2 14V6.95ZM11.9741 16.3247C13.0811 16.3247 14.0131 15.5877 14.2931 14.5857C13.9971 14.5297 13.7701 14.2667 13.7701 13.9537C13.7701 13.7827 13.8381 13.6177 13.9611 13.4967L14.5701 12.8947C14.8191 12.6477 15.2261 12.6477 15.4751 12.8937L16.0811 13.4937C16.2071 13.6147 16.2791 13.7817 16.2791 13.9577C16.2791 14.3097 15.9891 14.6007 15.6361 14.6007C15.6272 14.6007 15.617 14.6007 15.6081 14.5997C15.3001 16.3127 13.7891 17.6107 11.9741 17.6107C10.6921 17.6137 9.49709 16.9487 8.82109 15.8587C8.75909 15.7577 8.7251 15.6407 8.7251 15.5217C8.7251 15.1687 9.0161 14.8777 9.36909 14.8777C9.59109 14.8777 9.79909 14.9937 9.91609 15.1827C10.3561 15.8937 11.1371 16.3267 11.9741 16.3247ZM8.4001 12.8287H8.42009C8.72609 11.1157 10.2341 9.81567 12.0441 9.81467C13.3241 9.81367 14.5161 10.4777 15.1871 11.5677C15.1877 11.5686 15.1883 11.5694 15.1889 11.5701C15.1902 11.5719 15.1914 11.5736 15.1921 11.5757C15.2491 11.6737 15.2791 11.7857 15.2791 11.8987C15.2791 12.2517 14.9891 12.5417 14.6361 12.5417C14.4191 12.5417 14.2161 12.4317 14.0971 12.2497C14.0951 12.2477 14.0941 12.2447 14.0921 12.2417C13.6551 11.5327 12.8791 11.0997 12.0451 11.1017C10.9421 11.1017 10.0151 11.8387 9.7361 12.8407C10.0321 12.8977 10.2581 13.1607 10.2581 13.4717C10.2581 13.6437 10.1891 13.8077 10.0681 13.9287L9.4601 14.5317C9.2111 14.7777 8.80309 14.7777 8.55409 14.5317L7.9471 13.9287C7.8251 13.8077 7.7561 13.6437 7.7561 13.4717C7.7561 13.1187 8.0471 12.8287 8.4001 12.8287Z" fill="black"/>
</g>
<defs>
<clipPath id="clip0_221_18131">
<rect width="24" height="24" fill="white"/>
</clipPath>
</defs>
</svg>
