<svg width="24" height="24" viewBox="0 0 24 24" fill="none" xmlns="http://www.w3.org/2000/svg">
<g clip-path="url(#clip0_221_18039)">
<path d="M4.727 2.712C4.944 2.5 5.222 2.34 5.655 2.227V15.58C5.53499 15.5968 5.4161 15.6208 5.299 15.652C4.83533 15.7741 4.39598 15.9746 4 16.245V7.675C4 6.124 4.002 5.042 4.114 4.225C4.223 3.432 4.422 3.012 4.727 2.712Z" fill="black"/>
<path fill-rule="evenodd" clip-rule="evenodd" d="M20 15.514H7.31V2.029C7.981 2 8.791 2 9.793 2H14.207C15.791 2 16.895 2.002 17.729 2.112C18.539 2.218 18.967 2.413 19.273 2.712C19.578 3.012 19.777 3.432 19.886 4.225C19.998 5.042 20 6.124 20 7.676V15.514ZM11.3027 9.36848L13.0017 7.66948V12.0205C13.0017 12.3515 13.3397 12.6245 13.7497 12.6245C14.1597 12.6245 14.4967 12.3515 14.4967 12.0205V7.64848L16.2167 9.36848C16.5067 9.65748 16.9827 9.65748 17.2717 9.36848C17.5607 9.07948 17.5607 8.60347 17.2717 8.31447L14.2867 5.32948C13.9977 5.04048 13.5217 5.04048 13.2327 5.32948L10.2477 8.31447C10.0967 8.45547 10.0107 8.65346 10.0107 8.86046C10.0107 9.26946 10.3477 9.60646 10.7567 9.60646C10.9637 9.60646 11.1617 9.52048 11.3027 9.36848Z" fill="black"/>
<path d="M5.727 17.218C6.017 17.142 6.394 17.135 7.473 17.135H19.999C19.996 18.265 19.978 19.109 19.886 19.775C19.777 20.568 19.578 20.988 19.273 21.288C18.967 21.587 18.539 21.782 17.729 21.889C16.895 21.998 15.791 22 14.207 22H9.793C8.209 22 7.105 21.998 6.271 21.888C5.461 21.782 5.033 21.587 4.727 21.288C4.422 20.988 4.223 20.568 4.114 19.775C4.07333 19.4763 4.04533 19.1367 4.03 18.756C4.16693 18.3812 4.39296 18.0454 4.6886 17.7775C4.98424 17.5095 5.34062 17.3175 5.727 17.218Z" fill="black"/>
</g>
<defs>
<clipPath id="clip0_221_18039">
<rect width="24" height="24" fill="white"/>
</clipPath>
</defs>
</svg>
