<svg width="24" height="24" viewBox="0 0 24 24" fill="none" xmlns="http://www.w3.org/2000/svg">
<g clip-path="url(#clip0_221_17976)">
<path d="M19.352 7.61699L15.392 4.05399C14.265 3.03899 13.702 2.53099 13.009 2.26599L13 4.99999C13 7.35699 13 8.53599 13.732 9.26799C14.464 9.99999 15.643 9.99999 18 9.99999H21.58C21.218 9.29599 20.568 8.71199 19.352 7.61699Z" fill="black"/>
<path fill-rule="evenodd" clip-rule="evenodd" d="M10 22H14C17.771 22 19.656 21.999 20.828 20.828C22 19.657 22 17.771 22 14V13.563C22 12.69 22 12.034 21.957 11.5H17.905C16.808 11.5 15.838 11.5 15.057 11.395C14.21 11.281 13.362 11.019 12.672 10.329C11.98 9.637 11.719 8.79 11.605 7.943C11.5 7.162 11.5 6.192 11.5 5.095L11.51 2.261C11.51 2.17833 11.5167 2.097 11.53 2.017C11.121 2 10.636 2 10.03 2C6.239 2 4.344 2.001 3.172 3.172C2 4.343 2 6.229 2 10V14C2 17.771 2.001 19.656 3.172 20.828C4.343 22 6.229 22 10 22ZM11.2516 15.8451H5.53651C5.1225 15.8451 4.7865 15.5091 4.7865 15.095C4.7865 14.681 5.1225 14.345 5.53651 14.345H11.2516C11.6656 14.345 12.0016 14.681 12.0016 15.095C12.0016 15.5091 11.6656 15.8451 11.2516 15.8451ZM5.53651 18.6967H11.2516C11.6656 18.6967 12.0016 18.3607 12.0016 17.9467C12.0016 17.5327 11.6656 17.1967 11.2516 17.1967H5.53651C5.1225 17.1967 4.7865 17.5327 4.7865 17.9467C4.7865 18.3607 5.1225 18.6967 5.53651 18.6967ZM8.39406 12.8295H5.53651C5.1225 12.8295 4.7865 12.4935 4.7865 12.0794C4.7865 11.6654 5.1225 11.3294 5.53651 11.3294H8.39406C8.80806 11.3294 9.14407 11.6654 9.14407 12.0794C9.14407 12.4935 8.80806 12.8295 8.39406 12.8295Z" fill="black"/>
</g>
<defs>
<clipPath id="clip0_221_17976">
<rect width="24" height="24" fill="white"/>
</clipPath>
</defs>
</svg>
