<svg width="24" height="24" viewBox="0 0 24 24" fill="none" xmlns="http://www.w3.org/2000/svg">
<g clip-path="url(#clip0_221_18082)">
<path d="M19.352 7.61699L15.392 4.05399C14.265 3.03899 13.702 2.53099 13.009 2.26599L13 4.99999C13 7.35699 13 8.53599 13.732 9.26799C14.464 9.99999 15.643 9.99999 18 9.99999H21.58C21.218 9.29599 20.568 8.71199 19.352 7.61699Z" fill="black"/>
<path d="M6.27853 16.6573V15.3159H7.01311C7.17067 15.3159 7.29843 15.35 7.39637 15.4181C7.49431 15.4841 7.56564 15.5714 7.61036 15.68C7.6572 15.7886 7.68062 15.9068 7.68062 16.0345C7.68062 16.1537 7.6572 16.2613 7.61036 16.3571C7.56564 16.4508 7.49431 16.5242 7.39637 16.5775C7.29843 16.6307 7.17067 16.6573 7.01311 16.6573H6.27853Z" fill="black"/>
<path d="M10.5391 18.2383H10.9288C11.1417 18.2383 11.3216 18.1871 11.4685 18.0849C11.6176 17.9827 11.7304 17.8305 11.8071 17.6282C11.8858 17.4238 11.9252 17.1726 11.9252 16.8745V16.6733C11.9252 16.4497 11.9029 16.2538 11.8582 16.0856C11.8156 15.9153 11.7517 15.7737 11.6665 15.6608C11.5814 15.5458 11.4749 15.4596 11.3471 15.4021C11.2215 15.3446 11.0767 15.3159 10.9128 15.3159H10.5391V18.2383Z" fill="black"/>
<path fill-rule="evenodd" clip-rule="evenodd" d="M10 22H14C17.771 22 19.656 21.999 20.828 20.828C22 19.657 22 17.771 22 14V13.563C22 12.69 22 12.034 21.957 11.5H17.905C16.808 11.5 15.838 11.5 15.057 11.395C14.21 11.281 13.362 11.019 12.672 10.329C11.98 9.637 11.719 8.79 11.605 7.943C11.5 7.162 11.5 6.192 11.5 5.095L11.51 2.261C11.51 2.17833 11.5167 2.097 11.53 2.017C11.121 2 10.636 2 10.03 2C6.239 2 4.344 2.001 3.172 3.172C2 4.343 2 6.229 2 10V14C2 17.771 2.001 19.656 3.172 20.828C4.343 22 6.229 22 10 22ZM6.27853 17.5228H7.01311C7.38572 17.5228 7.70617 17.4611 7.97445 17.3376C8.24487 17.212 8.45246 17.0374 8.59725 16.8138C8.74204 16.5902 8.81443 16.3283 8.81443 16.0281C8.81443 15.7236 8.74204 15.4532 8.59725 15.2169C8.45246 14.9784 8.24487 14.791 7.97445 14.6548C7.70617 14.5185 7.38572 14.4504 7.01311 14.4504H5.15749V19.1006H6.27853V17.5228ZM10.9288 19.1006C11.2396 19.1006 11.5249 19.0474 11.7847 18.9409C12.0466 18.8323 12.2734 18.679 12.465 18.481C12.6566 18.283 12.8046 18.0477 12.9089 17.7751C13.0154 17.5026 13.0686 17.2024 13.0686 16.8745V16.6797C13.0686 16.3496 13.0154 16.0494 12.9089 15.779C12.8046 15.5065 12.6555 15.2712 12.4618 15.0732C12.2702 14.873 12.0423 14.7197 11.7783 14.6133C11.5164 14.5047 11.2279 14.4504 10.9128 14.4504H9.41807V19.1006H10.9288ZM14.7741 16.3858V15.3159H16.7639V14.4504H13.6531V19.1006H14.7741V17.2482H16.5818V16.3858H14.7741Z" fill="black"/>
</g>
<defs>
<clipPath id="clip0_221_18082">
<rect width="24" height="24" fill="white"/>
</clipPath>
</defs>
</svg>
