<svg width="24" height="24" viewBox="0 0 24 24" fill="none" xmlns="http://www.w3.org/2000/svg">
<g clip-path="url(#clip0_221_18434)">
<path d="M19.352 7.61699L15.392 4.05399C14.265 3.03899 13.702 2.53099 13.009 2.26599L13 4.99999C13 7.35699 13 8.53599 13.732 9.26799C14.464 9.99999 15.643 9.99999 18 9.99999H21.58C21.218 9.29599 20.568 8.71199 19.352 7.61699Z" fill="black"/>
<path d="M6.42453 2.06737C6.12575 2.08818 5.84753 2.11542 5.58788 2.15108V4.30609H6.42453V2.06737Z" fill="black"/>
<path d="M5.5995 15.8108C5.5305 15.8108 5.4745 15.8668 5.4745 15.9358V16.0608C5.4745 17.0218 6.2655 17.8118 7.2255 17.8118C8.18649 17.8118 8.97749 17.0218 8.97749 16.0608V15.9358C8.97749 15.8668 8.92049 15.8108 8.85249 15.8108H5.5995Z" fill="black"/>
<path fill-rule="evenodd" clip-rule="evenodd" d="M3.98788 2.59228V5.10609C3.98788 5.54792 4.34605 5.90609 4.78788 5.90609H6.42453V6.74274H4.75862C4.31679 6.74274 3.95862 7.10091 3.95862 7.54274V10.0675C3.95862 10.5093 4.31679 10.8675 4.75862 10.8675H6.42453V12.5335C6.42453 12.9753 6.7827 13.3335 7.22453 13.3335H9.69064C10.1325 13.3335 10.4906 12.9753 10.4906 12.5335V10.0675C10.4906 9.62564 10.1325 9.26747 9.69064 9.26747H8.02453V8.34274H9.69055C10.1324 8.34274 10.4905 7.98457 10.4905 7.54274V5.10609C10.4905 4.66426 10.1324 4.30609 9.69055 4.30609H8.02453V2.00871C8.62705 2.00004 9.29266 2 10.03 2C10.636 2 11.121 2 11.53 2.017C11.5167 2.097 11.51 2.17833 11.51 2.261L11.5 5.095C11.5 6.192 11.5 7.162 11.605 7.943C11.719 8.79 11.98 9.637 12.672 10.329C13.362 11.019 14.21 11.281 15.057 11.395C15.838 11.5 16.808 11.5 17.905 11.5H21.957C22 12.034 22 12.69 22 13.563V14C22 17.771 22 19.657 20.828 20.828C19.656 21.999 17.771 22 14 22H10C6.229 22 4.343 22 3.172 20.828C2.001 19.656 2 17.771 2 14V10C2 6.229 2 4.343 3.172 3.172C3.41067 2.93353 3.67933 2.74358 3.98788 2.59228ZM3.97351 15.9358C3.97351 15.0378 4.70151 14.3088 5.5995 14.3088H8.85249C9.75049 14.3088 10.4785 15.0378 10.4785 15.9358V16.0608C10.4785 17.8448 9.01049 19.3128 7.2255 19.3128C5.4415 19.3128 3.97351 17.8448 3.97351 16.0608V15.9358Z" fill="black"/>
<path d="M8.02453 5.90609V6.74274H8.89055V5.90609H8.02453Z" fill="black"/>
<path d="M6.42453 8.34274H5.55862V9.26747H6.42453V8.34274Z" fill="black"/>
<path d="M8.02453 10.8675V11.7335H8.89064V10.8675H8.02453Z" fill="black"/>
</g>
<defs>
<clipPath id="clip0_221_18434">
<rect width="24" height="24" fill="white"/>
</clipPath>
</defs>
</svg>
