<svg width="24" height="24" viewBox="0 0 24 24" fill="none" xmlns="http://www.w3.org/2000/svg">
<g clip-path="url(#clip0_221_18416)">
<path d="M19.352 7.61699L15.392 4.05399C14.265 3.03899 13.702 2.53099 13.009 2.26599L13 4.99999C13 7.35699 13 8.53599 13.732 9.26799C14.464 9.99999 15.643 9.99999 18 9.99999H21.58C21.218 9.29599 20.568 8.71199 19.352 7.61699Z" fill="black"/>
<path fill-rule="evenodd" clip-rule="evenodd" d="M14 22H10C6.229 22 4.343 22 3.172 20.828C2.001 19.656 2 17.771 2 14V10C2 6.229 2 4.343 3.172 3.172C4.344 2.001 6.239 2 10.03 2C10.636 2 11.121 2 11.53 2.017C11.5167 2.097 11.51 2.17833 11.51 2.261L11.5 5.095C11.5 6.192 11.5 7.162 11.605 7.943C11.719 8.79 11.98 9.637 12.672 10.329C13.362 11.019 14.21 11.281 15.057 11.395C15.838 11.5 16.808 11.5 17.905 11.5H21.957C22 12.034 22 12.69 22 13.563V14C22 17.771 22 19.657 20.828 20.828C19.656 21.999 17.771 22 14 22ZM10.2725 14.343C10.2725 14.6076 10.4872 14.8224 10.7518 14.8224H11.1929L9.90626 16.109C9.87654 16.1392 9.83579 16.1559 9.79313 16.1559C9.75095 16.1559 9.7102 16.1392 9.68 16.109L8.66664 15.0956C8.23282 14.6618 7.51905 14.6618 7.08523 15.0956L6.2167 15.9641V10.9979C6.2167 10.5839 5.8807 10.2479 5.46669 10.2479C5.05268 10.2479 4.71667 10.5839 4.71667 10.9979V18.3761C4.71667 18.7911 5.05268 19.1261 5.46669 19.1261H12.4718C12.8858 19.1261 13.2219 18.7901 13.2219 18.3761C13.2219 17.9621 12.8858 17.626 12.4718 17.626H6.2167V17.3076C6.24577 17.2877 6.27279 17.2645 6.29717 17.2383L7.76257 15.7729C7.79277 15.7427 7.83351 15.726 7.8757 15.726C7.91836 15.726 7.95911 15.7427 7.98882 15.7729L9.00267 16.7868C9.43649 17.2201 10.1503 17.2201 10.5841 16.7868L11.8707 15.5007V15.9412C11.8707 16.2039 12.0869 16.4205 12.35 16.4205C12.6127 16.4205 12.8294 16.2039 12.8294 15.9412V14.343C12.8294 14.0803 12.6127 13.8636 12.35 13.8636H10.7518C10.4892 13.8636 10.2725 14.0803 10.2725 14.343Z" fill="black"/>
</g>
<defs>
<clipPath id="clip0_221_18416">
<rect width="24" height="24" fill="white"/>
</clipPath>
</defs>
</svg>
