<svg width="24" height="24" viewBox="0 0 24 24" fill="none" xmlns="http://www.w3.org/2000/svg">
<g clip-path="url(#clip0_221_18266)">
<path d="M2 5C2 4.057 2 3.586 2.293 3.293C2.586 3 3.057 3 4 3H20C20.943 3 21.414 3 21.707 3.293C22 3.586 22 4.057 22 5C22 5.943 22 6.414 21.707 6.707C21.414 7 20.943 7 20 7H4C3.057 7 2.586 7 2.293 6.707C2 6.414 2 5.943 2 5Z" fill="black"/>
<path fill-rule="evenodd" clip-rule="evenodd" d="M20.069 8.49999L20.5 8.49799V13C20.5 16.771 20.5 18.657 19.328 19.828C18.156 20.999 16.271 21 12.5 21H11.5C7.729 21 5.843 21 4.672 19.828C3.501 18.656 3.5 16.771 3.5 13V8.49799L3.931 8.49999H20.069ZM9 12C9 11.534 9 11.301 9.076 11.117C9.17749 10.8721 9.37208 10.6775 9.617 10.576C9.801 10.5 10.034 10.5 10.5 10.5H13.5C13.966 10.5 14.199 10.5 14.383 10.576C14.6275 10.6777 14.8217 10.8723 14.923 11.117C15 11.301 15 11.534 15 12C15 12.466 15 12.699 14.924 12.883C14.8223 13.1275 14.6277 13.3217 14.383 13.423C14.199 13.5 13.966 13.5 13.5 13.5H10.5C10.034 13.5 9.801 13.5 9.617 13.424C9.37246 13.3223 9.17826 13.1277 9.077 12.883C9 12.699 9 12.466 9 12Z" fill="black"/>
</g>
<defs>
<clipPath id="clip0_221_18266">
<rect width="24" height="24" fill="white"/>
</clipPath>
</defs>
</svg>
