<svg width="24" height="24" viewBox="0 0 24 24" fill="none" xmlns="http://www.w3.org/2000/svg">
<g clip-path="url(#clip0_221_18126)">
<path fill-rule="evenodd" clip-rule="evenodd" d="M2.07 5.258C2 5.626 2 6.068 2 6.95V14C2 17.771 2 19.657 3.172 20.828C4.344 21.999 6.229 22 10 22H14C17.771 22 19.657 22 20.828 20.828C21.999 19.656 22 17.771 22 14V11.798C22 9.166 22 7.849 21.23 6.994C21.1594 6.9151 21.0846 6.83999 21.006 6.769C20.151 6 18.834 6 16.202 6H15.828C14.675 6 14.098 6 13.56 5.847C13.2648 5.7626 12.9802 5.64449 12.712 5.495C12.224 5.224 11.816 4.815 11 4L10.45 3.45C10.176 3.176 10.04 3.04 9.896 2.92C9.27667 2.40664 8.51694 2.09194 7.716 2.017C7.53 2 7.336 2 6.95 2C6.067 2 5.626 2 5.258 2.07C4.46784 2.21922 3.741 2.60314 3.17231 3.17165C2.60361 3.74017 2.21947 4.46789 2.07 5.258ZM9.97 11.469C10.1106 11.3285 10.3012 11.2497 10.5 11.2497C10.6988 11.2497 10.8894 11.3285 11.03 11.469L12 12.439L12.97 11.469C13.0387 11.3953 13.1215 11.3362 13.2135 11.2952C13.3055 11.2542 13.4048 11.2322 13.5055 11.2304C13.6062 11.2286 13.7062 11.2472 13.7996 11.2849C13.893 11.3226 13.9778 11.3787 14.049 11.45C14.1203 11.5212 14.1764 11.606 14.2141 11.6994C14.2518 11.7928 14.2704 11.8928 14.2686 11.9935C14.2668 12.0942 14.2448 12.1935 14.2038 12.2855C14.1628 12.3775 14.1037 12.4603 14.03 12.529L13.06 13.499L14.03 14.469C14.1037 14.5377 14.1628 14.6205 14.2038 14.7125C14.2448 14.8045 14.2668 14.9038 14.2686 15.0045C14.2704 15.1052 14.2518 15.2052 14.2141 15.2986C14.1764 15.392 14.1203 15.4768 14.049 15.548C13.9778 15.6193 13.893 15.6754 13.7996 15.7131C13.7062 15.7508 13.6062 15.7694 13.5055 15.7676C13.4048 15.7658 13.3055 15.7438 13.2135 15.7028C13.1215 15.6618 13.0387 15.6027 12.97 15.529L12 14.559L11.03 15.529C10.9613 15.6027 10.8785 15.6618 10.7865 15.7028C10.6945 15.7438 10.5952 15.7658 10.4945 15.7676C10.3938 15.7694 10.2938 15.7508 10.2004 15.7131C10.107 15.6754 10.0222 15.6193 9.95096 15.548C9.87974 15.4768 9.8236 15.392 9.78588 15.2986C9.74816 15.2052 9.72963 15.1052 9.73141 15.0045C9.73318 14.9038 9.75523 14.8045 9.79622 14.7125C9.83721 14.6205 9.89631 14.5377 9.97 14.469L10.94 13.499L9.97 12.529C9.82955 12.3884 9.75066 12.1978 9.75066 11.999C9.75066 11.8002 9.82955 11.6096 9.97 11.469Z" fill="black"/>
</g>
<defs>
<clipPath id="clip0_221_18126">
<rect width="24" height="24" fill="white"/>
</clipPath>
</defs>
</svg>
