<svg width="24" height="24" viewBox="0 0 24 24" fill="none" xmlns="http://www.w3.org/2000/svg">
<g clip-path="url(#clip0_221_18446)">
<path d="M19.352 7.61699L15.392 4.05399C14.265 3.03899 13.702 2.53099 13.009 2.26599L13 4.99999C13 7.35699 13 8.53599 13.732 9.26799C14.464 9.99999 15.643 9.99999 18 9.99999H21.58C21.218 9.29599 20.568 8.71199 19.352 7.61699Z" fill="black"/>
<path d="M6.88549 16.3564C7.45755 16.3564 7.92822 16.8271 7.92822 17.3991C7.92822 17.9718 7.45755 18.4425 6.88549 18.4425C6.31279 18.4425 5.84212 17.9718 5.84212 17.3991C5.84212 16.8271 6.31279 16.3564 6.88549 16.3564Z" fill="black"/>
<path fill-rule="evenodd" clip-rule="evenodd" d="M10 22H14C17.771 22 19.656 21.999 20.828 20.828C22 19.657 22 17.771 22 14V13.563C22 12.69 22 12.034 21.957 11.5H17.905C16.808 11.5 15.838 11.5 15.057 11.395C14.21 11.281 13.362 11.019 12.672 10.329C11.98 9.637 11.719 8.79 11.605 7.943C11.5 7.162 11.5 6.192 11.5 5.095L11.51 2.261C11.51 2.17833 11.5167 2.097 11.53 2.017C11.121 2 10.636 2 10.03 2C6.239 2 4.344 2.001 3.172 3.172C2 4.343 2 6.229 2 10V14C2 17.771 2.001 19.656 3.172 20.828C4.343 22 6.229 22 10 22ZM9.18001 12.392C9.18001 12.049 8.89773 11.7661 8.55412 11.7661C8.21113 11.7661 7.92822 12.049 7.92822 12.392V15.355C7.60526 15.1897 7.24788 15.104 6.88549 15.104C5.62619 15.104 4.59033 16.1398 4.59033 17.3991C4.59033 18.6578 5.62619 19.6936 6.88549 19.6936C8.14416 19.6936 9.18001 18.6584 9.18001 17.3991V14.4368C9.49296 14.597 9.84784 14.6871 10.2234 14.6871C10.567 14.6871 10.8493 14.4048 10.8493 14.0612C10.8493 13.7176 10.567 13.4353 10.2234 13.4353C9.64755 13.4353 9.18001 12.9678 9.18001 12.392Z" fill="black"/>
</g>
<defs>
<clipPath id="clip0_221_18446">
<rect width="24" height="24" fill="white"/>
</clipPath>
</defs>
</svg>
