<svg width="24" height="24" viewBox="0 0 24 24" fill="none" xmlns="http://www.w3.org/2000/svg">
<g clip-path="url(#clip0_221_18022)">
<path d="M5.655 2.227C5.222 2.34 4.944 2.5 4.727 2.712C4.422 3.012 4.223 3.432 4.114 4.225C4.002 5.042 4 6.124 4 7.675V16.245C4.39598 15.9746 4.83533 15.7741 5.299 15.652C5.4161 15.6208 5.53499 15.5968 5.655 15.58V2.227ZM7.31 15.514H20V7.676C20 6.124 19.998 5.042 19.886 4.225C19.777 3.432 19.578 3.012 19.273 2.712C18.967 2.413 18.539 2.218 17.729 2.112C16.895 2.002 15.791 2 14.207 2H9.793C8.791 2 7.981 2 7.31 2.029V15.514ZM7.473 17.135C6.394 17.135 6.017 17.142 5.727 17.218C5.34062 17.3175 4.98424 17.5095 4.6886 17.7775C4.39296 18.0454 4.16693 18.3812 4.03 18.756C4.04533 19.1367 4.07333 19.4763 4.114 19.775C4.223 20.568 4.422 20.988 4.727 21.288C5.033 21.587 5.461 21.782 6.271 21.888C7.105 21.998 8.209 22 9.793 22H14.207C15.791 22 16.895 21.998 17.729 21.889C18.539 21.782 18.967 21.587 19.273 21.288C19.578 20.988 19.777 20.568 19.886 19.775C19.978 19.109 19.996 18.265 19.999 17.135H7.473Z" fill="black"/>
</g>
<defs>
<clipPath id="clip0_221_18022">
<rect width="24" height="24" fill="white"/>
</clipPath>
</defs>
</svg>
