<svg width="24" height="24" viewBox="0 0 24 24" fill="none" xmlns="http://www.w3.org/2000/svg">
<g clip-path="url(#clip0_221_18006)">
<path d="M19.352 7.61699L15.392 4.05399C14.265 3.03899 13.702 2.53099 13.009 2.26599L13 4.99999C13 7.35699 13 8.53599 13.732 9.26799C14.464 9.99999 15.643 9.99999 18 9.99999H21.58C21.218 9.29599 20.568 8.71199 19.352 7.61699Z" fill="black"/>
<path d="M5.32732 13.0334C5.37032 12.7094 5.43233 12.5094 5.57233 12.3684C5.71034 12.2284 5.90533 12.1664 6.22234 12.1234C6.65148 12.0653 7.21293 12.0653 7.9894 12.0654H8.14136C8.91783 12.0653 9.47928 12.0653 9.90842 12.1234C10.2254 12.1664 10.4204 12.2284 10.5584 12.3684C10.6984 12.5094 10.7604 12.7094 10.8034 13.0334C10.8615 13.4693 10.8615 14.0366 10.8614 14.8226L10.8614 16.9167C10.8615 17.4844 10.8615 17.8915 10.8304 18.1885C10.8184 18.2925 10.7954 18.3895 10.7844 18.4315C10.7804 18.4325 10.7764 18.4345 10.7734 18.4365C10.7334 18.4165 10.6474 18.3705 10.5714 18.3165L9.55541 17.4595C9.35141 17.2795 9.1814 17.1305 9.03239 17.0215L9.0314 17.0205C8.8294 16.8735 8.62438 16.7665 8.38538 16.7185C8.17437 16.6755 7.95538 16.6755 7.74437 16.7185C7.50537 16.7665 7.30036 16.8745 7.09936 17.0215C6.95035 17.1305 6.78035 17.2795 6.57534 17.4595L6.56535 17.4695C6.54022 17.4917 6.51551 17.5135 6.4912 17.535C6.08703 17.8918 5.79516 18.1496 5.55933 18.3165C5.48333 18.3705 5.39832 18.4155 5.35832 18.4355L5.35332 18.4335L5.34633 18.4305C5.33533 18.3885 5.31232 18.2925 5.30132 18.1895C5.26927 17.8904 5.26929 17.4838 5.26932 16.9156L5.26931 14.822C5.26925 14.0364 5.26921 13.4692 5.32732 13.0334Z" fill="black"/>
<path fill-rule="evenodd" clip-rule="evenodd" d="M14 22H10C6.229 22 4.344 21.999 3.172 20.828C2 19.657 2 17.771 2 14V10C2 6.229 2 4.343 3.172 3.172C4.343 2 6.239 2 10.03 2C10.636 2 11.121 2 11.53 2.017C11.5167 2.097 11.51 2.17833 11.51 2.261L11.5 5.095C11.5 6.193 11.5 7.162 11.605 7.943C11.719 8.79 11.98 9.637 12.672 10.329C13.363 11.02 14.21 11.281 15.057 11.395C15.838 11.5 16.808 11.5 17.905 11.5H21.957C22 12.034 22 12.69 22 13.563V14C22 17.771 21.999 19.656 20.828 20.828C19.657 22 17.771 22 14 22ZM8.04338 10.5744H8.08837C8.92939 10.5744 9.59142 10.5764 10.1094 10.6464C10.7344 10.7314 11.2264 10.9244 11.6184 11.3204C12.0085 11.7144 12.1975 12.2094 12.2815 12.8374C12.3505 13.3594 12.3525 14.0285 12.3525 14.8775V16.8835C12.3525 17.4965 12.3515 17.9825 12.3125 18.3475C12.2625 18.8145 12.1285 19.2246 11.8235 19.5066C11.5694 19.7396 11.2484 19.8876 10.9064 19.9266C10.4904 19.9746 10.0934 19.8036 9.71042 19.5326C9.41241 19.3216 9.0494 19.0015 8.59339 18.5985L8.57839 18.5855C8.56068 18.5699 8.54352 18.5547 8.52685 18.5399C8.3647 18.3964 8.25032 18.2952 8.15239 18.2235L8.08038 18.1775C8.07138 18.1765 8.06237 18.1765 8.05137 18.1775C8.03837 18.1845 8.00538 18.2045 7.97938 18.2235C7.87656 18.2997 7.75561 18.4067 7.5803 18.5617L7.55336 18.5855L7.53836 18.5985C7.08235 19.0025 6.71935 19.3216 6.42034 19.5326C6.03833 19.8036 5.64033 19.9746 5.22533 19.9266H5.22432C4.88231 19.8876 4.5613 19.7406 4.3083 19.5066C4.00229 19.2246 3.86929 18.8145 3.81929 18.3475C3.78029 17.9825 3.7793 17.4965 3.7793 16.8835V14.8775C3.7793 14.0285 3.7813 13.3594 3.8503 12.8374C3.9343 12.2094 4.1233 11.7144 4.51331 11.3204C4.90531 10.9244 5.39733 10.7314 6.02234 10.6464C6.54035 10.5764 7.20236 10.5744 8.04338 10.5744Z" fill="black"/>
</g>
<defs>
<clipPath id="clip0_221_18006">
<rect width="24" height="24" fill="white"/>
</clipPath>
</defs>
</svg>
