<svg width="24" height="24" viewBox="0 0 24 24" fill="none" xmlns="http://www.w3.org/2000/svg">
<g clip-path="url(#clip0_221_18054)">
<path d="M4.727 2.712C4.944 2.5 5.222 2.34 5.655 2.227V15.58C5.53499 15.5968 5.4161 15.6208 5.299 15.652C4.83533 15.7741 4.39598 15.9746 4 16.245V7.675C4 6.124 4.002 5.042 4.114 4.225C4.223 3.432 4.422 3.012 4.727 2.712Z" fill="black"/>
<path d="M13.0745 7.17902V6.13901H14.1145V7.17902H13.0745Z" fill="black"/>
<path d="M10.5492 10.529V11.569H11.5892V10.529H10.5492Z" fill="black"/>
<path d="M15.5999 11.569V10.529H16.6399V11.569H15.5999Z" fill="black"/>
<path fill-rule="evenodd" clip-rule="evenodd" d="M20 15.514H7.31V2.029C7.981 2 8.791 2 9.793 2H14.207C15.791 2 16.895 2.002 17.729 2.112C18.539 2.218 18.967 2.413 19.273 2.712C19.578 3.012 19.777 3.432 19.886 4.225C19.998 5.042 20 6.124 20 7.676V15.514ZM14.2295 4.63901C14.9935 4.63901 15.6145 5.26002 15.6145 6.02402V7.29401C15.6145 8.05801 14.9935 8.67902 14.2295 8.67902H12.9595C12.1955 8.67902 11.5745 8.05801 11.5745 7.29401V6.02402C11.5745 5.26002 12.1955 4.63901 12.9595 4.63901H14.2295ZM13.0892 10.414C13.0892 9.65 12.4682 9.02899 11.7042 9.02899H10.4342C9.6702 9.02899 9.04919 9.65 9.04919 10.414V11.684C9.04919 12.448 9.6702 13.069 10.4342 13.069H11.7042C12.4682 13.069 13.0892 12.448 13.0892 11.684V10.414ZM16.7549 9.02899C17.5189 9.02899 18.1399 9.65 18.1399 10.414V11.684C18.1399 12.448 17.5189 13.069 16.7549 13.069H15.4849C14.7209 13.069 14.0999 12.448 14.0999 11.684V10.414C14.0999 9.65 14.7209 9.02899 15.4849 9.02899H16.7549Z" fill="black"/>
<path d="M5.727 17.218C6.017 17.142 6.394 17.135 7.473 17.135H19.999C19.996 18.265 19.978 19.109 19.886 19.775C19.777 20.568 19.578 20.988 19.273 21.288C18.967 21.587 18.539 21.782 17.729 21.889C16.895 21.998 15.791 22 14.207 22H9.793C8.209 22 7.105 21.998 6.271 21.888C5.461 21.782 5.033 21.587 4.727 21.288C4.422 20.988 4.223 20.568 4.114 19.775C4.07333 19.4763 4.04533 19.1367 4.03 18.756C4.16693 18.3812 4.39296 18.0454 4.6886 17.7775C4.98424 17.5095 5.34062 17.3175 5.727 17.218Z" fill="black"/>
</g>
<defs>
<clipPath id="clip0_221_18054">
<rect width="24" height="24" fill="white"/>
</clipPath>
</defs>
</svg>
