<svg width="24" height="24" viewBox="0 0 24 24" fill="none" xmlns="http://www.w3.org/2000/svg">
<g clip-path="url(#clip0_221_18374)">
<path d="M19.352 7.61699L15.392 4.05399C14.265 3.03899 13.702 2.53099 13.009 2.26599L13 4.99999C13 7.35699 13 8.53599 13.732 9.26799C14.464 9.99999 15.643 9.99999 18 9.99999H21.58C21.218 9.29599 20.568 8.71199 19.352 7.61699Z" fill="black"/>
<path fill-rule="evenodd" clip-rule="evenodd" d="M10 22H14C17.771 22 19.656 21.999 20.828 20.828C22 19.657 22 17.771 22 14V13.563C22 12.69 22 12.034 21.957 11.5H17.905C16.808 11.5 15.838 11.5 15.057 11.395C14.21 11.281 13.362 11.019 12.672 10.329C11.98 9.637 11.719 8.79 11.605 7.943C11.5 7.162 11.5 6.192 11.5 5.095L11.51 2.261C11.51 2.17833 11.5167 2.097 11.53 2.017C11.121 2 10.636 2 10.03 2C6.239 2 4.344 2.001 3.172 3.172C2 4.343 2 6.229 2 10V14C2 17.771 2.001 19.656 3.172 20.828C4.343 22 6.229 22 10 22ZM8.27618 13.7466L7.42749 15.4724L6.57881 13.7466H5.15264L6.60074 16.3211L5.11389 18.9381H6.55395L7.42749 17.18L8.30103 18.9381H9.74475L8.25498 16.3211L9.70601 13.7466H8.27618ZM11.4026 17.9754H13.581V18.9381H10.1511V13.7466H11.4026V17.9754ZM16.592 17.1303C16.7214 17.2327 16.7864 17.3752 16.7864 17.5579C16.7864 17.7195 16.7265 17.8452 16.6066 17.9344C16.486 18.0236 16.323 18.0682 16.1161 18.0682C15.793 18.0682 15.5591 18.0017 15.4158 17.8701C15.2718 17.7378 15.2002 17.5331 15.2002 17.2553H13.9451C13.9451 17.5974 14.0313 17.9001 14.2031 18.1625C14.3756 18.4249 14.6322 18.6318 14.9736 18.7831C15.3142 18.9337 15.6958 19.009 16.1161 19.009C16.7126 19.009 17.1819 18.8796 17.5248 18.6208C17.8669 18.3613 18.0379 18.0046 18.0379 17.5506C18.0379 16.9827 17.7572 16.5375 17.1965 16.2136C16.9655 16.0806 16.6709 15.9563 16.312 15.8416C15.9531 15.7261 15.7024 15.6142 15.5598 15.5061C15.4173 15.3979 15.3464 15.2772 15.3464 15.1442C15.3464 14.9922 15.4107 14.8672 15.5401 14.7685C15.6702 14.6698 15.8464 14.6201 16.0701 14.6201C16.2908 14.6201 16.4663 14.6786 16.5957 14.7948C16.725 14.9117 16.7901 15.0755 16.7901 15.2868H18.0379C18.0379 14.971 17.956 14.6895 17.7916 14.4439C17.6278 14.1976 17.3976 14.0082 17.1022 13.8752C16.8062 13.7422 16.4714 13.6756 16.0986 13.6756C15.7155 13.6756 15.3712 13.737 15.0642 13.8591C14.7579 13.9812 14.5204 14.153 14.353 14.3723C14.1856 14.5923 14.1015 14.846 14.1015 15.134C14.1015 15.7115 14.4378 16.1654 15.111 16.4958C15.3179 16.5982 15.584 16.7034 15.9093 16.8131C16.2353 16.922 16.4626 17.028 16.592 17.1303Z" fill="black"/>
</g>
<defs>
<clipPath id="clip0_221_18374">
<rect width="24" height="24" fill="white"/>
</clipPath>
</defs>
</svg>
