<svg width="24" height="24" viewBox="0 0 24 24" fill="none" xmlns="http://www.w3.org/2000/svg">
<g clip-path="url(#clip0_221_17931)">
<path d="M19.352 7.61699L15.392 4.05399C14.265 3.03899 13.702 2.53099 13.009 2.26599L13 4.99999C13 7.35699 13 8.53599 13.732 9.26799C14.464 9.99999 15.643 9.99999 18 9.99999H21.58C21.218 9.29599 20.568 8.71199 19.352 7.61699Z" fill="black"/>
<path fill-rule="evenodd" clip-rule="evenodd" d="M10 22H14C17.771 22 19.657 22 20.828 20.828C21.999 19.656 22 17.771 22 14V13.563C22 12.69 22 12.034 21.957 11.5H17.905C16.808 11.5 15.838 11.5 15.057 11.395C14.21 11.281 13.363 11.02 12.672 10.329C11.98 9.637 11.719 8.79 11.605 7.943C11.5 7.162 11.5 6.193 11.5 5.095L11.51 2.261C11.51 2.17833 11.5167 2.097 11.53 2.017C11.121 2 10.636 2 10.03 2C6.239 2 4.343 2 3.172 3.172C2 4.343 2 6.229 2 10V14C2 17.771 2 19.657 3.172 20.828C4.344 21.999 6.229 22 10 22ZM5.453 16.513C5.32265 16.374 5.25011 16.1906 5.25011 16C5.25011 15.8094 5.32265 15.626 5.453 15.487L7.328 13.487C7.46486 13.3453 7.65198 13.2632 7.84892 13.2583C8.04586 13.2534 8.23681 13.3262 8.3805 13.461C8.52419 13.5958 8.6091 13.7816 8.61686 13.9785C8.62463 14.1753 8.55463 14.3673 8.422 14.513L7.732 15.25H11C11.1989 15.25 11.3897 15.329 11.5303 15.4697C11.671 15.6103 11.75 15.8011 11.75 16C11.75 16.1989 11.671 16.3897 11.5303 16.5303C11.3897 16.671 11.1989 16.75 11 16.75H7.731L8.422 17.487C8.55463 17.6327 8.62463 17.8247 8.61686 18.0215C8.6091 18.2184 8.52419 18.4042 8.3805 18.539C8.23681 18.6738 8.04586 18.7466 7.84892 18.7417C7.65198 18.7368 7.46486 18.6547 7.328 18.513L5.453 16.513Z" fill="black"/>
</g>
<defs>
<clipPath id="clip0_221_17931">
<rect width="24" height="24" fill="white"/>
</clipPath>
</defs>
</svg>
