<svg width="24" height="24" viewBox="0 0 24 24" fill="none" xmlns="http://www.w3.org/2000/svg">
<g clip-path="url(#clip0_221_18452)">
<path d="M19.352 7.61699L15.392 4.05399C14.265 3.03899 13.702 2.53099 13.009 2.26599L13 4.99999C13 7.35699 13 8.53599 13.732 9.26799C14.464 9.99999 15.643 9.99999 18 9.99999H21.58C21.218 9.29599 20.568 8.71199 19.352 7.61699Z" fill="black"/>
<path d="M10.7507 16.0311C10.7507 16.7436 10.7507 17.2535 10.7047 17.6464C10.6667 17.9654 10.6067 18.1574 10.4907 18.3004C10.4427 18.3584 10.3897 18.4104 10.3317 18.4584C10.1897 18.5754 9.99668 18.6344 9.67867 18.6724C9.2777 18.7194 8.75475 18.7194 8.01883 18.7194C7.28291 18.7194 6.75959 18.7194 6.35861 18.6724C6.03961 18.6344 5.8476 18.5754 5.70459 18.4584C5.64659 18.4104 5.5936 18.3584 5.5466 18.3004C5.4296 18.1574 5.36959 17.9654 5.33259 17.6464C5.28556 17.2534 5.28557 16.7434 5.28559 16.0306V15.489C5.28557 14.7762 5.28556 14.2662 5.33259 13.8733C5.36959 13.5553 5.42959 13.3623 5.54559 13.2203C5.5936 13.1623 5.64659 13.1093 5.70459 13.0613C5.8476 12.9443 6.0396 12.8853 6.35761 12.8473C6.75962 12.8003 7.28264 12.8002 8.01865 12.8002C8.75467 12.8002 9.27767 12.8003 9.67867 12.8473C9.99668 12.8853 10.1887 12.9443 10.3317 13.0613C10.3897 13.1093 10.4427 13.1623 10.4907 13.2203C10.6067 13.3623 10.6667 13.5553 10.7047 13.8733C10.7507 14.2661 10.7507 14.776 10.7507 15.4885V16.0311Z" fill="black"/>
<path d="M13.0157 15.8662C13.0158 16.3254 13.0158 16.6387 12.9827 16.8613L12.9787 16.8883C12.9716 16.8868 12.9651 16.8845 12.9582 16.8822C12.9564 16.8816 12.9546 16.881 12.9527 16.8803C12.7437 16.8123 12.4737 16.6783 12.0807 16.4813V15.0383C12.4737 14.8413 12.7437 14.7073 12.9527 14.6393C12.9545 14.6387 12.9563 14.6381 12.9581 14.6375C12.965 14.6351 12.9715 14.6329 12.9787 14.6313C12.9797 14.6358 12.9805 14.6403 12.9812 14.6448C12.982 14.6493 12.9827 14.6538 12.9837 14.6583C13.0158 14.8807 13.0158 15.1936 13.0157 15.652V15.8662Z" fill="black"/>
<path fill-rule="evenodd" clip-rule="evenodd" d="M10 22H14C17.771 22 19.656 21.999 20.828 20.828C22 19.657 22 17.771 22 14V13.563C22 12.69 22 12.034 21.957 11.5H17.905C16.808 11.5 15.838 11.5 15.057 11.395C14.21 11.281 13.362 11.019 12.672 10.329C11.98 9.637 11.719 8.79 11.605 7.943C11.5 7.162 11.5 6.192 11.5 5.095L11.51 2.261C11.51 2.17833 11.5167 2.097 11.53 2.017C11.121 2 10.636 2 10.03 2C6.239 2 4.344 2.001 3.172 3.172C2 4.343 2 6.229 2 10V14C2 17.771 2.001 19.656 3.172 20.828C4.343 22 6.229 22 10 22ZM3.95557 16.0083V15.5103C3.95557 14.7693 3.95657 14.1813 4.01157 13.7163C4.07557 13.1823 4.21558 12.7423 4.51858 12.3753C4.62158 12.2512 4.73557 12.1372 4.85958 12.0342L4.86158 12.0322C5.22958 11.7302 5.66759 11.5902 6.20261 11.5262C6.66761 11.4722 7.25563 11.4712 7.99564 11.4712H8.04064C8.78166 11.4712 9.36967 11.4722 9.83468 11.5272C10.3697 11.5902 10.8077 11.7312 11.1747 12.0332C11.3007 12.1362 11.4147 12.2502 11.5177 12.3762H11.5187C11.7967 12.7163 11.9377 13.1143 12.0087 13.5943C12.2047 13.5023 12.3817 13.4273 12.5387 13.3753H12.5397C12.9247 13.2493 13.3318 13.2183 13.7078 13.4513C14.0848 13.6833 14.2388 14.0623 14.2978 14.4623C14.3438 14.7713 14.3458 15.1773 14.3458 15.6653V15.8543C14.3458 16.3423 14.3438 16.7483 14.2978 17.0563C14.2388 17.4584 14.0848 17.8364 13.7078 18.0694C13.3318 18.3014 12.9247 18.2704 12.5397 18.1444H12.5387C12.3817 18.0924 12.2047 18.0174 12.0077 17.9254C11.9377 18.4054 11.7967 18.8044 11.5177 19.1434C11.4147 19.2684 11.3007 19.3824 11.1757 19.4864H11.1747C10.8067 19.7884 10.3697 19.9294 9.83468 19.9924V19.9934C9.42767 20.0404 8.92667 20.0474 8.31166 20.0484H7.72464C7.10863 20.0474 6.60862 20.0404 6.20161 19.9924C5.6666 19.9294 5.22859 19.7884 4.86058 19.4854C4.73558 19.3824 4.62158 19.2684 4.51858 19.1444L4.51757 19.1434C4.21557 18.7754 4.07557 18.3384 4.01157 17.8034V17.8023C3.95657 17.3373 3.95557 16.7503 3.95557 16.0083Z" fill="black"/>
</g>
<defs>
<clipPath id="clip0_221_18452">
<rect width="24" height="24" fill="white"/>
</clipPath>
</defs>
</svg>
