<svg width="24" height="24" viewBox="0 0 24 24" fill="none" xmlns="http://www.w3.org/2000/svg">
<g clip-path="url(#clip0_221_18410)">
<path d="M19.352 7.61699L15.392 4.05399C14.265 3.03899 13.702 2.53099 13.009 2.26599L13 4.99999C13 7.35699 13 8.53599 13.732 9.26799C14.464 9.99999 15.643 9.99999 18 9.99999H21.58C21.218 9.29599 20.568 8.71199 19.352 7.61699Z" fill="black"/>
<path d="M6.25516 18.2147V14.9523H6.67548C7.0439 14.9523 7.3246 15.0794 7.51686 15.3338C7.70984 15.5882 7.8056 15.9661 7.8056 16.4676V16.692C7.8056 17.1964 7.70984 17.5758 7.51686 17.8309C7.3246 18.0868 7.04902 18.2147 6.6901 18.2147H6.25516Z" fill="black"/>
<path d="M12.8473 16.4712C12.8473 15.9552 12.761 15.5641 12.5885 15.2965C12.416 15.029 12.1697 14.8952 11.8488 14.8952C11.2216 14.8952 10.8897 15.366 10.8539 16.3068L10.8502 16.6883C10.8502 17.1971 10.935 17.5882 11.1039 17.8616C11.2727 18.135 11.5235 18.2717 11.8561 18.2717C12.1718 18.2717 12.416 18.1372 12.5871 17.8689C12.7581 17.5999 12.8451 17.2139 12.8473 16.7103V16.4712Z" fill="black"/>
<path fill-rule="evenodd" clip-rule="evenodd" d="M10 22H14C17.771 22 19.656 21.999 20.828 20.828C22 19.657 22 17.771 22 14V13.563C22 12.69 22 12.034 21.957 11.5H17.905C16.808 11.5 15.838 11.5 15.057 11.395C14.21 11.281 13.362 11.019 12.672 10.329C11.98 9.637 11.719 8.79 11.605 7.943C11.5 7.162 11.5 6.192 11.5 5.095L11.51 2.261C11.51 2.17833 11.5167 2.097 11.53 2.017C11.121 2 10.636 2 10.03 2C6.239 2 4.344 2.001 3.172 3.172C2 4.343 2 6.229 2 10V14C2 17.771 2.001 19.656 3.172 20.828C4.343 22 6.229 22 10 22ZM5.00369 13.9859V19.1774H6.7113C7.16086 19.1745 7.5673 19.067 7.93206 18.8543C8.29756 18.6416 8.57972 18.347 8.78075 17.9705C8.98177 17.5933 9.08192 17.1679 9.08192 16.692V16.453C9.07972 15.983 8.97592 15.5575 8.77051 15.1789C8.56437 14.7995 8.27855 14.5063 7.91306 14.298C7.54683 14.0904 7.13454 13.9859 6.67548 13.9859H5.00369ZM14.12 16.6883C14.12 17.1949 14.0264 17.643 13.8385 18.0327C13.6507 18.4223 13.3838 18.7227 13.0381 18.9332C12.6923 19.143 12.2983 19.2483 11.8561 19.2483C11.4138 19.2483 11.022 19.1467 10.6792 18.9435C10.337 18.7403 10.0702 18.4501 9.87872 18.0721C9.68793 17.6942 9.58705 17.26 9.57755 16.771V16.4786C9.57755 15.9698 9.67111 15.521 9.85751 15.1321C10.0439 14.7439 10.3115 14.4435 10.6601 14.2322C11.0081 14.0209 11.4043 13.9149 11.8488 13.9149C12.2888 13.9149 12.6806 14.0195 13.0256 14.2285C13.3699 14.4376 13.6382 14.7351 13.829 15.1218C14.0205 15.5078 14.1178 15.9508 14.12 16.45V16.6883ZM18.6727 18.377C18.851 18.0999 18.9482 17.7805 18.9651 17.4194H17.7209C17.7114 17.714 17.6303 17.9296 17.4782 18.0648C17.3262 18.2001 17.1061 18.268 16.8189 18.268C16.4789 18.268 16.2392 18.1489 16.1003 17.9113C15.9614 17.6738 15.892 17.2783 15.892 16.7242V16.3572C15.8993 15.8463 15.9753 15.4742 16.12 15.241C16.2648 15.0085 16.4936 14.8916 16.805 14.8916C17.1113 14.8916 17.3393 14.9603 17.4892 15.0984C17.639 15.2366 17.7187 15.4632 17.7282 15.7797H18.976C18.9234 15.1971 18.7063 14.7403 18.3232 14.4084C17.9409 14.0772 17.4344 13.9113 16.805 13.9113C16.3671 13.9113 15.9826 14.0151 15.6493 14.2235C15.3167 14.4311 15.0616 14.7256 14.8846 15.1072C14.7077 15.4888 14.6193 15.934 14.6193 16.4428V16.6993C14.6193 17.51 14.8152 18.1372 15.2077 18.5816C15.5996 19.0261 16.1368 19.2483 16.8189 19.2483C17.2326 19.2483 17.6003 19.1723 17.9227 19.0202C18.2443 18.8682 18.4943 18.654 18.6727 18.377Z" fill="black"/>
</g>
<defs>
<clipPath id="clip0_221_18410">
<rect width="24" height="24" fill="white"/>
</clipPath>
</defs>
</svg>
