<svg width="24" height="24" viewBox="0 0 24 24" fill="none" xmlns="http://www.w3.org/2000/svg">
<g clip-path="url(#clip0_221_18277)">
<path d="M2 5C2 4.057 2 3.586 2.293 3.293C2.586 3 3.057 3 4 3H20C20.943 3 21.414 3 21.707 3.293C22 3.586 22 4.057 22 5C22 5.943 22 6.414 21.707 6.707C21.414 7 20.943 7 20 7H4C3.057 7 2.586 7 2.293 6.707C2 6.414 2 5.943 2 5ZM20.069 8.5L20.5 8.498V13C20.5 16.771 20.5 18.657 19.328 19.828C18.156 20.999 16.271 21 12.5 21H11.5C7.729 21 5.843 21 4.672 19.828C3.501 18.656 3.5 16.771 3.5 13V8.498L3.931 8.5H11.25V15.045L9.557 13.165C9.49233 13.0877 9.41275 13.0242 9.323 12.9783C9.23324 12.9325 9.13516 12.9051 9.03462 12.898C8.93408 12.8909 8.83313 12.9041 8.73781 12.9369C8.6425 12.9697 8.55476 13.0214 8.47986 13.0888C8.40495 13.1562 8.34441 13.2381 8.30184 13.3295C8.25928 13.4208 8.23557 13.5198 8.23213 13.6206C8.22869 13.7213 8.24559 13.8217 8.28182 13.9158C8.31805 14.0098 8.37287 14.0956 8.443 14.168L11.443 17.502C11.5133 17.58 11.5992 17.6423 11.6952 17.685C11.7911 17.7277 11.895 17.7498 12 17.7498C12.105 17.7498 12.2089 17.7277 12.3048 17.685C12.4008 17.6423 12.4867 17.58 12.557 17.502L15.557 14.168C15.6816 14.0191 15.7435 13.8276 15.7298 13.6339C15.7161 13.4402 15.6278 13.2594 15.4835 13.1295C15.3392 12.9995 15.1502 12.9306 14.9561 12.9373C14.762 12.9439 14.5781 13.0255 14.443 13.165L12.75 15.045V8.5H20.069Z" fill="black"/>
</g>
<defs>
<clipPath id="clip0_221_18277">
<rect width="24" height="24" fill="white"/>
</clipPath>
</defs>
</svg>
