<svg width="24" height="24" viewBox="0 0 24 24" fill="none" xmlns="http://www.w3.org/2000/svg">
<g clip-path="url(#clip0_221_18243)">
<path d="M9.5 2C9.10218 2 8.72064 2.15804 8.43934 2.43934C8.15804 2.72064 8 3.10218 8 3.5V4.5C8 4.89782 8.15804 5.27936 8.43934 5.56066C8.72064 5.84196 9.10218 6 9.5 6H14.5C14.8978 6 15.2794 5.84196 15.5607 5.56066C15.842 5.27936 16 4.89782 16 4.5V3.5C16 3.10218 15.842 2.72064 15.5607 2.43934C15.2794 2.15804 14.8978 2 14.5 2H9.5Z" fill="black"/>
<path fill-rule="evenodd" clip-rule="evenodd" d="M6.5 4.03699C5.242 4.10699 4.448 4.30699 3.879 4.87699C3 5.75599 3 7.16999 3 9.99799V15.998C3 18.827 3 20.24 3.879 21.12C4.757 21.998 6.17199 21.998 8.99998 21.998H15C17.828 21.998 19.243 21.998 20.121 21.12C21 20.241 21 18.827 21 15.998V9.99799C21 7.16999 21 5.75599 20.121 4.87699C19.552 4.30699 18.758 4.10699 17.5 4.03699V4.49999C17.5 5.29564 17.1839 6.0587 16.6213 6.62131C16.0587 7.18392 15.2956 7.49999 14.5 7.49999H9.5C8.70435 7.49999 7.94129 7.18392 7.37868 6.62131C6.81607 6.0587 6.5 5.29564 6.5 4.49999V4.03699ZM14.7484 12.7051C14.7366 12.5068 14.6466 12.3212 14.498 12.1892C14.3494 12.0572 14.1546 11.9897 13.9562 12.0013C13.7578 12.0129 13.5722 12.1028 13.44 12.2512L11.333 14.6212L10.561 13.7512C10.4956 13.6775 10.4164 13.6174 10.3277 13.5744C10.2391 13.5313 10.1429 13.5062 10.0446 13.5003C9.94624 13.4945 9.84771 13.5081 9.75462 13.5403C9.66153 13.5725 9.5757 13.6228 9.50203 13.6882C9.42836 13.7536 9.36829 13.8328 9.32525 13.9214C9.28221 14.0101 9.25705 14.1063 9.2512 14.2046C9.24535 14.3029 9.25893 14.4015 9.29116 14.4946C9.32338 14.5877 9.37363 14.6735 9.43903 14.7472L10.773 16.2472C10.8434 16.3263 10.9297 16.3896 11.0263 16.433C11.1229 16.4764 11.2276 16.4988 11.3335 16.4988C11.4394 16.4988 11.5441 16.4764 11.6407 16.433C11.7373 16.3896 11.8237 16.3263 11.894 16.2472L14.561 13.2472C14.6928 13.0984 14.7602 12.9035 14.7484 12.7051Z" fill="black"/>
</g>
<defs>
<clipPath id="clip0_221_18243">
<rect width="24" height="24" fill="white"/>
</clipPath>
</defs>
</svg>
