<svg width="24" height="24" viewBox="0 0 24 24" fill="none" xmlns="http://www.w3.org/2000/svg">
<g clip-path="url(#clip0_221_18391)">
<path fill-rule="evenodd" clip-rule="evenodd" d="M11.667 4.873C11.66 4.897 10.998 7.356 10.998 7.356C10.774 8.192 10.597 8.85401 10.5 9.40001C10.395 9.98601 10.37 10.497 10.487 10.998V10.999C10.658 11.731 11.042 12.397 11.591 12.912C11.967 13.264 12.423 13.498 12.983 13.7C13.503 13.888 16.414 14.668 16.924 14.77L17.377 14.846C17.377 14.846 19.331 15.217 20.607 13.711C20.96 13.334 21.193 12.879 21.396 12.32C21.584 11.798 21.762 11.136 21.986 10.3L22.39 8.79402C22.614 7.95902 22.791 7.29601 22.887 6.75001C22.993 6.16501 23.018 5.65302 22.9 5.15202C22.73 4.41902 22.345 3.75302 21.797 3.23902C21.42 2.88602 20.965 2.653 20.405 2.451C19.884 2.262 18.336 1.847 18.336 1.847C17.499 1.623 16.837 1.446 16.292 1.348C15.706 1.244 15.195 1.219 14.693 1.335V1.33601C13.96 1.50601 13.295 1.89101 12.78 2.44001C12.253 3.00201 11.975 3.775 11.667 4.873ZM14.0091 11.022C13.5971 10.912 13.3471 10.487 13.4461 10.075C13.4471 10.068 13.4481 10.062 13.4501 10.055C13.5421 9.71099 13.8571 9.46899 14.2131 9.46899C14.2831 9.46899 14.3521 9.47901 14.4191 9.49701L16.6011 10.081C16.9461 10.174 17.1871 10.488 17.1871 10.845C17.1871 11.278 16.8301 11.635 16.3971 11.635C16.3281 11.635 16.2591 11.626 16.1931 11.608L14.0091 11.022ZM14.5941 8.83899C14.1751 8.72599 13.9231 8.29001 14.0351 7.87201C14.1281 7.52701 14.4421 7.28601 14.7981 7.28601C14.8681 7.28601 14.9371 7.29499 15.0031 7.31299L18.6491 8.29001C18.9821 8.39001 19.2121 8.699 19.2121 9.047C19.2121 9.48 18.8551 9.83701 18.4221 9.83701C18.3601 9.83701 18.2991 9.83 18.2391 9.815L14.5941 8.83899Z" fill="black"/>
<path fill-rule="evenodd" clip-rule="evenodd" d="M6.91937 14.4639C8.786 14.103 10.7832 14.1841 12.4007 15.1481C12.6273 15.2832 12.8411 15.452 13.0264 15.6606C13.4023 16.0837 13.5966 16.6074 13.6056 17.1341C13.7962 17.0095 13.9883 16.8737 14.1826 16.7267L15.9914 15.3612C16.9188 14.6807 18.1889 14.6807 19.1163 15.3612C19.9513 15.9914 20.2859 17.1251 19.6864 18.0854C19.2611 18.7666 18.6211 19.7097 17.9691 20.3136C17.3089 20.9243 16.3711 21.4383 15.6621 21.7804C14.8 22.1968 13.8697 22.4264 12.9642 22.5727C11.1133 22.8728 9.18889 22.827 7.36052 22.4496C6.41745 22.256 5.45713 22.1578 4.49455 22.1563H2.23329C1.82215 22.1563 1.48303 21.8179 1.48303 21.406C1.48303 20.9949 1.82215 20.6558 2.23329 20.6558H4.49455C5.55691 20.6558 6.62977 20.7668 7.66362 20.9799C9.32994 21.322 11.045 21.3595 12.7248 21.0909C13.5531 20.9574 14.3274 20.7578 15.0101 20.4292C15.6928 20.0991 16.4611 19.6647 16.9488 19.2138C17.4417 18.7561 17.9931 17.9653 18.414 17.2909C18.5408 17.0868 18.5228 16.7934 18.2122 16.5586C17.8416 16.2788 17.2646 16.2788 16.8955 16.5586L15.0881 17.9241C14.3656 18.4695 13.4773 19.0525 12.376 19.2288C12.2604 19.2468 12.1449 19.2625 12.0286 19.2768C11.9716 19.2865 11.9116 19.2933 11.85 19.2963C11.2071 19.3586 10.5596 19.3586 9.91739 19.2963C9.52726 19.2685 9.22115 18.9392 9.22115 18.5483C9.22115 18.1364 9.55952 17.798 9.97141 17.798C10.0007 17.798 10.0292 17.7995 10.0584 17.8033C10.6129 17.8566 11.1718 17.8558 11.727 17.8003L11.757 17.7973C11.9746 17.6615 12.1074 17.4229 12.1074 17.1663C12.1074 16.978 12.0361 16.7964 11.9071 16.6584C11.8268 16.5714 11.7338 16.4963 11.6317 16.4363C10.4501 15.7311 8.87153 15.614 7.20447 15.9367C5.57492 16.2638 4.03089 16.9225 2.66768 17.8723C2.54089 17.9623 2.38934 18.0104 2.23329 18.0104C1.82215 18.0104 1.48303 17.6712 1.48303 17.2601C1.48303 17.017 1.60082 16.7882 1.79964 16.6479C3.33691 15.575 5.0805 14.8315 6.91937 14.4639Z" fill="black"/>
</g>
<defs>
<clipPath id="clip0_221_18391">
<rect width="24" height="24" fill="white"/>
</clipPath>
</defs>
</svg>
