<svg width="24" height="24" viewBox="0 0 24 24" fill="none" xmlns="http://www.w3.org/2000/svg">
<g clip-path="url(#clip0_221_18106)">
<path fill-rule="evenodd" clip-rule="evenodd" d="M2.07 5.258C2 5.626 2 6.068 2 6.95V9.25H21.953C21.881 8.201 21.697 7.513 21.23 6.994C21.1594 6.9151 21.0846 6.83999 21.006 6.769C20.151 6 18.834 6 16.202 6H15.828C14.675 6 14.098 6 13.56 5.847C13.2648 5.7626 12.9802 5.64449 12.712 5.495C12.224 5.224 11.816 4.815 11 4L10.45 3.45C10.176 3.176 10.04 3.04 9.896 2.92C9.27667 2.40664 8.51694 2.09194 7.716 2.017C7.53 2 7.336 2 6.95 2C6.067 2 5.626 2 5.258 2.07C4.46784 2.21922 3.741 2.60314 3.17231 3.17165C2.60361 3.74017 2.21947 4.46789 2.07 5.258ZM21.998 10.749H2V14C2 17.771 2 19.657 3.172 20.828C4.344 21.999 6.229 22 10 22H14C17.771 22 19.657 22 20.828 20.828C21.999 19.656 22 17.771 22 14V11.798L21.998 10.749Z" fill="black"/>
</g>
<defs>
<clipPath id="clip0_221_18106">
<rect width="24" height="24" fill="white"/>
</clipPath>
</defs>
</svg>
