<svg width="24" height="24" viewBox="0 0 24 24" fill="none" xmlns="http://www.w3.org/2000/svg">
<g clip-path="url(#clip0_221_18288)">
<path fill-rule="evenodd" clip-rule="evenodd" d="M2 12C2 7.286 2 4.929 3.464 3.464C4.93 2 7.286 2 12 2C16.714 2 19.071 2 20.535 3.464C22 4.93 22 7.286 22 12C22 16.714 22 19.071 20.535 20.535C19.072 22 16.714 22 12 22C7.286 22 4.929 22 3.464 20.535C2 19.072 2 16.714 2 12ZM5 8.5V7.5C5 7.10218 5.15804 6.72064 5.43934 6.43934C5.72064 6.15804 6.10218 6 6.5 6H17.5C17.8978 6 18.2794 6.15804 18.5607 6.43934C18.842 6.72064 19 7.10218 19 7.5V8.5C18.5673 8.17544 18.0409 8 17.5 8H6.5C5.937 8 5.418 8.186 5 8.5ZM5 10.5V11.5C5.43274 11.1754 5.95907 11 6.5 11H17.5C18.0409 11 18.5673 11.1754 19 11.5V10.5C19 10.1022 18.842 9.72064 18.5607 9.43934C18.2794 9.15804 17.8978 9 17.5 9H6.5C6.10218 9 5.72064 9.15804 5.43934 9.43934C5.15804 9.72064 5 10.1022 5 10.5ZM20 14.25C20.1989 14.25 20.3897 14.329 20.5303 14.4697C20.671 14.6103 20.75 14.8011 20.75 15C20.75 15.1989 20.671 15.3897 20.5303 15.5303C20.3897 15.671 20.1989 15.75 20 15.75H17.657C16.778 15.75 16.547 15.763 16.35 15.845C16.152 15.927 15.98 16.081 15.359 16.702L15.054 17.007C14.622 17.439 14.281 17.781 13.847 17.987C13.7657 18.025 13.683 18.059 13.599 18.089C13.146 18.251 12.663 18.251 12.052 18.25H11.834C11.188 18.25 10.677 18.251 10.204 18.072C10.1156 18.0381 10.0288 18.0001 9.944 17.958C9.492 17.731 9.147 17.355 8.709 16.879L8.599 16.758C8.009 16.118 7.846 15.959 7.655 15.869L7.594 15.842C7.399 15.763 7.17 15.75 6.301 15.75H4C3.80109 15.75 3.61032 15.671 3.46967 15.5303C3.32902 15.3897 3.25 15.1989 3.25 15C3.25 14.8011 3.32902 14.6103 3.46967 14.4697C3.61032 14.329 3.80109 14.25 4 14.25H5.02V13.25C5.07911 12.9003 5.26021 12.5829 5.53115 12.354C5.80209 12.1252 6.14535 11.9998 6.5 12H17.5C17.8546 11.9998 18.1979 12.1252 18.4689 12.354C18.7398 12.5829 18.9209 12.9003 18.98 13.25V14.25H20Z" fill="black"/>
</g>
<defs>
<clipPath id="clip0_221_18288">
<rect width="24" height="24" fill="white"/>
</clipPath>
</defs>
</svg>
