<svg width="24" height="24" viewBox="0 0 24 24" fill="none" xmlns="http://www.w3.org/2000/svg">
<g clip-path="url(#clip0_221_18404)">
<path d="M2.75499 14.716L3.27199 16.648C3.87599 18.903 4.17899 20.031 4.86399 20.762C5.40464 21.3388 6.10408 21.7425 6.87399 21.922C7.84999 22.15 8.97799 21.848 11.234 21.244C13.488 20.64 14.616 20.338 15.347 19.653C15.4077 19.5957 15.4663 19.537 15.523 19.477C15.1824 19.4463 14.8439 19.3962 14.509 19.327C13.813 19.189 12.986 18.967 12.008 18.705L11.901 18.676L11.876 18.67C10.812 18.384 9.92299 18.146 9.21299 17.89C8.46599 17.62 7.78799 17.287 7.21099 16.747C6.41731 16.0034 5.86191 15.0412 5.61499 13.982C5.43499 13.213 5.48699 12.459 5.62699 11.678C5.76099 10.929 6.00099 10.031 6.28899 8.956L6.82399 6.962L6.84199 6.892C4.92199 7.409 3.91099 7.715 3.23699 8.346C2.65949 8.88705 2.25545 9.58725 2.07599 10.358C1.84799 11.333 2.14999 12.461 2.75499 14.716Z" fill="black"/>
<path d="M14.5788 12.4635C14.7699 12.3361 14.8973 12.1193 14.8973 11.8749V10.9051C14.8973 10.5189 14.5788 10.2015 14.1926 10.2015C13.8063 10.2015 13.4879 10.5189 13.4879 10.9051V11.8749C13.4879 12.1193 13.6152 12.3361 13.8063 12.4635L13.5063 12.4635C12.9388 12.4635 12.5335 12.4635 12.2243 12.4214C12.0405 12.3947 11.9254 12.3669 11.8463 12.2858C11.7631 12.1995 11.7333 12.0731 11.7076 11.8697C11.6654 11.5532 11.6654 11.1407 11.6655 10.5711C11.6655 10.5455 11.6655 10.5195 11.6655 10.4932V10.0022C11.6655 9.98515 11.6655 9.96835 11.6655 9.9518C11.6655 9.62371 11.6654 9.38658 11.684 9.19784C11.6953 9.07457 11.7097 8.99341 11.7467 8.92459C11.7826 8.85884 11.8412 8.80543 11.9336 8.73455H11.9347C12.0753 8.62601 12.261 8.51052 12.5182 8.35065C12.5409 8.33653 12.5641 8.32206 12.588 8.30721L13.2341 7.90658L13.235 7.90602C13.5448 7.71319 13.7623 7.57778 13.945 7.48849C14.0498 7.43816 14.1207 7.40938 14.1926 7.40938C14.2645 7.40938 14.3353 7.43816 14.4401 7.48849L14.4412 7.48951C14.6088 7.57048 14.8048 7.69202 15.0752 7.85964C15.0999 7.87491 15.1251 7.89055 15.151 7.90658L15.7971 8.30721C15.8216 8.32245 15.8455 8.33729 15.8688 8.35177C16.125 8.51106 16.3103 8.62626 16.4515 8.73455C16.544 8.80543 16.6015 8.85884 16.6385 8.92459C16.6754 8.99341 16.6898 9.07457 16.7011 9.19784C16.7197 9.38645 16.7197 9.62246 16.7196 9.95099C16.7196 9.96781 16.7196 9.98487 16.7196 10.0022L16.7196 10.536C16.7196 11.1239 16.7196 11.5467 16.6785 11.8697C16.6518 12.0742 16.622 12.2005 16.5388 12.2868C16.4607 12.3679 16.3457 12.3957 16.1608 12.4214C15.8516 12.4635 15.4464 12.4635 14.8788 12.4635L14.5788 12.4635Z" fill="black"/>
<path fill-rule="evenodd" clip-rule="evenodd" d="M20.8305 10.7132C21.4342 8.45938 21.7359 7.33273 21.508 6.35699C21.3285 5.58625 20.9245 4.88605 20.347 4.34499C19.6164 3.66137 18.4892 3.35933 16.2377 2.75599L16.234 2.75499C13.978 2.14999 12.85 1.84799 11.874 2.07599C11.1041 2.25553 10.4046 2.65919 9.86399 3.23599C9.27699 3.86299 8.97099 4.77999 8.51599 6.44599L8.27199 7.35099L7.75499 9.28299C7.14999 11.538 6.84799 12.665 7.07599 13.641C7.25563 14.4114 7.65966 15.1112 8.23699 15.652C8.96704 16.3361 10.0931 16.6382 12.3422 17.2416L12.351 17.244C14.383 17.788 15.5 18.087 16.415 17.974C16.515 17.962 16.6133 17.9447 16.71 17.922C17.48 17.7422 18.1795 17.3382 18.72 16.761C19.4041 16.0309 19.7062 14.9049 20.3097 12.6557L20.8305 10.7132ZM14.1926 6L14.3035 6.00308C14.5593 6.02055 14.8007 6.09656 15.0575 6.22189C15.2866 6.33283 15.5526 6.49719 15.8834 6.70264L16.5511 7.11663C16.8643 7.31174 17.1152 7.46798 17.3082 7.61586C17.5537 7.80385 17.7386 7.99904 17.8742 8.24763C18.0098 8.49417 18.0756 8.75509 18.1043 9.06635C18.128 9.31186 18.129 9.61285 18.129 9.98985V10.5117C18.129 11.1517 18.1269 11.6561 18.0756 12.0516C18.0109 12.5508 17.8588 12.9473 17.5517 13.2658C17.2384 13.5893 16.847 13.7486 16.3539 13.8164C15.9697 13.8698 15.4777 13.8718 14.8572 13.8718H13.5279C12.9075 13.8718 12.4154 13.8698 12.0312 13.8164C11.5381 13.7486 11.1457 13.5893 10.8334 13.2658C10.5253 12.9473 10.3743 12.5508 10.3095 12.0516C10.2582 11.6561 10.2561 11.1517 10.2561 10.5117V9.98985C10.2561 9.61285 10.2572 9.31186 10.2808 9.06635V9.06532C10.3095 8.75508 10.3753 8.49417 10.5109 8.24763C10.6475 7.99904 10.8314 7.80385 11.0769 7.61586C11.27 7.46798 11.5205 7.31188 11.8337 7.11677L12.5017 6.70264C12.8325 6.49719 13.0996 6.33283 13.3286 6.22189C13.6224 6.0791 13.8947 6 14.1926 6Z" fill="black"/>
</g>
<defs>
<clipPath id="clip0_221_18404">
<rect width="24" height="24" fill="white"/>
</clipPath>
</defs>
</svg>
