<svg width="24" height="24" viewBox="0 0 24 24" fill="none" xmlns="http://www.w3.org/2000/svg">
<g clip-path="url(#clip0_221_18310)">
<path d="M17 9C17 9.53043 16.7893 10.0391 16.4142 10.4142C16.0391 10.7893 15.5304 11 15 11C14.4696 11 13.9609 10.7893 13.5858 10.4142C13.2107 10.0391 13 9.53043 13 9C13 8.46957 13.2107 7.96086 13.5858 7.58579C13.9609 7.21071 14.4696 7 15 7C15.5304 7 16.0391 7.21071 16.4142 7.58579C16.7893 7.96086 17 8.46957 17 9Z" fill="black"/>
<path fill-rule="evenodd" clip-rule="evenodd" d="M12 1.25C6.063 1.25 1.25 6.063 1.25 12C1.25 17.937 6.063 22.75 12 22.75C17.937 22.75 22.75 17.937 22.75 12C22.75 6.063 17.937 1.25 12 1.25ZM11.182 15.362L6.892 11.072C6.47936 10.6597 5.9255 10.4196 5.34252 10.4003C4.75955 10.381 4.19101 10.5839 3.752 10.968L2.751 11.862C2.77291 10.4175 3.13284 8.99826 3.80196 7.71793C4.47108 6.43759 5.43078 5.33177 6.60417 4.48908C7.77756 3.64638 9.13202 3.09023 10.559 2.8652C11.986 2.64016 13.4459 2.75249 14.8217 3.19318C16.1975 3.63388 17.4509 4.39068 18.4816 5.40297C19.5122 6.41525 20.2915 7.65487 20.7568 9.0225C21.2222 10.3901 21.3608 11.8477 21.1615 13.2786C20.9621 14.7094 20.4304 16.0736 19.609 17.262L17.776 15.599C17.2713 15.1448 16.6275 14.8753 15.9498 14.8344C15.2721 14.7936 14.6006 14.9838 14.045 15.374L13.746 15.584C13.3608 15.8547 12.8925 15.9808 12.4235 15.9402C11.9546 15.8996 11.5149 15.6948 11.182 15.362Z" fill="black"/>
</g>
<defs>
<clipPath id="clip0_221_18310">
<rect width="24" height="24" fill="white"/>
</clipPath>
</defs>
</svg>
