<svg width="24" height="24" viewBox="0 0 24 24" fill="none" xmlns="http://www.w3.org/2000/svg">
<g clip-path="url(#clip0_221_18428)">
<path d="M19.352 7.61699L15.392 4.05399C14.265 3.03899 13.702 2.53099 13.009 2.26599L13 4.99999C13 7.35699 13 8.53599 13.732 9.26799C14.464 9.99999 15.643 9.99999 18 9.99999H21.58C21.218 9.29599 20.568 8.71199 19.352 7.61699Z" fill="black"/>
<path d="M7.04249 16.449H6.22304V14.9512H7.05711C7.28299 14.9534 7.46135 15.0272 7.5922 15.172C7.72232 15.3174 7.78811 15.5112 7.78811 15.7531C7.78811 15.9746 7.72451 16.1457 7.59732 16.267C7.47012 16.3884 7.28518 16.449 7.04249 16.449Z" fill="black"/>
<path d="M10.9752 16.449H11.7954C12.0381 16.449 12.2223 16.3884 12.3495 16.267C12.4767 16.1457 12.5403 15.9746 12.5403 15.7531C12.5403 15.5112 12.4753 15.3174 12.3444 15.172C12.2136 15.0272 12.0352 14.9534 11.8093 14.9512H10.9752V16.449Z" fill="black"/>
<path fill-rule="evenodd" clip-rule="evenodd" d="M10 22H14C17.771 22 19.656 21.999 20.828 20.828C22 19.657 22 17.771 22 14V13.563C22 12.69 22 12.034 21.957 11.5H17.905C16.808 11.5 15.838 11.5 15.057 11.395C14.21 11.281 13.362 11.019 12.672 10.329C11.98 9.637 11.719 8.79 11.605 7.943C11.5 7.162 11.5 6.192 11.5 5.095L11.51 2.261C11.51 2.17833 11.5167 2.097 11.53 2.017C11.121 2 10.636 2 10.03 2C6.239 2 4.344 2.001 3.172 3.172C2 4.343 2 6.229 2 10V14C2 17.771 2.001 19.656 3.172 20.828C4.343 22 6.229 22 10 22ZM6.22304 19.1764V17.4147H7.02129C7.6536 17.4147 8.15068 17.2634 8.51325 16.96C8.87583 16.6574 9.05712 16.2524 9.05712 15.7465C9.05712 15.4044 8.97305 15.0981 8.80565 14.8284C8.63825 14.5587 8.40214 14.3503 8.09659 14.2041C7.79103 14.0579 7.43942 13.9848 7.04249 13.9848H4.97158V19.1764H6.22304ZM10.9752 17.4147V19.1764H9.72378V13.9848H11.7954C12.1923 13.9848 12.5432 14.0579 12.8488 14.2041C13.1543 14.3503 13.3905 14.5587 13.5586 14.8284C13.726 15.0981 13.81 15.4044 13.81 15.7465C13.81 16.2524 13.6288 16.6574 13.2662 16.96C12.9036 17.2634 12.4058 17.4147 11.7742 17.4147H10.9752ZM16.9935 14.9512H18.5512V13.9848H14.2128V14.9512H15.742V19.1764H16.9935V14.9512Z" fill="black"/>
</g>
<defs>
<clipPath id="clip0_221_18428">
<rect width="24" height="24" fill="white"/>
</clipPath>
</defs>
</svg>
