<svg width="24" height="24" viewBox="0 0 24 24" fill="none" xmlns="http://www.w3.org/2000/svg">
<g clip-path="url(#clip0_221_18363)">
<path d="M19.352 7.61699L15.392 4.05399C14.265 3.03899 13.702 2.53099 13.009 2.26599L13 4.99999C13 7.35699 13 8.53599 13.732 9.26799C14.464 9.99999 15.643 9.99999 18 9.99999H21.58C21.218 9.29599 20.568 8.71199 19.352 7.61699Z" fill="black"/>
<path fill-rule="evenodd" clip-rule="evenodd" d="M10 22H14C17.771 22 19.656 21.999 20.828 20.828C22 19.657 22 17.771 22 14V13.563C22 12.69 22 12.034 21.957 11.5H17.905C16.808 11.5 15.838 11.5 15.057 11.395C14.21 11.281 13.362 11.019 12.672 10.329C11.98 9.637 11.719 8.79 11.605 7.943C11.5 7.162 11.5 6.192 11.5 5.095L11.51 2.261C11.51 2.17833 11.5167 2.097 11.53 2.017C11.121 2 10.636 2 10.03 2C6.239 2 4.344 2.001 3.172 3.172C2 4.343 2 6.229 2 10V14C2 17.771 2.001 19.656 3.172 20.828C4.343 22 6.229 22 10 22ZM7.19049 11.6587L7.22464 11.6596C7.54761 11.6753 7.81245 11.9254 7.85213 12.241C8.67987 12.4809 9.3249 13.1592 9.3249 14.0367C9.3249 14.4031 9.02407 14.7039 8.65865 14.7039C8.2923 14.7039 7.99147 14.4031 7.99147 14.0367C7.99147 13.7488 7.66204 13.4812 7.19049 13.4812C6.71987 13.4812 6.39044 13.7488 6.39044 14.0367C6.39044 14.3256 6.71987 14.5932 7.19049 14.5932C8.30338 14.5932 9.3249 15.3812 9.3249 16.4831C9.3249 17.3606 8.67987 18.0389 7.85213 18.2788C7.81061 18.6055 7.52823 18.862 7.19049 18.862C6.85368 18.862 6.5713 18.6055 6.52978 18.2788C5.70204 18.0389 5.05701 17.3606 5.05701 16.4831C5.05701 16.1167 5.35784 15.8159 5.72326 15.8159C6.08961 15.8159 6.39044 16.1167 6.39044 16.4831C6.39044 16.7719 6.71987 17.0386 7.19049 17.0386C7.66204 17.0386 7.99147 16.7719 7.99147 16.4831C7.99147 16.1942 7.66204 15.9266 7.19049 15.9266C6.07853 15.9266 5.05701 15.1386 5.05701 14.0367C5.05701 13.1592 5.70204 12.4809 6.52978 12.241C6.5713 11.9143 6.85368 11.6587 7.19049 11.6587Z" fill="black"/>
</g>
<defs>
<clipPath id="clip0_221_18363">
<rect width="24" height="24" fill="white"/>
</clipPath>
</defs>
</svg>
