<svg width="24" height="24" viewBox="0 0 24 24" fill="none" xmlns="http://www.w3.org/2000/svg">
<g clip-path="url(#clip0_221_18111)">
<path fill-rule="evenodd" clip-rule="evenodd" d="M2.07 5.008C2 5.376 2 5.818 2 6.7V13.75C2 17.521 2 19.407 3.172 20.578C4.344 21.749 6.229 21.75 10 21.75H14C17.771 21.75 19.657 21.75 20.828 20.578C21.999 19.406 22 17.521 22 13.75V11.548C22 8.916 22 7.599 21.23 6.744C21.1594 6.6651 21.0846 6.58999 21.006 6.519C20.151 5.75 18.834 5.75 16.202 5.75H15.828C14.675 5.75 14.098 5.75 13.56 5.597C13.2648 5.5126 12.9802 5.39449 12.712 5.245C12.224 4.974 11.816 4.565 11 3.75L10.45 3.2C10.176 2.926 10.04 2.79 9.896 2.67C9.27667 2.15664 8.51694 1.84194 7.716 1.767C7.53 1.75 7.336 1.75 6.95 1.75C6.067 1.75 5.626 1.75 5.258 1.82C4.46784 1.96922 3.741 2.35314 3.17231 2.92165C2.60361 3.49017 2.21947 4.21789 2.07 5.008ZM12 11C12.1989 11 12.3897 11.079 12.5303 11.2197C12.671 11.3603 12.75 11.5511 12.75 11.75V13H14C14.1989 13 14.3897 13.079 14.5303 13.2197C14.671 13.3603 14.75 13.5511 14.75 13.75C14.75 13.9489 14.671 14.1397 14.5303 14.2803C14.3897 14.421 14.1989 14.5 14 14.5H12.75V15.75C12.75 15.9489 12.671 16.1397 12.5303 16.2803C12.3897 16.421 12.1989 16.5 12 16.5C11.8011 16.5 11.6103 16.421 11.4697 16.2803C11.329 16.1397 11.25 15.9489 11.25 15.75V14.5H10C9.80109 14.5 9.61032 14.421 9.46967 14.2803C9.32902 14.1397 9.25 13.9489 9.25 13.75C9.25 13.5511 9.32902 13.3603 9.46967 13.2197C9.61032 13.079 9.80109 13 10 13H11.25V11.75C11.25 11.5511 11.329 11.3603 11.4697 11.2197C11.6103 11.079 11.8011 11 12 11Z" fill="black"/>
</g>
<defs>
<clipPath id="clip0_221_18111">
<rect width="24" height="24" fill="white"/>
</clipPath>
</defs>
</svg>
