<svg width="24" height="24" viewBox="0 0 24 24" fill="none" xmlns="http://www.w3.org/2000/svg">
<g clip-path="url(#clip0_221_18044)">
<path d="M4.727 2.712C4.944 2.5 5.222 2.34 5.655 2.227V15.58C5.53499 15.5968 5.4161 15.6208 5.299 15.652C4.83533 15.7741 4.39598 15.9746 4 16.245V7.675C4 6.124 4.002 5.042 4.114 4.225C4.223 3.432 4.422 3.012 4.727 2.712Z" fill="black"/>
<path fill-rule="evenodd" clip-rule="evenodd" d="M20 15.514H7.31V2.029C7.981 2 8.791 2 9.793 2H14.207C15.791 2 16.895 2.002 17.729 2.112C18.539 2.218 18.967 2.413 19.273 2.712C19.578 3.012 19.777 3.432 19.886 4.225C19.998 5.042 20 6.124 20 7.676V15.514ZM16.1965 8.3687L14.4975 10.0677L14.4975 5.71672C14.4975 5.38572 14.1595 5.11272 13.7495 5.11272C13.3395 5.11272 13.0025 5.38572 13.0025 5.71672L13.0025 10.0887L11.2825 8.3687C10.9925 8.0797 10.5165 8.0797 10.2275 8.3687C9.93852 8.6577 9.93852 9.13371 10.2275 9.42272L13.2125 12.4077C13.5015 12.6967 13.9775 12.6967 14.2665 12.4077L17.2515 9.42272C17.4025 9.28172 17.4885 9.08372 17.4885 8.87673C17.4885 8.46773 17.1515 8.13072 16.7425 8.13072C16.5355 8.13072 16.3375 8.2167 16.1965 8.3687Z" fill="black"/>
<path d="M5.727 17.218C6.017 17.142 6.394 17.135 7.473 17.135H19.999C19.996 18.265 19.978 19.109 19.886 19.775C19.777 20.568 19.578 20.988 19.273 21.288C18.967 21.587 18.539 21.782 17.729 21.889C16.895 21.998 15.791 22 14.207 22H9.793C8.209 22 7.105 21.998 6.271 21.888C5.461 21.782 5.033 21.587 4.727 21.288C4.422 20.988 4.223 20.568 4.114 19.775C4.07333 19.4763 4.04533 19.1367 4.03 18.756C4.16693 18.3812 4.39296 18.0454 4.6886 17.7775C4.98424 17.5095 5.34062 17.3175 5.727 17.218Z" fill="black"/>
</g>
<defs>
<clipPath id="clip0_221_18044">
<rect width="24" height="24" fill="white"/>
</clipPath>
</defs>
</svg>
