<svg width="24" height="24" viewBox="0 0 24 24" fill="none" xmlns="http://www.w3.org/2000/svg">
<g clip-path="url(#clip0_221_17913)">
<path d="M19.352 7.61699L15.392 4.05399C14.265 3.03899 13.702 2.53099 13.009 2.26599L13 4.99999C13 7.35699 13 8.53599 13.732 9.26799C14.464 9.99999 15.643 9.99999 18 9.99999H21.58C21.218 9.29599 20.568 8.71199 19.352 7.61699Z" fill="black"/>
<path d="M5.57265 18.3577L5.62566 18.4106L6.41589 18.1466C6.68177 18.0579 6.779 18.0255 6.86768 17.9836C6.97668 17.9306 7.07968 17.8666 7.17568 17.7926C7.25468 17.7306 7.32969 17.6566 7.5397 17.4466L9.84574 15.1396C9.64374 15.0136 9.45673 14.8646 9.28773 14.6956C9.11872 14.5266 8.96972 14.3396 8.84272 14.1376L6.53667 16.4436C6.32688 16.6534 6.25164 16.7286 6.18967 16.8086C6.11567 16.9036 6.05266 17.0056 5.99966 17.1146C5.95779 17.2042 5.9254 17.3014 5.83692 17.5668L5.57265 18.3577Z" fill="black"/>
<path d="M10.4718 12.8025C10.6598 12.8025 10.8398 12.8775 10.9728 13.0105C11.1058 13.1435 11.1808 13.3235 11.1808 13.5115C11.1808 13.6996 11.1058 13.8796 10.9728 14.0126L10.9178 14.0686C10.6888 13.9846 10.4788 13.8506 10.3068 13.6766C10.0957 13.4646 9.97875 13.2406 9.91374 13.0665L9.97075 13.0105C10.1037 12.8775 10.2838 12.8025 10.4718 12.8025Z" fill="black"/>
<path fill-rule="evenodd" clip-rule="evenodd" d="M14 22H10C6.229 22 4.344 21.999 3.172 20.828C2 19.657 2 17.771 2 14V10C2 6.229 2 4.343 3.172 3.172C4.343 2 6.239 2 10.03 2C10.636 2 11.121 2 11.53 2.017C11.5167 2.097 11.51 2.17833 11.51 2.261L11.5 5.095C11.5 6.193 11.5 7.162 11.605 7.943C11.719 8.79 11.98 9.637 12.672 10.329C13.363 11.02 14.21 11.281 15.057 11.395C15.838 11.5 16.808 11.5 17.905 11.5H21.957C22 12.034 22 12.69 22 13.563V14C22 17.771 21.999 19.656 20.828 20.828C19.657 22 17.771 22 14 22ZM4.47263 17.1046L4.47363 17.1026C4.56063 16.8416 4.62063 16.6646 4.70063 16.4966C4.79764 16.2926 4.91664 16.1006 5.05464 15.9236C5.16964 15.7756 5.30163 15.6436 5.49561 15.4496L5.49765 15.4526L5.49665 15.4486L8.95172 11.9925C9.35673 11.5695 9.91774 11.3305 10.5038 11.3305C11.6828 11.3305 12.6528 12.3005 12.6528 13.4796C12.6528 14.0656 12.4138 14.6266 11.9908 15.0316L8.53671 18.4876C8.38871 18.6437 8.2307 18.7907 8.0647 18.9267L8.0617 18.9297C7.8837 19.0687 7.6927 19.1867 7.48869 19.2837C7.3212 19.3639 7.14585 19.4226 6.88964 19.5083L6.88268 19.5107L5.36765 20.0157C5.25465 20.0537 5.13665 20.0727 5.01664 20.0727C4.41063 20.0727 3.91162 19.5737 3.91162 18.9667C3.91162 18.8477 3.93062 18.7296 3.96862 18.6166L4.47263 17.1046Z" fill="black"/>
</g>
<defs>
<clipPath id="clip0_221_17913">
<rect width="24" height="24" fill="white"/>
</clipPath>
</defs>
</svg>
