<svg width="24" height="24" viewBox="0 0 24 24" fill="none" xmlns="http://www.w3.org/2000/svg">
<g clip-path="url(#clip0_221_18186)">
<path d="M12 6C12 4.114 12 3.172 12.586 2.586C13.172 2 14.114 2 16 2H18C19.886 2 20.828 2 21.414 2.586C22 3.172 22 4.114 22 6V8C22 9.886 22 10.828 21.414 11.414C20.828 12 19.886 12 18 12H16C14.114 12 13.172 12 12.586 11.414C12 10.828 12 9.886 12 8V6Z" fill="black"/>
<path d="M10.5 7C8.943 7.005 8.117 7.054 7.586 7.586C7 8.172 7 9.114 7 11V13C7 14.437 7 15.327 7.26 15.928C7.33571 16.1098 7.44648 16.275 7.586 16.414C8.172 17 9.114 17 11 17H13C14.886 17 15.828 17 16.414 16.414C16.946 15.883 16.995 15.057 16.999 13.5H15.911C15.045 13.5 14.251 13.5 13.606 13.413C12.895 13.318 12.143 13.093 11.526 12.475C10.907 11.857 10.682 11.105 10.586 10.395C10.5 9.749 10.5 8.955 10.5 8.09V7Z" fill="black"/>
<path d="M5.5 12C3.943 12.005 3.117 12.054 2.586 12.586C2 13.172 2 14.114 2 16V18C2 19.886 2 20.828 2.586 21.414C3.172 22 4.114 22 6 22H8C9.886 22 10.828 22 11.414 21.414C11.946 20.883 11.995 20.057 11.999 18.5H10.911C10.045 18.5 9.251 18.5 8.606 18.413C7.895 18.318 7.143 18.093 6.526 17.475C5.907 16.857 5.682 16.105 5.586 15.395C5.5 14.749 5.5 13.955 5.5 13.089V12Z" fill="black"/>
</g>
<defs>
<clipPath id="clip0_221_18186">
<rect width="24" height="24" fill="white"/>
</clipPath>
</defs>
</svg>
