<svg width="24" height="24" viewBox="0 0 24 24" fill="none" xmlns="http://www.w3.org/2000/svg">
<g clip-path="url(#clip0_221_18221)">
<path d="M9.5 2C9.10218 2 8.72064 2.15804 8.43934 2.43934C8.15804 2.72064 8 3.10218 8 3.5V4.5C8 4.89782 8.15804 5.27936 8.43934 5.56066C8.72064 5.84196 9.10218 6 9.5 6H14.5C14.8978 6 15.2794 5.84196 15.5607 5.56066C15.842 5.27936 16 4.89782 16 4.5V3.5C16 3.10218 15.842 2.72064 15.5607 2.43934C15.2794 2.15804 14.8978 2 14.5 2H9.5Z" fill="black"/>
<path d="M11.0825 10.7623C10.8481 10.9967 10.7164 11.3146 10.7164 11.6461C10.7164 11.9777 10.8481 12.2956 11.0825 12.53C11.3169 12.7645 11.6349 12.8961 11.9664 12.8961C12.2979 12.8961 12.6158 12.7645 12.8503 12.53C13.0847 12.2956 13.2164 11.9777 13.2164 11.6461C13.2164 11.3146 13.0847 10.9967 12.8503 10.7623C12.6158 10.5278 12.2979 10.3961 11.9664 10.3961C11.6349 10.3961 11.3169 10.5278 11.0825 10.7623Z" fill="black"/>
<path d="M9.47338 16.9031C8.82938 17.2251 8.71638 17.5311 8.71638 17.6461C8.71638 18.2501 8.75438 18.3431 8.90638 18.4531C9.02838 18.5411 9.27938 18.6591 9.78638 18.7511C10.2884 18.8411 10.9894 18.8961 11.9664 18.8961C12.9434 18.8961 13.6444 18.8411 14.1464 18.7511C14.6534 18.6591 14.9044 18.5411 15.0264 18.4531C15.1774 18.3431 15.2164 18.2501 15.2164 17.6461C15.2164 17.5311 15.1034 17.2251 14.4594 16.9031C13.8604 16.6031 12.9794 16.3961 11.9664 16.3961C10.9534 16.3961 10.0734 16.6031 9.47338 16.9031Z" fill="black"/>
<path fill-rule="evenodd" clip-rule="evenodd" d="M6.5 4.03699C5.242 4.10699 4.448 4.30699 3.879 4.87699C3 5.75599 3 7.16999 3 9.99799V15.998C3 18.827 3 20.24 3.879 21.12C4.757 21.998 6.17199 21.998 8.99998 21.998H15C17.828 21.998 19.243 21.998 20.121 21.12C21 20.241 21 18.827 21 15.998V9.99799C21 7.16999 21 5.75599 20.121 4.87699C19.552 4.30699 18.758 4.10699 17.5 4.03699V4.49999C17.5 5.29564 17.1839 6.0587 16.6213 6.62131C16.0587 7.18392 15.2956 7.49999 14.5 7.49999H9.5C8.70435 7.49999 7.94129 7.18392 7.37868 6.62131C6.81607 6.0587 6.5 5.29564 6.5 4.49999V4.03699ZM10.914 9.10548C11.2477 8.96728 11.6052 8.89615 11.9664 8.89615C12.6957 8.89615 13.3952 9.18588 13.9109 9.7016C14.4267 10.2173 14.7164 10.9168 14.7164 11.6461C14.7164 12.3755 14.4267 13.075 13.9109 13.5907C13.3952 14.1064 12.6957 14.3961 11.9664 14.3961C11.6052 14.3961 11.2477 14.325 10.914 14.1868C10.5804 14.0486 10.2772 13.8461 10.0218 13.5907C9.76648 13.3353 9.56392 13.0322 9.42572 12.6985C9.28752 12.3649 9.21638 12.0073 9.21638 11.6461C9.21638 11.285 9.28752 10.9274 9.42572 10.5938C9.56392 10.2601 9.76648 9.95697 10.0218 9.7016C10.2772 9.44624 10.5804 9.24368 10.914 9.10548ZM8.80238 15.5611C9.65138 15.1361 10.7704 14.8961 11.9664 14.8961C13.1624 14.8961 14.2814 15.1371 15.1304 15.5611C15.9334 15.9631 16.7164 16.6561 16.7164 17.6461V17.7081C16.7184 18.2191 16.7204 19.0781 15.9064 19.6671C15.5284 19.9411 15.0294 20.1161 14.4114 20.2271C13.7884 20.3391 12.9894 20.3961 11.9664 20.3961C10.9434 20.3961 10.1444 20.3391 9.52138 20.2271C8.90338 20.1161 8.40438 19.9411 8.02638 19.6681C7.21238 19.0791 7.21438 18.2191 7.21638 17.7091V17.6461C7.21638 16.6571 7.99938 15.9631 8.80238 15.5611Z" fill="black"/>
</g>
<defs>
<clipPath id="clip0_221_18221">
<rect width="24" height="24" fill="white"/>
</clipPath>
</defs>
</svg>
