<svg width="24" height="24" viewBox="0 0 24 24" fill="none" xmlns="http://www.w3.org/2000/svg">
<g clip-path="url(#clip0_221_18162)">
<path d="M12.554 2.49399C12.4837 2.41714 12.3982 2.35576 12.3029 2.31377C12.2076 2.27178 12.1046 2.25009 12.0005 2.25009C11.8963 2.25009 11.7933 2.27178 11.698 2.31377C11.6027 2.35576 11.5172 2.41714 11.447 2.49399L7.44696 6.86899C7.32334 7.01722 7.26163 7.20741 7.27466 7.39998C7.28769 7.59255 7.37447 7.77269 7.51693 7.90292C7.65939 8.03314 7.84658 8.10343 8.03954 8.09916C8.23251 8.09489 8.4164 8.01639 8.55296 7.87999L11.249 4.92999V16C11.249 16.1989 11.328 16.3897 11.4686 16.5303C11.6093 16.671 11.8001 16.75 11.999 16.75C12.1979 16.75 12.3886 16.671 12.5293 16.5303C12.6699 16.3897 12.749 16.1989 12.749 16V4.93199L15.446 7.88199C15.5803 8.02879 15.7674 8.11621 15.9662 8.12502C16.165 8.13384 16.3592 8.06332 16.506 7.92899C16.6528 7.79466 16.7402 7.60751 16.749 7.40872C16.7578 7.20994 16.6873 7.01579 16.553 6.86899L12.554 2.49399Z" fill="black"/>
<path d="M3.75 15C3.75 14.8011 3.67098 14.6103 3.53033 14.4697C3.38968 14.329 3.19891 14.25 3 14.25C2.80109 14.25 2.61032 14.329 2.46967 14.4697C2.32902 14.6103 2.25 14.8011 2.25 15V15.055C2.25 16.422 2.25 17.525 2.367 18.392C2.487 19.292 2.747 20.05 3.348 20.652C3.95 21.254 4.708 21.512 5.608 21.634C6.475 21.75 7.578 21.75 8.945 21.75H15.055C16.422 21.75 17.525 21.75 18.392 21.634C19.292 21.512 20.05 21.254 20.652 20.652C21.254 20.05 21.512 19.292 21.634 18.392C21.75 17.525 21.75 16.422 21.75 15.055V15C21.75 14.8011 21.671 14.6103 21.5303 14.4697C21.3897 14.329 21.1989 14.25 21 14.25C20.8011 14.25 20.6103 14.329 20.4697 14.4697C20.329 14.6103 20.25 14.8011 20.25 15C20.25 16.435 20.248 17.436 20.147 18.192C20.048 18.926 19.867 19.314 19.591 19.591C19.314 19.868 18.926 20.048 18.191 20.147C17.436 20.248 16.435 20.25 15 20.25H9C7.565 20.25 6.563 20.248 5.808 20.147C5.074 20.048 4.686 19.867 4.409 19.591C4.132 19.314 3.952 18.926 3.853 18.191C3.752 17.436 3.75 16.435 3.75 15Z" fill="black"/>
</g>
<defs>
<clipPath id="clip0_221_18162">
<rect width="24" height="24" fill="white"/>
</clipPath>
</defs>
</svg>
