<svg width="24" height="24" viewBox="0 0 24 24" fill="none" xmlns="http://www.w3.org/2000/svg">
<g clip-path="url(#clip0_221_18069)">
<path d="M9.5 20V22C9.5 22.1989 9.57902 22.3897 9.71967 22.5303C9.86032 22.671 10.0511 22.75 10.25 22.75C10.4489 22.75 10.6397 22.671 10.7803 22.5303C10.921 22.3897 11 22.1989 11 22V20H9.5ZM15 20H13.5V22C13.5 22.1989 13.579 22.3897 13.7197 22.5303C13.8603 22.671 14.0511 22.75 14.25 22.75C14.4489 22.75 14.6397 22.671 14.7803 22.5303C14.921 22.3897 15 22.1989 15 22V20Z" fill="black"/>
<path fill-rule="evenodd" clip-rule="evenodd" d="M17.385 6.58501L17.641 6.53301C18.0568 6.45112 18.4874 6.49105 18.881 6.64801C19.571 6.92501 20.327 6.97601 21.046 6.79601L21.107 6.78101C21.631 6.65001 22 6.16301 22 5.60301V3.47301C22 2.73501 21.336 2.19101 20.645 2.36401C20.249 2.46401 19.833 2.43501 19.452 2.28301L19.379 2.25301C18.7447 1.99727 18.0494 1.93296 17.379 2.06801L16.93 2.15801C16.39 2.26601 16 2.75801 16 3.32801V10.281C16 10.678 16.31 11 16.692 11C16.7848 10.9983 16.8764 10.9783 16.9614 10.9412C17.0465 10.9041 17.1234 10.8506 17.1878 10.7837C17.2522 10.7168 17.3027 10.6379 17.3366 10.5515C17.3704 10.4651 17.3869 10.3728 17.385 10.28V6.58501Z" fill="black"/>
<path d="M14.5 6V10.28C14.5 11.452 15.428 12.5 16.692 12.5C17.956 12.5 18.885 11.452 18.885 10.28V8.229C19.645 8.434 20.445 8.459 21.22 8.296C21.712 9.138 22 10.156 22 11.251V17.426C22 18.847 21.012 20 19.793 20H12.5V11.25C12.5 9.22 11.668 7.276 10.283 6H14.5Z" fill="black"/>
<path fill-rule="evenodd" clip-rule="evenodd" d="M2 11.25C2 8.35 4.015 6 6.5 6C8.985 6 11 8.35 11 11.25V20H4.233C3 20 2 18.834 2 17.395V11.25ZM4.25 16C4.25 15.8011 4.32902 15.6103 4.46967 15.4697C4.61032 15.329 4.80109 15.25 5 15.25H8C8.19891 15.25 8.38968 15.329 8.53033 15.4697C8.67098 15.6103 8.75 15.8011 8.75 16C8.75 16.1989 8.67098 16.3897 8.53033 16.5303C8.38968 16.671 8.19891 16.75 8 16.75H5C4.80109 16.75 4.61032 16.671 4.46967 16.5303C4.32902 16.3897 4.25 16.1989 4.25 16Z" fill="black"/>
</g>
<defs>
<clipPath id="clip0_221_18069">
<rect width="24" height="24" fill="white"/>
</clipPath>
</defs>
</svg>
