<svg width="24" height="24" viewBox="0 0 24 24" fill="none" xmlns="http://www.w3.org/2000/svg">
<g clip-path="url(#clip0_221_18193)">
<path d="M6.22199 4.601C6.66457 4.30538 7.13121 4.04747 7.61699 3.83C8.98899 3.215 9.67499 2.908 10.587 3.5C11.5 4.09 11.5 5.06 11.5 7V8.5C11.5 10.386 11.5 11.328 12.086 11.914C12.672 12.5 13.614 12.5 15.5 12.5H17C18.94 12.5 19.91 12.5 20.5 13.412C21.092 14.325 20.785 15.011 20.17 16.382C19.2906 18.3457 17.7708 19.9527 15.8591 20.9401C13.9475 21.9274 11.7573 22.2366 9.64699 21.817C7.80425 21.4504 6.11158 20.5457 4.78302 19.2171C3.45447 17.8886 2.54969 16.1959 2.18309 14.3532C1.81649 12.5105 2.00453 10.6004 2.72345 8.86453C3.44236 7.12866 4.65986 5.64495 6.22199 4.601Z" fill="black"/>
<path d="M21.446 7.06901C21.0422 6.04768 20.4332 5.12004 19.6566 4.34345C18.88 3.56686 17.9523 2.95782 16.931 2.55401C15.389 1.94701 14 3.34401 14 5.00001V9.00001C14 9.26523 14.1054 9.51958 14.2929 9.70712C14.4804 9.89465 14.7348 10 15 10H19C20.657 10 22.053 8.61001 21.446 7.06901Z" fill="black"/>
</g>
<defs>
<clipPath id="clip0_221_18193">
<rect width="24" height="24" fill="white"/>
</clipPath>
</defs>
</svg>
