<svg width="24" height="24" viewBox="0 0 24 24" fill="none" xmlns="http://www.w3.org/2000/svg">
<g clip-path="url(#clip0_221_18180)">
<path d="M9.5 2C9.10218 2 8.72064 2.15804 8.43934 2.43934C8.15804 2.72064 8 3.10218 8 3.5V4.5C8 4.89782 8.15804 5.27936 8.43934 5.56066C8.72064 5.84196 9.10218 6 9.5 6H14.5C14.8978 6 15.2794 5.84196 15.5607 5.56066C15.842 5.27936 16 4.89782 16 4.5V3.5C16 3.10218 15.842 2.72064 15.5607 2.43934C15.2794 2.15804 14.8978 2 14.5 2H9.5Z" fill="black"/>
<path fill-rule="evenodd" clip-rule="evenodd" d="M6.5 4.03699C5.242 4.10699 4.448 4.30699 3.879 4.87699C3 5.75599 3 7.16999 3 9.99799V15.998C3 18.827 3 20.24 3.879 21.12C4.757 21.998 6.17199 21.998 8.99998 21.998H15C17.828 21.998 19.243 21.998 20.121 21.12C21 20.241 21 18.827 21 15.998V9.99799C21 7.16999 21 5.75599 20.121 4.87699C19.552 4.30699 18.758 4.10699 17.5 4.03699V4.49999C17.5 5.29564 17.1839 6.0587 16.6213 6.62131C16.0587 7.18392 15.2956 7.49999 14.5 7.49999H9.5C8.70435 7.49999 7.94129 7.18392 7.37868 6.62131C6.81607 6.0587 6.5 5.29564 6.5 4.49999V4.03699ZM10.7388 11.5672C10.7388 10.874 11.3148 10.3114 12.0245 10.3114C12.3071 10.3104 12.582 10.4004 12.8069 10.5674C13.0318 10.7345 13.194 10.9693 13.2684 11.2355C13.3429 11.5016 13.3254 11.7844 13.2187 12.0399C13.112 12.2954 12.9221 12.5094 12.6782 12.6488C12.3594 12.833 12.0005 13.0864 11.7125 13.418C11.4211 13.7539 11.1674 14.2116 11.1674 14.7764V16.1718C11.1674 16.3938 11.2577 16.6068 11.4184 16.7638C11.5792 16.9208 11.7972 17.009 12.0245 17.009C12.2519 17.009 12.4699 16.9208 12.6306 16.7638C12.7914 16.6068 12.8817 16.3938 12.8817 16.1718V14.7764C12.8817 14.7251 12.9023 14.6358 13.0188 14.5018C13.1728 14.3382 13.3521 14.1992 13.5503 14.0899C14.0026 13.829 14.3768 13.4566 14.6356 13.01C14.8943 12.5634 15.0284 12.0582 15.0245 11.5451C15.0205 11.032 14.8787 10.5289 14.6132 10.0861C14.3477 9.64335 13.9678 9.27643 13.5115 9.02209C13.0553 8.76775 12.5386 8.6349 12.0132 8.63683C11.4879 8.63876 10.9723 8.77541 10.518 9.0331C10.0637 9.29079 9.6866 9.66049 9.42451 10.1052C9.16243 10.5499 9.0245 11.0541 9.02454 11.5672C9.02454 11.7892 9.11484 12.0022 9.27559 12.1592C9.43633 12.3162 9.65435 12.4044 9.88168 12.4044C10.109 12.4044 10.327 12.3162 10.4878 12.1592C10.6485 12.0022 10.7388 11.7892 10.7388 11.5672ZM12.8327 20.3099C12.6183 20.5192 12.3276 20.6368 12.0245 20.6368C11.7214 20.6368 11.4307 20.5192 11.2164 20.3099C11.0021 20.1005 10.8817 19.8166 10.8817 19.5206C10.8817 19.2245 11.0021 18.9406 11.2164 18.7312C11.4307 18.5219 11.7214 18.4043 12.0245 18.4043C12.3276 18.4043 12.6183 18.5219 12.8327 18.7312C13.047 18.9406 13.1674 19.2245 13.1674 19.5206C13.1674 19.8166 13.047 20.1005 12.8327 20.3099Z" fill="black"/>
</g>
<defs>
<clipPath id="clip0_221_18180">
<rect width="24" height="24" fill="white"/>
</clipPath>
</defs>
</svg>
