<svg width="24" height="24" viewBox="0 0 24 24" fill="none" xmlns="http://www.w3.org/2000/svg">
<g clip-path="url(#clip0_221_18299)">
<path d="M2 11.5V12.5C2 15.787 2 17.431 2.908 18.538C3.07409 18.7404 3.25965 18.9259 3.462 19.092C4.57 20 6.212 20 9.5 20C12.787 20 14.431 20 15.538 19.092C15.7407 18.9253 15.9253 18.7407 16.092 18.538C16.794 17.683 16.953 16.507 16.989 14.5L17.659 14.83C19.604 15.802 20.577 16.289 21.289 15.849C22.001 15.409 22 14.322 22 12.146V11.854C22 9.679 22 8.591 21.289 8.151C20.577 7.711 19.604 8.198 17.659 9.171L16.989 9.5C16.953 7.493 16.794 6.317 16.092 5.462C15.9259 5.25965 15.7404 5.07409 15.538 4.908C14.43 4 12.788 4 9.5 4C6.213 4 4.569 4 3.462 4.908C3.25965 5.07409 3.07409 5.25965 2.908 5.462C2 6.57 2 8.212 2 11.5Z" fill="black"/>
</g>
<defs>
<clipPath id="clip0_221_18299">
<rect width="24" height="24" fill="white"/>
</clipPath>
</defs>
</svg>
