<svg width="24" height="24" viewBox="0 0 24 24" fill="none" xmlns="http://www.w3.org/2000/svg">
<g clip-path="url(#clip0_221_18174)">
<path d="M19.352 16.383L15.392 19.946C14.265 20.961 13.702 21.469 13.009 21.734L13 19C13 16.643 13 15.464 13.732 14.732C14.464 14 15.643 14 18 14L21.58 14C21.218 14.704 20.568 15.288 19.352 16.383Z" fill="black"/>
<path fill-rule="evenodd" clip-rule="evenodd" d="M10 2L14 2C17.771 2 19.656 2.001 20.828 3.172C22 4.343 22 6.229 22 10V10.437C22 11.31 22 11.966 21.957 12.5L17.905 12.5C16.808 12.5 15.838 12.5 15.057 12.605C14.21 12.719 13.362 12.981 12.672 13.671C11.98 14.363 11.719 15.21 11.605 16.057C11.5 16.838 11.5 17.808 11.5 18.905L11.51 21.739C11.51 21.8217 11.5167 21.903 11.53 21.983C11.121 22 10.636 22 10.03 22C6.239 22 4.344 21.999 3.172 20.828C2 19.657 2 17.771 2 14L2 10C2 6.229 2.001 4.344 3.172 3.172C4.343 2 6.229 2 10 2ZM11.2516 8.15494L5.53651 8.15495C5.1225 8.15495 4.7865 8.49095 4.7865 8.90496C4.7865 9.31896 5.1225 9.65497 5.53651 9.65497L11.2516 9.65497C11.6656 9.65497 12.0016 9.31896 12.0016 8.90496C12.0016 8.49095 11.6656 8.15494 11.2516 8.15494ZM5.53651 5.30329L11.2516 5.30329C11.6656 5.30329 12.0016 5.6393 12.0016 6.0533C12.0016 6.46731 11.6656 6.80331 11.2516 6.80331L5.53651 6.80332C5.1225 6.80332 4.7865 6.46731 4.7865 6.0533C4.7865 5.6393 5.1225 5.30329 5.53651 5.30329ZM8.39406 11.1705H5.53651C5.1225 11.1705 4.7865 11.5065 4.7865 11.9206C4.7865 12.3346 5.1225 12.6706 5.53651 12.6706H8.39406C8.80806 12.6706 9.14407 12.3346 9.14407 11.9206C9.14407 11.5065 8.80806 11.1705 8.39406 11.1705Z" fill="black"/>
</g>
<defs>
<clipPath id="clip0_221_18174">
<rect width="24" height="24" fill="white"/>
</clipPath>
</defs>
</svg>
