<svg width="24" height="24" viewBox="0 0 24 24" fill="none" xmlns="http://www.w3.org/2000/svg">
<path d="M5.9325 5.92121C6.12364 5.92121 6.31074 5.94723 6.49177 5.99723V3.54016C6.49177 2.40613 7.42119 1.4881 8.56704 1.4881H11.1753C12.3211 1.4881 13.2505 2.40613 13.2505 3.54016V6.81024L15.5776 5.95621C16.0934 5.76621 16.6648 5.78722 17.1654 6.01423C17.665 6.24124 18.0544 6.65525 18.2456 7.16526L22.6206 18.8116C22.8117 19.3216 22.7905 19.8866 22.5609 20.3816C22.3324 20.8766 21.9137 21.2606 21.3969 21.4506C21.0232 21.5877 20.5989 21.7434 20.1747 21.8992C19.7504 22.0549 19.3262 22.2107 18.9525 22.3477C18.4367 22.5377 17.8653 22.5167 17.3647 22.2897C16.8651 22.0627 16.4757 21.6487 16.2846 21.1387L13.2505 13.0614V20.3976C13.2505 21.5307 12.3211 22.4497 11.1753 22.4497H8.56704C8.06744 22.4497 7.60829 22.2747 7.25027 21.9837C6.88012 22.2837 6.41491 22.4497 5.9325 22.4497H3.32527C2.7751 22.4497 2.24718 22.2337 1.85781 21.8487C1.46845 21.4637 1.25 20.9416 1.25 20.3966V7.97327C1.25 7.42926 1.46845 6.90725 1.85781 6.52224C2.24718 6.13723 2.7751 5.92121 3.32527 5.92121H5.9325Z" fill="black"/>
</svg>
