<svg width="24" height="24" viewBox="0 0 24 24" fill="none" xmlns="http://www.w3.org/2000/svg">
<g clip-path="url(#clip0_221_17925)">
<path d="M19.352 7.61699L15.392 4.05399C14.265 3.03899 13.702 2.53099 13.009 2.26599L13 4.99999C13 7.35699 13 8.53599 13.732 9.26799C14.464 9.99999 15.643 9.99999 18 9.99999H21.58C21.218 9.29599 20.568 8.71199 19.352 7.61699Z" fill="black"/>
<path fill-rule="evenodd" clip-rule="evenodd" d="M10 22H14C17.771 22 19.657 22 20.828 20.828C21.999 19.656 22 17.771 22 14V13.563C22 12.69 22 12.034 21.957 11.5H17.905C16.808 11.5 15.838 11.5 15.057 11.395C14.21 11.281 13.363 11.02 12.672 10.329C11.98 9.637 11.719 8.79 11.605 7.943C11.5 7.162 11.5 6.193 11.5 5.095L11.51 2.261C11.51 2.17833 11.5167 2.097 11.53 2.017C11.121 2 10.636 2 10.03 2C6.239 2 4.343 2 3.172 3.172C2 4.343 2 6.229 2 10V14C2 17.771 2 19.657 3.172 20.828C4.344 21.999 6.229 22 10 22ZM9.672 18.513L11.547 16.513C11.6773 16.374 11.7499 16.1906 11.7499 16C11.7499 15.8094 11.6773 15.626 11.547 15.487L9.672 13.487C9.53514 13.3453 9.34802 13.2632 9.15108 13.2583C8.95414 13.2534 8.76319 13.3262 8.6195 13.461C8.47581 13.5958 8.3909 13.7816 8.38314 13.9785C8.37537 14.1753 8.44537 14.3673 8.578 14.513L9.268 15.25H6C5.80109 15.25 5.61032 15.329 5.46967 15.4697C5.32902 15.6103 5.25 15.8011 5.25 16C5.25 16.1989 5.32902 16.3897 5.46967 16.5303C5.61032 16.671 5.80109 16.75 6 16.75H9.269L8.578 17.487C8.44537 17.6327 8.37537 17.8247 8.38314 18.0215C8.3909 18.2184 8.47581 18.4042 8.6195 18.539C8.76319 18.6738 8.95414 18.7466 9.15108 18.7417C9.34802 18.7368 9.53514 18.6547 9.672 18.513Z" fill="black"/>
</g>
<defs>
<clipPath id="clip0_221_17925">
<rect width="24" height="24" fill="white"/>
</clipPath>
</defs>
</svg>
