<svg width="24" height="24" viewBox="0 0 24 24" fill="none" xmlns="http://www.w3.org/2000/svg">
<g clip-path="url(#clip0_221_17937)">
<path d="M19.352 7.61699L15.392 4.05399C14.265 3.03899 13.702 2.53099 13.009 2.26599L13 4.99999C13 7.35699 13 8.53599 13.732 9.26799C14.464 9.99999 15.643 9.99999 18 9.99999H21.58C21.218 9.29599 20.568 8.71199 19.352 7.61699Z" fill="black"/>
<path d="M9.36011 16.1589H7.22306V18.424H9.36011V16.1589Z" fill="black"/>
<path d="M10.8711 15.3739C10.8711 15.0469 10.6461 14.7719 10.3421 14.6949C10.2691 14.6709 10.1911 14.6589 10.1101 14.6589H6.47304C6.32704 14.6589 6.19104 14.6999 6.07704 14.7719C5.94704 14.8479 5.84504 14.9649 5.78704 15.1049C5.74604 15.1979 5.72303 15.2999 5.72303 15.4089V17.1709H5.40103C5.35103 17.1709 5.33703 17.1299 5.32603 17.0879C5.29903 16.9909 5.29103 16.8809 5.29103 16.7649V14.5529C5.29103 14.3289 5.47304 14.1469 5.69704 14.1469H10.9281C11.1521 14.1469 11.3341 14.3289 11.3341 14.5529V16.7649C11.3341 16.9889 11.1521 17.1709 10.9281 17.1709H10.8711V15.3739Z" fill="black"/>
<path d="M9.80912 12.3848C9.93513 12.5028 9.97712 12.6538 9.99112 12.7468H6.82306C6.82106 12.7408 6.81905 12.7348 6.81805 12.7288C6.81805 12.7288 6.76606 12.5208 6.92307 12.3518C7.13207 12.1278 7.55208 12.0048 8.31309 12.0048C9.10411 12.0048 9.56112 12.1508 9.80912 12.3848Z" fill="black"/>
<path fill-rule="evenodd" clip-rule="evenodd" d="M14 22H10C6.229 22 4.344 21.999 3.172 20.828C2 19.657 2 17.771 2 14V10C2 6.229 2 4.343 3.172 3.172C4.343 2 6.239 2 10.03 2C10.636 2 11.121 2 11.53 2.017C11.5167 2.097 11.51 2.17833 11.51 2.261L11.5 5.095C11.5 6.193 11.5 7.162 11.605 7.943C11.719 8.79 11.98 9.637 12.672 10.329C13.363 11.02 14.21 11.281 15.057 11.395C15.838 11.5 16.808 11.5 17.905 11.5H21.957C22 12.034 22 12.69 22 13.563V14C22 17.771 21.999 19.656 20.828 20.828C19.657 22 17.771 22 14 22ZM3.89099 14.5529C3.89099 13.6499 4.55401 12.9019 5.42003 12.7678C5.40003 12.4198 5.45703 11.8718 5.89904 11.3978C6.26905 10.9998 6.96307 10.6048 8.31309 10.6048C9.63112 10.6048 10.3561 10.9768 10.7691 11.3648C11.3151 11.8788 11.3982 12.4878 11.3992 12.8089C12.1682 13.0159 12.7342 13.7189 12.7342 14.5529V16.7649C12.7342 17.7619 11.9252 18.571 10.9281 18.571H10.8601V19.174C10.8601 19.588 10.5241 19.924 10.1101 19.924H6.47304C6.05804 19.924 5.72303 19.588 5.72303 19.174V18.571H5.40103C4.92702 18.571 4.58801 18.398 4.342 18.137C4.048 17.824 3.89099 17.3339 3.89099 16.7649V14.5529Z" fill="black"/>
</g>
<defs>
<clipPath id="clip0_221_17937">
<rect width="24" height="24" fill="white"/>
</clipPath>
</defs>
</svg>
