<svg width="24" height="24" viewBox="0 0 24 24" fill="none" xmlns="http://www.w3.org/2000/svg">
<g clip-path="url(#clip0_221_18249)">
<path d="M9.5 2C9.10218 2 8.72064 2.15804 8.43934 2.43934C8.15804 2.72064 8 3.10218 8 3.5V4.5C8 4.89782 8.15804 5.27936 8.43934 5.56066C8.72064 5.84196 9.10218 6 9.5 6H14.5C14.8978 6 15.2794 5.84196 15.5607 5.56066C15.842 5.27936 16 4.89782 16 4.5V3.5C16 3.10218 15.842 2.72064 15.5607 2.43934C15.2794 2.15804 14.8978 2 14.5 2H9.5Z" fill="black"/>
<path fill-rule="evenodd" clip-rule="evenodd" d="M6.5 4.03699C5.242 4.10699 4.448 4.30699 3.879 4.87699C3 5.75599 3 7.16999 3 9.99799V15.998C3 18.827 3 20.241 3.879 21.12C4.757 21.998 6.172 21.998 9 21.998H15C17.828 21.998 19.243 21.998 20.121 21.12C21 20.24 21 18.827 21 15.998V9.99799C21 7.16999 21 5.75599 20.121 4.87699C19.552 4.30699 18.758 4.10699 17.5 4.03699V4.49999C17.5 5.29564 17.1839 6.0587 16.6213 6.62131C16.0587 7.18392 15.2956 7.49999 14.5 7.49999H9.5C8.70435 7.49999 7.94129 7.18392 7.37868 6.62131C6.81607 6.0587 6.5 5.29564 6.5 4.49999V4.03699ZM7 9.74999C6.80109 9.74999 6.61032 9.82901 6.46967 9.96966C6.32902 10.1103 6.25 10.3011 6.25 10.5C6.25 10.6989 6.32902 10.8897 6.46967 11.0303C6.61032 11.171 6.80109 11.25 7 11.25H7.5C7.69891 11.25 7.88968 11.171 8.03033 11.0303C8.17098 10.8897 8.25 10.6989 8.25 10.5C8.25 10.3011 8.17098 10.1103 8.03033 9.96966C7.88968 9.82901 7.69891 9.74999 7.5 9.74999H7ZM10.5 9.74999C10.3011 9.74999 10.1103 9.82901 9.96967 9.96966C9.82902 10.1103 9.75 10.3011 9.75 10.5C9.75 10.6989 9.82902 10.8897 9.96967 11.0303C10.1103 11.171 10.3011 11.25 10.5 11.25H17C17.1989 11.25 17.3897 11.171 17.5303 11.0303C17.671 10.8897 17.75 10.6989 17.75 10.5C17.75 10.3011 17.671 10.1103 17.5303 9.96966C17.3897 9.82901 17.1989 9.74999 17 9.74999H10.5ZM7 13.25C6.80109 13.25 6.61032 13.329 6.46967 13.4697C6.32902 13.6103 6.25 13.8011 6.25 14C6.25 14.1989 6.32902 14.3897 6.46967 14.5303C6.61032 14.671 6.80109 14.75 7 14.75H7.5C7.69891 14.75 7.88968 14.671 8.03033 14.5303C8.17098 14.3897 8.25 14.1989 8.25 14C8.25 13.8011 8.17098 13.6103 8.03033 13.4697C7.88968 13.329 7.69891 13.25 7.5 13.25H7ZM10.5 13.25C10.3011 13.25 10.1103 13.329 9.96967 13.4697C9.82902 13.6103 9.75 13.8011 9.75 14C9.75 14.1989 9.82902 14.3897 9.96967 14.5303C10.1103 14.671 10.3011 14.75 10.5 14.75H17C17.1989 14.75 17.3897 14.671 17.5303 14.5303C17.671 14.3897 17.75 14.1989 17.75 14C17.75 13.8011 17.671 13.6103 17.5303 13.4697C17.3897 13.329 17.1989 13.25 17 13.25H10.5ZM7 16.75C6.80109 16.75 6.61032 16.829 6.46967 16.9697C6.32902 17.1103 6.25 17.3011 6.25 17.5C6.25 17.6989 6.32902 17.8897 6.46967 18.0303C6.61032 18.171 6.80109 18.25 7 18.25H7.5C7.69891 18.25 7.88968 18.171 8.03033 18.0303C8.17098 17.8897 8.25 17.6989 8.25 17.5C8.25 17.3011 8.17098 17.1103 8.03033 16.9697C7.88968 16.829 7.69891 16.75 7.5 16.75H7ZM10.5 16.75C10.3011 16.75 10.1103 16.829 9.96967 16.9697C9.82902 17.1103 9.75 17.3011 9.75 17.5C9.75 17.6989 9.82902 17.8897 9.96967 18.0303C10.1103 18.171 10.3011 18.25 10.5 18.25H17C17.1989 18.25 17.3897 18.171 17.5303 18.0303C17.671 17.8897 17.75 17.6989 17.75 17.5C17.75 17.3011 17.671 17.1103 17.5303 16.9697C17.3897 16.829 17.1989 16.75 17 16.75H10.5Z" fill="black"/>
</g>
<defs>
<clipPath id="clip0_221_18249">
<rect width="24" height="24" fill="white"/>
</clipPath>
</defs>
</svg>
