<svg width="24" height="24" viewBox="0 0 24 24" fill="none" xmlns="http://www.w3.org/2000/svg">
<g clip-path="url(#clip0_221_18304)">
<path d="M18 8C18 8.53043 17.7893 9.03914 17.4142 9.41421C17.0391 9.78929 16.5304 10 16 10C15.4696 10 14.9609 9.78929 14.5858 9.41421C14.2107 9.03914 14 8.53043 14 8C14 7.46957 14.2107 6.96086 14.5858 6.58579C14.9609 6.21071 15.4696 6 16 6C16.5304 6 17.0391 6.21071 17.4142 6.58579C17.7893 6.96086 18 7.46957 18 8Z" fill="black"/>
<path fill-rule="evenodd" clip-rule="evenodd" d="M11.943 1.25002H12.057C14.366 1.25002 16.175 1.25002 17.587 1.44002C19.031 1.63402 20.171 2.04002 21.066 2.93402C21.961 3.82902 22.366 4.96902 22.56 6.41402C22.75 7.82502 22.75 9.63402 22.75 11.943V12.031C22.75 13.94 22.75 15.502 22.646 16.774C22.542 18.054 22.329 19.121 21.851 20.009C21.6417 20.3997 21.38 20.752 21.066 21.066C20.171 21.961 19.031 22.366 17.586 22.56C16.175 22.75 14.366 22.75 12.057 22.75H11.943C9.634 22.75 7.825 22.75 6.413 22.56C4.969 22.366 3.829 21.96 2.934 21.066C2.141 20.273 1.731 19.286 1.514 18.06C1.299 16.857 1.26 15.36 1.252 13.502C1.25067 13.0287 1.25 12.528 1.25 12V11.942C1.25 9.63302 1.25 7.82402 1.44 6.41202C1.634 4.96802 2.04 3.82802 2.934 2.93302C3.829 2.03802 4.969 1.63302 6.414 1.43902C7.825 1.24902 9.634 1.24902 11.943 1.24902M6.613 2.92502C5.335 3.09702 4.564 3.42502 3.995 3.99402C3.425 4.56402 3.098 5.33402 2.926 6.61302C2.752 7.91302 2.75 9.62102 2.75 11.999V12.843L3.751 11.967C4.19007 11.5827 4.75882 11.3796 5.34203 11.3989C5.92524 11.4182 6.47931 11.6585 6.892 12.071L11.182 16.361C11.5149 16.6939 11.9546 16.8986 12.4235 16.9392C12.8925 16.9798 13.3608 16.8537 13.746 16.583L14.044 16.373C14.5997 15.9826 15.2714 15.7922 15.9493 15.8331C16.6273 15.8739 17.2713 16.1436 17.776 16.598L20.606 19.145C20.892 18.547 21.061 17.761 21.151 16.652C21.249 15.447 21.25 13.945 21.25 11.999C21.25 9.62102 21.248 7.91302 21.074 6.61302C20.902 5.33402 20.574 4.56302 20.005 3.99302C19.435 3.42402 18.665 3.09702 17.386 2.92502C16.086 2.75102 14.378 2.74902 12 2.74902C9.622 2.74902 7.913 2.75102 6.613 2.92502Z" fill="black"/>
</g>
<defs>
<clipPath id="clip0_221_18304">
<rect width="24" height="24" fill="white"/>
</clipPath>
</defs>
</svg>
