<svg width="24" height="24" viewBox="0 0 24 24" fill="none" xmlns="http://www.w3.org/2000/svg">
<g clip-path="url(#clip0_221_18059)">
<path d="M4.727 2.712C4.944 2.5 5.222 2.34 5.655 2.227V15.58C5.53499 15.5968 5.4161 15.6208 5.299 15.652C4.83533 15.7741 4.39598 15.9746 4 16.245V7.675C4 6.124 4.002 5.042 4.114 4.225C4.223 3.432 4.422 3.012 4.727 2.712Z" fill="black"/>
<path d="M10.1249 11.231C10.1317 11.2419 10.1363 11.2493 10.139 11.2537L10.1103 11.206L10.1114 11.2082C10.1164 11.2168 10.121 11.2244 10.1249 11.231Z" fill="black"/>
<path d="M13.5943 9.77502C13.2803 9.77502 13.0202 9.52502 13.0042 9.21402L13.0033 9.18402C13.0033 8.86002 13.2703 8.59302 13.5943 8.59302C13.9183 8.59302 14.1852 8.86002 14.1852 9.18402C14.1852 9.50802 13.9183 9.77502 13.5943 9.77502Z" fill="black"/>
<path fill-rule="evenodd" clip-rule="evenodd" d="M13.0683 6.30002C13.0873 6.25302 13.1242 6.21602 13.1702 6.19702C13.1814 6.19224 13.1964 6.19127 13.2227 6.18955C13.2294 6.18911 13.2369 6.18863 13.2452 6.18802C13.3166 6.1828 13.4077 6.18287 13.535 6.18298C13.5539 6.183 13.5737 6.18301 13.5943 6.18301C13.615 6.18301 13.6349 6.183 13.6539 6.18298C13.7816 6.18287 13.872 6.1828 13.9443 6.18802C13.9527 6.18865 13.9603 6.18915 13.9672 6.1896C13.9928 6.19129 14.008 6.19229 14.0183 6.19702C14.0653 6.21602 14.1013 6.25302 14.1213 6.30002C14.1281 6.31706 14.1291 6.34353 14.1311 6.39617C14.1314 6.4053 14.1318 6.41521 14.1323 6.42599C14.1463 6.78799 14.3353 7.135 14.6663 7.327C14.9983 7.518 15.3933 7.50802 15.7143 7.33902C15.7217 7.33507 15.7286 7.33137 15.7351 7.3279C15.7847 7.30148 15.8087 7.28866 15.8272 7.28601H15.8293C15.8793 7.27901 15.9293 7.293 15.9693 7.323C15.9783 7.33041 15.9874 7.34395 16.0032 7.3675C16.0065 7.37253 16.0102 7.37802 16.0143 7.384C16.0603 7.453 16.1143 7.54501 16.1933 7.68301L16.3642 7.98901C16.3684 7.99775 16.3721 8.00536 16.3754 8.01207C16.3856 8.03303 16.3915 8.04518 16.3922 8.05502C16.3922 8.05602 16.3933 8.05701 16.3933 8.05801C16.3993 8.10801 16.3863 8.158 16.3563 8.198C16.3439 8.213 16.3214 8.22722 16.273 8.25784C16.2666 8.26192 16.2597 8.26629 16.2522 8.271C15.9452 8.464 15.7383 8.80102 15.7383 9.18402C15.7383 9.56702 15.9452 9.90402 16.2522 10.097C16.2589 10.1013 16.2652 10.1052 16.2711 10.109C16.3208 10.1404 16.3437 10.1549 16.3563 10.171C16.3863 10.21 16.3993 10.261 16.3933 10.311C16.393 10.3114 16.3922 10.3126 16.3922 10.313C16.3914 10.3248 16.3841 10.3388 16.3711 10.3639C16.3687 10.3686 16.3661 10.3736 16.3633 10.379L16.1933 10.685C16.1143 10.823 16.0603 10.916 16.0143 10.985C16.0122 10.988 16.0103 10.9909 16.0084 10.9936C15.9893 11.022 15.9793 11.0368 15.9693 11.045C15.9293 11.075 15.8793 11.089 15.8293 11.082H15.8272C15.8099 11.0795 15.7885 11.0682 15.7449 11.0452C15.7358 11.0403 15.7256 11.0349 15.7143 11.029C15.3943 10.86 14.9983 10.85 14.6663 11.041C14.3353 11.232 14.1463 11.58 14.1323 11.942V11.943C14.1318 11.9536 14.1314 11.9633 14.1311 11.9722C14.1291 12.025 14.1281 12.0509 14.1213 12.068C14.1013 12.115 14.0643 12.152 14.0183 12.171C14.008 12.1758 13.9926 12.1768 13.9663 12.1785C13.9594 12.1789 13.9518 12.1794 13.9433 12.18C13.8721 12.1852 13.7822 12.1851 13.6553 12.185C13.6358 12.185 13.6155 12.185 13.5943 12.185C13.5732 12.185 13.553 12.185 13.5336 12.185C13.4071 12.1851 13.3164 12.1852 13.2452 12.18C13.2369 12.1794 13.2294 12.1789 13.2227 12.1785C13.1964 12.1768 13.1814 12.1758 13.1702 12.171C13.1242 12.152 13.0873 12.115 13.0683 12.068H13.0673C13.0604 12.0509 13.0594 12.025 13.0574 11.9722C13.0571 11.9633 13.0567 11.9536 13.0562 11.943V11.942C13.0422 11.58 12.8543 11.233 12.5223 11.041C12.1903 10.85 11.7953 10.86 11.4753 11.029H11.4742C11.467 11.0329 11.4602 11.0365 11.4538 11.0399C11.404 11.0665 11.3799 11.0793 11.3613 11.082H11.3593C11.3103 11.089 11.2593 11.075 11.2203 11.045C11.2093 11.036 11.1983 11.02 11.1763 10.987L10.9952 10.685L10.8252 10.379C10.8218 10.372 10.8186 10.3658 10.8157 10.3601C10.8037 10.3366 10.7971 10.3235 10.7963 10.313C10.7963 10.312 10.7962 10.311 10.7952 10.31C10.7892 10.261 10.8023 10.21 10.8333 10.171C10.8441 10.156 10.8655 10.1423 10.9085 10.1148C10.9169 10.1094 10.9261 10.1035 10.9363 10.097C11.2433 9.90402 11.4502 9.56702 11.4502 9.18402C11.4502 8.80102 11.2433 8.464 10.9363 8.271C10.9252 8.26388 10.9153 8.25753 10.9063 8.25179C10.8648 8.22528 10.8439 8.21198 10.8333 8.198C10.8023 8.158 10.7892 8.10801 10.7952 8.05801C10.7962 8.05701 10.7963 8.05602 10.7963 8.05502C10.797 8.04534 10.8033 8.03289 10.8135 8.01271C10.817 8.00579 10.8209 7.99795 10.8252 7.98901L10.9952 7.68301C11.0038 7.66821 11.0121 7.65393 11.0201 7.64014C11.0865 7.52534 11.1333 7.4446 11.1753 7.383C11.1972 7.34901 11.2083 7.332 11.2203 7.323C11.2593 7.293 11.3103 7.27901 11.3593 7.28601H11.3613C11.3798 7.28866 11.4038 7.30148 11.4534 7.3279C11.4599 7.33137 11.4668 7.33507 11.4742 7.33902C11.7942 7.50802 12.1903 7.519 12.5223 7.327C12.8543 7.135 13.0422 6.78702 13.0562 6.42502C13.0567 6.41446 13.0571 6.40477 13.0574 6.39584C13.0594 6.34302 13.0604 6.31713 13.0673 6.30002H13.0683ZM13.5943 7.66602L13.6722 7.668C14.4692 7.709 15.1122 8.37702 15.1122 9.18402C15.1122 10.017 14.4273 10.702 13.5943 10.702C12.7613 10.702 12.0763 10.017 12.0763 9.18402C12.0763 8.35102 12.7613 7.66602 13.5943 7.66602Z" fill="black"/>
<path fill-rule="evenodd" clip-rule="evenodd" d="M20 15.514H7.31V2.029C7.981 2 8.791 2 9.793 2H14.207C15.791 2 16.895 2.002 17.729 2.112C18.539 2.218 18.967 2.413 19.273 2.712C19.578 3.012 19.777 3.432 19.886 4.225C19.998 5.042 20 6.124 20 7.676V15.514ZM13.6032 5.155H13.5943L13.5853 5.15601L13.1773 5.16299C13.0413 5.16899 12.9082 5.197 12.7822 5.246C12.7817 5.24628 12.7812 5.24655 12.7808 5.2468C12.7796 5.24748 12.7787 5.24802 12.7773 5.24802C12.4793 5.37202 12.2422 5.60901 12.1182 5.90701C12.0562 6.05701 12.0363 6.21402 12.0293 6.38702V6.39401C12.0293 6.41001 12.0223 6.425 12.0103 6.435C11.9923 6.443 11.9743 6.44202 11.9603 6.43402L11.9543 6.431C11.8023 6.35 11.6553 6.289 11.4943 6.267H11.4932C11.1742 6.225 10.8503 6.312 10.5943 6.508C10.594 6.5083 10.5936 6.5086 10.5931 6.50893C10.5921 6.5097 10.5909 6.51063 10.5902 6.51202C10.4842 6.59602 10.3932 6.69801 10.3212 6.81201C10.2592 6.90501 10.1913 7.02202 10.1103 7.16202L10.1093 7.164L9.90226 7.53702C9.84126 7.66302 9.79526 7.78701 9.77726 7.92401C9.73526 8.24401 9.82226 8.567 10.0183 8.823C10.1173 8.952 10.2443 9.04902 10.3893 9.14001C10.3904 9.14113 10.3915 9.14194 10.3926 9.1426C10.3935 9.14313 10.3944 9.14357 10.3953 9.14401C10.4093 9.15201 10.4183 9.166 10.4213 9.181C10.4193 9.201 10.4103 9.216 10.3953 9.224C10.3933 9.225 10.3913 9.226 10.3893 9.228C10.2443 9.319 10.1183 9.41601 10.0183 9.54501C9.82126 9.80101 9.73526 10.125 9.77726 10.444C9.79526 10.581 9.84126 10.706 9.90226 10.831L10.1012 11.191C10.1048 11.1971 10.1082 11.2029 10.1114 11.2082L10.1142 11.214C10.1183 11.2204 10.1218 11.2261 10.1249 11.231C10.1352 11.2481 10.1413 11.2579 10.1417 11.2583C10.1418 11.2584 10.1415 11.258 10.141 11.257L10.3223 11.558C10.4003 11.674 10.4853 11.776 10.5943 11.86C10.8503 12.056 11.1742 12.143 11.4932 12.101H11.4943C11.6553 12.079 11.8023 12.018 11.9553 11.937C11.9562 11.936 11.9582 11.9351 11.9601 11.9341C11.9741 11.9271 11.9903 11.925 12.0053 11.93C12.0223 11.942 12.0293 11.957 12.0293 11.973C12.0293 11.9745 12.0295 11.9758 12.0298 11.977C12.03 11.9783 12.0302 11.9795 12.0302 11.981C12.0362 12.153 12.0563 12.312 12.1193 12.462C12.2423 12.76 12.4793 12.997 12.7773 13.12C12.9043 13.173 13.0363 13.195 13.1753 13.205L13.6032 13.213L14.0143 13.205C14.1533 13.195 14.2842 13.173 14.4112 13.12C14.7092 12.996 14.9463 12.759 15.0703 12.462V12.461C15.1323 12.312 15.1522 12.154 15.1592 11.981V11.974C15.1592 11.958 15.1663 11.943 15.1783 11.933C15.1963 11.925 15.2142 11.926 15.2282 11.934L15.2343 11.937C15.3873 12.018 15.5343 12.079 15.6953 12.101C16.0153 12.143 16.3383 12.056 16.5943 11.86C16.7043 11.776 16.7892 11.673 16.8662 11.558L17.0793 11.206L17.0873 11.191C17.1693 11.05 17.2372 10.932 17.2862 10.831C17.3472 10.705 17.3942 10.581 17.4112 10.444C17.4532 10.125 17.3672 9.80101 17.1702 9.54501C17.0712 9.41601 16.9442 9.319 16.7992 9.228C16.7972 9.226 16.7952 9.225 16.7932 9.224C16.7782 9.215 16.7683 9.20001 16.7663 9.18301C16.7673 9.16501 16.7823 9.15102 16.7983 9.14102L16.7992 9.14001C16.9442 9.04902 17.0712 8.952 17.1702 8.823C17.3672 8.567 17.4532 8.24301 17.4112 7.92401V7.918C17.3902 7.783 17.3473 7.652 17.2833 7.53C17.2223 7.411 17.1552 7.29202 17.0862 7.17502C17.0896 7.18061 17.0925 7.18554 17.0951 7.18985C17.1026 7.20269 17.1088 7.21308 17.1101 7.21526C17.1115 7.21749 17.1078 7.21109 17.0951 7.18985C17.0904 7.18173 17.0851 7.17262 17.0803 7.164L16.8693 6.814C16.7973 6.7 16.7053 6.59702 16.5983 6.51202C16.5973 6.51105 16.5962 6.50998 16.5943 6.509C16.3383 6.312 16.0153 6.225 15.6953 6.267H15.6943C15.5333 6.289 15.3863 6.35 15.2333 6.431C15.2323 6.432 15.2303 6.43302 15.2293 6.43402C15.2153 6.44102 15.1982 6.44302 15.1832 6.43802C15.1672 6.42602 15.1592 6.41001 15.1592 6.39301V6.38702C15.1522 6.21502 15.1323 6.05701 15.0693 5.90601C14.9463 5.60801 14.7092 5.37102 14.4112 5.24802C14.2842 5.19502 14.1523 5.17299 14.0133 5.16299C13.9023 5.15599 13.7662 5.155 13.6032 5.155Z" fill="black"/>
<path d="M5.727 17.218C6.017 17.142 6.394 17.135 7.473 17.135H19.999C19.996 18.265 19.978 19.109 19.886 19.775C19.777 20.568 19.578 20.988 19.273 21.288C18.967 21.587 18.539 21.782 17.729 21.889C16.895 21.998 15.791 22 14.207 22H9.793C8.209 22 7.105 21.998 6.271 21.888C5.461 21.782 5.033 21.587 4.727 21.288C4.422 20.988 4.223 20.568 4.114 19.775C4.07333 19.4763 4.04533 19.1367 4.03 18.756C4.16693 18.3812 4.39296 18.0454 4.6886 17.7775C4.98424 17.5095 5.34062 17.3175 5.727 17.218Z" fill="black"/>
</g>
<defs>
<clipPath id="clip0_221_18059">
<rect width="24" height="24" fill="white"/>
</clipPath>
</defs>
</svg>
