<svg width="24" height="24" viewBox="0 0 24 24" fill="none" xmlns="http://www.w3.org/2000/svg">
<path fill-rule="evenodd" clip-rule="evenodd" d="M3.2308 3.49836L3.22999 3.48137V17.0699C3.22158 18.3365 3.62166 18.9946 3.97593 19.3508C4.30216 19.6789 4.64147 19.7976 4.84338 19.8406C4.84338 19.8406 5.06477 19.9075 5.43935 20.0207V3.5457L3.25605 3.13183C3.23129 3.31239 3.23008 3.44737 3.2308 3.49836ZM3.2308 3.49836L3.23186 3.52062L3.23092 3.50567L3.2308 3.49836Z" fill="black"/>
<path d="M4.03588 1.65117L14.747 3.68158L14.7712 3.68773C15.5102 3.87613 17.0811 4.72335 17.0485 6.64766V19.6293H18.3226C19.1583 19.6293 19.7126 19.3779 20.0902 19.0591C20.9053 18.3711 20.91 17.2831 20.8997 17.0354C20.9007 17.0485 20.9007 3.85153 20.9007 3.85153C20.9007 1.31085 18.4843 1.19308 18.4843 1.19308C18.4712 1.19214 18.4581 1.19214 18.4451 1.19214H5.55941C4.85711 1.1786 4.37537 1.38212 4.03588 1.65117Z" fill="black"/>
<path d="M15.4485 22.5673V6.63277L15.4487 6.62507C15.4649 5.78261 14.7982 5.3546 14.3967 5.24366L7.03935 3.849V20.5042C9.63243 21.2878 13.5974 22.4859 13.5974 22.4859C14.3967 22.7635 14.9978 22.7274 15.4485 22.5673Z" fill="black"/>
</svg>
