<svg width="24" height="24" viewBox="0 0 24 24" fill="none" xmlns="http://www.w3.org/2000/svg">
<g clip-path="url(#clip0_221_18422)">
<path d="M19.352 7.61699L15.392 4.05399C14.265 3.03899 13.702 2.53099 13.009 2.26599L13 4.99999C13 7.35699 13 8.53599 13.732 9.26799C14.464 9.99999 15.643 9.99999 18 9.99999H21.58C21.218 9.29599 20.568 8.71199 19.352 7.61699Z" fill="black"/>
<path fill-rule="evenodd" clip-rule="evenodd" d="M10.3596 13.3939C10.3596 12.0349 9.25657 10.9319 7.89754 10.9319C6.53952 10.9319 5.4365 12.0349 5.4365 13.3939C5.4365 14.752 6.53952 15.855 7.89754 15.855C9.25657 15.855 10.3596 14.752 10.3596 13.3939ZM7.88555 11.1789H7.92155C8.28955 11.1979 8.58656 11.5069 8.58656 11.8789V13.5489L9.09657 14.0589C9.23558 14.1909 9.31457 14.3749 9.31457 14.5669C9.31457 14.9509 8.99857 15.2669 8.61456 15.2669C8.42256 15.2669 8.23855 15.188 8.10655 15.049L7.39154 14.3339C7.25953 14.2019 7.18553 14.0239 7.18553 13.8389V11.8789C7.18553 11.4949 7.50154 11.1789 7.88555 11.1789Z" fill="black"/>
<path fill-rule="evenodd" clip-rule="evenodd" d="M10 22H14C17.771 22 19.656 21.999 20.828 20.828C22 19.657 22 17.771 22 14V13.563C22 12.69 22 12.034 21.957 11.5H17.905C16.808 11.5 15.838 11.5 15.057 11.395C14.21 11.281 13.362 11.019 12.672 10.329C11.98 9.637 11.719 8.79 11.605 7.943C11.5 7.162 11.5 6.192 11.5 5.095L11.51 2.261C11.51 2.17833 11.5167 2.097 11.53 2.017C11.121 2 10.636 2 10.03 2C6.239 2 4.344 2.001 3.172 3.172C2 4.343 2 6.229 2 10V14C2 17.771 2.001 19.656 3.172 20.828C4.343 22 6.229 22 10 22ZM10.0342 19.9503H5.0346C4.6206 19.9503 4.28459 19.6143 4.28459 19.2003C4.28459 18.7863 4.6206 18.4503 5.0346 18.4503H10.0342C10.4482 18.4503 10.7842 18.7863 10.7842 19.2003C10.7842 19.6143 10.4482 19.9503 10.0342 19.9503ZM12.512 19.9503H14.2078C14.6218 19.9503 14.9578 19.6143 14.9578 19.2003C14.9578 18.7863 14.6218 18.4503 14.2078 18.4503H12.512C12.098 18.4503 11.762 18.7863 11.762 19.2003C11.762 19.6143 12.098 19.9503 12.512 19.9503ZM4.03447 13.3939C4.03447 11.2609 5.7655 9.52983 7.89754 9.52983C10.0306 9.52983 11.7616 11.2609 11.7616 13.3939C11.7616 15.526 10.0306 17.257 7.89754 17.257C5.7655 17.257 4.03447 15.526 4.03447 13.3939Z" fill="black"/>
</g>
<defs>
<clipPath id="clip0_221_18422">
<rect width="24" height="24" fill="white"/>
</clipPath>
</defs>
</svg>
