<svg width="24" height="24" viewBox="0 0 24 24" fill="none" xmlns="http://www.w3.org/2000/svg">
<g clip-path="url(#clip0_221_18293)">
<path fill-rule="evenodd" clip-rule="evenodd" d="M12.052 2.25H11.948C11.049 2.25 10.3 2.25 9.70598 2.33C9.07798 2.414 8.51098 2.6 8.05598 3.055C7.59998 3.511 7.41398 4.078 7.32998 4.705C7.24998 5.3 7.24998 6.05 7.24998 6.948V7.026C5.22898 7.092 4.01498 7.328 3.17198 8.172C2.47698 8.866 2.19498 9.811 2.07898 11.25H21.921C21.805 9.81 21.523 8.866 20.828 8.172C19.985 7.328 18.771 7.092 16.75 7.026V6.948C16.75 6.05 16.75 5.3 16.67 4.706C16.586 4.078 16.4 3.511 15.944 3.056C15.489 2.6 14.922 2.414 14.294 2.33C13.7 2.25 12.95 2.25 12.052 2.25ZM15.25 7.002V7C15.25 6.036 15.248 5.388 15.184 4.905C15.121 4.444 15.014 4.246 14.884 4.116C14.754 3.986 14.556 3.879 14.094 3.816C13.612 3.752 12.964 3.75 12 3.75C11.036 3.75 10.388 3.752 9.90498 3.817C9.44398 3.879 9.24598 3.986 9.11598 4.117C8.98598 4.248 8.87898 4.444 8.81598 4.905C8.75298 5.388 8.74998 6.036 8.74998 7V7.002C9.14131 7.00067 9.55798 7 9.99998 7H14C14.4413 7 14.858 7.00067 15.25 7.002Z" fill="black"/>
<path d="M2 15C2 14.161 2 13.415 2.013 12.75H21.987C22 13.415 22 14.161 22 15C22 15.839 22 16.585 21.987 17.25H2.013C2 16.585 2 15.839 2 15ZM2.08 18.75C2.195 20.19 2.477 21.134 3.172 21.828C4.343 23 6.229 23 10 23H14C17.771 23 19.657 23 20.828 21.828C21.523 21.134 21.805 20.189 21.921 18.75H2.08Z" fill="black"/>
</g>
<defs>
<clipPath id="clip0_221_18293">
<rect width="24" height="24" fill="white"/>
</clipPath>
</defs>
</svg>
