<svg width="24" height="24" viewBox="0 0 24 24" fill="none" xmlns="http://www.w3.org/2000/svg">
<g clip-path="url(#clip0_221_18333)">
<path fill-rule="evenodd" clip-rule="evenodd" d="M6.271 2.112C5.461 2.218 5.033 2.413 4.727 2.712C4.422 3.012 4.223 3.432 4.114 4.225C4.002 5.042 4 6.124 4 7.675V16.245C4.39598 15.9746 4.83533 15.7741 5.299 15.652C5.827 15.513 6.443 15.513 7.346 15.514H20V7.676C20 6.124 19.998 5.042 19.886 4.225C19.777 3.432 19.578 3.012 19.273 2.712C18.967 2.413 18.539 2.218 17.729 2.112C16.895 2.002 15.791 2 14.207 2H9.793C8.209 2 7.105 2.002 6.271 2.112ZM6.759 6.595C6.759 6.147 7.129 5.784 7.586 5.784H16.414C16.631 5.78213 16.8398 5.86633 16.9948 6.01815C17.1498 6.16997 17.2384 6.37704 17.241 6.594C17.2386 6.81113 17.1502 7.01846 16.9952 7.17049C16.8401 7.32253 16.6311 7.40687 16.414 7.405H7.586C7.36903 7.40687 7.16017 7.32267 7.00516 7.17085C6.85016 7.01903 6.76164 6.81196 6.759 6.595ZM7.586 9.568C7.36903 9.56613 7.16017 9.65033 7.00516 9.80215C6.85016 9.95398 6.76164 10.161 6.759 10.378C6.759 10.826 7.129 11.189 7.586 11.189H13.103C13.3201 11.1911 13.5293 11.1071 13.6845 10.9552C13.8397 10.8034 13.9284 10.5961 13.931 10.379C13.9286 10.1617 13.8401 9.95422 13.6848 9.80215C13.5296 9.65009 13.3203 9.56587 13.103 9.568H7.586Z" fill="black"/>
<path d="M8.69003 17.135H7.47303C6.39403 17.135 6.01703 17.142 5.72703 17.218C5.34065 17.3175 4.98427 17.5095 4.68863 17.7775C4.39299 18.0454 4.16696 18.3812 4.03003 18.756C4.04536 19.1367 4.07336 19.4763 4.11403 19.775C4.22303 20.568 4.42203 20.988 4.72703 21.288C5.03303 21.587 5.46103 21.782 6.27103 21.888C7.10503 21.998 8.20903 22 9.79303 22H14.207C15.791 22 16.895 21.998 17.729 21.889C18.539 21.782 18.967 21.587 19.273 21.288C19.578 20.988 19.777 20.568 19.886 19.775C19.978 19.109 19.996 18.265 19.999 17.135H13.103V20.142C13.103 20.44 13.103 20.589 12.999 20.649C12.894 20.709 12.751 20.642 12.465 20.509L11.094 19.871C10.997 19.826 10.949 19.804 10.897 19.804C10.845 19.804 10.796 19.826 10.699 19.871L9.32903 20.509C9.04203 20.642 8.89903 20.709 8.79403 20.649C8.69003 20.589 8.69003 20.439 8.69003 20.142V17.135Z" fill="black"/>
</g>
<defs>
<clipPath id="clip0_221_18333">
<rect width="24" height="24" fill="white"/>
</clipPath>
</defs>
</svg>
