<svg width="24" height="24" viewBox="0 0 24 24" fill="none" xmlns="http://www.w3.org/2000/svg">
<g clip-path="url(#clip0_221_17982)">
<path d="M19.352 7.61699L15.392 4.05399C14.265 3.03899 13.702 2.53099 13.009 2.26599L13 4.99999C13 7.35699 13 8.53599 13.732 9.26799C14.464 9.99999 15.643 9.99999 18 9.99999H21.58C21.218 9.29599 20.568 8.71199 19.352 7.61699Z" fill="black"/>
<path fill-rule="evenodd" clip-rule="evenodd" d="M10 22H14C17.771 22 19.656 21.999 20.828 20.828C22 19.657 22 17.771 22 14V13.563C22 12.69 22 12.034 21.957 11.5H17.905C16.808 11.5 15.838 11.5 15.057 11.395C14.21 11.281 13.362 11.019 12.672 10.329C11.98 9.637 11.719 8.79 11.605 7.943C11.5 7.162 11.5 6.192 11.5 5.095L11.51 2.261C11.51 2.17833 11.5167 2.097 11.53 2.017C11.121 2 10.636 2 10.03 2C6.239 2 4.344 2.001 3.172 3.172C2 4.343 2 6.229 2 10V14C2 17.771 2.001 19.656 3.172 20.828C4.343 22 6.229 22 10 22ZM8.84898 12.9267C8.84845 12.5145 8.50906 12.1751 8.09733 12.1751C7.68454 12.1751 7.34516 12.5145 7.34516 12.9273L7.34516 15.0125L5.25991 15.0125C5.05138 15.0051 4.84871 15.0843 4.70136 15.2317C4.40932 15.5237 4.40985 16.0041 4.70136 16.2956C4.84924 16.4435 5.05138 16.5233 5.25991 16.5158H7.34516L7.34515 18.6011C7.33771 18.8096 7.4175 19.0117 7.56538 19.1596C7.85689 19.4511 8.33724 19.4516 8.62928 19.1596C8.77664 19.0123 8.8559 18.8096 8.84845 18.6011L8.84845 16.5158H10.9337C11.1422 16.5233 11.3454 16.4435 11.4928 16.2961C11.7848 16.0041 11.7843 15.5237 11.4928 15.2322C11.3449 15.0843 11.1428 15.0045 10.9342 15.012L8.84898 15.012V12.9267Z" fill="black"/>
</g>
<defs>
<clipPath id="clip0_221_17982">
<rect width="24" height="24" fill="white"/>
</clipPath>
</defs>
</svg>
