<svg width="24" height="24" viewBox="0 0 24 24" fill="none" xmlns="http://www.w3.org/2000/svg">
<g clip-path="url(#clip0_221_18077)">
<path d="M19.184 7.80499L16.219 4.83799C14.192 2.80799 13.179 1.79499 12.09 2.03499C11.001 2.27499 10.509 3.62199 9.522 6.31499L8.854 8.13799C8.591 8.85599 8.459 9.21499 8.222 9.49299C8.11605 9.61799 7.99515 9.72949 7.862 9.82499C7.566 10.038 7.198 10.139 6.462 10.342C4.802 10.8 3.971 11.029 3.658 11.572C3.52269 11.807 3.45229 12.0738 3.454 12.345C3.458 12.972 4.067 13.581 5.284 14.8L6.7 16.216L2.224 20.696C2.08761 20.8406 2.01293 21.0326 2.01583 21.2314C2.01873 21.4301 2.09897 21.6199 2.23952 21.7605C2.38007 21.901 2.56986 21.9813 2.76861 21.9842C2.96736 21.9871 3.15941 21.9124 3.304 21.776L7.779 17.296L9.245 18.764C10.471 19.99 11.084 20.604 11.715 20.604C11.98 20.604 12.241 20.536 12.472 20.404C13.02 20.091 13.25 19.255 13.711 17.582C13.913 16.847 14.014 16.48 14.226 16.183C14.3193 16.0537 14.4267 15.9363 14.548 15.831C14.823 15.593 15.18 15.459 15.893 15.191L17.737 14.498C20.401 13.498 21.733 12.997 21.967 11.912C22.202 10.826 21.197 9.81899 19.184 7.80499Z" fill="black"/>
</g>
<defs>
<clipPath id="clip0_221_18077">
<rect width="24" height="24" fill="white"/>
</clipPath>
</defs>
</svg>
