<svg width="24" height="24" viewBox="0 0 24 24" fill="none" xmlns="http://www.w3.org/2000/svg">
<g clip-path="url(#clip0_221_18272)">
<path d="M2 5C2 4.057 2 3.586 2.293 3.293C2.586 3 3.057 3 4 3H20C20.943 3 21.414 3 21.707 3.293C22 3.586 22 4.057 22 5C22 5.943 22 6.414 21.707 6.707C21.414 7 20.943 7 20 7H4C3.057 7 2.586 7 2.293 6.707C2 6.414 2 5.943 2 5ZM20.069 8.5L20.5 8.498V13C20.5 16.771 20.5 18.657 19.328 19.828C18.183 20.974 16.355 21 12.75 21V13.954L14.443 15.834C14.5072 15.9126 14.5867 15.9773 14.6767 16.0242C14.7666 16.0711 14.8652 16.0993 14.9664 16.1071C15.0675 16.1148 15.1692 16.102 15.2653 16.0693C15.3613 16.0366 15.4498 15.9848 15.5252 15.9169C15.6006 15.8491 15.6615 15.7666 15.7042 15.6745C15.7468 15.5825 15.7703 15.4827 15.7733 15.3813C15.7763 15.2798 15.7587 15.1789 15.7215 15.0845C15.6843 14.99 15.6283 14.9042 15.557 14.832L12.557 11.498C12.4867 11.42 12.4008 11.3577 12.3048 11.315C12.2089 11.2723 12.105 11.2502 12 11.2502C11.895 11.2502 11.7911 11.2723 11.6952 11.315C11.5992 11.3577 11.5133 11.42 11.443 11.498L8.443 14.832C8.37287 14.9044 8.31805 14.9902 8.28182 15.0842C8.24559 15.1783 8.22869 15.2787 8.23213 15.3794C8.23557 15.4802 8.25928 15.5792 8.30184 15.6705C8.34441 15.7619 8.40495 15.8438 8.47986 15.9112C8.55476 15.9786 8.6425 16.0303 8.73781 16.0631C8.83313 16.0959 8.93408 16.1091 9.03462 16.102C9.13516 16.0949 9.23324 16.0675 9.323 16.0217C9.41275 15.9758 9.49233 15.9123 9.557 15.835L11.25 13.955V21C7.645 21 5.817 20.974 4.672 19.828C3.5 18.657 3.5 16.771 3.5 13V8.498L3.931 8.5H20.069Z" fill="black"/>
</g>
<defs>
<clipPath id="clip0_221_18272">
<rect width="24" height="24" fill="white"/>
</clipPath>
</defs>
</svg>
