<svg width="24" height="24" viewBox="0 0 24 24" fill="none" xmlns="http://www.w3.org/2000/svg">
<g clip-path="url(#clip0_221_18121)">
<path fill-rule="evenodd" clip-rule="evenodd" d="M2.07 5.258C2 5.626 2 6.068 2 6.95V14C2 17.771 2 19.657 3.172 20.828C4.344 21.999 6.229 22 10 22H14C17.771 22 19.657 22 20.828 20.828C21.999 19.656 22 17.771 22 14V11.798C22 9.166 22 7.849 21.23 6.994C21.1594 6.9151 21.0846 6.83999 21.006 6.769C20.151 6 18.834 6 16.202 6H15.828C14.675 6 14.098 6 13.56 5.847C13.2648 5.7626 12.9802 5.64449 12.712 5.495C12.224 5.224 11.816 4.815 11 4L10.45 3.45C10.176 3.176 10.04 3.04 9.896 2.92C9.27667 2.40664 8.51694 2.09194 7.716 2.017C7.53 2 7.336 2 6.95 2C6.067 2 5.626 2 5.258 2.07C4.46784 2.21922 3.741 2.60314 3.17231 3.17165C2.60361 3.74017 2.21947 4.46789 2.07 5.258ZM14.498 11.438C14.5718 11.5034 14.632 11.5827 14.6752 11.6714C14.7183 11.7601 14.7435 11.8565 14.7494 11.9549C14.7552 12.0534 14.7416 12.152 14.7093 12.2452C14.677 12.3384 14.6266 12.4243 14.561 12.498L11.894 15.498C11.8236 15.5771 11.7373 15.6405 11.6407 15.6839C11.5441 15.7272 11.4394 15.7497 11.3335 15.7497C11.2276 15.7497 11.1229 15.7272 11.0263 15.6839C10.9297 15.6405 10.8434 15.5771 10.773 15.498L9.439 13.998C9.30679 13.8492 9.2391 13.654 9.25082 13.4553C9.26254 13.2566 9.35271 13.0707 9.5015 12.9385C9.65029 12.8063 9.8455 12.7386 10.0442 12.7503C10.2429 12.762 10.4288 12.8522 10.561 13.001L11.333 13.871L13.439 11.501C13.5044 11.4272 13.5837 11.367 13.6724 11.3238C13.7611 11.2807 13.8575 11.2555 13.9559 11.2496C14.0544 11.2438 14.153 11.2574 14.2462 11.2897C14.3394 11.322 14.4243 11.3724 14.498 11.438Z" fill="black"/>
</g>
<defs>
<clipPath id="clip0_221_18121">
<rect width="24" height="24" fill="white"/>
</clipPath>
</defs>
</svg>
