<svg width="24" height="24" viewBox="0 0 24 24" fill="none" xmlns="http://www.w3.org/2000/svg">
<g clip-path="url(#clip0_221_18027)">
<path d="M9.5 2C9.10218 2 8.72064 2.15804 8.43934 2.43934C8.15804 2.72064 8 3.10218 8 3.5V4.5C8 4.89782 8.15804 5.27936 8.43934 5.56066C8.72064 5.84196 9.10218 6 9.5 6H14.5C14.8978 6 15.2794 5.84196 15.5607 5.56066C15.842 5.27936 16 4.89782 16 4.5V3.5C16 3.10218 15.842 2.72064 15.5607 2.43934C15.2794 2.15804 14.8978 2 14.5 2H9.5Z" fill="black"/>
<path fill-rule="evenodd" clip-rule="evenodd" d="M6.5 4.03699C5.242 4.10699 4.448 4.30699 3.879 4.87699C3 5.75599 3 7.16999 3 9.99799V15.998C3 18.827 3 20.24 3.879 21.12C4.757 21.998 6.17199 21.998 8.99998 21.998H15C17.828 21.998 19.243 21.998 20.121 21.12C21 20.241 21 18.827 21 15.998V9.99799C21 7.16999 21 5.75599 20.121 4.87699C19.552 4.30699 18.758 4.10699 17.5 4.03699V4.49999C17.5 5.29564 17.1839 6.0587 16.6213 6.62131C16.0587 7.18392 15.2956 7.49999 14.5 7.49999H9.5C8.70435 7.49999 7.94129 7.18392 7.37868 6.62131C6.81607 6.0587 6.5 5.29564 6.5 4.49999V4.03699ZM14.8699 13.3241C15.1429 13.0166 15.1144 12.5388 14.8069 12.2658H14.8084C14.6712 12.1436 14.4934 12.0761 14.3089 12.0761C14.0944 12.0761 13.8904 12.1676 13.7479 12.3281L11.6419 14.6981L10.8701 13.8281C10.7276 13.6676 10.5236 13.5761 10.3091 13.5761C9.89734 13.5761 9.55908 13.9144 9.55908 14.3261C9.55908 14.5099 9.62658 14.6869 9.74809 14.8241L11.0824 16.3241C11.2241 16.4839 11.4289 16.5762 11.6426 16.5762C11.8564 16.5762 12.0611 16.4839 12.2029 16.3241L14.8699 13.3241Z" fill="black"/>
</g>
<defs>
<clipPath id="clip0_221_18027">
<rect width="24" height="24" fill="white"/>
</clipPath>
</defs>
</svg>
