<svg width="24" height="24" viewBox="0 0 24 24" fill="none" xmlns="http://www.w3.org/2000/svg">
<g clip-path="url(#clip0_221_18351)">
<path d="M9.5 2C9.10218 2 8.72064 2.15804 8.43934 2.43934C8.15804 2.72064 8 3.10218 8 3.5V4.5C8 4.89782 8.15804 5.27936 8.43934 5.56066C8.72064 5.84196 9.10218 6 9.5 6H14.5C14.8978 6 15.2794 5.84196 15.5607 5.56066C15.842 5.27936 16 4.89782 16 4.5V3.5C16 3.10218 15.842 2.72064 15.5607 2.43934C15.2794 2.15804 14.8978 2 14.5 2H9.5Z" fill="black"/>
<path fill-rule="evenodd" clip-rule="evenodd" d="M6.5 4.03699C5.242 4.10699 4.448 4.30699 3.879 4.87699C3 5.75599 3 7.16999 3 9.99799V15.998C3 18.827 3 20.24 3.879 21.12C4.757 21.998 6.17199 21.998 8.99998 21.998H15C17.828 21.998 19.243 21.998 20.121 21.12C21 20.241 21 18.827 21 15.998V9.99799C21 7.16999 21 5.75599 20.121 4.87699C19.552 4.30699 18.758 4.10699 17.5 4.03699V4.49999C17.5 5.29564 17.1839 6.0587 16.6213 6.62131C16.0587 7.18392 15.2956 7.49999 14.5 7.49999H9.5C8.70435 7.49999 7.94129 7.18392 7.37868 6.62131C6.81607 6.0587 6.5 5.29564 6.5 4.49999V4.03699ZM9.292 14.2558L10.991 12.5567V16.9077C10.991 17.2387 11.329 17.5117 11.739 17.5117C12.149 17.5117 12.486 17.2387 12.486 16.9077V12.5358L14.206 14.2558C14.496 14.5448 14.972 14.5448 15.261 14.2558C15.55 13.9668 15.55 13.4907 15.261 13.2017L12.276 10.2168C11.987 9.92775 11.511 9.92775 11.222 10.2168L8.237 13.2017C8.086 13.3427 8 13.5407 8 13.7477C8 14.1567 8.337 14.4937 8.746 14.4937C8.953 14.4937 9.151 14.4078 9.292 14.2558Z" fill="black"/>
</g>
<defs>
<clipPath id="clip0_221_18351">
<rect width="24" height="24" fill="white"/>
</clipPath>
</defs>
</svg>
