<svg width="24" height="24" viewBox="0 0 24 24" fill="none" xmlns="http://www.w3.org/2000/svg">
<g clip-path="url(#clip0_221_18157)">
<path d="M12.5706 16.0574C12.7617 15.93 12.8891 15.7133 12.8891 15.4688V14.4991C12.8891 14.1128 12.5706 13.7954 12.1844 13.7954C11.7981 13.7954 11.4797 14.1128 11.4797 14.4991V15.4688C11.4797 15.7133 11.6071 15.93 11.7981 16.0574L11.4981 16.0574C10.9306 16.0574 10.5253 16.0574 10.2162 16.0153C10.0323 15.9886 9.91726 15.9608 9.83817 15.8797C9.75496 15.7934 9.72516 15.667 9.69948 15.4636C9.65721 15.1471 9.65727 14.7347 9.65735 14.165C9.65736 14.1394 9.65736 14.1134 9.65736 14.0871V13.5961C9.65736 13.5791 9.65736 13.5623 9.65736 13.5458C9.65731 13.2177 9.65728 12.9805 9.67586 12.7918C9.68716 12.6685 9.70154 12.5874 9.73852 12.5185C9.77448 12.4528 9.83302 12.3994 9.92547 12.3285H9.92651C10.0671 12.22 10.2529 12.1045 10.51 11.9446C10.5327 11.9305 10.556 11.916 10.5798 11.9012L11.226 11.5006L11.2269 11.5C11.5366 11.3072 11.7541 11.1718 11.9368 11.0825C12.0416 11.0321 12.1125 11.0034 12.1844 11.0034C12.2563 11.0034 12.3272 11.0321 12.4319 11.0825L12.433 11.0835C12.6006 11.1645 12.7966 11.286 13.067 11.4536C13.0917 11.4689 13.1169 11.4845 13.1428 11.5006L13.7889 11.9012C13.8134 11.9164 13.8373 11.9313 13.8606 11.9458C14.1168 12.105 14.3021 12.2202 14.4433 12.3285C14.5357 12.3994 14.5933 12.4528 14.6302 12.5185C14.6672 12.5874 14.6816 12.6685 14.6929 12.7918C14.7115 12.9804 14.7114 13.2164 14.7114 13.5449C14.7114 13.5617 14.7114 13.5788 14.7114 13.5961L14.7114 14.13C14.7114 14.7178 14.7114 15.1407 14.6703 15.4636C14.6436 15.6681 14.6138 15.7944 14.5306 15.8807C14.4525 15.9618 14.3375 15.9896 14.1526 16.0153C13.8434 16.0574 13.4381 16.0574 12.8706 16.0574L12.5706 16.0574Z" fill="black"/>
<path fill-rule="evenodd" clip-rule="evenodd" d="M2 6.95C2 6.068 2 5.626 2.07 5.258C2.21947 4.46789 2.60361 3.74017 3.17231 3.17165C3.741 2.60314 4.46784 2.21922 5.258 2.07C5.626 2 6.067 2 6.95 2C7.336 2 7.53 2 7.716 2.017C8.51694 2.09194 9.27667 2.40664 9.896 2.92C10.04 3.04 10.176 3.17599 10.45 3.44998L11.0167 4.01671C11.8216 4.8206 12.2273 5.22586 12.712 5.495C12.9802 5.64449 13.2648 5.7626 13.56 5.847C14.098 6 14.675 6 15.828 6H16.202C18.834 6 20.151 6 21.006 6.769C21.0846 6.83999 21.1594 6.9151 21.23 6.994C22 7.849 22 9.166 22 11.798V14C22 17.771 21.999 19.656 20.828 20.828C19.657 22 17.771 22 14 22H10C6.229 22 4.344 21.999 3.172 20.828C2 19.657 2 17.771 2 14V6.95ZM12.1844 9.59399L12.2953 9.59708C12.5511 9.61454 12.7925 9.69056 13.0493 9.81588C13.2784 9.92682 13.5444 10.0912 13.8752 10.2966L14.5429 10.7106C14.8561 10.9057 15.1069 11.062 15.3 11.2098C15.5455 11.3978 15.7304 11.593 15.866 11.8416C16.0016 12.0881 16.0673 12.3491 16.0961 12.6603C16.1197 12.9058 16.1208 13.2068 16.1208 13.5838V14.1056C16.1208 14.7456 16.1187 15.25 16.0673 15.6455C16.0026 16.1447 15.8506 16.5412 15.5435 16.8597C15.2302 17.1832 14.8388 17.3425 14.3457 17.4103C13.9615 17.4637 13.4695 17.4657 12.849 17.4657H11.5198C10.8993 17.4657 10.4073 17.4637 10.0231 17.4103C9.52999 17.3425 9.13758 17.1832 8.8253 16.8597C8.51713 16.5412 8.36613 16.1447 8.30141 15.6455C8.25005 15.25 8.24799 14.7456 8.24799 14.1056V13.5838C8.24799 13.2068 8.24902 12.9058 8.27265 12.6603V12.6593C8.30141 12.349 8.36716 12.0881 8.50275 11.8416C8.63937 11.593 8.82325 11.3978 9.06876 11.2098C9.26182 11.062 9.51238 10.9059 9.82556 10.7108L10.4935 10.2966C10.8243 10.0912 11.0914 9.92682 11.3205 9.81588C11.6143 9.6731 11.8865 9.59399 12.1844 9.59399Z" fill="black"/>
</g>
<defs>
<clipPath id="clip0_221_18157">
<rect width="24" height="24" fill="white"/>
</clipPath>
</defs>
</svg>
