<svg width="24" height="24" viewBox="0 0 24 24" fill="none" xmlns="http://www.w3.org/2000/svg">
<g clip-path="url(#clip0_221_18357)">
<path d="M9.5 2C9.10218 2 8.72064 2.15804 8.43934 2.43934C8.15804 2.72064 8 3.10218 8 3.5V4.5C8 4.89782 8.15804 5.27936 8.43934 5.56066C8.72064 5.84196 9.10218 6 9.5 6H14.5C14.8978 6 15.2794 5.84196 15.5607 5.56066C15.842 5.27936 16 4.89782 16 4.5V3.5C16 3.10218 15.842 2.72064 15.5607 2.43934C15.2794 2.15804 14.8978 2 14.5 2H9.5Z" fill="black"/>
<path d="M8.53431 13.9992C8.53431 12.374 9.83006 11.0273 11.4366 10.9447L11.5144 10.9416L11.5928 10.9407C13.2708 10.9407 14.6517 12.3216 14.6517 13.9992C14.6517 15.6772 13.2708 17.0581 11.5928 17.0581C9.91517 17.0581 8.53431 15.6772 8.53431 13.9992Z" fill="black"/>
<path fill-rule="evenodd" clip-rule="evenodd" d="M6.5 4.03699C5.242 4.10699 4.448 4.30699 3.879 4.87699C3 5.75599 3 7.16999 3 9.99799V15.998C3 18.827 3 20.24 3.879 21.12C4.757 21.998 6.17199 21.998 8.99998 21.998H15C17.828 21.998 19.243 21.998 20.121 21.12C21 20.241 21 18.827 21 15.998V9.99799C21 7.16999 21 5.75599 20.121 4.87699C19.552 4.30699 18.758 4.10699 17.5 4.03699V4.49999C17.5 5.29564 17.1839 6.0587 16.6213 6.62131C16.0587 7.18392 15.2956 7.49999 14.5 7.49999H9.5C8.70435 7.49999 7.94129 7.18392 7.37868 6.62131C6.81607 6.0587 6.5 5.29564 6.5 4.49999V4.03699ZM6.979 13.9396L6.97991 13.8802C7.04321 11.3872 9.08466 9.3848 11.5928 9.3848C14.141 9.3848 16.2073 11.4514 16.2073 13.9992C16.2073 14.9924 15.8935 15.9129 15.3595 16.6658L16.3809 17.6872C16.5326 17.8338 16.6189 18.0361 16.6189 18.2472C16.6189 18.674 16.2676 19.0253 15.8408 19.0253C15.6297 19.0253 15.4274 18.939 15.2811 18.7873L14.2597 17.7659C13.4835 18.3169 12.5515 18.6155 11.5922 18.6137C9.04468 18.6134 6.97839 16.5471 6.97839 13.9992L6.979 13.9396Z" fill="black"/>
</g>
<defs>
<clipPath id="clip0_221_18357">
<rect width="24" height="24" fill="white"/>
</clipPath>
</defs>
</svg>
