<svg width="24" height="24" viewBox="0 0 24 24" fill="none" xmlns="http://www.w3.org/2000/svg">
<g clip-path="url(#clip0_221_17949)">
<path d="M19.352 7.61699L15.392 4.05399C14.265 3.03899 13.702 2.53099 13.009 2.26599L13 4.99999C13 7.35699 13 8.53599 13.732 9.26799C14.464 9.99999 15.643 9.99999 18 9.99999H21.58C21.218 9.29599 20.568 8.71199 19.352 7.61699Z" fill="black"/>
<path fill-rule="evenodd" clip-rule="evenodd" d="M11.6538 18.265H10.9978V17.037C11.0018 16.95 11.0038 16.687 10.9248 16.425C10.7878 15.9679 10.4598 15.5329 9.75979 15.5329H7.50474C6.80472 15.5329 6.47674 15.9679 6.33973 16.425C6.26073 16.687 6.26371 16.95 6.26771 17.037V18.265H5.61072V12.1809H9.2328L11.6538 14.4879V18.265ZM8.32278 14.1659H7.01074C6.62473 14.1659 6.31071 13.8519 6.31071 13.4659C6.31071 13.0799 6.62473 12.7659 7.01074 12.7659H8.32278C8.70878 12.7659 9.02277 13.0799 9.02277 13.4659C9.02277 13.8519 8.70878 14.1659 8.32278 14.1659Z" fill="black"/>
<path d="M7.66776 18.265H9.5978V17.019C9.5978 17.405 9.5988 16.97 9.5988 16.97L9.5948 16.933H7.66874C7.66674 16.951 7.66575 16.966 7.66575 16.97L7.66776 18.265Z" fill="black"/>
<path fill-rule="evenodd" clip-rule="evenodd" d="M14 22H10C6.229 22 4.344 21.999 3.172 20.828C2 19.657 2 17.771 2 14V10C2 6.229 2 4.343 3.172 3.172C4.343 2 6.239 2 10.03 2C10.636 2 11.121 2 11.53 2.017C11.5167 2.097 11.51 2.17833 11.51 2.261L11.5 5.095C11.5 6.193 11.5 7.162 11.605 7.943C11.719 8.79 11.98 9.637 12.672 10.329C13.363 11.02 14.21 11.281 15.057 11.395C15.838 11.5 16.808 11.5 17.905 11.5H21.957C22 12.034 22 12.69 22 13.563V14C22 17.771 21.999 19.656 20.828 20.828C19.657 22 17.771 22 14 22ZM4.21069 11.4809C4.21069 11.0948 4.52468 10.7808 4.91069 10.7808H9.5128C9.69281 10.7808 9.86581 10.8498 9.99581 10.9738L12.8368 13.6809C12.9758 13.8129 13.0539 13.9959 13.0539 14.1879V18.965C13.0539 19.352 12.7409 19.665 12.3539 19.665H4.91069C4.52468 19.665 4.21069 19.352 4.21069 18.965V11.4809Z" fill="black"/>
</g>
<defs>
<clipPath id="clip0_221_17949">
<rect width="24" height="24" fill="white"/>
</clipPath>
</defs>
</svg>
