<svg width="24" height="24" viewBox="0 0 24 24" fill="none" xmlns="http://www.w3.org/2000/svg">
<g clip-path="url(#clip0_221_18233)">
<path fill-rule="evenodd" clip-rule="evenodd" d="M11.244 1.955C12.944 1.015 15.034 1.015 16.734 1.955C17.364 2.303 17.952 2.865 18.907 3.78L19 3.87L19.098 3.963C20.048 4.873 20.638 5.438 21.004 6.044C21.4926 6.84834 21.7509 7.77139 21.7509 8.7125C21.7509 9.65361 21.4926 10.5767 21.004 11.381C20.638 11.988 20.049 12.551 19.098 13.461L19 13.556L11.543 20.696C11.013 21.202 10.583 21.616 10.203 21.922C9.80997 22.238 9.42297 22.483 8.96797 22.614C8.33516 22.7962 7.66378 22.7962 7.03097 22.614C6.57697 22.484 6.18997 22.238 5.79697 21.922C5.41697 21.615 4.98597 21.202 4.45697 20.696L4.40897 20.65C3.87997 20.143 3.44897 19.73 3.12897 19.367C2.79897 18.991 2.53697 18.614 2.39597 18.166C2.20216 17.5451 2.20216 16.8799 2.39597 16.259C2.53597 15.811 2.79797 15.434 3.12897 15.059C3.44897 14.695 3.87997 14.282 4.40897 13.775L11.759 6.737L11.838 6.662C12.207 6.308 12.518 6.008 12.879 5.842C13.1937 5.69714 13.536 5.62213 13.8825 5.62213C14.2289 5.62213 14.5713 5.69714 14.886 5.842C15.246 6.008 15.558 6.308 15.927 6.662L16.006 6.737L16.086 6.815C16.453 7.165 16.769 7.466 16.946 7.818C17.1022 8.12712 17.1836 8.46863 17.1836 8.815C17.1836 9.16137 17.1022 9.50288 16.946 9.812C16.8424 10.0093 16.7107 10.1906 16.555 10.35C16.413 10.502 16.232 10.676 16.02 10.879L8.62597 17.959C8.48235 18.0966 8.28994 18.1716 8.09106 18.1674C7.89218 18.1632 7.70312 18.0801 7.56547 17.9365C7.42782 17.7929 7.35286 17.6005 7.35708 17.4016C7.3613 17.2027 7.44435 17.0136 7.58797 16.876L14.968 9.809C15.198 9.589 15.348 9.445 15.456 9.329C15.5135 9.27166 15.5639 9.20752 15.606 9.138C15.6571 9.03799 15.6837 8.9273 15.6837 8.815C15.6837 8.7027 15.6571 8.592 15.606 8.492C15.562 8.404 15.463 8.294 14.968 7.821C14.476 7.35 14.358 7.251 14.258 7.204C14.1403 7.15007 14.0124 7.12215 13.883 7.12215C13.7535 7.12215 13.6256 7.15007 13.508 7.204C13.407 7.251 13.288 7.35 12.797 7.821L5.46997 14.836C4.91197 15.371 4.52697 15.74 4.25497 16.049C3.98797 16.353 3.87897 16.545 3.82697 16.709C3.72506 17.0373 3.72506 17.3887 3.82697 17.717C3.87897 17.88 3.98697 18.072 4.25497 18.376C4.52697 18.686 4.91197 19.054 5.46997 19.589C6.02997 20.124 6.41497 20.493 6.73897 20.754C7.05497 21.009 7.26197 21.119 7.44597 21.172C7.80697 21.276 8.19297 21.276 8.55397 21.172C8.73797 21.119 8.94497 21.009 9.26097 20.754C9.58497 20.493 9.97097 20.124 10.53 19.589L17.963 12.472C19.043 11.438 19.47 11.019 19.719 10.606C20.0654 10.0352 20.2485 9.38022 20.2485 8.7125C20.2485 8.04478 20.0654 7.38985 19.719 6.819C19.47 6.406 19.043 5.987 17.963 4.953C16.884 3.921 16.445 3.509 16.009 3.268C15.39 2.92856 14.6954 2.75061 13.9895 2.75061C13.2835 2.75061 12.589 2.92856 11.97 3.268C11.533 3.508 11.094 3.921 10.016 4.953L4.02597 10.688C3.8807 10.8159 3.6916 10.8827 3.49822 10.8745C3.30483 10.8662 3.12213 10.7835 2.98833 10.6436C2.85452 10.5037 2.77998 10.3175 2.78029 10.124C2.78059 9.9304 2.85572 9.74445 2.98997 9.605L8.97997 3.87L9.07297 3.78C10.028 2.866 10.615 2.303 11.244 1.955Z" fill="black"/>
</g>
<defs>
<clipPath id="clip0_221_18233">
<rect width="24" height="24" fill="white"/>
</clipPath>
</defs>
</svg>
