<svg width="24" height="24" viewBox="0 0 24 24" fill="none" xmlns="http://www.w3.org/2000/svg">
<g clip-path="url(#clip0_221_18261)">
<path d="M2.02314 8.12869C2.18275 8.56706 3.16804 8.96098 4.979 9.685L7.787 10.809C9.773 11.603 10.767 12 12 12C13.233 12 14.227 11.603 16.213 10.809L19.021 9.685C20.8214 8.9652 21.8057 8.57167 21.974 8.13636C21.9913 8.09149 22 8.04617 22 8C22 7.94501 21.9877 7.89122 21.9631 7.83796C21.7666 7.4127 20.7859 7.02062 19.021 6.315L16.213 5.192C14.227 4.397 13.233 4 12 4C10.767 4 9.773 4.397 7.787 5.192L4.96102 6.3222C3.01819 7.09991 2.03143 7.49491 2.00074 7.97673L2.02314 8.12869Z" fill="black"/>
<path d="M16.213 14.809C14.227 15.603 13.233 16 12 16C10.767 16 9.773 15.603 7.787 14.809L4.98 13.685C2.993 12.891 2 12.493 2 12C2 11.555 2.807 11.188 4.42 10.539L7.56681 11.7973C9.41343 12.536 10.5735 13 12 13C13.428 13 14.59 12.535 16.439 11.795L19.579 10.539C21.194 11.189 22 11.555 22 12C22 12.4925 21.009 12.8892 19.027 13.6826L16.213 14.809Z" fill="black"/>
<path d="M16.213 18.808L19.027 17.6826C21.009 16.8892 22 16.4925 22 15.999C22 15.555 21.193 15.189 19.579 14.539L16.439 15.795C14.59 16.535 13.428 17 12 17C10.5735 17 9.41343 16.536 7.56681 15.7973L4.42 14.539C2.807 15.188 2 15.555 2 16C2 16.4927 2.99179 16.8895 4.97637 17.6835L7.787 18.808C9.773 19.603 10.767 20 12 20C13.233 20 14.227 19.603 16.213 18.808Z" fill="black"/>
</g>
<defs>
<clipPath id="clip0_221_18261">
<rect width="24" height="24" fill="white"/>
</clipPath>
</defs>
</svg>
