<svg width="24" height="24" viewBox="0 0 24 24" fill="none" xmlns="http://www.w3.org/2000/svg">
<g clip-path="url(#clip0_221_18204)">
<path fill-rule="evenodd" clip-rule="evenodd" d="M11.25 5C11.25 4.80109 11.329 4.61032 11.4697 4.46967C11.6103 4.32902 11.8011 4.25 12 4.25H22C22.1989 4.25 22.3897 4.32902 22.5303 4.46967C22.671 4.61032 22.75 4.80109 22.75 5C22.75 5.19891 22.671 5.38968 22.5303 5.53033C22.3897 5.67098 22.1989 5.75 22 5.75H12C11.8011 5.75 11.6103 5.67098 11.4697 5.53033C11.329 5.38968 11.25 5.19891 11.25 5ZM11.25 12C11.25 11.8011 11.329 11.6103 11.4697 11.4697C11.6103 11.329 11.8011 11.25 12 11.25H22C22.1989 11.25 22.3897 11.329 22.5303 11.4697C22.671 11.6103 22.75 11.8011 22.75 12C22.75 12.1989 22.671 12.3897 22.5303 12.5303C22.3897 12.671 22.1989 12.75 22 12.75H12C11.8011 12.75 11.6103 12.671 11.4697 12.5303C11.329 12.3897 11.25 12.1989 11.25 12ZM11.25 19C11.25 18.8011 11.329 18.6103 11.4697 18.4697C11.6103 18.329 11.8011 18.25 12 18.25H22C22.1989 18.25 22.3897 18.329 22.5303 18.4697C22.671 18.6103 22.75 18.8011 22.75 19C22.75 19.1989 22.671 19.3897 22.5303 19.5303C22.3897 19.671 22.1989 19.75 22 19.75H12C11.8011 19.75 11.6103 19.671 11.4697 19.5303C11.329 19.3897 11.25 19.1989 11.25 19Z" fill="black"/>
<path fill-rule="evenodd" clip-rule="evenodd" d="M5.45409 2.30701C3.87309 2.30701 2.59009 3.58999 2.59009 5.17099C2.59009 6.75199 3.87309 8.035 5.45409 8.035C7.03509 8.035 8.31809 6.75199 8.31809 5.17099C8.31809 3.58999 7.03509 2.30701 5.45409 2.30701ZM5.45409 3.80701C6.20709 3.80701 6.81809 4.41799 6.81809 5.17099C6.81809 5.92399 6.20709 6.535 5.45409 6.535C4.70109 6.535 4.09009 5.92399 4.09009 5.17099C4.09009 4.41799 4.70109 3.80701 5.45409 3.80701Z" fill="black"/>
<path fill-rule="evenodd" clip-rule="evenodd" d="M5.45409 9.37201C3.87309 9.37201 2.59009 10.655 2.59009 12.236C2.59009 13.817 3.87309 15.1 5.45409 15.1C7.03509 15.1 8.31809 13.817 8.31809 12.236C8.31809 10.655 7.03509 9.37201 5.45409 9.37201ZM5.45409 10.872C6.20709 10.872 6.81809 11.483 6.81809 12.236C6.81809 12.989 6.20709 13.6 5.45409 13.6C4.70109 13.6 4.09009 12.989 4.09009 12.236C4.09009 11.483 4.70109 10.872 5.45409 10.872Z" fill="black"/>
<path fill-rule="evenodd" clip-rule="evenodd" d="M5.45409 16.391C3.87309 16.391 2.59009 17.674 2.59009 19.255C2.59009 20.836 3.87309 22.119 5.45409 22.119C7.03509 22.119 8.31809 20.836 8.31809 19.255C8.31809 17.674 7.03509 16.391 5.45409 16.391ZM5.45409 17.891C6.20709 17.891 6.81809 18.502 6.81809 19.255C6.81809 20.008 6.20709 20.619 5.45409 20.619C4.70109 20.619 4.09009 20.008 4.09009 19.255C4.09009 18.502 4.70109 17.891 5.45409 17.891Z" fill="black"/>
</g>
<defs>
<clipPath id="clip0_221_18204">
<rect width="24" height="24" fill="white"/>
</clipPath>
</defs>
</svg>
