<svg width="24" height="24" viewBox="0 0 24 24" fill="none" xmlns="http://www.w3.org/2000/svg">
<path d="M15.1955 10.3567L14.3715 12.1858H16.0186L15.1955 10.3567Z" fill="black"/>
<path fill-rule="evenodd" clip-rule="evenodd" d="M11.943 1.25H12.057C14.3663 1.25 16.1753 1.25 17.5869 1.43975C19.0314 1.63401 20.1714 2.03977 21.0662 2.93379C21.961 3.82856 22.366 4.96859 22.5602 6.41387C22.75 7.82465 22.75 9.63369 22.75 11.943V12.057C22.75 14.3663 22.75 16.1753 22.5602 17.5869C22.366 19.0314 21.9602 20.1714 21.0662 21.0662C20.1714 21.961 19.0314 22.366 17.5861 22.5602C16.1753 22.75 14.3663 22.75 12.057 22.75H11.943C9.63369 22.75 7.82465 22.75 6.41312 22.5602C4.96859 22.366 3.82856 21.9602 2.93379 21.0662C2.03902 20.1714 1.63401 19.0314 1.43975 17.5861C1.25 16.1753 1.25 14.3663 1.25 12.057V11.943C1.25 9.63369 1.25 7.82465 1.43975 6.41312C1.63401 4.96859 2.03977 3.82856 2.93379 2.93379C3.82856 2.03902 4.96859 1.63401 6.41387 1.43975C7.82465 1.25 9.63369 1.25 11.943 1.25ZM15.1955 7.91669V7.66669C15.5035 7.66669 15.7835 7.84769 15.9095 8.1277L19.1046 15.2299C19.1506 15.3309 19.1746 15.4398 19.1746 15.5508C19.1746 15.9799 18.8206 16.3339 18.3916 16.3339C18.0836 16.3339 17.8036 16.1529 17.6776 15.8719L16.7236 13.7518H13.6675L12.7135 15.8719C12.5865 16.1529 12.3065 16.3339 11.9995 16.3339C11.5695 16.3339 11.2164 15.9799 11.2164 15.5508C11.2164 15.4398 11.2404 15.3309 11.2854 15.2299L14.4815 8.1277C14.6075 7.84769 14.8875 7.66669 15.1955 7.66669L15.1945 7.91669H15.1955ZM4.82629 15.5508L4.8273 15.5109C4.8483 15.0999 5.1923 14.7678 5.60831 14.7678H9.15939C9.5884 14.7678 9.94241 15.1218 9.94241 15.5508C9.94241 15.9799 9.5884 16.3339 9.15939 16.3339H5.60831C5.1793 16.3339 4.82629 15.9799 4.82629 15.5508ZM4.82629 11.9998L4.8273 11.9598C4.8483 11.5488 5.1923 11.2178 5.60831 11.2178H10.5794C11.0094 11.2178 11.3624 11.5708 11.3624 11.9998C11.3624 12.4298 11.0094 12.7828 10.5794 12.7828H5.60831C5.1793 12.7828 4.82629 12.4298 4.82629 11.9998ZM4.82629 8.44969L4.8273 8.40969C4.8483 7.99868 5.1923 7.66669 5.60831 7.66669H12.7105C13.1395 7.66669 13.4925 8.01968 13.4925 8.44969C13.4925 8.8787 13.1395 9.2317 12.7105 9.2317H5.60831C5.1793 9.2317 4.82629 8.8787 4.82629 8.44969Z" fill="black"/>
</svg>
