<svg width="24" height="24" viewBox="0 0 24 24" fill="none" xmlns="http://www.w3.org/2000/svg">
<path fill-rule="evenodd" clip-rule="evenodd" d="M10.2858 12.1091H2.00007C1.58603 12.1091 1.25 12.4452 1.25 12.8592C1.25 13.2732 1.58603 13.6093 2.00007 13.6093H12.7951C13.4051 14.0613 15.3593 15.7295 14.7823 18.2177C14.5202 19.3468 13.7282 20.0359 12.8901 20.4719C11.515 21.187 9.98882 21.246 9.98882 21.246C9.98382 21.247 9.97782 21.247 9.97182 21.247C9.97182 21.247 7.6736 21.411 6.33548 19.9429C5.77143 19.3238 5.4044 18.4057 5.4354 17.0696C5.4454 16.6545 5.11737 16.3095 4.70433 16.2995C4.29029 16.2895 3.94626 16.6186 3.93625 17.0336C3.89225 18.8678 4.45431 20.1089 5.22838 20.9579C7.01455 22.9171 10.0648 22.7491 10.0648 22.7491C10.0468 22.7491 11.906 22.6781 13.5811 21.807C14.7763 21.185 15.8694 20.1709 16.2434 18.5587C16.7424 16.4065 15.8424 14.7054 14.9293 13.6093H21.9999C22.414 13.6093 22.75 13.2732 22.75 12.8592C22.75 12.4452 22.414 12.1091 21.9999 12.1091H13.2291C6.80253 8.60181 6.35848 6.05657 6.35848 6.05657C6.35448 6.03057 6.34948 6.00355 6.34348 5.97755C6.34348 5.97755 6.06946 4.83545 6.76953 3.92136C7.28557 3.2473 8.30366 2.75426 10.1828 2.75426C12.069 2.75426 13.0881 3.21431 13.6032 3.85037C14.2752 4.67945 14.0072 5.71553 14.0072 5.71553C13.9042 6.11757 14.1452 6.52762 14.5462 6.63163C14.9473 6.73564 15.3563 6.49361 15.4603 6.09158C15.4603 6.09158 15.9164 4.31941 14.7673 2.90128C14.0682 2.0392 12.7421 1.25012 10.1828 1.25012C7.6166 1.25012 6.28447 2.0852 5.5804 3.00529C4.56131 4.33441 4.81333 5.96157 4.87334 6.2736C4.90734 6.51062 5.36339 8.91584 10.2858 12.1091Z" fill="black"/>
</svg>
