<svg width="24" height="24" viewBox="0 0 24 24" fill="none" xmlns="http://www.w3.org/2000/svg">
<g clip-path="url(#clip0_221_18528)">
<path fill-rule="evenodd" clip-rule="evenodd" d="M7.53007 3.47001C7.67052 3.61064 7.74941 3.80126 7.74941 4.00001C7.74941 4.19876 7.67052 4.38939 7.53007 4.53001L5.81007 6.25001H15.0361C15.9401 6.25001 16.6691 6.25001 17.2581 6.30301C17.8641 6.35801 18.3941 6.47501 18.8751 6.75301C19.4452 7.08192 19.9187 7.55511 20.2481 8.12501C20.5251 8.60601 20.6421 9.13601 20.6971 9.74201C20.7501 10.331 20.7501 11.06 20.7501 11.964V12.036C20.7501 12.94 20.7501 13.669 20.6971 14.258C20.6421 14.864 20.5261 15.394 20.2471 15.875C19.9182 16.4452 19.445 16.9187 18.8751 17.248C18.3941 17.525 17.8641 17.642 17.2581 17.697C16.6691 17.75 15.9401 17.75 15.0361 17.75H8.00007C7.80116 17.75 7.61039 17.671 7.46974 17.5303C7.32909 17.3897 7.25007 17.1989 7.25007 17C7.25007 16.8011 7.32909 16.6103 7.46974 16.4697C7.61039 16.329 7.80116 16.25 8.00007 16.25H15.0001C15.9481 16.25 16.6101 16.25 17.1221 16.203C17.6251 16.157 17.9101 16.073 18.1251 15.949C18.4673 15.7515 18.7515 15.4673 18.9491 15.125C19.0731 14.91 19.1571 14.625 19.2031 14.122C19.2491 13.61 19.2501 12.948 19.2501 12C19.2501 11.052 19.2501 10.39 19.2031 9.87801C19.1571 9.37501 19.0731 9.09001 18.9491 8.87501C18.7515 8.53275 18.4673 8.24855 18.1251 8.05101C17.9101 7.92701 17.6251 7.84301 17.1221 7.79701C16.6101 7.75101 15.9481 7.75001 15.0001 7.75001H5.81007L7.53007 9.47001C7.60376 9.53867 7.66286 9.62147 7.70385 9.71347C7.74485 9.80547 7.76689 9.90479 7.76866 10.0055C7.77044 10.1062 7.75192 10.2062 7.7142 10.2996C7.67647 10.393 7.62033 10.4778 7.54911 10.5491C7.47789 10.6203 7.39306 10.6764 7.29967 10.7141C7.20628 10.7519 7.10625 10.7704 7.00555 10.7686C6.90485 10.7668 6.80553 10.7448 6.71353 10.7038C6.62154 10.6628 6.53873 10.6037 6.47007 10.53L3.47007 7.53001C3.32962 7.38939 3.25073 7.19876 3.25073 7.00001C3.25073 6.80126 3.32962 6.61064 3.47007 6.47001L6.47007 3.47001C6.6107 3.32956 6.80132 3.25067 7.00007 3.25067C7.19882 3.25067 7.38945 3.32956 7.53007 3.47001Z" fill="black"/>
</g>
<defs>
<clipPath id="clip0_221_18528">
<rect width="24" height="24" fill="white"/>
</clipPath>
</defs>
</svg>
