<svg width="24" height="24" viewBox="0 0 24 24" fill="none" xmlns="http://www.w3.org/2000/svg">
<g clip-path="url(#clip0_221_18538)">
<path d="M1.25 8C1.25 7.80109 1.32902 7.61032 1.46967 7.46967C1.61032 7.32902 1.80109 7.25 2 7.25H10C10.1989 7.25 10.3897 7.32902 10.5303 7.46967C10.671 7.61032 10.75 7.80109 10.75 8C10.75 8.19891 10.671 8.38968 10.5303 8.53033C10.3897 8.67098 10.1989 8.75 10 8.75H2C1.80109 8.75 1.61032 8.67098 1.46967 8.53033C1.32902 8.38968 1.25 8.19891 1.25 8Z" fill="black"/>
<path fill-rule="evenodd" clip-rule="evenodd" d="M11.25 13C11.25 12.2449 11.3987 11.4972 11.6877 10.7996C11.9767 10.1019 12.4002 9.46807 12.9341 8.93414C13.4681 8.4002 14.1019 7.97666 14.7996 7.68769C15.4972 7.39873 16.2449 7.25 17 7.25C17.7551 7.25 18.5028 7.39873 19.2004 7.68769C19.8981 7.97666 20.5319 8.4002 21.0659 8.93414C21.5998 9.46807 22.0233 10.1019 22.3123 10.7996C22.6013 11.4972 22.75 12.2449 22.75 13C22.75 14.525 22.1442 15.9875 21.0659 17.0659C19.9875 18.1442 18.525 18.75 17 18.75C15.475 18.75 14.0125 18.1442 12.9341 17.0659C11.8558 15.9875 11.25 14.525 11.25 13ZM16.1451 11.2102C15.8886 10.9544 15.4668 10.9544 15.2102 11.2102C14.9544 11.4668 14.9544 11.8886 15.2102 12.1451L16.0658 13L15.2102 13.8549C15.076 13.9798 15 14.1557 15 14.3388C15 14.7018 15.2982 15 15.6612 15C15.8443 15 16.0202 14.924 16.1451 14.7898L17 13.9342L17.8549 14.7898C17.9772 14.9035 18.1385 14.9669 18.3058 14.9669C18.6688 14.9669 18.9669 14.6688 18.9669 14.3058C18.9669 14.1385 18.9035 13.9772 18.7898 13.8549L17.9342 13L18.7898 12.1451C18.924 12.0202 19 11.8443 19 11.6612C19 11.2982 18.7018 11 18.3388 11C18.1557 11 17.9798 11.076 17.8549 11.2102L17 12.0658L16.1451 11.2102Z" fill="black"/>
<path d="M1.46967 12.4697C1.32902 12.6103 1.25 12.8011 1.25 13C1.25 13.1989 1.32902 13.3897 1.46967 13.5303C1.61032 13.671 1.80109 13.75 2 13.75H8C8.19891 13.75 8.38968 13.671 8.53033 13.5303C8.67098 13.3897 8.75 13.1989 8.75 13C8.75 12.8011 8.67098 12.6103 8.53033 12.4697C8.38968 12.329 8.19891 12.25 8 12.25H2C1.80109 12.25 1.61032 12.329 1.46967 12.4697Z" fill="black"/>
<path d="M1.25 18C1.25 17.8011 1.32902 17.6103 1.46967 17.4697C1.61032 17.329 1.80109 17.25 2 17.25H10C10.1989 17.25 10.3897 17.329 10.5303 17.4697C10.671 17.6103 10.75 17.8011 10.75 18C10.75 18.1989 10.671 18.3897 10.5303 18.5303C10.3897 18.671 10.1989 18.75 10 18.75H2C1.80109 18.75 1.61032 18.671 1.46967 18.5303C1.32902 18.3897 1.25 18.1989 1.25 18Z" fill="black"/>
</g>
<defs>
<clipPath id="clip0_221_18538">
<rect width="24" height="24" fill="white"/>
</clipPath>
</defs>
</svg>
