<svg width="24" height="24" viewBox="0 0 24 24" fill="none" xmlns="http://www.w3.org/2000/svg">
<g clip-path="url(#clip0_221_18554)">
<path fill-rule="evenodd" clip-rule="evenodd" d="M10.723 3.20003C10.776 3.00828 10.7507 2.80331 10.6527 2.63022C10.5546 2.45712 10.3918 2.33008 10.2 2.27703C10.0082 2.22399 9.80328 2.24929 9.63018 2.34737C9.45709 2.44545 9.33004 2.60828 9.277 2.80003L7.763 8.25003H4C3.80109 8.25003 3.61032 8.32905 3.46967 8.4697C3.32902 8.61035 3.25 8.80112 3.25 9.00003C3.25 9.19894 3.32902 9.38971 3.46967 9.53036C3.61032 9.67101 3.80109 9.75003 4 9.75003H7.347L5.819 15.25H2C1.80109 15.25 1.61032 15.3291 1.46967 15.4697C1.32902 15.6104 1.25 15.8011 1.25 16C1.25 16.1989 1.32902 16.3897 1.46967 16.5304C1.61032 16.671 1.80109 16.75 2 16.75H5.402L4.277 20.8C4.22396 20.9918 4.24926 21.1968 4.34734 21.3699C4.44542 21.5429 4.60825 21.67 4.8 21.723C4.99175 21.7761 5.19672 21.7508 5.36982 21.6527C5.54291 21.5546 5.66996 21.3918 5.723 21.2L6.959 16.75H14.402L13.277 20.8C13.224 20.9918 13.2493 21.1968 13.3473 21.3699C13.4454 21.5429 13.6082 21.67 13.8 21.723C13.9918 21.7761 14.1967 21.7508 14.3698 21.6527C14.5429 21.5546 14.67 21.3918 14.723 21.2L15.959 16.75H20C20.1989 16.75 20.3897 16.671 20.5303 16.5304C20.671 16.3897 20.75 16.1989 20.75 16C20.75 15.8011 20.671 15.6104 20.5303 15.4697C20.3897 15.3291 20.1989 15.25 20 15.25H16.376L17.903 9.75003H22C22.1989 9.75003 22.3897 9.67101 22.5303 9.53036C22.671 9.38971 22.75 9.19894 22.75 9.00003C22.75 8.80112 22.671 8.61035 22.5303 8.4697C22.3897 8.32905 22.1989 8.25003 22 8.25003H18.32L19.723 3.20003C19.7493 3.10509 19.7566 3.0059 19.7445 2.90813C19.7324 2.81036 19.7012 2.71592 19.6527 2.63022C19.6041 2.54451 19.5391 2.4692 19.4615 2.4086C19.3838 2.348 19.2949 2.3033 19.2 2.27703C19.1051 2.25077 19.0059 2.24346 18.9081 2.25553C18.8103 2.2676 18.7159 2.29881 18.6302 2.34737C18.5445 2.39594 18.4692 2.46091 18.4086 2.53858C18.348 2.61624 18.3033 2.70509 18.277 2.80003L16.763 8.25003H9.32L10.723 3.20003ZM14.819 15.25L16.347 9.75003H8.903L7.376 15.25H14.819Z" fill="black"/>
</g>
<defs>
<clipPath id="clip0_221_18554">
<rect width="24" height="24" fill="white"/>
</clipPath>
</defs>
</svg>
