<svg width="24" height="24" viewBox="0 0 24 24" fill="none" xmlns="http://www.w3.org/2000/svg">
<path fill-rule="evenodd" clip-rule="evenodd" d="M11.943 1.25H12.057C14.3663 1.25 16.1753 1.25 17.5869 1.43975C19.0314 1.63401 20.1714 2.03977 21.0662 2.93379C21.961 3.82856 22.366 4.96859 22.5602 6.41387C22.75 7.82465 22.75 9.63369 22.75 11.943V12.057C22.75 14.3663 22.75 16.1753 22.5602 17.5869C22.366 19.0314 21.9602 20.1714 21.0662 21.0662C20.1714 21.961 19.0314 22.366 17.5861 22.5602C16.1753 22.75 14.3663 22.75 12.057 22.75H11.943C9.63369 22.75 7.82465 22.75 6.41312 22.5602C4.96859 22.366 3.82856 21.9602 2.93379 21.0662C2.03902 20.1714 1.63401 19.0314 1.43975 17.5861C1.25 16.1753 1.25 14.3663 1.25 12.057V11.943C1.25 9.63369 1.25 7.82465 1.43975 6.41312C1.63401 4.96859 2.03977 3.82856 2.93379 2.93379C3.82856 2.03902 4.96859 1.63401 6.41387 1.43975C7.82465 1.25 9.63369 1.25 11.943 1.25ZM4.82629 8.44969L4.8273 8.40969C4.8483 7.99868 5.1923 7.66669 5.60831 7.66669H18.3006C18.7306 7.66669 19.0836 8.01968 19.0836 8.44969C19.0836 8.8787 18.7306 9.2317 18.3006 9.2317H5.60831C5.1793 9.2317 4.82629 8.8787 4.82629 8.44969ZM4.8273 11.9608L4.82629 12.0008C4.82629 12.4298 5.1793 12.7828 5.60831 12.7828H18.3006C18.7306 12.7828 19.0836 12.4298 19.0836 12.0008C19.0836 11.5708 18.7306 11.2178 18.3006 11.2178H5.60831C5.1923 11.2178 4.8483 11.5498 4.8273 11.9608ZM4.82629 15.5509L4.8273 15.5109C4.8483 15.0999 5.1923 14.7679 5.60831 14.7679H15.9526C16.3816 14.7679 16.7346 15.1209 16.7346 15.5509C16.7346 15.9799 16.3816 16.3329 15.9526 16.3329H5.60831C5.1793 16.3329 4.82629 15.9799 4.82629 15.5509Z" fill="black"/>
</svg>
