<svg width="24" height="24" viewBox="0 0 24 24" fill="none" xmlns="http://www.w3.org/2000/svg">
<g clip-path="url(#clip0_221_18501)">
<path fill-rule="evenodd" clip-rule="evenodd" d="M17 3.25C17.1989 3.25 17.3897 3.32902 17.5303 3.46967C17.671 3.61032 17.75 3.80109 17.75 4V17.75L19.4 15.55C19.4591 15.4712 19.5331 15.4048 19.6179 15.3546C19.7026 15.3045 19.7964 15.2715 19.8939 15.2575C19.9914 15.2436 20.0907 15.249 20.1861 15.2735C20.2815 15.2979 20.3712 15.3409 20.45 15.4C20.5288 15.4591 20.5952 15.5331 20.6454 15.6179C20.6955 15.7026 20.7285 15.7964 20.7425 15.8939C20.7564 15.9914 20.751 16.0907 20.7265 16.1861C20.7021 16.2815 20.6591 16.3712 20.6 16.45L17.6 20.45C17.5056 20.5759 17.3739 20.6689 17.2236 20.7159C17.0734 20.7628 16.9122 20.7613 16.7628 20.7115C16.6135 20.6617 16.4836 20.5662 16.3916 20.4385C16.2995 20.3108 16.25 20.1574 16.25 20V4C16.25 3.80109 16.329 3.61032 16.4697 3.46967C16.6103 3.32902 16.8011 3.25 17 3.25ZM7.25 6C7.25 5.80109 7.32902 5.61032 7.46967 5.46967C7.61032 5.32902 7.80109 5.25 8 5.25H13C13.1989 5.25 13.3897 5.32902 13.5303 5.46967C13.671 5.61032 13.75 5.80109 13.75 6C13.75 6.19891 13.671 6.38968 13.5303 6.53033C13.3897 6.67098 13.1989 6.75 13 6.75H8C7.80109 6.75 7.61032 6.67098 7.46967 6.53033C7.32902 6.38968 7.25 6.19891 7.25 6ZM5.25 11C5.25 10.8011 5.32902 10.6103 5.46967 10.4697C5.61032 10.329 5.80109 10.25 6 10.25H13C13.1989 10.25 13.3897 10.329 13.5303 10.4697C13.671 10.6103 13.75 10.8011 13.75 11C13.75 11.1989 13.671 11.3897 13.5303 11.5303C13.3897 11.671 13.1989 11.75 13 11.75H6C5.80109 11.75 5.61032 11.671 5.46967 11.5303C5.32902 11.3897 5.25 11.1989 5.25 11ZM3.25 16C3.25 15.8011 3.32902 15.6103 3.46967 15.4697C3.61032 15.329 3.80109 15.25 4 15.25H13C13.1989 15.25 13.3897 15.329 13.5303 15.4697C13.671 15.6103 13.75 15.8011 13.75 16C13.75 16.1989 13.671 16.3897 13.5303 16.5303C13.3897 16.671 13.1989 16.75 13 16.75H4C3.80109 16.75 3.61032 16.671 3.46967 16.5303C3.32902 16.3897 3.25 16.1989 3.25 16Z" fill="black"/>
</g>
<defs>
<clipPath id="clip0_221_18501">
<rect width="24" height="24" fill="white"/>
</clipPath>
</defs>
</svg>
