<svg width="24" height="24" viewBox="0 0 24 24" fill="none" xmlns="http://www.w3.org/2000/svg">
<path d="M14.7536 8.11288H9.53759C9.12398 8.11288 8.78845 7.77655 8.78845 7.36356C8.78845 6.94955 9.12398 6.61322 9.53759 6.61322H14.7536C15.1673 6.61322 15.5028 6.94955 15.5028 7.36356C15.5028 7.77655 15.1673 8.11288 14.7536 8.11288Z" fill="black"/>
<path d="M9.53944 5.44997H12.8139C13.2265 5.44997 13.5611 5.11365 13.5611 4.70066C13.5611 4.28665 13.2265 3.95032 12.8139 3.95032H9.53944C9.12688 3.95032 8.78931 4.28665 8.78931 4.70066C8.78931 5.11365 9.12688 5.44997 9.53944 5.44997Z" fill="black"/>
<path fill-rule="evenodd" clip-rule="evenodd" d="M5.37964 9.25275H4.85831C4.29096 9.25275 3.74814 9.47764 3.34742 9.87836C2.9467 10.2791 2.7218 10.8219 2.7218 11.3893V11.974H2.05839C1.6454 11.974 1.30908 12.3103 1.30908 12.7243C1.30908 13.1373 1.6454 13.4737 2.05839 13.4737H2.7218V14.0594C2.7218 15.2391 3.6776 16.1959 4.85831 16.1959H4.90359L2.7719 21.6761C2.68297 21.9061 2.71261 22.1668 2.85266 22.3713C2.99168 22.5747 3.22375 22.6974 3.47113 22.6974H20.8995C21.1489 22.6974 21.382 22.5737 21.5221 22.3662C21.6611 22.1597 21.6887 21.8969 21.5946 21.6659L19.3527 16.1305H19.36C19.9263 16.1305 20.4691 15.9056 20.8699 15.5048C21.2706 15.1041 21.4965 14.5603 21.4965 13.994V13.4737H22.0597C22.4727 13.4737 22.809 13.1373 22.809 12.7243C22.809 12.3103 22.4727 11.974 22.0597 11.974H21.4965V11.3893C21.4965 10.2085 20.5397 9.25275 19.36 9.25275H18.7844V3.1877C18.7844 2.14603 17.9401 1.30267 16.8994 1.30267H7.26468C6.22403 1.30267 5.37964 2.14603 5.37964 3.1877V9.25275ZM18.7453 14.6308H19.36C19.5286 14.6308 19.6902 14.5634 19.8098 14.4448C19.9294 14.3252 19.9969 14.1626 19.9969 13.994V11.3893C19.9969 11.0376 19.7116 10.7514 19.36 10.7514H4.85831C4.68861 10.7514 4.5271 10.8188 4.4075 10.9384C4.28789 11.058 4.22041 11.2196 4.22041 11.3893V14.0594C4.22041 14.411 4.50563 14.6962 4.85831 14.6962H5.48692L5.83049 13.813C5.94191 13.5247 6.21996 13.3345 6.52869 13.3345H17.7152C18.0209 13.3345 18.2958 13.5206 18.4103 13.8038L18.7453 14.6308ZM6.87929 9.25275H17.2848V3.1877C17.2848 2.97405 17.112 2.8013 16.8994 2.8013H7.26468C7.05205 2.8013 6.87929 2.97405 6.87929 3.1877V9.25275ZM13.2356 14.8342H11.0485C11.1006 14.9174 11.1675 14.9977 11.2536 15.0684C11.455 15.234 11.7555 15.329 12.1859 15.329C12.5958 15.329 12.8739 15.2473 13.0497 15.0898C13.1348 15.0135 13.1943 14.9251 13.2356 14.8342Z" fill="black"/>
</svg>
