<svg width="24" height="24" viewBox="0 0 24 24" fill="none" xmlns="http://www.w3.org/2000/svg">
<g clip-path="url(#clip0_221_18511)">
<path d="M3 6.52398C3 6.12898 3.327 5.80998 3.73 5.80998H8.518C8.524 4.96798 8.616 3.81498 9.45 3.01698C10.137 2.36175 11.0506 1.99737 12 1.99998C12.9494 1.99737 13.863 2.36175 14.55 3.01698C15.384 3.81498 15.476 4.96798 15.482 5.80998H20.27C20.673 5.80998 21 6.12998 21 6.52398C20.9992 6.61888 20.9797 6.71268 20.9425 6.8C20.9054 6.88731 20.8513 6.96643 20.7835 7.03278C20.7156 7.09913 20.6353 7.15142 20.5472 7.18664C20.4591 7.22186 20.3649 7.2393 20.27 7.23798H3.73C3.63511 7.2393 3.5409 7.22186 3.45278 7.18664C3.36466 7.15142 3.28437 7.09913 3.21653 7.03278C3.14869 6.96643 3.09463 6.88731 3.05747 6.8C3.02031 6.71268 3.00078 6.61888 3 6.52398Z" fill="black"/>
<path fill-rule="evenodd" clip-rule="evenodd" d="M11.596 22H12.404C15.187 22 16.578 22 17.484 21.114C18.388 20.228 18.48 18.774 18.665 15.868L18.932 11.681C19.032 10.104 19.082 9.315 18.629 8.815C18.175 8.315 17.409 8.315 15.876 8.315H8.12396C6.59096 8.315 5.82396 8.315 5.37096 8.815C4.91796 9.315 4.96696 10.104 5.06796 11.681L5.33496 15.869C5.51996 18.775 5.61196 20.229 6.51696 21.114C7.42196 22 8.81296 22 11.596 22ZM10.246 12.189C10.206 11.755 9.83796 11.439 9.42596 11.482C9.01296 11.525 8.71296 11.912 8.75396 12.346L9.25396 17.609C9.29396 18.043 9.66196 18.359 10.074 18.316C10.487 18.272 10.787 17.886 10.746 17.452L10.246 12.189ZM14.575 11.482C14.987 11.525 15.288 11.912 15.246 12.346L14.746 17.609C14.706 18.043 14.337 18.359 13.926 18.316C13.513 18.272 13.213 17.886 13.254 17.452L13.754 12.188C13.794 11.755 14.163 11.438 14.574 11.481" fill="black"/>
</g>
<defs>
<clipPath id="clip0_221_18511">
<rect width="24" height="24" fill="white"/>
</clipPath>
</defs>
</svg>
