<svg width="24" height="24" viewBox="0 0 24 24" fill="none" xmlns="http://www.w3.org/2000/svg">
<path fill-rule="evenodd" clip-rule="evenodd" d="M10.913 6.12599C10.659 6.04899 10.385 6.07704 10.151 6.20204C9.918 6.32804 9.744 6.541 9.667 6.795L8.981 9.08302H6.625C6.359 9.08302 6.105 9.18799 5.918 9.37599C5.73 9.56299 5.625 9.81802 5.625 10.083C5.625 10.348 5.73 10.603 5.918 10.79C6.105 10.978 6.359 11.083 6.625 11.083H8.381L7.781 13.083H5.625C5.359 13.083 5.105 13.188 4.918 13.376C4.73 13.563 4.625 13.818 4.625 14.083C4.625 14.348 4.73 14.603 4.918 14.79C5.105 14.978 5.359 15.083 5.625 15.083H7.181L6.668 16.793C6.626 16.918 6.61 17.051 6.62 17.183C6.63 17.318 6.666 17.448 6.728 17.568C6.79 17.687 6.875 17.793 6.978 17.879C7.082 17.965 7.201 18.029 7.33 18.067C7.459 18.106 7.594 18.118 7.727 18.103C7.861 18.088 7.99 18.047 8.107 17.981C8.225 17.915 8.327 17.826 8.409 17.719C8.491 17.613 8.551 17.491 8.584 17.362C8.583 17.366 9.269 15.083 9.269 15.083H12.181L11.665 16.805C11.6 17.056 11.634 17.322 11.761 17.547C11.888 17.773 12.098 17.94 12.346 18.015C12.594 18.089 12.861 18.064 13.091 17.945C13.321 17.827 13.496 17.623 13.579 17.378L14.269 15.083H16.625C16.89 15.083 17.144 14.978 17.332 14.79C17.519 14.603 17.625 14.348 17.625 14.083C17.625 13.818 17.519 13.563 17.332 13.376C17.144 13.188 16.89 13.083 16.625 13.083H14.869L15.469 11.083H17.625C17.89 11.083 18.144 10.978 18.332 10.79C18.519 10.603 18.625 10.348 18.625 10.083C18.625 9.81802 18.519 9.56299 18.332 9.37599C18.144 9.18799 17.89 9.08302 17.625 9.08302H16.069L16.584 7.365C16.653 7.114 16.621 6.84504 16.495 6.61604C16.368 6.38804 16.158 6.21804 15.908 6.14204C15.658 6.06704 15.388 6.093 15.157 6.214C14.925 6.335 14.75 6.54101 14.669 6.78901L13.981 9.08302H11.069L11.582 7.37098C11.658 7.11698 11.631 6.843 11.505 6.61C11.38 6.376 11.167 6.20199 10.913 6.12599ZM10.469 11.083H13.381L12.781 13.083H9.869L10.469 11.083Z" fill="black"/>
</svg>
