<svg width="24" height="24" viewBox="0 0 24 24" fill="none" xmlns="http://www.w3.org/2000/svg">
<g clip-path="url(#clip0_221_18533)">
<path fill-rule="evenodd" clip-rule="evenodd" d="M16.47 3.47001C16.6106 3.32956 16.8012 3.25067 17 3.25067C17.1988 3.25067 17.3894 3.32956 17.53 3.47001L20.53 6.47001C20.6705 6.61064 20.7493 6.80126 20.7493 7.00001C20.7493 7.19876 20.6705 7.38939 20.53 7.53001L17.53 10.53C17.4613 10.6037 17.3785 10.6628 17.2865 10.7038C17.1945 10.7448 17.0952 10.7668 16.9945 10.7686C16.8938 10.7704 16.7938 10.7519 16.7004 10.7141C16.607 10.6764 16.5222 10.6203 16.451 10.5491C16.3797 10.4778 16.3236 10.393 16.2859 10.2996C16.2482 10.2062 16.2296 10.1062 16.2314 10.0055C16.2332 9.90479 16.2552 9.80547 16.2962 9.71347C16.3372 9.62147 16.3963 9.53867 16.47 9.47001L18.19 7.75001H9C8.052 7.75001 7.39 7.75001 6.878 7.79701C6.375 7.84301 6.09 7.92701 5.875 8.05101C5.53274 8.24855 5.24854 8.53275 5.051 8.87501C4.927 9.09001 4.843 9.37501 4.797 9.87801C4.751 10.39 4.75 11.052 4.75 12C4.75 12.948 4.75 13.61 4.797 14.122C4.843 14.624 4.927 14.91 5.051 15.125C5.249 15.467 5.533 15.751 5.875 15.949C6.09 16.073 6.375 16.157 6.878 16.203C7.39 16.249 8.052 16.25 9 16.25H16C16.1989 16.25 16.3897 16.329 16.5303 16.4697C16.671 16.6103 16.75 16.8011 16.75 17C16.75 17.1989 16.671 17.3897 16.5303 17.5303C16.3897 17.671 16.1989 17.75 16 17.75H8.964C8.06 17.75 7.331 17.75 6.742 17.697C6.136 17.642 5.606 17.525 5.125 17.247C4.55486 16.9181 4.08133 16.4449 3.752 15.875C3.475 15.394 3.358 14.864 3.303 14.258C3.25 13.669 3.25 12.94 3.25 12.036V11.964C3.25 11.06 3.25 10.331 3.303 9.74201C3.358 9.13601 3.475 8.60601 3.753 8.12501C4.08191 7.55487 4.55509 7.08134 5.125 6.75201C5.606 6.47501 6.136 6.35801 6.742 6.30301C7.331 6.25001 8.06 6.25001 8.964 6.25001H18.189L16.469 4.53001C16.3285 4.38939 16.2497 4.19876 16.2497 4.00001C16.2497 3.80126 16.3295 3.61064 16.47 3.47001Z" fill="black"/>
</g>
<defs>
<clipPath id="clip0_221_18533">
<rect width="24" height="24" fill="white"/>
</clipPath>
</defs>
</svg>
