<svg width="24" height="24" viewBox="0 0 24 24" fill="none" xmlns="http://www.w3.org/2000/svg">
<g clip-path="url(#clip0_221_18485)">
<path d="M11.4 18.161L18.796 10.765C17.5518 10.2452 16.4218 9.48622 15.47 8.53103C14.5144 7.57907 13.755 6.44868 13.235 5.20403L5.83902 12.6C5.26202 13.177 4.97302 13.466 4.72502 13.784C4.43241 14.1595 4.18128 14.5655 3.97602 14.995C3.80302 15.359 3.67402 15.747 3.41602 16.521L2.05402 20.604C1.99133 20.791 1.98203 20.9917 2.02716 21.1836C2.07229 21.3756 2.17007 21.5511 2.30949 21.6906C2.44891 21.83 2.62446 21.9278 2.81641 21.9729C3.00835 22.018 3.20907 22.0087 3.39602 21.946L7.47902 20.584C8.25402 20.326 8.64102 20.197 9.00502 20.024C9.43635 19.8187 9.84002 19.569 10.216 19.275C10.534 19.027 10.823 18.738 11.4 18.161ZM20.848 8.71303C21.5855 7.97559 21.9997 6.97542 21.9997 5.93253C21.9997 4.88964 21.5855 3.88946 20.848 3.15203C20.1106 2.41459 19.1104 2.00031 18.0675 2.00031C17.0246 2.00031 16.0245 2.41459 15.287 3.15203L14.4 4.03903L14.438 4.15003C14.875 5.4008 15.5903 6.53602 16.53 7.47003C17.492 8.43784 18.6669 9.16727 19.961 9.60003L20.848 8.71303Z" fill="black"/>
</g>
<defs>
<clipPath id="clip0_221_18485">
<rect width="24" height="24" fill="white"/>
</clipPath>
</defs>
</svg>
