<svg width="24" height="24" viewBox="0 0 24 24" fill="none" xmlns="http://www.w3.org/2000/svg">
<g clip-path="url(#clip0_221_18574)">
<path fill-rule="evenodd" clip-rule="evenodd" d="M8.25 9C8.25 8.80109 8.32902 8.61032 8.46967 8.46967C8.61032 8.32902 8.80109 8.25 9 8.25H15C15.1989 8.25 15.3897 8.32902 15.5303 8.46967C15.671 8.61032 15.75 8.80109 15.75 9C15.75 9.19891 15.671 9.38968 15.5303 9.53033C15.3897 9.67098 15.1989 9.75 15 9.75H12.75V15C12.75 15.1989 12.671 15.3897 12.5303 15.5303C12.3897 15.671 12.1989 15.75 12 15.75C11.8011 15.75 11.6103 15.671 11.4697 15.5303C11.329 15.3897 11.25 15.1989 11.25 15V9.75H9C8.80109 9.75 8.61032 9.67098 8.46967 9.53033C8.32902 9.38968 8.25 9.19891 8.25 9Z" fill="black"/>
<path fill-rule="evenodd" clip-rule="evenodd" d="M5.85999 3.26299C5.73767 2.95501 5.54074 2.68225 5.28691 2.46922C5.03307 2.2562 4.73028 2.10959 4.40575 2.04256C4.08122 1.97553 3.74512 1.9902 3.42766 2.08523C3.1102 2.18026 2.82133 2.35269 2.58701 2.58701C2.35269 2.82133 2.18026 3.1102 2.08523 3.42766C1.9902 3.74512 1.97553 4.08122 2.04256 4.40575C2.10959 4.73028 2.2562 5.03307 2.46922 5.28691C2.68225 5.54074 2.95501 5.73767 3.26299 5.85999C3.25537 5.90629 3.25103 5.95307 3.24999 5.99999V18C3.24999 18.048 3.25432 18.0947 3.26299 18.14C2.95501 18.2623 2.68225 18.4592 2.46922 18.7131C2.2562 18.9669 2.10959 19.2697 2.04256 19.5942C1.97553 19.9188 1.9902 20.2549 2.08523 20.5723C2.18026 20.8898 2.35269 21.1786 2.58701 21.413C2.82133 21.6473 3.1102 21.8197 3.42766 21.9147C3.74512 22.0098 4.08122 22.0244 4.40575 21.9574C4.73028 21.8904 5.03307 21.7438 5.28691 21.5307C5.54074 21.3177 5.73767 21.045 5.85999 20.737C5.90629 20.7446 5.95307 20.7489 5.99999 20.75H18C18.0469 20.7489 18.0937 20.7446 18.14 20.737C18.2623 21.045 18.4592 21.3177 18.7131 21.5307C18.9669 21.7438 19.2697 21.8904 19.5942 21.9574C19.9188 22.0244 20.2549 22.0098 20.5723 21.9147C20.8898 21.8197 21.1786 21.6473 21.413 21.413C21.6473 21.1786 21.8197 20.8898 21.9147 20.5723C22.0098 20.2549 22.0244 19.9188 21.9574 19.5942C21.8904 19.2697 21.7438 18.9669 21.5307 18.7131C21.3177 18.4592 21.045 18.2623 20.737 18.14C20.7446 18.0937 20.7489 18.0469 20.75 18V5.99999C20.7489 5.95307 20.7446 5.90629 20.737 5.85999C21.045 5.73767 21.3177 5.54074 21.5307 5.28691C21.7438 5.03307 21.8904 4.73028 21.9574 4.40575C22.0244 4.08122 22.0098 3.74512 21.9147 3.42766C21.8197 3.1102 21.6473 2.82133 21.413 2.58701C21.1786 2.35269 20.8898 2.18026 20.5723 2.08523C20.2549 1.9902 19.9188 1.97553 19.5942 2.04256C19.2697 2.10959 18.9669 2.2562 18.7131 2.46922C18.4592 2.68225 18.2623 2.95501 18.14 3.26299C18.0937 3.25537 18.0469 3.25103 18 3.24999H5.99999C5.95307 3.25103 5.90629 3.25537 5.85999 3.26299ZM4.73699 5.85999C4.7446 5.90629 4.74894 5.95307 4.74999 5.99999V18C4.74894 18.0469 4.7446 18.0937 4.73699 18.14C5.24899 18.343 5.65699 18.751 5.85999 19.263C5.90629 19.2554 5.95307 19.251 5.99999 19.25H18C18.048 19.25 18.0947 19.2543 18.14 19.263C18.343 18.751 18.751 18.343 19.263 18.14C19.2554 18.0937 19.251 18.0469 19.25 18V5.99999C19.25 5.95199 19.2543 5.90532 19.263 5.85999C19.009 5.75941 18.7784 5.60787 18.5852 5.41473C18.3921 5.22159 18.2406 4.99094 18.14 4.73699C18.0937 4.7446 18.0469 4.74894 18 4.74999H5.99999C5.95307 4.74894 5.90629 4.7446 5.85999 4.73699C5.65699 5.24899 5.24899 5.65699 4.73699 5.85999Z" fill="black"/>
</g>
<defs>
<clipPath id="clip0_221_18574">
<rect width="24" height="24" fill="white"/>
</clipPath>
</defs>
</svg>
