<svg width="24" height="24" viewBox="0 0 24 24" fill="none" xmlns="http://www.w3.org/2000/svg">
<g clip-path="url(#clip0_221_18506)">
<path fill-rule="evenodd" clip-rule="evenodd" d="M16.763 3.28897C16.9123 3.23918 17.0734 3.23759 17.2236 3.28443C17.3738 3.33127 17.5055 3.42417 17.6 3.54997L20.6 7.54997C20.6591 7.62877 20.7021 7.71843 20.7265 7.81384C20.751 7.90925 20.7564 8.00854 20.7425 8.10604C20.7285 8.20354 20.6955 8.29734 20.6454 8.38209C20.5952 8.46684 20.5288 8.54088 20.45 8.59997C20.3712 8.65907 20.2815 8.70206 20.1861 8.72651C20.0907 8.75095 19.9914 8.75636 19.8939 8.74243C19.7964 8.72851 19.7026 8.69551 19.6179 8.64533C19.5331 8.59515 19.4591 8.52876 19.4 8.44997L17.75 6.24997V20C17.75 20.1989 17.671 20.3897 17.5303 20.5303C17.3897 20.671 17.1989 20.75 17 20.75C16.8011 20.75 16.6103 20.671 16.4697 20.5303C16.329 20.3897 16.25 20.1989 16.25 20V3.99997C16.2501 3.84263 16.2997 3.6893 16.3918 3.5617C16.4839 3.43411 16.6137 3.33869 16.763 3.28897ZM3.25 7.99997C3.25 7.80106 3.32902 7.61029 3.46967 7.46964C3.61032 7.32899 3.80109 7.24997 4 7.24997H13C13.1989 7.24997 13.3897 7.32899 13.5303 7.46964C13.671 7.61029 13.75 7.80106 13.75 7.99997C13.75 8.19888 13.671 8.38965 13.5303 8.5303C13.3897 8.67095 13.1989 8.74997 13 8.74997H4C3.80109 8.74997 3.61032 8.67095 3.46967 8.5303C3.32902 8.38965 3.25 8.19888 3.25 7.99997ZM5.25 13C5.25 12.8011 5.32902 12.6103 5.46967 12.4696C5.61032 12.329 5.80109 12.25 6 12.25H13C13.1989 12.25 13.3897 12.329 13.5303 12.4696C13.671 12.6103 13.75 12.8011 13.75 13C13.75 13.1989 13.671 13.3896 13.5303 13.5303C13.3897 13.671 13.1989 13.75 13 13.75H6C5.80109 13.75 5.61032 13.671 5.46967 13.5303C5.32902 13.3896 5.25 13.1989 5.25 13ZM7.25 18C7.25 17.8011 7.32902 17.6103 7.46967 17.4696C7.61032 17.329 7.80109 17.25 8 17.25H13C13.1989 17.25 13.3897 17.329 13.5303 17.4696C13.671 17.6103 13.75 17.8011 13.75 18C13.75 18.1989 13.671 18.3896 13.5303 18.5303C13.3897 18.671 13.1989 18.75 13 18.75H8C7.80109 18.75 7.61032 18.671 7.46967 18.5303C7.32902 18.3896 7.25 18.1989 7.25 18Z" fill="black"/>
</g>
<defs>
<clipPath id="clip0_221_18506">
<rect width="24" height="24" fill="white"/>
</clipPath>
</defs>
</svg>
