<svg width="24" height="24" viewBox="0 0 24 24" fill="none" xmlns="http://www.w3.org/2000/svg">
<g clip-path="url(#clip0_221_18600)">
<path d="M5 3C5 2.73478 4.89464 2.48043 4.70711 2.29289C4.51957 2.10536 4.26522 2 4 2C3.73478 2 3.48043 2.10536 3.29289 2.29289C3.10536 2.48043 3 2.73478 3 3V9C3 10.1819 3.23279 11.3522 3.68508 12.4442C4.13738 13.5361 4.80031 14.5282 5.63604 15.364C6.47177 16.1997 7.46392 16.8626 8.55585 17.3149C9.64778 17.7672 10.8181 18 12 18C13.1819 18 14.3522 17.7672 15.4442 17.3149C16.5361 16.8626 17.5282 16.1997 18.364 15.364C19.1997 14.5282 19.8626 13.5361 20.3149 12.4442C20.7672 11.3522 21 10.1819 21 9V3C21 2.73478 20.8946 2.48043 20.7071 2.29289C20.5196 2.10536 20.2652 2 20 2C19.7348 2 19.4804 2.10536 19.2929 2.29289C19.1054 2.48043 19 2.73478 19 3V9C19 9.91925 18.8189 10.8295 18.4672 11.6788C18.1154 12.5281 17.5998 13.2997 16.9497 13.9497C16.2997 14.5998 15.5281 15.1154 14.6788 15.4672C13.8295 15.8189 12.9193 16 12 16C11.0807 16 10.1705 15.8189 9.32122 15.4672C8.47194 15.1154 7.70026 14.5998 7.05025 13.9497C6.40024 13.2997 5.88463 12.5281 5.53284 11.6788C5.18106 10.8295 5 9.91925 5 9V3ZM4 20C3.73478 20 3.48043 20.1054 3.29289 20.2929C3.10536 20.4804 3 20.7348 3 21C3 21.2652 3.10536 21.5196 3.29289 21.7071C3.48043 21.8946 3.73478 22 4 22H20C20.2652 22 20.5196 21.8946 20.7071 21.7071C20.8946 21.5196 21 21.2652 21 21C21 20.7348 20.8946 20.4804 20.7071 20.2929C20.5196 20.1054 20.2652 20 20 20H4Z" fill="black"/>
</g>
<defs>
<clipPath id="clip0_221_18600">
<rect width="24" height="24" fill="white"/>
</clipPath>
</defs>
</svg>
