<svg width="24" height="24" viewBox="0 0 24 24" fill="none" xmlns="http://www.w3.org/2000/svg">
<g clip-path="url(#clip0_221_18490)">
<path fill-rule="evenodd" clip-rule="evenodd" d="M3.25 22C3.25 21.8011 3.32902 21.6103 3.46967 21.4697C3.61032 21.329 3.80109 21.25 4 21.25H20C20.1989 21.25 20.3897 21.329 20.5303 21.4697C20.671 21.6103 20.75 21.8011 20.75 22C20.75 22.1989 20.671 22.3897 20.5303 22.5303C20.3897 22.671 20.1989 22.75 20 22.75H4C3.80109 22.75 3.61032 22.671 3.46967 22.5303C3.32902 22.3897 3.25 22.1989 3.25 22Z" fill="black"/>
<path d="M11.52 14.929L17.437 9.01201C16.441 8.59719 15.5368 7.98993 14.776 7.22501C14.0106 6.464 13.403 5.55937 12.988 4.56301L7.06996 10.48C6.60796 10.942 6.37696 11.172 6.17896 11.427C5.94441 11.7271 5.74354 12.052 5.57996 12.396C5.44096 12.687 5.33796 12.997 5.13096 13.616L4.04296 16.883C3.99303 17.0325 3.98573 17.1929 4.02189 17.3463C4.05804 17.4996 4.13622 17.6399 4.24764 17.7513C4.35907 17.8628 4.49933 17.9409 4.65271 17.9771C4.80609 18.0132 4.9665 18.0059 5.11596 17.956L8.38196 16.868C9.00196 16.661 9.31196 16.558 9.60296 16.418C9.94829 16.254 10.2713 16.0547 10.572 15.82C10.827 15.621 11.057 15.39 11.519 14.929M19.079 7.37001C19.3711 7.07782 19.6028 6.73095 19.7609 6.34921C19.9189 5.96747 20.0003 5.55833 20.0002 5.14516C20.0002 4.73198 19.9188 4.32286 19.7606 3.94116C19.6024 3.55945 19.3707 3.21263 19.0785 2.92051C18.7863 2.62838 18.4394 2.39667 18.0577 2.2386C17.6759 2.08053 17.2668 1.99919 16.8536 1.99924C16.4404 1.99928 16.0313 2.08071 15.6496 2.23887C15.2679 2.39703 14.9211 2.62882 14.629 2.92101L13.919 3.63101L13.95 3.72101C14.21 4.47001 14.701 5.45301 15.624 6.37601C16.3939 7.15042 17.3342 7.73397 18.37 8.08001L19.079 7.37001Z" fill="black"/>
</g>
<defs>
<clipPath id="clip0_221_18490">
<rect width="24" height="24" fill="white"/>
</clipPath>
</defs>
</svg>
