<svg width="24" height="24" viewBox="0 0 24 24" fill="none" xmlns="http://www.w3.org/2000/svg">
<g clip-path="url(#clip0_221_18522)">
<path d="M5.99995 4.5C5.99995 3.565 5.99995 3.098 6.20095 2.75C6.33259 2.52199 6.52194 2.33265 6.74995 2.201C7.09795 2 7.56495 2 8.49995 2H15.4999C16.4349 2 16.9019 2 17.2499 2.201C17.478 2.33265 17.6673 2.52199 17.7989 2.75C17.9999 3.098 17.9999 3.565 17.9999 4.5C17.9999 5.435 17.9999 5.902 17.7989 6.25C17.6673 6.47801 17.478 6.66735 17.2499 6.799C16.9019 7 16.4349 7 15.4999 7H8.49995C7.56495 7 7.09795 7 6.74995 6.799C6.52194 6.66735 6.33259 6.47801 6.20095 6.25C5.99995 5.902 5.99995 5.435 5.99995 4.5ZM5.00195 3.94C4.92252 4.01019 4.85892 4.09646 4.81536 4.19309C4.77179 4.28972 4.74927 4.3945 4.74927 4.5005C4.74927 4.6065 4.77179 4.71128 4.81536 4.80791C4.85892 4.90454 4.92252 4.99081 5.00195 5.061C5.00061 4.89567 4.99995 4.72233 4.99995 4.541V4.46C4.99995 4.278 5.00061 4.10467 5.00195 3.94ZM9.99995 16V20C9.99995 20.943 9.99995 21.414 10.2929 21.707C10.5859 22 11.0569 22 11.9999 22C12.9429 22 13.4139 22 13.7069 21.707C13.9999 21.414 13.9999 20.943 13.9999 20V16C13.9999 15.057 13.9999 14.586 13.7069 14.293C13.4139 14 12.9429 14 11.9999 14C11.0569 14 10.5859 14 10.2929 14.293C9.99995 14.586 9.99995 15.057 9.99995 16Z" fill="black"/>
<path d="M18.994 5.25H19.045C19.5 5.25 19.805 5.25 20.042 5.266C20.272 5.281 20.384 5.308 20.458 5.336C20.781 5.464 21.036 5.719 21.164 6.042C21.193 6.116 21.22 6.229 21.234 6.459C21.25 6.695 21.25 7 21.25 7.455C21.25 8.292 21.24 8.522 21.179 8.694C21.0746 8.98904 20.8634 9.23418 20.587 9.381C20.426 9.467 20.2 9.511 19.372 9.636L15.249 10.254C14.476 10.37 13.828 10.467 13.315 10.612C12.772 10.764 12.292 10.992 11.917 11.428C11.533 11.873 11.375 12.405 11.307 13.006C11.511 13 11.727 13 11.946 13H12.055C12.32 13 12.58 13 12.821 13.011C12.871 12.691 12.948 12.529 13.053 12.407C13.163 12.28 13.331 12.165 13.721 12.056C14.132 11.94 14.687 11.856 15.518 11.731L19.714 11.101C20.364 11.004 20.872 10.929 21.291 10.706C21.8992 10.3825 22.3638 9.8426 22.593 9.193C22.751 8.746 22.751 8.233 22.75 7.576V7.43C22.75 7.006 22.75 6.651 22.731 6.36C22.72 6.06338 22.662 5.77039 22.559 5.492C22.4208 5.14071 22.2118 4.82162 21.945 4.55462C21.6782 4.28761 21.3592 4.07839 21.008 3.94C20.7293 3.83692 20.436 3.77886 20.139 3.768C19.7826 3.75106 19.4258 3.74473 19.069 3.749H18.994C18.9993 3.969 19.0013 4.20567 19 4.459V4.539C19.0013 4.79234 18.9993 5.03 18.994 5.25Z" fill="black"/>
</g>
<defs>
<clipPath id="clip0_221_18522">
<rect width="24" height="24" fill="white"/>
</clipPath>
</defs>
</svg>
