<svg width="24" height="24" viewBox="0 0 24 24" fill="none" xmlns="http://www.w3.org/2000/svg">
<g clip-path="url(#clip0_221_18595)">
<path fill-rule="evenodd" clip-rule="evenodd" d="M14.977 1H9C8.73478 1 8.48043 1.10536 8.29289 1.29289C8.10536 1.48043 8 1.73478 8 2C8 2.26522 8.10536 2.51957 8.29289 2.70711C8.48043 2.89464 8.73478 3 9 3H13.656L8.256 21H3C2.73478 21 2.48043 21.1054 2.29289 21.2929C2.10536 21.4804 2 21.7348 2 22C2 22.2652 2.10536 22.5196 2.29289 22.7071C2.48043 22.8946 2.73478 23 3 23H15C15.2652 23 15.5196 22.8946 15.7071 22.7071C15.8946 22.5196 16 22.2652 16 22C16 21.7348 15.8946 21.4804 15.7071 21.2929C15.5196 21.1054 15.2652 21 15 21H10.344L15.744 3H21C21.2652 3 21.5196 2.89464 21.7071 2.70711C21.8946 2.51957 22 2.26522 22 2C22 1.73478 21.8946 1.48043 21.7071 1.29289C21.5196 1.10536 21.2652 1 21 1H14.977Z" fill="black"/>
</g>
<defs>
<clipPath id="clip0_221_18595">
<rect width="24" height="24" fill="white"/>
</clipPath>
</defs>
</svg>
