<svg width="24" height="24" viewBox="0 0 24 24" fill="none" xmlns="http://www.w3.org/2000/svg">
<path fill-rule="evenodd" clip-rule="evenodd" d="M10.0266 16.3276H21.9981C22.4142 16.3276 22.7499 16.6644 22.7499 17.0795C22.7499 17.4945 22.4142 17.8314 21.9981 17.8314H10.0266C9.61054 17.8314 9.2749 17.4945 9.2749 17.0795C9.2749 16.6644 9.61054 16.3276 10.0266 16.3276Z" fill="black"/>
<path fill-rule="evenodd" clip-rule="evenodd" d="M5.96811 21.0865H21.9944C22.411 21.0865 22.7481 21.4234 22.7481 21.8384C22.7481 22.2535 22.411 22.5903 21.9944 22.5903H5.96811C5.55153 22.5903 5.21448 22.2535 5.21448 21.8384C5.21448 21.4234 5.55153 21.0865 5.96811 21.0865Z" fill="black"/>
<path fill-rule="evenodd" clip-rule="evenodd" d="M2.00314 11.1263H21.9936C22.4081 11.1263 22.7469 11.4632 22.7469 11.8782C22.7469 12.2933 22.4081 12.6301 21.9936 12.6301H2.00314C1.58861 12.6301 1.25 12.2933 1.25 11.8782C1.25 11.4632 1.58861 11.1263 2.00314 11.1263Z" fill="black"/>
<path fill-rule="evenodd" clip-rule="evenodd" d="M10.0266 6.10571L21.9981 6.10571C22.4142 6.10571 22.7499 6.44256 22.7499 6.85761C22.7499 7.27266 22.4142 7.60951 21.9981 7.60951L10.0266 7.60951C9.61054 7.60951 9.2749 7.27266 9.2749 6.85761C9.2749 6.44256 9.61054 6.10571 10.0266 6.10571Z" fill="black"/>
<path fill-rule="evenodd" clip-rule="evenodd" d="M5.96811 1.12115L21.9944 1.12115C22.411 1.12115 22.7481 1.45801 22.7481 1.87305C22.7481 2.2881 22.411 2.62495 21.9944 2.62495L5.96811 2.62495C5.55153 2.62495 5.21448 2.2881 5.21448 1.87305C5.21448 1.45801 5.55153 1.12115 5.96811 1.12115Z" fill="black"/>
</svg>
