<svg width="24" height="24" viewBox="0 0 24 24" fill="none" xmlns="http://www.w3.org/2000/svg">
<path fill-rule="evenodd" clip-rule="evenodd" d="M18.1161 16.6465H6.14285C5.72672 16.6465 5.39093 16.9834 5.39093 17.3986C5.39093 17.8137 5.72672 18.1506 6.14285 18.1506H18.1161C18.5322 18.1506 18.8679 17.8137 18.8679 17.3986C18.8679 16.9834 18.5322 16.6465 18.1161 16.6465Z" fill="black"/>
<path fill-rule="evenodd" clip-rule="evenodd" d="M20.1497 21.4063H4.12104C3.70441 21.4063 3.3673 21.7432 3.3673 22.1583C3.3673 22.5734 3.70441 22.9103 4.12104 22.9103H20.1497C20.5663 22.9103 20.9034 22.5734 20.9034 22.1583C20.9034 21.7432 20.5663 21.4063 20.1497 21.4063Z" fill="black"/>
<path fill-rule="evenodd" clip-rule="evenodd" d="M22.1301 11.4447H2.13672C1.72214 11.4447 1.3833 11.7816 1.3833 12.1967C1.3833 12.6118 1.72214 12.9487 2.13672 12.9487H22.1301C22.5446 12.9487 22.8833 12.6118 22.8833 12.1967C22.8833 11.7816 22.5446 11.4447 22.1301 11.4447Z" fill="black"/>
<path fill-rule="evenodd" clip-rule="evenodd" d="M18.1161 6.42325L6.14285 6.42325C5.72672 6.42325 5.39093 6.76015 5.39093 7.17526C5.39093 7.59037 5.72672 7.92727 6.14285 7.92727L18.1161 7.92727C18.5322 7.92727 18.8679 7.59037 18.8679 7.17526C18.8679 6.76015 18.5322 6.42325 18.1161 6.42325Z" fill="black"/>
<path fill-rule="evenodd" clip-rule="evenodd" d="M20.1497 1.43796L4.12104 1.43796C3.70441 1.43796 3.3673 1.77486 3.3673 2.18997C3.3673 2.60508 3.70441 2.94198 4.12104 2.94198L20.1497 2.94198C20.5663 2.94198 20.9034 2.60508 20.9034 2.18997C20.9034 1.77486 20.5663 1.43796 20.1497 1.43796Z" fill="black"/>
</svg>
