<svg width="24" height="24" viewBox="0 0 24 24" fill="none" xmlns="http://www.w3.org/2000/svg">
<path fill-rule="evenodd" clip-rule="evenodd" d="M15.979 4.307C16.08 5.058 16.083 6.033 16.083 7.333V7.91602H16.666C17.967 7.91602 18.941 7.92002 19.692 8.02102C20.616 8.14502 21.252 8.42002 21.749 8.91702C22.246 9.41402 22.521 10.05 22.645 10.974C22.746 11.725 22.75 12.699 22.75 14V16.666C22.75 17.967 22.746 18.941 22.645 19.692C22.521 20.616 22.246 21.252 21.749 21.749C21.252 22.246 20.616 22.521 19.692 22.645C18.941 22.746 17.967 22.75 16.666 22.75H14C12.699 22.75 11.725 22.746 10.974 22.645C10.05 22.521 9.41401 22.246 8.91701 21.749C8.42001 21.252 8.14501 20.616 8.02101 19.692C7.92001 18.941 7.91601 17.967 7.91601 16.666V16.083H7.333C6.033 16.083 5.058 16.08 4.307 15.979C3.384 15.854 2.748 15.579 2.251 15.082C1.754 14.585 1.478 13.949 1.354 13.026C1.253 12.275 1.25 11.3 1.25 10V7.333C1.25 6.033 1.253 5.058 1.354 4.307C1.478 3.384 1.754 2.748 2.251 2.251C2.748 1.754 3.384 1.478 4.307 1.354C5.058 1.253 6.033 1.25 7.333 1.25H10C11.3 1.25 12.275 1.253 13.026 1.354C13.949 1.478 14.585 1.754 15.082 2.251C15.579 2.748 15.854 3.384 15.979 4.307ZM14.583 10V7.333C14.583 7.29629 14.583 7.25986 14.583 7.22371C14.5831 6.0641 14.5832 5.1868 14.492 4.507C14.421 3.978 14.306 3.596 14.021 3.311C13.737 3.027 13.355 2.912 12.826 2.841C12.1525 2.74973 11.2851 2.74984 10.1414 2.74999C10.0948 2.74999 10.0476 2.75 10 2.75H7.333C7.2854 2.75 7.23825 2.74999 7.19157 2.74999C6.04788 2.74984 5.18051 2.74973 4.507 2.841C3.978 2.912 3.596 3.027 3.311 3.311C3.027 3.596 2.912 3.978 2.841 4.507C2.74973 5.18051 2.74984 6.04787 2.74999 7.19156C2.74999 7.23825 2.75 7.28539 2.75 7.333V10C2.75 10.0476 2.74999 10.0948 2.74999 10.1414C2.74984 11.2851 2.74973 12.1525 2.841 12.826C2.912 13.355 3.027 13.737 3.311 14.021C3.596 14.306 3.978 14.421 4.507 14.492C5.18681 14.5832 6.06412 14.5831 7.22374 14.583C7.25988 14.583 7.2963 14.583 7.333 14.583H10C10.0367 14.583 10.0731 14.583 10.1093 14.583C11.2689 14.5831 12.1462 14.5832 12.826 14.492C13.355 14.421 13.737 14.306 14.021 14.021C14.306 13.737 14.421 13.355 14.492 12.826C14.5832 12.1462 14.5831 11.2689 14.583 10.1093C14.583 10.0731 14.583 10.0367 14.583 10Z" fill="black"/>
</svg>
