<svg width="24" height="24" viewBox="0 0 24 24" fill="none" xmlns="http://www.w3.org/2000/svg">
<path fill-rule="evenodd" clip-rule="evenodd" d="M2.00185 11.1819H10.4181C10.8319 11.1819 11.1699 11.5182 11.1699 11.9326C11.1699 12.3469 10.8319 12.6832 10.4181 12.6832H2.00185C1.58803 12.6832 1.25 12.3469 1.25 11.9326C1.25 11.5182 1.58803 11.1819 2.00185 11.1819Z" fill="black"/>
<path fill-rule="evenodd" clip-rule="evenodd" d="M2.00185 2.52588L10.4181 2.52588C10.8319 2.52588 11.1699 2.86216 11.1699 3.2765C11.1699 3.69084 10.8319 4.02711 10.4181 4.02711H2.00185C1.58803 4.02711 1.25 3.69084 1.25 3.2765C1.25 2.86216 1.58803 2.52588 2.00185 2.52588Z" fill="black"/>
<path fill-rule="evenodd" clip-rule="evenodd" d="M2.00185 19.8381H10.4181C10.8319 19.8381 11.1699 20.1744 11.1699 20.5887C11.1699 21.0031 10.8319 21.3393 10.4181 21.3393H2.00185C1.58803 21.3393 1.25 21.0031 1.25 20.5887C1.25 20.1744 1.58803 19.8381 2.00185 19.8381Z" fill="black"/>
<path fill-rule="evenodd" clip-rule="evenodd" d="M4.61821 6.85339H10.4227C10.8381 6.85339 11.1732 7.18967 11.1732 7.60401C11.1732 8.01835 10.8381 8.35463 10.4227 8.35463H4.61821C4.20285 8.35463 3.86768 8.01835 3.86768 7.60401C3.86768 7.18967 4.20285 6.85339 4.61821 6.85339Z" fill="black"/>
<path fill-rule="evenodd" clip-rule="evenodd" d="M4.61821 15.5105H10.4227C10.8381 15.5105 11.1732 15.8468 11.1732 16.2611C11.1732 16.6755 10.8381 17.0118 10.4227 17.0118H4.61821C4.20285 17.0118 3.86768 16.6755 3.86768 16.2611C3.86768 15.8468 4.20285 15.5105 4.61821 15.5105Z" fill="black"/>
<path fill-rule="evenodd" clip-rule="evenodd" d="M12.4037 21.9561L12.4037 1.99973C12.4037 1.58591 12.74 1.2477 13.1543 1.2477C13.5686 1.2477 13.9049 1.58591 13.9049 1.99973L13.9049 21.9561C13.9049 22.3699 13.5686 22.7079 13.1543 22.7079C12.74 22.7079 12.4037 22.3699 12.4037 21.9561Z" fill="black"/>
<path fill-rule="evenodd" clip-rule="evenodd" d="M17.7845 12.7114H22.1482C22.4785 12.7114 22.75 12.3741 22.75 11.9648C22.75 11.5556 22.4785 11.2183 22.1482 11.2183H17.8045L19.5012 9.52251C19.6519 9.38178 19.7378 9.18416 19.7378 8.97756C19.7378 8.56934 19.4014 8.23298 18.9932 8.23298C18.7866 8.23298 18.589 8.31882 18.4482 8.46953L15.4699 11.4488C15.1815 11.7373 15.1815 12.2124 15.4699 12.5008L18.4482 15.4801C18.7367 15.7686 19.2118 15.7686 19.5012 15.4801C19.7897 15.1917 19.7897 14.7166 19.5012 14.4281L17.7845 12.7114Z" fill="black"/>
</svg>
