<svg width="24" height="24" viewBox="0 0 24 24" fill="none" xmlns="http://www.w3.org/2000/svg">
<g clip-path="url(#clip0_221_18590)">
<path fill-rule="evenodd" clip-rule="evenodd" d="M7.609 1C6.65192 1.00027 5.73411 1.38058 5.05734 2.05734C4.38058 2.73411 4.00027 3.65192 4 4.609V19.94C4 20.7514 4.32225 21.5296 4.8959 22.1034C5.46954 22.6772 6.24761 22.9997 7.059 23H14C15.4066 23.0008 16.7688 22.5073 17.8486 21.6058C18.9284 20.7043 19.6572 19.4521 19.9075 18.0679C20.1579 16.6838 19.914 15.2556 19.2184 14.033C18.5228 12.8104 17.4198 11.871 16.102 11.379C16.9803 10.5563 17.5909 9.48853 17.8545 8.31435C18.1181 7.14016 18.0226 5.91384 17.5803 4.79466C17.1379 3.67549 16.3693 2.71518 15.3742 2.03848C14.379 1.36178 13.2034 0.99995 12 1H7.609ZM12 11C13.0609 11 14.0783 10.5786 14.8284 9.82843C15.5786 9.07828 16 8.06087 16 7C16 5.93913 15.5786 4.92172 14.8284 4.17157C14.0783 3.42143 13.0609 3 12 3H7.609C6.72 3 6 3.72 6 4.609V11H12ZM6 13V19.941C6 20.526 6.474 21 7.059 21H14C15.0609 21 16.0783 20.5786 16.8284 19.8284C17.5786 19.0783 18 18.0609 18 17C18 15.9391 17.5786 14.9217 16.8284 14.1716C16.0783 13.4214 15.0609 13 14 13H6Z" fill="black"/>
</g>
<defs>
<clipPath id="clip0_221_18590">
<rect width="24" height="24" fill="white"/>
</clipPath>
</defs>
</svg>
