<svg width="24" height="24" viewBox="0 0 24 24" fill="none" xmlns="http://www.w3.org/2000/svg">
<g clip-path="url(#clip0_221_18496)">
<path d="M4.04502 5.492L5.49202 4.045C6.85502 2.682 7.53702 2 8.38402 2C9.23102 2 9.91402 2.682 11.277 4.045L8.86702 6.455L4.04502 11.277C2.68202 9.913 2.00002 9.23 2.00002 8.384C2.00002 7.538 2.68202 6.855 4.04502 5.492ZM19.955 18.508L18.508 19.955C17.145 21.318 16.463 22 15.616 22C14.768 22 14.086 21.318 12.723 19.955L17.544 15.134L19.954 12.724C21.319 14.086 22 14.767 22 15.615C22 16.463 21.318 17.145 19.955 18.508ZM11.4 18.161L18.796 10.765C17.5518 10.2452 16.4218 9.4862 15.47 8.531C14.5144 7.57905 13.755 6.44865 13.235 5.204L5.83902 12.6C5.26202 13.177 4.97302 13.466 4.72502 13.784C4.43241 14.1595 4.18128 14.5655 3.97602 14.995C3.80302 15.359 3.67402 15.747 3.41602 16.521L2.05402 20.604C1.99133 20.7909 1.98203 20.9917 2.02716 21.1836C2.07229 21.3756 2.17007 21.5511 2.30949 21.6905C2.44891 21.83 2.62446 21.9277 2.81641 21.9729C3.00835 22.018 3.20907 22.0087 3.39602 21.946L7.47902 20.584C8.25402 20.326 8.64102 20.197 9.00502 20.024C9.43635 19.8187 9.84002 19.569 10.216 19.275C10.534 19.027 10.823 18.738 11.4 18.161ZM20.848 8.713C21.5855 7.97557 21.9997 6.97539 21.9997 5.9325C21.9997 4.88961 21.5855 3.88943 20.848 3.152C20.1106 2.41457 19.1104 2.00028 18.0675 2.00028C17.0246 2.00028 16.0245 2.41457 15.287 3.152L14.4 4.039L14.438 4.15C14.875 5.40078 15.5903 6.53599 16.53 7.47C17.492 8.43782 18.6669 9.16724 19.961 9.6L20.848 8.713Z" fill="black"/>
</g>
<defs>
<clipPath id="clip0_221_18496">
<rect width="24" height="24" fill="white"/>
</clipPath>
</defs>
</svg>
