<svg width="24" height="24" viewBox="0 0 24 24" fill="none" xmlns="http://www.w3.org/2000/svg">
<path fill-rule="evenodd" clip-rule="evenodd" d="M21.9981 11.1822H13.5817C13.1679 11.1822 12.8299 11.5185 12.8299 11.9328C12.8299 12.3472 13.1679 12.6835 13.5817 12.6835H21.9981C22.412 12.6835 22.75 12.3472 22.75 11.9328C22.75 11.5185 22.412 11.1822 21.9981 11.1822Z" fill="black"/>
<path fill-rule="evenodd" clip-rule="evenodd" d="M21.9981 2.52591L13.5817 2.52591C13.1679 2.52591 12.8299 2.86219 12.8299 3.27654C12.8299 3.69089 13.1679 4.02718 13.5817 4.02718H21.9981C22.412 4.02718 22.75 3.69089 22.75 3.27654C22.75 2.86219 22.412 2.52591 21.9981 2.52591Z" fill="black"/>
<path fill-rule="evenodd" clip-rule="evenodd" d="M21.9981 19.8385H13.5817C13.1679 19.8385 12.8299 20.1748 12.8299 20.5892C12.8299 21.0035 13.1679 21.3398 13.5817 21.3398H21.9981C22.412 21.3398 22.75 21.0035 22.75 20.5892C22.75 20.1748 22.412 19.8385 21.9981 19.8385Z" fill="black"/>
<path fill-rule="evenodd" clip-rule="evenodd" d="M19.382 6.85352H13.5774C13.162 6.85352 12.8269 7.1898 12.8269 7.60415C12.8269 8.0185 13.162 8.35478 13.5774 8.35478H19.382C19.7974 8.35478 20.1326 8.0185 20.1326 7.60415C20.1326 7.1898 19.7974 6.85352 19.382 6.85352Z" fill="black"/>
<path fill-rule="evenodd" clip-rule="evenodd" d="M19.382 15.5109H13.5774C13.162 15.5109 12.8269 15.8471 12.8269 16.2615C12.8269 16.6758 13.162 17.0121 13.5774 17.0121H19.382C19.7974 17.0121 20.1326 16.6758 20.1326 16.2615C20.1326 15.8471 19.7974 15.5109 19.382 15.5109Z" fill="black"/>
<path fill-rule="evenodd" clip-rule="evenodd" d="M11.5969 21.9566L11.5969 1.99975C11.5969 1.58592 11.2606 1.2477 10.8463 1.2477C10.4319 1.2477 10.0957 1.58592 10.0957 1.99975L10.0957 21.9566C10.0957 22.3704 10.4319 22.7084 10.8463 22.7084C11.2606 22.7084 11.5969 22.3704 11.5969 21.9566Z" fill="black"/>
<path fill-rule="evenodd" clip-rule="evenodd" d="M6.21561 12.7117H1.85186C1.52148 12.7117 1.25 12.3743 1.25 11.9651C1.25 11.5559 1.52148 11.2185 1.85186 11.2185H6.19563L4.49886 9.52271C4.34814 9.38197 4.26231 9.18435 4.26231 8.97774C4.26231 8.56951 4.59864 8.23315 5.00687 8.23315C5.21348 8.23315 5.41112 8.31898 5.55186 8.4697L8.53023 11.4491C8.81869 11.7375 8.81869 12.2126 8.53023 12.5011L5.55186 15.4804C5.2634 15.7689 4.78831 15.7689 4.49886 15.4804C4.2104 15.192 4.2104 14.7169 4.49886 14.4284L6.21561 12.7117Z" fill="black"/>
</svg>
