<svg width="24" height="24" viewBox="0 0 24 24" fill="none" xmlns="http://www.w3.org/2000/svg">
<g clip-path="url(#clip0_221_18517)">
<path fill-rule="evenodd" clip-rule="evenodd" d="M12 22C17.523 22 22 17.523 22 12C22 6.477 17.523 2 12 2C6.477 2 2 6.477 2 12C2 17.523 6.477 22 12 22ZM16 14.046V11.549C16 9.404 16 8.332 15.414 7.666C14.828 7 13.886 7 12 7C10.114 7 9.172 7 8.586 7.666C8 8.332 8 9.404 8 11.55V14.047C8 15.595 8 16.369 8.326 16.707C8.47472 16.865 8.67304 16.9674 8.888 16.997C9.326 17.053 9.838 16.544 10.863 15.524C11.316 15.074 11.543 14.848 11.805 14.789C11.9334 14.7605 12.0666 14.7605 12.195 14.789C12.457 14.848 12.684 15.073 13.137 15.524C14.161 16.544 14.674 17.054 15.113 16.997C15.3272 16.9669 15.5248 16.8646 15.673 16.707C16 16.369 16 15.595 16 14.047" fill="black"/>
</g>
<defs>
<clipPath id="clip0_221_18517">
<rect width="24" height="24" fill="white"/>
</clipPath>
</defs>
</svg>
