<svg width="24" height="24" viewBox="0 0 24 24" fill="none" xmlns="http://www.w3.org/2000/svg">
<path fill-rule="evenodd" clip-rule="evenodd" d="M13.9734 16.4546H2.00187C1.5858 16.4546 1.25006 16.7915 1.25006 17.2065C1.25006 17.6216 1.5858 17.9584 2.00187 17.9584H13.9734C14.3895 17.9584 14.7251 17.6216 14.7251 17.2065C14.7251 16.7915 14.3895 16.4546 13.9734 16.4546Z" fill="black"/>
<path fill-rule="evenodd" clip-rule="evenodd" d="M18.0319 21.2137H2.00555C1.58898 21.2137 1.25192 21.5505 1.25192 21.9656C1.25192 22.3806 1.58898 22.7175 2.00555 22.7175H18.0319C18.4485 22.7175 18.7855 22.3806 18.7855 21.9656C18.7855 21.5505 18.4485 21.2137 18.0319 21.2137Z" fill="black"/>
<path fill-rule="evenodd" clip-rule="evenodd" d="M21.9969 11.2535H2.00642C1.5919 11.2535 1.25311 11.5903 1.25311 12.0054C1.25311 12.4204 1.5919 12.7573 2.00642 12.7573H21.9969C22.4114 12.7573 22.75 12.4204 22.75 12.0054C22.75 11.5903 22.4114 11.2535 21.9969 11.2535Z" fill="black"/>
<path fill-rule="evenodd" clip-rule="evenodd" d="M13.9734 6.23279L2.00187 6.23279C1.5858 6.23279 1.25006 6.56964 1.25006 6.98469C1.25006 7.39974 1.5858 7.73659 2.00187 7.73659L13.9734 7.73659C14.3895 7.73659 14.7251 7.39974 14.7251 6.98469C14.7251 6.56964 14.3895 6.23279 13.9734 6.23279Z" fill="black"/>
<path fill-rule="evenodd" clip-rule="evenodd" d="M18.0319 1.2482L2.00555 1.2482C1.58898 1.2482 1.25192 1.58505 1.25192 2.0001C1.25192 2.41515 1.58898 2.752 2.00555 2.752L18.0319 2.752C18.4485 2.752 18.7855 2.41515 18.7855 2.0001C18.7855 1.58505 18.4485 1.2482 18.0319 1.2482Z" fill="black"/>
</svg>
