<svg width="24" height="24" viewBox="0 0 24 24" fill="none" xmlns="http://www.w3.org/2000/svg">
<g clip-path="url(#clip0_221_18548)">
<path d="M17.9 22C18.9609 22 19.9783 21.5786 20.7284 20.8284C21.4786 20.0783 21.9 19.0609 21.9 18C21.9 16.9391 21.4786 15.9217 20.7284 15.1716C19.9783 14.4214 18.9609 14 17.9 14H17.68L11.878 19.798C11.7585 19.9119 11.6634 20.049 11.5984 20.2007C11.5335 20.3525 11.5 20.5159 11.5 20.681C11.5 21.394 12.077 22 12.79 22H17.9ZM13.284 4.959L12.229 6.014C11.7632 6.48146 11.5012 7.11411 11.5 7.774V16.012C11.5 17.067 11.5 17.594 11.813 17.72C12.127 17.846 12.492 17.465 13.222 16.704L19.06 10.614C19.7946 9.84506 20.1965 8.81763 20.1787 7.75437C20.1609 6.69111 19.7248 5.67769 18.965 4.93375C18.2051 4.18981 17.1827 3.77528 16.1193 3.78001C15.0559 3.78473 14.0372 4.20833 13.284 4.959Z" fill="black"/>
<path fill-rule="evenodd" clip-rule="evenodd" d="M10 6V18C10 19.0609 9.57857 20.0783 8.82843 20.8284C8.07828 21.5786 7.06087 22 6 22C4.93913 22 3.92172 21.5786 3.17157 20.8284C2.42143 20.0783 2 19.0609 2 18V6C2 4.93913 2.42143 3.92172 3.17157 3.17157C3.92172 2.42143 4.93913 2 6 2C7.06087 2 8.07828 2.42143 8.82843 3.17157C9.57857 3.92172 10 4.93913 10 6ZM6 19C6.26522 19 6.51957 18.8946 6.70711 18.7071C6.89464 18.5196 7 18.2652 7 18C7 17.7348 6.89464 17.4804 6.70711 17.2929C6.51957 17.1054 6.26522 17 6 17C5.73478 17 5.48043 17.1054 5.29289 17.2929C5.10536 17.4804 5 17.7348 5 18C5 18.2652 5.10536 18.5196 5.29289 18.7071C5.48043 18.8946 5.73478 19 6 19Z" fill="black"/>
</g>
<defs>
<clipPath id="clip0_221_18548">
<rect width="24" height="24" fill="white"/>
</clipPath>
</defs>
</svg>
