<svg width="24" height="24" viewBox="0 0 24 24" fill="none" xmlns="http://www.w3.org/2000/svg">
<path fill-rule="evenodd" clip-rule="evenodd" d="M15.385 10.7989V12.9101C15.5245 13.0045 15.6554 13.1129 15.7766 13.2341C16.2863 13.7438 16.5727 14.4358 16.5727 15.1568C16.5727 15.8778 16.2863 16.5698 15.7766 17.0794C15.6554 17.2007 15.5245 17.309 15.385 17.4045V20.1834C15.385 20.4505 15.4912 20.708 15.68 20.8979C15.8699 21.0868 16.1264 21.1929 16.3946 21.1929H16.9858C17.3892 21.1929 17.798 21.5084 17.798 21.9976C17.798 22.4279 17.46 22.7798 17.0351 22.8013L16.3946 22.8023C15.7004 22.8023 15.0342 22.5266 14.5428 22.0352C14.0514 21.5438 13.7757 20.8775 13.7757 20.1834V17.8766H12.78C12.7961 17.9388 12.8047 18.0053 12.8047 18.0729V21.9976C12.8047 22.4418 12.4442 22.8023 12 22.8023C11.5558 22.8023 11.1953 22.4418 11.1953 21.9976V18.0729C11.1953 18.0053 11.2039 17.9388 11.22 17.8766H10.1353V20.1834C10.1353 20.8775 9.85952 21.5438 9.36813 22.0352C8.87674 22.5266 8.21047 22.8023 7.51523 22.8023L6.87576 22.8013C6.44982 22.7798 6.11188 22.4279 6.11188 21.9976C6.11188 21.5084 6.52169 21.1929 6.92403 21.1929H7.51523C7.78345 21.1929 8.04097 21.0868 8.2298 20.8979C8.4197 20.708 8.52592 20.4505 8.52592 20.1834V17.3659C8.40683 17.28 8.29419 17.1846 8.19012 17.0794C7.67941 16.5698 7.3929 15.8788 7.3929 15.1578C7.3929 14.4368 7.67941 13.7438 8.19012 13.2341C8.29419 13.129 8.40683 13.0335 8.52592 12.9488V10.7976L6.37977 10.7972C6.35865 10.7988 6.33729 10.7997 6.31574 10.7997H3.71067C3.07015 10.7997 2.45644 10.5454 2.00367 10.0926C1.55091 9.63987 1.29663 9.02616 1.29663 8.38563V7.38463C1.29663 6.37931 2.11204 5.56283 3.11843 5.56283H3.33302V5.04033C3.33302 3.86549 4.28577 2.91167 5.46168 2.91167H7.65366C7.65366 2.48465 7.82314 2.0759 8.12463 1.77334C8.42612 1.47185 8.83601 1.30231 9.26302 1.30231H14.737C15.164 1.30231 15.5738 1.47185 15.8753 1.77334C16.1768 2.0759 16.3463 2.48465 16.3463 2.91167H18.5383C19.7142 2.91167 20.6669 3.86549 20.6669 5.04033V5.56283H20.8815C21.8879 5.56283 22.7033 6.37931 22.7033 7.38463V8.38563C22.7033 9.02616 22.449 9.63987 21.9963 10.0926C21.5435 10.5454 20.9298 10.7997 20.2893 10.7997H17.6843C17.6764 10.7997 17.6686 10.7996 17.6608 10.7993L15.385 10.7989ZM13.7757 10.7986V12.438H12.8047V10.7984L13.7757 10.7986ZM10.1353 10.7979V12.438H11.1953V10.7981L10.1353 10.7979Z" fill="black"/>
</svg>
