<svg width="24" height="24" viewBox="0 0 24 24" fill="none" xmlns="http://www.w3.org/2000/svg">
<path fill-rule="evenodd" clip-rule="evenodd" d="M11.2849 18.0816V15.0341C11.0727 15.1876 10.8375 15.3106 10.5861 15.3966C9.91348 15.6262 9.1777 15.575 8.54315 15.2561C8.54207 15.255 8.53992 15.2539 8.53884 15.2539C8.48248 15.225 8.42668 15.1951 8.37089 15.1653C8.23598 15.0933 8.10114 15.0212 7.95869 14.9612C7.91298 14.9416 7.86838 14.9176 7.82702 14.8904C7.22405 14.4953 6.80605 13.8727 6.66674 13.1653C6.53177 12.4774 6.67111 11.7634 7.05423 11.1778C6.37288 11.2105 5.70572 10.9787 5.1909 10.5291C4.6554 10.0622 4.33103 9.39929 4.29076 8.68965C4.29076 8.68854 4.29076 8.68641 4.28969 8.68428C4.28634 8.61791 4.28422 8.55153 4.28211 8.48511C4.27735 8.33585 4.27258 8.18628 4.25375 8.03564C4.24722 7.98666 4.24613 7.93654 4.24831 7.88757C4.28966 7.16704 4.61948 6.4944 5.1626 6.01985C5.69157 5.55836 6.37941 5.3222 7.07708 5.36138C6.7092 4.78779 6.57534 4.09338 6.70812 3.42292C6.84526 2.72634 7.25669 2.11359 7.84988 1.72394L7.85532 1.72068C7.90833 1.68652 7.96201 1.65318 8.01577 1.61979C8.14526 1.53937 8.27535 1.45857 8.3984 1.36475C8.43758 1.33536 8.48006 1.30921 8.52469 1.28636C9.16902 0.962011 9.91677 0.91085 10.5992 1.14486C11.2631 1.37125 11.8106 1.84907 12.1262 2.47382C12.4386 1.86757 12.9741 1.405 13.6206 1.18405C14.2922 0.954398 15.029 1.00445 15.6635 1.32336C15.6641 1.3239 15.6649 1.32446 15.6657 1.32502C15.6665 1.32558 15.6674 1.32614 15.6679 1.32668C15.7292 1.35784 15.7897 1.39021 15.8502 1.4226C15.98 1.49202 16.11 1.56156 16.2481 1.61944C16.2938 1.63795 16.3373 1.66185 16.3787 1.68906C16.9816 2.08524 17.4006 2.70672 17.5399 3.41528C17.6738 4.09771 17.5378 4.8041 17.1612 5.38749C17.1841 5.39076 17.2069 5.39407 17.2298 5.39952C17.8828 5.38754 18.5206 5.61828 19.0158 6.05147C19.5513 6.5184 19.8757 7.1812 19.916 7.88976V7.89521C19.9192 7.9594 19.9214 8.02363 19.9236 8.08788C19.9287 8.23932 19.9339 8.39108 19.953 8.54391C19.9584 8.59289 19.9606 8.64298 19.9573 8.69305C19.9159 9.41248 19.5873 10.0861 19.0431 10.5607C18.5196 11.0178 17.8382 11.2541 17.1459 11.2192C17.1546 11.2399 17.1623 11.2606 17.1688 11.2823C17.5073 11.8429 17.626 12.5112 17.4986 13.1577C17.3615 13.8543 16.9501 14.466 16.3558 14.8556C16.3556 14.8559 16.3553 14.8561 16.3549 14.8563C16.3545 14.8566 16.3541 14.8569 16.3536 14.8572C16.3528 14.8578 16.352 14.8583 16.3514 14.8589C16.2943 14.896 16.2363 14.9321 16.1784 14.9683C16.0531 15.0464 15.9273 15.1247 15.8083 15.2147C15.768 15.2452 15.7267 15.2714 15.6821 15.2931C15.0377 15.6175 14.29 15.6686 13.6075 15.4357C13.3594 15.3508 13.1265 15.2311 12.9175 15.0809V18.0838C13.1091 17.9042 13.3246 17.7312 13.564 17.569C14.8908 16.6743 17.0426 16.0877 20.5516 16.818C20.7693 16.8637 20.9576 16.9943 21.0762 17.1815C21.1948 17.3698 21.2308 17.5973 21.1785 17.8117C21.1785 17.8117 20.6583 19.9994 18.4815 21.3904C17.122 22.2589 15.0954 22.8423 12.0946 22.2742C9.10042 22.8391 7.07707 22.2557 5.71982 21.3882C3.54409 19.9972 3.02384 17.8095 3.02384 17.8095C2.97051 17.594 3.00751 17.3677 3.12615 17.1794C3.2437 16.9922 3.4331 16.8615 3.64969 16.8158C7.15873 16.0855 9.31156 16.6721 10.6383 17.5668C10.8778 17.729 11.0923 17.9021 11.2849 18.0816ZM12.0938 11.0615C13.6259 11.0615 14.868 9.81937 14.868 8.28717C14.868 6.75497 13.6259 5.51288 12.0938 5.51288C10.5616 5.51288 9.31946 6.75497 9.31946 8.28717C9.31946 9.81937 10.5616 11.0615 12.0938 11.0615Z" fill="black"/>
</svg>
