<svg width="24" height="24" viewBox="0 0 24 24" fill="none" xmlns="http://www.w3.org/2000/svg">
<path fill-rule="evenodd" clip-rule="evenodd" d="M11.166 18.0522V21.6041C11.166 22.0511 11.5288 22.4138 11.9757 22.4138C12.4227 22.4138 12.7854 22.0511 12.7854 21.6041V18.1591C15.7338 19.1826 17.8185 16.8193 18.3734 16.0928C18.8106 15.879 19.8481 15.3155 20.7172 14.4054C21.529 13.5568 22.1865 12.4211 22.1865 11.0165C22.1865 8.37479 20.3091 6.76836 19.4616 6.17782C19.2241 3.5177 16.9062 2.82784 16.0555 2.66374C14.7794 1.45999 13.526 0.998984 12.4043 0.924492C10.2321 0.779827 8.50917 2.14339 7.87544 2.73069C6.75051 2.79007 6.02173 3.14955 5.54131 3.58895C4.80935 4.25937 4.63232 5.17701 4.61828 5.85284C4.14974 5.96727 3.57323 6.21129 3.05826 6.72302C2.40619 7.37078 1.81348 8.47951 1.81348 10.4314C1.81348 14.3201 4.62153 15.8164 5.62987 16.2288C6.64037 18.1192 8.31482 18.4787 9.77119 18.3405C10.2808 18.2919 10.7612 18.1775 11.166 18.0522ZM9.34498 8.11539C9.26317 7.6812 8.84487 7.39555 8.41068 7.47736C7.97649 7.55917 7.69083 7.97747 7.77265 8.41166C7.89476 9.05974 8.22238 10.0426 8.86659 10.8753C9.39213 11.5546 10.1513 12.1564 11.175 12.3536V16.2992C11.175 16.741 11.5332 17.0992 11.975 17.0992C12.4169 17.0992 12.775 16.741 12.775 16.2992V15.0086C14.1559 14.8688 15.1446 14.2012 15.7907 13.354C16.5238 12.3926 16.7957 11.2319 16.7856 10.4265C16.7801 9.98469 16.4175 9.63102 15.9757 9.63654C15.5339 9.64205 15.1802 10.0047 15.1857 10.4465C15.1919 10.9383 15.0096 11.7397 14.5185 12.3837C14.1549 12.8605 13.6096 13.2714 12.775 13.3965V8.35505C12.775 7.91323 12.4169 7.55505 11.975 7.55505C11.5332 7.55505 11.175 7.91323 11.175 8.35505V10.6981C10.7497 10.5438 10.4102 10.2557 10.1321 9.89622C9.68174 9.31411 9.43368 8.58617 9.34498 8.11539Z" fill="black"/>
</svg>
