<svg width="24" height="24" viewBox="0 0 24 24" fill="none" xmlns="http://www.w3.org/2000/svg">
<g clip-path="url(#clip0_221_18787)">
<path d="M11.25 2.08301C11.0043 2.13812 10.7652 2.21959 10.537 2.32601C6.553 4.18801 4 9.39501 4 13.856C4 18.096 7.183 21.58 11.25 21.965V2.08301ZM12.75 21.965C16.817 21.58 20 18.097 20 13.857C20 13.4503 19.979 13.039 19.937 12.623L12.75 19.811V21.965ZM18.26 7.18001C17.8763 6.46066 17.4278 5.77783 16.92 5.14001L12.75 9.31001V12.69L18.26 7.18001ZM15.908 4.03001C15.191 3.3329 14.3652 2.75735 13.463 2.32601C13.2348 2.21959 12.9957 2.13812 12.75 2.08301V7.18901L15.908 4.03001ZM18.936 8.62401L12.75 14.811V17.689L19.5 10.939L19.632 10.807C19.456 10.0627 19.2233 9.33286 18.936 8.62401Z" fill="black"/>
</g>
<defs>
<clipPath id="clip0_221_18787">
<rect width="24" height="24" fill="white"/>
</clipPath>
</defs>
</svg>
