<svg width="24" height="24" viewBox="0 0 24 24" fill="none" xmlns="http://www.w3.org/2000/svg">
<path fill-rule="evenodd" clip-rule="evenodd" d="M11.376 22.0261V20.3022H6.85322C6.15792 20.3022 5.51888 19.9137 5.19882 19.2957C4.87876 18.6776 4.93067 17.9327 5.3324 17.3632L7.59487 14.1615C7.17548 14.0688 6.8113 13.794 6.60823 13.4033C6.35549 12.9166 6.3941 12.3284 6.70974 11.8792L8.85857 8.81874C8.46788 8.7161 8.13123 8.45122 7.9403 8.0804C7.69198 7.5981 7.73396 7.01649 8.0507 6.57392L11.4797 1.77745C11.5537 1.64612 11.6585 1.54236 11.7821 1.47062L11.8086 1.45519C12.0282 1.336 12.2964 1.31725 12.5381 1.4232C12.707 1.49604 12.8417 1.62181 12.9277 1.77301C12.9355 1.78515 16.3568 6.57392 16.3568 6.57392C16.6735 7.01649 16.7154 7.5981 16.4671 8.0804C16.2762 8.45122 15.9396 8.7161 15.5489 8.81874L17.6977 11.8792C18.0133 12.3284 18.052 12.9166 17.7993 13.4033C17.5962 13.794 17.2319 14.0688 16.8125 14.1615L19.0751 17.3632C19.4779 17.9327 19.5286 18.6776 19.2086 19.2957C18.8885 19.9137 18.2506 20.3022 17.5542 20.3022H13.0315V22.0261C13.0315 22.483 12.6607 22.8538 12.2037 22.8538C11.7468 22.8538 11.376 22.483 11.376 22.0261ZM12.6099 1.46954L12.5624 1.44522C12.579 1.45295 12.5944 1.46071 12.6099 1.46954Z" fill="black"/>
</svg>
