<svg width="24" height="24" viewBox="0 0 24 24" fill="none" xmlns="http://www.w3.org/2000/svg">
<path fill-rule="evenodd" clip-rule="evenodd" d="M13.0173 9.46353L13.0286 9.45786V2.23075C13.0286 1.76171 13.4138 1.38104 13.8783 1.38104H19.9509C20.4608 1.38104 20.9252 1.65068 21.1858 2.08913C21.435 2.52759 21.435 3.06802 21.1858 3.5076L20.4607 4.7765L21.0952 5.76105C21.3785 6.19723 21.3898 6.7535 21.1406 7.21008C20.9027 7.66666 20.4154 7.95102 19.8942 7.95102H14.7281V9.42162C15.2945 9.60063 15.7817 9.9677 16.1102 10.4719L22.3641 19.9716C22.738 20.5483 22.7719 21.2869 22.4434 21.8942C22.1148 22.5015 21.4804 22.881 20.7893 22.881H2.69616C2.19766 22.881 1.73309 22.6091 1.49517 22.1718C1.25725 21.7345 1.27996 21.202 1.55187 20.7839L4.20293 16.6577C4.48617 16.2249 4.95066 15.9485 5.46048 15.9111C5.98164 15.8737 6.48022 16.0799 6.8201 16.4674L7.35256 17.0747L11.7597 10.4571C11.8617 10.3065 11.9863 10.1648 12.1109 10.0368C12.3715 9.7864 12.6774 9.59155 13.0173 9.46353ZM14.694 11.4054L17.4018 15.5214L16.3935 16.4685C16.2575 16.6056 16.031 16.6181 15.8723 16.498L15.3965 16.1434C14.6714 15.5962 13.6857 15.5735 12.9379 16.0856L12.2355 16.5626C12.0882 16.6691 11.873 16.6566 11.7371 16.532L10.4908 15.4319L13.1759 11.4009C13.3459 11.1471 13.629 10.9952 13.9349 10.9964C14.2408 10.9975 14.5241 11.1516 14.694 11.4054ZM19.3845 6.2516H14.7281V3.08046H19.475L18.8972 4.07864C18.6366 4.53975 18.648 5.10846 18.9426 5.55484L19.3845 6.2516Z" fill="black"/>
</svg>
