<svg width="24" height="24" viewBox="0 0 24 24" fill="none" xmlns="http://www.w3.org/2000/svg">
<g clip-path="url(#clip0_221_20598)">
<path fill-rule="evenodd" clip-rule="evenodd" d="M6 13.1627C6 9.78966 8.686 7.05566 12 7.05566C15.314 7.05566 18 9.78966 18 13.1627C18 16.5097 16.085 20.4147 13.097 21.8117C12.7536 21.9722 12.3791 22.0555 12 22.0555C11.6209 22.0555 11.2464 21.9722 10.903 21.8117C7.915 20.4147 6 16.5097 6 13.1627ZM12 15.0557C12.5304 15.0557 13.0391 14.845 13.4142 14.4699C13.7893 14.0948 14 13.5861 14 13.0557C14 12.5252 13.7893 12.0165 13.4142 11.6415C13.0391 11.2664 12.5304 11.0557 12 11.0557C11.4696 11.0557 10.9609 11.2664 10.5858 11.6415C10.2107 12.0165 10 12.5252 10 13.0557C10 13.5861 10.2107 14.0948 10.5858 14.4699C10.9609 14.845 11.4696 15.0557 12 15.0557Z" fill="black"/>
<path fill-rule="evenodd" clip-rule="evenodd" d="M5.43487 13.7168C5.29463 11.8589 5.80109 7.89087 10.6138 6.59066C10.9468 5.6617 10.4875 3.02999 7.97457 2.06917C4.01576 0.555491 1.55337 2.90535 1.08552 5.03834C0.600297 7.25052 1.4154 11.1318 5.43487 13.7168ZM5.76135 7.92871C6.70803 7.92871 7.47546 7.16128 7.47546 6.2146C7.47546 5.26792 6.70803 4.50049 5.76135 4.50049C4.81467 4.50049 4.04724 5.26792 4.04724 6.2146C4.04724 7.16128 4.81467 7.92871 5.76135 7.92871Z" fill="black"/>
<path fill-rule="evenodd" clip-rule="evenodd" d="M18.578 13.7168C18.7182 11.8589 18.2118 7.89087 13.3991 6.59066C13.0661 5.6617 13.5254 3.02999 16.0383 2.06917C19.9971 0.555491 22.4595 2.90535 22.9273 5.03834C23.4126 7.25052 22.5975 11.1318 18.578 13.7168ZM18.2515 7.92871C17.3048 7.92871 16.5374 7.16128 16.5374 6.2146C16.5374 5.26792 17.3048 4.50049 18.2515 4.50049C19.1982 4.50049 19.9656 5.26792 19.9656 6.2146C19.9656 7.16128 19.1982 7.92871 18.2515 7.92871Z" fill="black"/>
</g>
<defs>
<clipPath id="clip0_221_20598">
<rect width="24" height="24" fill="white"/>
</clipPath>
</defs>
</svg>
