<svg width="24" height="24" viewBox="0 0 24 24" fill="none" xmlns="http://www.w3.org/2000/svg">
<path fill-rule="evenodd" clip-rule="evenodd" d="M4 10.1642C4 5.66724 7.582 2.02124 12 2.02124C16.418 2.02124 20 5.66624 20 10.1652C20 14.6272 17.447 19.8332 13.463 21.6952C13.0051 21.9097 12.5056 22.0208 12 22.0208C11.4944 22.0208 10.9949 21.9097 10.537 21.6952C6.553 19.8342 4 14.6262 4 10.1642ZM14.6806 9.22702C14.9536 8.91952 14.9251 8.44176 14.6176 8.16876H14.6191C14.4818 8.0465 14.3041 7.979 14.1196 7.979C13.9051 7.979 13.7011 8.07051 13.5586 8.23101L11.4525 10.601L10.6808 9.73103C10.5383 9.57053 10.3343 9.47903 10.1198 9.47903C9.70801 9.47903 9.36975 9.81728 9.36975 10.229C9.36975 10.4128 9.43725 10.5898 9.55875 10.727L10.893 12.2271C11.0348 12.3868 11.2395 12.4791 11.4533 12.4791C11.667 12.4791 11.8718 12.3868 12.0135 12.2271L14.6806 9.22702Z" fill="black"/>
</svg>
