<svg width="24" height="24" viewBox="0 0 24 24" fill="none" xmlns="http://www.w3.org/2000/svg">
<g clip-path="url(#clip0_221_19595)">
<path d="M15.7474 18.0925C16.0567 18.1483 16.4788 18.2834 17.244 18.539L17.287 18.553C17.949 18.774 18.507 18.96 18.967 19.056C19.444 19.155 19.937 19.187 20.415 18.975C20.6981 18.8489 20.952 18.6657 21.161 18.437C21.514 18.051 21.64 17.573 21.696 17.089C21.75 16.623 21.75 16.034 21.75 15.336V7.12396C21.75 6.63496 21.75 6.20696 21.71 5.85396C21.666 5.47296 21.569 5.10496 21.325 4.76596C21.081 4.42696 20.762 4.21896 20.414 4.05696C20.102 3.91115 19.7087 3.77952 19.2617 3.62991L19.223 3.61696L18.021 3.21696L17.861 3.16296C17.0232 2.88253 16.3618 2.66204 15.7474 2.59143V18.0925Z" fill="black"/>
<path d="M14.2474 2.77338C13.6485 2.99896 13.05 3.39798 12.282 3.90996L12.142 4.00396L10.76 4.92596C10.2972 5.23384 9.97698 5.4442 9.72974 5.58961V21.2359C10.3366 21.0119 10.9404 20.6091 11.718 20.09L11.858 19.997L13.24 19.075C13.6886 18.776 14.0033 18.569 14.2474 18.4241V2.77338Z" fill="black"/>
<path d="M8.22974 21.4066C7.622 21.3329 6.96657 21.114 6.139 20.837L5.979 20.784L4.777 20.384L4.73836 20.371C4.29138 20.2214 3.89802 20.0898 3.586 19.944C3.238 19.782 2.919 19.574 2.675 19.234C2.431 18.896 2.334 18.528 2.29 18.146C2.25 17.793 2.25 17.366 2.25 16.877V8.66496C2.25 7.96596 2.25 7.37696 2.304 6.91196C2.36 6.42796 2.486 5.94996 2.839 5.56396C3.04797 5.33517 3.30194 5.15201 3.585 5.02596C4.063 4.81296 4.557 4.84496 5.033 4.94496C5.48748 5.03882 6.03762 5.22248 6.6892 5.44001L6.713 5.44796L6.756 5.46196C7.50227 5.71049 7.92222 5.84537 8.22974 5.90387V21.4066Z" fill="black"/>
</g>
<defs>
<clipPath id="clip0_221_19595">
<rect width="24" height="24" fill="white"/>
</clipPath>
</defs>
</svg>
