<svg width="24" height="24" viewBox="0 0 24 24" fill="none" xmlns="http://www.w3.org/2000/svg">
<g clip-path="url(#clip0_221_19557)">
<path d="M17 2C16.2696 1.99975 15.5643 2.26595 15.0162 2.74867C14.4681 3.23138 14.1149 3.89747 14.0229 4.622C13.9309 5.34654 14.1063 6.07977 14.5163 6.68417C14.9263 7.28858 15.5428 7.72266 16.25 7.905V13C16.25 13.1989 16.329 13.3897 16.4697 13.5303C16.6103 13.671 16.8011 13.75 17 13.75C17.1989 13.75 17.3897 13.671 17.5303 13.5303C17.671 13.3897 17.75 13.1989 17.75 13V7.905C18.4557 7.7211 19.0703 7.28652 19.4789 6.68249C19.8875 6.07846 20.0622 5.34631 19.9703 4.62287C19.8784 3.89943 19.5262 3.23419 18.9796 2.75149C18.433 2.26879 17.7293 2.00165 17 2ZM8 22H16C18.482 22 19.875 22 20.773 21.406L12.259 16.723L4.216 21.803C5.087 22 6.283 22 8 22ZM10.758 15.898L2.51 11.362C2 12.263 2 13.64 2 16C2 18.666 2 20.075 2.736 20.964L10.758 15.898Z" fill="black"/>
<path d="M22 16C22 13.172 22 11.757 21.121 10.879C20.631 10.389 19.975 10.172 19 10.076V13C19 13.5304 18.7893 14.0391 18.4142 14.4142C18.0391 14.7893 17.5304 15 17 15C16.4696 15 15.9609 14.7893 15.5858 14.4142C15.2107 14.0391 15 13.5304 15 13V10H8C5.955 10 4.65 10 3.75 10.332L21.687 20.197C22 19.3 22 18.006 22 16Z" fill="black"/>
</g>
<defs>
<clipPath id="clip0_221_19557">
<rect width="24" height="24" fill="white"/>
</clipPath>
</defs>
</svg>
