<svg width="24" height="24" viewBox="0 0 24 24" fill="none" xmlns="http://www.w3.org/2000/svg">
<g clip-path="url(#clip0_221_19584)">
<path fill-rule="evenodd" clip-rule="evenodd" d="M12 2C7.582 2 4 5.646 4 10.143C4 14.605 6.553 19.813 10.537 21.674C10.9949 21.8884 11.4944 21.9996 12 21.9996C12.5056 21.9996 13.0051 21.8884 13.463 21.674C17.447 19.812 20 14.606 20 10.144C20 5.645 16.418 2 12 2ZM8.25 10C8.25 9.80109 8.32902 9.61032 8.46967 9.46967C8.61032 9.32902 8.80109 9.25 9 9.25H15C15.1989 9.25 15.3897 9.32902 15.5303 9.46967C15.671 9.61032 15.75 9.80109 15.75 10C15.75 10.1989 15.671 10.3897 15.5303 10.5303C15.3897 10.671 15.1989 10.75 15 10.75H9C8.80109 10.75 8.61032 10.671 8.46967 10.5303C8.32902 10.3897 8.25 10.1989 8.25 10Z" fill="black"/>
</g>
<defs>
<clipPath id="clip0_221_19584">
<rect width="24" height="24" fill="white"/>
</clipPath>
</defs>
</svg>
