<svg width="24" height="24" viewBox="0 0 24 24" fill="none" xmlns="http://www.w3.org/2000/svg">
<g clip-path="url(#clip0_221_19579)">
<path fill-rule="evenodd" clip-rule="evenodd" d="M12 2C7.582 2 4 5.646 4 10.143C4 14.605 6.553 19.813 10.537 21.674C10.9949 21.8884 11.4944 21.9996 12 21.9996C12.5056 21.9996 13.0051 21.8884 13.463 21.674C17.447 19.812 20 14.606 20 10.144C20 5.645 16.418 2 12 2ZM12 6.75C12.1989 6.75 12.3897 6.82902 12.5303 6.96967C12.671 7.11032 12.75 7.30109 12.75 7.5V9.25H14.5C14.6989 9.25 14.8897 9.32902 15.0303 9.46967C15.171 9.61032 15.25 9.80109 15.25 10C15.25 10.1989 15.171 10.3897 15.0303 10.5303C14.8897 10.671 14.6989 10.75 14.5 10.75H12.75V12.5C12.75 12.6989 12.671 12.8897 12.5303 13.0303C12.3897 13.171 12.1989 13.25 12 13.25C11.8011 13.25 11.6103 13.171 11.4697 13.0303C11.329 12.8897 11.25 12.6989 11.25 12.5V10.75H9.5C9.30109 10.75 9.11032 10.671 8.96967 10.5303C8.82902 10.3897 8.75 10.1989 8.75 10C8.75 9.80109 8.82902 9.61032 8.96967 9.46967C9.11032 9.32902 9.30109 9.25 9.5 9.25H11.25V7.5C11.25 7.30109 11.329 7.11032 11.4697 6.96967C11.6103 6.82902 11.8011 6.75 12 6.75Z" fill="black"/>
</g>
<defs>
<clipPath id="clip0_221_19579">
<rect width="24" height="24" fill="white"/>
</clipPath>
</defs>
</svg>
