<svg width="24" height="24" viewBox="0 0 24 24" fill="none" xmlns="http://www.w3.org/2000/svg">
<g clip-path="url(#clip0_221_19605)">
<path d="M19.3518 3.66009C19.322 3.6501 19.292 3.64005 19.2617 3.62991L19.223 3.61696L18.021 3.21696L17.861 3.16296C17.0232 2.88253 16.3618 2.66204 15.7474 2.59143V7.26452L19.3518 3.66009Z" fill="black"/>
<path d="M14.2474 8.76452V2.77338C13.6485 2.99896 13.05 3.39798 12.282 3.90996L12.142 4.00396L10.76 4.92596C10.2972 5.23384 9.97698 5.4442 9.72974 5.58961V13.2822L14.2474 8.76452Z" fill="black"/>
<path d="M9.72974 15.4035L14.2474 10.8858V18.4241C14.0033 18.569 13.6886 18.776 13.24 19.075L11.858 19.997L11.718 20.09C10.9404 20.6091 10.3366 21.0119 9.72974 21.2359V15.4035Z" fill="black"/>
<path d="M8.22974 14.7822V5.90387C7.92222 5.84537 7.50227 5.71049 6.756 5.46196L6.713 5.44796L6.68921 5.44001C6.03763 5.22248 5.48747 5.03882 5.033 4.94496C4.557 4.84496 4.063 4.81296 3.585 5.02596C3.30194 5.15201 3.04797 5.33517 2.839 5.56396C2.486 5.94996 2.36 6.42796 2.304 6.91196C2.25 7.37696 2.25 7.96596 2.25 8.66496V16.877C2.25 17.366 2.25 17.793 2.29 18.146C2.334 18.528 2.431 18.896 2.675 19.234C2.83753 19.4604 3.03333 19.6283 3.24882 19.7631L8.22974 14.7822Z" fill="black"/>
<path d="M4.75622 20.377L8.22974 16.9035V21.4066C7.622 21.3329 6.96657 21.114 6.139 20.837L5.979 20.784L4.777 20.384L4.75622 20.377Z" fill="black"/>
<path d="M15.7474 9.38584L20.8383 4.29489C21.0195 4.41936 21.1847 4.57099 21.325 4.76596C21.569 5.10496 21.666 5.47296 21.71 5.85396C21.75 6.20696 21.75 6.63496 21.75 7.12396V15.336C21.75 16.034 21.75 16.623 21.696 17.089C21.64 17.573 21.514 18.051 21.161 18.437C20.952 18.6657 20.6981 18.8489 20.415 18.975C19.937 19.187 19.444 19.155 18.967 19.056C18.507 18.96 17.949 18.774 17.287 18.553L17.244 18.539C16.4788 18.2834 16.0567 18.1483 15.7474 18.0925V9.38584Z" fill="black"/>
</g>
<defs>
<clipPath id="clip0_221_19605">
<rect width="24" height="24" fill="white"/>
</clipPath>
</defs>
</svg>
