<svg width="24" height="24" viewBox="0 0 24 24" fill="none" xmlns="http://www.w3.org/2000/svg">
<g clip-path="url(#clip0_221_19547)">
<path fill-rule="evenodd" clip-rule="evenodd" d="M12 22C17.523 22 22 17.523 22 12C22 6.477 17.523 2 12 2C6.477 2 2 6.477 2 12C2 17.523 6.477 22 12 22ZM13.956 14.095C13.763 14.265 13.516 14.363 13.024 14.56C10.714 15.484 9.559 15.946 8.9 15.498C8.74341 15.3916 8.60836 15.2566 8.502 15.1C8.054 14.44 8.516 13.286 9.44 10.976C9.637 10.483 9.735 10.236 9.905 10.043C9.94833 9.99433 9.99467 9.94833 10.044 9.905C10.237 9.735 10.484 9.637 10.976 9.44C13.286 8.516 14.44 8.054 15.1 8.502C15.2566 8.60836 15.3916 8.74341 15.498 8.9C15.946 9.56 15.484 10.714 14.56 13.024C14.363 13.517 14.265 13.763 14.095 13.956C14.0517 14.006 14.0053 14.0523 13.956 14.095Z" fill="black"/>
</g>
<defs>
<clipPath id="clip0_221_19547">
<rect width="24" height="24" fill="white"/>
</clipPath>
</defs>
</svg>
