<svg width="24" height="24" viewBox="0 0 24 24" fill="none" xmlns="http://www.w3.org/2000/svg">
<g clip-path="url(#clip0_221_19552)">
<path fill-rule="evenodd" clip-rule="evenodd" d="M12.75 2C12.75 1.80109 12.671 1.61032 12.5304 1.46967C12.3897 1.32902 12.1989 1.25 12 1.25C11.8011 1.25 11.6103 1.32902 11.4697 1.46967C11.329 1.61032 11.25 1.80109 11.25 2V3.5H6.70403C6.04603 3.5 5.71802 3.5 5.41602 3.598C5.28276 3.6411 5.15439 3.69808 5.03303 3.768C4.75903 3.928 4.53902 4.172 4.10002 4.662C3.25002 5.609 2.82403 6.082 2.72103 6.636C2.67649 6.87662 2.67649 7.12338 2.72103 7.364C2.82403 7.917 3.24902 8.391 4.10002 9.338C4.54002 9.828 4.75903 10.072 5.03303 10.231C5.15503 10.301 5.28269 10.3577 5.41602 10.401C5.71802 10.5 6.04603 10.5 6.70403 10.5H11.25V12.5H6.50003C5.09602 12.5 4.39302 12.5 3.88902 12.837C3.67055 12.983 3.48298 13.1705 3.33702 13.389C3.00002 13.893 3.00003 14.596 3.00003 16C3.00003 17.404 3.00002 18.107 3.33702 18.611C3.48298 18.8295 3.67055 19.017 3.88902 19.163C4.39302 19.5 5.09602 19.5 6.50003 19.5H11.25V21.25H10C9.80111 21.25 9.61035 21.329 9.4697 21.4697C9.32904 21.6103 9.25003 21.8011 9.25003 22C9.25003 22.1989 9.32904 22.3897 9.4697 22.5303C9.61035 22.671 9.80111 22.75 10 22.75H14C14.1989 22.75 14.3897 22.671 14.5304 22.5303C14.671 22.3897 14.75 22.1989 14.75 22C14.75 21.8011 14.671 21.6103 14.5304 21.4697C14.3897 21.329 14.1989 21.25 14 21.25H12.75V19.5H17.296C17.954 19.5 18.282 19.5 18.584 19.402C18.7174 19.358 18.845 19.3013 18.967 19.232C19.241 19.072 19.461 18.828 19.9 18.338C20.75 17.391 21.176 16.918 21.279 16.364C21.3236 16.1234 21.3236 15.8766 21.279 15.636C21.176 15.083 20.751 14.609 19.9 13.662C19.46 13.172 19.241 12.928 18.967 12.769C18.8457 12.6991 18.7173 12.6421 18.584 12.599C18.282 12.5 17.954 12.5 17.296 12.5H12.75V10.5H17.5C18.904 10.5 19.607 10.5 20.111 10.163C20.3295 10.017 20.5171 9.82947 20.663 9.611C21 9.107 21 8.404 21 7C21 5.596 21 4.893 20.663 4.389C20.5171 4.17053 20.3295 3.98296 20.111 3.837C19.607 3.5 18.904 3.5 17.5 3.5H12.75V2Z" fill="black"/>
</g>
<defs>
<clipPath id="clip0_221_19552">
<rect width="24" height="24" fill="white"/>
</clipPath>
</defs>
</svg>
