<svg width="24" height="24" viewBox="0 0 24 24" fill="none" xmlns="http://www.w3.org/2000/svg">
<g clip-path="url(#clip0_221_19568)">
<path d="M12 22C17.523 22 22 19.986 22 17.5C22 16.234 20.837 15.09 18.965 14.271C17.823 16.367 16.082 18.174 13.87 19.119C13.2786 19.3704 12.6426 19.5 12 19.5C11.3574 19.5 10.7214 19.3704 10.13 19.119C7.918 18.174 6.177 16.367 5.035 14.272C3.163 15.089 2 16.234 2 17.5C2 19.986 6.477 22 12 22Z" fill="black"/>
<path fill-rule="evenodd" clip-rule="evenodd" d="M5 8.515C5 4.917 8.134 2 12 2C15.866 2 19 4.917 19 8.515C19 12.085 16.766 16.25 13.28 17.74C12.8751 17.9116 12.4398 18.0001 12 18.0001C11.5602 18.0001 11.1249 17.9116 10.72 17.74C7.234 16.25 5 12.084 5 8.515ZM12 11C12.5304 11 13.0391 10.7893 13.4142 10.4142C13.7893 10.0391 14 9.53043 14 9C14 8.46957 13.7893 7.96086 13.4142 7.58579C13.0391 7.21071 12.5304 7 12 7C11.4696 7 10.9609 7.21071 10.5858 7.58579C10.2107 7.96086 10 8.46957 10 9C10 9.53043 10.2107 10.0391 10.5858 10.4142C10.9609 10.7893 11.4696 11 12 11Z" fill="black"/>
</g>
<defs>
<clipPath id="clip0_221_19568">
<rect width="24" height="24" fill="white"/>
</clipPath>
</defs>
</svg>
