<svg width="24" height="24" viewBox="0 0 24 24" fill="none" xmlns="http://www.w3.org/2000/svg">
<g clip-path="url(#clip0_221_18856)">
<g clip-path="url(#clip1_221_18856)">
<path d="M18.2928 12.7072C18.3265 16.333 21.4735 17.5395 21.5084 17.5549C21.4817 17.6399 21.0055 19.2743 19.8503 20.9624C18.8517 22.422 17.8153 23.8761 16.1827 23.9062C14.5785 23.9358 14.0626 22.955 12.2285 22.955C10.395 22.955 9.82185 23.8762 8.30326 23.9358C6.72735 23.9955 5.52726 22.3576 4.52042 20.9034C2.46296 17.9289 0.890644 12.4981 3.00187 8.83217C4.05069 7.01168 5.925 5.85887 7.95939 5.82931C9.5069 5.79979 10.9675 6.87042 11.9136 6.87042C12.859 6.87042 14.634 5.58289 16.5 5.77198C17.2812 5.8045 19.474 6.08753 20.882 8.14854C20.7685 8.21887 18.2656 9.67598 18.2928 12.7072ZM15.2778 3.80407C16.1145 2.79132 16.6776 1.38148 16.524 -0.0213013C15.318 0.0271693 13.8597 0.782335 12.9946 1.79453C12.2194 2.69087 11.5405 4.12552 11.7237 5.50054C13.0679 5.60454 14.4411 4.81746 15.2778 3.80407Z" fill="black"/>
</g>
</g>
<defs>
<clipPath id="clip0_221_18856">
<rect width="24" height="24" fill="white"/>
</clipPath>
<clipPath id="clip1_221_18856">
<rect width="19.5084" height="23.9587" fill="white" transform="translate(2 -0.0213013)"/>
</clipPath>
</defs>
</svg>
