<svg width="24" height="24" viewBox="0 0 24 24" fill="none" xmlns="http://www.w3.org/2000/svg">
<g clip-path="url(#clip0_221_18876)">
<path d="M22.93 6.8587C23.0751 6.73809 23.14 6.54606 23.0977 6.36216C23.0554 6.17827 22.9132 6.03384 22.73 5.9887L21.94 5.7887C21.7945 5.75228 21.6731 5.65251 21.6092 5.51688C21.5452 5.38125 21.5455 5.22408 21.61 5.0887L22.05 4.1987C22.1349 4.02258 22.1093 3.81315 21.9846 3.66261C21.8599 3.51206 21.6588 3.44803 21.47 3.4987L19.47 4.0587C19.3189 4.10276 19.1559 4.07313 19.03 3.9787C18.1645 3.32959 17.1119 2.9787 16.03 2.9787C13.2686 2.9787 11.03 5.21727 11.03 7.9787V8.3387C11.0309 8.46586 10.9362 8.57344 10.81 8.5887C8 8.9187 5.31 7.4887 2.41 4.1487C2.28156 4.00705 2.08468 3.94914 1.9 3.9987C1.73378 4.0751 1.62255 4.23619 1.61 4.4187C1.20946 6.06404 1.3714 7.79612 2.07 9.3387C2.11214 9.42211 2.10424 9.52205 2.04953 9.5978C1.99482 9.67356 1.90243 9.71248 1.81 9.6987L0.69 9.4787C0.528567 9.45274 0.364642 9.50736 0.251035 9.62495C0.137429 9.74255 0.0884959 9.90826 0.12 10.0687C0.29489 11.6233 1.1669 13.0141 2.49 13.8487C2.57625 13.8905 2.63103 13.9779 2.63103 14.0737C2.63103 14.1695 2.57625 14.2569 2.49 14.2987L1.96 14.5087C1.82986 14.5609 1.72761 14.6653 1.67817 14.7965C1.62873 14.9277 1.63665 15.0736 1.7 15.1987C2.29494 16.5005 3.49093 17.4274 4.9 17.6787C4.99887 17.7146 5.06471 17.8085 5.06471 17.9137C5.06471 18.0189 4.99887 18.1128 4.9 18.1487C3.54036 18.711 2.08126 18.9933 0.61 18.9787C0.333858 18.9235 0.0652288 19.1026 0.0100003 19.3787C-0.0452282 19.6548 0.133858 19.9235 0.41 19.9787C2.95755 21.1869 5.73118 21.8446 8.55 21.9087C11.0295 21.9465 13.4648 21.2507 15.55 19.9087C19.0338 17.5832 21.1212 13.6673 21.11 9.4787V8.6087C21.1112 8.46173 21.1771 8.32275 21.29 8.2287L22.93 6.8587Z" fill="black"/>
</g>
<defs>
<clipPath id="clip0_221_18876">
<rect width="23.1104" height="18.9315" fill="white" transform="translate(0 2.9787)"/>
</clipPath>
</defs>
</svg>
