<svg width="24" height="24" viewBox="0 0 24 24" fill="none" xmlns="http://www.w3.org/2000/svg">
<g clip-path="url(#clip0_221_18882)">
<g clip-path="url(#clip1_221_18882)">
<path d="M17.5 -0.0213013H6.5C2.91243 -0.0157946 0.00550664 2.89113 0 6.4787V17.4787C0.00550664 21.0663 2.91243 23.9732 6.5 23.9787H17.5C21.0876 23.9732 23.9945 21.0663 24 17.4787V6.4787C23.9945 2.89113 21.0876 -0.0157946 17.5 -0.0213013ZM12 17.4787C8.96243 17.4787 6.5 15.0163 6.5 11.9787C6.5 8.94113 8.96243 6.4787 12 6.4787C15.0376 6.4787 17.5 8.94113 17.5 11.9787C17.5 13.4374 16.9205 14.8363 15.8891 15.8678C14.8576 16.8992 13.4587 17.4787 12 17.4787ZM18.5 6.4787C17.6716 6.4787 17 5.80713 17 4.9787C17 4.15027 17.6716 3.4787 18.5 3.4787C19.3284 3.4787 20 4.15027 20 4.9787C20 5.37652 19.842 5.75805 19.5607 6.03936C19.2794 6.32066 18.8978 6.4787 18.5 6.4787Z" fill="black"/>
</g>
</g>
<defs>
<clipPath id="clip0_221_18882">
<rect width="24" height="24" fill="white"/>
</clipPath>
<clipPath id="clip1_221_18882">
<rect width="24" height="24" fill="white" transform="translate(0 -0.0213013)"/>
</clipPath>
</defs>
</svg>
