<svg width="24" height="24" viewBox="0 0 24 24" fill="none" xmlns="http://www.w3.org/2000/svg">
<g clip-path="url(#clip0_221_18862)">
<g clip-path="url(#clip1_221_18862)">
<path d="M20.581 19.0277C20.031 18.5817 20.245 17.5967 19.674 17.1107C20.227 13.7457 18.677 10.7797 16.829 8.8787C15.278 7.2837 15.778 5.7317 15.778 4.3887C15.778 2.2427 14.897 -0.0213013 12.228 -0.0213013C9.375 -0.0213013 8.593 2.3587 8.565 3.7167C8.497 6.9787 9.224 7.8267 7.315 10.2007C5.069 12.9937 4.738 15.7797 5.245 17.2577C5.008 17.5337 4.688 17.8397 4.09 18.0927C2.438 18.8127 3.649 20.0177 3.192 20.8727C3.062 21.1157 3 21.3697 3 21.6127C3 22.3627 3.596 23.0117 4.679 22.9147C6.14 22.7847 7.488 23.8197 8.36 23.8197C9.13 23.8197 9.762 23.3817 10.056 22.7787C11.433 22.4397 13.133 22.4827 14.509 22.8377C14.756 23.5287 15.426 23.9787 16.171 23.9787C17.802 23.9787 18.116 22.1297 19.987 21.5037C20.661 21.2787 21 20.6247 21 20.0157C21 19.6257 20.861 19.2547 20.581 19.0277ZM11.434 8.5627C11.115 8.5627 10.851 8.3047 10.434 7.9947C9.906 7.6027 9.369 7.3767 9.375 6.9647C9.375 6.6817 9.754 6.5947 10.244 6.2837C10.77 5.9507 10.975 5.6127 11.493 5.6127C12.023 5.6127 12.183 5.8807 12.903 6.1917C13.611 6.4987 14.104 6.6187 14.104 6.9647C14.104 7.3197 13.363 7.5737 12.946 7.8327C12.333 8.2107 12.018 8.5627 11.434 8.5627ZM13.099 3.3477C13.981 3.4887 14.08 5.0387 13.658 5.8017L13.303 5.6567C13.487 5.1137 13.484 4.2197 12.868 4.1627C12.477 4.1267 12.225 4.6427 12.171 5.0847C12.018 5.0207 11.851 4.9747 11.648 4.9577C11.71 4.0347 12.306 3.2207 13.099 3.3477ZM9.696 3.6787C10.372 3.5107 10.771 4.2967 10.774 5.1137L10.464 5.3037C10.422 4.9607 10.269 4.4067 9.885 4.5247C9.474 4.6527 9.541 5.6077 9.77 5.8037L9.464 5.9737C9.044 5.2667 9.045 3.8407 9.696 3.6787ZM7.581 22.9217C5.618 22.0287 4.951 22.2317 4.576 22.2317C3.799 22.2317 3.545 21.6527 3.837 21.1047C4.085 20.6397 4.008 20.1527 3.947 19.7617C3.853 19.1627 3.836 18.9677 4.425 18.7097C5.24 18.3637 5.602 17.9187 5.872 17.5857C6.63 16.6487 7.395 18.1227 8.022 19.4357C8.429 20.2867 9.23 20.7177 9.477 21.6607C9.704 22.5317 8.767 23.4617 7.581 22.9217ZM14.568 21.0477C13.184 21.7207 11.421 22.0297 10.102 21.3467C9.907 20.7837 9.595 20.4197 9.259 20.0537C9.798 19.9117 10.198 19.2397 9.719 18.5647C9.208 17.8437 8.164 17.3407 7.109 16.5247C6.122 15.7617 5.81 13.8807 7.154 11.7787C6.499 13.6407 6.882 15.3567 7.211 15.8477C7.279 14.8597 7.357 13.2097 8.707 11.2327C9.388 10.2347 9.398 8.9167 9.413 8.0927L10.033 8.5167C10.489 8.8537 10.871 9.2247 11.419 9.2247C12.229 9.2247 12.677 8.7587 13.301 8.3717C13.545 8.2217 13.914 8.0697 14.224 7.8587C14.744 10.3347 16.898 13.3127 17.019 15.0087C17.52 13.9767 16.877 11.4947 16.877 11.4947C17.719 12.7797 17.786 13.8507 17.823 15.1647C18.412 15.4057 19.044 16.0337 19.102 16.8607L18.857 16.8327C18.731 15.9137 16.25 14.5637 16.027 16.2937C14.837 16.4747 15.27 18.3597 15.03 19.5817C14.92 20.1407 14.716 20.5827 14.568 21.0477ZM19.414 21.0067C18.429 21.3867 17.764 22.1937 17.307 22.6947C16.427 23.6607 15.263 23.1977 15.139 22.2937C15.008 21.3277 15.499 20.8007 15.711 19.7197C15.904 18.7327 15.688 17.2137 16.142 17.0517C16.437 18.8047 18.208 18.0677 18.612 17.5897C19.269 17.5897 19.324 17.8117 19.471 18.4267C19.563 18.8117 19.69 19.1357 20.049 19.5167C20.467 19.9637 20.339 20.6497 19.414 21.0067ZM11.414 8.0007C10.763 8.0007 10.276 7.5677 9.88 7.2317C9.677 7.0607 9.93 6.7447 10.133 6.9167C10.52 7.2447 10.91 7.5917 11.414 7.5917C12.021 7.5917 12.556 7.0727 13.281 6.7867C13.528 6.6897 13.669 7.0717 13.424 7.1687C12.72 7.4457 12.155 8.0007 11.414 8.0007Z" fill="black"/>
</g>
</g>
<defs>
<clipPath id="clip0_221_18862">
<rect width="24" height="24" fill="white"/>
</clipPath>
<clipPath id="clip1_221_18862">
<rect width="18" height="24" fill="white" transform="translate(3 -0.0213013)"/>
</clipPath>
</defs>
</svg>
