<svg width="24" height="24" viewBox="0 0 24 24" fill="none" xmlns="http://www.w3.org/2000/svg">
<g clip-path="url(#clip0_221_18888)">
<g clip-path="url(#clip1_221_18888)">
<path d="M18.14 7.1487C18.0464 7.0421 17.9119 6.98031 17.77 6.9787H14V5.5687C14 5.2887 14.06 4.9687 14.51 4.9687H17.51C17.6434 4.97439 17.7721 4.91921 17.86 4.8187C17.9482 4.72726 17.9982 4.6057 18 4.4787V0.478699C18 0.202556 17.7761 -0.0213013 17.5 -0.0213013H13.17C8.37 -0.0213013 8 4.0787 8 5.3287V6.9787H5.5C5.22386 6.9787 5 7.20256 5 7.4787V11.4787C5 11.7548 5.22386 11.9787 5.5 11.9787H8V23.4787C8 23.7548 8.22386 23.9787 8.5 23.9787H13.5C13.7761 23.9787 14 23.7548 14 23.4787V11.9787H17.35C17.6077 11.98 17.8242 11.7851 17.85 11.5287L18.27 7.5287C18.2817 7.38943 18.2345 7.25163 18.14 7.1487Z" fill="black"/>
</g>
</g>
<defs>
<clipPath id="clip0_221_18888">
<rect width="24" height="24" fill="white"/>
</clipPath>
<clipPath id="clip1_221_18888">
<rect width="13.2718" height="24" fill="white" transform="translate(5 -0.0213013)"/>
</clipPath>
</defs>
</svg>
