<svg width="24" height="24" viewBox="0 0 24 24" fill="none" xmlns="http://www.w3.org/2000/svg">
<g clip-path="url(#clip0_221_18899)">
<path d="M23.5471 10.7776L13.0687 0.299705C12.9252 0.156159 12.7549 0.0422891 12.5674 -0.0354002C12.3798 -0.11309 12.1789 -0.153076 11.9759 -0.153076C11.773 -0.153076 11.572 -0.11309 11.3845 -0.0354002C11.197 0.0422891 11.0266 0.156159 10.8831 0.299705L8.70728 2.4754L11.4669 5.23623C11.7913 5.12562 12.1403 5.10815 12.4741 5.18579C12.808 5.26342 13.1134 5.43307 13.3557 5.67548C13.5992 5.91943 13.7693 6.22693 13.8464 6.5629C13.9235 6.89886 13.9046 7.24973 13.7918 7.57546L16.4519 10.2365C16.7775 10.1233 17.1285 10.1041 17.4645 10.1813C17.8005 10.2585 18.1079 10.4289 18.3515 10.6728C18.5224 10.8435 18.6581 11.0461 18.7506 11.2692C18.8431 11.4924 18.8908 11.7315 18.8908 11.9731C18.8908 12.2146 18.8431 12.4538 18.7506 12.6769C18.6581 12.9 18.5224 13.1027 18.3515 13.2733C18.1808 13.4443 17.978 13.5799 17.7549 13.6725C17.5317 13.765 17.2924 13.8127 17.0508 13.8127C16.8092 13.8127 16.57 13.765 16.3468 13.6725C16.1236 13.5799 15.9208 13.4443 15.7501 13.2733C15.4937 13.0166 15.3189 12.6897 15.2477 12.3339C15.1766 11.9781 15.2122 11.6091 15.3501 11.2735L12.8691 8.79234V15.3213C13.0492 15.4098 13.2136 15.5272 13.3557 15.6689C13.7006 16.014 13.8944 16.4819 13.8944 16.9698C13.8944 17.4577 13.7006 17.9256 13.3557 18.2706C12.6369 18.9885 11.4722 18.9885 10.7554 18.2706C10.5844 18.0999 10.4487 17.8971 10.3561 17.6739C10.2636 17.4507 10.2159 17.2114 10.2159 16.9698C10.2159 16.7281 10.2636 16.4888 10.3561 16.2656C10.4487 16.0424 10.5844 15.8396 10.7554 15.6689C10.9271 15.4962 11.1317 15.3598 11.3571 15.2678V8.67805C11.1317 8.58607 10.9271 8.44968 10.7554 8.27699C10.4972 8.01895 10.3216 7.68996 10.2509 7.33185C10.1802 6.97374 10.2176 6.60269 10.3583 6.26588L7.63766 3.54402L0.452888 10.7292C0.309311 10.8727 0.195414 11.0431 0.117705 11.2306C0.0399969 11.4182 0 11.6192 0 11.8222C0 12.0252 0.0399969 12.2262 0.117705 12.4137C0.195414 12.6013 0.309311 12.7716 0.452888 12.9152L10.9313 23.3941C11.0748 23.5377 11.2452 23.6516 11.4327 23.7292C11.6202 23.8069 11.8211 23.8469 12.0241 23.8469C12.2271 23.8469 12.428 23.8069 12.6155 23.7292C12.803 23.6516 12.9734 23.5377 13.1169 23.3941L23.5471 12.9647C23.8371 12.6746 24 12.2813 24 11.8712C24 11.461 23.8371 11.0677 23.5471 10.7776Z" fill="black"/>
</g>
<defs>
<clipPath id="clip0_221_18899">
<rect width="24" height="24" fill="white"/>
</clipPath>
</defs>
</svg>
