<svg width="24" height="24" viewBox="0 0 24 24" fill="none" xmlns="http://www.w3.org/2000/svg">
<g clip-path="url(#clip0_221_18868)">
<path d="M6.5 8.9787H2.5C2.22386 8.9787 2 9.20256 2 9.4787V22.4787C2 22.7548 2.22386 22.9787 2.5 22.9787H6.5C6.77614 22.9787 7 22.7548 7 22.4787V9.4787C7 9.20256 6.77614 8.9787 6.5 8.9787Z" fill="black"/>
<path d="M4.48 6.9787C5.84967 6.9787 6.96 5.85941 6.96 4.4787C6.96 3.09799 5.84967 1.9787 4.48 1.9787C3.11033 1.9787 2 3.09799 2 4.4787C2 5.85941 3.11033 6.9787 4.48 6.9787Z" fill="black"/>
<path d="M18.5 22.9787H21.5C21.7761 22.9787 22 22.7549 22 22.4787V14.0787C22 10.3087 19.87 8.47871 16.89 8.47871C15.7014 8.43524 14.5498 8.89658 13.72 9.74871C13.6077 9.87839 13.4266 9.9245 13.266 9.86428C13.1054 9.80405 12.9993 9.65023 13 9.47871C13 9.20257 12.7761 8.97871 12.5 8.97871H9.5C9.22386 8.97871 9 9.20257 9 9.47871V22.4787C9 22.7549 9.22386 22.9787 9.5 22.9787H12.5C12.7761 22.9787 13 22.7549 13 22.4787V14.9787C13 13.598 14.1193 12.4787 15.5 12.4787C16.8807 12.4787 18 13.598 18 14.9787V22.4787C18 22.7549 18.2239 22.9787 18.5 22.9787Z" fill="black"/>
</g>
<defs>
<clipPath id="clip0_221_18868">
<rect width="20" height="21" fill="white" transform="translate(2 1.9787)"/>
</clipPath>
</defs>
</svg>
