<svg width="24" height="24" viewBox="0 0 24 24" fill="none" xmlns="http://www.w3.org/2000/svg">
<path d="M6.50197 14.5884C7.24909 14.1476 8.23222 13.9069 9.17624 14.7807L9.19813 14.8013C10.0971 15.7519 9.85573 16.745 9.41157 17.498C8.89779 18.3685 8.12349 18.9651 8.12349 18.9651C7.96174 19.0898 7.86295 19.2787 7.85102 19.4829C7.83909 19.6871 7.91733 19.886 8.0645 20.0278L9.79013 21.6977C10.2429 22.1213 10.6864 22.2811 11.0749 22.3182C12.0249 22.4104 12.7031 21.715 12.6958 21.7223L14.5287 19.8906C14.8755 20.8246 15.2898 21.3053 15.2898 21.3053C15.3018 21.3199 15.3144 21.3338 15.3283 21.3477C17.9608 24.0213 20.7888 21.2516 21.0215 21.0149C21.3019 20.7371 23.9968 17.9362 21.3477 15.3283C21.3338 15.3143 21.3199 15.3018 21.3053 15.2899C21.3053 15.2899 20.8246 14.8755 19.8899 14.5281L21.715 12.7031C21.715 12.7031 22.4104 12.0248 22.3182 11.0749C22.2811 10.6864 22.1213 10.2429 21.6977 9.79011L20.0278 8.06452C19.8859 7.91735 19.687 7.83911 19.4829 7.85104C19.2793 7.86231 19.0911 7.96173 18.9658 8.12282C18.9658 8.12282 18.3598 8.90643 17.4841 9.4255C16.7297 9.87232 15.74 10.1143 14.8052 9.20341L14.8013 9.19815L14.7966 9.19479C13.8857 8.26005 14.1277 7.27032 14.5745 6.51591C15.0936 5.64017 15.8772 5.03422 15.8772 5.03422C16.0383 4.90892 16.1377 4.72067 16.149 4.51715C16.1609 4.31297 16.0827 4.11407 15.9355 3.97221L14.2099 2.30229C13.7565 1.87801 13.3136 1.71889 12.9251 1.68176C11.9752 1.58961 11.2969 2.28505 11.2969 2.28505L9.4719 4.1101C9.12452 3.17537 8.71019 2.69477 8.71019 2.69477C8.69826 2.68019 8.68568 2.66621 8.67175 2.65229C6.06378 0.00320721 3.26288 2.69807 2.98511 2.97849C2.74844 3.21118 -0.0212995 6.03923 2.65231 8.67173C2.66623 8.68565 2.68017 8.69828 2.69475 8.71021C2.69475 8.71021 3.17536 9.12455 4.10944 9.47127L2.27776 11.3042C2.28467 11.2973 1.58966 11.9754 1.68178 12.9251C1.71891 13.3136 1.87804 13.7564 2.30231 14.2099L3.97219 15.9355C4.11406 16.0827 4.31295 16.1609 4.51713 16.149C4.72132 16.1371 4.91027 16.0383 5.03424 15.8759C5.03424 15.8759 5.63154 15.1022 6.50197 14.5884Z" fill="black"/>
</svg>
