<svg width="24" height="24" viewBox="0 0 24 24" fill="none" xmlns="http://www.w3.org/2000/svg">
<path d="M13.7069 14.5072C12.0431 13.5181 9.99928 13.4339 8.07868 13.8047C6.1889 14.1826 4.40182 14.9457 2.82016 16.0467C2.61475 16.1915 2.50171 16.4257 2.50171 16.6753C2.50171 16.6799 2.50175 16.6846 2.50183 16.6892V20.9186C2.50175 20.9232 2.50171 20.9278 2.50171 20.9325C2.50171 21.3556 2.84064 21.7027 3.272 21.7027H5.59316C6.57913 21.7038 7.56509 21.8044 8.53053 22.0037C10.41 22.3898 12.382 22.4381 14.282 22.13C15.2166 21.979 16.1719 21.7438 17.0551 21.3166C17.7844 20.9643 18.7394 20.4374 19.4173 19.8109C20.0952 19.1906 20.7524 18.222 21.1838 17.5216C21.8 16.5366 21.4612 15.373 20.5984 14.7259C19.6433 14.0276 18.3389 14.0276 17.394 14.7259L15.535 16.1279C15.3399 16.2799 15.1345 16.4185 14.9394 16.5459C14.9291 16.0056 14.734 15.4664 14.3437 15.033C14.1588 14.8194 13.9329 14.6458 13.7069 14.5072Z" fill="black"/>
<path fill-rule="evenodd" clip-rule="evenodd" d="M7.437 8.90188C7.45452 8.88734 7.47056 8.87154 7.48291 8.85426V8.84808C7.48634 8.84387 7.48976 8.84022 7.49319 8.83576C7.49825 8.8302 7.50511 8.82234 7.51369 8.81249C7.5922 8.72248 7.81517 8.46682 8.12996 8.28628C8.36618 8.14147 8.69482 8.04596 9.00293 8.33148C9.29051 8.64062 9.19811 8.96416 9.04405 9.20963C8.84891 9.54958 8.49968 9.83818 8.49968 9.83818V9.84229C8.31481 9.97889 8.21218 10.1853 8.19164 10.4082C8.18137 10.6321 8.27379 10.8498 8.42785 11.0049L9.3111 11.8625C9.62949 12.1583 9.94788 12.2631 10.2149 12.2887C10.8209 12.3473 11.2728 11.959 11.3549 11.8841L11.8993 11.3418C11.9675 11.4696 12.0356 11.5543 12.0685 11.5952C12.0753 11.6037 12.0806 11.6102 12.0841 11.615L12.1355 11.6725C13.748 13.3117 15.4837 11.6468 15.6275 11.502C15.7919 11.3367 17.3837 9.64509 15.8226 8.05726C15.8842 8.1158 15.9047 8.13122 15.802 8.03673C15.802 8.03086 15.7953 8.02634 15.7872 8.02097C15.7857 8.02 15.7842 8.019 15.7827 8.01796C15.7823 8.01771 15.782 8.01746 15.7816 8.0172L15.7405 7.97508L15.761 7.99767L15.7713 8.00692L15.7508 7.98946L15.7302 7.96586C15.7267 7.96332 15.7225 7.96016 15.7175 7.95642C15.6778 7.92687 15.5896 7.8611 15.4529 7.77996L15.9972 7.24073C16.0691 7.15754 16.4594 6.70461 16.4081 6.09865C16.3773 5.82853 16.2745 5.51631 15.9767 5.20101L15.1243 4.31465C14.9599 4.15443 14.7442 4.0692 14.5182 4.08152C14.3025 4.09384 14.0972 4.20272 13.9534 4.37938V4.38452C13.9534 4.38452 13.6556 4.73885 13.3166 4.94221C13.0702 5.08599 12.7517 5.18252 12.4538 4.89494L12.4437 4.8888C12.1561 4.58582 12.2485 4.2633 12.3923 4.01886C12.5977 3.67583 12.9469 3.38209 12.9469 3.38209L12.7004 3.46425L12.9572 3.37799C13.1318 3.24139 13.2447 3.03496 13.255 2.81209C13.2652 2.58819 13.1831 2.37145 13.0188 2.21534L12.1355 1.35879C11.8171 1.063 11.509 0.958231 11.242 0.932554C10.6257 0.874012 10.1738 1.26122 10.0917 1.3403C10.0814 1.35262 10.0711 1.36186 10.0711 1.36186L9.55758 1.87849C9.46972 1.73205 9.40037 1.64221 9.37608 1.61075C9.37482 1.60911 9.37367 1.60763 9.37266 1.60631L9.32138 1.54879C7.71917 -0.0760093 6.00396 1.54264 5.82936 1.71416C5.68557 1.85281 4.02171 3.58852 5.665 5.20408L5.7164 5.25545C5.7219 5.2593 5.72936 5.26478 5.73878 5.27171C5.78216 5.30359 5.86715 5.36606 5.99373 5.44031L5.44936 5.98262C5.37746 6.06273 4.98717 6.51564 5.04879 7.12263C5.06933 7.39275 5.18234 7.70393 5.46992 8.01924L6.33261 8.9056C6.48667 9.06684 6.70243 9.15209 6.92838 9.13976C7.12067 9.12877 7.30472 9.04269 7.437 8.90188ZM7.437 8.90188C7.42536 8.91153 7.41308 8.92062 7.40079 8.92923C7.42494 8.91071 7.44907 8.88841 7.47321 8.86035C7.46163 8.87467 7.44954 8.88852 7.437 8.90188Z" fill="black"/>
</svg>
