<svg width="24" height="24" viewBox="0 0 24 24" fill="none" xmlns="http://www.w3.org/2000/svg">
<path fill-rule="evenodd" clip-rule="evenodd" d="M11.5707 2.489C7.65367 2.53864 4.489 5.73403 4.489 9.66302C4.489 10.6527 4.69355 11.6295 5.08664 12.5319C5.24448 12.8803 5.10745 13.2912 4.77292 13.4759C4.76994 13.4818 4.76601 13.4848 4.76104 13.4878C4.57939 13.5881 4.36393 13.6069 4.16837 13.5404C3.97183 13.4749 3.81201 13.329 3.72863 13.1394C3.27101 12.0454 3 10.8215 3 9.66302C3 4.91905 6.8208 1.06055 11.5509 1H11.7752C16.5053 1.06055 20.3271 4.91905 20.3271 9.66302C20.3271 10.8215 20.0551 12.0454 19.5975 13.1394C19.5141 13.329 19.3543 13.4749 19.1587 13.5404C18.9621 13.6069 18.7468 13.5881 18.5651 13.4878C18.5611 13.4848 18.5562 13.4818 18.5532 13.4759C18.2187 13.2912 18.0817 12.8803 18.2395 12.5319C18.6336 11.6295 18.8381 10.6527 18.8381 9.66302C18.8381 5.73403 15.6724 2.53864 11.7554 2.489H11.5707Z" fill="black"/>
<path d="M11.7529 22.4343L16.1199 22.5026C16.1302 21.98 16.1346 22.1507 16.1346 21.7605V17.699C16.1246 17.6017 16.0482 16.9951 15.4982 16.4947C15.0256 16.0639 14.2364 15.7392 12.9537 15.7392C12.5427 15.7392 12.2091 15.4066 12.2091 14.9946V11.2747C12.2081 11.226 12.1962 10.9798 12.09 10.7326C12.0076 10.543 11.8467 10.3503 11.5211 10.3503C11.1468 10.3503 11.0267 10.6224 10.9801 10.8279C10.9384 11.0116 10.9423 11.1665 10.9433 11.1962C10.9443 11.2101 10.9443 11.225 10.9443 11.2389V16.9583C10.9443 17.2314 10.7954 17.4826 10.5551 17.6136C10.3148 17.7437 10.023 17.7318 9.79366 17.5828C9.79366 17.5828 9.34093 17.287 8.82269 17.2056C8.59534 17.1708 8.34217 17.1669 8.15354 17.3555C7.97285 17.5352 7.85768 17.6921 7.87456 17.8668C7.88647 18.0028 7.96893 18.1289 8.07913 18.2609C8.25982 18.4753 8.51793 18.6828 8.83463 18.8893C10.1838 19.7699 11.5787 21.1688 11.5787 21.1688C11.8676 21.4607 11.8765 21.6813 11.8456 21.98C11.8384 22.1289 11.811 22.1406 11.7529 22.4343Z" fill="black"/>
</svg>
