<svg width="24" height="24" viewBox="0 0 24 24" fill="none" xmlns="http://www.w3.org/2000/svg">
<path d="M11.6721 18.1676V15.723C7.92764 15.3516 5 12.1879 5 8.34665C5 4.25449 8.32174 0.932739 12.4129 0.932739C16.5051 0.932739 19.8268 4.25449 19.8268 8.34665C19.8268 12.1879 16.8982 15.3516 13.1537 15.723V18.1676H15.1815C15.5904 18.1676 15.9223 18.4995 15.9223 18.9084C15.9223 19.3174 15.5904 19.6492 15.1815 19.6492H13.1537V21.6919C13.1537 22.1008 12.8218 22.4327 12.4129 22.4327C12.004 22.4327 11.6721 22.1008 11.6721 21.6919V19.6492H9.75098C9.34206 19.6492 9.01018 19.3174 9.01018 18.9084C9.01018 18.4995 9.34206 18.1676 9.75098 18.1676H11.6721Z" fill="black"/>
</svg>
