<svg width="24" height="24" viewBox="0 0 24 24" fill="none" xmlns="http://www.w3.org/2000/svg">
<g clip-path="url(#clip0_221_18916)">
<path d="M8.38696 5.08001C8.23153 4.82432 8.06469 4.57574 7.88696 4.33501C9.08176 3.46522 10.5221 2.99771 12 3.00001C13.32 3.00001 14.555 3.36501 15.608 4.00001C15.5933 4.08934 15.5713 4.19034 15.542 4.30301C15.4504 4.6542 15.3114 4.99129 15.129 5.30501C15.08 5.38201 14.879 5.57801 14.516 5.84901C14.354 5.96901 14.175 6.08001 13.96 6.20901L13.886 6.25201C13.699 6.36401 13.484 6.49201 13.277 6.63401C12.789 6.96801 12.281 7.42001 11.939 8.15101C11.726 8.60634 11.6834 9.12296 11.819 9.60701C11.854 9.74201 11.873 9.87701 11.874 9.99701C11.874 10.034 11.859 10.093 11.777 10.162C11.6847 10.2377 11.5693 10.2794 11.45 10.28C10.373 10.268 9.52296 9.37601 9.39996 7.95301C9.30596 6.87101 8.86396 5.87001 8.38696 5.08001ZM16.652 14.509C16.916 14.5057 17.1643 14.489 17.397 14.459C16.5081 15.5353 15.3178 16.3213 13.979 16.716C13.933 16.335 13.963 15.876 14.188 15.453C14.38 15.091 14.866 14.82 15.522 14.659C15.8856 14.5714 16.2572 14.5212 16.631 14.509H16.652Z" fill="black"/>
<path d="M5 10C5 8.28001 5.62 6.70601 6.648 5.48801C6.75067 5.63134 6.851 5.78467 6.949 5.94801C7.351 6.61201 7.662 7.364 7.726 8.098C7.896 10.068 9.207 11.935 11.431 11.96C12.392 11.97 13.557 11.248 13.554 9.992C13.554 9.705 13.508 9.42501 13.442 9.17701C13.4092 9.07327 13.4159 8.96104 13.461 8.86201C13.631 8.49801 13.883 8.25501 14.227 8.02001C14.387 7.91001 14.553 7.81001 14.745 7.69601L14.822 7.65001C15.038 7.52101 15.283 7.37201 15.52 7.19601C15.865 6.93901 16.31 6.57801 16.547 6.20601C16.734 5.91201 16.907 5.53501 17.041 5.14301C18.2997 6.44638 19.0022 8.18811 19 10C18.9987 10.5327 18.9413 11.0493 18.828 11.55C18.7615 11.7601 18.659 11.957 18.525 12.132C18.288 12.439 17.813 12.817 16.635 12.829H16.599L16.503 12.832C16.037 12.8508 15.574 12.9161 15.121 13.027C14.362 13.213 13.25 13.637 12.704 14.666C12.274 15.477 12.224 16.311 12.322 16.993C11.3767 17.0361 10.4325 16.8872 9.54634 16.5552C8.6602 16.2233 7.85053 15.7152 7.16622 15.0616C6.4819 14.408 5.93714 13.6226 5.56483 12.7526C5.19251 11.8827 5.00037 10.9463 5 10Z" fill="black"/>
<path fill-rule="evenodd" clip-rule="evenodd" d="M18.004 1.49998C18.1366 1.35202 18.3224 1.26271 18.5208 1.25165C18.7191 1.24059 18.9138 1.30868 19.062 1.44098C20.2234 2.47772 21.1523 3.74837 21.788 5.16951C22.4236 6.59066 22.7514 8.13017 22.75 9.68698C22.75 15.438 18.361 20.165 12.75 20.7V21.25H14C14.1989 21.25 14.3897 21.329 14.5303 21.4696C14.671 21.6103 14.75 21.8011 14.75 22C14.75 22.1989 14.671 22.3897 14.5303 22.5303C14.3897 22.671 14.1989 22.75 14 22.75H9.99998C9.80106 22.75 9.6103 22.671 9.46965 22.5303C9.32899 22.3897 9.24998 22.1989 9.24998 22C9.24998 21.8011 9.32899 21.6103 9.46965 21.4696C9.6103 21.329 9.80106 21.25 9.99998 21.25H11.25V20.741C9.76803 20.6838 8.31279 20.3287 6.97112 19.6968C5.62944 19.0649 4.42884 18.1691 3.44098 17.063C3.37464 16.9897 3.32345 16.904 3.29036 16.8108C3.25726 16.7177 3.2429 16.6189 3.24811 16.5202C3.25333 16.4215 3.278 16.3247 3.32073 16.2356C3.36345 16.1464 3.42338 16.0666 3.49706 16.0007C3.57075 15.9348 3.65673 15.8841 3.75008 15.8516C3.84342 15.819 3.94228 15.8052 4.04097 15.811C4.13965 15.8168 4.23623 15.842 4.32513 15.8853C4.41403 15.9285 4.4935 15.9889 4.55898 16.063C5.45512 17.0669 6.5535 17.8698 7.782 18.4191C9.01049 18.9684 10.3413 19.2515 11.687 19.25C14.2232 19.25 16.6556 18.2424 18.449 16.449C20.2424 14.6556 21.25 12.2232 21.25 9.68698C21.2514 8.34121 20.9681 7.01036 20.4187 5.78187C19.8692 4.55337 19.0661 3.45502 18.062 2.55898C17.9884 2.4933 17.9285 2.41376 17.8858 2.32492C17.843 2.23607 17.8181 2.13967 17.8127 2.04121C17.8072 1.94275 17.8212 1.84418 17.8538 1.75114C17.8865 1.6581 17.9372 1.57241 18.003 1.49898" fill="black"/>
</g>
<defs>
<clipPath id="clip0_221_18916">
<rect width="24" height="24" fill="white"/>
</clipPath>
</defs>
</svg>
