<svg width="24" height="24" viewBox="0 0 24 24" fill="none" xmlns="http://www.w3.org/2000/svg">
<g clip-path="url(#clip0_221_19004)">
<path d="M11.2739 14.827V9.29915L8.73524 9.74263V14.382L11.2739 14.827Z" fill="black"/>
<path d="M7.24838 14.1214V10.0024L4.77014 10.4353V13.6869L7.24838 14.1214Z" fill="black"/>
<path d="M11.2739 7.78992L8.73524 8.23326V5.62246L11.2739 4.64267V7.78992Z" fill="black"/>
<path d="M7.24838 8.49293V6.19632L4.77014 7.15281V8.92572L7.24838 8.49293Z" fill="black"/>
<path d="M4.77014 15.1961L7.24838 15.6305V17.9L4.77014 16.9432V15.1961Z" fill="black"/>
<path d="M11.2739 19.4541L8.73524 18.474V15.8912L11.2739 16.3363V19.4541Z" fill="black"/>
<path d="M3.28328 13.4263L2.1377 13.2255C2.09177 13.2175 2.04608 13.2139 2.00106 13.2144C2 12.8279 2 12.4235 2 12C2 11.6204 2 11.256 2.00076 10.9061C2.04616 10.9067 2.09225 10.9031 2.13858 10.895L3.28328 10.6951V13.4263Z" fill="black"/>
<path d="M3.28328 7.72666V9.18539L2.01226 9.40736C2.01924 8.96598 2.0302 8.55214 2.0474 8.16357C2.12455 8.1598 2.20238 8.14384 2.2783 8.11454L3.28328 7.72666Z" fill="black"/>
<path d="M3.28328 14.9354V16.3691L2.27756 15.9809C2.20332 15.9522 2.12725 15.9363 2.05177 15.9321C2.0337 15.5511 2.02193 15.1454 2.01427 14.7129L3.28328 14.9354Z" fill="black"/>
<path d="M16.7883 15.6271L19.3554 15.1788V16.8823L16.7883 17.8731V15.6271Z" fill="black"/>
<path d="M16.7883 14.1177L19.3554 13.6692V10.4615L16.7883 10.0115V14.1177Z" fill="black"/>
<path d="M15.3014 9.75088V14.3774L12.7607 14.8213V9.30551L15.3014 9.75088Z" fill="black"/>
<path d="M16.7883 8.50235L19.3554 8.9524V7.18882L16.7883 6.19774V8.50235Z" fill="black"/>
<path d="M15.3014 5.6237V8.24167L12.7607 7.79624V4.64281L15.3014 5.6237Z" fill="black"/>
<path d="M15.3014 15.8868V18.4469L12.7607 19.4275V16.3305L15.3014 15.8868Z" fill="black"/>
<path d="M20.8422 16.3084V14.9191L21.9856 14.7195C21.978 15.145 21.9664 15.5445 21.9487 15.9202C21.8729 15.9243 21.7963 15.9402 21.7217 15.969L20.8422 16.3084Z" fill="black"/>
<path d="M20.8422 10.7222V13.4095L21.8614 13.2314C21.9076 13.2234 21.9536 13.2198 21.9989 13.2203C22 12.8321 22 12.4257 22 12C22 11.6225 22 11.2601 21.9992 10.912C21.9541 10.9126 21.9083 10.909 21.8623 10.901L20.8422 10.7222Z" fill="black"/>
<path d="M21.9878 9.41392L20.8422 9.21307V7.76286L21.7224 8.10268C21.7979 8.13182 21.8753 8.14776 21.952 8.15164C21.9696 8.54558 21.9808 8.96555 21.9878 9.41392Z" fill="black"/>
<path d="M11.2739 21.0482L2.19053 17.5417C2.37597 18.8741 2.7419 19.8134 3.464 20.535C4.85177 21.9228 7.03996 21.996 11.2739 21.9998V21.0482Z" fill="black"/>
<path d="M12.7607 21.0216L21.8111 17.5288C21.6261 18.8677 21.2599 19.8107 20.535 20.535C19.1529 21.919 16.9721 21.9956 12.7607 21.9998V21.0216Z" fill="black"/>
<path d="M12.7607 3.04869L21.8212 6.54639C21.6395 5.16765 21.2733 4.20282 20.535 3.46403C19.152 2.08099 16.9719 2.00451 12.7606 2.00028L12.7607 2.01147V3.04869Z" fill="black"/>
<path d="M2.17694 6.55938L11.2739 3.04857V2.01147L11.274 2.00024C7.04008 2.0041 4.85272 2.0772 3.464 3.46403C2.72383 4.2047 2.35788 5.17338 2.17694 6.55938Z" fill="black"/>
</g>
<defs>
<clipPath id="clip0_221_19004">
<rect width="24" height="24" fill="white"/>
</clipPath>
</defs>
</svg>
