<svg width="24" height="24" viewBox="0 0 24 24" fill="none" xmlns="http://www.w3.org/2000/svg">
<path d="M9.71392 8.36309C9.71392 8.37791 9.71493 8.39172 9.71599 8.40549V11.1466C9.71599 11.5851 10.0719 11.9409 10.5104 11.9409C10.9478 11.9409 11.3047 11.5851 11.3047 11.1466V8.37685C11.3428 8.36097 11.4128 8.33555 11.452 8.32708C11.6066 8.29848 11.7358 8.30801 11.7358 8.30801C11.9805 8.30801 12.1552 8.35461 12.2686 8.45417C12.4094 8.57915 12.4592 8.75183 12.4751 8.87999V11.1466C12.4751 11.5851 12.831 11.9409 13.2695 11.9409C13.708 11.9409 14.0638 11.5851 14.0638 11.1466V9.17548C14.0638 9.17337 14.0641 9.17098 14.0644 9.1686C14.0646 9.16622 14.0649 9.16383 14.0649 9.16171C14.0649 9.16171 14.0659 9.1458 14.0659 9.11614V9.13204C14.0659 9.13204 14.229 8.9213 14.6728 8.9213C15.25 8.9213 15.392 9.31105 15.4164 9.39896L15.4174 10.438C15.4174 10.4539 15.4174 10.4687 15.4185 10.4846V11.1466C15.4185 11.5851 15.7744 11.9409 16.2129 11.9409C16.6513 11.9409 17.0072 11.5851 17.0072 11.1466V10.5958C17.0877 10.5714 17.3048 10.5185 17.5559 10.5386C17.8567 10.563 17.9975 10.7705 18.0727 10.958C18.1744 11.209 18.185 11.4537 18.186 11.5003C18.1863 11.5129 18.1869 11.5253 18.1877 11.5375C18.1959 11.7679 18.2935 14.6303 18.1574 17.5989C18.1119 18.5945 17.5643 19.302 16.9426 19.804C16.0698 20.5094 15.0361 20.8325 14.7396 20.9151H10.5273C10.5156 20.9151 10.504 20.9151 10.4924 20.9162C9.86113 20.9437 9.29657 20.5952 9.17795 20.5158C6.35002 18.354 5.59595 16.3343 5.59595 14.2054C5.59595 13.4661 6.03227 13.1102 6.46653 12.9376C6.56503 12.8984 6.66246 12.8677 6.75672 12.8422V13.9967C6.75672 14.4342 7.11259 14.7911 7.55108 14.7911C7.98957 14.7911 8.34545 14.4342 8.34545 13.9967V10.4369C8.34545 10.4041 8.34332 10.3713 8.34014 10.3395V3.02606C8.34862 2.96675 8.38787 2.81422 8.53615 2.71466C8.65477 2.63523 8.82635 2.59497 9.06042 2.59497C9.27967 2.59497 9.43848 2.62992 9.54546 2.70829C9.7128 2.8301 9.71392 3.03136 9.71392 3.03136V8.36309Z" fill="black"/>
<path d="M18.1871 11.5226C18.1871 11.5226 18.1873 11.5276 18.1877 11.5375C18.1879 11.5416 18.1882 11.5457 18.1885 11.5497C18.1879 11.5407 18.1874 11.5316 18.1871 11.5226Z" fill="black"/>
<path d="M18.2051 11.6634L18.1998 11.6402L18.1988 11.6327L18.2051 11.6634Z" fill="black"/>
</svg>
