<svg width="24" height="24" viewBox="0 0 24 24" fill="none" xmlns="http://www.w3.org/2000/svg">
<g clip-path="url(#clip0_221_18990)">
<path fill-rule="evenodd" clip-rule="evenodd" d="M12 22C17.523 22 22 17.523 22 12C22 6.477 17.523 2 12 2C6.477 2 2 6.477 2 12C2 17.523 6.477 22 12 22ZM7.55 9.6C7.39087 9.48065 7.28567 9.30298 7.25754 9.10607C7.22941 8.90915 7.28065 8.70913 7.4 8.55C7.51935 8.39087 7.69702 8.28567 7.89393 8.25754C8.09085 8.22941 8.29087 8.28065 8.45 8.4L10.45 9.9C10.5431 9.96986 10.6187 10.0604 10.6708 10.1646C10.7229 10.2687 10.75 10.3836 10.75 10.5C10.75 10.6164 10.7229 10.7313 10.6708 10.8354C10.6187 10.9396 10.5431 11.0301 10.45 11.1L8.45 12.6C8.37121 12.6591 8.28155 12.7021 8.18614 12.7265C8.09073 12.751 7.99144 12.7564 7.89393 12.7425C7.79643 12.7285 7.70263 12.6955 7.61788 12.6454C7.53313 12.5952 7.4591 12.5288 7.4 12.45C7.34091 12.3712 7.29791 12.2815 7.27346 12.1861C7.24902 12.0907 7.24361 11.9914 7.25754 11.8939C7.27147 11.7964 7.30446 11.7026 7.35464 11.6179C7.40483 11.5331 7.47121 11.4591 7.55 11.4L8.75 10.5L7.55 9.6ZM16.6 8.55C16.6591 8.62879 16.7021 8.71845 16.7265 8.81386C16.751 8.90927 16.7564 9.00856 16.7425 9.10607C16.7285 9.20357 16.6955 9.29737 16.6454 9.38212C16.5952 9.46687 16.5288 9.54091 16.45 9.6L15.25 10.5L16.45 11.4C16.6091 11.5193 16.7143 11.697 16.7425 11.8939C16.7706 12.0908 16.7193 12.2909 16.6 12.45C16.4807 12.6091 16.303 12.7143 16.1061 12.7425C15.9092 12.7706 15.7091 12.7193 15.55 12.6L13.55 11.1C13.4569 11.0301 13.3813 10.9396 13.3292 10.8354C13.2771 10.7313 13.25 10.6164 13.25 10.5C13.25 10.3836 13.2771 10.2687 13.3292 10.1646C13.3813 10.0604 13.4569 9.96986 13.55 9.9L15.55 8.4C15.7091 8.28065 15.9092 8.22941 16.1061 8.25754C16.303 8.28567 16.4807 8.39087 16.6 8.55ZM15.53 16.53C15.3894 16.6705 15.1988 16.7493 15 16.7493C14.8012 16.7493 14.6106 16.6705 14.47 16.53L14 16.06C13.439 16.59 12.56 16.59 12 16.06C11.44 16.59 10.561 16.59 10 16.06L9.53 16.53C9.46134 16.6037 9.37854 16.6628 9.28654 16.7038C9.19454 16.7448 9.09522 16.7668 8.99452 16.7686C8.89382 16.7704 8.79379 16.7518 8.7004 16.7141C8.60701 16.6764 8.52218 16.6203 8.45096 16.549C8.37974 16.4778 8.3236 16.393 8.28588 16.2996C8.24816 16.2062 8.22963 16.1062 8.23141 16.0055C8.23318 15.9048 8.25523 15.8055 8.29622 15.7135C8.33721 15.6215 8.39631 15.5387 8.47 15.47L8.97 14.97C9.23799 14.7019 9.5999 14.5488 9.97891 14.5432C10.3579 14.5376 10.7242 14.68 11 14.94C11.56 14.41 12.44 14.41 13 14.94C13.2758 14.68 13.6421 14.5376 14.0211 14.5432C14.4001 14.5488 14.762 14.7019 15.03 14.97L15.53 15.47C15.6705 15.6106 15.7493 15.8012 15.7493 16C15.7493 16.1988 15.6705 16.3894 15.53 16.53Z" fill="black"/>
</g>
<defs>
<clipPath id="clip0_221_18990">
<rect width="24" height="24" fill="white"/>
</clipPath>
</defs>
</svg>
