<svg width="24" height="24" viewBox="0 0 24 24" fill="none" xmlns="http://www.w3.org/2000/svg">
<g clip-path="url(#clip0_221_18939)">
<path d="M12.084 3.50001C11.1441 3.49985 10.2253 3.77854 9.4438 4.30082C8.66234 4.8231 8.05339 5.56549 7.69404 6.43401C7.65635 6.52509 7.60109 6.60784 7.53142 6.67756C7.46175 6.74727 7.37903 6.80259 7.28798 6.84033C7.19693 6.87808 7.09934 6.89752 7.00078 6.89755C6.90222 6.89759 6.80461 6.8782 6.71354 6.84051C6.62247 6.80282 6.53971 6.74757 6.47 6.67789C6.40028 6.60822 6.34497 6.5255 6.30722 6.43445C6.26948 6.34341 6.25003 6.24581 6.25 6.14725C6.24997 6.04869 6.26935 5.95109 6.30704 5.86001C6.78012 4.71736 7.58145 3.74068 8.60967 3.05352C9.6379 2.36635 10.8468 1.99957 12.0835 1.99957C13.3202 1.99957 14.5292 2.36635 15.5574 3.05352C16.5856 3.74068 17.387 4.71736 17.86 5.86001C17.9362 6.04381 17.9361 6.25031 17.86 6.4341C17.7839 6.61789 17.6378 6.7639 17.454 6.84001C17.2702 6.91613 17.0637 6.91612 16.88 6.83998C16.6962 6.76384 16.5502 6.61781 16.474 6.43401C16.1147 5.56549 15.5057 4.8231 14.7243 4.30082C13.9428 3.77854 13.024 3.49985 12.084 3.50001Z" fill="black"/>
<path d="M12.085 5.99998C11.5984 5.99986 11.1249 6.15747 10.7354 6.44918C10.346 6.7409 10.0616 7.151 9.92496 7.61798C9.86926 7.80894 9.73999 7.96995 9.56558 8.06559C9.39117 8.16124 9.18591 8.18368 8.99496 8.12798C8.804 8.07229 8.64299 7.94302 8.54735 7.76861C8.45171 7.5942 8.42926 7.38894 8.48496 7.19798C8.71275 6.41961 9.18669 5.73604 9.83573 5.24972C10.4848 4.76341 11.2739 4.50055 12.085 4.50055C12.896 4.50055 13.6852 4.76341 14.3342 5.24972C14.9832 5.73604 15.4572 6.41961 15.685 7.19798C15.7407 7.38894 15.7182 7.5942 15.6226 7.76861C15.5269 7.94302 15.3659 8.07229 15.175 8.12798C14.984 8.18368 14.7787 8.16124 14.6043 8.06559C14.4299 7.96995 14.3007 7.80894 14.245 7.61798C14.1083 7.151 13.8239 6.7409 13.4345 6.44918C13.045 6.15747 12.5715 5.99986 12.085 5.99998Z" fill="black"/>
<path d="M13.084 7.75C13.084 8.01522 12.9786 8.26957 12.7911 8.45711C12.6036 8.64464 12.3492 8.75 12.084 8.75C11.8188 8.75 11.5644 8.64464 11.3769 8.45711C11.1893 8.26957 11.084 8.01522 11.084 7.75C11.084 7.48478 11.1893 7.23043 11.3769 7.04289C11.5644 6.85536 11.8188 6.75 12.084 6.75C12.3492 6.75 12.6036 6.85536 12.7911 7.04289C12.9786 7.23043 13.084 7.48478 13.084 7.75Z" fill="black"/>
<path fill-rule="evenodd" clip-rule="evenodd" d="M3.651 4.37797C3.54984 4.21028 3.3871 4.08881 3.19757 4.03953C3.00803 3.99024 2.80674 4.01704 2.6367 4.1142C2.46667 4.21136 2.34138 4.37118 2.28762 4.5595C2.23386 4.74781 2.25589 4.94969 2.349 5.12197L6.136 11.75H6C4.114 11.75 3.172 11.75 2.586 12.336C2 12.922 2 13.864 2 15.75C2 17.636 2 18.578 2.586 19.164C3.172 19.75 4.114 19.75 6 19.75H18C19.886 19.75 20.828 19.75 21.414 19.164C22 18.578 22 17.636 22 15.75C22 13.864 22 12.922 21.414 12.336C20.828 11.75 19.886 11.75 18 11.75H17.864L21.651 5.12197C21.7441 4.94969 21.7661 4.74781 21.7124 4.5595C21.6586 4.37118 21.5333 4.21136 21.3633 4.1142C21.1933 4.01704 20.992 3.99024 20.8024 4.03953C20.6129 4.08881 20.4502 4.21028 20.349 4.37797L16.349 11.378L16.129 11.75H7.88L7.65 11.378L3.651 4.37797ZM6 16.75C6.26522 16.75 6.51957 16.6446 6.70711 16.4571C6.89464 16.2695 7 16.0152 7 15.75C7 15.4848 6.89464 15.2304 6.70711 15.0429C6.51957 14.8553 6.26522 14.75 6 14.75C5.73478 14.75 5.48043 14.8553 5.29289 15.0429C5.10536 15.2304 5 15.4848 5 15.75C5 16.0152 5.10536 16.2695 5.29289 16.4571C5.48043 16.6446 5.73478 16.75 6 16.75ZM10 15.75C10 16.0152 9.89464 16.2695 9.70711 16.4571C9.51957 16.6446 9.26522 16.75 9 16.75C8.73478 16.75 8.48043 16.6446 8.29289 16.4571C8.10536 16.2695 8 16.0152 8 15.75C8 15.4848 8.10536 15.2304 8.29289 15.0429C8.48043 14.8553 8.73478 14.75 9 14.75C9.26522 14.75 9.51957 14.8553 9.70711 15.0429C9.89464 15.2304 10 15.4848 10 15.75ZM14 15C13.8011 15 13.6103 15.079 13.4697 15.2196C13.329 15.3603 13.25 15.5511 13.25 15.75C13.25 15.9489 13.329 16.1397 13.4697 16.2803C13.6103 16.421 13.8011 16.5 14 16.5H18C18.1989 16.5 18.3897 16.421 18.5303 16.2803C18.671 16.1397 18.75 15.9489 18.75 15.75C18.75 15.5511 18.671 15.3603 18.5303 15.2196C18.3897 15.079 18.1989 15 18 15H14Z" fill="black"/>
</g>
<defs>
<clipPath id="clip0_221_18939">
<rect width="24" height="24" fill="white"/>
</clipPath>
</defs>
</svg>
