<svg width="24" height="24" viewBox="0 0 24 24" fill="none" xmlns="http://www.w3.org/2000/svg">
<path fill-rule="evenodd" clip-rule="evenodd" d="M2.032 13.2513C2.3787 11.9021 3.56646 8.92866 7.36465 8.5528C6.90951 8.48255 6.33558 8.29652 5.80129 7.83743C4.90092 7.07063 4.01049 5.44207 4.35678 1.90787C4.39636 1.52794 4.71297 1.23804 5.09884 1.23804H11.075C11.4509 1.23804 11.7774 1.52794 11.8071 1.90787C12.1534 5.44306 11.2531 7.07262 10.3527 7.83942C9.83821 8.2718 9.29402 8.46177 8.85868 8.53994C11.7873 8.77641 13.3012 10.5267 14.063 11.9574C14.5676 11.2262 15.3987 10.5257 16.7641 10.3367V9.34432H15.9725C15.557 9.34432 15.2305 9.01188 15.2305 8.60226C15.2305 8.19363 15.557 7.8602 15.9725 7.8602H19.1683C19.574 7.8602 19.9104 8.19363 19.9104 8.60226C19.9104 9.01188 19.574 9.34432 19.1683 9.34432H18.2482V10.3377C20.4833 10.6463 21.3839 12.3259 21.7206 13.2513H2.032ZM9.39288 6.70755C9.72928 6.41666 10.0262 5.95754 10.2142 5.24516H5.94973C6.12782 5.95853 6.42473 6.41862 6.77102 6.70951C7.30531 7.1686 7.90881 7.10922 7.96818 7.10032C8.03744 7.09042 8.10666 7.09042 8.17591 7.10032C8.23528 7.10922 8.8487 7.1696 9.39288 6.70755Z" fill="black"/>
<path d="M1.25 14.7513V21.7902C1.25 22.1998 1.5864 22.5322 1.99206 22.5322H22.0079C22.4136 22.5322 22.75 22.1998 22.75 21.7902V14.7513H1.25Z" fill="black"/>
</svg>
