<svg width="24" height="24" viewBox="0 0 24 24" fill="none" xmlns="http://www.w3.org/2000/svg">
<path fill-rule="evenodd" clip-rule="evenodd" d="M11.7781 2.42162C7.85705 2.47126 4.69042 5.66665 4.69042 9.59564C4.69042 10.5853 4.89892 11.5621 5.28606 12.4645C5.44489 12.8129 5.31584 13.2239 4.97833 13.4085C4.97833 13.4144 4.9684 13.4174 4.9684 13.4204C4.77979 13.5207 4.57135 13.5395 4.37282 13.473C4.17429 13.4075 4.01546 13.2616 3.93604 13.072C3.47941 11.9781 3.20142 10.7541 3.20142 9.59564C3.20142 4.85167 7.02325 0.99317 11.7583 0.932617H11.9766C16.7117 0.99317 20.5335 4.85167 20.5335 9.59564C20.5335 10.7541 20.2555 11.9781 19.7989 13.072C19.7195 13.2616 19.5606 13.4075 19.3621 13.473C19.1635 13.5395 18.9551 13.5207 18.7665 13.4204C18.7665 13.4174 18.7565 13.4144 18.7565 13.4085C18.419 13.2239 18.29 12.8129 18.4489 12.4645C18.836 11.5621 19.0445 10.5853 19.0445 9.59564C19.0445 5.66665 15.8778 2.47126 11.9568 2.42162H11.7781ZM11.798 4.14092H11.8079H11.937C14.8554 4.17765 17.218 6.56205 17.218 9.4944C17.218 10.2081 17.0591 10.9635 16.7712 11.6376V11.6425C16.6918 11.8242 16.543 11.9631 16.3544 12.0267C16.1657 12.0902 15.9572 12.0714 15.7885 11.9761C15.7686 11.9661 15.7488 11.9562 15.7389 11.9453C15.4411 11.7587 15.3319 11.3834 15.4709 11.0668C15.6893 10.5724 15.7984 10.0364 15.7984 9.4944C15.7984 7.33931 14.0712 5.58723 11.927 5.55943H11.8178C9.66375 5.58822 7.93647 7.3403 7.93647 9.4944C7.93647 10.0364 8.04568 10.5724 8.26407 11.0638C8.40304 11.3854 8.2839 11.7627 7.99603 11.9443C7.9861 11.9562 7.96627 11.9661 7.95634 11.9761C7.77766 12.0714 7.56919 12.0902 7.38058 12.0267C7.2019 11.9631 7.04309 11.8242 6.96367 11.6425V11.6376C6.68573 10.9635 6.51696 10.2081 6.51696 9.4944C6.51696 6.56205 8.87952 4.17864 11.798 4.14092Z" fill="black"/>
<path d="M12.091 22.4343L16.458 22.5026C16.4683 21.98 16.4727 22.1507 16.4727 21.7605V17.699C16.4628 17.6017 16.3863 16.9951 15.8363 16.4947C15.3638 16.0639 14.5745 15.7392 13.2918 15.7392C12.8808 15.7392 12.5472 15.4066 12.5472 14.9946V11.2747C12.5462 11.226 12.5343 10.9798 12.4281 10.7326C12.3457 10.543 12.1849 10.3503 11.8592 10.3503C11.485 10.3503 11.3648 10.6224 11.3182 10.8279C11.2765 11.0116 11.2804 11.1665 11.2814 11.1962C11.2824 11.2101 11.2824 11.225 11.2824 11.2389V16.9583C11.2824 17.2314 11.1335 17.4826 10.8932 17.6136C10.653 17.7437 10.3611 17.7318 10.1318 17.5828C10.1318 17.5828 9.67906 17.287 9.16082 17.2056C8.93348 17.1708 8.6803 17.1669 8.49167 17.3555C8.31099 17.5352 8.19582 17.6921 8.2127 17.8668C8.22461 18.0028 8.30706 18.1289 8.41726 18.2609C8.59795 18.4753 8.85606 18.6828 9.17276 18.8893C10.522 19.7699 11.9168 21.1688 11.9168 21.1688C12.2057 21.4607 12.2146 21.6813 12.1837 21.98C12.1765 22.1289 12.1492 22.1406 12.091 22.4343Z" fill="black"/>
</svg>
