<svg width="24" height="24" viewBox="0 0 24 24" fill="none" xmlns="http://www.w3.org/2000/svg">
<path d="M13.1396 22.4343L17.5066 22.5026C17.5169 21.98 17.5213 22.1507 17.5213 21.7605V17.699C17.5114 17.6017 17.4349 16.9951 16.8849 16.4947C16.4123 16.0639 15.6231 15.7392 14.3404 15.7392C13.9294 15.7392 13.5958 15.4066 13.5958 14.9946V11.2747C13.5948 11.226 13.5829 10.9798 13.4767 10.7326C13.3943 10.543 13.2335 10.3503 12.9078 10.3503C12.5335 10.3503 12.4134 10.6224 12.3668 10.8279C12.3251 11.0116 12.329 11.1665 12.33 11.1962C12.331 11.2101 12.331 11.225 12.331 11.2389V16.9583C12.331 17.2314 12.1821 17.4826 11.9418 17.6136C11.7016 17.7437 11.4097 17.7318 11.1804 17.5828C11.1804 17.5828 10.7276 17.287 10.2094 17.2056C9.98206 17.1708 9.72889 17.1669 9.54026 17.3555C9.35957 17.5352 9.2444 17.6921 9.26128 17.8668C9.27319 18.0028 9.35565 18.1289 9.46585 18.2609C9.64654 18.4753 9.90465 18.6828 10.2213 18.8893C11.5705 19.7699 12.9654 21.1688 12.9654 21.1688C13.2543 21.4607 13.2632 21.6813 13.2323 21.98C13.2251 22.1289 13.1978 22.1406 13.1396 22.4343Z" fill="black"/>
<path fill-rule="evenodd" clip-rule="evenodd" d="M9.66382 1.18345C9.37014 0.889777 8.88699 0.889777 8.59332 1.18345L3.54032 6.23644C3.24665 6.53012 3.24665 7.01327 3.54032 7.30694L8.59332 12.3599C8.73618 12.5137 8.93757 12.601 9.14691 12.601C9.56262 12.601 9.90495 12.2587 9.90495 11.843C9.90495 11.6327 9.8176 11.4323 9.66382 11.2884L5.90459 7.52921H14.1811C14.9014 7.52921 15.9997 7.75145 16.8966 8.39733C17.7538 9.01445 18.476 10.0502 18.476 11.8242C18.476 12.2399 18.8183 12.5821 19.234 12.5821C19.6497 12.5821 19.992 12.2399 19.992 11.8242C19.992 9.55614 19.0296 8.06495 17.7815 7.16706C16.5731 6.29695 15.1444 6.0132 14.1811 6.0132H5.90459L9.66382 2.25498C9.95749 1.96031 9.95749 1.47712 9.66382 1.18345Z" fill="black"/>
</svg>
