<svg width="24" height="24" viewBox="0 0 24 24" fill="none" xmlns="http://www.w3.org/2000/svg">
<g clip-path="url(#clip0_221_18985)">
<path fill-rule="evenodd" clip-rule="evenodd" d="M12 22C17.523 22 22 17.523 22 12C22 6.477 17.523 2 12 2C6.477 2 2 6.477 2 12C2 17.523 6.477 22 12 22ZM8.25 16C8.25 15.8011 8.32902 15.6103 8.46967 15.4697C8.61032 15.329 8.80109 15.25 9 15.25H15C15.1989 15.25 15.3897 15.329 15.5303 15.4697C15.671 15.6103 15.75 15.8011 15.75 16C15.75 16.1989 15.671 16.3897 15.5303 16.5303C15.3897 16.671 15.1989 16.75 15 16.75H9C8.80109 16.75 8.61032 16.671 8.46967 16.5303C8.32902 16.3897 8.25 16.1989 8.25 16ZM10 10.5C10 11.328 9.552 12 9 12C8.448 12 8 11.328 8 10.5C8 9.672 8.448 9 9 9C9.552 9 10 9.672 10 10.5ZM15 12C15.552 12 16 11.328 16 10.5C16 9.672 15.552 9 15 9C14.448 9 14 9.672 14 10.5C14 11.328 14.448 12 15 12Z" fill="black"/>
</g>
<defs>
<clipPath id="clip0_221_18985">
<rect width="24" height="24" fill="white"/>
</clipPath>
</defs>
</svg>
