<svg width="24" height="24" viewBox="0 0 24 24" fill="none" xmlns="http://www.w3.org/2000/svg">
<g clip-path="url(#clip0_221_18980)">
<path d="M12.0155 19.1572L12.181 19.1552C13.7529 19.1262 14.8698 18.725 15.6557 18.1769C16.7821 17.397 17.2388 16.3397 17.4813 15.7781C17.5016 15.7313 17.5203 15.6879 17.5378 15.6484C17.577 15.5708 17.5984 15.4849 17.6154 15.4164C17.6209 15.3944 17.6259 15.3742 17.6309 15.3567L17.4552 15.3257H6.54483L6.36911 15.3567C6.37187 15.3664 6.37481 15.3768 6.37794 15.3879C6.39825 15.46 6.4263 15.5597 6.46215 15.6484C6.47968 15.6877 6.49844 15.731 6.51868 15.7776C6.76119 16.3366 7.21717 17.3877 8.33389 18.1665C9.14053 18.7322 10.3609 19.1448 12.0052 19.1562V19.1572H12.0155Z" fill="black"/>
<path fill-rule="evenodd" clip-rule="evenodd" d="M22 12C22 17.523 17.523 22 12 22C6.477 22 2 17.523 2 12C2 6.477 6.477 2 12 2C17.523 2 22 6.477 22 12ZM9 12C9.552 12 10 11.328 10 10.5C10 9.672 9.552 9 9 9C8.448 9 8 9.672 8 10.5C8 11.328 8.448 12 9 12ZM16 10.5C16 11.328 15.552 12 15 12C14.448 12 14 11.328 14 10.5C14 9.672 14.448 9 15 9C15.552 9 16 9.672 16 10.5ZM7.44454 19.4385C8.458 20.1459 9.95757 20.697 12.0155 20.7074L12.1914 20.7064C14.1666 20.6733 15.5523 20.1366 16.5451 19.4509C18.0122 18.4328 18.6168 17.0641 18.9213 16.3748C18.9366 16.3401 18.9511 16.3072 18.965 16.2761C19.4097 15.2502 19.1408 14.6555 18.8305 14.306C18.3341 13.7724 17.4241 13.7755 17.4241 13.7755L17.4552 13.7745H6.54483L6.57589 13.7755C6.57589 13.7755 5.66586 13.7724 5.17981 14.306C4.85923 14.6555 4.59034 15.2502 5.04537 16.2761C5.0612 16.3114 5.0779 16.3492 5.09557 16.3891C5.4011 17.0795 5.99769 18.4277 7.44454 19.4385Z" fill="black"/>
</g>
<defs>
<clipPath id="clip0_221_18980">
<rect width="24" height="24" fill="white"/>
</clipPath>
</defs>
</svg>
