<svg width="24" height="24" viewBox="0 0 24 24" fill="none" xmlns="http://www.w3.org/2000/svg">
<path d="M14.3282 1.22026C14.6219 0.926582 15.105 0.926582 15.3987 1.22026L20.4517 6.27325C20.7454 6.56692 20.7454 7.05007 20.4517 7.34375L15.3987 12.3967C15.2559 12.5505 15.0544 12.6378 14.8441 12.6378C14.4284 12.6378 14.0871 12.2955 14.0871 11.8798C14.0871 11.6695 14.1744 11.4691 14.3282 11.3252L18.0874 7.56602H9.81096C9.09067 7.56602 7.99138 7.78825 7.09548 8.43414C6.23827 9.05125 5.51601 10.087 5.51601 11.861C5.51601 12.2767 5.17374 12.6189 4.75803 12.6189C4.34233 12.6189 4 12.2767 4 11.861C4 9.59294 4.9624 8.10175 6.21052 7.20386C7.41895 6.33376 8.8476 6.05001 9.81096 6.05001H18.0874L14.3282 2.29178C14.0345 1.99712 14.0345 1.51393 14.3282 1.22026Z" fill="black"/>
<path d="M11.2309 22.4343L15.5979 22.5026C15.6082 21.98 15.6126 22.1507 15.6126 21.7605V17.699C15.6026 17.6017 15.5262 16.9951 14.9762 16.4947C14.5036 16.0639 13.7144 15.7392 12.4317 15.7392C12.0207 15.7392 11.6871 15.4067 11.6871 14.9947V11.2747C11.6861 11.226 11.6742 10.9798 11.568 10.7326C11.4856 10.543 11.3248 10.3504 10.9991 10.3504C10.6248 10.3504 10.5047 10.6224 10.4581 10.8279C10.4164 11.0116 10.4203 11.1665 10.4213 11.1963C10.4223 11.2102 10.4223 11.225 10.4223 11.2389V16.9584C10.4223 17.2314 10.2734 17.4826 10.0331 17.6136C9.79286 17.7437 9.50101 17.7318 9.27168 17.5828C9.27168 17.5828 8.81894 17.287 8.3007 17.2056C8.07335 17.1708 7.82018 17.1669 7.63155 17.3555C7.45087 17.5352 7.3357 17.6921 7.35257 17.8668C7.36449 18.0028 7.44694 18.1289 7.55714 18.2609C7.73783 18.4753 7.99594 18.6828 8.31264 18.8893C9.66184 19.7699 11.0567 21.1688 11.0567 21.1688C11.3456 21.4607 11.3545 21.6814 11.3236 21.98C11.3164 22.1289 11.2891 22.1406 11.2309 22.4343Z" fill="black"/>
</svg>
