<svg width="24" height="24" viewBox="0 0 24 24" fill="none" xmlns="http://www.w3.org/2000/svg">
<g clip-path="url(#clip0_221_19100)">
<path d="M16.66 14.6469C18.447 13.4929 18.447 10.5069 16.66 9.35294L5.87 2.38494C4.135 1.26394 2 2.72394 2 5.03294V18.9669C2 21.2769 4.134 22.7359 5.87 21.6149L16.66 14.6469ZM22.75 4.99994C22.75 4.80102 22.671 4.61026 22.5303 4.46961C22.3897 4.32895 22.1989 4.24994 22 4.24994C21.8011 4.24994 21.6103 4.32895 21.4697 4.46961C21.329 4.61026 21.25 4.80102 21.25 4.99994V18.9999C21.25 19.1988 21.329 19.3896 21.4697 19.5303C21.6103 19.6709 21.8011 19.7499 22 19.7499C22.1989 19.7499 22.3897 19.6709 22.5303 19.5303C22.671 19.3896 22.75 19.1988 22.75 18.9999V4.99994Z" fill="black"/>
</g>
<defs>
<clipPath id="clip0_221_19100">
<rect width="24" height="24" fill="white"/>
</clipPath>
</defs>
</svg>
