<svg width="24" height="24" viewBox="0 0 24 24" fill="none" xmlns="http://www.w3.org/2000/svg">
<g clip-path="url(#clip0_221_19095)">
<path d="M8.09 14.6469C6.303 13.4929 6.303 10.5069 8.09 9.35294L18.88 2.38494C20.616 1.26394 22.75 2.72394 22.75 5.03294V18.9669C22.75 21.2769 20.616 22.7359 18.88 21.6149L8.09 14.6469ZM2 4.99994C2 4.80102 2.07902 4.61026 2.21967 4.46961C2.36032 4.32895 2.55109 4.24994 2.75 4.24994C2.94891 4.24994 3.13968 4.32895 3.28033 4.46961C3.42098 4.61026 3.5 4.80102 3.5 4.99994V18.9999C3.5 19.1988 3.42098 19.3896 3.28033 19.5303C3.13968 19.6709 2.94891 19.7499 2.75 19.7499C2.55109 19.7499 2.36032 19.6709 2.21967 19.5303C2.07902 19.3896 2 19.1988 2 18.9999V4.99994Z" fill="black"/>
</g>
<defs>
<clipPath id="clip0_221_19095">
<rect width="24" height="24" fill="white"/>
</clipPath>
</defs>
</svg>
