<svg width="24" height="24" viewBox="0 0 24 24" fill="none" xmlns="http://www.w3.org/2000/svg">
<g clip-path="url(#clip0_221_19025)">
<path d="M12.053 2C14.201 2 15.883 2 17.196 2.179C18.541 2.362 19.601 2.743 20.433 3.586C21.265 4.429 21.643 5.502 21.823 6.863C22 8.193 22 9.896 22 12.07V17.367C22 18.184 22 18.745 21.857 19.237C21.7196 19.7108 21.4842 20.1504 21.166 20.5273C20.8478 20.9042 20.454 21.2101 20.01 21.425C19.553 21.645 19.006 21.732 18.209 21.859L18.079 21.879C17.795 21.925 17.553 21.964 17.352 21.984C17.143 22.004 16.93 22.011 16.712 21.968C16.3576 21.8964 16.0277 21.7345 15.7542 21.498C15.4807 21.2615 15.273 20.9584 15.151 20.618C15.0809 20.4119 15.0418 20.1966 15.035 19.979C15.023 19.775 15.023 19.527 15.023 19.237V15.064C15.023 14.639 15.023 14.273 15.12 13.959C15.2274 13.6079 15.4251 13.291 15.6932 13.0401C15.9613 12.7892 16.2905 12.613 16.648 12.529C16.964 12.456 17.325 12.485 17.744 12.519L17.837 12.526L17.947 12.536C18.73 12.598 19.267 12.64 19.722 12.811C20.0427 12.9317 20.337 13.094 20.605 13.298V12.124C20.605 9.884 20.603 8.276 20.44 7.051C20.28 5.847 19.977 5.121 19.447 4.585C18.917 4.049 18.2 3.741 17.01 3.579C15.8 3.414 14.211 3.413 11.999 3.413C9.787 3.413 8.198 3.414 6.989 3.579C5.799 3.741 5.082 4.049 4.552 4.585C4.022 5.121 3.72 5.847 3.56 7.051C3.398 8.276 3.396 9.884 3.396 12.124V13.298C3.663 13.095 3.959 12.93 4.279 12.811C4.735 12.641 5.271 12.598 6.054 12.535L6.164 12.526L6.257 12.519C6.677 12.485 7.037 12.456 7.353 12.529C7.71049 12.613 8.03971 12.7892 8.30782 13.0401C8.57594 13.291 8.77357 13.6079 8.881 13.959C8.979 14.273 8.978 14.639 8.978 15.064V19.236C8.978 19.527 8.978 19.776 8.966 19.979C8.954 20.192 8.926 20.406 8.85 20.617C8.72812 20.9572 8.52049 21.2603 8.2472 21.4968C7.97392 21.7333 7.64422 21.8952 7.29 21.967C7.07831 22.0039 6.86235 22.0097 6.649 21.984C6.448 21.964 6.206 21.925 5.922 21.88L5.792 21.86C4.995 21.732 4.448 21.645 3.991 21.424C3.54701 21.2091 3.15316 20.9032 2.83497 20.5263C2.51678 20.1494 2.28137 19.7098 2.144 19.236C2 18.745 2 18.184 2 17.367V12.07C2 9.896 2 8.192 2.177 6.863C2.357 5.503 2.734 4.429 3.567 3.586C4.4 2.743 5.46 2.362 6.803 2.18C8.116 2 9.8 2 11.947 2H12.053Z" fill="black"/>
</g>
<defs>
<clipPath id="clip0_221_19025">
<rect width="24" height="24" fill="white"/>
</clipPath>
</defs>
</svg>
