<svg width="24" height="24" viewBox="0 0 24 24" fill="none" xmlns="http://www.w3.org/2000/svg">
<path fill-rule="evenodd" clip-rule="evenodd" d="M9.64849 10.2593H2.03815C1.60623 10.2593 1.2534 10.6103 1.2534 11.0427C1.2534 11.4752 1.60623 11.8262 2.03815 11.8262H9.64849C10.0804 11.8262 10.4332 11.4752 10.4332 11.0427C10.4332 10.6103 10.0804 10.2593 9.64849 10.2593Z" fill="black"/>
<path fill-rule="evenodd" clip-rule="evenodd" d="M14.3689 1.22449L2.0379 1.22449C1.60598 1.22449 1.25316 1.57547 1.25316 2.00794C1.25316 2.44041 1.60598 2.79139 2.0379 2.79139L14.3689 2.79139C14.8009 2.79139 15.1537 2.44041 15.1537 2.00794C15.1537 1.57547 14.8009 1.22449 14.3689 1.22449Z" fill="black"/>
<path fill-rule="evenodd" clip-rule="evenodd" d="M5.14665 19.2941H2.03795C1.60603 19.2941 1.25321 19.6451 1.25321 20.0775C1.25321 20.51 1.60603 20.861 2.03795 20.861H5.14665C5.57857 20.861 5.9314 20.51 5.9314 20.0775C5.9314 19.6451 5.57857 19.2941 5.14665 19.2941Z" fill="black"/>
<path fill-rule="evenodd" clip-rule="evenodd" d="M9.64021 5.74133H2.03337C1.59984 5.74133 1.25011 6.09232 1.25011 6.52479C1.25011 6.95725 1.59984 7.30824 2.03337 7.30824H9.64021C10.0737 7.30824 10.4235 6.95725 10.4235 6.52479C10.4235 6.23648 10.2705 5.98472 10.0373 5.84788C9.92076 5.77998 9.78593 5.74133 9.64021 5.74133Z" fill="black"/>
<path fill-rule="evenodd" clip-rule="evenodd" d="M6.201 14.7772H2.03325C1.59972 14.7772 1.24999 15.1282 1.24999 15.5607C1.24999 15.9931 1.59972 16.3441 2.03325 16.3441H6.201C6.63453 16.3441 6.98425 15.9931 6.98425 15.5607C6.98425 15.1282 6.63453 14.7772 6.201 14.7772Z" fill="black"/>
<path fill-rule="evenodd" clip-rule="evenodd" d="M19.7554 4.56215C19.1221 4.72329 18.293 5.0682 17.0908 5.57142L15.2059 6.36089C14.6312 6.60119 14.2524 6.76021 13.9732 6.915C13.7096 7.05989 13.5965 7.16944 13.523 7.27899C13.4495 7.38783 13.3937 7.53484 13.3619 7.83451C13.3265 8.15115 13.3258 8.56249 13.3258 9.18586V11.1125L21.3357 7.90802C21.3343 6.86411 21.3216 6.1114 21.2389 5.54951C21.1449 4.91624 20.9844 4.70067 20.8113 4.58476C20.6367 4.46885 20.3745 4.40454 19.7554 4.56215ZM22.7493 17.0127V8.33773C22.7493 7.10724 22.7493 6.10433 22.6362 5.34243C22.5203 4.55437 22.2595 3.85113 21.5944 3.40728C20.9272 2.96484 20.178 2.99594 19.4062 3.19242C18.6599 3.38183 17.734 3.76915 16.5996 4.2441L14.6263 5.07102C14.0941 5.29295 13.6432 5.48166 13.2898 5.67744C12.9131 5.88523 12.5901 6.12977 12.347 6.49588C12.1038 6.86128 12.002 7.25425 11.9554 7.68185C11.9123 8.0833 11.9123 8.57168 11.9123 9.14841V16.643C11.4197 16.3285 10.8479 16.1617 10.2641 16.1617C8.58338 16.1617 7.20093 17.5442 7.20093 19.2242C7.20093 20.9042 8.58338 22.2866 10.2641 22.2866C11.9441 22.2866 13.3265 20.9042 13.3265 19.2242C13.3265 19.0666 13.3145 18.909 13.2898 18.7528H13.3258V12.6342L21.3357 9.43041V14.7574C20.8438 14.4429 20.2713 14.2761 19.6875 14.2761C18.0068 14.2761 16.6243 15.6585 16.6243 17.3385C16.6243 19.0185 18.0068 20.401 19.6875 20.401C21.3675 20.401 22.75 19.0185 22.75 17.3385C22.75 17.2297 22.7443 17.1208 22.7323 17.0127H22.7493ZM19.6868 15.6903C18.7821 15.6903 18.0379 16.4345 18.0379 17.3392C18.0379 18.2439 18.7821 18.9888 19.6868 18.9888C20.5915 18.9888 21.3357 18.2439 21.3357 17.3392C21.3357 16.4345 20.5915 15.6903 19.6868 15.6903ZM10.2634 17.5753C9.35871 17.5753 8.61377 18.3195 8.61377 19.2242C8.61377 20.1288 9.35871 20.8731 10.2634 20.8731C11.1681 20.8731 11.9123 20.1288 11.9123 19.2242C11.9123 18.3195 11.1681 17.5753 10.2634 17.5753Z" fill="black"/>
<path d="M12.4945 6.94141L12.5436 11.9972L22.1154 8.51212L21.33 4.53615L20.3974 3.50537L15.3415 5.46878L12.4945 6.94141Z" fill="black"/>
</svg>
