<svg width="24" height="24" viewBox="0 0 24 24" fill="none" xmlns="http://www.w3.org/2000/svg">
<g clip-path="url(#clip0_221_19075)">
<path d="M12 8.75C11.8011 8.75 11.6103 8.67098 11.4697 8.53033C11.329 8.38968 11.25 8.19891 11.25 8V5C11.25 4.80109 11.329 4.61032 11.4697 4.46967C11.6103 4.32902 11.8011 4.25 12 4.25C12.1989 4.25 12.3897 4.32902 12.5303 4.46967C12.671 4.61032 12.75 4.80109 12.75 5V8C12.75 8.19891 12.671 8.38968 12.5303 8.53033C12.3897 8.67098 12.1989 8.75 12 8.75ZM4 12C3.46957 12 2.96086 11.7893 2.58579 11.4142C2.21071 11.0391 2 10.5304 2 10C2 9.46957 2.21071 8.96086 2.58579 8.58579C2.96086 8.21071 3.46957 8 4 8C4.53043 8 5.03914 8.21071 5.41421 8.58579C5.78929 8.96086 6 9.46957 6 10C6 10.5304 5.78929 11.0391 5.41421 11.4142C5.03914 11.7893 4.53043 12 4 12ZM10 12C10 11.4696 10.2107 10.9609 10.5858 10.5858C10.9609 10.2107 11.4696 10 12 10C12.5304 10 13.0391 10.2107 13.4142 10.5858C13.7893 10.9609 14 11.4696 14 12C14 12.5304 13.7893 13.0391 13.4142 13.4142C13.0391 13.7893 12.5304 14 12 14C11.4696 14 10.9609 13.7893 10.5858 13.4142C10.2107 13.0391 10 12.5304 10 12ZM18 14C18 13.4696 18.2107 12.9609 18.5858 12.5858C18.9609 12.2107 19.4696 12 20 12C20.5304 12 21.0391 12.2107 21.4142 12.5858C21.7893 12.9609 22 13.4696 22 14C22 14.5304 21.7893 15.0391 21.4142 15.4142C21.0391 15.7893 20.5304 16 20 16C19.4696 16 18.9609 15.7893 18.5858 15.4142C18.2107 15.0391 18 14.5304 18 14ZM19.25 10C19.25 10.1989 19.329 10.3897 19.4697 10.5303C19.6103 10.671 19.8011 10.75 20 10.75C20.1989 10.75 20.3897 10.671 20.5303 10.5303C20.671 10.3897 20.75 10.1989 20.75 10V5C20.75 4.80109 20.671 4.61032 20.5303 4.46967C20.3897 4.32902 20.1989 4.25 20 4.25C19.8011 4.25 19.6103 4.32902 19.4697 4.46967C19.329 4.61032 19.25 4.80109 19.25 5V10ZM4 13.25C3.80109 13.25 3.61032 13.329 3.46967 13.4697C3.32902 13.6103 3.25 13.8011 3.25 14V19C3.25 19.1989 3.32902 19.3897 3.46967 19.5303C3.61032 19.671 3.80109 19.75 4 19.75C4.19891 19.75 4.38968 19.671 4.53033 19.5303C4.67098 19.3897 4.75 19.1989 4.75 19V14C4.75 13.8011 4.67098 13.6103 4.53033 13.4697C4.38968 13.329 4.19891 13.25 4 13.25ZM11.25 19C11.25 19.1989 11.329 19.3897 11.4697 19.5303C11.6103 19.671 11.8011 19.75 12 19.75C12.1989 19.75 12.3897 19.671 12.5303 19.5303C12.671 19.3897 12.75 19.1989 12.75 19V16C12.75 15.8011 12.671 15.6103 12.5303 15.4697C12.3897 15.329 12.1989 15.25 12 15.25C11.8011 15.25 11.6103 15.329 11.4697 15.4697C11.329 15.6103 11.25 15.8011 11.25 16V19ZM20 19.75C19.8011 19.75 19.6103 19.671 19.4697 19.5303C19.329 19.3897 19.25 19.1989 19.25 19V18C19.25 17.8011 19.329 17.6103 19.4697 17.4697C19.6103 17.329 19.8011 17.25 20 17.25C20.1989 17.25 20.3897 17.329 20.5303 17.4697C20.671 17.6103 20.75 17.8011 20.75 18V19C20.75 19.1989 20.671 19.3897 20.5303 19.5303C20.3897 19.671 20.1989 19.75 20 19.75ZM3.25 5C3.25 4.80109 3.32902 4.61032 3.46967 4.46967C3.61032 4.32902 3.80109 4.25 4 4.25C4.19891 4.25 4.38968 4.32902 4.53033 4.46967C4.67098 4.61032 4.75 4.80109 4.75 5V6C4.75 6.19891 4.67098 6.38968 4.53033 6.53033C4.38968 6.67098 4.19891 6.75 4 6.75C3.80109 6.75 3.61032 6.67098 3.46967 6.53033C3.32902 6.38968 3.25 6.19891 3.25 6V5Z" fill="black"/>
</g>
<defs>
<clipPath id="clip0_221_19075">
<rect width="24" height="24" fill="white"/>
</clipPath>
</defs>
</svg>
