<svg width="24" height="24" viewBox="0 0 24 24" fill="none" xmlns="http://www.w3.org/2000/svg">
<g clip-path="url(#clip0_221_19052)">
<path d="M3.003 11.716C3.043 9.87299 3.062 8.95199 3.7 8.16399C3.817 8.01999 3.988 7.84899 4.132 7.73299C4.917 7.09699 5.954 7.09699 8.029 7.09699C8.77 7.09699 9.141 7.09699 9.494 7.00499C9.56734 6.98499 9.64 6.96266 9.712 6.93799C10.057 6.81699 10.366 6.60799 10.985 6.19199C13.427 4.54699 14.647 3.72499 15.672 4.08199C15.868 4.15099 16.059 4.24999 16.228 4.37199C17.114 5.00699 17.181 6.48699 17.316 9.44499C17.366 10.541 17.4 11.479 17.4 12C17.4 12.521 17.366 13.46 17.316 14.555C17.182 17.513 17.114 18.993 16.228 19.628C16.058 19.75 15.868 19.849 15.672 19.918C14.647 20.275 13.427 19.453 10.985 17.808C10.366 17.392 10.057 17.183 9.712 17.062C9.64021 17.0369 9.56749 17.0146 9.494 16.995C9.141 16.903 8.77 16.903 8.029 16.903C5.954 16.903 4.917 16.903 4.132 16.267C3.97378 16.1387 3.82903 15.9946 3.7 15.837C3.062 15.047 3.042 14.127 3.003 12.285C2.99884 12.095 2.99884 11.906 3.003 11.716Z" fill="black"/>
<path fill-rule="evenodd" clip-rule="evenodd" d="M18.6516 9.97434C18.9426 9.68409 19.4211 9.68409 19.7121 9.97434L20.6819 10.9449L21.6516 9.97434C21.7934 9.82209 21.9929 9.73584 22.2006 9.73584C22.6124 9.73584 22.9507 10.0741 22.9507 10.4859C22.9507 10.6936 22.8644 10.8931 22.7122 11.0349L21.7416 12.0046L22.7122 12.9744C22.8412 13.1131 22.9132 13.2961 22.9132 13.4859C22.9132 13.8977 22.5749 14.2359 22.1631 14.2359C21.9734 14.2359 21.7904 14.1639 21.6516 14.0349L20.6819 13.0644L19.7121 14.0349C19.5704 14.1872 19.3709 14.2734 19.1631 14.2734C18.7513 14.2734 18.4131 13.9352 18.4131 13.5234C18.4131 13.3156 18.4993 13.1161 18.6516 12.9744L19.6221 12.0046L18.6516 11.0349C18.3613 10.7439 18.3613 10.2653 18.6516 9.97434Z" fill="black"/>
</g>
<defs>
<clipPath id="clip0_221_19052">
<rect width="24" height="24" fill="white"/>
</clipPath>
</defs>
</svg>
