<svg width="24" height="24" viewBox="0 0 24 24" fill="none" xmlns="http://www.w3.org/2000/svg">
<g clip-path="url(#clip0_221_19163)">
<path d="M19.345 5.993C19.623 5.89 19.955 5.803 20.315 5.868C20.757 5.948 21.151 6.197 21.415 6.56C21.63 6.856 21.695 7.194 21.723 7.49C21.75 7.777 21.75 8.136 21.75 8.545V8.655C21.75 8.955 21.752 9.275 21.644 9.57C21.559 9.8031 21.4254 10.0155 21.252 10.193C21.032 10.418 20.743 10.556 20.472 10.685L20.404 10.718L18.619 11.575C18.25 11.752 17.927 11.907 17.655 12.007C17.394 12.104 17.085 12.187 16.75 12.143V16.429C16.75 18.243 15.315 19.75 13.5 19.75C11.685 19.75 10.25 18.243 10.25 16.429C10.25 14.615 11.685 13.107 13.5 13.107C14.1217 13.1073 14.7298 13.2887 15.25 13.629V10H15.253C15.2503 9.83066 15.2493 9.649 15.25 9.455V9.345C15.25 9.045 15.248 8.725 15.356 8.43C15.441 8.19689 15.5746 7.98452 15.748 7.807C15.968 7.582 16.257 7.444 16.528 7.315L16.596 7.282L18.381 6.425C18.75 6.248 19.073 6.093 19.345 5.993Z" fill="black"/>
<path fill-rule="evenodd" clip-rule="evenodd" d="M2.25 5C2.25 4.80109 2.32902 4.61032 2.46967 4.46967C2.61032 4.32902 2.80109 4.25 3 4.25H15C15.1989 4.25 15.3897 4.32902 15.5303 4.46967C15.671 4.61032 15.75 4.80109 15.75 5C15.75 5.19891 15.671 5.38968 15.5303 5.53033C15.3897 5.67098 15.1989 5.75 15 5.75H3C2.80109 5.75 2.61032 5.67098 2.46967 5.53033C2.32902 5.38968 2.25 5.19891 2.25 5ZM2.25 9C2.25 8.80109 2.32902 8.61032 2.46967 8.46967C2.61032 8.32902 2.80109 8.25 3 8.25H13C13.1989 8.25 13.3897 8.32902 13.5303 8.46967C13.671 8.61032 13.75 8.80109 13.75 9C13.75 9.19891 13.671 9.38968 13.5303 9.53033C13.3897 9.67098 13.1989 9.75 13 9.75H3C2.80109 9.75 2.61032 9.67098 2.46967 9.53033C2.32902 9.38968 2.25 9.19891 2.25 9ZM2.25 13C2.25 12.8011 2.32902 12.6103 2.46967 12.4697C2.61032 12.329 2.80109 12.25 3 12.25H9C9.19891 12.25 9.38968 12.329 9.53033 12.4697C9.67098 12.6103 9.75 12.8011 9.75 13C9.75 13.1989 9.67098 13.3897 9.53033 13.5303C9.38968 13.671 9.19891 13.75 9 13.75H3C2.80109 13.75 2.61032 13.671 2.46967 13.5303C2.32902 13.3897 2.25 13.1989 2.25 13ZM2.25 17C2.25 16.8011 2.32902 16.6103 2.46967 16.4697C2.61032 16.329 2.80109 16.25 3 16.25H8C8.19891 16.25 8.38968 16.329 8.53033 16.4697C8.67098 16.6103 8.75 16.8011 8.75 17C8.75 17.1989 8.67098 17.3897 8.53033 17.5303C8.38968 17.671 8.19891 17.75 8 17.75H3C2.80109 17.75 2.61032 17.671 2.46967 17.5303C2.32902 17.3897 2.25 17.1989 2.25 17Z" fill="black"/>
</g>
<defs>
<clipPath id="clip0_221_19163">
<rect width="24" height="24" fill="white"/>
</clipPath>
</defs>
</svg>
