<svg width="24" height="24" viewBox="0 0 24 24" fill="none" xmlns="http://www.w3.org/2000/svg">
<g clip-path="url(#clip0_221_19035)">
<path d="M12 2C10.475 2 9.01248 2.6058 7.93414 3.68414C6.85581 4.76247 6.25001 6.22501 6.25001 7.75V10.75C6.24781 12.2114 6.80218 13.6189 7.80043 14.6863C8.79869 15.7536 10.1659 16.4008 11.6242 16.4963C13.0825 16.5919 14.5225 16.1285 15.6514 15.2004C16.7804 14.2724 17.5136 12.9492 17.702 11.5H13C12.8011 11.5 12.6103 11.421 12.4697 11.2803C12.329 11.1397 12.25 10.9489 12.25 10.75C12.25 10.5511 12.329 10.3603 12.4697 10.2197C12.6103 10.079 12.8011 10 13 10H17.75V8.5H13C12.8011 8.5 12.6103 8.42098 12.4697 8.28033C12.329 8.13968 12.25 7.94891 12.25 7.75C12.25 7.55109 12.329 7.36032 12.4697 7.21967C12.6103 7.07902 12.8011 7 13 7H17.701C17.519 5.61681 16.8404 4.34695 15.7915 3.42706C14.7427 2.50716 13.3951 1.99997 12 2Z" fill="black"/>
<path fill-rule="evenodd" clip-rule="evenodd" d="M4 9C4.19891 9 4.38968 9.07902 4.53033 9.21967C4.67098 9.36032 4.75 9.55109 4.75 9.75V10.75C4.75 11.7021 4.93753 12.6448 5.30187 13.5245C5.66622 14.4041 6.20025 15.2033 6.87348 15.8765C7.5467 16.5497 8.34593 17.0838 9.22554 17.4481C10.1052 17.8125 11.0479 18 12 18C12.9521 18 13.8948 17.8125 14.7745 17.4481C15.6541 17.0838 16.4533 16.5497 17.1265 15.8765C17.7997 15.2033 18.3338 14.4041 18.6981 13.5245C19.0625 12.6448 19.25 11.7021 19.25 10.75V9.75C19.25 9.55109 19.329 9.36032 19.4697 9.21967C19.6103 9.07902 19.8011 9 20 9C20.1989 9 20.3897 9.07902 20.5303 9.21967C20.671 9.36032 20.75 9.55109 20.75 9.75V10.75C20.7501 12.9408 19.9282 15.052 18.447 16.6662C16.9657 18.2804 14.9328 19.2802 12.75 19.468V21.75C12.75 21.9489 12.671 22.1397 12.5303 22.2803C12.3897 22.421 12.1989 22.5 12 22.5C11.8011 22.5 11.6103 22.421 11.4697 22.2803C11.329 22.1397 11.25 21.9489 11.25 21.75V19.468C9.06722 19.2802 7.0343 18.2804 5.55303 16.6662C4.07177 15.052 3.24995 12.9408 3.25 10.75V9.75C3.25 9.55109 3.32902 9.36032 3.46967 9.21967C3.61032 9.07902 3.80109 9 4 9Z" fill="black"/>
</g>
<defs>
<clipPath id="clip0_221_19035">
<rect width="24" height="24" fill="white"/>
</clipPath>
</defs>
</svg>
