<svg width="24" height="24" viewBox="0 0 24 24" fill="none" xmlns="http://www.w3.org/2000/svg">
<g clip-path="url(#clip0_221_19141)">
<path fill-rule="evenodd" clip-rule="evenodd" d="M8.47 2.46995C8.61063 2.3295 8.80125 2.25061 9 2.25061C9.19875 2.25061 9.38937 2.3295 9.53 2.46995L11.53 4.46995C11.6348 4.57484 11.7061 4.70842 11.735 4.85381C11.7638 4.99921 11.749 5.14991 11.6923 5.28687C11.6356 5.42384 11.5395 5.54092 11.4163 5.62334C11.2931 5.70576 11.1482 5.74982 11 5.74995H9C7.3424 5.74995 5.75269 6.40843 4.58058 7.58053C3.40848 8.75264 2.75 10.3423 2.75 12C2.75 13.6576 3.40848 15.2473 4.58058 16.4194C5.75269 17.5915 7.3424 18.25 9 18.25H9.5C9.69891 18.25 9.88968 18.329 10.0303 18.4696C10.171 18.6103 10.25 18.801 10.25 19C10.25 19.1989 10.171 19.3896 10.0303 19.5303C9.88968 19.6709 9.69891 19.75 9.5 19.75H9C6.94457 19.75 4.97333 18.9334 3.51992 17.48C2.06652 16.0266 1.25 14.0554 1.25 12C1.25 9.94452 2.06652 7.97328 3.51992 6.51987C4.97333 5.06647 6.94457 4.24995 9 4.24995H9.19L8.47 3.52995C8.32955 3.38933 8.25066 3.1987 8.25066 2.99995C8.25066 2.8012 8.32955 2.61058 8.47 2.46995ZM13.75 4.99995C13.75 4.80104 13.829 4.61027 13.9697 4.46962C14.1103 4.32897 14.3011 4.24995 14.5 4.24995H15C17.0554 4.24995 19.0267 5.06647 20.4801 6.51987C21.9335 7.97328 22.75 9.94452 22.75 12C22.75 14.0554 21.9335 16.0266 20.4801 17.48C19.0267 18.9334 17.0554 19.75 15 19.75H14.81L15.53 20.4699C15.6037 20.5386 15.6628 20.6214 15.7038 20.7134C15.7448 20.8054 15.7668 20.9047 15.7686 21.0054C15.7704 21.1061 15.7518 21.2062 15.7141 21.2995C15.6764 21.3929 15.6203 21.4778 15.549 21.549C15.4778 21.6202 15.393 21.6764 15.2996 21.7141C15.2062 21.7518 15.1062 21.7703 15.0055 21.7685C14.9048 21.7668 14.8055 21.7447 14.7135 21.7037C14.6215 21.6627 14.5387 21.6036 14.47 21.53L12.47 19.53C12.3652 19.4251 12.2939 19.2915 12.265 19.1461C12.2362 19.0007 12.251 18.85 12.3077 18.713C12.3644 18.5761 12.4605 18.459 12.5837 18.3766C12.7069 18.2941 12.8518 18.2501 13 18.25H15C16.6576 18.25 18.2473 17.5915 19.4194 16.4194C20.5915 15.2473 21.25 13.6576 21.25 12C21.25 10.3423 20.5915 8.75264 19.4194 7.58053C18.2473 6.40843 16.6576 5.74995 15 5.74995H14.5C14.3011 5.74995 14.1103 5.67093 13.9697 5.53028C13.829 5.38963 13.75 5.19886 13.75 4.99995ZM12.287 9.30695C12.4241 9.36372 12.5412 9.45986 12.6236 9.58322C12.706 9.70657 12.75 9.8516 12.75 9.99995V14C12.75 14.1989 12.671 14.3896 12.5303 14.5303C12.3897 14.6709 12.1989 14.75 12 14.75C11.8011 14.75 11.6103 14.6709 11.4697 14.5303C11.329 14.3896 11.25 14.1989 11.25 14V11.81L11.03 12.03C10.9613 12.1036 10.8785 12.1627 10.7865 12.2037C10.6945 12.2447 10.5952 12.2668 10.4945 12.2685C10.3938 12.2703 10.2938 12.2518 10.2004 12.2141C10.107 12.1764 10.0222 12.1202 9.95096 12.049C9.87974 11.9778 9.8236 11.8929 9.78588 11.7995C9.74816 11.7062 9.72963 11.6061 9.73141 11.5054C9.73318 11.4047 9.75523 11.3054 9.79622 11.2134C9.83721 11.1214 9.89631 11.0386 9.97 10.97L11.47 9.46995C11.5748 9.36506 11.7084 9.29359 11.8538 9.26458C11.9992 9.23557 12.15 9.25031 12.287 9.30695Z" fill="black"/>
</g>
<defs>
<clipPath id="clip0_221_19141">
<rect width="24" height="24" fill="white"/>
</clipPath>
</defs>
</svg>
