<svg width="24" height="24" viewBox="0 0 24 24" fill="none" xmlns="http://www.w3.org/2000/svg">
<g clip-path="url(#clip0_221_19156)">
<path d="M8.50998 2H15.49C15.722 2 15.9 2 16.056 2.015C17.164 2.124 18.071 2.79 18.456 3.687H5.54398C5.92898 2.79 6.83598 2.124 7.94398 2.015C8.09798 2 8.27598 2 8.50998 2ZM6.30998 4.723C4.91998 4.723 3.77998 5.563 3.39998 6.677L3.37598 6.747C3.77398 6.627 4.18898 6.547 4.60798 6.494C5.68798 6.355 7.05398 6.355 8.63998 6.355H15.532C17.118 6.355 18.483 6.355 19.564 6.494C19.984 6.548 20.398 6.626 20.796 6.747L20.773 6.677C20.393 5.563 19.253 4.723 17.862 4.723H6.30998Z" fill="black"/>
<path fill-rule="evenodd" clip-rule="evenodd" d="M15.3281 7.54199H8.67209C5.29809 7.54199 3.61009 7.54199 2.66209 8.52899C1.71408 9.51599 1.93709 11.04 2.38409 14.089L2.80609 16.981C3.15609 19.372 3.33109 20.568 4.22809 21.284C5.12609 22 6.44809 22 9.09509 22H14.9051C17.5511 22 18.8751 22 19.7721 21.284C20.6691 20.568 20.8441 19.372 21.1941 16.981L21.6161 14.09C22.0631 11.04 22.2861 9.51599 21.3381 8.52899C20.3901 7.54199 18.7021 7.54199 15.3281 7.54199ZM14.5881 10.165C13.3571 9.63899 11.9431 10.431 11.8611 11.693C11.8578 11.7477 11.8564 11.8163 11.8571 11.899V15.522C11.4618 15.3098 11.0198 15.1995 10.5711 15.201C9.15109 15.2 8.00009 16.275 8.00009 17.6C8.00009 18.925 9.15109 20 10.5711 20C11.9911 20 13.1431 18.926 13.1431 17.6V13.681L14.0711 14.143C14.1498 14.183 14.2158 14.2147 14.2691 14.238C15.5001 14.764 16.9141 13.972 16.9971 12.71C16.9998 12.6553 17.0008 12.5863 17.0001 12.503V12.477L16.9991 12.384C16.9781 11.761 16.6121 11.192 16.0331 10.881L15.9461 10.837L14.7861 10.259C14.7074 10.2197 14.6408 10.1883 14.5881 10.165Z" fill="black"/>
<path d="M14.053 11.256C13.643 11.081 13.171 11.345 13.144 11.766C13.1421 11.8373 13.1421 11.9087 13.144 11.98C13.1493 12.0842 13.1817 12.1852 13.238 12.2731C13.2943 12.3609 13.3726 12.4326 13.465 12.481L13.523 12.511L14.658 13.075C14.765 13.129 14.791 13.141 14.804 13.147C15.214 13.322 15.686 13.058 15.714 12.637C15.7159 12.5653 15.7159 12.4936 15.714 12.422C15.7084 12.3178 15.6758 12.217 15.6193 12.1293C15.5629 12.0416 15.4845 11.9701 15.392 11.922L14.053 11.256ZM10.571 16.4C11.281 16.4 11.857 16.938 11.857 17.6C11.857 18.263 11.282 18.8 10.571 18.8C9.86101 18.8 9.28601 18.263 9.28601 17.6C9.28601 16.937 9.86101 16.4 10.571 16.4Z" fill="black"/>
</g>
<defs>
<clipPath id="clip0_221_19156">
<rect width="24" height="24" fill="white"/>
</clipPath>
</defs>
</svg>
