<svg width="24" height="24" viewBox="0 0 24 24" fill="none" xmlns="http://www.w3.org/2000/svg">
<g clip-path="url(#clip0_221_19105)">
<path d="M14.6469 3.76266C13.4929 1.97566 10.5069 1.97566 9.35294 3.76266L2.38494 14.5527C1.26394 16.2877 2.72394 18.4227 5.03294 18.4227L18.9669 18.4227C21.2769 18.4227 22.7359 16.2887 21.6149 14.5527L14.6469 3.76266ZM5.02766 19.8782C4.82875 19.8782 4.63799 19.9573 4.49733 20.0979C4.35668 20.2386 4.27766 20.4293 4.27766 20.6282C4.27766 20.8271 4.35668 21.0179 4.49733 21.1586C4.63799 21.2992 4.82875 21.3782 5.02766 21.3782L19.0277 21.3782C19.2266 21.3782 19.4173 21.2992 19.558 21.1586C19.6986 21.0179 19.7777 20.8271 19.7777 20.6282C19.7777 20.4293 19.6986 20.2386 19.558 20.0979C19.4173 19.9573 19.2266 19.8782 19.0277 19.8782L5.02766 19.8782Z" fill="black"/>
</g>
<defs>
<clipPath id="clip0_221_19105">
<rect width="24" height="24" fill="white"/>
</clipPath>
</defs>
</svg>
