<svg width="24" height="24" viewBox="0 0 24 24" fill="none" xmlns="http://www.w3.org/2000/svg">
<g clip-path="url(#clip0_221_19019)">
<path d="M15.75 12.25V11.5C15.75 11.3011 15.671 11.1103 15.5303 10.9697C15.3897 10.829 15.1989 10.75 15 10.75C14.8011 10.75 14.6103 10.829 14.4697 10.9697C14.329 11.1103 14.25 11.3011 14.25 11.5V12.25H7C6.66848 12.25 6.35054 12.1183 6.11612 11.8839C5.8817 11.6495 5.75 11.3315 5.75 11C5.75 10.6685 5.8817 10.3505 6.11612 10.1161C6.35054 9.8817 6.66848 9.75 7 9.75H17C17.3315 9.75 17.6495 9.8817 17.8839 10.1161C18.1183 10.3505 18.25 10.6685 18.25 11C18.25 11.3315 18.1183 11.6495 17.8839 11.8839C17.6495 12.1183 17.3315 12.25 17 12.25H15.75ZM6.75 17C6.75 16.8011 6.82902 16.6103 6.96967 16.4697C7.11032 16.329 7.30109 16.25 7.5 16.25C7.69891 16.25 7.88968 16.329 8.03033 16.4697C8.17098 16.6103 8.25 16.8011 8.25 17C8.25 17.1989 8.17098 17.3897 8.03033 17.5303C7.88968 17.671 7.69891 17.75 7.5 17.75C7.30109 17.75 7.11032 17.671 6.96967 17.5303C6.82902 17.3897 6.75 17.1989 6.75 17Z" fill="black"/>
<path fill-rule="evenodd" clip-rule="evenodd" d="M15.32 3.67904C15.4999 3.59417 15.6388 3.44129 15.706 3.25404C15.7733 3.06678 15.7634 2.86049 15.6785 2.68054C15.5936 2.50059 15.4408 2.36173 15.2535 2.2945C15.0662 2.22726 14.86 2.23717 14.68 2.32204L6.768 6.04604C5.032 6.13504 3.947 6.39704 3.173 7.17204C2 8.34304 2 10.229 2 14C2 17.771 2 19.657 3.172 20.828C4.344 21.999 6.229 22 10 22H14C17.771 22 19.657 22 20.828 20.828C21.999 19.656 22 17.771 22 14C22 10.229 22 8.34304 20.828 7.17204C19.656 6.00104 17.771 6.00004 14 6.00004H10.387L15.32 3.67904ZM7 8.25004C6.27065 8.25004 5.57118 8.53977 5.05546 9.0555C4.53973 9.57122 4.25 10.2707 4.25 11C4.25 11.7294 4.53973 12.4289 5.05546 12.9446C5.57118 13.4603 6.27065 13.75 7 13.75H17C17.7293 13.75 18.4288 13.4603 18.9445 12.9446C19.4603 12.4289 19.75 11.7294 19.75 11C19.75 10.2707 19.4603 9.57122 18.9445 9.0555C18.4288 8.53977 17.7293 8.25004 17 8.25004H7ZM5.25 17C5.25 16.4033 5.48705 15.831 5.90901 15.4091C6.33097 14.9871 6.90326 14.75 7.5 14.75C8.09674 14.75 8.66903 14.9871 9.09099 15.4091C9.51295 15.831 9.75 16.4033 9.75 17C9.75 17.5968 9.51295 18.1691 9.09099 18.591C8.66903 19.013 8.09674 19.25 7.5 19.25C6.90326 19.25 6.33097 19.013 5.90901 18.591C5.48705 18.1691 5.25 17.5968 5.25 17ZM12.25 17C12.25 16.8011 12.329 16.6104 12.4697 16.4697C12.6103 16.3291 12.8011 16.25 13 16.25H18C18.1989 16.25 18.3897 16.3291 18.5303 16.4697C18.671 16.6104 18.75 16.8011 18.75 17C18.75 17.199 18.671 17.3897 18.5303 17.5304C18.3897 17.671 18.1989 17.75 18 17.75H13C12.8011 17.75 12.6103 17.671 12.4697 17.5304C12.329 17.3897 12.25 17.199 12.25 17Z" fill="black"/>
</g>
<defs>
<clipPath id="clip0_221_19019">
<rect width="24" height="24" fill="white"/>
</clipPath>
</defs>
</svg>
