<svg width="24" height="24" viewBox="0 0 24 24" fill="none" xmlns="http://www.w3.org/2000/svg">
<g clip-path="url(#clip0_221_19151)">
<path d="M10.09 11.963L19.364 8.63101V14.171C18.7826 13.8386 18.1237 13.6658 17.454 13.67C15.496 13.67 13.909 15.096 13.909 16.855C13.909 18.614 15.496 20.04 17.454 20.04C19.413 20.04 21 18.614 21 16.855V7.49201C21 6.37201 21 5.43301 20.912 4.68501C20.9 4.58137 20.8856 4.47801 20.869 4.37501C20.785 3.86501 20.635 3.38701 20.347 2.98901C20.1674 2.73823 19.9371 2.52801 19.671 2.37201L19.662 2.36701C18.891 1.90601 18.023 1.93901 17.13 2.14301C16.266 2.34101 15.194 2.74301 13.88 3.23801L11.596 4.09701C10.981 4.32801 10.459 4.52401 10.049 4.72701C9.614 4.94301 9.239 5.19801 8.957 5.57801C8.676 5.95801 8.559 6.36801 8.505 6.81201C8.455 7.23001 8.455 7.73801 8.455 8.33701V16.131C7.8736 15.7986 7.21469 15.6258 6.545 15.63C4.587 15.63 3 17.056 3 18.815C3 20.574 4.587 22 6.545 22C8.504 22 10.091 20.574 10.091 18.815L10.09 11.963Z" fill="black"/>
</g>
<defs>
<clipPath id="clip0_221_19151">
<rect width="24" height="24" fill="white"/>
</clipPath>
</defs>
</svg>
