<svg width="24" height="24" viewBox="0 0 24 24" fill="none" xmlns="http://www.w3.org/2000/svg">
<g clip-path="url(#clip0_221_19058)">
<path d="M5.0029 11.716C5.0409 9.87299 5.0599 8.95199 5.6809 8.16399C5.7939 8.01999 5.9609 7.84899 6.1009 7.73299C6.8639 7.09699 7.8719 7.09699 9.8889 7.09699C10.6089 7.09699 10.9699 7.09699 11.3139 7.00499C11.3852 6.98499 11.4556 6.96266 11.5249 6.93799C11.8609 6.81699 12.1619 6.60799 12.7629 6.19199C15.1369 4.54699 16.3229 3.72499 17.3199 4.08199C17.5109 4.15099 17.6959 4.24999 17.8609 4.37199C18.7219 5.00699 18.7879 6.48699 18.9189 9.44499C18.9669 10.541 18.9999 11.48 18.9999 12C18.9999 12.52 18.9669 13.46 18.9189 14.555C18.7879 17.513 18.7219 18.993 17.8609 19.628C17.6953 19.7494 17.5136 19.847 17.3209 19.918C16.3239 20.275 15.1369 19.453 12.7629 17.808C12.1619 17.392 11.8609 17.183 11.5249 17.062C11.4554 17.0371 11.385 17.0147 11.3139 16.995C10.9699 16.903 10.6099 16.903 9.8889 16.903C7.8719 16.903 6.8639 16.903 6.0999 16.267C5.94621 16.138 5.80584 15.994 5.6809 15.837C5.0599 15.047 5.0409 14.127 5.0029 12.285C4.99903 12.095 4.99903 11.906 5.0029 11.716Z" fill="black"/>
</g>
<defs>
<clipPath id="clip0_221_19058">
<rect width="24" height="24" fill="white"/>
</clipPath>
</defs>
</svg>
