<svg width="24" height="24" viewBox="0 0 24 24" fill="none" xmlns="http://www.w3.org/2000/svg">
<path fill-rule="evenodd" clip-rule="evenodd" d="M1.25 12.0005C1.25 6.06725 6.06628 1.25 11.9995 1.25C17.9327 1.25 22.75 6.06725 22.75 12.0005C22.75 17.9337 17.9327 22.75 11.9995 22.75C6.06628 22.75 1.25 17.9337 1.25 12.0005ZM15.1498 14.6876C15.602 14.1586 15.9234 13.5147 16.0631 12.806L21.106 13.4449C20.7836 15.4882 19.7894 17.3089 18.357 18.6744L15.1498 14.6876ZM14.6098 12.0005C14.6098 10.5601 13.4399 9.39023 11.9995 9.39023C10.5591 9.39023 9.38923 10.5601 9.38923 12.0005C9.38923 13.4409 10.5591 14.6108 11.9995 14.6108C13.4399 14.6108 14.6098 13.4409 14.6098 12.0005ZM4.008 7.40482C4.96726 5.74184 6.4306 4.40529 8.18941 3.60474L10.0211 8.3621C9.48205 8.65656 9.01592 9.06583 8.65557 9.55893L4.008 7.40482Z" fill="black"/>
</svg>
