<svg width="24" height="24" viewBox="0 0 24 24" fill="none" xmlns="http://www.w3.org/2000/svg">
<g clip-path="url(#clip0_221_19030)">
<path d="M2 12.124C2 6.533 6.477 2 12 2C17.523 2 22 6.533 22 12.124V17.367C22 18.184 22 18.745 21.857 19.237C21.7196 19.7108 21.4842 20.1504 21.166 20.5273C20.8478 20.9042 20.454 21.2101 20.01 21.425C19.552 21.645 19.006 21.732 18.209 21.859L18.079 21.879C17.8377 21.9208 17.5953 21.9559 17.352 21.984C17.143 22.004 16.93 22.011 16.712 21.968C16.3576 21.8964 16.0277 21.7345 15.7542 21.498C15.4807 21.2615 15.273 20.9584 15.151 20.618C15.0809 20.4119 15.0418 20.1966 15.035 19.979C15.023 19.775 15.023 19.527 15.023 19.237V15.064C15.023 14.639 15.023 14.273 15.12 13.959C15.2274 13.6079 15.4251 13.291 15.6932 13.0401C15.9613 12.7892 16.2905 12.613 16.648 12.529C16.964 12.456 17.325 12.485 17.744 12.519L17.837 12.526L17.947 12.536C18.73 12.598 19.267 12.64 19.722 12.811C20.0427 12.9317 20.337 13.094 20.605 13.298V12.124C20.605 7.313 16.752 3.413 12 3.413C7.248 3.413 3.395 7.313 3.395 12.124V13.298C3.662 13.095 3.958 12.93 4.278 12.811C4.733 12.641 5.27 12.598 6.053 12.535L6.163 12.526L6.256 12.519C6.676 12.485 7.036 12.456 7.352 12.529C7.70949 12.613 8.03871 12.7892 8.30682 13.0401C8.57494 13.291 8.77257 13.6079 8.88 13.959C8.978 14.273 8.977 14.639 8.977 15.064V19.236C8.977 19.527 8.977 19.776 8.965 19.979C8.953 20.192 8.925 20.406 8.849 20.617C8.72712 20.9572 8.51949 21.2603 8.2462 21.4968C7.97292 21.7333 7.64322 21.8952 7.289 21.967C7.07731 22.0039 6.86135 22.0097 6.648 21.984C6.447 21.964 6.204 21.925 5.921 21.88L5.791 21.86C4.994 21.732 4.447 21.645 3.99 21.424C3.54601 21.2091 3.15216 20.9032 2.83397 20.5263C2.51578 20.1494 2.28037 19.7098 2.143 19.236C2.025 18.831 2.004 18.379 2.001 17.775L2 17.58V12.124Z" fill="black"/>
</g>
<defs>
<clipPath id="clip0_221_19030">
<rect width="24" height="24" fill="white"/>
</clipPath>
</defs>
</svg>
