<svg width="24" height="24" viewBox="0 0 24 24" fill="none" xmlns="http://www.w3.org/2000/svg">
<g clip-path="url(#clip0_221_19069)">
<path d="M2.0029 11.716C2.0399 9.87299 2.0589 8.95199 2.6709 8.16399C2.7939 8.00695 2.93225 7.86257 3.0839 7.73299C3.8359 7.09699 4.8299 7.09699 6.8169 7.09699C7.5269 7.09699 7.8819 7.09699 8.2199 7.00499C8.2899 6.98499 8.35957 6.96266 8.4289 6.93799C8.7589 6.81699 9.0559 6.60799 9.6489 6.19199C11.9869 4.54699 13.1569 3.72499 14.1379 4.08199C14.3259 4.15099 14.5079 4.24999 14.6709 4.37199C15.5189 5.00699 15.5839 6.48699 15.7129 9.44499C15.7609 10.541 15.7929 11.479 15.7929 12C15.7929 12.521 15.7609 13.46 15.7129 14.555C15.5829 17.513 15.5189 18.993 14.6709 19.628C14.5082 19.75 14.3287 19.8476 14.1379 19.918C13.1559 20.275 11.9879 19.453 9.6479 17.808C9.0559 17.392 8.7589 17.183 8.4279 17.062C8.35941 17.0371 8.29003 17.0148 8.2199 16.995C7.8819 16.903 7.5269 16.903 6.8169 16.903C4.8299 16.903 3.8369 16.903 3.0839 16.267C2.9323 16.1377 2.79395 15.9937 2.6709 15.837C2.0589 15.047 2.0409 14.127 2.0029 12.285C1.99903 12.095 1.99903 11.906 2.0029 11.716Z" fill="black"/>
<path fill-rule="evenodd" clip-rule="evenodd" d="M19.49 5.552C19.5581 5.49059 19.6382 5.44403 19.7253 5.41531C19.8123 5.38658 19.9044 5.37631 19.9957 5.38516C20.087 5.394 20.1754 5.42176 20.2553 5.46667C20.3353 5.51158 20.405 5.57266 20.46 5.646L19.931 6.117L20.461 5.647L20.463 5.649L20.466 5.653L20.473 5.662L20.552 5.774C20.6 5.84533 20.662 5.947 20.738 6.079C20.887 6.343 21.077 6.731 21.264 7.25C21.64 8.291 22 9.851 22 12C22 14.149 21.64 15.71 21.264 16.75C21.077 17.27 20.887 17.657 20.738 17.922C20.6566 18.0653 20.5681 18.2044 20.473 18.339L20.466 18.348L20.463 18.351L20.462 18.353C20.462 18.353 20.461 18.354 19.931 17.883L20.461 18.354C20.406 18.4275 20.3362 18.4887 20.2562 18.5337C20.1762 18.5787 20.0876 18.6065 19.9962 18.6154C19.9049 18.6242 19.8126 18.6139 19.7255 18.5851C19.6383 18.5563 19.5581 18.5096 19.49 18.448C19.3485 18.3179 19.2608 18.1395 19.2441 17.948C19.2275 17.7564 19.2831 17.5656 19.4 17.413L19.43 17.372C19.4567 17.332 19.4983 17.263 19.555 17.165C19.7225 16.8634 19.8637 16.5479 19.977 16.222C20.291 15.351 20.621 13.969 20.621 12C20.621 10.031 20.291 8.65 19.977 7.778C19.8636 7.45246 19.7225 7.13729 19.555 6.836C19.5069 6.74912 19.4545 6.66468 19.398 6.583M17.757 8.416C18.09 8.219 18.51 8.346 18.695 8.702L18.696 8.704L18.698 8.707L18.701 8.714L18.711 8.732L18.735 8.785C18.7537 8.827 18.777 8.88366 18.805 8.955C18.858 9.1 18.925 9.305 18.99 9.575C19.12 10.115 19.242 10.912 19.242 12C19.242 13.089 19.12 13.886 18.99 14.426C18.925 14.696 18.858 14.901 18.804 15.045C18.7757 15.1206 18.7443 15.195 18.71 15.268L18.701 15.286L18.698 15.293L18.696 15.296V15.298C18.696 15.298 18.695 15.299 18.092 14.942L18.695 15.299C18.51 15.654 18.09 15.782 17.757 15.585C17.427 15.389 17.307 14.947 17.485 14.594L17.489 14.584L17.524 14.499C17.556 14.413 17.604 14.269 17.654 14.061C17.754 13.645 17.862 12.971 17.862 12.001C17.862 11.03 17.754 10.356 17.654 9.941C17.6111 9.76276 17.5559 9.58768 17.489 9.417L17.485 9.407C17.398 9.23775 17.3777 9.04205 17.4281 8.85856C17.4785 8.67507 17.5958 8.51715 17.757 8.416Z" fill="black"/>
</g>
<defs>
<clipPath id="clip0_221_19069">
<rect width="24" height="24" fill="white"/>
</clipPath>
</defs>
</svg>
