<svg width="24" height="24" viewBox="0 0 24 24" fill="none" xmlns="http://www.w3.org/2000/svg">
<g clip-path="url(#clip0_221_19146)">
<path d="M13.75 2C13.75 1.80109 13.671 1.61032 13.5303 1.46967C13.3897 1.32902 13.1989 1.25 13 1.25C12.8011 1.25 12.6103 1.32902 12.4697 1.46967C12.329 1.61032 12.25 1.80109 12.25 2V14.536C11.4533 13.7885 10.4233 13.3385 9.33355 13.2618C8.24381 13.1851 7.16092 13.4864 6.26736 14.1149C5.3738 14.7433 4.72418 15.6606 4.42796 16.7121C4.13174 17.7636 4.20702 18.8851 4.64112 19.8876C5.07523 20.8901 5.84162 21.7123 6.81116 22.2157C7.7807 22.7191 8.89414 22.873 9.96385 22.6513C11.0336 22.4296 11.9942 21.846 12.6838 20.9987C13.3735 20.1515 13.75 19.0924 13.75 18V6.243C14.3823 7.02645 15.1821 7.6583 16.0906 8.09213C16.9991 8.52596 17.9932 8.75076 19 8.75C19.1989 8.75 19.3897 8.67098 19.5303 8.53033C19.671 8.38968 19.75 8.19891 19.75 8C19.75 7.80109 19.671 7.61032 19.5303 7.46967C19.3897 7.32902 19.1989 7.25 19 7.25C17.6076 7.25 16.2723 6.69688 15.2877 5.71231C14.3031 4.72775 13.75 3.39239 13.75 2Z" fill="black"/>
</g>
<defs>
<clipPath id="clip0_221_19146">
<rect width="24" height="24" fill="white"/>
</clipPath>
</defs>
</svg>
