<svg width="24" height="24" viewBox="0 0 24 24" fill="none" xmlns="http://www.w3.org/2000/svg">
<g clip-path="url(#clip0_221_19041)">
<path d="M12 6.25C11.6685 6.25 11.3505 6.3817 11.1161 6.61612C10.8817 6.85054 10.75 7.16848 10.75 7.5C10.75 7.83152 10.8817 8.14946 11.1161 8.38388C11.3505 8.6183 11.6685 8.75 12 8.75C12.3315 8.75 12.6495 8.6183 12.8839 8.38388C13.1183 8.14946 13.25 7.83152 13.25 7.5C13.25 7.16848 13.1183 6.85054 12.8839 6.61612C12.6495 6.3817 12.3315 6.25 12 6.25ZM9.75 15.5C9.75 14.9033 9.98705 14.331 10.409 13.909C10.831 13.4871 11.4033 13.25 12 13.25C12.5967 13.25 13.169 13.4871 13.591 13.909C14.0129 14.331 14.25 14.9033 14.25 15.5C14.25 16.0967 14.0129 16.669 13.591 17.091C13.169 17.5129 12.5967 17.75 12 17.75C11.4033 17.75 10.831 17.5129 10.409 17.091C9.98705 16.669 9.75 16.0967 9.75 15.5Z" fill="black"/>
<path fill-rule="evenodd" clip-rule="evenodd" d="M4 10C4 6.229 4 4.343 5.172 3.172C6.344 2.001 8.229 2 12 2C15.771 2 17.657 2 18.828 3.172C19.999 4.344 20 6.229 20 10V14C20 17.771 20 19.657 18.828 20.828C17.656 21.999 15.771 22 12 22C8.229 22 6.343 22 5.172 20.828C4.001 19.656 4 17.771 4 14V10ZM9.25 7.5C9.25 6.77065 9.53973 6.07118 10.0555 5.55546C10.5712 5.03973 11.2707 4.75 12 4.75C12.7293 4.75 13.4288 5.03973 13.9445 5.55546C14.4603 6.07118 14.75 6.77065 14.75 7.5C14.75 8.22935 14.4603 8.92882 13.9445 9.44454C13.4288 9.96027 12.7293 10.25 12 10.25C11.2707 10.25 10.5712 9.96027 10.0555 9.44454C9.53973 8.92882 9.25 8.22935 9.25 7.5ZM12 11.75C11.5075 11.75 11.0199 11.847 10.5649 12.0355C10.11 12.2239 9.69657 12.5001 9.34835 12.8483C9.00013 13.1966 8.72391 13.61 8.53545 14.0649C8.347 14.5199 8.25 15.0075 8.25 15.5C8.25 15.9925 8.347 16.4801 8.53545 16.9351C8.72391 17.39 9.00013 17.8034 9.34835 18.1517C9.69657 18.4999 10.11 18.7761 10.5649 18.9645C11.0199 19.153 11.5075 19.25 12 19.25C12.9946 19.25 13.9484 18.8549 14.6517 18.1516C15.3549 17.4484 15.75 16.4946 15.75 15.5C15.75 14.5054 15.3549 13.5516 14.6517 12.8483C13.9484 12.1451 12.9946 11.75 12 11.75Z" fill="black"/>
</g>
<defs>
<clipPath id="clip0_221_19041">
<rect width="24" height="24" fill="white"/>
</clipPath>
</defs>
</svg>
