<svg width="24" height="24" viewBox="0 0 24 24" fill="none" xmlns="http://www.w3.org/2000/svg">
<g clip-path="url(#clip0_221_19063)">
<path d="M3.003 11.716C3.043 9.87299 3.062 8.95199 3.7 8.16399C3.817 8.01999 3.988 7.84899 4.132 7.73299C4.917 7.09699 5.954 7.09699 8.029 7.09699C8.77 7.09699 9.141 7.09699 9.494 7.00499C9.56734 6.98499 9.64 6.96266 9.712 6.93799C10.057 6.81699 10.366 6.60799 10.985 6.19199C13.427 4.54699 14.647 3.72499 15.672 4.08199C15.868 4.15099 16.059 4.24999 16.228 4.37199C17.114 5.00699 17.181 6.48699 17.316 9.44499C17.366 10.541 17.4 11.479 17.4 12C17.4 12.521 17.366 13.46 17.316 14.555C17.182 17.513 17.114 18.993 16.228 19.628C16.058 19.75 15.868 19.849 15.672 19.918C14.647 20.275 13.427 19.453 10.985 17.808C10.366 17.392 10.057 17.183 9.712 17.062C9.64021 17.0369 9.56749 17.0146 9.494 16.995C9.141 16.903 8.77 16.903 8.029 16.903C5.954 16.903 4.917 16.903 4.132 16.267C3.97378 16.1387 3.82903 15.9946 3.7 15.837C3.062 15.047 3.042 14.127 3.003 12.285C2.99884 12.095 2.99884 11.906 3.003 11.716Z" fill="black"/>
<path fill-rule="evenodd" clip-rule="evenodd" d="M19.4501 8.41601C19.5328 8.36882 19.6242 8.33876 19.7188 8.32762C19.8134 8.31649 19.9093 8.3245 20.0007 8.35119C20.0922 8.37787 20.1773 8.42268 20.2511 8.48295C20.3248 8.54322 20.3857 8.61772 20.4301 8.70201V8.70401L20.4321 8.70701L20.4361 8.71401L20.4461 8.73201C20.4833 8.80461 20.516 8.87941 20.5441 8.95601C20.6001 9.10001 20.6701 9.30501 20.7371 9.57501C20.8731 10.115 21.0001 10.912 21.0001 12C21.0001 13.089 20.8731 13.886 20.7371 14.426C20.6701 14.696 20.6001 14.901 20.5441 15.045C20.5141 15.1207 20.4811 15.195 20.4451 15.268L20.4361 15.286L20.4321 15.293L20.4311 15.296V15.298C20.4311 15.298 20.4291 15.299 19.8001 14.942L20.4301 15.299C20.3857 15.3833 20.3248 15.4578 20.2511 15.5181C20.1773 15.5783 20.0922 15.6231 20.0007 15.6498C19.9093 15.6765 19.8134 15.6845 19.7188 15.6734C19.6242 15.6623 19.5328 15.6322 19.4501 15.585C19.2839 15.4885 19.1616 15.3314 19.1086 15.1467C19.0557 14.9619 19.0763 14.7639 19.1661 14.594L19.1711 14.584C19.1777 14.57 19.1894 14.5417 19.2061 14.499C19.2601 14.3557 19.3058 14.2095 19.3431 14.061C19.4471 13.645 19.5601 12.971 19.5601 12.001C19.5601 11.03 19.4471 10.356 19.3431 9.94101C19.2979 9.76259 19.2404 9.58751 19.1711 9.41701L19.1661 9.40701C19.0763 9.23712 19.0557 9.03907 19.1086 8.85435C19.1616 8.66962 19.2839 8.51254 19.4501 8.41601Z" fill="black"/>
</g>
<defs>
<clipPath id="clip0_221_19063">
<rect width="24" height="24" fill="white"/>
</clipPath>
</defs>
</svg>
