<svg width="24" height="24" viewBox="0 0 24 24" fill="none" xmlns="http://www.w3.org/2000/svg">
<g clip-path="url(#clip0_221_19131)">
<path fill-rule="evenodd" clip-rule="evenodd" d="M12 22C7.286 22 4.929 22 3.464 20.535C2 19.072 2 16.714 2 12C2 7.286 2 4.929 3.464 3.464C4.93 2 7.286 2 12 2C16.714 2 19.071 2 20.535 3.464C22 4.93 22 7.286 22 12C22 16.714 22 19.071 20.535 20.535C19.072 22 16.714 22 12 22ZM16.262 7.477C16.4006 7.33454 16.5901 7.25294 16.7889 7.25013C16.9877 7.24732 17.1794 7.32352 17.322 7.462L18.522 8.629C18.5938 8.69889 18.6509 8.78246 18.6899 8.87478C18.7289 8.9671 18.7489 9.06629 18.7489 9.1665C18.7489 9.26671 18.7289 9.3659 18.6899 9.45822C18.6509 9.55054 18.5938 9.63411 18.522 9.704L17.322 10.871C17.189 10.9993 17.0134 11.0741 16.8287 11.0809C16.644 11.0876 16.4633 11.026 16.3213 10.9078C16.1793 10.7895 16.0859 10.623 16.0591 10.4402C16.0323 10.2573 16.0739 10.071 16.176 9.917H15.838C15.327 9.917 14.994 9.917 14.738 9.942C14.496 9.965 14.378 10.004 14.294 10.051C14.21 10.097 14.118 10.171 13.976 10.358C13.824 10.558 13.653 10.832 13.39 11.26L11.87 13.723C11.628 14.113 11.42 14.452 11.218 14.717C11 15.003 10.758 15.249 10.429 15.43C10.101 15.61 9.763 15.684 9.404 15.718C9.068 15.75 8.664 15.75 8.194 15.75H6C5.80109 15.75 5.61032 15.671 5.46967 15.5303C5.32902 15.3897 5.25 15.1989 5.25 15C5.25 14.8011 5.32902 14.6103 5.46967 14.4697C5.61032 14.329 5.80109 14.25 6 14.25H8.162C8.673 14.25 9.006 14.25 9.262 14.225C9.505 14.202 9.622 14.163 9.706 14.115C9.79 14.07 9.882 13.995 10.024 13.809C10.176 13.609 10.347 13.334 10.61 12.907L12.13 10.443C12.372 10.053 12.58 9.715 12.782 9.449C13 9.164 13.242 8.918 13.571 8.737C13.899 8.557 14.237 8.482 14.596 8.448C14.932 8.417 15.336 8.417 15.806 8.417H16.176C16.0805 8.27417 16.0369 8.10288 16.0526 7.93177C16.0682 7.76067 16.1422 7.60013 16.262 7.477ZM9.385 9.77C9.3 9.753 9.2 9.75 8.801 9.75H6C5.80109 9.75 5.61032 9.67098 5.46967 9.53033C5.32902 9.38968 5.25 9.19891 5.25 9C5.25 8.80109 5.32902 8.61032 5.46967 8.46967C5.61032 8.32902 5.80109 8.25 6 8.25H8.858C9.171 8.25 9.423 8.25 9.664 8.295C10.2033 8.39609 10.6958 8.66778 11.069 9.07C11.236 9.25 11.368 9.464 11.528 9.723L11.558 9.773C11.6121 9.85681 11.6489 9.95056 11.6663 10.0488C11.6837 10.147 11.6813 10.2477 11.6593 10.345C11.6374 10.4422 11.5962 10.5342 11.5382 10.6154C11.4803 10.6965 11.4067 10.7653 11.3219 10.8177C11.237 10.8702 11.1425 10.9051 11.044 10.9206C10.9455 10.936 10.8448 10.9317 10.748 10.9078C10.6512 10.8838 10.5601 10.8409 10.4801 10.7813C10.4001 10.7218 10.3327 10.6469 10.282 10.561C10.076 10.227 10.023 10.148 9.969 10.089C9.81376 9.92237 9.60899 9.81016 9.385 9.769M12.686 13.029C12.8552 12.9245 13.059 12.8916 13.2525 12.9373C13.446 12.9831 13.6135 13.1038 13.718 13.273C13.924 13.606 13.977 13.685 14.031 13.744C14.182 13.907 14.386 14.021 14.615 14.064C14.7 14.08 14.801 14.084 15.199 14.084H16.176C16.0719 13.9299 16.0287 13.7427 16.0548 13.5585C16.0809 13.3744 16.1745 13.2066 16.3175 13.0876C16.4604 12.9686 16.6424 12.9069 16.8282 12.9146C17.014 12.9223 17.1904 12.9987 17.323 13.129L18.523 14.296C18.5948 14.3659 18.6519 14.4495 18.6909 14.5418C18.7299 14.6341 18.7499 14.7333 18.7499 14.8335C18.7499 14.9337 18.7299 15.0329 18.6909 15.1252C18.6519 15.2175 18.5948 15.3011 18.523 15.371L17.323 16.538C17.1904 16.6683 17.014 16.7447 16.8282 16.7524C16.6424 16.7601 16.4604 16.6984 16.3175 16.5794C16.1745 16.4604 16.0809 16.2926 16.0548 16.1085C16.0287 15.9243 16.0719 15.7371 16.176 15.583H15.142C14.829 15.583 14.577 15.583 14.336 15.538C13.7967 15.4369 13.3042 15.1652 12.931 14.763C12.764 14.583 12.632 14.369 12.472 14.11L12.442 14.06C12.3375 13.8908 12.3046 13.687 12.3503 13.4935C12.3961 13.3 12.5168 13.1325 12.686 13.028" fill="black"/>
</g>
<defs>
<clipPath id="clip0_221_19131">
<rect width="24" height="24" fill="white"/>
</clipPath>
</defs>
</svg>
