<svg width="24" height="24" viewBox="0 0 24 24" fill="none" xmlns="http://www.w3.org/2000/svg">
<g clip-path="url(#clip0_221_19210)">
<path d="M3.49264 6.53613C3.85224 5.66768 4.46131 4.92538 5.24283 4.40312C6.02434 3.88086 6.94318 3.6021 7.88314 3.6021C8.8231 3.6021 9.74194 3.88086 10.5235 4.40312C11.305 4.92538 11.914 5.66768 12.2736 6.53613C12.3113 6.62713 12.3666 6.70982 12.4362 6.77948C12.5059 6.84913 12.5886 6.90439 12.6796 6.94209C12.7706 6.97979 12.8681 6.9992 12.9666 6.9992C13.0651 6.99921 13.1626 6.97982 13.2536 6.94213C13.3446 6.90444 13.4273 6.84919 13.497 6.77954C13.5666 6.7099 13.6219 6.62721 13.6596 6.53621C13.6973 6.44521 13.7167 6.34767 13.7167 6.24917C13.7167 6.15067 13.6973 6.05313 13.6596 5.96213C13.1866 4.81948 12.3852 3.8428 11.357 3.15563C10.3288 2.46846 9.11985 2.10168 7.88314 2.10168C6.64643 2.10168 5.4375 2.46846 4.40927 3.15563C3.38105 3.8428 2.57971 4.81948 2.10664 5.96213C2.03052 6.14592 2.03054 6.35243 2.10668 6.53621C2.18281 6.72 2.32884 6.86601 2.51264 6.94213C2.69643 7.01824 2.90294 7.01823 3.08672 6.94209C3.27051 6.86595 3.41652 6.71992 3.49264 6.53613Z" fill="black"/>
<path d="M7.88366 6.1021C7.39709 6.10197 6.92358 6.25958 6.53415 6.5513C6.14471 6.84301 5.86034 7.25311 5.72366 7.7201C5.69608 7.81465 5.65015 7.90284 5.58849 7.97964C5.52683 8.05644 5.45064 8.12035 5.36429 8.1677C5.27793 8.21506 5.18309 8.24495 5.08518 8.25565C4.98727 8.26636 4.88821 8.25767 4.79366 8.2301C4.69911 8.20252 4.61092 8.15659 4.53412 8.09493C4.45731 8.03326 4.39341 7.95708 4.34605 7.87072C4.2987 7.78436 4.26881 7.68952 4.25811 7.59161C4.2474 7.4937 4.25608 7.39465 4.28366 7.3001C4.51146 6.52172 4.98539 5.83815 5.63443 5.35183C6.28347 4.86552 7.07264 4.60266 7.88366 4.60266C8.69468 4.60266 9.48386 4.86552 10.1329 5.35183C10.7819 5.83815 11.2559 6.52172 11.4837 7.3001C11.5394 7.49105 11.5169 7.69631 11.4213 7.87072C11.3256 8.04513 11.1646 8.1744 10.9737 8.2301C10.8791 8.25767 10.7801 8.26636 10.6821 8.25565C10.5842 8.24495 10.4894 8.21506 10.403 8.1677C10.2286 8.07206 10.0994 7.91105 10.0437 7.7201C9.90699 7.25311 9.62261 6.84301 9.23318 6.5513C8.84375 6.25958 8.37024 6.10197 7.88366 6.1021Z" fill="black"/>
<path d="M7.88367 8.85205C8.14888 8.85205 8.40324 8.74669 8.59077 8.55916C8.77831 8.37162 8.88367 8.11727 8.88367 7.85205C8.88367 7.58683 8.77831 7.33248 8.59077 7.14494C8.40324 6.95741 8.14888 6.85205 7.88367 6.85205C7.61845 6.85205 7.3641 6.95741 7.17656 7.14494C6.98902 7.33248 6.88367 7.58683 6.88367 7.85205C6.88367 8.11727 6.98902 8.37162 7.17656 8.55916C7.3641 8.74669 7.61845 8.85205 7.88367 8.85205Z" fill="black"/>
<path fill-rule="evenodd" clip-rule="evenodd" d="M22.0176 10.1041V14.1481C22.0176 17.9611 22.0176 19.8681 20.8306 21.0521C19.6436 22.2361 17.7326 22.2361 13.9106 22.2361C10.0886 22.2361 8.17857 22.2361 6.99057 21.0521C5.80457 19.8671 5.80457 17.9611 5.80457 14.1481V12.4161C5.80457 12.1471 5.80457 12.0131 5.82957 11.9021C5.87209 11.7163 5.96631 11.5464 6.10132 11.4119C6.23634 11.2774 6.40664 11.1839 6.59257 11.1421C6.70257 11.1161 6.83857 11.1161 7.10757 11.1161C8.72157 11.1161 9.52757 11.1161 10.1946 10.9651C11.3106 10.7126 12.3326 10.1498 13.1426 9.34153C13.9526 8.5333 14.5176 7.51258 14.7726 6.39707C14.9246 5.73207 14.9246 4.92807 14.9246 3.32007C14.9246 3.05407 14.9246 2.92007 14.9506 2.80807C14.9952 2.62027 15.0921 2.44898 15.2302 2.31409C15.3683 2.17921 15.5418 2.08627 15.7306 2.04607C15.8426 2.02207 15.9726 2.02507 16.2306 2.03007C18.5626 2.07707 19.9126 2.28507 20.8306 3.20007C22.0176 4.38607 22.0176 6.29208 22.0176 10.1051M10.8706 18.4451C10.7669 18.4386 10.6631 18.4533 10.5654 18.4885C10.4677 18.5237 10.3783 18.5785 10.3026 18.6496C10.2269 18.7206 10.1666 18.8065 10.1253 18.9017C10.0841 18.997 10.0628 19.0998 10.0628 19.2036C10.0628 19.3074 10.0841 19.4101 10.1253 19.5054C10.1666 19.6007 10.2269 19.6865 10.3026 19.7576C10.3783 19.8287 10.4677 19.8835 10.5654 19.9186C10.6631 19.9538 10.7669 19.9686 10.8706 19.9621H16.9506C17.0534 19.9674 17.1562 19.9517 17.2528 19.916C17.3493 19.8803 17.4376 19.8253 17.5123 19.7544C17.5869 19.6835 17.6463 19.5981 17.687 19.5035C17.7276 19.4089 17.7485 19.307 17.7485 19.2041C17.7485 19.1011 17.7276 18.9992 17.687 18.9046C17.6463 18.81 17.5869 18.7247 17.5123 18.6538C17.4376 18.5829 17.3493 18.5279 17.2528 18.4922C17.1562 18.4565 17.0534 18.4408 16.9506 18.4461L10.8706 18.4451Z" fill="black"/>
</g>
<defs>
<clipPath id="clip0_221_19210">
<rect width="24" height="24" fill="white"/>
</clipPath>
</defs>
</svg>
