<svg width="24" height="24" viewBox="0 0 24 24" fill="none" xmlns="http://www.w3.org/2000/svg">
<path fill-rule="evenodd" clip-rule="evenodd" d="M20.5024 3.7602C20.6048 3.86452 20.6218 3.88189 20.5097 3.76764C20.6421 3.90259 20.7518 4.016 20.8362 4.11359C20.9409 4.23679 21.0299 4.36397 21.0893 4.51219C21.2296 4.85886 21.226 5.24766 21.0792 5.59165C21.0054 5.76652 20.8908 5.91148 20.7541 6.05705L20.7491 6.06191C20.7351 6.07572 20.7283 6.09536 20.7314 6.11836C20.7394 6.13484 20.7549 6.1473 20.7721 6.1532L20.7778 6.15405C20.9692 6.2149 21.1392 6.28703 21.2882 6.40245L21.289 6.40329C21.5838 6.63409 21.7743 6.97221 21.8192 7.34425C21.82 7.34671 21.82 7.35001 21.82 7.35001C21.8365 7.50767 21.826 7.66751 21.7902 7.81976L21.6719 8.27887L21.6625 8.31209L21.6676 8.29279C21.6268 8.44499 21.5828 8.59715 21.5338 8.74436C21.4848 8.89648 21.4113 9.03853 21.3166 9.16562L21.3116 9.1705C21.0816 9.4645 20.7435 9.65658 20.3715 9.70151C20.1842 9.72437 20.0007 9.69806 19.8075 9.65196L19.8059 9.65196C19.7846 9.64684 19.7608 9.64579 19.7451 9.65959C19.7327 9.67506 19.7284 9.69551 19.7331 9.71524L19.734 9.71826L19.7347 9.72346C19.7772 9.91745 19.8001 10.1014 19.7737 10.2882C19.7218 10.6594 19.5235 10.9938 19.2252 11.2183C19.098 11.3155 18.9571 11.3774 18.8032 11.4293C18.6798 11.4708 18.5269 11.5104 18.3435 11.5571L18.3246 11.5627L17.8601 11.6723C17.7023 11.702 17.5479 11.7154 17.389 11.6926C17.0187 11.6399 16.6842 11.4432 16.4589 11.1441C16.3463 10.9929 16.2774 10.8217 16.2201 10.6292L16.2177 10.6218C16.2129 10.6037 16.1992 10.588 16.1779 10.5795C16.1599 10.5777 16.1418 10.5841 16.1285 10.5971L16.1227 10.6028C15.9738 10.7376 15.8267 10.8494 15.653 10.9192L15.6522 10.92C15.3055 11.0587 14.9167 11.055 14.5719 10.9091C14.4248 10.847 14.3001 10.7565 14.1789 10.6495L13.8383 10.3157L13.4971 9.95487C13.3924 9.83166 13.3034 9.70449 13.2441 9.55627C13.1038 9.2096 13.1074 8.8208 13.2541 8.4768C13.3271 8.30275 13.4425 8.15699 13.58 8.01226L13.5858 8.00494C13.5991 7.99194 13.6058 7.97395 13.6019 7.95012C13.5939 7.93364 13.5792 7.92202 13.5621 7.91612C13.5596 7.91527 13.5555 7.9144 13.5555 7.9144C13.3641 7.85355 13.1942 7.78142 13.0451 7.66601L13.0443 7.66517C12.7503 7.43519 12.5591 7.09626 12.5133 6.72504C12.4943 6.56654 12.5097 6.41328 12.5423 6.25443L12.6442 5.85976L12.6437 5.86133C12.6437 5.86133 12.6469 5.84744 12.6527 5.82532L12.6453 5.85533L12.6614 5.79288L12.6605 5.7956L12.6666 5.77322L12.8029 5.31595C12.8568 5.16387 12.9229 5.02418 13.0217 4.89795C13.2517 4.60396 13.5898 4.41188 13.9619 4.36695C14.1499 4.34491 14.3326 4.3704 14.5258 4.4165C14.5291 4.41653 14.5315 4.41737 14.534 4.41821C14.5528 4.42413 14.5725 4.41939 14.5907 4.4048C14.6007 4.39012 14.605 4.37131 14.6002 4.35321C14.5994 4.35075 14.5986 4.34828 14.5987 4.345C14.5562 4.151 14.5333 3.96702 14.5596 3.78023C14.6123 3.40993 14.809 3.07543 15.1081 2.85017C15.2361 2.75374 15.3762 2.69107 15.5301 2.63918L16.0071 2.50744L16.0096 2.50665C16.1913 2.45995 16.3434 2.42116 16.4708 2.39692C16.6237 2.36389 16.7821 2.35636 16.9378 2.37586C16.9402 2.37506 16.9444 2.3759 16.9444 2.3759C17.3147 2.42858 17.65 2.62612 17.8744 2.92436L17.8752 2.92519C17.9878 3.07636 18.0568 3.24764 18.1133 3.43931L18.1156 3.44673C18.1204 3.46482 18.1342 3.48052 18.1555 3.48892C18.1735 3.49073 18.1916 3.48435 18.2048 3.47134L18.2106 3.46566C18.3595 3.33088 18.5058 3.21984 18.6803 3.14928C19.0278 3.00978 19.4166 3.01342 19.7615 3.15937L19.7653 3.16132L19.7672 3.16187C19.9101 3.22637 20.0414 3.31373 20.1569 3.42145L20.4942 3.75356L20.5024 3.7602ZM17.1588 8.80981C18.1319 8.80981 18.9208 8.02096 18.9208 7.04785C18.9208 6.07475 18.1319 5.28589 17.1588 5.28589C16.1857 5.28589 15.3969 6.07475 15.3969 7.04785C15.3969 8.02096 16.1857 8.80981 17.1588 8.80981Z" fill="black"/>
<path d="M12.6605 5.7956L12.6581 5.80269L12.6527 5.82532L12.6605 5.7956Z" fill="black"/>
<path d="M21.6536 8.34538C21.653 8.34792 21.6553 8.33944 21.6625 8.31209C21.6579 8.32903 21.6543 8.34282 21.6536 8.34538Z" fill="black"/>
<path fill-rule="evenodd" clip-rule="evenodd" d="M11.6575 21.7705C11.6311 21.7857 11.6036 21.7993 11.5758 21.8107C10.7821 22.1426 9.86589 21.8105 9.46947 21.0474L9.32987 20.7906C9.28441 20.7023 9.19095 20.6495 9.09201 20.6544L8.6771 20.6546C8.58179 20.6567 8.49468 20.7119 8.45283 20.7971C8.40822 20.8871 8.36142 20.9805 8.31289 21.0697C7.9295 21.8304 7.02919 22.1741 6.23499 21.8617C6.2441 21.8653 6.25358 21.8671 6.2632 21.8688L6.27098 21.8703C6.25896 21.8678 6.24695 21.8649 6.23499 21.8617C6.20586 21.8539 6.17704 21.8443 6.14925 21.8331C5.35313 21.5063 4.94066 20.6237 5.19953 19.8037L5.28268 19.5235C5.31249 19.4284 5.28479 19.3253 5.21096 19.2593L4.91772 18.9652C4.84811 18.8993 4.74833 18.8769 4.65748 18.9078C4.56285 18.9398 4.46342 18.9732 4.36676 19.0018C3.55941 19.2675 2.68212 18.8769 2.33971 18.0983C2.34359 18.1062 2.34877 18.1135 2.35396 18.1209L2.35885 18.1278C2.35157 18.1167 2.34453 18.1054 2.33779 18.0939C2.32236 18.0676 2.30827 18.0399 2.29673 18.0118C1.96515 17.2175 2.29698 16.3019 3.06009 15.9055L3.31719 15.7652C3.40473 15.7194 3.45791 15.627 3.453 15.528L3.45315 15.1124C3.45099 15.0171 3.3955 14.9307 3.31059 14.8882L3.29349 14.8797C3.20878 14.8377 3.12134 14.7944 3.03772 14.7489C2.27701 14.3655 1.93327 13.4651 2.24585 12.6708C2.24232 12.6798 2.24042 12.6899 2.23859 12.6996L2.2362 12.7116C2.23907 12.6978 2.24224 12.6843 2.24585 12.6708C2.25365 12.6416 2.26326 12.6128 2.27463 12.5845C2.60116 11.7892 3.48399 11.376 4.30376 11.6356L4.5843 11.718C4.67911 11.7485 4.78244 11.7201 4.84838 11.6463L5.14251 11.353C5.20815 11.2841 5.23011 11.1834 5.19962 11.0935L5.18482 11.0491C5.15769 10.9677 5.12992 10.8844 5.106 10.8021C4.83925 9.99328 5.2329 9.11273 6.01567 8.77228C6.00532 8.77669 5.99621 8.78316 5.98716 8.78958L5.9796 8.79488C6.01655 8.77011 6.05523 8.7494 6.09594 8.73204C6.89031 8.40046 7.80583 8.73229 8.20225 9.4954L8.34228 9.75323C8.38803 9.84076 8.48048 9.89393 8.57942 9.88902L8.99505 9.88917C9.09065 9.88629 9.17674 9.83154 9.2196 9.74591L9.22855 9.72786C9.27037 9.64346 9.3135 9.55641 9.35853 9.47378C9.74194 8.71306 10.6434 8.36887 11.4377 8.68145C11.4267 8.67706 11.4148 8.67519 11.4028 8.67332L11.3959 8.67221C11.4397 8.68056 11.4818 8.69331 11.5229 8.71067C12.3183 9.0372 12.7318 9.91931 12.4719 10.7398L12.3895 11.0203C12.3592 11.1144 12.3877 11.2178 12.4612 11.2844L12.7547 11.5778C12.8236 11.6435 12.9241 11.6662 13.0139 11.6357L13.0297 11.6303C13.1204 11.5996 13.2136 11.568 13.3057 11.5413C14.1145 11.2745 14.9957 11.6685 15.3355 12.451C15.3316 12.4428 15.3264 12.4352 15.3212 12.4275L15.3196 12.4251C15.3414 12.4591 15.3596 12.495 15.3754 12.532C15.7073 13.3256 15.3752 14.2419 14.6121 14.6383L14.3545 14.7776C14.267 14.8233 14.2135 14.9165 14.2184 15.0154L14.2186 15.4303C14.2215 15.5259 14.2759 15.6128 14.3618 15.6549C14.4518 15.6995 14.5452 15.7463 14.6337 15.7946C15.3944 16.178 15.7389 17.0787 15.4263 17.873C15.4305 17.8624 15.4322 17.8513 15.434 17.8399L15.4352 17.8319C15.4272 17.875 15.4144 17.9171 15.3971 17.9582C15.0703 18.7543 14.1884 19.1671 13.3684 18.9082L13.0874 18.8248C12.993 18.7952 12.89 18.823 12.8233 18.8965L12.5299 19.19C12.464 19.2597 12.4416 19.3594 12.4718 19.45C12.5045 19.5449 12.5378 19.6443 12.5664 19.741C12.8328 20.5502 12.4398 21.4298 11.6575 21.7705ZM11.6575 21.7705L11.6575 21.7686L11.6685 21.764L11.6575 21.7705ZM8.83777 17.2629C9.9329 17.2629 10.8207 16.3752 10.8207 15.28C10.8207 14.1849 9.9329 13.2971 8.83777 13.2971C7.74264 13.2971 6.85486 14.1849 6.85486 15.28C6.85486 16.3752 7.74264 17.2629 8.83777 17.2629Z" fill="black"/>
</svg>
