<svg width="24" height="24" viewBox="0 0 24 24" fill="none" xmlns="http://www.w3.org/2000/svg">
<g clip-path="url(#clip0_221_19199)">
<path d="M9.18105 9.09841C9.23405 9.04541 9.32905 8.97941 9.63105 8.93841C9.95405 8.89541 10.3921 8.89441 11.0701 8.89441H12.9301C13.6081 8.89441 14.0461 8.89541 14.3681 8.93941C14.6711 8.97941 14.7661 9.04541 14.8181 9.09941C14.8721 9.15141 14.9381 9.24641 14.9781 9.54941C15.0221 9.87141 15.0231 10.3094 15.0231 10.9874V12.8474C15.0231 13.5254 15.0221 13.9634 14.9781 14.2854C14.9381 14.5884 14.8721 14.6834 14.8181 14.7354C14.7661 14.7894 14.6711 14.8554 14.3681 14.8954C14.0461 14.9394 13.6081 14.9404 12.9301 14.9404H11.0701C10.3921 14.9404 9.95405 14.9394 9.63205 14.8954C9.32905 14.8554 9.23405 14.7894 9.18205 14.7354C9.12805 14.6834 9.06205 14.5884 9.02205 14.2854C8.97805 13.9634 8.97705 13.5254 8.97705 12.8474V10.9874C8.97705 10.3094 8.97805 9.87141 9.02205 9.54941C9.06205 9.24641 9.12805 9.15141 9.18205 9.09941" fill="black"/>
<path fill-rule="evenodd" clip-rule="evenodd" d="M12 1.86926C12.385 1.86926 12.698 2.18126 12.698 2.56726V5.35726C13.2073 5.35793 13.6723 5.3636 14.093 5.37426V2.56726C14.0998 2.38684 14.1763 2.21609 14.3064 2.09086C14.4364 1.96564 14.61 1.89568 14.7905 1.89568C14.971 1.89568 15.1446 1.96564 15.2746 2.09086C15.4047 2.21609 15.4812 2.38684 15.488 2.56726V5.35726C15.4873 5.39338 15.4846 5.42943 15.48 5.46526C16.416 5.58026 17.065 5.81826 17.558 6.31126C18.051 6.80426 18.289 7.45326 18.404 8.38926C18.4398 8.38465 18.4759 8.38198 18.512 8.38126H21.302C21.4824 8.3881 21.6532 8.46457 21.7784 8.59463C21.9036 8.72469 21.9736 8.89822 21.9736 9.07876C21.9736 9.25931 21.9036 9.43283 21.7784 9.56289C21.6532 9.69295 21.4824 9.76943 21.302 9.77626H18.495C18.5063 10.1963 18.512 10.6613 18.512 11.1713H21.302C21.4871 11.1713 21.6647 11.2448 21.7956 11.3757C21.9265 11.5066 22 11.6841 22 11.8693C22 12.0544 21.9265 12.2319 21.7956 12.3628C21.6647 12.4937 21.4871 12.5673 21.302 12.5673H18.512C18.5113 13.0766 18.5057 13.5416 18.495 13.9623H21.302C21.4824 13.9691 21.6532 14.0456 21.7784 14.1756C21.9036 14.3057 21.9736 14.4792 21.9736 14.6598C21.9736 14.8403 21.9036 15.0138 21.7784 15.1439C21.6532 15.274 21.4824 15.3504 21.302 15.3573H18.512C18.4759 15.3565 18.4398 15.3539 18.404 15.3493C18.289 16.2853 18.051 16.9343 17.558 17.4273C17.065 17.9203 16.416 18.1583 15.48 18.2733C15.486 18.3086 15.4887 18.3446 15.488 18.3813V21.1713C15.4812 21.3517 15.4047 21.5224 15.2746 21.6477C15.1446 21.7729 14.971 21.8428 14.7905 21.8428C14.61 21.8428 14.4364 21.7729 14.3064 21.6477C14.1763 21.5224 14.0998 21.3517 14.093 21.1713V18.3643C13.673 18.3756 13.208 18.3813 12.698 18.3813V21.1713C12.698 21.3564 12.6245 21.5339 12.4936 21.6648C12.3627 21.7957 12.1851 21.8693 12 21.8693C11.8149 21.8693 11.6373 21.7957 11.5064 21.6648C11.3755 21.5339 11.302 21.3564 11.302 21.1713V18.3813C10.8369 18.3814 10.3719 18.3757 9.907 18.3643V21.1713C9.90017 21.3517 9.82369 21.5224 9.69363 21.6477C9.56357 21.7729 9.39005 21.8428 9.2095 21.8428C9.02895 21.8428 8.85543 21.7729 8.72537 21.6477C8.59531 21.5224 8.51883 21.3517 8.512 21.1713V18.3813C8.512 18.3439 8.51467 18.3079 8.52 18.2733C7.584 18.1583 6.935 17.9203 6.442 17.4273C5.949 16.9343 5.711 16.2853 5.596 15.3493C5.56017 15.3539 5.52412 15.3565 5.488 15.3573H2.698C2.51758 15.3504 2.34683 15.274 2.2216 15.1439C2.09637 15.0138 2.02641 14.8403 2.02641 14.6598C2.02641 14.4792 2.09637 14.3057 2.2216 14.1756C2.34683 14.0456 2.51758 13.9691 2.698 13.9623H5.505C5.49354 13.4974 5.48787 13.0323 5.488 12.5673H2.698C2.51288 12.5673 2.33534 12.4937 2.20444 12.3628C2.07354 12.2319 2 12.0544 2 11.8693C2 11.6841 2.07354 11.5066 2.20444 11.3757C2.33534 11.2448 2.51288 11.1713 2.698 11.1713H5.488C5.48867 10.6619 5.49433 10.1969 5.505 9.77626H2.698C2.51758 9.76943 2.34683 9.69295 2.2216 9.56289C2.09637 9.43283 2.02641 9.25931 2.02641 9.07876C2.02641 8.89822 2.09637 8.72469 2.2216 8.59463C2.34683 8.46457 2.51758 8.3881 2.698 8.38126H5.488C5.52533 8.38126 5.56133 8.38393 5.596 8.38926C5.711 7.45326 5.949 6.80426 6.442 6.31126C6.935 5.81826 7.584 5.58026 8.52 5.46526C8.51539 5.42943 8.51271 5.39338 8.512 5.35726V2.56726C8.51883 2.38684 8.59531 2.21609 8.72537 2.09086C8.85543 1.96564 9.02895 1.89568 9.2095 1.89568C9.39005 1.89568 9.56357 1.96564 9.69363 2.09086C9.82369 2.21609 9.90017 2.38684 9.907 2.56726V5.37426C10.327 5.36293 10.792 5.35726 11.302 5.35726V2.56726C11.302 2.18126 11.615 1.86926 12 1.86926ZM11.024 7.45026C10.405 7.45026 9.872 7.45026 9.446 7.50826C8.988 7.56926 8.55 7.70826 8.194 8.06326C7.839 8.41926 7.7 8.85726 7.639 9.31526C7.581 9.74226 7.581 10.2753 7.581 10.8933V12.8453C7.581 13.4643 7.581 13.9963 7.639 14.4233C7.7 14.8813 7.839 15.3193 8.194 15.6753C8.55 16.0303 8.988 16.1693 9.446 16.2303C9.872 16.2883 10.406 16.2883 11.024 16.2883H12.976C13.595 16.2883 14.127 16.2883 14.554 16.2303C15.012 16.1693 15.45 16.0303 15.806 15.6753C16.161 15.3193 16.3 14.8813 16.361 14.4233C16.419 13.9963 16.419 13.4633 16.419 12.8453V10.8933C16.419 10.2743 16.419 9.74226 16.361 9.31526C16.3 8.85726 16.161 8.41926 15.806 8.06326C15.45 7.70826 15.012 7.56926 14.554 7.50826C14.127 7.45026 13.594 7.45026 12.976 7.45026H11.024Z" fill="black"/>
</g>
<defs>
<clipPath id="clip0_221_19199">
<rect width="24" height="24" fill="white"/>
</clipPath>
</defs>
</svg>
