<svg width="24" height="24" viewBox="0 0 24 24" fill="none" xmlns="http://www.w3.org/2000/svg">
<path d="M16.2457 3.09256C16.2457 3.09256 18.4168 1.41678 20.5003 3.50028C22.5838 5.58378 20.9073 7.75419 20.9073 7.75419C20.8911 7.7767 20.8723 7.79798 20.8529 7.81861L18.1866 10.6525L20.0469 18.1492C20.2139 18.8214 19.9963 19.5317 19.481 19.9957L18.4612 20.913C18.036 21.2957 17.4607 21.4633 16.8967 21.3695C16.3333 21.2751 15.843 20.9286 15.566 20.429L13.2806 16.3102C13.2355 16.2301 13.158 16.1739 13.0679 16.1576C12.9779 16.1414 12.8854 16.1663 12.8153 16.2264L9.52811 19.0346C9.46245 19.0915 9.42307 19.1722 9.42182 19.2585L9.39682 20.1489C9.38556 20.5766 9.22735 20.9874 8.95034 21.3132L8.13618 22.2699C7.74349 22.7314 7.15136 22.9746 6.54732 22.9234C5.94266 22.8715 5.40113 22.5313 5.09286 22.0092L3.94042 20.0601L1.99075 18.907C1.46862 18.5988 1.12847 18.0573 1.07657 17.4526C1.0253 16.8486 1.26851 16.2564 1.72998 15.8637L2.68671 15.0496C3.01249 14.7726 3.42331 14.6143 3.85102 14.6031L4.74208 14.5787C4.82775 14.5768 4.90839 14.5375 4.96529 14.4718L7.77354 11.1846C7.83356 11.1146 7.85855 11.022 7.84229 10.932C7.82603 10.8419 7.76978 10.7644 7.68974 10.7194L3.57088 8.4339C3.07127 8.15689 2.72486 7.66664 2.63043 7.10324C2.53664 6.53922 2.70421 5.96397 3.08689 5.53877L4.00421 4.5189C4.46819 4.00365 5.17853 3.78602 5.85073 3.95298L13.3474 5.81327L16.1813 3.14699C16.2019 3.1276 16.2232 3.10882 16.2457 3.09256Z" fill="black"/>
</svg>
