<svg width="24" height="24" viewBox="0 0 24 24" fill="none" xmlns="http://www.w3.org/2000/svg">
<g clip-path="url(#clip0_221_19226)">
<path fill-rule="evenodd" clip-rule="evenodd" d="M12.428 2C11.314 2 10.299 2.6 8.27098 3.802L7.58498 4.208C5.55498 5.41 4.54198 6.011 3.98498 7C3.42798 7.99 3.42798 9.19 3.42798 11.594V12.406C3.42798 14.809 3.42798 16.011 3.98498 17C4.54198 17.989 5.55498 18.59 7.58498 19.791L8.27098 20.198C10.299 21.399 11.314 22 12.428 22C13.542 22 14.556 21.4 16.585 20.198L17.271 19.791C19.299 18.591 20.314 17.989 20.871 17C21.428 16.01 21.428 14.81 21.428 12.406V11.594C21.428 9.191 21.428 7.989 20.871 7C20.314 6.011 19.299 5.41 17.271 4.208L16.585 3.802C14.555 2.601 13.542 2 12.428 2ZM8.67798 12C8.67798 11.0054 9.07307 10.0516 9.77633 9.34835C10.4796 8.64509 11.4334 8.25 12.428 8.25C13.4225 8.25 14.3764 8.64509 15.0796 9.34835C15.7829 10.0516 16.178 11.0054 16.178 12C16.178 12.9946 15.7829 13.9484 15.0796 14.6517C14.3764 15.3549 13.4225 15.75 12.428 15.75C11.4334 15.75 10.4796 15.3549 9.77633 14.6517C9.07307 13.9484 8.67798 12.9946 8.67798 12Z" fill="black"/>
</g>
<defs>
<clipPath id="clip0_221_19226">
<rect width="24" height="24" fill="white"/>
</clipPath>
</defs>
</svg>
