<svg width="24" height="24" viewBox="0 0 24 24" fill="none" xmlns="http://www.w3.org/2000/svg">
<g clip-path="url(#clip0_221_19176)">
<path fill-rule="evenodd" clip-rule="evenodd" d="M3.4806 20.4281L3.47825 20.4269C3.47825 20.4269 3.55991 20.5086 3.57293 20.5216C3.58772 20.5364 3.6025 20.55 3.61789 20.563C5.65991 22.4891 7.66583 20.5246 7.66583 20.5246L15.4984 12.7299C16.5587 13.0151 18.9576 13.3228 20.8842 11.092C23.3919 8.18906 21.7682 4.88253 21.7682 4.88253C21.654 4.64762 21.4345 4.48252 21.1771 4.43696C20.9203 4.39199 20.6576 4.47247 20.47 4.65412L18.073 6.97306L17.115 6.88488L17.0274 5.92749L19.3463 3.53045C19.528 3.34287 19.6085 3.08015 19.5629 2.82275C19.5179 2.56595 19.3523 2.34583 19.1179 2.23222C19.1179 2.23222 15.8108 0.607969 12.9078 3.11567C10.6771 5.0423 10.9854 7.44171 11.27 8.50266C11.2706 8.50206 3.48121 16.3281 3.48121 16.3281C3.48003 16.3305 3.47766 16.3329 3.47588 16.3346C3.47588 16.3346 1.50072 18.3571 3.46345 20.411L3.4806 20.4281ZM16.2931 8.44524L16.2919 8.44526L16.3623 8.45177L16.3635 8.45178L18.296 8.62927C18.5321 8.65117 18.7659 8.56892 18.9369 8.40384L20.6227 6.77248C20.7363 7.64586 20.6428 8.88017 19.6517 10.0275C17.9067 12.047 15.6037 11.0553 15.6037 11.0553C15.2972 10.9204 14.9398 10.9879 14.7025 11.224L6.52738 19.3589C6.4901 19.395 5.59066 20.2246 4.68652 19.3311L4.67468 19.3193L4.64746 19.2921L4.64098 19.2843C3.8037 18.4092 4.57352 17.5459 4.63802 17.4755C4.64098 17.4725 12.7765 9.29792 12.7765 9.29792C13.0126 9.06064 13.0795 8.70266 12.9445 8.39615C12.9445 8.39615 11.9528 6.09318 13.973 4.34879C15.1203 3.35766 16.3546 3.26418 17.228 3.37779C17.2274 3.3772 15.5966 5.06358 15.5966 5.06358C15.4309 5.234 15.3493 5.46832 15.3712 5.70441L15.5552 7.70858C15.5913 8.10325 15.9055 8.41033 16.2931 8.44524ZM16.3605 8.44527C16.3321 8.33166 16.2729 8.39439 16.3605 8.44527C16.3321 8.33166 16.2723 8.39379 16.3605 8.44527Z" fill="black"/>
<path d="M15.9925 6.27479L18.1754 3.0005L17.9456 2.71325L15.3607 2.71326L11.9715 4.55144L12.2013 8.57247L7.31863 13.7424L2.89551 17.6485L4.56135 20.2909L6.57183 20.4632L14.6713 12.0765L19.2668 11.7319L21.3348 9.6639L20.9327 5.8152L18.5775 7.30872H16.8542L15.9925 6.27479Z" fill="black"/>
</g>
<defs>
<clipPath id="clip0_221_19176">
<rect width="24" height="24" fill="white"/>
</clipPath>
</defs>
</svg>
