<svg width="24" height="24" viewBox="0 0 24 24" fill="none" xmlns="http://www.w3.org/2000/svg">
<g clip-path="url(#clip0_221_19374)">
<path fill-rule="evenodd" clip-rule="evenodd" d="M4.7216 16.1295C3.18091 14.5888 2.40966 13.8176 2.12306 12.816C1.83606 11.813 2.08106 10.749 2.57206 8.61899L2.86277 7.36198C3.27229 5.59027 3.47839 4.69867 4.08906 4.08899C4.70306 3.47599 5.59906 3.26899 7.39106 2.85599L8.61906 2.57299C10.7481 2.08099 11.8131 1.83499 12.8161 2.12299C13.817 2.40939 14.5878 3.17976 16.1274 4.7183L17.9671 6.55799C20.6561 9.24699 22.0001 10.592 22.0001 12.262C22.0001 13.933 20.6561 15.277 17.9661 17.967C15.2771 20.656 13.9331 22 12.2621 22C10.5921 22 9.24806 20.657 6.55806 17.966L4.7216 16.1295ZM10.5747 7.92571C10.4688 7.67957 10.3149 7.45699 10.1221 7.27099C9.74157 6.90404 9.23222 6.70114 8.70364 6.70593C8.17505 6.71072 7.66947 6.92283 7.29568 7.29661C6.9219 7.67039 6.70979 8.17597 6.705 8.70456C6.70021 9.23315 6.90312 9.74249 7.27006 10.123C7.45607 10.3159 7.67864 10.4697 7.92478 10.5756C8.17092 10.6815 8.43569 10.7373 8.70364 10.7398C8.97158 10.7422 9.23732 10.6912 9.48534 10.5898C9.73336 10.4884 9.95868 10.3385 10.1482 10.1491C10.3376 9.95961 10.4874 9.73428 10.5889 9.48626C10.6903 9.23824 10.7413 8.9725 10.7388 8.70456C10.7364 8.43662 10.6806 8.17185 10.5747 7.92571ZM14.3166 17.8891C14.1759 18.0298 13.9852 18.1088 13.7863 18.1088C13.3723 18.1088 13.0363 17.7728 13.0363 17.3588V13.3588C13.0363 13.1599 13.1153 12.9691 13.2559 12.8284C13.3966 12.6878 13.5873 12.6088 13.7863 12.6088C13.9852 12.6088 14.1759 12.6878 14.3166 12.8284C14.4572 12.9691 14.5363 13.1599 14.5363 13.3588V17.3588C14.5363 17.5577 14.4572 17.7485 14.3166 17.8891ZM14.4934 9.65167C14.3058 9.46413 14.0515 9.35877 13.7863 9.35877C13.521 9.35877 13.2667 9.46413 13.0792 9.65167C12.8916 9.8392 12.7863 10.0936 12.7863 10.3588C12.7863 10.624 12.8916 10.8783 13.0792 11.0659C13.2667 11.2534 13.521 11.3588 13.7863 11.3588C14.0515 11.3588 14.3058 11.2534 14.4934 11.0659C14.6809 10.8783 14.7863 10.624 14.7863 10.3588C14.7863 10.0936 14.6809 9.8392 14.4934 9.65167Z" fill="black"/>
</g>
<defs>
<clipPath id="clip0_221_19374">
<rect width="24" height="24" fill="white"/>
</clipPath>
</defs>
</svg>
