<svg width="24" height="24" viewBox="0 0 24 24" fill="none" xmlns="http://www.w3.org/2000/svg">
<g clip-path="url(#clip0_221_19317)">
<path d="M9.75 12C9.75 12.5967 9.98705 13.169 10.409 13.591C10.831 14.0129 11.4033 14.25 12 14.25C12.5967 14.25 13.169 14.0129 13.591 13.591C14.0129 13.169 14.25 12.5967 14.25 12C14.25 11.4033 14.0129 10.831 13.591 10.409C13.169 9.98705 12.5967 9.75 12 9.75C11.4033 9.75 10.831 9.98705 10.409 10.409C9.98705 10.831 9.75 11.4033 9.75 12Z" fill="black"/>
<path fill-rule="evenodd" clip-rule="evenodd" d="M3.778 18.326C4.787 19 6.19 19 9 19H15C17.809 19 19.213 19 20.222 18.326C20.6589 18.0341 21.0341 17.6589 21.326 17.222C22 16.213 22 14.81 22 12C22 9.19 22 7.787 21.326 6.778C21.0341 6.34106 20.6589 5.96591 20.222 5.674C19.213 5 17.81 5 15 5H9C6.191 5 4.787 5 3.778 5.674C3.34106 5.96591 2.96591 6.34106 2.674 6.778C2 7.787 2 9.19 2 12C2 14.81 2 16.213 2.674 17.222C2.96591 17.6589 3.34106 18.0341 3.778 18.326ZM12 15.75C11.0054 15.75 10.0516 15.3549 9.34835 14.6517C8.64509 13.9484 8.25 12.9946 8.25 12C8.25 11.0054 8.64509 10.0516 9.34835 9.34835C10.0516 8.64509 11.0054 8.25 12 8.25C12.9946 8.25 13.9484 8.64509 14.6517 9.34835C15.3549 10.0516 15.75 11.0054 15.75 12C15.75 12.9946 15.3549 13.9484 14.6517 14.6517C13.9484 15.3549 12.9946 15.75 12 15.75ZM5.5 15.75C5.30109 15.75 5.11032 15.671 4.96967 15.5303C4.82902 15.3897 4.75 15.1989 4.75 15V9C4.75 8.80109 4.82902 8.61032 4.96967 8.46967C5.11032 8.32902 5.30109 8.25 5.5 8.25C5.69891 8.25 5.88968 8.32902 6.03033 8.46967C6.17098 8.61032 6.25 8.80109 6.25 9V15C6.25 15.1989 6.17098 15.3897 6.03033 15.5303C5.88968 15.671 5.69891 15.75 5.5 15.75ZM17.75 15C17.75 15.1989 17.829 15.3897 17.9697 15.5303C18.1103 15.671 18.3011 15.75 18.5 15.75C18.6989 15.75 18.8897 15.671 19.0303 15.5303C19.171 15.3897 19.25 15.1989 19.25 15V9C19.25 8.80109 19.171 8.61032 19.0303 8.46967C18.8897 8.32902 18.6989 8.25 18.5 8.25C18.3011 8.25 18.1103 8.32902 17.9697 8.46967C17.829 8.61032 17.75 8.80109 17.75 9V15Z" fill="black"/>
</g>
<defs>
<clipPath id="clip0_221_19317">
<rect width="24" height="24" fill="white"/>
</clipPath>
</defs>
</svg>
