<svg width="24" height="24" viewBox="0 0 24 24" fill="none" xmlns="http://www.w3.org/2000/svg">
<g clip-path="url(#clip0_221_19296)">
<path fill-rule="evenodd" clip-rule="evenodd" d="M9.99499 4H14.005C17.785 4 19.675 4 20.85 5.172C21.66 5.978 21.911 7.123 21.99 8.989C22.005 9.359 22.013 9.545 21.944 9.668C21.874 9.791 21.599 9.946 21.047 10.254C20.7361 10.4273 20.4771 10.6806 20.2967 10.9875C20.1164 11.2945 20.0214 11.644 20.0214 12C20.0214 12.356 20.1164 12.7055 20.2967 13.0125C20.4771 13.3194 20.7361 13.5727 21.047 13.746C21.599 14.055 21.875 14.209 21.944 14.332C22.013 14.455 22.005 14.64 21.989 15.01C21.911 16.877 21.659 18.022 20.85 18.828C19.676 20 17.786 20 14.005 20H9.99499C6.21499 20 4.32499 20 3.14999 18.828C2.33999 18.022 2.08899 16.877 2.00999 15.011C1.99499 14.641 1.98699 14.455 2.05599 14.332C2.12599 14.209 2.40099 14.055 2.95299 13.746C3.26392 13.5727 3.52292 13.3194 3.70323 13.0125C3.88353 12.7055 3.9786 12.356 3.9786 12C3.9786 11.644 3.88353 11.2945 3.70323 10.9875C3.52292 10.6806 3.26392 10.4273 2.95299 10.254C2.40099 9.946 2.12499 9.791 2.05599 9.668C1.98699 9.545 1.99499 9.36 2.01099 8.989C2.08899 7.123 2.34099 5.979 3.14999 5.172C4.32399 4 6.21399 4 9.99499 4ZM15.548 8.47C15.6884 8.61063 15.7673 8.80125 15.7673 9C15.7673 9.19875 15.6884 9.38937 15.548 9.53L9.53299 15.53C9.39185 15.6706 9.20073 15.7496 9.00149 15.7496C8.80224 15.7496 8.61112 15.6706 8.46999 15.53C8.32954 15.3894 8.25065 15.1988 8.25065 15C8.25065 14.8012 8.32954 14.6106 8.46999 14.47L14.485 8.47C14.6261 8.32937 14.8172 8.2504 15.0165 8.2504C15.2157 8.2504 15.4068 8.32937 15.548 8.47ZM14.515 15.5C14.6501 15.506 14.785 15.4847 14.9116 15.4371C15.0382 15.3896 15.1538 15.3169 15.2515 15.2235C15.3493 15.13 15.427 15.0177 15.4802 14.8934C15.5333 14.769 15.5607 14.6352 15.5607 14.5C15.5607 14.3648 15.5333 14.231 15.4802 14.1066C15.427 13.9823 15.3493 13.87 15.2515 13.7765C15.1538 13.6831 15.0382 13.6104 14.9116 13.5629C14.785 13.5153 14.6501 13.494 14.515 13.5C13.961 13.5 13.512 13.948 13.512 14.5C13.512 15.052 13.962 15.5 14.515 15.5ZM9.50199 10.5C10.056 10.5 10.505 10.052 10.505 9.5C10.505 8.948 10.056 8.5 9.50199 8.5C9.3669 8.49396 9.23199 8.51535 9.1054 8.56288C8.97881 8.61041 8.86316 8.68309 8.76544 8.77654C8.66771 8.87 8.58993 8.98228 8.53679 9.10662C8.48365 9.23096 8.45625 9.36478 8.45625 9.5C8.45625 9.63522 8.48365 9.76904 8.53679 9.89338C8.58993 10.0177 8.66771 10.13 8.76544 10.2235C8.86316 10.3169 8.97881 10.3896 9.1054 10.4371C9.23199 10.4847 9.3669 10.506 9.50199 10.5Z" fill="black"/>
</g>
<defs>
<clipPath id="clip0_221_19296">
<rect width="24" height="24" fill="white"/>
</clipPath>
</defs>
</svg>
