<svg width="24" height="24" viewBox="0 0 24 24" fill="none" xmlns="http://www.w3.org/2000/svg">
<path d="M14.6713 8.29917H9.32196L12.0584 5.03875L14.6713 8.29917Z" fill="black"/>
<path d="M10.46 3.04431H6.60811C6.46592 3.04431 6.32505 3.05507 6.18652 3.07606L7.84601 7.56891L11.038 3.76561L10.46 3.04431Z" fill="black"/>
<path d="M4.73335 3.75962C4.60611 3.8732 4.48844 3.99902 4.38222 4.13615L4.17314 4.4057C3.50447 5.2678 2.56154 6.48347 1.84116 7.4136C1.63021 7.68553 1.47601 7.98583 1.3781 8.29917H6.41009L4.73335 3.75962Z" fill="black"/>
<path d="M1.35413 9.89917C1.46541 10.2972 1.6657 10.6753 1.95406 11.0023C1.95406 11.0023 7.29247 17.0575 9.96217 20.0866C10.2587 20.4226 10.6294 20.676 11.0389 20.8309L7.00107 9.89917H1.35413Z" fill="black"/>
<path d="M13.0269 20.805C13.4104 20.6484 13.7573 20.4044 14.0379 20.0866L22.046 11.0023C22.3343 10.6753 22.5346 10.2972 22.6459 9.89917H17.028L13.0269 20.805Z" fill="black"/>
<path d="M22.622 8.29917C22.524 7.98583 22.3698 7.68553 22.1589 7.4136C21.4408 6.48641 20.5015 5.27546 19.8332 4.41387L19.6178 4.13615C19.5145 4.00276 19.4004 3.88007 19.2771 3.76894L17.6151 8.29917H22.622Z" fill="black"/>
<path d="M17.8263 3.07803C17.6837 3.05574 17.5385 3.04431 17.3919 3.04431H13.7323L13.1072 3.78903L16.1654 7.60503L17.8263 3.07803Z" fill="black"/>
<path d="M8.70672 9.89917L12.0264 18.8868L15.3238 9.89917H8.70672Z" fill="black"/>
</svg>
