<svg width="24" height="24" viewBox="0 0 24 24" fill="none" xmlns="http://www.w3.org/2000/svg">
<g clip-path="url(#clip0_221_19306)">
<path d="M11.75 12C11.75 11.7045 11.8082 11.4119 11.9213 11.139C12.0343 10.866 12.2001 10.6179 12.409 10.409C12.6179 10.2001 12.866 10.0343 13.139 9.92127C13.4119 9.8082 13.7045 9.75 14 9.75C14.2955 9.75 14.5881 9.8082 14.861 9.92127C15.134 10.0343 15.3821 10.2001 15.591 10.409C15.7999 10.6179 15.9657 10.866 16.0787 11.139C16.1918 11.4119 16.25 11.7045 16.25 12C16.25 12.5967 16.0129 13.169 15.591 13.591C15.169 14.0129 14.5967 14.25 14 14.25C13.4033 14.25 12.831 14.0129 12.409 13.591C11.9871 13.169 11.75 12.5967 11.75 12Z" fill="black"/>
<path fill-rule="evenodd" clip-rule="evenodd" d="M3.464 3.464C2 4.93 2 7.286 2 12C2 16.714 2 19.071 3.464 20.535C4.93 22 7.286 22 12 22C16.714 22 19.071 22 20.535 20.535C22 19.072 22 16.714 22 12C22 7.286 22 4.929 20.535 3.464C19.072 2 16.714 2 12 2C7.286 2 4.929 2 3.464 3.464ZM6.75 7C6.75 6.80109 6.67098 6.61032 6.53033 6.46967C6.38968 6.32902 6.19891 6.25 6 6.25C5.80109 6.25 5.61032 6.32902 5.46967 6.46967C5.32902 6.61032 5.25 6.80109 5.25 7V17C5.25 17.1989 5.32902 17.3897 5.46967 17.5303C5.61032 17.671 5.80109 17.75 6 17.75C6.19891 17.75 6.38968 17.671 6.53033 17.5303C6.67098 17.3897 6.75 17.1989 6.75 17V7ZM10.53 7.47C10.4613 7.39631 10.3785 7.33721 10.2865 7.29622C10.1945 7.25523 10.0952 7.23319 9.99452 7.23141C9.89382 7.22963 9.79379 7.24816 9.7004 7.28588C9.60701 7.3236 9.52218 7.37974 9.45096 7.45096C9.37974 7.52218 9.3236 7.60701 9.28588 7.7004C9.24816 7.79379 9.22963 7.89382 9.23141 7.99452C9.23318 8.09523 9.25523 8.19454 9.29622 8.28654C9.33721 8.37854 9.39631 8.46134 9.47 8.53L10.871 9.932C10.4646 10.545 10.2486 11.2645 10.25 12C10.25 12.764 10.479 13.475 10.871 14.068L9.47 15.47C9.39631 15.5387 9.33721 15.6215 9.29622 15.7135C9.25523 15.8055 9.23318 15.9048 9.23141 16.0055C9.22963 16.1062 9.24816 16.2062 9.28588 16.2996C9.3236 16.393 9.37974 16.4778 9.45096 16.549C9.52218 16.6203 9.60701 16.6764 9.7004 16.7141C9.79379 16.7518 9.89382 16.7704 9.99452 16.7686C10.0952 16.7668 10.1945 16.7448 10.2865 16.7038C10.3785 16.6628 10.4613 16.6037 10.53 16.53L11.932 15.129C12.545 15.5354 13.2645 15.7514 14 15.75C14.764 15.75 15.475 15.521 16.068 15.129L17.47 16.53C17.5387 16.6037 17.6215 16.6628 17.7135 16.7038C17.8055 16.7448 17.9048 16.7668 18.0055 16.7686C18.1062 16.7704 18.2062 16.7518 18.2996 16.7141C18.393 16.6764 18.4778 16.6203 18.549 16.549C18.6203 16.4778 18.6764 16.393 18.7141 16.2996C18.7518 16.2062 18.7704 16.1062 18.7686 16.0055C18.7668 15.9048 18.7448 15.8055 18.7038 15.7135C18.6628 15.6215 18.6037 15.5387 18.53 15.47L17.129 14.068C17.5354 13.455 17.7514 12.7355 17.75 12C17.75 11.236 17.521 10.525 17.129 9.932L18.53 8.53C18.6625 8.38783 18.7346 8.19978 18.7312 8.00548C18.7277 7.81118 18.649 7.62579 18.5116 7.48838C18.3742 7.35097 18.1888 7.27225 17.9945 7.26883C17.8002 7.2654 17.6122 7.33752 17.47 7.47L16.068 8.87C15.4549 8.464 14.7354 8.24829 14 8.25C13.236 8.25 12.525 8.479 11.932 8.871L10.53 7.47Z" fill="black"/>
</g>
<defs>
<clipPath id="clip0_221_19306">
<rect width="24" height="24" fill="white"/>
</clipPath>
</defs>
</svg>
