<svg width="24" height="24" viewBox="0 0 24 24" fill="none" xmlns="http://www.w3.org/2000/svg">
<g clip-path="url(#clip0_221_19369)">
<path d="M16.0254 12.3911C16.0254 12.4204 15.984 12.5935 15.5768 12.7889C15.2057 12.9671 14.6578 13.0911 14.0254 13.0911C13.3931 13.0911 12.8452 12.9671 12.474 12.7889C12.0669 12.5935 12.0254 12.4204 12.0254 12.3911C12.0254 12.3617 12.0669 12.1886 12.474 11.9932C12.8452 11.8151 13.3931 11.6911 14.0254 11.6911C14.6578 11.6911 15.2057 11.8151 15.5768 11.9932C15.984 12.1886 16.0254 12.3617 16.0254 12.3911Z" fill="black"/>
<path d="M16.0254 13.6828C16.0201 13.6854 16.0148 13.6879 16.0095 13.6905C15.4758 13.9466 14.7738 14.0911 14.0254 14.0911C13.2771 14.0911 12.575 13.9466 12.0414 13.6905C12.0361 13.6879 12.0308 13.6854 12.0254 13.6828V14.1911C12.0254 14.2204 12.0669 14.3935 12.474 14.5889C12.8452 14.7671 13.3931 14.8911 14.0254 14.8911C14.6578 14.8911 15.2057 14.7671 15.5768 14.5889C15.984 14.3935 16.0254 14.2204 16.0254 14.1911V13.6828Z" fill="black"/>
<path d="M16.0254 15.4828C16.0201 15.4854 16.0148 15.4879 16.0095 15.4905C15.4758 15.7466 14.7738 15.8911 14.0254 15.8911C13.2771 15.8911 12.575 15.7466 12.0414 15.4905C12.0361 15.4879 12.0308 15.4854 12.0254 15.4828V15.9911C12.0254 16.0204 12.0669 16.1935 12.474 16.3889C12.8452 16.5671 13.3931 16.6911 14.0254 16.6911C14.6578 16.6911 15.2057 16.5671 15.5768 16.3889C15.984 16.1935 16.0254 16.0204 16.0254 15.9911V15.4828Z" fill="black"/>
<path fill-rule="evenodd" clip-rule="evenodd" d="M2.12306 12.816C2.40966 13.8176 3.18091 14.5888 4.7216 16.1295L6.55806 17.966C9.24806 20.657 10.5921 22 12.2621 22C13.9331 22 15.2771 20.656 17.9661 17.967C20.656 15.277 22.0001 13.933 22.0001 12.262C22.0001 10.592 20.6561 9.24699 17.9671 6.55799L16.1274 4.7183C14.5878 3.17976 13.817 2.40939 12.8161 2.12299C11.8131 1.83499 10.7481 2.08099 8.61906 2.57299L7.39106 2.85599C5.59906 3.26899 4.70306 3.47599 4.08906 4.08899C3.47839 4.69867 3.27229 5.59027 2.86277 7.36198L2.57206 8.61899C2.08106 10.749 1.83606 11.813 2.12306 12.816ZM10.1221 7.27099C10.3149 7.45699 10.4688 7.67957 10.5747 7.92571C10.6806 8.17185 10.7364 8.43662 10.7388 8.70456C10.7413 8.9725 10.6903 9.23824 10.5889 9.48626C10.4874 9.73428 10.3376 9.95961 10.1482 10.1491C9.95868 10.3385 9.73336 10.4884 9.48534 10.5898C9.23732 10.6912 8.97158 10.7422 8.70364 10.7398C8.43569 10.7373 8.17092 10.6815 7.92478 10.5756C7.67864 10.4697 7.45607 10.3159 7.27006 10.123C6.90312 9.74249 6.70021 9.23315 6.705 8.70456C6.70979 8.17597 6.9219 7.67039 7.29568 7.29661C7.66947 6.92283 8.17505 6.71072 8.70364 6.70593C9.23222 6.70114 9.74157 6.90404 10.1221 7.27099ZM11.171 11.8384C11.081 11.9288 11.0254 12.0534 11.0254 12.1911V16.1911C11.0254 16.3287 11.081 16.4533 11.171 16.5437C11.3599 16.8822 11.7053 17.1292 12.0414 17.2905C12.575 17.5466 13.2771 17.6911 14.0254 17.6911C14.7738 17.6911 15.4758 17.5466 16.0095 17.2905C16.3455 17.1292 16.6909 16.8822 16.8799 16.5437C16.9698 16.4533 17.0254 16.3287 17.0254 16.1911V12.1911C17.0254 12.0534 16.9698 11.9288 16.8799 11.8384C16.6909 11.4999 16.3455 11.2529 16.0095 11.0917C15.4758 10.8356 14.7738 10.6911 14.0254 10.6911C13.2771 10.6911 12.575 10.8356 12.0414 11.0917C11.7053 11.2529 11.3599 11.4999 11.171 11.8384Z" fill="black"/>
</g>
<defs>
<clipPath id="clip0_221_19369">
<rect width="24" height="24" fill="white"/>
</clipPath>
</defs>
</svg>
