<svg width="24" height="24" viewBox="0 0 24 24" fill="none" xmlns="http://www.w3.org/2000/svg">
<g clip-path="url(#clip0_221_19384)">
<path d="M8.75 12C8.74984 11.2684 8.99657 10.5581 9.45027 9.98403C9.90396 9.41001 10.5381 9.00588 11.25 8.83704V9.87804C10.7877 10.0415 10.3915 10.3516 10.1216 10.761C9.85175 11.1704 9.72302 11.6567 9.755 12.146L8.797 12.556C8.76566 12.3724 8.74994 12.1864 8.75 12ZM12.75 9.87804V8.83704C13.5559 9.02785 14.2585 9.5191 14.7144 10.2105C15.1703 10.9018 15.345 11.7412 15.203 12.557L14.245 12.147C14.2483 12.0977 14.25 12.0487 14.25 12C14.2501 11.5346 14.106 11.0806 13.8373 10.7006C13.5687 10.3206 13.1888 10.0332 12.75 9.87804ZM13.654 13.525L14.611 13.935C14.3087 14.3429 13.9151 14.6743 13.4617 14.9027C13.0083 15.131 12.5077 15.25 12 15.25C10.93 15.25 9.98 14.733 9.389 13.935L10.346 13.525C10.5564 13.754 10.812 13.9369 11.0967 14.0619C11.3814 14.187 11.689 14.2516 12 14.2516C12.311 14.2516 12.6186 14.187 12.9033 14.0619C13.188 13.9369 13.4436 13.754 13.654 13.525Z" fill="black"/>
<path fill-rule="evenodd" clip-rule="evenodd" d="M7.808 5.853C7.074 5.952 6.686 6.133 6.409 6.409C6.132 6.686 5.952 7.074 5.853 7.809C5.752 8.563 5.75 9.565 5.75 11V13C5.75 14.435 5.752 15.437 5.853 16.192C5.952 16.926 6.133 17.314 6.409 17.591C6.686 17.868 7.074 18.048 7.809 18.147C8.563 18.248 9.565 18.25 11 18.25H13C14.435 18.25 15.437 18.248 16.192 18.147C16.926 18.048 17.314 17.867 17.591 17.591C17.868 17.314 18.048 16.926 18.147 16.191C18.248 15.437 18.25 14.435 18.25 13V11C18.25 9.565 18.248 8.563 18.147 7.808C18.048 7.074 17.867 6.686 17.591 6.409C17.314 6.132 16.926 5.952 16.191 5.853C15.437 5.752 14.435 5.75 13 5.75H11C9.565 5.75 8.563 5.752 7.808 5.853ZM12 7.25C10.7402 7.25 9.53204 7.75045 8.64124 8.64124C7.75045 9.53204 7.25 10.7402 7.25 12C7.25 13.2598 7.75045 14.468 8.64124 15.3588C9.53204 16.2496 10.7402 16.75 12 16.75C13.2598 16.75 14.468 16.2496 15.3588 15.3588C16.2496 14.468 16.75 13.2598 16.75 12C16.75 10.7402 16.2496 9.53204 15.3588 8.64124C14.468 7.75045 13.2598 7.25 12 7.25Z" fill="black"/>
<path fill-rule="evenodd" clip-rule="evenodd" d="M2 12C2 7.286 2 4.929 3.464 3.464C4.93 2 7.286 2 12 2C16.714 2 19.071 2 20.535 3.464C22 4.93 22 7.286 22 12C22 16.714 22 19.071 20.535 20.535C19.072 22 16.714 22 12 22C7.286 22 4.929 22 3.464 20.535C2 19.072 2 16.714 2 12ZM13.055 4.25C14.422 4.25 15.525 4.25 16.392 4.367C17.292 4.487 18.05 4.747 18.652 5.348C19.254 5.95 19.512 6.708 19.634 7.608C19.75 8.475 19.75 9.578 19.75 10.945V13.055C19.75 14.422 19.75 15.525 19.634 16.392C19.512 17.292 19.254 18.05 18.652 18.652C18.05 19.254 17.292 19.512 16.392 19.634C15.525 19.75 14.422 19.75 13.055 19.75H10.945C9.578 19.75 8.475 19.75 7.608 19.634C6.708 19.512 5.95 19.254 5.348 18.652C5.07957 18.3839 4.86444 18.0673 4.714 17.719C4.60205 17.7523 4.48387 17.759 4.36887 17.7386C4.25387 17.7182 4.14523 17.6712 4.0516 17.6014C3.95797 17.5315 3.88195 17.4408 3.82959 17.3364C3.77722 17.232 3.74997 17.1168 3.75 17V14C3.75002 13.8449 3.79812 13.6937 3.88766 13.5671C3.9772 13.4404 4.10379 13.3447 4.25 13.293V10.707C4.10379 10.6553 3.9772 10.5596 3.88766 10.4329C3.79812 10.3063 3.75002 10.1551 3.75 10V7C3.74982 6.88311 3.77695 6.7678 3.82925 6.66327C3.88154 6.55873 3.95755 6.46787 4.0512 6.39792C4.14484 6.32798 4.25355 6.28089 4.36862 6.26042C4.4837 6.23994 4.60197 6.24665 4.714 6.28C4.86455 5.93207 5.07968 5.61582 5.348 5.348C5.95 4.746 6.708 4.488 7.608 4.367C8.475 4.25 9.578 4.25 10.945 4.25H13.055Z" fill="black"/>
</g>
<defs>
<clipPath id="clip0_221_19384">
<rect width="24" height="24" fill="white"/>
</clipPath>
</defs>
</svg>
