<svg width="24" height="24" viewBox="0 0 24 24" fill="none" xmlns="http://www.w3.org/2000/svg">
<g clip-path="url(#clip0_221_19301)">
<path fill-rule="evenodd" clip-rule="evenodd" d="M3.464 3.464C2 4.93 2 7.286 2 12C2 16.714 2 19.071 3.464 20.535C4.93 22 7.286 22 12 22C16.714 22 19.071 22 20.535 20.535C22 19.072 22 16.714 22 12C22 7.286 22 4.929 20.535 3.464C19.072 2 16.714 2 12 2C7.286 2 4.929 2 3.464 3.464ZM7.53 9.47C7.38783 9.33752 7.19978 9.2654 7.00548 9.26882C6.81118 9.27225 6.62579 9.35097 6.48838 9.48838C6.35097 9.62579 6.27225 9.81118 6.26883 10.0055C6.2654 10.1998 6.33752 10.3878 6.47 10.53L8.763 12.823C9.09115 13.1509 9.53609 13.3351 10 13.3351C10.4639 13.3351 10.9088 13.1509 11.237 12.823L12.823 11.237C12.8462 11.2137 12.8738 11.1952 12.9042 11.1826C12.9346 11.17 12.9671 11.1636 13 11.1636C13.0329 11.1636 13.0654 11.17 13.0958 11.1826C13.1262 11.1952 13.1538 11.2137 13.177 11.237L15.189 13.25H14.5C14.3011 13.25 14.1103 13.329 13.9697 13.4697C13.829 13.6103 13.75 13.8011 13.75 14C13.75 14.1989 13.829 14.3897 13.9697 14.5303C14.1103 14.671 14.3011 14.75 14.5 14.75H17C17.1989 14.75 17.3897 14.671 17.5303 14.5303C17.671 14.3897 17.75 14.1989 17.75 14V11.5C17.75 11.3011 17.671 11.1103 17.5303 10.9697C17.3897 10.829 17.1989 10.75 17 10.75C16.8011 10.75 16.6103 10.829 16.4697 10.9697C16.329 11.1103 16.25 11.3011 16.25 11.5V12.19L14.237 10.177C13.9088 9.84908 13.4639 9.66487 13 9.66487C12.5361 9.66487 12.0912 9.84908 11.763 10.177L10.177 11.763C10.1538 11.7863 10.1262 11.8048 10.0958 11.8174C10.0654 11.83 10.0329 11.8364 10 11.8364C9.96712 11.8364 9.93456 11.83 9.90418 11.8174C9.87381 11.8048 9.84622 11.7863 9.823 11.763L7.53 9.47Z" fill="black"/>
</g>
<defs>
<clipPath id="clip0_221_19301">
<rect width="24" height="24" fill="white"/>
</clipPath>
</defs>
</svg>
