<svg width="24" height="24" viewBox="0 0 24 24" fill="none" xmlns="http://www.w3.org/2000/svg">
<g clip-path="url(#clip0_221_19252)">
<path d="M1.68833 1.55261C1.48545 1.65002 1.32957 1.82401 1.25496 2.03632C1.21788 2.14153 1.20303 2.25302 1.20907 2.36441C1.21511 2.4758 1.24305 2.5849 1.29129 2.68548C1.33953 2.78607 1.40713 2.87615 1.49022 2.95059C1.5733 3.02503 1.67025 3.08235 1.77551 3.11929L2.07086 3.22227C2.82679 3.4882 3.32357 3.66474 3.68796 3.84353C4.03197 4.01101 4.18248 4.14794 4.28206 4.29392C4.38391 4.4433 4.46312 4.64925 4.50839 5.06003C4.55479 5.49005 4.55479 6.05021 4.55479 6.88761V9.83211C4.55479 10.4556 4.55729 11.0008 4.56779 11.482C5.13316 10.6645 6.03243 9.73804 7.5822 8.81298C9.04954 8.03804 10.9676 7.7271 13.2193 8.58274C16.8787 9.97334 20.8925 10.322 22.2454 10.3399L22.3214 9.9713L22.3232 9.96184C22.7135 8.00024 22.909 7.01784 22.4074 6.36593C21.9049 5.71298 20.1894 5.71298 18.2826 5.71298H6.24318C6.23714 5.40744 6.22092 5.12906 6.19452 4.87784C6.13341 4.31542 6.00214 3.80279 5.68302 3.33656C5.36164 2.86581 4.93275 2.56479 4.43483 2.31923C3.97336 2.09297 3.3877 1.88667 2.69983 1.64435L2.67855 1.63686L2.33679 1.5169C2.12445 1.44236 1.8912 1.45521 1.68833 1.55261Z" fill="black"/>
<path d="M21.8972 12.0287C20.1064 11.9625 16.1906 11.5277 12.6163 10.1695C10.8436 9.49586 9.43325 9.75501 8.37491 10.314C6.18033 11.532 5.47313 13.5015 5.10294 14.5325C5.09687 14.5494 5.09088 14.566 5.08499 14.5824C5.22134 14.8376 5.39248 15.067 5.6072 15.2934C6.58832 16.3277 8.16581 16.3277 11.3219 16.3277H17.3218C19.0883 16.3277 19.9721 16.3277 20.5956 15.8184C21.2203 15.3103 21.3991 14.4446 21.7555 12.7155L21.8972 12.0287Z" fill="black"/>
<path d="M8.58413 19.7897C8.2658 19.4714 7.83405 19.2925 7.38386 19.2925C6.93367 19.2925 6.50192 19.4714 6.18358 19.7897C5.86525 20.108 5.68642 20.5398 5.68642 20.99C5.68642 21.4402 5.86525 21.8719 6.18358 22.1902C6.50192 22.5086 6.93367 22.6874 7.38386 22.6874C7.83405 22.6874 8.2658 22.5086 8.58413 22.1902C8.90246 21.8719 9.0813 21.4402 9.0813 20.99C9.0813 20.5398 8.90246 20.108 8.58413 19.7897Z" fill="black"/>
<path d="M18.7688 19.7897C18.4505 19.4714 18.0187 19.2925 17.5685 19.2925C17.1183 19.2925 16.6866 19.4714 16.3682 19.7897C16.0499 20.108 15.8711 20.5398 15.8711 20.99C15.8711 21.4402 16.0499 21.8719 16.3682 22.1902C16.6866 22.5086 17.1183 22.6874 17.5685 22.6874C18.0187 22.6874 18.4505 22.5086 18.7688 22.1902C19.0871 21.8719 19.266 21.4402 19.266 20.99C19.266 20.5398 19.0871 20.108 18.7688 19.7897Z" fill="black"/>
</g>
<defs>
<clipPath id="clip0_221_19252">
<rect width="24" height="24" fill="white"/>
</clipPath>
</defs>
</svg>
