<svg width="24" height="24" viewBox="0 0 24 24" fill="none" xmlns="http://www.w3.org/2000/svg">
<g clip-path="url(#clip0_221_19364)">
<path fill-rule="evenodd" clip-rule="evenodd" d="M4.7216 16.1295C3.18091 14.5888 2.40966 13.8176 2.12306 12.816C1.83606 11.813 2.08106 10.749 2.57206 8.61899L2.86277 7.36198C3.27229 5.59027 3.47839 4.69867 4.08906 4.08899C4.70306 3.47599 5.59906 3.26899 7.39106 2.85599L8.61906 2.57299C10.7481 2.08099 11.8131 1.83499 12.8161 2.12299C13.817 2.40939 14.5878 3.17976 16.1274 4.7183L17.9671 6.55799C20.6561 9.24699 22.0001 10.592 22.0001 12.262C22.0001 13.8276 20.8202 15.1062 18.4588 17.4738C18.4572 17.47 18.4555 17.4661 18.4538 17.4623C18.4128 17.3703 18.3537 17.2875 18.28 17.2188L16.879 15.8168C17.2013 15.329 17.405 14.7725 17.4739 14.1919C17.5428 13.6113 17.475 13.0227 17.2758 12.4729C17.0767 11.9232 16.7518 11.4276 16.3271 11.0258C15.9023 10.624 15.3895 10.3271 14.8296 10.1588C14.2697 9.99044 13.6782 9.95537 13.1023 10.0564C12.5264 10.1574 11.9821 10.3916 11.5128 10.7404C11.0436 11.0892 10.6624 11.5429 10.3997 12.0653C10.1371 12.5876 10.0002 13.1642 10 13.7488C9.99986 14.4264 10.1833 15.0914 10.5309 15.673C10.8784 16.2547 11.377 16.7313 11.9738 17.0523C12.5705 17.3732 13.2431 17.5265 13.92 17.4958C14.5969 17.465 15.2528 17.2515 15.818 16.8778L17.22 18.2789C17.2887 18.3525 17.3715 18.4116 17.4635 18.4526C17.4673 18.4543 17.4711 18.456 17.475 18.4576C15.107 20.8195 13.8281 22 12.2621 22C10.5921 22 9.24806 20.657 6.55806 17.966L4.7216 16.1295ZM10.5747 7.92571C10.4688 7.67957 10.3149 7.45699 10.1221 7.27099C9.74157 6.90404 9.23222 6.70114 8.70364 6.70593C8.17505 6.71072 7.66947 6.92283 7.29568 7.29661C6.9219 7.67039 6.70979 8.17597 6.705 8.70456C6.70021 9.23315 6.90312 9.74249 7.27006 10.123C7.45607 10.3159 7.67864 10.4697 7.92478 10.5756C8.17092 10.6815 8.43569 10.7373 8.70364 10.7398C8.97158 10.7422 9.23732 10.6912 9.48534 10.5898C9.73336 10.4884 9.95868 10.3385 10.1482 10.1491C10.3376 9.95961 10.4874 9.73428 10.5889 9.48626C10.6903 9.23824 10.7413 8.9725 10.7388 8.70456C10.7364 8.43662 10.6806 8.17185 10.5747 7.92571Z" fill="black"/>
<path d="M12.159 12.1579C12.581 11.7359 13.1533 11.4988 13.75 11.4988C14.3467 11.4988 14.919 11.7359 15.341 12.1579C15.7629 12.5798 16 13.1521 16 13.7488C16 14.3456 15.7629 14.9179 15.341 15.3398C14.919 15.7618 14.3467 15.9988 13.75 15.9988C13.1533 15.9988 12.581 15.7618 12.159 15.3398C11.7371 14.9179 11.5 14.3456 11.5 13.7488C11.5 13.1521 11.7371 12.5798 12.159 12.1579Z" fill="black"/>
</g>
<defs>
<clipPath id="clip0_221_19364">
<rect width="24" height="24" fill="white"/>
</clipPath>
</defs>
</svg>
