<svg width="24" height="24" viewBox="0 0 24 24" fill="none" xmlns="http://www.w3.org/2000/svg">
<g clip-path="url(#clip0_221_19349)">
<path fill-rule="evenodd" clip-rule="evenodd" d="M4.7216 16.1295C3.18091 14.5888 2.40966 13.8176 2.12306 12.816C1.83606 11.813 2.08106 10.749 2.57206 8.61899L2.86277 7.36198C3.27229 5.59027 3.47839 4.69867 4.08906 4.08899C4.70306 3.47599 5.59906 3.26899 7.39106 2.85599L8.61906 2.57299C10.7481 2.08099 11.8131 1.83499 12.8161 2.12299C13.817 2.40939 14.5878 3.17976 16.1274 4.7183L17.9671 6.55799C20.6561 9.24699 22.0001 10.592 22.0001 12.262C22.0001 13.933 20.6561 15.277 17.9661 17.967C15.2771 20.656 13.9331 22 12.2621 22C10.5921 22 9.24806 20.657 6.55806 17.966L4.7216 16.1295ZM10.5747 7.92571C10.4688 7.67957 10.3149 7.45699 10.1221 7.27099C9.74157 6.90404 9.23222 6.70114 8.70364 6.70593C8.17505 6.71072 7.66947 6.92283 7.29568 7.29661C6.9219 7.67039 6.70979 8.17597 6.705 8.70456C6.70021 9.23315 6.90312 9.74249 7.27006 10.123C7.45607 10.3159 7.67864 10.4697 7.92478 10.5756C8.17092 10.6815 8.43569 10.7373 8.70364 10.7398C8.97158 10.7422 9.23732 10.6912 9.48534 10.5898C9.73336 10.4884 9.95868 10.3385 10.1482 10.1491C10.3376 9.95961 10.4874 9.73428 10.5889 9.48626C10.6903 9.23824 10.7413 8.9725 10.7388 8.70456C10.7364 8.43662 10.6806 8.17185 10.5747 7.92571ZM16.1567 12.9398C16.4297 12.6323 16.4012 12.1546 16.0937 11.8816H16.0952C15.958 11.7593 15.7802 11.6918 15.5957 11.6918C15.3812 11.6918 15.1772 11.7833 15.0347 11.9438L12.9287 14.3139L12.1569 13.4439C12.0144 13.2834 11.8104 13.1919 11.5959 13.1919C11.1841 13.1919 10.8459 13.5301 10.8459 13.9419C10.8459 14.1256 10.9134 14.3026 11.0349 14.4399L12.3692 15.9399C12.5109 16.0996 12.7157 16.1919 12.9294 16.1919C13.1432 16.1919 13.3479 16.0996 13.4897 15.9399L16.1567 12.9398Z" fill="black"/>
</g>
<defs>
<clipPath id="clip0_221_19349">
<rect width="24" height="24" fill="white"/>
</clipPath>
</defs>
</svg>
