<svg width="24" height="24" viewBox="0 0 24 24" fill="none" xmlns="http://www.w3.org/2000/svg">
<g clip-path="url(#clip0_221_19391)">
<path d="M14.6515 14.4085C14.6515 14.1952 14.4789 14.0224 14.2659 14.0224C14.0537 14.0224 13.8811 14.1952 13.8811 14.4085C13.8811 14.621 14.0537 14.7938 14.2659 14.7938C14.4789 14.7938 14.6515 14.621 14.6515 14.4085Z" fill="black"/>
<path d="M10.1189 9.8793C10.1189 9.66688 9.94628 9.49406 9.73412 9.49406C9.52106 9.49406 9.34847 9.66688 9.34847 9.8793C9.34847 10.0926 9.52106 10.2654 9.73412 10.2654C9.94628 10.2654 10.1189 10.0926 10.1189 9.8793Z" fill="black"/>
<path fill-rule="evenodd" clip-rule="evenodd" d="M22 12C22 17.523 17.523 22 12 22C6.477 22 2 17.523 2 12C2 6.477 6.477 2 12 2C17.523 2 22 6.477 22 12ZM12.5326 14.4085C12.5326 13.4499 13.3094 12.6723 14.2659 12.6723C15.2224 12.6723 16 13.4499 16 14.4085C16 15.3662 15.2224 16.1439 14.2659 16.1439C13.3094 16.1439 12.5326 15.3662 12.5326 14.4085ZM15.2997 9.78569L9.66131 15.4103C9.39701 15.6732 8.96999 15.6732 8.70749 15.4086C8.44498 15.1448 8.4459 14.7173 8.7093 14.4545L14.3486 8.8289C14.612 8.56608 15.039 8.56696 15.3015 8.83069C15.564 9.09442 15.564 9.52286 15.2997 9.78569ZM8 9.8793C8 8.92161 8.7767 8.14392 9.73412 8.14392C10.6906 8.14392 11.4674 8.92161 11.4674 9.8793C11.4674 10.8379 10.6906 11.6156 9.73412 11.6156C8.7767 11.6156 8 10.8379 8 9.8793Z" fill="black"/>
</g>
<defs>
<clipPath id="clip0_221_19391">
<rect width="24" height="24" fill="white"/>
</clipPath>
</defs>
</svg>
