<svg width="24" height="24" viewBox="0 0 24 24" fill="none" xmlns="http://www.w3.org/2000/svg">
<g clip-path="url(#clip0_221_19359)">
<path fill-rule="evenodd" clip-rule="evenodd" d="M11.3905 14.4824C11.3905 14.5001 11.3905 14.5181 11.3905 14.5363C11.3905 14.5545 11.3905 14.5725 11.3905 14.5903C11.3904 14.8894 11.3904 15.1322 11.4055 15.3304C11.4079 15.3623 11.4087 15.3922 11.4095 15.4201C11.4119 15.5067 11.4138 15.5738 11.4615 15.6215V15.6225C11.509 15.6693 11.5758 15.6711 11.662 15.6735C11.6902 15.6742 11.7203 15.6751 11.7526 15.6775C11.9519 15.6926 12.1941 15.6926 12.4935 15.6925C12.511 15.6925 12.5288 15.6925 12.5467 15.6925H14.9863C15.0042 15.6925 15.022 15.6925 15.0396 15.6925C15.3389 15.6926 15.5811 15.6926 15.7805 15.6775C15.8124 15.6751 15.8423 15.6742 15.8701 15.6735C15.9567 15.671 16.0239 15.6692 16.0715 15.6215C16.1192 15.5738 16.1211 15.5067 16.1235 15.4201C16.1243 15.3922 16.1251 15.3623 16.1275 15.3304C16.1426 15.1322 16.1426 14.8894 16.1426 14.5903C16.1425 14.5725 16.1425 14.5545 16.1425 14.5363C16.1425 14.5181 16.1425 14.5002 16.1426 14.4824C16.1426 14.1841 16.1426 13.9413 16.1275 13.7431C16.1251 13.7112 16.1243 13.6812 16.1235 13.6532C16.1211 13.5664 16.1192 13.4987 16.0715 13.451C16.0242 13.4037 15.9577 13.4021 15.8721 13.4C15.8437 13.3993 15.8131 13.3985 15.7805 13.396C15.5811 13.3809 15.3389 13.3809 15.0396 13.381C15.022 13.381 15.0043 13.381 14.9863 13.381H12.5467C12.5288 13.381 12.511 13.381 12.4934 13.381C12.1941 13.3809 11.9519 13.3809 11.7526 13.396C11.7199 13.3985 11.6894 13.3993 11.6609 13.4C11.5753 13.4021 11.5088 13.4037 11.4615 13.451V13.452C11.4138 13.4989 11.4119 13.5664 11.4095 13.6533C11.4087 13.6812 11.4079 13.7112 11.4055 13.7431C11.3904 13.9413 11.3904 14.1841 11.3905 14.4824ZM13.2189 14.5363C13.2189 14.2342 13.4639 13.9891 13.767 13.9891C14.0691 13.9891 14.3141 14.2342 14.3141 14.5363C14.3141 14.8393 14.0691 15.0844 13.767 15.0844C13.4639 15.0844 13.2189 14.8393 13.2189 14.5363Z" fill="black"/>
<path fill-rule="evenodd" clip-rule="evenodd" d="M4.7216 16.1295C3.18091 14.5888 2.40966 13.8176 2.12306 12.816C1.83606 11.813 2.08106 10.749 2.57206 8.61899L2.86277 7.36198C3.27229 5.59027 3.47839 4.69867 4.08906 4.08899C4.70306 3.47599 5.59906 3.26899 7.39106 2.85599L8.61906 2.57299C10.7481 2.08099 11.8131 1.83499 12.8161 2.12299C13.817 2.40939 14.5878 3.17976 16.1274 4.7183L17.9671 6.55799C20.6561 9.24699 22.0001 10.592 22.0001 12.262C22.0001 13.933 20.6561 15.277 17.9661 17.967C15.2771 20.656 13.9331 22 12.2621 22C10.5921 22 9.24806 20.657 6.55806 17.966L4.7216 16.1295ZM10.5747 7.92571C10.4688 7.67957 10.3149 7.45699 10.1221 7.27099C9.74157 6.90404 9.23222 6.70114 8.70364 6.70593C8.17505 6.71072 7.66947 6.92283 7.29568 7.29661C6.9219 7.67039 6.70979 8.17597 6.705 8.70456C6.70021 9.23315 6.90312 9.74249 7.27006 10.123C7.45607 10.3159 7.67864 10.4697 7.92478 10.5756C8.17092 10.6815 8.43569 10.7373 8.70364 10.7398C8.97158 10.7422 9.23732 10.6912 9.48534 10.5898C9.73336 10.4884 9.95868 10.3385 10.1482 10.1491C10.3376 9.95961 10.4874 9.73428 10.5889 9.48626C10.6903 9.23824 10.7413 8.9725 10.7388 8.70456C10.7364 8.43662 10.6806 8.17185 10.5747 7.92571ZM11.2584 12.1067L11.2624 12.1057V12.0947C11.2624 10.7214 12.3927 9.59114 13.767 9.59114C14.5532 9.59114 15.2743 9.96123 15.7385 10.5534C15.9685 10.8464 15.9165 11.2705 15.6234 11.4996C15.3314 11.7296 14.9073 11.6776 14.6782 11.3856C14.4632 11.1115 14.1301 10.9394 13.767 10.9394C13.1529 10.9394 12.6448 11.4276 12.6127 12.0327H14.9863C15.5694 12.0327 15.9765 12.0407 16.2756 12.1067C16.5947 12.1767 16.8307 12.3038 17.0247 12.4988C17.2188 12.6929 17.3468 12.9279 17.4168 13.248C17.4819 13.546 17.4899 13.9541 17.4899 14.5363C17.4899 15.1194 17.4819 15.5275 17.4168 15.8256C17.3468 16.1456 17.2188 16.3807 17.0247 16.5747C16.8307 16.7688 16.5947 16.8968 16.2756 16.9668C15.9765 17.0318 15.5694 17.0408 14.9863 17.0408H12.5467C11.9636 17.0408 11.5565 17.0318 11.2584 16.9668C10.9384 16.8968 10.7023 16.7688 10.5083 16.5747C10.3142 16.3807 10.1862 16.1456 10.1162 15.8256C10.0512 15.5275 10.0432 15.1194 10.0432 14.5363C10.0432 13.9541 10.0512 13.546 10.1162 13.248C10.1862 12.9279 10.3142 12.6929 10.5083 12.4988C10.7023 12.3038 10.9384 12.1767 11.2584 12.1067Z" fill="black"/>
</g>
<defs>
<clipPath id="clip0_221_19359">
<rect width="24" height="24" fill="white"/>
</clipPath>
</defs>
</svg>
