<svg width="24" height="24" viewBox="0 0 24 24" fill="none" xmlns="http://www.w3.org/2000/svg">
<g clip-path="url(#clip0_221_19257)">
<path fill-rule="evenodd" clip-rule="evenodd" d="M2.39855 1.51801C2.18607 1.44343 1.95268 1.45631 1.7497 1.55382C1.54673 1.65133 1.3908 1.82548 1.31623 2.03795C1.24165 2.25042 1.25453 2.48382 1.35204 2.68679C1.44955 2.88977 1.6237 3.0457 1.83617 3.12027L2.1315 3.22324C2.88737 3.48915 3.38412 3.66454 3.74961 3.84446C4.09246 4.01306 4.24296 4.14997 4.34253 4.29481C4.44437 4.44418 4.52358 4.65012 4.56884 5.06087C4.61411 5.49085 4.61637 6.05097 4.61637 6.88831V9.83258C4.61637 13.1616 4.68766 14.2592 5.6687 15.2934C6.64862 16.3276 8.22599 16.3276 11.383 16.3276H17.3824C19.1488 16.3276 20.0325 16.3276 20.656 15.8184C21.2806 15.3092 21.4594 14.4447 21.8158 12.7157L22.3816 9.97176C22.7742 8.00287 22.97 7.01957 22.4676 6.36667C21.9652 5.71377 20.2498 5.71377 18.3431 5.71377H6.30463C6.29985 5.43486 6.28362 5.15626 6.25597 4.87869C6.19487 4.31631 6.06361 3.80372 5.74452 3.33753C5.42316 2.86681 4.99543 2.56582 4.49642 2.32027C4.03023 2.0917 3.4373 1.8835 2.74027 1.63795L2.39855 1.51801ZM13.6687 8.25974C13.8938 8.25974 14.1096 8.34915 14.2688 8.5083C14.4279 8.66746 14.5174 8.88331 14.5174 9.10839V10.5228H15.9318C16.1569 10.5228 16.3727 10.6122 16.5319 10.7714C16.691 10.9305 16.7804 11.1464 16.7804 11.3715C16.7804 11.5966 16.691 11.8124 16.5319 11.9716C16.3727 12.1307 16.1569 12.2201 15.9318 12.2201H14.5174V13.6346C14.5174 13.8596 14.4279 14.0755 14.2688 14.2347C14.1096 14.3938 13.8938 14.4832 13.6687 14.4832C13.4436 14.4832 13.2278 14.3938 13.0686 14.2347C12.9095 14.0755 12.82 13.8596 12.82 13.6346V12.2201H11.4056C11.1805 12.2201 10.9647 12.1307 10.8055 11.9716C10.6464 11.8124 10.557 11.5966 10.557 11.3715C10.557 11.1464 10.6464 10.9305 10.8055 10.7714C10.9647 10.6122 11.1805 10.5228 11.4056 10.5228H12.82V9.10839C12.82 8.88331 12.9095 8.66746 13.0686 8.5083C13.2278 8.34915 13.4436 8.25974 13.6687 8.25974Z" fill="black"/>
<path d="M7.44522 19.2923C7.89538 19.2923 8.3271 19.4711 8.6454 19.7894C8.96371 20.1077 9.14254 20.5395 9.14254 20.9896C9.14254 21.4398 8.96371 21.8715 8.6454 22.1898C8.3271 22.5081 7.89538 22.6869 7.44522 22.6869C6.99507 22.6869 6.56335 22.5081 6.24504 22.1898C5.92673 21.8715 5.74791 21.4398 5.74791 20.9896C5.74791 20.5395 5.92673 20.1077 6.24504 19.7894C6.56335 19.4711 6.99507 19.2923 7.44522 19.2923ZM17.6291 19.2923C18.0793 19.2923 18.511 19.4711 18.8293 19.7894C19.1476 20.1077 19.3264 20.5395 19.3264 20.9896C19.3264 21.4398 19.1476 21.8715 18.8293 22.1898C18.511 22.5081 18.0793 22.6869 17.6291 22.6869C17.1789 22.6869 16.7472 22.5081 16.4289 22.1898C16.1106 21.8715 15.9318 21.4398 15.9318 20.9896C15.9318 20.5395 16.1106 20.1077 16.4289 19.7894C16.7472 19.4711 17.1789 19.2923 17.6291 19.2923Z" fill="black"/>
</g>
<defs>
<clipPath id="clip0_221_19257">
<rect width="24" height="24" fill="white"/>
</clipPath>
</defs>
</svg>
