<svg width="24" height="24" viewBox="0 0 24 24" fill="none" xmlns="http://www.w3.org/2000/svg">
<g clip-path="url(#clip0_221_19247)">
<path d="M1.36024 1.97297C1.43486 1.76065 1.59074 1.58666 1.79361 1.48926C1.99649 1.39185 2.22974 1.37901 2.44208 1.45355L2.78384 1.5735C3.48092 1.81907 4.0739 2.02729 4.54013 2.25588C5.03805 2.50144 5.46694 2.80246 5.78832 3.27321C6.10744 3.73945 6.23871 4.25208 6.29982 4.8145C6.32622 5.06572 6.34244 5.3441 6.34848 5.64964H18.3879C20.2947 5.64964 22.0103 5.64964 22.5127 6.30259C23.0152 6.95555 22.8183 7.94006 22.4267 9.90797L21.8609 12.6522C21.5044 14.3813 21.3256 15.247 20.701 15.7551C20.0774 16.2644 19.1936 16.2644 17.4272 16.2644H11.4272C8.27112 16.2644 6.69362 16.2644 5.7125 15.23C4.73137 14.1957 4.66008 13.098 4.66008 9.76878V6.82428C4.66008 5.98687 4.66008 5.42671 4.61369 4.99669C4.56842 4.58591 4.48921 4.37995 4.38736 4.23058C4.28777 4.08459 4.13727 3.94767 3.79325 3.78019C3.42887 3.60139 2.93208 3.42485 2.17615 3.15892L1.88079 3.05594C1.77553 3.019 1.67859 2.96168 1.5955 2.88724C1.51242 2.8128 1.44482 2.72272 1.39658 2.62213C1.34834 2.52155 1.3204 2.41245 1.31436 2.30106C1.30832 2.18967 1.32316 2.07818 1.36024 1.97297ZM7.48916 19.2292C7.93935 19.2292 8.37111 19.4081 8.68944 19.7264C9.00777 20.0447 9.18661 20.4765 9.18661 20.9267C9.18661 21.3769 9.00777 21.8086 8.68944 22.127C8.37111 22.4453 7.93935 22.6241 7.48916 22.6241C7.03897 22.6241 6.60722 22.4453 6.28888 22.127C5.97055 21.8086 5.79171 21.3769 5.79171 20.9267C5.79171 20.4765 5.97055 20.0447 6.28888 19.7264C6.60722 19.4081 7.03897 19.2292 7.48916 19.2292ZM17.6738 19.2292C18.124 19.2292 18.5558 19.4081 18.8741 19.7264C19.1925 20.0447 19.3713 20.4765 19.3713 20.9267C19.3713 21.3769 19.1925 21.8086 18.8741 22.127C18.5558 22.4453 18.124 22.6241 17.6738 22.6241C17.2237 22.6241 16.7919 22.4453 16.4736 22.127C16.1552 21.8086 15.9764 21.3769 15.9764 20.9267C15.9764 20.4765 16.1552 20.0447 16.4736 19.7264C16.7919 19.4081 17.2237 19.2292 17.6738 19.2292Z" fill="black"/>
</g>
<defs>
<clipPath id="clip0_221_19247">
<rect width="24" height="24" fill="white"/>
</clipPath>
</defs>
</svg>
