<svg width="24" height="24" viewBox="0 0 24 24" fill="none" xmlns="http://www.w3.org/2000/svg">
<path fill-rule="evenodd" clip-rule="evenodd" d="M11.25 15C11.25 14.5858 11.5858 14.25 12 14.25L20.856 14.25L18.1363 11.5303C17.8434 11.2374 17.8434 10.7626 18.1363 10.4697C18.4292 10.1768 18.9041 10.1768 19.197 10.4697L23.197 14.4697C23.4899 14.7626 23.4899 15.2374 23.197 15.5303L19.197 19.5303C18.9041 19.8232 18.4292 19.8232 18.1363 19.5303C17.8434 19.2374 17.8434 18.7626 18.1363 18.4697L20.856 15.75L12 15.75C11.5858 15.75 11.25 15.4142 11.25 15Z" fill="black"/>
<path fill-rule="evenodd" clip-rule="evenodd" d="M12.4166 9C12.4166 9.41421 12.0808 9.75 11.6666 9.75L2.81062 9.75L5.53029 12.4697C5.82318 12.7626 5.82318 13.2374 5.53029 13.5303C5.2374 13.8232 4.76252 13.8232 4.46963 13.5303L0.469629 9.53033C0.176736 9.23744 0.176736 8.76256 0.469629 8.46967L4.46963 4.46967C4.76252 4.17678 5.2374 4.17678 5.53029 4.46967C5.82318 4.76256 5.82318 5.23744 5.53029 5.53033L2.81062 8.25L11.6666 8.25C12.0808 8.25 12.4166 8.58579 12.4166 9Z" fill="black"/>
</svg>
