<svg width="24" height="24" viewBox="0 0 24 24" fill="none" xmlns="http://www.w3.org/2000/svg">
<g clip-path="url(#clip0_221_19312)">
<path d="M9.923 9.76302C9.923 9.14658 10.4358 8.49287 11.2868 8.26011V11.265C10.4358 11.0332 9.923 10.3795 9.923 9.76302Z" fill="black"/>
<path d="M12.6506 15.8119V12.8061C13.5016 13.0379 14.0144 13.6926 14.0144 14.309C14.0144 14.9264 13.5016 15.5792 12.6506 15.8119Z" fill="black"/>
<path fill-rule="evenodd" clip-rule="evenodd" d="M9 19C6.19 19 4.787 19 3.778 18.326C3.34106 18.0341 2.96591 17.6589 2.674 17.222C2 16.213 2 14.81 2 12C2 9.19 2 7.787 2.674 6.778C2.96591 6.34106 3.34106 5.96591 3.778 5.674C4.787 5 6.191 5 9 5H15C17.81 5 19.213 5 20.222 5.674C20.6589 5.96591 21.0341 6.34106 21.326 6.778C22 7.787 22 9.19 22 12C22 14.81 22 16.213 21.326 17.222C21.0341 17.6589 20.6589 18.0341 20.222 18.326C19.213 19 17.809 19 15 19H9ZM4.96967 15.5303C5.11032 15.671 5.30109 15.75 5.5 15.75C5.69891 15.75 5.88968 15.671 6.03033 15.5303C6.17098 15.3897 6.25 15.1989 6.25 15V9C6.25 8.80109 6.17098 8.61032 6.03033 8.46967C5.88968 8.32902 5.69891 8.25 5.5 8.25C5.30109 8.25 5.11032 8.32902 4.96967 8.46967C4.82902 8.61032 4.75 8.80109 4.75 9V15C4.75 15.1989 4.82902 15.3897 4.96967 15.5303ZM17.9697 15.5303C17.829 15.3897 17.75 15.1989 17.75 15V9C17.75 8.80109 17.829 8.61032 17.9697 8.46967C18.1103 8.32902 18.3011 8.25 18.5 8.25C18.6989 8.25 18.8897 8.32902 19.0303 8.46967C19.171 8.61032 19.25 8.80109 19.25 9V15C19.25 15.1989 19.171 15.3897 19.0303 15.5303C18.8897 15.671 18.6989 15.75 18.5 15.75C18.3011 15.75 18.1103 15.671 17.9697 15.5303ZM12.4509 6.09865C12.323 5.97077 12.1495 5.89893 11.9687 5.89893C11.7878 5.89893 11.6144 5.97077 11.4865 6.09865C11.3586 6.22653 11.2868 6.39997 11.2868 6.58082V6.86904C9.8048 7.13453 8.5592 8.24829 8.5592 9.76302C8.5592 11.2777 9.8048 12.3915 11.2868 12.657V15.811C10.4358 15.5792 9.923 14.9254 9.923 14.309C9.923 14.1282 9.85116 13.9547 9.72328 13.8268C9.5954 13.6989 9.42195 13.6271 9.2411 13.6271C9.06025 13.6271 8.88681 13.6989 8.75893 13.8268C8.63105 13.9547 8.5592 14.1282 8.5592 14.309C8.5592 15.8237 9.8048 16.9375 11.2868 17.203V17.4912C11.2868 17.672 11.3586 17.8455 11.4865 17.9734C11.6144 18.1013 11.7878 18.1731 11.9687 18.1731C12.1495 18.1731 12.323 18.1013 12.4509 17.9734C12.5788 17.8455 12.6506 17.672 12.6506 17.4912V17.203C14.1326 16.9375 15.3782 15.8237 15.3782 14.309C15.3782 12.7943 14.1326 11.6805 12.6506 11.415V8.26011C13.5016 8.49287 14.0144 9.14658 14.0144 9.76302C14.0144 9.94387 14.0862 10.1173 14.2141 10.2452C14.342 10.3731 14.5154 10.4449 14.6963 10.4449C14.8771 10.4449 15.0506 10.3731 15.1785 10.2452C15.3063 10.1173 15.3782 9.94387 15.3782 9.76302C15.3782 8.24829 14.1326 7.13453 12.6506 6.86904V6.58082C12.6506 6.39997 12.5788 6.22653 12.4509 6.09865Z" fill="black"/>
</g>
<defs>
<clipPath id="clip0_221_19312">
<rect width="24" height="24" fill="white"/>
</clipPath>
</defs>
</svg>
