<svg width="24" height="24" viewBox="0 0 24 24" fill="none" xmlns="http://www.w3.org/2000/svg">
<path d="M12.8242 1.27844V6.40198H21.9039C21.386 5.27196 20.6703 3.71048 20.2125 2.71073C19.8126 1.83827 18.9402 1.27844 17.9794 1.27844H12.8242Z" fill="black"/>
<path d="M11.2242 1.27844V6.40198H2.16845L3.86005 2.71073C4.25993 1.83827 5.13239 1.27844 6.0921 1.27844H11.2242Z" fill="black"/>
<path d="M1.44919 8.00198C1.36489 8.24619 1.32056 8.50531 1.32056 8.76812V20.429C1.32056 21.0522 1.56776 21.6494 2.00918 22.0898C2.44957 22.5312 3.04679 22.7784 3.66998 22.7784H20.4015C21.0247 22.7784 21.623 22.5312 22.0634 22.0898C22.5038 21.6494 22.7509 21.0522 22.7509 20.429V8.76812C22.7509 8.50531 22.7074 8.24619 22.6233 8.00198H1.44919Z" fill="black"/>
</svg>
