<svg width="24" height="24" viewBox="0 0 24 24" fill="none" xmlns="http://www.w3.org/2000/svg">
<g clip-path="url(#clip0_221_19262)">
<path fill-rule="evenodd" clip-rule="evenodd" d="M8.24999 6.015V5C8.24999 4.00544 8.64508 3.05161 9.34834 2.34835C10.0516 1.64509 11.0054 1.25 12 1.25C12.9945 1.25 13.9484 1.64509 14.6516 2.34835C15.3549 3.05161 15.75 4.00544 15.75 5V6.015C17.037 6.054 17.825 6.192 18.426 6.691C19.259 7.383 19.479 8.553 19.918 10.894L20.668 14.894C21.285 18.186 21.593 19.832 20.694 20.916C19.794 22 18.119 22 14.77 22H9.22999C5.87999 22 4.20599 22 3.30599 20.916C2.40599 19.832 2.71599 18.186 3.33199 14.894L4.08199 10.894C4.52199 8.554 4.74099 7.383 5.57399 6.691C6.17499 6.192 6.96299 6.054 8.24999 6.015ZM9.74999 5C9.74999 4.40326 9.98704 3.83097 10.409 3.40901C10.831 2.98705 11.4033 2.75 12 2.75C12.5967 2.75 13.169 2.98705 13.591 3.40901C14.0129 3.83097 14.25 4.40326 14.25 5V6H9.74999V5Z" fill="black"/>
</g>
<defs>
<clipPath id="clip0_221_19262">
<rect width="24" height="24" fill="white"/>
</clipPath>
</defs>
</svg>
