<svg width="24" height="24" viewBox="0 0 24 24" fill="none" xmlns="http://www.w3.org/2000/svg">
<path d="M6.8208 17.4782L9.25175 7.0661C8.62512 6.44344 8.23718 5.58207 8.23718 4.63117C8.23718 2.73634 9.77594 1.19861 11.6698 1.19861C13.5646 1.19861 15.1023 2.73634 15.1023 4.63117C15.1023 5.57212 14.7234 6.42555 14.1087 7.04622L16.3616 17.4384C16.5267 18.2003 16.2929 18.9941 15.7409 19.5451C15.0914 20.1936 14.041 21.242 13.2513 22.0298C12.379 22.9001 10.9735 22.924 10.0723 22.0825C9.72129 21.7551 9.31953 21.3804 8.92127 21.0091C8.39645 20.5197 7.87772 20.0359 7.48921 19.6734C6.88943 19.1135 6.6348 18.2769 6.8208 17.4782Z" fill="black"/>
</svg>
