<svg width="24" height="24" viewBox="0 0 24 24" fill="none" xmlns="http://www.w3.org/2000/svg">
<path fill-rule="evenodd" clip-rule="evenodd" d="M7.08994 1.19788H7.03419C1.71331 1.19788 1.26834 4.00319 1.26834 4.00319C1.25522 4.06195 1.24976 4.12292 1.24976 4.1828V17.5286C1.24976 17.7026 1.30224 17.8712 1.40173 18.0131C3.10174 20.4226 6.74228 20.498 7.03199 20.4969C7.1763 20.498 8.46744 20.4969 9.84604 20.019C10.3435 19.8471 10.8486 19.6131 11.3208 19.3016C11.3236 19.3044 11.3259 19.3076 11.3283 19.311L11.3329 19.3171C13.0318 21.7277 16.6723 21.8019 16.962 21.8019C17.1075 21.8031 18.3975 21.802 19.7761 21.324C20.8048 20.9681 21.8697 20.3483 22.5967 19.3171C22.6962 19.1763 22.7498 19.0066 22.7498 18.8336V12.1729C22.7498 12.112 22.7432 12.0521 22.7301 11.9933C22.7301 11.9933 22.2895 9.20798 17.02 9.18802H16.9642C14.9821 9.18802 13.6768 9.5772 12.8197 10.0651V4.1828C12.8197 4.12292 12.8131 4.06195 12.8 4.00319C12.8 4.00319 12.3594 1.21783 7.08994 1.19788ZM6.99976 5.9342C9.29829 5.9342 11.1616 5.17617 11.1616 4.24109C11.1616 3.30601 9.29829 2.54797 6.99976 2.54797C4.70122 2.54797 2.83789 3.30601 2.83789 4.24109C2.83789 5.17617 4.70122 5.9342 6.99976 5.9342ZM21.1204 12.0837C21.1204 13.0188 19.257 13.7769 16.9585 13.7769C14.66 13.7769 12.7966 13.0188 12.7966 12.0837C12.7966 11.1487 14.66 10.3906 16.9585 10.3906C19.257 10.3906 21.1204 11.1487 21.1204 12.0837Z" fill="black"/>
</svg>
