<svg width="24" height="24" viewBox="0 0 24 24" fill="none" xmlns="http://www.w3.org/2000/svg">
<g clip-path="url(#clip0_221_19334)">
<path fill-rule="evenodd" clip-rule="evenodd" d="M2.123 12.816C2.41 13.819 3.183 14.591 4.728 16.136L6.558 17.966C9.248 20.657 10.592 22 12.262 22C13.933 22 15.277 20.656 17.966 17.967C20.656 15.277 22 13.933 22 12.262C22 10.592 20.656 9.24699 17.967 6.55799L16.137 4.72799C14.591 3.18299 13.819 2.40999 12.816 2.12299C11.813 1.83499 10.748 2.08099 8.619 2.57299L7.391 2.85599C5.599 3.26899 4.703 3.47599 4.089 4.08899C3.475 4.70199 3.27 5.59999 2.856 7.39099L2.572 8.61899C2.081 10.749 1.836 11.813 2.123 12.816ZM10.122 7.27099C10.3149 7.45699 10.4688 7.67957 10.5747 7.92571C10.6806 8.17185 10.7363 8.43662 10.7388 8.70456C10.7412 8.9725 10.6902 9.23824 10.5888 9.48626C10.4874 9.73428 10.3376 9.95961 10.1481 10.1491C9.95862 10.3385 9.7333 10.4884 9.48528 10.5898C9.23726 10.6912 8.97152 10.7422 8.70357 10.7398C8.43563 10.7373 8.17086 10.6815 7.92472 10.5756C7.67858 10.4697 7.45601 10.3159 7.27 10.123C6.90306 9.74249 6.70015 9.23315 6.70494 8.70456C6.70973 8.17597 6.92184 7.67039 7.29562 7.29661C7.66941 6.92283 8.17499 6.71072 8.70357 6.70593C9.23216 6.70114 9.7415 6.90404 10.122 7.27099ZM19.05 12.051L12.071 19.031C11.9295 19.1675 11.74 19.243 11.5434 19.2412C11.3467 19.2394 11.1586 19.1605 11.0196 19.0214C10.8806 18.8822 10.8019 18.6941 10.8002 18.4974C10.7986 18.3008 10.8743 18.1114 11.011 17.97L17.989 10.99C18.1297 10.8493 18.3205 10.7702 18.5195 10.7702C18.7185 10.7702 18.9093 10.8493 19.05 10.99C19.1907 11.1307 19.2697 11.3215 19.2697 11.5205C19.2697 11.7195 19.1907 11.9103 19.05 12.051Z" fill="black"/>
</g>
<defs>
<clipPath id="clip0_221_19334">
<rect width="24" height="24" fill="white"/>
</clipPath>
</defs>
</svg>
