<svg width="24" height="24" viewBox="0 0 24 24" fill="none" xmlns="http://www.w3.org/2000/svg">
<g clip-path="url(#clip0_221_19413)">
<path fill-rule="evenodd" clip-rule="evenodd" d="M22 12C22 17.523 17.523 22 12 22C6.477 22 2 17.523 2 12C2 6.477 6.477 2 12 2C17.523 2 22 6.477 22 12ZM9.42799 9.21899L9.429 9.23398C9.423 8.93098 9.44299 6 12.322 6C14.761 6 15.181 8.65799 15.181 8.65799C15.241 9.06699 14.956 9.44799 14.546 9.50699C14.137 9.56599 13.756 9.28198 13.697 8.87198C13.697 8.87198 13.536 7.5 12.322 7.5C10.802 7.5 10.927 9.17798 10.927 9.17798C10.928 9.19186 10.928 9.20576 10.928 9.21867V11.577H13.023C13.437 11.577 13.773 11.913 13.773 12.327C13.773 12.74 13.437 13.077 13.023 13.077H10.928V15.823H14.439C14.853 15.823 15.189 16.159 15.189 16.573C15.189 16.987 14.853 17.323 14.439 17.323H8.75C8.336 17.323 8 16.987 8 16.573C8 16.159 8.336 15.823 8.75 15.823H9.42799V13.077H8.75C8.336 13.077 8 12.74 8 12.327C8 11.913 8.336 11.577 8.75 11.577H9.42799V9.21899Z" fill="black"/>
</g>
<defs>
<clipPath id="clip0_221_19413">
<rect width="24" height="24" fill="white"/>
</clipPath>
</defs>
</svg>
