<svg width="24" height="24" viewBox="0 0 24 24" fill="none" xmlns="http://www.w3.org/2000/svg">
<g clip-path="url(#clip0_221_19339)">
<path fill-rule="evenodd" clip-rule="evenodd" d="M4.7216 16.1295C3.18091 14.5888 2.40966 13.8176 2.12306 12.816C1.83606 11.813 2.08106 10.749 2.57206 8.61899L2.86277 7.36198C3.27229 5.59027 3.47839 4.69867 4.08906 4.08899C4.70306 3.47599 5.59906 3.26899 7.39106 2.85599L8.61906 2.57299C10.7481 2.08099 11.8131 1.83499 12.8161 2.12299C13.817 2.40939 14.5878 3.17976 16.1274 4.7183L17.9671 6.55799C20.6561 9.24699 22.0001 10.592 22.0001 12.262C22.0001 13.933 20.6561 15.277 17.9661 17.967C15.2771 20.656 13.9331 22 12.2621 22C10.5921 22 9.24806 20.657 6.55806 17.966L4.7216 16.1295ZM10.5747 7.92571C10.4688 7.67957 10.3149 7.45699 10.1221 7.27099C9.74156 6.90404 9.23222 6.70114 8.70364 6.70593C8.17505 6.71072 7.66947 6.92283 7.29568 7.29661C6.9219 7.67039 6.70979 8.17597 6.705 8.70456C6.70021 9.23315 6.90312 9.74249 7.27006 10.123C7.45607 10.3159 7.67864 10.4697 7.92478 10.5756C8.17092 10.6815 8.43569 10.7373 8.70364 10.7398C8.97158 10.7422 9.23732 10.6912 9.48534 10.5898C9.73336 10.4884 9.95868 10.3385 10.1482 10.1491C10.3376 9.95961 10.4874 9.73428 10.5889 9.48626C10.6903 9.23824 10.7413 8.9725 10.7388 8.70456C10.7364 8.43662 10.6806 8.17185 10.5747 7.92571ZM14.5007 11.3596C14.36 11.2189 14.1692 11.1399 13.9703 11.1399C13.7714 11.1399 13.5807 11.2189 13.44 11.3596C13.2994 11.5002 13.2203 11.691 13.2203 11.8899V13.1399H11.9703C11.7714 13.1399 11.5807 13.2189 11.44 13.3596C11.2994 13.5002 11.2203 13.691 11.2203 13.8899C11.2203 14.0888 11.2994 14.2796 11.44 14.4202C11.5807 14.5609 11.7714 14.6399 11.9703 14.6399H13.2203V15.8899C13.2203 16.0888 13.2994 16.2796 13.44 16.4202C13.5807 16.5609 13.7714 16.6399 13.9703 16.6399C14.1692 16.6399 14.36 16.5609 14.5007 16.4202C14.6413 16.2796 14.7203 16.0888 14.7203 15.8899V14.6399H15.9703C16.1692 14.6399 16.36 14.5609 16.5007 14.4202C16.6413 14.2796 16.7203 14.0888 16.7203 13.8899C16.7203 13.691 16.6413 13.5002 16.5007 13.3596C16.36 13.2189 16.1692 13.1399 15.9703 13.1399H14.7203V11.8899C14.7203 11.691 14.6413 11.5002 14.5007 11.3596Z" fill="black"/>
</g>
<defs>
<clipPath id="clip0_221_19339">
<rect width="24" height="24" fill="white"/>
</clipPath>
</defs>
</svg>
