<svg width="24" height="24" viewBox="0 0 24 24" fill="none" xmlns="http://www.w3.org/2000/svg">
<g clip-path="url(#clip0_221_19272)">
<path d="M14 4H10C6.229 4 4.343 4 3.172 5.172C2.328 6.015 2.092 7.229 2.026 9.25H21.974C21.908 7.229 21.672 6.015 20.828 5.172C19.657 4 17.771 4 14 4Z" fill="black"/>
<path fill-rule="evenodd" clip-rule="evenodd" d="M14 20H10C6.229 20 4.343 20 3.172 18.828C2.001 17.656 2 15.771 2 12C2 11.5587 2.00067 11.142 2.002 10.75H21.998C21.9993 11.142 22 11.5587 22 12C22 15.771 22 17.657 20.828 18.828C19.656 19.999 17.771 20 14 20ZM16.045 12.25C16.478 12.25 16.875 12.25 17.197 12.293C17.553 12.341 17.928 12.453 18.237 12.763C18.546 13.073 18.659 13.447 18.707 13.803C18.75 14.126 18.75 14.523 18.75 14.955V15.045C18.75 15.478 18.75 15.875 18.707 16.197C18.659 16.553 18.547 16.928 18.237 17.237C17.927 17.546 17.553 17.659 17.197 17.707C16.874 17.75 16.477 17.75 16.045 17.75H15.955C15.522 17.75 15.125 17.75 14.803 17.707C14.447 17.659 14.072 17.547 13.763 17.237C13.454 16.927 13.341 16.553 13.293 16.197C13.25 15.874 13.25 15.477 13.25 15.045V14.955C13.25 14.522 13.25 14.125 13.293 13.803C13.341 13.447 13.453 13.072 13.763 12.763C14.073 12.454 14.447 12.341 14.803 12.293C15.126 12.25 15.523 12.25 15.955 12.25H16.045ZM5.25 13.5C5.25 13.3011 5.32902 13.1103 5.46967 12.9697C5.61032 12.829 5.80109 12.75 6 12.75H8C8.19891 12.75 8.38968 12.829 8.53033 12.9697C8.67098 13.1103 8.75 13.3011 8.75 13.5C8.75 13.6989 8.67098 13.8897 8.53033 14.0303C8.38968 14.171 8.19891 14.25 8 14.25H6C5.80109 14.25 5.61032 14.171 5.46967 14.0303C5.32902 13.8897 5.25 13.6989 5.25 13.5ZM5.25 16.5C5.25 16.3011 5.32902 16.1103 5.46967 15.9697C5.61032 15.829 5.80109 15.75 6 15.75H10C10.1989 15.75 10.3897 15.829 10.5303 15.9697C10.671 16.1103 10.75 16.3011 10.75 16.5C10.75 16.6989 10.671 16.8897 10.5303 17.0303C10.3897 17.171 10.1989 17.25 10 17.25H6C5.80109 17.25 5.61032 17.171 5.46967 17.0303C5.32902 16.8897 5.25 16.6989 5.25 16.5Z" fill="black"/>
<path d="M14.823 13.823L14.826 13.822L14.836 13.817C14.8899 13.7979 14.946 13.7855 15.003 13.78C15.213 13.752 15.507 13.75 16 13.75C16.493 13.75 16.787 13.752 16.997 13.78C17.0576 13.7862 17.1171 13.8004 17.174 13.822L17.177 13.823L17.178 13.826L17.183 13.836C17.192 13.858 17.207 13.906 17.22 14.003C17.248 14.213 17.25 14.507 17.25 15C17.25 15.493 17.248 15.787 17.22 15.997C17.2138 16.0576 17.1996 16.1171 17.178 16.174L17.177 16.177L17.174 16.178L17.164 16.183C17.1101 16.2021 17.054 16.2145 16.997 16.22C16.787 16.248 16.493 16.25 16 16.25C15.507 16.25 15.213 16.248 15.003 16.22C14.9424 16.2138 14.8829 16.1996 14.826 16.178L14.823 16.177L14.822 16.174L14.817 16.164C14.7979 16.1101 14.7855 16.054 14.78 15.997C14.752 15.787 14.75 15.493 14.75 15C14.75 14.507 14.752 14.213 14.78 14.003C14.7862 13.9424 14.8004 13.8829 14.822 13.826L14.823 13.823Z" fill="black"/>
</g>
<defs>
<clipPath id="clip0_221_19272">
<rect width="24" height="24" fill="white"/>
</clipPath>
</defs>
</svg>
