<svg width="24" height="24" viewBox="0 0 24 24" fill="none" xmlns="http://www.w3.org/2000/svg">
<path fill-rule="evenodd" clip-rule="evenodd" d="M8.17727 2.11548H15.8227C16.3431 2.11548 16.8407 2.32189 17.209 2.68911C17.5763 3.05742 17.7827 3.55503 17.7827 4.07544V10.5638C17.7827 10.6757 17.7729 10.7854 17.7544 10.8941H20.7911C21.3104 10.8941 21.8091 11.1005 22.1763 11.4677C22.5436 11.835 22.75 12.3337 22.75 12.8541V19.3424C22.75 19.8617 22.5436 20.3604 22.1763 20.7276C21.8091 21.0959 21.3104 21.3024 20.7911 21.3024H13.1457C12.7317 21.3024 12.3319 21.1709 12.0005 20.933C11.6692 21.1709 11.2693 21.3024 10.8554 21.3024H3.20998C2.69065 21.3024 2.19196 21.0959 1.82365 20.7276C1.45643 20.3604 1.25 19.8617 1.25 19.3424V12.8541C1.25 12.3337 1.45643 11.835 1.82365 11.4677C2.19196 11.1005 2.69065 10.8941 3.20998 10.8941H6.24554C6.22707 10.7854 6.2173 10.6757 6.2173 10.5638V4.07544C6.2173 3.55503 6.42373 3.05742 6.79204 2.68911C7.15927 2.32189 7.65794 2.11548 8.17727 2.11548ZM7.77094 14.9531V12.5238H6.29443V14.9531C6.29443 15.1356 6.4422 15.2834 6.62364 15.2834H7.44066C7.62318 15.2834 7.77094 15.1356 7.77094 14.9531ZM17.7066 14.9531V12.5238H16.2291V14.9531C16.2291 15.1356 16.3768 15.2834 16.5593 15.2834H17.3764C17.5589 15.2834 17.7066 15.1356 17.7066 14.9531ZM12.7382 6.17449V3.74517H11.2617V6.17449C11.2617 6.35702 11.4095 6.50476 11.592 6.50476H12.409C12.5905 6.50476 12.7382 6.35702 12.7382 6.17449Z" fill="black"/>
</svg>
