<svg width="24" height="24" viewBox="0 0 24 24" fill="none" xmlns="http://www.w3.org/2000/svg">
<g clip-path="url(#clip0_221_19279)">
<path d="M11.25 2C7.031 2.004 4.849 2.08 3.464 3.464C2.08 4.85 2.004 7.031 2 11.25H6.914C6.55477 10.801 6.29657 10.2798 6.157 9.722C5.62 7.57 7.57 5.62 9.722 6.157C10.294 6.3 10.812 6.563 11.25 6.914V2ZM2 12.75C2.004 16.968 2.08 19.15 3.464 20.535C4.85 21.92 7.031 21.995 11.25 22V14.123C10.8556 14.9125 10.249 15.5764 9.49831 16.0404C8.74762 16.5044 7.88251 16.7502 7 16.75C6.80109 16.75 6.61032 16.671 6.46967 16.5303C6.32902 16.3897 6.25 16.1989 6.25 16C6.25 15.8011 6.32902 15.6103 6.46967 15.4697C6.61032 15.329 6.80109 15.25 7 15.25C7.73167 15.2502 8.44199 15.0034 9.016 14.5497C9.59002 14.096 9.99415 13.4619 10.163 12.75H2ZM12.75 22C16.968 21.995 19.15 21.92 20.535 20.535C21.92 19.151 21.995 16.968 22 12.75H13.837C14.0058 13.4619 14.41 14.096 14.984 14.5497C15.558 15.0034 16.2683 15.2502 17 15.25C17.1989 15.25 17.3897 15.329 17.5303 15.4697C17.671 15.6103 17.75 15.8011 17.75 16C17.75 16.1989 17.671 16.3897 17.5303 16.5303C17.3897 16.671 17.1989 16.75 17 16.75C16.1175 16.7502 15.2524 16.5044 14.5017 16.0404C13.751 15.5764 13.1444 14.9125 12.75 14.123V22ZM22 11.25C21.995 7.031 21.92 4.849 20.535 3.464C19.151 2.08 16.968 2.004 12.75 2V6.914C13.1987 6.5549 13.7195 6.29671 14.277 6.157C16.43 5.619 18.381 7.569 17.842 9.722C17.7027 10.2797 17.4449 10.8009 17.086 11.25H22Z" fill="black"/>
<path d="M9.35801 7.61291C9.89804 7.74831 10.3774 8.06009 10.7201 8.49884C11.0629 8.93758 11.2494 9.47817 11.25 10.0349V11.2499H10.035C9.47827 11.2493 8.93768 11.0628 8.49894 10.72C8.0602 10.3773 7.74841 9.89794 7.61301 9.35791C7.55306 9.11688 7.55647 8.86444 7.62292 8.62512C7.68936 8.3858 7.81657 8.16773 7.9922 7.9921C8.16783 7.81647 8.3859 7.68926 8.62522 7.62282C8.86454 7.55637 9.11698 7.55296 9.35801 7.61291ZM12.75 10.0349V11.2499H13.965C15.11 11.2499 16.109 10.4699 16.387 9.35791C16.447 9.11678 16.4436 8.86422 16.3772 8.62479C16.3107 8.38535 16.1834 8.1672 16.0076 7.99154C15.8318 7.81588 15.6136 7.6887 15.3741 7.62235C15.1347 7.556 14.8821 7.55275 14.641 7.61291C14.1012 7.7485 13.622 8.06037 13.2795 8.49909C12.9369 8.93782 12.7506 9.4783 12.75 10.0349Z" fill="black"/>
</g>
<defs>
<clipPath id="clip0_221_19279">
<rect width="24" height="24" fill="white"/>
</clipPath>
</defs>
</svg>
