<svg width="24" height="24" viewBox="0 0 24 24" fill="none" xmlns="http://www.w3.org/2000/svg">
<g clip-path="url(#clip0_221_19379)">
<path d="M16.3641 14.8299V14.8519L16.3631 14.855L16.3641 14.8299Z" fill="black"/>
<path d="M16.3671 14.8369V14.8299L16.3691 14.8289L16.3671 14.8369Z" fill="black"/>
<path fill-rule="evenodd" clip-rule="evenodd" d="M4.7216 16.1295C3.18091 14.5888 2.40966 13.8176 2.12306 12.816C1.83606 11.813 2.08106 10.749 2.57206 8.61899L2.86277 7.36198C3.27229 5.59027 3.47839 4.69867 4.08906 4.08899C4.70306 3.47599 5.59906 3.26899 7.39106 2.85599L8.61906 2.57299C10.7481 2.08099 11.8131 1.83499 12.8161 2.12299C13.817 2.40939 14.5878 3.17976 16.1274 4.7183L17.9671 6.55799C20.6561 9.24699 22.0001 10.592 22.0001 12.262C22.0001 13.933 20.6561 15.277 17.9661 17.967C15.2771 20.656 13.9331 22 12.2621 22C10.5921 22 9.24806 20.657 6.55806 17.966L4.7216 16.1295ZM10.5747 7.92571C10.4688 7.67957 10.3149 7.45699 10.1221 7.27099C9.74157 6.90404 9.23222 6.70114 8.70364 6.70593C8.17505 6.71072 7.66947 6.92283 7.29568 7.29661C6.9219 7.67039 6.70979 8.17597 6.705 8.70456C6.70021 9.23315 6.90312 9.74249 7.27006 10.123C7.45607 10.3159 7.67864 10.4697 7.92478 10.5756C8.17092 10.6815 8.43569 10.7373 8.70364 10.7398C8.97158 10.7422 9.23732 10.6912 9.48534 10.5898C9.73336 10.4884 9.95868 10.3385 10.1482 10.1491C10.3376 9.95961 10.4874 9.73428 10.5889 9.48626C10.6903 9.23824 10.7413 8.9725 10.7388 8.70456C10.7364 8.43662 10.6806 8.17185 10.5747 7.92571ZM13.9241 16.657C15.0311 16.657 15.9631 15.9199 16.2431 14.9179C15.9471 14.8619 15.7201 14.599 15.7201 14.286C15.7201 14.115 15.7881 13.95 15.9111 13.8289L16.5201 13.2269C16.7691 12.9799 17.1761 12.98 17.4251 13.226L18.0311 13.8259C18.1571 13.9469 18.2291 14.1139 18.2291 14.2899C18.2291 14.6419 17.9391 14.9329 17.5861 14.9329C17.5772 14.9329 17.567 14.9329 17.5581 14.9319C17.2501 16.6449 15.7391 17.9429 13.9241 17.9429C12.6421 17.9459 11.4471 17.2809 10.7711 16.1909C10.7091 16.0899 10.6751 15.9729 10.6751 15.8539C10.6751 15.5009 10.9661 15.2099 11.3191 15.2099C11.5411 15.2099 11.7491 15.3259 11.8661 15.5149C12.3061 16.2259 13.0871 16.659 13.9241 16.657ZM10.3501 13.161H10.3701C10.6761 11.448 12.1841 10.1479 13.9941 10.1469C15.2741 10.1459 16.4661 10.8099 17.1371 11.8999C17.1377 11.9008 17.1383 11.9016 17.1389 11.9024C17.1402 11.9042 17.1414 11.9058 17.1421 11.9079C17.1991 12.0059 17.2291 12.1179 17.2291 12.2309C17.2291 12.5839 16.9391 12.8739 16.5861 12.8739C16.3691 12.8739 16.1661 12.7639 16.0471 12.5819C16.0459 12.5807 16.0451 12.5792 16.0441 12.5774C16.0435 12.5763 16.0429 12.5751 16.0421 12.5739C15.6051 11.8649 14.8291 11.4319 13.9951 11.4339C12.8921 11.4339 11.9651 12.1709 11.6861 13.1729C11.9821 13.2299 12.2081 13.4929 12.2081 13.8039C12.2081 13.9759 12.1391 14.1399 12.0181 14.2609L11.4101 14.864C11.1611 15.11 10.7531 15.11 10.5041 14.864L9.89711 14.2609C9.77511 14.1399 9.70612 13.9759 9.70612 13.8039C9.70612 13.4509 9.99711 13.161 10.3501 13.161Z" fill="black"/>
</g>
<defs>
<clipPath id="clip0_221_19379">
<rect width="24" height="24" fill="white"/>
</clipPath>
</defs>
</svg>
