<svg width="24" height="24" viewBox="0 0 24 24" fill="none" xmlns="http://www.w3.org/2000/svg">
<g clip-path="url(#clip0_221_19418)">
<path fill-rule="evenodd" clip-rule="evenodd" d="M12 22C17.523 22 22 17.523 22 12C22 6.477 17.523 2 12 2C6.477 2 2 6.477 2 12C2 17.523 6.477 22 12 22ZM6.75 12C6.75 11.7447 6.76767 11.4947 6.803 11.25H10C10.1989 11.25 10.3897 11.171 10.5303 11.0303C10.671 10.8897 10.75 10.6989 10.75 10.5C10.75 10.3011 10.671 10.1103 10.5303 9.96967C10.3897 9.82902 10.1989 9.75 10 9.75H7.255C7.56561 9.09453 8.00868 8.51054 8.55626 8.03485C9.10383 7.55917 9.74404 7.20211 10.4365 6.9862C11.129 6.77029 11.8586 6.70021 12.5795 6.78038C13.3004 6.86055 13.9969 7.08923 14.625 7.452C14.7103 7.50202 14.8047 7.53467 14.9027 7.54807C15.0007 7.56147 15.1004 7.55536 15.196 7.53007C15.2916 7.50479 15.3813 7.46085 15.4599 7.40076C15.5385 7.34068 15.6044 7.26565 15.6538 7.18C15.7033 7.09434 15.7353 6.99974 15.7481 6.90166C15.7608 6.80357 15.754 6.70394 15.7281 6.60848C15.7022 6.51303 15.6577 6.42364 15.5971 6.34547C15.5364 6.2673 15.461 6.20189 15.375 6.153C14.5166 5.65792 13.5598 5.35783 12.5724 5.274C11.585 5.19018 10.5913 5.32469 9.66169 5.66798C8.73212 6.01127 7.88949 6.55494 7.19359 7.2604C6.49769 7.96586 5.96558 8.81583 5.635 9.75H5C4.80109 9.75 4.61032 9.82902 4.46967 9.96967C4.32902 10.1103 4.25 10.3011 4.25 10.5C4.25 10.6989 4.32902 10.8897 4.46967 11.0303C4.61032 11.171 4.80109 11.25 5 11.25H5.291C5.23568 11.7485 5.23568 12.2515 5.291 12.75H5C4.80109 12.75 4.61032 12.829 4.46967 12.9697C4.32902 13.1103 4.25 13.3011 4.25 13.5C4.25 13.6989 4.32902 13.8897 4.46967 14.0303C4.61032 14.171 4.80109 14.25 5 14.25H5.634C5.96462 15.1844 6.49687 16.0345 7.19296 16.7401C7.88905 17.4456 8.73192 17.9893 9.66173 18.3325C10.5915 18.6757 11.5855 18.8101 12.5731 18.726C13.5606 18.6419 14.5176 18.3415 15.376 17.846C15.4636 17.798 15.5408 17.7329 15.6029 17.6546C15.6651 17.5763 15.7109 17.4864 15.7378 17.3901C15.7647 17.2939 15.7721 17.1932 15.7595 17.094C15.7469 16.9949 15.7147 16.8993 15.6646 16.8127C15.6146 16.7262 15.5477 16.6506 15.468 16.5903C15.3883 16.53 15.2974 16.4862 15.2005 16.4615C15.1037 16.4369 15.0029 16.4318 14.904 16.4467C14.8052 16.4615 14.7103 16.496 14.625 16.548C13.9969 16.9108 13.3004 17.1395 12.5795 17.2196C11.8586 17.2998 11.129 17.2297 10.4365 17.0138C9.74404 16.7979 9.10383 16.4408 8.55626 15.9651C8.00868 15.4895 7.56561 14.9055 7.255 14.25H10C10.1989 14.25 10.3897 14.171 10.5303 14.0303C10.671 13.8897 10.75 13.6989 10.75 13.5C10.75 13.3011 10.671 13.1103 10.5303 12.9697C10.3897 12.829 10.1989 12.75 10 12.75H6.803C6.76653 12.5017 6.74882 12.251 6.75 12Z" fill="black"/>
</g>
<defs>
<clipPath id="clip0_221_19418">
<rect width="24" height="24" fill="white"/>
</clipPath>
</defs>
</svg>
