<svg width="24" height="24" viewBox="0 0 24 24" fill="none" xmlns="http://www.w3.org/2000/svg">
<g clip-path="url(#clip0_221_19242)">
<path fill-rule="evenodd" clip-rule="evenodd" d="M14.665 2.33002C14.8428 2.24111 15.0487 2.22645 15.2373 2.28927C15.426 2.35209 15.582 2.48724 15.671 2.66502L17.872 7.06702C19.225 7.17102 20.074 7.43703 20.622 8.11403C21.522 9.22802 21.163 10.904 20.445 14.257L20.016 16.257C19.529 18.53 19.286 19.666 18.461 20.333C17.636 21 16.474 21 14.15 21H9.84998C7.52598 21 6.36398 21 5.53998 20.333C4.71398 19.666 4.46998 18.53 3.98398 16.257L3.55498 14.257C2.83698 10.904 2.47698 9.22802 3.37798 8.11403C3.92598 7.43603 4.77498 7.17102 6.12798 7.06702L8.32898 2.66502C8.41875 2.48866 8.5746 2.35492 8.76255 2.29295C8.9505 2.23099 9.15532 2.24582 9.33239 2.33422C9.50945 2.42262 9.64439 2.57742 9.70782 2.76488C9.77124 2.95235 9.758 3.15728 9.67098 3.33502L7.83598 7.00502C8.31798 7.00169 8.84665 7.00002 9.42198 7.00002H14.578C15.1533 6.99936 15.682 7.00102 16.164 7.00502L14.329 3.33502C14.2401 3.15706 14.2256 2.9511 14.2886 2.76244C14.3517 2.57378 14.487 2.41888 14.665 2.33002ZM7.24998 12C7.24998 11.8011 7.329 11.6103 7.46965 11.4697C7.6103 11.329 7.80107 11.25 7.99998 11.25H16C16.1989 11.25 16.3897 11.329 16.5303 11.4697C16.671 11.6103 16.75 11.8011 16.75 12C16.75 12.1989 16.671 12.3897 16.5303 12.5304C16.3897 12.671 16.1989 12.75 16 12.75H7.99998C7.80107 12.75 7.6103 12.671 7.46965 12.5304C7.329 12.3897 7.24998 12.1989 7.24998 12ZM9.99998 14.25C9.80107 14.25 9.6103 14.329 9.46965 14.4697C9.329 14.6103 9.24998 14.8011 9.24998 15C9.24998 15.1989 9.329 15.3897 9.46965 15.5304C9.6103 15.671 9.80107 15.75 9.99998 15.75H14C14.1989 15.75 14.3897 15.671 14.5303 15.5304C14.671 15.3897 14.75 15.1989 14.75 15C14.75 14.8011 14.671 14.6103 14.5303 14.4697C14.3897 14.329 14.1989 14.25 14 14.25H9.99998Z" fill="black"/>
</g>
<defs>
<clipPath id="clip0_221_19242">
<rect width="24" height="24" fill="white"/>
</clipPath>
</defs>
</svg>
