<svg width="24" height="24" viewBox="0 0 24 24" fill="none" xmlns="http://www.w3.org/2000/svg">
<g clip-path="url(#clip0_221_19396)">
<path d="M20.941 8.18904C21.521 8.76204 21.771 9.48404 21.888 10.341C22 11.167 22 12.217 22 13.519V13.624C22 14.926 22 15.976 21.888 16.802C21.771 17.659 21.521 18.381 20.941 18.954C20.361 19.527 19.631 19.774 18.763 19.889C17.928 20 16.865 20 15.547 20H10.622C9.30404 20 8.24204 20 7.40604 19.889C6.53804 19.774 5.80804 19.527 5.22804 18.954C4.89083 18.6168 4.63886 18.2041 4.49304 17.75C5.36404 17.857 6.44304 17.857 7.68804 17.857H12.698C13.979 17.857 15.083 17.857 15.968 17.74C16.915 17.614 17.824 17.33 18.561 16.602C19.298 15.874 19.585 14.976 19.712 14.04C19.832 13.166 19.832 12.075 19.831 10.808V10.62C19.831 9.39004 19.831 8.32404 19.721 7.46204C20.181 7.61304 20.589 7.84104 20.941 8.18904ZM10.193 9.04804C9.26104 9.04804 8.50604 9.79404 8.50604 10.714C8.50604 11.634 9.26104 12.381 10.193 12.381C11.124 12.381 11.879 11.635 11.879 10.714C11.879 9.79404 11.124 9.04804 10.193 9.04804Z" fill="black"/>
<path fill-rule="evenodd" clip-rule="evenodd" d="M2.847 5.837C2 6.674 2 8.02 2 10.714C2 13.408 2 14.755 2.847 15.592C3.694 16.429 5.057 16.429 7.783 16.429H12.603C15.328 16.429 16.691 16.429 17.538 15.592C18.385 14.755 18.385 13.408 18.385 10.714C18.385 8.02 18.385 6.674 17.538 5.837C16.691 5 15.328 5 12.602 5H7.783C5.057 5 3.693 5 2.847 5.837ZM7.06 10.714C7.06 9.004 8.463 7.619 10.193 7.619C11.923 7.619 13.325 9.005 13.325 10.714C13.325 12.423 11.923 13.81 10.193 13.81C8.463 13.81 7.06 12.424 7.06 10.714ZM15.494 13.334C15.094 13.334 14.771 13.014 14.771 12.619V8.81C14.771 8.416 15.094 8.096 15.494 8.096C15.894 8.096 16.217 8.416 16.217 8.811V12.621C16.2152 12.8113 16.1381 12.9931 16.0026 13.1267C15.8671 13.2603 15.6843 13.3348 15.494 13.334ZM4.169 12.619C4.169 13.014 4.492 13.333 4.892 13.333C5.292 13.333 5.614 13.013 5.614 12.619V8.81C5.61242 8.61974 5.53559 8.43784 5.4003 8.30405C5.26501 8.17026 5.08227 8.09546 4.892 8.096C4.492 8.096 4.169 8.416 4.169 8.811V12.619Z" fill="black"/>
</g>
<defs>
<clipPath id="clip0_221_19396">
<rect width="24" height="24" fill="white"/>
</clipPath>
</defs>
</svg>
