<svg width="24" height="24" viewBox="0 0 24 24" fill="none" xmlns="http://www.w3.org/2000/svg">
<path fill-rule="evenodd" clip-rule="evenodd" d="M9.93286 7.23716V1.82995C9.93286 1.38608 9.5726 1.026 9.12872 1.026C8.68484 1.026 8.32458 1.38608 8.32458 1.82995V7.23716C8.32458 7.68104 8.68484 8.04215 9.12872 8.04215C9.5726 8.04215 9.93286 7.68104 9.93286 7.23716Z" fill="black"/>
<path fill-rule="evenodd" clip-rule="evenodd" d="M15.4578 7.23716V1.82995C15.4578 1.38608 15.0975 1.026 14.6536 1.026C14.2097 1.026 13.8495 1.38608 13.8495 1.82995V7.23716C13.8495 7.68104 14.2097 8.04215 14.6536 8.04215C15.0975 8.04215 15.4578 7.68104 15.4578 7.23716Z" fill="black"/>
<path fill-rule="evenodd" clip-rule="evenodd" d="M15.6153 6.43286C17.036 6.43286 18.1907 7.58686 18.1907 9.00805V18.7069C18.1907 20.1281 17.036 21.2811 15.6153 21.2811H8.42316C7.00145 21.2811 5.84778 20.1281 5.84778 18.7069V9.00805C5.84778 7.58686 7.00145 6.43286 8.42316 6.43286H15.6153ZM9.77131 12.0665H14.2672C14.7111 12.0665 15.0715 11.7063 15.0715 11.2624C15.0715 10.8185 14.7111 10.4583 14.2672 10.4583H9.77131C9.3274 10.4583 8.96694 10.8185 8.96694 11.2624C8.96694 11.7063 9.3274 12.0665 9.77131 12.0665ZM14.2672 17.5915H9.77131C9.3274 17.5915 8.96694 17.2313 8.96694 16.7874C8.96694 16.3435 9.3274 15.9833 9.77131 15.9833H14.2672C14.7111 15.9833 15.0715 16.3435 15.0715 16.7874C15.0715 17.2313 14.7111 17.5915 14.2672 17.5915Z" fill="black"/>
<path fill-rule="evenodd" clip-rule="evenodd" d="M8.03899 2.63354L15.8884 2.63354C16.333 2.63354 16.6935 2.27329 16.6935 1.8294C16.6935 1.38552 16.333 1.02527 15.8884 1.02527L8.03899 1.02527C7.5944 1.02527 7.23391 1.38552 7.23391 1.8294C7.23391 2.27329 7.5944 2.63354 8.03899 2.63354Z" fill="black"/>
<path fill-rule="evenodd" clip-rule="evenodd" d="M9.93286 21.721V20.4777C9.93286 20.0338 9.5726 19.6736 9.12872 19.6736C8.68484 19.6736 8.32458 20.0338 8.32458 20.4777V21.721C8.32458 22.165 8.68484 22.5252 9.12872 22.5252C9.5726 22.5252 9.93286 22.165 9.93286 21.721Z" fill="black"/>
<path fill-rule="evenodd" clip-rule="evenodd" d="M15.4578 21.721V20.4777C15.4578 20.0338 15.0975 19.6736 14.6536 19.6736C14.2097 19.6736 13.8495 20.0338 13.8495 20.4777V21.721C13.8495 22.165 14.2097 22.5252 14.6536 22.5252C15.0975 22.5252 15.4578 22.165 15.4578 21.721Z" fill="black"/>
</svg>
