<svg width="24" height="24" viewBox="0 0 24 24" fill="none" xmlns="http://www.w3.org/2000/svg">
<path d="M11.2242 1.27844V6.40198H2.16845L3.86005 2.71073C4.25993 1.83827 5.13239 1.27844 6.0921 1.27844H11.2242Z" fill="black"/>
<path d="M12.8242 1.27844V6.40198H21.9039C21.386 5.27196 20.6703 3.71048 20.2125 2.71073C19.8126 1.83827 18.9402 1.27844 17.9794 1.27844H12.8242Z" fill="black"/>
<path fill-rule="evenodd" clip-rule="evenodd" d="M1.32056 8.76812C1.32056 8.50531 1.36489 8.24619 1.44919 8.00198H22.6233C22.7074 8.24619 22.7509 8.50531 22.7509 8.76812V20.429C22.7509 21.0522 22.5038 21.6494 22.0634 22.0898C21.623 22.5312 21.0247 22.7784 20.4015 22.7784H3.66998C3.04679 22.7784 2.44957 22.5312 2.00918 22.0898C1.56776 21.6494 1.32056 21.0522 1.32056 20.429V8.76812ZM15.0545 15.0352C15.0545 15.4423 14.7845 15.7768 14.4559 15.7768H9.66697C9.33833 15.7768 9.06836 15.4423 9.06836 15.0352C9.06836 14.6281 9.33833 14.2937 9.66697 14.2937H14.4559C14.7845 14.2937 15.0545 14.6281 15.0545 15.0352Z" fill="black"/>
</svg>
