<svg width="24" height="24" viewBox="0 0 24 24" fill="none" xmlns="http://www.w3.org/2000/svg">
<path d="M11.2242 1.27844V6.40198H2.16845L3.86005 2.71073C4.25993 1.83827 5.13239 1.27844 6.0921 1.27844H11.2242Z" fill="black"/>
<path d="M12.8242 1.27844V6.40198H21.9039C21.386 5.27196 20.6703 3.71048 20.2125 2.71073C19.8126 1.83827 18.9402 1.27844 17.9794 1.27844H12.8242Z" fill="black"/>
<path fill-rule="evenodd" clip-rule="evenodd" d="M1.32056 8.76812C1.32056 8.50531 1.36489 8.24619 1.44919 8.00198H22.6233C22.7074 8.24619 22.7509 8.50531 22.7509 8.76812V20.429C22.7509 21.0522 22.5038 21.6494 22.0634 22.0898C21.623 22.5312 21.0247 22.7784 20.4015 22.7784H3.66998C3.04679 22.7784 2.44957 22.5312 2.00918 22.0898C1.56776 21.6494 1.32056 21.0522 1.32056 20.429V8.76812ZM9.87516 14.4586C9.46414 14.4591 9.12579 14.7975 9.12526 15.2085C9.12579 15.6195 9.46415 15.9579 9.87516 15.9584L11.2471 15.9579L11.2466 17.3298C11.2392 17.5377 11.3193 17.7398 11.4662 17.8867C11.7573 18.1779 12.2357 18.1779 12.5269 17.8867C12.6738 17.7398 12.7538 17.5377 12.7464 17.3299L12.7459 15.9579L14.1179 15.9584C14.3072 15.9515 14.4875 15.873 14.6217 15.7388C14.9128 15.4477 14.9128 14.9693 14.6217 14.6782C14.4875 14.544 14.3072 14.4655 14.1179 14.4586L12.7459 14.4591L12.7464 13.0871C12.7538 12.8792 12.6738 12.6772 12.5269 12.5303C12.2357 12.2391 11.7573 12.2391 11.4662 12.5303C11.3193 12.6772 11.2392 12.8792 11.2466 13.0871L11.2471 14.4591L9.87516 14.4586Z" fill="black"/>
</svg>
