<svg width="24" height="24" viewBox="0 0 24 24" fill="none" xmlns="http://www.w3.org/2000/svg">
<g clip-path="url(#clip0_221_19474)">
<path fill-rule="evenodd" clip-rule="evenodd" d="M22 16V12C22 9.172 22 7.757 21.121 6.879C20.296 6.053 18.998 6.003 16.5 6V22C18.998 21.997 20.296 21.947 21.121 21.121C22 20.243 22 18.827 22 16ZM19 11.001C19.2652 11.001 19.5196 11.1064 19.7071 11.2939C19.8946 11.4814 20 11.7358 20 12.001C20 12.2662 19.8946 12.5206 19.7071 12.7081C19.5196 12.8956 19.2652 13.001 19 13.001C18.7348 13.001 18.4804 12.8956 18.2929 12.7081C18.1054 12.5206 18 12.2662 18 12.001C18 11.7358 18.1054 11.4814 18.2929 11.2939C18.4804 11.1064 18.7348 11.001 19 11.001ZM19 15.001C19.2652 15.001 19.5196 15.1064 19.7071 15.2939C19.8946 15.4814 20 15.7358 20 16.001C20 16.2662 19.8946 16.5206 19.7071 16.7081C19.5196 16.8956 19.2652 17.001 19 17.001C18.7348 17.001 18.4804 16.8956 18.2929 16.7081C18.1054 16.5206 18 16.2662 18 16.001C18 15.7358 18.1054 15.4814 18.2929 15.2939C18.4804 15.1064 18.7348 15.001 19 15.001Z" fill="black"/>
<path d="M15.57 3.488L13.415 6H15V22H8C5.172 22 3.757 22 2.879 21.121C2 20.243 2 18.828 2 16.001V12.001C2 9.171 2 7.757 2.879 6.879C3.757 6 5.172 6 8 6H10.584L8.43 3.488C8.30813 3.33617 8.25007 3.1429 8.2681 2.94905C8.28614 2.7552 8.37884 2.57596 8.52662 2.44921C8.6744 2.32247 8.86568 2.25816 9.06002 2.26987C9.25435 2.28159 9.43652 2.36842 9.568 2.512L12 5.348L14.43 2.512C14.5594 2.36082 14.7436 2.26726 14.942 2.25188C15.1404 2.2365 15.3368 2.30057 15.488 2.43C15.6392 2.55942 15.7327 2.7436 15.7481 2.94202C15.7635 3.14043 15.6994 3.33682 15.57 3.488Z" fill="black"/>
</g>
<defs>
<clipPath id="clip0_221_19474">
<rect width="24" height="24" fill="white"/>
</clipPath>
</defs>
</svg>
