<svg width="24" height="24" viewBox="0 0 24 24" fill="none" xmlns="http://www.w3.org/2000/svg">
<g clip-path="url(#clip0_221_19535)">
<path d="M2.346 11.25C2.12439 10.6096 2.00755 9.9376 2 9.25997C2 3.34998 7.5 0.662975 12 5.49997C16.5 0.662975 22 3.34898 22 9.25997C21.9924 9.9376 21.8756 10.6096 21.654 11.25H18.524C17.978 11.25 17.494 11.248 17.053 11.445C16.612 11.641 16.288 12.002 15.923 12.408L15.848 12.492L14.819 13.635C14.7437 13.7196 14.679 13.791 14.625 13.849L14.44 13.628L10.889 9.32297C10.749 9.15297 10.6 8.97298 10.454 8.83798C10.246 8.63293 9.9722 8.50792 9.681 8.48497C9.38903 8.47285 9.10217 8.56422 8.871 8.74297C8.711 8.85897 8.541 9.02098 8.381 9.17298L6.851 10.629C6.38 11.079 6.281 11.155 6.179 11.196C6.076 11.238 5.951 11.25 5.3 11.25H2.346Z" fill="black"/>
<path d="M3.00403 12.7501C4.38503 15.3121 6.93003 17.7141 8.96203 19.3701C10.294 20.4581 10.96 21.0001 12 21.0001C13.04 21.0001 13.706 20.4571 15.038 19.3701C17.07 17.7141 19.615 15.3121 20.996 12.7501H18.636C17.912 12.7501 17.775 12.7651 17.663 12.8151C17.551 12.8651 17.448 12.9571 16.963 13.4951L15.909 14.6671C15.7587 14.8435 15.5963 15.0092 15.423 15.1631C15.238 15.3181 14.963 15.4931 14.59 15.4841C14.217 15.4761 13.949 15.2901 13.77 15.1271C13.604 14.9663 13.4493 14.7942 13.307 14.6121L9.75503 10.3061L9.58403 10.1011C9.53003 10.1504 9.46536 10.2114 9.39003 10.2841L7.81303 11.7851C7.45703 12.1251 7.14203 12.4271 6.73603 12.5891C6.33003 12.7511 5.89303 12.7511 5.40103 12.7501H3.00403Z" fill="black"/>
</g>
<defs>
<clipPath id="clip0_221_19535">
<rect width="24" height="24" fill="white"/>
</clipPath>
</defs>
</svg>
