<svg width="24" height="24" viewBox="0 0 24 24" fill="none" xmlns="http://www.w3.org/2000/svg">
<g clip-path="url(#clip0_221_19541)">
<path fill-rule="evenodd" clip-rule="evenodd" d="M12 11.75C12.1989 11.75 12.3897 11.829 12.5303 11.9697C12.671 12.1103 12.75 12.3011 12.75 12.5V13.25H13.5C13.6989 13.25 13.8897 13.329 14.0303 13.4697C14.171 13.6103 14.25 13.8011 14.25 14C14.25 14.1989 14.171 14.3897 14.0303 14.5303C13.8897 14.671 13.6989 14.75 13.5 14.75H12.75V15.5C12.75 15.6989 12.671 15.8897 12.5303 16.0303C12.3897 16.171 12.1989 16.25 12 16.25C11.8011 16.25 11.6103 16.171 11.4697 16.0303C11.329 15.8897 11.25 15.6989 11.25 15.5V14.75H10.5C10.3011 14.75 10.1103 14.671 9.96967 14.5303C9.82902 14.3897 9.75 14.1989 9.75 14C9.75 13.8011 9.82902 13.6103 9.96967 13.4697C10.1103 13.329 10.3011 13.25 10.5 13.25H11.25V12.5C11.25 12.3011 11.329 12.1103 11.4697 11.9697C11.6103 11.829 11.8011 11.75 12 11.75Z" fill="black"/>
<path fill-rule="evenodd" clip-rule="evenodd" d="M11.948 1.25C11.049 1.25 10.3 1.25 9.706 1.33C9.078 1.414 8.511 1.6 8.056 2.055C7.6 2.511 7.414 3.078 7.33 3.705C7.25 4.3 7.25 5.05 7.25 5.948V6.026C5.229 6.092 4.015 6.328 3.172 7.172C2 8.343 2 10.229 2 14C2 17.771 2 19.657 3.172 20.828C4.344 21.999 6.229 22 10 22H14C17.771 22 19.657 22 20.828 20.828C21.999 19.656 22 17.771 22 14C22 10.229 22 8.343 20.828 7.172C19.985 6.328 18.771 6.092 16.75 6.026V5.948C16.75 5.05 16.75 4.3 16.67 3.706C16.586 3.078 16.4 2.511 15.944 2.056C15.489 1.6 14.922 1.414 14.294 1.33C13.7 1.25 12.95 1.25 12.052 1.25H11.948ZM15.25 6.002V6C15.25 5.036 15.248 4.388 15.184 3.905C15.121 3.444 15.014 3.246 14.884 3.116C14.754 2.986 14.556 2.879 14.094 2.816C13.612 2.752 12.964 2.75 12 2.75C11.036 2.75 10.388 2.752 9.905 2.817C9.444 2.879 9.246 2.986 9.116 3.117C8.986 3.248 8.879 3.444 8.816 3.905C8.753 4.388 8.75 5.036 8.75 6V6.002C9.14133 6.00067 9.558 6 10 6H14C14.4413 6 14.858 6.00067 15.25 6.002ZM16 14C16 15.0609 15.5786 16.0783 14.8284 16.8284C14.0783 17.5786 13.0609 18 12 18C10.9391 18 9.92172 17.5786 9.17157 16.8284C8.42143 16.0783 8 15.0609 8 14C8 12.9391 8.42143 11.9217 9.17157 11.1716C9.92172 10.4214 10.9391 10 12 10C13.0609 10 14.0783 10.4214 14.8284 11.1716C15.5786 11.9217 16 12.9391 16 14Z" fill="black"/>
</g>
<defs>
<clipPath id="clip0_221_19541">
<rect width="24" height="24" fill="white"/>
</clipPath>
</defs>
</svg>
