<svg width="24" height="24" viewBox="0 0 24 24" fill="none" xmlns="http://www.w3.org/2000/svg">
<g clip-path="url(#clip0_221_19525)">
<path d="M2 12C1.99989 11.5565 2.14718 11.1256 2.41871 10.7749C2.69024 10.4243 3.0706 10.1739 3.5 10.063V13.937C3.0706 13.8261 2.69024 13.5757 2.41871 13.2251C2.14718 12.8744 1.99989 12.4435 2 12ZM22 12C22.0001 12.4435 21.8528 12.8744 21.5813 13.2251C21.3098 13.5757 20.9294 13.8261 20.5 13.937V10.063C20.9294 10.1739 21.3098 10.4243 21.5813 10.7749C21.8528 11.1256 22.0001 11.5565 22 12ZM19 9V15C19 15.465 19 15.697 18.949 15.888C18.8808 16.1421 18.747 16.3739 18.5609 16.5599C18.3749 16.746 18.1431 16.8798 17.889 16.948C17.697 17 17.464 17 17 17C16.536 17 16.302 17 16.112 16.949C15.8579 16.8808 15.6261 16.747 15.4401 16.5609C15.254 16.3749 15.1202 16.1431 15.052 15.889C15 15.697 15 15.464 15 15V12.75H9V15C9 15.465 9 15.697 8.949 15.888C8.88081 16.1421 8.74697 16.3739 8.56091 16.5599C8.37486 16.746 8.14313 16.8798 7.889 16.948C7.696 17 7.464 17 7 17C6.536 17 6.303 17 6.112 16.949C5.85787 16.8808 5.62614 16.747 5.44009 16.5609C5.25403 16.3749 5.12019 16.1431 5.052 15.889C5 15.697 5 15.464 5 15V9C5 8.535 5 8.303 5.051 8.112C5.11919 7.85787 5.25303 7.62614 5.43909 7.44009C5.62514 7.25403 5.85687 7.12019 6.111 7.052C6.304 7 6.536 7 7 7C7.464 7 7.697 7 7.888 7.051C8.14213 7.11919 8.37386 7.25303 8.55991 7.43909C8.74597 7.62514 8.87981 7.85687 8.948 8.111C9 8.304 9 8.536 9 9V11.25H15V9C15 8.535 15 8.303 15.051 8.112C15.1192 7.85787 15.253 7.62614 15.4391 7.44009C15.6251 7.25403 15.8569 7.12019 16.111 7.052C16.303 7 16.536 7 17 7C17.464 7 17.698 7 17.888 7.051C18.1421 7.11919 18.3739 7.25303 18.5599 7.43909C18.746 7.62514 18.8798 7.85687 18.948 8.111C19 8.304 19 8.536 19 9Z" fill="black"/>
</g>
<defs>
<clipPath id="clip0_221_19525">
<rect width="24" height="24" fill="white"/>
</clipPath>
</defs>
</svg>
