<svg width="24" height="24" viewBox="0 0 24 24" fill="none" xmlns="http://www.w3.org/2000/svg">
<g clip-path="url(#clip0_221_19530)">
<path d="M8.26697 1.618C8.36818 1.44684 8.53322 1.32288 8.72581 1.27337C8.91839 1.22387 9.12276 1.25287 9.29396 1.354L10.126 1.846L19.373 7.153C19.5455 7.25205 19.6716 7.41559 19.7235 7.60763C19.7755 7.79966 19.749 8.00447 19.65 8.177C19.5509 8.34952 19.3874 8.47563 19.1953 8.52757C19.0033 8.57952 18.7985 8.55305 18.626 8.454L17.783 7.97L16.278 10.568L16.276 10.566L13.718 9.095C13.6325 9.04413 13.5378 9.01077 13.4394 8.99684C13.3409 8.98291 13.2407 8.98869 13.1445 9.01386C13.0483 9.03902 12.9581 9.08306 12.8791 9.14341C12.8001 9.20376 12.7338 9.27922 12.6842 9.3654C12.6347 9.45158 12.6027 9.54676 12.5902 9.64541C12.5778 9.74405 12.585 9.84419 12.6116 9.94C12.6382 10.0358 12.6836 10.1254 12.7451 10.2035C12.8066 10.2816 12.8831 10.3467 12.97 10.395L15.526 11.865L14.565 13.525L14.563 13.524L10.36 11.106C10.2745 11.0551 10.1798 11.0218 10.0814 11.0078C9.98294 10.9939 9.8827 10.9997 9.78651 11.0249C9.69032 11.05 9.60009 11.0941 9.52107 11.1544C9.44206 11.2148 9.37583 11.2902 9.32624 11.3764C9.27665 11.4626 9.2447 11.5578 9.23223 11.6564C9.21977 11.755 9.22704 11.8552 9.25363 11.951C9.28021 12.0468 9.32559 12.1364 9.3871 12.2145C9.44862 12.2926 9.52506 12.3577 9.61197 12.406L13.812 14.823L12.927 16.352L12.925 16.35L10.312 14.847C10.1398 14.7513 9.93687 14.7272 9.74706 14.7799C9.55725 14.8325 9.39578 14.9578 9.29754 15.1285C9.19931 15.2992 9.17218 15.5018 9.22203 15.6924C9.27188 15.8829 9.3947 16.0462 9.56397 16.147L12.175 17.649L11.055 19.581C10.4091 20.6928 9.34886 21.5033 8.10658 21.8351C6.8643 22.1668 5.54117 21.9928 4.42697 21.351C3.87575 21.0348 3.39239 20.6129 3.00461 20.1095C2.61684 19.606 2.33229 19.031 2.16728 18.4173C2.00227 17.8037 1.96006 17.1635 2.04306 16.5334C2.12607 15.9034 2.33265 15.296 2.65097 14.746L9.37297 3.143L9.36696 3.14L8.53097 2.646C8.44608 2.59588 8.37191 2.52952 8.3127 2.45071C8.25348 2.37191 8.21038 2.2822 8.18586 2.18672C8.16134 2.09125 8.15588 1.99187 8.1698 1.89429C8.18372 1.7967 8.21674 1.70281 8.26697 1.618ZM20 17C21.105 17 22 16.067 22 14.917C22 14.197 21.217 13.236 20.63 12.617C20.5495 12.5304 20.452 12.4613 20.3436 12.414C20.2352 12.3668 20.1182 12.3424 20 12.3424C19.8817 12.3424 19.7647 12.3668 19.6563 12.414C19.5479 12.4613 19.4505 12.5304 19.37 12.617C18.783 13.236 18 14.197 18 14.917C18 16.067 18.895 17 20 17Z" fill="black"/>
</g>
<defs>
<clipPath id="clip0_221_19530">
<rect width="24" height="24" fill="white"/>
</clipPath>
</defs>
</svg>
