<svg width="24" height="24" viewBox="0 0 24 24" fill="none" xmlns="http://www.w3.org/2000/svg">
<g clip-path="url(#clip0_221_19656)">
<path fill-rule="evenodd" clip-rule="evenodd" d="M5.1979 3.3C5.7999 2 7.8669 2 11.9999 2C16.1329 2 18.1999 2 18.8019 3.3C18.8539 3.41067 18.8972 3.526 18.9319 3.646C19.3419 5.033 17.8799 6.641 14.9579 9.856L12.9999 12L14.9579 14.143C17.8799 17.359 19.3409 18.967 18.9319 20.353C18.8973 20.4721 18.8538 20.5884 18.8019 20.701C18.1999 22 16.1329 22 11.9999 22C7.8669 22 5.7999 22 5.1979 20.7C5.14609 20.588 5.10264 20.4724 5.0679 20.354C4.6579 18.967 6.1199 17.359 9.0419 14.144L10.9999 12L9.0419 9.857C6.1199 6.64 4.6599 5.033 5.0679 3.647C5.10257 3.527 5.1459 3.412 5.1979 3.3ZM9.9999 17.75C9.80099 17.75 9.61022 17.829 9.46957 17.9697C9.32892 18.1103 9.2499 18.3011 9.2499 18.5C9.2499 18.6989 9.32892 18.8897 9.46957 19.0303C9.61022 19.171 9.80099 19.25 9.9999 19.25H13.9999C14.1988 19.25 14.3896 19.171 14.5302 19.0303C14.6709 18.8897 14.7499 18.6989 14.7499 18.5C14.7499 18.3011 14.6709 18.1103 14.5302 17.9697C14.3896 17.829 14.1988 17.75 13.9999 17.75H9.9999ZM9.2499 5.5C9.2499 5.30109 9.32892 5.11032 9.46957 4.96967C9.61022 4.82902 9.80099 4.75 9.9999 4.75H13.9999C14.1988 4.75 14.3896 4.82902 14.5302 4.96967C14.6709 5.11032 14.7499 5.30109 14.7499 5.5C14.7499 5.69891 14.6709 5.88968 14.5302 6.03033C14.3896 6.17098 14.1988 6.25 13.9999 6.25H9.9999C9.80099 6.25 9.61022 6.17098 9.46957 6.03033C9.32892 5.88968 9.2499 5.69891 9.2499 5.5Z" fill="black"/>
</g>
<defs>
<clipPath id="clip0_221_19656">
<rect width="24" height="24" fill="white"/>
</clipPath>
</defs>
</svg>
