<svg width="24" height="24" viewBox="0 0 24 24" fill="none" xmlns="http://www.w3.org/2000/svg">
<g clip-path="url(#clip0_221_19626)">
<path fill-rule="evenodd" clip-rule="evenodd" d="M22 12V14C22 17.771 21.999 19.656 20.828 20.828C19.657 22 17.771 22 14 22H10C6.229 22 4.344 21.999 3.172 20.828C2 19.657 2 17.771 2 14V12C2 11.161 2 10.415 2.013 9.75H21.987C22 10.415 22 11.161 22 12ZM12.1335 12L12.1676 12.0009C12.4906 12.0166 12.7554 12.2667 12.7951 12.5823C13.6229 12.8222 14.2679 13.5005 14.2679 14.378C14.2679 14.7444 13.9671 15.0452 13.6016 15.0452C13.2353 15.0452 12.9345 14.7444 12.9345 14.378C12.9345 14.0901 12.605 13.8225 12.1335 13.8225C11.6629 13.8225 11.3334 14.0901 11.3334 14.378C11.3334 14.6669 11.6629 14.9345 12.1335 14.9345C13.2464 14.9345 14.2679 15.7225 14.2679 16.8243C14.2679 17.7019 13.6229 18.3802 12.7951 18.6201C12.7536 18.9467 12.4712 19.2033 12.1335 19.2033C11.7967 19.2033 11.5143 18.9467 11.4728 18.6201C10.645 18.3802 10 17.7019 10 16.8243C10 16.458 10.3008 16.1572 10.6663 16.1572C11.0326 16.1572 11.3334 16.458 11.3334 16.8243C11.3334 17.1132 11.6629 17.3799 12.1335 17.3799C12.605 17.3799 12.9345 17.1132 12.9345 16.8243C12.9345 16.5355 12.605 16.2679 12.1335 16.2679C11.0215 16.2679 10 15.4798 10 14.378C10 13.5005 10.645 12.8222 11.4728 12.5823C11.5143 12.2556 11.7967 12 12.1335 12Z" fill="black"/>
<path d="M7.53033 1.96967C7.67098 2.11032 7.75 2.30109 7.75 2.5V4.013C8.415 4 9.161 4 10 4H14C14.839 4 15.585 4 16.25 4.013V2.5C16.25 2.30109 16.329 2.11032 16.4697 1.96967C16.6103 1.82902 16.8011 1.75 17 1.75C17.1989 1.75 17.3897 1.82902 17.5303 1.96967C17.671 2.11032 17.75 2.30109 17.75 2.5V4.079C19.189 4.195 20.134 4.477 20.828 5.172C21.523 5.866 21.805 6.81 21.921 8.25H2.079C2.195 6.811 2.477 5.866 3.172 5.172C3.866 4.477 4.81 4.195 6.25 4.08V2.5C6.25 2.30109 6.32902 2.11032 6.46967 1.96967C6.61032 1.82902 6.80109 1.75 7 1.75C7.19891 1.75 7.38968 1.82902 7.53033 1.96967Z" fill="black"/>
</g>
<defs>
<clipPath id="clip0_221_19626">
<rect width="24" height="24" fill="white"/>
</clipPath>
</defs>
</svg>
