<svg width="24" height="24" viewBox="0 0 24 24" fill="none" xmlns="http://www.w3.org/2000/svg">
<g clip-path="url(#clip0_221_19676)">
<path fill-rule="evenodd" clip-rule="evenodd" d="M12 18.9771C15.866 18.9771 19 15.8531 19 12.0001C19 8.14707 15.866 5.02307 12 5.02307C8.134 5.02307 5 8.14707 5 12.0001C5 15.8531 8.134 18.9771 12 18.9771ZM12 8.44007C12.387 8.44007 12.7 8.75207 12.7 9.13807V11.7031L14.352 13.2861C14.4184 13.3494 14.4715 13.4253 14.5085 13.5092C14.5454 13.5932 14.5654 13.6837 14.5673 13.7754C14.5691 13.8671 14.5528 13.9583 14.5193 14.0437C14.4858 14.1291 14.4357 14.2071 14.372 14.2731C14.3083 14.3393 14.2321 14.3924 14.1478 14.4292C14.0636 14.4661 13.9729 14.4859 13.8809 14.4877C13.789 14.4894 13.6976 14.4731 13.612 14.4395C13.5264 14.4059 13.4482 14.3558 13.382 14.2921L11.515 12.5021C11.4474 12.4371 11.3935 12.3591 11.3565 12.2729C11.3196 12.1867 11.3004 12.0939 11.3 12.0001V9.13807C11.3 8.75207 11.613 8.44007 12 8.44007Z" fill="black"/>
<path d="M9.85797 2.074C10.414 2 11.113 2 11.951 2H12.049C12.887 2 13.586 2 14.142 2.074C14.727 2.153 15.257 2.326 15.682 2.749C16.107 3.172 16.28 3.7 16.359 4.284C16.3823 4.46533 16.3996 4.662 16.411 4.874C15.0846 4.05778 13.5574 3.62639 12 3.628C10.4429 3.62657 8.91607 4.05796 7.58997 4.874C7.59997 4.662 7.61697 4.46533 7.64097 4.284C7.71997 3.7 7.89297 3.173 8.31797 2.749C8.74297 2.325 9.27297 2.153 9.85797 2.074ZM15.682 21.25C16.107 20.827 16.28 20.3 16.359 19.716C16.3823 19.5347 16.3996 19.338 16.411 19.126C15.0847 19.9426 13.5575 20.3743 12 20.373C10.443 20.3747 8.91617 19.9437 7.58997 19.128C7.59997 19.3393 7.61697 19.5357 7.64097 19.717C7.71997 20.301 7.89297 20.828 8.31797 21.252C8.74297 21.676 9.27297 21.848 9.85797 21.927C10.414 22.001 11.113 22.001 11.951 22.001H12.049C12.887 22.001 13.586 22.001 14.142 21.927C14.727 21.848 15.257 21.675 15.682 21.252" fill="black"/>
</g>
<defs>
<clipPath id="clip0_221_19676">
<rect width="24" height="24" fill="white"/>
</clipPath>
</defs>
</svg>
