<svg width="24" height="24" viewBox="0 0 24 24" fill="none" xmlns="http://www.w3.org/2000/svg">
<g clip-path="url(#clip0_221_19671)">
<path fill-rule="evenodd" clip-rule="evenodd" d="M12 22C13.1819 22 14.3522 21.7672 15.4442 21.3149C16.5361 20.8626 17.5282 20.1997 18.364 19.364C19.1997 18.5282 19.8626 17.5361 20.3149 16.4442C20.7672 15.3522 21 14.1819 21 13C21 11.8181 20.7672 10.6478 20.3149 9.55585C19.8626 8.46392 19.1997 7.47177 18.364 6.63604C17.5282 5.80031 16.5361 5.13738 15.4442 4.68508C14.3522 4.23279 13.1819 4 12 4C9.61305 4 7.32387 4.94821 5.63604 6.63604C3.94821 8.32387 3 10.6131 3 13C3 15.3869 3.94821 17.6761 5.63604 19.364C7.32387 21.0518 9.61305 22 12 22ZM12 8.25C12.1989 8.25 12.3897 8.32902 12.5303 8.46967C12.671 8.61032 12.75 8.80109 12.75 9V13C12.75 13.1989 12.671 13.3897 12.5303 13.5303C12.3897 13.671 12.1989 13.75 12 13.75C11.8011 13.75 11.6103 13.671 11.4697 13.5303C11.329 13.3897 11.25 13.1989 11.25 13V9C11.25 8.80109 11.329 8.61032 11.4697 8.46967C11.6103 8.32902 11.8011 8.25 12 8.25ZM9.25 2C9.25 1.80109 9.32902 1.61032 9.46967 1.46967C9.61032 1.32902 9.80109 1.25 10 1.25H14C14.1989 1.25 14.3897 1.32902 14.5303 1.46967C14.671 1.61032 14.75 1.80109 14.75 2C14.75 2.19891 14.671 2.38968 14.5303 2.53033C14.3897 2.67098 14.1989 2.75 14 2.75H10C9.80109 2.75 9.61032 2.67098 9.46967 2.53033C9.32902 2.38968 9.25 2.19891 9.25 2Z" fill="black"/>
</g>
<defs>
<clipPath id="clip0_221_19671">
<rect width="24" height="24" fill="white"/>
</clipPath>
</defs>
</svg>
