<svg width="24" height="24" viewBox="0 0 24 24" fill="none" xmlns="http://www.w3.org/2000/svg">
<g clip-path="url(#clip0_221_19661)">
<path fill-rule="evenodd" clip-rule="evenodd" d="M11.9999 22C16.8359 22 20.7569 18.116 20.7569 13.325C20.7569 8.53498 16.8369 4.65098 11.9999 4.65098C7.16293 4.65098 3.24293 8.53398 3.24293 13.325C3.24293 18.116 7.16293 22 11.9999 22ZM11.9999 8.74698C12.4029 8.74698 12.7299 9.07098 12.7299 9.46998V13.026L14.9479 15.224C15.0154 15.2909 15.0689 15.3705 15.1054 15.4582C15.1419 15.5459 15.1607 15.64 15.1607 15.735C15.1607 15.83 15.1419 15.924 15.1054 16.0117C15.0689 16.0994 15.0154 16.1791 14.9479 16.246C14.8104 16.3816 14.625 16.4576 14.4319 16.4576C14.2388 16.4576 14.0535 16.3816 13.9159 16.246L11.4839 13.836C11.4164 13.7693 11.3627 13.6899 11.326 13.6023C11.2893 13.5148 11.2702 13.4209 11.2699 13.326V9.46998C11.2699 9.06998 11.5969 8.74698 11.9999 8.74698ZM8.23993 2.33997C8.29051 2.42049 8.32464 2.51022 8.34036 2.60399C8.35607 2.69776 8.35306 2.79372 8.33149 2.88632C8.30992 2.97892 8.27022 3.06633 8.21468 3.14351C8.15915 3.22069 8.08888 3.2861 8.00793 3.33598L4.11693 5.74598C3.95273 5.84774 3.75502 5.88066 3.56669 5.83761C3.37837 5.79455 3.21461 5.67898 3.11093 5.51598C3.06036 5.43546 3.02622 5.34573 3.01051 5.25196C2.9948 5.15819 2.99781 5.06223 3.01938 4.96963C3.04095 4.87703 3.08065 4.78962 3.13618 4.71244C3.19172 4.63526 3.26198 4.56985 3.34293 4.51998L7.23493 2.10997C7.39914 2.00821 7.59685 1.97529 7.78518 2.01834C7.9735 2.0614 8.13726 2.17697 8.24093 2.33997M15.7599 2.33997C15.8636 2.17724 16.0272 2.06187 16.2153 2.01882C16.4033 1.97578 16.6008 2.00852 16.7649 2.10997L20.6569 4.51998C20.7379 4.56985 20.8082 4.63526 20.8637 4.71244C20.9192 4.78962 20.9589 4.87703 20.9805 4.96963C21.0021 5.06223 21.0051 5.15819 20.9894 5.25196C20.9736 5.34573 20.9395 5.43546 20.8889 5.51598C20.7853 5.67898 20.6215 5.79455 20.4332 5.83761C20.2449 5.88066 20.0471 5.84774 19.8829 5.74598L15.9919 3.33598C15.9109 3.28618 15.8405 3.22083 15.7849 3.14369C15.7293 3.06655 15.6895 2.97915 15.6678 2.88654C15.6462 2.79394 15.6431 2.69796 15.6587 2.60414C15.6743 2.51033 15.7084 2.42055 15.7589 2.33997" fill="black"/>
</g>
<defs>
<clipPath id="clip0_221_19661">
<rect width="24" height="24" fill="white"/>
</clipPath>
</defs>
</svg>
