<svg width="24" height="24" viewBox="0 0 24 24" fill="none" xmlns="http://www.w3.org/2000/svg">
<g clip-path="url(#clip0_221_19646)">
<path fill-rule="evenodd" clip-rule="evenodd" d="M9.09992 2.398C9.13542 2.48992 9.15245 2.58794 9.15005 2.68644C9.14764 2.78495 9.12585 2.88202 9.08592 2.9721C9.04599 3.06218 8.98869 3.14351 8.91731 3.21144C8.84594 3.27937 8.76187 3.33257 8.66992 3.368C8.52849 3.42212 8.38845 3.47981 8.24992 3.541C8.15932 3.58553 8.06065 3.6113 7.95984 3.61678C7.85903 3.62226 7.75815 3.60733 7.66325 3.57289C7.56835 3.53844 7.48138 3.48519 7.40755 3.41633C7.33373 3.34746 7.27456 3.2644 7.23361 3.17212C7.19266 3.07984 7.17076 2.98024 7.16922 2.8793C7.16769 2.77835 7.18655 2.67813 7.22467 2.58465C7.2628 2.49117 7.31941 2.40634 7.39111 2.33527C7.46281 2.26419 7.54812 2.20832 7.64192 2.171C7.80192 2.099 7.96459 2.03133 8.12992 1.968C8.22185 1.93251 8.31986 1.91548 8.41837 1.91788C8.51687 1.92028 8.61394 1.94207 8.70402 1.98201C8.79411 2.02194 8.87544 2.07923 8.94337 2.15061C9.0113 2.22199 9.0645 2.30605 9.09992 2.398ZM5.64792 4.24C5.78498 4.38404 5.85923 4.57661 5.85436 4.77538C5.84948 4.97415 5.76588 5.16285 5.62192 5.3C5.51223 5.40461 5.4052 5.51198 5.30092 5.622C5.16367 5.76615 4.97478 5.84986 4.77581 5.85474C4.57683 5.85962 4.38407 5.78525 4.23992 5.648C4.09578 5.51075 4.01206 5.32186 4.00718 5.12288C4.00231 4.92391 4.07667 4.73115 4.21392 4.587C4.33592 4.46033 4.46026 4.336 4.58692 4.214C4.73097 4.07694 4.92354 4.00269 5.12231 4.00757C5.32108 4.01244 5.51077 4.09605 5.64792 4.24ZM3.15992 7.261C3.24995 7.30098 3.33122 7.3583 3.3991 7.42969C3.46697 7.50108 3.52011 7.58515 3.55549 7.67708C3.59087 7.76901 3.6078 7.86701 3.6053 7.96549C3.6028 8.06396 3.58092 8.16098 3.54092 8.251C3.47959 8.389 3.42159 8.52867 3.36692 8.67C3.29218 8.85109 3.14953 8.99575 2.96951 9.07303C2.78948 9.15031 2.58636 9.15408 2.40359 9.08353C2.22082 9.01299 2.0729 8.87372 1.99149 8.69553C1.91007 8.51733 1.90161 8.31435 1.96792 8.13C2.03059 7.96533 2.09792 7.80267 2.16992 7.642C2.2099 7.55197 2.26722 7.4707 2.33862 7.40283C2.41001 7.33495 2.49407 7.28181 2.586 7.24643C2.67794 7.21105 2.77594 7.19413 2.87441 7.19663C2.97289 7.19913 3.0699 7.221 3.15992 7.261ZM2.02092 11.004C2.11942 11.0063 2.2165 11.0281 2.3066 11.0679C2.3967 11.1078 2.47807 11.165 2.54605 11.2363C2.61403 11.3077 2.66728 11.3917 2.70278 11.4836C2.73828 11.5755 2.75532 11.6735 2.75292 11.772C2.74946 11.924 2.74946 12.076 2.75292 12.228C2.7577 12.4269 2.68326 12.6196 2.54598 12.7636C2.40871 12.9076 2.21984 12.9912 2.02092 12.996C1.82201 13.0008 1.62935 12.9263 1.48532 12.7891C1.34129 12.6518 1.2577 12.4629 1.25292 12.264C1.2487 12.088 1.2487 11.912 1.25292 11.736C1.25526 11.6375 1.27698 11.5404 1.31685 11.4503C1.35671 11.3602 1.41394 11.2789 1.48526 11.2109C1.55658 11.1429 1.6406 11.0896 1.73251 11.0541C1.82442 11.0186 1.92243 11.0016 2.02092 11.004ZM21.6029 14.9C21.7884 14.9717 21.9379 15.1142 22.0183 15.2962C22.0988 15.4781 22.1037 15.6845 22.0319 15.87C21.9686 16.0347 21.9013 16.1973 21.8299 16.358C21.7899 16.448 21.7326 16.5293 21.6612 16.5972C21.5898 16.665 21.5058 16.7182 21.4138 16.7535C21.3219 16.7889 21.2239 16.8058 21.1254 16.8033C21.027 16.8009 20.9299 16.779 20.8399 16.739C20.7499 16.699 20.6686 16.6417 20.6008 16.5703C20.5329 16.4989 20.4798 16.4148 20.4444 16.3229C20.409 16.231 20.3921 16.133 20.3946 16.0345C20.3971 15.936 20.4189 15.839 20.4589 15.749C20.5204 15.6108 20.5785 15.4711 20.6329 15.33C20.6684 15.2381 20.7215 15.154 20.7895 15.0826C20.8574 15.0112 20.9387 14.9539 21.0288 14.914C21.1189 14.8741 21.216 14.8523 21.3145 14.8499C21.413 14.8475 21.511 14.8645 21.6029 14.9ZM2.39792 14.9C2.48985 14.8645 2.58786 14.8475 2.68637 14.8499C2.78488 14.8523 2.88194 14.8741 2.97203 14.914C3.06211 14.9539 3.14344 15.0112 3.21137 15.0826C3.2793 15.154 3.3325 15.2381 3.36792 15.33C3.42192 15.4707 3.47959 15.6107 3.54092 15.75C3.58545 15.8406 3.61123 15.9393 3.61671 16.0401C3.62219 16.1409 3.60726 16.2418 3.57281 16.3367C3.53837 16.4316 3.48512 16.5185 3.41625 16.5924C3.34739 16.6662 3.26433 16.7254 3.17205 16.7663C3.07977 16.8073 2.98017 16.8292 2.87922 16.8307C2.77827 16.8322 2.67806 16.8134 2.58457 16.7752C2.49109 16.7371 2.40627 16.6805 2.33519 16.6088C2.26411 16.5371 2.20824 16.4518 2.17092 16.358C2.09892 16.198 2.03126 16.0353 1.96792 15.87C1.93243 15.7781 1.9154 15.6801 1.9178 15.5816C1.92021 15.483 1.942 15.386 1.98193 15.2959C2.02186 15.2058 2.07916 15.1245 2.15053 15.0566C2.22191 14.9886 2.30598 14.9354 2.39792 14.9ZM19.7599 18.352C20.0599 18.638 20.0709 19.112 19.7859 19.412C19.6639 19.54 19.5396 19.6647 19.4129 19.786C19.3416 19.854 19.2575 19.9072 19.1655 19.9427C19.0736 19.9781 18.9756 19.9952 18.877 19.9927C18.6781 19.9879 18.4892 19.9041 18.3519 19.76C18.2147 19.6159 18.1403 19.4231 18.1452 19.2241C18.1501 19.0251 18.2338 18.8362 18.3779 18.699C18.4879 18.595 18.5949 18.4883 18.6989 18.379C18.8359 18.2349 19.0246 18.1511 19.2233 18.1461C19.4221 18.141 19.6158 18.2151 19.7599 18.352ZM4.23892 18.352C4.38297 18.2149 4.57554 18.1407 4.77431 18.1456C4.97308 18.1504 5.16177 18.234 5.29892 18.378C5.40359 18.488 5.51092 18.595 5.62092 18.699C5.76507 18.8362 5.84879 19.0251 5.85366 19.2241C5.85854 19.4231 5.78417 19.6159 5.64692 19.76C5.50967 19.9041 5.32079 19.9879 5.12181 19.9927C4.92283 19.9976 4.73007 19.9232 4.58592 19.786C4.45863 19.6647 4.33426 19.5403 4.21292 19.413C4.07587 19.269 4.00162 19.0764 4.00649 18.8776C4.01137 18.6788 4.09497 18.4902 4.23892 18.353M7.25992 20.841C7.2999 20.751 7.35722 20.6697 7.42862 20.6018C7.50001 20.534 7.58407 20.4808 7.676 20.4454C7.76794 20.4101 7.86594 20.3931 7.96441 20.3956C8.06289 20.3981 8.1599 20.42 8.24992 20.46C8.38792 20.5213 8.52759 20.5793 8.66892 20.634C8.85002 20.7087 8.99468 20.8514 9.07196 21.0314C9.14924 21.2114 9.15301 21.4146 9.08246 21.5973C9.01191 21.7801 8.87265 21.928 8.69445 22.0094C8.51625 22.0909 8.31327 22.0993 8.12892 22.033C7.96466 21.9696 7.80195 21.9022 7.64092 21.831C7.5509 21.791 7.46962 21.7337 7.40175 21.6623C7.33388 21.5909 7.28074 21.5069 7.24535 21.4149C7.20997 21.323 7.19305 21.225 7.19555 21.1265C7.19805 21.028 7.21992 20.931 7.25992 20.841ZM16.7379 20.841C16.7779 20.931 16.7998 21.028 16.8023 21.1265C16.8048 21.225 16.7879 21.323 16.7525 21.4149C16.7171 21.5069 16.664 21.5909 16.5961 21.6623C16.5282 21.7337 16.447 21.791 16.3569 21.831C16.1969 21.9023 16.0343 21.9697 15.8689 22.033C15.777 22.0685 15.679 22.0855 15.5805 22.083C15.482 22.0806 15.3849 22.0588 15.2949 22.0189C15.2048 21.979 15.1235 21.9217 15.0555 21.8503C14.9876 21.779 14.9344 21.6949 14.8989 21.603C14.8635 21.5111 14.8465 21.4131 14.8489 21.3146C14.8513 21.2161 14.8731 21.119 14.913 21.0289C14.953 20.9389 15.0102 20.8575 15.0816 20.7896C15.153 20.7217 15.237 20.6685 15.3289 20.633C15.4704 20.5789 15.6104 20.5212 15.7489 20.46C15.9306 20.3795 16.1368 20.3745 16.3222 20.4459C16.5077 20.5173 16.6572 20.6594 16.7379 20.841ZM11.0029 21.98C11.0053 21.8815 11.027 21.7844 11.0668 21.6943C11.1067 21.6042 11.1639 21.5229 11.2353 21.4549C11.3066 21.3869 11.3906 21.3336 11.4825 21.2981C11.5744 21.2626 11.6724 21.2456 11.7709 21.248C11.9229 21.2519 12.0749 21.2519 12.2269 21.248C12.4258 21.2432 12.6185 21.3177 12.7625 21.4549C12.9066 21.5922 12.9902 21.7811 12.9949 21.98C12.9997 22.1789 12.9253 22.3716 12.788 22.5156C12.6507 22.6596 12.4618 22.7432 12.2629 22.748C12.0869 22.7522 11.9109 22.7522 11.7349 22.748C11.6364 22.7457 11.5393 22.7239 11.4492 22.6841C11.3591 22.6442 11.2778 22.587 11.2098 22.5157C11.1418 22.4443 11.0886 22.3603 11.0531 22.2684C11.0176 22.1765 11.0005 22.0785 11.0029 21.98ZM11.9999 2.75C14.4532 2.75 16.8059 3.72455 18.5407 5.45926C20.2754 7.19397 21.2499 9.54675 21.2499 12C21.2499 12.1989 21.3289 12.3897 21.4696 12.5303C21.6102 12.671 21.801 12.75 21.9999 12.75C22.1988 12.75 22.3896 12.671 22.5303 12.5303C22.6709 12.3897 22.7499 12.1989 22.7499 12C22.7499 6.063 17.9369 1.25 11.9999 1.25C11.801 1.25 11.6102 1.32902 11.4696 1.46967C11.3289 1.61032 11.2499 1.80109 11.2499 2C11.2499 2.19891 11.3289 2.38968 11.4696 2.53033C11.6102 2.67098 11.801 2.75 11.9999 2.75ZM11.9999 8.25C12.1988 8.25 12.3896 8.32902 12.5303 8.46967C12.6709 8.61032 12.7499 8.80109 12.7499 9V12.25H15.9999C16.1988 12.25 16.3896 12.329 16.5303 12.4697C16.6709 12.6103 16.7499 12.8011 16.7499 13C16.7499 13.1989 16.6709 13.3897 16.5303 13.5303C16.3896 13.671 16.1988 13.75 15.9999 13.75H11.9999C11.801 13.75 11.6102 13.671 11.4696 13.5303C11.3289 13.3897 11.2499 13.1989 11.2499 13V9C11.2499 8.80109 11.3289 8.61032 11.4696 8.46967C11.6102 8.32902 11.801 8.25 11.9999 8.25Z" fill="black"/>
</g>
<defs>
<clipPath id="clip0_221_19646">
<rect width="24" height="24" fill="white"/>
</clipPath>
</defs>
</svg>
