<svg width="24" height="24" viewBox="0 0 24 24" fill="none" xmlns="http://www.w3.org/2000/svg">
<g clip-path="url(#clip0_221_19666)">
<path fill-rule="evenodd" clip-rule="evenodd" d="M12.752 3.975C12.752 4.17444 12.6728 4.36572 12.5317 4.50674C12.3907 4.64777 12.1994 4.727 12 4.727C11.8006 4.727 11.6093 4.64777 11.4683 4.50674C11.3272 4.36572 11.248 4.17444 11.248 3.975V2C9.11208 2.1576 7.08319 2.99678 5.46 4.394L7.016 5.947C7.0858 6.0168 7.14116 6.09966 7.17894 6.19085C7.21671 6.28205 7.23615 6.37979 7.23615 6.4785C7.23615 6.57721 7.21671 6.67495 7.17894 6.76615C7.14116 6.85734 7.0858 6.9402 7.016 7.01C6.9462 7.0798 6.86334 7.13516 6.77215 7.17294C6.68095 7.21071 6.58321 7.23015 6.4845 7.23015C6.38579 7.23015 6.28805 7.21071 6.19685 7.17294C6.10566 7.13516 6.0228 7.0798 5.953 7.01L4.397 5.456C2.99782 7.07514 2.15733 9.10186 2 11.236H3.978C4.08055 11.2295 4.18334 11.2441 4.28002 11.2789C4.37671 11.3137 4.46524 11.3679 4.54016 11.4382C4.61508 11.5086 4.67478 11.5935 4.7156 11.6878C4.75642 11.7821 4.77747 11.8837 4.77747 11.9865C4.77747 12.0893 4.75642 12.1909 4.7156 12.2852C4.67478 12.3795 4.61508 12.4644 4.54016 12.5348C4.46524 12.6051 4.37671 12.6593 4.28002 12.6941C4.18334 12.7289 4.08055 12.7435 3.978 12.737H2C2.15733 14.8711 2.99782 16.8979 4.397 18.517L5.953 16.963C6.09418 16.8221 6.28551 16.7429 6.485 16.7429C6.68449 16.7429 6.87582 16.8221 7.017 16.963C7.08684 17.0327 7.14226 17.1154 7.18007 17.2065C7.21788 17.2977 7.23734 17.3953 7.23734 17.494C7.23734 17.5927 7.21788 17.6903 7.18007 17.7815C7.14226 17.8726 7.08684 17.9553 7.017 18.025L5.46 19.578C7.27873 21.144 9.59999 22.0036 12 22C14.4 22.0036 16.7213 21.144 18.54 19.578L16.984 18.025C16.9142 17.9553 16.8587 17.8726 16.8209 17.7815C16.7831 17.6903 16.7637 17.5927 16.7637 17.494C16.7637 17.3953 16.7831 17.2977 16.8209 17.2065C16.8587 17.1154 16.9142 17.0327 16.984 16.963C17.1251 16.8224 17.3163 16.7434 17.5155 16.7434C17.7147 16.7434 17.9059 16.8224 18.047 16.963L19.603 18.516C21.002 16.8971 21.8425 14.8708 22 12.737H20.022C19.9201 12.7423 19.8182 12.7267 19.7225 12.6914C19.6268 12.656 19.5394 12.6015 19.4654 12.5313C19.3914 12.461 19.3325 12.3765 19.2922 12.2827C19.252 12.189 19.2312 12.088 19.2312 11.986C19.2312 11.884 19.252 11.783 19.2922 11.6893C19.3325 11.5955 19.3914 11.511 19.4654 11.4407C19.5394 11.3705 19.6268 11.316 19.7225 11.2806C19.8182 11.2453 19.9201 11.2297 20.022 11.235H22C21.8425 9.10121 21.002 7.07487 19.603 5.456L18.047 7.01C17.9062 7.1511 17.7151 7.23047 17.5157 7.23065C17.3164 7.23084 17.1251 7.15183 16.984 7.011C16.8429 6.87017 16.7635 6.67906 16.7633 6.47971C16.7632 6.28036 16.8422 6.0891 16.983 5.948L18.539 4.394C16.9161 2.99697 14.8876 2.15781 12.752 2V3.975ZM10.115 10.105C9.83562 10.3837 9.61396 10.7147 9.46272 11.0792C9.31149 11.4437 9.23364 11.8344 9.23364 12.229C9.23364 12.6236 9.31149 13.0143 9.46272 13.3788C9.61396 13.7433 9.83562 14.0743 10.115 14.353C10.562 14.799 11.489 15.111 12.467 15.326C13.93 15.646 14.661 15.807 15.244 15.226C15.826 14.644 15.665 13.914 15.344 12.453C15.128 11.477 14.816 10.55 14.369 10.104C13.8046 9.54037 13.0396 9.22378 12.242 9.22378C11.4444 9.22378 10.6794 9.54137 10.115 10.105Z" fill="black"/>
</g>
<defs>
<clipPath id="clip0_221_19666">
<rect width="24" height="24" fill="white"/>
</clipPath>
</defs>
</svg>
