<svg width="24" height="24" viewBox="0 0 24 24" fill="none" xmlns="http://www.w3.org/2000/svg">
<g clip-path="url(#clip0_221_19636)">
<path fill-rule="evenodd" clip-rule="evenodd" d="M22 12V14C22 17.771 21.999 19.656 20.828 20.828C19.657 22 17.771 22 14 22H10C6.229 22 4.344 21.999 3.172 20.828C2 19.657 2 17.771 2 14V12C2 11.161 2 10.415 2.013 9.75H21.987C22 10.415 22 11.161 22 12Z" fill="black"/>
<path d="M7.53033 1.96967C7.67098 2.11032 7.75 2.30109 7.75 2.5V4.013C8.415 4 9.161 4 10 4H14C14.839 4 15.585 4 16.25 4.013V2.5C16.25 2.30109 16.329 2.11032 16.4697 1.96967C16.6103 1.82902 16.8011 1.75 17 1.75C17.1989 1.75 17.3897 1.82902 17.5303 1.96967C17.671 2.11032 17.75 2.30109 17.75 2.5V4.079C19.189 4.195 20.134 4.477 20.828 5.172C21.523 5.866 21.805 6.81 21.921 8.25H2.079C2.195 6.811 2.477 5.866 3.172 5.172C3.866 4.477 4.81 4.195 6.25 4.08V2.5C6.25 2.30109 6.32902 2.11032 6.46967 1.96967C6.61032 1.82902 6.80109 1.75 7 1.75C7.19891 1.75 7.38968 1.82902 7.53033 1.96967Z" fill="black"/>
</g>
<defs>
<clipPath id="clip0_221_19636">
<rect width="24" height="24" fill="white"/>
</clipPath>
</defs>
</svg>
