<svg width="24" height="24" viewBox="0 0 24 24" fill="none" xmlns="http://www.w3.org/2000/svg">
<g clip-path="url(#clip0_221_19641)">
<path fill-rule="evenodd" clip-rule="evenodd" d="M12 22C17.523 22 22 17.523 22 12C22 6.477 17.523 2 12 2C6.477 2 2 6.477 2 12C2 17.523 6.477 22 12 22ZM12.5303 7.46967C12.3897 7.32902 12.1989 7.25 12 7.25C11.8011 7.25 11.6103 7.32902 11.4697 7.46967C11.329 7.61032 11.25 7.80109 11.25 8V12C11.2502 12.1988 11.3293 12.3895 11.47 12.53L13.97 15.03C14.0387 15.1037 14.1215 15.1628 14.2135 15.2038C14.3055 15.2448 14.4048 15.2668 14.5055 15.2686C14.6062 15.2704 14.7062 15.2518 14.7996 15.2141C14.893 15.1764 14.9778 15.1203 15.049 15.049C15.1203 14.9778 15.1764 14.893 15.2141 14.7996C15.2518 14.7062 15.2704 14.6062 15.2686 14.5055C15.2668 14.4048 15.2448 14.3055 15.2038 14.2135C15.1628 14.1215 15.1037 14.0387 15.03 13.97L12.75 11.69V8C12.75 7.80109 12.671 7.61032 12.5303 7.46967Z" fill="black"/>
</g>
<defs>
<clipPath id="clip0_221_19641">
<rect width="24" height="24" fill="white"/>
</clipPath>
</defs>
</svg>
