<svg width="24" height="24" viewBox="0 0 24 24" fill="none" xmlns="http://www.w3.org/2000/svg">
<g clip-path="url(#clip0_221_19621)">
<path d="M13.66 14.5376C13.7069 14.4907 13.7705 14.4644 13.8368 14.4644C13.9031 14.4644 13.9667 14.4907 14.0135 14.5376C14.0604 14.5845 14.0868 14.6481 14.0868 14.7144V16.7144C14.0868 16.7807 14.0604 16.8442 14.0135 16.8911C13.9667 16.938 13.9031 16.9644 13.8368 16.9644C13.7705 16.9644 13.7069 16.938 13.66 16.8911C13.6131 16.8442 13.5868 16.7807 13.5868 16.7144V14.7144C13.5868 14.6481 13.6131 14.5845 13.66 14.5376Z" fill="black"/>
<path fill-rule="evenodd" clip-rule="evenodd" d="M22 12V14C22 17.771 21.999 19.656 20.828 20.828C19.657 22 17.771 22 14 22H10C6.229 22 4.344 21.999 3.172 20.828C2 19.657 2 17.771 2 14V12C2 11.161 2 10.415 2.013 9.75H21.987C22 10.415 22 11.161 22 12ZM10.9604 13.2976C10.878 13.1743 10.7608 13.0781 10.6238 13.0214C10.4867 12.9647 10.336 12.95 10.1905 12.979C10.0451 13.008 9.91158 13.0795 9.80676 13.1844L8.30676 14.6844C8.17428 14.8265 8.10216 15.0146 8.10559 15.2089C8.10901 15.4032 8.18773 15.5886 8.32514 15.726C8.46255 15.8634 8.64794 15.9421 8.84224 15.9455C9.03654 15.949 9.22459 15.8768 9.36676 15.7444L9.58676 15.5244V17.7144C9.58676 17.9133 9.66578 18.104 9.80643 18.2447C9.94708 18.3853 10.1378 18.4644 10.3368 18.4644C10.5357 18.4644 10.7264 18.3853 10.8671 18.2447C11.0077 18.104 11.0868 17.9133 11.0868 17.7144V13.7144C11.0868 13.566 11.0428 13.421 10.9604 13.2976ZM12.5993 13.4769C12.2711 13.8051 12.0868 14.2502 12.0868 14.7144V16.7144C12.0868 17.1785 12.2711 17.6236 12.5993 17.9518C12.9275 18.28 13.3726 18.4644 13.8368 18.4644C14.3009 18.4644 14.746 18.28 15.0742 17.9518C15.4024 17.6236 15.5868 17.1785 15.5868 16.7144V14.7144C15.5868 14.2502 15.4024 13.8051 15.0742 13.4769C14.746 13.1487 14.3009 12.9644 13.8368 12.9644C13.3726 12.9644 12.9275 13.1487 12.5993 13.4769Z" fill="black"/>
<path d="M7.53033 1.96967C7.67098 2.11032 7.75 2.30109 7.75 2.5V4.013C8.415 4 9.161 4 10 4H14C14.839 4 15.585 4 16.25 4.013V2.5C16.25 2.30109 16.329 2.11032 16.4697 1.96967C16.6103 1.82902 16.8011 1.75 17 1.75C17.1989 1.75 17.3897 1.82902 17.5303 1.96967C17.671 2.11032 17.75 2.30109 17.75 2.5V4.079C19.189 4.195 20.134 4.477 20.828 5.172C21.523 5.866 21.805 6.81 21.921 8.25H2.079C2.195 6.811 2.477 5.866 3.172 5.172C3.866 4.477 4.81 4.195 6.25 4.08V2.5C6.25 2.30109 6.32902 2.11032 6.46967 1.96967C6.61032 1.82902 6.80109 1.75 7 1.75C7.19891 1.75 7.38968 1.82902 7.53033 1.96967Z" fill="black"/>
</g>
<defs>
<clipPath id="clip0_221_19621">
<rect width="24" height="24" fill="white"/>
</clipPath>
</defs>
</svg>
