<svg width="24" height="24" viewBox="0 0 24 24" fill="none" xmlns="http://www.w3.org/2000/svg">
<g clip-path="url(#clip0_221_19651)">
<path fill-rule="evenodd" clip-rule="evenodd" d="M22 12C22 17.523 17.523 22 12 22C6.477 22 2 17.523 2 12C2 6.477 6.477 2 12 2C17.523 2 22 6.477 22 12ZM13.358 6.93C12.6305 6.73301 11.869 6.6965 11.126 6.823C10.9329 6.85002 10.7368 6.80073 10.5794 6.6856C10.4219 6.57047 10.3156 6.39854 10.2828 6.20629C10.25 6.01403 10.2934 5.81657 10.4038 5.65578C10.5141 5.49499 10.6828 5.38351 10.874 5.345C12.4029 5.0867 13.9741 5.36274 15.3234 6.12668C16.6727 6.89062 17.7178 8.09587 18.283 9.53976C18.8481 10.9837 18.8989 12.5781 18.4267 14.055C17.9545 15.5319 16.9881 16.8012 15.6901 17.6494C14.3921 18.4976 12.8417 18.873 11.2994 18.7124C9.75721 18.5519 8.3173 17.8652 7.22185 16.7678C6.12639 15.6704 5.4422 14.2293 5.28433 12.6868C5.12647 11.1443 5.50455 9.59452 6.355 8.298C6.808 7.608 7.713 7.565 8.275 8.019L12.472 11.417C12.5486 11.479 12.6122 11.5554 12.6592 11.642C12.7062 11.7286 12.7357 11.8235 12.746 11.9215C12.7563 12.0195 12.7472 12.1185 12.7192 12.213C12.6913 12.3074 12.645 12.3954 12.583 12.472C12.521 12.5486 12.4446 12.6122 12.358 12.6592C12.2714 12.7062 12.1765 12.7357 12.0785 12.746C11.9805 12.7563 11.8815 12.7472 11.787 12.7192C11.6926 12.6913 11.6046 12.645 11.528 12.583L7.49 9.313C6.92732 10.2578 6.67561 11.3556 6.77041 12.4512C6.8652 13.5468 7.3017 14.585 8.0183 15.4191C8.7349 16.2533 9.6954 16.8413 10.7642 17.1002C11.833 17.3591 12.9561 17.2757 13.975 16.8619C14.9939 16.4481 15.857 15.7248 16.4427 14.794C17.0283 13.8632 17.3068 12.772 17.2388 11.6744C17.1709 10.5768 16.7599 9.52822 16.0639 8.67677C15.368 7.82531 14.4221 7.21396 13.36 6.929" fill="black"/>
</g>
<defs>
<clipPath id="clip0_221_19651">
<rect width="24" height="24" fill="white"/>
</clipPath>
</defs>
</svg>
