<svg width="24" height="24" viewBox="0 0 24 24" fill="none" xmlns="http://www.w3.org/2000/svg">
<g clip-path="url(#clip0_221_19745)">
<path fill-rule="evenodd" clip-rule="evenodd" d="M10.667 6.134L10.165 5.779C9.44859 5.27204 8.59257 4.99986 7.71496 5H7.10296C6.69796 5 6.28996 5.025 5.90896 5.16C3.52596 6.006 1.88696 9.095 2.00596 16.103C2.02996 17.515 2.35996 19.075 3.63396 19.684C4.06855 19.8929 4.54475 20.001 5.02696 20C5.56896 20.0089 6.10141 19.8568 6.55696 19.563C6.96696 19.295 7.32696 18.947 7.68696 18.599C8.13096 18.169 8.57496 17.739 9.11096 17.461C9.69485 17.1579 10.3431 16.9998 11.001 17H13C13.658 17 14.306 17.158 14.89 17.46C15.426 17.739 15.87 18.169 16.315 18.599C16.675 18.947 17.035 19.295 17.443 19.563C17.833 19.819 18.338 20 18.974 20C19.4562 20.001 19.9324 19.8929 20.367 19.684C21.641 19.075 21.971 17.514 21.995 16.103C22.114 9.095 20.475 6.006 18.092 5.161C17.71 5.025 17.3 5 16.897 5H16.285C15.4072 5.00015 14.5512 5.27268 13.835 5.78L13.333 6.134C12.9431 6.40949 12.4774 6.55741 12 6.55741C11.5225 6.55741 11.0569 6.40949 10.667 6.134ZM16.75 9C16.9489 9 17.1396 9.07902 17.2803 9.21967C17.4209 9.36032 17.5 9.55109 17.5 9.75C17.5 9.94891 17.4209 10.1397 17.2803 10.2803C17.1396 10.421 16.9489 10.5 16.75 10.5C16.551 10.5 16.3603 10.421 16.2196 10.2803C16.079 10.1397 16 9.94891 16 9.75C16 9.55109 16.079 9.36032 16.2196 9.21967C16.3603 9.07902 16.551 9 16.75 9ZM7.49996 9.25C7.69887 9.25 7.88964 9.32902 8.03029 9.46967C8.17094 9.61032 8.24996 9.80109 8.24996 10V10.75H8.99996C9.19887 10.75 9.38964 10.829 9.53029 10.9697C9.67094 11.1103 9.74996 11.3011 9.74996 11.5C9.74996 11.6989 9.67094 11.8897 9.53029 12.0303C9.38964 12.171 9.19887 12.25 8.99996 12.25H8.24996V13C8.24996 13.1989 8.17094 13.3897 8.03029 13.5303C7.88964 13.671 7.69887 13.75 7.49996 13.75C7.30105 13.75 7.11028 13.671 6.96963 13.5303C6.82898 13.3897 6.74996 13.1989 6.74996 13V12.25H5.99996C5.80105 12.25 5.61028 12.171 5.46963 12.0303C5.32898 11.8897 5.24996 11.6989 5.24996 11.5C5.24996 11.3011 5.32898 11.1103 5.46963 10.9697C5.61028 10.829 5.80105 10.75 5.99996 10.75H6.74996V10C6.74996 9.80109 6.82898 9.61032 6.96963 9.46967C7.11028 9.32902 7.30105 9.25 7.49996 9.25ZM19 11.25C19 11.4489 18.9209 11.6397 18.7803 11.7803C18.6396 11.921 18.4489 12 18.25 12C18.051 12 17.8603 11.921 17.7196 11.7803C17.579 11.6397 17.5 11.4489 17.5 11.25C17.5 11.0511 17.579 10.8603 17.7196 10.7197C17.8603 10.579 18.051 10.5 18.25 10.5C18.4489 10.5 18.6396 10.579 18.7803 10.7197C18.9209 10.8603 19 11.0511 19 11.25ZM15.25 12C15.4489 12 15.6396 11.921 15.7803 11.7803C15.9209 11.6397 16 11.4489 16 11.25C16 11.0511 15.9209 10.8603 15.7803 10.7197C15.6396 10.579 15.4489 10.5 15.25 10.5C15.051 10.5 14.8603 10.579 14.7196 10.7197C14.579 10.8603 14.5 11.0511 14.5 11.25C14.5 11.4489 14.579 11.6397 14.7196 11.7803C14.8603 11.921 15.051 12 15.25 12ZM17.5 12.75C17.5 12.5511 17.4209 12.3603 17.2803 12.2197C17.1396 12.079 16.9489 12 16.75 12C16.551 12 16.3603 12.079 16.2196 12.2197C16.079 12.3603 16 12.5511 16 12.75C16 12.9489 16.079 13.1397 16.2196 13.2803C16.3603 13.421 16.551 13.5 16.75 13.5C16.9489 13.5 17.1396 13.421 17.2803 13.2803C17.4209 13.1397 17.5 12.9489 17.5 12.75Z" fill="black"/>
</g>
<defs>
<clipPath id="clip0_221_19745">
<rect width="24" height="24" fill="white"/>
</clipPath>
</defs>
</svg>
