<svg width="24" height="24" viewBox="0 0 24 24" fill="none" xmlns="http://www.w3.org/2000/svg">
<g clip-path="url(#clip0_221_19718)">
<path d="M2 8.76C2 6.045 2 4.687 2.879 3.844C3.757 3 5.172 3 8 3H16C18.828 3 20.243 3 21.121 3.844C22 4.687 22 6.044 22 8.76V9.72C22 12.435 22 13.793 21.121 14.636C20.243 15.48 18.828 15.48 16 15.48H12.75V17.84L18.237 19.597C18.3288 19.6242 18.4143 19.6695 18.4882 19.7304C18.5622 19.7913 18.6231 19.8664 18.6674 19.9513C18.7118 20.0362 18.7385 20.1291 18.7462 20.2246C18.7539 20.3201 18.7422 20.4161 18.712 20.507C18.6433 20.6911 18.506 20.8414 18.3289 20.9264C18.1517 21.0114 17.9486 21.0245 17.762 20.963L12 19.119L6.237 20.963C6.05057 21.025 5.84733 21.0121 5.67024 20.927C5.49315 20.8419 5.35608 20.6913 5.288 20.507C5.25778 20.4161 5.24614 20.3201 5.2538 20.2246C5.26145 20.1291 5.28824 20.0362 5.33255 19.9513C5.37687 19.8664 5.43782 19.7913 5.51177 19.7304C5.58572 19.6695 5.67116 19.6242 5.763 19.597L11.25 17.841V15.48H8C5.172 15.48 3.757 15.48 2.879 14.636C2 13.793 2 12.436 2 9.72V8.76Z" fill="black"/>
</g>
<defs>
<clipPath id="clip0_221_19718">
<rect width="24" height="24" fill="white"/>
</clipPath>
</defs>
</svg>
