<svg width="24" height="24" viewBox="0 0 24 24" fill="none" xmlns="http://www.w3.org/2000/svg">
<path d="M17.0007 12.6998C18.0124 12.6998 18.8711 13.3616 19.1661 14.2763H17.0007C16.6138 14.2763 16.3008 14.5893 16.3008 14.9761C16.3008 15.362 16.6138 15.676 17.0007 15.676H19.1661C18.8711 16.5897 18.0124 17.2515 17.0007 17.2515C16.0539 17.2515 15.2431 16.6737 14.8992 15.8519C14.7903 15.591 14.5354 15.422 14.2534 15.422H9.74663C9.4647 15.422 9.20978 15.591 9.10081 15.8519C8.75691 16.6737 7.94614 17.2515 6.9994 17.2515C5.98769 17.2515 5.12897 16.5897 4.83405 15.676H6.9994C7.3863 15.676 7.69922 15.362 7.69922 14.9761C7.69922 14.5893 7.3863 14.2763 6.9994 14.2763H4.83405C5.12897 13.3616 5.98769 12.6998 6.9994 12.6998C7.91415 12.6998 8.70297 13.2396 9.06487 14.0184C9.17984 14.2643 9.42672 14.4223 9.69964 14.4223H14.3004C14.5733 14.4223 14.8202 14.2643 14.9352 14.0184C15.2971 13.2396 16.0859 12.6998 17.0007 12.6998Z" fill="black"/>
<path fill-rule="evenodd" clip-rule="evenodd" d="M11.948 1.25H12.052C12.9507 1.25 13.7005 1.25002 14.2943 1.32999C14.9222 1.41397 15.489 1.5999 15.9439 2.05477C16.3998 2.51064 16.5857 3.07749 16.6697 3.70531C16.7297 4.14519 16.7447 4.66905 16.7487 5.27488C17.3975 5.29588 17.9754 5.33486 18.4892 5.40284C19.6609 5.56079 20.6106 5.89271 21.3594 6.64151C22.1072 7.3903 22.4391 8.33903 22.597 9.5107C22.75 10.6514 22.75 12.106 22.75 13.9445V14.0564C22.75 15.8939 22.75 17.3505 22.597 18.4892C22.4391 19.6619 22.1072 20.6106 21.3594 21.3594C20.6106 22.1072 19.6609 22.4391 18.4892 22.597C17.3495 22.75 15.8939 22.75 14.0564 22.75H9.94357C8.10608 22.75 6.64946 22.75 5.51078 22.597C4.3391 22.4391 3.3894 22.1072 2.6406 21.3594C1.89281 20.6106 1.56093 19.6619 1.40297 18.4892C1.25002 17.3495 1.25 15.8939 1.25 14.0564V13.9445C1.25 12.106 1.25002 10.6504 1.40297 9.5107C1.56093 8.33903 1.89281 7.3903 2.6406 6.64151C3.3894 5.89271 4.3391 5.56079 5.51078 5.40284C6.08862 5.33186 6.66948 5.28988 7.25132 5.27488C7.25532 4.66905 7.2713 4.14519 7.33028 3.70531C7.41426 3.07749 7.60024 2.51064 8.05511 2.05477C8.51099 1.5999 9.07779 1.41497 9.70462 1.32999C10.2995 1.25002 11.0503 1.25 11.948 1.25ZM8.75188 5.25188C9.12978 5.24988 9.52768 5.24886 9.94357 5.24986H14.0564C14.4723 5.24986 14.8702 5.25088 15.2481 5.25188C15.2441 4.68204 15.2301 4.25217 15.1841 3.90527C15.1211 3.4444 15.0142 3.24641 14.8842 3.11545C14.7542 2.98548 14.5563 2.87853 14.0944 2.81554C13.6126 2.75156 12.9637 2.74958 12 2.74958C11.0363 2.74958 10.3884 2.7516 9.90457 2.81658C9.4437 2.87856 9.24576 2.98552 9.11579 3.11649C8.98583 3.24845 8.87887 3.4444 8.81589 3.90527C8.7699 4.25117 8.75588 4.68104 8.75188 5.25188ZM6.9994 18.6511C4.97097 18.6511 3.32446 17.0046 3.32446 14.9761C3.32446 12.9477 4.97097 11.3002 6.9994 11.3002C8.31104 11.3002 9.46271 11.989 10.1135 13.0227H13.8865C14.5373 11.988 15.689 11.3002 17.0007 11.3002C19.0291 11.3002 20.6756 12.9477 20.6756 14.9761C20.6756 17.0046 19.0291 18.6511 17.0007 18.6511C15.644 18.6511 14.4584 17.9153 13.8215 16.8216L10.1785 16.8207C9.54169 17.9154 8.35603 18.6511 6.9994 18.6511ZM15.9999 10.0005C16.5487 10.0005 17.0007 9.54869 17.0007 8.99984C17.0007 8.452 16.5487 8.00012 15.9999 8.00012C15.451 8.00012 15.0002 8.452 15.0002 8.99984C15.0002 9.54869 15.451 10.0005 15.9999 10.0005ZM8.00016 10.0005C8.54901 10.0005 8.99989 9.54869 8.99989 8.99984C8.99989 8.452 8.54901 8.00012 8.00016 8.00012C7.45132 8.00012 6.9994 8.452 6.9994 8.99984C6.9994 9.54869 7.45132 10.0005 8.00016 10.0005Z" fill="black"/>
</svg>
