<svg width="24" height="24" viewBox="0 0 24 24" fill="none" xmlns="http://www.w3.org/2000/svg">
<path d="M19.9672 22.749H18.6054C18.2148 22.749 17.9044 22.4356 17.9044 22.048C17.9044 21.6615 18.2148 21.347 18.6054 21.347H19.9672C20.3277 21.347 20.6682 21.2039 20.9286 20.9495C21.179 20.6942 21.3292 20.3477 21.3292 19.9872V18.5782C21.3292 18.1917 21.6396 17.8772 22.0301 17.8772C22.4107 17.8772 22.721 18.1917 22.721 18.5782V19.9872C22.721 20.7202 22.4307 21.4222 21.92 21.9409C21.3993 22.4586 20.6983 22.749 19.9672 22.749Z" fill="black"/>
<path d="M1.2511 19.9621V18.6043C1.2511 18.2167 1.57156 17.9033 1.95209 17.9033C2.34264 17.9033 2.65308 18.2167 2.65308 18.6043V19.9621C2.65308 20.3226 2.80325 20.6691 3.0536 20.9235C3.30395 21.1788 3.65447 21.322 4.01497 21.322H5.42691C5.80745 21.322 6.12791 21.6365 6.12791 22.023C6.12791 22.4096 5.80745 22.724 5.42691 22.724H4.01497C3.28395 22.724 2.58296 22.4326 2.06223 21.9148C1.5415 21.3971 1.2511 20.6941 1.2511 19.9621Z" fill="black"/>
<path d="M7.86031 11.9259C7.86031 9.6177 9.73297 7.74405 12.0362 7.74405C14.3494 7.74405 16.222 9.6177 16.222 11.9259C16.222 14.2341 14.3494 16.1077 12.0362 16.1077C9.73297 16.1077 7.86031 14.2341 7.86031 11.9259Z" fill="black"/>
<path d="M4.03502 1.25098H5.3969C5.78745 1.25098 6.0979 1.56543 6.0979 1.95197C6.0979 2.33851 5.78745 2.65296 5.3969 2.65296H4.03502C3.68453 2.65296 3.33402 2.79617 3.08368 3.05153C2.82331 3.30588 2.68309 3.65233 2.68309 4.01283V5.42184C2.68309 5.80938 2.36263 6.12277 1.9821 6.12277C1.59155 6.12277 1.28117 5.80938 1.28117 5.42184V4.01283C1.28117 3.28081 1.57157 2.57781 2.0923 2.06009C2.60301 1.54237 3.304 1.25098 4.03502 1.25098Z" fill="black"/>
<path d="M22.7511 4.03789V5.39678C22.7511 5.78332 22.4407 6.09777 22.0502 6.09777C21.6596 6.09777 21.3491 5.78332 21.3491 5.39678V4.03789C21.3491 3.67739 21.209 3.33188 20.9486 3.07652C20.6982 2.82117 20.3478 2.67796 19.9873 2.67796H18.5853C18.1948 2.67796 17.8843 2.36457 17.8843 1.97703C17.8843 1.59049 18.1948 1.27604 18.5853 1.27604H19.9873C20.7183 1.27604 21.4193 1.56743 21.94 2.08515C22.4608 2.60287 22.7511 3.30587 22.7511 4.03789Z" fill="black"/>
</svg>
