<svg width="24" height="24" viewBox="0 0 24 24" fill="none" xmlns="http://www.w3.org/2000/svg">
<g clip-path="url(#clip0_221_19682)">
<path d="M3.84499 3.84504C3.30438 4.3857 3.00067 5.11897 3.00067 5.88354C3.00067 6.64812 3.30438 7.38138 3.84499 7.92204L5.43199 9.51004L5.46999 9.47004L9.46999 5.47004L9.50999 5.43204L7.92199 3.84504C7.38133 3.30443 6.64807 3.00072 5.88349 3.00072C5.11892 3.00072 4.38565 3.30443 3.84499 3.84504ZM10.568 6.49004L10.53 6.53004L6.52999 10.53L6.48999 10.568L16.078 20.156C16.6219 20.6817 17.3505 20.9726 18.1068 20.9662C18.8632 20.9598 19.5867 20.6564 20.1215 20.1216C20.6564 19.5868 20.9597 18.8632 20.9661 18.1069C20.9726 17.3505 20.6816 16.6219 20.156 16.078L10.568 6.49004ZM16.1 2.30704C16.1353 2.21644 16.1972 2.13861 16.2775 2.08374C16.3578 2.02887 16.4527 1.99951 16.55 1.99951C16.6472 1.99951 16.7422 2.02887 16.8225 2.08374C16.9028 2.13861 16.9647 2.21644 17 2.30704L17.43 3.40204C17.4539 3.46406 17.4904 3.52043 17.5372 3.5676C17.5841 3.61476 17.6402 3.65169 17.702 3.67604L18.793 4.10804C18.8833 4.14403 18.9608 4.2063 19.0154 4.28679C19.07 4.36728 19.0991 4.46229 19.0991 4.55954C19.0991 4.6568 19.07 4.75181 19.0154 4.8323C18.9608 4.91279 18.8833 4.97506 18.793 5.01104L17.703 5.44304C17.6417 5.46818 17.5859 5.50526 17.5391 5.55213C17.4922 5.599 17.4551 5.65472 17.43 5.71604L17 6.81004C16.9647 6.90065 16.9028 6.97848 16.8225 7.03335C16.7422 7.08822 16.6472 7.11758 16.55 7.11758C16.4527 7.11758 16.3578 7.08822 16.2775 7.03335C16.1972 6.97848 16.1353 6.90065 16.1 6.81004L15.67 5.71504C15.6449 5.65372 15.6078 5.598 15.5609 5.55113C15.514 5.50426 15.4583 5.46718 15.397 5.44204L14.307 5.01004C14.2166 4.97406 14.1392 4.91179 14.0846 4.8313C14.03 4.75081 14.0008 4.65579 14.0008 4.55854C14.0008 4.46129 14.03 4.36628 14.0846 4.28579C14.1392 4.2053 14.2166 4.14303 14.307 4.10704L15.397 3.67504C15.4584 3.64979 15.5142 3.61256 15.5611 3.56551C15.6079 3.51847 15.645 3.46256 15.67 3.40104L16.1 2.30704ZM19.967 9.13004C20.0023 9.03944 20.0642 8.96161 20.1445 8.90674C20.2248 8.85187 20.3197 8.82251 20.417 8.82251C20.5142 8.82251 20.6092 8.85187 20.6895 8.90674C20.7698 8.96161 20.8317 9.03944 20.867 9.13004L21.023 9.52904C21.073 9.65404 21.171 9.75304 21.296 9.80204L21.694 9.96004C21.784 9.9962 21.8612 10.0585 21.9155 10.1388C21.9699 10.2192 21.9989 10.314 21.9989 10.411C21.9989 10.5081 21.9699 10.6029 21.9155 10.6832C21.8612 10.7636 21.784 10.8259 21.694 10.862L21.296 11.02C21.2347 11.0452 21.1789 11.0823 21.1321 11.1291C21.0852 11.176 21.0481 11.2317 21.023 11.293L20.867 11.693C20.8317 11.7836 20.7698 11.8615 20.6895 11.9163C20.6092 11.9712 20.5142 12.0006 20.417 12.0006C20.3197 12.0006 20.2248 11.9712 20.1445 11.9163C20.0642 11.8615 20.0023 11.7836 19.967 11.693L19.81 11.293C19.785 11.2318 19.748 11.1761 19.7014 11.1293C19.6547 11.0824 19.5991 11.0453 19.538 11.02L19.14 10.862C19.05 10.8259 18.9728 10.7636 18.9185 10.6832C18.8641 10.6029 18.8351 10.5081 18.8351 10.411C18.8351 10.314 18.8641 10.2192 18.9185 10.1388C18.9728 10.0585 19.05 9.9962 19.14 9.96004L19.538 9.80204C19.5991 9.77679 19.6547 9.73966 19.7014 9.6928C19.748 9.64594 19.785 9.59028 19.81 9.52904L19.967 9.13004ZM5.13299 15.307C5.16832 15.2164 5.23018 15.1386 5.31047 15.0837C5.39076 15.0289 5.48574 14.9995 5.58299 14.9995C5.68024 14.9995 5.77523 15.0289 5.85552 15.0837C5.93581 15.1386 5.99766 15.2164 6.03299 15.307L6.18999 15.707C6.21401 15.7689 6.25058 15.8251 6.29739 15.872C6.34421 15.919 6.40025 15.9558 6.46199 15.98L6.85999 16.137C6.95034 16.173 7.02781 16.2353 7.08239 16.3158C7.13697 16.3963 7.16615 16.4913 7.16615 16.5885C7.16615 16.6858 7.13697 16.7808 7.08239 16.8613C7.02781 16.9418 6.95034 17.0041 6.85999 17.04L6.46199 17.198C6.40025 17.2223 6.34421 17.2591 6.29739 17.306C6.25058 17.353 6.21401 17.4092 6.18999 17.471L6.03299 17.871C5.99766 17.9616 5.93581 18.0395 5.85552 18.0943C5.77523 18.1492 5.68024 18.1786 5.58299 18.1786C5.48574 18.1786 5.39076 18.1492 5.31047 18.0943C5.23018 18.0395 5.16832 17.9616 5.13299 17.871L4.97599 17.471C4.95198 17.4092 4.91541 17.353 4.86859 17.306C4.82178 17.2591 4.76573 17.2223 4.70399 17.198L4.30599 17.04C4.21565 17.0041 4.13817 16.9418 4.08359 16.8613C4.02901 16.7808 3.99984 16.6858 3.99984 16.5885C3.99984 16.4913 4.02901 16.3963 4.08359 16.3158C4.13817 16.2353 4.21565 16.173 4.30599 16.137L4.70399 15.98C4.76583 15.9557 4.82194 15.9188 4.86876 15.8716C4.91558 15.8244 4.95209 15.7681 4.97599 15.706L5.13299 15.307Z" fill="black"/>
</g>
<defs>
<clipPath id="clip0_221_19682">
<rect width="24" height="24" fill="white"/>
</clipPath>
</defs>
</svg>
