<svg width="24" height="24" viewBox="0 0 24 24" fill="none" xmlns="http://www.w3.org/2000/svg">
<g clip-path="url(#clip0_221_19697)">
<path fill-rule="evenodd" clip-rule="evenodd" d="M12 22C7.757 22 5.636 22 4.318 20.535C3 19.072 3 16.714 3 12C3 7.286 3 4.929 4.318 3.464C5.636 1.999 7.758 2 12 2C16.242 2 18.364 2 19.682 3.464C21 4.93 21 7.286 21 12C21 16.714 21 19.071 19.682 20.535C18.364 21.999 16.242 22 12 22ZM9.25 14C9.25 13.8011 9.17098 13.6103 9.03033 13.4697C8.88968 13.329 8.69891 13.25 8.5 13.25C8.30109 13.25 8.11032 13.329 7.96967 13.4697C7.82902 13.6103 7.75 13.8011 7.75 14V14.75H7C6.80109 14.75 6.61032 14.829 6.46967 14.9697C6.32902 15.1103 6.25 15.3011 6.25 15.5C6.25 15.6989 6.32902 15.8897 6.46967 16.0303C6.61032 16.171 6.80109 16.25 7 16.25H7.75V17C7.75 17.1989 7.82902 17.3897 7.96967 17.5303C8.11032 17.671 8.30109 17.75 8.5 17.75C8.69891 17.75 8.88968 17.671 9.03033 17.5303C9.17098 17.3897 9.25 17.1989 9.25 17V16.25H10C10.1989 16.25 10.3897 16.171 10.5303 16.0303C10.671 15.8897 10.75 15.6989 10.75 15.5C10.75 15.3011 10.671 15.1103 10.5303 14.9697C10.3897 14.829 10.1989 14.75 10 14.75H9.25V14ZM16.333 13.833C16.333 14.0539 16.2452 14.2658 16.089 14.422C15.9328 14.5782 15.7209 14.666 15.5 14.666C15.2791 14.666 15.0672 14.5782 14.911 14.422C14.7548 14.2658 14.667 14.0539 14.667 13.833C14.667 13.6121 14.7548 13.4002 14.911 13.244C15.0672 13.0878 15.2791 13 15.5 13C15.7209 13 15.9328 13.0878 16.089 13.244C16.2452 13.4002 16.333 13.6121 16.333 13.833ZM16.333 17.167C16.333 17.3879 16.2452 17.5998 16.089 17.756C15.9328 17.9122 15.7209 18 15.5 18C15.2791 18 15.0672 17.9122 14.911 17.756C14.7548 17.5998 14.667 17.3879 14.667 17.167C14.667 16.9461 14.7548 16.7342 14.911 16.578C15.0672 16.4218 15.2791 16.334 15.5 16.334C15.7209 16.334 15.9328 16.4218 16.089 16.578C16.2452 16.7342 16.333 16.9461 16.333 17.167ZM13.833 16.333C14.0539 16.333 14.2658 16.2452 14.422 16.089C14.5782 15.9328 14.666 15.7209 14.666 15.5C14.666 15.2791 14.5782 15.0672 14.422 14.911C14.2658 14.7548 14.0539 14.667 13.833 14.667C13.6121 14.667 13.4002 14.7548 13.244 14.911C13.0878 15.0672 13 15.2791 13 15.5C13 15.7209 13.0878 15.9328 13.244 16.089C13.4002 16.2452 13.6121 16.333 13.833 16.333ZM18 15.5C18 15.7211 17.9122 15.9331 17.7559 16.0894C17.5996 16.2457 17.3876 16.3335 17.1665 16.3335C16.9454 16.3335 16.7334 16.2457 16.5771 16.0894C16.4208 15.9331 16.333 15.7211 16.333 15.5C16.333 15.2789 16.4208 15.0669 16.5771 14.9106C16.7334 14.7543 16.9454 14.6665 17.1665 14.6665C17.3876 14.6665 17.5996 14.7543 17.7559 14.9106C17.9122 15.0669 18 15.2789 18 15.5ZM7.051 7.112C7 7.302 7 7.535 7 8C7 8.465 7 8.697 7.051 8.888C7.11919 9.14213 7.25303 9.37386 7.43909 9.55991C7.62514 9.74597 7.85687 9.87981 8.111 9.948C8.304 10 8.536 10 9 10H15C15.465 10 15.697 10 15.888 9.949C16.1421 9.88081 16.3739 9.74697 16.5599 9.56091C16.746 9.37486 16.8798 9.14313 16.948 8.889C17 8.696 17 8.464 17 8C17 7.536 17 7.303 16.949 7.112C16.8808 6.85787 16.747 6.62614 16.5609 6.44009C16.3749 6.25403 16.1431 6.12019 15.889 6.052C15.697 6 15.464 6 15 6H9C8.535 6 8.303 6 8.112 6.051C7.85787 6.11919 7.62614 6.25303 7.44009 6.43909C7.25403 6.62514 7.12019 6.85687 7.052 7.111" fill="black"/>
</g>
<defs>
<clipPath id="clip0_221_19697">
<rect width="24" height="24" fill="white"/>
</clipPath>
</defs>
</svg>
