<svg width="24" height="24" viewBox="0 0 24 24" fill="none" xmlns="http://www.w3.org/2000/svg">
<g clip-path="url(#clip0_221_19925)">
<path d="M16 3C18.8279 3 20.2431 2.99982 21.1211 3.84375C22.0001 4.68673 22 6.04392 22 8.75977V9.71973C22 12.4345 21.9999 13.7927 21.1211 14.6357C20.2431 15.4797 18.828 15.4805 16 15.4805H12.75V17.8398L18.2373 19.5967C18.3291 19.6239 18.4144 19.6696 18.4883 19.7305C18.5621 19.7913 18.6227 19.8664 18.667 19.9512C18.7113 20.0361 18.7384 20.1291 18.7461 20.2246C18.7537 20.32 18.7421 20.416 18.7119 20.5068C18.6432 20.6909 18.5062 20.8417 18.3291 20.9268C18.152 21.0118 17.9483 21.0244 17.7617 20.9629L12 19.1191L6.2373 20.9629C6.05087 21.0249 5.84701 21.0119 5.66992 20.9268C5.493 20.8416 5.35612 20.691 5.28809 20.5068C5.25789 20.416 5.24626 20.32 5.25391 20.2246C5.26156 20.1291 5.28869 20.0361 5.33301 19.9512C5.3773 19.8664 5.43788 19.7913 5.51172 19.7305C5.58562 19.6696 5.67093 19.6239 5.7627 19.5967L11.25 17.8408V15.4805H8C5.172 15.4805 3.75691 15.4797 2.87891 14.6357C2.00008 13.7927 2 12.4355 2 9.71973V8.75977C2 6.04492 1.99993 4.68673 2.87891 3.84375C3.75691 2.99982 5.17208 3 8 3H16ZM13.25 5.75C13.0511 5.75 12.8604 5.82907 12.7197 5.96973C12.5791 6.11038 12.5 6.30109 12.5 6.5V12.5C12.5 12.6989 12.5791 12.8896 12.7197 13.0303C12.8604 13.1709 13.0511 13.25 13.25 13.25C13.4489 13.25 13.6396 13.1709 13.7803 13.0303C13.9209 12.8896 14 12.6989 14 12.5V11.002L15.0547 9.90527L16.6191 12.9053C16.6711 12.9905 16.7394 13.0646 16.8203 13.123C16.9013 13.1815 16.9935 13.2236 17.0908 13.2461C17.1882 13.2685 17.2893 13.271 17.3877 13.2539C17.4862 13.2368 17.5809 13.2005 17.665 13.1465C17.7491 13.0925 17.8214 13.0218 17.8779 12.9395C17.9345 12.857 17.974 12.7639 17.9941 12.666C18.0143 12.5681 18.0145 12.4672 17.9951 12.3691C17.9757 12.2711 17.9368 12.1776 17.8809 12.0947L16.124 8.79297L17.79 7.01953C17.9276 6.87641 18.0026 6.6848 17.999 6.48633C17.9953 6.28757 17.9127 6.09792 17.7695 5.95996C17.6264 5.8224 17.4348 5.74735 17.2363 5.75098C17.0376 5.75473 16.8479 5.83733 16.71 5.98047L14 8.83789V6.5C14 6.30109 13.9209 6.11038 13.7803 5.96973C13.6396 5.82907 13.4489 5.75 13.25 5.75ZM10.25 5.75C10.0511 5.75 9.86038 5.82907 9.71973 5.96973C9.57907 6.11038 9.5 6.30109 9.5 6.5V8.75H8.25C7.56 8.75 7 8.19 7 7.5V6.5C7 6.30109 6.92093 6.11038 6.78027 5.96973C6.63962 5.82907 6.44891 5.75 6.25 5.75C6.05109 5.75 5.86038 5.82907 5.71973 5.96973C5.57907 6.11038 5.5 6.30109 5.5 6.5V7.5C5.5 8.22935 5.78994 8.92861 6.30566 9.44434C6.82139 9.96006 7.52065 10.25 8.25 10.25H9.5V12.5C9.5 12.6989 9.57907 12.8896 9.71973 13.0303C9.86038 13.1709 10.0511 13.25 10.25 13.25C10.4489 13.25 10.6396 13.1709 10.7803 13.0303C10.9209 12.8896 11 12.6989 11 12.5V6.5C11 6.30109 10.9209 6.11038 10.7803 5.96973C10.6396 5.82907 10.4489 5.75 10.25 5.75Z" fill="black"/>
</g>
<defs>
<clipPath id="clip0_221_19925">
<rect width="24" height="24" fill="white"/>
</clipPath>
</defs>
</svg>
