<svg width="24" height="24" viewBox="0 0 24 24" fill="none" xmlns="http://www.w3.org/2000/svg">
<path fill-rule="evenodd" clip-rule="evenodd" d="M12 2.50003C11.3422 2.50003 10.695 2.71154 9.08016 3.26355L8.5079 3.46006C6.99512 3.97757 5.89184 4.35558 5.11782 4.66983C4.82082 4.78459 4.53206 4.91959 4.2538 5.07409C4.1818 5.1161 4.11205 5.16185 4.04605 5.21285C4.0258 5.22785 4.0078 5.24435 3.99055 5.2631C3.9778 5.28635 3.9673 5.3111 3.95905 5.3366C3.93879 5.39135 3.91779 5.47385 3.89604 5.58486C3.84054 5.90136 3.80679 6.22162 3.79554 6.54263C3.74979 7.38415 3.74979 8.55793 3.74979 10.1667V11.741C3.74979 16.9169 7.61988 19.4639 10.1992 20.5905C10.5697 20.7525 10.785 20.844 11.0242 20.9055C11.2522 20.964 11.5297 21 12 21C12.4702 21 12.7478 20.964 12.9758 20.9055C13.2158 20.8455 13.4303 20.7525 13.8008 20.5905C16.3808 19.4639 20.2502 16.9161 20.2502 11.741V10.1667C20.2502 8.55793 20.2502 7.38415 20.2044 6.54263C20.1932 6.22162 20.1594 5.90136 20.1039 5.58486C20.0882 5.50085 20.0672 5.41835 20.0409 5.3366C20.0327 5.3111 20.0222 5.28635 20.0094 5.2631C19.9922 5.24435 19.9742 5.22785 19.9539 5.21285C19.8879 5.16185 19.8182 5.11535 19.7462 5.07259C19.4679 4.91959 19.1791 4.78534 18.8821 4.67059C18.1081 4.35558 17.0048 3.97757 15.4921 3.46081L14.9191 3.26355C13.305 2.71154 12.6577 2.50003 12 2.50003ZM8.72316 1.80102C10.1669 1.30676 11.0632 1 12 1C12.9368 1 13.833 1.30676 15.2768 1.80102L15.4051 1.84452L16.0043 2.05002C17.4849 2.55704 18.6294 2.94855 19.4469 3.2808C19.8594 3.44806 20.2142 3.61081 20.4992 3.77581C20.7744 3.93557 21.0489 4.13507 21.2364 4.40208C21.421 4.66459 21.517 4.98859 21.577 5.3021C21.64 5.62611 21.6775 6.01462 21.7022 6.46163C21.7502 7.34815 21.7502 8.56393 21.7502 10.1397V11.741C21.7502 17.8424 17.1421 20.7675 14.4023 21.9652L14.3753 21.9765C14.0348 22.125 13.7153 22.2645 13.3478 22.3582C12.9608 22.458 12.549 22.5 12 22.5C11.4502 22.5 11.04 22.458 10.6522 22.3582C10.2847 22.2645 9.96519 22.125 9.62468 21.9765L9.59768 21.9652C6.85786 20.7675 2.24976 17.8424 2.24976 11.7402V10.1397C2.24976 8.56393 2.24976 7.34815 2.29776 6.46088C2.32251 6.01462 2.36001 5.62611 2.42301 5.3006C2.48301 4.98859 2.57901 4.66459 2.76277 4.40058C2.95102 4.13507 3.22553 3.93557 3.50079 3.77581C3.78579 3.61081 4.14055 3.44806 4.55306 3.2808C5.37058 2.94855 6.51511 2.55704 7.99564 2.05077L8.5949 1.84452L8.72316 1.80102Z" fill="black"/>
<path d="M13.527 4.19312C14.4457 4.19312 15.1906 4.93803 15.1906 5.85675V8.78508C15.1906 9.7038 14.4457 10.4487 13.527 10.4487H10.5987C9.67994 10.4487 8.93506 9.7038 8.93506 8.78508V5.85675C8.93506 4.93803 9.67994 4.19312 10.5987 4.19312H13.527Z" fill="black"/>
<path d="M10.2251 10.5819C11.1439 10.5819 11.8887 11.3268 11.8887 12.2455V15.1739C11.8887 16.0926 11.1439 16.8375 10.2251 16.8375H7.29678C6.37806 16.8375 5.63318 16.0926 5.63318 15.1739V12.2455C5.63318 11.3268 6.37806 10.5819 7.29678 10.5819H10.2251Z" fill="black"/>
<path d="M18.3654 12.2455C18.3654 11.3268 17.6205 10.5819 16.7018 10.5819H13.7735C12.8547 10.5819 12.1099 11.3268 12.1099 12.2455V15.1739C12.1099 16.0926 12.8547 16.8375 13.7735 16.8375H16.7018C17.6205 16.8375 18.3654 16.0926 18.3654 15.1739V12.2455Z" fill="black"/>
</svg>
