<svg width="24" height="24" viewBox="0 0 24 24" fill="none" xmlns="http://www.w3.org/2000/svg">
<path fill-rule="evenodd" clip-rule="evenodd" d="M1.20176 20.1749L8.47171 12.7368C9.72053 11.4591 10.9903 10.1599 12.1555 8.9678C14.8641 6.19641 17.0071 4.00378 17.0057 4.00588C17.1517 3.83588 17.7927 3.15589 18.7447 3.02389C19.4417 2.92789 20.3317 3.0919 21.2997 4.0599C22.2347 4.9949 22.4737 5.86088 22.4627 6.54488C22.4447 7.66588 21.7207 8.37289 21.7237 8.36989L9.02573 21.1669C8.89373 21.2999 8.71275 21.3759 8.52475 21.3759H1.7067C1.4227 21.3759 1.1657 21.2049 1.0557 20.9429C0.944698 20.6809 1.00276 20.3789 1.20176 20.1749ZM3.38572 19.9629L7.16971 16.0899L7.97672 16.8999L7.08976 17.7938C6.81476 18.0698 6.81672 18.5179 7.09372 18.7929C7.36972 19.0669 7.81775 19.0658 8.09275 18.7888L8.97373 17.9019L9.62571 18.5559L8.22971 19.9629H3.38572ZM10.6207 17.5529L8.15775 15.0789L8.97776 14.2409L11.4468 16.7208L10.6207 17.5529Z" fill="black"/>
</svg>
