<svg width="24" height="24" viewBox="0 0 24 24" fill="none" xmlns="http://www.w3.org/2000/svg">
<g clip-path="url(#clip0_221_19776)">
<path d="M8.25 2H6C4.114 2 3.172 2 2.586 2.586C2 3.172 2 4.114 2 6V8.25H5C5.19891 8.25 5.38968 8.32902 5.53033 8.46967C5.67098 8.61032 5.75 8.80109 5.75 9C5.75 9.19891 5.67098 9.38968 5.53033 9.53033C5.38968 9.67098 5.19891 9.75 5 9.75H2V11.25H4C4.19891 11.25 4.38968 11.329 4.53033 11.4697C4.67098 11.6103 4.75 11.8011 4.75 12C4.75 12.1989 4.67098 12.3897 4.53033 12.5303C4.38968 12.671 4.19891 12.75 4 12.75H2V14.25H5C5.19891 14.25 5.38968 14.329 5.53033 14.4697C5.67098 14.6103 5.75 14.8011 5.75 15C5.75 15.1989 5.67098 15.3897 5.53033 15.5303C5.38968 15.671 5.19891 15.75 5 15.75H2V17.25H4C4.19891 17.25 4.38968 17.329 4.53033 17.4697C4.67098 17.6103 4.75 17.8011 4.75 18C4.75 18.1989 4.67098 18.3897 4.53033 18.5303C4.38968 18.671 4.19891 18.75 4 18.75H2C2.001 19.99 2.02 20.638 2.337 21.111C2.48296 21.3295 2.67053 21.517 2.889 21.663C3.393 22 4.096 22 5.5 22C6.904 22 7.607 22 8.111 21.663C8.32947 21.517 8.51704 21.3295 8.663 21.111C9 20.607 9 19.904 9 18.5V11C9 10.057 9 9.586 9.293 9.293C9.586 9 10.057 9 11 9H18.5C19.904 9 20.607 9 21.111 8.663C21.3295 8.51704 21.517 8.32947 21.663 8.111C22 7.607 22 6.904 22 5.5C22 4.096 22 3.393 21.663 2.889C21.517 2.67053 21.3295 2.48296 21.111 2.337C20.638 2.021 19.99 2.001 18.75 2V4C18.75 4.19891 18.671 4.38968 18.5303 4.53033C18.3897 4.67098 18.1989 4.75 18 4.75C17.8011 4.75 17.6103 4.67098 17.4697 4.53033C17.329 4.38968 17.25 4.19891 17.25 4V2H15.75V5C15.75 5.19891 15.671 5.38968 15.5303 5.53033C15.3897 5.67098 15.1989 5.75 15 5.75C14.8011 5.75 14.6103 5.67098 14.4697 5.53033C14.329 5.38968 14.25 5.19891 14.25 5V2H12.75V4C12.75 4.19891 12.671 4.38968 12.5303 4.53033C12.3897 4.67098 12.1989 4.75 12 4.75C11.8011 4.75 11.6103 4.67098 11.4697 4.53033C11.329 4.38968 11.25 4.19891 11.25 4V2H9.75V5C9.75 5.19891 9.67098 5.38968 9.53033 5.53033C9.38968 5.67098 9.19891 5.75 9 5.75C8.80109 5.75 8.61032 5.67098 8.46967 5.53033C8.32902 5.38968 8.25 5.19891 8.25 5V2Z" fill="black"/>
</g>
<defs>
<clipPath id="clip0_221_19776">
<rect width="24" height="24" fill="white"/>
</clipPath>
</defs>
</svg>
