<svg width="24" height="24" viewBox="0 0 24 24" fill="none" xmlns="http://www.w3.org/2000/svg">
<path d="M15.4636 1.24097C16.3765 1.24097 17.1163 1.98073 17.1163 2.8936V9.59509C17.1163 10.508 16.3765 11.2477 15.4636 11.2477H8.76213C7.84926 11.2477 7.1095 10.508 7.1095 9.59509V2.8936C7.1095 1.98073 7.84926 1.24097 8.76213 1.24097H15.4636Z" fill="black"/>
<path d="M9.60412 12.5792C10.517 12.5792 11.2568 13.319 11.2568 14.2319V20.9333C11.2568 21.8462 10.517 22.586 9.60412 22.586H2.90263C1.98976 22.586 1.25 21.8462 1.25 20.9333V14.2319C1.25 13.319 1.98976 12.5792 2.90263 12.5792H9.60412Z" fill="black"/>
<path d="M21.0973 12.5792C22.0102 12.5792 22.75 13.319 22.75 14.2319V20.9333C22.75 21.8462 22.0102 22.586 21.0973 22.586H14.3958C13.4829 22.586 12.7432 21.8462 12.7432 20.9333V14.2319C12.7432 13.319 13.4829 12.5792 14.3958 12.5792H21.0973Z" fill="black"/>
</svg>
