<svg width="24" height="24" viewBox="0 0 24 24" fill="none" xmlns="http://www.w3.org/2000/svg">
<g clip-path="url(#clip0_221_19713)">
<path fill-rule="evenodd" clip-rule="evenodd" d="M14.199 20L10.132 20C6.29899 20 4.38199 20 3.19099 18.828C1.99999 17.656 1.99999 15.771 1.99999 12C1.99999 8.229 1.99999 6.343 3.19099 5.172C4.38099 4 6.29899 4 10.132 4L14.2 4C18.033 4 19.95 4 21.14 5.172C21.523 5.547 21.782 5.997 21.959 6.558C22.069 6.911 21.912 7.286 21.609 7.5L21.373 7.654C20.403 8.288 20.066 8.509 19.742 9.022C19.672 9.132 19.61 9.246 19.556 9.364C19.282 9.955 19.282 10.637 19.282 12C19.282 13.363 19.282 14.044 19.556 14.636C19.61 14.754 19.672 14.868 19.742 14.978C20.066 15.491 20.404 15.712 21.373 16.346L21.608 16.5C21.913 16.7 22.075 17.064 21.968 17.41C21.792 17.987 21.53 18.446 21.141 18.828C19.949 20 18.032 20 14.199 20ZM5.76999 9C5.76999 8.90109 5.75043 8.80315 5.71242 8.71183C5.67442 8.62051 5.61873 8.5376 5.54855 8.46789C5.47838 8.39818 5.39511 8.34304 5.30354 8.30565C5.21197 8.26825 5.1139 8.24934 5.01499 8.25C4.59899 8.25 4.26099 8.586 4.26099 9L4.26099 15C4.26099 15.414 4.59899 15.75 5.01599 15.75C5.11482 15.7505 5.21277 15.7315 5.30423 15.6941C5.39568 15.6566 5.47884 15.6014 5.54891 15.5317C5.61897 15.4621 5.67458 15.3792 5.71252 15.2879C5.75046 15.1967 5.76999 15.0988 5.76999 15L5.76999 9Z" fill="black"/>
</g>
<defs>
<clipPath id="clip0_221_19713">
<rect width="24" height="24" fill="white"/>
</clipPath>
</defs>
</svg>
