<svg width="24" height="24" viewBox="0 0 24 24" fill="none" xmlns="http://www.w3.org/2000/svg">
<g clip-path="url(#clip0_221_19791)">
<path d="M7.60397 4.604C9.33997 2.868 10.208 2 11.286 2C12.365 2 13.233 2.868 14.968 4.604L19.388 9.023C21.123 10.758 21.991 11.626 21.991 12.705C21.991 13.784 21.123 14.651 19.387 16.387C17.651 18.123 16.783 18.991 15.705 18.991C14.626 18.991 13.758 18.123 12.023 16.387L7.60297 11.968C5.86897 10.233 4.99997 9.365 4.99997 8.286C4.99997 7.207 5.86797 6.34 7.60397 4.604ZM7.28397 13.77L2.82597 18.228C2.48297 18.571 2.31197 18.742 2.20897 18.92C2.07168 19.1574 1.99939 19.4268 1.99939 19.701C1.99939 19.9752 2.07168 20.2446 2.20897 20.482C2.31197 20.66 2.48297 20.832 2.82597 21.174C3.16897 21.516 3.33897 21.688 3.51797 21.791C3.75536 21.9283 4.02474 22.0006 4.29897 22.0006C4.5732 22.0006 4.84258 21.9283 5.07997 21.791C5.25797 21.688 5.42997 21.516 5.77197 21.174L10.23 16.716L7.28397 13.77Z" fill="black"/>
<path d="M8.34497 12.71L8.34897 12.705L11.295 15.651L11.29 15.655L8.34497 12.71ZM19.669 7.18298C19.7949 6.9486 19.8588 6.6859 19.8546 6.41986C19.8504 6.15381 19.7783 5.89326 19.645 5.66298C19.542 5.48498 19.37 5.31398 19.028 4.97198C18.686 4.62898 18.514 4.45798 18.336 4.35498C18.1058 4.22186 17.8454 4.14978 17.5796 4.14558C17.3137 4.14138 17.0512 4.2052 16.817 4.33098L19.669 7.18298Z" fill="black"/>
</g>
<defs>
<clipPath id="clip0_221_19791">
<rect width="24" height="24" fill="white"/>
</clipPath>
</defs>
</svg>
