<svg width="24" height="24" viewBox="0 0 24 24" fill="none" xmlns="http://www.w3.org/2000/svg">
<g clip-path="url(#clip0_221_19739)">
<path fill-rule="evenodd" clip-rule="evenodd" d="M4.614 20.6431C4.69848 20.6939 4.79216 20.7276 4.88967 20.7422C4.98719 20.7568 5.08662 20.752 5.18229 20.7281C5.27796 20.7043 5.36798 20.6618 5.44721 20.6031C5.52643 20.5444 5.59331 20.4706 5.644 20.3861L7.075 17.9991L8 18.0001H16L16.924 17.9991L18.357 20.3861C18.4072 20.4715 18.4738 20.5462 18.553 20.6058C18.6322 20.6654 18.7224 20.7087 18.8185 20.7332C18.9145 20.7577 19.0145 20.7629 19.1125 20.7485C19.2106 20.7341 19.3049 20.7005 19.3898 20.6495C19.4748 20.5984 19.5488 20.5311 19.6076 20.4513C19.6664 20.3715 19.7088 20.2808 19.7324 20.1846C19.7559 20.0883 19.7601 19.9883 19.7448 19.8904C19.7294 19.7924 19.6949 19.6985 19.643 19.6141L18.646 17.9531C19.82 17.8751 20.574 17.6681 21.121 17.1211C22 16.2431 22 14.8281 22 12.0001C22 9.17206 22 7.75706 21.121 6.87906C20.795 6.55306 20.395 6.34706 19.877 6.21906C20.3498 7.21913 20.5596 8.32333 20.4865 9.42711C20.4133 10.5309 20.0597 11.5978 19.4591 12.5267C18.8584 13.4556 18.0306 14.2159 17.0541 14.7356C16.0775 15.2552 14.9845 15.517 13.8785 15.4962C12.7724 15.4754 11.69 15.1727 10.7337 14.6167C9.77737 14.0607 8.97876 13.2698 8.41347 12.319C7.84818 11.3681 7.53492 10.2887 7.50334 9.18293C7.47176 8.07717 7.7229 6.98164 8.233 6.00006H8C5.172 5.99906 3.757 5.99906 2.879 6.87806C2.001 7.75706 2 9.17206 2 12.0001C2 14.8281 2 16.2431 2.879 17.1211C3.426 17.6681 4.18 17.8751 5.354 17.9531L4.357 19.6141C4.30616 19.6985 4.27247 19.7922 4.25788 19.8897C4.24328 19.9873 4.24805 20.0867 4.27192 20.1824C4.29579 20.278 4.33829 20.368 4.39699 20.4473C4.45569 20.5265 4.52943 20.5924 4.614 20.6431ZM5.5 8.75006C5.69891 8.75006 5.88968 8.82908 6.03033 8.96973C6.17098 9.11039 6.25 9.30115 6.25 9.50006V11.0001C6.25 11.199 6.17098 11.3897 6.03033 11.5304C5.88968 11.671 5.69891 11.7501 5.5 11.7501C5.30109 11.7501 5.11032 11.671 4.96967 11.5304C4.82902 11.3897 4.75 11.199 4.75 11.0001V9.50006C4.75 9.30115 4.82902 9.11039 4.96967 8.96973C5.11032 8.82908 5.30109 8.75006 5.5 8.75006Z" fill="black"/>
<path fill-rule="evenodd" clip-rule="evenodd" d="M14 14C15.3261 14 16.5979 13.4732 17.5355 12.5355C18.4732 11.5979 19 10.3261 19 9C19 7.67392 18.4732 6.40215 17.5355 5.46447C16.5979 4.52678 15.3261 4 14 4C12.6739 4 11.4021 4.52678 10.4645 5.46447C9.52678 6.40215 9 7.67392 9 9C9 10.3261 9.52678 11.5979 10.4645 12.5355C11.4021 13.4732 12.6739 14 14 14ZM13.25 7C13.25 6.80109 13.329 6.61032 13.4697 6.46967C13.6103 6.32902 13.8011 6.25 14 6.25C14.5439 6.25 15.0756 6.41128 15.5278 6.71346C15.9801 7.01563 16.3325 7.44512 16.5407 7.94762C16.7488 8.45012 16.8033 9.00305 16.6972 9.5365C16.591 10.0699 16.3291 10.5599 15.9445 10.9445C15.5599 11.3291 15.0699 11.5911 14.5365 11.6972C14.0031 11.8033 13.4501 11.7488 12.9476 11.5407C12.4451 11.3325 12.0156 10.9801 11.7135 10.5278C11.4113 10.0756 11.25 9.5439 11.25 9C11.25 8.80109 11.329 8.61032 11.4697 8.46967C11.6103 8.32902 11.8011 8.25 12 8.25C12.1989 8.25 12.3897 8.32902 12.5303 8.46967C12.671 8.61032 12.75 8.80109 12.75 9C12.75 9.24723 12.8233 9.4889 12.9607 9.69446C13.098 9.90002 13.2932 10.0602 13.5216 10.1548C13.7501 10.2495 14.0014 10.2742 14.2439 10.226C14.4863 10.1778 14.7091 10.0587 14.8839 9.88388C15.0587 9.70907 15.1778 9.48634 15.226 9.24386C15.2742 9.00139 15.2495 8.75005 15.1548 8.52165C15.0602 8.29324 14.9 8.09801 14.6945 7.96066C14.4889 7.82331 14.2472 7.75 14 7.75C13.8011 7.75 13.6103 7.67098 13.4697 7.53033C13.329 7.38968 13.25 7.19891 13.25 7Z" fill="black"/>
</g>
<defs>
<clipPath id="clip0_221_19739">
<rect width="24" height="24" fill="white"/>
</clipPath>
</defs>
</svg>
