<svg width="24" height="24" viewBox="0 0 24 24" fill="none" xmlns="http://www.w3.org/2000/svg">
<path fill-rule="evenodd" clip-rule="evenodd" d="M11.5627 9.69946L9.51845 7.65932C9.3964 7.68779 9.26418 7.70308 9.13197 7.70308C8.67431 7.70308 8.23697 7.51999 7.91152 7.19556C7.58608 6.87011 7.40301 6.42976 7.40301 5.97108C7.40301 5.51138 7.58608 5.07099 7.91152 4.74554L10.9016 1.75752C11.227 1.43207 11.6644 1.25 12.122 1.25C12.5797 1.25 13.0272 1.43207 13.3526 1.75752C13.6781 2.08195 13.851 2.52231 13.851 2.982C13.851 3.11218 13.8408 3.24034 13.8103 3.36544L15.8545 5.40558L16.4139 4.84113C16.78 4.47805 17.2784 4.27365 17.7869 4.27365C18.3056 4.27365 18.7937 4.47905 19.1599 4.84213C19.526 5.20622 19.7294 5.69954 19.7294 6.21416C19.7294 6.72878 19.526 7.22305 19.1599 7.58613L18.6005 8.15057L20.6346 10.1907C20.7668 10.1622 20.8888 10.147 21.021 10.147C21.4787 10.147 21.9262 10.33 22.2517 10.6545C22.5771 10.9799 22.75 11.4203 22.75 11.879C22.75 12.3387 22.5771 12.779 22.2517 13.1045L19.2615 16.0936C18.9361 16.418 18.4886 16.6 18.031 16.6C17.5733 16.6 17.136 16.418 16.8105 16.0936V16.0925C16.4851 15.7681 16.302 15.3277 16.302 14.868C16.302 14.7378 16.3122 14.6097 16.3427 14.4846L14.3086 12.4445L4.56552 22.1825C4.19939 22.5466 3.71118 22.751 3.1925 22.751C2.68398 22.751 2.18566 22.5466 1.81953 22.1825C1.4534 21.8184 1.25 21.3252 1.25 20.8105C1.25 20.2959 1.4534 19.8016 1.81953 19.4375L11.5627 9.69946ZM13.3018 11.4376L12.5695 10.7064L2.82638 20.4444C2.73485 20.542 2.6738 20.6732 2.6738 20.8105C2.6738 20.9468 2.73485 21.079 2.82638 21.1757C2.92808 21.2733 3.06028 21.3272 3.1925 21.3272C3.33488 21.3272 3.46708 21.2733 3.55861 21.1757L13.3018 11.4376ZM20.8074 11.6613L17.8174 14.6504C17.7564 14.7084 17.7259 14.7867 17.7259 14.868C17.7259 14.9504 17.7564 15.0287 17.8174 15.0857V15.0867C17.8784 15.1437 17.9496 15.1762 18.031 15.1762C18.1123 15.1762 18.1937 15.1437 18.2547 15.0867L21.2448 12.0976C21.2956 12.0397 21.3261 11.9613 21.3261 11.879C21.3261 11.7976 21.2956 11.7193 21.2448 11.6613C21.1837 11.6034 21.1024 11.5708 21.021 11.5708C20.9397 11.5708 20.8583 11.6034 20.8074 11.6613ZM17.5937 7.14366L18.153 6.57922C18.2547 6.4826 18.3055 6.35146 18.3055 6.21416C18.3055 6.07686 18.2547 5.94566 18.153 5.84904V5.84798C18.0615 5.75136 17.9293 5.69745 17.7869 5.69745C17.6547 5.69745 17.5224 5.75136 17.4207 5.84798L16.8614 6.41243L17.5937 7.14366ZM9.35569 6.18871L12.3458 3.19964C12.3966 3.14167 12.4271 3.06336 12.4271 2.982C12.4271 2.90064 12.3966 2.82132 12.3458 2.76437C12.2847 2.7064 12.2034 2.67386 12.122 2.67386C12.0407 2.67386 11.9695 2.7064 11.9084 2.76437L8.91837 5.75239C8.85735 5.81036 8.82688 5.8887 8.82688 5.97108C8.82688 6.05244 8.85735 6.13074 8.91837 6.18871C8.97939 6.24668 9.05061 6.27921 9.13197 6.27921C9.21333 6.27921 9.29467 6.24668 9.35569 6.18871Z" fill="black"/>
</svg>
