<svg width="24" height="24" viewBox="0 0 24 24" fill="none" xmlns="http://www.w3.org/2000/svg">
<path fill-rule="evenodd" clip-rule="evenodd" d="M5.08816 1.54712L11.5586 1.55896L18.0289 1.54712C18.2949 1.54712 18.5312 1.69684 18.6494 1.9332L21.535 7.80875C21.604 7.94466 21.6138 8.09238 21.5941 8.23223C21.6039 8.29624 21.6039 8.36024 21.6039 8.42524V9.09889C21.6039 9.6632 21.0721 9.77444 20.944 9.79316L20.9146 9.79712L20.8751 9.79616C20.5108 9.77745 20.2251 9.47605 20.2251 9.10773V8.42524C20.2251 8.32282 20.1857 8.22532 20.1168 8.15342C20.038 8.08153 19.9395 8.04114 19.841 8.04114H3.27609C3.16776 8.04114 3.07909 8.08153 3.00031 8.15342C2.93137 8.22532 2.89199 8.32282 2.89199 8.42524V21.2852C2.89199 21.3867 2.93137 21.4842 3.00031 21.5561C3.07909 21.628 3.16776 21.6684 3.27609 21.6684H7.82604C8.21012 21.6684 8.51538 21.9776 8.51538 22.3578C8.51538 22.7389 8.21012 23.0471 7.82604 23.0471H3.27609C2.80337 23.0471 2.36017 22.862 2.02533 22.5311C1.70033 22.2012 1.51319 21.7521 1.51319 21.2852V8.42524C1.51319 8.36024 1.5132 8.29624 1.52305 8.23223C1.4935 8.09238 1.51326 7.94466 1.5822 7.80875L4.46771 1.9332C4.58589 1.69684 4.82225 1.54712 5.08816 1.54712ZM10.8692 6.6624H3.67991L5.52155 2.92688L10.8692 2.93674V6.6624ZM17.5957 2.92688L19.4373 6.6624H12.248V2.93674L17.5957 2.92688Z" fill="black"/>
<path d="M14.4836 16.8909C15.3896 16.8909 16.1184 17.6236 16.1184 18.5277V21.4103C16.1184 22.3144 15.3896 23.0471 14.4836 23.0471H11.5979C10.6919 23.0471 9.96318 22.3144 9.96318 21.4103V18.5277C9.96318 17.6236 10.6919 16.8909 11.5979 16.8909H14.4836Z" fill="black"/>
<path d="M20.8554 16.8909C21.7615 16.8909 22.4903 17.6236 22.4903 18.5277V21.4103C22.4903 22.3144 21.7615 23.0471 20.8554 23.0471H17.9698C17.0736 23.0471 16.3351 22.3144 16.3351 21.4103V18.5277C16.3351 17.6236 17.0736 16.8909 17.9698 16.8909H20.8554Z" fill="black"/>
<path d="M17.7334 10.6027C18.6395 10.6027 19.3683 11.3354 19.3683 12.2395V15.1221C19.3683 16.0262 18.6395 16.7589 17.7334 16.7589H14.8479C13.9419 16.7589 13.2131 16.0262 13.2131 15.1221V12.2395C13.2131 11.3354 13.9419 10.6027 14.8479 10.6027H17.7334Z" fill="black"/>
</svg>
