<svg width="24" height="24" viewBox="0 0 24 24" fill="none" xmlns="http://www.w3.org/2000/svg">
<path d="M11.3928 1.7032V3.40187H9.32336C9.31354 3.40187 9.30314 3.40187 9.29332 3.40285C8.94172 3.38577 8.63022 3.63593 8.56995 3.99054L6.00842 19.4666C5.97828 19.6706 6.02842 19.8785 6.16906 20.0362C6.29965 20.1939 6.49054 20.2843 6.7015 20.2843H7.34443L7.07318 21.6626C7.00286 22.0443 7.25406 22.413 7.63578 22.4873C8.00747 22.5607 8.3791 22.3115 8.45946 21.9298L8.77093 20.2843H9.5344C9.85585 20.2843 10.1371 20.0644 10.2174 19.7509L12.0959 12.1857L13.9744 19.7509C14.0448 20.0644 14.3261 20.2843 14.6576 20.2843H15.2301L15.5416 21.9298C15.622 22.3115 15.9936 22.5607 16.3653 22.4873C16.747 22.413 16.9982 22.0443 16.9279 21.6626L16.6566 20.2843H17.4904C17.6913 20.2843 17.8922 20.1939 18.0228 20.0362C18.1534 19.8785 18.2137 19.6706 18.1836 19.4666L15.6219 3.99054C15.5616 3.64196 15.2603 3.39484 14.9087 3.40187H12.7992V1.7032C12.7992 1.31544 12.4777 1 12.0959 1C11.7042 1 11.3928 1.31544 11.3928 1.7032Z" fill="black"/>
</svg>
