<svg width="24" height="24" viewBox="0 0 24 24" fill="none" xmlns="http://www.w3.org/2000/svg">
<path fill-rule="evenodd" clip-rule="evenodd" d="M16.568 7.25694H21.3288V8.50452C21.3288 8.89737 21.6436 9.21511 22.0395 9.21511C22.4354 9.21511 22.75 8.89737 22.75 8.50452V6.54635C22.75 6.15452 22.4354 5.83576 22.0395 5.83576H16.568V1.94997C16.568 1.55712 16.2534 1.23938 15.8575 1.23938H5.11751C4.73177 1.23938 4.40698 1.55712 4.40698 1.94997V10.5246H1.96053C1.56464 10.5246 1.25 10.8433 1.25 11.2352V21.8451C1.25 22.238 1.56464 22.5557 1.96053 22.5557H8.28466C8.6704 22.5557 8.99531 22.238 8.99531 21.8451C8.99531 21.4533 8.6704 21.1346 8.28466 21.1346H7.37103V16.5402C7.37103 16.1483 7.0564 15.8296 6.6605 15.8296H2.67106V11.9458H7.28987C7.67561 11.9458 7.99036 11.627 7.99036 11.2352C7.99036 10.8433 7.67561 10.5246 7.28987 10.5246H5.82816V2.6605H15.1468V8.54615C15.1468 8.93799 15.4616 9.25674 15.8575 9.25674C16.2534 9.25674 16.568 8.93799 16.568 8.54615V7.25694ZM5.94997 21.1346V19.9032H2.67106V21.1346H5.94997ZM2.67106 17.2507V18.482H5.94997V17.2507H2.67106Z" fill="black"/>
<path d="M17.9046 9.90503C18.8236 9.90503 19.5686 10.6501 19.5686 11.5691V14.4981C19.5686 15.4171 18.8236 16.1622 17.9046 16.1622H14.9755C14.0566 16.1622 13.3115 15.4171 13.3115 14.4981V11.5691C13.3115 10.6501 14.0566 9.90503 14.9755 9.90503H17.9046Z" fill="black"/>
<path d="M14.602 16.2954C15.5209 16.2954 16.266 17.0405 16.266 17.9595V20.8885C16.266 21.8074 15.5209 22.5525 14.602 22.5525H11.6729C10.754 22.5525 10.0089 21.8074 10.0089 20.8885V17.9595C10.0089 17.0405 10.754 16.2954 11.6729 16.2954H14.602Z" fill="black"/>
<path d="M22.7443 17.9595C22.7443 17.0405 21.9992 16.2954 21.0803 16.2954H18.1512C17.2322 16.2954 16.4872 17.0405 16.4872 17.9595V20.8885C16.4872 21.8074 17.2322 22.5525 18.1512 22.5525H21.0803C21.9992 22.5525 22.7443 21.8074 22.7443 20.8885V17.9595Z" fill="black"/>
</svg>
