<svg width="24" height="24" viewBox="0 0 24 24" fill="none" xmlns="http://www.w3.org/2000/svg">
<g clip-path="url(#clip0_221_19797)">
<path d="M6.65399 1.63305C6.55653 1.4596 6.39415 1.33197 6.20258 1.27824C6.01101 1.22451 5.80594 1.24908 5.63249 1.34655C5.45904 1.44402 5.33141 1.60639 5.27768 1.79796C5.22395 1.98953 5.24853 2.1946 5.34599 2.36805L11.14 12.672L8.43199 17.487C8.09022 16.7117 7.49599 16.0749 6.74609 15.6804C5.9962 15.2859 5.13482 15.1569 4.30226 15.3144C3.46969 15.472 2.71499 15.9068 2.16109 16.548C1.60718 17.1892 1.28669 17.9991 1.25183 18.8457C1.21698 19.6923 1.46979 20.5258 1.96911 21.2104C2.46843 21.895 3.18483 22.3904 4.00162 22.6158C4.81842 22.8413 5.68749 22.7835 6.46727 22.452C7.24706 22.1205 7.89163 21.5347 8.29599 20.7901L12 14.202L15.704 20.7901C16.1083 21.5344 16.7528 22.1199 17.5323 22.4513C18.3119 22.7826 19.1807 22.8403 19.9972 22.6148C20.8137 22.3894 21.5299 21.8942 22.029 21.2098C22.5282 20.5254 22.7809 19.6922 22.746 18.8458C22.7112 17.9994 22.3908 17.1898 21.8371 16.5488C21.2834 15.9077 20.529 15.473 19.6967 15.3155C18.8644 15.158 18.0033 15.2868 17.2536 15.6811C16.5039 16.0755 15.9098 16.712 15.568 17.487L12.86 12.672L18.654 2.36805C18.7515 2.1946 18.776 1.98953 18.7223 1.79796C18.6686 1.60639 18.5409 1.44402 18.3675 1.34655C18.194 1.24908 17.989 1.22451 17.7974 1.27824C17.6058 1.33197 17.4435 1.4596 17.346 1.63305L12 11.142L6.65399 1.63305Z" fill="black"/>
</g>
<defs>
<clipPath id="clip0_221_19797">
<rect width="24" height="24" fill="white"/>
</clipPath>
</defs>
</svg>
