<svg width="24" height="24" viewBox="0 0 24 24" fill="none" xmlns="http://www.w3.org/2000/svg">
<g clip-path="url(#clip0_221_19750)">
<path d="M2.476 12C2.41349 12 2.35159 11.9877 2.29384 11.9638C2.23609 11.9398 2.18362 11.9048 2.13942 11.8606C2.09522 11.8164 2.06015 11.7639 2.03623 11.7062C2.01231 11.6484 2 11.5865 2 11.524C2 7.078 5.046 3.344 9.165 2.294C9.01309 2.48839 8.87156 2.69067 8.741 2.9C8.005 4.078 7.493 5.605 7.134 7.072C6.81545 8.4041 6.57768 9.75422 6.422 11.115C6.383 11.446 6.352 11.745 6.328 12H2.476ZM22 11.524C22 11.5865 21.9877 11.6484 21.9638 11.7062C21.9398 11.7639 21.9048 11.8164 21.8606 11.8606C21.8164 11.9048 21.7639 11.9398 21.7062 11.9638C21.6484 11.9877 21.5865 12 21.524 12H17.672C17.6437 11.7046 17.612 11.4096 17.577 11.115C17.4216 9.75424 17.1842 8.40412 16.866 7.072C16.506 5.605 15.996 4.078 15.259 2.9C15.1284 2.69067 14.9869 2.48839 14.835 2.294C18.955 3.344 22 7.078 22 11.524ZM11.25 20V12H7.835C7.855 11.7873 7.88067 11.551 7.912 11.291C8.038 10.231 8.249 8.826 8.592 7.428C8.936 6.02 9.402 4.672 10.012 3.694C10.63 2.707 11.29 2.25 12 2.25C12.71 2.25 13.37 2.707 13.987 3.694C14.598 4.672 15.064 6.02 15.409 7.428C15.751 8.826 15.962 10.231 16.088 11.291C16.118 11.5517 16.1437 11.788 16.165 12H12.75V20C12.75 20.7293 12.4603 21.4288 11.9445 21.9445C11.4288 22.4603 10.7293 22.75 10 22.75C9.27065 22.75 8.57118 22.4603 8.05546 21.9445C7.53973 21.4288 7.25 20.7293 7.25 20V19C7.25 18.8011 7.32902 18.6103 7.46967 18.4697C7.61032 18.329 7.80109 18.25 8 18.25C8.19891 18.25 8.38968 18.329 8.53033 18.4697C8.67098 18.6103 8.75 18.8011 8.75 19V20C8.75 20.3315 8.8817 20.6495 9.11612 20.8839C9.35054 21.1183 9.66848 21.25 10 21.25C10.3315 21.25 10.6495 21.1183 10.8839 20.8839C11.1183 20.6495 11.25 20.3315 11.25 20Z" fill="black"/>
</g>
<defs>
<clipPath id="clip0_221_19750">
<rect width="24" height="24" fill="white"/>
</clipPath>
</defs>
</svg>
