<svg width="24" height="24" viewBox="0 0 24 24" fill="none" xmlns="http://www.w3.org/2000/svg">
<g clip-path="url(#clip0_221_19846)">
<path d="M9.7954 11.7499C9.78211 11.7499 9.76937 11.7551 9.75997 11.7645C9.75058 11.7739 9.7453 11.7867 9.7453 11.8V12.0004C9.7453 12.5983 9.98284 13.1718 10.4057 13.5946C10.8285 14.0175 11.402 14.255 11.9999 14.255C12.5979 14.255 13.1714 14.0175 13.5942 13.5946C14.017 13.1718 14.2545 12.5983 14.2545 12.0004V11.8C14.2545 11.7867 14.2493 11.7739 14.2399 11.7645C14.2305 11.7551 14.2177 11.7499 14.2044 11.7499H9.7954Z" fill="black"/>
<path fill-rule="evenodd" clip-rule="evenodd" d="M11.9959 22.9391C17.9952 22.9391 22.8586 18.0757 22.8586 12.0764C22.8586 6.07703 17.9952 1.21362 11.9959 1.21362C5.99659 1.21362 1.13318 6.07703 1.13318 12.0764C1.13318 18.0757 5.99659 22.9391 11.9959 22.9391ZM12.7515 19.8764H11.2484V15.6829C10.3996 15.5097 9.63678 15.0485 9.08897 14.3774C8.54117 13.7064 8.24204 12.8666 8.24222 12.0004V11.8C8.24222 10.9582 8.91059 10.2738 9.7453 10.2468V8.99422C9.7453 8.7949 9.82448 8.60374 9.96542 8.4628C10.1064 8.32186 10.2975 8.24268 10.4968 8.24268C10.6962 8.24268 10.8873 8.32186 11.0283 8.4628C11.1692 8.60374 11.2484 8.7949 11.2484 8.99422V10.2468H12.7515V8.99422C12.7515 8.7949 12.8306 8.60374 12.9716 8.4628C13.1125 8.32186 13.3037 8.24268 13.503 8.24268C13.7023 8.24268 13.8935 8.32186 14.0344 8.4628C14.1754 8.60374 14.2545 8.7949 14.2545 8.99422V10.2468C15.0893 10.2738 15.7576 10.9582 15.7576 11.8V12.0004C15.7578 12.8666 15.4587 13.7064 14.9109 14.3774C14.3631 15.0485 13.6002 15.5097 12.7515 15.6829V19.8764Z" fill="black"/>
</g>
<defs>
<clipPath id="clip0_221_19846">
<rect width="22" height="22" fill="white" transform="translate(1 1)"/>
</clipPath>
</defs>
</svg>
