<svg width="24" height="24" viewBox="0 0 24 24" fill="none" xmlns="http://www.w3.org/2000/svg">
<g clip-path="url(#clip0_221_19766)">
<path d="M2 15.616C2 16.463 2.682 17.145 4.045 18.508L5.492 19.955C6.855 21.318 7.537 22 8.384 22C9.231 22 9.914 21.318 11.277 19.955L19.955 11.277C21.318 9.913 22 9.23 22 8.384C22 7.538 21.318 6.855 19.955 5.492L18.508 4.045C17.145 2.682 16.463 2 15.616 2C14.862 2 14.24 2.54 13.152 3.618C13.182 3.64 13.2103 3.66433 13.237 3.691L14.652 5.106C14.7236 5.17522 14.7807 5.258 14.82 5.34953C14.8592 5.44105 14.8799 5.53947 14.8807 5.63906C14.8815 5.73864 14.8625 5.83739 14.8247 5.92954C14.787 6.0217 14.7312 6.10541 14.6608 6.1758C14.5903 6.24618 14.5066 6.30183 14.4144 6.3395C14.3222 6.37717 14.2234 6.3961 14.1238 6.39519C14.0243 6.39427 13.9259 6.37354 13.8344 6.33419C13.7429 6.29484 13.6602 6.23766 13.591 6.166L12.177 4.752C12.1507 4.72476 12.126 4.69604 12.103 4.666L11.03 5.739C11.06 5.761 11.0887 5.78567 11.116 5.813L13.237 7.934C13.3107 8.00266 13.3698 8.08546 13.4108 8.17746C13.4518 8.26946 13.4738 8.36877 13.4756 8.46948C13.4774 8.57018 13.4588 8.67021 13.4211 8.7636C13.3834 8.85699 13.3273 8.94182 13.256 9.01304C13.1848 9.08426 13.1 9.1404 13.0066 9.17812C12.9132 9.21584 12.8132 9.23437 12.7125 9.23259C12.6118 9.23081 12.5125 9.20877 12.4205 9.16778C12.3285 9.12679 12.2457 9.06769 12.177 8.994L10.055 6.874C10.0287 6.84643 10.004 6.81739 9.981 6.787L8.91 7.86C8.93933 7.882 8.968 7.90667 8.996 7.934L10.41 9.348C10.5425 9.49017 10.6146 9.67822 10.6112 9.87252C10.6077 10.0668 10.529 10.2522 10.3916 10.3896C10.2542 10.527 10.0688 10.6057 9.87452 10.6092C9.68022 10.6126 9.49218 10.5405 9.35 10.408L7.933 8.996C7.90673 8.96876 7.88202 8.94004 7.859 8.91L6.787 9.98C6.81767 10.002 6.84633 10.0267 6.873 10.054L8.995 12.176C9.13155 12.3175 9.20706 12.507 9.20526 12.7037C9.20346 12.9003 9.12449 13.0884 8.98537 13.2274C8.84625 13.3664 8.6581 13.4451 8.46145 13.4468C8.2648 13.4484 8.07539 13.3727 7.934 13.236L5.813 11.115C5.78673 11.0878 5.76202 11.059 5.739 11.029L4.666 12.102C4.696 12.1233 4.72467 12.148 4.752 12.176L6.166 13.59C6.29848 13.7322 6.3706 13.9202 6.36718 14.1145C6.36375 14.3088 6.28503 14.4942 6.14762 14.6316C6.01021 14.769 5.82482 14.8477 5.63052 14.8512C5.43622 14.8546 5.24817 14.7825 5.106 14.65L3.69 13.238C3.6641 13.2111 3.63973 13.1827 3.617 13.153C2.539 14.24 2 14.862 2 15.616Z" fill="black"/>
</g>
<defs>
<clipPath id="clip0_221_19766">
<rect width="24" height="24" fill="white"/>
</clipPath>
</defs>
</svg>
