<svg width="24" height="24" viewBox="0 0 24 24" fill="none" xmlns="http://www.w3.org/2000/svg">
<path fill-rule="evenodd" clip-rule="evenodd" d="M3.07627 5.46287C4.0885 4.4106 5.41708 3.73678 6.84481 3.53353L6.12794 2.42416C5.90467 2.07874 6.00282 1.61719 6.34823 1.39392C6.69365 1.17065 7.15618 1.2688 7.37945 1.61422L8.5789 3.46845H14.6313V3.24015C14.6313 2.57134 15.1338 2.00966 15.7986 1.93657C16.1226 1.9011 16.5677 1.85233 17.072 1.79708C18.4751 1.64335 20.3364 1.43942 21.3233 1.33189C21.6938 1.29085 22.0642 1.40998 22.3416 1.65828C22.6189 1.90758 22.7771 2.26198 22.7771 2.63443V5.26561C22.7771 5.62404 22.6299 5.96745 22.3706 6.21475C22.1103 6.46205 21.7609 6.59222 21.4025 6.5742L15.8778 6.30587C15.1799 6.27183 14.6313 5.69612 14.6313 4.99728V4.86015H12.3916V5.27765C12.3916 5.38177 12.4326 5.48286 12.5056 5.55795L14.0195 7.12387C14.3429 7.45828 14.5241 7.90579 14.5241 8.37135V20.9305C14.5241 21.4071 14.3349 21.8637 13.9985 22.2001C13.6611 22.5365 13.2045 22.7258 12.7289 22.7258H6.80576C6.32918 22.7258 5.87262 22.5365 5.53622 22.2001C5.19981 21.8637 5.01062 21.4071 5.01062 20.9305V8.37135C5.01062 7.90579 5.1908 7.45828 5.5152 7.12387L7.02905 5.55795C7.10114 5.48286 7.14216 5.38173 7.14216 5.27661V4.89718C5.98176 5.03935 4.89849 5.57602 4.0795 6.42705C3.1734 7.36919 2.66776 8.62467 2.66776 9.93025V19.1684C2.66776 19.5519 2.35637 19.8643 1.97191 19.8643C1.58845 19.8643 1.2771 19.5519 1.2771 19.1684V9.93025C1.2771 8.26523 1.92188 6.66432 3.07627 5.46287ZM10.4622 11.5532H13.1324V17.0048H12.2724C11.7928 17.0048 11.3322 16.8146 10.9928 16.4752C10.6534 16.1358 10.4622 15.6752 10.4622 15.1956V11.5532ZM16.0219 4.92022V3.31226L21.3854 2.72457V5.18054L16.0219 4.92022Z" fill="black"/>
</svg>
