<svg width="24" height="24" viewBox="0 0 24 24" fill="none" xmlns="http://www.w3.org/2000/svg">
<g clip-path="url(#clip0_221_19755)">
<path d="M20 4.25H4V4C4 3.057 4 2.586 4.293 2.293C4.586 2 5.057 2 6 2H18C18.943 2 19.414 2 19.707 2.293C20 2.586 20 3.057 20 4V4.25ZM16.172 8.828C16.009 8.991 15.87 9.13 15.75 9.255V9.25H8.25V9.255C8.13 9.13 7.99 8.991 7.829 8.828L4.75 5.75H19.25L16.172 8.828Z" fill="black"/>
<path fill-rule="evenodd" clip-rule="evenodd" d="M8.99999 11.657V19C8.99999 19.932 8.99999 20.398 9.15199 20.765C9.2525 21.0078 9.39988 21.2284 9.58571 21.4143C9.77154 21.6001 9.99217 21.7475 10.235 21.848C10.602 22 11.068 22 12 22C12.932 22 13.398 22 13.765 21.848C14.0078 21.7475 14.2284 21.6001 14.4143 21.4143C14.6001 21.2284 14.7475 21.0078 14.848 20.765C15 20.398 15 19.932 15 19V11.657C15 11.28 15 10.989 15.015 10.75H8.98499C8.99999 10.99 8.99999 11.28 8.99999 11.657ZM12.75 13C12.75 12.8011 12.671 12.6103 12.5303 12.4697C12.3897 12.329 12.1989 12.25 12 12.25C11.8011 12.25 11.6103 12.329 11.4697 12.4697C11.329 12.6103 11.25 12.8011 11.25 13V15C11.25 15.1989 11.329 15.3897 11.4697 15.5303C11.6103 15.671 11.8011 15.75 12 15.75C12.1989 15.75 12.3897 15.671 12.5303 15.5303C12.671 15.3897 12.75 15.1989 12.75 15V13Z" fill="black"/>
</g>
<defs>
<clipPath id="clip0_221_19755">
<rect width="24" height="24" fill="white"/>
</clipPath>
</defs>
</svg>
