<svg width="24" height="24" viewBox="0 0 24 24" fill="none" xmlns="http://www.w3.org/2000/svg">
<path d="M6.23129 3.3767V21.2802H7.07741C7.45569 21.2802 7.75438 21.5848 7.75438 21.9591C7.75438 22.3334 7.45569 22.6379 7.07741 22.6379H2.67741C2.29914 22.6379 1.9906 22.3334 1.9906 21.9591C1.9906 21.5848 2.29914 21.2802 2.67741 21.2802H4.86751V3.3767C4.86751 2.78241 5.10633 2.21304 5.52443 1.79395C5.95248 1.37386 6.51998 1.13794 7.1073 1.13794H17.5298C18.1271 1.13794 18.6944 1.37386 19.1125 1.79395C19.5306 2.21304 19.7696 2.78241 19.7696 3.3767V8.37097C19.7696 8.74527 19.4709 9.04989 19.0926 9.04989C18.7143 9.04989 18.4158 8.74527 18.4158 8.37097V3.3767C18.4158 3.14277 18.3162 2.91881 18.1569 2.75356C17.9877 2.58832 17.7687 2.49577 17.5298 2.49577H7.1073C6.87835 2.49577 6.64939 2.58832 6.49012 2.75356C6.32089 2.91881 6.23129 3.14277 6.23129 3.3767Z" fill="black"/>
<path d="M14.1253 16.5776C15.0112 16.5776 15.7379 17.2993 15.7379 18.1892V21.0263C15.7379 21.9163 15.0112 22.6379 14.1253 22.6379H11.2882C10.3923 22.6379 9.67556 21.9163 9.67556 21.0263V18.1892C9.67556 17.2993 10.3923 16.5776 11.2882 16.5776H14.1253Z" fill="black"/>
<path d="M20.3967 16.5776C21.2926 16.5776 22.0094 17.2993 22.0094 18.1892V21.0263C22.0094 21.9163 21.2926 22.6379 20.3967 22.6379H17.5597C16.6737 22.6379 15.947 21.9163 15.947 21.0263V18.1892C15.947 17.2993 16.6737 16.5776 17.5597 16.5776H20.3967Z" fill="black"/>
<path d="M17.3208 10.3878C18.2167 10.3878 18.9334 11.1095 18.9334 11.9995V14.8365C18.9334 15.7265 18.2167 16.4482 17.3208 16.4482H14.4836C13.5976 16.4482 12.871 15.7265 12.871 14.8365V11.9995C12.871 11.1095 13.5976 10.3878 14.4836 10.3878H17.3208Z" fill="black"/>
</svg>
