<svg width="24" height="24" viewBox="0 0 24 24" fill="none" xmlns="http://www.w3.org/2000/svg">
<path d="M14.8118 16.6584C15.7078 16.6584 16.4329 17.3845 16.4329 18.2806V21.1339C16.4329 22.03 15.7078 22.755 14.8118 22.755H11.9585C11.0624 22.755 10.3364 22.03 10.3364 21.1339V18.2806C10.3364 17.3845 11.0624 16.6584 11.9585 16.6584H14.8118Z" fill="black"/>
<path d="M21.1244 16.6584C22.0194 16.6584 22.7455 17.3845 22.7455 18.2806V21.1339C22.7455 22.03 22.0194 22.755 21.1244 22.755H18.2701C17.375 22.755 16.649 22.03 16.649 21.1339V18.2806C16.649 17.3845 17.375 16.6584 18.2701 16.6584H21.1244Z" fill="black"/>
<path d="M8.92223 21.2759C9.07424 21.4289 9.16029 21.6359 9.16029 21.8509V21.8529C9.16029 22.295 8.80123 22.654 8.35919 22.654H6.26701C5.82297 22.654 5.45889 22.289 5.45889 21.8459C5.45889 21.4029 5.82297 21.0379 6.26701 21.0379H8.34716C8.56218 21.0379 8.76921 21.1238 8.92223 21.2759Z" fill="black"/>
<path d="M18.0301 10.4319C18.9262 10.4319 19.6513 11.1579 19.6513 12.053V14.9073C19.6513 15.8024 18.9262 16.5284 18.0301 16.5284H15.1758C14.2807 16.5284 13.5547 15.8024 13.5547 14.9073V12.053C13.5547 11.1579 14.2807 10.4319 15.1758 10.4319H18.0301Z" fill="black"/>
<path d="M10.1034 15.6483C9.95535 15.5003 9.87233 15.2993 9.87233 15.0893V2.87118H6.37102C5.33293 2.87118 4.63482 2.87417 4.11477 2.94217C3.61772 3.01018 3.4067 3.12519 3.26569 3.2652C3.12468 3.40522 3.00867 3.61821 2.94266 4.11526C2.87266 4.63531 2.86966 5.33339 2.86966 6.37249V7.3956C2.86966 7.83864 2.50562 8.20365 2.06258 8.20365C1.61853 8.20365 1.25452 7.83864 1.25452 7.3956V6.31645C1.25452 5.34836 1.25452 4.54033 1.34052 3.90027C1.43053 3.22421 1.63153 2.61314 2.12258 2.12209C2.61262 1.63204 3.22372 1.43202 3.89978 1.34101C4.53984 1.255 5.3479 1.255 6.31499 1.255H15.0448C16.0139 1.255 16.821 1.255 17.46 1.34101C18.1371 1.43202 18.7481 1.63202 19.2382 2.12307C19.7292 2.61311 19.9292 3.22419 20.0203 3.90125C20.1063 4.54029 20.1063 5.34833 20.1063 6.31639V7.3956C20.1063 7.83864 19.7412 8.20365 19.2982 8.20365C18.8552 8.20365 18.4901 7.83864 18.4901 7.3956V6.37249C18.4901 5.33339 18.4882 4.63531 18.4191 4.11526C18.3511 3.61821 18.2361 3.40719 18.0961 3.26618C17.9561 3.12517 17.7431 3.01016 17.246 2.94315C16.726 2.87314 16.0279 2.87118 14.9888 2.87118H11.4884V15.0893C11.4884 15.2993 11.4044 15.5003 11.2564 15.6483C11.1084 15.7973 10.9074 15.8804 10.6974 15.8804H10.6634C10.4534 15.8804 10.2524 15.7973 10.1034 15.6483Z" fill="black"/>
</svg>
