<svg width="24" height="24" viewBox="0 0 24 24" fill="none" xmlns="http://www.w3.org/2000/svg">
<path d="M12.906 5.57998H17.016V2.14726C15.9156 2.03939 14.5719 2.02361 12.906 2.0213V5.57998Z" fill="black"/>
<path d="M11.466 2.021C9.64122 2.02194 8.18994 2.03241 7.01603 2.14824V5.57998H11.466V2.021Z" fill="black"/>
<path d="M5.58598 2.37859C4.70902 2.59306 4.03444 2.93613 3.48492 3.4849C2.9373 4.0329 2.59452 4.7057 2.37996 5.57998H5.58598V2.37859Z" fill="black"/>
<path d="M2.14822 7.01602C2.03602 8.15353 2.02271 9.55145 2.02113 11.297H5.58598V7.01602H2.14822Z" fill="black"/>
<path d="M2.02112 12.733C2.02264 14.478 2.03567 15.8761 2.14704 17.014H5.58598V12.733H2.02112Z" fill="black"/>
<path d="M2.37727 18.451C2.59165 19.3305 2.935 20.0064 3.48492 20.5559C4.03416 21.1051 4.70878 21.4485 5.58598 21.6631V18.451H2.37727Z" fill="black"/>
<path d="M7.01603 21.8935C8.19 22.0094 9.64136 22.0199 11.466 22.0208V18.451H7.01603V21.8935Z" fill="black"/>
<path d="M12.906 22.0205C14.5717 22.0182 15.9156 22.0024 17.016 21.8945V18.451H12.906V22.0205Z" fill="black"/>
<path d="M18.456 21.6631C19.3331 21.4485 20.0074 21.1052 20.5559 20.5559C21.1061 20.0061 21.4497 19.3303 21.6642 18.451H18.456V21.6631Z" fill="black"/>
<path d="M21.8947 17.014C22.0061 15.8761 22.0192 14.4781 22.0207 12.733H18.456V17.014H21.8947Z" fill="black"/>
<path d="M22.0207 11.297C22.0191 9.55133 22.0058 8.15347 21.8935 7.01602H18.456V11.297H22.0207Z" fill="black"/>
<path d="M21.6615 5.57998C21.4468 4.70594 21.1038 4.03318 20.5559 3.4849C20.0071 2.93611 19.3328 2.59304 18.456 2.37857V5.57998H21.6615Z" fill="black"/>
<path d="M7.01603 17.014V12.733H11.466V17.014H7.01603Z" fill="black"/>
<path d="M12.906 17.014V12.733H17.016V17.014H12.906Z" fill="black"/>
<path d="M7.01603 11.297V7.01602H11.466V11.297H7.01603Z" fill="black"/>
<path d="M12.906 11.297V7.01602H17.016V11.297H12.906Z" fill="black"/>
</svg>
