<svg width="24" height="24" viewBox="0 0 24 24" fill="none" xmlns="http://www.w3.org/2000/svg">
<path fill-rule="evenodd" clip-rule="evenodd" d="M22.75 17.6188C22.75 20.1978 20.6606 22.2931 18.0786 22.3019H18.0492L18.0345 22.301H17.9913L17.9334 22.3L17.8677 22.2971L17.8079 22.2951L17.7039 22.2882L17.6647 22.2843L17.6077 22.2794L17.5558 22.2745L17.4969 22.2676L17.4498 22.2618C15.2406 21.9714 13.5142 20.1399 13.3886 17.8837L13.3817 17.8768L13.3837 17.7601C13.3817 17.713 13.3808 17.6659 13.3808 17.6188C13.3808 17.5187 13.3846 17.4196 13.3905 17.3205L13.4651 12.8238H10.531L10.6026 17.1803L10.6055 17.3167C10.6095 17.3793 10.6114 17.442 10.6134 17.5046L10.6134 17.5129L10.6144 17.5609V17.8768C10.6154 17.9464 10.6085 18.0092 10.5938 18.0661C10.3888 20.2272 8.71128 21.9635 6.57668 22.2578L6.55022 22.2607L6.49921 22.2676L6.45208 22.2725C6.4408 22.274 6.42953 22.2752 6.41826 22.2765C6.40698 22.2777 6.39571 22.2789 6.38443 22.2804L6.34521 22.2833L6.27749 22.2892L6.21768 22.2931L6.15882 22.2961L6.11661 22.298L6.05973 22.3L5.99303 22.301L5.9322 22.3019C3.34831 22.3019 1.25 20.2036 1.25 17.6188V17.5952L1.25096 17.5285L1.25198 17.4628C1.26767 17.0057 1.34809 16.5652 1.48542 16.1502L4.75502 4.39724C4.69812 4.60423 4.70403 4.64345 4.74622 4.44137C5.01795 3.1455 6.1676 2.17041 7.54293 2.17041C9.11445 2.17041 10.3907 3.44177 10.4015 5.01035V5.01328C10.4015 5.0146 10.4015 5.01588 10.4015 5.01717C10.4015 5.1059 10.4022 5.15169 10.4026 5.15246C10.403 5.15324 10.4029 5.10882 10.4015 5.01717L10.4633 8.75864H13.5328L13.5946 5.01717V5.01035C13.6044 3.44177 14.8816 2.17041 16.4522 2.17041C17.8 2.17041 18.9311 3.10627 19.2283 4.36191L19.2382 4.35796L22.5244 16.1768V16.2023C22.6519 16.5976 22.7304 17.0145 22.7402 17.4462V17.4834L22.75 17.5276V17.6188ZM9.23903 17.7316L9.23317 17.3795C9.11055 15.6647 7.67833 14.31 5.9322 14.31C4.13113 14.31 2.66358 15.752 2.62435 17.5442L2.62339 17.5864V17.6188C2.62339 19.4454 4.10563 20.9286 5.9322 20.9286L5.96357 20.9276H6.00578L6.11074 20.9237L6.15487 20.9208C6.17642 20.9198 6.19702 20.9178 6.2176 20.9159L6.23827 20.9139L6.28043 20.91L6.32264 20.9051C7.92849 20.7167 9.1841 19.3747 9.23903 17.7316ZM21.3767 17.5541C21.3374 15.7579 19.866 14.31 18.0639 14.31C16.3178 14.31 14.8865 15.6647 14.7629 17.3795L14.757 17.7483C14.8198 19.3806 16.0676 20.7108 17.6627 20.9041L17.7039 20.909L17.7451 20.9129L17.7882 20.9168C17.7975 20.9173 17.8067 20.9181 17.8158 20.9189C17.8241 20.9196 17.8323 20.9203 17.8402 20.9208L17.8717 20.9227L17.9128 20.9247L17.9648 20.9266L18.0168 20.9276L18.0639 20.9286C19.8954 20.9286 21.3767 19.4454 21.3767 17.6188V17.5541ZM13.4877 11.4504H10.5075L10.5035 11.1689L10.4858 10.132H13.5102L13.4877 11.4504Z" fill="black"/>
</svg>
