<svg width="24" height="24" viewBox="0 0 24 24" fill="none" xmlns="http://www.w3.org/2000/svg">
<g clip-path="url(#clip0_221_19692)">
<path fill-rule="evenodd" clip-rule="evenodd" d="M9.778 20.9999H14.222C17.343 20.9999 18.904 20.9999 20.025 20.2649C20.5088 19.9481 20.9254 19.5389 21.251 19.0609C22 17.9609 22 16.4279 22 13.3639C22 10.2999 22 8.76692 21.251 7.66692C20.9254 7.18892 20.5088 6.77978 20.025 6.46292C19.305 5.98992 18.403 5.82092 17.022 5.76092C16.363 5.76092 15.796 5.27092 15.667 4.63592C15.5684 4.17079 15.3123 3.75396 14.9418 3.45588C14.5714 3.15779 14.1095 2.99673 13.634 2.99992H10.366C9.378 2.99992 8.527 3.68492 8.333 4.63592C8.204 5.27092 7.637 5.76092 6.978 5.76092C5.598 5.82092 4.696 5.99092 3.975 6.46292C3.49154 6.77989 3.07527 7.18901 2.75 7.66692C2 8.76692 2 10.2989 2 13.3639C2 16.4289 2 17.9599 2.749 19.0609C3.073 19.5369 3.489 19.9459 3.975 20.2649C5.096 20.9999 6.657 20.9999 9.778 20.9999ZM12 9.27292C9.699 9.27292 7.833 11.1039 7.833 13.3629C7.833 15.6219 9.7 17.4559 12 17.4559C14.3 17.4559 16.167 15.6239 16.167 13.3649C16.167 11.1059 14.3 9.27292 12 9.27292ZM12 10.9089C10.62 10.9089 9.5 12.0079 9.5 13.3639C9.5 14.7189 10.62 15.8179 12 15.8179C13.38 15.8179 14.5 14.7189 14.5 13.3639C14.5 12.0089 13.38 10.9089 12 10.9089ZM16.722 10.0909C16.722 9.63892 17.095 9.27292 17.556 9.27292H18.666C19.126 9.27292 19.5 9.63892 19.5 10.0909C19.4979 10.3098 19.409 10.5189 19.2528 10.6723C19.0966 10.8257 18.8859 10.9108 18.667 10.9089H17.556C17.4475 10.91 17.3399 10.8897 17.2393 10.8491C17.1387 10.8086 17.047 10.7486 16.9696 10.6727C16.8921 10.5967 16.8304 10.5062 16.7879 10.4064C16.7454 10.3066 16.723 10.1994 16.722 10.0909Z" fill="black"/>
</g>
<defs>
<clipPath id="clip0_221_19692">
<rect width="24" height="24" fill="white"/>
</clipPath>
</defs>
</svg>
