<svg width="24" height="24" viewBox="0 0 24 24" fill="none" xmlns="http://www.w3.org/2000/svg">
<g clip-path="url(#clip0_221_19708)">
<path fill-rule="evenodd" clip-rule="evenodd" d="M20 9.80101V13.868C20 17.701 20 19.618 18.828 20.809C17.656 22 15.771 22 12 22C8.229 22 6.343 22 5.172 20.809C4 19.619 4 17.701 4 13.868V9.80001C4 5.96701 4 4.05001 5.172 2.86001C5.547 2.47701 5.997 2.21801 6.558 2.04101C6.911 1.93101 7.286 2.08801 7.5 2.39101L7.654 2.62701C8.288 3.59701 8.509 3.93401 9.022 4.25801C9.132 4.32801 9.246 4.39001 9.364 4.44401C9.955 4.71801 10.637 4.71801 12 4.71801C13.363 4.71801 14.044 4.71801 14.636 4.44401C14.754 4.39001 14.868 4.32801 14.978 4.25801C15.491 3.93401 15.712 3.59601 16.346 2.62701L16.5 2.39201C16.7 2.08701 17.064 1.92501 17.41 2.03201C17.987 2.20801 18.446 2.47001 18.828 2.85901C20 4.05101 20 5.96801 20 9.80101ZM9 18.23C8.90109 18.23 8.80315 18.2496 8.71183 18.2876C8.62051 18.3256 8.5376 18.3813 8.46789 18.4514C8.39818 18.5216 8.34304 18.6049 8.30565 18.6965C8.26825 18.788 8.24934 18.8861 8.25 18.985C8.25 19.401 8.586 19.739 9 19.739H15C15.414 19.739 15.75 19.401 15.75 18.984C15.7505 18.8852 15.7315 18.7872 15.6941 18.6958C15.6566 18.6043 15.6014 18.5212 15.5317 18.4511C15.4621 18.381 15.3792 18.3254 15.2879 18.2875C15.1967 18.2495 15.0988 18.23 15 18.23H9Z" fill="black"/>
</g>
<defs>
<clipPath id="clip0_221_19708">
<rect width="24" height="24" fill="white"/>
</clipPath>
</defs>
</svg>
