<svg width="24" height="24" viewBox="0 0 24 24" fill="none" xmlns="http://www.w3.org/2000/svg">
<g clip-path="url(#clip0_221_19807)">
<path fill-rule="evenodd" clip-rule="evenodd" d="M12 22C7.757 22 5.636 22 4.318 20.535C3 19.072 3 16.714 3 12C3 7.286 3 4.929 4.318 3.464C5.636 1.999 7.758 2 12 2C16.242 2 18.364 2 19.682 3.464C21 4.93 21 7.286 21 12C21 16.714 21 19.071 19.682 20.535C18.364 21.999 16.242 22 12 22ZM15 6H9C8.535 6 8.303 6 8.112 6.051C7.85787 6.11919 7.62614 6.25303 7.44009 6.43909C7.25403 6.62514 7.12019 6.85687 7.052 7.111C7 7.304 7 7.536 7 8C7 8.464 7 8.697 7.051 8.888C7.11919 9.14213 7.25303 9.37386 7.43909 9.55991C7.62514 9.74597 7.85687 9.87981 8.111 9.948C8.304 10 8.536 10 9 10H15C15.465 10 15.697 10 15.888 9.949C16.1421 9.88081 16.3739 9.74697 16.5599 9.56091C16.746 9.37486 16.8798 9.14313 16.948 8.889C17 8.696 17 8.464 17 8C17 7.536 17 7.303 16.949 7.112C16.8808 6.85787 16.747 6.62614 16.5609 6.44009C16.3749 6.25403 16.1431 6.12019 15.889 6.052C15.697 6 15.464 6 15 6ZM9 13C9 13.2652 8.89464 13.5196 8.70711 13.7071C8.51957 13.8946 8.26522 14 8 14C7.73478 14 7.48043 13.8946 7.29289 13.7071C7.10536 13.5196 7 13.2652 7 13C7 12.7348 7.10536 12.4804 7.29289 12.2929C7.48043 12.1054 7.73478 12 8 12C8.26522 12 8.51957 12.1054 8.70711 12.2929C8.89464 12.4804 9 12.7348 9 13ZM12 14C12.2652 14 12.5196 13.8946 12.7071 13.7071C12.8946 13.5196 13 13.2652 13 13C13 12.7348 12.8946 12.4804 12.7071 12.2929C12.5196 12.1054 12.2652 12 12 12C11.7348 12 11.4804 12.1054 11.2929 12.2929C11.1054 12.4804 11 12.7348 11 13C11 13.2652 11.1054 13.5196 11.2929 13.7071C11.4804 13.8946 11.7348 14 12 14ZM17 13C17 13.2652 16.8946 13.5196 16.7071 13.7071C16.5196 13.8946 16.2652 14 16 14C15.7348 14 15.4804 13.8946 15.2929 13.7071C15.1054 13.5196 15 13.2652 15 13C15 12.7348 15.1054 12.4804 15.2929 12.2929C15.4804 12.1054 15.7348 12 16 12C16.2652 12 16.5196 12.1054 16.7071 12.2929C16.8946 12.4804 17 12.7348 17 13ZM16 18C16.2652 18 16.5196 17.8946 16.7071 17.7071C16.8946 17.5196 17 17.2652 17 17C17 16.7348 16.8946 16.4804 16.7071 16.2929C16.5196 16.1054 16.2652 16 16 16C15.7348 16 15.4804 16.1054 15.2929 16.2929C15.1054 16.4804 15 16.7348 15 17C15 17.2652 15.1054 17.5196 15.2929 17.7071C15.4804 17.8946 15.7348 18 16 18ZM13 17C13 17.2652 12.8946 17.5196 12.7071 17.7071C12.5196 17.8946 12.2652 18 12 18C11.7348 18 11.4804 17.8946 11.2929 17.7071C11.1054 17.5196 11 17.2652 11 17C11 16.7348 11.1054 16.4804 11.2929 16.2929C11.4804 16.1054 11.7348 16 12 16C12.2652 16 12.5196 16.1054 12.7071 16.2929C12.8946 16.4804 13 16.7348 13 17ZM8 18C8.26522 18 8.51957 17.8946 8.70711 17.7071C8.89464 17.5196 9 17.2652 9 17C9 16.7348 8.89464 16.4804 8.70711 16.2929C8.51957 16.1054 8.26522 16 8 16C7.73478 16 7.48043 16.1054 7.29289 16.2929C7.10536 16.4804 7 16.7348 7 17C7 17.2652 7.10536 17.5196 7.29289 17.7071C7.48043 17.8946 7.73478 18 8 18Z" fill="black"/>
</g>
<defs>
<clipPath id="clip0_221_19807">
<rect width="24" height="24" fill="white"/>
</clipPath>
</defs>
</svg>
