<svg width="24" height="24" viewBox="0 0 24 24" fill="none" xmlns="http://www.w3.org/2000/svg">
<path d="M14.3737 16.7179C15.2909 16.7179 16.0386 17.4646 16.0386 18.3858V21.3227C16.0386 22.2439 15.2909 22.9906 14.3737 22.9906H11.4328C10.5156 22.9906 9.76783 22.2439 9.76783 21.3227V18.3858C9.76783 17.4646 10.5156 16.7179 11.4328 16.7179H14.3737Z" fill="black"/>
<path d="M20.8638 16.7179C21.7909 16.7179 22.5387 17.4646 22.5387 18.3858V21.3227C22.5387 22.2439 21.7909 22.9906 20.8638 22.9906H17.9328C17.0057 22.9906 16.2579 22.2439 16.2579 21.3227V18.3858C16.2579 17.4646 17.0057 16.7179 17.9328 16.7179H20.8638Z" fill="black"/>
<path d="M7.70422 17.6011L2.63981 22.2449C2.35069 22.5071 1.91204 22.4882 1.64286 22.2021C1.38366 21.9169 1.40353 21.4722 1.69264 21.2101L6.7472 16.5663C7.03631 16.3042 7.48493 16.3231 7.74414 16.6092C8.00334 16.8953 7.98336 17.3399 7.70422 17.6011Z" fill="black"/>
<path d="M17.6836 10.3105C18.6008 10.3105 19.3485 11.0573 19.3485 11.9784V14.9154C19.3485 15.8366 18.6008 16.5833 17.6836 16.5833H14.7427C13.8255 16.5833 13.0777 15.8366 13.0777 14.9154V11.9784C13.0777 11.0573 13.8255 10.3105 14.7427 10.3105H17.6836Z" fill="black"/>
<path fill-rule="evenodd" clip-rule="evenodd" d="M13.1674 7.81421L15.0616 5.89311C14.8124 5.46143 14.6728 4.95895 14.6728 4.42459C14.6728 2.80556 15.9888 1.4906 17.6039 1.4906C19.2289 1.4906 20.5348 2.80556 20.5348 4.42459C20.5348 6.04262 19.2289 7.35761 17.6039 7.35761C17.0356 7.35761 16.4972 7.19211 16.0386 6.90599L13.6759 9.3036C13.5463 9.43619 13.3569 9.512 13.1774 9.512C12.988 9.513 12.8085 9.43923 12.6789 9.30664L7.83383 4.46846C3.97567 9.00554 8.34228 13.8855 8.34228 13.8855C8.60148 14.1747 8.57151 14.6193 8.2824 14.8775C7.99329 15.1347 7.54467 15.1088 7.29544 14.8187C7.29544 14.8187 1.73253 8.54099 7.3154 2.95912C7.58457 2.68496 8.0332 2.68392 8.31234 2.95808L13.1674 7.81421ZM19.1291 4.42459C19.1291 3.58018 18.4513 2.89529 17.6039 2.89529C16.7665 2.89529 16.0785 3.58018 16.0785 4.42459C16.0785 5.268 16.7665 5.95292 17.6039 5.95292C18.4513 5.95292 19.1291 5.268 19.1291 4.42459Z" fill="black"/>
</svg>
