<svg width="24" height="24" viewBox="0 0 24 24" fill="none" xmlns="http://www.w3.org/2000/svg">
<g clip-path="url(#clip0_221_19771)">
<path d="M12.586 21.414C13.172 22 14.114 22 16 22H18C19.886 22 20.828 22 21.414 21.414C22 20.828 22 19.886 22 18V6C22 4.114 22 3.172 21.414 2.586C20.828 2 19.886 2 18 2H16C14.114 2 13.172 2 12.586 2.586C12.083 3.088 12.012 3.853 12.002 5.25H14C14.1989 5.25 14.3897 5.32902 14.5303 5.46967C14.671 5.61032 14.75 5.80109 14.75 6C14.75 6.19891 14.671 6.38968 14.5303 6.53033C14.3897 6.67098 14.1989 6.75 14 6.75H12V8.25H15C15.1989 8.25 15.3897 8.32902 15.5303 8.46967C15.671 8.61032 15.75 8.80109 15.75 9C15.75 9.19891 15.671 9.38968 15.5303 9.53033C15.3897 9.67098 15.1989 9.75 15 9.75H12V11.25H14C14.1989 11.25 14.3897 11.329 14.5303 11.4697C14.671 11.6103 14.75 11.8011 14.75 12C14.75 12.1989 14.671 12.3897 14.5303 12.5303C14.3897 12.671 14.1989 12.75 14 12.75H12V14.25H15C15.1989 14.25 15.3897 14.329 15.5303 14.4697C15.671 14.6103 15.75 14.8011 15.75 15C15.75 15.1989 15.671 15.3897 15.5303 15.5303C15.3897 15.671 15.1989 15.75 15 15.75H12V17.25H14C14.1989 17.25 14.3897 17.329 14.5303 17.4697C14.671 17.6103 14.75 17.8011 14.75 18C14.75 18.1989 14.671 18.3897 14.5303 18.5303C14.3897 18.671 14.1989 18.75 14 18.75H12.002C12.012 20.147 12.083 20.912 12.586 21.414ZM8 15.194V7.214C7.04796 7.60415 6.02888 7.80457 5 7.804C3.97112 7.80457 2.95204 7.60415 2 7.214V15.194C2 15.816 2 16.128 2.038 16.433C2.0827 16.7934 2.16653 17.1478 2.288 17.49C2.39 17.78 2.529 18.059 2.808 18.616L4.276 21.553C4.34311 21.6876 4.4464 21.8008 4.57429 21.88C4.70218 21.9591 4.8496 22.001 5 22.001C5.1504 22.001 5.29782 21.9591 5.42571 21.88C5.5536 21.8008 5.65689 21.6876 5.724 21.553L7.192 18.616C7.471 18.059 7.61 17.78 7.712 17.49C7.83347 17.1478 7.9173 16.7934 7.962 16.433C8 16.128 8 15.816 8 15.193M8 5C8 4.20435 7.68393 3.44129 7.12132 2.87868C6.55871 2.31607 5.79565 2 5 2C4.20435 2 3.44129 2.31607 2.87868 2.87868C2.31607 3.44129 2 4.20435 2 5V5.957L2.08 5.997C2.761 6.327 3.755 6.659 5 6.659C6.04096 6.66123 7.06811 6.42087 8 5.957V5Z" fill="black"/>
</g>
<defs>
<clipPath id="clip0_221_19771">
<rect width="24" height="24" fill="white"/>
</clipPath>
</defs>
</svg>
