<svg width="24" height="24" viewBox="0 0 24 24" fill="none" xmlns="http://www.w3.org/2000/svg">
<path fill-rule="evenodd" clip-rule="evenodd" d="M9.51815 7.65909L11.5623 9.69916L1.81951 19.4369C1.4534 19.801 1.25 20.2952 1.25 20.8098C1.25 21.3244 1.4534 21.8177 1.81951 22.1818C2.18563 22.5459 2.68393 22.7502 3.19243 22.7502C3.71109 22.7502 4.19929 22.5459 4.5654 22.1818L14.3081 12.4441L16.3421 14.4841C16.3116 14.6092 16.3015 14.7374 16.3015 14.8675C16.3015 15.3272 16.4845 15.7676 16.81 16.092V16.093C17.1354 16.4175 17.5727 16.5995 18.0304 16.5995C18.488 16.5995 18.9355 16.4175 19.2609 16.093L22.2509 13.1041C22.5764 12.7786 22.7492 12.3383 22.7492 11.8786C22.7492 11.4199 22.5764 10.9796 22.2509 10.6541C21.9255 10.3297 21.478 10.1466 21.0203 10.1466C20.8881 10.1466 20.7661 10.1619 20.6339 10.1904L18.5999 8.15033L19.1592 7.5859C19.5253 7.22284 19.7287 6.72858 19.7287 6.21398C19.7287 5.69938 19.5253 5.20608 19.1592 4.842C18.7931 4.47893 18.305 4.27354 17.7863 4.27354C17.2778 4.27354 16.7794 4.47794 16.4133 4.84101L15.854 5.40543L13.8098 3.36536C13.8403 3.24027 13.8505 3.11212 13.8505 2.98194C13.8505 2.52226 13.6776 2.08192 13.3522 1.7575C13.0267 1.43207 12.5793 1.25 12.1217 1.25C11.664 1.25 11.2267 1.43207 10.9012 1.7575L7.91129 4.74541C7.58585 5.07085 7.40279 5.51123 7.40279 5.97091C7.40279 6.42957 7.58585 6.86991 7.91129 7.19535C8.23672 7.51977 8.67404 7.70285 9.13169 7.70285C9.2639 7.70285 9.39611 7.68756 9.51815 7.65909ZM12.5691 10.706L13.3013 11.4372L3.55853 21.175C3.467 21.2726 3.33481 21.3265 3.19243 21.3265C3.06022 21.3265 2.92802 21.2726 2.82633 21.175C2.7348 21.0783 2.67375 20.9461 2.67375 20.8098C2.67375 20.6726 2.7348 20.5413 2.82633 20.4437L12.5691 10.706ZM17.8168 14.6499L20.8067 11.6609C20.8576 11.603 20.939 11.5704 21.0203 11.5704C21.1017 11.5704 21.183 11.603 21.244 11.6609C21.2949 11.7189 21.3254 11.7972 21.3254 11.8786C21.3254 11.961 21.2949 12.0393 21.244 12.0973L18.2541 15.0862C18.1931 15.1432 18.1117 15.1757 18.0304 15.1757C17.949 15.1757 17.8778 15.1432 17.8168 15.0862V15.0852C17.7558 15.0282 17.7253 14.9499 17.7253 14.8675C17.7253 14.7862 17.7558 14.7079 17.8168 14.6499ZM18.1524 6.57903L17.5931 7.14345L16.8608 6.41224L17.4201 5.84782C17.5218 5.7512 17.6541 5.69729 17.7863 5.69729C17.9287 5.69729 18.0609 5.7512 18.1524 5.84782V5.84887C18.2541 5.94549 18.3049 6.07669 18.3049 6.21398C18.3049 6.35128 18.2541 6.48242 18.1524 6.57903ZM12.3454 3.19957L9.3554 6.18853C9.29438 6.2465 9.21305 6.27903 9.13169 6.27903C9.05033 6.27903 8.97912 6.2465 8.9181 6.18853C8.85708 6.13056 8.82661 6.05227 8.82661 5.97091C8.82661 5.88853 8.85708 5.8102 8.9181 5.75223L11.9081 2.76432C11.9691 2.70635 12.0403 2.67381 12.1217 2.67381C12.203 2.67381 12.2843 2.70635 12.3454 2.76432C12.3962 2.82127 12.4267 2.90058 12.4267 2.98194C12.4267 3.0633 12.3962 3.1416 12.3454 3.19957Z" fill="black"/>
<path d="M22.0481 22.746H9.66519C9.28418 22.746 8.96338 22.4322 8.96338 22.0441C8.96338 21.6571 9.28418 21.3423 9.66519 21.3423H9.95601C9.95601 21.207 9.95603 21.0615 9.97608 20.9111C10.0262 20.3988 10.2067 19.8443 10.6078 19.4032C11.0189 18.9389 11.6805 18.5709 12.7634 18.5709H18.9499C20.0328 18.5709 20.6945 18.9389 21.1157 19.4032C21.5067 19.8443 21.6872 20.3988 21.7473 20.9111L21.7484 20.9274C21.7581 21.072 21.7674 21.2118 21.7674 21.3423H22.0481C22.4391 21.3423 22.75 21.6571 22.75 22.0441C22.75 22.4322 22.4391 22.746 22.0481 22.746Z" fill="black"/>
</svg>
