<svg width="24" height="24" viewBox="0 0 24 24" fill="none" xmlns="http://www.w3.org/2000/svg">
<g clip-path="url(#clip0_221_19687)">
<path d="M16.25 2H13C7.477 2 3 6.477 3 12C3 17.523 7.477 22 13 22H16.25V17H13C11.6739 17 10.4021 16.4732 9.46447 15.5355C8.52678 14.5979 8 13.3261 8 12C8 10.6739 8.52678 9.40215 9.46447 8.46447C10.4021 7.52678 11.6739 7 13 7H16.25V2ZM17.75 7H19.5C19.8978 7 20.2794 6.84196 20.5607 6.56066C20.842 6.27936 21 5.89782 21 5.5V3.5C21 3.10218 20.842 2.72064 20.5607 2.43934C20.2794 2.15804 19.8978 2 19.5 2H17.75V7ZM17.75 17V22H19.5C19.8978 22 20.2794 21.842 20.5607 21.5607C20.842 21.2794 21 20.8978 21 20.5V18.5C21 18.1022 20.842 17.7206 20.5607 17.4393C20.2794 17.158 19.8978 17 19.5 17H17.75Z" fill="black"/>
</g>
<defs>
<clipPath id="clip0_221_19687">
<rect width="24" height="24" fill="white"/>
</clipPath>
</defs>
</svg>
