<svg width="24" height="24" viewBox="0 0 24 24" fill="none" xmlns="http://www.w3.org/2000/svg">
<path d="M19.3281 4.39299C19.3281 4.39299 19.1412 3.37024 18.1138 2.56138C17.488 2.06448 16.5353 1.63204 15.0783 1.63204H10.6978C10.3522 1.5816 8.68962 1.44619 6.96168 3.17319L3.12287 7.1409C2.82399 7.35759 1.56302 8.42047 1.56302 10.6715V15.0362C1.55368 15.1623 1.5537 16.1813 1.93665 17.1993C2.37564 18.3799 3.30968 19.5503 5.22442 19.5503C5.58869 19.5503 5.87819 19.257 5.87819 18.8965C5.87819 18.535 5.58869 18.2426 5.22442 18.2426C4.01019 18.2426 3.44036 17.4861 3.16016 16.7398C2.84259 15.901 2.87067 15.0632 2.87067 15.0632V10.6715C2.87067 8.92111 3.90742 8.18511 3.90742 8.18511C3.94478 8.15896 3.98214 8.12815 4.0195 8.09453L7.8957 4.09507C9.25003 2.73514 10.511 2.92846 10.511 2.92846C10.5577 2.93593 10.595 2.93969 10.6417 2.93969H15.0783C17.6281 2.93969 18.0485 4.65267 18.0485 4.65267C18.1232 5.00666 18.4688 5.23549 18.8143 5.16357C19.1693 5.09165 19.4028 4.74605 19.3281 4.39299Z" fill="black"/>
<path fill-rule="evenodd" clip-rule="evenodd" d="M21.2576 21.2576C22.4166 20.0971 22.4166 18.2319 22.4166 14.5C22.4166 14.2301 22.4166 14.0946 22.4048 13.9569C22.3463 13.3096 22.0919 12.6954 21.6756 12.1962C21.554 12.0577 21.4265 11.9246 21.2933 11.7972L17.2027 7.70668C17.0747 7.57411 16.9416 7.44656 16.8037 7.32431C16.3045 6.90829 15.6903 6.65424 15.0431 6.59598C14.9053 6.58331 14.7707 6.58331 14.5 6.58331C10.7681 6.58331 8.9021 6.58331 7.74231 7.74231C6.58331 8.90289 6.58331 10.7681 6.58331 14.5C6.58331 18.2319 6.58331 20.0979 7.74231 21.2569C8.2846 21.7991 8.97968 22.0881 9.94789 22.2409V21.5838C9.94789 20.8721 9.94789 20.2791 10.0112 19.8089C10.0777 19.3117 10.225 18.8629 10.5852 18.5026C10.9462 18.1416 11.3951 17.9944 11.8914 17.9279C12.3625 17.8646 12.9562 17.8646 13.6671 17.8646H15.3328C16.0445 17.8646 16.6375 17.8646 17.1077 17.9279C17.6049 17.9944 18.0538 18.1416 18.414 18.5026C18.775 18.8629 18.9222 19.3117 18.9887 19.8089C19.0521 20.2791 19.0521 20.8721 19.0521 21.5838V22.2409C20.0203 22.0873 20.7169 21.7991 21.2576 21.2576ZM9.94789 11.3333C9.94789 11.1758 10.0104 11.0248 10.1218 10.9135C10.2331 10.8021 10.3842 10.7396 10.5416 10.7396H15.2916C15.4491 10.7396 15.6001 10.8021 15.7115 10.9135C15.8228 11.0248 15.8854 11.1758 15.8854 11.3333C15.8854 11.4908 15.8228 11.6418 15.7115 11.7532C15.6001 11.8645 15.4491 11.9271 15.2916 11.9271H10.5416C10.3842 11.9271 10.2331 11.8645 10.1218 11.7532C10.0104 11.6418 9.94789 11.4908 9.94789 11.3333Z" fill="black"/>
<path d="M17.8646 21.625C17.8646 20.8618 17.863 20.3488 17.8116 19.9664C17.7617 19.6015 17.6778 19.4463 17.5749 19.3426C17.4719 19.2389 17.3152 19.1542 16.9502 19.1051C16.5679 19.0536 16.0549 19.0521 15.2917 19.0521H13.7084C12.9452 19.0521 12.4322 19.0536 12.0498 19.1043C11.6849 19.1542 11.5297 19.2389 11.426 19.3418C11.3223 19.4447 11.2376 19.6015 11.1885 19.9664C11.137 20.3488 11.1354 20.8618 11.1354 21.625V22.362C12.0506 22.4166 13.1542 22.4166 14.5 22.4166C15.8459 22.4166 16.9494 22.4166 17.8646 22.362V21.625Z" fill="black"/>
</svg>
