<svg width="24" height="24" viewBox="0 0 24 24" fill="none" xmlns="http://www.w3.org/2000/svg">
<g clip-path="url(#clip0_221_19729)">
<path d="M19 8.974V14.986C19 18.86 15.866 22 12 22C8.134 22 5 18.86 5 14.986V8.974C4.99869 7.24551 5.63603 5.57747 6.78962 4.29025C7.94321 3.00303 9.5317 2.1874 11.25 2V5.385C10.659 5.667 10.25 6.271 10.25 6.97V8.974C10.25 9.943 11.034 10.728 12 10.728C12.966 10.728 13.75 9.943 13.75 8.974V6.97C13.75 6.27 13.341 5.667 12.75 5.385V2C14.4683 2.1874 16.0568 3.00303 17.2104 4.29025C18.364 5.57747 19.0013 7.24551 19 8.974Z" fill="black"/>
</g>
<defs>
<clipPath id="clip0_221_19729">
<rect width="24" height="24" fill="white"/>
</clipPath>
</defs>
</svg>
