<svg width="24" height="24" viewBox="0 0 24 24" fill="none" xmlns="http://www.w3.org/2000/svg">
<path d="M21.1553 16.2798C22.0356 16.2798 22.75 16.9933 22.75 17.8736V20.6804C22.75 21.5607 22.0356 22.2741 21.1553 22.2741H18.3495C17.4682 22.2741 16.7548 21.5607 16.7548 20.6804V17.8736C16.7548 16.9933 17.4682 16.2798 18.3495 16.2798H21.1553Z" fill="black"/>
<path d="M14.9491 16.2798C15.8294 16.2798 16.5429 16.9933 16.5429 17.8736V20.6804C16.5429 21.5607 15.8294 22.2741 14.9491 22.2741H12.1423C11.262 22.2741 10.5476 21.5607 10.5476 20.6804V17.8736C10.5476 16.9933 11.262 16.2798 12.1423 16.2798H14.9491Z" fill="black"/>
<path fill-rule="evenodd" clip-rule="evenodd" d="M12.1193 10.0285C12.3916 9.16545 11.9582 8.23819 11.1211 7.89489L11.0041 7.85942L11.023 7.86282L11.029 7.86422H11.0309L11.023 7.86282L10.9967 7.85663C10.172 7.54512 9.2442 7.90776 8.84646 8.69749C8.80027 8.78204 8.75564 8.87137 8.71261 8.95751L8.69973 8.98329C8.65562 9.07343 8.56449 9.13095 8.4638 9.13382H8.02753C7.92301 9.13862 7.82614 9.08301 7.7782 8.99096L7.63053 8.72055C7.21435 7.91793 6.25156 7.56884 5.41633 7.91789L5.30893 7.97543L5.33193 7.96009L5.30363 7.97781C4.49879 8.34095 4.09839 9.25359 4.37587 10.0937C4.4056 10.1963 4.44014 10.2999 4.47467 10.3996C4.50631 10.4946 4.48331 10.6 4.41426 10.6729L4.10547 10.9817C4.03546 11.0584 3.92713 11.0881 3.8274 11.0565L3.53206 10.9702C2.67094 10.6969 1.74269 11.1313 1.39939 11.9675L1.36387 12.0854L1.36867 12.0576L1.36106 12.0928C1.04959 12.9176 1.41323 13.8444 2.202 14.2421C2.29501 14.2939 2.3938 14.3427 2.48873 14.3888C2.57791 14.4338 2.63545 14.525 2.63833 14.6247V15.062C2.64312 15.1655 2.58746 15.2633 2.4954 15.3113L2.225 15.458C1.42237 15.8752 1.07334 16.8379 1.4224 17.6722L1.48087 17.7806L1.4646 17.7575L1.48373 17.7882L1.48087 17.7806C1.84143 18.5889 2.75626 18.9907 3.5982 18.7136C3.7008 18.6829 3.80438 18.6484 3.90506 18.6148C4 18.5822 4.10452 18.6062 4.1774 18.6752L4.4862 18.984C4.56387 19.054 4.59262 19.1623 4.56193 19.2611L4.47467 19.5565C4.20137 20.4186 4.63578 21.3459 5.47293 21.6892L5.58993 21.7246L5.56306 21.7198L5.5973 21.7274C6.42206 22.0389 7.34884 21.6763 7.74753 20.8875C7.79835 20.7935 7.84721 20.6957 7.8942 20.6008C7.92776 20.5327 7.98915 20.4828 8.06107 20.4636C8.10134 20.4531 8.13012 20.4176 8.133 20.3764L8.13336 20.3631C8.13444 20.3255 8.13581 20.2775 8.12726 20.221C8.14165 19.8653 7.91338 19.5431 7.572 19.4395C7.23062 19.335 6.86239 19.475 6.6754 19.779C6.63992 19.8336 6.60832 19.8902 6.57859 19.9496L6.4376 20.2239C6.37623 20.3486 6.22952 20.4051 6.10006 20.3543C6.06842 20.3418 6.03583 20.3294 6.00226 20.3188C5.89007 20.2575 5.83442 20.1242 5.87373 19.9986L5.96966 19.6725C6.16145 19.0406 5.96771 18.3444 5.46907 17.8946L5.25813 17.6808C4.79209 17.1851 4.0796 17.0067 3.4352 17.2244L3.1408 17.3183C3.00942 17.3634 2.86559 17.2991 2.81093 17.1726L2.80508 17.1596C2.79261 17.1321 2.77996 17.1042 2.76586 17.0776C2.73038 16.9549 2.78597 16.8206 2.902 16.7602L3.20026 16.5982C3.78233 16.2865 4.13806 15.6575 4.10353 14.9862L4.10547 14.686C4.12656 14.0052 3.74875 13.3762 3.13887 13.0741L2.8646 12.9331C2.73994 12.8717 2.68338 12.725 2.7342 12.5956C2.74762 12.5639 2.75912 12.5304 2.76967 12.4968C2.83104 12.3856 2.96533 12.33 3.08999 12.3693L3.416 12.4652C4.04794 12.6569 4.74506 12.4633 5.1948 11.9646L5.40867 11.7527C5.90443 11.2866 6.08185 10.5751 5.86513 9.92976L5.7702 9.63629C5.72609 9.50492 5.78939 9.36108 5.91693 9.30643C5.94853 9.29206 5.98026 9.27764 6.01186 9.26136C6.13365 9.22588 6.26785 9.28057 6.32827 9.39755L6.49133 9.69576C6.80298 10.2778 7.43203 10.6336 8.10233 10.5991L8.4034 10.601C9.08328 10.6221 9.71333 10.2443 10.0154 9.63442L10.1554 9.36016C10.2177 9.23549 10.3635 9.17887 10.4929 9.22969L10.4944 9.23026C10.5265 9.24254 10.5587 9.25483 10.5917 9.26522C10.7039 9.32659 10.7595 9.46083 10.7202 9.58549L10.6233 9.9115C10.6181 9.9294 10.6131 9.94731 10.6081 9.96519C10.595 10.0124 10.582 10.0593 10.5639 10.1052C10.4929 10.4562 10.6646 10.811 10.9849 10.9721C11.3042 11.1332 11.6925 11.0603 11.9323 10.7947L11.9338 10.793C11.983 10.7381 12.0246 10.6917 12.0521 10.6556C12.0799 10.6249 12.0828 10.578 12.0598 10.5435C12.0195 10.4783 12.008 10.3977 12.032 10.3229L12.1193 10.0285ZM5.30363 7.97781L5.30126 7.97929L5.30893 7.97543L5.30363 7.97781Z" fill="black"/>
<path fill-rule="evenodd" clip-rule="evenodd" d="M6.37047 14.0177C6.79719 12.9542 8.00834 12.4383 9.0718 12.865C10.1353 13.2927 10.6511 14.5039 10.2235 15.5664C9.79578 16.6298 8.58559 17.1466 7.52213 16.719C6.45868 16.2913 5.94278 15.0811 6.37047 14.0177ZM8.8618 15.0198C8.98742 14.7071 8.83592 14.3523 8.52426 14.2267C8.21261 14.102 7.8568 14.2536 7.73213 14.5652C7.60651 14.8769 7.75807 15.2317 8.06973 15.3573C8.38138 15.4829 8.73618 15.3314 8.8618 15.0198Z" fill="black"/>
<path d="M18.1136 10.157C18.9939 10.157 19.7073 10.8705 19.7073 11.7508V14.5576C19.7073 15.4379 18.9939 16.1513 18.1136 16.1513H15.3068C14.4265 16.1513 13.713 15.4379 13.713 14.5576V11.7508C13.713 10.8705 14.4265 10.157 15.3068 10.157H18.1136Z" fill="black"/>
<path fill-rule="evenodd" clip-rule="evenodd" d="M21.7846 7.45565L21.7892 7.43942L21.9138 6.95802C21.9512 6.79788 21.9627 6.63005 21.9455 6.46416V6.45743C21.8975 6.06714 21.6971 5.71137 21.3874 5.46876C21.2311 5.34602 21.0508 5.27031 20.8504 5.20702C20.8498 5.20673 20.8491 5.20653 20.8484 5.20636C20.848 5.20625 20.8475 5.20615 20.847 5.20606L20.8451 5.20561L20.8437 5.20509C20.8254 5.19934 20.8101 5.18592 20.8015 5.16962C20.7976 5.14469 20.8053 5.12454 20.8197 5.11016C20.8206 5.10824 20.8225 5.10628 20.8245 5.10436C20.9693 4.95189 21.0891 4.79849 21.1668 4.61629C21.3202 4.25381 21.3241 3.84529 21.1774 3.48089C21.1141 3.32459 21.022 3.19134 20.9117 3.06189C20.8312 2.9684 20.7288 2.86318 20.6074 2.7392C20.6694 2.80224 20.6649 2.79749 20.5675 2.69842L20.6074 2.7392L20.5598 2.69076L20.1973 2.33403C20.0765 2.22087 19.9375 2.12882 19.7869 2.06169L19.7811 2.05882C19.4196 1.90444 19.0111 1.90061 18.6458 2.04829C18.4626 2.12213 18.3073 2.2391 18.1519 2.38102C18.15 2.38198 18.1481 2.38388 18.1452 2.38676C18.1318 2.40018 18.1126 2.40694 18.0935 2.40502C18.0704 2.39543 18.057 2.38003 18.0513 2.35989C18.0513 2.35798 18.0503 2.35514 18.0493 2.35322C17.9889 2.15185 17.917 1.97058 17.7981 1.81236C17.5612 1.49783 17.2093 1.28975 16.82 1.23509C16.8181 1.23509 16.8151 1.23509 16.8133 1.23415C16.6493 1.21498 16.4834 1.22264 16.3223 1.25716C16.188 1.28209 16.0279 1.32236 15.8371 1.37222L15.3336 1.51222C15.1715 1.56592 15.0239 1.63211 14.8897 1.73376C14.5761 1.96965 14.368 2.32156 14.3133 2.71089C14.2855 2.90747 14.3095 3.10021 14.3545 3.30543C14.3545 3.3083 14.3555 3.31121 14.3565 3.31409C14.3613 3.33231 14.3574 3.35242 14.3459 3.36776C14.3268 3.3831 14.3056 3.38791 14.2865 3.38216C14.2857 3.38188 14.2848 3.38169 14.284 3.38153C14.2836 3.38143 14.2831 3.38134 14.2826 3.38125C14.2812 3.38099 14.2798 3.38074 14.2788 3.38022C14.0745 3.33132 13.8827 3.30448 13.6852 3.32749C13.294 3.37544 12.9382 3.57682 12.6956 3.88656C12.592 4.01889 12.523 4.16465 12.4664 4.32575L12.3149 4.83782L12.1921 5.31249C12.1586 5.47838 12.1414 5.64044 12.1625 5.80729C12.2104 6.19758 12.4108 6.55331 12.7205 6.79496L12.7215 6.79596C12.8778 6.91774 13.0562 6.99347 13.2575 7.05676C13.2594 7.05772 13.2614 7.05869 13.2643 7.05869C13.2825 7.06445 13.2978 7.07789 13.3065 7.09515C13.3103 7.11913 13.3036 7.13926 13.2901 7.15269L13.2834 7.15936C13.1386 7.31279 13.0187 7.46527 12.9411 7.64843C12.7867 8.00994 12.7829 8.41849 12.9305 8.78289L13.1962 9.20189C13.4129 9.42916 13.7696 9.44646 14.0065 9.24029C14.0093 9.23837 14.0122 9.23548 14.0113 9.23069C14.2481 9.02548 14.3105 8.68311 14.1609 8.40789L14.1509 8.39481C14.1169 8.35004 14.0936 8.31927 14.0918 8.31489C14.0688 8.25736 14.0698 8.19407 14.0937 8.13749C14.1027 8.11637 14.124 8.09386 14.1676 8.04783L14.1935 8.02049C14.4974 7.69925 14.6384 7.23804 14.5214 6.78542C14.4044 6.3328 14.0582 5.99814 13.6373 5.86389L13.6118 5.8549C13.5442 5.83376 13.5124 5.8238 13.4944 5.80922C13.4942 5.80918 13.4936 5.80904 13.4934 5.80893L13.4925 5.80823C13.4445 5.77083 13.4139 5.71524 13.4062 5.65482C13.4043 5.63852 13.4091 5.61454 13.4187 5.56756L13.527 5.15136L13.6488 4.74189L13.6548 4.72422C13.6661 4.69059 13.6723 4.67208 13.6814 4.66136C13.6814 4.6604 13.6824 4.65945 13.6833 4.65849C13.7207 4.61054 13.7754 4.5789 13.8367 4.57122C13.8618 4.56844 13.8986 4.57733 13.9801 4.59705L13.9883 4.59903C14.4188 4.70163 14.8887 4.59325 15.2224 4.26529C15.5551 3.9383 15.6731 3.47035 15.5781 3.03883L15.5763 3.03027C15.5584 2.94809 15.5504 2.9114 15.5532 2.88636C15.5618 2.82595 15.5944 2.77129 15.6433 2.73389C15.6443 2.73389 15.6453 2.73292 15.6463 2.73196C15.6586 2.72315 15.679 2.71678 15.718 2.70463L15.7287 2.70129L16.1391 2.58816C16.328 2.53925 16.4546 2.50667 16.5543 2.48749L16.5648 2.48564C16.6069 2.47818 16.6295 2.47418 16.6455 2.47596C16.7059 2.48459 16.7595 2.51721 16.7969 2.56515C16.7969 2.56611 16.7979 2.56703 16.7979 2.56703C16.811 2.58396 16.8191 2.61139 16.8352 2.66567L16.8487 2.71089C16.9753 3.13378 17.3042 3.48763 17.7549 3.61229C18.2047 3.73695 18.6679 3.60463 18.9949 3.30736L19.0186 3.28589C19.069 3.24039 19.0928 3.21886 19.1137 3.21049C19.1137 3.20953 19.1147 3.20956 19.1147 3.20956C19.1713 3.18654 19.2346 3.18745 19.2911 3.21143C19.3047 3.21736 19.3215 3.23159 19.3508 3.25802L19.3631 3.26902C19.4388 3.33615 19.5299 3.42911 19.6661 3.56816L19.6996 3.6024C19.8176 3.7228 19.8998 3.80672 19.9595 3.87696L19.9713 3.89046C19.9964 3.91901 20.0101 3.93468 20.0151 3.94889L20.0161 3.94983C20.0382 4.0064 20.0382 4.06971 20.0142 4.12629L20.0132 4.12723C20.005 4.14761 19.9837 4.1701 19.9398 4.21647L19.9145 4.24329C19.9145 4.24329 19.9144 4.24422 19.9135 4.24422C19.6104 4.56547 19.4695 5.0267 19.5865 5.47836C19.7035 5.93098 20.0497 6.26664 20.4707 6.40089L20.4988 6.4098C20.5637 6.43032 20.5949 6.44019 20.6135 6.45456L20.6145 6.45555C20.6634 6.49295 20.6941 6.54854 20.7017 6.60896C20.7034 6.62399 20.6993 6.64481 20.6918 6.68223L20.6883 6.70003C20.6684 6.79891 20.6333 6.92331 20.5813 7.10769L20.5799 7.11242L20.4591 7.52189L20.453 7.54017C20.4418 7.57339 20.4355 7.59189 20.4265 7.60336C20.4265 7.60432 20.4256 7.60433 20.4246 7.60529C20.3872 7.6542 20.3316 7.68489 20.2712 7.69256C20.2464 7.69531 20.2102 7.68664 20.1297 7.66738L20.1187 7.66476C19.6891 7.56215 18.8855 7.99844 19.3985 8.47983L19.6719 8.72822C19.8042 8.85192 19.9749 8.92669 20.1551 8.93916C20.2443 8.94683 20.3325 8.94684 20.4227 8.93629C20.813 8.88834 21.1697 8.68792 21.4113 8.37722C21.4132 8.37627 21.4142 8.37434 21.4161 8.37243C21.5159 8.23913 21.5926 8.08954 21.6444 7.93036C21.6915 7.78647 21.7361 7.63845 21.7759 7.48938L21.77 7.51036L21.7838 7.45944L21.7759 7.48938L21.7834 7.46242L21.7838 7.45944L21.7846 7.45565ZM21.7841 7.45738L21.77 7.51036L21.7825 7.46336L21.7841 7.45738Z" fill="black"/>
<path fill-rule="evenodd" clip-rule="evenodd" d="M18.3753 4.83495L18.4396 4.90396C19.085 5.63371 19.0524 6.76431 18.3505 7.45282C17.6255 8.16435 16.4441 8.15378 15.7325 7.42883C15.021 6.70387 15.0325 5.52249 15.7575 4.81096C16.4815 4.09943 17.6638 4.11 18.3753 4.83495ZM16.54 6.63676C16.2715 6.36346 16.2667 5.92334 16.5237 5.64429L16.5495 5.61742C16.8315 5.34125 17.2908 5.3451 17.5679 5.62702C17.8451 5.90895 17.8403 6.36923 17.5583 6.64636C17.2764 6.92349 16.8162 6.91868 16.54 6.63676Z" fill="black"/>
</svg>
