<svg width="24" height="24" viewBox="0 0 24 24" fill="none" xmlns="http://www.w3.org/2000/svg">
<g clip-path="url(#clip0_221_19734)">
<path fill-rule="evenodd" clip-rule="evenodd" d="M21.391 16.336L21.479 16.428C21.7998 16.7804 21.9842 17.2357 21.999 17.712L22 17.839C22 17.989 22 18.063 21.996 18.126C21.9653 18.6119 21.7585 19.0699 21.4142 19.4142C21.0699 19.7585 20.6119 19.9653 20.126 19.996C20.0304 20.0001 19.9347 20.0014 19.839 20H4.161C4.011 20 3.937 20 3.874 19.996C3.3881 19.9653 2.93008 19.7585 2.58581 19.4142C2.24155 19.0699 2.03468 18.6119 2.004 18.126C2 18.063 2 17.988 2 17.84L2.001 17.713C2.01687 17.1927 2.23499 16.6991 2.609 16.337L3.903 15H20.097L21.391 16.336ZM8.75 18C8.75 17.8011 8.82902 17.6103 8.96967 17.4697C9.11032 17.329 9.30109 17.25 9.5 17.25H14.5C14.6989 17.25 14.8897 17.329 15.0303 17.4697C15.171 17.6103 15.25 17.8011 15.25 18C15.25 18.1989 15.171 18.3897 15.0303 18.5303C14.8897 18.671 14.6989 18.75 14.5 18.75H9.5C9.30109 18.75 9.11032 18.671 8.96967 18.5303C8.82902 18.3897 8.75 18.1989 8.75 18ZM4.353 7C4.353 5.114 4.353 4.172 4.939 3.586C5.525 3 6.467 3 8.353 3H15.647C17.533 3 18.476 3 19.061 3.586C19.647 4.172 19.647 5.114 19.647 7V14H4.353V7ZM12 6.5C12.1989 6.5 12.3897 6.42098 12.5303 6.28033C12.671 6.13968 12.75 5.94891 12.75 5.75C12.75 5.55109 12.671 5.36032 12.5303 5.21967C12.3897 5.07902 12.1989 5 12 5C11.8011 5 11.6103 5.07902 11.4697 5.21967C11.329 5.36032 11.25 5.55109 11.25 5.75C11.25 5.94891 11.329 6.13968 11.4697 6.28033C11.6103 6.42098 11.8011 6.5 12 6.5Z" fill="black"/>
</g>
<defs>
<clipPath id="clip0_221_19734">
<rect width="24" height="24" fill="white"/>
</clipPath>
</defs>
</svg>
