<svg width="24" height="24" viewBox="0 0 24 24" fill="none" xmlns="http://www.w3.org/2000/svg">
<path fill-rule="evenodd" clip-rule="evenodd" d="M2.80679 13.75C2.81879 13.906 2.83379 14.0538 2.85254 14.1925C2.95155 14.9261 3.1323 15.3146 3.40831 15.5913C3.68581 15.8681 4.07357 16.0481 4.80859 16.1471C5.56236 16.2483 6.56438 16.2506 7.99991 16.2506H15.9996C17.4351 16.2506 18.4357 16.2483 19.1917 16.1471C19.9259 16.0481 20.3137 15.8673 20.5912 15.5913C20.868 15.3146 21.048 14.9261 21.147 14.191L21.1927 13.75H21.1972L21.2482 12.2485H21.246L21.2497 11.0005V9.99995C21.2497 9.58894 21.5887 9.24993 21.9997 9.24993C22.4115 9.24993 22.7498 9.58894 22.7498 9.99995V11.0552C22.7498 11.7175 22.7498 12.3183 22.737 12.859C22.734 12.985 22.7318 13.0555 22.7273 13.186C22.71 13.63 22.6823 14.0313 22.6343 14.392C22.512 15.2921 22.254 16.0503 21.6517 16.6526C21.0502 17.2541 20.2919 17.5121 19.3919 17.6344C18.5249 17.7506 17.4216 17.7506 16.0551 17.7506H12.7498V21.2502H15.9996C16.4114 21.2502 16.7496 21.5892 16.7496 22.0002C16.7496 22.412 16.4114 22.7502 15.9996 22.7502H7.99991C7.58815 22.7502 7.2499 22.412 7.2499 22.0002C7.2499 21.5892 7.58815 21.2502 7.99991 21.2502H11.2497V17.7506H7.94441C6.57788 17.7506 5.4746 17.7506 4.60758 17.6344C3.70756 17.5121 2.9493 17.2541 2.34778 16.6526C1.74552 16.0503 1.48751 15.2921 1.36676 14.392C1.31726 14.032 1.28951 13.63 1.27226 13.186C1.26626 13.0158 1.26626 13.0113 1.26251 12.859C1.24976 12.3183 1.24976 11.7175 1.24976 11.0552V9.45018C1.24976 7.84815 1.24976 6.57837 1.36826 5.57409C1.49051 4.54432 1.74552 3.6938 2.32828 2.98578C2.52704 2.74653 2.74754 2.52602 2.9868 2.32727C3.69556 1.74526 4.54383 1.49025 5.57436 1.36725C6.57938 1.25024 7.84991 1.25024 9.45045 1.25024H9.49995C9.91096 1.25024 10.25 1.5885 10.25 2.00026C10.25 2.41127 9.91096 2.75028 9.49995 2.75028C7.83791 2.75028 6.65663 2.75103 5.75061 2.85828C4.86184 2.96328 4.33533 3.16204 3.93782 3.4883C3.77356 3.6233 3.62281 3.77405 3.48781 3.93831C3.16155 4.33582 2.9628 4.86233 2.85779 5.7511C2.75054 6.65712 2.74979 7.8384 2.74979 9.50044V11.0005C2.74904 11.458 2.75054 11.875 2.75354 12.25L2.80679 13.75Z" fill="black"/>
<path d="M12.7648 4.00643C12.7648 2.49466 14.0097 1.24976 15.5215 1.24976C17.0332 1.24976 18.2781 2.49466 18.2781 4.00643C18.2781 5.51821 17.0332 6.76311 15.5215 6.76311C14.0097 6.76311 12.7648 5.51821 12.7648 4.00643Z" fill="black"/>
<path d="M12.3498 7.93058C13.2008 7.50434 14.3224 7.26378 15.5215 7.26378C16.7205 7.26378 17.8421 7.50584 18.6931 7.93058C19.4975 8.33352 20.2823 9.02814 20.2823 10.0205V10.0828C20.2846 10.5948 20.2868 11.4555 19.4704 12.0464C19.0915 12.3208 18.5916 12.496 17.9722 12.6072C17.3475 12.72 16.5469 12.7771 15.5215 12.7771C14.4961 12.7771 13.6955 12.72 13.0707 12.6072C12.4513 12.496 11.9514 12.3208 11.5725 12.0472C10.7561 11.4571 10.7584 10.5948 10.7606 10.0836V10.0205C10.7606 9.02889 11.5454 8.33352 12.3498 7.93058Z" fill="black"/>
</svg>
