<svg width="24" height="24" viewBox="0 0 24 24" fill="none" xmlns="http://www.w3.org/2000/svg">
<path d="M16.6046 4.5816C15.6427 4.58123 14.7022 4.86631 13.9024 5.40075C13.1026 5.93519 12.4793 6.69495 12.1115 7.58383C12.073 7.67696 12.0164 7.76157 11.9452 7.83285C11.8739 7.90412 11.7893 7.96066 11.6962 7.99924C11.6031 8.03782 11.5032 8.05767 11.4025 8.05768C11.3017 8.05769 11.2019 8.03784 11.1087 7.99927C11.0156 7.96071 10.931 7.90418 10.8597 7.83291C10.7884 7.76165 10.7319 7.67704 10.6933 7.58392C10.6548 7.4908 10.6349 7.391 10.6349 7.29021C10.6349 7.18941 10.6547 7.08961 10.6933 6.99648C11.1774 5.82726 11.9973 4.82787 13.0495 4.12472C14.1016 3.42157 15.3387 3.04626 16.6041 3.04626C17.8696 3.04626 19.1066 3.42157 20.1588 4.12472C21.2109 4.82787 22.0309 5.82726 22.515 6.99648C22.5535 7.08961 22.5734 7.18941 22.5734 7.29021C22.5734 7.391 22.5535 7.4908 22.5149 7.58392C22.4764 7.67704 22.4198 7.76165 22.3485 7.83291C22.2773 7.90418 22.1926 7.96071 22.0995 7.99927C22.0064 8.03784 21.9066 8.05769 21.8058 8.05768C21.705 8.05767 21.6052 8.03782 21.5121 7.99924C21.419 7.96066 21.3344 7.90412 21.2631 7.83285C21.1918 7.76157 21.1353 7.67696 21.0967 7.58383C20.729 6.69511 20.1059 5.93546 19.3063 5.40103C18.5066 4.8666 17.5664 4.58143 16.6046 4.5816Z" fill="black"/>
<path fill-rule="evenodd" clip-rule="evenodd" d="M15.8372 11.2329H5.80726C4.88838 11.2329 4.12093 11.2329 3.51209 11.3147C2.87051 11.4007 2.29033 11.591 1.82372 12.0576C1.35814 12.5232 1.16781 13.1034 1.08186 13.746C1 14.3538 1 15.1202 1 16.0401V16.1465C1 17.0664 1 17.8329 1.08186 18.4407C1.16781 19.0833 1.35814 19.6635 1.82474 20.129C2.29033 20.5956 2.87051 20.786 3.51312 20.8719C4.12093 20.9538 4.88837 20.9538 5.80726 20.9538H18.1927C19.1127 20.9538 19.8791 20.9538 20.4869 20.8719C21.1295 20.786 21.7097 20.5956 22.1753 20.129C22.6419 19.6635 22.8322 19.0833 22.9181 18.4407C23 17.8329 23 17.0664 23 16.1465V16.0401C23 15.1212 23 14.3538 22.9181 13.746C22.8322 13.1034 22.6419 12.5232 22.1753 12.0576C21.7097 11.591 21.1295 11.4007 20.4869 11.3147C19.8791 11.2329 19.1127 11.2329 18.1927 11.2329H17.3721V8.93053C17.3721 8.72699 17.2912 8.53179 17.1473 8.38786C17.0034 8.24394 16.8082 8.16309 16.6047 8.16309C16.4011 8.16309 16.2059 8.24394 16.062 8.38786C15.9181 8.53179 15.8372 8.72699 15.8372 8.93053V11.2329ZM5.86041 17.1165C6.1318 17.1165 6.39207 17.0087 6.58396 16.8168C6.77586 16.6249 6.88367 16.3646 6.88367 16.0933C6.88367 15.8219 6.77586 15.5616 6.58396 15.3697C6.39207 15.1778 6.1318 15.07 5.86041 15.07C5.58903 15.07 5.32876 15.1778 5.13686 15.3697C4.94497 15.5616 4.83716 15.8219 4.83716 16.0933C4.83716 16.3646 4.94497 16.6249 5.13686 16.8168C5.32876 17.0087 5.58903 17.1165 5.86041 17.1165ZM8.93018 17.1165C9.20156 17.1165 9.46183 17.0087 9.65373 16.8168C9.84563 16.6249 9.95344 16.3646 9.95344 16.0933C9.95344 15.8219 9.84563 15.5616 9.65373 15.3697C9.46183 15.1778 9.20156 15.07 8.93018 15.07C8.6588 15.07 8.39853 15.1778 8.20663 15.3697C8.01473 15.5616 7.90693 15.8219 7.90693 16.0933C7.90693 16.3646 8.01473 16.6249 8.20663 16.8168C8.39853 17.0087 8.6588 17.1165 8.93018 17.1165Z" fill="black"/>
<path d="M16.6047 7.13977C16.1068 7.13964 15.6223 7.30092 15.2238 7.59942C14.8253 7.89792 14.5343 8.31755 14.3944 8.7954C14.3662 8.89215 14.3192 8.9824 14.2561 9.06098C14.193 9.13957 14.1151 9.20496 14.0267 9.25342C13.9383 9.30188 13.8413 9.33246 13.7411 9.34341C13.6409 9.35437 13.5396 9.34548 13.4428 9.31726C13.3461 9.28904 13.2558 9.24204 13.1772 9.17895C13.0986 9.11585 13.0333 9.03789 12.9848 8.94953C12.9363 8.86116 12.9058 8.76412 12.8948 8.66393C12.8839 8.56375 12.8927 8.46238 12.921 8.36563C13.154 7.56916 13.639 6.86969 14.3031 6.37206C14.9673 5.87444 15.7748 5.60547 16.6047 5.60547C17.4346 5.60547 18.2421 5.87444 18.9062 6.37206C19.5703 6.86969 20.0553 7.56916 20.2884 8.36563C20.3454 8.56103 20.3224 8.77106 20.2246 8.94953C20.1267 9.12799 19.9619 9.26027 19.7665 9.31726C19.5711 9.37425 19.3611 9.35129 19.1826 9.25342C19.0042 9.15555 18.8719 8.9908 18.8149 8.7954C18.6751 8.31755 18.3841 7.89792 17.9856 7.59942C17.5871 7.30092 17.1026 7.13964 16.6047 7.13977Z" fill="black"/>
</svg>
