<svg width="24" height="24" viewBox="0 0 24 24" fill="none" xmlns="http://www.w3.org/2000/svg">
<path d="M18.6026 12.1154V10.1811C18.8609 10.1972 19.13 10.2431 19.3606 10.3321C19.5627 10.4101 19.7019 10.5081 19.7885 10.6149C19.8671 10.7118 19.9307 10.8495 19.9307 11.075C19.9307 11.4233 19.8469 11.6137 19.765 11.724C19.6808 11.8373 19.5526 11.9274 19.362 11.9944C19.1298 12.0761 18.8694 12.1055 18.6026 12.1154Z" fill="black"/>
<path d="M13.366 13.4563V10.9591C13.3765 10.8188 13.4315 10.6059 13.5457 10.4435C13.6437 10.3044 13.7814 10.1985 14.0452 10.1985C14.3172 10.1985 14.4471 10.3041 14.5336 10.4269C14.6398 10.5774 14.6879 10.7771 14.6941 10.9059V13.4101C14.6772 13.5534 14.6152 13.7668 14.4962 13.9318C14.3888 14.0808 14.2468 14.1829 13.9997 14.1829C13.7494 14.1829 13.6232 14.0834 13.5331 13.9533C13.4254 13.7978 13.3744 13.5917 13.366 13.4563Z" fill="black"/>
<path fill-rule="evenodd" clip-rule="evenodd" d="M5.64935 2.82522C5.79185 2.6547 6.00263 2.55615 6.22486 2.55615H17.1127C17.3067 2.55615 17.4931 2.63131 17.6328 2.76584L22.4163 7.37087C22.5632 7.51226 22.6462 7.70733 22.6462 7.91119V16.193C22.6462 16.3654 22.5868 16.5324 22.4781 16.6661L18.4443 21.6281C18.3019 21.8033 18.0881 21.905 17.8623 21.905H6.90316C6.70425 21.905 6.51349 21.826 6.37283 21.6853L1.53581 16.8483C1.39557 16.7081 1.31658 16.518 1.31614 16.3196L1.29834 8.30562C1.29795 8.12924 1.35974 7.95837 1.47284 7.82302L5.64935 2.82522ZM8.03445 8.85522C7.67187 8.85522 7.37795 9.14915 7.37795 9.51172C7.37795 9.87429 7.67187 10.1682 8.03445 10.1682H8.78198V14.829C8.78198 15.1915 9.0759 15.4855 9.43848 15.4855C9.80105 15.4855 10.095 15.1915 10.095 14.829V10.1682H10.8425C11.2051 10.1682 11.499 9.87429 11.499 9.51172C11.499 9.14915 11.2051 8.85522 10.8425 8.85522H8.03445ZM19.7975 13.2331C19.4018 13.3722 18.968 13.417 18.6026 13.4299V14.829C18.6026 15.1915 18.3087 15.4855 17.9461 15.4855C17.5836 15.4855 17.2896 15.1915 17.2896 14.829V8.95662L17.8712 8.88978C18.3746 8.83191 19.1507 8.84381 19.8331 9.10707C20.1812 9.24133 20.5372 9.45366 20.8083 9.78788C21.0873 10.132 21.2437 10.5659 21.2437 11.075C21.2437 11.6451 21.1018 12.1263 20.8189 12.507C20.5384 12.8846 20.1628 13.1047 19.7975 13.2331ZM14.0452 8.88548C13.3012 8.88548 12.7837 9.24502 12.4721 9.68776C12.1809 10.1014 12.0717 10.5771 12.054 10.9028L12.053 10.9206V13.4878L12.0536 13.5024C12.0679 13.8228 12.1704 14.2919 12.4536 14.7008C12.7577 15.1399 13.2664 15.4958 13.9997 15.4958C14.7362 15.4958 15.2494 15.1324 15.5613 14.6996C15.855 14.2922 15.9765 13.8226 16.0046 13.4998L16.0071 13.4714V10.8818L16.0067 10.8708C15.9959 10.5489 15.895 10.0791 15.6067 9.67023C15.2963 9.23012 14.7811 8.88548 14.0452 8.88548ZM4.94151 8.9329C4.32962 8.9329 3.7882 9.07804 3.39323 9.42621C2.98619 9.78502 2.83229 10.2726 2.83229 10.7466C2.83229 11.1909 2.94294 11.656 3.30185 12.0503C3.64406 12.4262 4.14397 12.6616 4.76101 12.8124C5.23828 12.9291 5.44358 13.0864 5.52701 13.1915C5.59441 13.2764 5.63216 13.3884 5.597 13.5861C5.55713 13.8104 5.47586 13.933 5.37898 14.012C5.27316 14.0983 5.07949 14.1883 4.72189 14.2152C4.24689 14.2508 4.03754 13.9911 4.002 13.9404C3.79407 13.6433 3.38473 13.5711 3.0877 13.779C2.79066 13.9869 2.71843 14.3963 2.92635 14.6933C3.12062 14.9708 3.72325 15.6068 4.82015 15.5245C5.35052 15.4847 5.83131 15.3374 6.20881 15.0295C6.59526 14.7144 6.80618 14.2859 6.88972 13.816C6.97599 13.3307 6.90451 12.8149 6.55533 12.3751C6.22217 11.9555 5.70352 11.6911 5.07278 11.537C4.58182 11.4169 4.36767 11.2706 4.27282 11.1664C4.19468 11.0806 4.14529 10.967 4.14529 10.7466C4.14529 10.5557 4.20068 10.4647 4.26146 10.4112C4.33431 10.3469 4.51926 10.2459 4.94151 10.2459C5.42701 10.2459 5.62315 10.5631 5.65206 10.645C5.77274 10.9869 6.14774 11.1662 6.48963 11.0455C6.83153 10.9249 7.01087 10.5499 6.89018 10.208C6.72211 9.73181 6.11064 8.9329 4.94151 8.9329Z" fill="black"/>
</svg>
