<svg width="24" height="24" viewBox="0 0 24 24" fill="none" xmlns="http://www.w3.org/2000/svg">
<path fill-rule="evenodd" clip-rule="evenodd" d="M2.09832 23.139C2.09832 23.139 3.66369 22.403 4.74187 21.895C5.17729 21.698 5.68536 21.698 6.11041 21.9054C6.56657 22.1231 7.10557 22.3822 7.57209 22.6103C8.48441 23.0457 9.55225 23.025 10.4438 22.5377C10.7445 22.3719 11.0659 22.1956 11.3665 22.0298C11.8019 21.8017 12.3307 21.781 12.7764 21.9779L14.3108 22.6621C15.2127 23.0665 16.2495 23.025 17.1204 22.5481L18.0015 22.0505C18.4473 21.8121 18.9761 21.7913 19.4426 22.009L21.8996 23.139C22.2936 23.3257 22.7497 23.1494 22.9363 22.7658C23.1126 22.3719 22.9467 21.9054 22.5527 21.7291C22.5527 21.7291 21.1325 21.076 20.0957 20.5887C19.1834 20.174 18.126 20.2155 17.2551 20.6924C16.9649 20.8583 16.6539 21.0241 16.3636 21.1796C15.9281 21.4284 15.3994 21.4492 14.9433 21.2418L13.4088 20.5576C12.5172 20.1637 11.491 20.2051 10.6305 20.6717C10.3298 20.8272 9.99806 21.0034 9.69742 21.1693C9.25163 21.4181 8.70214 21.4285 8.24599 21.2108L6.79455 20.5058C5.93408 20.0911 4.94921 20.0911 4.08874 20.4851C3.00018 20.993 1.4348 21.7291 1.4348 21.7291C1.05122 21.9157 0.885356 22.3719 1.0616 22.7658C1.24821 23.1494 1.70436 23.3257 2.09832 23.139Z" fill="black"/>
<path fill-rule="evenodd" clip-rule="evenodd" d="M7.67296 10.8894H5.64372C5.08389 10.8894 4.55522 11.1901 4.2753 11.6773C3.98502 12.1646 3.98501 12.7658 4.26493 13.2531L5.58061 15.5972C5.07329 15.5719 4.56218 15.6694 4.08874 15.8862C3.00018 16.3942 1.4348 17.1302 1.4348 17.1302C1.05122 17.3169 0.885356 17.773 1.0616 18.167C1.24821 18.5506 1.70436 18.7268 2.09832 18.5402C2.09832 18.5402 3.66369 17.8041 4.74187 17.2961C5.17729 17.0991 5.68536 17.0991 6.11041 17.3065C6.30304 17.3984 6.51043 17.4977 6.7209 17.599C7.07031 17.7617 7.04297 17.75 7.30383 17.8807C7.39511 17.9251 7.48487 17.9688 7.57209 18.0114C8.48441 18.4469 9.55225 18.4261 10.4438 17.9389C10.5941 17.8559 10.7497 17.7704 10.9052 17.6849L10.9068 17.6839C11.0618 17.5987 11.2167 17.5135 11.3665 17.4309C11.8019 17.2028 12.3307 17.1821 12.7764 17.3791L14.3108 18.0633C14.9882 18.3669 15.7417 18.4191 16.4438 18.2243C16.5845 18.2147 16.7204 18.1677 16.8367 18.0868C16.9329 18.0459 17.0276 18 17.1204 17.9492L18.0015 17.4516C18.4473 17.2132 18.9761 17.1924 19.4426 17.4101L21.8996 18.5402C22.2936 18.7268 22.7497 18.5506 22.9363 18.167C23.1126 17.773 22.9467 17.3065 22.5527 17.1302C22.5527 17.1302 21.1325 16.4771 20.0957 15.9898C19.493 15.7158 18.8269 15.641 18.1931 15.7593C18.6507 14.914 19.1641 13.9638 19.5565 13.2324C19.8261 12.7348 19.8053 12.1438 19.5254 11.6566C19.2351 11.1797 18.7168 10.8894 18.157 10.8894H16.3249L12.5692 6.74245C12.4241 6.58695 12.2167 6.49365 11.999 6.49365C11.7812 6.49365 11.5636 6.58696 11.4185 6.75283L7.67296 10.8894ZM9.77941 10.8894H14.2253L11.999 8.43231L9.77941 10.8894Z" fill="black"/>
<path d="M16.5811 2.89715C16.747 2.89715 16.8922 2.90756 17.0477 2.93866C17.5039 1.80864 18.6132 1 19.9195 1C21.6197 1 23.0089 2.37882 23.0089 4.0894C23.0089 5.79999 21.6197 7.18918 19.9195 7.18918H16.5811C15.3993 7.18918 14.4352 6.22502 14.4352 5.04316C14.4352 3.85094 15.3993 2.89715 16.5811 2.89715Z" fill="black"/>
</svg>
