<svg width="24" height="24" viewBox="0 0 24 24" fill="none" xmlns="http://www.w3.org/2000/svg">
<g clip-path="url(#clip0_221_19947)">
<path fill-rule="evenodd" clip-rule="evenodd" d="M6.37598 19.572C5.89798 19.402 5.50598 19.162 5.17198 18.828C4.19698 17.854 4.03298 16.386 4.00598 13.75H19.994C19.967 16.386 19.803 17.854 18.828 18.828C18.4886 19.164 18.0772 19.4184 17.625 19.572L18.671 21.665C18.758 21.8427 18.7712 22.0477 18.7078 22.2351C18.6444 22.4226 18.5094 22.5774 18.3324 22.6658C18.1553 22.7542 17.9505 22.769 17.7626 22.7071C17.5746 22.6451 17.4188 22.5114 17.329 22.335L16.105 19.888C15.057 20 13.726 20 12 20C10.274 20 8.94298 20 7.89498 19.888L6.66998 22.336C6.581 22.514 6.42497 22.6493 6.23622 22.7122C6.04746 22.7751 5.84144 22.7605 5.66348 22.6715C5.48552 22.5825 5.3502 22.4265 5.28728 22.2377C5.22436 22.049 5.239 21.843 5.32798 21.665L6.37598 19.572ZM14.75 16C14.75 15.8011 14.829 15.6103 14.9697 15.4697C15.1103 15.329 15.3011 15.25 15.5 15.25H17C17.1989 15.25 17.3897 15.329 17.5303 15.4697C17.671 15.6103 17.75 15.8011 17.75 16C17.75 16.1989 17.671 16.3897 17.5303 16.5303C17.3897 16.671 17.1989 16.75 17 16.75H15.5C15.3011 16.75 15.1103 16.671 14.9697 16.5303C14.829 16.3897 14.75 16.1989 14.75 16ZM6.99998 15.25C6.80107 15.25 6.6103 15.329 6.46965 15.4697C6.329 15.6103 6.24998 15.8011 6.24998 16C6.24998 16.1989 6.329 16.3897 6.46965 16.5303C6.6103 16.671 6.80107 16.75 6.99998 16.75H8.49998C8.69889 16.75 8.88966 16.671 9.03031 16.5303C9.17096 16.3897 9.24998 16.1989 9.24998 16C9.24998 15.8011 9.17096 15.6103 9.03031 15.4697C8.88966 15.329 8.69889 15.25 8.49998 15.25H6.99998Z" fill="black"/>
<path d="M20 12.25V9.99997C20 6.22897 20 4.34297 18.828 3.17197C17.95 2.29197 16.668 2.07297 14.492 2.01797C14.4278 2.01637 14.3639 2.02766 14.3042 2.05119C14.2444 2.07472 14.19 2.11 14.1441 2.15494C14.0982 2.19989 14.0618 2.25359 14.0371 2.31285C14.0123 2.37212 13.9997 2.43575 14 2.49997C14 3.03041 13.7893 3.53911 13.4142 3.91419C13.0391 4.28926 12.5304 4.49997 12 4.49997C11.4696 4.49997 10.9609 4.28926 10.5858 3.91419C10.2107 3.53911 10 3.03041 10 2.49997C10.0003 2.43575 9.98768 2.37212 9.96293 2.31285C9.93818 2.25359 9.90179 2.19989 9.85591 2.15494C9.81004 2.11 9.7556 2.07472 9.69584 2.05119C9.63608 2.02766 9.57221 2.01637 9.508 2.01797C7.331 2.07297 6.05 2.29297 5.172 3.17197C4 4.34297 4 6.22897 4 9.99997V12.25H20Z" fill="black"/>
</g>
<defs>
<clipPath id="clip0_221_19947">
<rect width="24" height="24" fill="white"/>
</clipPath>
</defs>
</svg>
