<svg width="24" height="24" viewBox="0 0 24 24" fill="none" xmlns="http://www.w3.org/2000/svg">
<g clip-path="url(#clip0_221_19992)">
<path fill-rule="evenodd" clip-rule="evenodd" d="M14.008 19.003L14.014 17C14.014 16.7341 14.1196 16.4791 14.3076 16.2911C14.4956 16.1031 14.7506 15.9975 15.0165 15.9975C15.2824 15.9975 15.5374 16.1031 15.7254 16.2911C15.9134 16.4791 16.019 16.7341 16.019 17V18.977C16.019 19.458 16.019 19.699 16.173 19.847C16.328 19.994 16.563 19.984 17.036 19.964C18.899 19.885 20.044 19.634 20.85 18.828C21.66 18.022 21.911 16.877 21.99 15.011C22.005 14.641 22.013 14.455 21.944 14.332C21.874 14.209 21.599 14.055 21.047 13.746C20.7361 13.5727 20.4771 13.3194 20.2968 13.0125C20.1165 12.7055 20.0214 12.356 20.0214 12C20.0214 11.644 20.1165 11.2945 20.2968 10.9875C20.4771 10.6806 20.7361 10.4273 21.047 10.254C21.599 9.946 21.875 9.791 21.944 9.668C22.013 9.545 22.005 9.36 21.989 8.989C21.911 7.123 21.659 5.979 20.85 5.172C19.973 4.296 18.695 4.075 16.528 4.019C16.4617 4.01726 16.3956 4.02884 16.3338 4.05303C16.272 4.07723 16.2157 4.11357 16.1681 4.15989C16.1206 4.20622 16.0828 4.26159 16.057 4.32275C16.0313 4.38392 16.018 4.44962 16.018 4.516V7C16.018 7.26588 15.9124 7.52087 15.7244 7.70887C15.5364 7.89688 15.2814 8.0025 15.0155 8.0025C14.7496 8.0025 14.4946 7.89688 14.3066 7.70887C14.1186 7.52087 14.013 7.26588 14.013 7L14.006 4.499C14.0057 4.36657 13.9529 4.23964 13.8592 4.14609C13.7655 4.05254 13.6384 4 13.506 4H9.99401C6.21401 4 4.32401 4 3.14901 5.172C2.33901 5.978 2.08801 7.123 2.00901 8.989C1.99401 9.359 1.98601 9.545 2.05501 9.668C2.12501 9.791 2.40001 9.946 2.95201 10.254C3.26294 10.4273 3.52195 10.6806 3.70225 10.9875C3.88256 11.2945 3.97762 11.644 3.97762 12C3.97762 12.356 3.88256 12.7055 3.70225 13.0125C3.52195 13.3194 3.26294 13.5727 2.95201 13.746C2.40001 14.055 2.12401 14.209 2.05501 14.332C1.98601 14.455 1.99401 14.64 2.01001 15.01C2.08801 16.877 2.34001 18.022 3.14901 18.828C4.32401 20 6.21401 20 9.99501 20H13.005C13.477 20 13.712 20 13.859 19.854C14.006 19.708 14.007 19.474 14.008 19.003ZM16.018 13V11C16.018 10.7341 15.9124 10.4791 15.7244 10.2911C15.5364 10.1031 15.2814 9.9975 15.0155 9.9975C14.7496 9.9975 14.4946 10.1031 14.3066 10.2911C14.1186 10.4791 14.013 10.7341 14.013 11V13C14.013 13.266 14.1187 13.5211 14.3068 13.7092C14.4949 13.8973 14.75 14.003 15.016 14.003C15.282 14.003 15.5371 13.8973 15.7252 13.7092C15.9133 13.5211 16.018 13.266 16.018 13Z" fill="black"/>
</g>
<defs>
<clipPath id="clip0_221_19992">
<rect width="24" height="24" fill="white"/>
</clipPath>
</defs>
</svg>
