<svg width="24" height="24" viewBox="0 0 24 24" fill="none" xmlns="http://www.w3.org/2000/svg">
<path fill-rule="evenodd" clip-rule="evenodd" d="M2.69627 9.70728H3.83426L5.87703 6.36562C6.22695 5.79818 6.84693 5.45142 7.51629 5.45142H14.3319C15.0096 5.45142 15.638 5.80865 15.9837 6.39711C16.506 7.27021 17.51 8.9554 17.9578 9.70728H21.077C22.1394 9.70728 23 10.569 23 11.6303V14.8667C23 15.3711 22.7951 15.865 22.4315 16.2328C22.0679 16.5901 21.5762 16.7897 21.0634 16.7897C20.4393 16.7843 19.5901 16.7773 18.5937 16.7693C18.2916 17.4921 17.5779 18 16.7456 18C15.9022 18 15.1806 17.4785 14.8856 16.7403C12.5015 16.7221 9.88323 16.7026 7.60318 16.6863C7.32245 17.4529 6.58638 18 5.72252 18C4.84892 18 4.10601 17.4405 3.83254 16.6603C3.39467 16.6574 3.00762 16.655 2.6826 16.6531C1.62549 16.6426 0.774292 15.781 0.774292 14.7302V11.6303C0.774292 10.569 1.63495 9.70728 2.69627 9.70728ZM16.1226 9.70728H5.68137L7.22101 7.19573C7.28406 7.09065 7.39545 7.02763 7.51629 7.02763H14.3319C14.4538 7.02763 14.5672 7.09065 14.6292 7.19573L16.1226 9.70728Z" fill="black"/>
</svg>
