<svg width="24" height="24" viewBox="0 0 24 24" fill="none" xmlns="http://www.w3.org/2000/svg">
<g clip-path="url(#clip0_221_19965)">
<path d="M17 4C17 4.53043 16.7893 5.03914 16.4142 5.41421C16.0391 5.78929 15.5304 6 15 6C14.4696 6 13.9609 5.78929 13.5858 5.41421C13.2107 5.03914 13 4.53043 13 4C13 3.46957 13.2107 2.96086 13.5858 2.58579C13.9609 2.21071 14.4696 2 15 2C15.5304 2 16.0391 2.21071 16.4142 2.58579C16.7893 2.96086 17 3.46957 17 4Z" fill="black"/>
<path fill-rule="evenodd" clip-rule="evenodd" d="M12.161 7.11502L12.774 7.72402C13.683 8.62702 13.999 8.92402 14.379 9.08002C14.759 9.23602 15.193 9.25002 16.474 9.25002H18.5C18.6989 9.25002 18.8897 9.32904 19.0303 9.46969C19.171 9.61034 19.25 9.80111 19.25 10C19.25 10.1989 19.171 10.3897 19.0303 10.5304C18.8897 10.671 18.6989 10.75 18.5 10.75H16.332C15.249 10.75 14.496 10.75 13.807 10.467C13.118 10.183 12.585 9.65202 11.817 8.88702L11.717 8.78702L11.139 8.21402C10.73 7.80802 10.479 7.56102 10.279 7.41102C10.2226 7.36619 10.1603 7.32919 10.094 7.30102L10.084 7.30702C10.0278 7.34537 9.97672 7.39074 9.932 7.44202C9.762 7.62702 9.559 7.91402 9.231 8.38802L8.004 10.155C7.67 10.637 7.467 10.932 7.352 11.162C7.31749 11.2262 7.29192 11.2949 7.276 11.366L7.283 11.374C7.33235 11.4227 7.38782 11.4647 7.448 11.499C7.666 11.634 7.994 11.779 8.531 12.014L10.047 12.674C10.695 12.958 11.241 13.196 11.661 13.442C12.108 13.704 12.486 14.014 12.739 14.477C12.992 14.941 13.05 15.426 13.029 15.943C13.01 16.43 12.916 17.019 12.805 17.717L12.741 18.118C12.7097 18.3145 12.6016 18.4906 12.4405 18.6074C12.2794 18.7243 12.0785 18.7723 11.882 18.741C11.6855 18.7097 11.5094 18.6016 11.3926 18.4405C11.2758 18.2795 11.2277 18.0785 11.259 17.882L11.317 17.523C11.437 16.771 11.515 16.271 11.531 15.883C11.545 15.516 11.498 15.334 11.423 15.197C11.348 15.061 11.221 14.922 10.903 14.737C10.569 14.54 10.106 14.337 9.407 14.032L7.931 13.388L7.885 13.368C7.409 13.16 6.98 12.973 6.659 12.775C6.311 12.56 5.969 12.26 5.832 11.775C5.694 11.289 5.828 10.855 6.012 10.489C6.18 10.153 6.447 9.76902 6.743 9.34102L6.772 9.30002L7.999 7.53202L8.027 7.49202C8.317 7.07202 8.58 6.69402 8.833 6.42202C9.108 6.12602 9.463 5.85202 9.958 5.80702C10.453 5.76202 10.851 5.96702 11.175 6.20902C11.472 6.43102 11.799 6.75502 12.161 7.11502ZM6 15.75C5.40326 15.75 4.83097 15.9871 4.40901 16.409C3.98705 16.831 3.75 17.4033 3.75 18C3.75 18.5968 3.98705 19.1691 4.40901 19.591C4.83097 20.013 5.40326 20.25 6 20.25C6.59674 20.25 7.16903 20.013 7.59099 19.591C8.01295 19.1691 8.25 18.5968 8.25 18C8.25 17.4033 8.01295 16.831 7.59099 16.409C7.16903 15.9871 6.59674 15.75 6 15.75ZM2.25 18C2.25 17.0055 2.64509 16.0516 3.34835 15.3484C4.05161 14.6451 5.00544 14.25 6 14.25C6.99456 14.25 7.94839 14.6451 8.65165 15.3484C9.35491 16.0516 9.75 17.0055 9.75 18C9.75 18.9946 9.35491 19.9484 8.65165 20.6517C7.94839 21.3549 6.99456 21.75 6 21.75C5.00544 21.75 4.05161 21.3549 3.34835 20.6517C2.64509 19.9484 2.25 18.9946 2.25 18ZM18 15.75C17.4033 15.75 16.831 15.9871 16.409 16.409C15.9871 16.831 15.75 17.4033 15.75 18C15.75 18.5968 15.9871 19.1691 16.409 19.591C16.831 20.013 17.4033 20.25 18 20.25C18.5967 20.25 19.169 20.013 19.591 19.591C20.0129 19.1691 20.25 18.5968 20.25 18C20.25 17.4033 20.0129 16.831 19.591 16.409C19.169 15.9871 18.5967 15.75 18 15.75ZM14.25 18C14.25 17.0055 14.6451 16.0516 15.3483 15.3484C16.0516 14.6451 17.0054 14.25 18 14.25C18.9946 14.25 19.9484 14.6451 20.6517 15.3484C21.3549 16.0516 21.75 17.0055 21.75 18C21.75 18.9946 21.3549 19.9484 20.6517 20.6517C19.9484 21.3549 18.9946 21.75 18 21.75C17.0054 21.75 16.0516 21.3549 15.3483 20.6517C14.6451 19.9484 14.25 18.9946 14.25 18Z" fill="black"/>
</g>
<defs>
<clipPath id="clip0_221_19965">
<rect width="24" height="24" fill="white"/>
</clipPath>
</defs>
</svg>
