<svg width="24" height="24" viewBox="0 0 24 24" fill="none" xmlns="http://www.w3.org/2000/svg">
<path fill-rule="evenodd" clip-rule="evenodd" d="M16.4862 3.82349C17.4492 3.82349 18.3379 4.34683 18.8121 5.18421C19.4045 6.23479 20.3248 7.8636 20.7407 8.59961H21.118C22.1574 8.59961 23 9.43715 23 10.4762V14.4203C23 14.9783 22.757 15.4813 22.371 15.8274V17.6922C22.371 18.6133 21.6194 19.3669 20.6941 19.3669H19.8557C18.9294 19.3669 18.1788 18.6133 18.1788 17.6922V16.3075H5.96459V17.6922C5.96459 18.6133 5.21305 19.3669 4.28775 19.3669H3.44936C2.52301 19.3669 1.77246 18.6133 1.77246 17.6922V15.9437C1.30408 15.5998 1 15.0445 1 14.4203V10.4762C1 9.43715 1.84262 8.59961 2.88306 8.59961H3.25945C3.67567 7.8636 4.59657 6.23479 5.189 5.18421C5.66212 4.34683 6.55182 3.82349 7.5148 3.82349H16.4862ZM20.8009 16.3075H19.7489V17.6922C19.7489 17.755 19.7971 17.7969 19.8557 17.7969H20.6941C20.7527 17.7969 20.8009 17.755 20.8009 17.6922V16.3075ZM4.3945 16.3075H3.34254V17.6922C3.34254 17.755 3.39075 17.7969 3.44936 17.7969H4.28775C4.34637 17.7969 4.3945 17.755 4.3945 17.6922V16.3075ZM7.5148 5.39357C7.1181 5.39357 6.75173 5.61336 6.55599 5.95878L5.07069 8.58606H18.9304L17.4451 5.95878C17.2493 5.61336 16.8829 5.39357 16.4862 5.39357H7.5148ZM4.79437 13.422C5.33199 13.422 5.76781 12.9862 5.76781 12.4485C5.76781 11.9109 5.33199 11.4751 4.79437 11.4751C4.25674 11.4751 3.82092 11.9109 3.82092 12.4485C3.82092 12.9862 4.25674 13.422 4.79437 13.422ZM19.3019 13.422C19.8396 13.422 20.2754 12.9862 20.2754 12.4485C20.2754 11.9109 19.8396 11.4751 19.3019 11.4751C18.7643 11.4751 18.3285 11.9109 18.3285 12.4485C18.3285 12.9862 18.7643 13.422 19.3019 13.422Z" fill="black"/>
</svg>
