<svg width="24" height="24" viewBox="0 0 24 24" fill="none" xmlns="http://www.w3.org/2000/svg">
<path fill-rule="evenodd" clip-rule="evenodd" d="M8.44128 6.30347H3.88458C3.12163 6.30347 2.38996 6.60661 1.84649 7.13963C1.30302 7.6831 1 8.41464 1 9.17759V16.9325C1 17.3715 1.35535 17.7164 1.78385 17.7164H3.81946C4.13495 18.5415 4.9341 19.1274 5.8703 19.1274C6.8065 19.1274 7.60558 18.5415 7.92104 17.7164H9.2137C9.2175 17.7164 9.22132 17.7165 9.22514 17.7165H14.8562C15.1717 18.5416 15.9709 19.1274 16.907 19.1274C17.8432 19.1274 18.6423 18.5416 18.9578 17.7165H20.9097C21.4636 17.7165 21.9967 17.497 22.3834 17.1103C22.7805 16.7131 23 16.1801 23 15.6262V5.79144C23 5.23752 22.7805 4.70453 22.3834 4.31783C21.9967 3.92068 21.4636 3.70117 20.9097 3.70117H10.5316C9.97763 3.70117 9.44458 3.92068 9.05788 4.31783C8.66073 4.70453 8.44128 5.23752 8.44128 5.79144V6.30347ZM8.44128 7.87117V16.1487H7.92098C7.60549 15.3236 6.80645 14.7378 5.8703 14.7378C4.93415 14.7378 4.13504 15.3236 3.81951 16.1487H2.5677V14.8214H3.28879C3.71729 14.8214 4.07264 14.466 4.07264 14.0375C4.07264 13.609 3.71729 13.2537 3.28879 13.2537H2.5677V12.0309H6.60191C7.03042 12.0309 7.38576 11.6755 7.38576 11.247V7.87117H8.44128ZM10.0091 16.1488V13.3895H21.4322V15.6262C21.4322 15.7725 21.3696 15.8979 21.2756 16.0024C21.1815 16.0965 21.0455 16.1488 20.9097 16.1488H18.9578C18.6423 15.3236 17.8432 14.7378 16.907 14.7378C15.9709 14.7378 15.1717 15.3236 14.8562 16.1488H10.0091ZM5.81806 7.87117V10.4631H2.5677V9.17759C2.5677 8.8327 2.70357 8.4983 2.9544 8.24747C3.20523 8.00709 3.53969 7.87117 3.88458 7.87117H5.81806Z" fill="black"/>
</svg>
