<svg width="24" height="24" viewBox="0 0 24 24" fill="none" xmlns="http://www.w3.org/2000/svg">
<path fill-rule="evenodd" clip-rule="evenodd" d="M1.78385 18.7167H9.22521C9.66417 18.7167 10.0091 18.3719 10.0091 17.9329L10.0104 5.48698C10.0104 5.04802 11.348 4.70312 10.909 4.70312C10.909 4.70312 6.09114 4.70312 3.88591 4.70312C3.12296 4.70312 2.39129 5.00627 1.84782 5.53928C1.30434 6.08275 1.00132 6.8143 1.00132 7.57725L1 17.9329C1 18.3719 1.35535 18.7167 1.78385 18.7167ZM4.38623 17.149H2.5677L2.56902 7.57725C2.56902 7.23235 2.70489 6.89796 2.95572 6.64713C3.20655 6.40674 3.54101 6.27083 3.88591 6.27083H8.44268L8.44136 17.149H4.38623Z" fill="black"/>
<path fill-rule="evenodd" clip-rule="evenodd" d="M8.44141 17.9329C8.44141 18.3718 8.79675 18.7167 9.22526 18.7167H20.9098C21.4637 18.7167 21.9968 18.4972 22.3835 18.1105C22.7806 17.7134 23.0001 17.1804 23.0001 16.6264V6.79169C23.0001 6.23777 22.7806 5.70477 22.3835 5.31807C21.9968 4.92092 21.4637 4.70142 20.9098 4.70142H10.5317C9.97776 4.70142 9.4447 4.92092 9.058 5.31807C8.66085 5.70477 8.44141 6.23777 8.44141 6.79169V17.9329ZM21.4324 6.79169V10.2031H10.0091V6.79169C10.0091 6.65582 10.0614 6.51997 10.1659 6.41545C10.26 6.32139 10.3958 6.26912 10.5317 6.26912H20.9098C21.0457 6.26912 21.1816 6.32139 21.2757 6.41545C21.3698 6.51997 21.4324 6.65582 21.4324 6.79169Z" fill="black"/>
<path fill-rule="evenodd" clip-rule="evenodd" d="M16.5046 10.7685L16.5046 5.78532C16.5046 5.35681 16.1597 5.00146 15.7208 5.00146C15.2923 5.00146 14.9369 5.35681 14.9369 5.78532L14.9369 10.7685C14.9369 11.197 15.2923 11.5523 15.7208 11.5523C16.1597 11.5523 16.5046 11.197 16.5046 10.7685Z" fill="black"/>
<path fill-rule="evenodd" clip-rule="evenodd" d="M1.78385 13.031L5.14122 13.0311C5.56972 13.0311 5.92507 12.6758 5.92507 12.2472V8.08756C5.92507 7.64861 5.56972 7.30371 5.14122 7.30371C4.71271 7.30371 4.35736 7.64861 4.35736 8.08756V11.4634L1.78385 11.4633C1.35535 11.4633 1 11.8082 1 12.2472C1 12.6757 1.35535 13.031 1.78385 13.031Z" fill="black"/>
<path fill-rule="evenodd" clip-rule="evenodd" d="M1.78385 15.8216H3.28879C3.71729 15.8216 4.07264 15.4663 4.07264 15.0378C4.07264 14.6093 3.71729 14.2539 3.28879 14.2539H1.78385C1.35535 14.2539 1 14.6093 1 15.0378C1 15.4663 1.35535 15.8216 1.78385 15.8216Z" fill="black"/>
<path fill-rule="evenodd" clip-rule="evenodd" d="M5.87042 15.738C4.65807 15.738 3.67554 16.7205 3.67554 17.9329C3.67554 19.1452 4.65807 20.1276 5.87042 20.1276C7.08278 20.1276 8.06518 19.1452 8.06518 17.9329C8.06518 16.7205 7.08278 15.738 5.87042 15.738ZM5.87042 17.3057C6.21532 17.3057 6.49748 17.588 6.49748 17.9329C6.49748 18.2778 6.21532 18.5599 5.87042 18.5599C5.52553 18.5599 5.24324 18.2778 5.24324 17.9329C5.24324 17.588 5.52553 17.3057 5.87042 17.3057Z" fill="black"/>
<path fill-rule="evenodd" clip-rule="evenodd" d="M16.907 15.738C15.6947 15.738 14.7122 16.7205 14.7122 17.9329C14.7122 19.1452 15.6947 20.1276 16.907 20.1276C18.1194 20.1276 19.1018 19.1452 19.1018 17.9329C19.1018 16.7205 18.1194 15.738 16.907 15.738ZM16.907 17.3057C17.2519 17.3057 17.5341 17.588 17.5341 17.9329C17.5341 18.2778 17.2519 18.5599 16.907 18.5599C16.5622 18.5599 16.2799 18.2778 16.2799 17.9329C16.2799 17.588 16.5622 17.3057 16.907 17.3057Z" fill="black"/>
</svg>
