<svg width="24" height="24" viewBox="0 0 24 24" fill="none" xmlns="http://www.w3.org/2000/svg">
<path fill-rule="evenodd" clip-rule="evenodd" d="M12.0453 1.00904C12.318 1.00967 12.5689 1.15828 12.7005 1.39713L18.501 11.9258L22.7784 13.6369C23.1629 13.7908 23.35 14.2272 23.1961 14.6118C23.0423 14.9964 22.6058 15.1835 22.2212 15.0296L21.0923 14.578L20.628 15.8625C21.5316 16.2837 22.4605 16.7108 22.4605 16.7108C22.8544 16.8871 23.0203 17.3536 22.844 17.7475C22.6574 18.1311 22.2013 18.3073 21.8073 18.1207L19.3503 16.9907C18.8838 16.773 18.355 16.7938 17.9093 17.0322L17.0281 17.5298C16.1572 18.0067 15.1204 18.0481 14.2185 17.6438L12.6842 16.9596C12.2384 16.7626 11.7097 16.7834 11.2742 17.0114C11.125 17.0938 10.9706 17.1787 10.8162 17.2636L10.8096 17.2673C10.6552 17.3522 10.5008 17.4371 10.3515 17.5194C9.45996 18.0067 8.39212 18.0274 7.47981 17.592C7.01329 17.3639 6.47428 17.1048 6.01813 16.887C5.59307 16.6797 5.08501 16.6797 4.64959 16.8767C3.5714 17.3847 2.00603 18.1207 2.00603 18.1207C1.61208 18.3073 1.15592 18.1311 0.969313 17.7475C0.793071 17.3536 0.958931 16.8974 1.34252 16.7108C1.34252 16.7108 2.3724 16.2265 3.34236 15.7725L2.88771 14.585L1.77861 15.0293C1.3941 15.1833 0.957525 14.9965 0.803495 14.612C0.649465 14.2275 0.836305 13.7909 1.22081 13.6369L5.53019 11.9106L11.3884 1.39405C11.5211 1.15582 11.7726 1.0084 12.0453 1.00904ZM12.04 3.30673L16.3043 11.0471L12.2708 9.43353C12.0918 9.36195 11.8922 9.362 11.7133 9.43367L7.74042 11.0252L12.04 3.30673Z" fill="black"/>
<path d="M4.64959 21.4755C3.5714 21.9835 2.00603 22.7196 2.00603 22.7196C1.61208 22.9062 1.15592 22.73 0.969313 22.3464C0.793071 21.9525 0.958931 21.4963 1.34252 21.3097C1.34252 21.3097 2.9079 20.5736 3.99645 20.0656C4.85693 19.6717 5.84179 19.6717 6.70227 20.0864L8.1537 20.7913C8.60986 21.009 9.15934 20.9986 9.60513 20.7498C9.90578 20.584 10.2376 20.4077 10.5382 20.2522C11.3987 19.7857 12.425 19.7442 13.3165 20.1382L14.851 20.8224C15.3071 21.0297 15.8359 21.009 16.2713 20.7602L16.3271 20.7303C16.6012 20.5835 16.8911 20.4283 17.1628 20.273C18.0337 19.7961 19.0911 19.7546 20.0034 20.1693C21.0402 20.6565 22.4605 21.3097 22.4605 21.3097C22.8544 21.4859 23.0203 21.9525 22.844 22.3464C22.6574 22.73 22.2013 22.9062 21.8073 22.7196L19.3503 21.5896C18.8838 21.3719 18.355 21.3926 17.9093 21.6311L17.0281 22.1287C16.1572 22.6056 15.1204 22.647 14.2185 22.2427L12.6842 21.5585C12.2384 21.3615 11.7097 21.3822 11.2742 21.6103C11.1239 21.6933 10.9684 21.7788 10.8129 21.8643C10.6574 21.9498 10.5019 22.0354 10.3515 22.1183C9.45996 22.6056 8.39212 22.6263 7.47981 22.1909C7.01329 21.9628 6.47428 21.7036 6.01813 21.4859C5.59307 21.2786 5.08501 21.2786 4.64959 21.4755Z" fill="black"/>
</svg>
