<svg width="24" height="24" viewBox="0 0 24 24" fill="none" xmlns="http://www.w3.org/2000/svg">
<path d="M11.008 15.9529L10.4363 13.2236L13.6159 13.2236L13.0423 15.9528L11.008 15.9529Z" fill="black"/>
<path fill-rule="evenodd" clip-rule="evenodd" d="M5.82009 3.13769V12.3402L5.82009 11.4836H5.16502C5.0969 11.2993 4.96097 11.1482 4.78787 11.0601V6.93857C4.78787 6.06395 4.28729 5.49849 3.75643 5.18736C3.25601 4.89408 2.68896 4.79261 2.31116 4.77976C1.8822 4.76516 1.52263 5.10106 1.50803 5.53002C1.49343 5.95897 1.82933 6.31855 2.25829 6.33315C2.45582 6.33987 2.75177 6.40011 2.97052 6.52832C3.15882 6.63868 3.23358 6.75449 3.23358 6.93857V10.9923L3.11875 10.9938C2.68958 10.9997 2.34641 11.3523 2.35225 11.7815C2.35477 11.9666 2.42181 12.1357 2.53169 12.2677C2.29092 12.5912 2.14844 12.9922 2.14844 13.4265V17.5897C2.14844 18.5186 2.80029 19.2952 3.6715 19.4871C3.65559 19.5832 3.64731 19.6818 3.64731 19.7824L3.64731 20.8516C3.64731 21.8425 4.45057 22.6457 5.44145 22.6457C6.43233 22.6457 7.2356 21.8425 7.2356 20.8516V19.7824C7.2356 19.6976 7.22971 19.6142 7.21833 19.5325H17.0183C17.007 19.6142 17.0011 19.6976 17.0011 19.7824V20.8516C17.0011 21.8425 17.8043 22.6457 18.7952 22.6457C19.7861 22.6457 20.5894 21.8425 20.5894 20.8516V19.7824C20.5894 19.6604 20.5772 19.5413 20.554 19.4262C21.3148 19.1628 21.8611 18.4401 21.8611 17.5897V13.4265C21.8611 12.9947 21.7203 12.5958 21.482 12.2733C21.6085 12.1329 21.6845 11.9463 21.6817 11.7425C21.6759 11.3134 21.3232 10.9702 20.894 10.976L20.8762 10.9763V6.93857C20.8762 6.75449 20.9509 6.63868 21.1392 6.52832C21.358 6.40011 21.6539 6.33987 21.8515 6.33315C22.2804 6.31855 22.6163 5.95897 22.6017 5.53002C22.5871 5.10106 22.2275 4.76516 21.7986 4.77976C21.4208 4.79261 20.8537 4.89408 20.3533 5.18736C19.8224 5.49849 19.3219 6.06395 19.3219 6.93857V11.0443C19.1183 11.1217 18.956 11.2821 18.8758 11.4836H18.22V3.13769C18.22 2.06467 17.3502 1.19482 16.2772 1.19482H7.76295C6.68994 1.19482 5.82009 2.06467 5.82009 3.13769ZM3.70273 17.1753V15.621L7.2356 15.621C7.6648 15.621 8.01274 15.9689 8.01274 16.3981C8.01274 16.8273 7.6648 17.1753 7.2356 17.1753H3.70273ZM16.6377 15.621L20.3069 15.621V17.1753H16.6377C16.2085 17.1753 15.8606 16.8273 15.8606 16.3981C15.8606 15.9689 16.2085 15.621 16.6377 15.621ZM16.6658 5.29388L16.6658 9.25647H7.37438L7.37438 5.29388L16.6658 5.29388ZM16.6658 3.73959V3.13769C16.6658 2.92308 16.4918 2.74911 16.2772 2.74911L7.76295 2.74911C7.54835 2.74911 7.37438 2.92308 7.37438 3.13769V3.73959L16.6658 3.73959ZM9.47955 11.6693C9.24548 11.6693 9.02389 11.7748 8.87632 11.9565C8.72874 12.1382 8.67092 12.3767 8.71891 12.6058L9.61616 16.8893C9.69157 17.2493 10.009 17.5072 10.3768 17.5072L13.673 17.5071C14.0406 17.5071 14.3579 17.2495 14.4336 16.8898L15.3339 12.6064C15.3821 12.3772 15.3244 12.1386 15.1768 11.9568C15.0292 11.7749 14.8076 11.6694 14.5734 11.6694L9.47955 11.6693ZM5.68131 20.8516V19.7824C5.68131 19.65 5.57392 19.5426 5.44145 19.5426C5.30898 19.5426 5.2016 19.65 5.2016 19.7824L5.2016 20.8516C5.2016 20.9841 5.30898 21.0915 5.44145 21.0915C5.57392 21.0915 5.68131 20.9841 5.68131 20.8516ZM19.0351 19.7824V20.8516C19.0351 20.9841 18.9277 21.0915 18.7952 21.0915C18.6627 21.0915 18.5554 20.9841 18.5554 20.8516V19.7824C18.5554 19.65 18.6627 19.5426 18.7952 19.5426C18.9277 19.5426 19.0351 19.65 19.0351 19.7824Z" fill="black"/>
</svg>
