<svg width="24" height="24" viewBox="0 0 24 24" fill="none" xmlns="http://www.w3.org/2000/svg">
<path d="M20.342 13.2056C20.5422 12.9675 20.5863 12.635 20.455 12.353C20.3237 12.071 20.0408 11.8907 19.7297 11.8907L17.0614 11.8907V2.19063C17.0614 1.97845 16.9771 1.77497 16.8271 1.62494C16.677 1.47491 16.4736 1.39062 16.2614 1.39062L7.53624 1.39063C7.09443 1.39063 6.73626 1.74879 6.73624 2.19061L6.73593 11.9189L3.93417 11.9189C3.61858 11.9189 3.33247 12.1044 3.20375 12.3926C3.07502 12.6807 3.12772 13.0176 3.3383 13.2527L11.4735 22.3339C11.6282 22.5066 11.8501 22.6036 12.0819 22.6C12.3137 22.5964 12.5325 22.4924 12.6817 22.315L20.342 13.2056Z" fill="black"/>
</svg>
