<svg width="24" height="24" viewBox="0 0 24 24" fill="none" xmlns="http://www.w3.org/2000/svg">
<path d="M10.7944 20.3421C11.0325 20.5423 11.365 20.5864 11.647 20.4551C11.929 20.3238 12.1093 20.0409 12.1093 19.7299L12.1093 17.0615H21.8094C22.0216 17.0615 22.225 16.9772 22.3751 16.8272C22.5251 16.6772 22.6094 16.4737 22.6094 16.2615L22.6094 7.53637C22.6094 7.09455 22.2512 6.73638 21.8094 6.73637L12.0811 6.73606L12.0811 3.93429C12.0811 3.6187 11.8956 3.3326 11.6074 3.20387C11.3193 3.07514 10.9824 3.12784 10.7473 3.33842L1.66611 11.4736C1.49345 11.6283 1.39637 11.8502 1.4 12.082C1.40363 12.3138 1.50761 12.5326 1.68502 12.6818L10.7944 20.3421Z" fill="black"/>
</svg>
