<svg width="24" height="24" viewBox="0 0 24 24" fill="none" xmlns="http://www.w3.org/2000/svg">
<g clip-path="url(#clip0_221_21069)">
<path fill-rule="evenodd" clip-rule="evenodd" d="M20.625 1.625C20.4261 1.625 20.2353 1.70402 20.0947 1.84467C19.954 1.98532 19.875 2.17609 19.875 2.375V22.375C19.875 22.5739 19.954 22.7647 20.0947 22.9053C20.2353 23.046 20.4261 23.125 20.625 23.125C20.8239 23.125 21.0147 23.046 21.1553 22.9053C21.296 22.7647 21.375 22.5739 21.375 22.375V2.375C21.375 2.17609 21.296 1.98532 21.1553 1.84467C21.0147 1.70402 20.8239 1.625 20.625 1.625Z" fill="black"/>
<path d="M16.625 7.875C16.625 6.94 16.625 6.473 16.424 6.125C16.2924 5.89699 16.103 5.70765 15.875 5.576C15.527 5.375 15.06 5.375 14.125 5.375H5.125C4.19 5.375 3.723 5.375 3.375 5.576C3.14699 5.70765 2.95765 5.89699 2.826 6.125C2.625 6.473 2.625 6.94 2.625 7.875C2.625 8.81 2.625 9.277 2.826 9.625C2.95765 9.85301 3.14699 10.0424 3.375 10.174C3.723 10.375 4.19 10.375 5.125 10.375H14.125C15.06 10.375 15.527 10.375 15.875 10.174C16.103 10.0424 16.2924 9.85301 16.424 9.625C16.625 9.277 16.625 8.81 16.625 7.875ZM16.625 16.875C16.625 15.94 16.625 15.473 16.424 15.125C16.2924 14.897 16.103 14.7076 15.875 14.576C15.527 14.375 15.06 14.375 14.125 14.375H8.125C7.19 14.375 6.723 14.375 6.375 14.576C6.14699 14.7076 5.95765 14.897 5.826 15.125C5.625 15.473 5.625 15.94 5.625 16.875C5.625 17.81 5.625 18.277 5.826 18.625C5.95765 18.853 6.14699 19.0424 6.375 19.174C6.723 19.375 7.19 19.375 8.125 19.375H14.125C15.06 19.375 15.527 19.375 15.875 19.174C16.103 19.0424 16.2924 18.853 16.424 18.625C16.625 18.277 16.625 17.81 16.625 16.875Z" fill="black"/>
</g>
<defs>
<clipPath id="clip0_221_21069">
<rect width="24" height="24" fill="white"/>
</clipPath>
</defs>
</svg>
