<svg width="24" height="24" viewBox="0 0 24 24" fill="none" xmlns="http://www.w3.org/2000/svg">
<g clip-path="url(#clip0_221_20311)">
<path d="M5.46997 6.52985C5.33749 6.38767 5.26537 6.19963 5.26879 6.00532C5.27222 5.81102 5.35093 5.62564 5.48835 5.48822C5.62576 5.35081 5.81114 5.2721 6.00545 5.26867C6.19975 5.26524 6.38779 5.33737 6.52997 5.46985L13.5 12.4398L17.47 8.46985C17.5749 8.36509 17.7084 8.29377 17.8538 8.26488C17.9992 8.236 18.1499 8.25085 18.2869 8.30756C18.4239 8.36427 18.5409 8.4603 18.6234 8.58351C18.7058 8.70673 18.7498 8.85161 18.75 8.99985V17.9998C18.75 18.1988 18.671 18.3895 18.5303 18.5302C18.3896 18.6708 18.1989 18.7498 18 18.7498H8.99997C8.85173 18.7497 8.70685 18.7057 8.58364 18.6232C8.46042 18.5408 8.36439 18.4237 8.30768 18.2868C8.25097 18.1498 8.23612 17.9991 8.265 17.8537C8.29389 17.7083 8.36521 17.5747 8.46997 17.4698L12.44 13.4998L5.46997 6.52985Z" fill="black"/>
</g>
<defs>
<clipPath id="clip0_221_20311">
<rect width="24" height="24" fill="white"/>
</clipPath>
</defs>
</svg>
