<svg width="24" height="24" viewBox="0 0 24 24" fill="none" xmlns="http://www.w3.org/2000/svg">
<g clip-path="url(#clip0_221_21161)">
<path fill-rule="evenodd" clip-rule="evenodd" d="M2.123 12.8159C2.41 13.8189 3.183 14.5909 4.728 16.1359L6.558 17.9659C9.248 20.6569 10.592 21.9999 12.262 21.9999C13.933 21.9999 15.277 20.6559 17.966 17.9669C20.656 15.2769 22 13.9329 22 12.2619C22 10.5919 20.656 9.24687 17.967 6.55787L16.137 4.72787C14.591 3.18287 13.819 2.40987 12.816 2.12287C11.813 1.83487 10.748 2.08087 8.619 2.57287L7.391 2.85587C5.599 3.26887 4.703 3.47587 4.089 4.08887C3.475 4.70187 3.27 5.59987 2.856 7.39087L2.572 8.61887C2.081 10.7489 1.836 11.8129 2.123 12.8159ZM10.122 7.27087C10.3149 7.45687 10.4688 7.67944 10.5747 7.92558C10.6806 8.17172 10.7363 8.4365 10.7388 8.70444C10.7412 8.97238 10.6902 9.23812 10.5888 9.48614C10.4874 9.73416 10.3376 9.95948 10.1481 10.149C9.95862 10.3384 9.7333 10.4882 9.48528 10.5897C9.23726 10.6911 8.97152 10.7421 8.70357 10.7396C8.43563 10.7372 8.17086 10.6814 7.92472 10.5755C7.67858 10.4696 7.45601 10.3157 7.27 10.1229C6.90306 9.74237 6.70015 9.23303 6.70494 8.70444C6.70973 8.17585 6.92184 7.67027 7.29562 7.29649C7.66941 6.9227 8.17499 6.7106 8.70357 6.7058C9.23216 6.70101 9.7415 6.90392 10.122 7.27087ZM19.05 12.0509L12.071 19.0309C11.9295 19.1674 11.74 19.2429 11.5434 19.2411C11.3467 19.2393 11.1586 19.1604 11.0196 19.0212C10.8806 18.8821 10.8019 18.694 10.8002 18.4973C10.7986 18.3007 10.8743 18.1113 11.011 17.9699L17.989 10.9899C18.1297 10.8492 18.3205 10.7701 18.5195 10.7701C18.7185 10.7701 18.9093 10.8492 19.05 10.9899C19.1907 11.1306 19.2697 11.3214 19.2697 11.5204C19.2697 11.7193 19.1907 11.9102 19.05 12.0509Z" fill="black"/>
</g>
<defs>
<clipPath id="clip0_221_21161">
<rect width="24" height="24" fill="white"/>
</clipPath>
</defs>
</svg>
