<svg width="24" height="24" viewBox="0 0 24 24" fill="none" xmlns="http://www.w3.org/2000/svg">
<g clip-path="url(#clip0_221_20291)">
<path d="M4 11.2501C3.80109 11.2501 3.61032 11.3291 3.46967 11.4697C3.32902 11.6104 3.25 11.8012 3.25 12.0001C3.25 12.199 3.32902 12.3898 3.46967 12.5304C3.61032 12.6711 3.80109 12.7501 4 12.7501H13.25V18.0001C13.2501 18.1483 13.2942 18.2932 13.3766 18.4164C13.459 18.5396 13.5761 18.6356 13.7131 18.6924C13.85 18.7491 14.0007 18.7639 14.1461 18.735C14.2915 18.7062 14.4251 18.6348 14.53 18.5301L20.53 12.5301C20.6705 12.3894 20.7493 12.1988 20.7493 12.0001C20.7493 11.8013 20.6705 11.6107 20.53 11.4701L14.53 5.47007C14.4251 5.36532 14.2915 5.29399 14.1461 5.26511C14.0007 5.23622 13.85 5.25107 13.7131 5.30779C13.5761 5.3645 13.459 5.46053 13.3766 5.58374C13.2942 5.70696 13.2501 5.85183 13.25 6.00007V11.2501H4Z" fill="black"/>
</g>
<defs>
<clipPath id="clip0_221_20291">
<rect width="24" height="24" fill="white"/>
</clipPath>
</defs>
</svg>
