<svg width="24" height="24" viewBox="0 0 24 24" fill="none" xmlns="http://www.w3.org/2000/svg">
<path d="M6.68586 2.85462V5.36358C6.68586 6.1497 6.04881 6.78679 5.26269 6.78679H3.97593V17.4495H5.26269C6.04881 17.4495 6.68586 18.0873 6.68586 18.8734V20.0256H17.2634V18.8734C17.2634 18.0873 17.9005 17.4495 18.6866 17.4495H21.2886C22.0747 17.4495 22.7117 18.0873 22.7117 18.8734V21.3824C22.7117 22.1685 22.0747 22.8056 21.2886 22.8056H18.6866C17.9469 22.8056 17.3391 22.2415 17.27 21.5199H6.67931C6.61017 22.2415 6.00243 22.8056 5.26269 22.8056H2.66072C1.8746 22.8056 1.23755 22.1685 1.23755 21.3824V18.8734C1.23755 18.1479 1.78011 17.5487 2.48169 17.4606V6.77564C1.78011 6.68761 1.23755 6.08906 1.23755 5.36358V2.85462C1.23755 2.0685 1.8746 1.43066 2.66072 1.43066H5.26269C6.04881 1.43066 6.68586 2.0685 6.68586 2.85462Z" fill="black"/>
<path d="M21.2463 6.78355H18.6893V9.34572C18.6893 9.75852 18.354 10.0928 17.9422 10.0928C17.5294 10.0928 17.1951 9.75852 17.1951 9.34572V6.78355H14.6324C14.2196 6.78355 13.8853 6.44919 13.8853 6.0364C13.8853 5.62461 14.2196 5.28931 14.6324 5.28931H17.1951V2.73174C17.1951 2.31894 17.5294 1.98462 17.9422 1.98462C18.354 1.98462 18.6893 2.31894 18.6893 2.73174V5.28931H21.2463C21.6592 5.28931 21.9935 5.62461 21.9935 6.0364C21.9935 6.44919 21.6592 6.78355 21.2463 6.78355Z" fill="black"/>
</svg>
