<svg width="24" height="24" viewBox="0 0 24 24" fill="none" xmlns="http://www.w3.org/2000/svg">
<g clip-path="url(#clip0_221_20306)">
<path d="M5.47003 17.47C5.39634 17.5387 5.33724 17.6215 5.29625 17.7135C5.25526 17.8055 5.23322 17.9048 5.23144 18.0055C5.22966 18.1062 5.24819 18.2062 5.28591 18.2996C5.32363 18.393 5.37977 18.4778 5.45099 18.549C5.52221 18.6203 5.60705 18.6764 5.70043 18.7141C5.79382 18.7518 5.89385 18.7704 5.99455 18.7686C6.09526 18.7668 6.19457 18.7448 6.28657 18.7038C6.37857 18.6628 6.46137 18.6037 6.53003 18.53L13.5 11.56L17.47 15.53C17.5749 15.6348 17.7085 15.7061 17.8539 15.735C17.9993 15.7639 18.15 15.749 18.287 15.6923C18.4239 15.6356 18.541 15.5395 18.6234 15.4163C18.7058 15.2931 18.7499 15.1482 18.75 15V6C18.75 5.80109 18.671 5.61032 18.5304 5.46967C18.3897 5.32902 18.1989 5.25 18 5.25H9.00003C8.85179 5.25013 8.70691 5.29419 8.5837 5.37661C8.46048 5.45903 8.36446 5.57611 8.30774 5.71308C8.25103 5.85004 8.23618 6.00074 8.26507 6.14614C8.29395 6.29154 8.36528 6.42511 8.47003 6.53L12.44 10.5L5.47003 17.47Z" fill="black"/>
</g>
<defs>
<clipPath id="clip0_221_20306">
<rect width="24" height="24" fill="white"/>
</clipPath>
</defs>
</svg>
