<svg width="24" height="24" viewBox="0 0 24 24" fill="none" xmlns="http://www.w3.org/2000/svg">
<g clip-path="url(#clip0_221_21075)">
<path fill-rule="evenodd" clip-rule="evenodd" d="M1.25 3.75C1.25 4.164 1.586 4.5 2 4.5H22C22.1989 4.5 22.3897 4.42098 22.5303 4.28033C22.671 4.13968 22.75 3.94891 22.75 3.75C22.75 3.55109 22.671 3.36032 22.5303 3.21967C22.3897 3.07902 22.1989 3 22 3H2C1.80109 3 1.61032 3.07902 1.46967 3.21967C1.32902 3.36032 1.25 3.55109 1.25 3.75Z" fill="black"/>
<path d="M7.5 7.75C6.565 7.75 6.098 7.75 5.75 7.951C5.52199 8.08265 5.33265 8.27199 5.201 8.5C5 8.848 5 9.315 5 10.25V19.25C5 20.185 5 20.652 5.201 21C5.33265 21.228 5.52199 21.4174 5.75 21.549C6.098 21.75 6.565 21.75 7.5 21.75C8.435 21.75 8.902 21.75 9.25 21.549C9.47801 21.4174 9.66735 21.228 9.799 21C10 20.652 10 20.185 10 19.25V10.25C10 9.315 10 8.848 9.799 8.5C9.66735 8.27199 9.47801 8.08265 9.25 7.951C8.902 7.75 8.435 7.75 7.5 7.75ZM16.5 7.75C15.565 7.75 15.098 7.75 14.75 7.951C14.522 8.08265 14.3326 8.27199 14.201 8.5C14 8.848 14 9.315 14 10.25V16.25C14 17.185 14 17.652 14.201 18C14.3326 18.228 14.522 18.4174 14.75 18.549C15.098 18.75 15.565 18.75 16.5 18.75C17.435 18.75 17.902 18.75 18.25 18.549C18.478 18.4174 18.6674 18.228 18.799 18C19 17.652 19 17.185 19 16.25V10.25C19 9.315 19 8.848 18.799 8.5C18.6674 8.27199 18.478 8.08265 18.25 7.951C17.902 7.75 17.435 7.75 16.5 7.75Z" fill="black"/>
</g>
<defs>
<clipPath id="clip0_221_21075">
<rect width="24" height="24" fill="white"/>
</clipPath>
</defs>
</svg>
