<svg width="24" height="24" viewBox="0 0 24 24" fill="none" xmlns="http://www.w3.org/2000/svg">
<g clip-path="url(#clip0_221_20819)">
<path d="M12.75 4C12.75 3.80109 12.6709 3.61032 12.5303 3.46967C12.3896 3.32902 12.1989 3.25 12 3.25C11.801 3.25 11.6103 3.32902 11.4696 3.46967C11.329 3.61032 11.25 3.80109 11.25 4V13.25H5.99995C5.85171 13.2501 5.70683 13.2942 5.58362 13.3766C5.4604 13.459 5.36438 13.5761 5.30766 13.7131C5.25095 13.85 5.2361 14.0007 5.26499 14.1461C5.29387 14.2915 5.36519 14.4251 5.46995 14.53L11.47 20.53C11.6106 20.6705 11.8012 20.7493 12 20.7493C12.1987 20.7493 12.3893 20.6705 12.53 20.53L18.53 14.53C18.6347 14.4251 18.706 14.2915 18.7349 14.1461C18.7638 14.0007 18.749 13.85 18.6922 13.7131C18.6355 13.5761 18.5395 13.459 18.4163 13.3766C18.2931 13.2942 18.1482 13.2501 18 13.25H12.75V4Z" fill="black"/>
</g>
<defs>
<clipPath id="clip0_221_20819">
<rect width="24" height="24" fill="white"/>
</clipPath>
</defs>
</svg>
