<svg width="24" height="24" viewBox="0 0 24 24" fill="none" xmlns="http://www.w3.org/2000/svg">
<path d="M13.2056 3.65794C12.9675 3.45774 12.635 3.41369 12.353 3.545C12.071 3.67631 11.8907 3.95916 11.8907 4.27023L11.8907 6.93857L2.19063 6.93857C1.97845 6.93857 1.77497 7.02286 1.62494 7.17288C1.47491 7.32291 1.39062 7.5264 1.39062 7.73857L1.39063 16.4637C1.39063 16.9055 1.74879 17.2637 2.19061 17.2637L11.9189 17.264V20.0658C11.9189 20.3814 12.1044 20.6675 12.3926 20.7962C12.6807 20.9249 13.0176 20.8722 13.2527 20.6617L22.3339 12.5265C22.5066 12.3718 22.6036 12.1498 22.6 11.9181C22.5964 11.6863 22.4924 11.4675 22.315 11.3183L13.2056 3.65794Z" fill="black"/>
</svg>
