<svg width="24" height="24" viewBox="0 0 24 24" fill="none" xmlns="http://www.w3.org/2000/svg">
<path fill-rule="evenodd" clip-rule="evenodd" d="M7.468 4.25H7.532C7.972 4.25 8.352 4.25 8.662 4.278C8.992 4.308 9.318 4.374 9.625 4.551C9.967 4.749 10.251 5.033 10.449 5.375C10.626 5.682 10.692 6.008 10.722 6.337C10.75 6.649 10.75 7.028 10.75 7.467V11.25H13.25V9.468C13.25 9.028 13.25 8.648 13.278 8.338C13.308 8.008 13.374 7.682 13.551 7.375C13.7485 7.03274 14.0327 6.74854 14.375 6.551C14.682 6.374 15.008 6.308 15.337 6.278C15.649 6.25 16.028 6.25 16.467 6.25H16.532C16.972 6.25 17.352 6.25 17.662 6.278C17.992 6.308 18.318 6.374 18.625 6.551C18.967 6.749 19.251 7.033 19.449 7.375C19.626 7.682 19.692 8.008 19.722 8.337C19.75 8.649 19.75 9.028 19.75 9.467V11.25H22C22.1989 11.25 22.3897 11.329 22.5303 11.4697C22.671 11.6103 22.75 11.8011 22.75 12C22.75 12.1989 22.671 12.3897 22.5303 12.5303C22.3897 12.671 22.1989 12.75 22 12.75H19.75V14.532C19.75 14.972 19.75 15.352 19.722 15.662C19.692 15.992 19.626 16.318 19.449 16.625C19.2514 16.9672 18.9672 17.2514 18.625 17.449C18.318 17.626 17.992 17.692 17.663 17.722C17.351 17.75 16.972 17.75 16.533 17.75H16.468C16.028 17.75 15.648 17.75 15.338 17.722C15.008 17.692 14.682 17.626 14.375 17.449C14.0328 17.2514 13.7486 16.9672 13.551 16.625C13.374 16.318 13.308 15.992 13.278 15.663C13.25 15.351 13.25 14.972 13.25 14.533V12.75H10.75V16.532C10.75 16.972 10.75 17.352 10.722 17.662C10.692 17.992 10.626 18.318 10.449 18.625C10.2515 18.9673 9.96726 19.2515 9.625 19.449C9.318 19.626 8.992 19.692 8.663 19.722C8.351 19.75 7.972 19.75 7.533 19.75H7.468C7.028 19.75 6.648 19.75 6.338 19.722C6.008 19.692 5.682 19.626 5.375 19.449C5.03274 19.2515 4.74854 18.9673 4.551 18.625C4.374 18.318 4.308 17.992 4.278 17.663C4.25 17.351 4.25 16.972 4.25 16.533V12.75H2C1.80109 12.75 1.61032 12.671 1.46967 12.5303C1.32902 12.3897 1.25 12.1989 1.25 12C1.25 11.8011 1.32902 11.6103 1.46967 11.4697C1.61032 11.329 1.80109 11.25 2 11.25H4.25V7.468C4.25 7.028 4.25 6.648 4.278 6.338C4.308 6.008 4.374 5.682 4.551 5.375C4.74854 5.03274 5.03274 4.74854 5.375 4.551C5.682 4.374 6.008 4.308 6.337 4.278C6.649 4.25 7.029 4.25 7.468 4.25Z" fill="black"/>
</svg>
