<svg width="24" height="24" viewBox="0 0 24 24" fill="none" xmlns="http://www.w3.org/2000/svg">
<path d="M3.65794 10.7944C3.45774 11.0325 3.41369 11.365 3.545 11.647C3.67631 11.929 3.95916 12.1093 4.27023 12.1093L6.93857 12.1093L6.93857 21.8094C6.93857 22.0216 7.02286 22.225 7.17288 22.3751C7.32291 22.5251 7.5264 22.6094 7.73857 22.6094L16.4637 22.6094C16.9055 22.6094 17.2637 22.2512 17.2637 21.8094L17.264 12.0811H20.0658C20.3814 12.0811 20.6675 11.8956 20.7962 11.6074C20.9249 11.3193 20.8722 10.9824 20.6617 10.7473L12.5265 1.66611C12.3718 1.49345 12.1498 1.39637 11.9181 1.4C11.6863 1.40363 11.4675 1.50761 11.3183 1.68502L3.65794 10.7944Z" fill="black"/>
</svg>
