<svg width="24" height="24" viewBox="0 0 24 24" fill="none" xmlns="http://www.w3.org/2000/svg">
<g clip-path="url(#clip0_221_20301)">
<path d="M18.53 17.47C18.6037 17.5387 18.6628 17.6215 18.7038 17.7135C18.7448 17.8055 18.7668 17.9048 18.7686 18.0055C18.7704 18.1062 18.7518 18.2062 18.7141 18.2996C18.6764 18.393 18.6203 18.4778 18.549 18.549C18.4778 18.6203 18.393 18.6764 18.2996 18.7141C18.2062 18.7518 18.1062 18.7704 18.0055 18.7686C17.9048 18.7668 17.8055 18.7448 17.7135 18.7038C17.6215 18.6628 17.5387 18.6037 17.47 18.53L10.5 11.56L6.53 15.53C6.42511 15.6348 6.29154 15.7061 6.14614 15.735C6.00074 15.7639 5.85004 15.749 5.71308 15.6923C5.57611 15.6356 5.45903 15.5395 5.37661 15.4163C5.29419 15.2931 5.25013 15.1482 5.25 15V6C5.25 5.80109 5.32902 5.61032 5.46967 5.46967C5.61032 5.32902 5.80109 5.25 6 5.25H15C15.1482 5.25013 15.2931 5.29419 15.4163 5.37661C15.5395 5.45903 15.6356 5.57611 15.6923 5.71308C15.749 5.85004 15.7639 6.00074 15.735 6.14614C15.7061 6.29154 15.6348 6.42511 15.53 6.53L11.56 10.5L18.53 17.47Z" fill="black"/>
</g>
<defs>
<clipPath id="clip0_221_20301">
<rect width="24" height="24" fill="white"/>
</clipPath>
</defs>
</svg>
