<svg width="24" height="24" viewBox="0 0 24 24" fill="none" xmlns="http://www.w3.org/2000/svg">
<g clip-path="url(#clip0_221_20281)">
<path d="M20.0001 11.2501C20.199 11.2501 20.3898 11.3291 20.5304 11.4697C20.6711 11.6104 20.7501 11.8012 20.7501 12.0001C20.7501 12.199 20.6711 12.3898 20.5304 12.5304C20.3898 12.6711 20.199 12.7501 20.0001 12.7501H10.7501V18.0001C10.7499 18.1483 10.7059 18.2932 10.6235 18.4164C10.541 18.5396 10.424 18.6356 10.287 18.6924C10.15 18.7491 9.99933 18.7639 9.85394 18.735C9.70854 18.7062 9.57496 18.6348 9.47007 18.5301L3.47007 12.5301C3.32962 12.3894 3.25073 12.1988 3.25073 12.0001C3.25073 11.8013 3.32962 11.6107 3.47007 11.4701L9.47007 5.47007C9.57496 5.36532 9.70854 5.29399 9.85394 5.26511C9.99933 5.23622 10.15 5.25107 10.287 5.30779C10.424 5.3645 10.541 5.46053 10.6235 5.58374C10.7059 5.70696 10.7499 5.85183 10.7501 6.00007V11.2501H20.0001Z" fill="black"/>
</g>
<defs>
<clipPath id="clip0_221_20281">
<rect width="24" height="24" fill="white"/>
</clipPath>
</defs>
</svg>
