<svg width="24" height="24" viewBox="0 0 24 24" fill="none" xmlns="http://www.w3.org/2000/svg">
<g clip-path="url(#clip0_221_21166)">
<path fill-rule="evenodd" clip-rule="evenodd" d="M4.7216 16.1294C3.18091 14.5887 2.40966 13.8175 2.12306 12.8159C1.83606 11.8129 2.08106 10.7489 2.57206 8.61887L2.86277 7.36186C3.27229 5.59015 3.47839 4.69855 4.08906 4.08887C4.70306 3.47587 5.59906 3.26887 7.39106 2.85587L8.61906 2.57287C10.7481 2.08087 11.8131 1.83487 12.8161 2.12287C13.817 2.40927 14.5878 3.17963 16.1274 4.71818L17.9671 6.55787C20.6561 9.24687 22.0001 10.5919 22.0001 12.2619C22.0001 13.9329 20.6561 15.2769 17.9661 17.9669C15.2771 20.6558 13.9331 21.9999 12.2621 21.9999C10.5921 21.9999 9.24806 20.6569 6.55806 17.9659L4.7216 16.1294ZM10.5747 7.92558C10.4688 7.67944 10.3149 7.45687 10.1221 7.27087C9.74157 6.90392 9.23222 6.70101 8.70364 6.7058C8.17505 6.7106 7.66947 6.9227 7.29568 7.29649C6.9219 7.67027 6.70979 8.17585 6.705 8.70444C6.70021 9.23303 6.90312 9.74237 7.27006 10.1229C7.45607 10.3157 7.67864 10.4696 7.92478 10.5755C8.17092 10.6814 8.43569 10.7372 8.70364 10.7396C8.97158 10.7421 9.23732 10.6911 9.48534 10.5897C9.73336 10.4882 9.95868 10.3384 10.1482 10.149C10.3376 9.95948 10.4874 9.73416 10.5889 9.48614C10.6903 9.23812 10.7413 8.97238 10.7388 8.70444C10.7364 8.4365 10.6806 8.17172 10.5747 7.92558ZM13.446 12.2875L10.446 15.2875C10.3135 15.4296 10.2413 15.6177 10.2448 15.812C10.2482 16.0063 10.3269 16.1917 10.4643 16.3291C10.6017 16.4665 10.7871 16.5452 10.9814 16.5486C11.1757 16.5521 11.3638 16.4799 11.506 16.3475L13.976 13.8775L16.446 16.3475C16.5146 16.4211 16.5974 16.4802 16.6894 16.5212C16.7814 16.5622 16.8807 16.5843 16.9814 16.586C17.0821 16.5878 17.1822 16.5693 17.2755 16.5316C17.3689 16.4939 17.4538 16.4377 17.525 16.3665C17.5962 16.2953 17.6524 16.2104 17.6901 16.1171C17.7278 16.0237 17.7463 15.9236 17.7445 15.8229C17.7428 15.7222 17.7207 15.6229 17.6797 15.5309C17.6387 15.4389 17.5796 15.3561 17.506 15.2875L14.506 12.2875C14.3653 12.147 14.1747 12.0681 13.976 12.0681C13.7772 12.0681 13.5866 12.147 13.446 12.2875Z" fill="black"/>
</g>
<defs>
<clipPath id="clip0_221_21166">
<rect width="24" height="24" fill="white"/>
</clipPath>
</defs>
</svg>
