<svg width="24" height="24" viewBox="0 0 24 24" fill="none" xmlns="http://www.w3.org/2000/svg">
<g clip-path="url(#clip0_221_21063)">
<path fill-rule="evenodd" clip-rule="evenodd" d="M3.375 1.625C3.57391 1.625 3.76468 1.70402 3.90533 1.84467C4.04598 1.98532 4.125 2.17609 4.125 2.375V22.375C4.125 22.5739 4.04598 22.7647 3.90533 22.9053C3.76468 23.046 3.57391 23.125 3.375 23.125C3.17609 23.125 2.98532 23.046 2.84467 22.9053C2.70402 22.7647 2.625 22.5739 2.625 22.375V2.375C2.625 2.17609 2.70402 1.98532 2.84467 1.84467C2.98532 1.70402 3.17609 1.625 3.375 1.625Z" fill="black"/>
<path d="M7.375 7.875C7.375 6.94 7.375 6.473 7.576 6.125C7.70765 5.89699 7.89699 5.70765 8.125 5.576C8.473 5.375 8.94 5.375 9.875 5.375H18.875C19.81 5.375 20.277 5.375 20.625 5.576C20.853 5.70765 21.0424 5.89699 21.174 6.125C21.375 6.473 21.375 6.94 21.375 7.875C21.375 8.81 21.375 9.277 21.174 9.625C21.0424 9.85301 20.853 10.0424 20.625 10.174C20.277 10.375 19.81 10.375 18.875 10.375H9.875C8.94 10.375 8.473 10.375 8.125 10.174C7.89699 10.0424 7.70765 9.85301 7.576 9.625C7.375 9.277 7.375 8.81 7.375 7.875ZM7.375 16.875C7.375 15.94 7.375 15.473 7.576 15.125C7.70765 14.897 7.89699 14.7076 8.125 14.576C8.473 14.375 8.94 14.375 9.875 14.375H15.875C16.81 14.375 17.277 14.375 17.625 14.576C17.853 14.7076 18.0424 14.897 18.174 15.125C18.375 15.473 18.375 15.94 18.375 16.875C18.375 17.81 18.375 18.277 18.174 18.625C18.0424 18.853 17.853 19.0424 17.625 19.174C17.277 19.375 16.81 19.375 15.875 19.375H9.875C8.94 19.375 8.473 19.375 8.125 19.174C7.89699 19.0424 7.70765 18.853 7.576 18.625C7.375 18.277 7.375 17.81 7.375 16.875Z" fill="black"/>
</g>
<defs>
<clipPath id="clip0_221_21063">
<rect width="24" height="24" fill="white"/>
</clipPath>
</defs>
</svg>
