<svg width="24" height="24" viewBox="0 0 24 24" fill="none" xmlns="http://www.w3.org/2000/svg">
<g clip-path="url(#clip0_221_20809)">
<path d="M12.75 20.0001C12.75 20.199 12.6709 20.3898 12.5303 20.5304C12.3896 20.6711 12.1989 20.7501 12 20.7501C11.801 20.7501 11.6103 20.6711 11.4696 20.5304C11.329 20.3898 11.25 20.199 11.25 20.0001V10.7501H5.99995C5.85171 10.7499 5.70683 10.7059 5.58362 10.6235C5.4604 10.541 5.36438 10.424 5.30766 10.287C5.25095 10.15 5.2361 9.99933 5.26499 9.85394C5.29387 9.70854 5.36519 9.57496 5.46995 9.47007L11.47 3.47007C11.6106 3.32962 11.8012 3.25073 12 3.25073C12.1987 3.25073 12.3893 3.32962 12.53 3.47007L18.53 9.47007C18.6347 9.57496 18.706 9.70854 18.7349 9.85394C18.7638 9.99933 18.749 10.15 18.6922 10.287C18.6355 10.424 18.5395 10.541 18.4163 10.6235C18.2931 10.7059 18.1482 10.7499 18 10.7501H12.75V20.0001Z" fill="black"/>
</g>
<defs>
<clipPath id="clip0_221_20809">
<rect width="24" height="24" fill="white"/>
</clipPath>
</defs>
</svg>
