<svg width="24" height="24" viewBox="0 0 24 24" fill="none" xmlns="http://www.w3.org/2000/svg">
<g clip-path="url(#clip0_221_20316)">
<path d="M18.53 6.52985C18.6625 6.38767 18.7346 6.19963 18.7312 6.00532C18.7277 5.81102 18.649 5.62564 18.5116 5.48822C18.3742 5.35081 18.1888 5.2721 17.9945 5.26867C17.8002 5.26524 17.6122 5.33737 17.47 5.46985L10.5 12.4398L6.53 8.46985C6.42511 8.36509 6.29154 8.29377 6.14614 8.26488C6.00074 8.236 5.85004 8.25085 5.71308 8.30756C5.57611 8.36427 5.45903 8.4603 5.37661 8.58351C5.29419 8.70673 5.25013 8.85161 5.25 8.99985V17.9998C5.25 18.4138 5.586 18.7498 6 18.7498H15C15.1482 18.7497 15.2931 18.7057 15.4163 18.6232C15.5395 18.5408 15.6356 18.4237 15.6923 18.2868C15.749 18.1498 15.7638 17.9991 15.735 17.8537C15.7061 17.7083 15.6348 17.5747 15.53 17.4698L11.56 13.4998L18.53 6.52985Z" fill="black"/>
</g>
<defs>
<clipPath id="clip0_221_20316">
<rect width="24" height="24" fill="white"/>
</clipPath>
</defs>
</svg>
