<svg width="24" height="24" viewBox="0 0 24 24" fill="none" xmlns="http://www.w3.org/2000/svg">
<g clip-path="url(#clip0_221_20655)">
<path fill-rule="evenodd" clip-rule="evenodd" d="M6.871 19.499C7.801 20 8.915 20 11.142 20H13.779C17.654 20 19.592 20 20.796 18.828C22 17.656 22 15.771 22 12C22 8.229 22 6.343 20.796 5.172C19.592 4.001 17.654 4 13.78 4H11.143C8.916 4 7.802 4 6.873 4.501C5.943 5.003 5.353 5.921 4.172 7.76L3.49 8.82C2.497 10.366 2 11.14 2 12C2 12.86 2.497 13.634 3.49 15.18L4.17 16.24C5.351 18.078 5.941 18.997 6.871 19.499ZM11.031 8.969C10.8903 8.8283 10.6995 8.74926 10.5005 8.74926C10.3015 8.74926 10.1107 8.8283 9.97 8.969C9.8293 9.1097 9.75026 9.30052 9.75026 9.4995C9.75026 9.69848 9.8293 9.8893 9.97 10.03L11.94 12L9.97 13.97C9.89631 14.0387 9.83721 14.1215 9.79622 14.2135C9.75523 14.3055 9.73318 14.4048 9.73141 14.5055C9.72963 14.6062 9.74816 14.7062 9.78588 14.7996C9.8236 14.893 9.87974 14.9778 9.95096 15.049C10.0222 15.1203 10.107 15.1764 10.2004 15.2141C10.2938 15.2518 10.3938 15.2704 10.4945 15.2686C10.5952 15.2668 10.6945 15.2448 10.7865 15.2038C10.8785 15.1628 10.9613 15.1037 11.03 15.03L13 13.06L14.97 15.03C15.1122 15.1625 15.3002 15.2346 15.4945 15.2312C15.6888 15.2277 15.8742 15.149 16.0116 15.0116C16.149 14.8742 16.2277 14.6888 16.2312 14.4945C16.2346 14.3002 16.1625 14.1122 16.03 13.97L14.06 12L16.03 10.03C16.1625 9.88783 16.2346 9.69978 16.2312 9.50548C16.2277 9.31118 16.149 9.12579 16.0116 8.98838C15.8742 8.85097 15.6888 8.77225 15.4945 8.76882C15.3002 8.7654 15.1122 8.83752 14.97 8.97L13 10.94L11.031 8.969Z" fill="black"/>
</g>
<defs>
<clipPath id="clip0_221_20655">
<rect width="24" height="24" fill="white"/>
</clipPath>
</defs>
</svg>
