<svg width="24" height="24" viewBox="0 0 24 24" fill="none" xmlns="http://www.w3.org/2000/svg">
<g clip-path="url(#clip0_221_20744)">
<path d="M8.20227 5.03694C8.20227 5.46994 8.20227 5.86694 8.24527 6.18894C8.29327 6.54494 8.40527 6.91994 8.71527 7.22894C9.02527 7.53794 9.39927 7.65094 9.75527 7.69894C10.0783 7.74194 10.4752 7.74194 10.9072 7.74194L17.8804 7.78994C18.3134 7.78994 18.7105 7.78994 19.0324 7.74694C19.3884 7.69894 19.7634 7.58694 20.0724 7.27694C20.3814 6.96694 20.4944 6.59294 20.5424 6.23694C20.5854 5.91394 20.5854 5.51694 20.5854 5.08494V4.99494C20.5854 4.56194 20.5854 4.16494 20.5424 3.84294C20.4944 3.48694 20.3824 3.11194 20.0724 2.80294C19.7624 2.49394 19.3884 2.38094 19.0324 2.33294C18.7095 2.28994 18.3125 2.28994 17.8805 2.28994L10.9073 2.24194C10.4743 2.24194 10.0773 2.24194 9.75527 2.28494C9.39927 2.33294 9.02427 2.44494 8.71527 2.75494C8.40627 3.06494 8.29327 3.43894 8.24527 3.79494C8.20227 4.11794 8.20227 4.51494 8.20227 4.94694V5.03694Z" fill="black"/>
<path d="M2.25 5.00006C2.25 4.27071 2.53973 3.57124 3.05546 3.05552C3.57118 2.53979 4.27065 2.25006 5 2.25006C5.72935 2.25006 6.42882 2.53979 6.94454 3.05552C7.46027 3.57124 7.75 4.27071 7.75 5.00006C7.75 5.7294 7.46027 6.42888 6.94454 6.9446C6.42882 7.46033 5.72935 7.75006 5 7.75006C4.27065 7.75006 3.57118 7.46033 3.05546 6.9446C2.53973 6.42888 2.25 5.7294 2.25 5.00006Z" fill="black"/>
<path d="M2.25 12.0001C2.25 11.2707 2.53973 10.5712 3.05546 10.0555C3.57118 9.53979 4.27065 9.25006 5 9.25006C5.72935 9.25006 6.42882 9.53979 6.94454 10.0555C7.46027 10.5712 7.75 11.2707 7.75 12.0001C7.75 12.7294 7.46027 13.4289 6.94454 13.9446C6.42882 14.4603 5.72935 14.7501 5 14.7501C4.27065 14.7501 3.57118 14.4603 3.05546 13.9446C2.53973 13.4289 2.25 12.7294 2.25 12.0001Z" fill="black"/>
<path d="M3.05546 17.0555C2.53973 17.5712 2.25 18.2707 2.25 19.0001C2.25 19.7294 2.53973 20.4289 3.05546 20.9446C3.57118 21.4603 4.27065 21.7501 5 21.7501C5.72935 21.7501 6.42882 21.4603 6.94454 20.9446C7.46027 20.4289 7.75 19.7294 7.75 19.0001C7.75 18.2707 7.46027 17.5712 6.94454 17.0555C6.42882 16.5398 5.72935 16.2501 5 16.2501C4.27065 16.2501 3.57118 16.5398 3.05546 17.0555Z" fill="black"/>
<path d="M8.20223 19.0505C8.20223 19.4835 8.20223 19.8805 8.24523 20.2025C8.29323 20.5585 8.40523 20.9335 8.71523 21.2425C9.02523 21.5515 9.39923 21.6645 9.75523 21.7125C10.0782 21.7555 10.4752 21.7555 10.9072 21.7555L17.8804 21.8035C18.3134 21.8035 18.7104 21.8035 19.0324 21.7605C19.3884 21.7125 19.7634 21.6005 20.0724 21.2905C20.3814 20.9805 20.4944 20.6065 20.5424 20.2505C20.5854 19.9275 20.5854 19.5305 20.5854 19.0985V19.0085C20.5854 18.5755 20.5854 18.1785 20.5424 17.8565C20.4944 17.5005 20.3824 17.1255 20.0724 16.8165C19.7624 16.5075 19.3884 16.3945 19.0324 16.3465C18.7094 16.3035 18.3124 16.3035 17.8804 16.3035L10.9072 16.2555C10.4742 16.2555 10.0772 16.2555 9.75523 16.2985C9.39923 16.3465 9.02423 16.4585 8.71523 16.7685C8.40623 17.0785 8.29323 17.4525 8.24523 17.8085C8.20223 18.1315 8.20223 18.5285 8.20223 18.9605V19.0505Z" fill="black"/>
<path d="M8.24527 13.1735C8.20227 12.8515 8.20227 12.4545 8.20227 12.0215V11.9315C8.20227 11.4995 8.20227 11.1025 8.24527 10.7795C8.29327 10.4235 8.40627 10.0495 8.71527 9.73955C9.02427 9.42955 9.39927 9.31754 9.75527 9.26954C10.0773 9.22655 10.4743 9.22655 10.9073 9.22655L17.8804 9.27455C18.3124 9.27455 18.7095 9.27455 19.0324 9.31754C19.3884 9.36554 19.7624 9.47855 20.0724 9.78755C20.3824 10.0965 20.4944 10.4715 20.5424 10.8275C20.5854 11.1495 20.5854 11.5465 20.5854 11.9795V12.0695C20.5854 12.5015 20.5854 12.8985 20.5424 13.2215C20.4944 13.5775 20.3814 13.9515 20.0724 14.2615C19.7634 14.5715 19.3884 14.6835 19.0324 14.7315C18.7105 14.7745 18.3135 14.7745 17.8805 14.7745L10.9073 14.7265C10.4753 14.7265 10.0783 14.7265 9.75527 14.6835C9.39927 14.6355 9.02527 14.5225 8.71527 14.2135C8.40527 13.9045 8.29327 13.5295 8.24527 13.1735Z" fill="black"/>
</g>
<defs>
<clipPath id="clip0_221_20744">
<rect width="24" height="24" fill="white"/>
</clipPath>
</defs>
</svg>
