<svg width="24" height="24" viewBox="0 0 24 24" fill="none" xmlns="http://www.w3.org/2000/svg">
<g clip-path="url(#clip0_221_21140)">
<path d="M13.1514 2.125H5.08C4.647 2.125 4.25 2.125 3.928 2.168C3.572 2.216 3.197 2.328 2.888 2.638C2.579 2.948 2.466 3.322 2.418 3.678C2.375 4.001 2.375 4.398 2.375 4.83V4.92C2.375 5.353 2.375 5.75 2.418 6.072C2.466 6.428 2.578 6.803 2.888 7.112C3.198 7.421 3.572 7.534 3.928 7.582C4.25099 7.625 4.64796 7.625 5.07994 7.625H13.1514V2.125Z" fill="black"/>
<path fill-rule="evenodd" clip-rule="evenodd" d="M14.6514 7.625H18.92C19.353 7.625 19.75 7.625 20.072 7.582C20.428 7.534 20.803 7.422 21.112 7.112C21.421 6.802 21.534 6.428 21.582 6.072C21.625 5.749 21.625 5.352 21.625 4.92V4.83C21.625 4.397 21.625 4 21.582 3.678C21.534 3.322 21.422 2.947 21.112 2.638C20.802 2.329 20.428 2.216 20.072 2.168C19.749 2.125 19.352 2.125 18.92 2.125H14.6514V7.625ZM17.5881 6.12374L16.4363 5.05234C16.1338 4.76995 16.1169 4.29615 16.3983 3.99366C16.6796 3.69117 17.1534 3.67318 17.457 3.95557L18.1021 4.55528L18.7642 3.94608C19.0688 3.6658 19.5427 3.68589 19.8229 3.99049C20.1022 4.29404 20.082 4.76892 19.7785 5.04814L18.6056 6.12587C18.3179 6.39134 17.8747 6.38921 17.5881 6.12374Z" fill="black"/>
<path fill-rule="evenodd" clip-rule="evenodd" d="M21.625 15.2561V12.3297C21.625 11.8967 21.625 11.4997 21.582 11.1777C21.534 10.8217 21.422 10.4467 21.112 10.1377C20.802 9.8287 20.428 9.7157 20.072 9.6677C19.749 9.6247 19.352 9.6247 18.9201 9.6247H5.08C4.64702 9.6247 4.24999 9.6247 3.928 9.6677C3.572 9.7157 3.197 9.8277 2.888 10.1377C2.579 10.4477 2.466 10.8217 2.418 11.1777C2.375 11.5007 2.375 11.8977 2.375 12.3297V15.2561H21.625ZM19.0108 12.4737C19.0108 12.968 18.6101 13.3687 18.1158 13.3687C17.6215 13.3687 17.2208 12.968 17.2208 12.4737C17.2208 11.9794 17.6215 11.5787 18.1158 11.5787C18.6101 11.5787 19.0108 11.9794 19.0108 12.4737Z" fill="black"/>
<path fill-rule="evenodd" clip-rule="evenodd" d="M2.375 16.7561V19.92C2.375 20.353 2.375 20.75 2.418 21.072C2.466 21.428 2.578 21.803 2.888 22.112C3.198 22.421 3.572 22.534 3.928 22.582C4.25099 22.625 4.64796 22.625 5.07994 22.625H18.92C19.353 22.625 19.75 22.625 20.072 22.582C20.428 22.534 20.803 22.422 21.112 22.112C21.421 21.802 21.534 21.428 21.582 21.072C21.625 20.749 21.625 20.352 21.625 19.92V16.7561H2.375ZM18.1158 20.5401C18.6101 20.5401 19.0108 20.1394 19.0108 19.6451C19.0108 19.1508 18.6101 18.7501 18.1158 18.7501C17.6215 18.7501 17.2208 19.1508 17.2208 19.6451C17.2208 20.1394 17.6215 20.5401 18.1158 20.5401Z" fill="black"/>
</g>
<defs>
<clipPath id="clip0_221_21140">
<rect width="24" height="24" fill="white"/>
</clipPath>
</defs>
</svg>
