<svg width="24" height="24" viewBox="0 0 24 24" fill="none" xmlns="http://www.w3.org/2000/svg">
<path fill-rule="evenodd" clip-rule="evenodd" d="M22.6382 16.5543C22.6382 19.9791 19.8618 22.7555 16.437 22.7555C13.0121 22.7555 10.2357 19.9791 10.2357 16.5543C10.2357 13.1294 13.0121 10.353 16.437 10.353C19.8618 10.353 22.6382 13.1294 22.6382 16.5543ZM17.0435 13.553L19.1448 15.5557C19.4479 15.8449 19.4586 16.3248 19.1705 16.6279C18.8813 16.931 18.4015 16.9417 18.0983 16.6536L17.2564 15.8509V19.4321C17.2564 19.8509 16.9169 20.1904 16.4981 20.1904C16.0793 20.1904 15.7397 19.8509 15.7397 19.4321V15.8063L14.8251 16.6461C14.5166 16.9299 14.0368 16.9096 13.754 16.6011C13.4702 16.2926 13.4905 15.8128 13.799 15.53L15.971 13.5347C16.0046 13.5022 16.0412 13.4727 16.0804 13.4468C16.2723 13.3195 16.509 13.2892 16.722 13.3551C16.8457 13.3933 16.9558 13.4622 17.0435 13.553Z" fill="black"/>
<path fill-rule="evenodd" clip-rule="evenodd" d="M14.9669 8.34759L12.4869 6.04589C12.1923 5.77138 11.7362 5.78195 11.4511 6.05646L1.52664 15.9071C1.23312 16.1922 1.23101 16.6673 1.52241 16.9629C1.81276 17.2585 2.2868 17.2585 2.58031 16.9735L11.9949 7.62959L13.9492 9.4456C14.2522 9.72011 14.7252 9.69901 15.006 9.40339C15.2869 9.09721 15.2689 8.6221 14.9669 8.34759Z" fill="black"/>
</svg>
