<svg width="24" height="24" viewBox="0 0 24 24" fill="none" xmlns="http://www.w3.org/2000/svg">
<g clip-path="url(#clip0_221_20929)">
<path fill-rule="evenodd" clip-rule="evenodd" d="M7.25 12C7.25 10.7402 7.75045 9.53204 8.64124 8.64124C9.53204 7.75045 10.7402 7.25 12 7.25C13.2598 7.25 14.468 7.75045 15.3588 8.64124C16.2496 9.53204 16.75 10.7402 16.75 12C16.75 13.2598 16.2496 14.468 15.3588 15.3588C14.468 16.2496 13.2598 16.75 12 16.75C10.7402 16.75 9.53204 16.2496 8.64124 15.3588C7.75045 14.468 7.25 13.2598 7.25 12ZM13.9838 11.47C14.2723 11.1728 14.2651 10.698 13.9679 10.4095C13.6706 10.1211 13.1958 10.1282 12.9073 10.4255L11.6551 11.716L11.3558 11.3567C11.0907 11.0385 10.6178 10.9954 10.2995 11.2605C9.98128 11.5256 9.93819 11.9985 10.2033 12.3168L11.0363 13.3168C11.1724 13.4802 11.3716 13.5782 11.5841 13.5862C11.7967 13.5943 12.0027 13.5117 12.1508 13.359L13.9838 11.47Z" fill="black"/>
</g>
<defs>
<clipPath id="clip0_221_20929">
<rect width="24" height="24" fill="white"/>
</clipPath>
</defs>
</svg>
