<svg width="24" height="24" viewBox="0 0 24 24" fill="none" xmlns="http://www.w3.org/2000/svg">
<g clip-path="url(#clip0_221_20611)">
<path fill-rule="evenodd" clip-rule="evenodd" d="M12 22C10.114 22 9.172 22 8.586 21.414C8 20.828 8 19.886 8 18C8 16.114 8 15.172 8.586 14.586C9.172 14 10.114 14 12 14C13.886 14 14.828 14 15.414 14.586C16 15.172 16 16.114 16 18C16 19.886 16 20.828 15.414 21.414C14.828 22 13.886 22 12 22ZM13.805 18.916L12.471 20.249C12.346 20.3737 12.1766 20.4437 12 20.4437C11.8234 20.4437 11.654 20.3737 11.529 20.249L10.195 18.916C10.1306 18.8546 10.0791 18.781 10.0435 18.6995C10.008 18.6179 9.98913 18.5301 9.98805 18.4411C9.98696 18.3522 10.0037 18.2639 10.0372 18.1815C10.0708 18.0991 10.1205 18.0243 10.1834 17.9614C10.2463 17.8985 10.3211 17.8488 10.4035 17.8152C10.4859 17.7817 10.5742 17.765 10.6631 17.7661C10.7521 17.7671 10.8399 17.786 10.9215 17.8215C11.003 17.8571 11.0766 17.9086 11.138 17.973L11.333 18.168V16.222C11.333 16.0451 11.4033 15.8754 11.5284 15.7504C11.6534 15.6253 11.8231 15.555 12 15.555C12.1769 15.555 12.3466 15.6253 12.4716 15.7504C12.5967 15.8754 12.667 16.0451 12.667 16.222V18.168L12.862 17.973C12.9881 17.8529 13.1561 17.7869 13.3301 17.789C13.5042 17.7912 13.6705 17.8613 13.7936 17.9844C13.9167 18.1075 13.9868 18.2738 13.989 18.4479C13.9911 18.6219 13.9251 18.7899 13.805 18.916Z" fill="black"/>
<path d="M6.5 18V17.91C6.5 17.045 6.5 16.251 6.587 15.606C6.682 14.895 6.907 14.143 7.525 13.526C8.143 12.907 8.895 12.682 9.605 12.586C10.251 12.5 11.045 12.5 11.911 12.5H12.089C12.955 12.5 13.749 12.5 14.394 12.587C15.105 12.682 15.857 12.907 16.474 13.525C17.093 14.143 17.318 14.895 17.414 15.605C17.499 16.242 17.5 17.021 17.5 17.872C20.073 17.322 22 15.06 22 12.352C22 9.882 20.393 7.78 18.155 7.015C17.837 4.194 15.415 2 12.476 2C9.32 2 6.762 4.528 6.762 7.647C6.762 8.337 6.887 8.997 7.116 9.609C6.84249 9.55612 6.56458 9.52933 6.286 9.529C3.919 9.53 2 11.426 2 13.765C2 16.104 3.919 18 6.286 18H6.5Z" fill="black"/>
</g>
<defs>
<clipPath id="clip0_221_20611">
<rect width="24" height="24" fill="white"/>
</clipPath>
</defs>
</svg>
