<svg width="24" height="24" viewBox="0 0 24 24" fill="none" xmlns="http://www.w3.org/2000/svg">
<g clip-path="url(#clip0_221_21145)">
<path fill-rule="evenodd" clip-rule="evenodd" d="M12 22C7.286 22 4.929 22 3.464 20.535C2 19.072 2 16.714 2 12C2 7.286 2 4.929 3.464 3.464C4.93 2 7.286 2 12 2C16.714 2 19.071 2 20.535 3.464C22 4.93 22 7.286 22 12C22 16.714 22 19.071 20.535 20.535C19.072 22 16.714 22 12 22ZM16.03 8.97C16.1705 9.11063 16.2493 9.30125 16.2493 9.5C16.2493 9.69875 16.1705 9.88937 16.03 10.03L11.03 15.03C10.8894 15.1705 10.6988 15.2493 10.5 15.2493C10.3012 15.2493 10.1106 15.1705 9.97 15.03L7.97 13.03C7.89631 12.9613 7.83721 12.8785 7.79622 12.7865C7.75523 12.6945 7.73319 12.5952 7.73141 12.4945C7.72963 12.3938 7.74816 12.2938 7.78588 12.2004C7.8236 12.107 7.87974 12.0222 7.95096 11.951C8.02218 11.8797 8.10701 11.8236 8.2004 11.7859C8.29379 11.7482 8.39382 11.7296 8.49452 11.7314C8.59522 11.7332 8.69454 11.7552 8.78654 11.7962C8.87854 11.8372 8.96134 11.8963 9.03 11.97L10.5 13.44L14.97 8.97C15.1106 8.82955 15.3012 8.75066 15.5 8.75066C15.6988 8.75066 15.8894 8.82955 16.03 8.97Z" fill="black"/>
</g>
<defs>
<clipPath id="clip0_221_21145">
<rect width="24" height="24" fill="white"/>
</clipPath>
</defs>
</svg>
