<svg width="24" height="24" viewBox="0 0 24 24" fill="none" xmlns="http://www.w3.org/2000/svg">
<g clip-path="url(#clip0_221_20974)">
<path fill-rule="evenodd" clip-rule="evenodd" d="M12 22C17.523 22 22 17.523 22 12C22 6.477 17.523 2 12 2C6.477 2 2 6.477 2 12C2 17.523 6.477 22 12 22ZM15.53 9.97C15.6705 10.1106 15.7493 10.3012 15.7493 10.5C15.7493 10.6988 15.6705 10.8894 15.53 11.03L12.53 14.03C12.3894 14.1705 12.1988 14.2493 12 14.2493C11.8012 14.2493 11.6106 14.1705 11.47 14.03L8.47 11.03C8.39631 10.9613 8.33721 10.8785 8.29622 10.7865C8.25523 10.6945 8.23318 10.5952 8.23141 10.4945C8.22963 10.3938 8.24816 10.2938 8.28588 10.2004C8.3236 10.107 8.37974 10.0222 8.45096 9.95096C8.52218 9.87974 8.60701 9.8236 8.7004 9.78588C8.79379 9.74816 8.89382 9.72963 8.99452 9.73141C9.09522 9.73318 9.19454 9.75523 9.28654 9.79622C9.37854 9.83721 9.46134 9.89631 9.53 9.97L12 12.44L14.47 9.97C14.6106 9.82955 14.8012 9.75066 15 9.75066C15.1988 9.75066 15.3894 9.82955 15.53 9.97Z" fill="black"/>
</g>
<defs>
<clipPath id="clip0_221_20974">
<rect width="24" height="24" fill="white"/>
</clipPath>
</defs>
</svg>
