<svg width="24" height="24" viewBox="0 0 24 24" fill="none" xmlns="http://www.w3.org/2000/svg">
<g clip-path="url(#clip0_221_20341)">
<path fill-rule="evenodd" clip-rule="evenodd" d="M2 12C2 17.523 6.477 22 12 22C17.523 22 22 17.523 22 12C22 6.477 17.523 2 12 2C6.477 2 2 6.477 2 12ZM15.53 12.47C15.6705 12.6106 15.7493 12.8012 15.7493 13C15.7493 13.1988 15.6705 13.3894 15.53 13.53L12.53 16.53C12.3894 16.6705 12.1988 16.7493 12 16.7493C11.8012 16.7493 11.6106 16.6705 11.47 16.53L8.47 13.53C8.39631 13.4613 8.33721 13.3785 8.29622 13.2865C8.25523 13.1945 8.23318 13.0952 8.23141 12.9945C8.22963 12.8938 8.24816 12.7938 8.28588 12.7004C8.3236 12.607 8.37974 12.5222 8.45096 12.451C8.52218 12.3797 8.60701 12.3236 8.7004 12.2859C8.79379 12.2482 8.89382 12.2296 8.99452 12.2314C9.09522 12.2332 9.19454 12.2552 9.28654 12.2962C9.37854 12.3372 9.46134 12.3963 9.53 12.47L11.25 14.19V8C11.25 7.80109 11.329 7.61032 11.4697 7.46967C11.6103 7.32902 11.8011 7.25 12 7.25C12.1989 7.25 12.3897 7.32902 12.5303 7.46967C12.671 7.61032 12.75 7.80109 12.75 8V14.19L14.47 12.47C14.6106 12.3295 14.8012 12.2507 15 12.2507C15.1988 12.2507 15.3894 12.3295 15.53 12.47Z" fill="black"/>
</g>
<defs>
<clipPath id="clip0_221_20341">
<rect width="24" height="24" fill="white"/>
</clipPath>
</defs>
</svg>
