<svg width="24" height="24" viewBox="0 0 24 24" fill="none" xmlns="http://www.w3.org/2000/svg">
<path d="M22.7833 2.77111C22.7833 2.39147 22.6333 2.02816 22.3648 1.76077C22.0964 1.49236 21.7331 1.34131 21.3545 1.34131H17.4611C17.0814 1.34131 16.7181 1.49236 16.4497 1.76077C16.1823 2.02816 16.0312 2.39147 16.0312 2.77111V6.54209C16.0312 6.69243 16.0551 6.84036 16.1005 6.98088L6.89189 16.1577C6.78518 16.1325 6.67511 16.1194 6.56372 16.1194H2.67028C2.29064 16.1194 1.92732 16.2704 1.65891 16.5388C1.39153 16.8062 1.24048 17.1695 1.24048 17.5492V21.3202C1.24048 21.6988 1.39153 22.0621 1.65891 22.3305C1.92732 22.5989 2.29064 22.749 2.67028 22.749H6.56372C6.94235 22.749 7.30567 22.5989 7.57408 22.3305C7.84248 22.0621 7.99251 21.6988 7.99251 21.3202V17.5492C7.99251 17.4363 7.97924 17.3248 7.95353 17.2169L17.2475 7.95495C17.3177 7.96551 17.3891 7.9709 17.4611 7.9709H21.3545C21.7331 7.9709 22.0964 7.82084 22.3648 7.55244C22.6333 7.28403 22.7833 6.92072 22.7833 6.54209V2.77111Z" fill="black"/>
</svg>
