<svg width="24" height="24" viewBox="0 0 24 24" fill="none" xmlns="http://www.w3.org/2000/svg">
<path fill-rule="evenodd" clip-rule="evenodd" d="M13.3814 1.93768C14.8281 6.542 18.4448 18.0493 19.2447 20.5942H20.4657C20.8633 20.5942 21.1857 20.9166 21.1857 21.3142C21.1857 21.7119 20.8633 22.0342 20.4657 22.0342H3.72003C3.32239 22.0342 3 21.7119 3 21.3142C3 20.9166 3.32239 20.5942 3.72003 20.5942H5.14859L10.8206 1.9499C10.9914 1.38751 11.5091 1.00307 12.0959 1.00002C12.6837 0.996967 13.2044 1.37732 13.3814 1.93768ZM14.0749 8.94879L14.4857 10.2561H9.79884L10.1965 8.94879H14.0749ZM8.18636 15.5569L7.85144 16.658H16.4978L16.1503 15.5524C16.1235 15.5554 16.0963 15.5569 16.0688 15.5569H8.18636Z" fill="black"/>
</svg>
