<svg width="24" height="24" viewBox="0 0 24 24" fill="none" xmlns="http://www.w3.org/2000/svg">
<path d="M18.6243 4.01876V5.92923H17.0599C17.0694 5.92923 10.9957 5.86824 10.484 11.3181H1.92028C1.50583 11.3181 1.16895 11.655 1.16895 12.0695C1.16895 12.4851 1.50583 12.8219 1.92028 12.8219H10.4845C11.0001 18.2658 17.0699 18.2048 17.0699 18.2048H18.6243V20.1782C18.6307 20.3729 18.7127 20.5654 18.8663 20.7089C19.1699 20.9926 19.6464 20.9759 19.9301 20.6723L22.4467 17.9782C22.5846 17.8307 22.6522 17.6417 22.6494 17.4535V17.4523C22.6494 17.2162 22.5401 17.0049 22.3691 16.8668L19.9254 14.2237C19.6439 13.9189 19.1674 13.9001 18.8627 14.1815C18.6844 14.3462 18.604 14.5777 18.6243 14.8024V16.7007L17.0488 16.701C17.0488 16.701 11.9641 16.7994 11.9535 12.0792L11.9536 12.0695L11.9535 12.0591C11.961 7.33454 17.0488 7.433 17.0488 7.433L18.6243 7.43335V9.39453C18.6307 9.58921 18.7127 9.78171 18.8663 9.92519C19.1699 10.2089 19.6464 10.1922 19.9301 9.8886L22.4314 7.21097C22.5551 7.0861 22.6354 6.91826 22.6478 6.73227C22.6614 6.53241 22.5955 6.3282 22.4501 6.17066L19.9254 3.43998C19.6439 3.13524 19.1674 3.11637 18.8627 3.39784C18.6844 3.56254 18.604 3.794 18.6243 4.01876Z" fill="black"/>
</svg>
