<svg width="24" height="24" viewBox="0 0 24 24" fill="none" xmlns="http://www.w3.org/2000/svg">
<g clip-path="url(#clip0_221_20969)">
<path fill-rule="evenodd" clip-rule="evenodd" d="M12 22C17.523 22 22 17.523 22 12C22 6.477 17.523 2 12 2C6.477 2 2 6.477 2 12C2 17.523 6.477 22 12 22ZM9.97 8.47C10.1106 8.32955 10.3012 8.25066 10.5 8.25066C10.6988 8.25066 10.8894 8.32955 11.03 8.47L14.03 11.47C14.1705 11.6106 14.2493 11.8012 14.2493 12C14.2493 12.1988 14.1705 12.3894 14.03 12.53L11.03 15.53C10.9613 15.6037 10.8785 15.6628 10.7865 15.7038C10.6945 15.7448 10.5952 15.7668 10.4945 15.7686C10.3938 15.7704 10.2938 15.7518 10.2004 15.7141C10.107 15.6764 10.0222 15.6203 9.95096 15.549C9.87974 15.4778 9.8236 15.393 9.78588 15.2996C9.74816 15.2062 9.72963 15.1062 9.73141 15.0055C9.73318 14.9048 9.75523 14.8055 9.79622 14.7135C9.83721 14.6215 9.89631 14.5387 9.97 14.47L12.44 12L9.97 9.53C9.82955 9.38937 9.75066 9.19875 9.75066 9C9.75066 8.80125 9.82955 8.61063 9.97 8.47Z" fill="black"/>
</g>
<defs>
<clipPath id="clip0_221_20969">
<rect width="24" height="24" fill="white"/>
</clipPath>
</defs>
</svg>
