<svg width="24" height="24" viewBox="0 0 24 24" fill="none" xmlns="http://www.w3.org/2000/svg">
<path d="M4.87292 10.77L4.99988 10.7769C5.6304 10.8407 6.12292 11.3727 6.12292 12.02C6.12292 12.6674 5.6304 13.1994 4.99988 13.2632L4.87292 13.27L2.49597 13.27C1.80562 13.27 1.24597 12.7104 1.24597 12.02C1.24597 11.3297 1.80562 10.77 2.49597 10.77L4.87292 10.77ZM14.3788 10.77C15.0691 10.77 15.6288 11.3297 15.6288 12.02C15.6288 12.7104 15.0691 13.27 14.3788 13.27L9.62585 13.27C8.9355 13.27 8.37585 12.7104 8.37585 12.02C8.37585 11.3297 8.9355 10.77 9.62585 10.77L14.3788 10.77ZM21.5087 10.77L21.6366 10.7769C22.2668 10.841 22.7587 11.3729 22.7587 12.02C22.7587 12.6671 22.2668 13.199 21.6366 13.2632L21.5087 13.27L19.1317 13.27C18.4415 13.2699 17.8817 12.7103 17.8817 12.02C17.8817 11.3298 18.4415 10.7702 19.1317 10.77L21.5087 10.77Z" fill="black"/>
</svg>
