<svg width="24" height="24" viewBox="0 0 24 24" fill="none" xmlns="http://www.w3.org/2000/svg">
<g clip-path="url(#clip0_221_20904)">
<path d="M6.13349 4.37C5.89949 4.13 5.58149 4 5.25049 4C4.91849 4 4.60049 4.13 4.36649 4.37C4.13149 4.6 4.00049 4.92 4.00049 5.25C4.00049 5.58 4.13149 5.9 4.36649 6.13L9.95349 11.72L4.37049 17.2999C4.13649 17.5299 4.00449 17.8499 4.00449 18.1799C4.00449 18.5199 4.13649 18.8299 4.37049 19.0699C4.60549 19.2999 4.92249 19.4299 5.25449 19.4299C5.58549 19.4299 5.90348 19.2999 6.13848 19.0699L11.7215 13.49L17.3105 19.08C17.5445 19.31 17.8625 19.45 18.1935 19.45C18.5255 19.45 18.8435 19.31 19.0775 19.08C19.3125 18.84 19.4435 18.53 19.4435 18.2C19.4435 17.86 19.3125 17.5499 19.0775 17.3099L13.4885 11.72L19.0765 6.13C19.3105 5.9 19.4425 5.58 19.4425 5.25C19.4425 4.92 19.3105 4.6 19.0765 4.37C18.8415 4.13 18.5235 4 18.1925 4C17.8605 4 17.5435 4.13 17.3085 4.37L11.7215 9.95996L6.13349 4.37Z" fill="black"/>
</g>
<defs>
<clipPath id="clip0_221_20904">
<rect width="24" height="24" fill="white"/>
</clipPath>
</defs>
</svg>
