<svg width="24" height="24" viewBox="0 0 24 24" fill="none" xmlns="http://www.w3.org/2000/svg">
<path fill-rule="evenodd" clip-rule="evenodd" d="M7.75903 9.16735H5.26733C3.05983 9.16735 1.26855 7.37604 1.26855 5.16854C1.26855 2.96105 3.05983 1.1687 5.26733 1.1687C7.47483 1.1687 9.26721 2.96105 9.26721 5.16854V7.65918H14.7792V5.16854C14.7792 2.96105 16.5716 1.1687 18.7791 1.1687C20.9866 1.1687 22.7778 2.96105 22.7778 5.16854C22.7778 7.37604 20.9866 9.16735 18.7791 9.16735H16.289V14.6776H18.7791C20.9866 14.6776 22.7778 16.4689 22.7778 18.6764C22.7778 20.8839 20.9866 22.6763 18.7791 22.6763C16.5716 22.6763 14.7792 20.8839 14.7792 18.6764V16.1891H9.26721V18.6764C9.26721 20.8839 7.47483 22.6763 5.26733 22.6763C3.05983 22.6763 1.26855 20.8839 1.26855 18.6764C1.26855 16.4689 3.05983 14.6776 5.26733 14.6776H7.75903V9.16735ZM5.26733 7.65918C3.8923 7.65918 2.7767 6.54358 2.7767 5.16854C2.7767 3.79351 3.8923 2.67681 5.26733 2.67681C6.64236 2.67681 7.75906 3.79351 7.75906 5.16854V7.65918H5.26733ZM5.26733 16.1858H7.75906V18.6764C7.75906 20.0515 6.64236 21.1682 5.26733 21.1682C3.8923 21.1682 2.7767 20.0515 2.7767 18.6764C2.7767 17.3014 3.8923 16.1858 5.26733 16.1858ZM16.2873 7.65918H18.7791C20.1541 7.65918 21.2697 6.54358 21.2697 5.16854C21.2697 3.79351 20.1541 2.67681 18.7791 2.67681C17.404 2.67681 16.2873 3.79351 16.2873 5.16854V7.65918ZM18.7791 16.1858C20.1541 16.1858 21.2697 17.3014 21.2697 18.6764C21.2697 20.0515 20.1541 21.1682 18.7791 21.1682C17.404 21.1682 16.2873 20.0515 16.2873 18.6764V16.1858H18.7791Z" fill="black"/>
</svg>
