<svg width="24" height="24" viewBox="0 0 24 24" fill="none" xmlns="http://www.w3.org/2000/svg">
<g clip-path="url(#clip0_221_20366)">
<path fill-rule="evenodd" clip-rule="evenodd" d="M3.464 20.535C4.929 22 7.286 22 12 22C16.714 22 19.072 22 20.535 20.535C22 19.071 22 16.714 22 12C22 7.286 22 4.93 20.535 3.464C19.071 2 16.714 2 12 2C7.286 2 4.93 2 3.464 3.464C2 4.929 2 7.286 2 12C2 16.714 2 19.072 3.464 20.535ZM13.6399 18.5475C12.6718 18.79 11.6619 18.8147 10.683 18.62C9.03985 18.2928 7.57712 17.3661 6.57924 16.0203C5.58135 14.6745 5.11964 13.0056 5.28388 11.3383C5.44812 9.67095 6.22657 8.12427 7.46787 6.99901C8.70917 5.87375 10.3246 5.25034 12 5.25C12.1989 5.25 12.3897 5.32902 12.5303 5.46967C12.671 5.61032 12.75 5.80109 12.75 6C12.75 6.19891 12.671 6.38968 12.5303 6.53033C12.3897 6.67098 12.1989 6.75 12 6.75C10.9616 6.75 9.94661 7.05791 9.08326 7.63478C8.2199 8.21166 7.54699 9.0316 7.14963 9.99091C6.75227 10.9502 6.6483 12.0058 6.85088 13.0242C7.05345 14.0426 7.55346 14.9781 8.28769 15.7123C9.02191 16.4465 9.95738 16.9465 10.9758 17.1491C11.9942 17.3517 13.0498 17.2477 14.0091 16.8504C14.9684 16.453 15.7883 15.7801 16.3652 14.9167C16.9421 14.0534 17.25 13.0384 17.25 12C17.25 11.8011 17.329 11.6103 17.4697 11.4697C17.6103 11.329 17.8011 11.25 18 11.25C18.1989 11.25 18.3897 11.329 18.5303 11.4697C18.671 11.6103 18.75 11.8011 18.75 12C18.75 12.9981 18.5286 13.9837 18.1018 14.8859C17.6751 15.7882 17.0535 16.5845 16.282 17.2177C15.5105 17.8508 14.6081 18.305 13.6399 18.5475ZM19.4166 6.90738C19.3756 6.99938 19.3165 7.08218 19.2428 7.15084L12.5851 13.8086C12.4445 13.949 12.2539 14.0279 12.0551 14.0279C11.8564 14.0279 11.6658 13.949 11.5251 13.8086L9.52515 11.8086C9.39267 11.6664 9.32054 11.4783 9.32397 11.284C9.3274 11.0897 9.40611 10.9044 9.54352 10.7669C9.68094 10.6295 9.86632 10.5508 10.0606 10.5474C10.2549 10.544 10.443 10.6161 10.5851 10.7486L12.0551 12.2186L18.1828 6.09084C18.2515 6.01715 18.3343 5.95805 18.4263 5.91706C18.5183 5.87607 18.6176 5.85402 18.7183 5.85225C18.819 5.85047 18.919 5.869 19.0124 5.90672C19.1058 5.94444 19.1906 6.00058 19.2618 6.0718C19.3331 6.14302 19.3892 6.22785 19.4269 6.32124C19.4647 6.41463 19.4832 6.51466 19.4814 6.61536C19.4796 6.71606 19.4576 6.81538 19.4166 6.90738Z" fill="black"/>
</g>
<defs>
<clipPath id="clip0_221_20366">
<rect width="24" height="24" fill="white"/>
</clipPath>
</defs>
</svg>
