<svg width="24" height="24" viewBox="0 0 24 24" fill="none" xmlns="http://www.w3.org/2000/svg">
<g clip-path="url(#clip0_221_20879)">
<path fill-rule="evenodd" clip-rule="evenodd" d="M22 12C22 17.523 17.523 22 12 22C6.477 22 2 17.523 2 12C2 6.477 6.477 2 12 2C17.523 2 22 6.477 22 12ZM12 17.75C12.1989 17.75 12.3897 17.671 12.5303 17.5303C12.671 17.3897 12.75 17.1989 12.75 17V11C12.75 10.8011 12.671 10.6103 12.5303 10.4697C12.3897 10.329 12.1989 10.25 12 10.25C11.8011 10.25 11.6103 10.329 11.4697 10.4697C11.329 10.6103 11.25 10.8011 11.25 11V17C11.25 17.414 11.586 17.75 12 17.75ZM12 7C12.2652 7 12.5196 7.10536 12.7071 7.29289C12.8946 7.48043 13 7.73478 13 8C13 8.26522 12.8946 8.51957 12.7071 8.70711C12.5196 8.89464 12.2652 9 12 9C11.7348 9 11.4804 8.89464 11.2929 8.70711C11.1054 8.51957 11 8.26522 11 8C11 7.73478 11.1054 7.48043 11.2929 7.29289C11.4804 7.10536 11.7348 7 12 7Z" fill="black"/>
</g>
<defs>
<clipPath id="clip0_221_20879">
<rect width="24" height="24" fill="white"/>
</clipPath>
</defs>
</svg>
