<svg width="24" height="24" viewBox="0 0 24 24" fill="none" xmlns="http://www.w3.org/2000/svg">
<path d="M16.8772 18.9911C17.463 19.5769 18.4128 19.5769 18.9986 18.9911C19.5844 18.4053 19.5844 17.4556 18.9986 16.8698L14.0726 11.9439L18.9986 7.01794C19.5843 6.43216 19.5843 5.48241 18.9986 4.89662C18.4128 4.31084 17.463 4.31084 16.8772 4.89662L11.9513 9.82253L7.0254 4.89662C6.43961 4.31083 5.48987 4.31083 4.90408 4.89662C4.31829 5.4824 4.31829 6.43215 4.90408 7.01794L9.83 11.9439L4.90406 16.8698C4.31827 17.4556 4.31828 18.4053 4.90406 18.9911C5.48985 19.5769 6.43959 19.5769 7.02538 18.9911L11.9513 14.0652L16.8772 18.9911Z" fill="black"/>
</svg>
