<svg width="24" height="24" viewBox="0 0 24 24" fill="none" xmlns="http://www.w3.org/2000/svg">
<path fill-rule="evenodd" clip-rule="evenodd" d="M22.6382 15.9957C22.6382 19.4205 19.8618 22.1969 16.437 22.1969C13.0121 22.1969 10.2357 19.4205 10.2357 15.9957C10.2357 12.5708 13.0121 9.79443 16.437 9.79443C19.8618 9.79443 22.6382 12.5708 22.6382 15.9957ZM17.0435 12.9944L19.1448 14.9971C19.4479 15.2863 19.4586 15.7662 19.1705 16.0693C18.8813 16.3724 18.4015 16.3831 18.0983 16.095L17.2564 15.2923V18.8735C17.2564 19.2923 16.9169 19.6318 16.4981 19.6318C16.0793 19.6318 15.7397 19.2923 15.7397 18.8735V15.2477L14.8251 16.0875C14.5166 16.3713 14.0368 16.351 13.754 16.0425C13.4702 15.734 13.4905 15.2542 13.799 14.9714L15.971 12.9761C16.0046 12.9436 16.0412 12.9141 16.0804 12.8882C16.2723 12.7609 16.509 12.7306 16.722 12.7966C16.8457 12.8347 16.9558 12.9036 17.0435 12.9944Z" fill="black"/>
<path fill-rule="evenodd" clip-rule="evenodd" d="M1.50699 7.13154L8.65501 14.3153C8.94426 14.5993 9.41653 14.6098 9.70787 14.3153C9.99922 14.0208 10.0003 13.558 9.70996 13.2635L2.56194 6.07974C2.27269 5.79576 1.80043 5.78524 1.50908 6.07974C1.21773 6.37425 1.2167 6.83704 1.50699 7.13154Z" fill="black"/>
<path fill-rule="evenodd" clip-rule="evenodd" d="M19.8808 9.52962L22.2926 7.13154C22.584 6.84756 22.5861 6.37425 22.2968 6.07974C22.0076 5.79576 21.5353 5.78524 21.244 6.07974L18.8322 8.46729C18.5398 8.76179 18.5377 9.2351 18.828 9.51909C19.1172 9.81359 19.5895 9.8136 19.8808 9.52962Z" fill="black"/>
</svg>
