<svg width="24" height="24" viewBox="0 0 24 24" fill="none" xmlns="http://www.w3.org/2000/svg">
<g clip-path="url(#clip0_221_20326)">
<path fill-rule="evenodd" clip-rule="evenodd" d="M12 22C6.477 22 2 17.523 2 12C2 6.477 6.477 2 12 2C17.523 2 22 6.477 22 12C22 17.523 17.523 22 12 22ZM11.53 8.47C11.3894 8.32955 11.1988 8.25066 11 8.25066C10.8012 8.25066 10.6106 8.32955 10.47 8.47L7.47 11.47C7.32955 11.6106 7.25066 11.8012 7.25066 12C7.25066 12.1988 7.32955 12.3894 7.47 12.53L10.47 15.53C10.5387 15.6037 10.6215 15.6628 10.7135 15.7038C10.8055 15.7448 10.9048 15.7668 11.0055 15.7686C11.1062 15.7704 11.2062 15.7518 11.2996 15.7141C11.393 15.6764 11.4778 15.6203 11.549 15.549C11.6203 15.4778 11.6764 15.393 11.7141 15.2996C11.7518 15.2062 11.7704 15.1062 11.7686 15.0055C11.7668 14.9048 11.7448 14.8055 11.7038 14.7135C11.6628 14.6215 11.6037 14.5387 11.53 14.47L9.81 12.75H16C16.1989 12.75 16.3897 12.671 16.5303 12.5303C16.671 12.3897 16.75 12.1989 16.75 12C16.75 11.8011 16.671 11.6103 16.5303 11.4697C16.3897 11.329 16.1989 11.25 16 11.25H9.81L11.53 9.53C11.6705 9.38937 11.7493 9.19875 11.7493 9C11.7493 8.80125 11.6705 8.61063 11.53 8.47Z" fill="black"/>
</g>
<defs>
<clipPath id="clip0_221_20326">
<rect width="24" height="24" fill="white"/>
</clipPath>
</defs>
</svg>
