<svg width="24" height="24" viewBox="0 0 24 24" fill="none" xmlns="http://www.w3.org/2000/svg">
<g clip-path="url(#clip0_221_20617)">
<path d="M6.5 18V17.91C6.5 17.045 6.5 16.251 6.587 15.606C6.682 14.895 6.907 14.143 7.525 13.526C8.143 12.907 8.895 12.682 9.605 12.586C10.251 12.5 11.045 12.5 11.911 12.5H12.089C12.955 12.5 13.749 12.5 14.394 12.587C15.105 12.682 15.857 12.907 16.474 13.525C17.093 14.143 17.318 14.895 17.414 15.605C17.499 16.242 17.5 17.021 17.5 17.872C20.073 17.322 22 15.06 22 12.352C22 9.882 20.393 7.78 18.155 7.015C17.837 4.194 15.415 2 12.476 2C9.32 2 6.762 4.528 6.762 7.647C6.762 8.337 6.887 8.997 7.116 9.609C6.84249 9.55612 6.56458 9.52933 6.286 9.529C3.919 9.53 2 11.426 2 13.765C2 16.104 3.919 18 6.286 18H6.5Z" fill="black"/>
<path fill-rule="evenodd" clip-rule="evenodd" d="M12 14C10.114 14 9.172 14 8.586 14.586C8 15.172 8 16.114 8 18C8 19.886 8 20.828 8.586 21.414C9.172 22 10.114 22 12 22C13.886 22 14.828 22 15.414 21.414C16 20.828 16 19.886 16 18C16 16.114 16 15.172 15.414 14.586C14.828 14 13.886 14 12 14ZM13.805 17.084L12.471 15.751C12.346 15.6263 12.1766 15.5563 12 15.5563C11.8234 15.5563 11.654 15.6263 11.529 15.751L10.195 17.084C10.1306 17.1454 10.0791 17.219 10.0435 17.3005C10.008 17.3821 9.98913 17.4699 9.98805 17.5589C9.98696 17.6478 10.0037 17.7361 10.0372 17.8185C10.0708 17.9009 10.1205 17.9757 10.1834 18.0386C10.2463 18.1015 10.3211 18.1512 10.4035 18.1848C10.4859 18.2183 10.5742 18.235 10.6631 18.2339C10.7521 18.2329 10.8399 18.214 10.9215 18.1785C11.003 18.1429 11.0766 18.0914 11.138 18.027L11.333 17.832V19.778C11.333 19.9549 11.4033 20.1246 11.5284 20.2496C11.6534 20.3747 11.8231 20.445 12 20.445C12.1769 20.445 12.3466 20.3747 12.4716 20.2496C12.5967 20.1246 12.667 19.9549 12.667 19.778V17.832L12.862 18.027C12.9881 18.1471 13.1561 18.2131 13.3301 18.211C13.5042 18.2088 13.6705 18.1387 13.7936 18.0156C13.9167 17.8925 13.9868 17.7262 13.989 17.5521C13.9911 17.3781 13.9251 17.2101 13.805 17.084Z" fill="black"/>
</g>
<defs>
<clipPath id="clip0_221_20617">
<rect width="24" height="24" fill="white"/>
</clipPath>
</defs>
</svg>
