<svg width="24" height="24" viewBox="0 0 24 24" fill="none" xmlns="http://www.w3.org/2000/svg">
<g clip-path="url(#clip0_221_20469)">
<path fill-rule="evenodd" clip-rule="evenodd" d="M12 1.03345C5.9434 1.03345 1.03345 5.9434 1.03345 12C1.03345 18.0566 5.9434 22.9666 12 22.9666C18.0566 22.9666 22.9666 18.0566 22.9666 12C22.9666 5.9434 18.0566 1.03345 12 1.03345ZM4.30008 12C4.30008 9.95785 5.11132 7.99935 6.55533 6.55533C7.99935 5.11132 9.95785 4.30008 12 4.30008C14.0421 4.30008 16.0006 5.11132 17.4447 6.55533C18.8887 7.99935 19.6999 9.95785 19.6999 12C19.6999 14.0421 18.8887 16.0006 17.4447 17.4447C16.0006 18.8887 14.0421 19.6999 12 19.6999C9.95785 19.6999 7.99935 18.8887 6.55533 17.4447C5.11132 16.0006 4.30008 14.0421 4.30008 12ZM5.8954 18.1047C5.89539 18.1046 5.89541 18.1047 5.8954 18.1047V18.1047ZM18.1047 5.8954C18.1046 5.89539 18.1047 5.89541 18.1047 5.8954V5.8954Z" fill="black"/>
</g>
<defs>
<clipPath id="clip0_221_20469">
<rect width="24" height="24" fill="white"/>
</clipPath>
</defs>
</svg>
