<svg width="24" height="24" viewBox="0 0 24 24" fill="none" xmlns="http://www.w3.org/2000/svg">
<path d="M18.0463 6.71045L18.0584 4.11096C18.0491 3.89985 18.1285 3.68616 18.2948 3.53056C18.5971 3.2477 19.0729 3.26308 19.3558 3.56534L22.5204 6.94843C22.793 7.23946 22.79 7.69181 22.5153 7.97875L19.316 11.3231C19.0301 11.6223 18.5552 11.6325 18.256 11.3466C18.0844 11.182 18.0079 10.9556 18.0277 10.736L18.0394 8.21053H2.02469C1.61112 8.21053 1.27515 7.87462 1.27515 7.46105C1.27515 7.04646 1.61112 6.71045 2.02469 6.71045H18.0463Z" fill="black"/>
<path d="M15.3165 18.9786H2.02567C1.61205 18.9786 1.27563 18.6427 1.27563 18.2291C1.27563 17.8145 1.61205 17.4785 2.02567 17.4785H15.3165C15.7301 17.4785 16.0665 17.8145 16.0665 18.2291C16.0665 18.6427 15.7301 18.9786 15.3165 18.9786Z" fill="black"/>
<path d="M21.4328 20.4235L20.0445 18.9821L18.6273 20.3994C18.3345 20.6919 17.8586 20.6916 17.5661 20.3989C17.2736 20.1061 17.2739 19.6312 17.5666 19.3387L19.0038 17.9015L17.5891 16.4328C17.3012 16.1346 17.3104 15.6598 17.6085 15.3728C17.9067 15.0849 18.3816 15.094 18.6695 15.3922L20.0646 16.8407L21.4845 15.4208C21.7772 15.1273 22.2521 15.1276 22.5446 15.4203C22.8381 15.713 22.8379 16.188 22.5451 16.4815L21.1054 17.9213L22.5132 19.3829C22.8001 19.6811 22.7909 20.157 22.4928 20.4439C22.1946 20.7309 21.7197 20.7217 21.4328 20.4235Z" fill="black"/>
</svg>
