<svg width="24" height="24" viewBox="0 0 24 24" fill="none" xmlns="http://www.w3.org/2000/svg">
<g clip-path="url(#clip0_221_20714)">
<path fill-rule="evenodd" clip-rule="evenodd" d="M3.464 20.535C4.929 22 7.286 22 12 22C16.714 22 19.072 22 20.535 20.535C22 19.071 22 16.714 22 12C22 7.286 22 4.93 20.535 3.464C19.071 2 16.714 2 12 2C7.286 2 4.93 2 3.464 3.464C2 4.929 2 7.286 2 12C2 16.714 2 19.072 3.464 20.535ZM11.8705 6.55435C11.8705 6.96484 11.5982 7.30205 11.2669 7.30205H6.43807C6.1067 7.30205 5.83447 6.96484 5.83447 6.55435C5.83447 6.14386 6.1067 5.80664 6.43807 5.80664H11.2669C11.5982 5.80664 11.8705 6.14386 11.8705 6.55435Z" fill="black"/>
</g>
<defs>
<clipPath id="clip0_221_20714">
<rect width="24" height="24" fill="white"/>
</clipPath>
</defs>
</svg>
