<svg width="24" height="24" viewBox="0 0 24 24" fill="none" xmlns="http://www.w3.org/2000/svg">
<g clip-path="url(#clip0_221_21058)">
<path d="M7.99902 14.4417V18.4302C7.99902 18.9581 8.78906 19.2012 9.20398 18.8001L13.6964 14.4432V18.4302C13.6964 18.9581 14.4865 19.2012 14.9014 18.8001L21.5314 12.3702C21.583 12.3233 21.6241 12.2662 21.6523 12.2024C21.6586 12.1883 21.6641 12.1739 21.6689 12.1595C21.6747 12.1424 21.6796 12.125 21.6835 12.1072C21.6912 12.0721 21.6951 12.0362 21.6951 12C21.6951 11.9305 21.6805 11.8616 21.6523 11.7979C21.6241 11.7342 21.583 11.677 21.5314 11.6302L14.9014 5.2C14.4865 4.79912 13.6964 5.04204 13.6964 5.57011V9.55693L9.20398 5.2C8.78906 4.79912 7.99902 5.04204 7.99902 5.57011V9.55864L3.505 5.2C3.09009 4.79912 2.30005 5.04204 2.30005 5.57011V18.4302C2.30005 18.9581 3.09009 19.2012 3.505 18.8001L7.99902 14.4417Z" fill="black"/>
</g>
<defs>
<clipPath id="clip0_221_21058">
<rect width="24" height="24" fill="white"/>
</clipPath>
</defs>
</svg>
