<svg width="24" height="24" viewBox="0 0 24 24" fill="none" xmlns="http://www.w3.org/2000/svg">
<g clip-path="url(#clip0_221_20964)">
<path fill-rule="evenodd" clip-rule="evenodd" d="M12 22C17.523 22 22 17.523 22 12C22 6.477 17.523 2 12 2C6.477 2 2 6.477 2 12C2 17.523 6.477 22 12 22ZM12 9.75C12.1988 9.75017 12.3895 9.82931 12.53 9.97L15.53 12.97C15.6037 13.0387 15.6628 13.1215 15.7038 13.2135C15.7448 13.3055 15.7668 13.4048 15.7686 13.5055C15.7704 13.6062 15.7518 13.7062 15.7141 13.7996C15.6764 13.893 15.6203 13.9778 15.549 14.049C15.4778 14.1203 15.393 14.1764 15.2996 14.2141C15.2062 14.2518 15.1062 14.2704 15.0055 14.2686C14.9048 14.2668 14.8055 14.2448 14.7135 14.2038C14.6215 14.1628 14.5387 14.1037 14.47 14.03L12 11.56L9.53 14.03C9.38783 14.1625 9.19978 14.2346 9.00548 14.2312C8.81118 14.2277 8.62579 14.149 8.48838 14.0116C8.35097 13.8742 8.27225 13.6888 8.26882 13.4945C8.2654 13.3002 8.33752 13.1122 8.47 12.97L11.47 9.97C11.6105 9.82931 11.8012 9.75017 12 9.75Z" fill="black"/>
</g>
<defs>
<clipPath id="clip0_221_20964">
<rect width="24" height="24" fill="white"/>
</clipPath>
</defs>
</svg>
