<svg width="24" height="24" viewBox="0 0 24 24" fill="none" xmlns="http://www.w3.org/2000/svg">
<path d="M9.8948 8.80298C10.7654 8.80298 11.4711 8.09726 11.4711 7.22669C11.4711 6.35611 10.7654 5.65039 9.8948 5.65039C9.02422 5.65039 8.31848 6.35611 8.31848 7.22669C8.31848 8.09726 9.02422 8.80298 9.8948 8.80298Z" fill="black"/>
<path d="M9.8948 13.2158C10.7654 13.2158 11.4711 12.5101 11.4711 11.6395C11.4711 10.769 10.7654 10.0632 9.8948 10.0632C9.02422 10.0632 8.31848 10.769 8.31848 11.6395C8.31848 12.5101 9.02422 13.2158 9.8948 13.2158Z" fill="black"/>
<path d="M9.8948 17.6284C10.7654 17.6284 11.4711 16.9227 11.4711 16.0521C11.4711 15.1816 10.7654 14.4758 9.8948 14.4758C9.02422 14.4758 8.31848 15.1816 8.31848 16.0521C8.31848 16.9227 9.02422 17.6284 9.8948 17.6284Z" fill="black"/>
<path d="M14.3076 8.80298C15.1782 8.80298 15.884 8.09726 15.884 7.22669C15.884 6.35611 15.1782 5.65039 14.3076 5.65039C13.4371 5.65039 12.7313 6.35611 12.7313 7.22669C12.7313 8.09726 13.4371 8.80298 14.3076 8.80298Z" fill="black"/>
<path d="M14.3076 13.2158C15.1782 13.2158 15.884 12.5101 15.884 11.6395C15.884 10.769 15.1782 10.0632 14.3076 10.0632C13.4371 10.0632 12.7313 10.769 12.7313 11.6395C12.7313 12.5101 13.4371 13.2158 14.3076 13.2158Z" fill="black"/>
<path d="M14.3076 17.6284C15.1782 17.6284 15.884 16.9227 15.884 16.0521C15.884 15.1816 15.1782 14.4758 14.3076 14.4758C13.4371 14.4758 12.7313 15.1816 12.7313 16.0521C12.7313 16.9227 13.4371 17.6284 14.3076 17.6284Z" fill="black"/>
</svg>
