<svg width="24" height="24" viewBox="0 0 24 24" fill="none" xmlns="http://www.w3.org/2000/svg">
<path d="M16.8984 7.02459C17.3594 6.57066 18.0834 6.54749 18.5713 6.95134L18.666 7.03826L22.6504 11.0822C23.1336 11.5727 23.1293 12.3618 22.6406 12.8469L18.6855 16.7717L18.5908 16.8566C18.0984 17.2556 17.374 17.2243 16.918 16.7648C16.4317 16.2748 16.4349 15.4835 16.9248 14.9972L18.665 13.2697H17.6074C16.9173 13.2694 16.3574 12.7099 16.3574 12.0197C16.3576 11.3297 16.9174 10.77 17.6074 10.7697H18.833L16.8848 8.79216L16.7998 8.69646C16.4033 8.20257 16.4376 7.47873 16.8984 7.02459Z" fill="black"/>
<path d="M4.77637 10.7765C5.40675 10.8403 5.8992 11.3725 5.89941 12.0197C5.89941 12.6671 5.40689 13.199 4.77637 13.2629L4.64941 13.2697H2.48926C1.79907 13.2695 1.23926 12.7099 1.23926 12.0197C1.23948 11.3297 1.79921 10.7699 2.48926 10.7697H4.64941L4.77637 10.7765Z" fill="black"/>
<path d="M13.416 10.7765C14.0461 10.8406 14.5379 11.3727 14.5381 12.0197C14.5381 12.6668 14.0462 13.1988 13.416 13.2629L13.2881 13.2697H8.96875C8.27856 13.2695 7.71875 12.7099 7.71875 12.0197C7.71898 11.3297 8.2787 10.7699 8.96875 10.7697H13.2881L13.416 10.7765Z" fill="black"/>
</svg>
