<svg width="24" height="24" viewBox="0 0 24 24" fill="none" xmlns="http://www.w3.org/2000/svg">
<g clip-path="url(#clip0_221_20535)">
<path fill-rule="evenodd" clip-rule="evenodd" d="M2 12C2 7.286 2 4.929 3.464 3.464C4.93 2 7.286 2 12 2C16.714 2 19.071 2 20.535 3.464C22 4.93 22 7.286 22 12C22 16.714 22 19.071 20.535 20.535C19.072 22 16.714 22 12 22C7.286 22 4.929 22 3.464 20.535C2 19.072 2 16.714 2 12ZM14 7.75C13.8011 7.75 13.6103 7.67098 13.4697 7.53033C13.329 7.38968 13.25 7.19891 13.25 7C13.25 6.80109 13.329 6.61032 13.4697 6.46967C13.6103 6.32902 13.8011 6.25 14 6.25H17C17.1989 6.25 17.3897 6.32902 17.5303 6.46967C17.671 6.61032 17.75 6.80109 17.75 7V10C17.75 10.1989 17.671 10.3897 17.5303 10.5303C17.3897 10.671 17.1989 10.75 17 10.75C16.8011 10.75 16.6103 10.671 16.4697 10.5303C16.329 10.3897 16.25 10.1989 16.25 10V8.81L14.03 11.03C13.9613 11.1037 13.8785 11.1628 13.7865 11.2038C13.6945 11.2448 13.5952 11.2668 13.4945 11.2686C13.3938 11.2704 13.2938 11.2518 13.2004 11.2141C13.107 11.1764 13.0222 11.1203 12.951 11.049C12.8797 10.9778 12.8236 10.893 12.7859 10.7996C12.7482 10.7062 12.7296 10.6062 12.7314 10.5055C12.7332 10.4048 12.7552 10.3055 12.7962 10.2135C12.8372 10.1215 12.8963 10.0387 12.97 9.97L15.19 7.75H14ZM11.03 12.97C11.1705 13.1106 11.2493 13.3012 11.2493 13.5C11.2493 13.6988 11.1705 13.8894 11.03 14.03L8.81 16.25H10C10.1989 16.25 10.3897 16.329 10.5303 16.4697C10.671 16.6103 10.75 16.8011 10.75 17C10.75 17.1989 10.671 17.3897 10.5303 17.5303C10.3897 17.671 10.1989 17.75 10 17.75H7C6.80109 17.75 6.61032 17.671 6.46967 17.5303C6.32902 17.3897 6.25 17.1989 6.25 17V14C6.25 13.8011 6.32902 13.6103 6.46967 13.4697C6.61032 13.329 6.80109 13.25 7 13.25C7.19891 13.25 7.38968 13.329 7.53033 13.4697C7.67098 13.6103 7.75 13.8011 7.75 14V15.19L9.97 12.97C10.1106 12.8295 10.3012 12.7507 10.5 12.7507C10.6988 12.7507 10.8894 12.8295 11.03 12.97ZM10.75 7C10.75 7.19891 10.671 7.38968 10.5303 7.53033C10.3897 7.67098 10.1989 7.75 10 7.75H8.81L11.03 9.97C11.1037 10.0387 11.1628 10.1215 11.2038 10.2135C11.2448 10.3055 11.2668 10.4048 11.2686 10.5055C11.2704 10.6062 11.2518 10.7062 11.2141 10.7996C11.1764 10.893 11.1203 10.9778 11.049 11.049C10.9778 11.1203 10.893 11.1764 10.7996 11.2141C10.7062 11.2518 10.6062 11.2704 10.5055 11.2686C10.4048 11.2668 10.3055 11.2448 10.2135 11.2038C10.1215 11.1628 10.0387 11.1037 9.97 11.03L7.75 8.81V10C7.75 10.1989 7.67098 10.3897 7.53033 10.5303C7.38968 10.671 7.19891 10.75 7 10.75C6.80109 10.75 6.61032 10.671 6.46967 10.5303C6.32902 10.3897 6.25 10.1989 6.25 10V7C6.25 6.80109 6.32902 6.61032 6.46967 6.46967C6.61032 6.32902 6.80109 6.25 7 6.25H10C10.1989 6.25 10.3897 6.32902 10.5303 6.46967C10.671 6.61032 10.75 6.80109 10.75 7ZM12.97 14.03C12.8963 13.9613 12.8372 13.8785 12.7962 13.7865C12.7552 13.6945 12.7332 13.5952 12.7314 13.4945C12.7296 13.3938 12.7482 13.2938 12.7859 13.2004C12.8236 13.107 12.8797 13.0222 12.951 12.951C13.0222 12.8797 13.107 12.8236 13.2004 12.7859C13.2938 12.7482 13.3938 12.7296 13.4945 12.7314C13.5952 12.7332 13.6945 12.7552 13.7865 12.7962C13.8785 12.8372 13.9613 12.8963 14.03 12.97L16.25 15.19V14C16.25 13.8011 16.329 13.6103 16.4697 13.4697C16.6103 13.329 16.8011 13.25 17 13.25C17.1989 13.25 17.3897 13.329 17.5303 13.4697C17.671 13.6103 17.75 13.8011 17.75 14V17C17.75 17.1989 17.671 17.3897 17.5303 17.5303C17.3897 17.671 17.1989 17.75 17 17.75H14C13.8011 17.75 13.6103 17.671 13.4697 17.5303C13.329 17.3897 13.25 17.1989 13.25 17C13.25 16.8011 13.329 16.6103 13.4697 16.4697C13.6103 16.329 13.8011 16.25 14 16.25H15.19L12.97 14.03Z" fill="black"/>
</g>
<defs>
<clipPath id="clip0_221_20535">
<rect width="24" height="24" fill="white"/>
</clipPath>
</defs>
</svg>
