<svg width="24" height="24" viewBox="0 0 24 24" fill="none" xmlns="http://www.w3.org/2000/svg">
<path d="M23.25 22.5C23.66 22.5 24 22.84 24 23.25C24 23.67 23.66 24 23.25 24H0.75C0.33 24 1.83588e-08 23.67 0 23.25C-1.79217e-08 22.84 0.33 22.5 0.75 22.5H23.25Z" fill="black"/>
<path d="M12 3C12.253 3 12.479 3.12971 12.6152 3.3252L16.2598 6.96973C16.5498 7.26973 16.5498 7.74027 16.2598 8.03027C16.1137 8.17618 15.9274 8.24911 15.7412 8.25293L15.7422 8.25391H15.7363C15.7295 8.254 15.7227 8.254 15.7158 8.25391L12.75 8.25781V15.7549L15.7236 15.7539C15.7311 15.7538 15.7386 15.7538 15.7461 15.7539H15.7617C15.945 15.7603 16.1265 15.8317 16.2695 15.9697C16.5595 16.2697 16.5595 16.7403 16.2695 17.0303L12.585 20.7139C12.503 20.817 12.3966 20.8978 12.2725 20.9463C12.2467 20.9571 12.2198 20.9639 12.1934 20.9717C12.1777 20.9759 12.1625 20.9822 12.1465 20.9854C11.905 21.0394 11.6457 20.9724 11.46 20.7803L7.69043 17.04C7.39043 16.74 7.39043 16.2697 7.69043 15.9697C7.85454 15.8113 8.0692 15.7419 8.2793 15.7568L11.25 15.7559V8.26074L8.23047 8.26562V8.2627C8.03453 8.26651 7.83901 8.19361 7.69043 8.04004C7.39043 7.74004 7.39043 7.26973 7.69043 6.96973L11.4404 3.21973C11.5625 3.10189 11.7128 3.03364 11.8682 3.01172C11.9109 3.00421 11.9549 3 12 3Z" fill="black"/>
<path d="M23.25 0C23.66 5.62058e-07 24 0.34 24 0.75C24 1.17 23.66 1.5 23.25 1.5H0.75C0.33 1.5 1.83588e-08 1.17 0 0.75C-1.79217e-08 0.34 0.33 1.83588e-08 0.75 0H23.25Z" fill="black"/>
</svg>
