<svg width="24" height="24" viewBox="0 0 24 24" fill="none" xmlns="http://www.w3.org/2000/svg">
<g clip-path="url(#clip0_221_20525)">
<path d="M16.143 1.25C15.9441 1.25 15.7533 1.32902 15.6127 1.46967C15.472 1.61032 15.393 1.80109 15.393 2C15.393 2.19891 15.472 2.38968 15.6127 2.53033C15.7533 2.67098 15.9441 2.75 16.143 2.75H20.189L14.469 8.47C14.3324 8.61152 14.2569 8.801 14.2587 8.99765C14.2605 9.1943 14.3395 9.38237 14.4786 9.52136C14.6178 9.66035 14.8059 9.73914 15.0025 9.74076C15.1992 9.74237 15.3886 9.66669 15.53 9.53L21.25 3.81V7.857C21.25 8.05591 21.329 8.24668 21.4697 8.38733C21.6103 8.52798 21.8011 8.607 22 8.607C22.1989 8.607 22.3897 8.52798 22.5303 8.38733C22.671 8.24668 22.75 8.05591 22.75 7.857V2C22.75 1.80109 22.671 1.61032 22.5303 1.46967C22.3897 1.32902 22.1989 1.25 22 1.25H16.143ZM7.857 22.75C8.05591 22.75 8.24668 22.671 8.38733 22.5303C8.52798 22.3897 8.607 22.1989 8.607 22C8.607 21.8011 8.52798 21.6103 8.38733 21.4697C8.24668 21.329 8.05591 21.25 7.857 21.25H3.811L9.531 15.53C9.6026 15.4608 9.6597 15.378 9.69896 15.2865C9.73822 15.195 9.75886 15.0965 9.75968 14.9969C9.7605 14.8974 9.74148 14.7986 9.70372 14.7065C9.66597 14.6143 9.61024 14.5306 9.53979 14.4602C9.46934 14.3898 9.38557 14.3342 9.29338 14.2965C9.20119 14.2588 9.10242 14.2399 9.00284 14.2408C8.90326 14.2417 8.80485 14.2625 8.71337 14.3018C8.62188 14.3412 8.53915 14.3983 8.47 14.47L2.75 20.19V16.143C2.75 16.0445 2.7306 15.947 2.69291 15.856C2.65522 15.765 2.59997 15.6823 2.53033 15.6127C2.46069 15.543 2.37801 15.4878 2.28701 15.4501C2.19602 15.4124 2.09849 15.393 2 15.393C1.90151 15.393 1.80398 15.4124 1.71299 15.4501C1.62199 15.4878 1.53931 15.543 1.46967 15.6127C1.40003 15.6823 1.34478 15.765 1.30709 15.856C1.2694 15.947 1.25 16.0445 1.25 16.143V22C1.25 22.414 1.586 22.75 2 22.75H7.857Z" fill="black"/>
</g>
<defs>
<clipPath id="clip0_221_20525">
<rect width="24" height="24" fill="white"/>
</clipPath>
</defs>
</svg>
