<svg width="24" height="24" viewBox="0 0 24 24" fill="none" xmlns="http://www.w3.org/2000/svg">
<path d="M0.75 0C1.16 0 1.5 0.33 1.5 0.75V23.25C1.5 23.66 1.16 24 0.75 24C0.33 24 0 23.66 0 23.25V0.75C0 0.33 0.33 0 0.75 0Z" fill="black"/>
<path d="M23.25 0C23.66 0 24 0.33 24 0.75V23.25C24 23.66 23.66 24 23.25 24C22.83 24 22.5 23.66 22.5 23.25V0.75C22.5 0.33 22.83 0 23.25 0Z" fill="black"/>
<path d="M15.96 7.69043C16.26 7.39043 16.7303 7.39043 17.0303 7.69043L20.7803 11.4404C20.8983 11.5627 20.9655 11.7135 20.9873 11.8691C20.9947 11.9116 21 11.9552 21 12C21 12.2511 20.8717 12.4748 20.6787 12.6113L17.0303 16.2598C16.7303 16.5498 16.2597 16.5498 15.9697 16.2598C15.8067 16.0965 15.7346 15.8832 15.749 15.6758L15.7451 12.75H8.24609V15.7236C8.24619 15.7298 8.24615 15.736 8.24609 15.7422V15.7695L8.24316 15.7686C8.2352 15.9495 8.16657 16.1283 8.03027 16.2695C7.73027 16.5595 7.25973 16.5595 6.96973 16.2695L3.28516 12.585C3.1822 12.503 3.10114 12.3965 3.05273 12.2725C3.04193 12.2467 3.03512 12.2198 3.02734 12.1934C3.02317 12.1777 3.01684 12.1625 3.01367 12.1465C2.95973 11.9051 3.0277 11.6457 3.21973 11.46L6.95996 7.69043C7.25996 7.39043 7.73027 7.39043 8.03027 7.69043C8.1774 7.84282 8.24849 8.03891 8.24609 8.23438V11.25H15.7432L15.7383 8.24707C15.7298 8.0456 15.802 7.84322 15.96 7.69043Z" fill="black"/>
</svg>
