<svg width="24" height="24" viewBox="0 0 24 24" fill="none" xmlns="http://www.w3.org/2000/svg">
<path d="M15.3797 4.05876C15.149 3.83489 14.8068 3.77078 14.5108 3.89598C14.2148 4.02118 14.0224 4.31138 14.0224 4.63278V7.79506H2.08198C1.64015 7.79506 1.28198 8.15324 1.28198 8.59506V14.4005C1.28198 14.8407 1.63772 15.1983 2.07797 15.2005L14.1294 15.2756V18.4103C14.1294 18.7323 14.3225 19.023 14.6195 19.1478C14.9164 19.2726 15.2592 19.2071 15.4893 18.9817L22.4996 12.1132C22.6537 11.9622 22.7403 11.7555 22.7398 11.5399C22.7393 11.3242 22.6517 11.1179 22.497 10.9677L15.3797 4.05876Z" fill="black"/>
</svg>
