<svg width="24" height="24" viewBox="0 0 24 24" fill="none" xmlns="http://www.w3.org/2000/svg">
<g clip-path="url(#clip0_221_20545)">
<path fill-rule="evenodd" clip-rule="evenodd" d="M3.464 3.464C2 4.93 2 7.286 2 12C2 16.714 2 19.071 3.464 20.535C4.93 22 7.286 22 12 22C16.714 22 19.071 22 20.535 20.535C22 19.072 22 16.714 22 12C22 7.286 22 4.929 20.535 3.464C19.072 2 16.714 2 12 2C7.286 2 4.929 2 3.464 3.464ZM10.747 5.994C10.7486 6.19274 10.6712 6.38399 10.5319 6.52574C10.3926 6.66749 10.2027 6.74815 10.004 6.75C9.148 6.757 8.55 6.785 8.1 6.874C7.672 6.958 7.434 7.086 7.26 7.26C7.086 7.434 6.958 7.672 6.874 8.1C6.786 8.55 6.757 9.148 6.75 10.004C6.74828 10.2029 6.66761 10.393 6.52573 10.5324C6.38386 10.6719 6.19241 10.7492 5.9935 10.7475C5.79459 10.7458 5.60451 10.6651 5.46507 10.5232C5.32564 10.3814 5.24828 10.1899 5.25 9.991C5.257 9.141 5.284 8.414 5.402 7.812C5.524 7.189 5.753 6.645 6.199 6.199C6.645 5.753 7.189 5.524 7.812 5.402C8.414 5.284 9.14 5.257 9.991 5.25C10.0895 5.24921 10.1872 5.26783 10.2785 5.30479C10.3698 5.34175 10.4529 5.39633 10.5231 5.46542C10.5933 5.53451 10.6492 5.61675 10.6876 5.70744C10.726 5.79813 10.7462 5.89551 10.747 5.994ZM13.25 5.994C13.2508 5.89542 13.271 5.79797 13.3095 5.70721C13.348 5.61645 13.404 5.53416 13.4743 5.46506C13.5446 5.39596 13.6278 5.3414 13.7192 5.3045C13.8106 5.2676 13.9084 5.24908 14.007 5.25C14.857 5.257 15.583 5.284 16.186 5.402C16.809 5.524 17.352 5.753 17.798 6.199C18.244 6.645 18.474 7.189 18.596 7.812C18.714 8.414 18.74 9.14 18.747 9.991C18.7479 10.0895 18.7293 10.1872 18.6924 10.2785C18.6555 10.3698 18.601 10.453 18.5319 10.5232C18.4629 10.5935 18.3807 10.6494 18.29 10.6879C18.1994 10.7264 18.102 10.7466 18.0035 10.7475C17.905 10.7484 17.8073 10.7298 17.716 10.6929C17.6247 10.656 17.5415 10.6015 17.4713 10.5324C17.401 10.4634 17.3451 10.3812 17.3066 10.2905C17.2681 10.1999 17.2479 10.1025 17.247 10.004C17.24 9.148 17.212 8.55 17.124 8.1C17.04 7.672 16.912 7.434 16.738 7.26C16.564 7.086 16.326 6.958 15.898 6.874C15.448 6.786 14.85 6.757 13.994 6.75C13.8955 6.74922 13.7981 6.72904 13.7074 6.69062C13.6167 6.6522 13.5345 6.5963 13.4654 6.52609C13.3963 6.45589 13.3417 6.37277 13.3048 6.28147C13.2678 6.19018 13.2492 6.09249 13.25 5.994ZM6.75 13.994C6.74828 13.7951 6.66761 13.605 6.52573 13.4656C6.38386 13.3261 6.19241 13.2488 5.9935 13.2505C5.79459 13.2522 5.60451 13.3329 5.46507 13.4748C5.32564 13.6166 5.24828 13.8081 5.25 14.007C5.257 14.857 5.284 15.584 5.402 16.186C5.524 16.809 5.753 17.353 6.199 17.799C6.645 18.245 7.189 18.474 7.812 18.596C8.414 18.715 9.14 18.741 9.991 18.748C10.1899 18.7497 10.3814 18.6724 10.5232 18.5329C10.6651 18.3935 10.7458 18.2034 10.7475 18.0045C10.7492 17.8056 10.6719 17.6141 10.5324 17.4723C10.393 17.3304 10.2029 17.2497 10.004 17.248C9.148 17.241 8.55 17.212 8.1 17.125C7.672 17.041 7.434 16.912 7.26 16.738C7.086 16.564 6.958 16.326 6.874 15.898C6.786 15.448 6.757 14.85 6.75 13.994ZM18.004 13.251C18.2027 13.2528 18.3926 13.3335 18.5319 13.4753C18.6712 13.617 18.7486 13.8083 18.747 14.007C18.74 14.857 18.714 15.584 18.596 16.186C18.474 16.809 18.244 17.353 17.798 17.799C17.352 18.245 16.808 18.474 16.186 18.596C15.583 18.715 14.857 18.741 14.006 18.748C13.9075 18.7488 13.8098 18.7302 13.7185 18.6932C13.6272 18.6562 13.5441 18.6017 13.4739 18.5326C13.4037 18.4635 13.3478 18.3812 13.3094 18.2906C13.271 18.1999 13.2508 18.1025 13.25 18.004C13.2492 17.9055 13.2678 17.8078 13.3048 17.7165C13.3418 17.6252 13.3963 17.5421 13.4654 17.4719C13.5345 17.4017 13.6168 17.3458 13.7074 17.3074C13.7981 17.269 13.8955 17.2488 13.994 17.248C14.85 17.241 15.448 17.212 15.897 17.125C16.326 17.041 16.563 16.912 16.737 16.738C16.912 16.564 17.04 16.326 17.124 15.898C17.212 15.448 17.24 14.85 17.248 13.994C17.2498 13.7953 17.3305 13.6054 17.4723 13.4661C17.614 13.3268 17.8053 13.2494 18.004 13.251Z" fill="black"/>
</g>
<defs>
<clipPath id="clip0_221_20545">
<rect width="24" height="24" fill="white"/>
</clipPath>
</defs>
</svg>
