<svg width="24" height="24" viewBox="0 0 24 24" fill="none" xmlns="http://www.w3.org/2000/svg">
<path d="M9.05176 13.75C9.94974 13.75 10.7 13.7501 11.2939 13.8301C11.9219 13.9141 12.4893 14.0997 12.9443 14.5557C13.4003 15.0107 13.5859 15.5781 13.6699 16.2061C13.7499 16.8 13.75 17.5493 13.75 18.4482V18.5518C13.75 19.4507 13.7499 20.2 13.6699 20.7939C13.5859 21.4219 13.4003 21.9893 12.9443 22.4443C12.4893 22.9003 11.9219 23.0859 11.2939 23.1699C10.7 23.2499 9.95074 23.25 9.05176 23.25H8.94824C8.05026 23.25 7.30005 23.2499 6.70605 23.1699C6.07805 23.0859 5.51066 22.9003 5.05566 22.4443C4.59966 21.9893 4.41408 21.4219 4.33008 20.7939C4.25008 20.2 4.25 19.4507 4.25 18.5518V18.4482C4.25 17.5493 4.25008 16.8 4.33008 16.2061C4.41408 15.5781 4.59969 15.0107 5.05469 14.5557C5.51069 14.0997 6.07808 13.9141 6.70508 13.8301C7.30007 13.7501 8.05028 13.75 8.94824 13.75H9.05176Z" fill="black"/>
<path d="M18.0518 4.75C18.9507 4.75 19.7 4.75008 20.2939 4.83008C20.9219 4.91408 21.4893 5.09966 21.9443 5.55566C22.4003 6.01066 22.5859 6.57805 22.6699 7.20605C22.7499 7.80005 22.75 8.55026 22.75 9.44824V9.55176C22.75 10.4507 22.7499 11.2 22.6699 11.7939C22.5859 12.4219 22.4003 12.9893 21.9443 13.4443C21.4893 13.9003 20.9219 14.0859 20.2939 14.1699C19.7 14.2499 18.9497 14.25 18.0518 14.25H17.9482C17.0493 14.25 16.3 14.2499 15.7061 14.1699C15.0781 14.0859 14.5107 13.9003 14.0557 13.4443C13.5997 12.9893 13.4141 12.4219 13.3301 11.7939C13.2501 11.2 13.25 10.4507 13.25 9.55176V9.44824C13.25 8.54926 13.2501 7.80005 13.3301 7.20605C13.4141 6.57805 13.5997 6.01066 14.0557 5.55566C14.5107 5.09966 15.0781 4.91408 15.7061 4.83008C16.3 4.75008 17.0493 4.75 17.9482 4.75H18.0518Z" fill="black"/>
<path d="M7.05176 1.75C7.94974 1.75 8.69995 1.75008 9.29395 1.83008C9.92195 1.91408 10.4893 2.09966 10.9443 2.55566C11.4003 3.01066 11.5859 3.57805 11.6699 4.20605C11.7499 4.80005 11.75 5.55026 11.75 6.44824V6.55176C11.75 7.44974 11.7499 8.19995 11.6699 8.79395C11.5859 9.42195 11.4003 9.98934 10.9443 10.4443C10.4893 10.9003 9.92195 11.0859 9.29395 11.1699C8.69995 11.2499 7.94974 11.25 7.05176 11.25H6.94824C6.05028 11.25 5.30007 11.2499 4.70508 11.1699C4.07808 11.0859 3.51069 10.9003 3.05469 10.4443C2.59969 9.98934 2.41408 9.42195 2.33008 8.79395C2.25008 8.19995 2.25 7.44974 2.25 6.55176V6.44824C2.25 5.55028 2.25009 4.80007 2.33008 4.20508C2.41408 3.57808 2.59967 3.01069 3.05566 2.55469C3.51066 2.09969 4.07805 1.91408 4.70605 1.83008C5.30005 1.75008 6.05026 1.75 6.94824 1.75H7.05176Z" fill="black"/>
</svg>
