<svg width="24" height="24" viewBox="0 0 24 24" fill="none" xmlns="http://www.w3.org/2000/svg">
<g clip-path="url(#clip0_221_20719)">
<path d="M8.99252 2.02025C6.20616 2.08436 4.57808 2.35144 3.464 3.464C2.35143 4.57733 2.08436 6.20582 2.02025 8.99244L8.99252 2.02025Z" fill="black"/>
<path d="M2.00037 11.1336L11.1337 2.00037C11.4133 2 11.7019 2 12 2C12.3128 2 12.6151 2 12.9076 2.00043L21.9996 11.0923C22 11.3848 22 11.6872 22 12C22 12.3506 22 12.6882 21.9994 13.0133L13.0133 21.9994C12.6881 22 12.3506 22 12 22C11.6642 22 11.3404 22 11.028 21.9995L2.00053 12.9719C2 12.6595 2 12.3357 2 12C2 11.7019 2 11.4132 2.00037 11.1336Z" fill="black"/>
<path d="M2.02285 15.1156C2.09143 17.8367 2.36586 19.4376 3.464 20.535C4.56286 21.6339 6.16357 21.9085 8.88437 21.9771L2.02285 15.1156Z" fill="black"/>
<path d="M15.1579 21.976C17.8533 21.9056 19.4433 21.6282 20.535 20.535C21.6281 19.4426 21.9056 17.853 21.976 15.158L15.1579 21.976Z" fill="black"/>
<path d="M21.9787 8.9502C21.9128 6.18966 21.6427 4.57243 20.535 3.464C19.4281 2.35705 17.8106 2.08708 15.0497 2.02124L21.9787 8.9502Z" fill="black"/>
</g>
<defs>
<clipPath id="clip0_221_20719">
<rect width="24" height="24" fill="white"/>
</clipPath>
</defs>
</svg>
