<svg width="24" height="24" viewBox="0 0 24 24" fill="none" xmlns="http://www.w3.org/2000/svg">
<path d="M6.55176 12.75C7.44972 12.75 8.19993 12.7501 8.79492 12.8301C9.42192 12.9141 9.98931 13.0997 10.4453 13.5557C10.9003 14.0107 11.0859 14.5781 11.1699 15.2061C11.2499 15.8 11.25 16.5493 11.25 17.4482V17.5518C11.25 18.4507 11.2499 19.2 11.1699 19.7939C11.0859 20.4219 10.9003 20.9893 10.4443 21.4443C9.98934 21.9003 9.42195 22.0859 8.79395 22.1699C8.19995 22.2499 7.44974 22.25 6.55176 22.25H6.44824C5.55026 22.25 4.80005 22.2499 4.20605 22.1699C3.57806 22.0859 3.01066 21.9003 2.55566 21.4443C2.09966 20.9893 1.91408 20.4219 1.83008 19.7939C1.75008 19.2 1.75 18.4507 1.75 17.5518V17.4482C1.75 16.5493 1.75008 15.8 1.83008 15.2061C1.91408 14.5781 2.09966 14.0107 2.55566 13.5557C3.01066 13.0997 3.57805 12.9141 4.20605 12.8301C4.80005 12.7501 5.55026 12.75 6.44824 12.75H6.55176Z" fill="black"/>
<path d="M18.0234 3.75C18.2222 3.75 18.4131 3.82921 18.5537 3.96973C18.6943 4.11036 18.7734 4.30112 18.7734 4.5V17.5703L20.4697 15.6201C20.6063 15.4837 20.7904 15.4056 20.9834 15.4014C21.1763 15.3971 21.3634 15.4675 21.5059 15.5977C21.6482 15.7279 21.735 15.9081 21.748 16.1006C21.7609 16.2929 21.6995 16.4828 21.5762 16.6309L18.5762 20.0059C18.5059 20.0827 18.4195 20.1445 18.3242 20.1865C18.2291 20.2284 18.1264 20.25 18.0225 20.25C17.9183 20.25 17.815 20.2285 17.7197 20.1865C17.6244 20.1445 17.539 20.0827 17.4688 20.0059L14.4697 16.6309C14.3356 16.4842 14.2648 16.2904 14.2734 16.0918C14.2822 15.8931 14.3699 15.7056 14.5166 15.5713C14.6634 15.437 14.8579 15.3662 15.0566 15.375C15.2554 15.3838 15.4428 15.4714 15.5771 15.6182L17.2734 17.5684V4.5C17.2735 4.30118 17.3526 4.11035 17.4932 3.96973C17.6337 3.82915 17.8246 3.75009 18.0234 3.75Z" fill="black"/>
<path d="M6.55176 1.75C7.44972 1.75 8.19993 1.75009 8.79492 1.83008C9.42192 1.91408 9.98931 2.09967 10.4453 2.55566C10.9003 3.01066 11.0859 3.57805 11.1699 4.20605C11.2499 4.80005 11.25 5.55026 11.25 6.44824V6.55176C11.25 7.44974 11.2499 8.19995 11.1699 8.79395C11.0859 9.42195 10.9003 9.98934 10.4443 10.4443C9.98934 10.9003 9.42195 11.0859 8.79395 11.1699C8.19995 11.2499 7.44974 11.25 6.55176 11.25H6.44824C5.55026 11.25 4.80005 11.2499 4.20605 11.1699C3.57806 11.0859 3.01066 10.9003 2.55566 10.4443C2.09966 9.98934 1.91408 9.42195 1.83008 8.79395C1.75008 8.19995 1.75 7.44974 1.75 6.55176V6.44824C1.75 5.55028 1.75009 4.80007 1.83008 4.20508C1.91408 3.57808 2.09967 3.01069 2.55566 2.55469C3.01066 2.09969 3.57805 1.91408 4.20605 1.83008C4.80005 1.75008 5.55026 1.75 6.44824 1.75H6.55176Z" fill="black"/>
</svg>
