<svg width="24" height="24" viewBox="0 0 24 24" fill="none" xmlns="http://www.w3.org/2000/svg">
<path d="M16.1006 14.252C16.2928 14.2391 16.4828 14.3005 16.6309 14.4238L20.0059 17.4238C20.0827 17.4941 20.1445 17.5805 20.1865 17.6758C20.2284 17.7709 20.25 17.8736 20.25 17.9775C20.25 18.0817 20.2285 18.185 20.1865 18.2803C20.1445 18.3756 20.0827 18.461 20.0059 18.5312L16.6309 21.5303C16.4842 21.6644 16.2904 21.7352 16.0918 21.7266C15.8931 21.7178 15.7056 21.6301 15.5713 21.4834C15.437 21.3366 15.3662 21.1421 15.375 20.9434C15.3838 20.7446 15.4714 20.5572 15.6182 20.4229L17.5684 18.7266H4.5C4.30118 18.7265 4.11035 18.6474 3.96973 18.5068C3.82915 18.3663 3.75009 18.1754 3.75 17.9766C3.75 17.7778 3.82921 17.5869 3.96973 17.4463C4.11036 17.3057 4.30112 17.2266 4.5 17.2266H17.5703L15.6201 15.5303C15.4837 15.3937 15.4056 15.2096 15.4014 15.0166C15.3972 14.8237 15.4675 14.6366 15.5977 14.4941C15.7279 14.3518 15.9081 14.265 16.1006 14.252Z" fill="black"/>
<path d="M6.55176 1.75C7.44974 1.75 8.19995 1.75008 8.79395 1.83008C9.42195 1.91408 9.98934 2.09966 10.4443 2.55566C10.9003 3.01066 11.0859 3.57805 11.1699 4.20605C11.2499 4.80005 11.25 5.55026 11.25 6.44824V6.55176C11.25 7.44974 11.2499 8.19995 11.1699 8.79395C11.0859 9.42195 10.9003 9.98934 10.4443 10.4443C9.98934 10.9003 9.42195 11.0859 8.79395 11.1699C8.19995 11.2499 7.44974 11.25 6.55176 11.25H6.44824C5.55028 11.25 4.80007 11.2499 4.20508 11.1699C3.57808 11.0859 3.01069 10.9003 2.55469 10.4443C2.09969 9.98934 1.91408 9.42195 1.83008 8.79395C1.75008 8.19995 1.75 7.44974 1.75 6.55176V6.44824C1.75 5.55028 1.75009 4.80007 1.83008 4.20508C1.91408 3.57808 2.09967 3.01069 2.55566 2.55469C3.01066 2.09969 3.57805 1.91408 4.20605 1.83008C4.80005 1.75008 5.55026 1.75 6.44824 1.75H6.55176Z" fill="black"/>
<path d="M17.5518 1.75C18.4507 1.75 19.2 1.75008 19.7939 1.83008C20.4219 1.91408 20.9893 2.09966 21.4443 2.55566C21.9003 3.01066 22.0859 3.57805 22.1699 4.20605C22.2499 4.80005 22.25 5.55026 22.25 6.44824V6.55176C22.25 7.44974 22.2499 8.19995 22.1699 8.79395C22.0859 9.42195 21.9003 9.98934 21.4443 10.4443C20.9893 10.9003 20.4219 11.0859 19.7939 11.1699C19.2 11.2499 18.4507 11.25 17.5518 11.25H17.4482C16.5493 11.25 15.8 11.2499 15.2061 11.1699C14.5781 11.0859 14.0107 10.9003 13.5557 10.4443C13.0997 9.98934 12.9141 9.42195 12.8301 8.79395C12.7501 8.19995 12.75 7.44974 12.75 6.55176V6.44824C12.75 5.55028 12.7501 4.80007 12.8301 4.20508C12.9141 3.57808 13.0997 3.01069 13.5557 2.55469C14.0107 2.09969 14.5781 1.91408 15.2061 1.83008C15.8 1.75008 16.5493 1.75 17.4482 1.75H17.5518Z" fill="black"/>
</svg>
