<svg width="24" height="24" viewBox="0 0 24 24" fill="none" xmlns="http://www.w3.org/2000/svg">
<path d="M14 9.25594C14 7.83394 15.4962 6.76687 16.8252 7.55087L21.5449 10.338C22.6186 10.9724 22.7867 12.4274 22.0488 13.3184C21.994 13.3846 21.934 13.4475 21.8691 13.5069C21.7722 13.5958 21.6642 13.6767 21.5449 13.7472L16.8252 16.5343C16.5761 16.6812 16.3212 16.7634 16.0713 16.7901C15.9879 16.799 15.9051 16.8019 15.8232 16.7989C14.8417 16.763 14.0001 15.8957 14 14.8292V13.252H2.49902C1.80873 13.252 1.24913 12.6923 1.24902 12.002C1.24902 11.3117 1.80867 10.752 2.49902 10.752H14V9.25594Z" fill="black"/>
</svg>
