<svg width="24" height="24" viewBox="0 0 24 24" fill="none" xmlns="http://www.w3.org/2000/svg">
<g clip-path="url(#clip0_221_20739)">
<path d="M3.05546 3.05546C2.53973 3.57118 2.25 4.27065 2.25 5C2.25 5.72935 2.53973 6.42882 3.05546 6.94454C3.57118 7.46027 4.27065 7.75 5 7.75C5.72935 7.75 6.42882 7.46027 6.94454 6.94454C7.46027 6.42882 7.75 5.72935 7.75 5C7.75 4.27065 7.46027 3.57118 6.94454 3.05546C6.42882 2.53973 5.72935 2.25 5 2.25C4.27065 2.25 3.57118 2.53973 3.05546 3.05546Z" fill="black"/>
<path d="M10.0555 3.05546C9.53973 3.57118 9.25 4.27065 9.25 5C9.25 5.72935 9.53973 6.42882 10.0555 6.94454C10.5712 7.46027 11.2707 7.75 12 7.75C12.7293 7.75 13.4288 7.46027 13.9445 6.94454C14.4603 6.42882 14.75 5.72935 14.75 5C14.75 4.27065 14.4603 3.57118 13.9445 3.05546C13.4288 2.53973 12.7293 2.25 12 2.25C11.2707 2.25 10.5712 2.53973 10.0555 3.05546Z" fill="black"/>
<path d="M17.0555 3.05546C17.5712 2.53973 18.2707 2.25 19 2.25C19.7293 2.25 20.4288 2.53973 20.9445 3.05546C21.4603 3.57118 21.75 4.27065 21.75 5C21.75 5.72935 21.4603 6.42882 20.9445 6.94454C20.4288 7.46027 19.7293 7.75 19 7.75C18.2707 7.75 17.5712 7.46027 17.0555 6.94454C16.5397 6.42882 16.25 5.72935 16.25 5C16.25 4.27065 16.5397 3.57118 17.0555 3.05546Z" fill="black"/>
<path d="M3.05546 10.0555C2.53973 10.5712 2.25 11.2707 2.25 12C2.25 12.7293 2.53973 13.4288 3.05546 13.9445C3.57118 14.4603 4.27065 14.75 5 14.75C5.72935 14.75 6.42882 14.4603 6.94454 13.9445C7.46027 13.4288 7.75 12.7293 7.75 12C7.75 11.2707 7.46027 10.5712 6.94454 10.0555C6.42882 9.53973 5.72935 9.25 5 9.25C4.27065 9.25 3.57118 9.53973 3.05546 10.0555Z" fill="black"/>
<path d="M10.0555 10.0555C9.53973 10.5712 9.25 11.2707 9.25 12C9.25 12.7293 9.53973 13.4288 10.0555 13.9445C10.5712 14.4603 11.2707 14.75 12 14.75C12.7293 14.75 13.4288 14.4603 13.9445 13.9445C14.4603 13.4288 14.75 12.7293 14.75 12C14.75 11.2707 14.4603 10.5712 13.9445 10.0555C13.4288 9.53973 12.7293 9.25 12 9.25C11.2707 9.25 10.5712 9.53973 10.0555 10.0555Z" fill="black"/>
<path d="M17.0555 10.0555C17.5712 9.53973 18.2707 9.25 19 9.25C19.7293 9.25 20.4288 9.53973 20.9445 10.0555C21.4603 10.5712 21.75 11.2707 21.75 12C21.75 12.7293 21.4603 13.4288 20.9445 13.9445C20.4288 14.4603 19.7293 14.75 19 14.75C18.2707 14.75 17.5712 14.4603 17.0555 13.9445C16.5397 13.4288 16.25 12.7293 16.25 12C16.25 11.2707 16.5397 10.5712 17.0555 10.0555Z" fill="black"/>
<path d="M2.25 19C2.25 18.2707 2.53973 17.5712 3.05546 17.0555C3.57118 16.5397 4.27065 16.25 5 16.25C5.72935 16.25 6.42882 16.5397 6.94454 17.0555C7.46027 17.5712 7.75 18.2707 7.75 19C7.75 19.7293 7.46027 20.4288 6.94454 20.9445C6.42882 21.4603 5.72935 21.75 5 21.75C4.27065 21.75 3.57118 21.4603 3.05546 20.9445C2.53973 20.4288 2.25 19.7293 2.25 19Z" fill="black"/>
<path d="M9.25 19C9.25 18.2707 9.53973 17.5712 10.0555 17.0555C10.5712 16.5397 11.2707 16.25 12 16.25C12.7293 16.25 13.4288 16.5397 13.9445 17.0555C14.4603 17.5712 14.75 18.2707 14.75 19C14.75 19.7293 14.4603 20.4288 13.9445 20.9445C13.4288 21.4603 12.7293 21.75 12 21.75C11.2707 21.75 10.5712 21.4603 10.0555 20.9445C9.53973 20.4288 9.25 19.7293 9.25 19Z" fill="black"/>
<path d="M19 16.25C18.2707 16.25 17.5712 16.5397 17.0555 17.0555C16.5397 17.5712 16.25 18.2707 16.25 19C16.25 19.7293 16.5397 20.4288 17.0555 20.9445C17.5712 21.4603 18.2707 21.75 19 21.75C19.7293 21.75 20.4288 21.4603 20.9445 20.9445C21.4603 20.4288 21.75 19.7293 21.75 19C21.75 18.2707 21.4603 17.5712 20.9445 17.0555C20.4288 16.5397 19.7293 16.25 19 16.25Z" fill="black"/>
</g>
<defs>
<clipPath id="clip0_221_20739">
<rect width="24" height="24" fill="white"/>
</clipPath>
</defs>
</svg>
