<svg width="24" height="24" viewBox="0 0 24 24" fill="none" xmlns="http://www.w3.org/2000/svg">
<path fill-rule="evenodd" clip-rule="evenodd" d="M11.4811 6.06781V11.6028H9.4901C9.2431 11.5898 7.3781 11.5478 5.8661 12.8578C4.9111 13.6848 4.06509 15.0588 3.93209 17.3798C2.85309 17.6968 2.06409 18.6948 2.06409 19.8759C2.06409 21.3119 3.2291 22.4769 4.6641 22.4769C6.0991 22.4769 7.2651 21.3119 7.2651 19.8759C7.2651 18.7088 6.4941 17.7198 5.4331 17.3918C5.5471 15.6668 6.1251 14.6158 6.8471 13.9908C7.99011 12.9998 9.4171 13.0988 9.4171 13.0988C9.4351 13.0998 9.45411 13.1018 9.47211 13.1018H11.4811V17.3848C10.4111 17.7078 9.6301 18.7018 9.6301 19.8759C9.6301 21.3119 10.7951 22.4769 12.2311 22.4769C13.6661 22.4769 14.8311 21.3119 14.8311 19.8759C14.8311 18.7018 14.0501 17.7078 12.9801 17.3858V13.1008H14.9881C15.0061 13.1008 15.0251 13.0998 15.0431 13.0988C15.0431 13.0988 16.4701 12.9998 17.6131 13.9908C18.3301 14.6108 18.9051 15.6508 19.0251 17.3528C17.8941 17.6358 17.0571 18.6588 17.0571 19.8759C17.0571 21.3119 18.2221 22.4769 19.6571 22.4769C21.0921 22.4769 22.2581 21.3119 22.2581 19.8759C22.2581 18.7478 21.5371 17.7858 20.5311 17.4258C20.4071 15.0768 19.5561 13.6898 18.5941 12.8578C17.0861 11.5508 15.2251 11.5898 14.9641 11.6028H12.9801V6.06781C14.0501 5.74581 14.8311 4.75181 14.8311 3.57781C14.8311 2.14181 13.6661 0.976807 12.2311 0.976807C10.7951 0.976807 9.6301 2.14181 9.6301 3.57781C9.6301 4.75181 10.4111 5.74581 11.4811 6.06781Z" fill="black"/>
</svg>
