<svg width="24" height="24" viewBox="0 0 24 24" fill="none" xmlns="http://www.w3.org/2000/svg">
<g clip-path="url(#clip0_221_21276)">
<g clip-path="url(#clip1_221_21276)">
<path d="M13.7174 11.8557C13.7174 11.7516 13.7389 11.6483 13.7809 11.553C13.8229 11.4577 13.8847 11.3722 13.9615 11.302L18.3365 7.30298C18.4833 7.16877 18.6779 7.09788 18.8766 7.10669C19.0751 7.11561 19.2619 7.20336 19.3961 7.34985C19.5304 7.49664 19.6012 7.69112 19.5924 7.88989C19.5921 7.8968 19.589 7.90353 19.5885 7.9104L19.5797 11.1077H22.4674C22.6662 11.1077 22.8571 11.1859 22.9977 11.3264C23.1383 11.4671 23.2174 11.6588 23.2174 11.8577C23.2173 12.0564 23.1382 12.2474 22.9977 12.3879C22.8571 12.5284 22.6662 12.6077 22.4674 12.6077H19.5748L19.566 15.8108C19.5661 15.8127 19.567 15.8147 19.567 15.8167C19.5671 15.8206 19.566 15.8245 19.566 15.8284V15.8792H19.5621C19.5516 16.0495 19.4866 16.2122 19.3707 16.3391C19.2406 16.4815 19.0602 16.5682 18.8678 16.5813C18.6753 16.5943 18.4847 16.5329 18.3365 16.4094L13.9615 12.4094C13.8847 12.3392 13.8229 12.2537 13.7809 12.1584C13.7389 12.0632 13.7174 11.9598 13.7174 11.8557ZM0.717407 11.8323C0.717449 11.6334 0.796522 11.4426 0.937134 11.302C1.07777 11.1614 1.26854 11.0823 1.46741 11.0823H4.35901L4.36975 7.89673C4.36933 7.88892 4.36797 7.88113 4.3678 7.87329C4.36353 7.68053 4.43413 7.49323 4.56409 7.35083C4.69422 7.20847 4.8746 7.1208 5.06702 7.10767C5.25956 7.09464 5.45005 7.15694 5.59827 7.28052L9.97327 11.2805C10.0501 11.3508 10.1119 11.4362 10.1539 11.5315C10.1959 11.6268 10.2174 11.7301 10.2174 11.8342C10.2174 11.9381 10.1958 12.0409 10.1539 12.136C10.112 12.2312 10.0501 12.3167 9.97327 12.387L5.59827 16.386C5.45147 16.5203 5.25701 16.5911 5.05823 16.5823C4.85963 16.5733 4.67291 16.4858 4.5387 16.3391C4.41352 16.2023 4.34612 16.0246 4.34436 15.8401L4.34338 15.8206C4.3435 15.8137 4.34211 15.8069 4.34241 15.8C4.3425 15.7979 4.34327 15.7954 4.34338 15.7932L4.35413 12.5823H1.46741C1.26851 12.5823 1.07777 12.5032 0.937134 12.3625C0.796548 12.2219 0.717407 12.0311 0.717407 11.8323Z" fill="black"/>
</g>
</g>
<defs>
<clipPath id="clip0_221_21276">
<rect width="24" height="24" fill="white"/>
</clipPath>
<clipPath id="clip1_221_21276">
<rect width="24" height="24" fill="white" transform="matrix(0 -1 1 0 -0.0325928 23.8562)"/>
</clipPath>
</defs>
</svg>
