<svg width="24" height="24" viewBox="0 0 24 24" fill="none" xmlns="http://www.w3.org/2000/svg">
<g clip-path="url(#clip0_221_20585)">
<path d="M18.5 3H16C15.8674 3 15.7402 3.05268 15.6464 3.14645C15.5527 3.24021 15.5 3.36739 15.5 3.5V3.559L19 6.359V3.5C19 3.36739 18.9473 3.24021 18.8536 3.14645C18.7598 3.05268 18.6326 3 18.5 3Z" fill="black"/>
<path d="M10.75 9.5C10.75 9.16848 10.8817 8.85054 11.1161 8.61612C11.3505 8.3817 11.6685 8.25 12 8.25C12.3315 8.25 12.6495 8.3817 12.8839 8.61612C13.1183 8.85054 13.25 9.16848 13.25 9.5C13.25 9.83152 13.1183 10.1495 12.8839 10.3839C12.6495 10.6183 12.3315 10.75 12 10.75C11.6685 10.75 11.3505 10.6183 11.1161 10.3839C10.8817 10.1495 10.75 9.83152 10.75 9.5Z" fill="black"/>
<path fill-rule="evenodd" clip-rule="evenodd" d="M20.75 10.9601L21.532 11.5861C21.6877 11.7074 21.8849 11.7625 22.0809 11.7394C22.2769 11.7162 22.4559 11.6168 22.5791 11.4626C22.7022 11.3083 22.7596 11.1118 22.7388 10.9155C22.7181 10.7193 22.6207 10.5391 22.468 10.4141L14.343 3.9141C13.678 3.38196 12.8517 3.09204 12 3.09204C11.1483 3.09204 10.322 3.38196 9.657 3.9141L1.532 10.4141C1.37658 10.5384 1.27689 10.7193 1.25486 10.917C1.23282 11.1148 1.29025 11.3132 1.4145 11.4686C1.53875 11.624 1.71966 11.7237 1.91741 11.7457C2.11517 11.7678 2.31358 11.7104 2.469 11.5861L3.25 10.9601V21.2501H2C1.80109 21.2501 1.61032 21.3291 1.46967 21.4698C1.32902 21.6104 1.25 21.8012 1.25 22.0001C1.25 22.199 1.32902 22.3898 1.46967 22.5304C1.61032 22.6711 1.80109 22.7501 2 22.7501H22C22.1989 22.7501 22.3897 22.6711 22.5303 22.5304C22.671 22.3898 22.75 22.199 22.75 22.0001C22.75 21.8012 22.671 21.6104 22.5303 21.4698C22.3897 21.3291 22.1989 21.2501 22 21.2501H20.75V10.9601ZM9.25 9.5001C9.25 8.77075 9.53973 8.07128 10.0555 7.55555C10.5712 7.03983 11.2707 6.7501 12 6.7501C12.7293 6.7501 13.4288 7.03983 13.9445 7.55555C14.4603 8.07128 14.75 8.77075 14.75 9.5001C14.75 10.2294 14.4603 10.9289 13.9445 11.4446C13.4288 11.9604 12.7293 12.2501 12 12.2501C11.2707 12.2501 10.5712 11.9604 10.0555 11.4446C9.53973 10.9289 9.25 10.2294 9.25 9.5001ZM12.05 13.2501C12.714 13.2501 13.287 13.2501 13.746 13.3121C14.238 13.3781 14.709 13.5271 15.091 13.9091C15.473 14.2911 15.622 14.7621 15.688 15.2541C15.746 15.6841 15.75 16.2141 15.75 16.8271V21.2501H14.25V17.0001C14.25 16.2721 14.248 15.8001 14.202 15.4541C14.158 15.1291 14.088 15.0271 14.03 14.9701C13.972 14.9131 13.871 14.8421 13.546 14.7981C13.199 14.7521 12.728 14.7501 12 14.7501C11.272 14.7501 10.8 14.7521 10.454 14.7981C10.129 14.8421 10.027 14.9131 9.97 14.9701C9.913 15.0271 9.842 15.1291 9.798 15.4541C9.752 15.8011 9.75 16.2721 9.75 17.0001V21.2501H8.25V16.9501C8.25 16.2861 8.25 15.7131 8.312 15.2541C8.378 14.7621 8.527 14.2911 8.909 13.9091C9.291 13.5271 9.763 13.3781 10.254 13.3121C10.713 13.2501 11.286 13.2501 11.951 13.2501H12.05Z" fill="black"/>
<path d="M10.75 9.5C10.75 9.16848 10.8817 8.85054 11.1161 8.61612C11.3505 8.3817 11.6685 8.25 12 8.25C12.3315 8.25 12.6495 8.3817 12.8839 8.61612C13.1183 8.85054 13.25 9.16848 13.25 9.5C13.25 9.83152 13.1183 10.1495 12.8839 10.3839C12.6495 10.6183 12.3315 10.75 12 10.75C11.6685 10.75 11.3505 10.6183 11.1161 10.3839C10.8817 10.1495 10.75 9.83152 10.75 9.5Z" fill="black"/>
</g>
<defs>
<clipPath id="clip0_221_20585">
<rect width="24" height="24" fill="white"/>
</clipPath>
</defs>
</svg>
