<svg width="24" height="24" viewBox="0 0 24 24" fill="none" xmlns="http://www.w3.org/2000/svg">
<g clip-path="url(#clip0_221_20321)">
<path d="M19.582 18.52C21.1452 16.7078 22.0035 14.3933 22 12C22.0035 9.60676 21.1452 7.29225 19.582 5.48001L15.309 9.75201C15.745 10.392 16 11.166 16 12C16 12.834 15.745 13.608 15.309 14.248L19.582 18.52ZM18.52 19.582C16.7078 21.1452 14.3933 22.0035 12 22C9.60676 22.0035 7.29225 21.1452 5.48001 19.582L9.75201 15.309C10.392 15.745 11.166 16 12 16C12.834 16 13.608 15.745 14.248 15.309L18.52 19.582ZM4.41801 18.52L8.69101 14.248C8.24062 13.5849 7.99988 12.8017 8.00001 12C8.00001 11.166 8.25501 10.393 8.69101 9.75201L4.41801 5.47901C2.85463 7.29151 1.99626 9.60641 2.00001 12C1.9965 14.3933 2.85485 16.7078 4.41801 18.52ZM12 8.00001C11.166 8.00001 10.393 8.25501 9.75201 8.69101L5.47901 4.41801C7.29151 2.85463 9.60641 1.99626 12 2.00001C14.3933 1.9965 16.7078 2.85485 18.52 4.41801L14.248 8.69101C13.5849 8.24062 12.8017 7.99988 12 8.00001Z" fill="black"/>
</g>
<defs>
<clipPath id="clip0_221_20321">
<rect width="24" height="24" fill="white"/>
</clipPath>
</defs>
</svg>
