<svg width="24" height="24" viewBox="0 0 24 24" fill="none" xmlns="http://www.w3.org/2000/svg">
<path d="M22.8803 12.846C22.7307 12.9951 22.5356 13.0706 22.3398 13.0727L22.3399 13.0742H20.375L20.3776 13.6545C20.3796 13.6774 20.3807 13.7005 20.3807 13.7239V21.201C20.3807 21.6304 20.032 21.9782 19.6026 21.9782H14.1197C13.6903 21.9782 13.3416 21.6304 13.3416 21.201V16.0753C13.3416 15.8654 13.2589 15.664 13.1098 15.5148C12.9606 15.3657 12.7592 15.2821 12.5483 15.2821H11.6277C11.4167 15.2821 11.2153 15.3657 11.0662 15.5148C10.9179 15.664 10.8343 15.8654 10.8343 16.0763V21.2219C10.8343 21.6514 10.4857 22 10.0562 22H4.5325C4.10307 22 3.75439 21.6514 3.75439 21.2219V13.7334C3.75439 13.6942 3.75731 13.6557 3.76295 13.618V13.0519H1.83526C1.61737 13.0681 1.39397 12.9928 1.22719 12.8261C0.924113 12.522 0.924113 12.029 1.22814 11.7259C1.22814 11.7259 7.40457 5.55612 10.1873 2.77716C10.6861 2.27837 11.3626 1.99905 12.0675 2C12.7725 2 13.4489 2.28119 13.9468 2.78093C16.7219 5.56559 22.8822 11.7459 22.8822 11.7459C23.1853 12.0499 23.1843 12.5429 22.8803 12.846Z" fill="black"/>
</svg>
