<svg width="24" height="24" viewBox="0 0 24 24" fill="none" xmlns="http://www.w3.org/2000/svg">
<g clip-path="url(#clip0_221_21282)">
<g clip-path="url(#clip1_221_21282)">
<path d="M11.9673 13.6062C12.0714 13.6062 12.1747 13.6277 12.27 13.6697C12.3653 13.7117 12.4508 13.7735 12.521 13.8503L16.52 18.2253C16.6543 18.3721 16.7251 18.5667 16.7163 18.7654C16.7074 18.9639 16.6196 19.1507 16.4732 19.2849C16.3264 19.4192 16.1319 19.49 15.9331 19.4812C15.9262 19.4809 15.9195 19.4778 15.9126 19.4773L12.7153 19.4685V22.3562C12.7153 22.555 12.6371 22.7458 12.4966 22.8865C12.3559 23.0271 12.1643 23.1062 11.9653 23.1062C11.7666 23.1061 11.5756 23.027 11.4351 22.8865C11.2946 22.7458 11.2153 22.555 11.2153 22.3562V19.4636L8.01222 19.4548C8.01027 19.4549 8.0083 19.4558 8.00636 19.4558C8.00245 19.4559 7.99854 19.4548 7.99464 19.4548H7.94386V19.4509C7.77353 19.4404 7.61082 19.3754 7.4839 19.2595C7.34153 19.1294 7.25483 18.949 7.24171 18.7566C7.22868 18.5641 7.29007 18.3735 7.41358 18.2253L11.4136 13.8503C11.4838 13.7735 11.5693 13.7117 11.6646 13.6697C11.7598 13.6277 11.8632 13.6062 11.9673 13.6062Z" fill="black"/>
<path d="M11.9907 0.606201C12.1896 0.606243 12.3804 0.685313 12.521 0.825928C12.6616 0.966553 12.7407 1.15734 12.7407 1.3562V4.2478L15.9331 4.25854C15.9387 4.2583 15.9442 4.25769 15.9497 4.25757C16.1427 4.2533 16.3297 4.32363 16.4722 4.45386C16.6146 4.58408 16.7023 4.76422 16.7153 4.95679C16.7282 5.14914 16.6659 5.33897 16.5425 5.48706L12.5425 9.86206C12.4722 9.93891 12.3868 10.0007 12.2915 10.0427C12.1962 10.0847 12.0929 10.1062 11.9888 10.1062C11.8849 10.1062 11.7821 10.0846 11.687 10.0427C11.5918 10.0008 11.5063 9.93886 11.436 9.86206L7.43702 5.48706C7.30278 5.34037 7.23204 5.14664 7.24073 4.948C7.24955 4.74921 7.3371 4.56182 7.4839 4.42749C7.62072 4.30233 7.79844 4.23491 7.98292 4.23315L8.00245 4.23218C8.00927 4.23229 8.01613 4.2309 8.02296 4.2312C8.02513 4.2313 8.02762 4.23206 8.02979 4.23218L11.2407 4.24292V1.3562C11.2408 1.15733 11.3198 0.966556 11.4605 0.825928C11.6011 0.685357 11.7919 0.606201 11.9907 0.606201Z" fill="black"/>
</g>
</g>
<defs>
<clipPath id="clip0_221_21282">
<rect width="24" height="24" fill="white"/>
</clipPath>
<clipPath id="clip1_221_21282">
<rect width="24" height="24" fill="white" transform="translate(-0.0327148 -0.143799)"/>
</clipPath>
</defs>
</svg>
