<svg width="24" height="24" viewBox="0 0 24 24" fill="none" xmlns="http://www.w3.org/2000/svg">
<path fill-rule="evenodd" clip-rule="evenodd" d="M8.33421 20.9707C8.42821 21.2367 8.58121 21.4807 8.78421 21.6837C9.14121 22.0417 9.62521 22.2427 10.1312 22.2427H18.9182C19.4242 22.2427 19.9082 22.0417 20.2652 21.6837C20.6232 21.3267 20.8242 20.8427 20.8242 20.3367V19.0567C20.8242 18.5517 20.6232 18.0667 20.2652 17.7087C19.9082 17.3517 19.4242 17.1517 18.9182 17.1517H10.1312C9.62521 17.1517 9.14121 17.3517 8.78421 17.7087C8.42721 18.0667 8.22522 18.5517 8.22522 19.0567V19.5857H5.5702C4.70319 19.5857 4.63721 18.7727 4.63221 18.6747V14.6487H8.30722C8.39722 14.9467 8.56021 15.2207 8.78421 15.4447C9.14121 15.8027 9.62521 16.0037 10.1312 16.0037H18.9182C19.4242 16.0037 19.9082 15.8027 20.2652 15.4447C20.6232 15.0877 20.8242 14.6037 20.8242 14.0977V12.8167C20.8242 12.3117 20.6232 11.8267 20.2652 11.4697C19.9082 11.1127 19.4242 10.9127 18.9182 10.9127H10.1312C9.62521 10.9127 9.14121 11.1127 8.78421 11.4697C8.42721 11.8267 8.22522 12.3117 8.22522 12.8167V13.2637H4.63221V8.41769H8.34721C8.44221 8.67069 8.59021 8.90169 8.78421 9.09569C9.14121 9.45369 9.62521 9.65469 10.1312 9.65469H18.9182C19.4242 9.65469 19.9082 9.45369 20.2652 9.09569C20.6232 8.73869 20.8242 8.25469 20.8242 7.74869V6.46868C20.8242 5.96368 20.6232 5.47767 20.2652 5.12067C19.9082 4.76367 19.4242 4.56367 18.9182 4.56367H10.1312C9.62521 4.56367 9.14121 4.76367 8.78421 5.12067C8.42721 5.47767 8.22522 5.96368 8.22522 6.46868V7.03268H4.63221V2.77967C4.63221 2.39667 4.3212 2.08667 3.9392 2.08667C3.55719 2.08667 3.24719 2.39667 3.24719 2.77967V18.6897C3.24719 18.6897 3.28519 20.9707 5.5702 20.9707H8.33421Z" fill="black"/>
</svg>
