<svg width="24" height="24" viewBox="0 0 24 24" fill="none" xmlns="http://www.w3.org/2000/svg">
<g clip-path="url(#clip0_221_20579)">
<path fill-rule="evenodd" clip-rule="evenodd" d="M12 1.25C11.8011 1.25 11.6103 1.32902 11.4697 1.46967C11.329 1.61032 11.25 1.80109 11.25 2V12.973L9.57 11.012C9.50591 10.9371 9.42771 10.8757 9.33986 10.831C9.25201 10.7864 9.15622 10.7595 9.05798 10.7519C8.95973 10.7443 8.86095 10.7561 8.76727 10.7866C8.67359 10.8172 8.58685 10.8659 8.512 10.93C8.43714 10.9941 8.37565 11.0723 8.33101 11.1601C8.28638 11.248 8.25949 11.3438 8.25188 11.442C8.24426 11.5403 8.25607 11.639 8.28664 11.7327C8.3172 11.8264 8.36591 11.9131 8.43 11.988L11.43 15.488C11.5004 15.5703 11.5878 15.6364 11.6862 15.6818C11.7846 15.7271 11.8917 15.7506 12 15.7506C12.1083 15.7506 12.2154 15.7271 12.3138 15.6818C12.4122 15.6364 12.4996 15.5703 12.57 15.488L15.57 11.988C15.6341 11.9131 15.6828 11.8264 15.7134 11.7327C15.7439 11.639 15.7557 11.5403 15.7481 11.442C15.7405 11.3438 15.7136 11.248 15.669 11.1601C15.6243 11.0723 15.5628 10.9941 15.488 10.93C15.4131 10.8659 15.3264 10.8172 15.2327 10.7866C15.139 10.7561 15.0403 10.7443 14.942 10.7519C14.8438 10.7595 14.748 10.7864 14.6601 10.831C14.5723 10.8757 14.4941 10.9371 14.43 11.012L12.75 12.972V2C12.75 1.80109 12.671 1.61032 12.5303 1.46967C12.3897 1.32902 12.1989 1.25 12 1.25Z" fill="black"/>
<path d="M14.25 9V9.378C14.7174 9.21188 15.2265 9.20492 15.6983 9.35821C16.17 9.51151 16.5778 9.81645 16.8583 10.2256C17.1387 10.6347 17.276 11.1251 17.2488 11.6203C17.2217 12.1156 17.0315 12.588 16.708 12.964L13.708 16.464C13.4968 16.7103 13.2348 16.908 12.9399 17.0436C12.6451 17.1792 12.3245 17.2493 12 17.2493C11.6755 17.2493 11.3549 17.1792 11.0601 17.0436C10.7652 16.908 10.5032 16.7103 10.292 16.464L7.292 12.964C6.96938 12.5878 6.78 12.1156 6.75326 11.6207C6.72651 11.1259 6.86391 10.636 7.1441 10.2272C7.4243 9.81843 7.83162 9.5136 8.30283 9.36004C8.77403 9.20648 9.28275 9.2128 9.75 9.378V9H8C5.172 9 3.757 9 2.879 9.879C2 10.757 2 12.172 2 15V16C2 18.828 2 20.243 2.879 21.121C3.757 22 5.172 22 8 22H16C18.828 22 20.243 22 21.121 21.121C22 20.243 22 18.828 22 16V15C22 12.172 22 10.757 21.121 9.879C20.243 9 18.828 9 16 9H14.25Z" fill="black"/>
</g>
<defs>
<clipPath id="clip0_221_20579">
<rect width="24" height="24" fill="white"/>
</clipPath>
</defs>
</svg>
