<svg width="24" height="24" viewBox="0 0 24 24" fill="none" xmlns="http://www.w3.org/2000/svg">
<g clip-path="url(#clip0_221_20269)">
<path d="M2 18C2 16.114 2 15.172 2.586 14.586C3.172 14 4.114 14 6 14C7.886 14 8.828 14 9.414 14.586C10 15.172 10 16.114 10 18C10 19.886 10 20.828 9.414 21.414C8.828 22 7.886 22 6 22C4.114 22 3.172 22 2.586 21.414C2 20.828 2 19.886 2 18Z" fill="black"/>
<path fill-rule="evenodd" clip-rule="evenodd" d="M3.464 3.464C2 4.93 2 7.286 2 12V13.138C2.509 12.805 3.069 12.658 3.606 12.587C4.251 12.5 5.045 12.5 5.911 12.5H6.09C6.955 12.5 7.749 12.5 8.394 12.587C9.105 12.682 9.857 12.907 10.474 13.525C11.093 14.143 11.318 14.895 11.414 15.605C11.5 16.251 11.5 17.045 11.5 17.91V18.09C11.5 18.955 11.5 19.749 11.413 20.394C11.341 20.931 11.195 21.491 10.863 21.999L12 22C16.714 22 19.071 22 20.535 20.535C22 19.072 22 16.714 22 12C22 7.286 22 4.929 20.535 3.464C19.072 2 16.714 2 12 2C7.286 2 4.929 2 3.464 3.464ZM15.75 12.75C15.9489 12.75 16.1397 12.671 16.2803 12.5303C16.421 12.3897 16.5 12.1989 16.5 12C16.5 11.8011 16.421 11.6103 16.2803 11.4697C16.1397 11.329 15.9489 11.25 15.75 11.25H13.81L17.53 7.53C17.6625 7.38783 17.7346 7.19978 17.7312 7.00548C17.7277 6.81118 17.649 6.62579 17.5116 6.48838C17.3742 6.35097 17.1888 6.27225 16.9945 6.26883C16.8002 6.2654 16.6122 6.33752 16.47 6.47L12.75 10.19V8.25C12.75 8.05109 12.671 7.86032 12.5303 7.71967C12.3897 7.57902 12.1989 7.5 12 7.5C11.8011 7.5 11.6103 7.57902 11.4697 7.71967C11.329 7.86032 11.25 8.05109 11.25 8.25V12C11.25 12.414 11.586 12.75 12 12.75H15.75Z" fill="black"/>
</g>
<defs>
<clipPath id="clip0_221_20269">
<rect width="24" height="24" fill="white"/>
</clipPath>
</defs>
</svg>
