<svg width="24" height="24" viewBox="0 0 24 24" fill="none" xmlns="http://www.w3.org/2000/svg">
<g clip-path="url(#clip0_221_21047)">
<path d="M9.5 2C9.10218 2 8.72064 2.15804 8.43934 2.43934C8.15804 2.72064 8 3.10218 8 3.5V4.5C8 4.89782 8.15804 5.27936 8.43934 5.56066C8.72064 5.84196 9.10218 6 9.5 6H14.5C14.8978 6 15.2794 5.84196 15.5607 5.56066C15.842 5.27936 16 4.89782 16 4.5V3.5C16 3.10218 15.842 2.72064 15.5607 2.43934C15.2794 2.15804 14.8978 2 14.5 2H9.5Z" fill="black"/>
<path d="M14.3998 12.8959C14.0846 12.8959 13.8064 12.7412 13.6339 12.506C13.6191 12.4727 13.6017 12.4401 13.5817 12.4083C13.5692 12.3889 13.5559 12.3703 13.542 12.3524C13.4829 12.2287 13.4499 12.0907 13.4499 11.9459C13.4499 11.4192 13.873 10.9874 14.3998 10.9874C14.9266 10.9874 15.3497 11.4192 15.3497 11.9459C15.3497 12.4641 14.9266 12.8959 14.3998 12.8959Z" fill="black"/>
<path d="M9.64034 14.903C9.62806 14.8836 9.61676 14.8637 9.60644 14.8436C9.43533 14.5943 9.14997 14.4303 8.82523 14.4303C8.29844 14.4303 7.87531 14.862 7.87531 15.3888C7.87531 15.907 8.29844 16.3387 8.82523 16.3387C9.35201 16.3387 9.77514 15.907 9.77514 15.3888C9.77514 15.2258 9.73463 15.0719 9.66308 14.9371C9.65524 14.926 9.64766 14.9147 9.64034 14.903Z" fill="black"/>
<path d="M14.3998 16.7052C14.9266 16.7052 15.3497 17.1369 15.3497 17.6637C15.3497 18.1819 14.9266 18.6136 14.3998 18.6136C13.873 18.6136 13.4499 18.1819 13.4499 17.6637C13.4499 17.1369 13.873 16.7052 14.3998 16.7052Z" fill="black"/>
<path fill-rule="evenodd" clip-rule="evenodd" d="M6.5 4.03711C5.242 4.10711 4.448 4.30711 3.879 4.87711C3 5.75611 3 7.17011 3 9.99811V15.9981C3 18.8271 3 20.2401 3.879 21.1201C4.757 21.9981 6.17199 21.9981 8.99998 21.9981H15C17.828 21.9981 19.243 21.9981 20.121 21.1201C21 20.2411 21 18.8271 21 15.9981V9.99811C21 7.17011 21 5.75611 20.121 4.87711C19.552 4.30711 18.758 4.10711 17.5 4.03711V4.50011C17.5 5.29576 17.1839 6.05882 16.6213 6.62143C16.0587 7.18404 15.2956 7.50011 14.5 7.50011H9.5C8.70435 7.50011 7.94129 7.18404 7.37868 6.62143C6.81607 6.05882 6.5 5.29576 6.5 4.50011V4.03711ZM11.9127 11.9459C11.9127 10.5729 13.0267 9.4502 14.3998 9.4502C15.7729 9.4502 16.8869 10.5729 16.8869 11.9459C16.8869 13.3104 15.7729 14.4331 14.3998 14.4331C13.7798 14.4331 13.2126 14.2041 12.7769 13.8274L11.2417 14.7977C11.2879 14.9873 11.3123 15.1853 11.3123 15.3888C11.3123 15.4202 11.3117 15.4515 11.3106 15.4827L12.4567 16.1082C12.9125 15.5359 13.6137 15.168 14.3998 15.168C15.7729 15.168 16.8869 16.2906 16.8869 17.6637C16.8869 19.0282 15.7729 20.1508 14.3998 20.1508C13.0267 20.1508 11.9127 19.0282 11.9127 17.6637C11.9127 17.6291 11.9134 17.5946 11.9148 17.5603L10.7676 16.9383C10.3117 17.5084 9.61088 17.8759 8.82523 17.8759C7.45214 17.8759 6.33812 16.7533 6.33812 15.3888C6.33812 14.0157 7.45214 12.8931 8.82523 12.8931C9.43975 12.8931 10.0024 13.1179 10.4365 13.4895L11.9787 12.5147C11.9356 12.3318 11.9127 12.1414 11.9127 11.9459Z" fill="black"/>
</g>
<defs>
<clipPath id="clip0_221_21047">
<rect width="24" height="24" fill="white"/>
</clipPath>
</defs>
</svg>
