<svg width="24" height="24" viewBox="0 0 24 24" fill="none" xmlns="http://www.w3.org/2000/svg">
<g clip-path="url(#clip0_221_20734)">
<path d="M2.418 6.072C2.375 5.75 2.375 5.353 2.375 4.92V4.83C2.375 4.398 2.375 4.001 2.418 3.678C2.466 3.322 2.579 2.948 2.888 2.638C3.197 2.328 3.572 2.216 3.928 2.168C4.25 2.125 4.647 2.125 5.08 2.125H18.92C19.352 2.125 19.749 2.125 20.072 2.168C20.428 2.216 20.802 2.329 21.112 2.638C21.422 2.947 21.534 3.322 21.582 3.678C21.625 4 21.625 4.397 21.625 4.83V4.92C21.625 5.352 21.625 5.749 21.582 6.072C21.534 6.428 21.421 6.802 21.112 7.112C20.803 7.422 20.428 7.534 20.072 7.582C19.75 7.625 19.353 7.625 18.9201 7.625H5.08C4.64802 7.625 4.25099 7.625 3.928 7.582C3.572 7.534 3.198 7.421 2.888 7.112C2.578 6.803 2.466 6.428 2.418 6.072Z" fill="black"/>
<path d="M2.375 12.42C2.375 12.853 2.375 13.25 2.418 13.572C2.466 13.928 2.578 14.303 2.888 14.612C3.198 14.921 3.572 15.034 3.928 15.082C4.25099 15.125 4.64796 15.125 5.07994 15.125H18.92C19.353 15.125 19.75 15.125 20.072 15.082C20.428 15.034 20.803 14.922 21.112 14.612C21.421 14.302 21.534 13.928 21.582 13.572C21.625 13.249 21.625 12.852 21.625 12.42V12.33C21.625 11.897 21.625 11.5 21.582 11.178C21.534 10.822 21.422 10.447 21.112 10.138C20.802 9.829 20.428 9.716 20.072 9.668C19.749 9.625 19.352 9.625 18.9201 9.625H5.08C4.64702 9.625 4.24999 9.625 3.928 9.668C3.572 9.716 3.197 9.828 2.888 10.138C2.579 10.448 2.466 10.822 2.418 11.178C2.375 11.501 2.375 11.898 2.375 12.33V12.42Z" fill="black"/>
<path d="M2.418 21.072C2.375 20.75 2.375 20.353 2.375 19.92V19.83C2.375 19.398 2.375 19.001 2.418 18.678C2.466 18.322 2.579 17.948 2.888 17.638C3.197 17.328 3.572 17.216 3.928 17.168C4.24999 17.125 4.64696 17.125 5.07994 17.125H18.92C19.352 17.125 19.749 17.125 20.072 17.168C20.428 17.216 20.802 17.329 21.112 17.638C21.422 17.947 21.534 18.322 21.582 18.678C21.625 19 21.625 19.397 21.625 19.83V19.92C21.625 20.352 21.625 20.749 21.582 21.072C21.534 21.428 21.421 21.802 21.112 22.112C20.803 22.422 20.428 22.534 20.072 22.582C19.75 22.625 19.353 22.625 18.9201 22.625H5.08C4.64802 22.625 4.25099 22.625 3.928 22.582C3.572 22.534 3.198 22.421 2.888 22.112C2.578 21.803 2.466 21.428 2.418 21.072Z" fill="black"/>
</g>
<defs>
<clipPath id="clip0_221_20734">
<rect width="24" height="24" fill="white"/>
</clipPath>
</defs>
</svg>
