<svg width="24" height="24" viewBox="0 0 24 24" fill="none" xmlns="http://www.w3.org/2000/svg">
<g clip-path="url(#clip0_221_20561)">
<path fill-rule="evenodd" clip-rule="evenodd" d="M7.87505 11.9999C7.87505 11.801 7.95407 11.6102 8.09472 11.4695C8.23537 11.3289 8.42614 11.2499 8.62505 11.2499H19.5981L17.6371 9.56987C17.5622 9.50579 17.5007 9.42759 17.4561 9.33974C17.4114 9.25188 17.3845 9.1561 17.3769 9.05786C17.3693 8.95961 17.3811 8.86083 17.4117 8.76715C17.4423 8.67347 17.491 8.58673 17.5551 8.51187C17.6191 8.43702 17.6973 8.37552 17.7852 8.33089C17.873 8.28626 17.9688 8.25937 18.0671 8.25176C18.1653 8.24414 18.2641 8.25595 18.3578 8.28651C18.4515 8.31708 18.5382 8.36579 18.6131 8.42988L22.1131 11.4299C22.1954 11.5003 22.2615 11.5877 22.3068 11.6861C22.3521 11.7845 22.3756 11.8915 22.3756 11.9999C22.3756 12.1082 22.3521 12.2153 22.3068 12.3137C22.2615 12.4121 22.1954 12.4995 22.1131 12.5699L18.6131 15.5699C18.4619 15.6993 18.2655 15.7634 18.0671 15.748C17.8687 15.7326 17.6845 15.639 17.5551 15.4879C17.4256 15.3367 17.3616 15.1403 17.3769 14.9419C17.3923 14.7435 17.4859 14.5593 17.6371 14.4299L19.5971 12.7499H8.62505C8.42614 12.7499 8.23537 12.6709 8.09472 12.5302C7.95407 12.3896 7.87505 12.1988 7.87505 11.9999Z" fill="black"/>
<path d="M14.625 8C14.625 8.702 14.625 9.053 14.456 9.306C14.3832 9.41478 14.2898 9.50821 14.181 9.581C13.928 9.75 13.577 9.75 12.875 9.75H8.625C8.02826 9.75 7.45597 9.98705 7.03401 10.409C6.61205 10.831 6.375 11.4033 6.375 12C6.375 12.5967 6.61205 13.169 7.03401 13.591C7.45597 14.0129 8.02826 14.25 8.625 14.25H12.875C13.577 14.25 13.928 14.25 14.181 14.418C14.2899 14.4911 14.3833 14.5849 14.456 14.694C14.625 14.947 14.625 15.298 14.625 16C14.625 18.828 14.625 20.243 13.746 21.121C12.868 22 11.454 22 8.626 22H7.626C4.796 22 3.383 22 2.504 21.121C1.625 20.243 1.625 18.828 1.625 16V8C1.625 5.172 1.625 3.757 2.504 2.879C3.383 2.001 4.797 2 7.625 2H8.625C11.454 2 12.868 2 13.746 2.879C14.625 3.757 14.625 5.172 14.625 8Z" fill="black"/>
</g>
<defs>
<clipPath id="clip0_221_20561">
<rect width="24" height="24" fill="white"/>
</clipPath>
</defs>
</svg>
