<svg width="24" height="24" viewBox="0 0 24 24" fill="none" xmlns="http://www.w3.org/2000/svg">
<g clip-path="url(#clip0_221_20567)">
<path fill-rule="evenodd" clip-rule="evenodd" d="M16.1249 11.9999C16.1249 11.801 16.0459 11.6102 15.9053 11.4695C15.7646 11.3289 15.5739 11.2499 15.3749 11.2499H4.40195L6.36295 9.56987C6.4378 9.50579 6.4993 9.42759 6.54393 9.33974C6.58856 9.25188 6.61545 9.1561 6.62307 9.05786C6.63068 8.95961 6.61887 8.86083 6.58831 8.76715C6.55775 8.67347 6.50903 8.58673 6.44495 8.51187C6.38086 8.43702 6.30266 8.37552 6.21481 8.33089C6.12696 8.28626 6.03118 8.25937 5.93293 8.25176C5.83469 8.24414 5.7359 8.25595 5.64222 8.28651C5.54854 8.31708 5.4618 8.36579 5.38695 8.42988L1.88695 11.4299C1.80461 11.5003 1.73851 11.5877 1.69318 11.6861C1.64786 11.7845 1.62439 11.8915 1.62439 11.9999C1.62439 12.1082 1.64786 12.2153 1.69318 12.3137C1.73851 12.4121 1.80461 12.4995 1.88695 12.5699L5.38695 15.5699C5.53812 15.6993 5.73452 15.7634 5.93293 15.748C6.13134 15.7326 6.31552 15.639 6.44495 15.4879C6.57437 15.3367 6.63844 15.1403 6.62307 14.9419C6.60769 14.7435 6.51412 14.5593 6.36295 14.4299L4.40295 12.7499H15.3749C15.5739 12.7499 15.7646 12.6709 15.9053 12.5302C16.0459 12.3896 16.1249 12.1988 16.1249 11.9999Z" fill="black"/>
<path d="M9.375 8C9.375 8.702 9.375 9.053 9.544 9.306C9.61679 9.41478 9.71022 9.50821 9.819 9.581C10.072 9.75 10.423 9.75 11.125 9.75H15.375C15.9717 9.75 16.544 9.98705 16.966 10.409C17.3879 10.831 17.625 11.4033 17.625 12C17.625 12.5967 17.3879 13.169 16.966 13.591C16.544 14.0129 15.9717 14.25 15.375 14.25H11.125C10.423 14.25 10.072 14.25 9.819 14.418C9.71012 14.4911 9.61668 14.5849 9.544 14.694C9.375 14.947 9.375 15.298 9.375 16C9.375 18.828 9.375 20.243 10.254 21.121C11.132 22 12.546 22 15.374 22H16.374C19.204 22 20.617 22 21.496 21.121C22.375 20.243 22.375 18.828 22.375 16V8C22.375 5.172 22.375 3.757 21.496 2.879C20.617 2.001 19.203 2 16.375 2H15.375C12.546 2 11.132 2 10.254 2.879C9.375 3.757 9.375 5.172 9.375 8Z" fill="black"/>
</g>
<defs>
<clipPath id="clip0_221_20567">
<rect width="24" height="24" fill="white"/>
</clipPath>
</defs>
</svg>
