<svg width="24" height="24" viewBox="0 0 24 24" fill="none" xmlns="http://www.w3.org/2000/svg">
<g clip-path="url(#clip0_221_21035)">
<path d="M9.5 2C9.10218 2 8.72064 2.15804 8.43934 2.43934C8.15804 2.72064 8 3.10218 8 3.5V4.5C8 4.89782 8.15804 5.27936 8.43934 5.56066C8.72064 5.84196 9.10218 6 9.5 6H14.5C14.8978 6 15.2794 5.84196 15.5607 5.56066C15.842 5.27936 16 4.89782 16 4.5V3.5C16 3.10218 15.842 2.72064 15.5607 2.43934C15.2794 2.15804 14.8978 2 14.5 2H9.5Z" fill="black"/>
<path d="M11.0825 10.7624C10.8481 10.9968 10.7164 11.3148 10.7164 11.6463C10.7164 11.9778 10.8481 12.2957 11.0825 12.5302C11.3169 12.7646 11.6349 12.8963 11.9664 12.8963C12.2979 12.8963 12.6158 12.7646 12.8503 12.5302C13.0847 12.2957 13.2164 11.9778 13.2164 11.6463C13.2164 11.3148 13.0847 10.9968 12.8503 10.7624C12.6158 10.528 12.2979 10.3963 11.9664 10.3963C11.6349 10.3963 11.3169 10.528 11.0825 10.7624Z" fill="black"/>
<path d="M9.47338 16.9033C8.82938 17.2253 8.71638 17.5313 8.71638 17.6463C8.71638 18.2503 8.75438 18.3433 8.90638 18.4533C9.02838 18.5413 9.27938 18.6593 9.78638 18.7513C10.2884 18.8413 10.9894 18.8963 11.9664 18.8963C12.9434 18.8963 13.6444 18.8413 14.1464 18.7513C14.6534 18.6593 14.9044 18.5413 15.0264 18.4533C15.1774 18.3433 15.2164 18.2503 15.2164 17.6463C15.2164 17.5313 15.1034 17.2253 14.4594 16.9033C13.8604 16.6033 12.9794 16.3963 11.9664 16.3963C10.9534 16.3963 10.0734 16.6033 9.47338 16.9033Z" fill="black"/>
<path fill-rule="evenodd" clip-rule="evenodd" d="M6.5 4.03711C5.242 4.10711 4.448 4.30711 3.879 4.87711C3 5.75611 3 7.17011 3 9.99811V15.9981C3 18.8271 3 20.2401 3.879 21.1201C4.757 21.9981 6.17199 21.9981 8.99998 21.9981H15C17.828 21.9981 19.243 21.9981 20.121 21.1201C21 20.2411 21 18.8271 21 15.9981V9.99811C21 7.17011 21 5.75611 20.121 4.87711C19.552 4.30711 18.758 4.10711 17.5 4.03711V4.50011C17.5 5.29576 17.1839 6.05882 16.6213 6.62143C16.0587 7.18404 15.2956 7.50011 14.5 7.50011H9.5C8.70435 7.50011 7.94129 7.18404 7.37868 6.62143C6.81607 6.05882 6.5 5.29576 6.5 4.50011V4.03711ZM10.914 9.1056C11.2477 8.9674 11.6052 8.89627 11.9664 8.89627C12.6957 8.89627 13.3952 9.186 13.9109 9.70173C14.4267 10.2175 14.7164 10.9169 14.7164 11.6463C14.7164 12.3756 14.4267 13.0751 13.9109 13.5908C13.3952 14.1065 12.6957 14.3963 11.9664 14.3963C11.6052 14.3963 11.2477 14.3251 10.914 14.1869C10.5804 14.0487 10.2772 13.8462 10.0218 13.5908C9.76648 13.3355 9.56392 13.0323 9.42572 12.6987C9.28752 12.365 9.21638 12.0074 9.21638 11.6463C9.21638 11.2851 9.28752 10.9275 9.42572 10.5939C9.56392 10.2602 9.76648 9.95709 10.0218 9.70173C10.2772 9.44637 10.5804 9.2438 10.914 9.1056ZM8.80238 15.5613C9.65138 15.1363 10.7704 14.8963 11.9664 14.8963C13.1624 14.8963 14.2814 15.1373 15.1304 15.5613C15.9334 15.9633 16.7164 16.6563 16.7164 17.6463V17.7083C16.7184 18.2193 16.7204 19.0783 15.9064 19.6673C15.5284 19.9413 15.0294 20.1163 14.4114 20.2273C13.7884 20.3393 12.9894 20.3963 11.9664 20.3963C10.9434 20.3963 10.1444 20.3393 9.52138 20.2273C8.90338 20.1163 8.40438 19.9413 8.02638 19.6683C7.21238 19.0793 7.21438 18.2193 7.21638 17.7093V17.6463C7.21638 16.6573 7.99938 15.9633 8.80238 15.5613Z" fill="black"/>
</g>
<defs>
<clipPath id="clip0_221_21035">
<rect width="24" height="24" fill="white"/>
</clipPath>
</defs>
</svg>
