<svg width="24" height="24" viewBox="0 0 24 24" fill="none" xmlns="http://www.w3.org/2000/svg">
<g clip-path="url(#clip0_221_20698)">
<path d="M14.25 20.9995C14.7885 20.9994 15.2873 20.9987 15.75 20.9937C18.386 20.9667 19.854 20.803 20.828 19.828C22 18.657 22 16.771 22 13V12.8033L1.98816 12.7658V12.9995C1.98816 16.7705 1.98816 18.6565 3.16016 19.8275C3.98404 20.6522 5.16137 20.8967 7.10008 20.9688C7.91992 20.9999 8.87622 21 10 21L14.25 20.9995Z" fill="black"/>
<path d="M1.98816 11.2658V10.9995C1.98816 7.22851 1.98816 5.34251 3.16016 4.17151C4.13416 3.19651 5.60216 3.03251 8.23816 3.00551C8.7009 3.00058 9.19968 3.00011 9.73816 3.00002L13.9882 2.99951C15.246 2.99951 16.2941 2.99951 17.176 3.04301C18.9448 3.12898 20.0457 3.38892 20.828 4.172C22 5.343 22 7.229 22 11V11.3033L1.98816 11.2658Z" fill="black"/>
</g>
<defs>
<clipPath id="clip0_221_20698">
<rect width="24" height="24" fill="white"/>
</clipPath>
</defs>
</svg>
