<svg width="24" height="24" viewBox="0 0 24 24" fill="none" xmlns="http://www.w3.org/2000/svg">
<g clip-path="url(#clip0_221_20681)">
<path fill-rule="evenodd" clip-rule="evenodd" d="M15.75 3.0061V20.9941C18.386 20.9671 19.854 20.8031 20.828 19.8281C22 18.6571 22 16.7711 22 13.0001V11.0001C22 7.2291 22 5.3431 20.828 4.1721C19.854 3.1971 18.386 3.0331 15.75 3.0061Z" fill="black"/>
<path fill-rule="evenodd" clip-rule="evenodd" d="M8.25952 3.0061V20.9941C5.62352 20.9671 4.15552 20.8031 3.18152 19.8281C2.00952 18.6571 2.00952 16.7711 2.00952 13.0001V11.0001C2.00952 7.2291 2.00952 5.3431 3.18152 4.1721C4.15552 3.1971 5.62352 3.0331 8.25952 3.0061Z" fill="black"/>
<rect x="9.32324" y="2.99609" width="5.37366" height="18.0122" fill="black"/>
</g>
<defs>
<clipPath id="clip0_221_20681">
<rect width="24" height="24" fill="white"/>
</clipPath>
</defs>
</svg>
