<svg width="24" height="24" viewBox="0 0 24 24" fill="none" xmlns="http://www.w3.org/2000/svg">
<g clip-path="url(#clip0_221_21041)">
<path d="M9.5 2C9.10218 2 8.72064 2.15804 8.43934 2.43934C8.15804 2.72064 8 3.10218 8 3.5V4.5C8 4.89782 8.15804 5.27936 8.43934 5.56066C8.72064 5.84196 9.10218 6 9.5 6H14.5C14.8978 6 15.2794 5.84196 15.5607 5.56066C15.842 5.27936 16 4.89782 16 4.5V3.5C16 3.10218 15.842 2.72064 15.5607 2.43934C15.2794 2.15804 14.8978 2 14.5 2H9.5Z" fill="black"/>
<path fill-rule="evenodd" clip-rule="evenodd" d="M6.5 4.03711C5.242 4.10711 4.448 4.30711 3.879 4.87711C3 5.75611 3 7.17011 3 9.99811V15.9981C3 18.8271 3 20.2401 3.879 21.1201C4.757 21.9981 6.17199 21.9981 8.99998 21.9981H15C17.828 21.9981 19.243 21.9981 20.121 21.1201C21 20.2411 21 18.8271 21 15.9981V9.99811C21 7.17011 21 5.75611 20.121 4.87711C19.552 4.30711 18.758 4.10711 17.5 4.03711V4.50011C17.5 5.29576 17.1839 6.05882 16.6213 6.62143C16.0587 7.18404 15.2956 7.50011 14.5 7.50011H9.5C8.70435 7.50011 7.94129 7.18404 7.37868 6.62143C6.81607 6.05882 6.5 5.29576 6.5 4.50011V4.03711ZM10.5 11.2463C10.3013 11.2463 10.1106 11.3252 9.97 11.4657C9.82955 11.6063 9.75066 11.7969 9.75066 11.9957C9.75066 12.1944 9.82955 12.3851 9.97 12.5257L12.44 14.9957L9.97 17.4657C9.89631 17.5343 9.83721 17.6171 9.79622 17.7091C9.75523 17.8011 9.73319 17.9005 9.73141 18.0012C9.72963 18.1019 9.74816 18.2019 9.78588 18.2953C9.8236 18.3887 9.87974 18.4735 9.95096 18.5447C10.0222 18.6159 10.107 18.6721 10.2004 18.7098C10.2938 18.7475 10.3938 18.766 10.4945 18.7643C10.5952 18.7625 10.6945 18.7405 10.7865 18.6995C10.8785 18.6585 10.9613 18.5994 11.03 18.5257L14.03 15.5257C14.1705 15.3851 14.2493 15.1944 14.2493 14.9957C14.2493 14.7969 14.1705 14.6063 14.03 14.4657L11.03 11.4657C10.8894 11.3252 10.6988 11.2463 10.5 11.2463Z" fill="black"/>
</g>
<defs>
<clipPath id="clip0_221_21041">
<rect width="24" height="24" fill="white"/>
</clipPath>
</defs>
</svg>
