<svg width="24" height="24" viewBox="0 0 24 24" fill="none" xmlns="http://www.w3.org/2000/svg">
<g clip-path="url(#clip0_221_20703)">
<path d="M15.75 20.9937C15.2873 20.9987 14.7885 20.9994 14.25 20.9995L12.6903 21V16.4496L21.9409 16.467C21.84 18.0671 21.567 19.0897 20.828 19.828C19.854 20.803 18.386 20.9667 15.75 20.9937Z" fill="black"/>
<path d="M11.1903 16.4468V21H10C8.87622 21 7.91992 20.9999 7.10008 20.9688C5.16137 20.8967 3.98404 20.6522 3.16016 19.8275C2.41555 19.0835 2.14401 18.0509 2.04499 16.4297L11.1903 16.4468Z" fill="black"/>
<path d="M1.98816 12.9995C1.98816 13.7066 1.98816 14.3474 1.99588 14.9296L11.1903 14.9468V10.7364L1.98818 10.7191C1.98816 10.8114 1.98816 10.9049 1.98816 10.9995V12.9995Z" fill="black"/>
<path d="M1.99408 9.21916C2.02266 6.60242 2.18923 5.14161 3.16016 4.17151C4.13416 3.19651 5.60216 3.03251 8.23816 3.00551C8.70089 3.00058 9.19968 3.00011 9.73816 3.00002L13.9882 2.99951C15.246 2.99951 16.2941 2.99951 17.176 3.04301C18.9448 3.12898 20.0457 3.38892 20.828 4.172C21.8035 5.14666 21.9671 6.61665 21.9945 9.25663L1.99408 9.21916Z" fill="black"/>
<path d="M22 10.7566C22 10.8369 22 10.918 22 11V13C22 13.7221 22 14.375 21.9918 14.9671L12.6903 14.9496V10.7392L22 10.7566Z" fill="black"/>
</g>
<defs>
<clipPath id="clip0_221_20703">
<rect width="24" height="24" fill="white"/>
</clipPath>
</defs>
</svg>
