<svg width="24" height="24" viewBox="0 0 24 24" fill="none" xmlns="http://www.w3.org/2000/svg">
<g clip-path="url(#clip0_221_20688)">
<path fill-rule="evenodd" clip-rule="evenodd" d="M20.828 4.172C22 5.343 22 7.229 22 11V13C22 16.771 22 18.657 20.828 19.828C19.656 20.999 17.771 21 14 21H9.75V3H14C17.771 3 19.657 3 20.828 4.172ZM8.25 3.006V20.994C5.614 20.967 4.146 20.803 3.172 19.828C2 18.657 2 16.771 2 13V11C2 7.229 2 5.343 3.172 4.172C4.146 3.197 5.614 3.033 8.25 3.006Z" fill="black"/>
</g>
<defs>
<clipPath id="clip0_221_20688">
<rect width="24" height="24" fill="white"/>
</clipPath>
</defs>
</svg>
