<svg width="24" height="24" viewBox="0 0 24 24" fill="none" xmlns="http://www.w3.org/2000/svg">
<g clip-path="url(#clip0_221_20724)">
<path d="M9.89716 10.4078L12.6508 13.2178H7.08903L9.89716 10.4078Z" fill="black"/>
<path d="M8.90415 9.39447L6.00336 12.2941V6.43428L8.90415 9.39447Z" fill="black"/>
<path d="M10.9023 9.40202L13.6567 12.2125V6.64573L10.9023 9.40202Z" fill="black"/>
<path d="M12.7353 5.56491L9.90974 8.38928L7.14174 5.56491H12.7353Z" fill="black"/>
<path d="M14.5349 18.3267H17.9624C17.9998 18.3267 18.0345 18.3089 18.0612 18.2822C18.087 18.2555 18.1013 18.2199 18.1013 18.1843V17.294C18.1013 17.2584 18.087 17.2228 18.0612 17.1961C18.0345 17.1694 17.9998 17.1515 17.9624 17.1515H14.5349C14.4984 17.1515 14.4627 17.1694 14.4369 17.1961C14.4111 17.2228 14.396 17.2584 14.396 17.294V18.1843C14.396 18.2199 14.4111 18.2555 14.4369 18.2822C14.4627 18.3089 14.4984 18.3267 14.5349 18.3267Z" fill="black"/>
<path fill-rule="evenodd" clip-rule="evenodd" d="M3.464 20.535C4.929 22 7.286 22 12 22C16.714 22 19.072 22 20.535 20.535C22 19.071 22 16.714 22 12C22 7.286 22 4.93 20.535 3.464C19.071 2 16.714 2 12 2C7.286 2 4.93 2 3.464 3.464C2 4.929 2 7.286 2 12C2 16.714 2 19.072 3.464 20.535ZM9.90366 17.1515H5.81913C5.42741 17.1515 5.10959 16.84 5.10959 16.4483C5.10959 16.0566 5.42741 15.736 5.81913 15.736H9.90366C10.2954 15.736 10.6132 16.0566 10.6132 16.4483C10.6132 16.84 10.2954 17.1515 9.90366 17.1515ZM5.81914 19.7442H8.45768C8.84933 19.7442 9.16735 19.4279 9.16735 19.0369C9.16735 18.6458 8.84933 18.3237 8.45768 18.3237H5.81914C5.4275 18.3237 5.10947 18.6458 5.10947 19.0369C5.10947 19.4279 5.4275 19.7442 5.81914 19.7442ZM14.4292 4.79243C14.8435 5.20839 15.0765 5.76864 15.0765 6.35439V12.4284C15.0765 13.0141 14.8435 13.5787 14.4292 13.9904C14.0149 14.4063 13.453 14.6398 12.8668 14.6398H6.79327C6.2071 14.6398 5.64512 14.4063 5.23085 13.9904C4.81658 13.5787 4.58356 13.0141 4.58356 12.4284V6.35439C4.58356 5.76864 4.81658 5.20839 5.23085 4.79243C5.64512 4.37646 6.2071 4.14725 6.79327 4.14725H12.8668C13.453 4.14725 14.0149 4.37646 14.4292 4.79243ZM18.1013 5.57809V13.1453C18.1013 13.5371 18.4191 13.8576 18.8117 13.8576C19.2034 13.8576 19.5212 13.5371 19.5212 13.1453V5.57809C19.5212 5.18637 19.2034 4.86594 18.8117 4.86594C18.4191 4.86594 18.1013 5.18637 18.1013 5.57809ZM17.9624 19.7422H14.5349C14.1218 19.7422 13.7256 19.582 13.4327 19.2882C13.1407 18.9944 12.9769 18.6027 12.9769 18.1843V17.294C12.9769 16.8845 13.1407 16.4839 13.4327 16.1901C13.7256 15.9052 14.1218 15.736 14.5349 15.736H17.9624C18.3764 15.736 18.7725 15.9052 19.0645 16.1901C19.3574 16.4839 19.5212 16.8845 19.5212 17.294V18.1843C19.5212 18.6027 19.3574 18.9944 19.0645 19.2882C18.7725 19.582 18.3764 19.7422 17.9624 19.7422Z" fill="black"/>
</g>
<defs>
<clipPath id="clip0_221_20724">
<rect width="24" height="24" fill="white"/>
</clipPath>
</defs>
</svg>
