<svg width="24" height="24" viewBox="0 0 24 24" fill="none" xmlns="http://www.w3.org/2000/svg">
<path d="M12.75 23.2501V12.7501C12.75 12.3301 12.41 12.0001 12 12.0001C11.58 12.0001 11.25 12.3301 11.25 12.7501V23.2501C11.25 23.6601 11.58 24.0001 12 24.0001C12.41 24.0001 12.75 23.6601 12.75 23.2501Z" fill="black"/>
<path d="M7.71002 20.0201L11.46 23.7701C11.75 24.0601 12.22 24.0601 12.52 23.7701L16.27 20.0201C16.56 19.7201 16.56 19.2501 16.27 18.9501C15.97 18.6501 15.5 18.6501 15.2 18.9501L11.45 22.7001H12.51L8.76002 18.9501C8.46002 18.6501 7.99002 18.6501 7.69002 18.9501C7.39002 19.2401 7.39002 19.7101 7.69002 20.0101L7.71002 20.0201Z" fill="black"/>
<path d="M24 4.49809V2.24809C24 0.998095 22.99 -0.00190546 21.75 -0.00190546H2.25002C1.00002 -0.00990546 2.34375e-05 0.990095 2.34375e-05 2.24809L-0.000976562 6.74809C-0.000976562 7.98809 0.999023 8.99809 2.24902 8.99809L21.749 8.99709C22.989 8.99709 23.999 7.98709 23.999 6.74709V4.49009L24 4.49809Z" fill="black"/>
</svg>
