<svg width="24" height="24" viewBox="0 0 24 24" fill="none" xmlns="http://www.w3.org/2000/svg">
<g clip-path="url(#clip0_221_20407)">
<path d="M7.12132 14.1213C7.68393 13.5587 8 12.7956 8 12C8 11.2044 7.68393 10.4413 7.12132 9.87868C6.55871 9.31607 5.79565 9 5 9C4.20435 9 3.44129 9.31607 2.87868 9.87868C2.31607 10.4413 2 11.2044 2 12C2 12.7956 2.31607 13.5587 2.87868 14.1213C3.44129 14.6839 4.20435 15 5 15C5.79565 15 6.55871 14.6839 7.12132 14.1213Z" fill="black"/>
<path d="M14.1213 14.1213C14.6839 13.5587 15 12.7957 15 12C15 11.2043 14.6839 10.4413 14.1213 9.87868C13.5587 9.31607 12.7957 9 12 9C11.2043 9 10.4413 9.31607 9.87868 9.87868C9.31607 10.4413 9 11.2043 9 12C9 12.7957 9.31607 13.5587 9.87868 14.1213C10.4413 14.6839 11.2043 15 12 15C12.7957 15 13.5587 14.6839 14.1213 14.1213Z" fill="black"/>
<path d="M21.1213 14.1213C21.6839 13.5587 22 12.7957 22 12C22 11.2043 21.6839 10.4413 21.1213 9.87868C20.5587 9.31607 19.7957 9 19 9C18.2043 9 17.4413 9.31607 16.8787 9.87868C16.3161 10.4413 16 11.2043 16 12C16 12.7957 16.3161 13.5587 16.8787 14.1213C17.4413 14.6839 18.2043 15 19 15C19.7957 15 20.5587 14.6839 21.1213 14.1213Z" fill="black"/>
</g>
<defs>
<clipPath id="clip0_221_20407">
<rect width="24" height="24" fill="white"/>
</clipPath>
</defs>
</svg>
