<svg width="24" height="24" viewBox="0 0 24 24" fill="none" xmlns="http://www.w3.org/2000/svg">
<path fill-rule="evenodd" clip-rule="evenodd" d="M10.2358 2.85537H8.30686C8.15233 2.84457 7.09654 2.85534 6.23958 3.63341C5.66468 4.15212 5.14489 5.01663 5.14489 6.52954V8.61519L5.14597 8.66927C5.14597 8.66927 4.85526 10.3118 1.76136 11.2196C1.36476 11.3385 1.13674 11.7491 1.25345 12.1489C1.37016 12.5488 1.78732 12.7757 2.18391 12.6568C4.50839 11.976 5.58688 11.0034 6.10559 10.247C6.67509 9.40407 6.65671 8.72328 6.64374 8.57199L6.64483 6.52954C6.64483 5.61099 6.89444 5.0599 7.24349 4.74651C7.70061 4.33586 8.26903 4.34667 8.26903 4.34667H10.2358C10.6497 4.34667 10.9858 4.01167 10.9858 3.60102C10.9858 3.19038 10.6497 2.85537 10.2358 2.85537Z" fill="black"/>
<path fill-rule="evenodd" clip-rule="evenodd" d="M10.2358 19.5117H8.26903C8.26903 19.5117 7.70061 19.5225 7.24349 19.1119C6.89444 18.7985 6.64483 18.2474 6.64483 17.3289V15.2864C6.65671 15.1459 6.67942 14.4543 6.10559 13.6114C5.58688 12.855 4.50839 11.8824 2.18391 11.2016C1.78732 11.0827 1.37016 11.3096 1.25345 11.7095C1.13674 12.1093 1.36476 12.5199 1.76136 12.6388C4.85526 13.5466 5.14597 15.1891 5.14597 15.1891C5.14597 15.1891 5.14489 15.6539 5.14489 15.2432V17.3289C5.14489 18.8418 5.66468 19.7063 6.23958 20.225C7.09654 21.0031 8.15234 21.0138 8.31336 21.003C8.30687 21.003 10.2358 21.003 10.2358 21.003C10.6497 21.003 10.9858 20.668 10.9858 20.2574C10.9858 19.8467 10.6497 19.5117 10.2358 19.5117Z" fill="black"/>
<path fill-rule="evenodd" clip-rule="evenodd" d="M13.7128 4.35606H15.6524C15.6524 4.35606 16.2094 4.33481 16.6567 4.73954C16.9997 5.04841 17.2457 5.59157 17.2457 6.49688V8.20105C17.2457 8.61643 17.5802 8.95722 17.9913 8.95722C18.4035 8.95722 18.7379 8.61643 18.7379 8.20105V6.49688C18.7379 5.00577 18.2245 4.14306 17.6568 3.63182C16.8112 2.87561 15.7695 2.86499 15.6087 2.86499C15.614 2.86499 13.7128 2.86499 13.7128 2.86499C13.3007 2.86499 12.9662 3.19518 12.9662 3.61056C12.9662 4.02594 13.3007 4.35606 13.7128 4.35606Z" fill="black"/>
<path fill-rule="evenodd" clip-rule="evenodd" d="M22.7095 15.8533C22.7095 19.2782 19.9331 22.0546 16.5082 22.0546C13.0834 22.0546 10.307 19.2782 10.307 15.8533C10.307 12.4285 13.0834 9.6521 16.5082 9.6521C19.9331 9.6521 22.7095 12.4285 22.7095 15.8533ZM17.1148 12.8521L19.2161 14.8548C19.5192 15.144 19.5299 15.6239 19.2418 15.927C18.9526 16.2301 18.4727 16.2408 18.1696 15.9527L17.3277 15.15V18.7312C17.3277 19.15 16.9882 19.4895 16.5694 19.4895C16.1506 19.4895 15.811 19.15 15.811 18.7312V15.1053L14.8964 15.9452C14.5879 16.229 14.1081 16.2087 13.8253 15.9002C13.5415 15.5917 13.5618 15.1119 13.8703 14.8291L16.0423 12.8338C16.0759 12.8012 16.1125 12.7718 16.1517 12.7459C16.3436 12.6186 16.5802 12.5883 16.7933 12.6542C16.9169 12.6924 17.0271 12.7613 17.1148 12.8521Z" fill="black"/>
</svg>
