<svg width="24" height="24" viewBox="0 0 24 24" fill="none" xmlns="http://www.w3.org/2000/svg">
<path d="M6.75002 23.2501V12.7501C6.75002 12.3301 6.41002 12.0001 6.00002 12.0001C5.58002 12.0001 5.25002 12.3301 5.25002 12.7501V23.2501C5.25002 23.6601 5.58002 24.0001 6.00002 24.0001C6.41002 24.0001 6.75002 23.6601 6.75002 23.2501Z" fill="black"/>
<path d="M1.71002 20.0201L5.46002 23.7701C5.75002 24.0601 6.22002 24.0601 6.52002 23.7701L10.27 20.0201C10.56 19.7201 10.56 19.2501 10.27 18.9501C9.97002 18.6501 9.50002 18.6501 9.20002 18.9501L5.45002 22.7001H6.51002L2.76002 18.9501C2.46002 18.6501 1.99002 18.6501 1.69002 18.9501C1.39002 19.2401 1.39002 19.7101 1.69002 20.0101L1.71002 20.0201Z" fill="black"/>
<path d="M24 4.49809V2.24809C24 0.998095 22.99 -0.00190546 21.75 -0.00190546H2.25002C1.00002 -0.00990546 2.34375e-05 0.990095 2.34375e-05 2.24809L-0.000976562 6.74809C-0.000976562 7.98809 0.999023 8.99809 2.24902 8.99809L21.749 8.99709C22.989 8.99709 23.999 7.98709 23.999 6.74709V4.49009L24 4.49809Z" fill="black"/>
<path d="M18.75 23.2501V12.7501C18.75 12.3301 18.41 12.0001 18 12.0001C17.58 12.0001 17.25 12.3301 17.25 12.7501V23.2501C17.25 23.6601 17.58 24.0001 18 24.0001C18.41 24.0001 18.75 23.6601 18.75 23.2501Z" fill="black"/>
<path d="M13.71 20.0201L17.46 23.7701C17.75 24.0601 18.22 24.0601 18.52 23.7701L22.27 20.0201C22.56 19.7201 22.56 19.2501 22.27 18.9501C21.97 18.6501 21.5 18.6501 21.2 18.9501L17.45 22.7001H18.51L14.76 18.9501C14.46 18.6501 13.99 18.6501 13.69 18.9501C13.39 19.2401 13.39 19.7101 13.69 20.0101L13.71 20.0201Z" fill="black"/>
</svg>
