<svg width="24" height="24" viewBox="0 0 24 24" fill="none" xmlns="http://www.w3.org/2000/svg">
<g clip-path="url(#clip0_221_20540)">
<path fill-rule="evenodd" clip-rule="evenodd" d="M3.464 3.464C2 4.929 2 7.286 2 12C2 16.714 2 19.072 3.464 20.535C4.929 22 7.286 22 12 22C16.714 22 19.072 22 20.535 20.535C22 19.071 22 16.714 22 12C22 7.286 22 4.93 20.535 3.464C19.071 2 16.714 2 12 2C7.286 2 4.93 2 3.464 3.464ZM9.89936 7.80723C10.0994 7.80723 10.2913 7.72775 10.4328 7.58627L11.2792 6.73985V9.89791C11.2757 9.99916 11.2925 10.1001 11.3288 10.1947C11.3651 10.2893 11.42 10.3756 11.4904 10.4485C11.5608 10.5214 11.6451 10.5794 11.7383 10.6189C11.8316 10.6585 11.9319 10.6789 12.0332 10.6789C12.1345 10.6789 12.2348 10.6585 12.328 10.6189C12.4213 10.5794 12.5056 10.5214 12.576 10.4485C12.6463 10.3756 12.7013 10.2893 12.7376 10.1947C12.7739 10.1001 12.7907 9.99916 12.7871 9.89791V6.73985L13.6336 7.58627C13.775 7.72775 13.9669 7.80723 14.167 7.80723C14.3671 7.80723 14.559 7.72775 14.7005 7.58627C14.8419 7.44478 14.9214 7.25289 14.9214 7.05281C14.9214 6.85272 14.8419 6.66083 14.7005 6.51935L12.5666 4.38553C12.4252 4.24404 12.2333 4.16456 12.0332 4.16456C11.8331 4.16456 11.6412 4.24404 11.4997 4.38553L9.3659 6.51935C9.22442 6.66083 9.14494 6.85272 9.14494 7.05281C9.14494 7.25289 9.22442 7.44478 9.3659 7.58627C9.50738 7.72775 9.69927 7.80723 9.89936 7.80723ZM12.5662 13.6326C12.4248 13.4912 12.2331 13.4117 12.0332 13.4116C11.8333 13.4117 11.6416 13.4912 11.5002 13.6326C11.3588 13.7739 11.2794 13.9656 11.2792 14.1656V17.3236L10.4328 16.4772C10.2913 16.3357 10.0994 16.2562 9.89936 16.2562C9.69927 16.2562 9.50738 16.3357 9.3659 16.4772C9.22442 16.6187 9.14494 16.8106 9.14494 17.0107C9.14494 17.2108 9.22442 17.4026 9.3659 17.5441L11.4997 19.6779C11.6412 19.8194 11.8331 19.8989 12.0332 19.8989C12.2333 19.8989 12.4252 19.8194 12.5666 19.6779L14.7005 17.5441C14.8419 17.4026 14.9214 17.2108 14.9214 17.0107C14.9214 16.8106 14.8419 16.6187 14.7005 16.4772C14.559 16.3357 14.3671 16.2562 14.167 16.2562C13.9669 16.2562 13.775 16.3357 13.6336 16.4772L12.7871 17.3236V14.1656C12.787 13.9656 12.7075 13.7739 12.5662 13.6326ZM7.80868 9.89791C7.80868 10.098 7.72919 10.2899 7.58771 10.4314L6.74129 11.2778H9.89936C10.0006 11.2742 10.1015 11.2911 10.1961 11.3273C10.2907 11.3636 10.377 11.4186 10.4499 11.489C10.5228 11.5593 10.5808 11.6436 10.6204 11.7369C10.66 11.8302 10.6804 11.9304 10.6804 12.0317C10.6804 12.1331 10.66 12.2333 10.6204 12.3266C10.5808 12.4198 10.5228 12.5042 10.4499 12.5745C10.377 12.6449 10.2907 12.6998 10.1961 12.7361C10.1015 12.7724 10.0006 12.7893 9.89936 12.7857H6.74129L7.58771 13.6321C7.72919 13.7736 7.80868 13.9655 7.80868 14.1656C7.80868 14.3656 7.72919 14.5575 7.58771 14.699C7.44623 14.8405 7.25434 14.92 7.05426 14.92C6.85417 14.92 6.66228 14.8405 6.5208 14.699L4.38697 12.5652C4.24549 12.4237 4.16601 12.2318 4.16601 12.0317C4.16601 11.8317 4.24549 11.6398 4.38697 11.4983L6.5208 9.36446C6.66228 9.22297 6.85417 9.14349 7.05426 9.14349C7.25434 9.14349 7.44623 9.22297 7.58771 9.36446C7.72919 9.50594 7.80868 9.69783 7.80868 9.89791ZM13.634 12.5647C13.4927 12.4234 13.4132 12.2317 13.4131 12.0317C13.4132 11.8318 13.4927 11.6401 13.634 11.4988C13.7754 11.3574 13.9671 11.2779 14.167 11.2778H17.3251L16.4787 10.4314C16.3372 10.2899 16.2577 10.098 16.2577 9.89791C16.2577 9.69783 16.3372 9.50594 16.4787 9.36446C16.6201 9.22297 16.812 9.14349 17.0121 9.14349C17.2122 9.14349 17.4041 9.22297 17.5456 9.36446L19.6794 11.4983C19.8209 11.6398 19.9004 11.8317 19.9004 12.0317C19.9004 12.2318 19.8209 12.4237 19.6794 12.5652L17.5456 14.699C17.4041 14.8405 17.2122 14.92 17.0121 14.92C16.812 14.92 16.6201 14.8405 16.4787 14.699C16.3372 14.5575 16.2577 14.3656 16.2577 14.1656C16.2577 13.9655 16.3372 13.7736 16.4787 13.6321L17.3251 12.7857H14.167C13.9671 12.7856 13.7754 12.7061 13.634 12.5647Z" fill="black"/>
</g>
<defs>
<clipPath id="clip0_221_20540">
<rect width="24" height="24" fill="white"/>
</clipPath>
</defs>
</svg>
