<svg width="24" height="24" viewBox="0 0 24 24" fill="none" xmlns="http://www.w3.org/2000/svg">
<g clip-path="url(#clip0_221_21215)">
<path fill-rule="evenodd" clip-rule="evenodd" d="M11.9999 22C6.47688 22 1.99988 17.523 1.99988 12C1.99988 6.477 6.47688 2 11.9999 2C17.5229 2 21.9999 6.477 21.9999 12C21.9999 17.523 17.5229 22 11.9999 22ZM10.9999 8C10.9999 8.26522 11.1052 8.51957 11.2928 8.70711C11.4803 8.89464 11.7347 9 11.9999 9C12.2651 9 12.5194 8.89464 12.707 8.70711C12.8945 8.51957 12.9999 8.26522 12.9999 8C12.9999 7.73478 12.8945 7.48043 12.707 7.29289C12.5194 7.10536 12.2651 7 11.9999 7C11.7347 7 11.4803 7.10536 11.2928 7.29289C11.1052 7.48043 10.9999 7.73478 10.9999 8ZM10.9999 12C10.9999 12.2652 11.1052 12.5196 11.2928 12.7071C11.4803 12.8946 11.7347 13 11.9999 13C12.2651 13 12.5194 12.8946 12.707 12.7071C12.8945 12.5196 12.9999 12.2652 12.9999 12C12.9999 11.7348 12.8945 11.4804 12.707 11.2929C12.5194 11.1054 12.2651 11 11.9999 11C11.7347 11 11.4803 11.1054 11.2928 11.2929C11.1052 11.4804 10.9999 11.7348 10.9999 12ZM10.9999 16C10.9999 16.2652 11.1052 16.5196 11.2928 16.7071C11.4803 16.8946 11.7347 17 11.9999 17C12.2651 17 12.5194 16.8946 12.707 16.7071C12.8945 16.5196 12.9999 16.2652 12.9999 16C12.9999 15.7348 12.8945 15.4804 12.707 15.2929C12.5194 15.1054 12.2651 15 11.9999 15C11.7347 15 11.4803 15.1054 11.2928 15.2929C11.1052 15.4804 10.9999 15.7348 10.9999 16Z" fill="black"/>
</g>
<defs>
<clipPath id="clip0_221_21215">
<rect width="24" height="24" fill="white"/>
</clipPath>
</defs>
</svg>
