<svg width="24" height="25" viewBox="0 0 24 25" fill="none" xmlns="http://www.w3.org/2000/svg">
<path d="M5.25002 1.74998V12.25C5.25002 12.66 5.58002 13 6.00002 13C6.41002 13 6.75002 12.66 6.75002 12.25V1.74998C6.75002 1.32998 6.41002 0.999979 6.00002 0.999979C5.58002 0.999979 5.25002 1.32998 5.25002 1.74998Z" fill="black"/>
<path d="M2.78002 6.01998L6.53002 2.26998H5.46002L9.21002 6.01998C9.50002 6.30998 9.97002 6.30998 10.27 6.01998C10.56 5.71998 10.56 5.24998 10.27 4.94998L6.52002 1.19998C6.22002 0.899979 5.75002 0.899979 5.45002 1.19898L1.70002 4.93998C1.40002 5.22998 1.40002 5.69998 1.70002 5.99998C1.99002 6.28998 2.46002 6.28998 2.76002 5.99998L2.78002 6.01998Z" fill="black"/>
<path d="M24 20.49V18.24C24 16.99 22.99 15.99 21.75 15.99H2.25002C1.00002 15.99 2.34375e-05 16.99 2.34375e-05 18.24L-0.000976562 22.74C-0.000976562 23.98 0.999023 24.99 2.24902 24.99L21.749 24.989C22.989 24.989 23.999 23.979 23.999 22.739V20.489L24 20.49Z" fill="black"/>
<path d="M17.25 1.74998V12.25C17.25 12.66 17.58 13 18 13C18.41 13 18.75 12.66 18.75 12.25V1.74998C18.75 1.32998 18.41 0.999979 18 0.999979C17.58 0.999979 17.25 1.32998 17.25 1.74998Z" fill="black"/>
<path d="M14.78 6.01998L18.53 2.26998H17.46L21.21 6.01998C21.5 6.30998 21.97 6.30998 22.27 6.01998C22.56 5.71998 22.56 5.24998 22.27 4.94998L18.52 1.19998C18.22 0.899979 17.75 0.899979 17.45 1.19898L13.7 4.93998C13.4 5.22998 13.4 5.69998 13.7 5.99998C13.99 6.28998 14.46 6.28998 14.76 5.99998L14.78 6.01998Z" fill="black"/>
</svg>
