<svg width="24" height="24" viewBox="0 0 24 24" fill="none" xmlns="http://www.w3.org/2000/svg">
<path fill-rule="evenodd" clip-rule="evenodd" d="M10.2358 2.85537H8.30686C8.15233 2.84457 7.09654 2.85534 6.23958 3.63341C5.66468 4.15212 5.14489 5.01663 5.14489 6.52954V8.61519L5.14597 8.66927C5.14597 8.66927 4.85526 10.3118 1.76136 11.2196C1.36476 11.3385 1.13674 11.7491 1.25345 12.1489C1.37016 12.5488 1.78732 12.7757 2.18391 12.6568C4.50839 11.976 5.58688 11.0034 6.10559 10.247C6.67509 9.40407 6.65671 8.72328 6.64374 8.57199L6.64483 6.52954C6.64483 5.61099 6.89444 5.0599 7.24349 4.74651C7.70061 4.33586 8.26903 4.34667 8.26903 4.34667H10.2358C10.6497 4.34667 10.9858 4.01167 10.9858 3.60102C10.9858 3.19038 10.6497 2.85537 10.2358 2.85537Z" fill="black"/>
<path fill-rule="evenodd" clip-rule="evenodd" d="M10.2358 19.5117H8.26903C8.26903 19.5117 7.70061 19.5225 7.24349 19.1119C6.89444 18.7985 6.64483 18.2474 6.64483 17.3289V15.2864C6.65671 15.1459 6.67942 14.4543 6.10559 13.6114C5.58688 12.855 4.50839 11.8824 2.18391 11.2016C1.78732 11.0827 1.37016 11.3096 1.25345 11.7095C1.13674 12.1093 1.36476 12.5199 1.76136 12.6388C4.85526 13.5466 5.14597 15.1891 5.14597 15.1891C5.14597 15.1891 5.14489 15.6539 5.14489 15.2432V17.3289C5.14489 18.8418 5.66468 19.7063 6.23958 20.225C7.09654 21.0031 8.15234 21.0138 8.31336 21.003C8.30687 21.003 10.2358 21.003 10.2358 21.003C10.6497 21.003 10.9858 20.668 10.9858 20.2574C10.9858 19.8467 10.6497 19.5117 10.2358 19.5117Z" fill="black"/>
<path fill-rule="evenodd" clip-rule="evenodd" d="M18.8021 8.67904C18.8042 8.65743 18.8042 8.64657 18.8042 8.62495V6.53931C18.8042 5.0264 18.2844 4.16189 17.7095 3.64317C16.8526 2.86511 15.7968 2.85433 15.6357 2.86514C15.6422 2.86514 13.7133 2.86514 13.7133 2.86514C13.2994 2.86514 12.9633 3.20014 12.9633 3.61079C12.9633 4.02144 13.2994 4.35644 13.7133 4.35644H15.6801C15.6801 4.35644 16.2485 4.34563 16.7056 4.75627C17.0547 5.06966 17.3043 5.62076 17.3043 6.53931V8.58175C17.2924 8.72224 17.2697 9.41384 17.8435 10.2567C18.3622 11.0132 19.4407 11.9858 21.7652 12.6666C22.1618 12.7854 22.5789 12.5585 22.6956 12.1587C22.8124 11.7589 22.5843 11.3482 22.1877 11.2294C19.0938 10.3216 18.8021 8.67904 18.8021 8.67904Z" fill="black"/>
<path fill-rule="evenodd" clip-rule="evenodd" d="M18.7999 15.2643L18.8031 15.1994C18.8042 14.9076 19.0938 13.5568 22.1877 12.6491C22.5843 12.5302 22.8124 12.1196 22.6956 11.7197C22.5789 11.3199 22.1618 11.093 21.7652 11.2118C19.4407 11.8927 18.3622 12.8652 17.8435 13.6217C17.274 14.4646 17.2924 15.1454 17.3054 15.2967L17.3043 17.3391C17.3043 18.2577 17.0547 18.8088 16.7056 19.1221C16.2485 19.5328 15.6801 19.522 15.6801 19.522H13.7133C13.2994 19.522 12.9633 19.857 12.9633 20.2676C12.9633 20.6783 13.2994 21.0133 13.7133 21.0133H15.6422C15.7968 21.0241 16.8526 21.0133 17.7095 20.2352C18.2844 19.7165 18.8042 18.852 18.8042 17.3391V15.2535L18.7999 15.2643Z" fill="black"/>
</svg>
