<svg width="24" height="24" viewBox="0 0 24 24" fill="none" xmlns="http://www.w3.org/2000/svg">
<g clip-path="url(#clip0_221_20914)">
<path d="M13.9445 3.05546C13.4288 2.53973 12.7293 2.25 12 2.25C11.2707 2.25 10.5712 2.53973 10.0555 3.05546C9.53973 3.57118 9.25 4.27065 9.25 5C9.25 5.72935 9.53973 6.42882 10.0555 6.94454C10.5712 7.46027 11.2707 7.75 12 7.75C12.7293 7.75 13.4288 7.46027 13.9445 6.94454C14.4603 6.42882 14.75 5.72935 14.75 5C14.75 4.27065 14.4603 3.57118 13.9445 3.05546Z" fill="black"/>
<path d="M13.9445 10.0555C13.4288 9.53973 12.7293 9.25 12 9.25C11.2707 9.25 10.5712 9.53973 10.0555 10.0555C9.53973 10.5712 9.25 11.2707 9.25 12C9.25 12.7293 9.53973 13.4288 10.0555 13.9445C10.5712 14.4603 11.2707 14.75 12 14.75C12.7293 14.75 13.4288 14.4603 13.9445 13.9445C14.4603 13.4288 14.75 12.7293 14.75 12C14.75 11.2707 14.4603 10.5712 13.9445 10.0555Z" fill="black"/>
<path d="M13.9445 17.0555C14.4603 17.5712 14.75 18.2707 14.75 19C14.75 19.7293 14.4603 20.4288 13.9445 20.9445C13.4288 21.4603 12.7293 21.75 12 21.75C11.2707 21.75 10.5712 21.4603 10.0555 20.9445C9.53973 20.4288 9.25 19.7293 9.25 19C9.25 18.2707 9.53973 17.5712 10.0555 17.0555C10.5712 16.5397 11.2707 16.25 12 16.25C12.7293 16.25 13.4288 16.5397 13.9445 17.0555Z" fill="black"/>
</g>
<defs>
<clipPath id="clip0_221_20914">
<rect width="24" height="24" fill="white"/>
</clipPath>
</defs>
</svg>
