<svg width="24" height="25" viewBox="0 0 24 25" fill="none" xmlns="http://www.w3.org/2000/svg">
<path d="M11.25 1.74998V12.25C11.25 12.66 11.58 13 12 13C12.41 13 12.75 12.66 12.75 12.25V1.74998C12.75 1.32998 12.41 0.999979 12 0.999979C11.58 0.999979 11.25 1.32998 11.25 1.74998Z" fill="black"/>
<path d="M8.78002 6.01998L12.53 2.26998H11.46L15.21 6.01998C15.5 6.30998 15.97 6.30998 16.27 6.01998C16.56 5.71998 16.56 5.24998 16.27 4.94998L12.52 1.19998C12.22 0.899979 11.75 0.899979 11.45 1.19898L7.70002 4.93998C7.40002 5.22998 7.40002 5.69998 7.70002 5.99998C7.99002 6.28998 8.46002 6.28998 8.76002 5.99998L8.78002 6.01998Z" fill="black"/>
<path d="M24 20.49V18.24C24 16.99 22.99 15.99 21.75 15.99H2.25002C1.00002 15.99 2.34375e-05 16.99 2.34375e-05 18.24L-0.000976562 22.74C-0.000976562 23.98 0.999023 24.99 2.24902 24.99L21.749 24.989C22.989 24.989 23.999 23.979 23.999 22.739V20.489L24 20.49Z" fill="black"/>
</svg>
