<svg width="24" height="24" viewBox="0 0 24 24" fill="none" xmlns="http://www.w3.org/2000/svg">
<g clip-path="url(#clip0_221_20849)">
<path fill-rule="evenodd" clip-rule="evenodd" d="M22 12C22 17.523 17.523 22 12 22C6.477 22 2 17.523 2 12C2 6.477 6.477 2 12 2C17.523 2 22 6.477 22 12ZM13.1728 13.059L8.45283 15.846C7.69283 16.294 6.75883 15.71 6.75883 14.787V9.214C6.75883 8.29 7.69283 7.706 8.45283 8.154L13.1728 10.941C13.9538 11.403 13.9538 12.597 13.1728 13.059ZM15.1978 16.5794C15.3385 16.7201 15.5292 16.7991 15.7282 16.7991C15.9271 16.7991 16.1178 16.7201 16.2585 16.5794C16.3991 16.4387 16.4782 16.248 16.4782 16.0491L16.4782 8.04907C16.4782 7.85016 16.3991 7.65939 16.2585 7.51874C16.1178 7.37809 15.9271 7.29907 15.7282 7.29907C15.5292 7.29907 15.3385 7.37809 15.1978 7.51874C15.0572 7.65939 14.9782 7.85016 14.9782 8.04907L14.9782 16.0491C14.9782 16.248 15.0572 16.4387 15.1978 16.5794Z" fill="black"/>
</g>
<defs>
<clipPath id="clip0_221_20849">
<rect width="24" height="24" fill="white"/>
</clipPath>
</defs>
</svg>
