<svg width="24" height="24" viewBox="0 0 24 24" fill="none" xmlns="http://www.w3.org/2000/svg">
<g clip-path="url(#clip0_221_20859)">
<path d="M15.91 9.35282C17.697 10.5068 17.697 13.4928 15.91 14.6468L5.12 21.6148C3.384 22.7358 1.25 21.2758 1.25 18.9668L1.25 5.03282C1.25 2.72282 3.384 1.26382 5.12 2.38482L15.91 9.35282ZM22 18.9998C22 19.1987 21.921 19.3895 21.7803 19.5301C21.6397 19.6708 21.4489 19.7498 21.25 19.7498C21.0511 19.7498 20.8603 19.6708 20.7197 19.5301C20.579 19.3895 20.5 19.1987 20.5 18.9998L20.5 4.99982C20.5 4.80091 20.579 4.61014 20.7197 4.46949C20.8603 4.32884 21.0511 4.24982 21.25 4.24982C21.4489 4.24982 21.6397 4.32884 21.7803 4.46949C21.921 4.61014 22 4.80091 22 4.99982L22 18.9998Z" fill="black"/>
</g>
<defs>
<clipPath id="clip0_221_20859">
<rect width="24" height="24" fill="white"/>
</clipPath>
</defs>
</svg>
