<svg width="24" height="24" viewBox="0 0 24 24" fill="none" xmlns="http://www.w3.org/2000/svg">
<g clip-path="url(#clip0_221_20275)">
<path d="M2 18C2 16.114 2 15.172 2.586 14.586C3.172 14 4.114 14 6 14C7.886 14 8.828 14 9.414 14.586C10 15.172 10 16.114 10 18C10 19.886 10 20.828 9.414 21.414C8.828 22 7.886 22 6 22C4.114 22 3.172 22 2.586 21.414C2 20.828 2 19.886 2 18Z" fill="black"/>
<path fill-rule="evenodd" clip-rule="evenodd" d="M3.464 3.464C2 4.93 2 7.286 2 12V13.138C2.509 12.805 3.069 12.658 3.606 12.587C4.251 12.5 5.045 12.5 5.911 12.5H6.09C6.955 12.5 7.749 12.5 8.394 12.587C9.105 12.682 9.857 12.907 10.474 13.525C11.093 14.143 11.318 14.895 11.414 15.605C11.5 16.251 11.5 17.045 11.5 17.91V18.09C11.5 18.955 11.5 19.749 11.413 20.394C11.341 20.931 11.195 21.491 10.863 21.999L12 22C16.714 22 19.071 22 20.535 20.535C22 19.072 22 16.714 22 12C22 7.286 22 4.929 20.535 3.464C19.072 2 16.714 2 12 2C7.286 2 4.929 2 3.464 3.464ZM13.25 6.25C13.0511 6.25 12.8603 6.32902 12.7197 6.46967C12.579 6.61032 12.5 6.80109 12.5 7C12.5 7.19891 12.579 7.38968 12.7197 7.53033C12.8603 7.67098 13.0511 7.75 13.25 7.75H15.19L11.47 11.47C11.3963 11.5387 11.3372 11.6215 11.2962 11.7135C11.2552 11.8055 11.2332 11.9048 11.2314 12.0055C11.2296 12.1062 11.2482 12.2062 11.2859 12.2996C11.3236 12.393 11.3797 12.4778 11.451 12.549C11.5222 12.6203 11.607 12.6764 11.7004 12.7141C11.7938 12.7518 11.8938 12.7704 11.9945 12.7686C12.0952 12.7668 12.1945 12.7448 12.2865 12.7038C12.3785 12.6628 12.4613 12.6037 12.53 12.53L16.25 8.81V10.75C16.25 10.9489 16.329 11.1397 16.4697 11.2803C16.6103 11.421 16.8011 11.5 17 11.5C17.1989 11.5 17.3897 11.421 17.5303 11.2803C17.671 11.1397 17.75 10.9489 17.75 10.75V7C17.75 6.80109 17.671 6.61032 17.5303 6.46967C17.3897 6.32902 17.1989 6.25 17 6.25H13.25Z" fill="black"/>
</g>
<defs>
<clipPath id="clip0_221_20275">
<rect width="24" height="24" fill="white"/>
</clipPath>
</defs>
</svg>
