<svg width="24" height="24" viewBox="0 0 24 24" fill="none" xmlns="http://www.w3.org/2000/svg">
<path d="M11.9513 1.97754C12.1848 1.97754 12.4059 2.03091 12.603 2.12613C13.1312 2.35828 13.5 2.88607 13.5 3.5V10.25C13.5 10.3282 13.5359 10.398 13.5921 10.4438H20.4176C20.7483 10.4438 21.0541 10.5509 21.302 10.7322C21.7215 10.9981 22 11.4665 22 12C22 12.8284 21.3284 13.5 20.5 13.5H13.75C13.6119 13.5 13.5 13.6119 13.5 13.75V20.5C13.5 21.3284 12.8284 22 12 22C11.4118 22 10.9027 21.6614 10.6568 21.1685C10.5262 20.946 10.4513 20.6868 10.4513 20.4102V13.6017C10.4058 13.54 10.3326 13.5 10.25 13.5H3.5C2.79579 13.5 2.20492 13.0147 2.04356 12.3603C2.00542 12.2281 1.98499 12.0884 1.98499 11.9438C1.98499 11.1154 2.65656 10.4438 3.48499 10.4438H10.4079C10.4242 10.4305 10.4388 10.4152 10.4513 10.3983V3.47754C10.4513 2.64911 11.1229 1.97754 11.9513 1.97754Z" fill="black"/>
</svg>
