<svg width="24" height="24" viewBox="0 0 24 24" fill="none" xmlns="http://www.w3.org/2000/svg">
<path d="M3 3.25C3.19891 3.25 3.38962 3.32907 3.53027 3.46973C3.67093 3.61038 3.75 3.80109 3.75 4V20C3.75 20.1989 3.67093 20.3896 3.53027 20.5303C3.38962 20.6709 3.19891 20.75 3 20.75C2.80109 20.75 2.61038 20.6709 2.46973 20.5303C2.32907 20.3896 2.25 20.1989 2.25 20V4C2.25 3.80109 2.32907 3.61038 2.46973 3.46973C2.61038 3.32907 2.80109 3.25 3 3.25Z" fill="black"/>
<path d="M11.9092 7.25098C12.1078 7.2599 12.2945 7.34749 12.4287 7.49414C12.563 7.64094 12.6338 7.83539 12.625 8.03418C12.6246 8.04308 12.6208 8.0517 12.6201 8.06055L12.6133 11.251H20.5C20.6989 11.251 20.8896 11.3301 21.0303 11.4707C21.1709 11.6114 21.25 11.8021 21.25 12.001C21.25 12.1999 21.1709 12.3906 21.0303 12.5312C20.8896 12.6719 20.6989 12.751 20.5 12.751H12.6094L12.6016 15.9883L12.5977 15.9844C12.5958 16.1688 12.5281 16.3468 12.4033 16.4834C12.2732 16.6258 12.0928 16.7125 11.9004 16.7256C11.7078 16.7386 11.5174 16.6764 11.3691 16.5527L6.99414 12.5527C6.91731 12.4825 6.85546 12.397 6.81348 12.3018C6.77156 12.2065 6.75 12.1031 6.75 11.999C6.75006 11.8951 6.77163 11.7923 6.81348 11.6973C6.85546 11.602 6.91732 11.5165 6.99414 11.4463L11.3691 7.44727C11.5159 7.31293 11.7104 7.24216 11.9092 7.25098Z" fill="black"/>
</svg>
