<svg width="24" height="24" viewBox="0 0 24 24" fill="none" xmlns="http://www.w3.org/2000/svg">
<g clip-path="url(#clip0_221_20670)">
<path fill-rule="evenodd" clip-rule="evenodd" d="M7.90695 4.25595C7.77571 3.74278 7.51098 3.27349 7.13965 2.89575C6.76832 2.51801 6.30363 2.24528 5.79278 2.10527C5.28193 1.96526 4.74312 1.96295 4.23109 2.09859C3.71906 2.23422 3.25205 2.50296 2.87751 2.87751C2.50296 3.25205 2.23422 3.71906 2.09859 4.23109C1.96295 4.74312 1.96526 5.28193 2.10527 5.79278C2.24528 6.30363 2.51801 6.76832 2.89575 7.13965C3.27349 7.51098 3.74278 7.77571 4.25595 7.90695C4.25251 7.93784 4.25051 7.96888 4.24995 7.99995V16C4.24995 16.032 4.25196 16.063 4.25595 16.093C3.74278 16.2242 3.27349 16.4889 2.89575 16.8603C2.51801 17.2316 2.24528 17.6963 2.10527 18.2071C1.96526 18.718 1.96295 19.2568 2.09859 19.7688C2.23422 20.2808 2.50296 20.7479 2.87751 21.1224C3.25205 21.497 3.71906 21.7657 4.23109 21.9013C4.74312 22.037 5.28193 22.0346 5.79278 21.8946C6.30363 21.7546 6.76832 21.4819 7.13965 21.1042C7.51098 20.7264 7.77571 20.2571 7.90695 19.744C7.93695 19.748 7.96795 19.75 7.99995 19.75H16C16.031 19.7494 16.0621 19.7474 16.093 19.744C16.2242 20.2571 16.4889 20.7264 16.8603 21.1042C17.2316 21.4819 17.6963 21.7546 18.2071 21.8946C18.718 22.0346 19.2568 22.037 19.7688 21.9013C20.2808 21.7657 20.7479 21.497 21.1224 21.1224C21.497 20.7479 21.7657 20.2808 21.9013 19.7688C22.037 19.2568 22.0346 18.718 21.8946 18.2071C21.7546 17.6963 21.4819 17.2316 21.1042 16.8603C20.7264 16.4889 20.2571 16.2242 19.744 16.093C19.7474 16.0621 19.7494 16.031 19.75 16V7.99995C19.7494 7.96888 19.7474 7.93784 19.744 7.90695C20.2571 7.77571 20.7264 7.51098 21.1042 7.13965C21.4819 6.76832 21.7546 6.30363 21.8946 5.79278C22.0346 5.28193 22.037 4.74312 21.9013 4.23109C21.7657 3.71906 21.497 3.25205 21.1224 2.87751C20.7479 2.50296 20.2808 2.23422 19.7688 2.09859C19.2568 1.96295 18.718 1.96526 18.2071 2.10527C17.6963 2.24528 17.2316 2.51801 16.8603 2.89575C16.4889 3.27349 16.2242 3.74278 16.093 4.25595C16.0621 4.25251 16.031 4.25051 16 4.24995H7.99995C7.96888 4.25051 7.93784 4.25251 7.90695 4.25595ZM5.74395 7.90695C5.74795 7.93695 5.74995 7.96795 5.74995 7.99995V16C5.7494 16.031 5.7474 16.0621 5.74395 16.093C6.26536 16.2263 6.74129 16.4975 7.12185 16.8781C7.50241 17.2586 7.77359 17.7345 7.90695 18.256C7.93784 18.2525 7.96888 18.2505 7.99995 18.25H16C16.031 18.2505 16.0621 18.2525 16.093 18.256C16.2263 17.7345 16.4975 17.2586 16.8781 16.8781C17.2586 16.4975 17.7345 16.2263 18.256 16.093C18.2525 16.0621 18.2505 16.031 18.25 16V7.99995C18.25 7.96795 18.252 7.93695 18.256 7.90695C17.7345 7.77359 17.2586 7.50241 16.8781 7.12185C16.4975 6.74129 16.2263 6.26536 16.093 5.74395C16.0621 5.7474 16.031 5.7494 16 5.74995H7.99995C7.96888 5.7494 7.93784 5.7474 7.90695 5.74395C7.77359 6.26536 7.50241 6.74129 7.12185 7.12185C6.74129 7.50241 6.26536 7.77359 5.74395 7.90695Z" fill="black"/>
</g>
<defs>
<clipPath id="clip0_221_20670">
<rect width="24" height="24" fill="white"/>
</clipPath>
</defs>
</svg>
