<svg width="24" height="24" viewBox="0 0 24 24" fill="none" xmlns="http://www.w3.org/2000/svg">
<g clip-path="url(#clip0_221_20623)">
<path d="M12.75 2C12.75 1.58579 12.4142 1.25 12 1.25C11.5858 1.25 11.25 1.58579 11.25 2V6.75C11.25 6.94891 11.329 7.13968 11.4697 7.28033C11.6103 7.42098 11.8011 7.5 12 7.5C12.1989 7.5 12.3897 7.42098 12.5303 7.28033C12.671 7.13968 12.75 6.94891 12.75 6.75V2Z" fill="black"/>
<path d="M8.792 5.14697C8.88274 5.10863 8.96505 5.05278 9.03421 4.98263C9.10337 4.91248 9.15804 4.82939 9.19509 4.73811C9.23214 4.64683 9.25085 4.54915 9.25014 4.45064C9.24944 4.35213 9.22935 4.25472 9.191 4.16397C9.15265 4.07323 9.09681 3.99093 9.02666 3.92177C8.9565 3.85261 8.87342 3.79794 8.78214 3.76089C8.69086 3.72384 8.59317 3.70513 8.49466 3.70583C8.39615 3.70653 8.29874 3.72663 8.208 3.76497C6.44139 4.51077 4.93392 5.76094 3.87418 7.35908C2.81444 8.95723 2.24949 10.8324 2.25 12.75C2.25 18.135 6.615 22.5 12 22.5C17.385 22.5 21.75 18.135 21.75 12.75C21.7505 10.8324 21.1856 8.95723 20.1258 7.35908C19.0661 5.76094 17.5586 4.51077 15.792 3.76497C15.7013 3.72663 15.6038 3.70653 15.5053 3.70583C15.4068 3.70513 15.3091 3.72384 15.2179 3.76089C15.1266 3.79794 15.0435 3.85261 14.9733 3.92177C14.9032 3.99093 14.8473 4.07323 14.809 4.16397C14.7707 4.25472 14.7506 4.35213 14.7499 4.45064C14.7492 4.54915 14.7679 4.64683 14.8049 4.73811C14.842 4.82939 14.8966 4.91248 14.9658 4.98263C15.035 5.05278 15.1173 5.10863 15.208 5.14697C16.9605 5.88888 18.4027 7.21364 19.2905 8.89694C20.1783 10.5802 20.4571 12.5186 20.0796 14.3839C19.7022 16.2491 18.6917 17.9266 17.2193 19.1323C15.7469 20.338 13.9031 20.9978 12 21C10.0951 21.0012 8.24845 20.3432 6.77354 19.1377C5.29863 17.9321 4.28635 16.2533 3.90853 14.3863C3.53072 12.5192 3.81064 10.5789 4.7008 8.89479C5.59095 7.21066 7.03648 5.88646 8.792 5.14697Z" fill="black"/>
</g>
<defs>
<clipPath id="clip0_221_20623">
<rect width="24" height="24" fill="white"/>
</clipPath>
</defs>
</svg>
