<svg width="24" height="24" viewBox="0 0 24 24" fill="none" xmlns="http://www.w3.org/2000/svg">
<g clip-path="url(#clip0_221_20555)">
<path fill-rule="evenodd" clip-rule="evenodd" d="M14.2499 3C14.2499 2.80109 14.3289 2.61032 14.4696 2.46967C14.6102 2.32902 14.801 2.25 14.9999 2.25H20.9999C21.1988 2.25 21.3896 2.32902 21.5302 2.46967C21.6709 2.61032 21.7499 2.80109 21.7499 3V9C21.7499 9.19891 21.6709 9.38968 21.5302 9.53033C21.3896 9.67098 21.1988 9.75 20.9999 9.75C20.801 9.75 20.6102 9.67098 20.4696 9.53033C20.3289 9.38968 20.2499 9.19891 20.2499 9V4.81L13.5299 11.53C13.4612 11.6037 13.3784 11.6628 13.2864 11.7038C13.1944 11.7448 13.0951 11.7668 12.9944 11.7686C12.8937 11.7704 12.7937 11.7518 12.7003 11.7141C12.6069 11.6764 12.5221 11.6203 12.4509 11.549C12.3797 11.4778 12.3235 11.393 12.2858 11.2996C12.2481 11.2062 12.2295 11.1062 12.2313 11.0055C12.2331 10.9048 12.2551 10.8055 12.2961 10.7135C12.3371 10.6215 12.3962 10.5387 12.4699 10.47L19.1899 3.75H14.9999C14.801 3.75 14.6102 3.67098 14.4696 3.53033C14.3289 3.38968 14.2499 3.19891 14.2499 3Z" fill="black"/>
<path d="M22 11.016C21.6569 11.1862 21.2761 11.266 20.8935 11.2479C20.511 11.2298 20.1394 11.1143 19.814 10.9125C19.4885 10.7106 19.22 10.429 19.0338 10.0943C18.8476 9.75963 18.7499 9.38297 18.75 9V8.432L14.591 12.591C14.169 13.013 13.5967 13.25 13 13.25C12.4033 13.25 11.831 13.013 11.409 12.591C10.987 12.169 10.75 11.5967 10.75 11C10.75 10.7045 10.8082 10.4119 10.9213 10.139C11.0343 9.86597 11.2001 9.61793 11.409 9.409L15.568 5.25H15C14.617 5.25007 14.2404 5.15239 13.9057 4.9662C13.571 4.78002 13.2894 4.51149 13.0875 4.18604C12.8857 3.86059 12.7702 3.489 12.7521 3.10646C12.734 2.72391 12.8138 2.34307 12.984 2H12C7.286 2 4.929 2 3.464 3.464C2 4.93 2 7.286 2 12C2 16.714 2 19.071 3.464 20.535C4.93 22 7.286 22 12 22C16.714 22 19.071 22 20.535 20.535C22 19.072 22 16.714 22 12V11.016Z" fill="black"/>
</g>
<defs>
<clipPath id="clip0_221_20555">
<rect width="24" height="24" fill="white"/>
</clipPath>
</defs>
</svg>
