<svg width="24" height="24" viewBox="0 0 24 24" fill="none" xmlns="http://www.w3.org/2000/svg">
<path d="M22 20.25C22.1989 20.25 22.3896 20.3291 22.5303 20.4697C22.6709 20.6104 22.75 20.8011 22.75 21C22.75 21.1989 22.6709 21.3896 22.5303 21.5303C22.3896 21.6709 22.1989 21.75 22 21.75H2C1.80109 21.75 1.61038 21.6709 1.46973 21.5303C1.32907 21.3896 1.25 21.1989 1.25 21C1.25 20.8011 1.32907 20.6104 1.46973 20.4697C1.61038 20.3291 1.80109 20.25 2 20.25H22Z" fill="black"/>
<path d="M16.0518 7.25C16.9497 7.25 17.7 7.25008 18.2939 7.33008C18.9219 7.41408 19.4893 7.59969 19.9443 8.05469C20.4003 8.51069 20.5859 9.07808 20.6699 9.70508C20.7499 10.3001 20.75 11.0503 20.75 11.9482V12.0518C20.75 12.9507 20.7499 13.7 20.6699 14.2939C20.5859 14.9219 20.4003 15.4893 19.9453 15.9443C19.4893 16.4003 18.9219 16.5859 18.2949 16.6699C17.6999 16.7499 16.9497 16.75 16.0518 16.75H7.94824C7.04926 16.75 6.30005 16.7499 5.70605 16.6699C5.07806 16.5859 4.51066 16.4003 4.05566 15.9443C3.59966 15.4893 3.41408 14.9219 3.33008 14.2939C3.25008 13.7 3.25 12.9497 3.25 12.0518V11.9482C3.25 11.0493 3.25008 10.3 3.33008 9.70605C3.41408 9.07805 3.59966 8.51066 4.05566 8.05566C4.51066 7.59966 5.07805 7.41408 5.70605 7.33008C6.30005 7.25008 7.04926 7.25 7.94824 7.25H16.0518Z" fill="black"/>
<path d="M22 2.25C22.1989 2.25 22.3896 2.32907 22.5303 2.46973C22.6709 2.61038 22.75 2.80109 22.75 3C22.75 3.19891 22.6709 3.38962 22.5303 3.53027C22.3896 3.67093 22.1989 3.75 22 3.75H2C1.80109 3.75 1.61038 3.67093 1.46973 3.53027C1.32907 3.38962 1.25 3.19891 1.25 3C1.25 2.80109 1.32907 2.61038 1.46973 2.46973C1.61038 2.32907 1.80109 2.25 2 2.25H22Z" fill="black"/>
</svg>
