<svg width="24" height="24" viewBox="0 0 24 24" fill="none" xmlns="http://www.w3.org/2000/svg">
<path d="M20 20.25C20.1989 20.25 20.3896 20.3291 20.5303 20.4697C20.6709 20.6104 20.75 20.8011 20.75 21C20.75 21.1989 20.6709 21.3896 20.5303 21.5303C20.3896 21.6709 20.1989 21.75 20 21.75H4C3.80109 21.75 3.61038 21.6709 3.46973 21.5303C3.32907 21.3896 3.25 21.1989 3.25 21C3.25 20.8011 3.32907 20.6104 3.46973 20.4697C3.61038 20.3291 3.80109 20.25 4 20.25H20Z" fill="black"/>
<path d="M12.001 2.75C12.1999 2.75 12.3906 2.82908 12.5312 2.96973C12.6719 3.11038 12.751 3.30109 12.751 3.5V11.3896L15.9883 11.3984L15.9844 11.4014C16.1688 11.4032 16.3468 11.4719 16.4834 11.5967C16.6258 11.7268 16.7125 11.9072 16.7256 12.0996C16.7386 12.2922 16.6764 12.4826 16.5527 12.6309L12.5527 17.0059C12.4825 17.0827 12.397 17.1445 12.3018 17.1865C12.2065 17.2284 12.1031 17.25 11.999 17.25C11.8951 17.2499 11.7923 17.2284 11.6973 17.1865C11.602 17.1445 11.5165 17.0827 11.4463 17.0059L7.44727 12.6309C7.31293 12.4841 7.24216 12.2896 7.25098 12.0908C7.2599 11.8922 7.34749 11.7055 7.49414 11.5713C7.64094 11.437 7.83539 11.3662 8.03418 11.375C8.04305 11.3754 8.05172 11.3782 8.06055 11.3789L11.251 11.3867V3.5C11.251 3.30109 11.3301 3.11038 11.4707 2.96973C11.6114 2.82908 11.8021 2.75 12.001 2.75Z" fill="black"/>
</svg>
