<svg width="24" height="24" viewBox="0 0 24 24" fill="none" xmlns="http://www.w3.org/2000/svg">
<g clip-path="url(#clip0_221_20844)">
<path fill-rule="evenodd" clip-rule="evenodd" d="M2 12C2 6.477 6.477 2 12 2C17.523 2 22 6.477 22 12C22 17.523 17.523 22 12 22C6.477 22 2 17.523 2 12ZM10.8272 10.941L15.5472 8.154C16.3072 7.706 17.2412 8.29 17.2412 9.213V14.786C17.2412 15.71 16.3072 16.294 15.5472 15.846L10.8272 13.059C10.0462 12.597 10.0462 11.403 10.8272 10.941ZM8.80218 7.4206C8.66153 7.27995 8.47076 7.20093 8.27185 7.20093C8.07294 7.20093 7.88217 7.27995 7.74152 7.4206C7.60087 7.56125 7.52185 7.75202 7.52185 7.95093L7.52185 15.9509C7.52185 16.1498 7.60087 16.3406 7.74152 16.4813C7.88217 16.6219 8.07294 16.7009 8.27185 16.7009C8.47076 16.7009 8.66153 16.6219 8.80218 16.4813C8.94283 16.3406 9.02185 16.1498 9.02185 15.9509V7.95093C9.02185 7.75202 8.94283 7.56125 8.80218 7.4206Z" fill="black"/>
</g>
<defs>
<clipPath id="clip0_221_20844">
<rect width="24" height="24" fill="white"/>
</clipPath>
</defs>
</svg>
