<svg width="24" height="24" viewBox="0 0 24 24" fill="none" xmlns="http://www.w3.org/2000/svg">
<path d="M21 1.25C21.1989 1.25 21.3896 1.32907 21.5303 1.46973C21.6709 1.61038 21.75 1.80109 21.75 2V22C21.75 22.1989 21.6709 22.3896 21.5303 22.5303C21.3896 22.6709 21.1989 22.75 21 22.75C20.8011 22.75 20.6104 22.6709 20.4697 22.5303C20.3291 22.3896 20.25 22.1989 20.25 22V2C20.25 1.80109 20.3291 1.61038 20.4697 1.46973C20.6104 1.32907 20.8011 1.25 21 1.25Z" fill="black"/>
<path d="M12.0518 3.25C12.9507 3.25 13.7 3.25008 14.2939 3.33008C14.9219 3.41408 15.4893 3.59966 15.9443 4.05566C16.4003 4.51066 16.5859 5.07805 16.6699 5.70605C16.7499 6.30005 16.75 7.04926 16.75 7.94824V16.0518C16.75 16.9497 16.7499 17.7 16.6699 18.2939C16.5859 18.9219 16.4003 19.4893 15.9453 19.9443C15.4893 20.4003 14.9219 20.5859 14.2949 20.6699C13.6999 20.7499 12.9497 20.75 12.0518 20.75H11.9482C11.0493 20.75 10.3 20.7499 9.70605 20.6699C9.07805 20.5859 8.51066 20.4003 8.05566 19.9453C7.59967 19.4893 7.41408 18.9219 7.33008 18.2949C7.25009 17.6999 7.25 16.9497 7.25 16.0518V7.94824C7.25 7.04926 7.25008 6.30005 7.33008 5.70605C7.41408 5.07806 7.59967 4.51066 8.05566 4.05566C8.51066 3.59966 9.07805 3.41408 9.70605 3.33008C10.3 3.25008 11.0503 3.25 11.9482 3.25H12.0518Z" fill="black"/>
</svg>
