<svg width="24" height="24" viewBox="0 0 24 24" fill="none" xmlns="http://www.w3.org/2000/svg">
<g clip-path="url(#clip0_221_20889)">
<path fill-rule="evenodd" clip-rule="evenodd" d="M13.2498 5.25C13.2498 4.92 13.1178 4.61 12.8838 4.37C12.6488 4.14 12.3318 4 11.9998 4C11.6678 4 11.3508 4.14 11.1158 4.37C10.8818 4.61 10.7498 4.92 10.7498 5.25V10.7499H5.24976C4.91876 10.7499 4.60076 10.8801 4.36576 11.1201C4.13176 11.3501 3.99976 11.6699 3.99976 11.9999C3.99976 12.3299 4.13176 12.6499 4.36576 12.8799C4.60076 13.1199 4.91876 13.2499 5.24976 13.2499H10.7498V18.7499C10.7498 19.0899 10.8818 19.4 11.1158 19.64C11.3508 19.87 11.6678 19.9999 11.9998 19.9999C12.3318 19.9999 12.6488 19.87 12.8838 19.64C13.1178 19.4 13.2498 19.0899 13.2498 18.7499V13.2499H18.7498C19.0818 13.2499 19.3998 13.12 19.6338 12.89C19.8688 12.65 19.9998 12.3399 19.9998 11.9999C19.9998 11.6699 19.8688 11.3601 19.6338 11.1201C19.3998 10.8901 19.0818 10.7499 18.7498 10.7499H13.2498V5.25Z" fill="black"/>
</g>
<defs>
<clipPath id="clip0_221_20889">
<rect width="24" height="24" fill="white"/>
</clipPath>
</defs>
</svg>
