<svg width="24" height="24" viewBox="0 0 24 24" fill="none" xmlns="http://www.w3.org/2000/svg">
<path d="M21 3.25C21.1989 3.25 21.3896 3.32907 21.5303 3.46973C21.6709 3.61038 21.75 3.80109 21.75 4V20C21.75 20.1989 21.6709 20.3896 21.5303 20.5303C21.3896 20.6709 21.1989 20.75 21 20.75C20.8011 20.75 20.6104 20.6709 20.4697 20.5303C20.3291 20.3896 20.25 20.1989 20.25 20V4C20.25 3.80109 20.3291 3.61038 20.4697 3.46973C20.6104 3.32907 20.8011 3.25 21 3.25Z" fill="black"/>
<path d="M12.0996 7.27441C12.2922 7.26138 12.4826 7.32365 12.6309 7.44727L17.0059 11.4473C17.0827 11.5175 17.1445 11.603 17.1865 11.6982C17.2284 11.7935 17.25 11.8969 17.25 12.001C17.2499 12.1049 17.2284 12.2077 17.1865 12.3027C17.1445 12.398 17.0827 12.4835 17.0059 12.5537L12.6309 16.5527C12.4841 16.6871 12.2896 16.7578 12.0908 16.749C11.8922 16.7401 11.7055 16.6525 11.5713 16.5059C11.437 16.3591 11.3662 16.1646 11.375 15.9658C11.3754 15.9566 11.3782 15.9476 11.3789 15.9385L11.3867 12.749H3.5C3.30109 12.749 3.11038 12.6699 2.96973 12.5293C2.82908 12.3886 2.75 12.1979 2.75 11.999C2.75 11.8001 2.82908 11.6094 2.96973 11.4688C3.11038 11.3281 3.30109 11.249 3.5 11.249H11.3906L11.3984 8.01172L11.4014 8.01465C11.4034 7.83056 11.4721 7.65292 11.5967 7.5166C11.7268 7.37424 11.9072 7.28753 12.0996 7.27441Z" fill="black"/>
</svg>
