<svg width="24" height="24" viewBox="0 0 24 24" fill="none" xmlns="http://www.w3.org/2000/svg">
<path d="M12.001 6.75C12.1049 6.75006 12.2077 6.77163 12.3027 6.81348C12.398 6.85546 12.4835 6.91732 12.5537 6.99414L16.5527 11.3691C16.6871 11.5159 16.7578 11.7104 16.749 11.9092C16.7401 12.1078 16.6525 12.2945 16.5059 12.4287C16.3591 12.563 16.1646 12.6338 15.9658 12.625C15.9566 12.6246 15.9476 12.6209 15.9385 12.6201L12.749 12.6123V20.5C12.749 20.6989 12.6699 20.8896 12.5293 21.0303C12.3886 21.1709 12.1979 21.25 11.999 21.25C11.8001 21.25 11.6094 21.1709 11.4688 21.0303C11.3281 20.8896 11.249 20.6989 11.249 20.5V12.6094L8.01172 12.6016L8.01465 12.5977C7.83056 12.5956 7.65291 12.5279 7.5166 12.4033C7.37424 12.2732 7.28753 12.0928 7.27441 11.9004C7.26138 11.7078 7.32365 11.5174 7.44727 11.3691L11.4473 6.99414C11.5175 6.91731 11.603 6.85546 11.6982 6.81348C11.7935 6.77156 11.8969 6.75 12.001 6.75Z" fill="black"/>
<path d="M20 2.25C20.1989 2.25 20.3896 2.32907 20.5303 2.46973C20.6709 2.61038 20.75 2.80109 20.75 3C20.75 3.19891 20.6709 3.38962 20.5303 3.53027C20.3896 3.67093 20.1989 3.75 20 3.75H4C3.80109 3.75 3.61038 3.67093 3.46973 3.53027C3.32907 3.38962 3.25 3.19891 3.25 3C3.25 2.80109 3.32907 2.61038 3.46973 2.46973C3.61038 2.32907 3.80109 2.25 4 2.25H20Z" fill="black"/>
</svg>
