<svg width="24" height="24" viewBox="0 0 24 24" fill="none" xmlns="http://www.w3.org/2000/svg">
<path d="M22 20.25C22.1989 20.25 22.3896 20.3291 22.5303 20.4697C22.6709 20.6104 22.75 20.8011 22.75 21C22.75 21.1989 22.6709 21.3896 22.5303 21.5303C22.3896 21.6709 22.1989 21.75 22 21.75H2C1.80109 21.75 1.61038 21.6709 1.46973 21.5303C1.32907 21.3896 1.25 21.1989 1.25 21C1.25 20.8011 1.32907 20.6104 1.46973 20.4697C1.61038 20.3291 1.80109 20.25 2 20.25H22Z" fill="black"/>
<path d="M16.0518 7.25C16.9507 7.25 17.7 7.25008 18.2939 7.33008C18.9219 7.41408 19.4893 7.59966 19.9443 8.05566C20.4003 8.51066 20.5859 9.07806 20.6699 9.70605C20.7499 10.3 20.75 11.0503 20.75 11.9482V12.0518C20.75 12.9507 20.7499 13.7 20.6699 14.2939C20.5859 14.9219 20.4003 15.4893 19.9443 15.9443C19.4893 16.4003 18.9219 16.5859 18.2939 16.6699C17.7 16.7499 16.9507 16.75 16.0518 16.75H7.94824C7.05026 16.75 6.30005 16.7499 5.70605 16.6699C5.07805 16.5859 4.51066 16.4003 4.05566 15.9453C3.59967 15.4893 3.41408 14.9219 3.33008 14.2949C3.25009 13.6999 3.25 12.9497 3.25 12.0518V11.9482C3.25 11.0493 3.25008 10.3 3.33008 9.70605C3.41408 9.07805 3.59969 8.51066 4.05469 8.05566C4.51069 7.59967 5.07808 7.41408 5.70508 7.33008C6.30007 7.25009 7.05028 7.25 7.94824 7.25H16.0518Z" fill="black"/>
</svg>
