<svg width="24" height="24" viewBox="0 0 24 24" fill="none" xmlns="http://www.w3.org/2000/svg">
<g clip-path="url(#clip0_221_20629)">
<path fill-rule="evenodd" clip-rule="evenodd" d="M8.47 2.47007C8.61063 2.32962 8.80125 2.25073 9 2.25073C9.19875 2.25073 9.38937 2.32962 9.53 2.47007L11.53 4.47007C11.6348 4.57496 11.7061 4.70854 11.735 4.85394C11.7638 4.99934 11.749 5.15003 11.6923 5.287C11.6356 5.42396 11.5395 5.54104 11.4163 5.62346C11.2931 5.70588 11.1482 5.74994 11 5.75007H9C7.3424 5.75007 5.75269 6.40855 4.58058 7.58066C3.40848 8.75276 2.75 10.3425 2.75 12.0001C2.75 13.6577 3.40848 15.2474 4.58058 16.4195C5.75269 17.5916 7.3424 18.2501 9 18.2501H9.5C9.69891 18.2501 9.88968 18.3291 10.0303 18.4697C10.171 18.6104 10.25 18.8012 10.25 19.0001C10.25 19.199 10.171 19.3898 10.0303 19.5304C9.88968 19.6711 9.69891 19.7501 9.5 19.7501H9C6.94457 19.7501 4.97333 18.9336 3.51992 17.4802C2.06652 16.0267 1.25 14.0555 1.25 12.0001C1.25 9.94464 2.06652 7.9734 3.51992 6.51999C4.97333 5.06659 6.94457 4.25007 9 4.25007H9.19L8.47 3.53007C8.32955 3.38945 8.25066 3.19882 8.25066 3.00007C8.25066 2.80132 8.32955 2.6107 8.47 2.47007ZM13.75 5.00007C13.75 4.80116 13.829 4.61039 13.9697 4.46974C14.1103 4.32909 14.3011 4.25007 14.5 4.25007H15C17.0554 4.25007 19.0267 5.06659 20.4801 6.51999C21.9335 7.9734 22.75 9.94464 22.75 12.0001C22.75 14.0555 21.9335 16.0267 20.4801 17.4802C19.0267 18.9336 17.0554 19.7501 15 19.7501H14.81L15.53 20.4701C15.6037 20.5387 15.6628 20.6215 15.7038 20.7135C15.7448 20.8055 15.7668 20.9048 15.7686 21.0056C15.7704 21.1063 15.7518 21.2063 15.7141 21.2997C15.6764 21.3931 15.6203 21.4779 15.549 21.5491C15.4778 21.6203 15.393 21.6765 15.2996 21.7142C15.2062 21.7519 15.1062 21.7704 15.0055 21.7687C14.9048 21.7669 14.8055 21.7448 14.7135 21.7039C14.6215 21.6629 14.5387 21.6038 14.47 21.5301L12.47 19.5301C12.3652 19.4252 12.2939 19.2916 12.265 19.1462C12.2362 19.0008 12.251 18.8501 12.3077 18.7131C12.3644 18.5762 12.4605 18.4591 12.5837 18.3767C12.7069 18.2943 12.8518 18.2502 13 18.2501H15C16.6576 18.2501 18.2473 17.5916 19.4194 16.4195C20.5915 15.2474 21.25 13.6577 21.25 12.0001C21.25 10.3425 20.5915 8.75276 19.4194 7.58066C18.2473 6.40855 16.6576 5.75007 15 5.75007H14.5C14.3011 5.75007 14.1103 5.67105 13.9697 5.5304C13.829 5.38975 13.75 5.19898 13.75 5.00007Z" fill="black"/>
</g>
<defs>
<clipPath id="clip0_221_20629">
<rect width="24" height="24" fill="white"/>
</clipPath>
</defs>
</svg>
