<svg width="24" height="24" viewBox="0 0 24 24" fill="none" xmlns="http://www.w3.org/2000/svg">
<path d="M14 9.25594C14 7.83394 15.4962 6.76687 16.8252 7.55087L21.5449 10.338C22.8176 11.0901 22.8177 12.9952 21.5449 13.7472L16.8252 16.5343C15.4963 17.3181 14.0001 16.251 14 14.8292V13.2696H12.3613C11.6712 13.2694 11.1113 12.7098 11.1113 12.0196C11.1114 11.3294 11.6712 10.7698 12.3613 10.7696H14V9.25594Z" fill="black"/>
<path d="M5.78613 10.7696C6.47647 10.7696 7.0361 11.3293 7.03613 12.0196C7.03613 12.71 6.47649 13.2696 5.78613 13.2696H2.49902C1.80867 13.2696 1.24902 12.71 1.24902 12.0196C1.24905 11.3293 1.80869 10.7696 2.49902 10.7696H5.78613Z" fill="black"/>
</svg>
