<svg width="24" height="24" viewBox="0 0 24 24" fill="none" xmlns="http://www.w3.org/2000/svg">
<path d="M6.68586 5.36358V2.85462C6.68586 2.0685 6.04881 1.43066 5.26269 1.43066H2.66072C1.8746 1.43066 1.23755 2.0685 1.23755 2.85462V5.36358C1.23755 6.08906 1.78011 6.68761 2.48169 6.77564V17.4606C1.78011 17.5487 1.23755 18.1479 1.23755 18.8734V21.3824C1.23755 22.1685 1.8746 22.8056 2.66072 22.8056H5.26269C6.00243 22.8056 6.61017 22.2415 6.67931 21.5199H17.27C17.3391 22.2415 17.9469 22.8056 18.6866 22.8056H21.2886C22.0747 22.8056 22.7117 22.1685 22.7117 21.3824V18.8734C22.7117 18.0873 22.0747 17.4495 21.2886 17.4495H18.6866C17.9005 17.4495 17.2634 18.0873 17.2634 18.8734V20.0256H6.68586V18.8734C6.68586 18.0873 6.04881 17.4495 5.26269 17.4495H3.97593V6.78679H5.26269C6.04881 6.78679 6.68586 6.1497 6.68586 5.36358Z" fill="black"/>
<path d="M21.2463 6.78355H14.6324C14.2196 6.78355 13.8853 6.44919 13.8853 6.0364C13.8853 5.62461 14.2196 5.28931 14.6324 5.28931H21.2463C21.6592 5.28931 21.9935 5.62461 21.9935 6.0364C21.9935 6.44919 21.6592 6.78355 21.2463 6.78355Z" fill="black"/>
</svg>
