<svg width="24" height="24" viewBox="0 0 24 24" fill="none" xmlns="http://www.w3.org/2000/svg">
<path d="M5.91142 8.47375C5.22061 8.47375 4.66061 9.03374 4.66061 9.72455C4.66061 10.4154 5.22061 10.9753 5.91142 10.9753C6.60222 10.9753 7.16223 10.4154 7.16223 9.72455C7.16223 9.03374 6.60222 8.47375 5.91142 8.47375Z" fill="black"/>
<path d="M5.91142 4.6427C5.22061 4.6427 4.66061 5.20269 4.66061 5.89349C4.66061 6.5843 5.22061 7.14429 5.91142 7.14429C6.60222 7.14429 7.16223 6.5843 7.16223 5.89349C7.16223 5.20269 6.60222 4.6427 5.91142 4.6427Z" fill="black"/>
<path d="M5.91142 0.920772C5.22061 0.920772 4.66061 1.48076 4.66061 2.17157C4.66061 2.86237 5.22061 3.42236 5.91142 3.42236C6.60222 3.42236 7.16223 2.86237 7.16223 2.17157C7.16223 1.48076 6.60222 0.920772 5.91142 0.920772Z" fill="black"/>
<path d="M9.66069 4.6427C8.96988 4.6427 8.40988 5.20269 8.40988 5.89349C8.40988 6.5843 8.96988 7.14429 9.66069 7.14429C10.3515 7.14429 10.9115 6.5843 10.9115 5.89349C10.9115 5.20269 10.3515 4.6427 9.66069 4.6427Z" fill="black"/>
<path d="M9.66069 0.920772C8.96988 0.920772 8.40988 1.48076 8.40988 2.17157C8.40988 2.86237 8.96988 3.42236 9.66069 3.42236C10.3515 3.42236 10.9115 2.86237 10.9115 2.17157C10.9115 1.48076 10.3515 0.920772 9.66069 0.920772Z" fill="black"/>
<path d="M13.4545 0.920772C12.7637 0.920772 12.2037 1.48076 12.2037 2.17157C12.2037 2.86237 12.7637 3.42236 13.4545 3.42236C14.1453 3.42236 14.7053 2.86237 14.7053 2.17157C14.7053 1.48076 14.1453 0.920772 13.4545 0.920772Z" fill="black"/>
<path d="M2.2614 8.47375C1.57059 8.47375 1.01058 9.03374 1.01058 9.72455C1.01058 10.4154 1.57059 10.9753 2.2614 10.9753C2.9522 10.9753 3.51221 10.4154 3.51221 9.72455C3.51221 9.03374 2.9522 8.47375 2.2614 8.47375Z" fill="black"/>
<path d="M2.2614 12.3788C1.57059 12.3788 1.01058 12.9388 1.01058 13.6296C1.01058 14.3204 1.57059 14.8804 2.2614 14.8804C2.9522 14.8804 3.51221 14.3204 3.51221 13.6296C3.51221 12.9388 2.9522 12.3788 2.2614 12.3788Z" fill="black"/>
<path d="M2.2614 4.6427C1.57059 4.6427 1.01058 5.20269 1.01058 5.89349C1.01058 6.5843 1.57059 7.14429 2.2614 7.14429C2.9522 7.14429 3.51221 6.5843 3.51221 5.89349C3.51221 5.20269 2.9522 4.6427 2.2614 4.6427Z" fill="black"/>
<path d="M2.2614 0.920772C1.57059 0.920772 1.01058 1.48076 1.01058 2.17157C1.01058 2.86237 1.57059 3.42236 2.2614 3.42236C2.9522 3.42236 3.51221 2.86237 3.51221 2.17157C3.51221 1.48076 2.9522 0.920772 2.2614 0.920772Z" fill="black"/>
</svg>
