<svg width="24" height="24" viewBox="0 0 24 24" fill="none" xmlns="http://www.w3.org/2000/svg">
<path d="M5.91142 15.5262C5.22061 15.5262 4.66061 14.9663 4.66061 14.2755C4.66061 13.5846 5.22061 13.0247 5.91142 13.0247C6.60222 13.0247 7.16223 13.5846 7.16223 14.2755C7.16223 14.9663 6.60222 15.5262 5.91142 15.5262Z" fill="black"/>
<path d="M5.91142 19.3573C5.22061 19.3573 4.66061 18.7973 4.66061 18.1065C4.66061 17.4157 5.22061 16.8557 5.91142 16.8557C6.60222 16.8557 7.16223 17.4157 7.16223 18.1065C7.16223 18.7973 6.60222 19.3573 5.91142 19.3573Z" fill="black"/>
<path d="M5.91142 23.0792C5.22061 23.0792 4.66061 22.5192 4.66061 21.8284C4.66061 21.1376 5.22061 20.5776 5.91142 20.5776C6.60222 20.5776 7.16223 21.1376 7.16223 21.8284C7.16223 22.5192 6.60222 23.0792 5.91142 23.0792Z" fill="black"/>
<path d="M9.66069 19.3573C8.96988 19.3573 8.40988 18.7973 8.40988 18.1065C8.40988 17.4157 8.96988 16.8557 9.66069 16.8557C10.3515 16.8557 10.9115 17.4157 10.9115 18.1065C10.9115 18.7973 10.3515 19.3573 9.66069 19.3573Z" fill="black"/>
<path d="M9.66069 23.0792C8.96988 23.0792 8.40988 22.5192 8.40988 21.8284C8.40988 21.1376 8.96988 20.5776 9.66069 20.5776C10.3515 20.5776 10.9115 21.1376 10.9115 21.8284C10.9115 22.5192 10.3515 23.0792 9.66069 23.0792Z" fill="black"/>
<path d="M13.4545 23.0792C12.7637 23.0792 12.2037 22.5192 12.2037 21.8284C12.2037 21.1376 12.7637 20.5776 13.4545 20.5776C14.1453 20.5776 14.7053 21.1376 14.7053 21.8284C14.7053 22.5192 14.1453 23.0792 13.4545 23.0792Z" fill="black"/>
<path d="M2.2614 15.5262C1.57059 15.5262 1.01058 14.9663 1.01058 14.2755C1.01058 13.5846 1.57059 13.0247 2.2614 13.0247C2.9522 13.0247 3.51221 13.5846 3.51221 14.2755C3.51221 14.9663 2.9522 15.5262 2.2614 15.5262Z" fill="black"/>
<path d="M2.2614 11.6212C1.57059 11.6212 1.01058 11.0612 1.01058 10.3704C1.01058 9.67962 1.57059 9.11963 2.2614 9.11963C2.9522 9.11963 3.51221 9.67962 3.51221 10.3704C3.51221 11.0612 2.9522 11.6212 2.2614 11.6212Z" fill="black"/>
<path d="M2.2614 19.3573C1.57059 19.3573 1.01058 18.7973 1.01058 18.1065C1.01058 17.4157 1.57059 16.8557 2.2614 16.8557C2.9522 16.8557 3.51221 17.4157 3.51221 18.1065C3.51221 18.7973 2.9522 19.3573 2.2614 19.3573Z" fill="black"/>
<path d="M2.2614 23.0792C1.57059 23.0792 1.01058 22.5192 1.01058 21.8284C1.01058 21.1376 1.57059 20.5776 2.2614 20.5776C2.9522 20.5776 3.51221 21.1376 3.51221 21.8284C3.51221 22.5192 2.9522 23.0792 2.2614 23.0792Z" fill="black"/>
</svg>
