<svg width="24" height="24" viewBox="0 0 24 24" fill="none" xmlns="http://www.w3.org/2000/svg">
<g clip-path="url(#clip0_221_20520)">
<path d="M11.2472 4.17612L8.55116 7.12612C8.41616 7.27012 8.23016 7.35412 8.03316 7.36212C7.83616 7.36912 7.64416 7.29912 7.49816 7.16612C7.35316 7.03312 7.26516 6.84812 7.25516 6.65112C7.24516 6.45412 7.31316 6.26112 7.44416 6.11412L11.4442 1.73912C11.5142 1.66212 11.6002 1.60112 11.6952 1.55912C11.7902 1.51712 11.8932 1.49512 11.9972 1.49512C12.1022 1.49512 12.2052 1.51712 12.3002 1.55912C12.3952 1.60112 12.4812 1.66212 12.5512 1.73912L16.5512 6.11412C16.6852 6.26112 16.7562 6.45512 16.7472 6.65412C16.7382 6.85212 16.6512 7.04012 16.5042 7.17412C16.3572 7.30812 16.1632 7.37912 15.9642 7.37012C15.7652 7.36112 15.5782 7.27412 15.4442 7.12712L12.7472 4.17712L12.7472 19.8161L15.4442 16.8661C15.5782 16.7191 15.7652 16.6311 15.9642 16.6221C16.1632 16.6141 16.3572 16.6841 16.5042 16.8191C16.6512 16.9531 16.7382 17.1401 16.7472 17.3391C16.7562 17.5381 16.6852 17.7321 16.5512 17.8791L12.5512 22.2541C12.4812 22.3301 12.3952 22.3921 12.3002 22.4341C12.2052 22.4761 12.1022 22.4971 11.9972 22.4971C11.8932 22.4971 11.7902 22.4761 11.6952 22.4341C11.6002 22.3921 11.5142 22.3301 11.4442 22.2541L7.44416 17.8791C7.31316 17.7311 7.24516 17.5381 7.25516 17.3411C7.26516 17.1441 7.35316 16.9591 7.49816 16.8261C7.64416 16.6931 7.83616 16.6231 8.03316 16.6301C8.23016 16.6381 8.41616 16.7231 8.55116 16.8671L11.2472 19.8171L11.2472 4.17612Z" fill="black"/>
</g>
<defs>
<clipPath id="clip0_221_20520">
<rect width="24" height="24" fill="white"/>
</clipPath>
</defs>
</svg>
