<svg width="24" height="24" viewBox="0 0 24 24" fill="none" xmlns="http://www.w3.org/2000/svg">
<path d="M18.0886 15.5262C18.7794 15.5262 19.3394 14.9663 19.3394 14.2755C19.3394 13.5846 18.7794 13.0247 18.0886 13.0247C17.3978 13.0247 16.8378 13.5846 16.8378 14.2755C16.8378 14.9663 17.3978 15.5262 18.0886 15.5262Z" fill="black"/>
<path d="M18.0886 19.3573C18.7794 19.3573 19.3394 18.7973 19.3394 18.1065C19.3394 17.4157 18.7794 16.8557 18.0886 16.8557C17.3978 16.8557 16.8378 17.4157 16.8378 18.1065C16.8378 18.7973 17.3978 19.3573 18.0886 19.3573Z" fill="black"/>
<path d="M18.0886 23.0792C18.7794 23.0792 19.3394 22.5192 19.3394 21.8284C19.3394 21.1376 18.7794 20.5776 18.0886 20.5776C17.3978 20.5776 16.8378 21.1376 16.8378 21.8284C16.8378 22.5192 17.3978 23.0792 18.0886 23.0792Z" fill="black"/>
<path d="M14.3393 19.3573C15.0301 19.3573 15.5901 18.7973 15.5901 18.1065C15.5901 17.4157 15.0301 16.8557 14.3393 16.8557C13.6485 16.8557 13.0885 17.4157 13.0885 18.1065C13.0885 18.7973 13.6485 19.3573 14.3393 19.3573Z" fill="black"/>
<path d="M14.3393 23.0792C15.0301 23.0792 15.5901 22.5192 15.5901 21.8284C15.5901 21.1376 15.0301 20.5776 14.3393 20.5776C13.6485 20.5776 13.0885 21.1376 13.0885 21.8284C13.0885 22.5192 13.6485 23.0792 14.3393 23.0792Z" fill="black"/>
<path d="M10.5455 23.0792C11.2363 23.0792 11.7963 22.5192 11.7963 21.8284C11.7963 21.1376 11.2363 20.5776 10.5455 20.5776C9.85468 20.5776 9.29468 21.1376 9.29468 21.8284C9.29468 22.5192 9.85468 23.0792 10.5455 23.0792Z" fill="black"/>
<path d="M21.7386 15.5262C22.4294 15.5262 22.9894 14.9663 22.9894 14.2755C22.9894 13.5846 22.4294 13.0247 21.7386 13.0247C21.0478 13.0247 20.4878 13.5846 20.4878 14.2755C20.4878 14.9663 21.0478 15.5262 21.7386 15.5262Z" fill="black"/>
<path d="M21.7386 11.6212C22.4294 11.6212 22.9894 11.0612 22.9894 10.3704C22.9894 9.67962 22.4294 9.11963 21.7386 9.11963C21.0478 9.11963 20.4878 9.67962 20.4878 10.3704C20.4878 11.0612 21.0478 11.6212 21.7386 11.6212Z" fill="black"/>
<path d="M21.7386 19.3573C22.4294 19.3573 22.9894 18.7973 22.9894 18.1065C22.9894 17.4157 22.4294 16.8557 21.7386 16.8557C21.0478 16.8557 20.4878 17.4157 20.4878 18.1065C20.4878 18.7973 21.0478 19.3573 21.7386 19.3573Z" fill="black"/>
<path d="M21.7386 23.0792C22.4294 23.0792 22.9894 22.5192 22.9894 21.8284C22.9894 21.1376 22.4294 20.5776 21.7386 20.5776C21.0478 20.5776 20.4878 21.1376 20.4878 21.8284C20.4878 22.5192 21.0478 23.0792 21.7386 23.0792Z" fill="black"/>
</svg>
