<svg width="24" height="24" viewBox="0 0 24 24" fill="none" xmlns="http://www.w3.org/2000/svg">
<path d="M18.0886 8.47375C18.7794 8.47375 19.3394 9.03374 19.3394 9.72455C19.3394 10.4154 18.7794 10.9753 18.0886 10.9753C17.3978 10.9753 16.8378 10.4154 16.8378 9.72455C16.8378 9.03374 17.3978 8.47375 18.0886 8.47375Z" fill="black"/>
<path d="M18.0886 4.6427C18.7794 4.6427 19.3394 5.20269 19.3394 5.89349C19.3394 6.5843 18.7794 7.14429 18.0886 7.14429C17.3978 7.14429 16.8378 6.5843 16.8378 5.89349C16.8378 5.20269 17.3978 4.6427 18.0886 4.6427Z" fill="black"/>
<path d="M18.0886 0.920772C18.7794 0.920772 19.3394 1.48076 19.3394 2.17157C19.3394 2.86237 18.7794 3.42236 18.0886 3.42236C17.3978 3.42236 16.8378 2.86237 16.8378 2.17157C16.8378 1.48076 17.3978 0.920772 18.0886 0.920772Z" fill="black"/>
<path d="M14.3393 4.6427C15.0301 4.6427 15.5901 5.20269 15.5901 5.89349C15.5901 6.5843 15.0301 7.14429 14.3393 7.14429C13.6485 7.14429 13.0885 6.5843 13.0885 5.89349C13.0885 5.20269 13.6485 4.6427 14.3393 4.6427Z" fill="black"/>
<path d="M14.3393 0.920772C15.0301 0.920772 15.5901 1.48076 15.5901 2.17157C15.5901 2.86237 15.0301 3.42236 14.3393 3.42236C13.6485 3.42236 13.0885 2.86237 13.0885 2.17157C13.0885 1.48076 13.6485 0.920772 14.3393 0.920772Z" fill="black"/>
<path d="M10.5455 0.920772C11.2363 0.920772 11.7963 1.48076 11.7963 2.17157C11.7963 2.86237 11.2363 3.42236 10.5455 3.42236C9.85468 3.42236 9.29468 2.86237 9.29468 2.17157C9.29468 1.48076 9.85468 0.920772 10.5455 0.920772Z" fill="black"/>
<path d="M21.7386 8.47375C22.4294 8.47375 22.9894 9.03374 22.9894 9.72455C22.9894 10.4154 22.4294 10.9753 21.7386 10.9753C21.0478 10.9753 20.4878 10.4154 20.4878 9.72455C20.4878 9.03374 21.0478 8.47375 21.7386 8.47375Z" fill="black"/>
<path d="M21.7386 12.3788C22.4294 12.3788 22.9894 12.9388 22.9894 13.6296C22.9894 14.3204 22.4294 14.8804 21.7386 14.8804C21.0478 14.8804 20.4878 14.3204 20.4878 13.6296C20.4878 12.9388 21.0478 12.3788 21.7386 12.3788Z" fill="black"/>
<path d="M21.7386 4.6427C22.4294 4.6427 22.9894 5.20269 22.9894 5.89349C22.9894 6.5843 22.4294 7.14429 21.7386 7.14429C21.0478 7.14429 20.4878 6.5843 20.4878 5.89349C20.4878 5.20269 21.0478 4.6427 21.7386 4.6427Z" fill="black"/>
<path d="M21.7386 0.920772C22.4294 0.920772 22.9894 1.48076 22.9894 2.17157C22.9894 2.86237 22.4294 3.42236 21.7386 3.42236C21.0478 3.42236 20.4878 2.86237 20.4878 2.17157C20.4878 1.48076 21.0478 0.920772 21.7386 0.920772Z" fill="black"/>
</svg>
