<svg width="24" height="24" viewBox="0 0 24 24" fill="none" xmlns="http://www.w3.org/2000/svg">
<g clip-path="url(#clip0_221_20644)">
<path fill-rule="evenodd" clip-rule="evenodd" d="M18.364 3.05811C18.5629 3.05811 18.7536 3.13712 18.8943 3.27778C19.0349 3.41843 19.114 3.60919 19.114 3.80811V8.05011C19.114 8.24902 19.0349 8.43978 18.8943 8.58044C18.7536 8.72109 18.5629 8.80011 18.364 8.80011H14.121C13.922 8.80011 13.7313 8.72109 13.5906 8.58044C13.45 8.43978 13.371 8.24902 13.371 8.05011C13.371 7.85119 13.45 7.66043 13.5906 7.51978C13.7313 7.37912 13.922 7.30011 14.121 7.30011H16.481C15.127 6.2361 13.4385 5.6887 11.7178 5.7559C9.99704 5.8231 8.3564 6.5005 7.08951 7.66687C5.82262 8.83323 5.01219 10.4124 4.80328 12.1217C4.59437 13.831 5.00062 15.5589 5.94932 16.9961C6.89802 18.4332 8.32722 19.4858 9.98111 19.9654C11.635 20.4451 13.4056 20.3204 14.976 19.6138C16.5464 18.9072 17.8141 17.6648 18.5521 16.1089C19.2901 14.553 19.4503 12.7853 19.004 11.1221C18.9785 11.0269 18.9721 10.9276 18.9851 10.8299C18.9981 10.7322 19.0301 10.6381 19.0795 10.5528C19.1288 10.4675 19.1945 10.3928 19.2727 10.3328C19.351 10.2729 19.4403 10.229 19.5355 10.2036C19.6307 10.1782 19.7299 10.1718 19.8276 10.1847C19.9253 10.1977 20.0195 10.2298 20.1048 10.2791C20.1901 10.3285 20.2648 10.3942 20.3247 10.4724C20.3846 10.5506 20.4285 10.6399 20.454 10.7351C20.9953 12.7531 20.7966 14.8982 19.8939 16.7824C18.9912 18.6667 17.444 20.1658 15.5322 21.0085C13.6204 21.8513 11.4702 21.9822 9.47024 21.3775C7.47033 20.7728 5.75281 19.4724 4.62826 17.7116C3.5037 15.9507 3.04635 13.8455 3.33891 11.7768C3.63147 9.70804 4.65462 7.81226 6.22334 6.43226C7.79207 5.05226 9.80282 4.27914 11.892 4.2527C13.9811 4.22626 16.0108 4.94825 17.614 6.28811V3.80811C17.614 3.60919 17.693 3.41843 17.8336 3.27778C17.9743 3.13712 18.165 3.05811 18.364 3.05811Z" fill="black"/>
</g>
<defs>
<clipPath id="clip0_221_20644">
<rect width="24" height="24" fill="white"/>
</clipPath>
</defs>
</svg>
