<svg width="24" height="24" viewBox="0 0 24 24" fill="none" xmlns="http://www.w3.org/2000/svg">
<path fill-rule="evenodd" clip-rule="evenodd" d="M10.03 6.47007C10.1704 6.6107 10.2493 6.80132 10.2493 7.00007C10.2493 7.19882 10.1704 7.38945 10.03 7.53007L6.30995 11.2501H14.5C15.453 11.2501 16.867 11.5301 18.063 12.3911C19.2979 13.2811 20.25 14.7561 20.25 17.0001C20.25 17.199 20.1709 17.3898 20.0303 17.5304C19.8896 17.6711 19.6989 17.7501 19.5 17.7501C19.301 17.7501 19.1103 17.6711 18.9696 17.5304C18.829 17.3898 18.75 17.199 18.75 17.0001C18.75 15.2441 18.035 14.2201 17.187 13.6091C16.3 12.9701 15.213 12.7501 14.5 12.7501H6.30995L10.03 16.4701C10.1036 16.5387 10.1627 16.6215 10.2037 16.7135C10.2447 16.8055 10.2668 16.9048 10.2685 17.0056C10.2703 17.1063 10.2518 17.2063 10.2141 17.2997C10.1764 17.3931 10.1202 17.4779 10.049 17.5491C9.97777 17.6203 9.89294 17.6765 9.79955 17.7142C9.70616 17.7519 9.60613 17.7704 9.50543 17.7687C9.40473 17.7669 9.30541 17.7448 9.21341 17.7039C9.12141 17.6629 9.03861 17.6038 8.96995 17.5301L3.96995 12.5301C3.8295 12.3894 3.75061 12.1988 3.75061 12.0001C3.75061 11.8013 3.8295 11.6107 3.96995 11.4701L8.96995 6.47007C9.11058 6.32962 9.3012 6.25073 9.49995 6.25073C9.6987 6.25073 9.88932 6.32962 10.03 6.47007Z" fill="black"/>
</svg>
