<svg width="24" height="24" viewBox="0 0 24 24" fill="none" xmlns="http://www.w3.org/2000/svg">
<g clip-path="url(#clip0_221_20665)">
<path fill-rule="evenodd" clip-rule="evenodd" d="M2 12C2 7.286 2 4.929 3.464 3.464C4.93 2 7.286 2 12 2C16.714 2 19.071 2 20.535 3.464C22 4.93 22 7.286 22 12C22 16.714 22 19.071 20.535 20.535C19.072 22 16.714 22 12 22C7.286 22 4.929 22 3.464 20.535C2 19.072 2 16.714 2 12ZM12.5 7C12.5 6.80109 12.579 6.61032 12.7197 6.46967C12.8603 6.32902 13.0511 6.25 13.25 6.25H17C17.1989 6.25 17.3897 6.32902 17.5303 6.46967C17.671 6.61032 17.75 6.80109 17.75 7V10.75C17.75 10.9489 17.671 11.1397 17.5303 11.2803C17.3897 11.421 17.1989 11.5 17 11.5C16.8011 11.5 16.6103 11.421 16.4697 11.2803C16.329 11.1397 16.25 10.9489 16.25 10.75V8.81L8.81 16.25H10.75C10.9489 16.25 11.1397 16.329 11.2803 16.4697C11.421 16.6103 11.5 16.8011 11.5 17C11.5 17.1989 11.421 17.3897 11.2803 17.5303C11.1397 17.671 10.9489 17.75 10.75 17.75H7C6.80109 17.75 6.61032 17.671 6.46967 17.5303C6.32902 17.3897 6.25 17.1989 6.25 17V13.25C6.25 13.0511 6.32902 12.8603 6.46967 12.7197C6.61032 12.579 6.80109 12.5 7 12.5C7.19891 12.5 7.38968 12.579 7.53033 12.7197C7.67098 12.8603 7.75 13.0511 7.75 13.25V15.19L15.19 7.75H13.25C13.1515 7.75 13.054 7.7306 12.963 7.69291C12.872 7.65522 12.7893 7.59997 12.7197 7.53033C12.65 7.46069 12.5948 7.37801 12.5571 7.28701C12.5194 7.19602 12.5 7.09849 12.5 7Z" fill="black"/>
</g>
<defs>
<clipPath id="clip0_221_20665">
<rect width="24" height="24" fill="white"/>
</clipPath>
</defs>
</svg>
