<svg width="24" height="24" viewBox="0 0 24 24" fill="none" xmlns="http://www.w3.org/2000/svg">
<path fill-rule="evenodd" clip-rule="evenodd" d="M18.0489 6.22559L13.4346 1.73073C12.7266 1.04135 11.5982 1.03929 10.8872 1.72661L6.23159 6.22867C5.93379 6.5172 5.92558 6.99224 6.21411 7.29004C6.5016 7.58682 6.97664 7.59506 7.27444 7.30756L11.9301 2.80446C12.0578 2.6808 12.2608 2.68184 12.3886 2.80549L17.003 7.30036C17.2987 7.58889 17.7738 7.5827 18.0634 7.28593C18.3519 6.98915 18.3457 6.51412 18.0489 6.22559Z" fill="black"/>
<path fill-rule="evenodd" clip-rule="evenodd" d="M6.23859 17.7094L10.853 22.2043C11.5609 22.8937 12.6893 22.8957 13.4003 22.2084L18.0559 17.7064C18.3537 17.4178 18.3619 16.9428 18.0734 16.645C17.7859 16.3482 17.3109 16.34 17.0131 16.6275L12.3574 21.1306C12.2297 21.2542 12.0267 21.2532 11.8989 21.1295L7.28452 16.6347C6.98878 16.3461 6.51368 16.3523 6.22412 16.6491C5.93559 16.9459 5.94181 17.4209 6.23859 17.7094Z" fill="black"/>
<path d="M12.1393 9.17891C13.6211 9.17891 14.8236 10.3815 14.8236 11.8633C14.8236 13.344 13.6211 14.5466 12.1393 14.5466C10.6585 14.5466 9.45593 13.344 9.45593 11.8633C9.45593 10.3815 10.6585 9.17891 12.1393 9.17891Z" fill="black"/>
</svg>
