<svg width="24" height="24" viewBox="0 0 24 24" fill="none" xmlns="http://www.w3.org/2000/svg">
<g clip-path="url(#clip0_221_20396)">
<path fill-rule="evenodd" clip-rule="evenodd" d="M21.7881 21.7878C21.9235 21.6522 21.9996 21.4684 21.9996 21.2768C21.9996 21.0852 21.9235 20.9014 21.7881 20.7658L18.1221 17.0998C19.6578 15.3 20.4373 12.9756 20.2972 10.6138C20.1571 8.25196 19.1083 6.03603 17.3705 4.4304C15.6327 2.82477 13.3409 1.95409 10.9754 2.00081C8.60991 2.04754 6.35429 3.00805 4.68129 4.68105C3.00829 6.35405 2.04778 8.60967 2.00106 10.9752C1.95433 13.3407 2.82502 15.6325 4.43064 17.3703C6.03627 19.108 8.2522 20.1569 10.614 20.297C12.9759 20.4371 15.3002 19.6576 17.1001 18.1218L20.7661 21.7878C20.9016 21.9233 21.0854 21.9993 21.2771 21.9993C21.4687 21.9993 21.6525 21.9233 21.7881 21.7878Z" fill="black"/>
</g>
<defs>
<clipPath id="clip0_221_20396">
<rect width="24" height="24" fill="white"/>
</clipPath>
</defs>
</svg>
