<svg width="24" height="24" viewBox="0 0 24 24" fill="none" xmlns="http://www.w3.org/2000/svg">
<g clip-path="url(#clip0_221_20530)">
<path d="M20.8569 9.75006C21.0559 9.75006 21.2466 9.67104 21.3873 9.53039C21.5279 9.38974 21.6069 9.19897 21.6069 9.00006C21.6069 8.80115 21.5279 8.61038 21.3873 8.46973C21.2466 8.32908 21.0559 8.25006 20.8569 8.25006H16.8109L22.5309 2.53006C22.6675 2.38854 22.743 2.19906 22.7412 2.00241C22.7394 1.80576 22.6604 1.61769 22.5213 1.4787C22.3822 1.33971 22.194 1.26092 21.9974 1.2593C21.8007 1.25769 21.6113 1.33337 21.4699 1.47006L15.7499 7.19006V3.14206C15.7499 2.94315 15.6709 2.75238 15.5303 2.61173C15.3896 2.47108 15.1989 2.39206 14.9999 2.39206C14.801 2.39206 14.6103 2.47108 14.4696 2.61173C14.329 2.75238 14.2499 2.94315 14.2499 3.14206V9.00006C14.2499 9.41406 14.5859 9.75006 14.9999 9.75006H20.8569ZM3.14294 14.2501C2.94403 14.2501 2.75327 14.3291 2.61261 14.4697C2.47196 14.6104 2.39294 14.8011 2.39294 15.0001C2.39294 15.199 2.47196 15.3897 2.61261 15.5304C2.75327 15.671 2.94403 15.7501 3.14294 15.7501H7.18894L1.46894 21.4701C1.39734 21.5393 1.34025 21.6221 1.30098 21.7136C1.26172 21.8051 1.24108 21.9035 1.24026 22.0031C1.23944 22.1027 1.25846 22.2015 1.29622 22.2936C1.33397 22.3858 1.3897 22.4695 1.46015 22.5399C1.53061 22.6102 1.61437 22.6659 1.70656 22.7036C1.79875 22.7412 1.89752 22.7602 1.9971 22.7592C2.09669 22.7583 2.19509 22.7376 2.28658 22.6982C2.37806 22.6589 2.46079 22.6017 2.52994 22.5301L8.24994 16.8101V20.8571C8.24994 21.056 8.32896 21.2467 8.46961 21.3874C8.61027 21.528 8.80103 21.6071 8.99994 21.6071C9.19886 21.6071 9.38962 21.528 9.53027 21.3874C9.67093 21.2467 9.74994 21.056 9.74994 20.8571V15.0001C9.74994 14.8011 9.67093 14.6104 9.53027 14.4697C9.38962 14.3291 9.19886 14.2501 8.99994 14.2501H3.14294Z" fill="black"/>
</g>
<defs>
<clipPath id="clip0_221_20530">
<rect width="24" height="24" fill="white"/>
</clipPath>
</defs>
</svg>
