<svg width="24" height="24" viewBox="0 0 24 24" fill="none" xmlns="http://www.w3.org/2000/svg">
<g clip-path="url(#clip0_221_20386)">
<path fill-rule="evenodd" clip-rule="evenodd" d="M21.9996 21.2768C21.9996 21.4684 21.9235 21.6522 21.7881 21.7878C21.6525 21.9233 21.4687 21.9993 21.2771 21.9993C21.0854 21.9993 20.9016 21.9233 20.7661 21.7878L17.1001 18.1218C15.3002 19.6576 12.9759 20.4371 10.614 20.297C8.2522 20.1569 6.03627 19.108 4.43064 17.3703C2.82502 15.6325 1.95433 13.3407 2.00106 10.9752C2.04778 8.60967 3.00829 6.35405 4.68129 4.68105C6.35429 3.00805 8.60991 2.04754 10.9754 2.00081C13.3409 1.95409 15.6327 2.82477 17.3705 4.4304C19.1083 6.03603 20.1571 8.25196 20.2972 10.6138C20.4373 12.9756 19.6578 15.3 18.1221 17.0998L21.7881 20.7658C21.9235 20.9014 21.9996 21.0852 21.9996 21.2768ZM9.53061 8.46882C9.23872 8.17769 8.75877 8.17769 8.46764 8.46882C8.17575 8.76071 8.17575 9.24066 8.46764 9.53254L9.9421 11.007L8.46764 12.4815C8.31493 12.6236 8.22766 12.823 8.22766 13.0314C8.22766 13.4444 8.56769 13.7837 8.97994 13.7837C9.18907 13.7837 9.38842 13.6971 9.53061 13.5444L11.0051 12.07L12.4795 13.5444C12.6217 13.6971 12.8211 13.7837 13.0302 13.7837C13.4424 13.7837 13.7825 13.4444 13.7825 13.0314C13.7825 12.823 13.6952 12.6236 13.5425 12.4815L12.068 11.007L13.5425 9.53254C13.6952 9.39036 13.7825 9.19026 13.7825 8.98188C13.7825 8.56888 13.4424 8.2296 13.0302 8.2296C12.8211 8.2296 12.6217 8.31611 12.4795 8.46882L11.0051 9.94329L9.53061 8.46882Z" fill="black"/>
</g>
<defs>
<clipPath id="clip0_221_20386">
<rect width="24" height="24" fill="white"/>
</clipPath>
</defs>
</svg>
