<svg width="24" height="24" viewBox="0 0 24 24" fill="none" xmlns="http://www.w3.org/2000/svg">
<g clip-path="url(#clip0_221_20708)">
<path fill-rule="evenodd" clip-rule="evenodd" d="M13.34 20.75C13.34 20.5511 13.419 20.3603 13.5596 20.2197C13.7003 20.079 13.8911 20 14.09 20H15C15.4353 20 15.836 19.999 16.202 19.997C16.3005 19.9961 16.3982 20.0147 16.4895 20.0516C16.5808 20.0885 16.664 20.143 16.7342 20.2121C16.8044 20.2811 16.8604 20.3633 16.8989 20.454C16.9374 20.5446 16.9576 20.642 16.9585 20.7405C16.9593 20.839 16.9408 20.9367 16.9039 21.028C16.867 21.1193 16.8124 21.2025 16.7434 21.2727C16.6744 21.343 16.5922 21.3989 16.5015 21.4374C16.4108 21.4759 16.3135 21.4961 16.215 21.497C15.8403 21.4997 15.436 21.5007 15.002 21.5H14.091C13.8921 21.5 13.7013 21.421 13.5606 21.2803C13.42 21.1397 13.34 20.9489 13.34 20.75ZM13.341 2.75C13.341 2.55109 13.42 2.36032 13.5606 2.21967C13.7013 2.07902 13.8921 2 14.091 2H15.003C15.4363 2 15.8406 2.001 16.216 2.003C16.4149 2.00472 16.605 2.08539 16.7444 2.22727C16.8838 2.36914 16.9612 2.56059 16.9595 2.7595C16.9577 2.95841 16.8771 3.14849 16.7352 3.28793C16.5933 3.42736 16.4019 3.50472 16.203 3.503C15.8356 3.501 15.4346 3.5 15 3.5H14.09C13.8911 3.5 13.7003 3.42098 13.5596 3.28033C13.419 3.13968 13.341 2.94891 13.341 2.75ZM18.371 20.695C18.3122 20.5051 18.3312 20.2996 18.4238 20.1238C18.5165 19.9479 18.6751 19.816 18.865 19.757C19.185 19.657 19.409 19.522 19.591 19.341C19.773 19.16 19.907 18.936 20.006 18.615C20.065 18.425 20.1971 18.2662 20.3732 18.1735C20.4604 18.1277 20.5557 18.0994 20.6538 18.0904C20.7519 18.0814 20.8509 18.0918 20.945 18.121C21.0391 18.1502 21.1265 18.1977 21.2022 18.2607C21.278 18.3237 21.3406 18.401 21.3864 18.4882C21.4323 18.5754 21.4606 18.6708 21.4696 18.7689C21.4786 18.867 21.4682 18.9659 21.439 19.06C21.279 19.575 21.031 20.022 20.652 20.402C20.273 20.782 19.825 21.029 19.31 21.189C19.2159 21.2183 19.1169 21.2287 19.0188 21.2197C18.9207 21.2107 18.8253 21.1824 18.7381 21.1366C18.6509 21.0907 18.5736 21.0281 18.5106 20.9523C18.4476 20.8765 18.4002 20.7891 18.371 20.695ZM18.371 2.805C18.4002 2.71089 18.4476 2.62345 18.5106 2.54769C18.5736 2.47192 18.6509 2.40931 18.7381 2.36343C18.8253 2.31756 18.9207 2.28931 19.0188 2.28032C19.1169 2.27132 19.2159 2.28175 19.31 2.311C19.825 2.471 20.272 2.719 20.652 3.098C21.032 3.477 21.279 3.925 21.439 4.44C21.498 4.63003 21.4791 4.83571 21.3864 5.01181C21.2938 5.18791 21.135 5.31999 20.945 5.379C20.8509 5.40822 20.7519 5.41862 20.6538 5.40961C20.5557 5.40059 20.4604 5.37235 20.3732 5.32647C20.1971 5.23383 20.065 5.07503 20.006 4.885C19.906 4.564 19.772 4.34 19.591 4.159C19.3874 3.96201 19.1378 3.81901 18.865 3.743C18.6751 3.68404 18.5165 3.55212 18.4238 3.37624C18.3312 3.20036 18.3122 2.9949 18.371 2.805ZM20.991 16.709C20.8924 16.7082 20.7949 16.688 20.7042 16.6495C20.6134 16.611 20.5311 16.555 20.462 16.4847C20.3929 16.4144 20.3384 16.3312 20.3015 16.2398C20.2646 16.1484 20.246 16.0506 20.247 15.952C20.2496 15.5853 20.2506 15.1847 20.25 14.75V13.386C20.25 13.1871 20.329 12.9963 20.4696 12.8557C20.6103 12.715 20.8011 12.636 21 12.636C21.1989 12.636 21.3896 12.715 21.5303 12.8557C21.6709 12.9963 21.75 13.1871 21.75 13.386V14.752C21.75 15.186 21.749 15.5903 21.747 15.965C21.7462 16.0636 21.726 16.161 21.6875 16.2518C21.649 16.3426 21.593 16.4248 21.5227 16.4939C21.4524 16.563 21.3692 16.6176 21.2777 16.6545C21.1863 16.6914 21.0895 16.7099 20.991 16.709ZM20.99 6.791C21.0885 6.79021 21.1861 6.80883 21.2774 6.84579C21.3687 6.88275 21.4519 6.93733 21.5221 7.00642C21.5923 7.07551 21.6482 7.15775 21.6866 7.24844C21.725 7.33913 21.7452 7.43651 21.746 7.535C21.7486 7.909 21.7496 8.31333 21.749 8.748V10.114C21.749 10.3129 21.6699 10.5037 21.5293 10.6443C21.3886 10.785 21.1979 10.864 20.999 10.864C20.8001 10.864 20.6093 10.785 20.4686 10.6443C20.328 10.5037 20.249 10.3129 20.249 10.114V8.75C20.249 8.31467 20.248 7.914 20.246 7.548C20.245 7.44951 20.2635 7.3518 20.3004 7.26045C20.3372 7.1691 20.3917 7.08591 20.4607 7.01561C20.5297 6.94532 20.6118 6.8893 20.7025 6.85076C20.7931 6.81222 20.8915 6.79191 20.99 6.791Z" fill="black"/>
<path fill-rule="evenodd" clip-rule="evenodd" d="M10.7474 20.75C10.7474 20.5511 10.6684 20.3603 10.5278 20.2197C10.3871 20.079 10.1963 20 9.99744 20H9.08744C8.6521 20 8.25144 19.999 7.88544 19.997C7.78695 19.9961 7.68925 20.0147 7.59793 20.0516C7.50661 20.0885 7.42345 20.143 7.3532 20.2121C7.28296 20.2811 7.22699 20.3633 7.18851 20.454C7.15004 20.5446 7.12979 20.642 7.12894 20.7405C7.12808 20.839 7.14664 20.9367 7.18354 21.028C7.22044 21.1193 7.27497 21.2025 7.34401 21.2727C7.41305 21.343 7.49525 21.3989 7.58592 21.4374C7.67659 21.4759 7.77395 21.4961 7.87244 21.497C8.2471 21.4997 8.65144 21.5007 9.08544 21.5H9.99644C10.1953 21.5 10.3861 21.421 10.5268 21.2803C10.6674 21.1397 10.7474 20.9489 10.7474 20.75ZM10.7464 2.75C10.7464 2.55109 10.6674 2.36032 10.5268 2.21967C10.3861 2.07902 10.1953 2 9.99644 2H9.08444C8.6511 2 8.24677 2.001 7.87144 2.003C7.67252 2.00472 7.48244 2.08539 7.34301 2.22727C7.20358 2.36914 7.12621 2.56059 7.12794 2.7595C7.12966 2.95841 7.21033 3.14849 7.3522 3.28793C7.49407 3.42736 7.68553 3.50472 7.88444 3.503C8.25177 3.501 8.65277 3.5 9.08744 3.5H9.99744C10.1963 3.5 10.3871 3.42098 10.5278 3.28033C10.6684 3.13968 10.7464 2.94891 10.7464 2.75ZM5.71644 20.695C5.77521 20.5051 5.7562 20.2996 5.66357 20.1238C5.57094 19.9479 5.41227 19.816 5.22244 19.757C4.90244 19.657 4.67844 19.522 4.49644 19.341C4.31444 19.16 4.18044 18.936 4.08144 18.615C4.02243 18.425 3.89034 18.2662 3.71425 18.1735C3.62705 18.1277 3.53168 18.0994 3.43357 18.0904C3.33546 18.0814 3.23653 18.0918 3.14244 18.121C3.04835 18.1502 2.96093 18.1977 2.88518 18.2607C2.80943 18.3237 2.74684 18.401 2.70096 18.4882C2.65509 18.5754 2.62684 18.6708 2.61783 18.7689C2.60882 18.867 2.61922 18.9659 2.64844 19.06C2.80844 19.575 3.05644 20.022 3.43544 20.402C3.81444 20.782 4.26244 21.029 4.77744 21.189C4.87153 21.2183 4.97046 21.2287 5.06858 21.2197C5.16671 21.2107 5.26209 21.1824 5.3493 21.1366C5.4365 21.0907 5.51381 21.0281 5.5768 20.9523C5.6398 20.8765 5.68725 20.7891 5.71644 20.695ZM5.71644 2.805C5.68725 2.71089 5.6398 2.62345 5.5768 2.54769C5.51381 2.47192 5.4365 2.40931 5.3493 2.36343C5.26209 2.31756 5.16671 2.28931 5.06858 2.28032C4.97046 2.27132 4.87153 2.28175 4.77744 2.311C4.26244 2.471 3.81544 2.719 3.43544 3.098C3.05544 3.477 2.80844 3.925 2.64844 4.44C2.58943 4.63003 2.60832 4.83571 2.70096 5.01181C2.79361 5.18791 2.95241 5.31999 3.14244 5.379C3.23653 5.40822 3.33546 5.41862 3.43357 5.40961C3.53168 5.40059 3.62705 5.37235 3.71425 5.32647C3.89034 5.23383 4.02243 5.07503 4.08144 4.885C4.18144 4.564 4.31544 4.34 4.49644 4.159C4.7 3.96201 4.94956 3.81901 5.22244 3.743C5.41227 3.68404 5.57094 3.55212 5.66357 3.37624C5.7562 3.20036 5.77521 2.9949 5.71644 2.805ZM3.09644 16.709C3.19501 16.7082 3.29247 16.688 3.38323 16.6495C3.47399 16.611 3.55627 16.555 3.62537 16.4847C3.69447 16.4144 3.74904 16.3312 3.78594 16.2398C3.82284 16.1484 3.84136 16.0506 3.84044 15.952C3.83777 15.5853 3.83677 15.1847 3.83744 14.75V13.386C3.83744 13.1871 3.75842 12.9963 3.61777 12.8557C3.47712 12.715 3.28635 12.636 3.08744 12.636C2.88852 12.636 2.69776 12.715 2.55711 12.8557C2.41645 12.9963 2.33744 13.1871 2.33744 13.386V14.752C2.33744 15.186 2.33844 15.5903 2.34044 15.965C2.34122 16.0636 2.36143 16.161 2.39991 16.2518C2.43839 16.3426 2.49439 16.4248 2.5647 16.4939C2.635 16.563 2.71824 16.6176 2.80966 16.6545C2.90107 16.6914 2.99786 16.7099 3.09644 16.709ZM3.09744 6.791C2.99894 6.79021 2.90126 6.80883 2.80996 6.84579C2.71867 6.88275 2.63554 6.93733 2.56534 7.00642C2.49514 7.07551 2.43923 7.15775 2.40082 7.24844C2.3624 7.33913 2.34222 7.43651 2.34144 7.535C2.33877 7.909 2.33777 8.31333 2.33844 8.748V10.114C2.33844 10.3129 2.41745 10.5037 2.55811 10.6443C2.69876 10.785 2.88952 10.864 3.08844 10.864C3.28735 10.864 3.47811 10.785 3.61877 10.6443C3.75942 10.5037 3.83844 10.3129 3.83844 10.114V8.75C3.83844 8.31467 3.83944 7.914 3.84144 7.548C3.84236 7.44951 3.82387 7.3518 3.78703 7.26045C3.75019 7.1691 3.69572 7.08591 3.62673 7.01561C3.55773 6.94532 3.47557 6.8893 3.38492 6.85076C3.29428 6.81222 3.19593 6.79191 3.09744 6.791Z" fill="black"/>
</g>
<defs>
<clipPath id="clip0_221_20708">
<rect width="24" height="24" fill="white"/>
</clipPath>
</defs>
</svg>
