<svg width="24" height="24" viewBox="0 0 24 24" fill="none" xmlns="http://www.w3.org/2000/svg">
<path d="M12.7463 9.30852L21.9919 9.28394C22.4035 9.28284 22.7383 9.61593 22.7394 10.0275C22.7405 10.4391 22.4074 10.774 21.9959 10.7751L2.01314 10.8282C1.60155 10.8293 1.26672 10.4962 1.26563 10.0846C1.26453 9.67302 1.59759 9.33816 2.00917 9.33706L11.2552 9.31248L11.2467 6.12675L8.63581 6.12605C8.44609 6.12244 8.25817 6.04667 8.11573 5.90043C7.82898 5.60502 7.8359 5.13214 8.13131 4.84539L11.4613 1.60819C11.5255 1.54613 11.5981 1.49779 11.6753 1.46318C11.7682 1.42123 11.8712 1.39775 11.9797 1.39746C12.1865 1.39691 12.374 1.48076 12.5094 1.61656L15.8605 4.84526C16.1564 5.13044 16.1648 5.60329 15.8797 5.89921C15.7316 6.05284 15.533 6.12925 15.3348 6.12716L12.7378 6.12716L12.7463 9.30852Z" fill="black"/>
<path d="M22.0055 14.7325L12.7597 14.757L12.7741 20.1668L14.8439 18.1545C14.9869 18.0158 15.1713 17.9458 15.3562 17.9439C15.5533 17.9418 15.7509 18.0172 15.8989 18.1691C16.1857 18.4645 16.1787 18.9374 15.8833 19.2241L12.5533 22.4613C12.4984 22.5144 12.4374 22.5574 12.3726 22.5904C12.2714 22.6423 12.1567 22.6717 12.0352 22.6721C11.8462 22.6726 11.6735 22.6026 11.5417 22.487C11.5329 22.4793 11.5242 22.4713 11.5157 22.4631L8.15411 19.2243C7.8582 18.9391 7.8498 18.4662 8.13498 18.1703C8.27883 18.0211 8.47042 17.9447 8.66297 17.9424L8.65941 17.9385L11.2771 17.9406L11.2686 14.761L2.02275 14.7856C1.61116 14.7867 1.27633 14.4536 1.27524 14.042C1.27414 13.6304 1.6072 13.2956 2.01878 13.2945L22.0015 13.2414C22.4131 13.2403 22.7479 13.5733 22.749 13.9849C22.7501 14.3965 22.4171 14.7314 22.0055 14.7325Z" fill="black"/>
</svg>
