<svg width="24" height="24" viewBox="0 0 24 24" fill="none" xmlns="http://www.w3.org/2000/svg">
<path d="M9.2832 11.2886V2.04289C9.2832 1.63131 9.61718 1.29736 10.0288 1.29736C10.4403 1.29736 10.7743 1.63131 10.7743 2.04289V22.0257C10.7743 22.4373 10.4403 22.7712 10.0288 22.7712C9.61718 22.7712 9.2832 22.4373 9.2832 22.0257V12.7796H6.09749L6.08984 15.3906C6.08572 15.5803 6.0094 15.768 5.8628 15.91C5.56662 16.196 5.09377 16.1878 4.8078 15.8916L1.57946 12.553C1.51711 12.4882 1.46871 12.4149 1.43425 12.3369C1.39303 12.2444 1.37012 12.1419 1.37012 12.0341C1.37012 11.8271 1.45456 11.6398 1.59085 11.5047L4.82822 8.16245C5.11418 7.8673 5.58706 7.86016 5.88221 8.14612C6.03548 8.29462 6.11136 8.4935 6.10871 8.69173L6.10186 11.2886H9.2832Z" fill="black"/>
<path d="M14.7317 2.04389V11.2897H17.9166L17.9255 8.70892C17.922 8.50935 17.9979 8.30895 18.1521 8.15955C18.4483 7.87358 18.9211 7.88176 19.2071 8.17794L22.4354 11.5165C22.4883 11.5716 22.5312 11.6327 22.564 11.6976C22.6157 11.799 22.6448 11.9137 22.6448 12.0352C22.6448 12.2291 22.5707 12.4058 22.4492 12.5384L22.4442 12.5439L22.4344 12.5542L19.1867 15.9071C18.9007 16.2023 18.4278 16.2094 18.1327 15.9235C17.9838 15.7792 17.908 15.5875 17.9061 15.395L17.9023 15.3984L17.9114 12.7808H14.7317V22.0267C14.7317 22.4383 14.3977 22.7722 13.9861 22.7722C13.5745 22.7722 13.2406 22.4383 13.2406 22.0267V2.04389C13.2406 1.63231 13.5745 1.29836 13.9861 1.29836C14.3977 1.29836 14.7317 1.63231 14.7317 2.04389Z" fill="black"/>
</svg>
