<svg width="24" height="24" viewBox="0 0 24 24" fill="none" xmlns="http://www.w3.org/2000/svg">
<g clip-path="url(#clip0_221_20381)">
<path fill-rule="evenodd" clip-rule="evenodd" d="M21.9996 21.2768C21.9996 21.4684 21.9235 21.6522 21.7881 21.7878C21.6525 21.9233 21.4687 21.9993 21.2771 21.9993C21.0854 21.9993 20.9016 21.9233 20.7661 21.7878L17.1001 18.1218C15.3002 19.6576 12.9759 20.4371 10.614 20.297C8.2522 20.1569 6.03627 19.108 4.43064 17.3703C2.82502 15.6325 1.95433 13.3407 2.00106 10.9752C2.04778 8.60967 3.00829 6.35405 4.68129 4.68105C6.35429 3.00805 8.60991 2.04754 10.9754 2.00081C13.3409 1.95409 15.6327 2.82477 17.3705 4.4304C19.1083 6.03603 20.1571 8.25196 20.2972 10.6138C20.4373 12.9756 19.6578 15.3 18.1221 17.0998L21.7881 20.7658C21.9235 20.9014 21.9996 21.0852 21.9996 21.2768ZM13.9928 10.9853C13.9928 11.3957 13.7205 11.733 13.3892 11.733H8.56038C8.22901 11.733 7.95679 11.3957 7.95679 10.9853C7.95679 10.5748 8.22901 10.2375 8.56038 10.2375H13.3892C13.7205 10.2375 13.9928 10.5748 13.9928 10.9853Z" fill="black"/>
</g>
<defs>
<clipPath id="clip0_221_20381">
<rect width="24" height="24" fill="white"/>
</clipPath>
</defs>
</svg>
