<svg width="24" height="24" viewBox="0 0 24 24" fill="none" xmlns="http://www.w3.org/2000/svg">
<path d="M12 0.25C12.1989 0.25 12.3896 0.329074 12.5303 0.469727C12.6709 0.610379 12.75 0.801088 12.75 1V23C12.75 23.1989 12.6709 23.3896 12.5303 23.5303C12.3896 23.6709 12.1989 23.75 12 23.75C11.8011 23.75 11.6104 23.6709 11.4697 23.5303C11.3291 23.3896 11.25 23.1989 11.25 23V1C11.25 0.801088 11.3291 0.610379 11.4697 0.469727C11.6104 0.329074 11.8011 0.25 12 0.25Z" fill="black"/>
<path d="M5.10059 7.25195C5.29285 7.23906 5.4828 7.3005 5.63086 7.42383L10.0059 11.4238C10.0827 11.4941 10.1445 11.5805 10.1865 11.6758C10.2284 11.7709 10.25 11.8736 10.25 11.9775C10.25 12.0817 10.2285 12.185 10.1865 12.2803C10.1445 12.3756 10.0827 12.461 10.0059 12.5312L5.63086 16.5303C5.48419 16.6644 5.29036 16.7353 5.0918 16.7266C4.89309 16.7178 4.70561 16.6301 4.57129 16.4834C4.43696 16.3366 4.36619 16.1421 4.375 15.9434C4.37541 15.9342 4.37816 15.9252 4.37891 15.916L4.3877 12.7266H1.5C1.30118 12.7265 1.11034 12.6474 0.969727 12.5068C0.829152 12.3663 0.750087 12.1754 0.75 11.9766C0.75 11.7778 0.829209 11.5869 0.969727 11.4463C1.11036 11.3057 1.30112 11.2266 1.5 11.2266H4.3916L4.40137 8.00781C4.39919 7.81768 4.46923 7.63463 4.59766 7.49414C4.72786 7.35184 4.90813 7.26498 5.10059 7.25195Z" fill="black"/>
<path d="M18.9092 7.25098C19.1078 7.2599 19.2945 7.34749 19.4287 7.49414C19.563 7.64094 19.6338 7.83539 19.625 8.03418C19.6244 8.04772 19.6195 8.06081 19.6182 8.07422L19.6104 11.251H22.5C22.6989 11.251 22.8896 11.3301 23.0303 11.4707C23.1709 11.6114 23.25 11.8021 23.25 12.001C23.25 12.1999 23.1709 12.3906 23.0303 12.5312C22.8896 12.6719 22.6989 12.751 22.5 12.751H19.6064L19.5977 15.9434C19.5979 15.9489 19.5995 15.9544 19.5996 15.96C19.5998 15.9678 19.5977 15.9756 19.5977 15.9834V16.0469L19.5928 16.043C19.5782 16.206 19.5147 16.3616 19.4033 16.4834C19.2732 16.6258 19.0928 16.7125 18.9004 16.7256C18.7078 16.7386 18.5174 16.6764 18.3691 16.5527L13.9941 12.5527C13.9173 12.4825 13.8555 12.397 13.8135 12.3018C13.7716 12.2065 13.75 12.1031 13.75 11.999C13.7501 11.8951 13.7716 11.7923 13.8135 11.6973C13.8555 11.602 13.9173 11.5165 13.9941 11.4463L18.3691 7.44727C18.5159 7.31293 18.7104 7.24216 18.9092 7.25098Z" fill="black"/>
</svg>
