<svg width="24" height="24" viewBox="0 0 24 24" fill="none" xmlns="http://www.w3.org/2000/svg">
<g clip-path="url(#clip0_221_20391)">
<path fill-rule="evenodd" clip-rule="evenodd" d="M21.9996 21.2768C21.9996 21.4684 21.9235 21.6522 21.7881 21.7878C21.6525 21.9233 21.4687 21.9993 21.2771 21.9993C21.0854 21.9993 20.9016 21.9233 20.7661 21.7878L17.1001 18.1218C15.3002 19.6576 12.9759 20.4371 10.614 20.297C8.2522 20.1569 6.03627 19.108 4.43064 17.3703C2.82502 15.6325 1.95433 13.3407 2.00106 10.9752C2.04778 8.60967 3.00829 6.35405 4.68129 4.68105C6.35429 3.00805 8.60991 2.04754 10.9754 2.00081C13.3409 1.95409 15.6327 2.82477 17.3705 4.4304C19.1083 6.03603 20.1571 8.25196 20.2972 10.6138C20.4373 12.9756 19.6578 15.3 18.1221 17.0998L21.7881 20.7658C21.9235 20.9014 21.9996 21.0852 21.9996 21.2768ZM15.2469 8.97874C15.2469 8.77677 15.1664 8.58391 15.0244 8.44116V8.44268C14.7298 8.14807 14.2454 8.14807 13.9508 8.44268L10.4277 11.9658L8.93945 10.5368C8.79822 10.4009 8.60915 10.325 8.41325 10.325C7.9964 10.325 7.6532 10.6682 7.6532 11.085C7.6532 11.2916 7.73748 11.489 7.88706 11.6325L9.91135 13.5763C10.2082 13.861 10.6843 13.8557 10.9744 13.5649L15.0244 9.51557C15.1664 9.37358 15.2469 9.17996 15.2469 8.97874Z" fill="black"/>
</g>
<defs>
<clipPath id="clip0_221_20391">
<rect width="24" height="24" fill="white"/>
</clipPath>
</defs>
</svg>
