<svg width="24" height="24" viewBox="0 0 24 24" fill="none" xmlns="http://www.w3.org/2000/svg">
<path fill-rule="evenodd" clip-rule="evenodd" d="M6.22547 5.95105L1.7306 10.5654C1.04123 11.2733 1.03917 12.4017 1.72648 13.1128L6.22855 17.7684C6.51708 18.0662 6.99212 18.0744 7.28992 17.7859C7.5867 17.4984 7.59494 17.0233 7.30744 16.7255L2.80433 12.0699C2.68068 11.9421 2.68172 11.7391 2.80537 11.6113L7.30024 6.99698C7.58877 6.70124 7.58258 6.22614 7.2858 5.93658C6.98903 5.64806 6.514 5.65428 6.22547 5.95105Z" fill="black"/>
<path fill-rule="evenodd" clip-rule="evenodd" d="M17.7093 17.7614L22.2042 13.147C22.8936 12.4391 22.8956 11.3107 22.2083 10.5997L17.7062 5.94405C17.4177 5.64625 16.9427 5.63804 16.6449 5.92657C16.3481 6.21407 16.3398 6.6891 16.6273 6.9869L21.1304 11.6425C21.2541 11.7703 21.2531 11.9733 21.1294 12.1011L16.6345 16.7155C16.346 17.0112 16.3522 17.4863 16.649 17.7759C16.9458 18.0644 17.4208 18.0582 17.7093 17.7614Z" fill="black"/>
<path d="M9.17871 11.8608C9.17871 10.379 10.3813 9.17651 11.8631 9.17651C13.3438 9.17651 14.5464 10.379 14.5464 11.8608C14.5464 13.3416 13.3438 14.5442 11.8631 14.5442C10.3813 14.5442 9.17871 13.3416 9.17871 11.8608Z" fill="black"/>
</svg>
