<svg width="24" height="24" viewBox="0 0 24 24" fill="none" xmlns="http://www.w3.org/2000/svg">
<g clip-path="url(#clip0_221_20376)">
<path fill-rule="evenodd" clip-rule="evenodd" d="M21.7881 21.7878C21.9235 21.6522 21.9996 21.4684 21.9996 21.2768C21.9996 21.0852 21.9235 20.9014 21.7881 20.7658L18.1221 17.0998C19.6578 15.3 20.4373 12.9756 20.2972 10.6138C20.1571 8.25196 19.1083 6.03603 17.3705 4.4304C15.6327 2.82477 13.3409 1.95409 10.9754 2.00081C8.60991 2.04754 6.35429 3.00805 4.68129 4.68105C3.00829 6.35405 2.04778 8.60967 2.00106 10.9752C1.95433 13.3407 2.82502 15.6325 4.43064 17.3703C6.03627 19.108 8.2522 20.1569 10.614 20.297C12.9759 20.4371 15.3002 19.6576 17.1001 18.1218L20.7661 21.7878C20.9016 21.9233 21.0854 21.9993 21.2771 21.9993C21.4687 21.9993 21.6525 21.9233 21.7881 21.7878ZM11.1571 8.02381C11.5561 8.02381 11.8801 8.34781 11.8801 8.74681V10.4338H13.5661C13.7578 10.4338 13.9417 10.51 14.0773 10.6456C14.2129 10.7812 14.2891 10.9651 14.2891 11.1568C14.2891 11.3486 14.2129 11.5325 14.0773 11.668C13.9417 11.8036 13.7578 11.8798 13.5661 11.8798H11.8801V13.5658C11.8837 13.6629 11.8677 13.7598 11.833 13.8506C11.7983 13.9414 11.7457 14.0243 11.6782 14.0943C11.6108 14.1643 11.5299 14.22 11.4404 14.2581C11.351 14.2961 11.2548 14.3157 11.1576 14.3157C11.0603 14.3157 10.9641 14.2961 10.8747 14.2581C10.7852 14.22 10.7043 14.1643 10.6369 14.0943C10.5694 14.0243 10.5168 13.9414 10.4821 13.8506C10.4474 13.7598 10.4314 13.6629 10.4351 13.5658V11.8798H8.74705C8.64991 11.8834 8.55304 11.8674 8.46222 11.8327C8.37141 11.798 8.28853 11.7454 8.21852 11.678C8.14852 11.6105 8.09284 11.5296 8.0548 11.4402C8.01677 11.3507 7.99717 11.2545 7.99717 11.1573C7.99717 11.0601 8.01677 10.9639 8.0548 10.8744C8.09284 10.785 8.14852 10.7041 8.21852 10.6367C8.28853 10.5692 8.37141 10.5166 8.46222 10.4819C8.55304 10.4472 8.64991 10.4312 8.74705 10.4348H10.4341V8.74681C10.4341 8.34681 10.7571 8.02381 11.1571 8.02381Z" fill="black"/>
</g>
<defs>
<clipPath id="clip0_221_20376">
<rect width="24" height="24" fill="white"/>
</clipPath>
</defs>
</svg>
