<svg width="24" height="24" viewBox="0 0 24 24" fill="none" xmlns="http://www.w3.org/2000/svg">
<path fill-rule="evenodd" clip-rule="evenodd" d="M14.0415 3.56314C14.0415 4.72214 13.2185 5.74415 12.1415 6.06215V12.2632C12.1415 12.2682 12.1415 12.2732 12.1415 12.2782C13.2755 11.0902 14.8775 10.3632 16.6415 10.3632C20.1415 10.3632 22.8415 13.0632 22.8415 16.5632C22.8415 19.9632 20.1415 22.7632 16.6415 22.7632C13.2415 22.7632 10.4415 19.9632 10.4415 16.5632C10.4415 15.2492 10.8365 14.0482 11.5085 13.0602C11.4865 13.0622 11.4645 13.0632 11.4415 13.0632H8.64147C8.64147 13.0632 7.14147 12.9632 6.04147 13.9632C5.31946 14.5942 4.67946 15.6322 4.56146 17.3702C5.62847 17.6942 6.44147 18.7112 6.44147 19.8632C6.44147 21.2632 5.24146 22.4632 3.84146 22.4632C2.44146 22.4632 1.24146 21.2632 1.24146 19.8632C1.24146 18.6982 2.07146 17.6722 3.15746 17.3602C3.28046 15.0362 4.11846 13.6942 5.04146 12.8632C6.54147 11.5632 8.44147 11.5632 8.64147 11.5632H10.6415V6.04215C9.56647 5.70415 8.84147 4.69914 8.84147 3.56314C8.84147 2.16314 9.94147 0.963135 11.4415 0.963135C12.8415 0.963135 14.0415 2.16314 14.0415 3.56314ZM17.0415 19.6632C16.8415 19.7632 16.6415 19.7632 16.4415 19.7632L16.0415 19.5632L13.9415 17.5632C13.6415 17.2632 13.6415 16.7632 13.9415 16.4632C14.2415 16.1632 14.7415 16.1632 15.0415 16.4632L15.8415 17.2632V13.6632C15.8415 13.2632 16.2415 12.8632 16.6415 12.8632C17.0415 12.8632 17.3415 13.2632 17.3415 13.6632V17.2632L18.2415 16.4632C18.6415 16.1632 19.0415 16.1632 19.3415 16.4632C19.6415 16.7632 19.6415 17.2632 19.3415 17.5632L17.1415 19.5632L17.0415 19.6632Z" fill="black"/>
</svg>
