<svg width="24" height="24" viewBox="0 0 24 24" fill="none" xmlns="http://www.w3.org/2000/svg">
<path fill-rule="evenodd" clip-rule="evenodd" d="M11.439 1C10.0037 1 8.83838 2.16539 8.83838 3.60064C8.83838 4.77547 9.61918 5.76943 10.6897 6.09146V11.6258H8.69871C8.45104 11.6131 6.58605 11.5708 5.07458 12.8811C4.11943 13.708 3.2731 15.0817 3.14075 17.4034C2.06134 17.7199 1.27209 18.7183 1.27209 19.8995C1.27209 21.3347 2.43745 22.5 3.8727 22.5C5.30796 22.5 6.47331 21.3347 6.47331 19.8995C6.47331 18.7319 5.70209 17.7429 4.64174 17.4146C4.75511 15.6901 5.33376 14.639 6.05577 14.0137C7.19889 13.023 8.62568 13.1224 8.62568 13.1224C8.64367 13.1235 8.66273 13.1246 8.68072 13.1246H11.439C11.4757 13.1246 11.5117 13.1219 11.5469 13.1169C10.8905 14.1007 10.5078 15.2828 10.5078 16.5543C10.5078 19.9791 13.2842 22.7555 16.709 22.7555C20.1339 22.7555 22.9103 19.9791 22.9103 16.5543C22.9103 13.1294 20.1339 10.353 16.709 10.353C14.9265 10.353 13.3197 11.1051 12.1885 12.3093V6.09141C13.2589 5.76931 14.0396 4.7754 14.0396 3.60064C14.0396 2.16539 12.8742 1 11.439 1ZM19.4169 15.5557L17.3156 13.553C17.2279 13.4622 17.1177 13.3933 16.9941 13.3551C16.7811 13.2892 16.5444 13.3195 16.3525 13.4468C16.3133 13.4727 16.2767 13.5022 16.243 13.5347L14.0711 15.53C13.7626 15.8128 13.7423 16.2926 14.0261 16.6011C14.3089 16.9096 14.7887 16.9299 15.0972 16.6461L16.0118 15.8063V19.4321C16.0118 19.8509 16.3514 20.1904 16.7702 20.1904C17.189 20.1904 17.5285 19.8509 17.5285 19.4321V15.8509L18.3704 16.6536C18.6735 16.9417 19.1534 16.931 19.4426 16.6279C19.7307 16.3248 19.72 15.8449 19.4169 15.5557Z" fill="black"/>
</svg>
