<svg width="24" height="24" viewBox="0 0 24 24" fill="none" xmlns="http://www.w3.org/2000/svg">
<g clip-path="url(#clip0_221_20484)">
<path fill-rule="evenodd" clip-rule="evenodd" d="M2 12C2 12.385 2.312 12.698 2.698 12.698H4.59C4.75273 14.4231 5.51216 16.0374 6.7374 17.2626C7.96263 18.4878 9.57691 19.2473 11.302 19.41V21.302C11.302 21.4871 11.3755 21.6647 11.5064 21.7956C11.6373 21.9265 11.8149 22 12 22C12.1851 22 12.3627 21.9265 12.4936 21.7956C12.6245 21.6647 12.698 21.4871 12.698 21.302V19.41C14.4231 19.2473 16.0374 18.4878 17.2626 17.2626C18.4878 16.0374 19.2473 14.4231 19.41 12.698H21.302C21.4871 12.698 21.6647 12.6245 21.7956 12.4936C21.9265 12.3627 22 12.1851 22 12C22 11.8149 21.9265 11.6373 21.7956 11.5064C21.6647 11.3755 21.4871 11.302 21.302 11.302H19.41C19.2473 9.57691 18.4878 7.96263 17.2626 6.7374C16.0374 5.51216 14.4231 4.75273 12.698 4.59V2.698C12.698 2.51288 12.6245 2.33534 12.4936 2.20444C12.3627 2.07354 12.1851 2 12 2C11.8149 2 11.6373 2.07354 11.5064 2.20444C11.3755 2.33534 11.302 2.51288 11.302 2.698V4.59C9.57691 4.75273 7.96263 5.51216 6.7374 6.7374C5.51216 7.96263 4.75273 9.57691 4.59 11.302H2.698C2.51304 11.3025 2.33581 11.3762 2.20502 11.507C2.07424 11.6378 2.00053 11.815 2 12ZM8.512 12C8.512 11.0749 8.87948 10.1877 9.53361 9.53361C10.1877 8.87948 11.0749 8.512 12 8.512C12.9251 8.512 13.8123 8.87948 14.4664 9.53361C15.1205 10.1877 15.488 11.0749 15.488 12C15.488 12.9251 15.1205 13.8123 14.4664 14.4664C13.8123 15.1205 12.9251 15.488 12 15.488C11.0749 15.488 10.1877 15.1205 9.53361 14.4664C8.87948 13.8123 8.512 12.9251 8.512 12Z" fill="black"/>
<path d="M9.90698 12C9.90698 11.4449 10.1275 10.9125 10.52 10.52C10.9125 10.1275 11.4449 9.90698 12 9.90698C12.5551 9.90698 13.0874 10.1275 13.48 10.52C13.8725 10.9125 14.093 11.4449 14.093 12C14.093 12.5551 13.8725 13.0874 13.48 13.48C13.0874 13.8725 12.5551 14.093 12 14.093C11.4449 14.093 10.9125 13.8725 10.52 13.48C10.1275 13.0874 9.90698 12.5551 9.90698 12Z" fill="black"/>
</g>
<defs>
<clipPath id="clip0_221_20484">
<rect width="24" height="24" fill="white"/>
</clipPath>
</defs>
</svg>
