<svg width="24" height="24" viewBox="0 0 24 24" fill="none" xmlns="http://www.w3.org/2000/svg">
<path d="M15 6.25C16.525 6.25 17.9871 6.85624 19.0654 7.93457C20.1438 9.0129 20.75 10.475 20.75 12C20.75 13.525 20.1438 14.9871 19.0654 16.0654C17.9871 17.1438 16.525 17.75 15 17.75H7.75586L7.75 20.0469L7.74414 20.041C7.73403 20.2247 7.66098 20.3994 7.53027 20.5303C7.38965 20.6707 7.19875 20.749 7 20.749C6.80125 20.749 6.61035 20.6707 6.46973 20.5303L3.46973 17.5303C3.32928 17.3896 3.25098 17.1988 3.25098 17C3.25098 16.8012 3.32928 16.6104 3.46973 16.4697L6.46973 13.4697C6.53839 13.396 6.62187 13.3369 6.71387 13.2959C6.80574 13.255 6.90532 13.2332 7.00586 13.2314C7.10643 13.2297 7.20653 13.2485 7.2998 13.2861C7.39309 13.3239 7.47768 13.38 7.54883 13.4512C7.61998 13.5223 7.67615 13.6069 7.71387 13.7002C7.75154 13.7935 7.77028 13.8936 7.76855 13.9941C7.76829 14.0094 7.76584 14.0249 7.76465 14.04L7.75977 16.25H15C16.1272 16.25 17.2079 15.8019 18.0049 15.0049C18.8019 14.2079 19.25 13.1272 19.25 12C19.25 10.8728 18.8019 9.79215 18.0049 8.99512C17.2079 8.19809 16.1272 7.75 15 7.75H8C7.80109 7.75 7.61038 7.67093 7.46973 7.53027C7.32907 7.38962 7.25 7.19891 7.25 7C7.25 6.80109 7.32907 6.61038 7.46973 6.46973C7.61038 6.32907 7.80109 6.25 8 6.25H15Z" fill="black"/>
</svg>
