<svg width="24" height="24" viewBox="0 0 24 24" fill="none" xmlns="http://www.w3.org/2000/svg">
<g clip-path="url(#clip0_221_20924)">
<path fill-rule="evenodd" clip-rule="evenodd" d="M7.76798 10.061C7.76298 10.143 7.74498 10.223 7.71398 10.3C7.67598 10.393 7.61998 10.478 7.54898 10.549C7.47798 10.62 7.39298 10.677 7.29998 10.714C7.20598 10.752 7.10598 10.77 7.00598 10.769C6.90498 10.767 6.80598 10.745 6.71398 10.704C6.62198 10.663 6.53898 10.604 6.46998 10.53L3.46998 7.52998C3.32998 7.38898 3.25098 7.19898 3.25098 6.99998C3.25098 6.80098 3.32998 6.61098 3.46998 6.46998L6.46998 3.46998C6.61098 3.32998 6.80098 3.25098 6.99998 3.25098C7.19898 3.25098 7.38898 3.32998 7.52998 3.46998C7.66298 3.60298 7.73998 3.77998 7.74898 3.96598L7.74998 3.96498L7.75698 6.24998H15.036C15.94 6.24998 16.669 6.24998 17.258 6.30298C17.864 6.35798 18.394 6.47498 18.875 6.75298C19.445 7.08198 19.919 7.55498 20.248 8.12498C20.525 8.60598 20.642 9.13598 20.697 9.74198C20.75 10.331 20.75 11.06 20.75 11.964V12.036C20.75 12.94 20.75 13.669 20.697 14.258C20.642 14.864 20.526 15.394 20.247 15.875C19.918 16.445 19.445 16.919 18.875 17.248C18.394 17.525 17.864 17.642 17.258 17.697C16.669 17.75 15.94 17.75 15.036 17.75H7.99998C7.80098 17.75 7.60998 17.671 7.46998 17.53C7.32898 17.39 7.24998 17.199 7.24998 17C7.24998 16.801 7.32898 16.61 7.46998 16.47C7.60998 16.329 7.80098 16.25 7.99998 16.25H15C15.948 16.25 16.61 16.25 17.122 16.203C17.625 16.157 17.91 16.073 18.125 15.949C18.467 15.752 18.752 15.467 18.949 15.125C19.073 14.91 19.157 14.625 19.203 14.122C19.249 13.61 19.25 12.948 19.25 12C19.25 11.052 19.25 10.39 19.203 9.87798C19.157 9.37498 19.073 9.08998 18.949 8.87498C18.752 8.53298 18.467 8.24898 18.125 8.05098C17.91 7.92698 17.625 7.84298 17.122 7.79698C16.61 7.75098 15.948 7.74998 15 7.74998H7.76198L7.76998 10.063L7.76798 10.061Z" fill="black"/>
</g>
<defs>
<clipPath id="clip0_221_20924">
<rect width="24" height="24" fill="white"/>
</clipPath>
</defs>
</svg>
