<svg width="24" height="24" viewBox="0 0 24 24" fill="none" xmlns="http://www.w3.org/2000/svg">
<path d="M5.93273 4.33543L1.45806 9.03785C1.31891 9.17437 1.23242 9.36447 1.23242 9.57468C1.23242 9.78185 1.31683 9.96988 1.45303 10.1062L5.90924 14.7406C6.19714 15.0408 6.6739 15.0499 6.97303 14.762C7.11762 14.6229 7.19448 14.4396 7.20277 14.2535L7.20316 14.2434C7.2036 14.2291 7.20364 14.2148 7.20328 14.2005L7.21453 10.3271H18.2889C19.8999 10.3271 21.2047 11.6329 21.2057 13.2429V18.8651C21.2057 19.2796 21.5426 19.6175 21.9581 19.6175C22.3726 19.6175 22.7105 19.2796 22.7105 18.8651V13.2429C22.7105 10.8008 20.731 8.82227 18.2889 8.82227H7.21889L7.23047 4.83594L7.22943 4.83679C7.2249 4.64397 7.14679 4.453 6.99652 4.30989C6.69535 4.02301 6.21859 4.03528 5.93273 4.33543Z" fill="black"/>
</svg>
