<svg width="24" height="24" viewBox="0 0 24 24" fill="none" xmlns="http://www.w3.org/2000/svg">
<g clip-path="url(#clip0_221_20649)">
<path d="M8.76 2H12.654C14.418 2 15.816 2 16.909 2.148C18.035 2.3 18.946 2.62 19.664 3.341C20.383 4.062 20.702 4.977 20.853 6.107C21 7.205 21 8.608 21 10.379V16.217C21 17.725 20.08 19.017 18.773 19.559C18.84 18.649 18.84 17.374 18.84 16.312V11.302C18.84 10.021 18.84 8.916 18.722 8.032C18.595 7.084 18.309 6.176 17.575 5.439C16.841 4.702 15.936 4.415 14.992 4.287C14.112 4.169 13.012 4.169 11.735 4.169H8.665C7.389 4.169 6.291 4.169 5.41 4.287C5.67389 3.61329 6.13467 3.03474 6.73224 2.62678C7.32982 2.21883 8.03645 2.00041 8.76 2Z" fill="black"/>
<path d="M17.3999 11.397C17.3999 8.67101 17.3999 7.30801 16.5559 6.46101C15.7129 5.61401 14.3559 5.61401 11.6399 5.61401H8.7599C6.0449 5.61401 4.6869 5.61401 3.8429 6.46101C2.9989 7.30801 2.9999 8.67101 2.9999 11.397V16.217C2.9999 18.943 2.9999 20.306 3.8429 21.153C4.6869 22 6.0449 22 8.7599 22H11.6399C14.3549 22 15.7129 22 16.5559 21.153C17.3999 20.306 17.3999 18.943 17.3999 16.217V11.397Z" fill="black"/>
</g>
<defs>
<clipPath id="clip0_221_20649">
<rect width="24" height="24" fill="white"/>
</clipPath>
</defs>
</svg>
