<svg width="24" height="24" viewBox="0 0 24 24" fill="none" xmlns="http://www.w3.org/2000/svg">
<g clip-path="url(#clip0_221_20412)">
<path fill-rule="evenodd" clip-rule="evenodd" d="M20.536 3.464C22 4.93 22 7.286 22 12V13.138C21.491 12.805 20.931 12.658 20.394 12.587C19.749 12.5 18.955 12.5 18.089 12.5H17.91C17.045 12.5 16.251 12.5 15.606 12.587C14.895 12.682 14.143 12.907 13.526 13.525C12.907 14.143 12.682 14.895 12.586 15.605C12.5 16.251 12.5 17.045 12.5 17.91V18.09C12.5 18.955 12.5 19.749 12.587 20.394C12.659 20.931 12.805 21.491 13.137 21.999L12 22C7.286 22 4.929 22 3.465 20.535C2 19.072 2 16.714 2 12C2 7.286 2 4.929 3.465 3.464C4.928 2 7.286 2 12 2C16.714 2 19.071 2 20.536 3.464Z" fill="black"/>
<path fill-rule="evenodd" clip-rule="evenodd" d="M17.6268 15.4444C17.0301 15.4444 16.4578 15.6815 16.0358 16.1034C15.6139 16.5254 15.3768 17.0977 15.3768 17.6944C15.3768 18.2911 15.6139 18.8634 16.0358 19.2854C16.4578 19.7074 17.0301 19.9444 17.6268 19.9444C18.2236 19.9444 18.7959 19.7074 19.2178 19.2854C19.6398 18.8634 19.8768 18.2911 19.8768 17.6944C19.8768 17.0977 19.6398 16.5254 19.2178 16.1034C18.7959 15.6815 18.2236 15.4444 17.6268 15.4444ZM13.8768 17.6944C13.877 17.1097 14.0139 16.5332 14.2766 16.0108C14.5393 15.4885 14.9204 15.0348 15.3897 14.686C15.8589 14.3372 16.4032 14.1029 16.9791 14.0019C17.555 13.9009 18.1465 13.936 18.7064 14.1043C19.2664 14.2727 19.7792 14.5696 20.2039 14.9714C20.6287 15.3732 20.9536 15.8687 21.1527 16.4185C21.3518 16.9682 21.4196 17.5569 21.3507 18.1375C21.2818 18.7181 21.0781 19.2745 20.7558 19.7624L21.6568 20.6644C21.7305 20.7331 21.7896 20.8159 21.8306 20.9079C21.8716 20.9999 21.8936 21.0992 21.8954 21.1999C21.8972 21.3006 21.8787 21.4006 21.841 21.494C21.8032 21.5874 21.7471 21.6722 21.6759 21.7434C21.6047 21.8147 21.5198 21.8708 21.4264 21.9085C21.333 21.9462 21.233 21.9648 21.1323 21.963C21.0316 21.9612 20.9323 21.9392 20.8403 21.8982C20.7483 21.8572 20.6655 21.7981 20.5968 21.7244L19.6948 20.8234C19.1296 21.1971 18.4737 21.4106 17.7968 21.4413C17.1199 21.472 16.4474 21.3188 15.8506 20.9978C15.2539 20.6769 14.7552 20.2003 14.4077 19.6186C14.0601 19.0369 13.8767 18.372 13.8768 17.6944Z" fill="black"/>
</g>
<defs>
<clipPath id="clip0_221_20412">
<rect width="24" height="24" fill="white"/>
</clipPath>
</defs>
</svg>
