<svg width="24" height="24" viewBox="0 0 24 24" fill="none" xmlns="http://www.w3.org/2000/svg">
<g clip-path="url(#clip0_221_20117)">
<path fill-rule="evenodd" clip-rule="evenodd" d="M21.9089 18.9225L22.2227 17.7487C22.6426 16.1813 22.7998 15.3906 22.6422 14.7119C22.4969 14.0888 22.1698 13.5231 21.703 13.0863C21.1951 12.6103 20.4308 12.3502 18.8635 11.9303C17.2961 11.5099 16.504 11.3532 15.8263 11.5108V11.5112C15.2036 11.6565 14.6379 11.9831 14.2011 12.45C13.7798 12.8996 13.5201 13.5404 13.1936 14.7365L12.7303 16.4633C12.3099 18.0302 12.1532 18.8213 12.3108 19.5C12.4561 20.1231 12.7832 20.6888 13.25 21.1257C13.7579 21.6016 14.5222 21.8617 16.0895 22.2821C17.4742 22.6529 18.2408 22.8237 18.8644 22.7467L19.1254 22.7007C19.7489 22.5554 20.3146 22.2293 20.7519 21.7629L20.7524 21.7624C21.2284 21.2536 21.4884 20.4893 21.9089 18.9225ZM20.3566 18.5061C20.0418 19.6781 19.9352 20.2835 19.579 20.6638C19.3595 20.8979 19.0757 21.0619 18.7633 21.1348C18.7314 21.1421 18.699 21.148 18.6658 21.1521C18.178 21.2117 17.5886 21.0195 16.5059 20.7298C15.3339 20.4156 14.7286 20.309 14.3487 19.9528C14.1136 19.7328 13.9492 19.4486 13.8759 19.1356C13.7584 18.6282 13.9683 18.0511 14.2826 16.8791L14.7445 15.1583C14.97 14.3312 15.082 13.8597 15.3735 13.5491L15.374 13.5486C15.5935 13.3136 15.8782 13.1492 16.1911 13.0763C16.6976 12.9583 17.2752 13.1683 18.4471 13.4826C19.6196 13.7969 20.2245 13.903 20.6043 14.2592C20.8394 14.4792 21.0038 14.7634 21.0771 15.0763C21.1946 15.5837 20.9842 16.1608 20.6704 17.3328L20.3566 18.5061Z" fill="black"/>
<path fill-rule="evenodd" clip-rule="evenodd" d="M15.2691 19.6428L17.0291 20.1143C17.4577 20.2291 17.8986 19.9744 18.0134 19.5458C18.1282 19.1177 17.8736 18.6768 17.445 18.562L15.685 18.0905C15.2564 17.9758 14.8154 18.2304 14.7011 18.659C14.5863 19.0876 14.841 19.5285 15.2691 19.6428ZM15.8868 17.1987L18.8201 17.9844C19.2482 18.0992 19.6896 17.8446 19.8044 17.416C19.9192 16.9878 19.6646 16.5469 19.2359 16.4321L16.3026 15.6459C15.8745 15.5312 15.4331 15.7858 15.3183 16.2144C15.2035 16.6425 15.4581 17.0839 15.8868 17.1987Z" fill="black"/>
<path d="M14.8284 8.82843C15.5786 8.07828 16 7.06087 16 6C16 4.93913 15.5786 3.92172 14.8284 3.17157C14.0783 2.42143 13.0609 2 12 2C10.9391 2 9.92172 2.42143 9.17157 3.17157C8.42143 3.92172 8 4.93913 8 6C8 7.06087 8.42143 8.07828 9.17157 8.82843C9.92172 9.57857 10.9391 10 12 10C13.0609 10 14.0783 9.57857 14.8284 8.82843Z" fill="black"/>
<path d="M10.9863 16.8688L11.9807 13C7.57156 13.0059 4 15.0186 4 17.5C4 19.979 4 21.99 11.938 22C11.4015 21.3004 11.033 20.4869 10.8609 19.6223C10.6889 18.7576 10.7178 17.865 10.9456 17.0133C10.9586 16.965 10.9721 16.9168 10.9863 16.8688Z" fill="black"/>
</g>
<defs>
<clipPath id="clip0_221_20117">
<rect width="24" height="24" fill="white"/>
</clipPath>
</defs>
</svg>
