<svg width="24" height="24" viewBox="0 0 24 24" fill="none" xmlns="http://www.w3.org/2000/svg">
<path d="M8.63855 4.59565C8.63855 2.61036 10.2404 1 12.2257 1C14.2024 1 15.8129 2.61036 15.8129 4.59565C15.8129 6.42857 14.4283 7.94645 12.6509 8.15767C12.8339 8.17523 13.0623 8.19705 13.2738 8.217C13.9384 8.28517 14.5178 8.71967 14.7649 9.34167L17.3211 15.8259C17.5341 16.3797 17.4659 17.0017 17.1336 17.4959C16.8013 17.9816 16.2475 18.2797 15.6511 18.2797H15.2165C15.0717 18.2797 14.9524 18.3735 14.9268 18.5098C14.782 19.2596 14.5689 20.3417 14.4155 21.0916C14.2536 21.9266 13.5124 22.5316 12.6603 22.5316H11.7912C10.9307 22.5316 10.1979 21.9266 10.0275 21.0916C9.88267 20.3417 9.66957 19.2596 9.5162 18.5098C9.49064 18.3735 9.37139 18.2797 9.23506 18.2797H8.79198C8.19554 18.2797 7.64171 17.9816 7.30941 17.4959C6.97711 17.0017 6.90897 16.3797 7.12198 15.8259L9.68668 9.34167C9.92525 8.71967 10.5046 8.28517 11.1692 8.217C11.3822 8.19692 11.6122 8.17493 11.7958 8.15731C10.0142 7.94475 8.63855 6.42754 8.63855 4.59565Z" fill="black"/>
</svg>
