<svg width="24" height="24" viewBox="0 0 24 24" fill="none" xmlns="http://www.w3.org/2000/svg">
<g clip-path="url(#clip0_221_20225)">
<g clip-path="url(#clip1_221_20225)">
<path fill-rule="evenodd" clip-rule="evenodd" d="M21.3091 15.9284C21.3912 16.0706 21.4049 16.0943 21.315 15.9385C21.4211 16.1225 21.5086 16.2766 21.573 16.4064C21.6523 16.5697 21.7134 16.733 21.7364 16.9108C21.7917 17.3272 21.6787 17.749 21.4226 18.0819C21.2933 18.2513 21.128 18.3768 20.9385 18.4968C20.9362 18.4981 20.934 18.4994 20.9317 18.5007C20.9125 18.5118 20.8997 18.5312 20.8966 18.5571C20.9007 18.5773 20.914 18.5952 20.9311 18.6064C20.9328 18.6069 20.9353 18.6085 20.9371 18.6089C21.1281 18.7288 21.2927 18.8549 21.4224 19.0223C21.4231 19.0234 21.4231 19.0234 21.4231 19.0234C21.6789 19.3571 21.7912 19.7782 21.7357 20.1954C21.7358 20.1983 21.7353 20.2001 21.7349 20.2019C21.7087 20.378 21.6524 20.5489 21.5707 20.7044L21.3132 21.1704C21.2835 21.2207 21.2478 21.2865 21.3047 21.1844C21.2176 21.3385 21.127 21.4916 21.0325 21.6379C20.9365 21.7896 20.8167 21.9235 20.6781 22.0351C20.6758 22.0364 20.6735 22.0377 20.6713 22.039C20.3387 22.2942 19.9171 22.4082 19.5 22.3527C19.2899 22.325 19.0977 22.2449 18.9006 22.1406L18.8988 22.1402C18.8771 22.1286 18.8515 22.1208 18.8306 22.1314C18.8127 22.1447 18.8023 22.1658 18.8019 22.1886C18.8021 22.1915 18.8023 22.1944 18.8013 22.1979C18.7931 22.4208 18.7664 22.6273 18.6853 22.8231C18.5248 23.2121 18.2152 23.5202 17.8279 23.6806C17.6623 23.7507 17.4917 23.7784 17.3098 23.7917C17.1639 23.8022 16.9865 23.8023 16.774 23.8017L16.7519 23.8024L16.2159 23.7914C16.036 23.7794 15.8644 23.7506 15.698 23.6812C15.3101 23.5201 15.0015 23.2123 14.8405 22.8239C14.7604 22.6279 14.7335 22.4223 14.7252 22.1969C14.725 22.194 14.7248 22.1911 14.7246 22.1881C14.7246 22.1671 14.714 22.1462 14.6932 22.1311C14.6741 22.1241 14.6526 22.1259 14.6346 22.1363C14.6312 22.1383 14.6289 22.1396 14.6267 22.1409C14.4269 22.2457 14.2356 22.3261 14.0271 22.3532C14.026 22.3538 14.026 22.3538 14.026 22.3538C13.6101 22.4074 13.1883 22.2944 12.8543 22.0389C12.7117 21.9301 12.6016 21.7967 12.4997 21.6464L12.223 21.1878L11.9532 20.6997C11.8739 20.5363 11.8128 20.3731 11.7898 20.1952C11.7345 19.7789 11.8475 19.3571 12.1036 19.0242C12.2318 18.8554 12.3982 18.7292 12.5883 18.6104C12.5917 18.6084 12.5933 18.606 12.5967 18.6041C12.6148 18.5937 12.6271 18.576 12.6296 18.549C12.6255 18.5288 12.6128 18.5121 12.5958 18.5008C12.5933 18.4992 12.5909 18.4976 12.5891 18.4971C12.3981 18.3772 12.2335 18.2511 12.1038 18.0838L12.1031 18.0827C11.8479 17.7501 11.735 17.3279 11.7894 16.9113C11.8132 16.7336 11.8729 16.5713 11.953 16.4077L12.212 15.9392L12.2056 15.9489C12.1532 16.0484 12.1692 16.0135 12.2231 15.9192L12.4996 15.4602C12.6009 15.31 12.712 15.1766 12.8549 15.067C13.1875 14.8119 13.6091 14.6978 14.0262 14.7533C14.2369 14.7821 14.4285 14.8611 14.6256 14.9654C14.6292 14.9664 14.6316 14.968 14.634 14.9696C14.6528 14.9813 14.6756 14.9817 14.6995 14.9709C14.7145 14.9578 14.7244 14.9385 14.7243 14.9175C14.7241 14.9146 14.7239 14.9117 14.7249 14.9081C14.7331 14.6852 14.7598 14.4787 14.8409 14.283C15.0021 13.8951 15.3098 13.5865 15.6983 13.4254C15.8646 13.3565 16.0344 13.3276 16.2163 13.3144L16.7721 13.3049L16.7749 13.3048C16.9857 13.305 17.162 13.3055 17.3073 13.3148C17.4828 13.3218 17.6572 13.3581 17.821 13.4229C17.8239 13.4228 17.8264 13.4244 17.8282 13.4248C18.2161 13.586 18.5253 13.8949 18.6857 14.2822C18.6864 14.2833 18.6864 14.2833 18.6864 14.2833C18.7665 14.4793 18.7934 14.6849 18.801 14.9092C18.8012 14.9121 18.8013 14.915 18.8015 14.9179C18.8016 14.9389 18.8122 14.9599 18.833 14.975C18.8521 14.982 18.8736 14.9801 18.8916 14.9697C18.895 14.9678 18.8972 14.9665 18.8995 14.9652C19.0993 14.8604 19.2894 14.7806 19.4991 14.7529C19.9161 14.6987 20.3379 14.8117 20.6719 15.0672C20.6732 15.0694 20.675 15.0699 20.6775 15.0715C20.8148 15.1817 20.9331 15.3136 21.0284 15.4631L21.3021 15.9189L21.3091 15.9284ZM19.8572 16.1288C19.8058 16.0893 19.7399 16.0716 19.6745 16.0808L19.6738 16.0797C19.6461 16.0837 19.61 16.1045 19.5256 16.1487C19.1081 16.3687 18.593 16.3833 18.1601 16.1338C17.7271 15.8842 17.4816 15.4303 17.4638 14.9591C17.4605 14.8647 17.4603 14.8227 17.45 14.7971C17.4493 14.796 17.4493 14.796 17.4487 14.7948C17.4247 14.735 17.3757 14.6865 17.3164 14.6621C17.2984 14.6544 17.2721 14.6531 17.2194 14.6504C17.1109 14.6423 16.9714 14.6431 16.7636 14.6427L16.3076 14.6503C16.257 14.6539 16.2296 14.6532 16.2142 14.6605C16.2131 14.6612 16.212 14.6618 16.2102 14.6614C16.1499 14.6872 16.102 14.7344 16.077 14.7954C16.0663 14.8212 16.0665 14.8632 16.0618 14.9592C16.044 15.4313 15.7985 15.8844 15.3664 16.1339C14.9343 16.3834 14.4192 16.3694 14.0014 16.1487C13.9159 16.1048 13.8796 16.0837 13.8508 16.0807C13.7866 16.0712 13.7206 16.0897 13.6693 16.1284C13.6688 16.1302 13.6676 16.1308 13.6665 16.1315C13.6525 16.1411 13.6398 16.1634 13.6109 16.2072L13.3764 16.5983L13.1536 16.9993C13.1307 17.0456 13.1198 17.0684 13.1168 17.0867C13.1083 17.1503 13.1258 17.2169 13.1656 17.2677C13.1663 17.2688 13.1663 17.2688 13.1669 17.2699C13.184 17.2917 13.2202 17.3128 13.3003 17.3629C13.3003 17.3629 13.3003 17.3629 13.3009 17.364C13.7001 17.615 13.9687 18.0542 13.9695 18.5532C13.9691 19.0529 13.7 19.491 13.3007 19.7427L13.2996 19.7433C13.2192 19.7942 13.1831 19.8151 13.1657 19.8372L13.1664 19.8383C13.1257 19.8903 13.1081 19.9562 13.1166 20.0205C13.1189 20.0402 13.132 20.0627 13.1553 20.1109C13.2019 20.2074 13.2735 20.3286 13.377 20.508C13.4813 20.6885 13.5498 20.8099 13.61 20.8985C13.6401 20.9428 13.6538 20.9665 13.669 20.9773C13.7204 21.0168 13.7863 21.0344 13.8523 21.0264C13.8801 21.0224 13.9162 21.0016 14.0005 20.9574L14.0017 20.9567C14.4192 20.7367 14.935 20.7233 15.3661 20.9723C15.7979 21.2225 16.0446 21.6758 16.0624 22.147C16.0664 22.2425 16.0659 22.2833 16.0762 22.309C16.0769 22.3101 16.0769 22.3101 16.0775 22.3112C16.1022 22.3722 16.1505 22.4195 16.2104 22.4451C16.2278 22.4517 16.2541 22.453 16.3075 22.4568C16.4153 22.4638 16.5554 22.4641 16.7626 22.4633L17.2186 22.4558C17.2698 22.4533 17.2955 22.4535 17.3119 22.4455C17.313 22.4449 17.3148 22.4454 17.3148 22.4454C17.3752 22.4196 17.4242 22.3717 17.4487 22.3124C17.4599 22.2849 17.4603 22.244 17.4644 22.1469C17.4822 21.6747 17.7276 21.2217 18.1598 20.9722C18.5919 20.7227 19.107 20.7367 19.5248 20.9573C19.6109 21.0024 19.6466 21.0224 19.6749 21.0271C19.7396 21.0349 19.8044 21.017 19.8569 20.9777C19.8581 20.977 19.8585 20.9753 19.8597 20.9746C19.8737 20.965 19.8864 20.9426 19.9159 20.9L20.1498 20.5077C20.254 20.3287 20.3227 20.2078 20.3705 20.111C20.3939 20.0629 20.4071 20.0387 20.4101 20.0205C20.4179 19.9558 20.4011 19.8903 20.3606 19.8384C20.3599 19.8373 20.3599 19.8373 20.3593 19.8361C20.3422 19.8144 20.3059 19.7932 20.2259 19.7432C19.8261 19.4911 19.5575 19.0519 19.5567 18.5529C19.5577 18.0543 19.8262 17.615 20.2255 17.3634C20.3059 17.3125 20.3431 17.291 20.3605 17.2689C20.4005 17.2157 20.4188 17.151 20.4096 17.0856C20.4079 17.067 20.3942 17.0433 20.3715 16.9962C20.3242 16.8987 20.2534 16.7786 20.1492 16.5981C20.0456 16.4187 19.9764 16.2962 19.9162 16.2075C19.8861 16.1632 19.873 16.1407 19.8572 16.1288ZM18.5244 17.6535L18.4759 17.5642C17.9332 16.6243 16.7141 16.2976 15.7742 16.8403C14.8343 17.3829 14.5077 18.602 15.0503 19.5419C15.593 20.4818 16.8121 20.8085 17.752 20.2658C18.6625 19.7401 18.9974 18.5794 18.5244 17.6535ZM16.3449 17.9069C16.0044 18.1275 15.8917 18.5838 16.0962 18.938C16.3073 19.3036 16.7825 19.4309 17.1481 19.2199C17.5136 19.0088 17.641 18.5336 17.4299 18.168C17.2189 17.8025 16.7437 17.6751 16.3781 17.8862L16.3449 17.9069Z" fill="black"/>
<path d="M16 6C16 7.06087 15.5786 8.07828 14.8284 8.82843C14.0783 9.57857 13.0609 10 12 10C10.9391 10 9.92172 9.57857 9.17157 8.82843C8.42143 8.07828 8 7.06087 8 6C8 4.93913 8.42143 3.92172 9.17157 3.17157C9.92172 2.42143 10.9391 2 12 2C13.0609 2 14.0783 2.42143 14.8284 3.17157C15.5786 3.92172 16 4.93913 16 6ZM14.295 13.188C13.4809 13.5263 12.7555 14.0472 12.1747 14.7105C11.594 15.3738 11.1734 16.1617 10.9456 17.0133C10.7178 17.865 10.6889 18.7576 10.8609 19.6223C11.033 20.4869 11.4015 21.3004 11.938 22C4 21.99 4 19.979 4 17.5C4 15.015 7.582 13 12 13C12.798 13 13.568 13.066 14.295 13.188Z" fill="black"/>
</g>
</g>
<defs>
<clipPath id="clip0_221_20225">
<rect width="24" height="24" fill="white"/>
</clipPath>
<clipPath id="clip1_221_20225">
<rect width="24" height="24" fill="white"/>
</clipPath>
</defs>
</svg>
