<svg width="24" height="24" viewBox="0 0 24 24" fill="none" xmlns="http://www.w3.org/2000/svg">
<g clip-path="url(#clip0_221_20034)">
<path fill-rule="evenodd" clip-rule="evenodd" d="M16.5 15.75C16.0174 15.75 15.5434 15.8769 15.1254 16.118C14.7074 16.3592 14.3603 16.7061 14.1188 17.1239C13.8773 17.5417 13.75 18.0156 13.7497 18.4982C13.7494 18.9808 13.8761 19.4549 14.117 19.873L17.873 16.117C17.4556 15.876 16.982 15.7494 16.5 15.75ZM18.92 17.192L15.192 20.92C15.7131 21.2023 16.3114 21.3088 16.8979 21.2235C17.4844 21.1382 18.0276 20.8658 18.4467 20.4467C18.8658 20.0276 19.1382 19.4844 19.2235 18.8979C19.3088 18.3114 19.2023 17.7131 18.92 17.192ZM12.25 18.5C12.25 17.9419 12.3599 17.3892 12.5735 16.8736C12.7871 16.358 13.1001 15.8894 13.4948 15.4948C13.8894 15.1001 14.358 14.7871 14.8736 14.5735C15.3892 14.3599 15.9419 14.25 16.5 14.25C17.0581 14.25 17.6108 14.3599 18.1264 14.5735C18.642 14.7871 19.1106 15.1001 19.5052 15.4948C19.8999 15.8894 20.2129 16.358 20.4265 16.8736C20.6401 17.3892 20.75 17.9419 20.75 18.5C20.75 19.6272 20.3022 20.7082 19.5052 21.5052C18.7082 22.3022 17.6272 22.75 16.5 22.75C15.3728 22.75 14.2918 22.3022 13.4948 21.5052C12.6978 20.7082 12.25 19.6272 12.25 18.5Z" fill="black"/>
<path d="M16 6C16 7.06087 15.5786 8.07828 14.8284 8.82843C14.0783 9.57857 13.0609 10 12 10C10.9391 10 9.92172 9.57857 9.17157 8.82843C8.42143 8.07828 8 7.06087 8 6C8 4.93913 8.42143 3.92172 9.17157 3.17157C9.92172 2.42143 10.9391 2 12 2C13.0609 2 14.0783 2.42143 14.8284 3.17157C15.5786 3.92172 16 4.93913 16 6ZM14.295 13.188C13.4809 13.5263 12.7555 14.0472 12.1747 14.7105C11.594 15.3738 11.1734 16.1617 10.9456 17.0133C10.7178 17.865 10.6889 18.7576 10.8609 19.6223C11.033 20.4869 11.4015 21.3004 11.938 22C4 21.99 4 19.979 4 17.5C4 15.015 7.582 13 12 13C12.798 13 13.568 13.066 14.295 13.188Z" fill="black"/>
</g>
<defs>
<clipPath id="clip0_221_20034">
<rect width="24" height="24" fill="white"/>
</clipPath>
</defs>
</svg>
