<svg width="24" height="24" viewBox="0 0 24 24" fill="none" xmlns="http://www.w3.org/2000/svg">
<g clip-path="url(#clip0_221_20212)">
<path fill-rule="evenodd" clip-rule="evenodd" d="M8.75 22V2.013L9 2H15C17.828 2 19.243 2 20.121 2.879C21 3.757 21 5.172 21 8V16C21 18.828 21 20.243 20.121 21.121C19.243 22 17.828 22 15 22H8.75ZM15.3444 16.9577C15.3444 17.3589 15.0142 17.6899 14.6123 17.6899C14.2082 17.6899 13.8802 17.3619 13.8802 16.9577V11.1006C13.8802 10.6987 14.2103 10.3685 14.6123 10.3685C15.0142 10.3685 15.3444 10.6987 15.3444 11.1006V16.9577ZM15.5882 8.17206C15.5882 7.63613 15.1475 7.19539 14.6123 7.19539C14.0771 7.19539 13.6364 7.63613 13.6364 8.17206C13.6364 8.70725 14.0771 9.148 14.6123 9.148C15.1475 9.148 15.5882 8.70725 15.5882 8.17206Z" fill="black"/>
<path fill-rule="evenodd" clip-rule="evenodd" d="M3.879 2.879C3.081 3.676 3.008 4.914 3 7.25H2C1.80109 7.25 1.61032 7.32902 1.46967 7.46967C1.32902 7.61032 1.25 7.80109 1.25 8C1.25 8.19891 1.32902 8.38968 1.46967 8.53033C1.61032 8.67098 1.80109 8.75 2 8.75H3V11.25H2C1.80109 11.25 1.61032 11.329 1.46967 11.4697C1.32902 11.6103 1.25 11.8011 1.25 12C1.25 12.1989 1.32902 12.3897 1.46967 12.5303C1.61032 12.671 1.80109 12.75 2 12.75H3V15.25H2C1.80109 15.25 1.61032 15.329 1.46967 15.4697C1.32902 15.6103 1.25 15.8011 1.25 16C1.25 16.1989 1.32902 16.3897 1.46967 16.5303C1.61032 16.671 1.80109 16.75 2 16.75H3.001C3.008 19.086 3.081 20.324 3.879 21.121C4.554 21.796 5.545 21.953 7.25 21.989V2.011C5.545 2.047 4.554 2.204 3.879 2.879ZM3.001 16.75H4C4.19891 16.75 4.38968 16.671 4.53033 16.5303C4.67098 16.3897 4.75 16.1989 4.75 16C4.75 15.8011 4.67098 15.6103 4.53033 15.4697C4.38968 15.329 4.19891 15.25 4 15.25H3L3.001 16.75ZM3 8.75H4C4.19891 8.75 4.38968 8.67098 4.53033 8.53033C4.67098 8.38968 4.75 8.19891 4.75 8C4.75 7.80109 4.67098 7.61032 4.53033 7.46967C4.38968 7.32902 4.19891 7.25 4 7.25H3V8.75ZM4 12.75H3V11.25H4C4.19891 11.25 4.38968 11.329 4.53033 11.4697C4.67098 11.6103 4.75 11.8011 4.75 12C4.75 12.1989 4.67098 12.3897 4.53033 12.5303C4.38968 12.671 4.19891 12.75 4 12.75Z" fill="black"/>
</g>
<defs>
<clipPath id="clip0_221_20212">
<rect width="24" height="24" fill="white"/>
</clipPath>
</defs>
</svg>
