<svg width="24" height="24" viewBox="0 0 24 24" fill="none" xmlns="http://www.w3.org/2000/svg">
<g clip-path="url(#clip0_221_20176)">
<path d="M14.8965 6.92021C16.0193 6.92021 16.9343 7.83512 16.9343 8.96632C16.9343 10.0892 16.0193 11.0041 14.8965 11.0041C13.7653 11.0041 12.8587 10.0892 12.8587 8.96632C12.8587 7.83512 13.7653 6.92021 14.8965 6.92021Z" fill="black"/>
<path fill-rule="evenodd" clip-rule="evenodd" d="M8.75 2.013V22H15C17.828 22 19.243 22 20.121 21.121C21 20.243 21 18.828 21 16V8C21 5.172 21 3.757 20.121 2.879C19.243 2 17.828 2 15 2H9L8.75 2.013ZM14.8965 5.4563C12.9585 5.4563 11.3948 7.02831 11.3948 8.96632C11.3948 10.5414 12.4365 11.8781 13.8733 12.3163C10.0817 12.9451 9.89866 17.0385 9.89866 17.0385C9.8889 17.4485 10.2012 17.7902 10.6015 17.8097C11.0017 17.8292 11.3434 17.507 11.3629 17.1067C11.3629 17.1067 11.5094 13.6999 14.8967 13.6999C18.2743 13.6999 18.4207 17.1067 18.4207 17.1067C18.4403 17.507 18.7819 17.8292 19.1822 17.8097C19.5922 17.7902 19.9045 17.4485 19.885 17.0482C19.885 17.0482 19.7019 12.9457 15.9168 12.3162C17.351 11.878 18.3983 10.5413 18.3983 8.96632C18.3983 7.02831 16.8262 5.4563 14.8965 5.4563Z" fill="black"/>
<path d="M3 7.25C3.008 4.914 3.081 3.676 3.879 2.879C4.554 2.204 5.545 2.047 7.25 2.011V21.989C5.545 21.953 4.554 21.796 3.879 21.121C3.081 20.324 3.008 19.086 3.001 16.75H4C4.19891 16.75 4.38968 16.671 4.53033 16.5303C4.67098 16.3897 4.75 16.1989 4.75 16C4.75 15.8011 4.67098 15.6103 4.53033 15.4697C4.38968 15.329 4.19891 15.25 4 15.25H3V12.75H4C4.19891 12.75 4.38968 12.671 4.53033 12.5303C4.67098 12.3897 4.75 12.1989 4.75 12C4.75 11.8011 4.67098 11.6103 4.53033 11.4697C4.38968 11.329 4.19891 11.25 4 11.25H3V8.75H4C4.19891 8.75 4.38968 8.67098 4.53033 8.53033C4.67098 8.38968 4.75 8.19891 4.75 8C4.75 7.80109 4.67098 7.61032 4.53033 7.46967C4.38968 7.32902 4.19891 7.25 4 7.25H3Z" fill="black"/>
<path d="M3 7.25H2C1.80109 7.25 1.61032 7.32902 1.46967 7.46967C1.32902 7.61032 1.25 7.80109 1.25 8C1.25 8.19891 1.32902 8.38968 1.46967 8.53033C1.61032 8.67098 1.80109 8.75 2 8.75H3V7.25Z" fill="black"/>
<path d="M3 15.25H2C1.80109 15.25 1.61032 15.329 1.46967 15.4697C1.32902 15.6103 1.25 15.8011 1.25 16C1.25 16.1989 1.32902 16.3897 1.46967 16.5303C1.61032 16.671 1.80109 16.75 2 16.75H3.001L3 15.25Z" fill="black"/>
<path d="M2 11.25H3V12.75H2C1.80109 12.75 1.61032 12.671 1.46967 12.5303C1.32902 12.3897 1.25 12.1989 1.25 12C1.25 11.8011 1.32902 11.6103 1.46967 11.4697C1.61032 11.329 1.80109 11.25 2 11.25Z" fill="black"/>
</g>
<defs>
<clipPath id="clip0_221_20176">
<rect width="24" height="24" fill="white"/>
</clipPath>
</defs>
</svg>
