<svg width="24" height="24" viewBox="0 0 24 24" fill="none" xmlns="http://www.w3.org/2000/svg">
<path d="M8.8606 5.0229C8.8606 3.03761 10.4624 1.42725 12.4477 1.42725C14.4245 1.42725 16.0349 3.03761 16.0349 5.0229C16.0349 6.80383 14.7278 8.28736 13.0232 8.56382C14.1777 8.67193 15.2607 9.1744 16.0861 10.0073C17.0233 10.9445 17.5517 12.2141 17.5517 13.5433V14.9663C17.5517 15.5542 17.3216 16.1165 16.9041 16.534C16.5037 16.9345 15.9669 17.1646 15.4045 17.1901L15.0295 21.1181C14.9358 22.1576 14.0582 22.9586 13.0102 22.9586H11.8855C10.8375 22.9586 9.95985 22.1661 9.85761 21.1181L9.48265 17.1901C8.92029 17.1731 8.38349 16.943 7.99155 16.5426C7.57404 16.1251 7.33545 15.5542 7.33545 14.9663V13.5433C7.33545 12.2226 7.8638 10.9445 8.80106 10.0073C9.62729 9.18104 10.7184 8.67265 11.87 8.56379C10.1607 8.28727 8.8606 6.80378 8.8606 5.0229Z" fill="black"/>
</svg>
