<svg width="24" height="24" viewBox="0 0 24 24" fill="none" xmlns="http://www.w3.org/2000/svg">
<g clip-path="url(#clip0_221_20028)">
<path fill-rule="evenodd" clip-rule="evenodd" d="M16.5 22C14.85 22 14.025 22 13.513 21.487C13 20.975 13 20.15 13 18.5C13 16.85 13 16.025 13.513 15.513C14.025 15 14.85 15 16.5 15C18.15 15 18.975 15 19.487 15.513C20 16.025 20 16.85 20 18.5C20 20.15 20 20.975 19.487 21.487C18.975 22 18.15 22 16.5 22ZM15.357 16.532C15.2476 16.4226 15.0992 16.3611 14.9445 16.3611C14.7898 16.3611 14.6414 16.4226 14.532 16.532C14.4226 16.6414 14.3611 16.7898 14.3611 16.9445C14.3611 17.0992 14.4226 17.2476 14.532 17.357L15.675 18.5L14.532 19.643C14.4778 19.6972 14.4349 19.7615 14.4055 19.8323C14.3762 19.903 14.3611 19.9789 14.3611 20.0555C14.3611 20.1321 14.3762 20.208 14.4055 20.2787C14.4349 20.3495 14.4778 20.4138 14.532 20.468C14.5862 20.5222 14.6505 20.5651 14.7213 20.5945C14.792 20.6238 14.8679 20.6389 14.9445 20.6389C15.0211 20.6389 15.097 20.6238 15.1677 20.5945C15.2385 20.5651 15.3028 20.5222 15.357 20.468L16.5 19.325L17.643 20.468C17.6972 20.5222 17.7615 20.5651 17.8323 20.5945C17.903 20.6238 17.9789 20.6389 18.0555 20.6389C18.1321 20.6389 18.208 20.6238 18.2787 20.5945C18.3495 20.5651 18.4138 20.5222 18.468 20.468C18.5222 20.4138 18.5651 20.3495 18.5945 20.2787C18.6238 20.208 18.6389 20.1321 18.6389 20.0555C18.6389 19.9789 18.6238 19.903 18.5945 19.8323C18.5651 19.7615 18.5222 19.6972 18.468 19.643L17.325 18.5L18.468 17.357C18.5774 17.2476 18.6389 17.0992 18.6389 16.9445C18.6389 16.7898 18.5774 16.6414 18.468 16.532C18.3586 16.4226 18.2102 16.3611 18.0555 16.3611C17.9008 16.3611 17.7524 16.4226 17.643 16.532L16.5 17.675L15.357 16.532Z" fill="black"/>
<path d="M12 10C13.0609 10 14.0783 9.57857 14.8284 8.82843C15.5786 8.07828 16 7.06087 16 6C16 4.93913 15.5786 3.92172 14.8284 3.17157C14.0783 2.42143 13.0609 2 12 2C10.9391 2 9.92172 2.42143 9.17157 3.17157C8.42143 3.92172 8 4.93913 8 6C8 7.06087 8.42143 8.07828 9.17157 8.82843C9.92172 9.57857 10.9391 10 12 10ZM15.678 13.503C15.205 13.508 14.764 13.526 14.38 13.577C13.737 13.664 13.033 13.87 12.452 14.452C11.87 15.033 11.664 15.737 11.578 16.38C11.5 16.958 11.5 17.664 11.5 18.414V18.586C11.5 19.336 11.5 20.042 11.578 20.62C11.638 21.071 11.758 21.552 12.025 22H12C4 22 4 19.985 4 17.5C4 15.015 7.582 13 12 13C13.326 13 14.577 13.181 15.678 13.503Z" fill="black"/>
</g>
<defs>
<clipPath id="clip0_221_20028">
<rect width="24" height="24" fill="white"/>
</clipPath>
</defs>
</svg>
