<svg width="24" height="24" viewBox="0 0 24 24" fill="none" xmlns="http://www.w3.org/2000/svg">
<g clip-path="url(#clip0_221_20040)">
<path fill-rule="evenodd" clip-rule="evenodd" d="M13.2181 18.1537L13.2171 18.1557L12.7131 19.6677C12.6751 19.7807 12.6561 19.8987 12.6561 20.0177C12.6561 20.6248 13.1551 21.1238 13.7611 21.1238C13.8812 21.1238 13.9992 21.1048 14.1122 21.0668L15.6272 20.5618C15.8872 20.4748 16.0642 20.4158 16.2332 20.3348C16.4372 20.2378 16.6282 20.1197 16.8062 19.9807C16.8072 19.9797 16.8082 19.9788 16.8092 19.9778C16.9752 19.8417 17.1332 19.6947 17.2812 19.5387L20.7353 16.0827C21.1583 15.6777 21.3973 15.1166 21.3973 14.5306C21.3973 13.3516 20.4273 12.3816 19.2483 12.3816C18.6622 12.3816 18.1012 12.6206 17.6962 13.0436L14.2622 16.4787L14.2412 16.4997L14.2422 16.5037L14.2402 16.5007C14.0462 16.6947 13.9142 16.8267 13.7991 16.9747C13.6611 17.1517 13.5421 17.3437 13.4451 17.5477C13.3651 17.7157 13.3051 17.8927 13.2181 18.1537ZM14.3702 19.4617L14.3172 19.4087L14.5742 18.6397C14.6682 18.3577 14.7012 18.2577 14.7442 18.1657C14.7972 18.0567 14.8602 17.9547 14.9342 17.8597C14.9962 17.7797 15.0712 17.7047 15.2812 17.4947L17.5872 15.1887C17.7142 15.3907 17.8632 15.5777 18.0322 15.7467C18.2012 15.9157 18.3882 16.0647 18.5902 16.1907L16.2842 18.4977C16.0742 18.7077 15.9992 18.7817 15.9202 18.8437C15.8242 18.9177 15.7212 18.9817 15.6122 19.0347C15.5212 19.0777 15.4212 19.1107 15.1392 19.2047L14.3702 19.4617ZM19.7173 14.0616C19.5843 13.9286 19.4043 13.8536 19.2163 13.8536C19.0283 13.8536 18.8483 13.9286 18.7153 14.0616L18.6583 14.1176C18.7233 14.2916 18.8403 14.5156 19.0513 14.7276C19.2233 14.9017 19.4333 15.0357 19.6623 15.1197L19.7173 15.0637C19.8503 14.9306 19.9253 14.7506 19.9253 14.5626C19.9253 14.3746 19.8503 14.1946 19.7173 14.0616Z" fill="black"/>
<path d="M16 6C16 7.06087 15.5786 8.07828 14.8284 8.82843C14.0783 9.57857 13.0609 10 12 10C10.9391 10 9.92172 9.57857 9.17157 8.82843C8.42143 8.07828 8 7.06087 8 6C8 4.93913 8.42143 3.92172 9.17157 3.17157C9.92172 2.42143 10.9391 2 12 2C13.0609 2 14.0783 2.42143 14.8284 3.17157C15.5786 3.92172 16 4.93913 16 6ZM14.295 13.188C13.4809 13.5263 12.7555 14.0472 12.1747 14.7105C11.594 15.3738 11.1734 16.1617 10.9456 17.0133C10.7178 17.865 10.6889 18.7576 10.8609 19.6223C11.033 20.4869 11.4015 21.3004 11.938 22C4 21.99 4 19.979 4 17.5C4 15.015 7.582 13 12 13C12.798 13 13.568 13.066 14.295 13.188Z" fill="black"/>
</g>
<defs>
<clipPath id="clip0_221_20040">
<rect width="24" height="24" fill="white"/>
</clipPath>
</defs>
</svg>
