<svg width="24" height="24" viewBox="0 0 24 24" fill="none" xmlns="http://www.w3.org/2000/svg">
<g clip-path="url(#clip0_221_20022)">
<path d="M16 6C16 7.06087 15.5786 8.07828 14.8284 8.82843C14.0783 9.57857 13.0609 10 12 10C10.9391 10 9.92172 9.57857 9.17157 8.82843C8.42143 8.07828 8 7.06087 8 6C8 4.93913 8.42143 3.92172 9.17157 3.17157C9.92172 2.42143 10.9391 2 12 2C13.0609 2 14.0783 2.42143 14.8284 3.17157C15.5786 3.92172 16 4.93913 16 6ZM15.678 13.503C15.205 13.508 14.764 13.526 14.38 13.577C13.737 13.664 13.033 13.87 12.452 14.452C11.87 15.033 11.664 15.737 11.578 16.38C11.5 16.958 11.5 17.664 11.5 18.414V18.586C11.5 19.336 11.5 20.042 11.578 20.62C11.638 21.071 11.758 21.552 12.025 22H12C4 22 4 19.985 4 17.5C4 15.015 7.582 13 12 13C13.326 13 14.577 13.181 15.678 13.503Z" fill="black"/>
<path fill-rule="evenodd" clip-rule="evenodd" d="M16.5 22C14.85 22 14.025 22 13.513 21.487C13 20.975 13 20.15 13 18.5C13 16.85 13 16.025 13.513 15.513C14.025 15 14.85 15 16.5 15C18.15 15 18.975 15 19.487 15.513C20 16.025 20 16.85 20 18.5C20 20.15 20 20.975 19.487 21.487C18.975 22 18.15 22 16.5 22ZM18.468 17.746C18.5774 17.6366 18.6389 17.4882 18.6389 17.3335C18.6389 17.1788 18.5774 17.0304 18.468 16.921C18.3586 16.8116 18.2102 16.7501 18.0555 16.7501C17.9008 16.7501 17.7524 16.8116 17.643 16.921L15.723 18.841L15.357 18.476C15.3028 18.4218 15.2385 18.3789 15.1677 18.3495C15.097 18.3202 15.0211 18.3051 14.9445 18.3051C14.8679 18.3051 14.792 18.3202 14.7213 18.3495C14.6505 18.3789 14.5862 18.4218 14.532 18.476C14.4778 18.5302 14.4349 18.5945 14.4055 18.6653C14.3762 18.736 14.3611 18.8119 14.3611 18.8885C14.3611 18.9651 14.3762 19.041 14.4055 19.1117C14.4349 19.1825 14.4778 19.2468 14.532 19.301L15.31 20.079C15.3641 20.1332 15.4284 20.1762 15.4992 20.2056C15.57 20.2349 15.6459 20.25 15.7225 20.25C15.7991 20.25 15.875 20.2349 15.9458 20.2056C16.0166 20.1762 16.0809 20.1332 16.135 20.079L18.468 17.746Z" fill="black"/>
</g>
<defs>
<clipPath id="clip0_221_20022">
<rect width="24" height="24" fill="white"/>
</clipPath>
</defs>
</svg>
