<svg width="24" height="24" viewBox="0 0 24 24" fill="none" xmlns="http://www.w3.org/2000/svg">
<g clip-path="url(#clip0_221_20258)">
<path fill-rule="evenodd" clip-rule="evenodd" d="M12 2.75008C10.6076 2.75008 9.27225 3.30321 8.28769 4.28777C7.30312 5.27234 6.75 6.6077 6.75 8.00008V10.0041C7.132 10.0008 7.54867 9.99942 8 10.0001H16C18.828 10.0001 20.243 10.0001 21.121 10.8791C22 11.7571 22 13.1721 22 16.0001C22 18.8281 22 20.2431 21.121 21.1211C20.243 22.0001 18.828 22.0001 16 22.0001H8C5.172 22.0001 3.757 22.0001 2.879 21.1211C2 20.2431 2 18.8281 2 16.0001C2 13.1721 2 11.7571 2.879 10.8791C3.409 10.3481 4.135 10.1381 5.25 10.0551V8.00008C5.24885 6.35631 5.84756 4.76861 6.93379 3.53488C8.02003 2.30114 9.51912 1.50618 11.1498 1.29914C12.7805 1.09209 14.4307 1.48721 15.7908 2.41034C17.1508 3.33347 18.1273 4.72118 18.537 6.31309C18.5648 6.40945 18.5729 6.51041 18.561 6.60998C18.5491 6.70956 18.5173 6.80573 18.4675 6.8928C18.4178 6.97988 18.3511 7.05609 18.2713 7.11694C18.1916 7.17778 18.1005 7.22202 18.0034 7.24704C17.9063 7.27205 17.8051 7.27733 17.7059 7.26257C17.6067 7.24781 17.5115 7.21331 17.4259 7.1611C17.3403 7.1089 17.266 7.04005 17.2074 6.95863C17.1489 6.87721 17.1072 6.78487 17.085 6.68708C16.7939 5.55995 16.1363 4.56155 15.2159 3.84887C14.2954 3.1362 13.1641 2.74968 12 2.75008ZM12.75 14.0001C12.75 13.8012 12.671 13.6104 12.5303 13.4698C12.3897 13.3291 12.1989 13.2501 12 13.2501C11.8011 13.2501 11.6103 13.3291 11.4697 13.4698C11.329 13.6104 11.25 13.8012 11.25 14.0001V18.0001C11.25 18.199 11.329 18.3898 11.4697 18.5304C11.6103 18.6711 11.8011 18.7501 12 18.7501C12.1989 18.7501 12.3897 18.6711 12.5303 18.5304C12.671 18.3898 12.75 18.199 12.75 18.0001V14.0001Z" fill="black"/>
</g>
<defs>
<clipPath id="clip0_221_20258">
<rect width="24" height="24" fill="white"/>
</clipPath>
</defs>
</svg>
