<svg width="24" height="24" viewBox="0 0 24 24" fill="none" xmlns="http://www.w3.org/2000/svg">
<path fill-rule="evenodd" clip-rule="evenodd" d="M16.0634 6.16529H11.6996C11.3693 6.16529 11.0978 5.82792 11.0978 5.4187C11.0978 5.00947 11.3693 4.67212 11.6996 4.67212H16.0434L14.3466 2.97632C14.1959 2.83559 14.1101 2.63796 14.1101 2.43135C14.1101 2.02313 14.4464 1.68676 14.8546 1.68676C15.0613 1.68676 15.2589 1.7726 15.3996 1.92331L18.378 4.90268C18.6665 5.19113 18.6665 5.66623 18.378 5.95469L15.3996 8.93405C15.1112 9.2225 14.6361 9.2225 14.3466 8.93405C14.0582 8.6456 14.0582 8.17049 14.3466 7.88204L16.0634 6.16529Z" fill="black"/>
<path fill-rule="evenodd" clip-rule="evenodd" d="M4.91635 18.5278L9.2801 18.5278C9.61047 18.5278 9.88196 18.8652 9.88196 19.2744C9.88196 19.6836 9.61047 20.021 9.2801 20.021L4.93633 20.021L6.6331 21.7168C6.78381 21.8575 6.86965 22.0552 6.86965 22.2618C6.86965 22.67 6.53332 23.0064 6.12509 23.0064C5.91848 23.0064 5.72083 22.9205 5.5801 22.7698L2.60173 19.7904C2.31327 19.502 2.31327 19.0269 2.60173 18.7384L5.5801 15.7591C5.86855 15.4706 6.34365 15.4706 6.6331 15.7591C6.92155 16.0475 6.92155 16.5226 6.6331 16.8111L4.91635 18.5278Z" fill="black"/>
<path fill-rule="evenodd" clip-rule="evenodd" d="M12.0446 10.2206L12.0104 10.2197C11.6736 10.2197 11.3912 10.4753 11.3497 10.802C10.522 11.0419 9.87695 11.7202 9.87695 12.5977C9.87695 13.6996 10.8985 14.4876 12.0104 14.4876C12.482 14.4876 12.8114 14.7552 12.8114 15.0441C12.8114 15.3329 12.482 15.5996 12.0104 15.5996C11.5398 15.5996 11.2104 15.3329 11.2104 15.0441C11.2104 14.6777 10.9096 14.3769 10.5432 14.3769C10.1778 14.3769 9.87695 14.6777 9.87695 15.0441C9.87695 15.9216 10.522 16.5999 11.3497 16.8398C11.3912 17.1665 11.6736 17.423 12.0104 17.423C12.3482 17.423 12.6306 17.1665 12.6721 16.8398C13.4998 16.5999 14.1449 15.9216 14.1449 15.0441C14.1449 13.9423 13.1233 13.1542 12.0104 13.1542C11.5398 13.1542 11.2104 12.8866 11.2104 12.5977C11.2104 12.3098 11.5398 12.0422 12.0104 12.0422C12.482 12.0422 12.8114 12.3098 12.8114 12.5977C12.8114 12.9641 13.1122 13.2649 13.4786 13.2649C13.844 13.2649 14.1449 12.9641 14.1449 12.5977C14.1449 11.7202 13.4998 11.0419 12.6721 10.802C12.6324 10.4864 12.3676 10.2363 12.0446 10.2206Z" fill="black"/>
<path d="M2.17468 6.20909C2.17468 4.55758 3.5141 3.21045 5.16561 3.21045C6.81713 3.21045 8.15664 4.55758 8.15664 6.20909C8.15664 7.21376 7.66093 8.10293 6.90082 8.64534C7.41361 8.8015 7.77064 9.0179 8.01878 9.22634C8.53401 9.64551 8.67101 10.0811 8.70849 10.2002L8.71439 10.2187L8.73296 10.3022C8.74223 10.395 8.74222 10.4784 8.72367 10.5433C8.6773 10.8123 8.47319 11.0257 8.19495 11.0906C7.69411 11.1926 7.36948 10.5897 7.36948 10.5897C7.36948 10.5897 6.91502 9.81065 5.18063 9.81065H5.15278C3.41839 9.81065 2.96394 10.5897 2.96394 10.5897C2.96394 10.5897 2.63931 11.1926 2.13847 11.0906C1.86023 11.0257 1.65623 10.8123 1.60986 10.5433C1.59131 10.4784 1.5913 10.395 1.60057 10.3022L1.61914 10.2187L1.62503 10.2002C1.66251 10.0811 1.79952 9.64551 2.31475 9.22634C2.56264 9.01811 2.91917 8.80194 3.4311 8.64581C2.67065 8.10345 2.17468 7.21405 2.17468 6.20909Z" fill="black"/>
<path d="M18.8349 13.7073C17.1834 13.7073 15.844 15.0544 15.844 16.7059C15.844 17.7109 16.3399 18.6002 17.1004 19.1426C16.5884 19.2987 16.2318 19.5149 15.9839 19.7232C15.4687 20.1423 15.3317 20.5779 15.2942 20.6971L15.2883 20.7155L15.2698 20.7991C15.2605 20.8918 15.2605 20.9752 15.279 21.0401C15.3254 21.3091 15.5294 21.5225 15.8077 21.5874C16.3085 21.6894 16.6331 21.0865 16.6331 21.0865C16.6331 21.0865 17.0876 20.3075 18.822 20.3075H18.8498C20.5842 20.3075 21.0387 21.0865 21.0387 21.0865C21.0387 21.0865 21.3633 21.6894 21.8641 21.5874C22.1424 21.5225 22.3465 21.3091 22.3929 21.0401C22.4114 20.9752 22.4114 20.8918 22.4021 20.7991L22.3836 20.7155L22.3777 20.6971C22.3402 20.5779 22.2032 20.1423 21.688 19.7232C21.4398 19.5147 21.0828 19.2984 20.5701 19.1422C21.3302 18.5998 21.826 17.7106 21.826 16.7059C21.826 15.0544 20.4864 13.7073 18.8349 13.7073Z" fill="black"/>
</svg>
