<svg width="24" height="24" viewBox="0 0 24 24" fill="none" xmlns="http://www.w3.org/2000/svg">
<path fill-rule="evenodd" clip-rule="evenodd" d="M22.0031 18.8446C22.3631 18.8546 22.6731 18.5946 22.7431 18.2246C22.7431 18.2246 23.2231 16.1046 19.983 14.2745C17.1129 12.6445 13.8229 12.8444 13.8229 12.8444C13.4029 12.8744 13.0929 13.2245 13.1229 13.6445C13.1429 14.0545 14.0629 14.3345 14.3329 14.3345C15.2129 14.3445 17.3329 14.4944 19.243 15.5745C21.163 16.6645 21.253 17.9946 21.253 17.9946C21.2931 18.5546 21.5531 18.8346 22.0031 18.8446Z" fill="black"/>
<path d="M15.9913 9.44346C15.9913 7.57427 17.5123 6.05347 19.3815 6.05347C21.2507 6.05347 22.7715 7.57427 22.7715 9.44346C22.7715 11.3126 21.2507 12.8336 19.3815 12.8336C17.5123 12.8336 15.9913 11.3126 15.9913 9.44346Z" fill="black"/>
<path d="M9.97907 1.25C7.37351 1.25 5.22921 3.3943 5.22921 5.99986C5.22921 8.60542 7.37351 10.7497 9.97907 10.7497C12.5846 10.7497 14.7289 8.60542 14.7289 5.99986C14.7289 3.3943 12.5846 1.25 9.97907 1.25Z" fill="black"/>
<path d="M9.97907 12.2498C7.66601 12.2498 5.53371 12.7763 3.95493 13.6643C2.39864 14.5403 1.22861 15.8663 1.22861 17.4999V17.6019C1.22786 18.7644 1.22711 20.2224 2.50589 21.2642C3.13516 21.7765 4.01568 22.141 5.20596 22.381C6.39773 22.6232 7.95327 22.75 9.97907 22.75C12.0049 22.75 13.5589 22.6232 14.7529 22.381C15.9432 22.141 16.823 21.7765 17.453 21.2642C18.7312 20.2235 18.7303 18.7674 18.7295 17.6054V17.4999C18.7295 15.8663 17.5595 14.5403 16.004 13.6643C14.4244 12.7763 12.2929 12.2498 9.97907 12.2498Z" fill="black"/>
</svg>
