<svg width="24" height="24" viewBox="0 0 24 24" fill="none" xmlns="http://www.w3.org/2000/svg">
<g clip-path="url(#clip0_221_20207)">
<path d="M15.5 7.5C15.5 7.95963 15.4095 8.41475 15.2336 8.83939C15.0577 9.26403 14.7999 9.64987 14.4749 9.97487C14.1499 10.2999 13.764 10.5577 13.3394 10.7336C12.9148 10.9095 12.4596 11 12 11C11.5404 11 11.0852 10.9095 10.6606 10.7336C10.236 10.5577 9.85013 10.2999 9.52513 9.97487C9.20012 9.64987 8.94231 9.26403 8.76642 8.83939C8.59053 8.41475 8.5 7.95963 8.5 7.5C8.5 6.57174 8.86875 5.6815 9.52513 5.02513C10.1815 4.36875 11.0717 4 12 4C12.9283 4 13.8185 4.36875 14.4749 5.02513C15.1313 5.6815 15.5 6.57174 15.5 7.5ZM18 16.5C18 18.433 15.314 20 12 20C8.686 20 6 18.433 6 16.5C6 14.567 8.686 13 12 13C15.314 13 18 14.567 18 16.5ZM7.122 5C7.3 5 7.47267 5.01667 7.64 5.05C7.21998 5.79822 6.99958 6.64195 7 7.5C7 8.368 7.221 9.185 7.61 9.896C7.452 9.926 7.28933 9.941 7.122 9.941C5.708 9.941 4.561 8.835 4.561 7.471C4.561 6.107 5.708 5 7.122 5ZM5.447 18.986C4.88 18.307 4.5 17.474 4.5 16.5C4.5 15.556 4.857 14.744 5.396 14.077C3.49 14.225 2 15.267 2 16.529C2 17.804 3.517 18.854 5.447 18.986ZM17 7.5C17 8.368 16.779 9.185 16.39 9.896C16.5473 9.926 16.71 9.941 16.878 9.941C18.292 9.941 19.438 8.835 19.438 7.471C19.438 6.107 18.293 5 16.879 5C16.701 5 16.5283 5.01667 16.361 5.05C16.768 5.774 17 6.61 17 7.5ZM18.553 18.986C20.483 18.854 22 17.804 22 16.529C22 15.266 20.509 14.225 18.604 14.077C19.144 14.744 19.5 15.556 19.5 16.5C19.5 17.474 19.12 18.307 18.553 18.986Z" fill="black"/>
</g>
<defs>
<clipPath id="clip0_221_20207">
<rect width="24" height="24" fill="white"/>
</clipPath>
</defs>
</svg>
