<svg width="24" height="24" viewBox="0 0 24 24" fill="none" xmlns="http://www.w3.org/2000/svg">
<path d="M2.97449 4.90547C2.97449 2.92018 4.57632 1.30981 6.56161 1.30981C8.53838 1.30981 10.1488 2.92018 10.1488 4.90547C10.1488 6.6864 8.84166 8.16993 7.13712 8.44638C8.29164 8.5545 9.37462 9.05697 10.2 9.88983C11.1372 10.8271 11.6656 12.0967 11.6656 13.4259V14.8489C11.6656 15.4368 11.4355 15.9991 11.018 16.4166C10.6176 16.8171 10.0807 17.0471 9.51839 17.0727L9.14343 21.0007C9.04971 22.0402 8.17209 22.8411 7.12406 22.8411H5.99939C4.95137 22.8411 4.07374 22.0487 3.9715 21.0007L3.59654 17.0727C3.03418 17.0557 2.49739 16.8256 2.10544 16.4251C1.68793 16.0076 1.44934 15.4368 1.44934 14.8489V13.4259C1.44934 12.1052 1.97769 10.8271 2.91496 9.88983C3.74118 9.0636 4.83227 8.55522 5.98391 8.44636C4.27459 8.16984 2.97449 6.68635 2.97449 4.90547Z" fill="black"/>
<path fill-rule="evenodd" clip-rule="evenodd" d="M6.55004 1.31137L21.6414 1.31128C21.8536 1.31128 22.0571 1.39556 22.2071 1.54559C22.3571 1.69562 22.4414 1.8991 22.4414 2.11128L22.4414 16.3122C22.4414 16.5244 22.3571 16.7279 22.2071 16.8779C22.0571 17.028 21.8536 17.1122 21.6414 17.1122H17.018L12.75 20.2211C12.4718 20.4237 12.0953 20.4257 11.815 20.2262C11.5347 20.0266 11.4133 19.6701 11.5138 19.341L12.1937 17.1122H9.35994C8.91811 17.1122 9.57894 16.754 9.57894 16.3122C9.57894 15.8703 9.93711 15.5122 10.3789 15.5122H13.2742C13.5277 15.5122 13.7663 15.6324 13.9171 15.8361C14.068 16.0399 14.1134 16.3031 14.0394 16.5456L13.7425 17.5186L16.2865 15.6656C16.4233 15.5659 16.5883 15.5122 16.7575 15.5122H20.8414L20.8414 2.91128L7.72594 2.91137C7.28411 2.91137 6.92594 2.5532 6.92593 2.11138C6.92593 1.66955 6.10821 1.31137 6.55004 1.31137Z" fill="black"/>
<path d="M15.1067 4.698C15.3056 4.698 15.4964 4.77702 15.637 4.91767C15.7777 5.05832 15.8567 5.24909 15.8567 5.448V9.448C15.8567 9.64691 15.7777 9.83768 15.637 9.97833C15.4964 10.119 15.3056 10.198 15.1067 10.198C14.9078 10.198 14.717 10.119 14.5764 9.97833C14.4357 9.83768 14.3567 9.64691 14.3567 9.448V5.448C14.3567 5.24909 14.4357 5.05832 14.5764 4.91767C14.717 4.77702 14.9078 4.698 15.1067 4.698ZM15.1067 13.448C15.3719 13.448 15.6263 13.3426 15.8138 13.1551C16.0013 12.9676 16.1067 12.7132 16.1067 12.448C16.1067 12.1828 16.0013 11.9284 15.8138 11.7409C15.6263 11.5534 15.3719 11.448 15.1067 11.448C14.8415 11.448 14.5871 11.5534 14.3996 11.7409C14.212 11.9284 14.1067 12.1828 14.1067 12.448C14.1067 12.7132 14.212 12.9676 14.3996 13.1551C14.5871 13.3426 14.8415 13.448 15.1067 13.448Z" fill="black"/>
</svg>
