<svg width="24" height="24" viewBox="0 0 24 24" fill="none" xmlns="http://www.w3.org/2000/svg">
<path d="M2.96765 5.0229C2.96765 3.03761 4.56948 1.42725 6.55477 1.42725C8.53154 1.42725 10.142 3.03761 10.142 5.0229C10.142 6.80383 8.83483 8.28736 7.13028 8.56382C8.2848 8.67193 9.36778 9.1744 10.1931 10.0073C11.1304 10.9445 11.6588 12.2141 11.6588 13.5433V14.9663C11.6588 15.5542 11.4287 16.1165 11.0112 16.534C10.6107 16.9345 10.0739 17.1646 9.51155 17.1901L9.1366 21.1181C9.04287 22.1576 8.16526 22.9586 7.11723 22.9586H5.99256C4.94453 22.9586 4.06691 22.1661 3.96466 21.1181L3.5897 17.1901C3.02735 17.1731 2.49055 16.943 2.0986 16.5426C1.6811 16.1251 1.4425 15.5542 1.4425 14.9663V13.5433C1.4425 12.2226 1.97086 10.9445 2.90812 10.0073C3.73434 9.18104 4.82543 8.67265 5.97707 8.56379C4.26775 8.28727 2.96765 6.80378 2.96765 5.0229Z" fill="black"/>
<path d="M13.814 4.99702C13.814 3.01173 15.4158 1.40137 17.4011 1.40137C19.3779 1.40137 20.9883 3.01173 20.9883 4.99702C20.9883 6.82993 19.6037 8.34782 17.8264 8.55904C18.0094 8.5766 18.2377 8.59842 18.4492 8.61837C19.1138 8.68654 19.6932 9.12104 19.9403 9.74304L22.4965 16.2273C22.7095 16.7811 22.6414 17.4031 22.3091 17.8973C21.9768 18.3829 21.4229 18.6811 20.8265 18.6811H20.3919C20.2471 18.6811 20.1278 18.7748 20.1023 18.9112C19.9574 19.661 19.7443 20.7431 19.5909 21.4929C19.4291 22.3279 18.6878 22.933 17.8358 22.933H16.9666C16.1061 22.933 15.3733 22.3279 15.2029 21.4929C15.0581 20.7431 14.845 19.661 14.6916 18.9112C14.6661 18.7748 14.5468 18.6811 14.4105 18.6811H13.9674C13.371 18.6811 12.8171 18.3829 12.4848 17.8973C12.1525 17.4031 12.0844 16.7811 12.2974 16.2273L14.8621 9.74304C15.1007 9.12104 15.6801 8.68654 16.3447 8.61837C16.5576 8.59828 16.7876 8.5763 16.9712 8.55868C15.1896 8.34612 13.814 6.82891 13.814 4.99702Z" fill="black"/>
</svg>
