<svg width="24" height="24" viewBox="0 0 24 24" fill="none" xmlns="http://www.w3.org/2000/svg">
<g clip-path="url(#clip0_221_20238)">
<path fill-rule="evenodd" clip-rule="evenodd" d="M19.595 12.1479C18.2219 12.1479 17.1079 13.2706 17.1079 14.6437C17.1079 16.0082 18.2219 17.1308 19.595 17.1308C20.9681 17.1308 22.0821 16.0082 22.0821 14.6437C22.0821 13.2706 20.9681 12.1479 19.595 12.1479ZM19.595 13.6851C20.1218 13.6851 20.5449 14.1169 20.5449 14.6437C20.5449 15.1618 20.1218 15.5936 19.595 15.5936C19.0682 15.5936 18.6451 15.1618 18.6451 14.6437C18.6451 14.1169 19.0682 13.6851 19.595 13.6851Z" fill="black"/>
<path fill-rule="evenodd" clip-rule="evenodd" d="M19.595 17.8657C18.2219 17.8657 17.1079 18.9884 17.1079 20.3615C17.1079 21.7259 18.2219 22.8486 19.595 22.8486C20.9681 22.8486 22.0821 21.7259 22.0821 20.3615C22.0821 18.9884 20.9681 17.8657 19.595 17.8657ZM19.595 19.4029C20.1218 19.4029 20.5449 19.8347 20.5449 20.3615C20.5449 20.8796 20.1218 21.3114 19.595 21.3114C19.0682 21.3114 18.6451 20.8796 18.6451 20.3615C18.6451 19.8347 19.0682 19.4029 19.595 19.4029Z" fill="black"/>
<path fill-rule="evenodd" clip-rule="evenodd" d="M14.0206 15.5908C12.6475 15.5908 11.5334 16.7135 11.5334 18.0866C11.5334 19.451 12.6475 20.5737 14.0206 20.5737C15.3936 20.5737 16.5077 19.451 16.5077 18.0866C16.5077 16.7135 15.3936 15.5908 14.0206 15.5908ZM14.0206 17.128C14.5473 17.128 14.9705 17.5598 14.9705 18.0866C14.9705 18.6047 14.5473 19.0365 14.0206 19.0365C13.4938 19.0365 13.0706 18.6047 13.0706 18.0866C13.0706 17.5598 13.4938 17.128 14.0206 17.128Z" fill="black"/>
<path fill-rule="evenodd" clip-rule="evenodd" d="M17.7133 14.8715L15.0779 16.5373C14.7182 16.764 14.6088 17.2411 14.8355 17.6008C15.0623 17.9605 15.5394 18.07 15.8991 17.8354L18.5345 16.1697C18.8942 15.9429 19.0037 15.4658 18.7769 15.1061C18.5501 14.7542 18.0731 14.6448 17.7133 14.8715Z" fill="black"/>
<path fill-rule="evenodd" clip-rule="evenodd" d="M15.3675 19.3132L17.5024 20.4707C17.87 20.674 18.3393 20.5411 18.5426 20.1657C18.7459 19.7903 18.6051 19.3289 18.2376 19.1255L16.1027 17.9603C15.7273 17.757 15.2658 17.8978 15.0625 18.2732C14.8592 18.6407 14.9921 19.1099 15.3675 19.3132Z" fill="black"/>
<path d="M16 6C16 7.06087 15.5786 8.07828 14.8284 8.82843C14.0783 9.57857 13.0609 10 12 10C10.9391 10 9.92172 9.57857 9.17157 8.82843C8.42143 8.07828 8 7.06087 8 6C8 4.93913 8.42143 3.92172 9.17157 3.17157C9.92172 2.42143 10.9391 2 12 2C13.0609 2 14.0783 2.42143 14.8284 3.17157C15.5786 3.92172 16 4.93913 16 6ZM14.295 13.188C13.4809 13.5263 12.7555 14.0472 12.1747 14.7105C11.594 15.3738 11.1734 16.1617 10.9456 17.0133C10.7178 17.865 10.6889 18.7576 10.8609 19.6223C11.033 20.4869 11.4015 21.3004 11.938 22C4 21.99 4 19.979 4 17.5C4 15.015 7.582 13 12 13C12.798 13 13.568 13.066 14.295 13.188Z" fill="black"/>
</g>
<defs>
<clipPath id="clip0_221_20238">
<rect width="24" height="24" fill="white"/>
</clipPath>
</defs>
</svg>
