<svg width="24" height="24" viewBox="0 0 24 24" fill="none" xmlns="http://www.w3.org/2000/svg">
<g clip-path="url(#clip0_221_20187)">
<path d="M11.9884 7.75517C13.1113 7.75517 14.0263 8.67008 14.0263 9.80128C14.0263 10.9242 13.1113 11.8391 11.9884 11.8391C10.8572 11.8391 9.95061 10.9242 9.95061 9.80128C9.95061 8.67008 10.8572 7.75517 11.9884 7.75517Z" fill="black"/>
<path fill-rule="evenodd" clip-rule="evenodd" d="M2.52 7.823C2 8.77 2 9.915 2 12.203V13.725C2 17.625 2 19.576 3.172 20.788C4.344 22 6.229 22 10 22H14C17.771 22 19.657 22 20.828 20.788C21.999 19.576 22 17.626 22 13.725V12.204C22 9.915 22 8.771 21.48 7.823C20.9631 6.87598 20.017 6.28845 18.1278 5.11536L16.116 3.867C14.111 2.622 13.108 2 12 2C10.8922 2 9.89035 2.62178 7.88506 3.86634L5.87775 5.11188C3.98492 6.28729 3.03843 6.87504 2.52 7.823ZM11.9884 6.29126C10.0504 6.29126 8.48669 7.86327 8.48669 9.80128C8.48669 11.3763 9.52845 12.7131 10.9652 13.1512C7.17361 13.7801 6.99058 17.8734 6.99058 17.8734C6.98082 18.2834 7.29317 18.6251 7.6934 18.6446C8.09364 18.6642 8.43533 18.3419 8.45486 17.9417C8.45486 17.9417 8.60128 14.5348 11.9886 14.5348C15.3662 14.5348 15.5126 17.9417 15.5126 17.9417C15.5322 18.3419 15.8739 18.6642 16.2741 18.6446C16.6841 18.6251 16.9964 18.2834 16.9769 17.8832C16.9769 17.8832 16.7939 13.7806 13.0087 13.1512C14.4429 12.713 15.4902 11.3763 15.4902 9.80128C15.4902 7.86327 13.9181 6.29126 11.9884 6.29126Z" fill="black"/>
</g>
<defs>
<clipPath id="clip0_221_20187">
<rect width="24" height="24" fill="white"/>
</clipPath>
</defs>
</svg>
