<svg width="24" height="24" viewBox="0 0 24 24" fill="none" xmlns="http://www.w3.org/2000/svg">
<g clip-path="url(#clip0_221_20248)">
<path fill-rule="evenodd" clip-rule="evenodd" d="M6.25 10.055V8C6.25 6.20979 6.96116 4.4929 8.22703 3.22703C9.4929 1.96116 11.2098 1.25 13 1.25C14.7902 1.25 16.5071 1.96116 17.773 3.22703C19.0388 4.4929 19.75 6.20979 19.75 8V10.055C20.865 10.138 21.59 10.348 22.121 10.879C23 11.757 23 13.172 23 16C23 18.828 23 20.243 22.121 21.121C21.243 22 19.828 22 17 22H9C6.172 22 4.757 22 3.879 21.121C3 20.243 3 18.828 3 16C3 13.172 3 11.757 3.879 10.879C4.409 10.348 5.135 10.138 6.25 10.055ZM7.75 8C7.75 6.60761 8.30312 5.27225 9.28769 4.28769C10.2723 3.30312 11.6076 2.75 13 2.75C14.3924 2.75 15.7277 3.30312 16.7123 4.28769C17.6969 5.27225 18.25 6.60761 18.25 8V10.004C17.8673 10.0007 17.4507 9.99933 17 10H9C8.54867 9.99933 8.132 10.0007 7.75 10.004V8ZM13 13.25C13.1989 13.25 13.3897 13.329 13.5303 13.4697C13.671 13.6103 13.75 13.8011 13.75 14V18C13.75 18.1989 13.671 18.3897 13.5303 18.5303C13.3897 18.671 13.1989 18.75 13 18.75C12.8011 18.75 12.6103 18.671 12.4697 18.5303C12.329 18.3897 12.25 18.1989 12.25 18V14C12.25 13.8011 12.329 13.6103 12.4697 13.4697C12.6103 13.329 12.8011 13.25 13 13.25Z" fill="black"/>
</g>
<defs>
<clipPath id="clip0_221_20248">
<rect width="24" height="24" fill="white"/>
</clipPath>
</defs>
</svg>
