<svg width="24" height="24" viewBox="0 0 24 24" fill="none" xmlns="http://www.w3.org/2000/svg">
<g clip-path="url(#clip0_221_20156)">
<path fill-rule="evenodd" clip-rule="evenodd" d="M22 12C22 17.523 17.523 22 12 22C6.477 22 2 17.523 2 12C2 6.477 6.477 2 12 2C17.523 2 22 6.477 22 12ZM15 9C15 9.79565 14.6839 10.5587 14.1213 11.1213C13.5587 11.6839 12.7956 12 12 12C11.2044 12 10.4413 11.6839 9.87868 11.1213C9.31607 10.5587 9 9.79565 9 9C9 8.20435 9.31607 7.44129 9.87868 6.87868C10.4413 6.31607 11.2044 6 12 6C12.7956 6 13.5587 6.31607 14.1213 6.87868C14.6839 7.44129 15 8.20435 15 9ZM12 20.5C13.7163 20.5028 15.3928 19.9834 16.807 19.011C17.411 18.596 17.669 17.806 17.317 17.163C16.59 15.83 15.09 15 12 15C8.91 15 7.41 15.83 6.682 17.163C6.331 17.806 6.589 18.596 7.193 19.011C8.6072 19.9834 10.2837 20.5028 12 20.5Z" fill="black"/>
</g>
<defs>
<clipPath id="clip0_221_20156">
<rect width="24" height="24" fill="white"/>
</clipPath>
</defs>
</svg>
