<svg width="24" height="24" viewBox="0 0 24 24" fill="none" xmlns="http://www.w3.org/2000/svg">
<g clip-path="url(#clip0_221_20217)">
<path d="M20 17.5C20 19.985 20 22 12 22C4 22 4 19.985 4 17.5C4 15.015 7.582 13 12 13C16.418 13 20 15.015 20 17.5Z" fill="black"/>
<path fill-rule="evenodd" clip-rule="evenodd" d="M6.83937 8.49658C5.64221 8.49658 4.67273 9.46606 4.67273 10.6632C4.67273 11.8604 5.64221 12.83 6.83937 12.83C8.02809 12.83 9.006 11.8604 9.006 10.6632C9.006 9.46606 8.02809 8.49658 6.83937 8.49658ZM6.83937 10.0225C7.18502 10.0225 7.47167 10.3091 7.47167 10.6632C7.47167 11.0173 7.18502 11.304 6.83937 11.304C6.48528 11.304 6.19863 11.0173 6.19863 10.6632C6.19863 10.3091 6.48528 10.0225 6.83937 10.0225Z" fill="black"/>
<path fill-rule="evenodd" clip-rule="evenodd" d="M5.95156 4.62466C5.95156 4.62466 5.3301 5.30725 4.94296 6.2853C4.52526 7.34484 4.40299 8.72012 5.44216 10.0038C5.70705 10.3298 6.18581 10.3809 6.51182 10.116C6.83783 9.85109 6.88876 9.37219 6.62387 9.03599C6.0126 8.28208 6.12466 7.46702 6.36917 6.84556C6.63406 6.14259 7.0824 5.66385 7.0824 5.66385C7.36767 5.34802 7.34724 4.86913 7.03142 4.58387C6.72578 4.2986 6.23682 4.31902 5.95156 4.62466Z" fill="black"/>
<path d="M15.9204 6.7979C15.5506 8.62474 13.9359 10 12 10C9.79086 10 8 8.20914 8 6C8 5.60848 8.05625 5.23009 8.16111 4.87249C8.86451 5.48738 11.0831 6.97763 15.9204 6.7979Z" fill="black"/>
<path d="M15.9328 5.26589C10.7604 5.4744 9.06174 3.62673 9.06174 3.62673C9.01313 3.56692 8.95698 3.51705 8.89574 3.47719C9.62918 2.57581 10.7473 2 12 2C13.9584 2 15.588 3.40737 15.9328 5.26589Z" fill="black"/>
</g>
<defs>
<clipPath id="clip0_221_20217">
<rect width="24" height="24" fill="white"/>
</clipPath>
</defs>
</svg>
