<svg width="24" height="24" viewBox="0 0 24 24" fill="none" xmlns="http://www.w3.org/2000/svg">
<path fill-rule="evenodd" clip-rule="evenodd" d="M12.0228 7.20898H12.0414C13.5717 7.20898 14.4158 7.62635 14.8795 8.01589C15.4267 8.46108 15.5473 8.92477 15.5751 9.00824L15.5937 9.0918C15.603 9.18455 15.6029 9.26791 15.5844 9.33284C15.538 9.60181 15.3339 9.81521 15.0557 9.88013C14.5548 9.98216 14.2302 9.37926 14.2302 9.37926C14.2302 9.37926 13.7757 8.60021 12.0414 8.60021H12.0228H12.0135C10.2791 8.60021 9.82466 9.37926 9.82466 9.37926C9.82466 9.37926 9.50003 9.98216 8.99919 9.88013C8.72094 9.81521 8.51695 9.60181 8.47057 9.33284C8.45202 9.26791 8.45201 9.18455 8.46129 9.0918L8.47986 9.00824C8.50768 8.92477 8.62825 8.46108 9.17547 8.01589C9.63921 7.62635 10.4832 7.20898 12.0135 7.20898H12.0228Z" fill="black"/>
<path fill-rule="evenodd" clip-rule="evenodd" d="M5.56758 19.3494H5.58615C7.11649 19.3494 7.96056 19.7667 8.4243 20.1563C8.97151 20.6015 9.09208 21.0652 9.11991 21.1486L9.13848 21.2322C9.14775 21.3249 9.14774 21.4083 9.12919 21.4732C9.08282 21.7422 8.87871 21.9556 8.60046 22.0205C8.09962 22.1225 7.77499 21.5196 7.77499 21.5196C7.77499 21.5196 7.32054 20.7406 5.58615 20.7406H5.56758H5.5583C3.82391 20.7406 3.36946 21.5196 3.36946 21.5196C3.36946 21.5196 3.04483 22.1225 2.54399 22.0205C2.26574 21.9556 2.06175 21.7422 2.01537 21.4732C1.99682 21.4083 1.99681 21.3249 2.00609 21.2322L2.02466 21.1486C2.05248 21.0652 2.17305 20.6015 2.72027 20.1563C3.18401 19.7667 4.02796 19.3494 5.5583 19.3494H5.56758Z" fill="black"/>
<path fill-rule="evenodd" clip-rule="evenodd" d="M6.45546 12.4039H17.5214C17.9095 12.4039 18.2139 12.0919 18.2139 11.7037C18.2139 11.3232 17.9095 11.0112 17.5214 11.0112H6.45546C6.06732 11.0112 5.75525 11.3232 5.75525 11.7037C5.75525 12.0919 6.06732 12.4039 6.45546 12.4039Z" fill="black"/>
<path fill-rule="evenodd" clip-rule="evenodd" d="M18.4132 19.3494H18.4317C19.9621 19.3494 20.8061 19.7667 21.2699 20.1563C21.8171 20.6015 21.9377 21.0652 21.9655 21.1486L21.9841 21.2322C21.9933 21.3249 21.9933 21.4083 21.9748 21.4732C21.9284 21.7422 21.7243 21.9556 21.446 22.0205C20.9452 22.1225 20.6206 21.5196 20.6206 21.5196C20.6206 21.5196 20.1661 20.7406 18.4317 20.7406H18.4132H18.4039C16.6695 20.7406 16.215 21.5196 16.215 21.5196C16.215 21.5196 15.8904 22.1225 15.3896 22.0205C15.1113 21.9556 14.9073 21.7422 14.861 21.4732C14.8424 21.4083 14.8424 21.3249 14.8517 21.2322L14.8702 21.1486C14.8981 21.0652 15.0186 20.6015 15.5658 20.1563C16.0296 19.7667 16.8735 19.3494 18.4039 19.3494H18.4132Z" fill="black"/>
<path d="M9.03552 4.99864C9.03552 3.34713 10.3749 2 12.0265 2C13.678 2 15.0175 3.34713 15.0175 4.99864C15.0175 6.65015 13.678 7.98958 12.0265 7.98958C10.3749 7.98958 9.03552 6.65015 9.03552 4.99864Z" fill="black"/>
<path d="M2.57837 17.17C2.57837 15.5185 3.91779 14.1714 5.5693 14.1714C7.22081 14.1714 8.56033 15.5185 8.56033 17.17C8.56033 18.8215 7.22081 20.161 5.5693 20.161C3.91779 20.161 2.57837 18.8215 2.57837 17.17Z" fill="black"/>
<path d="M15.4462 17.17C15.4462 15.5185 16.7856 14.1714 18.4371 14.1714C20.0886 14.1714 21.4281 15.5185 21.4281 17.17C21.4281 18.8215 20.0886 20.161 18.4371 20.161C16.7856 20.161 15.4462 18.8215 15.4462 17.17Z" fill="black"/>
</svg>
