<svg width="24" height="24" viewBox="0 0 24 24" fill="none" xmlns="http://www.w3.org/2000/svg">
<path fill-rule="evenodd" clip-rule="evenodd" d="M22.0031 18.8446C22.3631 18.8546 22.6731 18.5946 22.7431 18.2246C22.7431 18.2246 23.2231 16.1046 19.983 14.2745C17.1129 12.6445 13.8229 12.8444 13.8229 12.8444C13.4029 12.8744 13.0929 13.2245 13.1229 13.6445C13.1429 14.0545 14.0629 14.3345 14.3329 14.3345C15.2129 14.3445 17.3329 14.4944 19.243 15.5745C21.163 16.6645 21.253 17.9946 21.253 17.9946C21.2931 18.5546 21.5531 18.8346 22.0031 18.8446Z" fill="black"/>
<path d="M15.9912 9.44346C15.9912 7.57427 17.5122 6.05347 19.3813 6.05347C21.2505 6.05347 22.7714 7.57427 22.7714 9.44346C22.7714 11.3126 21.2505 12.8336 19.3813 12.8336C17.5122 12.8336 15.9912 11.3126 15.9912 9.44346Z" fill="black"/>
<path d="M9.979 1.25C7.37344 1.25 5.22914 3.3943 5.22914 5.99986C5.22914 8.60542 7.37344 10.7497 9.979 10.7497C12.5846 10.7497 14.7289 8.60542 14.7289 5.99986C14.7289 3.3943 12.5846 1.25 9.979 1.25Z" fill="black"/>
<path d="M9.979 12.2498C7.66595 12.2498 5.53365 12.7763 3.95486 13.6643C2.39858 14.5403 1.22855 15.8663 1.22855 17.4999V17.6019C1.2278 18.7644 1.22705 20.2224 2.50583 21.2642C3.1351 21.7765 4.01562 22.141 5.20589 22.381C6.39767 22.6232 7.95321 22.75 9.979 22.75C12.0048 22.75 13.5588 22.6232 14.7529 22.381C15.9431 22.141 16.8229 21.7765 17.4529 21.2642C18.7312 20.2235 18.7302 18.7674 18.7295 17.6054V17.4999C18.7295 15.8663 17.5594 14.5403 16.0039 13.6643C14.4244 12.7763 12.2928 12.2498 9.979 12.2498Z" fill="black"/>
</svg>
