<svg width="24" height="24" viewBox="0 0 24 24" fill="none" xmlns="http://www.w3.org/2000/svg">
<g clip-path="url(#clip0_221_20231)">
<path fill-rule="evenodd" clip-rule="evenodd" d="M16.5788 20.3306L17.8666 19.0428C18.168 18.7417 18.168 18.253 17.8666 17.952L16.5788 16.6641C16.2778 16.3631 15.789 16.3631 15.488 16.6641C15.187 16.9652 15.187 17.4539 15.488 17.7549L16.2301 18.4974L15.488 19.2398C15.187 19.5409 15.187 20.0296 15.488 20.3306C15.789 20.6317 16.2778 20.6317 16.5788 20.3306Z" fill="black"/>
<path fill-rule="evenodd" clip-rule="evenodd" d="M16.4548 13.6116C13.7578 13.6116 11.5685 15.8009 11.5685 18.4971C11.5685 21.1933 13.7578 23.3826 16.4548 23.3826C19.151 23.3826 21.3403 21.1933 21.3403 18.4971C21.3403 15.8009 19.151 13.6116 16.4548 13.6116ZM16.4548 15.1545C18.2993 15.1545 19.7974 16.6518 19.7974 18.4971C19.7974 20.3424 18.2993 21.8397 16.4548 21.8397C14.6095 21.8397 13.1114 20.3424 13.1114 18.4971C13.1114 16.6518 14.6095 15.1545 16.4548 15.1545Z" fill="black"/>
<path d="M16 6C16 7.06087 15.5786 8.07828 14.8284 8.82843C14.0783 9.57857 13.0609 10 12 10C10.9391 10 9.92172 9.57857 9.17157 8.82843C8.42143 8.07828 8 7.06087 8 6C8 4.93913 8.42143 3.92172 9.17157 3.17157C9.92172 2.42143 10.9391 2 12 2C13.0609 2 14.0783 2.42143 14.8284 3.17157C15.5786 3.92172 16 4.93913 16 6ZM14.295 13.188C13.4809 13.5263 12.7555 14.0472 12.1747 14.7105C11.594 15.3738 11.1734 16.1617 10.9456 17.0133C10.7178 17.865 10.6889 18.7576 10.8609 19.6223C11.033 20.4869 11.4015 21.3004 11.938 22C4 21.99 4 19.979 4 17.5C4 15.015 7.582 13 12 13C12.798 13 13.568 13.066 14.295 13.188Z" fill="black"/>
</g>
<defs>
<clipPath id="clip0_221_20231">
<rect width="24" height="24" fill="white"/>
</clipPath>
</defs>
</svg>
