<svg width="24" height="24" viewBox="0 0 24 24" fill="none" xmlns="http://www.w3.org/2000/svg">
<g clip-path="url(#clip0_221_20263)">
<path d="M14 4.5C14 5.16304 13.7366 5.79893 13.2678 6.26777C12.7989 6.73661 12.163 7 11.5 7C10.837 7 10.2011 6.73661 9.73223 6.26777C9.26339 5.79893 9 5.16304 9 4.5C9 3.83696 9.26339 3.20107 9.73223 2.73223C10.2011 2.26339 10.837 2 11.5 2C12.163 2 12.7989 2.26339 13.2678 2.73223C13.7366 3.20107 14 3.83696 14 4.5Z" fill="black"/>
<path fill-rule="evenodd" clip-rule="evenodd" d="M12.5279 10.753C12.442 10.7492 12.3559 10.7482 12.2699 10.75H11.1789L11.0879 11.662C10.9139 13.402 10.8529 14.102 11.0079 14.763C11.1639 15.425 11.5299 16.024 12.4609 17.505L15.0359 21.601C15.139 21.7694 15.1716 21.9716 15.1266 22.1638C15.0816 22.356 14.9625 22.5227 14.7954 22.6278C14.6282 22.7328 14.4264 22.7677 14.2337 22.7249C14.0409 22.682 13.8729 22.5649 13.7659 22.399L11.1909 18.303L11.1179 18.187C10.2829 16.86 9.76794 16.041 9.54794 15.107C9.32794 14.173 9.42494 13.209 9.58194 11.648L9.59494 11.512L9.67094 10.751C9.17094 10.754 8.79894 10.763 8.50094 10.8C8.12294 10.845 7.94694 10.925 7.82194 11.025C7.69794 11.125 7.58194 11.279 7.45494 11.638C7.32194 12.015 7.20694 12.526 7.03594 13.295L6.73194 14.663C6.68644 14.8548 6.56727 15.021 6.40019 15.1256C6.23312 15.2302 6.03158 15.2648 5.83917 15.222C5.64676 15.1791 5.47895 15.0623 5.37205 14.8966C5.26515 14.731 5.22775 14.53 5.26794 14.337L5.58194 12.926C5.73994 12.212 5.87394 11.612 6.04094 11.138C6.21794 10.636 6.45994 10.195 6.88394 9.855C7.30794 9.515 7.78994 9.375 8.31894 9.31C8.81794 9.25 9.43294 9.25 10.1639 9.25H12.2949C12.4309 9.25 12.5359 9.25 12.6349 9.257C13.1796 9.296 13.7004 9.49629 14.1309 9.83235C14.5613 10.1684 14.882 10.625 15.0519 11.144C15.0819 11.238 15.1079 11.341 15.1419 11.473L15.1469 11.497C15.2029 11.721 15.2199 11.785 15.2359 11.829C15.4459 12.435 16.0809 12.784 16.7049 12.636C16.7509 12.626 16.8139 12.605 17.0329 12.532L17.7629 12.289C17.9492 12.2347 18.1492 12.2546 18.321 12.3447C18.4928 12.4347 18.6231 12.5878 18.6845 12.7718C18.7458 12.9559 18.7334 13.1565 18.65 13.3316C18.5666 13.5067 18.4185 13.6427 18.2369 13.711L17.5069 13.955L17.4749 13.965C17.3356 14.0146 17.1941 14.058 17.0509 14.095C16.3882 14.2521 15.6907 14.1576 15.0936 13.8298C14.4965 13.5021 14.0423 12.9644 13.8189 12.321C13.773 12.1805 13.7333 12.038 13.6999 11.894L13.6919 11.86C13.6726 11.776 13.6506 11.6926 13.6259 11.61C13.5486 11.3743 13.4029 11.167 13.2074 11.0144C13.0118 10.8618 12.7753 10.7708 12.5279 10.753ZM9.41594 16.876C9.58142 16.9863 9.6963 17.1579 9.73531 17.3529C9.77432 17.548 9.73425 17.7505 9.62394 17.916L6.62394 22.416C6.56983 22.4991 6.49977 22.5707 6.41782 22.6266C6.33586 22.6824 6.24364 22.7215 6.14649 22.7415C6.04934 22.7615 5.94919 22.762 5.85184 22.743C5.75448 22.724 5.66186 22.6859 5.57934 22.6309C5.49681 22.5759 5.42601 22.505 5.37105 22.4225C5.31609 22.3399 5.27805 22.2473 5.25913 22.1499C5.24021 22.0525 5.24079 21.9524 5.26084 21.8553C5.28089 21.7581 5.32001 21.6659 5.37594 21.584L8.37594 17.084C8.48627 16.9185 8.65783 16.8036 8.85286 16.7646C9.0479 16.7256 9.25044 16.7657 9.41594 16.876Z" fill="black"/>
</g>
<defs>
<clipPath id="clip0_221_20263">
<rect width="24" height="24" fill="white"/>
</clipPath>
</defs>
</svg>
