<svg width="24" height="24" viewBox="0 0 24 24" fill="none" xmlns="http://www.w3.org/2000/svg">
<g clip-path="url(#clip0_221_19169)">
<path d="M11.2499 2C9.88392 2.001 8.73092 2.01 7.74992 2.068V6.25H11.2499V2ZM6.24992 2.221C5.02692 2.416 4.14892 2.781 3.46392 3.464C2.77992 4.148 2.41592 5.027 2.22192 6.25H6.24992V2.221Z" fill="black"/>
<path fill-rule="evenodd" clip-rule="evenodd" d="M2 12C2 10.3 2 8.906 2.069 7.75H21.93C22 8.906 22 10.3 22 12C22 13.7 22 15.094 21.931 16.25H2.07C2 15.094 2 13.7 2 12ZM12.411 10.404C13.471 11.116 14 11.472 14 12C14 12.528 13.47 12.884 12.411 13.596C11.338 14.317 10.801 14.678 10.401 14.413C10 14.148 10 13.433 10 12C10 10.567 10 9.852 10.4 9.587C10.8 9.322 11.338 9.683 12.411 10.404Z" fill="black"/>
<path d="M21.7779 6.25C21.5839 5.027 21.2199 4.148 20.5359 3.464C19.8519 2.78 18.9729 2.416 17.7499 2.221V6.25H21.7779ZM12.7499 2C14.1159 2.001 15.2689 2.01 16.2499 2.068V6.25H12.7499V2ZM21.7779 17.75H17.7499V21.778C18.9729 21.584 19.8519 21.219 20.5349 20.535C21.2199 19.851 21.5849 18.973 21.7779 17.75ZM16.2499 17.75V21.931C15.2689 21.989 14.1159 21.998 12.7499 22V17.75H16.2499ZM11.2499 22V17.75H7.74992V21.931C8.73092 21.989 9.88392 21.998 11.2499 22ZM6.24992 17.75V21.778C5.02692 21.584 4.14892 21.219 3.46392 20.535C2.77992 19.851 2.41592 18.973 2.22192 17.75H6.24992Z" fill="black"/>
</g>
<defs>
<clipPath id="clip0_221_19169">
<rect width="24" height="24" fill="white"/>
</clipPath>
</defs>
</svg>
