<svg width="24" height="24" viewBox="0 0 24 24" fill="none" xmlns="http://www.w3.org/2000/svg">
<g clip-path="url(#clip0_221_21431)">
<path d="M5.66999 9.91398L8.73199 5.77098C10.711 3.09298 11.701 1.75398 12.624 2.03698C13.547 2.31998 13.547 3.96198 13.547 7.24698V7.55698C13.547 8.74198 13.547 9.33398 13.926 9.70498L13.946 9.72498C14.333 10.088 14.949 10.088 16.182 10.088C18.402 10.088 19.511 10.088 19.886 10.761L19.904 10.795C20.258 11.478 19.615 12.348 18.33 14.085L15.268 18.229C13.288 20.907 12.299 22.246 11.376 21.963C10.453 21.68 10.453 20.038 10.453 16.753V16.443C10.453 15.258 10.453 14.666 10.074 14.295L10.054 14.275C9.66699 13.912 9.05099 13.912 7.81799 13.912C5.59799 13.912 4.48899 13.912 4.11499 13.239L4.09599 13.205C3.74199 12.522 4.38499 11.653 5.66999 9.91498" fill="black"/>
</g>
<defs>
<clipPath id="clip0_221_21431">
<rect width="24" height="24" fill="white"/>
</clipPath>
</defs>
</svg>
