<svg width="24" height="24" viewBox="0 0 24 24" fill="none" xmlns="http://www.w3.org/2000/svg">
<g clip-path="url(#clip0_221_21410)">
<path d="M19.9 2.30704C19.8647 2.21644 19.8028 2.13861 19.7226 2.08374C19.6423 2.02887 19.5473 1.99951 19.45 1.99951C19.3528 1.99951 19.2578 2.02887 19.1775 2.08374C19.0972 2.13861 19.0354 2.21644 19 2.30704L18.57 3.40204C18.5461 3.46406 18.5096 3.52043 18.4628 3.5676C18.416 3.61476 18.3599 3.65169 18.298 3.67604L17.207 4.10804C17.1167 4.14403 17.0392 4.2063 16.9846 4.28679C16.9301 4.36728 16.9009 4.46229 16.9009 4.55954C16.9009 4.6568 16.9301 4.75181 16.9846 4.8323C17.0392 4.91279 17.1167 4.97506 17.207 5.01104L18.298 5.44304C18.3598 5.46729 18.4158 5.50406 18.4626 5.55105C18.5095 5.59804 18.546 5.65422 18.57 5.71604L19 6.81004C19.162 7.22004 19.74 7.22004 19.9 6.81004L20.33 5.71504C20.3542 5.65312 20.3909 5.59688 20.4379 5.54989C20.4849 5.50289 20.5411 5.46617 20.603 5.44204L21.694 5.01004C21.7844 4.97406 21.8619 4.91179 21.9164 4.8313C21.971 4.75081 22.0002 4.65579 22.0002 4.55854C22.0002 4.46129 21.971 4.36628 21.9164 4.28579C21.8619 4.2053 21.7844 4.14303 21.694 4.10704L20.603 3.67504C20.541 3.65081 20.4847 3.61393 20.4377 3.56676C20.3907 3.51959 20.354 3.46315 20.33 3.40104L19.9 2.30704ZM16.033 8.13004C15.9977 8.03944 15.9358 7.96161 15.8556 7.90674C15.7753 7.85187 15.6803 7.82251 15.583 7.82251C15.4858 7.82251 15.3908 7.85187 15.3105 7.90674C15.2302 7.96161 15.1684 8.03944 15.133 8.13004L14.976 8.52904C14.952 8.59087 14.9155 8.64705 14.8686 8.69404C14.8218 8.74103 14.7658 8.7778 14.704 8.80204L14.306 8.96004C14.2157 8.99603 14.1382 9.0583 14.0836 9.13879C14.0291 9.21928 13.9999 9.31429 13.9999 9.41154C13.9999 9.50879 14.0291 9.60381 14.0836 9.6843C14.1382 9.76479 14.2157 9.82706 14.306 9.86304L14.704 10.02C14.829 10.07 14.927 10.168 14.976 10.294L15.133 10.693C15.294 11.103 15.872 11.103 16.033 10.693L16.19 10.293C16.2141 10.2312 16.2506 10.175 16.2974 10.128C16.3442 10.0811 16.4003 10.0443 16.462 10.02L16.86 9.86304C16.9504 9.82706 17.0279 9.76479 17.0824 9.6843C17.137 9.60381 17.1662 9.50879 17.1662 9.41154C17.1662 9.31429 17.137 9.21928 17.0824 9.13879C17.0279 9.0583 16.9504 8.99603 16.86 8.96004L16.462 8.80204C16.4003 8.7778 16.3442 8.74103 16.2974 8.69404C16.2506 8.64705 16.2141 8.59087 16.19 8.52904L16.033 8.13004Z" fill="black"/>
<path d="M12 22C17.523 22 22 17.523 22 12C22 11.537 21.306 11.46 21.067 11.857C20.5572 12.7013 19.862 13.4186 19.034 13.9545C18.206 14.4903 17.2669 14.8307 16.2878 14.9499C15.3088 15.0691 14.3154 14.9639 13.383 14.6423C12.4507 14.3207 11.6037 13.7911 10.9063 13.0937C10.2089 12.3963 9.67932 11.5493 9.35772 10.617C9.03613 9.68457 8.93093 8.69123 9.0501 7.71217C9.16926 6.73311 9.50967 5.794 10.0455 4.96599C10.5814 4.13797 11.2987 3.44275 12.143 2.933C12.54 2.693 12.463 2 12 2C6.477 2 2 6.477 2 12C2 17.523 6.477 22 12 22Z" fill="black"/>
</g>
<defs>
<clipPath id="clip0_221_21410">
<rect width="24" height="24" fill="white"/>
</clipPath>
</defs>
</svg>
