<svg width="24" height="24" viewBox="0 0 24 24" fill="none" xmlns="http://www.w3.org/2000/svg">
<g clip-path="url(#clip0_221_21394)">
<path fill-rule="evenodd" clip-rule="evenodd" d="M11.612 22C6.855 22 3 18.057 3 13.193V12.928C3 8.31701 5.729 4.16301 9.903 2.42101C10.5672 2.14295 11.28 1.99976 12 1.99976C12.72 1.99976 13.4328 2.14295 14.097 2.42101C18.272 4.16301 21 8.31701 21 12.928V13.193C21 18.057 17.145 22 12.389 22H11.612ZM12.066 5.96101C12.1074 6.05044 12.1308 6.14714 12.1348 6.24561C12.1388 6.34407 12.1234 6.44236 12.0894 6.53486C12.0554 6.62736 12.0035 6.71225 11.9367 6.78469C11.8699 6.85712 11.7895 6.91568 11.7 6.95701C10.155 7.67201 8.907 9.12501 8.33 10.95C8.26993 11.1396 8.13699 11.2976 7.96042 11.3893C7.78386 11.4809 7.57813 11.4986 7.3885 11.4385C7.19887 11.3784 7.04087 11.2455 6.94926 11.0689C6.85765 10.8924 6.83993 10.6866 6.9 10.497C7.592 8.31101 9.106 6.50401 11.07 5.59601C11.1594 5.55457 11.256 5.53114 11.3544 5.52705C11.4529 5.52297 11.5511 5.53831 11.6436 5.5722C11.7361 5.6061 11.821 5.65788 11.8935 5.72459C11.966 5.79131 12.0246 5.87164 12.066 5.96101Z" fill="black"/>
</g>
<defs>
<clipPath id="clip0_221_21394">
<rect width="24" height="24" fill="white"/>
</clipPath>
</defs>
</svg>
