<svg width="24" height="24" viewBox="0 0 24 24" fill="none" xmlns="http://www.w3.org/2000/svg">
<g clip-path="url(#clip0_221_21416)">
<path d="M12.832 21.8012C15.958 21.1752 20 18.9262 20 13.1112C20 7.82017 16.127 4.29617 13.342 2.67717C12.723 2.31717 12 2.79018 12 3.50517V5.33318C12 6.77518 11.394 9.40718 9.71 10.5022C8.85 11.0612 7.92 10.2242 7.816 9.20418L7.73 8.36618C7.63 7.39218 6.638 6.80118 5.86 7.39517C4.461 8.46018 3 10.3302 3 13.1102C3 20.2212 8.289 22.0002 10.933 22.0002C11.0877 22.0002 11.249 21.9952 11.417 21.9852C10.111 21.8742 8 21.0642 8 18.4442C8 16.3942 9.495 15.0092 10.631 14.3342C10.937 14.1542 11.294 14.3892 11.294 14.7442V15.3342C11.294 15.7842 11.469 16.4892 11.884 16.9712C12.354 17.5172 13.043 16.9452 13.098 16.2272C13.116 16.0012 13.344 15.8572 13.54 15.9712C14.181 16.3462 15 17.1462 15 18.4442C15 20.4922 13.871 21.4342 12.832 21.8012Z" fill="black"/>
</g>
<defs>
<clipPath id="clip0_221_21416">
<rect width="24" height="24" fill="white"/>
</clipPath>
</defs>
</svg>
