<svg width="24" height="24" viewBox="0 0 24 24" fill="none" xmlns="http://www.w3.org/2000/svg">
<g clip-path="url(#clip0_221_21381)">
<path d="M19.124 18.255C19.0146 17.9408 18.8366 17.6549 18.6029 17.4181C18.3692 17.1813 18.0857 16.9995 17.773 16.886C18.1271 16.4346 18.2954 15.8651 18.2435 15.2937C18.1916 14.7224 17.9234 14.1925 17.4938 13.8123C17.0642 13.4321 16.5056 13.2304 15.9322 13.2484C15.3588 13.2663 14.814 13.5027 14.409 13.909L13.607 14.71C13.4748 14.3574 13.2563 14.0437 12.9714 13.7975C12.6866 13.5513 12.3445 13.3805 11.9765 13.3008C11.6085 13.2211 11.2264 13.235 10.8652 13.3413C10.504 13.4475 10.1752 13.6427 9.909 13.909L7.909 15.909C7.67047 16.1468 7.48863 16.4353 7.377 16.753C6.843 16.783 6.317 17.001 5.909 17.409L4.641 18.677C3.091 18.04 2 16.528 2 14.765C2 12.425 3.919 10.529 6.286 10.529C6.57067 10.5297 6.84733 10.5563 7.116 10.609C6.8816 9.98144 6.7617 9.31691 6.762 8.647C6.762 5.528 9.32 3 12.476 3C15.416 3 17.837 5.194 18.156 8.015C20.392 8.78 22 10.881 22 13.353C22 15.451 20.842 17.282 19.124 18.255Z" fill="black"/>
<path d="M10.0277 18.0323C9.95946 18.1048 9.87748 18.1631 9.78651 18.2036C9.69451 18.2446 9.59519 18.2666 9.49449 18.2684C9.39379 18.2702 9.29376 18.2517 9.20037 18.214C9.10698 18.1762 9.02215 18.1201 8.95093 18.0489C8.87971 17.9776 8.82357 17.8928 8.78585 17.7994C8.74813 17.706 8.7296 17.606 8.73138 17.5053C8.73315 17.4046 8.7552 17.3053 8.79619 17.2133C8.83718 17.1213 8.89628 17.0385 8.96997 16.9698L10.97 14.9698C11.1106 14.8294 11.3012 14.7505 11.5 14.7505C11.6987 14.7505 11.8893 14.8294 12.03 14.9698C12.0397 14.9796 12.0491 14.9896 12.0583 14.9998C12.0821 15.0264 12.1039 15.0546 12.1236 15.0841C12.205 15.2064 12.2494 15.3508 12.2494 15.4999C12.2494 15.6987 12.1705 15.8893 12.03 16.0299L10.03 18.0299L10.0277 18.0323Z" fill="black"/>
<path d="M15.472 14.9678L15.47 14.9698L13.47 16.9698C13.3963 17.0385 13.3372 17.1213 13.2962 17.2133C13.2552 17.3053 13.2332 17.4046 13.2314 17.5053C13.2296 17.606 13.2481 17.706 13.2858 17.7994C13.2989 17.8317 13.3142 17.863 13.3315 17.8931C13.358 17.9391 13.3893 17.9822 13.425 18.0216C13.4334 18.0309 13.4421 18.04 13.451 18.0489C13.5222 18.1202 13.607 18.1763 13.7004 18.214C13.7938 18.2518 13.8939 18.2703 13.9946 18.2685C14.0953 18.2667 14.1946 18.2447 14.2866 18.2037C14.3786 18.1627 14.4614 18.1036 14.53 18.0299L16.53 16.0299C16.6037 15.9612 16.6628 15.8784 16.7038 15.7864C16.7448 15.6944 16.7668 15.5951 16.7686 15.4944C16.7704 15.3937 16.7519 15.2937 16.7142 15.2003C16.6764 15.1069 16.6203 15.0221 16.5491 14.9509C16.4779 14.8797 16.393 14.8235 16.2996 14.7858C16.2062 14.7481 16.1062 14.7295 16.0055 14.7313C15.9048 14.7331 15.8055 14.7551 15.7135 14.7961C15.6224 14.8367 15.5403 14.8951 15.472 14.9678Z" fill="black"/>
<path d="M8.24931 18.9998C8.24931 18.8011 8.17042 18.6105 8.02997 18.4698C7.88934 18.3294 7.69872 18.2505 7.49997 18.2505C7.30122 18.2505 7.11059 18.3294 6.96997 18.4698L4.96997 20.4698C4.83749 20.612 4.76537 20.8 4.76879 20.9944C4.77222 21.1887 4.85093 21.374 4.98835 21.5115C5.12576 21.6489 5.31114 21.7276 5.50545 21.731C5.69975 21.7344 5.88779 21.6623 6.02997 21.5298L8.02997 19.5298C8.17042 19.3892 8.24931 19.1986 8.24931 18.9998Z" fill="black"/>
<path d="M17.7493 18.9998C17.7493 18.8011 17.6704 18.6105 17.53 18.4698C17.3893 18.3294 17.1987 18.2505 17 18.2505C16.8012 18.2505 16.6106 18.3294 16.47 18.4698L14.47 20.4698C14.3963 20.5385 14.3372 20.6213 14.2962 20.7133C14.2552 20.8053 14.2332 20.9046 14.2314 21.0053C14.2296 21.106 14.2481 21.206 14.2858 21.2994C14.3236 21.3928 14.3797 21.4776 14.4509 21.5489C14.5222 21.6201 14.607 21.6762 14.7004 21.714C14.7938 21.7517 14.8938 21.7702 14.9945 21.7684C15.0952 21.7666 15.1945 21.7446 15.2865 21.7036C15.3785 21.6626 15.4613 21.6035 15.53 21.5298L17.53 19.5298C17.6704 19.3892 17.7493 19.1986 17.7493 18.9998Z" fill="black"/>
<path d="M12.7493 19.9998C12.7493 19.8011 12.6704 19.6105 12.53 19.4698C12.3893 19.3294 12.1987 19.2505 12 19.2505C11.8012 19.2505 11.6106 19.3294 11.47 19.4698L9.46997 21.4698C9.39628 21.5385 9.33718 21.6213 9.29619 21.7133C9.2552 21.8053 9.23315 21.9046 9.23138 22.0053C9.2296 22.106 9.24813 22.206 9.28585 22.2994C9.32357 22.3928 9.37971 22.4776 9.45093 22.5489C9.52215 22.6201 9.60698 22.6762 9.70037 22.714C9.79376 22.7517 9.89379 22.7702 9.99449 22.7684C10.0952 22.7666 10.1945 22.7446 10.2865 22.7036C10.3785 22.6626 10.4613 22.6035 10.53 22.5298L12.53 20.5298C12.6704 20.3892 12.7493 20.1986 12.7493 19.9998Z" fill="black"/>
</g>
<defs>
<clipPath id="clip0_221_21381">
<rect width="24" height="24" fill="white"/>
</clipPath>
</defs>
</svg>
