<svg width="24" height="24" viewBox="0 0 24 24" fill="none" xmlns="http://www.w3.org/2000/svg">
<g clip-path="url(#clip0_221_21375)">
<path fill-rule="evenodd" clip-rule="evenodd" d="M10.8541 14.51C10.9184 14.5846 10.9673 14.6712 10.9982 14.7648C11.029 14.8583 11.0411 14.9571 11.0338 15.0553C11.0264 15.1536 10.9998 15.2494 10.9554 15.3374C10.911 15.4253 10.8497 15.5037 10.775 15.568L8.02005 17.943H10.287C10.4401 17.9429 10.5895 17.9897 10.7153 18.0771C10.841 18.1644 10.9369 18.2881 10.9903 18.4316C11.0436 18.5751 11.0518 18.7315 11.0137 18.8797C10.9755 19.028 10.893 19.161 10.7771 19.261L6.49005 22.953C6.41546 23.0173 6.32892 23.0663 6.23539 23.0972C6.14185 23.1281 6.04314 23.1403 5.9449 23.1331C5.84665 23.1258 5.7508 23.0993 5.6628 23.055C5.57481 23.0107 5.4964 22.9496 5.43205 22.875C5.3677 22.8004 5.31868 22.7138 5.28777 22.6203C5.25687 22.5268 5.24469 22.4281 5.25193 22.3298C5.25917 22.2316 5.2857 22.1357 5.32998 22.0477C5.37427 21.9597 5.43546 21.8813 5.51005 21.817L8.26605 19.443H6.00005C5.84675 19.4433 5.69704 19.3965 5.57109 19.3092C5.44513 19.2218 5.34899 19.0979 5.2956 18.9541C5.24222 18.8104 5.23415 18.6538 5.27249 18.5054C5.31083 18.357 5.39374 18.2238 5.51005 18.124L9.79605 14.432C9.87063 14.3676 9.95716 14.3186 10.0507 14.2876C10.1442 14.2567 10.243 14.2445 10.3412 14.2518C10.4395 14.259 10.5353 14.2856 10.6233 14.3299C10.7113 14.3742 10.7897 14.4354 10.8541 14.51ZM15.5301 14.97C15.6705 15.1106 15.7494 15.3012 15.7494 15.5C15.7494 15.6987 15.6705 15.8893 15.5301 16.03L13.5301 18.03C13.4614 18.1037 13.3786 18.1628 13.2866 18.2037C13.1946 18.2447 13.0953 18.2668 12.9946 18.2686C12.8939 18.2703 12.7938 18.2518 12.7005 18.2141C12.6071 18.1764 12.5222 18.1202 12.451 18.049C12.3798 17.9778 12.3236 17.893 12.2859 17.7996C12.2482 17.7062 12.2297 17.6061 12.2315 17.5054C12.2332 17.4047 12.2553 17.3054 12.2963 17.2134C12.3373 17.1214 12.3964 17.0386 12.4701 16.97L14.4701 14.97C14.6107 14.8295 14.8013 14.7506 15.0001 14.7506C15.1988 14.7506 15.3894 14.8295 15.5301 14.97ZM17.5301 18.47C17.6705 18.6106 17.7494 18.8012 17.7494 19C17.7494 19.1987 17.6705 19.3893 17.5301 19.53L15.5301 21.53C15.4614 21.6037 15.3786 21.6628 15.2866 21.7037C15.1946 21.7447 15.0953 21.7668 14.9946 21.7686C14.8939 21.7703 14.7938 21.7518 14.7005 21.7141C14.6071 21.6764 14.5222 21.6202 14.451 21.549C14.3798 21.4778 14.3236 21.393 14.2859 21.2996C14.2482 21.2062 14.2297 21.1061 14.2315 21.0054C14.2332 20.9047 14.2553 20.8054 14.2963 20.7134C14.3373 20.6214 14.3964 20.5386 14.4701 20.47L16.47 18.47C16.6107 18.3295 16.8013 18.2506 17.0001 18.2506C17.1988 18.2506 17.3894 18.3295 17.5301 18.47ZM13.5301 19.47C13.6705 19.6106 13.7494 19.8012 13.7494 20C13.7494 20.1987 13.6705 20.3893 13.5301 20.53L11.5301 22.53C11.4614 22.6037 11.3786 22.6628 11.2866 22.7037C11.1946 22.7447 11.0953 22.7668 10.9946 22.7686C10.8939 22.7703 10.7938 22.7518 10.7005 22.7141C10.6071 22.6764 10.5222 22.6202 10.451 22.549C10.3798 22.4778 10.3236 22.393 10.2859 22.2996C10.2482 22.2062 10.2297 22.1061 10.2315 22.0054C10.2332 21.9047 10.2553 21.8054 10.2963 21.7134C10.3373 21.6214 10.3964 21.5386 10.4701 21.47L12.4701 19.47C12.6107 19.3295 12.8013 19.2506 13.0001 19.2506C13.1988 19.2506 13.3894 19.3295 13.5301 19.47Z" fill="black"/>
<path d="M19.124 18.255C18.9629 17.7934 18.6554 17.397 18.2484 17.1261C17.8414 16.8551 17.357 16.7245 16.869 16.754C17.1815 16.2898 17.3099 15.7259 17.229 15.1722C17.1482 14.6185 16.8639 14.1148 16.4317 13.7594C15.9994 13.404 15.4503 13.2224 14.8914 13.2501C14.3325 13.2777 13.804 13.5127 13.409 13.909L12.526 14.792C12.4878 14.3805 12.3371 13.9875 12.0903 13.6561C11.8436 13.3246 11.5103 13.0675 11.1271 12.913C10.7438 12.7585 10.3254 12.7125 9.91775 12.78C9.51009 12.8476 9.1289 13.0261 8.816 13.296L4.531 16.988C4.152 17.315 3.902 17.748 3.801 18.216C3.24581 17.8276 2.7923 17.3112 2.47882 16.7106C2.16534 16.1099 2.0011 15.4426 2 14.765C2 12.425 3.919 10.529 6.286 10.529C6.57067 10.5297 6.84733 10.5563 7.116 10.609C6.8816 9.98144 6.7617 9.31691 6.762 8.647C6.762 5.528 9.32 3 12.476 3C15.416 3 17.837 5.194 18.156 8.015C20.392 8.78 22 10.881 22 13.353C22 15.451 20.842 17.282 19.124 18.255Z" fill="black"/>
</g>
<defs>
<clipPath id="clip0_221_21375">
<rect width="24" height="24" fill="white"/>
</clipPath>
</defs>
</svg>
