<svg width="24" height="24" viewBox="0 0 24 24" fill="none" xmlns="http://www.w3.org/2000/svg">
<g clip-path="url(#clip0_221_21426)">
<path fill-rule="evenodd" clip-rule="evenodd" d="M12 1.25C12.199 1.25 12.3897 1.32902 12.5304 1.46967C12.671 1.61032 12.75 1.80109 12.75 2V4.19L14.47 2.47C14.6122 2.33752 14.8003 2.2654 14.9946 2.26883C15.1889 2.27225 15.3743 2.35097 15.5117 2.48838C15.6491 2.62579 15.7278 2.81118 15.7312 3.00548C15.7346 3.19978 15.6625 3.38783 15.53 3.53L12.75 6.31V10.701L16.552 8.506L17.57 4.708C17.5955 4.61286 17.6395 4.52366 17.6994 4.44551C17.7594 4.36736 17.8341 4.30178 17.9194 4.25252C18.0047 4.20326 18.0989 4.17128 18.1965 4.15841C18.2942 4.14554 18.3934 4.15202 18.4885 4.1775C18.5837 4.20298 18.6729 4.24694 18.751 4.30689C18.8292 4.36684 18.8948 4.44159 18.944 4.52688C18.9933 4.61217 19.0253 4.70633 19.0381 4.80398C19.051 4.90163 19.0445 5.00086 19.019 5.096L18.389 7.446L20.285 6.351C20.4572 6.25311 20.6611 6.2273 20.8522 6.27919C21.0434 6.33108 21.2062 6.45646 21.3052 6.62798C21.4043 6.79949 21.4314 7.00322 21.3808 7.19469C21.3302 7.38616 21.2059 7.54984 21.035 7.65L19.14 8.744L21.49 9.374C21.6822 9.42558 21.846 9.55139 21.9454 9.72373C22.0448 9.89608 22.0716 10.1009 22.02 10.293C21.9685 10.4851 21.8427 10.6489 21.6703 10.7483C21.498 10.8477 21.2932 10.8746 21.101 10.823L17.303 9.805L13.5 12L17.302 14.195L21.1 13.177C21.2923 13.1255 21.4972 13.1526 21.6695 13.2522C21.8419 13.3518 21.9676 13.5157 22.019 13.708C22.0705 13.9003 22.0435 14.1051 21.9439 14.2775C21.8443 14.4498 21.6803 14.5755 21.488 14.627L19.139 15.256L21.035 16.351C21.121 16.3999 21.1965 16.4653 21.2571 16.5435C21.3177 16.6216 21.3622 16.711 21.3881 16.8065C21.4141 16.9019 21.4208 17.0016 21.4081 17.0997C21.3953 17.1977 21.3633 17.2923 21.3139 17.378C21.2644 17.4637 21.1985 17.5387 21.1199 17.5988C21.0414 17.6588 20.9517 17.7028 20.8561 17.7281C20.7604 17.7534 20.6607 17.7595 20.5627 17.7461C20.4648 17.7327 20.3704 17.7 20.285 17.65L18.389 16.555L19.019 18.904C19.0445 18.9991 19.051 19.0984 19.0381 19.196C19.0253 19.2937 18.9933 19.3878 18.944 19.4731C18.8948 19.5584 18.8292 19.6332 18.751 19.6931C18.6729 19.7531 18.5837 19.797 18.4885 19.8225C18.3934 19.848 18.2942 19.8545 18.1965 19.8416C18.0989 19.8287 18.0047 19.7967 17.9194 19.7475C17.8341 19.6982 17.7594 19.6326 17.6994 19.5545C17.6395 19.4763 17.5955 19.3871 17.57 19.292L16.552 15.494L12.75 13.3V17.69L15.53 20.47C15.6017 20.5392 15.6589 20.6219 15.6982 20.7134C15.7376 20.8049 15.7583 20.9033 15.7592 21.0028C15.7601 21.1024 15.7412 21.2012 15.7035 21.2934C15.6659 21.3856 15.6102 21.4693 15.5398 21.5398C15.4695 21.6102 15.3857 21.666 15.2936 21.7037C15.2014 21.7415 15.1027 21.7605 15.0031 21.7597C14.9035 21.7589 14.8051 21.7382 14.7136 21.699C14.622 21.6597 14.5393 21.6026 14.47 21.531L12.75 19.811V22C12.75 22.1989 12.671 22.3897 12.5304 22.5303C12.3897 22.671 12.199 22.75 12 22.75C11.8011 22.75 11.6104 22.671 11.4697 22.5303C11.3291 22.3897 11.25 22.1989 11.25 22V19.81L9.53004 21.53C9.38787 21.6625 9.19982 21.7346 9.00552 21.7312C8.81122 21.7277 8.62583 21.649 8.48842 21.5116C8.35101 21.3742 8.27229 21.1888 8.26887 20.9945C8.26544 20.8002 8.33756 20.6122 8.47004 20.47L11.25 17.69V13.299L7.44804 15.494L6.43004 19.292C6.40456 19.3871 6.3606 19.4763 6.30065 19.5545C6.24071 19.6326 6.16595 19.6982 6.08066 19.7475C5.99537 19.7967 5.90121 19.8287 5.80356 19.8416C5.70591 19.8545 5.60668 19.848 5.51154 19.8225C5.4164 19.797 5.32721 19.7531 5.24906 19.6931C5.1709 19.6332 5.10533 19.5584 5.05606 19.4731C5.0068 19.3878 4.97482 19.2937 4.96195 19.196C4.94908 19.0984 4.95557 18.9991 4.98104 18.904L5.61104 16.554L3.71504 17.65C3.54265 17.7495 3.33781 17.7764 3.14559 17.7248C2.95336 17.6732 2.7895 17.5474 2.69004 17.375C2.59059 17.2026 2.56368 16.9978 2.61526 16.8055C2.66683 16.6133 2.79265 16.4495 2.96504 16.35L4.86104 15.256L2.51104 14.626C2.41339 14.6028 2.32137 14.5603 2.24045 14.501C2.15953 14.4416 2.09135 14.3666 2.03994 14.2804C1.98853 14.1942 1.95495 14.0986 1.94118 13.9992C1.92741 13.8997 1.93373 13.7986 1.95976 13.7016C1.9858 13.6047 2.03103 13.514 2.09277 13.4349C2.1545 13.3558 2.23149 13.2898 2.31917 13.241C2.40685 13.1922 2.50344 13.1614 2.60322 13.1506C2.703 13.1398 2.80393 13.1491 2.90004 13.178L6.69804 14.195L10.5 12L6.69804 9.805L2.90004 10.823C2.80483 10.8485 2.70554 10.855 2.60783 10.8421C2.51012 10.8292 2.41591 10.7971 2.33057 10.7478C2.24523 10.6985 2.17044 10.6329 2.11047 10.5547C2.0505 10.4765 2.00652 10.3872 1.98104 10.292C1.95557 10.1968 1.94909 10.0975 1.96199 9.99979C1.97489 9.90208 2.0069 9.80786 2.05621 9.72253C2.10552 9.63719 2.17115 9.5624 2.24936 9.50243C2.32758 9.44246 2.41683 9.39848 2.51204 9.373L4.86104 8.744L2.96504 7.65C2.87968 7.60075 2.80486 7.53518 2.74484 7.45702C2.68483 7.37885 2.64079 7.28963 2.61526 7.19445C2.58972 7.09927 2.58318 7 2.59601 6.90229C2.60885 6.80458 2.6408 6.71036 2.69004 6.625C2.73929 6.53964 2.80486 6.46482 2.88303 6.4048C2.96119 6.34478 3.05041 6.30075 3.14559 6.27522C3.33781 6.22364 3.54265 6.25054 3.71504 6.35L5.61004 7.446L4.98004 5.097C4.92859 4.90472 4.95563 4.69987 5.05521 4.52753C5.15479 4.35518 5.31876 4.22945 5.51104 4.178C5.70332 4.12655 5.90817 4.15359 6.08052 4.25317C6.25286 4.35275 6.37859 4.51672 6.43004 4.709L7.44704 8.507L11.25 10.7V6.31L8.47004 3.53C8.33756 3.38783 8.26544 3.19978 8.26887 3.00548C8.27229 2.81118 8.35101 2.62579 8.48842 2.48838C8.62583 2.35097 8.81122 2.27225 9.00552 2.26883C9.19982 2.2654 9.38787 2.33752 9.53004 2.47L11.25 4.19V2C11.25 1.80109 11.3291 1.61032 11.4697 1.46967C11.6104 1.32902 11.8011 1.25 12 1.25Z" fill="black"/>
</g>
<defs>
<clipPath id="clip0_221_21426">
<rect width="24" height="24" fill="white"/>
</clipPath>
</defs>
</svg>
