<svg width="24" height="24" viewBox="0 0 24 24" fill="none" xmlns="http://www.w3.org/2000/svg">
<g clip-path="url(#clip0_221_21369)">
<path d="M22 13.353C22 16.086 20.035 18.366 17.424 18.888C17.3429 18.5668 17.1988 18.265 17 18C17.2132 17.7144 17.363 17.3865 17.4391 17.0384C17.5153 16.6902 17.5161 16.3297 17.4415 15.9812C17.367 15.6327 17.2187 15.3041 17.0068 15.0176C16.7949 14.731 16.5241 14.4931 16.2127 14.3198C15.9012 14.1464 15.5564 14.0417 15.2011 14.0126C14.8459 13.9835 14.4886 14.0306 14.1531 14.1509C13.8176 14.2712 13.5117 14.4618 13.2559 14.71C13.0001 14.9582 12.8003 15.2583 12.67 15.59C12.2317 15.4681 11.7683 15.4681 11.33 15.59C11.2004 15.2572 11.0009 14.956 10.7452 14.7067C10.4894 14.4574 10.1832 14.2658 9.84712 14.1447C9.51108 14.0237 9.15301 13.976 8.79701 14.0049C8.441 14.0339 8.09533 14.1387 7.78323 14.3124C7.47114 14.4861 7.19988 14.7247 6.98769 15.012C6.7755 15.2993 6.62732 15.6287 6.55311 15.9781C6.47891 16.3275 6.48039 16.6887 6.55748 17.0375C6.63456 17.3862 6.78545 17.7144 7 18C6.781 18.29 6.625 18.63 6.55 19H6.286C3.919 19 2 17.104 2 14.765C2 12.426 3.919 10.529 6.286 10.529C6.57067 10.5297 6.84733 10.5563 7.116 10.609C6.8816 9.98144 6.7617 9.31691 6.762 8.647C6.762 5.528 9.32 3 12.476 3C15.416 3 17.837 5.194 18.156 8.015C20.392 8.78 22 10.881 22 13.353Z" fill="black"/>
<path d="M12.8342 18.5515C12.8176 18.5764 12.7999 18.6006 12.781 18.624C12.6874 18.7413 12.5686 18.836 12.4334 18.9011C12.2982 18.9661 12.1501 19 12 19C11.7897 19.0007 11.5845 18.935 11.4136 18.8123C11.2428 18.6895 11.1151 18.5159 11.0487 18.3163C10.9823 18.1167 10.9807 17.9012 11.0439 17.7006C11.1072 17.5 11.2322 17.3245 11.401 17.199C11.5736 17.0689 11.7839 16.9985 12 16.9985C12.2162 16.9985 12.4265 17.0689 12.599 17.199C12.7067 17.2791 12.7971 17.38 12.8648 17.4958C12.9325 17.6115 12.9762 17.7398 12.9932 17.8728C13.0101 18.0059 13.0001 18.141 12.9637 18.2701C12.9354 18.3702 12.8917 18.4651 12.8342 18.5515Z" fill="black"/>
<path d="M12.7071 21.7071C12.8946 21.5196 13 21.2652 13 21C13 20.7348 12.8946 20.4804 12.7071 20.2929C12.5196 20.1054 12.2652 20 12 20C11.7348 20 11.4804 20.1054 11.2929 20.2929C11.1054 20.4804 11 20.7348 11 21C11 21.2652 11.1054 21.5196 11.2929 21.7071C11.4804 21.8946 11.7348 22 12 22C12.2652 22 12.5196 21.8946 12.7071 21.7071Z" fill="black"/>
<path d="M15.7071 20.2071C15.8946 20.0196 16 19.7652 16 19.5C16 19.2348 15.8946 18.9804 15.7071 18.7929C15.5196 18.6054 15.2652 18.5 15 18.5C14.7348 18.5 14.4804 18.6054 14.2929 18.7929C14.1054 18.9804 14 19.2348 14 19.5C14 19.7652 14.1054 20.0196 14.2929 20.2071C14.4804 20.3946 14.7348 20.5 15 20.5C15.2652 20.5 15.5196 20.3946 15.7071 20.2071Z" fill="black"/>
<path d="M15.7071 17.2071C15.8946 17.0196 16 16.7652 16 16.5C16 16.2348 15.8946 15.9804 15.7071 15.7929C15.5196 15.6054 15.2652 15.5 15 15.5C14.7348 15.5 14.4804 15.6054 14.2929 15.7929C14.1054 15.9804 14 16.2348 14 16.5C14 16.7652 14.1054 17.0196 14.2929 17.2071C14.4797 17.3939 14.7328 17.4992 14.9969 17.5C14.9979 17.5 14.999 17.5 15 17.5" fill="black"/>
<path d="M9.70711 20.2071C9.89464 20.0196 10 19.7652 10 19.5C10 19.2348 9.89464 18.9804 9.70711 18.7929C9.51957 18.6054 9.26522 18.5 9 18.5C8.73478 18.5 8.48043 18.6054 8.29289 18.7929C8.10536 18.9804 8 19.2348 8 19.5C8 19.7652 8.10536 20.0196 8.29289 20.2071C8.48043 20.3946 8.73478 20.5 9 20.5C9.26522 20.5 9.51957 20.3946 9.70711 20.2071Z" fill="black"/>
<path d="M10 16.5C10 16.5 10 16.5 10 16.5C10 16.2348 9.89464 15.9804 9.70711 15.7929C9.51957 15.6054 9.26522 15.5 9 15.5C8.73478 15.5 8.48043 15.6054 8.29289 15.7929C8.26945 15.8163 8.24729 15.8408 8.22646 15.8662C8.08066 16.0442 8 16.2679 8 16.5C8 16.5166 8.00041 16.5331 8.00123 16.5496C8.01349 16.7968 8.11708 17.0313 8.29289 17.2071C8.31634 17.2305 8.34082 17.2527 8.36624 17.2735C8.54419 17.4193 8.76793 17.5 9 17.5C9.26521 17.5 9.51956 17.3946 9.70709 17.2071C9.70708 17.2071 9.7071 17.2071 9.70709 17.2071C9.89462 17.0196 9.99999 16.7652 10 16.5Z" fill="black"/>
</g>
<defs>
<clipPath id="clip0_221_21369">
<rect width="24" height="24" fill="white"/>
</clipPath>
</defs>
</svg>
