<svg width="24" height="24" viewBox="0 0 24 24" fill="none" xmlns="http://www.w3.org/2000/svg">
<g clip-path="url(#clip0_221_21421)">
<path fill-rule="evenodd" clip-rule="evenodd" d="M17.5 16.5C17.4999 17.43 17.2639 18.3448 16.8142 19.1589C16.3644 19.973 15.7156 20.6597 14.9283 21.1549C14.1411 21.65 13.2411 21.9375 12.3126 21.9903C11.3841 22.0432 10.4573 21.8597 9.61895 21.4571C8.78059 21.0545 8.05802 20.4458 7.5188 19.6881C6.97957 18.9303 6.64131 18.0482 6.53562 17.1242C6.42994 16.2002 6.5603 15.2645 6.91451 14.4045C7.26871 13.5446 7.8352 12.7885 8.561 12.207C8.825 11.996 9 11.686 9 11.347V5C9 4.20435 9.31607 3.44129 9.87868 2.87868C10.4413 2.31607 11.2044 2 12 2C12.7957 2 13.5587 2.31607 14.1213 2.87868C14.6839 3.44129 15 4.20435 15 5V11.348C15 11.686 15.175 11.996 15.439 12.208C16.0827 12.7228 16.6022 13.3759 16.959 14.119C17.3158 14.862 17.5007 15.6758 17.5 16.5ZM12 4.25C12.1989 4.25 12.3897 4.32902 12.5303 4.46967C12.671 4.61032 12.75 4.80109 12.75 5V13.38C12.75 13.817 13.047 14.188 13.408 14.434C13.8496 14.735 14.1831 15.1695 14.3596 15.6738C14.5362 16.1782 14.5465 16.7259 14.389 17.2365C14.2315 17.7472 13.9146 18.1939 13.4846 18.5112C13.0547 18.8286 12.5344 18.9998 12 18.9998C11.4656 18.9998 10.9453 18.8286 10.5154 18.5112C10.0854 18.1939 9.76849 17.7472 9.61102 17.2365C9.45354 16.7259 9.46384 16.1782 9.64038 15.6738C9.81693 15.1695 10.1504 14.735 10.592 14.434C10.952 14.188 11.25 13.817 11.25 13.38V5C11.25 4.80109 11.329 4.61032 11.4697 4.46967C11.6103 4.32902 11.8011 4.25 12 4.25Z" fill="black"/>
</g>
<defs>
<clipPath id="clip0_221_21421">
<rect width="24" height="24" fill="white"/>
</clipPath>
</defs>
</svg>
