<svg width="24" height="24" viewBox="0 0 24 24" fill="none" xmlns="http://www.w3.org/2000/svg">
<g clip-path="url(#clip0_221_21387)">
<path fill-rule="evenodd" clip-rule="evenodd" d="M4.25 19C4.25 18.8011 4.32902 18.6103 4.46967 18.4697C4.61032 18.329 4.80109 18.25 5 18.25H19C19.1989 18.25 19.3897 18.329 19.5303 18.4697C19.671 18.6103 19.75 18.8011 19.75 19C19.75 19.1989 19.671 19.3897 19.5303 19.5303C19.3897 19.671 19.1989 19.75 19 19.75H5C4.80109 19.75 4.61032 19.671 4.46967 19.5303C4.32902 19.3897 4.25 19.1989 4.25 19ZM7.25 22C7.25 21.8011 7.32902 21.6103 7.46967 21.4697C7.61032 21.329 7.80109 21.25 8 21.25H16C16.1989 21.25 16.3897 21.329 16.5303 21.4697C16.671 21.6103 16.75 21.8011 16.75 22C16.75 22.1989 16.671 22.3897 16.5303 22.5303C16.3897 22.671 16.1989 22.75 16 22.75H8C7.80109 22.75 7.61032 22.671 7.46967 22.5303C7.32902 22.3897 7.25 22.1989 7.25 22Z" fill="black"/>
<path d="M6.083 15.2499C5.51893 14.222 5.23232 13.0649 5.25139 11.8926C5.27047 10.7203 5.59457 9.5732 6.19178 8.56424C6.78899 7.55528 7.6387 6.71927 8.65725 6.13855C9.6758 5.55784 10.828 5.25244 12.0005 5.25244C13.173 5.25244 14.3252 5.55784 15.3438 6.13855C16.3623 6.71927 17.212 7.55528 17.8092 8.56424C18.4064 9.5732 18.7305 10.7203 18.7496 11.8926C18.7687 13.0649 18.4821 14.222 17.918 15.2499H22C22.1989 15.2499 22.3897 15.3289 22.5303 15.4695C22.671 15.6102 22.75 15.8009 22.75 15.9999C22.75 16.1988 22.671 16.3895 22.5303 16.5302C22.3897 16.6708 22.1989 16.7499 22 16.7499H2C1.80109 16.7499 1.61032 16.6708 1.46967 16.5302C1.32902 16.3895 1.25 16.1988 1.25 15.9999C1.25 15.8009 1.32902 15.6102 1.46967 15.4695C1.61032 15.3289 1.80109 15.2499 2 15.2499H6.083Z" fill="black"/>
<path fill-rule="evenodd" clip-rule="evenodd" d="M12 1.25C12.1989 1.25 12.3897 1.32902 12.5303 1.46967C12.671 1.61032 12.75 1.80109 12.75 2V3C12.75 3.19891 12.671 3.38968 12.5303 3.53033C12.3897 3.67098 12.1989 3.75 12 3.75C11.8011 3.75 11.6103 3.67098 11.4697 3.53033C11.329 3.38968 11.25 3.19891 11.25 3V2C11.25 1.80109 11.329 1.61032 11.4697 1.46967C11.6103 1.32902 11.8011 1.25 12 1.25ZM4.399 4.399C4.53963 4.25855 4.73025 4.17966 4.929 4.17966C5.12775 4.17966 5.31837 4.25855 5.459 4.399L5.852 4.791C5.98869 4.93239 6.06437 5.1218 6.06276 5.31845C6.06114 5.5151 5.98235 5.70325 5.84336 5.84237C5.70437 5.98149 5.5163 6.06046 5.31965 6.06226C5.123 6.06406 4.93352 5.98855 4.792 5.852L4.399 5.459C4.25855 5.31837 4.17966 5.12775 4.17966 4.929C4.17966 4.73025 4.25855 4.53963 4.399 4.399ZM19.601 4.399C19.7414 4.53963 19.8203 4.73025 19.8203 4.929C19.8203 5.12775 19.7414 5.31837 19.601 5.459L19.208 5.852C19.0658 5.98448 18.8778 6.0566 18.6835 6.05317C18.4892 6.04975 18.3038 5.97104 18.1664 5.83362C18.029 5.69621 17.9503 5.51082 17.9468 5.31652C17.9434 5.12222 18.0155 4.93417 18.148 4.792L18.541 4.399C18.6816 4.25855 18.8722 4.17966 19.071 4.17966C19.2698 4.17966 19.4604 4.25855 19.601 4.399ZM1.25 12C1.25 11.8011 1.32902 11.6103 1.46967 11.4697C1.61032 11.329 1.80109 11.25 2 11.25H3C3.19891 11.25 3.38968 11.329 3.53033 11.4697C3.67098 11.6103 3.75 11.8011 3.75 12C3.75 12.1989 3.67098 12.3897 3.53033 12.5303C3.38968 12.671 3.19891 12.75 3 12.75H2C1.80109 12.75 1.61032 12.671 1.46967 12.5303C1.32902 12.3897 1.25 12.1989 1.25 12ZM20.25 12C20.25 11.8011 20.329 11.6103 20.4697 11.4697C20.6103 11.329 20.8011 11.25 21 11.25H22C22.1989 11.25 22.3897 11.329 22.5303 11.4697C22.671 11.6103 22.75 11.8011 22.75 12C22.75 12.1989 22.671 12.3897 22.5303 12.5303C22.3897 12.671 22.1989 12.75 22 12.75H21C20.8011 12.75 20.6103 12.671 20.4697 12.5303C20.329 12.3897 20.25 12.1989 20.25 12Z" fill="black"/>
</g>
<defs>
<clipPath id="clip0_221_21387">
<rect width="24" height="24" fill="white"/>
</clipPath>
</defs>
</svg>
