<svg width="24" height="24" viewBox="0 0 24 24" fill="none" xmlns="http://www.w3.org/2000/svg">
<path d="M10 22H14C17.771 22 19.657 22 20.828 20.829C21.999 19.658 22 17.77 22 14C22 10.23 22 8.34301 20.828 7.17201C20.466 6.80901 20.034 6.55901 19.5 6.38601V9.15901C19.503 9.49901 19.509 10.07 19.264 10.592C19.02 11.114 18.578 11.476 18.314 11.692C18.2873 11.712 18.263 11.732 18.241 11.752L16.734 13.007C15.874 13.725 15.124 14.349 14.45 14.783C13.725 15.249 12.94 15.595 12 15.595C11.06 15.595 10.276 15.249 9.55 14.783C8.876 14.349 8.127 13.725 7.266 13.008L5.759 11.752L5.686 11.692C5.422 11.476 4.981 11.114 4.736 10.592C4.492 10.07 4.496 9.49901 4.499 9.15901L4.5 9.06301V6.38501C3.966 6.55801 3.534 6.80901 3.172 7.17201C2 8.34301 2 10.229 2 14C2 17.771 2 19.657 3.172 20.829C4.344 22.001 6.229 22 10 22Z" fill="black"/>
<path fill-rule="evenodd" clip-rule="evenodd" d="M6.72002 10.6L8.15902 11.8C9.99602 13.33 10.914 14.095 12 14.095C13.086 14.095 14.005 13.33 15.841 11.799L17.281 10.599C17.634 10.305 17.811 10.157 17.906 9.956C18 9.754 18 9.524 18 9.063V7C18 6.68 17.9994 6.38067 17.998 6.102C17.986 4.331 17.9 3.365 17.268 2.732C16.536 2 15.358 2 13 2H11C8.64302 2 7.46502 2 6.73202 2.732C6.10002 3.365 6.01202 4.331 6.00002 6.102C5.99869 6.38 5.99869 6.67933 6.00002 7V9.063C6.00002 9.523 6.00002 9.754 6.09502 9.956C6.18902 10.157 6.36502 10.305 6.72002 10.6ZM9.25002 6C9.25002 5.80109 9.32904 5.61032 9.46969 5.46967C9.61035 5.32902 9.80111 5.25 10 5.25H14C14.1989 5.25 14.3897 5.32902 14.5304 5.46967C14.671 5.61032 14.75 5.80109 14.75 6C14.75 6.19891 14.671 6.38968 14.5304 6.53033C14.3897 6.67098 14.1989 6.75 14 6.75H10C9.80111 6.75 9.61035 6.67098 9.46969 6.53033C9.32904 6.38968 9.25002 6.19891 9.25002 6ZM10.25 9C10.25 8.80109 10.329 8.61032 10.4697 8.46967C10.6103 8.32902 10.8011 8.25 11 8.25H13C13.1989 8.25 13.3897 8.32902 13.5304 8.46967C13.671 8.61032 13.75 8.80109 13.75 9C13.75 9.19891 13.671 9.38968 13.5304 9.53033C13.3897 9.67098 13.1989 9.75 13 9.75H11C10.8011 9.75 10.6103 9.67098 10.4697 9.53033C10.329 9.38968 10.25 9.19891 10.25 9Z" fill="black"/>
</svg>
