<svg width="24" height="24" viewBox="0 0 24 24" fill="none" xmlns="http://www.w3.org/2000/svg">
<g clip-path="url(#clip0_221_21478)">
<path fill-rule="evenodd" clip-rule="evenodd" d="M8 4C8 3.448 8.413 3 8.923 3H15.077C15.587 3 16 3.448 16 4C16 4.552 15.587 5 15.077 5H8.923C8.413 5 8 4.552 8 4ZM9.778 21H14.222C17.343 21 18.904 21 20.025 20.278C20.5068 19.9673 20.9233 19.5654 21.251 19.095C22 18.015 22 16.51 22 13.5C22 10.49 22 8.986 21.25 7.905C20.9226 7.43466 20.5065 7.0328 20.025 6.722C18.904 6 17.343 6 14.222 6H9.778C6.657 6 5.096 6 3.975 6.722C3.49352 7.0328 3.0774 7.43466 2.75 7.905C2 8.985 2 10.49 2 13.498V13.5C2 16.51 2 18.014 2.749 19.095C3.073 19.563 3.489 19.965 3.975 20.278C5.096 21 6.657 21 9.778 21ZM7.833 13.5C7.833 11.28 9.699 9.482 12 9.482C14.301 9.482 16.167 11.281 16.167 13.5C16.167 15.719 14.3 17.518 12 17.518C9.7 17.518 7.833 15.718 7.833 13.5ZM9.5 13.5C9.5 12.168 10.62 11.09 12 11.09C13.38 11.09 14.5 12.169 14.5 13.5C14.5 14.831 13.38 15.91 12 15.91C10.62 15.91 9.5 14.831 9.5 13.5ZM18.111 9.482C17.651 9.482 17.278 9.842 17.278 10.286C17.278 10.729 17.651 11.089 18.111 11.089H18.667C19.127 11.089 19.5 10.729 19.5 10.286C19.5 9.843 19.127 9.482 18.667 9.482H18.111Z" fill="black"/>
</g>
<defs>
<clipPath id="clip0_221_21478">
<rect width="24" height="24" fill="white"/>
</clipPath>
</defs>
</svg>
