<svg width="24" height="24" viewBox="0 0 24 24" fill="none" xmlns="http://www.w3.org/2000/svg">
<g clip-path="url(#clip0_221_21498)">
<path fill-rule="evenodd" clip-rule="evenodd" d="M3.464 3.464C2 4.929 2 7.286 2 12C2 13.7024 2 15.0975 2.06895 16.2542H21.931C22 15.0976 22 13.7025 22 12C22 7.286 22 4.93 20.535 3.464C19.071 2 16.714 2 12 2C7.286 2 4.93 2 3.464 3.464ZM12.5303 6.46967C12.3897 6.32902 12.1989 6.25 12 6.25C11.8011 6.25 11.6103 6.32902 11.4697 6.46967C11.329 6.61032 11.25 6.80109 11.25 7V12.19L9.53 10.47C9.46134 10.3963 9.37854 10.3372 9.28654 10.2962C9.19454 10.2552 9.09523 10.2332 8.99452 10.2314C8.89382 10.2296 8.79379 10.2482 8.7004 10.2859C8.60701 10.3236 8.52218 10.3797 8.45096 10.451C8.37974 10.5222 8.3236 10.607 8.28588 10.7004C8.24816 10.7938 8.22963 10.8938 8.23141 10.9945C8.23318 11.0952 8.25523 11.1945 8.29622 11.2865C8.33721 11.3785 8.39631 11.4613 8.47 11.53L11.47 14.53C11.6106 14.6705 11.8012 14.7493 12 14.7493C12.1988 14.7493 12.3894 14.6705 12.53 14.53L15.53 11.53C15.6037 11.4613 15.6628 11.3785 15.7038 11.2865C15.7448 11.1945 15.7668 11.0952 15.7686 10.9945C15.7704 10.8938 15.7518 10.7938 15.7141 10.7004C15.6764 10.607 15.6203 10.5222 15.549 10.451C15.4778 10.3797 15.393 10.3236 15.2996 10.2859C15.2062 10.2482 15.1062 10.2296 15.0055 10.2314C14.9048 10.2332 14.8055 10.2552 14.7135 10.2962C14.6215 10.3372 14.5387 10.3963 14.47 10.47L12.75 12.19V7C12.75 6.80109 12.671 6.61032 12.5303 6.46967Z" fill="black"/>
<path d="M21.7776 17.7542H2.22218C2.41654 18.9749 2.78091 19.8524 3.464 20.535C4.929 22 7.286 22 12 22C16.714 22 19.072 22 20.535 20.535C21.2185 19.852 21.5831 18.9746 21.7776 17.7542Z" fill="black"/>
</g>
<defs>
<clipPath id="clip0_221_21498">
<rect width="24" height="24" fill="white"/>
</clipPath>
</defs>
</svg>
