<svg width="24" height="24" viewBox="0 0 24 24" fill="none" xmlns="http://www.w3.org/2000/svg">
<g clip-path="url(#clip0_221_21605)">
<path fill-rule="evenodd" clip-rule="evenodd" d="M3.464 3.464C2 4.93 2 7.286 2 12C2 16.714 2 19.071 3.464 20.535C4.93 22 7.286 22 12 22C16.714 22 19.071 22 20.535 20.535C22 19.072 22 16.714 22 12C22 7.286 22 4.929 20.535 3.464C19.072 2 16.714 2 12 2C7.286 2 4.929 2 3.464 3.464ZM6.424 9.52C6.55134 9.36729 6.73411 9.27139 6.93213 9.25338C7.13015 9.23538 7.32721 9.29675 7.48 9.424L7.757 9.654C8.362 10.158 8.877 10.587 9.233 10.982C9.612 11.402 9.907 11.883 9.907 12.5C9.907 13.117 9.612 13.599 9.233 14.018C8.877 14.413 8.362 14.842 7.757 15.346L7.48 15.576C7.40473 15.6418 7.31705 15.692 7.22213 15.7234C7.1272 15.7549 7.02694 15.7671 6.92724 15.7592C6.82754 15.7513 6.73042 15.7236 6.6416 15.6777C6.55277 15.6317 6.47403 15.5685 6.41001 15.4917C6.34598 15.4148 6.29797 15.326 6.2688 15.2303C6.23962 15.1347 6.22987 15.0341 6.24012 14.9347C6.25037 14.8352 6.28041 14.7388 6.32847 14.6511C6.37654 14.5634 6.44166 14.4862 6.52 14.424L6.754 14.229C7.413 13.679 7.844 13.319 8.12 13.013C8.382 12.723 8.407 12.586 8.407 12.5C8.407 12.414 8.382 12.278 8.12 11.987C7.843 11.681 7.413 11.32 6.754 10.771L6.52 10.576C6.36729 10.4487 6.27139 10.2659 6.25338 10.0679C6.23538 9.86985 6.29675 9.67279 6.424 9.52ZM17.75 15C17.75 15.1989 17.671 15.3897 17.5303 15.5303C17.3897 15.671 17.1989 15.75 17 15.75H12C11.8011 15.75 11.6103 15.671 11.4697 15.5303C11.329 15.3897 11.25 15.1989 11.25 15C11.25 14.8011 11.329 14.6103 11.4697 14.4697C11.6103 14.329 11.8011 14.25 12 14.25H17C17.1989 14.25 17.3897 14.329 17.5303 14.4697C17.671 14.6103 17.75 14.8011 17.75 15Z" fill="black"/>
</g>
<defs>
<clipPath id="clip0_221_21605">
<rect width="24" height="24" fill="white"/>
</clipPath>
</defs>
</svg>
