<svg width="24" height="24" viewBox="0 0 24 24" fill="none" xmlns="http://www.w3.org/2000/svg">
<path fill-rule="evenodd" clip-rule="evenodd" d="M13.281 12.4722L13.172 12.3732C12.987 12.1842 12.779 11.9322 12.517 11.6182L12.253 11.3002C11.759 10.7072 11.402 10.3022 11.088 10.0652C10.706 9.77718 10.341 9.6582 9.947 9.6582C9.554 9.6582 9.189 9.77718 8.808 10.0652C8.493 10.3022 8.137 10.7072 7.643 11.3002L5.846 13.4562C5.493 13.8802 5.55 14.5112 5.974 14.8642C6.398 15.2182 7.029 15.1602 7.383 14.7362L9.18 12.5802C9.444 12.2632 9.65299 12.0091 9.83899 11.8191L9.948 11.7201L10.056 11.8191C10.242 12.0091 10.452 12.2632 10.716 12.5802C10.716 12.5802 11 12.9212 10.976 12.8922C11.47 13.4852 11.826 13.8912 12.141 14.1282C12.522 14.4152 12.887 14.5342 13.281 14.5342C13.676 14.5342 14.041 14.4152 14.422 14.1282C14.736 13.8902 15.092 13.4852 15.586 12.8922L17.383 10.7362C17.736 10.3132 17.679 9.68118 17.255 9.32818C16.831 8.97518 16.2 9.03217 15.846 9.45617L14.049 11.6122C13.785 11.9292 13.575 12.1832 13.389 12.3732L13.281 12.4722Z" fill="black"/>
</svg>
