<svg width="24" height="24" viewBox="0 0 24 24" fill="none" xmlns="http://www.w3.org/2000/svg">
<g clip-path="url(#clip0_221_21557)">
<path fill-rule="evenodd" clip-rule="evenodd" d="M13.803 5.33301C13.803 3.49301 15.303 2.00001 17.151 2.00001C17.5898 1.99883 18.0245 2.08412 18.4303 2.251C18.8361 2.41788 19.2051 2.66309 19.5161 2.97262C19.8271 3.28214 20.0741 3.64991 20.2429 4.05492C20.4117 4.45992 20.4991 4.89423 20.5 5.33301C20.5 7.17401 19 8.66701 17.151 8.66701C16.7076 8.66734 16.2686 8.57964 15.8593 8.40901C15.4501 8.23838 15.0788 7.98822 14.767 7.67301L10.132 10.829C10.2608 11.472 10.1975 12.1387 9.95 12.746L15.032 16.086C15.6307 15.5981 16.3797 15.3321 17.152 15.333C17.5908 15.332 18.0255 15.4174 18.4312 15.5844C18.837 15.7514 19.2059 15.9967 19.5168 16.3063C19.8277 16.6159 20.0746 16.9838 20.2433 17.3888C20.412 17.7939 20.4992 18.2282 20.5 18.667C20.5 20.507 19 22 17.151 22C16.7123 22.0011 16.2777 21.9157 15.872 21.7487C15.4663 21.5818 15.0975 21.3366 14.7866 21.0271C14.4757 20.7175 14.2288 20.3498 14.06 19.9449C13.8913 19.5399 13.8039 19.1057 13.803 18.667C13.8022 18.1996 13.9007 17.7374 14.092 17.311L9.05 14C8.43922 14.5306 7.65706 14.8222 6.848 14.821C6.40922 14.8221 5.97453 14.7366 5.56877 14.5696C5.16301 14.4026 4.79413 14.1573 4.48321 13.8477C4.17229 13.5381 3.92543 13.1702 3.75673 12.7652C3.58802 12.3601 3.50079 11.9258 3.5 11.487C3.50092 11.0483 3.58825 10.6141 3.75701 10.2092C3.92578 9.80421 4.17266 9.43648 4.48356 9.12697C4.79447 8.81746 5.1633 8.57223 5.569 8.40529C5.97469 8.23834 6.4093 8.15296 6.848 8.15401C7.912 8.15401 8.858 8.64701 9.471 9.41501L13.964 6.35601C13.8568 6.02561 13.8025 5.68036 13.803 5.33301Z" fill="black"/>
</g>
<defs>
<clipPath id="clip0_221_21557">
<rect width="24" height="24" fill="white"/>
</clipPath>
</defs>
</svg>
