<svg width="24" height="24" viewBox="0 0 24 24" fill="none" xmlns="http://www.w3.org/2000/svg">
<g clip-path="url(#clip0_221_21639)">
<path fill-rule="evenodd" clip-rule="evenodd" d="M17.437 22.7555C20.8618 22.7555 23.6382 19.9791 23.6382 16.5543C23.6382 13.1294 20.8618 10.353 17.437 10.353C14.0121 10.353 11.2357 13.1294 11.2357 16.5543C11.2357 19.9791 14.0121 22.7555 17.437 22.7555ZM15.8251 16.6461L16.7397 15.8063V19.4321C16.7397 19.8509 17.0793 20.1904 17.4981 20.1904C17.9169 20.1904 18.2564 19.8509 18.2564 19.4321V15.8509L19.0983 16.6536C19.4015 16.9417 19.8813 16.931 20.1705 16.6279C20.4586 16.3248 20.4479 15.8449 20.1448 15.5557L18.0435 13.553C17.9558 13.4622 17.8457 13.3933 17.722 13.3551C17.509 13.2892 17.2723 13.3195 17.0804 13.4468C17.0412 13.4727 17.0046 13.5022 16.971 13.5347L14.799 15.53C14.4905 15.8128 14.4702 16.2926 14.754 16.6011C15.0368 16.9096 15.5166 16.9299 15.8251 16.6461Z" fill="black"/>
<path d="M14 3H10C6.229 3 4.343 3 3.172 4.172C2.001 5.344 2 7.229 2 11V13C2 16.771 2 18.657 3.172 19.828C4.344 20.999 4.87778 21 8.64878 21C9.11478 21 9.34778 21 9.53178 20.924C9.77632 20.8223 9.97052 20.6277 10.0718 20.383C10.1488 20.199 10.1488 19.966 10.1488 19.5V17.5C10.1488 14.672 11.1622 12.5759 12.0412 11.6979C12.9192 10.8189 14.672 9.46251 17.5 9.46251H20C20.949 9.46251 21.423 9.46251 21.717 9.16551C22.01 8.86751 22.004 8.39951 21.992 7.46251C21.958 4.82851 21.777 5.12 20.828 4.172C19.657 3 17.771 3 14 3Z" fill="black"/>
</g>
<defs>
<clipPath id="clip0_221_21639">
<rect width="24" height="24" fill="white"/>
</clipPath>
</defs>
</svg>
