<svg width="24" height="24" viewBox="0 0 24 24" fill="none" xmlns="http://www.w3.org/2000/svg">
<g clip-path="url(#clip0_221_21533)">
<path d="M6.16999 6.30906C6.66377 5.81494 7.25007 5.42296 7.89541 5.15552C8.54074 4.88809 9.23244 4.75044 9.93099 4.75044C10.6295 4.75044 11.3212 4.88809 11.9666 5.15552C12.6119 5.42296 13.1982 5.81494 13.692 6.30906C14.6899 7.30775 15.2504 8.66178 15.2504 10.0736C15.2504 11.4853 14.6899 12.8394 13.692 13.8381L12.262 15.2681C12.1253 15.4094 12.0496 15.5989 12.0512 15.7955C12.0528 15.9922 12.1316 16.1803 12.2706 16.3194C12.4096 16.4586 12.5977 16.5375 12.7943 16.5393C12.991 16.5411 13.1805 16.4656 13.322 16.3291L14.752 14.8981C16.0311 13.6181 16.7496 11.8826 16.7496 10.0731C16.7496 8.26353 16.0311 6.52805 14.752 5.24806C14.1189 4.61455 13.3672 4.112 12.5398 3.76912C11.7124 3.42624 10.8256 3.24976 9.92999 3.24976C9.03438 3.24976 8.14754 3.42624 7.32016 3.76912C6.49278 4.112 5.74107 4.61455 5.10799 5.24806L2.24799 8.11206C1.31808 9.04375 0.677396 10.2244 0.403118 11.5119C0.12884 12.7993 0.232671 14.1386 0.702101 15.3684C1.17153 16.5982 1.98654 17.6661 3.04893 18.4433C4.11132 19.2205 5.37579 19.674 6.68999 19.7491C6.78835 19.7545 6.88682 19.7405 6.97978 19.7079C7.07274 19.6753 7.15836 19.6247 7.23177 19.559C7.30517 19.4933 7.36492 19.4138 7.4076 19.325C7.45027 19.2362 7.47504 19.1399 7.48049 19.0416C7.48594 18.9432 7.47196 18.8447 7.43936 18.7518C7.40675 18.6588 7.35616 18.5732 7.29046 18.4998C7.22476 18.4264 7.14525 18.3666 7.05646 18.324C6.96767 18.2813 6.87135 18.2565 6.77299 18.2511C5.74761 18.1924 4.76108 17.8384 3.93223 17.2319C3.10338 16.6254 2.46756 15.7922 2.10139 14.8326C1.73521 13.8731 1.65429 12.8281 1.86837 11.8236C2.08245 10.8191 2.5824 9.89794 3.30799 9.17106L6.16999 6.30906Z" fill="black"/>
<path d="M17.31 4.25115C17.1113 4.24014 16.9164 4.3085 16.7682 4.44118C16.6199 4.57386 16.5305 4.76 16.5195 4.95865C16.5085 5.1573 16.5768 5.35218 16.7095 5.50043C16.8422 5.64868 17.0283 5.73814 17.227 5.74915C18.2523 5.80785 19.2389 6.16177 20.0677 6.76828C20.8966 7.37478 21.5324 8.208 21.8986 9.16756C22.2647 10.1271 22.3457 11.1721 22.1316 12.1766C21.9175 13.1811 21.4176 14.1023 20.692 14.8292L17.83 17.6902C17.3362 18.1844 16.7498 18.5765 16.1044 18.8441C15.459 19.1116 14.7671 19.2493 14.0685 19.2493C13.3698 19.2493 12.678 19.1116 12.0326 18.8441C11.3871 18.5765 10.8008 18.1844 10.307 17.6902C9.3094 16.6915 8.74907 15.3377 8.74907 13.9261C8.74907 12.5146 9.3094 11.1608 10.307 10.1621L11.737 8.73015C11.8694 8.58797 11.9416 8.39993 11.9381 8.20563C11.9347 8.01133 11.856 7.82594 11.7186 7.68853C11.5812 7.55112 11.3958 7.4724 11.2015 7.46897C11.0072 7.46555 10.8191 7.53767 10.677 7.67015L9.24697 9.10115C7.96789 10.3811 7.24939 12.1166 7.24939 13.9261C7.24939 15.7357 7.96789 17.4712 9.24697 18.7511C9.88005 19.3847 10.6318 19.8872 11.4591 20.2301C12.2865 20.573 13.1734 20.7495 14.069 20.7495C14.9646 20.7495 15.8514 20.573 16.6788 20.2301C17.5062 19.8872 18.2579 19.3847 18.891 18.7511L21.751 15.8871C22.6805 14.9555 23.3209 13.775 23.5951 12.4878C23.8692 11.2005 23.7654 9.86153 23.2961 8.63196C22.8268 7.4024 22.0121 6.3347 20.95 5.55746C19.888 4.78022 18.6239 4.32657 17.31 4.25115Z" fill="black"/>
</g>
<defs>
<clipPath id="clip0_221_21533">
<rect width="24" height="24" fill="white"/>
</clipPath>
</defs>
</svg>
