<svg width="24" height="24" viewBox="0 0 24 24" fill="none" xmlns="http://www.w3.org/2000/svg">
<g clip-path="url(#clip0_221_21508)">
<path fill-rule="evenodd" clip-rule="evenodd" d="M3.464 20.5362C4.929 22.0002 7.286 22.0002 12 22.0002C13.7024 22.0002 15.0975 22.0002 16.2542 21.9313V2.06926C15.0976 2.00024 13.7025 2.00024 12 2.00024C7.286 2.00024 4.93 2.00024 3.464 3.46524C2 4.92925 2 7.28624 2 12.0002C2 16.7142 2 19.0702 3.464 20.5362ZM6.46967 11.4699C6.32902 11.6106 6.25 11.8013 6.25 12.0002C6.25 12.1992 6.32902 12.3899 6.46967 12.5306C6.61032 12.6712 6.80109 12.7502 7 12.7502H12.19L10.47 14.4702C10.3963 14.5389 10.3372 14.6217 10.2962 14.7137C10.2552 14.8057 10.2332 14.905 10.2314 15.0057C10.2296 15.1064 10.2482 15.2065 10.2859 15.2998C10.3236 15.3932 10.3797 15.4781 10.451 15.5493C10.5222 15.6205 10.607 15.6766 10.7004 15.7144C10.7938 15.7521 10.8938 15.7706 10.9945 15.7688C11.0952 15.7671 11.1945 15.745 11.2865 15.704C11.3785 15.663 11.4613 15.6039 11.53 15.5302L14.53 12.5302C14.6705 12.3896 14.7493 12.199 14.7493 12.0002C14.7493 11.8015 14.6705 11.6109 14.53 11.4702L11.53 8.47024C11.4613 8.39656 11.3785 8.33745 11.2865 8.29646C11.1945 8.25547 11.0952 8.23343 10.9945 8.23165C10.8938 8.22988 10.7938 8.2484 10.7004 8.28612C10.607 8.32384 10.5222 8.37999 10.451 8.45121C10.3797 8.52242 10.3236 8.60726 10.2859 8.70065C10.2482 8.79403 10.2296 8.89406 10.2314 8.99477C10.2332 9.09547 10.2552 9.19478 10.2962 9.28678C10.3372 9.37878 10.3963 9.46158 10.47 9.53024L12.19 11.2502H7C6.80109 11.2502 6.61032 11.3293 6.46967 11.4699Z" fill="black"/>
<path d="M17.7542 2.22264V21.7781C18.9749 21.5837 19.8524 21.2193 20.535 20.5362C22 19.0712 22 16.7142 22 12.0002C22 7.28624 22 4.92824 20.535 3.46524C19.852 2.78176 18.9746 2.41715 17.7542 2.22264Z" fill="black"/>
</g>
<defs>
<clipPath id="clip0_221_21508">
<rect width="24" height="24" fill="white"/>
</clipPath>
</defs>
</svg>
