<svg width="24" height="24" viewBox="0 0 24 24" fill="none" xmlns="http://www.w3.org/2000/svg">
<g clip-path="url(#clip0_221_21586)">
<path d="M15.24 2H11.346C9.582 2 8.184 2 7.091 2.148C5.965 2.3 5.054 2.62 4.336 3.341C3.617 4.062 3.298 4.977 3.147 6.107C3 7.205 3 8.608 3 10.379V16.217C3 17.725 3.92 19.017 5.227 19.559C5.16 18.649 5.16 17.374 5.16 16.312V11.302C5.16 10.021 5.16 8.916 5.278 8.032C5.405 7.084 5.691 6.176 6.425 5.439C7.159 4.702 8.064 4.415 9.008 4.287C9.888 4.169 10.988 4.169 12.265 4.169H15.335C16.611 4.169 17.709 4.169 18.59 4.287C18.3261 3.61329 17.8653 3.03474 17.2678 2.62678C16.6702 2.21883 15.9635 2.00041 15.24 2Z" fill="black"/>
<path fill-rule="evenodd" clip-rule="evenodd" d="M7.4441 6.46101C6.6001 7.30801 6.6001 8.67101 6.6001 11.397V16.217C6.6001 18.943 6.6001 20.306 7.4441 21.153C8.2871 22 9.6451 22 12.3601 22H15.2401C17.9551 22 19.3131 22 20.1571 21.153C21.0001 20.306 21.0001 18.943 21.0001 16.217V11.3874C21.0001 8.66779 21.0001 7.30701 20.1571 6.46101C19.3131 5.61401 17.9551 5.61401 15.2401 5.61401H12.3601C9.6441 5.61401 8.2871 5.61401 7.4441 6.46101ZM17.9351 11.5552C17.8941 11.6472 17.835 11.73 17.7613 11.7987L12.7613 16.7987C12.6207 16.9392 12.43 17.018 12.2313 17.018C12.0325 17.018 11.8419 16.9392 11.7013 16.7987L9.70129 14.7987C9.56881 14.6565 9.49669 14.4685 9.50012 14.2742C9.50355 14.0799 9.58226 13.8945 9.71967 13.7571C9.85708 13.6197 10.0425 13.541 10.2368 13.5375C10.4311 13.5341 10.6191 13.6062 10.7613 13.7387L12.2313 15.2087L16.7013 10.7387C16.77 10.665 16.8528 10.6059 16.9448 10.5649C17.0368 10.5239 17.1361 10.5019 17.2368 10.5001C17.3375 10.4983 17.4375 10.5169 17.5309 10.5546C17.6243 10.5923 17.7091 10.6485 17.7803 10.7197C17.8515 10.7909 17.9077 10.8757 17.9454 10.9691C17.9831 11.0625 18.0017 11.1625 17.9999 11.2632C17.9981 11.3639 17.9761 11.4632 17.9351 11.5552Z" fill="black"/>
</g>
<defs>
<clipPath id="clip0_221_21586">
<rect width="24" height="24" fill="white"/>
</clipPath>
</defs>
</svg>
