<svg width="24" height="24" viewBox="0 0 24 24" fill="none" xmlns="http://www.w3.org/2000/svg">
<g clip-path="url(#clip0_221_21451)">
<path d="M12.0001 10.3501C12.2168 10.3501 12.4313 10.3928 12.6315 10.4757C12.8317 10.5586 13.0136 10.6802 13.1668 10.8334C13.32 10.9866 13.4416 11.1685 13.5245 11.3687C13.6074 11.5689 13.6501 11.7834 13.6501 12.0001C13.6501 12.2168 13.6074 12.4313 13.5245 12.6315C13.4416 12.8317 13.32 13.0136 13.1668 13.1668C13.0136 13.32 12.8317 13.4416 12.6315 13.5245C12.4313 13.6074 12.2168 13.6501 12.0001 13.6501C11.5625 13.6501 11.1428 13.4763 10.8334 13.1668C10.5239 12.8574 10.3501 12.4377 10.3501 12.0001C10.3501 11.5625 10.5239 11.1428 10.8334 10.8334C11.1428 10.5239 11.5625 10.3501 12.0001 10.3501Z" fill="black"/>
<path fill-rule="evenodd" clip-rule="evenodd" d="M3.464 3.464C2 4.93 2 7.286 2 12C2 16.714 2 19.071 3.464 20.535C4.93 22 7.286 22 12 22C16.714 22 19.071 22 20.535 20.535C22 19.072 22 16.714 22 12C22 7.286 22 4.929 20.535 3.464C19.072 2 16.714 2 12 2C7.286 2 4.929 2 3.464 3.464ZM6.75 12C6.75085 11.2338 6.91939 10.4771 7.24379 9.783C7.56819 9.08889 8.04059 8.47419 8.62781 7.98205C9.21504 7.48992 9.90287 7.13228 10.643 6.93425C11.3832 6.73621 12.1577 6.70257 12.9122 6.8357C13.6667 6.96882 14.383 7.26548 15.0106 7.70485C15.6383 8.14423 16.1622 8.71566 16.5456 9.37903C16.9289 10.0424 17.1624 10.7817 17.2297 11.5449C17.297 12.3081 17.1964 13.0768 16.935 13.797C16.8877 13.914 16.8133 14.0182 16.718 14.101L16.638 14.176C16.5113 14.2928 16.3533 14.3701 16.1833 14.3985C16.0134 14.4269 15.8388 14.4052 15.681 14.3361C15.5232 14.2669 15.3889 14.1533 15.2946 14.0091C15.2003 13.8649 15.1501 13.6963 15.15 13.524V12C15.1499 11.2913 14.9109 10.6034 14.4715 10.0473C14.0321 9.49132 13.4181 9.09969 12.7286 8.93577C12.0392 8.77184 11.3146 8.8452 10.672 9.14397C10.0294 9.44275 9.50626 9.94949 9.18723 10.5823C8.86821 11.2151 8.77189 11.937 8.91384 12.6313C9.0558 13.3256 9.42773 13.9518 9.96953 14.4086C10.5113 14.8654 11.1913 15.1262 11.8997 15.1487C12.608 15.1713 13.3032 14.9544 13.873 14.533C14.0316 14.8735 14.2684 15.1718 14.5642 15.4035C14.8599 15.6353 15.2061 15.7939 15.5747 15.8665C15.9433 15.9391 16.3238 15.9236 16.6853 15.8214C17.0468 15.7191 17.3791 15.5329 17.655 15.278L17.735 15.204C17.985 14.974 18.211 14.676 18.344 14.311C18.8355 12.9622 18.8842 11.4918 18.483 10.1135C18.0817 8.73515 17.2515 7.52062 16.113 6.64631C14.9744 5.772 13.5867 5.28346 12.1515 5.25166C10.7163 5.21985 9.30832 5.64644 8.13212 6.46945C6.95591 7.29246 6.07273 8.46903 5.61085 9.82825C5.14897 11.1875 5.13246 12.6585 5.56372 14.0278C5.99498 15.397 6.85154 16.5931 8.00898 17.4423C9.16642 18.2915 10.5644 18.7496 12 18.75C12.199 18.75 12.3899 18.6709 12.5307 18.5302C12.6714 18.3894 12.7505 18.1985 12.7505 17.9995C12.7505 17.8005 12.6714 17.6096 12.5307 17.4688C12.3899 17.3281 12.199 17.249 12 17.249C10.6078 17.249 9.27258 16.696 8.28804 15.7117C7.30351 14.7273 6.75027 13.3922 6.75 12Z" fill="black"/>
</g>
<defs>
<clipPath id="clip0_221_21451">
<rect width="24" height="24" fill="white"/>
</clipPath>
</defs>
</svg>
