<svg width="24" height="24" viewBox="0 0 24 24" fill="none" xmlns="http://www.w3.org/2000/svg">
<path fill-rule="evenodd" clip-rule="evenodd" d="M1.27211 7.73267C1.38859 5.35059 1.73898 3.86732 2.79303 2.81183C4.37303 1.23291 6.91505 1.23291 11.9991 1.23291C17.0831 1.23291 19.6262 1.23291 21.2041 2.81183C22.2589 3.86664 22.6095 5.35021 22.726 7.73267H1.27211ZM6.38757 5.0332C6.38757 5.29842 6.28222 5.55277 6.09468 5.74031C5.90714 5.92785 5.65279 6.0332 5.38757 6.0332C5.12236 6.0332 4.868 5.92785 4.68047 5.74031C4.49293 5.55277 4.38757 5.29842 4.38757 5.0332C4.38757 4.76799 4.49293 4.51363 4.68047 4.3261C4.868 4.13856 5.12236 4.0332 5.38757 4.0332C5.65279 4.0332 5.90714 4.13856 6.09468 4.3261C6.28222 4.51363 6.38757 4.76799 6.38757 5.0332ZM9.38757 5.0332C9.38757 5.29842 9.28222 5.55277 9.09468 5.74031C8.90714 5.92785 8.65279 6.0332 8.38757 6.0332C8.12236 6.0332 7.868 5.92785 7.68047 5.74031C7.49293 5.55277 7.38757 5.29842 7.38757 5.0332C7.38757 4.76799 7.49293 4.51363 7.68047 4.3261C7.868 4.13856 8.12236 4.0332 8.38757 4.0332C8.65279 4.0332 8.90714 4.13856 9.09468 4.3261C9.28222 4.51363 9.38757 4.76799 9.38757 5.0332ZM12.0947 5.74031C12.2822 5.55277 12.3876 5.29842 12.3876 5.0332C12.3876 4.76799 12.2822 4.51363 12.0947 4.3261C11.9071 4.13856 11.6528 4.0332 11.3876 4.0332C11.1224 4.0332 10.868 4.13856 10.6805 4.3261C10.4929 4.51363 10.3876 4.76799 10.3876 5.0332C10.3876 5.29842 10.4929 5.55277 10.6805 5.74031C10.868 5.92785 11.1224 6.0332 11.3876 6.0332C11.6528 6.0332 11.9071 5.92785 12.0947 5.74031Z" fill="black"/>
<path d="M1.22567 9.33267C1.21411 10.1396 1.21411 11.0308 1.21411 12.0179C1.21411 17.1019 1.21411 19.6439 2.79303 21.2229C3.83865 22.2678 5.30406 22.6216 7.64722 22.7415V20.7879C7.64087 20.7486 7.63757 20.7083 7.63757 20.6673V9.33267H1.22567Z" fill="black"/>
<path d="M9.24722 22.7903C10.0717 22.8029 10.9848 22.8029 11.9991 22.8029C17.0831 22.8029 19.6251 22.8029 21.2041 21.2229C22.7841 19.645 22.7841 17.1019 22.7841 12.0179C22.7841 11.0309 22.7841 10.1396 22.7725 9.33267H18.8876V12.2832H20.6376C20.8365 12.2832 21.0273 12.3622 21.1679 12.5029C21.3086 12.6435 21.3876 12.8343 21.3876 13.0332C21.3876 13.2321 21.3086 13.4229 21.1679 13.5635C21.0273 13.7042 20.8365 13.7832 20.6376 13.7832H18.8876V17.0332H20.6376C20.8365 17.0332 21.0273 17.1122 21.1679 17.2529C21.3086 17.3935 21.3876 17.5843 21.3876 17.7832C21.3876 17.9821 21.3086 18.1729 21.1679 18.3135C21.0273 18.4542 20.8365 18.5332 20.6376 18.5332H18.8876V20.2832C18.8876 20.4821 18.8086 20.6729 18.6679 20.8135C18.5273 20.9542 18.3365 21.0332 18.1376 21.0332C17.9387 21.0332 17.7479 20.9542 17.6072 20.8135C17.4666 20.6729 17.3876 20.4821 17.3876 20.2832V18.5332H14.1376V20.2832C14.1376 20.4821 14.0586 20.6729 13.9179 20.8135C13.7773 20.9542 13.5865 21.0332 13.3876 21.0332C13.1887 21.0332 12.9979 20.9542 12.8572 20.8135C12.7166 20.6729 12.6376 20.4821 12.6376 20.2832V18.5332H9.24722V22.7903Z" fill="black"/>
<path d="M9.24722 9.33267V12.2832H12.6376V9.33267H9.24722Z" fill="black"/>
<path d="M9.24722 13.7832V17.0332H12.6376V13.7832H9.24722Z" fill="black"/>
<path d="M14.1376 9.33267H17.3876V12.2832H14.1376V9.33267Z" fill="black"/>
<path d="M14.1376 13.7832V17.0332H17.3876V13.7832H14.1376Z" fill="black"/>
</svg>
