<svg width="24" height="24" viewBox="0 0 24 24" fill="none" xmlns="http://www.w3.org/2000/svg">
<g clip-path="url(#clip0_221_21592)">
<path fill-rule="evenodd" clip-rule="evenodd" d="M19.964 12.0582C20.0969 12.1936 20.119 12.2161 19.9735 12.0678C20.1454 12.243 20.2877 12.3901 20.3972 12.5168C20.5331 12.6766 20.6486 12.8417 20.7256 13.034C20.9077 13.4838 20.903 13.9884 20.7125 14.4347C20.6167 14.6616 20.468 14.8498 20.2906 15.0386C20.2885 15.0408 20.2864 15.0428 20.2842 15.045C20.2659 15.0629 20.2572 15.0884 20.2612 15.1182C20.2716 15.1396 20.2917 15.1558 20.314 15.1634C20.3161 15.1634 20.3193 15.1645 20.3214 15.1645C20.5698 15.2435 20.7903 15.3371 20.9837 15.4868C20.9848 15.4879 20.9848 15.4879 20.9848 15.4879C21.3673 15.7874 21.6145 16.2262 21.6728 16.7089C21.6738 16.7121 21.6738 16.7143 21.6737 16.7164C21.6953 16.921 21.6816 17.1284 21.6351 17.326L21.4816 17.9217C21.4629 17.9865 21.4418 18.0704 21.476 17.9398C21.4231 18.1373 21.3659 18.3347 21.3024 18.5258C21.2388 18.7232 21.1434 18.9075 21.0205 19.0724C21.0184 19.0745 21.0162 19.0766 21.0141 19.0787C20.7157 19.4602 20.2769 19.7095 19.7941 19.7678C19.5512 19.7975 19.313 19.7633 19.0624 19.7035L19.0602 19.7035C19.0326 19.6968 19.0018 19.6955 18.9814 19.7134C18.9652 19.7335 18.9597 19.76 18.9658 19.7856C18.9668 19.7888 18.9679 19.792 18.9678 19.7963C19.023 20.048 19.0527 20.2868 19.0185 20.5291C18.9512 21.0107 18.6938 21.4447 18.3068 21.736C18.1417 21.8622 17.9589 21.9425 17.7592 22.0098C17.599 22.0637 17.4006 22.115 17.1626 22.1756L17.138 22.1829L16.5353 22.3252C16.3305 22.3637 16.1303 22.381 15.924 22.3514C15.4435 22.2831 15.0094 22.0278 14.7171 21.6397C14.571 21.4436 14.4815 21.2213 14.4072 20.9715C14.4062 20.9683 14.4051 20.9651 14.4041 20.9619C14.3979 20.9385 14.38 20.9181 14.3525 20.9072C14.3291 20.9048 14.3056 20.9131 14.2884 20.93C14.2852 20.9331 14.283 20.9352 14.2808 20.9374C14.0876 21.1123 13.8968 21.2574 13.6714 21.3479C13.6703 21.3489 13.6703 21.3489 13.6703 21.3489C13.2204 21.5289 12.7159 21.5242 12.2685 21.3348C12.0776 21.2542 11.9158 21.1367 11.7585 20.9979L11.3165 20.5648L10.8738 20.0966C10.738 19.9367 10.6224 19.7717 10.5455 19.5793C10.3634 19.1295 10.3681 18.625 10.5585 18.1786C10.6532 17.9527 10.8029 17.7636 10.9814 17.5758C10.9846 17.5726 10.9857 17.5694 10.9889 17.5663C11.0061 17.5494 11.0149 17.5261 11.0098 17.4952C10.9994 17.4738 10.9804 17.4587 10.9581 17.451C10.9549 17.4499 10.9517 17.4488 10.9496 17.4488C10.7012 17.3698 10.4807 17.2762 10.2873 17.1265L10.2862 17.1254C9.90473 16.827 9.65656 16.3872 9.59719 15.9055C9.57249 15.6998 9.59244 15.5009 9.63482 15.2948L9.78941 14.6959L9.78504 14.7086C9.75512 14.835 9.76299 14.7914 9.79605 14.6704L9.97297 14.077C10.0429 13.8796 10.1287 13.6984 10.2569 13.5346C10.5554 13.1531 10.9941 12.9038 11.4769 12.8455C11.7209 12.8169 11.958 12.85 12.2087 12.9098C12.2129 12.9099 12.2161 12.911 12.2193 12.9121C12.2437 12.9197 12.2693 12.9136 12.2929 12.8946C12.3059 12.8756 12.3114 12.8512 12.3052 12.8277C12.3042 12.8245 12.3032 12.8213 12.3032 12.8171C12.2481 12.5653 12.2184 12.3266 12.2526 12.0842C12.3209 11.6037 12.5762 11.1696 12.9642 10.8773C13.1304 10.7522 13.3121 10.6709 13.5118 10.6035L14.1308 10.4326L14.134 10.4316C14.3698 10.371 14.5672 10.3206 14.7325 10.2892C14.9309 10.2463 15.1364 10.2365 15.3385 10.2618C15.3417 10.2608 15.3449 10.2619 15.347 10.2619C15.8275 10.3303 16.2626 10.5866 16.5539 10.9736C16.5549 10.9747 16.555 10.9747 16.555 10.9747C16.7011 11.1708 16.7906 11.3931 16.8638 11.6418C16.8649 11.645 16.8659 11.6482 16.8669 11.6514C16.8731 11.6749 16.891 11.6953 16.9186 11.7062C16.942 11.7085 16.9655 11.7002 16.9826 11.6834C16.9859 11.6802 16.988 11.6781 16.9902 11.676C17.1834 11.5011 17.3732 11.357 17.5997 11.2654C18.0506 11.0844 18.5551 11.0892 19.0026 11.2785C19.0047 11.2807 19.0068 11.2807 19.01 11.2818C19.1955 11.3655 19.3658 11.4788 19.5157 11.6186L19.9534 12.0496L19.964 12.0582ZM18.3974 12.7015C18.3285 12.6721 18.2498 12.6713 18.1792 12.7005L18.1782 12.6994C18.1482 12.7119 18.1139 12.7456 18.0323 12.8194C17.6286 13.1861 17.0565 13.351 16.5002 13.1968C15.9438 13.0426 15.538 12.6056 15.3822 12.0836C15.3512 11.979 15.3389 11.932 15.32 11.9063C15.3189 11.9052 15.3189 11.9052 15.3178 11.9042C15.2737 11.8441 15.2049 11.8041 15.1315 11.7938C15.1092 11.7904 15.0793 11.7965 15.0196 11.8087C14.8959 11.831 14.7401 11.8721 14.5075 11.9317L13.9995 12.0718C13.944 12.0904 13.913 12.0976 13.898 12.1102C13.8969 12.1113 13.8959 12.1123 13.8937 12.1123C13.8337 12.1586 13.7937 12.2252 13.7834 12.3007C13.7789 12.3326 13.7912 12.3796 13.8136 12.4884C13.93 13.0217 13.7862 13.5994 13.3747 14.0033C12.9632 14.4072 12.3829 14.5401 11.8519 14.4138C11.7435 14.3894 11.6968 14.3762 11.6637 14.3812C11.5892 14.389 11.5207 14.4288 11.4744 14.4869C11.4743 14.4891 11.4732 14.4902 11.4722 14.4912C11.4593 14.506 11.4516 14.5346 11.4319 14.5919L11.2824 15.0972L11.1488 15.6102C11.1365 15.6686 11.1309 15.6973 11.1329 15.7186C11.1418 15.7921 11.1805 15.8617 11.2397 15.9069C11.2408 15.908 11.2408 15.908 11.2418 15.9091C11.2672 15.9285 11.3139 15.9417 11.4179 15.9746C11.4179 15.9746 11.4179 15.9746 11.4189 15.9757C11.9379 16.1413 12.3652 16.5551 12.5101 17.1132C12.6539 17.6723 12.4793 18.2402 12.1052 18.6369L12.1041 18.638C12.0288 18.7182 11.9945 18.7519 11.9814 18.7816L11.9825 18.7827C11.952 18.8527 11.9513 18.9314 11.9794 19.0009C11.9877 19.0222 12.0088 19.0437 12.0488 19.0909C12.1288 19.1854 12.2438 19.3003 12.4115 19.4711C12.5802 19.643 12.6919 19.7591 12.7848 19.8408C12.8313 19.8817 12.8534 19.9043 12.8736 19.9119C12.9425 19.9413 13.0213 19.942 13.0928 19.914C13.1228 19.9015 13.1571 19.8677 13.2387 19.794L13.2398 19.7929C13.6435 19.4262 14.2166 19.2623 14.7709 19.4165C15.3261 19.5718 15.733 20.0078 15.8888 20.5298C15.9209 20.6354 15.9322 20.6813 15.9511 20.707C15.9521 20.7081 15.9521 20.7081 15.9532 20.7092C15.9984 20.7703 16.0662 20.8092 16.1406 20.8206C16.1618 20.8229 16.1917 20.8168 16.2525 20.8057C16.3751 20.7823 16.532 20.7423 16.7635 20.6816L17.2715 20.5416C17.3281 20.524 17.3569 20.5168 17.373 20.5031C17.3741 20.5021 17.3762 20.5021 17.3762 20.5021C17.4363 20.4558 17.4773 20.3881 17.4876 20.3147C17.4922 20.2807 17.4809 20.2348 17.4574 20.125C17.341 19.5916 17.4848 19.0139 17.8963 18.61C18.3078 18.2062 18.8881 18.0732 19.4192 18.1995C19.5286 18.225 19.5742 18.2371 19.6073 18.2342C19.6819 18.2243 19.7493 18.1856 19.7967 18.1264C19.7977 18.1253 19.7978 18.1232 19.7988 18.1222C19.8117 18.1074 19.8195 18.0787 19.8402 18.0225L19.9887 17.5161C20.0536 17.2857 20.0955 17.1307 20.1211 17.0085C20.1334 16.9479 20.1412 16.9171 20.1392 16.8958C20.1293 16.8212 20.0916 16.7528 20.0313 16.7064C20.0303 16.7053 20.0303 16.7053 20.0292 16.7043C20.0039 16.6849 19.9571 16.6717 19.8531 16.6388C19.3331 16.4721 18.9058 16.0583 18.7609 15.5002C18.6182 14.9421 18.7917 14.3732 19.1658 13.9764C19.2411 13.8962 19.2765 13.8614 19.2896 13.8317C19.319 13.7607 19.3208 13.683 19.2916 13.6125C19.2844 13.5922 19.2622 13.5696 19.2233 13.5235C19.1422 13.428 19.0283 13.3141 18.8596 13.1422C18.6919 12.9714 18.5791 12.8543 18.4862 12.7725C18.4397 12.7316 18.4186 12.7102 18.3974 12.7015ZM17.3464 14.7919L17.2663 14.706C16.388 13.8111 14.9297 13.7975 14.0348 14.6758C13.1399 15.5542 13.1263 17.0124 14.0047 17.9074C14.8831 18.8023 16.3413 18.8159 17.2362 17.9375C18.1032 17.0866 18.1428 15.6913 17.3464 14.7919ZM14.9811 15.7045C14.6639 16.0496 14.6695 16.5925 15.0006 16.9299C15.3422 17.278 15.9106 17.2833 16.2587 16.9416C16.6068 16.6 16.6121 16.0316 16.2704 15.6835C15.9288 15.3354 15.3604 15.3301 15.0123 15.6718L14.9811 15.7045Z" fill="black"/>
<path fill-rule="evenodd" clip-rule="evenodd" d="M4.20254 14.9734C2.0279 14.9734 0.262939 16.7383 0.262939 18.912C0.262939 21.0856 2.0279 22.8506 4.20254 22.8506C6.37617 22.8506 8.14113 21.0856 8.14113 18.912C8.14113 16.7383 6.37617 14.9734 4.20254 14.9734ZM4.20254 16.4649C5.55286 16.4649 6.64962 17.5617 6.64962 18.912C6.64962 20.2623 5.55286 21.3591 4.20254 21.3591C2.85122 21.3591 1.75446 20.2623 1.75446 18.912C1.75446 17.5617 2.85122 16.4649 4.20254 16.4649Z" fill="black"/>
<path fill-rule="evenodd" clip-rule="evenodd" d="M1.24436 10.3797C1.24436 10.3797 5.50512 8.94979 8.88888 11.201C9.23193 11.4287 9.69529 11.3362 9.923 10.9932C10.1507 10.6501 10.0572 10.1868 9.71518 9.95909C5.7557 7.32606 0.774032 8.96371 0.774032 8.96371C0.383254 9.09298 0.17146 9.51563 0.301719 9.90641C0.430984 10.2972 0.853579 10.5089 1.24436 10.3797Z" fill="black"/>
<path fill-rule="evenodd" clip-rule="evenodd" d="M1.1658 3.76408C1.1658 3.76408 9.52725 1.9583 15.2676 8.01287C15.551 8.31117 16.0233 8.32411 16.3226 8.04072C16.6209 7.75734 16.6338 7.28502 16.3504 6.98672C10.0393 0.331572 0.852587 2.30534 0.852587 2.30534C0.449877 2.39185 0.193332 2.78958 0.27984 3.19129C0.366348 3.594 0.764085 3.85059 1.1658 3.76408Z" fill="black"/>
</g>
<defs>
<clipPath id="clip0_221_21592">
<rect width="24" height="24" fill="white"/>
</clipPath>
</defs>
</svg>
