<svg width="24" height="24" viewBox="0 0 24 24" fill="none" xmlns="http://www.w3.org/2000/svg">
<path fill-rule="evenodd" clip-rule="evenodd" d="M13.252 17.461H15.412C15.436 17.463 15.46 17.464 15.484 17.464H20.927C21.476 17.464 22.004 17.246 22.392 16.857C22.781 16.468 23 15.941 23 15.391V3.073C23 1.928 22.072 1 20.927 1H4.491C3.347 1 2.419 1.928 2.419 3.073V11.144C2.419 11.166 2.42 11.188 2.422 11.21V13.355C1.614 13.497 1 14.203 1 15.052V21.11C1 22.061 1.771 22.833 2.722 22.833H11.528C12.48 22.833 13.252 22.061 13.252 21.11V17.461ZM5.895 20.236H4.6C4.174 20.236 3.83 19.89 3.83 19.465C3.83 19.04 4.174 18.694 4.6 18.694H5.895C6.321 18.694 6.666 19.04 6.666 19.465C6.666 19.89 6.321 20.236 5.895 20.236ZM8.664 20.236H9.96C10.386 20.236 10.73 19.89 10.73 19.465C10.73 19.04 10.386 18.694 9.96 18.694H8.664C8.239 18.694 7.894 19.04 7.894 19.465C7.894 19.89 8.239 20.236 8.664 20.236ZM11.71 15.922V15.052C11.71 14.952 11.629 14.87 11.528 14.87H2.722C2.622 14.87 2.541 14.952 2.541 15.052V15.922H11.71ZM20.236 9.508V12.88C20.236 13.832 19.465 14.603 18.514 14.603H15.142C14.19 14.603 13.419 13.832 13.419 12.88V9.508C13.419 8.557 14.19 7.786 15.142 7.786H18.514C19.465 7.786 20.236 8.557 20.236 9.508ZM18.695 12.88V9.508C18.695 9.408 18.614 9.327 18.514 9.327H15.142C15.042 9.327 14.96 9.408 14.96 9.508V12.88C14.96 12.98 15.042 13.061 15.142 13.061H18.514C18.614 13.061 18.695 12.98 18.695 12.88ZM6.666 9.327H10.569V11.262C10.569 11.687 10.914 12.032 11.339 12.032C11.765 12.032 12.11 11.687 12.11 11.262V9.108C12.11 8.377 11.518 7.786 10.788 7.786H6.447C5.717 7.786 5.125 8.377 5.125 9.108V11.257C5.125 11.682 5.469 12.028 5.895 12.028C6.321 12.028 6.666 11.682 6.666 11.257V9.327ZM3.96 4.962V3.073C3.96 2.779 4.197 2.542 4.491 2.542H20.927C21.221 2.542 21.458 2.779 21.458 3.073V4.962H3.96Z" fill="black"/>
</svg>
