<svg width="24" height="24" viewBox="0 0 24 24" fill="none" xmlns="http://www.w3.org/2000/svg">
<g clip-path="url(#clip0_221_21600)">
<path d="M5.53033 1.46967C5.38968 1.32902 5.19891 1.25 5 1.25C4.80109 1.25 4.61032 1.32902 4.46967 1.46967C4.32902 1.61032 4.25 1.80109 4.25 2V3.53574C4.24871 3.68394 4.24915 3.83484 4.24959 3.98553L4.25 4.15675V13.8431L4.24959 14.0144C4.24915 14.165 4.24871 14.316 4.25 14.4642V22C4.25 22.1989 4.32902 22.3897 4.46967 22.5303C4.61032 22.671 4.80109 22.75 5 22.75C5.19891 22.75 5.38968 22.671 5.53033 22.5303C5.67098 22.3897 5.75 22.1989 5.75 22V15.9005L18.795 10.7049C20.068 9.95294 20.068 8.04694 18.795 7.29494L5.75 2.09955V2C5.75 1.80109 5.67098 1.61032 5.53033 1.46967Z" fill="black"/>
</g>
<defs>
<clipPath id="clip0_221_21600">
<rect width="24" height="24" fill="white"/>
</clipPath>
</defs>
</svg>
