<svg width="24" height="24" viewBox="0 0 24 24" fill="none" xmlns="http://www.w3.org/2000/svg">
<g clip-path="url(#clip0_221_21473)">
<path d="M6 8.25C6 7.65326 6.23705 7.08097 6.65901 6.65901C6.8507 6.46732 7.07341 6.3138 7.31534 6.20332C7.31346 6.22493 7.3125 6.24669 7.3125 6.26855V8.59555C7.31243 8.69657 7.33276 8.79656 7.37229 8.88953C7.41181 8.98249 7.46971 9.06652 7.5425 9.13655L8.87049 10.4128C8.67049 10.4701 8.46179 10.5 8.25 10.5C7.65326 10.5 7.08097 10.2629 6.65901 9.84099C6.23705 9.41903 6 8.84674 6 8.25Z" fill="black"/>
<path d="M10.1066 9.52098C10.3611 9.1493 10.5 8.70681 10.5 8.25C10.5 7.65326 10.2629 7.08097 9.84099 6.65901C9.54737 6.36539 9.18095 6.1613 8.78416 6.06432C8.8028 6.13019 8.8125 6.19888 8.8125 6.26855V8.27655L10.1066 9.52098Z" fill="black"/>
<path fill-rule="evenodd" clip-rule="evenodd" d="M12 22C7.286 22 4.929 22 3.464 20.535C2 19.072 2 16.714 2 12C2 7.286 2 4.929 3.464 3.464C4.93 2 7.286 2 12 2C16.714 2 19.071 2 20.535 3.464C22 4.93 22 7.286 22 12C22 16.714 22 19.071 20.535 20.535C19.072 22 16.714 22 12 22ZM15 7.5C14.8011 7.5 14.6103 7.57902 14.4697 7.71967C14.329 7.86032 14.25 8.05109 14.25 8.25C14.25 8.44891 14.329 8.63968 14.4697 8.78033C14.6103 8.92098 14.8011 9 15 9H18.5C18.6989 9 18.8897 8.92098 19.0303 8.78033C19.171 8.63968 19.25 8.44891 19.25 8.25C19.25 8.05109 19.171 7.86032 19.0303 7.71967C18.8897 7.57902 18.6989 7.5 18.5 7.5H15ZM17.7466 14.1818C17.7286 13.9838 17.6327 13.801 17.48 13.6737C17.3272 13.5464 17.1301 13.4851 16.9321 13.5031C16.7341 13.5211 16.5513 13.617 16.424 13.7697L14.627 15.9257C14.256 16.3707 14.028 16.6407 13.841 16.8107C13.792 16.8581 13.7373 16.8991 13.678 16.9327L13.671 16.9357L13.666 16.9377L13.656 16.9327C13.631 16.9207 13.579 16.8887 13.493 16.8107C13.305 16.6417 13.077 16.3707 12.706 15.9257L12.414 15.5757C12.085 15.1807 11.789 14.8257 11.513 14.5757C11.212 14.3037 10.833 14.0617 10.333 14.0617C9.83295 14.0617 9.45495 14.3047 9.15295 14.5747C8.87843 14.8234 8.58411 15.1769 8.2582 15.5684L6.42395 17.7697C6.30225 17.9231 6.24536 18.118 6.26543 18.3127C6.28549 18.5075 6.38092 18.6867 6.53134 18.812C6.68175 18.9374 6.87522 18.9989 7.07041 18.9836C7.2656 18.9682 7.44703 18.8771 7.57595 18.7297L9.37295 16.5737C9.74395 16.1287 9.97195 15.8587 10.159 15.6887C10.2082 15.6412 10.2633 15.6002 10.323 15.5667L10.333 15.5617L10.337 15.5637L10.344 15.5667C10.4033 15.6003 10.458 15.6413 10.507 15.6887C10.695 15.8577 10.923 16.1287 11.294 16.5737L11.586 16.9237C11.915 17.3187 12.211 17.6737 12.487 17.9237C12.788 18.1957 13.167 18.4377 13.667 18.4377C14.167 18.4377 14.545 18.1947 14.847 17.9247C15.1215 17.676 15.4158 17.3225 15.7417 16.9311L17.576 14.7297C17.7032 14.5769 17.7646 14.3798 17.7466 14.1818ZM8.25 4.5C7.25544 4.5 6.30161 4.89509 5.59835 5.59835C4.89509 6.30161 4.5 7.25544 4.5 8.25C4.5 9.24456 4.89509 10.1984 5.59835 10.9017C6.30161 11.6049 7.25544 12 8.25 12C9.24456 12 10.1984 11.6049 10.9017 10.9017C11.6049 10.1984 12 9.24456 12 8.25C12 7.25544 11.6049 6.30161 10.9017 5.59835C10.1984 4.89509 9.24456 4.5 8.25 4.5Z" fill="black"/>
</g>
<defs>
<clipPath id="clip0_221_21473">
<rect width="24" height="24" fill="white"/>
</clipPath>
</defs>
</svg>
