<svg width="24" height="24" viewBox="0 0 24 24" fill="none" xmlns="http://www.w3.org/2000/svg">
<g clip-path="url(#clip0_221_21580)">
<path d="M15.24 2H11.346C9.582 2 8.184 2 7.091 2.148C5.965 2.3 5.054 2.62 4.336 3.341C3.617 4.062 3.298 4.977 3.147 6.107C3 7.205 3 8.608 3 10.379V16.217C3 17.725 3.92 19.017 5.227 19.559C5.16 18.649 5.16 17.374 5.16 16.312V11.302C5.16 10.021 5.16 8.916 5.278 8.032C5.405 7.084 5.691 6.176 6.425 5.439C7.159 4.702 8.064 4.415 9.008 4.287C9.888 4.169 10.988 4.169 12.265 4.169H15.335C16.611 4.169 17.709 4.169 18.59 4.287C18.3261 3.61329 17.8653 3.03474 17.2678 2.62678C16.6702 2.21883 15.9635 2.00041 15.24 2Z" fill="black"/>
<path fill-rule="evenodd" clip-rule="evenodd" d="M7.4441 6.46101C6.6001 7.30801 6.6001 8.67101 6.6001 11.397V16.217C6.6001 18.943 6.6001 20.306 7.4441 21.153C8.2871 22 9.6451 22 12.3601 22H15.2401C17.9551 22 19.3131 22 20.1571 21.153C21.0001 20.306 21.0001 18.943 21.0001 16.217V11.3874C21.0001 8.66779 21.0001 7.30701 20.1571 6.46101C19.3131 5.61401 17.9551 5.61401 15.2401 5.61401H12.3601C9.6441 5.61401 8.2871 5.61401 7.4441 6.46101ZM11.0242 10.2875C11.2185 10.2841 11.4065 10.3562 11.5487 10.4887L13.5187 12.4587L15.4887 10.4887C15.5574 10.415 15.6402 10.3559 15.7322 10.3149C15.8242 10.2739 15.9235 10.2519 16.0242 10.2501C16.1249 10.2483 16.2249 10.2669 16.3183 10.3046C16.4117 10.3423 16.4965 10.3985 16.5677 10.4697C16.639 10.5409 16.6951 10.6257 16.7328 10.7191C16.7706 10.8125 16.7891 10.9125 16.7873 11.0132C16.7855 11.1139 16.7635 11.2132 16.7225 11.3052C16.6815 11.3972 16.6224 11.48 16.5487 11.5487L14.5787 13.5187L16.5487 15.4887C16.6812 15.6309 16.7533 15.8189 16.7499 16.0132C16.7465 16.2075 16.6677 16.3929 16.5303 16.5303C16.3929 16.6677 16.2075 16.7465 16.0132 16.7499C15.8189 16.7533 15.6309 16.6812 15.4887 16.5487L13.5187 14.5787L11.5487 16.5487C11.48 16.6224 11.3972 16.6815 11.3052 16.7225C11.2132 16.7635 11.1139 16.7855 11.0132 16.7873C10.9125 16.7891 10.8125 16.7706 10.7191 16.7328C10.6257 16.6951 10.5409 16.639 10.4697 16.5677C10.3985 16.4965 10.3423 16.4117 10.3046 16.3183C10.2669 16.2249 10.2483 16.1249 10.2501 16.0242C10.2519 15.9235 10.2739 15.8242 10.3149 15.7322C10.3559 15.6402 10.415 15.5574 10.4887 15.4887L12.4587 13.5187L10.4887 11.5487C10.3562 11.4065 10.2841 11.2185 10.2875 11.0242C10.291 10.8299 10.3697 10.6445 10.5071 10.5071C10.6445 10.3697 10.8299 10.291 11.0242 10.2875Z" fill="black"/>
</g>
<defs>
<clipPath id="clip0_221_21580">
<rect width="24" height="24" fill="white"/>
</clipPath>
</defs>
</svg>
