<svg width="24" height="24" viewBox="0 0 24 24" fill="none" xmlns="http://www.w3.org/2000/svg">
<g clip-path="url(#clip0_221_21629)">
<path fill-rule="evenodd" clip-rule="evenodd" d="M10 20C6.229 20 4.343 20 3.172 18.828C2 17.657 2 15.771 2 12C2 8.229 2.001 6.344 3.172 5.172C4.343 4 6.229 4 10 4H14C17.771 4 19.656 4.001 20.828 5.172C22 6.343 22 8.229 22 12C22 15.771 21.999 17.656 20.828 18.828C19.657 20 17.771 20 14 20H10ZM8.46967 16.4697C8.61032 16.329 8.80109 16.25 9 16.25H15C15.1989 16.25 15.3897 16.329 15.5303 16.4697C15.671 16.6103 15.75 16.8011 15.75 17C15.75 17.1989 15.671 17.3897 15.5303 17.5303C15.3897 17.671 15.1989 17.75 15 17.75H9C8.80109 17.75 8.61032 17.671 8.46967 17.5303C8.32902 17.3897 8.25 17.1989 8.25 17C8.25 16.8011 8.32902 16.6103 8.46967 16.4697ZM14.3748 9.6167C13.9608 9.6167 13.6248 9.2807 13.6248 8.8667C13.6248 8.66779 13.7038 8.47702 13.8445 8.33637C13.9851 8.19572 14.1759 8.1167 14.3748 8.1167H16.8748C17.0737 8.1167 17.2645 8.19572 17.4051 8.33637C17.5458 8.47702 17.6248 8.66779 17.6248 8.8667V11.3667C17.6248 11.5656 17.5458 11.7564 17.4051 11.897C17.2645 12.0377 17.0737 12.1167 16.8748 12.1167C16.6759 12.1167 16.4851 12.0377 16.3445 11.897C16.2038 11.7564 16.1248 11.5656 16.1248 11.3667V10.6777L14.1118 12.6897C13.7836 13.0176 13.3387 13.2018 12.8748 13.2018C12.4109 13.2018 11.9659 13.0176 11.6378 12.6897L10.0518 11.1037C10.0286 11.0804 10.001 11.0619 9.9706 11.0493C9.94023 11.0367 9.90767 11.0303 9.87479 11.0303C9.8419 11.0303 9.80934 11.0367 9.77897 11.0493C9.7486 11.0619 9.72101 11.0804 9.69779 11.1037L7.40479 13.3967C7.33613 13.4704 7.25332 13.5295 7.16133 13.5705C7.06933 13.6115 6.97001 13.6335 6.86931 13.6353C6.76861 13.6371 6.66858 13.6185 6.57519 13.5808C6.4818 13.5431 6.39697 13.487 6.32575 13.4157C6.25453 13.3445 6.19839 13.2597 6.16066 13.1663C6.12294 13.0729 6.10442 12.9729 6.1062 12.8722C6.10797 12.7715 6.13001 12.6722 6.17101 12.5802C6.212 12.4882 6.2711 12.4054 6.34479 12.3367L8.63779 10.0437C8.96594 9.71578 9.41087 9.53157 9.87479 9.53157C10.3387 9.53157 10.7836 9.71578 11.1118 10.0437L12.6978 11.6297C12.721 11.653 12.7486 11.6715 12.779 11.6841C12.8093 11.6967 12.8419 11.7031 12.8748 11.7031C12.9077 11.7031 12.9402 11.6967 12.9706 11.6841C13.001 11.6715 13.0286 11.653 13.0518 11.6297L15.0648 9.6167H14.3748Z" fill="black"/>
</g>
<defs>
<clipPath id="clip0_221_21629">
<rect width="24" height="24" fill="white"/>
</clipPath>
</defs>
</svg>
