<svg width="24" height="24" viewBox="0 0 24 24" fill="none" xmlns="http://www.w3.org/2000/svg">
<g clip-path="url(#clip0_221_21513)">
<path fill-rule="evenodd" clip-rule="evenodd" d="M20.536 3.464C19.071 2 16.714 2 12 2C10.2976 2 8.90251 2 7.74585 2.06895L7.74585 21.931C8.90244 22 10.2975 22 12 22C16.714 22 19.07 22 20.536 20.535C22 19.071 22 16.714 22 12C22 7.286 22 4.93 20.536 3.464ZM17.5303 12.5303C17.671 12.3897 17.75 12.1989 17.75 12C17.75 11.8011 17.671 11.6103 17.5303 11.4697C17.3897 11.329 17.1989 11.25 17 11.25H11.81L13.53 9.53C13.6037 9.46134 13.6628 9.37854 13.7038 9.28654C13.7448 9.19454 13.7668 9.09522 13.7686 8.99452C13.7704 8.89382 13.7518 8.79379 13.7141 8.7004C13.6764 8.60701 13.6203 8.52218 13.549 8.45096C13.4778 8.37974 13.393 8.3236 13.2996 8.28588C13.2062 8.24816 13.1062 8.22963 13.0055 8.23141C12.9048 8.23318 12.8055 8.25523 12.7135 8.29622C12.6215 8.33721 12.5387 8.39631 12.47 8.47L9.47 11.47C9.32955 11.6106 9.25066 11.8012 9.25066 12C9.25066 12.1988 9.32955 12.3894 9.47 12.53L12.47 15.53C12.5387 15.6037 12.6215 15.6628 12.7135 15.7038C12.8055 15.7448 12.9048 15.7668 13.0055 15.7686C13.1062 15.7704 13.2062 15.7518 13.2996 15.7141C13.393 15.6764 13.4778 15.6203 13.549 15.549C13.6203 15.4778 13.6764 15.393 13.7141 15.2996C13.7518 15.2062 13.7704 15.1062 13.7686 15.0055C13.7668 14.9048 13.7448 14.8055 13.7038 14.7135C13.6628 14.6215 13.6037 14.5387 13.53 14.47L11.81 12.75H17C17.1989 12.75 17.3897 12.671 17.5303 12.5303Z" fill="black"/>
<path d="M6.24585 21.7776L6.24585 2.22218C5.02511 2.41654 4.14763 2.7809 3.465 3.464C2 4.929 2 7.286 2 12C2 16.714 2 19.072 3.465 20.535C4.14802 21.2185 5.02541 21.5831 6.24585 21.7776Z" fill="black"/>
</g>
<defs>
<clipPath id="clip0_221_21513">
<rect width="24" height="24" fill="white"/>
</clipPath>
</defs>
</svg>
