<svg width="24" height="24" viewBox="0 0 24 24" fill="none" xmlns="http://www.w3.org/2000/svg">
<g clip-path="url(#clip0_221_21483)">
<path fill-rule="evenodd" clip-rule="evenodd" d="M22 18.21C21.9961 18.0287 21.9204 17.8563 21.7895 17.7307C21.6587 17.6051 21.4833 17.5365 21.302 17.54H13.725C13.6287 17.3148 13.4882 17.1113 13.3118 16.9414C13.1354 16.7715 12.9267 16.6387 12.698 16.551V13.737H18.512C20.052 13.737 21.302 12.535 21.302 11.053C21.302 9.571 20.052 8.368 18.512 8.368C20.052 8.368 21.302 7.167 21.302 5.684C21.302 4.202 20.052 3 18.512 3H5.488C3.948 3 2.698 4.202 2.698 5.684C2.698 7.166 3.948 8.368 5.488 8.368C3.948 8.368 2.698 9.57 2.698 11.053C2.698 12.535 3.948 13.737 5.488 13.737H11.302V16.551C10.836 16.733 10.464 17.091 10.275 17.54H2.698C2.312 17.54 2 17.84 2 18.21C2 18.58 2.312 18.882 2.698 18.882H10.275C10.4208 19.2173 10.6622 19.5021 10.969 19.7009C11.2758 19.8998 11.6344 20.0038 12 20C12.78 20 13.45 19.537 13.725 18.882H21.302C21.688 18.882 22 18.582 22 18.21ZM12.233 5.685C12.233 5.315 12.545 5.015 12.93 5.015H18.512C18.897 5.015 19.209 5.315 19.209 5.685C19.209 6.055 18.897 6.356 18.512 6.356H12.93C12.7488 6.35922 12.5738 6.29052 12.4431 6.16495C12.3125 6.03937 12.2369 5.86616 12.233 5.685ZM12.233 11.055C12.233 10.684 12.545 10.384 12.93 10.384H18.512C18.897 10.384 19.209 10.684 19.209 11.054C19.209 11.424 18.897 11.726 18.512 11.726H12.93C12.7487 11.7292 12.5734 11.6604 12.4428 11.5346C12.3121 11.4088 12.2367 11.2363 12.233 11.055ZM6.419 6.579C6.932 6.579 7.349 6.179 7.349 5.684C7.349 5.19 6.932 4.789 6.419 4.789C5.906 4.789 5.489 5.19 5.489 5.684C5.489 6.178 5.905 6.579 6.419 6.579ZM6.419 11.947C6.932 11.947 7.349 11.547 7.349 11.053C7.349 10.558 6.932 10.158 6.419 10.158C5.906 10.158 5.489 10.558 5.489 11.053C5.489 11.547 5.905 11.947 6.419 11.947Z" fill="black"/>
</g>
<defs>
<clipPath id="clip0_221_21483">
<rect width="24" height="24" fill="white"/>
</clipPath>
</defs>
</svg>
