<svg width="24" height="24" viewBox="0 0 24 24" fill="none" xmlns="http://www.w3.org/2000/svg">
<g clip-path="url(#clip0_221_21552)">
<path fill-rule="evenodd" clip-rule="evenodd" d="M22 12C22 17.523 17.523 22 12 22C6.477 22 2 17.523 2 12C2 6.477 6.477 2 12 2C17.523 2 22 6.477 22 12ZM13.488 6.446C13.6799 6.49756 13.8436 6.6232 13.943 6.79533C14.0423 6.96745 14.0693 7.17199 14.018 7.364L11.43 17.024C11.4045 17.1191 11.3604 17.2083 11.3004 17.2864C11.2404 17.3646 11.1656 17.4301 11.0803 17.4793C10.9079 17.5787 10.7031 17.6056 10.511 17.554C10.3189 17.5024 10.1551 17.3766 10.0557 17.2043C9.95627 17.0319 9.92942 16.8271 9.981 16.635L12.57 6.976C12.6216 6.78405 12.7472 6.62042 12.9193 6.52104C13.0915 6.42166 13.296 6.39468 13.488 6.446ZM14.97 8.47C15.1106 8.32955 15.3012 8.25066 15.5 8.25066C15.6988 8.25066 15.8894 8.32955 16.03 8.47L16.239 8.678C16.874 9.313 17.404 9.843 17.768 10.32C18.152 10.824 18.422 11.356 18.422 12C18.422 12.644 18.152 13.176 17.768 13.68C17.404 14.157 16.874 14.687 16.238 15.322L16.03 15.53C15.9613 15.6037 15.8785 15.6628 15.7865 15.7038C15.6945 15.7448 15.5952 15.7668 15.4945 15.7686C15.3938 15.7704 15.2938 15.7518 15.2004 15.7141C15.107 15.6764 15.0222 15.6203 14.951 15.549C14.8797 15.4778 14.8236 15.393 14.7859 15.2996C14.7482 15.2062 14.7296 15.1062 14.7314 15.0055C14.7332 14.9048 14.7552 14.8055 14.7962 14.7135C14.8372 14.6215 14.8963 14.5387 14.97 14.47L15.141 14.298C15.823 13.616 16.28 13.158 16.575 12.77C16.858 12.4 16.922 12.184 16.922 12C16.922 11.816 16.858 11.6 16.575 11.23C16.28 10.843 15.823 10.384 15.141 9.702L14.97 9.53C14.8295 9.38937 14.7507 9.19875 14.7507 9C14.7507 8.80125 14.8295 8.61063 14.97 8.47ZM7.97 8.47C8.11217 8.33752 8.30022 8.2654 8.49452 8.26882C8.68882 8.27225 8.87421 8.35097 9.01162 8.48838C9.14903 8.62579 9.22775 8.81118 9.23118 9.00548C9.2346 9.19978 9.16248 9.38783 9.03 9.53L8.859 9.702C8.177 10.384 7.721 10.842 7.425 11.23C7.142 11.6 7.079 11.816 7.079 12C7.079 12.184 7.142 12.4 7.425 12.77C7.721 13.157 8.177 13.616 8.859 14.298L9.031 14.47C9.1026 14.5392 9.1597 14.622 9.19896 14.7135C9.23822 14.805 9.25886 14.9035 9.25968 15.0031C9.2605 15.1026 9.24148 15.2014 9.20372 15.2935C9.16597 15.3857 9.11024 15.4694 9.03979 15.5398C8.96934 15.6102 8.88557 15.6658 8.79338 15.7035C8.70119 15.7412 8.60242 15.7601 8.50284 15.7592C8.40326 15.7583 8.30485 15.7375 8.21337 15.6982C8.12188 15.6588 8.03915 15.6017 7.97 15.53L7.762 15.322C7.126 14.687 6.596 14.157 6.232 13.68C5.848 13.176 5.579 12.644 5.579 12C5.579 11.356 5.849 10.824 6.232 10.32C6.596 9.843 7.126 9.313 7.762 8.678L7.97 8.47Z" fill="black"/>
</g>
<defs>
<clipPath id="clip0_221_21552">
<rect width="24" height="24" fill="white"/>
</clipPath>
</defs>
</svg>
