<svg width="24" height="24" viewBox="0 0 24 24" fill="none" xmlns="http://www.w3.org/2000/svg">
<g clip-path="url(#clip0_221_21574)">
<path d="M15.24 2H11.346C9.582 2 8.184 2 7.091 2.148C5.965 2.3 5.054 2.62 4.336 3.341C3.617 4.062 3.298 4.977 3.147 6.107C3 7.205 3 8.608 3 10.379V16.217C3 17.725 3.92 19.017 5.227 19.559C5.16 18.649 5.16 17.374 5.16 16.312V11.302C5.16 10.021 5.16 8.916 5.278 8.032C5.405 7.084 5.691 6.176 6.425 5.439C7.159 4.702 8.064 4.415 9.008 4.287C9.888 4.169 10.988 4.169 12.265 4.169H15.335C16.611 4.169 17.709 4.169 18.59 4.287C18.3261 3.61329 17.8653 3.03474 17.2678 2.62678C16.6702 2.21883 15.9635 2.00041 15.24 2Z" fill="black"/>
<path fill-rule="evenodd" clip-rule="evenodd" d="M7.4441 6.46101C6.6001 7.30801 6.6001 8.67101 6.6001 11.397V16.217C6.6001 18.943 6.6001 20.306 7.4441 21.153C8.2871 22 9.6451 22 12.3601 22H15.2401C17.9551 22 19.3131 22 20.1571 21.153C21.0001 20.306 21.0001 18.943 21.0001 16.217V11.3874C21.0001 8.66779 21.0001 7.30701 20.1571 6.46101C19.3131 5.61401 17.9551 5.61401 15.2401 5.61401H12.3601C9.6441 5.61401 8.2871 5.61401 7.4441 6.46101ZM17.0303 14.0303C16.8897 14.171 16.6989 14.25 16.5 14.25H10.5C10.3011 14.25 10.1103 14.171 9.96967 14.0303C9.82902 13.8897 9.75 13.6989 9.75 13.5C9.75 13.3011 9.82902 13.1103 9.96967 12.9697C10.1103 12.829 10.3011 12.75 10.5 12.75H16.5C16.6989 12.75 16.8897 12.829 17.0303 12.9697C17.171 13.1103 17.25 13.3011 17.25 13.5C17.25 13.6989 17.171 13.8897 17.0303 14.0303Z" fill="black"/>
</g>
<defs>
<clipPath id="clip0_221_21574">
<rect width="24" height="24" fill="white"/>
</clipPath>
</defs>
</svg>
