<svg width="24" height="24" viewBox="0 0 24 24" fill="none" xmlns="http://www.w3.org/2000/svg">
<g clip-path="url(#clip0_221_21623)">
<path d="M19.352 7.61711L15.392 4.05411C14.265 3.03911 13.702 2.53111 13.009 2.26611L13 5.00011C13 7.35711 13 8.53611 13.732 9.26811C14.464 10.0001 15.643 10.0001 18 10.0001H21.58C21.218 9.29611 20.568 8.71211 19.352 7.61711Z" fill="black"/>
<path fill-rule="evenodd" clip-rule="evenodd" d="M14 22H10C6.229 22 4.344 21.999 3.172 20.828C2 19.657 2 17.771 2 14V10C2 6.229 2 4.343 3.172 3.172C4.343 2 6.239 2 10.03 2C10.636 2 11.121 2 11.53 2.017C11.5167 2.097 11.51 2.17833 11.51 2.261L11.5 5.095C11.5 6.193 11.5 7.162 11.605 7.943C11.719 8.79 11.98 9.637 12.672 10.329C13.363 11.02 14.21 11.281 15.057 11.395C15.838 11.5 16.808 11.5 17.905 11.5H21.957C22 12.034 22 12.69 22 13.563V14C22 17.771 21.999 19.656 20.828 20.828C19.657 22 17.771 22 14 22ZM13.3357 15.309C13.1951 15.4496 13.116 15.6404 13.116 15.8393V18.8393C13.116 19.0382 13.1951 19.229 13.3357 19.3696C13.4764 19.5103 13.6671 19.5893 13.866 19.5893C14.065 19.5893 14.2557 19.5103 14.3964 19.3696C14.537 19.229 14.616 19.0382 14.616 18.8393V15.8393C14.616 15.6404 14.537 15.4496 14.3964 15.309C14.2557 15.1683 14.065 15.0893 13.866 15.0893C13.6671 15.0893 13.4764 15.1683 13.3357 15.309ZM9.08571 12.309C9.22637 12.1683 9.41713 12.0893 9.61604 12.0893C9.81496 12.0893 10.0057 12.1683 10.1464 12.309C10.287 12.4496 10.366 12.6404 10.366 12.8393V18.8393C10.366 19.0382 10.287 19.229 10.1464 19.3696C10.0057 19.5103 9.81496 19.5893 9.61604 19.5893C9.41713 19.5893 9.22637 19.5103 9.08571 19.3696C8.94506 19.229 8.86604 19.0382 8.86604 18.8393V12.8393C8.86604 12.6404 8.94506 12.4496 9.08571 12.309ZM4.83571 9.30898C4.69506 9.44964 4.61604 9.6404 4.61604 9.83931V18.8393C4.61604 19.0382 4.69506 19.229 4.83571 19.3696C4.97637 19.5103 5.16713 19.5893 5.36604 19.5893C5.56496 19.5893 5.75572 19.5103 5.89637 19.3696C6.03703 19.229 6.11604 19.0382 6.11604 18.8393V9.83931C6.11604 9.6404 6.03703 9.44964 5.89637 9.30898C5.75572 9.16833 5.56496 9.08931 5.36604 9.08931C5.16713 9.08931 4.97637 9.16833 4.83571 9.30898Z" fill="black"/>
</g>
<defs>
<clipPath id="clip0_221_21623">
<rect width="24" height="24" fill="white"/>
</clipPath>
</defs>
</svg>
