<svg width="24" height="24" viewBox="0 0 24 24" fill="none" xmlns="http://www.w3.org/2000/svg">
<path d="M5.83325 14.3354C6.82781 14.3354 7.78136 14.7308 8.48462 15.4341C9.18783 16.1373 9.58325 17.0909 9.58325 18.0854C9.58321 19.0799 9.18784 20.0336 8.48462 20.7368C7.78137 21.44 6.82777 21.8354 5.83325 21.8354C4.83873 21.8354 3.88514 21.44 3.18188 20.7368C2.47866 20.0336 2.0833 19.0799 2.08325 18.0854C2.08325 17.0909 2.47868 16.1373 3.18188 15.4341C3.88515 14.7308 4.83869 14.3354 5.83325 14.3354ZM4.0647 1.40869C7.0826 1.46475 11.5833 2.42256 15.3997 5.15186C19.2863 7.93145 22.3884 12.5046 22.5051 19.5425C22.5189 20.3707 21.8587 21.053 21.0305 21.0669C20.2022 21.0806 19.5189 20.4206 19.5051 19.5923C19.4049 13.5514 16.8064 9.8464 13.6545 7.59229C10.4323 5.28782 6.55674 4.45602 4.00903 4.40869C3.18094 4.39326 2.52221 3.7094 2.53735 2.88135C2.55274 2.05312 3.23649 1.39339 4.0647 1.40869ZM5.14771 8.34424C7.77548 8.28733 10.4004 9.22011 12.3762 11.1958C14.3762 13.1957 15.3094 15.8596 15.2258 18.52C15.1998 19.3479 14.5077 19.9979 13.6799 19.9722C12.852 19.9461 12.202 19.2541 12.2278 18.4263C12.2874 16.5282 11.6243 14.6872 10.2551 13.3179C8.90303 11.9658 7.08849 11.3026 5.21216 11.3433C4.38408 11.3611 3.69795 10.7046 3.67993 9.87646C3.66197 9.04823 4.31947 8.3622 5.14771 8.34424Z" fill="black"/>
</svg>
