<svg width="24" height="24" viewBox="0 0 24 24" fill="none" xmlns="http://www.w3.org/2000/svg">
<g clip-path="url(#clip0_221_21568)">
<path d="M15.24 2H11.346C9.582 2 8.184 2 7.091 2.148C5.965 2.3 5.054 2.62 4.336 3.341C3.617 4.062 3.298 4.977 3.147 6.107C3 7.205 3 8.608 3 10.379V16.217C3 17.725 3.92 19.017 5.227 19.559C5.16 18.649 5.16 17.374 5.16 16.312V11.302C5.16 10.021 5.16 8.916 5.278 8.032C5.405 7.084 5.691 6.176 6.425 5.439C7.159 4.702 8.064 4.415 9.008 4.287C9.888 4.169 10.988 4.169 12.265 4.169H15.335C16.611 4.169 17.709 4.169 18.59 4.287C18.3261 3.61329 17.8653 3.03474 17.2678 2.62678C16.6702 2.21883 15.9635 2.00041 15.24 2Z" fill="black"/>
<path fill-rule="evenodd" clip-rule="evenodd" d="M7.4441 6.46101C6.6001 7.30801 6.6001 8.67101 6.6001 11.397V16.217C6.6001 18.943 6.6001 20.306 7.4441 21.153C8.2871 22 9.6451 22 12.3601 22H15.2401C17.9551 22 19.3131 22 20.1571 21.153C21.0001 20.306 21.0001 18.943 21.0001 16.217V11.3874C21.0001 8.66779 21.0001 7.30701 20.1571 6.46101C19.3131 5.61401 17.9551 5.61401 15.2401 5.61401H12.3601C9.6441 5.61401 8.2871 5.61401 7.4441 6.46101ZM14.331 10.3142C14.4716 10.4548 14.5507 10.6456 14.5507 10.8445V13.0945H16.8007C16.9996 13.0945 17.1903 13.1735 17.331 13.3142C17.4716 13.4548 17.5507 13.6456 17.5507 13.8445C17.5507 14.0434 17.4716 14.2342 17.331 14.3748C17.1903 14.5155 16.9996 14.5945 16.8007 14.5945H14.5507V16.8445C14.5507 17.0434 14.4716 17.2342 14.331 17.3748C14.1903 17.5155 13.9996 17.5945 13.8007 17.5945C13.6017 17.5945 13.411 17.5155 13.2703 17.3748C13.1297 17.2342 13.0507 17.0434 13.0507 16.8445V14.5945H10.8007C10.6017 14.5945 10.411 14.5155 10.2703 14.3748C10.1297 14.2342 10.0507 14.0434 10.0507 13.8445C10.0507 13.6456 10.1297 13.4548 10.2703 13.3142C10.411 13.1735 10.6017 13.0945 10.8007 13.0945H13.0507V10.8445C13.0507 10.6456 13.1297 10.4548 13.2703 10.3142C13.411 10.1735 13.6017 10.0945 13.8007 10.0945C13.9996 10.0945 14.1903 10.1735 14.331 10.3142Z" fill="black"/>
</g>
<defs>
<clipPath id="clip0_221_21568">
<rect width="24" height="24" fill="white"/>
</clipPath>
</defs>
</svg>
