<svg width="24" height="24" viewBox="0 0 24 24" fill="none" xmlns="http://www.w3.org/2000/svg">
<g clip-path="url(#clip0_221_21618)">
<path d="M2.01489 12.1113C2.01489 7.39733 2.01489 5.04133 3.47889 3.57533C4.94389 2.11133 7.30089 2.11133 12.0149 2.11133C16.7289 2.11133 19.0869 2.11133 20.5499 3.57533C20.7511 3.77654 20.9247 3.99458 21.0744 4.23324L15.8776 11.4122C15.5076 11.8572 15.2786 12.1282 15.0916 12.2972C15.0427 12.3446 14.9879 12.3856 14.9286 12.4192L14.9176 12.4242L14.9066 12.4192C14.847 12.3857 14.7918 12.3447 14.7426 12.2972C14.5556 12.1272 11.3276 8.85715 10.9566 8.41215L10.6646 8.06215C10.3366 7.66715 10.0396 7.31215 9.76361 7.06215C9.46261 6.79015 9.08361 6.54815 8.58361 6.54815C8.08361 6.54815 7.70561 6.79015 7.40361 7.06215C7.12761 7.31215 6.83161 7.66715 6.50361 8.06215L2.01535 13.0417C2.01489 12.7422 2.01489 12.4322 2.01489 12.1113Z" fill="black"/>
<path d="M16.9976 12.4102L21.7095 5.90656C22.0149 7.34974 22.0149 9.3162 22.0149 12.1113C22.0149 13.8802 22.0149 15.3174 21.9375 16.5H15.6884L15.6794 13.718C15.8341 13.6306 15.9724 13.523 16.0976 13.4102C16.3736 13.1602 16.6696 12.8052 16.9976 12.4102Z" fill="black"/>
<path d="M14.1884 16.5L14.1794 13.7313C14.015 13.6417 13.8689 13.5288 13.7376 13.4102C13.4616 13.1602 10.1656 9.80515 9.83661 9.41015L9.50132 9.00824L9.51675 16.5H14.1884Z" fill="black"/>
<path d="M9.51984 18H14.1933L14.2066 22.1043C13.5384 22.1113 12.8102 22.1113 12.0149 22.1113C11.101 22.1113 10.2757 22.1113 9.52828 22.1007L9.51984 18Z" fill="black"/>
<path d="M8.01675 16.5L8.0005 8.61177C7.89264 8.73727 7.76901 8.88528 7.62361 9.06015L2.03847 15.2553C2.04993 15.6992 2.06696 16.1132 2.09226 16.5H8.01675Z" fill="black"/>
<path d="M2.2595 18H8.01984L8.02819 22.0569C5.82732 21.9481 4.45559 21.6224 3.47889 20.6463C2.82123 19.9887 2.45901 19.1508 2.2595 18Z" fill="black"/>
<path d="M15.6933 18H21.7702C21.5706 19.1511 21.2081 19.989 20.5499 20.6463C19.5316 21.6653 18.0813 21.9755 15.7065 22.07L15.6933 18Z" fill="black"/>
</g>
<defs>
<clipPath id="clip0_221_21618">
<rect width="24" height="24" fill="white"/>
</clipPath>
</defs>
</svg>
