<svg width="24" height="24" viewBox="0 0 24 24" fill="none" xmlns="http://www.w3.org/2000/svg">
<g clip-path="url(#clip0_221_21634)">
<path fill-rule="evenodd" clip-rule="evenodd" d="M16.9175 2.58371C16.6563 2.71068 16.3368 2.90789 15.8475 3.21172L14.8973 3.80134C14.4343 4.08886 14.133 4.27681 13.9128 4.44542C13.7062 4.60361 13.6175 4.71104 13.5616 4.81349L13.5609 4.81485C13.5039 4.91868 13.4592 5.05654 13.4338 5.32627C13.407 5.61121 13.4062 5.97798 13.4062 6.53568V7.25835C13.4062 8.20548 13.4079 8.84292 13.4698 9.31856C13.5292 9.77518 13.6321 9.96843 13.7525 10.093C13.8692 10.2138 14.0456 10.3154 14.4752 10.3752C14.9291 10.4383 15.5395 10.44 16.4572 10.44H18.3577C19.2755 10.44 19.8858 10.4383 20.3396 10.3752C20.7691 10.3154 20.9457 10.2138 21.0627 10.0928C21.1831 9.96831 21.286 9.77516 21.3454 9.31847C21.4073 8.84274 21.4087 8.20536 21.4087 7.25835V6.53521C21.4087 5.97777 21.408 5.61117 21.3812 5.32628C21.3559 5.05662 21.3112 4.91841 21.2541 4.81403C21.198 4.71129 21.109 4.6037 20.9023 4.44548C20.6821 4.27683 20.3809 4.08899 19.9179 3.80148L18.9677 3.21185C18.478 2.90795 18.1585 2.7107 17.8973 2.58368C17.6515 2.46416 17.5166 2.43751 17.4075 2.43751C17.2984 2.43751 17.1633 2.46419 16.9175 2.58371ZM18.1575 5.68873C18.1575 5.27451 17.8217 4.93873 17.4075 4.93873C16.9933 4.93873 16.6575 5.27451 16.6575 5.68873V8.68873C16.6575 9.10294 16.9933 9.43873 17.4075 9.43873C17.8217 9.43873 18.1575 9.10294 18.1575 8.68873V5.68873Z" fill="black"/>
<path fill-rule="evenodd" clip-rule="evenodd" d="M20.5462 11.8609C21.0949 11.7845 21.5977 11.6244 22.0145 11.2565C22.0149 11.5325 22.0149 11.8173 22.0149 12.1113C22.0149 16.8253 22.0149 19.1833 20.5499 20.6463C19.0859 22.1113 16.7289 22.1113 12.0149 22.1113C7.30089 22.1113 4.94489 22.1113 3.47889 20.6463C2.01489 19.1823 2.01489 16.8253 2.01489 12.1113C2.01489 7.39733 2.01489 5.04133 3.47889 3.57533C4.94389 2.11133 7.30089 2.11133 12.0149 2.11133C13.0322 2.11133 13.9397 2.11133 14.7522 2.12604L14.0724 2.54791C13.6486 2.81102 13.2854 3.03658 13.0008 3.25453C12.6952 3.48853 12.4355 3.74604 12.2454 4.09414C12.0555 4.44053 11.9768 4.79943 11.9404 5.18571C11.9062 5.5492 11.9062 5.98692 11.9062 6.50226V7.30486C11.9062 8.19043 11.9062 8.92743 11.9823 9.51215C12.0622 10.1261 12.2377 10.684 12.6737 11.1353C13.1134 11.5903 13.6632 11.7767 14.2686 11.8609C14.838 11.9401 15.5536 11.94 16.4043 11.94H18.4107C19.2614 11.94 19.9769 11.9401 20.5462 11.8609ZM17.7466 14.1818C17.7286 13.9838 17.6327 13.801 17.48 13.6737C17.3272 13.5464 17.1301 13.4851 16.9321 13.5031C16.7341 13.5211 16.5513 13.617 16.424 13.7697L14.627 15.9257C14.256 16.3707 14.028 16.6407 13.841 16.8107C13.792 16.8581 13.7373 16.8991 13.678 16.9327L13.671 16.9357L13.666 16.9377L13.656 16.9327C13.631 16.9207 13.579 16.8887 13.493 16.8107C13.305 16.6417 13.077 16.3707 12.706 15.9257L12.414 15.5757C12.085 15.1807 11.789 14.8257 11.513 14.5757C11.212 14.3037 10.833 14.0617 10.333 14.0617C9.83295 14.0617 9.45495 14.3047 9.15295 14.5747C8.87843 14.8234 8.58411 15.1769 8.2582 15.5684L6.42395 17.7697C6.30225 17.9231 6.24536 18.118 6.26543 18.3127C6.28549 18.5075 6.38092 18.6867 6.53134 18.812C6.68175 18.9374 6.87522 18.9989 7.07041 18.9836C7.2656 18.9682 7.44703 18.8771 7.57595 18.7297L9.37295 16.5737C9.74395 16.1287 9.97195 15.8587 10.159 15.6887C10.2082 15.6412 10.2633 15.6002 10.323 15.5667L10.333 15.5617L10.337 15.5637L10.344 15.5667C10.4033 15.6003 10.458 15.6413 10.507 15.6887C10.695 15.8577 10.923 16.1287 11.294 16.5737L11.586 16.9237C11.915 17.3187 12.211 17.6737 12.487 17.9237C12.788 18.1957 13.167 18.4377 13.667 18.4377C14.167 18.4377 14.545 18.1947 14.847 17.9247C15.1215 17.676 15.4158 17.3225 15.7417 16.9311L17.576 14.7297C17.7032 14.5769 17.7646 14.3798 17.7466 14.1818Z" fill="black"/>
</g>
<defs>
<clipPath id="clip0_221_21634">
<rect width="24" height="24" fill="white"/>
</clipPath>
</defs>
</svg>
