<svg width="24" height="24" viewBox="0 0 24 24" fill="none" xmlns="http://www.w3.org/2000/svg">
<g clip-path="url(#clip0_221_21528)">
<path d="M19.9899 3.99119C18.4369 2.47019 16.3089 2.41119 15.2249 3.47319L11.5249 7.09819C11.3822 7.23412 11.1918 7.30844 10.9948 7.30509C10.7977 7.30173 10.61 7.22096 10.472 7.08025C10.334 6.93953 10.257 6.75018 10.2576 6.55312C10.2581 6.35607 10.3362 6.16714 10.4749 6.02719L14.1749 2.40219C16.0109 0.603194 19.0889 1.00919 21.0399 2.92019C22.9929 4.83319 23.4179 7.87519 21.5679 9.68819L18.6609 12.5362C18.5905 12.6051 18.5072 12.6595 18.4158 12.6963C18.3244 12.7331 18.2267 12.7515 18.1281 12.7504C18.0296 12.7494 17.9322 12.729 17.8416 12.6903C17.751 12.6517 17.6689 12.5956 17.5999 12.5252C17.531 12.4548 17.4766 12.3715 17.4398 12.2801C17.403 12.1887 17.3846 12.0909 17.3857 11.9924C17.3867 11.8939 17.4071 11.7965 17.4458 11.7059C17.4844 11.6153 17.5405 11.5331 17.6109 11.4642L20.5179 8.61619C21.5879 7.56819 21.5399 5.51019 19.9899 3.99119ZM6.62391 3.58419C6.5698 3.50107 6.49974 3.4295 6.41779 3.37363C6.33583 3.31776 6.24361 3.2787 6.14646 3.25872C6.04931 3.23873 5.94916 3.23821 5.85181 3.25719C5.75446 3.27617 5.66183 3.31428 5.57931 3.36929C5.49678 3.42431 5.42599 3.49515 5.37102 3.57772C5.31606 3.66028 5.27802 3.75293 5.2591 3.85029C5.24018 3.94766 5.24077 4.04781 5.26082 4.14494C5.28087 4.24208 5.31998 4.33428 5.37591 4.41619L7.37591 7.41619C7.48725 7.5793 7.65843 7.6919 7.85229 7.72957C8.04615 7.76723 8.24704 7.72691 8.41136 7.61737C8.57567 7.50783 8.69015 7.33789 8.72995 7.14446C8.76974 6.95103 8.73164 6.7497 8.62391 6.58419L6.62391 3.58419ZM2.23691 7.28919C2.14309 7.25656 2.04373 7.24288 1.94459 7.24896C1.84545 7.25504 1.7485 7.28075 1.65938 7.32459C1.57025 7.36844 1.49073 7.42956 1.42542 7.5044C1.3601 7.57923 1.31031 7.6663 1.27892 7.76053C1.24753 7.85477 1.23517 7.9543 1.24256 8.05336C1.24995 8.15241 1.27694 8.24901 1.32197 8.33754C1.36699 8.42608 1.42916 8.50479 1.50485 8.5691C1.58055 8.63342 1.66826 8.68205 1.76291 8.71219L7.76291 10.7122C7.9508 10.772 8.1547 10.7555 8.33047 10.6661C8.50623 10.5767 8.63972 10.4217 8.70204 10.2346C8.76436 10.0475 8.75049 9.84339 8.66344 9.66645C8.57638 9.48952 8.42315 9.35398 8.23691 9.28919L2.23691 7.28919ZM6.72791 12.5062C6.85897 12.3589 6.92676 12.1659 6.9166 11.969C6.90645 11.7721 6.81917 11.5871 6.67365 11.4541C6.52813 11.3211 6.33607 11.2507 6.13905 11.2582C5.94203 11.2657 5.75588 11.3505 5.62091 11.4942L4.35991 12.8742C2.63291 14.7632 3.00991 17.9272 4.86391 19.9552C6.72891 21.9952 9.73391 22.4602 11.5189 20.5072L15.5539 16.0932C15.685 15.9459 15.7528 15.7529 15.7426 15.556C15.7325 15.3591 15.6452 15.1741 15.4996 15.0411C15.3541 14.9081 15.1621 14.8377 14.965 14.8452C14.768 14.8527 14.5819 14.9375 14.4469 15.0812L10.4119 19.4952C9.41091 20.5902 7.44891 20.5602 5.97191 18.9432C4.48191 17.3152 4.40791 15.0432 5.46691 13.8852L6.72791 12.5062Z" fill="black"/>
</g>
<defs>
<clipPath id="clip0_221_21528">
<rect width="24" height="24" fill="white"/>
</clipPath>
</defs>
</svg>
