<svg width="24" height="24" viewBox="0 0 24 24" fill="none" xmlns="http://www.w3.org/2000/svg">
<g clip-path="url(#clip0_221_21444)">
<path fill-rule="evenodd" clip-rule="evenodd" d="M2.02795 11.25C2.21713 8.73474 3.34984 6.38388 5.19911 4.6685C7.04838 2.95313 9.47759 1.99996 12 2C11.17 2 10.43 2.364 9.81995 2.921C9.21495 3.475 8.70395 4.249 8.28995 5.163C7.87395 6.083 7.54995 7.159 7.33095 8.326C7.15333 9.29154 7.04704 10.2688 7.01295 11.25H2.02795ZM2.02795 12.75H7.01295C7.04895 13.752 7.15595 14.738 7.33095 15.674C7.55095 16.841 7.87395 17.917 8.28995 18.837C8.70395 19.751 9.21495 20.525 9.81995 21.079C10.43 21.636 11.17 22 12 22C6.72995 22 2.41095 17.923 2.02795 12.75Z" fill="black"/>
<path d="M12 3.39502C11.725 3.39502 11.37 3.51202 10.957 3.89002C10.541 4.27102 10.124 4.86802 9.75602 5.68102C9.39002 6.48902 9.09302 7.46402 8.88902 8.55402C8.72902 9.41202 8.62902 10.322 8.59302 11.25H15.407C15.3744 10.3453 15.2755 9.44423 15.111 8.55402C14.907 7.46402 14.611 6.48902 14.244 5.68102C13.876 4.86802 13.46 4.27102 13.044 3.89102C12.63 3.51202 12.275 3.39502 12 3.39502ZM8.88902 15.446C9.09302 16.536 9.39002 17.511 9.75602 18.319C10.124 19.132 10.541 19.729 10.956 20.109C11.37 20.488 11.726 20.605 12 20.605C12.275 20.605 12.63 20.488 13.043 20.11C13.46 19.729 13.876 19.132 14.244 18.319C14.61 17.511 14.907 16.536 15.111 15.446C15.272 14.588 15.372 13.678 15.407 12.75H8.59302C8.62802 13.678 8.72802 14.588 8.88902 15.446Z" fill="black"/>
<path d="M12 2C12.831 2 13.57 2.364 14.18 2.921C14.785 3.475 15.297 4.249 15.71 5.163C16.127 6.083 16.45 7.159 16.669 8.326C16.844 9.262 16.951 10.248 16.987 11.25H21.972C21.7828 8.73474 20.6501 6.38388 18.8008 4.6685C16.9516 2.95313 14.5224 1.99996 12 2ZM16.669 15.674C16.45 16.841 16.127 17.917 15.71 18.837C15.297 19.751 14.785 20.525 14.18 21.079C13.57 21.636 12.831 22 12 22C17.27 22 21.589 17.923 21.972 12.75H16.987C16.9529 13.7312 16.8466 14.7085 16.669 15.674Z" fill="black"/>
</g>
<defs>
<clipPath id="clip0_221_21444">
<rect width="24" height="24" fill="white"/>
</clipPath>
</defs>
</svg>
