<svg width="24" height="24" viewBox="0 0 24 24" fill="none" xmlns="http://www.w3.org/2000/svg">
<g clip-path="url(#clip0_221_21503)">
<path fill-rule="evenodd" clip-rule="evenodd" d="M20.536 20.536C22 19.071 22 16.714 22 12C22 10.2976 22 8.90251 21.931 7.74585L2.06901 7.74585C2 8.90244 2 10.2975 2 12C2 16.714 2 19.07 3.465 20.536C4.929 22 7.286 22 12 22C16.714 22 19.07 22 20.536 20.536ZM11.4697 17.5303C11.6103 17.671 11.8011 17.75 12 17.75C12.1989 17.75 12.3897 17.671 12.5303 17.5303C12.671 17.3897 12.75 17.1989 12.75 17V11.81L14.47 13.53C14.5387 13.6037 14.6215 13.6628 14.7135 13.7038C14.8055 13.7448 14.9048 13.7668 15.0055 13.7686C15.1062 13.7704 15.2062 13.7518 15.2996 13.7141C15.393 13.6764 15.4778 13.6203 15.549 13.549C15.6203 13.4778 15.6764 13.393 15.7141 13.2996C15.7518 13.2062 15.7704 13.1062 15.7686 13.0055C15.7668 12.9048 15.7448 12.8055 15.7038 12.7135C15.6628 12.6215 15.6037 12.5387 15.53 12.47L12.53 9.47C12.3894 9.32955 12.1988 9.25066 12 9.25066C11.8012 9.25066 11.6106 9.32955 11.47 9.47L8.47 12.47C8.39631 12.5387 8.33721 12.6215 8.29622 12.7135C8.25523 12.8055 8.23318 12.9048 8.23141 13.0055C8.22963 13.1062 8.24816 13.2062 8.28588 13.2996C8.3236 13.393 8.37974 13.4778 8.45096 13.549C8.52218 13.6203 8.60701 13.6764 8.7004 13.7141C8.79379 13.7518 8.89382 13.7704 8.99452 13.7686C9.09523 13.7668 9.19454 13.7448 9.28654 13.7038C9.37854 13.6628 9.46134 13.6037 9.53 13.53L11.25 11.81V17C11.25 17.1989 11.329 17.3897 11.4697 17.5303Z" fill="black"/>
<path d="M2.2224 6.24585L21.7778 6.24585C21.5835 5.02511 21.2191 4.14763 20.536 3.465C19.071 2 16.714 2 12 2C7.286 2 4.928 2 3.465 3.465C2.78151 4.14802 2.4169 5.02541 2.2224 6.24585Z" fill="black"/>
</g>
<defs>
<clipPath id="clip0_221_21503">
<rect width="24" height="24" fill="white"/>
</clipPath>
</defs>
</svg>
