<svg width="24" height="24" viewBox="0 0 24 24" fill="none" xmlns="http://www.w3.org/2000/svg">
<g clip-path="url(#clip0_221_21488)">
<path d="M17.416 2.62418C17.4991 2.57007 17.5707 2.50001 17.6266 2.41806C17.6824 2.33611 17.7215 2.24388 17.7415 2.14673C17.7615 2.04958 17.762 1.94943 17.743 1.85208C17.724 1.75473 17.6859 1.66211 17.6309 1.57958C17.5759 1.49705 17.505 1.42626 17.4225 1.37129C17.3399 1.31633 17.2473 1.27829 17.1499 1.25937C17.0525 1.24046 16.9524 1.24104 16.8553 1.26109C16.7581 1.28114 16.6659 1.32026 16.584 1.37618L13.669 3.32018C13.138 3.10848 12.5716 2.99988 12 3.00018C11.41 3.00018 10.847 3.11318 10.331 3.32018L7.416 1.37618C7.25049 1.26845 7.04917 1.23034 6.85573 1.27014C6.6623 1.30993 6.49237 1.42441 6.38282 1.58873C6.27328 1.75305 6.23296 1.95394 6.27063 2.1478C6.30829 2.34165 6.4209 2.51284 6.584 2.62418L8.944 4.19718C8.23389 4.85374 7.75419 5.72161 7.576 6.67218C8.02104 6.55819 8.4786 6.50041 8.938 6.50018H15.063C15.5343 6.50151 15.988 6.55885 16.424 6.67218C16.2458 5.72161 15.7661 4.85374 15.056 4.19718L17.416 2.62418ZM1.25 14.0002C1.25 13.8013 1.32902 13.6105 1.46967 13.4698C1.61032 13.3292 1.80109 13.2502 2 13.2502H5V11.9382C5 11.1022 5.26 10.3272 5.704 9.69018L3.221 8.69618C3.04043 8.6194 2.89714 8.47492 2.82186 8.29372C2.74658 8.11253 2.74531 7.90904 2.81832 7.72692C2.89133 7.5448 3.0328 7.39853 3.21239 7.3195C3.39198 7.24048 3.5954 7.23497 3.779 7.30418L6.915 8.55818C7.52569 8.19084 8.22535 7.99785 8.938 8.00018H15.062C15.802 8.00018 16.494 8.20418 17.085 8.55818L20.221 7.30418C20.3128 7.26513 20.4116 7.2448 20.5114 7.24439C20.6112 7.24397 20.71 7.26348 20.8022 7.30177C20.8944 7.34006 20.978 7.39636 21.0481 7.46738C21.1182 7.53839 21.1735 7.62268 21.2106 7.71532C21.2478 7.80796 21.266 7.90707 21.2644 8.00686C21.2627 8.10665 21.2411 8.20511 21.2009 8.29646C21.1607 8.38781 21.1027 8.47022 21.0303 8.53885C20.9578 8.60749 20.8724 8.66098 20.779 8.69618L18.296 9.69018C18.7568 10.349 19.0027 11.1342 19 11.9382V13.2502H22C22.1989 13.2502 22.3897 13.3292 22.5303 13.4698C22.671 13.6105 22.75 13.8013 22.75 14.0002C22.75 14.1991 22.671 14.3899 22.5303 14.5305C22.3897 14.6712 22.1989 14.7502 22 14.7502H19V15.0002C19.0007 16.1394 18.7233 17.2615 18.192 18.2692L20.779 19.3042C20.9637 19.3782 21.1115 19.5225 21.1898 19.7055C21.2681 19.8884 21.2705 20.095 21.1965 20.2797C21.1225 20.4644 20.9782 20.6122 20.7952 20.6905C20.6123 20.7688 20.4057 20.7712 20.221 20.6972L17.329 19.5392C16.1684 20.902 14.5297 21.7683 12.75 21.9602V15.0002C12.75 14.8013 12.671 14.6105 12.5303 14.4698C12.3897 14.3292 12.1989 14.2502 12 14.2502C11.8011 14.2502 11.6103 14.3292 11.4697 14.4698C11.329 14.6105 11.25 14.8013 11.25 15.0002V21.9602C9.47041 21.7686 7.83181 20.9026 6.671 19.5402L3.78 20.6962C3.68853 20.7328 3.59075 20.7511 3.49222 20.7499C3.3937 20.7488 3.29637 20.7282 3.20578 20.6895C3.1152 20.6507 3.03314 20.5945 2.96429 20.524C2.89543 20.4535 2.84114 20.3701 2.8045 20.2787C2.76786 20.1872 2.7496 20.0894 2.75075 19.9909C2.7519 19.8924 2.77245 19.795 2.81122 19.7045C2.84999 19.6139 2.90622 19.5318 2.9767 19.463C3.04718 19.3941 3.13053 19.3398 3.222 19.3032L5.81 18.2682C5.27814 17.261 5.0001 16.1392 5 15.0002V14.7502H2C1.80109 14.7502 1.61032 14.6712 1.46967 14.5305C1.32902 14.3899 1.25 14.1991 1.25 14.0002Z" fill="black"/>
</g>
<defs>
<clipPath id="clip0_221_21488">
<rect width="24" height="24" fill="white"/>
</clipPath>
</defs>
</svg>
