<svg viewBox="0 0 24 24" xmlns="http://www.w3.org/2000/svg"><circle cx="0.42857142857142855" cy="0.42857142857142855" r="0.42857142857142855" fill="rgb(72,218,229)" />
<circle cx="1.2857142857142856" cy="0.42857142857142855" r="0.42857142857142855" fill="rgb(75,215,228)" />
<circle cx="2.142857142857143" cy="0.42857142857142855" r="0.42857142857142855" fill="rgb(78,213,226)" />
<circle cx="3" cy="0.42857142857142855" r="0.42857142857142855" fill="rgb(81,210,225)" />
<circle cx="3.8571428571428568" cy="0.42857142857142855" r="0.42857142857142855" fill="rgb(84,207,223)" />
<circle cx="4.714285714285714" cy="0.42857142857142855" r="0.42857142857142855" fill="rgb(87,204,222)" />
<circle cx="5.571428571428571" cy="0.42857142857142855" r="0.42857142857142855" fill="rgb(90,202,221)" />
<circle cx="6.428571428571428" cy="0.42857142857142855" r="0.42857142857142855" fill="rgb(93,199,219)" />
<circle cx="7.285714285714286" cy="0.42857142857142855" r="0.42857142857142855" fill="rgb(96,196,218)" />
<circle cx="8.142857142857142" cy="0.42857142857142855" r="0.42857142857142855" fill="rgb(99,194,216)" />
<circle cx="9" cy="0.42857142857142855" r="0.42857142857142855" fill="rgb(102,191,215)" />
<circle cx="9.857142857142856" cy="0.42857142857142855" r="0.42857142857142855" fill="rgb(105,188,214)" />
<circle cx="10.714285714285714" cy="0.42857142857142855" r="0.42857142857142855" fill="rgb(108,186,212)" />
<circle cx="11.571428571428571" cy="0.42857142857142855" r="0.42857142857142855" fill="rgb(111,183,211)" />
<circle cx="12.428571428571427" cy="0.42857142857142855" r="0.42857142857142855" fill="rgb(115,180,209)" />
<circle cx="13.285714285714285" cy="0.42857142857142855" r="0.42857142857142855" fill="rgb(118,177,208)" />
<circle cx="14.142857142857142" cy="0.42857142857142855" r="0.42857142857142855" fill="rgb(121,175,206)" />
<circle cx="15" cy="0.42857142857142855" r="0.42857142857142855" fill="rgb(124,172,205)" />
<circle cx="15.857142857142856" cy="0.42857142857142855" r="0.42857142857142855" fill="rgb(127,169,204)" />
<circle cx="16.71428571428571" cy="0.42857142857142855" r="0.42857142857142855" fill="rgb(130,167,202)" />
<circle cx="17.57142857142857" cy="0.42857142857142855" r="0.42857142857142855" fill="rgb(133,164,201)" />
<circle cx="18.428571428571427" cy="0.42857142857142855" r="0.42857142857142855" fill="rgb(136,161,199)" />
<circle cx="19.285714285714285" cy="0.42857142857142855" r="0.42857142857142855" fill="rgb(139,159,198)" />
<circle cx="20.142857142857142" cy="0.42857142857142855" r="0.42857142857142855" fill="rgb(142,156,197)" />
<circle cx="21" cy="0.42857142857142855" r="0.42857142857142855" fill="rgb(145,153,195)" />
<circle cx="21.857142857142858" cy="0.42857142857142855" r="0.42857142857142855" fill="rgb(148,150,194)" />
<circle cx="22.71428571428571" cy="0.42857142857142855" r="0.42857142857142855" fill="rgb(151,148,192)" />
<circle cx="23.57142857142857" cy="0.42857142857142855" r="0.42857142857142855" fill="rgb(154,145,191)" />
<circle cx="0.42857142857142855" cy="1.2857142857142856" r="0.42857142857142855" fill="rgb(75,215,228)" />
<circle cx="1.2857142857142856" cy="1.2857142857142856" r="0.42857142857142855" fill="rgb(78,213,226)" />
<circle cx="2.142857142857143" cy="1.2857142857142856" r="0.42857142857142855" fill="rgb(81,210,225)" />
<circle cx="3" cy="1.2857142857142856" r="0.42857142857142855" fill="rgb(84,207,223)" />
<circle cx="3.8571428571428568" cy="1.2857142857142856" r="0.42857142857142855" fill="rgb(87,204,222)" />
<circle cx="4.714285714285714" cy="1.2857142857142856" r="0.42857142857142855" fill="rgb(90,202,221)" />
<circle cx="5.571428571428571" cy="1.2857142857142856" r="0.42857142857142855" fill="rgb(93,199,219)" />
<circle cx="6.428571428571428" cy="1.2857142857142856" r="0.42857142857142855" fill="rgb(96,196,218)" />
<circle cx="7.285714285714286" cy="1.2857142857142856" r="0.42857142857142855" fill="rgb(99,194,216)" />
<circle cx="8.142857142857142" cy="1.2857142857142856" r="0.42857142857142855" fill="rgb(102,191,215)" />
<circle cx="9" cy="1.2857142857142856" r="0.42857142857142855" fill="rgb(105,188,214)" />
<circle cx="9.857142857142856" cy="1.2857142857142856" r="0.42857142857142855" fill="rgb(108,186,212)" />
<circle cx="10.714285714285714" cy="1.2857142857142856" r="0.42857142857142855" fill="rgb(111,183,211)" />
<circle cx="11.571428571428571" cy="1.2857142857142856" r="0.42857142857142855" fill="rgb(115,180,209)" />
<circle cx="12.428571428571427" cy="1.2857142857142856" r="0.42857142857142855" fill="rgb(118,177,208)" />
<circle cx="13.285714285714285" cy="1.2857142857142856" r="0.42857142857142855" fill="rgb(121,175,206)" />
<circle cx="14.142857142857142" cy="1.2857142857142856" r="0.42857142857142855" fill="rgb(124,172,205)" />
<circle cx="15" cy="1.2857142857142856" r="0.42857142857142855" fill="rgb(127,169,204)" />
<circle cx="15.857142857142856" cy="1.2857142857142856" r="0.42857142857142855" fill="rgb(130,167,202)" />
<circle cx="16.71428571428571" cy="1.2857142857142856" r="0.42857142857142855" fill="rgb(133,164,201)" />
<circle cx="17.57142857142857" cy="1.2857142857142856" r="0.42857142857142855" fill="rgb(136,161,199)" />
<circle cx="18.428571428571427" cy="1.2857142857142856" r="0.42857142857142855" fill="rgb(139,159,198)" />
<circle cx="19.285714285714285" cy="1.2857142857142856" r="0.42857142857142855" fill="rgb(142,156,197)" />
<circle cx="20.142857142857142" cy="1.2857142857142856" r="0.42857142857142855" fill="rgb(145,153,195)" />
<circle cx="21" cy="1.2857142857142856" r="0.42857142857142855" fill="rgb(148,150,194)" />
<circle cx="21.857142857142858" cy="1.2857142857142856" r="0.42857142857142855" fill="rgb(151,148,192)" />
<circle cx="22.71428571428571" cy="1.2857142857142856" r="0.42857142857142855" fill="rgb(154,145,191)" />
<circle cx="23.57142857142857" cy="1.2857142857142856" r="0.42857142857142855" fill="rgb(157,142,190)" />
<circle cx="0.42857142857142855" cy="2.142857142857143" r="0.42857142857142855" fill="rgb(78,213,226)" />
<circle cx="1.2857142857142856" cy="2.142857142857143" r="0.42857142857142855" fill="rgb(81,210,225)" />
<circle cx="2.142857142857143" cy="2.142857142857143" r="0.42857142857142855" fill="rgb(84,207,223)" />
<circle cx="19.285714285714285" cy="2.142857142857143" r="0.42857142857142855" fill="rgb(145,153,195)" />
<circle cx="20.142857142857142" cy="2.142857142857143" r="0.42857142857142855" fill="rgb(148,150,194)" />
<circle cx="21" cy="2.142857142857143" r="0.42857142857142855" fill="rgb(151,148,192)" />
<circle cx="21.857142857142858" cy="2.142857142857143" r="0.42857142857142855" fill="rgb(154,145,191)" />
<circle cx="22.71428571428571" cy="2.142857142857143" r="0.42857142857142855" fill="rgb(157,142,190)" />
<circle cx="23.57142857142857" cy="2.142857142857143" r="0.42857142857142855" fill="rgb(160,140,188)" />
<circle cx="0.42857142857142855" cy="3" r="0.42857142857142855" fill="rgb(81,210,225)" />
<circle cx="1.2857142857142856" cy="3" r="0.42857142857142855" fill="rgb(84,207,223)" />
<circle cx="3.8571428571428568" cy="3" r="0.42857142857142855" fill="rgb(93,199,219)" />
<circle cx="4.714285714285714" cy="3" r="0.42857142857142855" fill="rgb(96,196,218)" />
<circle cx="5.571428571428571" cy="3" r="0.42857142857142855" fill="rgb(99,194,216)" />
<circle cx="6.428571428571428" cy="3" r="0.42857142857142855" fill="rgb(102,191,215)" />
<circle cx="7.285714285714286" cy="3" r="0.42857142857142855" fill="rgb(105,188,214)" />
<circle cx="8.142857142857142" cy="3" r="0.42857142857142855" fill="rgb(108,186,212)" />
<circle cx="9" cy="3" r="0.42857142857142855" fill="rgb(111,183,211)" />
<circle cx="9.857142857142856" cy="3" r="0.42857142857142855" fill="rgb(115,180,209)" />
<circle cx="11.571428571428571" cy="3" r="0.42857142857142855" fill="rgb(121,175,206)" />
<circle cx="12.428571428571427" cy="3" r="0.42857142857142855" fill="rgb(124,172,205)" />
<circle cx="13.285714285714285" cy="3" r="0.42857142857142855" fill="rgb(127,169,204)" />
<circle cx="14.142857142857142" cy="3" r="0.42857142857142855" fill="rgb(130,167,202)" />
<circle cx="15" cy="3" r="0.42857142857142855" fill="rgb(133,164,201)" />
<circle cx="15.857142857142856" cy="3" r="0.42857142857142855" fill="rgb(136,161,199)" />
<circle cx="16.71428571428571" cy="3" r="0.42857142857142855" fill="rgb(139,159,198)" />
<circle cx="17.57142857142857" cy="3" r="0.42857142857142855" fill="rgb(142,156,197)" />
<circle cx="20.142857142857142" cy="3" r="0.42857142857142855" fill="rgb(151,148,192)" />
<circle cx="21" cy="3" r="0.42857142857142855" fill="rgb(154,145,191)" />
<circle cx="21.857142857142858" cy="3" r="0.42857142857142855" fill="rgb(157,142,190)" />
<circle cx="22.71428571428571" cy="3" r="0.42857142857142855" fill="rgb(160,140,188)" />
<circle cx="23.57142857142857" cy="3" r="0.42857142857142855" fill="rgb(163,137,187)" />
<circle cx="0.42857142857142855" cy="3.8571428571428568" r="0.42857142857142855" fill="rgb(84,207,223)" />
<circle cx="1.2857142857142856" cy="3.8571428571428568" r="0.42857142857142855" fill="rgb(87,204,222)" />
<circle cx="3" cy="3.8571428571428568" r="0.42857142857142855" fill="rgb(93,199,219)" />
<circle cx="3.8571428571428568" cy="3.8571428571428568" r="0.42857142857142855" fill="rgb(96,196,218)" />
<circle cx="4.714285714285714" cy="3.8571428571428568" r="0.42857142857142855" fill="rgb(99,194,216)" />
<circle cx="5.571428571428571" cy="3.8571428571428568" r="0.42857142857142855" fill="rgb(102,191,215)" />
<circle cx="6.428571428571428" cy="3.8571428571428568" r="0.42857142857142855" fill="rgb(105,188,214)" />
<circle cx="7.285714285714286" cy="3.8571428571428568" r="0.42857142857142855" fill="rgb(108,186,212)" />
<circle cx="8.142857142857142" cy="3.8571428571428568" r="0.42857142857142855" fill="rgb(111,183,211)" />
<circle cx="9" cy="3.8571428571428568" r="0.42857142857142855" fill="rgb(115,180,209)" />
<circle cx="9.857142857142856" cy="3.8571428571428568" r="0.42857142857142855" fill="rgb(118,177,208)" />
<circle cx="11.571428571428571" cy="3.8571428571428568" r="0.42857142857142855" fill="rgb(124,172,205)" />
<circle cx="12.428571428571427" cy="3.8571428571428568" r="0.42857142857142855" fill="rgb(127,169,204)" />
<circle cx="13.285714285714285" cy="3.8571428571428568" r="0.42857142857142855" fill="rgb(130,167,202)" />
<circle cx="14.142857142857142" cy="3.8571428571428568" r="0.42857142857142855" fill="rgb(133,164,201)" />
<circle cx="15" cy="3.8571428571428568" r="0.42857142857142855" fill="rgb(136,161,199)" />
<circle cx="15.857142857142856" cy="3.8571428571428568" r="0.42857142857142855" fill="rgb(139,159,198)" />
<circle cx="16.71428571428571" cy="3.8571428571428568" r="0.42857142857142855" fill="rgb(142,156,197)" />
<circle cx="17.57142857142857" cy="3.8571428571428568" r="0.42857142857142855" fill="rgb(145,153,195)" />
<circle cx="18.428571428571427" cy="3.8571428571428568" r="0.42857142857142855" fill="rgb(148,150,194)" />
<circle cx="20.142857142857142" cy="3.8571428571428568" r="0.42857142857142855" fill="rgb(154,145,191)" />
<circle cx="21" cy="3.8571428571428568" r="0.42857142857142855" fill="rgb(157,142,190)" />
<circle cx="21.857142857142858" cy="3.8571428571428568" r="0.42857142857142855" fill="rgb(160,140,188)" />
<circle cx="22.71428571428571" cy="3.8571428571428568" r="0.42857142857142855" fill="rgb(163,137,187)" />
<circle cx="23.57142857142857" cy="3.8571428571428568" r="0.42857142857142855" fill="rgb(166,134,185)" />
<circle cx="0.42857142857142855" cy="4.714285714285714" r="0.42857142857142855" fill="rgb(87,204,222)" />
<circle cx="1.2857142857142856" cy="4.714285714285714" r="0.42857142857142855" fill="rgb(90,202,221)" />
<circle cx="3" cy="4.714285714285714" r="0.42857142857142855" fill="rgb(96,196,218)" />
<circle cx="3.8571428571428568" cy="4.714285714285714" r="0.42857142857142855" fill="rgb(99,194,216)" />
<circle cx="4.714285714285714" cy="4.714285714285714" r="0.42857142857142855" fill="rgb(102,191,215)" />
<circle cx="5.571428571428571" cy="4.714285714285714" r="0.42857142857142855" fill="rgb(105,188,214)" />
<circle cx="6.428571428571428" cy="4.714285714285714" r="0.42857142857142855" fill="rgb(108,186,212)" />
<circle cx="7.285714285714286" cy="4.714285714285714" r="0.42857142857142855" fill="rgb(111,183,211)" />
<circle cx="8.142857142857142" cy="4.714285714285714" r="0.42857142857142855" fill="rgb(115,180,209)" />
<circle cx="9" cy="4.714285714285714" r="0.42857142857142855" fill="rgb(118,177,208)" />
<circle cx="9.857142857142856" cy="4.714285714285714" r="0.42857142857142855" fill="rgb(121,175,206)" />
<circle cx="11.571428571428571" cy="4.714285714285714" r="0.42857142857142855" fill="rgb(127,169,204)" />
<circle cx="12.428571428571427" cy="4.714285714285714" r="0.42857142857142855" fill="rgb(130,167,202)" />
<circle cx="13.285714285714285" cy="4.714285714285714" r="0.42857142857142855" fill="rgb(133,164,201)" />
<circle cx="14.142857142857142" cy="4.714285714285714" r="0.42857142857142855" fill="rgb(136,161,199)" />
<circle cx="15" cy="4.714285714285714" r="0.42857142857142855" fill="rgb(139,159,198)" />
<circle cx="15.857142857142856" cy="4.714285714285714" r="0.42857142857142855" fill="rgb(142,156,197)" />
<circle cx="16.71428571428571" cy="4.714285714285714" r="0.42857142857142855" fill="rgb(145,153,195)" />
<circle cx="17.57142857142857" cy="4.714285714285714" r="0.42857142857142855" fill="rgb(148,150,194)" />
<circle cx="18.428571428571427" cy="4.714285714285714" r="0.42857142857142855" fill="rgb(151,148,192)" />
<circle cx="20.142857142857142" cy="4.714285714285714" r="0.42857142857142855" fill="rgb(157,142,190)" />
<circle cx="21" cy="4.714285714285714" r="0.42857142857142855" fill="rgb(160,140,188)" />
<circle cx="21.857142857142858" cy="4.714285714285714" r="0.42857142857142855" fill="rgb(163,137,187)" />
<circle cx="22.71428571428571" cy="4.714285714285714" r="0.42857142857142855" fill="rgb(166,134,185)" />
<circle cx="23.57142857142857" cy="4.714285714285714" r="0.42857142857142855" fill="rgb(169,131,184)" />
<circle cx="0.42857142857142855" cy="5.571428571428571" r="0.42857142857142855" fill="rgb(90,202,221)" />
<circle cx="1.2857142857142856" cy="5.571428571428571" r="0.42857142857142855" fill="rgb(93,199,219)" />
<circle cx="3" cy="5.571428571428571" r="0.42857142857142855" fill="rgb(99,194,216)" />
<circle cx="3.8571428571428568" cy="5.571428571428571" r="0.42857142857142855" fill="rgb(102,191,215)" />
<circle cx="4.714285714285714" cy="5.571428571428571" r="0.42857142857142855" fill="rgb(105,188,214)" />
<circle cx="5.571428571428571" cy="5.571428571428571" r="0.42857142857142855" fill="rgb(108,186,212)" />
<circle cx="6.428571428571428" cy="5.571428571428571" r="0.42857142857142855" fill="rgb(111,183,211)" />
<circle cx="7.285714285714286" cy="5.571428571428571" r="0.42857142857142855" fill="rgb(115,180,209)" />
<circle cx="8.142857142857142" cy="5.571428571428571" r="0.42857142857142855" fill="rgb(118,177,208)" />
<circle cx="9" cy="5.571428571428571" r="0.42857142857142855" fill="rgb(121,175,206)" />
<circle cx="9.857142857142856" cy="5.571428571428571" r="0.42857142857142855" fill="rgb(124,172,205)" />
<circle cx="11.571428571428571" cy="5.571428571428571" r="0.42857142857142855" fill="rgb(130,167,202)" />
<circle cx="12.428571428571427" cy="5.571428571428571" r="0.42857142857142855" fill="rgb(133,164,201)" />
<circle cx="13.285714285714285" cy="5.571428571428571" r="0.42857142857142855" fill="rgb(136,161,199)" />
<circle cx="14.142857142857142" cy="5.571428571428571" r="0.42857142857142855" fill="rgb(139,159,198)" />
<circle cx="15" cy="5.571428571428571" r="0.42857142857142855" fill="rgb(142,156,197)" />
<circle cx="15.857142857142856" cy="5.571428571428571" r="0.42857142857142855" fill="rgb(145,153,195)" />
<circle cx="16.71428571428571" cy="5.571428571428571" r="0.42857142857142855" fill="rgb(148,150,194)" />
<circle cx="17.57142857142857" cy="5.571428571428571" r="0.42857142857142855" fill="rgb(151,148,192)" />
<circle cx="18.428571428571427" cy="5.571428571428571" r="0.42857142857142855" fill="rgb(154,145,191)" />
<circle cx="20.142857142857142" cy="5.571428571428571" r="0.42857142857142855" fill="rgb(160,140,188)" />
<circle cx="21" cy="5.571428571428571" r="0.42857142857142855" fill="rgb(163,137,187)" />
<circle cx="21.857142857142858" cy="5.571428571428571" r="0.42857142857142855" fill="rgb(166,134,185)" />
<circle cx="22.71428571428571" cy="5.571428571428571" r="0.42857142857142855" fill="rgb(169,131,184)" />
<circle cx="23.57142857142857" cy="5.571428571428571" r="0.42857142857142855" fill="rgb(172,129,183)" />
<circle cx="0.42857142857142855" cy="6.428571428571428" r="0.42857142857142855" fill="rgb(93,199,219)" />
<circle cx="1.2857142857142856" cy="6.428571428571428" r="0.42857142857142855" fill="rgb(96,196,218)" />
<circle cx="3" cy="6.428571428571428" r="0.42857142857142855" fill="rgb(102,191,215)" />
<circle cx="3.8571428571428568" cy="6.428571428571428" r="0.42857142857142855" fill="rgb(105,188,214)" />
<circle cx="4.714285714285714" cy="6.428571428571428" r="0.42857142857142855" fill="rgb(108,186,212)" />
<circle cx="5.571428571428571" cy="6.428571428571428" r="0.42857142857142855" fill="rgb(111,183,211)" />
<circle cx="6.428571428571428" cy="6.428571428571428" r="0.42857142857142855" fill="rgb(115,180,209)" />
<circle cx="7.285714285714286" cy="6.428571428571428" r="0.42857142857142855" fill="rgb(118,177,208)" />
<circle cx="8.142857142857142" cy="6.428571428571428" r="0.42857142857142855" fill="rgb(121,175,206)" />
<circle cx="9" cy="6.428571428571428" r="0.42857142857142855" fill="rgb(124,172,205)" />
<circle cx="9.857142857142856" cy="6.428571428571428" r="0.42857142857142855" fill="rgb(127,169,204)" />
<circle cx="11.571428571428571" cy="6.428571428571428" r="0.42857142857142855" fill="rgb(133,164,201)" />
<circle cx="12.428571428571427" cy="6.428571428571428" r="0.42857142857142855" fill="rgb(136,161,199)" />
<circle cx="13.285714285714285" cy="6.428571428571428" r="0.42857142857142855" fill="rgb(139,159,198)" />
<circle cx="14.142857142857142" cy="6.428571428571428" r="0.42857142857142855" fill="rgb(142,156,197)" />
<circle cx="15" cy="6.428571428571428" r="0.42857142857142855" fill="rgb(145,153,195)" />
<circle cx="15.857142857142856" cy="6.428571428571428" r="0.42857142857142855" fill="rgb(148,150,194)" />
<circle cx="16.71428571428571" cy="6.428571428571428" r="0.42857142857142855" fill="rgb(151,148,192)" />
<circle cx="17.57142857142857" cy="6.428571428571428" r="0.42857142857142855" fill="rgb(154,145,191)" />
<circle cx="18.428571428571427" cy="6.428571428571428" r="0.42857142857142855" fill="rgb(157,142,190)" />
<circle cx="20.142857142857142" cy="6.428571428571428" r="0.42857142857142855" fill="rgb(163,137,187)" />
<circle cx="21" cy="6.428571428571428" r="0.42857142857142855" fill="rgb(166,134,185)" />
<circle cx="21.857142857142858" cy="6.428571428571428" r="0.42857142857142855" fill="rgb(169,131,184)" />
<circle cx="22.71428571428571" cy="6.428571428571428" r="0.42857142857142855" fill="rgb(172,129,183)" />
<circle cx="23.57142857142857" cy="6.428571428571428" r="0.42857142857142855" fill="rgb(175,126,181)" />
<circle cx="0.42857142857142855" cy="7.285714285714286" r="0.42857142857142855" fill="rgb(96,196,218)" />
<circle cx="1.2857142857142856" cy="7.285714285714286" r="0.42857142857142855" fill="rgb(99,194,216)" />
<circle cx="3" cy="7.285714285714286" r="0.42857142857142855" fill="rgb(105,188,214)" />
<circle cx="3.8571428571428568" cy="7.285714285714286" r="0.42857142857142855" fill="rgb(108,186,212)" />
<circle cx="4.714285714285714" cy="7.285714285714286" r="0.42857142857142855" fill="rgb(111,183,211)" />
<circle cx="5.571428571428571" cy="7.285714285714286" r="0.42857142857142855" fill="rgb(115,180,209)" />
<circle cx="6.428571428571428" cy="7.285714285714286" r="0.42857142857142855" fill="rgb(118,177,208)" />
<circle cx="7.285714285714286" cy="7.285714285714286" r="0.42857142857142855" fill="rgb(121,175,206)" />
<circle cx="8.142857142857142" cy="7.285714285714286" r="0.42857142857142855" fill="rgb(124,172,205)" />
<circle cx="9" cy="7.285714285714286" r="0.42857142857142855" fill="rgb(127,169,204)" />
<circle cx="9.857142857142856" cy="7.285714285714286" r="0.42857142857142855" fill="rgb(130,167,202)" />
<circle cx="11.571428571428571" cy="7.285714285714286" r="0.42857142857142855" fill="rgb(136,161,199)" />
<circle cx="12.428571428571427" cy="7.285714285714286" r="0.42857142857142855" fill="rgb(139,159,198)" />
<circle cx="13.285714285714285" cy="7.285714285714286" r="0.42857142857142855" fill="rgb(142,156,197)" />
<circle cx="14.142857142857142" cy="7.285714285714286" r="0.42857142857142855" fill="rgb(145,153,195)" />
<circle cx="15" cy="7.285714285714286" r="0.42857142857142855" fill="rgb(148,150,194)" />
<circle cx="15.857142857142856" cy="7.285714285714286" r="0.42857142857142855" fill="rgb(151,148,192)" />
<circle cx="16.71428571428571" cy="7.285714285714286" r="0.42857142857142855" fill="rgb(154,145,191)" />
<circle cx="17.57142857142857" cy="7.285714285714286" r="0.42857142857142855" fill="rgb(157,142,190)" />
<circle cx="18.428571428571427" cy="7.285714285714286" r="0.42857142857142855" fill="rgb(160,140,188)" />
<circle cx="20.142857142857142" cy="7.285714285714286" r="0.42857142857142855" fill="rgb(166,134,185)" />
<circle cx="21" cy="7.285714285714286" r="0.42857142857142855" fill="rgb(169,131,184)" />
<circle cx="21.857142857142858" cy="7.285714285714286" r="0.42857142857142855" fill="rgb(172,129,183)" />
<circle cx="22.71428571428571" cy="7.285714285714286" r="0.42857142857142855" fill="rgb(175,126,181)" />
<circle cx="23.57142857142857" cy="7.285714285714286" r="0.42857142857142855" fill="rgb(178,123,180)" />
<circle cx="0.42857142857142855" cy="8.142857142857142" r="0.42857142857142855" fill="rgb(99,194,216)" />
<circle cx="1.2857142857142856" cy="8.142857142857142" r="0.42857142857142855" fill="rgb(102,191,215)" />
<circle cx="2.142857142857143" cy="8.142857142857142" r="0.42857142857142855" fill="rgb(105,188,214)" />
<circle cx="3" cy="8.142857142857142" r="0.42857142857142855" fill="rgb(108,186,212)" />
<circle cx="3.8571428571428568" cy="8.142857142857142" r="0.42857142857142855" fill="rgb(111,183,211)" />
<circle cx="4.714285714285714" cy="8.142857142857142" r="0.42857142857142855" fill="rgb(115,180,209)" />
<circle cx="5.571428571428571" cy="8.142857142857142" r="0.42857142857142855" fill="rgb(118,177,208)" />
<circle cx="6.428571428571428" cy="8.142857142857142" r="0.42857142857142855" fill="rgb(121,175,206)" />
<circle cx="7.285714285714286" cy="8.142857142857142" r="0.42857142857142855" fill="rgb(124,172,205)" />
<circle cx="8.142857142857142" cy="8.142857142857142" r="0.42857142857142855" fill="rgb(127,169,204)" />
<circle cx="9" cy="8.142857142857142" r="0.42857142857142855" fill="rgb(130,167,202)" />
<circle cx="9.857142857142856" cy="8.142857142857142" r="0.42857142857142855" fill="rgb(133,164,201)" />
<circle cx="11.571428571428571" cy="8.142857142857142" r="0.42857142857142855" fill="rgb(139,159,198)" />
<circle cx="12.428571428571427" cy="8.142857142857142" r="0.42857142857142855" fill="rgb(142,156,197)" />
<circle cx="13.285714285714285" cy="8.142857142857142" r="0.42857142857142855" fill="rgb(145,153,195)" />
<circle cx="14.142857142857142" cy="8.142857142857142" r="0.42857142857142855" fill="rgb(148,150,194)" />
<circle cx="15" cy="8.142857142857142" r="0.42857142857142855" fill="rgb(151,148,192)" />
<circle cx="15.857142857142856" cy="8.142857142857142" r="0.42857142857142855" fill="rgb(154,145,191)" />
<circle cx="16.71428571428571" cy="8.142857142857142" r="0.42857142857142855" fill="rgb(157,142,190)" />
<circle cx="17.57142857142857" cy="8.142857142857142" r="0.42857142857142855" fill="rgb(160,140,188)" />
<circle cx="18.428571428571427" cy="8.142857142857142" r="0.42857142857142855" fill="rgb(163,137,187)" />
<circle cx="19.285714285714285" cy="8.142857142857142" r="0.42857142857142855" fill="rgb(166,134,185)" />
<circle cx="20.142857142857142" cy="8.142857142857142" r="0.42857142857142855" fill="rgb(169,131,184)" />
<circle cx="21" cy="8.142857142857142" r="0.42857142857142855" fill="rgb(172,129,183)" />
<circle cx="21.857142857142858" cy="8.142857142857142" r="0.42857142857142855" fill="rgb(175,126,181)" />
<circle cx="22.71428571428571" cy="8.142857142857142" r="0.42857142857142855" fill="rgb(178,123,180)" />
<circle cx="23.57142857142857" cy="8.142857142857142" r="0.42857142857142855" fill="rgb(181,121,178)" />
<circle cx="0.42857142857142855" cy="9" r="0.42857142857142855" fill="rgb(102,191,215)" />
<circle cx="1.2857142857142856" cy="9" r="0.42857142857142855" fill="rgb(105,188,214)" />
<circle cx="2.142857142857143" cy="9" r="0.42857142857142855" fill="rgb(108,186,212)" />
<circle cx="3" cy="9" r="0.42857142857142855" fill="rgb(111,183,211)" />
<circle cx="3.8571428571428568" cy="9" r="0.42857142857142855" fill="rgb(115,180,209)" />
<circle cx="4.714285714285714" cy="9" r="0.42857142857142855" fill="rgb(118,177,208)" />
<circle cx="5.571428571428571" cy="9" r="0.42857142857142855" fill="rgb(121,175,206)" />
<circle cx="6.428571428571428" cy="9" r="0.42857142857142855" fill="rgb(124,172,205)" />
<circle cx="7.285714285714286" cy="9" r="0.42857142857142855" fill="rgb(127,169,204)" />
<circle cx="8.142857142857142" cy="9" r="0.42857142857142855" fill="rgb(130,167,202)" />
<circle cx="9" cy="9" r="0.42857142857142855" fill="rgb(133,164,201)" />
<circle cx="9.857142857142856" cy="9" r="0.42857142857142855" fill="rgb(136,161,199)" />
<circle cx="11.571428571428571" cy="9" r="0.42857142857142855" fill="rgb(142,156,197)" />
<circle cx="12.428571428571427" cy="9" r="0.42857142857142855" fill="rgb(145,153,195)" />
<circle cx="13.285714285714285" cy="9" r="0.42857142857142855" fill="rgb(148,150,194)" />
<circle cx="14.142857142857142" cy="9" r="0.42857142857142855" fill="rgb(151,148,192)" />
<circle cx="15" cy="9" r="0.42857142857142855" fill="rgb(154,145,191)" />
<circle cx="15.857142857142856" cy="9" r="0.42857142857142855" fill="rgb(157,142,190)" />
<circle cx="16.71428571428571" cy="9" r="0.42857142857142855" fill="rgb(160,140,188)" />
<circle cx="17.57142857142857" cy="9" r="0.42857142857142855" fill="rgb(163,137,187)" />
<circle cx="18.428571428571427" cy="9" r="0.42857142857142855" fill="rgb(166,134,185)" />
<circle cx="19.285714285714285" cy="9" r="0.42857142857142855" fill="rgb(169,131,184)" />
<circle cx="20.142857142857142" cy="9" r="0.42857142857142855" fill="rgb(172,129,183)" />
<circle cx="21" cy="9" r="0.42857142857142855" fill="rgb(175,126,181)" />
<circle cx="21.857142857142858" cy="9" r="0.42857142857142855" fill="rgb(178,123,180)" />
<circle cx="22.71428571428571" cy="9" r="0.42857142857142855" fill="rgb(181,121,178)" />
<circle cx="23.57142857142857" cy="9" r="0.42857142857142855" fill="rgb(184,118,177)" />
<circle cx="0.42857142857142855" cy="9.857142857142856" r="0.42857142857142855" fill="rgb(105,188,214)" />
<circle cx="1.2857142857142856" cy="9.857142857142856" r="0.42857142857142855" fill="rgb(108,186,212)" />
<circle cx="2.142857142857143" cy="9.857142857142856" r="0.42857142857142855" fill="rgb(111,183,211)" />
<circle cx="3" cy="9.857142857142856" r="0.42857142857142855" fill="rgb(115,180,209)" />
<circle cx="3.8571428571428568" cy="9.857142857142856" r="0.42857142857142855" fill="rgb(118,177,208)" />
<circle cx="4.714285714285714" cy="9.857142857142856" r="0.42857142857142855" fill="rgb(121,175,206)" />
<circle cx="5.571428571428571" cy="9.857142857142856" r="0.42857142857142855" fill="rgb(124,172,205)" />
<circle cx="6.428571428571428" cy="9.857142857142856" r="0.42857142857142855" fill="rgb(127,169,204)" />
<circle cx="7.285714285714286" cy="9.857142857142856" r="0.42857142857142855" fill="rgb(130,167,202)" />
<circle cx="8.142857142857142" cy="9.857142857142856" r="0.42857142857142855" fill="rgb(133,164,201)" />
<circle cx="9" cy="9.857142857142856" r="0.42857142857142855" fill="rgb(136,161,199)" />
<circle cx="9.857142857142856" cy="9.857142857142856" r="0.42857142857142855" fill="rgb(139,159,198)" />
<circle cx="11.571428571428571" cy="9.857142857142856" r="0.42857142857142855" fill="rgb(145,153,195)" />
<circle cx="12.428571428571427" cy="9.857142857142856" r="0.42857142857142855" fill="rgb(148,150,194)" />
<circle cx="13.285714285714285" cy="9.857142857142856" r="0.42857142857142855" fill="rgb(151,148,192)" />
<circle cx="14.142857142857142" cy="9.857142857142856" r="0.42857142857142855" fill="rgb(154,145,191)" />
<circle cx="15" cy="9.857142857142856" r="0.42857142857142855" fill="rgb(157,142,190)" />
<circle cx="15.857142857142856" cy="9.857142857142856" r="0.42857142857142855" fill="rgb(160,140,188)" />
<circle cx="16.71428571428571" cy="9.857142857142856" r="0.42857142857142855" fill="rgb(163,137,187)" />
<circle cx="17.57142857142857" cy="9.857142857142856" r="0.42857142857142855" fill="rgb(166,134,185)" />
<circle cx="18.428571428571427" cy="9.857142857142856" r="0.42857142857142855" fill="rgb(169,131,184)" />
<circle cx="19.285714285714285" cy="9.857142857142856" r="0.42857142857142855" fill="rgb(172,129,183)" />
<circle cx="20.142857142857142" cy="9.857142857142856" r="0.42857142857142855" fill="rgb(175,126,181)" />
<circle cx="21" cy="9.857142857142856" r="0.42857142857142855" fill="rgb(178,123,180)" />
<circle cx="21.857142857142858" cy="9.857142857142856" r="0.42857142857142855" fill="rgb(181,121,178)" />
<circle cx="22.71428571428571" cy="9.857142857142856" r="0.42857142857142855" fill="rgb(184,118,177)" />
<circle cx="23.57142857142857" cy="9.857142857142856" r="0.42857142857142855" fill="rgb(187,115,176)" />
<circle cx="0.42857142857142855" cy="10.714285714285714" r="0.42857142857142855" fill="rgb(108,186,212)" />
<circle cx="1.2857142857142856" cy="10.714285714285714" r="0.42857142857142855" fill="rgb(111,183,211)" />
<circle cx="2.142857142857143" cy="10.714285714285714" r="0.42857142857142855" fill="rgb(115,180,209)" />
<circle cx="3" cy="10.714285714285714" r="0.42857142857142855" fill="rgb(118,177,208)" />
<circle cx="3.8571428571428568" cy="10.714285714285714" r="0.42857142857142855" fill="rgb(121,175,206)" />
<circle cx="4.714285714285714" cy="10.714285714285714" r="0.42857142857142855" fill="rgb(124,172,205)" />
<circle cx="5.571428571428571" cy="10.714285714285714" r="0.42857142857142855" fill="rgb(127,169,204)" />
<circle cx="6.428571428571428" cy="10.714285714285714" r="0.42857142857142855" fill="rgb(130,167,202)" />
<circle cx="7.285714285714286" cy="10.714285714285714" r="0.42857142857142855" fill="rgb(133,164,201)" />
<circle cx="8.142857142857142" cy="10.714285714285714" r="0.42857142857142855" fill="rgb(136,161,199)" />
<circle cx="9" cy="10.714285714285714" r="0.42857142857142855" fill="rgb(139,159,198)" />
<circle cx="9.857142857142856" cy="10.714285714285714" r="0.42857142857142855" fill="rgb(142,156,197)" />
<circle cx="11.571428571428571" cy="10.714285714285714" r="0.42857142857142855" fill="rgb(148,150,194)" />
<circle cx="12.428571428571427" cy="10.714285714285714" r="0.42857142857142855" fill="rgb(151,148,192)" />
<circle cx="13.285714285714285" cy="10.714285714285714" r="0.42857142857142855" fill="rgb(154,145,191)" />
<circle cx="14.142857142857142" cy="10.714285714285714" r="0.42857142857142855" fill="rgb(157,142,190)" />
<circle cx="18.428571428571427" cy="10.714285714285714" r="0.42857142857142855" fill="rgb(172,129,183)" />
<circle cx="19.285714285714285" cy="10.714285714285714" r="0.42857142857142855" fill="rgb(175,126,181)" />
<circle cx="20.142857142857142" cy="10.714285714285714" r="0.42857142857142855" fill="rgb(178,123,180)" />
<circle cx="21" cy="10.714285714285714" r="0.42857142857142855" fill="rgb(181,121,178)" />
<circle cx="21.857142857142858" cy="10.714285714285714" r="0.42857142857142855" fill="rgb(184,118,177)" />
<circle cx="22.71428571428571" cy="10.714285714285714" r="0.42857142857142855" fill="rgb(187,115,176)" />
<circle cx="23.57142857142857" cy="10.714285714285714" r="0.42857142857142855" fill="rgb(190,113,174)" />
<circle cx="0.42857142857142855" cy="11.571428571428571" r="0.42857142857142855" fill="rgb(111,183,211)" />
<circle cx="1.2857142857142856" cy="11.571428571428571" r="0.42857142857142855" fill="rgb(115,180,209)" />
<circle cx="2.142857142857143" cy="11.571428571428571" r="0.42857142857142855" fill="rgb(118,177,208)" />
<circle cx="3" cy="11.571428571428571" r="0.42857142857142855" fill="rgb(121,175,206)" />
<circle cx="3.8571428571428568" cy="11.571428571428571" r="0.42857142857142855" fill="rgb(124,172,205)" />
<circle cx="4.714285714285714" cy="11.571428571428571" r="0.42857142857142855" fill="rgb(127,169,204)" />
<circle cx="5.571428571428571" cy="11.571428571428571" r="0.42857142857142855" fill="rgb(130,167,202)" />
<circle cx="6.428571428571428" cy="11.571428571428571" r="0.42857142857142855" fill="rgb(133,164,201)" />
<circle cx="7.285714285714286" cy="11.571428571428571" r="0.42857142857142855" fill="rgb(136,161,199)" />
<circle cx="8.142857142857142" cy="11.571428571428571" r="0.42857142857142855" fill="rgb(139,159,198)" />
<circle cx="9" cy="11.571428571428571" r="0.42857142857142855" fill="rgb(142,156,197)" />
<circle cx="9.857142857142856" cy="11.571428571428571" r="0.42857142857142855" fill="rgb(145,153,195)" />
<circle cx="11.571428571428571" cy="11.571428571428571" r="0.42857142857142855" fill="rgb(151,148,192)" />
<circle cx="12.428571428571427" cy="11.571428571428571" r="0.42857142857142855" fill="rgb(154,145,191)" />
<circle cx="13.285714285714285" cy="11.571428571428571" r="0.42857142857142855" fill="rgb(157,142,190)" />
<circle cx="20.142857142857142" cy="11.571428571428571" r="0.42857142857142855" fill="rgb(181,121,178)" />
<circle cx="21" cy="11.571428571428571" r="0.42857142857142855" fill="rgb(184,118,177)" />
<circle cx="21.857142857142858" cy="11.571428571428571" r="0.42857142857142855" fill="rgb(187,115,176)" />
<circle cx="22.71428571428571" cy="11.571428571428571" r="0.42857142857142855" fill="rgb(190,113,174)" />
<circle cx="23.57142857142857" cy="11.571428571428571" r="0.42857142857142855" fill="rgb(193,110,173)" />
<circle cx="0.42857142857142855" cy="12.428571428571427" r="0.42857142857142855" fill="rgb(115,180,209)" />
<circle cx="1.2857142857142856" cy="12.428571428571427" r="0.42857142857142855" fill="rgb(118,177,208)" />
<circle cx="2.142857142857143" cy="12.428571428571427" r="0.42857142857142855" fill="rgb(121,175,206)" />
<circle cx="3" cy="12.428571428571427" r="0.42857142857142855" fill="rgb(124,172,205)" />
<circle cx="3.8571428571428568" cy="12.428571428571427" r="0.42857142857142855" fill="rgb(127,169,204)" />
<circle cx="4.714285714285714" cy="12.428571428571427" r="0.42857142857142855" fill="rgb(130,167,202)" />
<circle cx="5.571428571428571" cy="12.428571428571427" r="0.42857142857142855" fill="rgb(133,164,201)" />
<circle cx="6.428571428571428" cy="12.428571428571427" r="0.42857142857142855" fill="rgb(136,161,199)" />
<circle cx="7.285714285714286" cy="12.428571428571427" r="0.42857142857142855" fill="rgb(139,159,198)" />
<circle cx="8.142857142857142" cy="12.428571428571427" r="0.42857142857142855" fill="rgb(142,156,197)" />
<circle cx="9" cy="12.428571428571427" r="0.42857142857142855" fill="rgb(145,153,195)" />
<circle cx="9.857142857142856" cy="12.428571428571427" r="0.42857142857142855" fill="rgb(148,150,194)" />
<circle cx="11.571428571428571" cy="12.428571428571427" r="0.42857142857142855" fill="rgb(154,145,191)" />
<circle cx="12.428571428571427" cy="12.428571428571427" r="0.42857142857142855" fill="rgb(157,142,190)" />
<circle cx="13.285714285714285" cy="12.428571428571427" r="0.42857142857142855" fill="rgb(160,140,188)" />
<circle cx="15" cy="12.428571428571427" r="0.42857142857142855" fill="rgb(166,134,185)" />
<circle cx="15.857142857142856" cy="12.428571428571427" r="0.42857142857142855" fill="rgb(169,131,184)" />
<circle cx="16.71428571428571" cy="12.428571428571427" r="0.42857142857142855" fill="rgb(172,129,183)" />
<circle cx="17.57142857142857" cy="12.428571428571427" r="0.42857142857142855" fill="rgb(175,126,181)" />
<circle cx="20.142857142857142" cy="12.428571428571427" r="0.42857142857142855" fill="rgb(184,118,177)" />
<circle cx="21" cy="12.428571428571427" r="0.42857142857142855" fill="rgb(187,115,176)" />
<circle cx="21.857142857142858" cy="12.428571428571427" r="0.42857142857142855" fill="rgb(190,113,174)" />
<circle cx="22.71428571428571" cy="12.428571428571427" r="0.42857142857142855" fill="rgb(193,110,173)" />
<circle cx="23.57142857142857" cy="12.428571428571427" r="0.42857142857142855" fill="rgb(197,107,171)" />
<circle cx="0.42857142857142855" cy="13.285714285714285" r="0.42857142857142855" fill="rgb(118,177,208)" />
<circle cx="1.2857142857142856" cy="13.285714285714285" r="0.42857142857142855" fill="rgb(121,175,206)" />
<circle cx="2.142857142857143" cy="13.285714285714285" r="0.42857142857142855" fill="rgb(124,172,205)" />
<circle cx="3" cy="13.285714285714285" r="0.42857142857142855" fill="rgb(127,169,204)" />
<circle cx="3.8571428571428568" cy="13.285714285714285" r="0.42857142857142855" fill="rgb(130,167,202)" />
<circle cx="4.714285714285714" cy="13.285714285714285" r="0.42857142857142855" fill="rgb(133,164,201)" />
<circle cx="5.571428571428571" cy="13.285714285714285" r="0.42857142857142855" fill="rgb(136,161,199)" />
<circle cx="6.428571428571428" cy="13.285714285714285" r="0.42857142857142855" fill="rgb(139,159,198)" />
<circle cx="7.285714285714286" cy="13.285714285714285" r="0.42857142857142855" fill="rgb(142,156,197)" />
<circle cx="8.142857142857142" cy="13.285714285714285" r="0.42857142857142855" fill="rgb(145,153,195)" />
<circle cx="9" cy="13.285714285714285" r="0.42857142857142855" fill="rgb(148,150,194)" />
<circle cx="9.857142857142856" cy="13.285714285714285" r="0.42857142857142855" fill="rgb(151,148,192)" />
<circle cx="11.571428571428571" cy="13.285714285714285" r="0.42857142857142855" fill="rgb(157,142,190)" />
<circle cx="12.428571428571427" cy="13.285714285714285" r="0.42857142857142855" fill="rgb(160,140,188)" />
<circle cx="13.285714285714285" cy="13.285714285714285" r="0.42857142857142855" fill="rgb(163,137,187)" />
<circle cx="15" cy="13.285714285714285" r="0.42857142857142855" fill="rgb(169,131,184)" />
<circle cx="15.857142857142856" cy="13.285714285714285" r="0.42857142857142855" fill="rgb(172,129,183)" />
<circle cx="16.71428571428571" cy="13.285714285714285" r="0.42857142857142855" fill="rgb(175,126,181)" />
<circle cx="17.57142857142857" cy="13.285714285714285" r="0.42857142857142855" fill="rgb(178,123,180)" />
<circle cx="20.142857142857142" cy="13.285714285714285" r="0.42857142857142855" fill="rgb(187,115,176)" />
<circle cx="21" cy="13.285714285714285" r="0.42857142857142855" fill="rgb(190,113,174)" />
<circle cx="21.857142857142858" cy="13.285714285714285" r="0.42857142857142855" fill="rgb(193,110,173)" />
<circle cx="22.71428571428571" cy="13.285714285714285" r="0.42857142857142855" fill="rgb(197,107,171)" />
<circle cx="23.57142857142857" cy="13.285714285714285" r="0.42857142857142855" fill="rgb(200,104,170)" />
<circle cx="0.42857142857142855" cy="14.142857142857142" r="0.42857142857142855" fill="rgb(121,175,206)" />
<circle cx="1.2857142857142856" cy="14.142857142857142" r="0.42857142857142855" fill="rgb(124,172,205)" />
<circle cx="2.142857142857143" cy="14.142857142857142" r="0.42857142857142855" fill="rgb(127,169,204)" />
<circle cx="3" cy="14.142857142857142" r="0.42857142857142855" fill="rgb(130,167,202)" />
<circle cx="3.8571428571428568" cy="14.142857142857142" r="0.42857142857142855" fill="rgb(133,164,201)" />
<circle cx="4.714285714285714" cy="14.142857142857142" r="0.42857142857142855" fill="rgb(136,161,199)" />
<circle cx="5.571428571428571" cy="14.142857142857142" r="0.42857142857142855" fill="rgb(139,159,198)" />
<circle cx="6.428571428571428" cy="14.142857142857142" r="0.42857142857142855" fill="rgb(142,156,197)" />
<circle cx="7.285714285714286" cy="14.142857142857142" r="0.42857142857142855" fill="rgb(145,153,195)" />
<circle cx="8.142857142857142" cy="14.142857142857142" r="0.42857142857142855" fill="rgb(148,150,194)" />
<circle cx="9" cy="14.142857142857142" r="0.42857142857142855" fill="rgb(151,148,192)" />
<circle cx="9.857142857142856" cy="14.142857142857142" r="0.42857142857142855" fill="rgb(154,145,191)" />
<circle cx="11.571428571428571" cy="14.142857142857142" r="0.42857142857142855" fill="rgb(160,140,188)" />
<circle cx="12.428571428571427" cy="14.142857142857142" r="0.42857142857142855" fill="rgb(163,137,187)" />
<circle cx="13.285714285714285" cy="14.142857142857142" r="0.42857142857142855" fill="rgb(166,134,185)" />
<circle cx="15" cy="14.142857142857142" r="0.42857142857142855" fill="rgb(172,129,183)" />
<circle cx="15.857142857142856" cy="14.142857142857142" r="0.42857142857142855" fill="rgb(175,126,181)" />
<circle cx="16.71428571428571" cy="14.142857142857142" r="0.42857142857142855" fill="rgb(178,123,180)" />
<circle cx="17.57142857142857" cy="14.142857142857142" r="0.42857142857142855" fill="rgb(181,121,178)" />
<circle cx="20.142857142857142" cy="14.142857142857142" r="0.42857142857142855" fill="rgb(190,113,174)" />
<circle cx="21" cy="14.142857142857142" r="0.42857142857142855" fill="rgb(193,110,173)" />
<circle cx="21.857142857142858" cy="14.142857142857142" r="0.42857142857142855" fill="rgb(197,107,171)" />
<circle cx="22.71428571428571" cy="14.142857142857142" r="0.42857142857142855" fill="rgb(200,104,170)" />
<circle cx="23.57142857142857" cy="14.142857142857142" r="0.42857142857142855" fill="rgb(203,102,168)" />
<circle cx="0.42857142857142855" cy="15" r="0.42857142857142855" fill="rgb(124,172,205)" />
<circle cx="1.2857142857142856" cy="15" r="0.42857142857142855" fill="rgb(127,169,204)" />
<circle cx="2.142857142857143" cy="15" r="0.42857142857142855" fill="rgb(130,167,202)" />
<circle cx="3" cy="15" r="0.42857142857142855" fill="rgb(133,164,201)" />
<circle cx="3.8571428571428568" cy="15" r="0.42857142857142855" fill="rgb(136,161,199)" />
<circle cx="4.714285714285714" cy="15" r="0.42857142857142855" fill="rgb(139,159,198)" />
<circle cx="5.571428571428571" cy="15" r="0.42857142857142855" fill="rgb(142,156,197)" />
<circle cx="6.428571428571428" cy="15" r="0.42857142857142855" fill="rgb(145,153,195)" />
<circle cx="7.285714285714286" cy="15" r="0.42857142857142855" fill="rgb(148,150,194)" />
<circle cx="8.142857142857142" cy="15" r="0.42857142857142855" fill="rgb(151,148,192)" />
<circle cx="9" cy="15" r="0.42857142857142855" fill="rgb(154,145,191)" />
<circle cx="9.857142857142856" cy="15" r="0.42857142857142855" fill="rgb(157,142,190)" />
<circle cx="11.571428571428571" cy="15" r="0.42857142857142855" fill="rgb(163,137,187)" />
<circle cx="12.428571428571427" cy="15" r="0.42857142857142855" fill="rgb(166,134,185)" />
<circle cx="13.285714285714285" cy="15" r="0.42857142857142855" fill="rgb(169,131,184)" />
<circle cx="15" cy="15" r="0.42857142857142855" fill="rgb(175,126,181)" />
<circle cx="15.857142857142856" cy="15" r="0.42857142857142855" fill="rgb(178,123,180)" />
<circle cx="16.71428571428571" cy="15" r="0.42857142857142855" fill="rgb(181,121,178)" />
<circle cx="17.57142857142857" cy="15" r="0.42857142857142855" fill="rgb(184,118,177)" />
<circle cx="20.142857142857142" cy="15" r="0.42857142857142855" fill="rgb(193,110,173)" />
<circle cx="21" cy="15" r="0.42857142857142855" fill="rgb(197,107,171)" />
<circle cx="21.857142857142858" cy="15" r="0.42857142857142855" fill="rgb(200,104,170)" />
<circle cx="22.71428571428571" cy="15" r="0.42857142857142855" fill="rgb(203,102,168)" />
<circle cx="23.57142857142857" cy="15" r="0.42857142857142855" fill="rgb(206,99,167)" />
<circle cx="0.42857142857142855" cy="15.857142857142856" r="0.42857142857142855" fill="rgb(127,169,204)" />
<circle cx="1.2857142857142856" cy="15.857142857142856" r="0.42857142857142855" fill="rgb(130,167,202)" />
<circle cx="2.142857142857143" cy="15.857142857142856" r="0.42857142857142855" fill="rgb(133,164,201)" />
<circle cx="3" cy="15.857142857142856" r="0.42857142857142855" fill="rgb(136,161,199)" />
<circle cx="3.8571428571428568" cy="15.857142857142856" r="0.42857142857142855" fill="rgb(139,159,198)" />
<circle cx="4.714285714285714" cy="15.857142857142856" r="0.42857142857142855" fill="rgb(142,156,197)" />
<circle cx="5.571428571428571" cy="15.857142857142856" r="0.42857142857142855" fill="rgb(145,153,195)" />
<circle cx="6.428571428571428" cy="15.857142857142856" r="0.42857142857142855" fill="rgb(148,150,194)" />
<circle cx="7.285714285714286" cy="15.857142857142856" r="0.42857142857142855" fill="rgb(151,148,192)" />
<circle cx="8.142857142857142" cy="15.857142857142856" r="0.42857142857142855" fill="rgb(154,145,191)" />
<circle cx="9" cy="15.857142857142856" r="0.42857142857142855" fill="rgb(157,142,190)" />
<circle cx="9.857142857142856" cy="15.857142857142856" r="0.42857142857142855" fill="rgb(160,140,188)" />
<circle cx="10.714285714285714" cy="15.857142857142856" r="0.42857142857142855" fill="rgb(163,137,187)" />
<circle cx="11.571428571428571" cy="15.857142857142856" r="0.42857142857142855" fill="rgb(166,134,185)" />
<circle cx="12.428571428571427" cy="15.857142857142856" r="0.42857142857142855" fill="rgb(169,131,184)" />
<circle cx="13.285714285714285" cy="15.857142857142856" r="0.42857142857142855" fill="rgb(172,129,183)" />
<circle cx="19.285714285714285" cy="15.857142857142856" r="0.42857142857142855" fill="rgb(193,110,173)" />
<circle cx="20.142857142857142" cy="15.857142857142856" r="0.42857142857142855" fill="rgb(197,107,171)" />
<circle cx="21" cy="15.857142857142856" r="0.42857142857142855" fill="rgb(200,104,170)" />
<circle cx="21.857142857142858" cy="15.857142857142856" r="0.42857142857142855" fill="rgb(203,102,168)" />
<circle cx="22.71428571428571" cy="15.857142857142856" r="0.42857142857142855" fill="rgb(206,99,167)" />
<circle cx="23.57142857142857" cy="15.857142857142856" r="0.42857142857142855" fill="rgb(209,96,166)" />
<circle cx="0.42857142857142855" cy="16.71428571428571" r="0.42857142857142855" fill="rgb(130,167,202)" />
<circle cx="1.2857142857142856" cy="16.71428571428571" r="0.42857142857142855" fill="rgb(133,164,201)" />
<circle cx="2.142857142857143" cy="16.71428571428571" r="0.42857142857142855" fill="rgb(136,161,199)" />
<circle cx="3" cy="16.71428571428571" r="0.42857142857142855" fill="rgb(139,159,198)" />
<circle cx="3.8571428571428568" cy="16.71428571428571" r="0.42857142857142855" fill="rgb(142,156,197)" />
<circle cx="4.714285714285714" cy="16.71428571428571" r="0.42857142857142855" fill="rgb(145,153,195)" />
<circle cx="5.571428571428571" cy="16.71428571428571" r="0.42857142857142855" fill="rgb(148,150,194)" />
<circle cx="6.428571428571428" cy="16.71428571428571" r="0.42857142857142855" fill="rgb(151,148,192)" />
<circle cx="7.285714285714286" cy="16.71428571428571" r="0.42857142857142855" fill="rgb(154,145,191)" />
<circle cx="8.142857142857142" cy="16.71428571428571" r="0.42857142857142855" fill="rgb(157,142,190)" />
<circle cx="9" cy="16.71428571428571" r="0.42857142857142855" fill="rgb(160,140,188)" />
<circle cx="9.857142857142856" cy="16.71428571428571" r="0.42857142857142855" fill="rgb(163,137,187)" />
<circle cx="10.714285714285714" cy="16.71428571428571" r="0.42857142857142855" fill="rgb(166,134,185)" />
<circle cx="11.571428571428571" cy="16.71428571428571" r="0.42857142857142855" fill="rgb(169,131,184)" />
<circle cx="12.428571428571427" cy="16.71428571428571" r="0.42857142857142855" fill="rgb(172,129,183)" />
<circle cx="13.285714285714285" cy="16.71428571428571" r="0.42857142857142855" fill="rgb(175,126,181)" />
<circle cx="14.142857142857142" cy="16.71428571428571" r="0.42857142857142855" fill="rgb(178,123,180)" />
<circle cx="15.857142857142856" cy="16.71428571428571" r="0.42857142857142855" fill="rgb(184,118,177)" />
<circle cx="16.71428571428571" cy="16.71428571428571" r="0.42857142857142855" fill="rgb(187,115,176)" />
<circle cx="17.57142857142857" cy="16.71428571428571" r="0.42857142857142855" fill="rgb(190,113,174)" />
<circle cx="19.285714285714285" cy="16.71428571428571" r="0.42857142857142855" fill="rgb(197,107,171)" />
<circle cx="20.142857142857142" cy="16.71428571428571" r="0.42857142857142855" fill="rgb(200,104,170)" />
<circle cx="21" cy="16.71428571428571" r="0.42857142857142855" fill="rgb(203,102,168)" />
<circle cx="21.857142857142858" cy="16.71428571428571" r="0.42857142857142855" fill="rgb(206,99,167)" />
<circle cx="22.71428571428571" cy="16.71428571428571" r="0.42857142857142855" fill="rgb(209,96,166)" />
<circle cx="23.57142857142857" cy="16.71428571428571" r="0.42857142857142855" fill="rgb(212,94,164)" />
<circle cx="0.42857142857142855" cy="17.57142857142857" r="0.42857142857142855" fill="rgb(133,164,201)" />
<circle cx="1.2857142857142856" cy="17.57142857142857" r="0.42857142857142855" fill="rgb(136,161,199)" />
<circle cx="2.142857142857143" cy="17.57142857142857" r="0.42857142857142855" fill="rgb(139,159,198)" />
<circle cx="3" cy="17.57142857142857" r="0.42857142857142855" fill="rgb(142,156,197)" />
<circle cx="3.8571428571428568" cy="17.57142857142857" r="0.42857142857142855" fill="rgb(145,153,195)" />
<circle cx="4.714285714285714" cy="17.57142857142857" r="0.42857142857142855" fill="rgb(148,150,194)" />
<circle cx="5.571428571428571" cy="17.57142857142857" r="0.42857142857142855" fill="rgb(151,148,192)" />
<circle cx="6.428571428571428" cy="17.57142857142857" r="0.42857142857142855" fill="rgb(154,145,191)" />
<circle cx="7.285714285714286" cy="17.57142857142857" r="0.42857142857142855" fill="rgb(157,142,190)" />
<circle cx="8.142857142857142" cy="17.57142857142857" r="0.42857142857142855" fill="rgb(160,140,188)" />
<circle cx="9" cy="17.57142857142857" r="0.42857142857142855" fill="rgb(163,137,187)" />
<circle cx="9.857142857142856" cy="17.57142857142857" r="0.42857142857142855" fill="rgb(166,134,185)" />
<circle cx="16.71428571428571" cy="17.57142857142857" r="0.42857142857142855" fill="rgb(190,113,174)" />
<circle cx="22.71428571428571" cy="17.57142857142857" r="0.42857142857142855" fill="rgb(212,94,164)" />
<circle cx="23.57142857142857" cy="17.57142857142857" r="0.42857142857142855" fill="rgb(215,91,163)" />
<circle cx="0.42857142857142855" cy="18.428571428571427" r="0.42857142857142855" fill="rgb(136,161,199)" />
<circle cx="1.2857142857142856" cy="18.428571428571427" r="0.42857142857142855" fill="rgb(139,159,198)" />
<circle cx="2.142857142857143" cy="18.428571428571427" r="0.42857142857142855" fill="rgb(142,156,197)" />
<circle cx="3" cy="18.428571428571427" r="0.42857142857142855" fill="rgb(145,153,195)" />
<circle cx="3.8571428571428568" cy="18.428571428571427" r="0.42857142857142855" fill="rgb(148,150,194)" />
<circle cx="4.714285714285714" cy="18.428571428571427" r="0.42857142857142855" fill="rgb(151,148,192)" />
<circle cx="5.571428571428571" cy="18.428571428571427" r="0.42857142857142855" fill="rgb(154,145,191)" />
<circle cx="6.428571428571428" cy="18.428571428571427" r="0.42857142857142855" fill="rgb(157,142,190)" />
<circle cx="7.285714285714286" cy="18.428571428571427" r="0.42857142857142855" fill="rgb(160,140,188)" />
<circle cx="8.142857142857142" cy="18.428571428571427" r="0.42857142857142855" fill="rgb(163,137,187)" />
<circle cx="9" cy="18.428571428571427" r="0.42857142857142855" fill="rgb(166,134,185)" />
<circle cx="9.857142857142856" cy="18.428571428571427" r="0.42857142857142855" fill="rgb(169,131,184)" />
<circle cx="12.428571428571427" cy="18.428571428571427" r="0.42857142857142855" fill="rgb(178,123,180)" />
<circle cx="13.285714285714285" cy="18.428571428571427" r="0.42857142857142855" fill="rgb(181,121,178)" />
<circle cx="14.142857142857142" cy="18.428571428571427" r="0.42857142857142855" fill="rgb(184,118,177)" />
<circle cx="15" cy="18.428571428571427" r="0.42857142857142855" fill="rgb(187,115,176)" />
<circle cx="18.428571428571427" cy="18.428571428571427" r="0.42857142857142855" fill="rgb(200,104,170)" />
<circle cx="19.285714285714285" cy="18.428571428571427" r="0.42857142857142855" fill="rgb(203,102,168)" />
<circle cx="20.142857142857142" cy="18.428571428571427" r="0.42857142857142855" fill="rgb(206,99,167)" />
<circle cx="21" cy="18.428571428571427" r="0.42857142857142855" fill="rgb(209,96,166)" />
<circle cx="22.71428571428571" cy="18.428571428571427" r="0.42857142857142855" fill="rgb(215,91,163)" />
<circle cx="23.57142857142857" cy="18.428571428571427" r="0.42857142857142855" fill="rgb(218,88,161)" />
<circle cx="0.42857142857142855" cy="19.285714285714285" r="0.42857142857142855" fill="rgb(139,159,198)" />
<circle cx="1.2857142857142856" cy="19.285714285714285" r="0.42857142857142855" fill="rgb(142,156,197)" />
<circle cx="2.142857142857143" cy="19.285714285714285" r="0.42857142857142855" fill="rgb(145,153,195)" />
<circle cx="3" cy="19.285714285714285" r="0.42857142857142855" fill="rgb(148,150,194)" />
<circle cx="3.8571428571428568" cy="19.285714285714285" r="0.42857142857142855" fill="rgb(151,148,192)" />
<circle cx="4.714285714285714" cy="19.285714285714285" r="0.42857142857142855" fill="rgb(154,145,191)" />
<circle cx="5.571428571428571" cy="19.285714285714285" r="0.42857142857142855" fill="rgb(157,142,190)" />
<circle cx="6.428571428571428" cy="19.285714285714285" r="0.42857142857142855" fill="rgb(160,140,188)" />
<circle cx="7.285714285714286" cy="19.285714285714285" r="0.42857142857142855" fill="rgb(163,137,187)" />
<circle cx="8.142857142857142" cy="19.285714285714285" r="0.42857142857142855" fill="rgb(166,134,185)" />
<circle cx="9" cy="19.285714285714285" r="0.42857142857142855" fill="rgb(169,131,184)" />
<circle cx="9.857142857142856" cy="19.285714285714285" r="0.42857142857142855" fill="rgb(172,129,183)" />
<circle cx="12.428571428571427" cy="19.285714285714285" r="0.42857142857142855" fill="rgb(181,121,178)" />
<circle cx="13.285714285714285" cy="19.285714285714285" r="0.42857142857142855" fill="rgb(184,118,177)" />
<circle cx="14.142857142857142" cy="19.285714285714285" r="0.42857142857142855" fill="rgb(187,115,176)" />
<circle cx="15" cy="19.285714285714285" r="0.42857142857142855" fill="rgb(190,113,174)" />
<circle cx="18.428571428571427" cy="19.285714285714285" r="0.42857142857142855" fill="rgb(203,102,168)" />
<circle cx="19.285714285714285" cy="19.285714285714285" r="0.42857142857142855" fill="rgb(206,99,167)" />
<circle cx="20.142857142857142" cy="19.285714285714285" r="0.42857142857142855" fill="rgb(209,96,166)" />
<circle cx="21" cy="19.285714285714285" r="0.42857142857142855" fill="rgb(212,94,164)" />
<circle cx="22.71428571428571" cy="19.285714285714285" r="0.42857142857142855" fill="rgb(218,88,161)" />
<circle cx="23.57142857142857" cy="19.285714285714285" r="0.42857142857142855" fill="rgb(221,86,160)" />
<circle cx="0.42857142857142855" cy="20.142857142857142" r="0.42857142857142855" fill="rgb(142,156,197)" />
<circle cx="1.2857142857142856" cy="20.142857142857142" r="0.42857142857142855" fill="rgb(145,153,195)" />
<circle cx="2.142857142857143" cy="20.142857142857142" r="0.42857142857142855" fill="rgb(148,150,194)" />
<circle cx="3" cy="20.142857142857142" r="0.42857142857142855" fill="rgb(151,148,192)" />
<circle cx="3.8571428571428568" cy="20.142857142857142" r="0.42857142857142855" fill="rgb(154,145,191)" />
<circle cx="4.714285714285714" cy="20.142857142857142" r="0.42857142857142855" fill="rgb(157,142,190)" />
<circle cx="5.571428571428571" cy="20.142857142857142" r="0.42857142857142855" fill="rgb(160,140,188)" />
<circle cx="6.428571428571428" cy="20.142857142857142" r="0.42857142857142855" fill="rgb(163,137,187)" />
<circle cx="7.285714285714286" cy="20.142857142857142" r="0.42857142857142855" fill="rgb(166,134,185)" />
<circle cx="8.142857142857142" cy="20.142857142857142" r="0.42857142857142855" fill="rgb(169,131,184)" />
<circle cx="9" cy="20.142857142857142" r="0.42857142857142855" fill="rgb(172,129,183)" />
<circle cx="9.857142857142856" cy="20.142857142857142" r="0.42857142857142855" fill="rgb(175,126,181)" />
<circle cx="12.428571428571427" cy="20.142857142857142" r="0.42857142857142855" fill="rgb(184,118,177)" />
<circle cx="13.285714285714285" cy="20.142857142857142" r="0.42857142857142855" fill="rgb(187,115,176)" />
<circle cx="14.142857142857142" cy="20.142857142857142" r="0.42857142857142855" fill="rgb(190,113,174)" />
<circle cx="15" cy="20.142857142857142" r="0.42857142857142855" fill="rgb(193,110,173)" />
<circle cx="18.428571428571427" cy="20.142857142857142" r="0.42857142857142855" fill="rgb(206,99,167)" />
<circle cx="19.285714285714285" cy="20.142857142857142" r="0.42857142857142855" fill="rgb(209,96,166)" />
<circle cx="20.142857142857142" cy="20.142857142857142" r="0.42857142857142855" fill="rgb(212,94,164)" />
<circle cx="21" cy="20.142857142857142" r="0.42857142857142855" fill="rgb(215,91,163)" />
<circle cx="22.71428571428571" cy="20.142857142857142" r="0.42857142857142855" fill="rgb(221,86,160)" />
<circle cx="23.57142857142857" cy="20.142857142857142" r="0.42857142857142855" fill="rgb(224,83,159)" />
<circle cx="0.42857142857142855" cy="21" r="0.42857142857142855" fill="rgb(145,153,195)" />
<circle cx="1.2857142857142856" cy="21" r="0.42857142857142855" fill="rgb(148,150,194)" />
<circle cx="2.142857142857143" cy="21" r="0.42857142857142855" fill="rgb(151,148,192)" />
<circle cx="3" cy="21" r="0.42857142857142855" fill="rgb(154,145,191)" />
<circle cx="3.8571428571428568" cy="21" r="0.42857142857142855" fill="rgb(157,142,190)" />
<circle cx="4.714285714285714" cy="21" r="0.42857142857142855" fill="rgb(160,140,188)" />
<circle cx="5.571428571428571" cy="21" r="0.42857142857142855" fill="rgb(163,137,187)" />
<circle cx="6.428571428571428" cy="21" r="0.42857142857142855" fill="rgb(166,134,185)" />
<circle cx="7.285714285714286" cy="21" r="0.42857142857142855" fill="rgb(169,131,184)" />
<circle cx="8.142857142857142" cy="21" r="0.42857142857142855" fill="rgb(172,129,183)" />
<circle cx="9" cy="21" r="0.42857142857142855" fill="rgb(175,126,181)" />
<circle cx="9.857142857142856" cy="21" r="0.42857142857142855" fill="rgb(178,123,180)" />
<circle cx="12.428571428571427" cy="21" r="0.42857142857142855" fill="rgb(187,115,176)" />
<circle cx="13.285714285714285" cy="21" r="0.42857142857142855" fill="rgb(190,113,174)" />
<circle cx="14.142857142857142" cy="21" r="0.42857142857142855" fill="rgb(193,110,173)" />
<circle cx="15" cy="21" r="0.42857142857142855" fill="rgb(197,107,171)" />
<circle cx="18.428571428571427" cy="21" r="0.42857142857142855" fill="rgb(209,96,166)" />
<circle cx="19.285714285714285" cy="21" r="0.42857142857142855" fill="rgb(212,94,164)" />
<circle cx="20.142857142857142" cy="21" r="0.42857142857142855" fill="rgb(215,91,163)" />
<circle cx="21" cy="21" r="0.42857142857142855" fill="rgb(218,88,161)" />
<circle cx="22.71428571428571" cy="21" r="0.42857142857142855" fill="rgb(224,83,159)" />
<circle cx="23.57142857142857" cy="21" r="0.42857142857142855" fill="rgb(227,80,157)" />
<circle cx="0.42857142857142855" cy="21.857142857142858" r="0.42857142857142855" fill="rgb(148,150,194)" />
<circle cx="1.2857142857142856" cy="21.857142857142858" r="0.42857142857142855" fill="rgb(151,148,192)" />
<circle cx="2.142857142857143" cy="21.857142857142858" r="0.42857142857142855" fill="rgb(154,145,191)" />
<circle cx="3" cy="21.857142857142858" r="0.42857142857142855" fill="rgb(157,142,190)" />
<circle cx="3.8571428571428568" cy="21.857142857142858" r="0.42857142857142855" fill="rgb(160,140,188)" />
<circle cx="4.714285714285714" cy="21.857142857142858" r="0.42857142857142855" fill="rgb(163,137,187)" />
<circle cx="5.571428571428571" cy="21.857142857142858" r="0.42857142857142855" fill="rgb(166,134,185)" />
<circle cx="9" cy="21.857142857142858" r="0.42857142857142855" fill="rgb(178,123,180)" />
<circle cx="9.857142857142856" cy="21.857142857142858" r="0.42857142857142855" fill="rgb(181,121,178)" />
<circle cx="16.71428571428571" cy="21.857142857142858" r="0.42857142857142855" fill="rgb(206,99,167)" />
<circle cx="22.71428571428571" cy="21.857142857142858" r="0.42857142857142855" fill="rgb(227,80,157)" />
<circle cx="23.57142857142857" cy="21.857142857142858" r="0.42857142857142855" fill="rgb(230,77,156)" />
<circle cx="0.42857142857142855" cy="22.71428571428571" r="0.42857142857142855" fill="rgb(151,148,192)" />
<circle cx="1.2857142857142856" cy="22.71428571428571" r="0.42857142857142855" fill="rgb(154,145,191)" />
<circle cx="2.142857142857143" cy="22.71428571428571" r="0.42857142857142855" fill="rgb(157,142,190)" />
<circle cx="3" cy="22.71428571428571" r="0.42857142857142855" fill="rgb(160,140,188)" />
<circle cx="3.8571428571428568" cy="22.71428571428571" r="0.42857142857142855" fill="rgb(163,137,187)" />
<circle cx="4.714285714285714" cy="22.71428571428571" r="0.42857142857142855" fill="rgb(166,134,185)" />
<circle cx="5.571428571428571" cy="22.71428571428571" r="0.42857142857142855" fill="rgb(169,131,184)" />
<circle cx="6.428571428571428" cy="22.71428571428571" r="0.42857142857142855" fill="rgb(172,129,183)" />
<circle cx="7.285714285714286" cy="22.71428571428571" r="0.42857142857142855" fill="rgb(175,126,181)" />
<circle cx="8.142857142857142" cy="22.71428571428571" r="0.42857142857142855" fill="rgb(178,123,180)" />
<circle cx="9" cy="22.71428571428571" r="0.42857142857142855" fill="rgb(181,121,178)" />
<circle cx="9.857142857142856" cy="22.71428571428571" r="0.42857142857142855" fill="rgb(184,118,177)" />
<circle cx="10.714285714285714" cy="22.71428571428571" r="0.42857142857142855" fill="rgb(187,115,176)" />
<circle cx="11.571428571428571" cy="22.71428571428571" r="0.42857142857142855" fill="rgb(190,113,174)" />
<circle cx="12.428571428571427" cy="22.71428571428571" r="0.42857142857142855" fill="rgb(193,110,173)" />
<circle cx="13.285714285714285" cy="22.71428571428571" r="0.42857142857142855" fill="rgb(197,107,171)" />
<circle cx="14.142857142857142" cy="22.71428571428571" r="0.42857142857142855" fill="rgb(200,104,170)" />
<circle cx="15" cy="22.71428571428571" r="0.42857142857142855" fill="rgb(203,102,168)" />
<circle cx="15.857142857142856" cy="22.71428571428571" r="0.42857142857142855" fill="rgb(206,99,167)" />
<circle cx="16.71428571428571" cy="22.71428571428571" r="0.42857142857142855" fill="rgb(209,96,166)" />
<circle cx="17.57142857142857" cy="22.71428571428571" r="0.42857142857142855" fill="rgb(212,94,164)" />
<circle cx="18.428571428571427" cy="22.71428571428571" r="0.42857142857142855" fill="rgb(215,91,163)" />
<circle cx="19.285714285714285" cy="22.71428571428571" r="0.42857142857142855" fill="rgb(218,88,161)" />
<circle cx="20.142857142857142" cy="22.71428571428571" r="0.42857142857142855" fill="rgb(221,86,160)" />
<circle cx="21" cy="22.71428571428571" r="0.42857142857142855" fill="rgb(224,83,159)" />
<circle cx="21.857142857142858" cy="22.71428571428571" r="0.42857142857142855" fill="rgb(227,80,157)" />
<circle cx="22.71428571428571" cy="22.71428571428571" r="0.42857142857142855" fill="rgb(230,77,156)" />
<circle cx="23.57142857142857" cy="22.71428571428571" r="0.42857142857142855" fill="rgb(233,75,154)" />
<circle cx="0.42857142857142855" cy="23.57142857142857" r="0.42857142857142855" fill="rgb(154,145,191)" />
<circle cx="1.2857142857142856" cy="23.57142857142857" r="0.42857142857142855" fill="rgb(157,142,190)" />
<circle cx="2.142857142857143" cy="23.57142857142857" r="0.42857142857142855" fill="rgb(160,140,188)" />
<circle cx="3" cy="23.57142857142857" r="0.42857142857142855" fill="rgb(163,137,187)" />
<circle cx="3.8571428571428568" cy="23.57142857142857" r="0.42857142857142855" fill="rgb(166,134,185)" />
<circle cx="4.714285714285714" cy="23.57142857142857" r="0.42857142857142855" fill="rgb(169,131,184)" />
<circle cx="5.571428571428571" cy="23.57142857142857" r="0.42857142857142855" fill="rgb(172,129,183)" />
<circle cx="6.428571428571428" cy="23.57142857142857" r="0.42857142857142855" fill="rgb(175,126,181)" />
<circle cx="7.285714285714286" cy="23.57142857142857" r="0.42857142857142855" fill="rgb(178,123,180)" />
<circle cx="8.142857142857142" cy="23.57142857142857" r="0.42857142857142855" fill="rgb(181,121,178)" />
<circle cx="9" cy="23.57142857142857" r="0.42857142857142855" fill="rgb(184,118,177)" />
<circle cx="9.857142857142856" cy="23.57142857142857" r="0.42857142857142855" fill="rgb(187,115,176)" />
<circle cx="10.714285714285714" cy="23.57142857142857" r="0.42857142857142855" fill="rgb(190,113,174)" />
<circle cx="11.571428571428571" cy="23.57142857142857" r="0.42857142857142855" fill="rgb(193,110,173)" />
<circle cx="12.428571428571427" cy="23.57142857142857" r="0.42857142857142855" fill="rgb(197,107,171)" />
<circle cx="13.285714285714285" cy="23.57142857142857" r="0.42857142857142855" fill="rgb(200,104,170)" />
<circle cx="14.142857142857142" cy="23.57142857142857" r="0.42857142857142855" fill="rgb(203,102,168)" />
<circle cx="15" cy="23.57142857142857" r="0.42857142857142855" fill="rgb(206,99,167)" />
<circle cx="15.857142857142856" cy="23.57142857142857" r="0.42857142857142855" fill="rgb(209,96,166)" />
<circle cx="16.71428571428571" cy="23.57142857142857" r="0.42857142857142855" fill="rgb(212,94,164)" />
<circle cx="17.57142857142857" cy="23.57142857142857" r="0.42857142857142855" fill="rgb(215,91,163)" />
<circle cx="18.428571428571427" cy="23.57142857142857" r="0.42857142857142855" fill="rgb(218,88,161)" />
<circle cx="19.285714285714285" cy="23.57142857142857" r="0.42857142857142855" fill="rgb(221,86,160)" />
<circle cx="20.142857142857142" cy="23.57142857142857" r="0.42857142857142855" fill="rgb(224,83,159)" />
<circle cx="21" cy="23.57142857142857" r="0.42857142857142855" fill="rgb(227,80,157)" />
<circle cx="21.857142857142858" cy="23.57142857142857" r="0.42857142857142855" fill="rgb(230,77,156)" />
<circle cx="22.71428571428571" cy="23.57142857142857" r="0.42857142857142855" fill="rgb(233,75,154)" />
<circle cx="23.57142857142857" cy="23.57142857142857" r="0.42857142857142855" fill="rgb(236,72,153)" />
</svg>