<svg viewBox="0 0 24 24" fill="#000000" xmlns="http://www.w3.org/2000/svg"><rect x="1.714" y="11.143" width="0.8571428571428571" height="0.8571428571428571" /><rect x="2.571" y="11.143" width="0.8571428571428571" height="0.8571428571428571" /><rect x="3.429" y="11.143" width="0.8571428571428571" height="0.8571428571428571" /><rect x="6.857" y="11.143" width="0.8571428571428571" height="0.8571428571428571" /><rect x="7.714" y="11.143" width="0.8571428571428571" height="0.8571428571428571" /><rect x="8.571" y="11.143" width="0.8571428571428571" height="0.8571428571428571" /><rect x="9.429" y="11.143" width="0.8571428571428571" height="0.8571428571428571" /><rect x="13.714" y="11.143" width="0.8571428571428571" height="0.8571428571428571" /><rect x="14.571" y="11.143" width="0.8571428571428571" height="0.8571428571428571" /><rect x="15.429" y="11.143" width="0.8571428571428571" height="0.8571428571428571" /><rect x="16.286" y="11.143" width="0.8571428571428571" height="0.8571428571428571" /><rect x="20.571" y="11.143" width="0.8571428571428571" height="0.8571428571428571" /><rect x="21.429" y="11.143" width="0.8571428571428571" height="0.8571428571428571" /><rect x="1.714" y="12.000" width="0.8571428571428571" height="0.8571428571428571" /><rect x="2.571" y="12.000" width="0.8571428571428571" height="0.8571428571428571" /><rect x="3.429" y="12.000" width="0.8571428571428571" height="0.8571428571428571" /><rect x="6.857" y="12.000" width="0.8571428571428571" height="0.8571428571428571" /><rect x="7.714" y="12.000" width="0.8571428571428571" height="0.8571428571428571" /><rect x="8.571" y="12.000" width="0.8571428571428571" height="0.8571428571428571" /><rect x="9.429" y="12.000" width="0.8571428571428571" height="0.8571428571428571" /><rect x="13.714" y="12.000" width="0.8571428571428571" height="0.8571428571428571" /><rect x="14.571" y="12.000" width="0.8571428571428571" height="0.8571428571428571" /><rect x="15.429" y="12.000" width="0.8571428571428571" height="0.8571428571428571" /><rect x="16.286" y="12.000" width="0.8571428571428571" height="0.8571428571428571" /><rect x="20.571" y="12.000" width="0.8571428571428571" height="0.8571428571428571" /><rect x="21.429" y="12.000" width="0.8571428571428571" height="0.8571428571428571" /></svg>