<svg viewBox="0 0 24 24" fill="#000000" xmlns="http://www.w3.org/2000/svg"><rect x="10.286" y="9.429" width="0.8571428571428571" height="0.8571428571428571" /><rect x="11.143" y="9.429" width="0.8571428571428571" height="0.8571428571428571" /><rect x="12.000" y="9.429" width="0.8571428571428571" height="0.8571428571428571" /><rect x="12.857" y="9.429" width="0.8571428571428571" height="0.8571428571428571" /><rect x="9.429" y="10.286" width="0.8571428571428571" height="0.8571428571428571" /><rect x="10.286" y="10.286" width="0.8571428571428571" height="0.8571428571428571" /><rect x="12.857" y="10.286" width="0.8571428571428571" height="0.8571428571428571" /><rect x="13.714" y="10.286" width="0.8571428571428571" height="0.8571428571428571" /><rect x="9.429" y="11.143" width="0.8571428571428571" height="0.8571428571428571" /><rect x="10.286" y="11.143" width="0.8571428571428571" height="0.8571428571428571" /><rect x="12.857" y="11.143" width="0.8571428571428571" height="0.8571428571428571" /><rect x="13.714" y="11.143" width="0.8571428571428571" height="0.8571428571428571" /><rect x="9.429" y="12.000" width="0.8571428571428571" height="0.8571428571428571" /><rect x="10.286" y="12.000" width="0.8571428571428571" height="0.8571428571428571" /><rect x="12.857" y="12.000" width="0.8571428571428571" height="0.8571428571428571" /><rect x="13.714" y="12.000" width="0.8571428571428571" height="0.8571428571428571" /><rect x="9.429" y="12.857" width="0.8571428571428571" height="0.8571428571428571" /><rect x="10.286" y="12.857" width="0.8571428571428571" height="0.8571428571428571" /><rect x="11.143" y="12.857" width="0.8571428571428571" height="0.8571428571428571" /><rect x="12.000" y="12.857" width="0.8571428571428571" height="0.8571428571428571" /><rect x="12.857" y="12.857" width="0.8571428571428571" height="0.8571428571428571" /><rect x="13.714" y="12.857" width="0.8571428571428571" height="0.8571428571428571" /><rect x="10.286" y="13.714" width="0.8571428571428571" height="0.8571428571428571" /><rect x="11.143" y="13.714" width="0.8571428571428571" height="0.8571428571428571" /><rect x="12.000" y="13.714" width="0.8571428571428571" height="0.8571428571428571" /><rect x="12.857" y="13.714" width="0.8571428571428571" height="0.8571428571428571" /></svg>