<svg viewBox="0 0 24 24" fill="#000000" xmlns="http://www.w3.org/2000/svg"><rect x="1.714" y="9.429" width="0.8571428571428571" height="0.8571428571428571" /><rect x="2.571" y="9.429" width="0.8571428571428571" height="0.8571428571428571" /><rect x="1.714" y="10.286" width="0.8571428571428571" height="0.8571428571428571" /><rect x="2.571" y="10.286" width="0.8571428571428571" height="0.8571428571428571" /><rect x="1.714" y="12.857" width="0.8571428571428571" height="0.8571428571428571" /><rect x="5.143" y="12.857" width="0.8571428571428571" height="0.8571428571428571" /><rect x="0.857" y="13.714" width="0.8571428571428571" height="0.8571428571428571" /><rect x="1.714" y="13.714" width="0.8571428571428571" height="0.8571428571428571" /><rect x="2.571" y="13.714" width="0.8571428571428571" height="0.8571428571428571" /><rect x="5.143" y="13.714" width="0.8571428571428571" height="0.8571428571428571" /><rect x="6.000" y="13.714" width="0.8571428571428571" height="0.8571428571428571" /><rect x="1.714" y="14.571" width="0.8571428571428571" height="0.8571428571428571" /><rect x="2.571" y="14.571" width="0.8571428571428571" height="0.8571428571428571" /><rect x="5.143" y="14.571" width="0.8571428571428571" height="0.8571428571428571" /><rect x="6.000" y="14.571" width="0.8571428571428571" height="0.8571428571428571" /><rect x="1.714" y="17.143" width="0.8571428571428571" height="0.8571428571428571" /><rect x="2.571" y="17.143" width="0.8571428571428571" height="0.8571428571428571" /><rect x="5.143" y="17.143" width="0.8571428571428571" height="0.8571428571428571" /><rect x="6.000" y="17.143" width="0.8571428571428571" height="0.8571428571428571" /><rect x="8.571" y="17.143" width="0.8571428571428571" height="0.8571428571428571" /><rect x="9.429" y="17.143" width="0.8571428571428571" height="0.8571428571428571" /><rect x="1.714" y="18.000" width="0.8571428571428571" height="0.8571428571428571" /><rect x="2.571" y="18.000" width="0.8571428571428571" height="0.8571428571428571" /><rect x="5.143" y="18.000" width="0.8571428571428571" height="0.8571428571428571" /><rect x="6.000" y="18.000" width="0.8571428571428571" height="0.8571428571428571" /><rect x="8.571" y="18.000" width="0.8571428571428571" height="0.8571428571428571" /><rect x="9.429" y="18.000" width="0.8571428571428571" height="0.8571428571428571" /><rect x="1.714" y="20.571" width="0.8571428571428571" height="0.8571428571428571" /><rect x="5.143" y="20.571" width="0.8571428571428571" height="0.8571428571428571" /><rect x="6.000" y="20.571" width="0.8571428571428571" height="0.8571428571428571" /><rect x="8.571" y="20.571" width="0.8571428571428571" height="0.8571428571428571" /><rect x="9.429" y="20.571" width="0.8571428571428571" height="0.8571428571428571" /><rect x="12.857" y="20.571" width="0.8571428571428571" height="0.8571428571428571" /><rect x="13.714" y="20.571" width="0.8571428571428571" height="0.8571428571428571" /><rect x="0.857" y="21.429" width="0.8571428571428571" height="0.8571428571428571" /><rect x="1.714" y="21.429" width="0.8571428571428571" height="0.8571428571428571" /><rect x="2.571" y="21.429" width="0.8571428571428571" height="0.8571428571428571" /><rect x="5.143" y="21.429" width="0.8571428571428571" height="0.8571428571428571" /><rect x="6.000" y="21.429" width="0.8571428571428571" height="0.8571428571428571" /><rect x="8.571" y="21.429" width="0.8571428571428571" height="0.8571428571428571" /><rect x="9.429" y="21.429" width="0.8571428571428571" height="0.8571428571428571" /><rect x="10.286" y="21.429" width="0.8571428571428571" height="0.8571428571428571" /><rect x="12.000" y="21.429" width="0.8571428571428571" height="0.8571428571428571" /><rect x="12.857" y="21.429" width="0.8571428571428571" height="0.8571428571428571" /><rect x="13.714" y="21.429" width="0.8571428571428571" height="0.8571428571428571" /><rect x="1.714" y="22.286" width="0.8571428571428571" height="0.8571428571428571" /><rect x="5.143" y="22.286" width="0.8571428571428571" height="0.8571428571428571" /><rect x="6.000" y="22.286" width="0.8571428571428571" height="0.8571428571428571" /><rect x="9.429" y="22.286" width="0.8571428571428571" height="0.8571428571428571" /><rect x="12.857" y="22.286" width="0.8571428571428571" height="0.8571428571428571" /></svg>